<svg width="40" height="40" viewBox="0 0 40 40" fill="none" xmlns="http://www.w3.org/2000/svg">
<g clip-path="url(#clip0_5438_38797)">
<path d="M23.838 5.33049C29.1258 6.70931 33.2836 10.8742 34.6695 16.162C32.8003 16.1692 31.2509 17.5195 30.9168 19.2893H23.774C23.6745 18.7562 23.4684 18.2658 23.1699 17.8323L25.7285 15.2665C26.0057 15.3945 26.3042 15.4726 26.6311 15.4726C27.7967 15.4726 28.742 14.5274 28.742 13.3618C28.742 12.1962 27.7967 11.2509 26.6311 11.2509C25.4655 11.2509 24.5203 12.1962 24.5203 13.3618C24.5203 13.6816 24.5984 13.9872 24.7264 14.2573L22.1606 16.823C21.7271 16.5316 21.2367 16.3184 20.7036 16.2189V9.07605C22.4805 8.742 23.8237 7.19261 23.8308 5.32338L23.838 5.33049ZM9.08316 19.2893H16.226C16.3255 18.7562 16.5316 18.2658 16.823 17.8323L14.2644 15.2665C13.9943 15.3945 13.6887 15.4726 13.3618 15.4726C12.1962 15.4726 11.2509 14.5274 11.2509 13.3618C11.2509 13.0348 11.3291 12.7363 11.457 12.4591C11.6631 12.0185 12.0185 11.6631 12.4591 11.457C12.7292 11.3291 13.0348 11.2509 13.3618 11.2509C14.5274 11.2509 15.4726 12.1962 15.4726 13.3618C15.4726 13.6816 15.3945 13.9872 15.2665 14.2644L17.8323 16.8301C18.2587 16.5387 18.7562 16.3255 19.2893 16.226V9.08316C17.5124 8.74911 16.1692 7.19972 16.162 5.33049C10.8742 6.70931 6.71642 10.8742 5.33049 16.162C7.19972 16.1692 8.74911 17.5195 9.08316 19.2893ZM19.2893 30.9168V23.774C18.7562 23.6745 18.2658 23.4684 17.8323 23.1699L15.2665 25.7356C15.3945 26.0057 15.4726 26.3113 15.4726 26.6382C15.4726 27.8038 14.5274 28.7491 13.3618 28.7491C12.1962 28.7491 11.2509 27.8038 11.2509 26.6382C11.2509 25.4726 12.1962 24.5274 13.3618 24.5274C13.6887 24.5274 13.9872 24.6055 14.2644 24.7335L16.8301 22.1677C16.5316 21.7342 16.3255 21.2438 16.226 20.7107H9.08316C8.74911 22.4876 7.19972 23.8308 5.33049 23.838C6.70931 29.1258 10.8742 33.2907 16.162 34.6695C16.1692 32.8003 17.5195 31.2509 19.2893 30.9168ZM30.9168 20.7107H23.774C23.6745 21.2438 23.4684 21.7342 23.1699 22.1677L25.7285 24.7335C26.0057 24.6055 26.3042 24.5274 26.6311 24.5274C27.7967 24.5274 28.742 25.4726 28.742 26.6382C28.742 26.9652 28.6638 27.2637 28.5359 27.5409C28.3298 27.9815 27.9744 28.3369 27.5338 28.543C27.2637 28.6709 26.9581 28.7491 26.6311 28.7491C25.4655 28.7491 24.5203 27.8038 24.5203 26.6382C24.5203 26.3184 24.5984 26.0128 24.7264 25.7356L22.1606 23.1699C21.7271 23.4613 21.2367 23.6745 20.7036 23.774V30.9168C22.4805 31.2509 23.8237 32.8003 23.8308 34.6695C29.1187 33.2907 33.2765 29.1258 34.6624 23.838C32.7932 23.8308 31.2438 22.4805 30.9097 20.7107H30.9168ZM40 20C40 8.96944 31.0235 0 20 0C8.97655 0 0 8.96944 0 20C0 31.0306 8.96944 40 20 40C31.0306 40 40 31.0306 40 20ZM37.619 20C37.619 29.7157 29.7157 37.619 20 37.619C10.2843 37.619 2.38095 29.7086 2.38095 20C2.38095 10.2914 10.2843 2.38095 20 2.38095C29.7157 2.38095 37.619 10.2843 37.619 20Z" fill="#8DC63F"/>
</g>
<defs>
<clipPath id="clip0_5438_38797">
<rect width="40" height="40" fill="white"/>
</clipPath>
</defs>
</svg>
