<?xml version="1.0" encoding="UTF-8" standalone="no"?>
<!DOCTYPE svg PUBLIC "-//W3C//DTD SVG 1.1//EN"
 "http://www.w3.org/Graphics/SVG/1.1/DTD/svg11.dtd">
<!-- Generated by graphviz version 2.47.0 (20210316.0004)
 -->
<!-- Title: dependencies Pages: 1 -->
<svg width="504pt" height="284pt"
 viewBox="0.00 0.00 504.00 284.00" xmlns="http://www.w3.org/2000/svg" xmlns:xlink="http://www.w3.org/1999/xlink">
<g id="graph0" class="graph" transform="scale(1 1) rotate(0) translate(4 280)">
<title>dependencies</title>
<polygon fill="white" stroke="transparent" points="-4,4 -4,-280 500,-280 500,4 -4,4"/>
<text text-anchor="start" x="227.01" y="-42.4" font-family="Times-12" font-weight="bold" font-size="14.00">Legend</text>
<polygon fill="#ffffb3" stroke="transparent" points="14,-10 14,-30 34,-30 34,-10 14,-10"/>
<text text-anchor="start" x="37.63" y="-15.4" font-family="Times-12" font-size="14.00"> &#160;Declarations</text>
<polygon fill="#8dd3c7" stroke="transparent" points="127,-10 127,-30 147,-30 147,-10 127,-10"/>
<text text-anchor="start" x="150.73" y="-15.4" font-family="Times-12" font-size="14.00"> &#160;Module</text>
<polygon fill="#80b1d3" stroke="transparent" points="213,-10 213,-30 233,-30 233,-10 213,-10"/>
<text text-anchor="start" x="236.78" y="-15.4" font-family="Times-12" font-size="14.00"> &#160;Bootstrap</text>
<polygon fill="#fdb462" stroke="transparent" points="310,-10 310,-30 330,-30 330,-10 310,-10"/>
<text text-anchor="start" x="333.67" y="-15.4" font-family="Times-12" font-size="14.00"> &#160;Providers</text>
<polygon fill="#fb8072" stroke="transparent" points="406,-10 406,-30 426,-30 426,-10 406,-10"/>
<text text-anchor="start" x="429.73" y="-15.4" font-family="Times-12" font-size="14.00"> &#160;Exports</text>
<g id="clust1" class="cluster">
<title>cluster_TwoDimImageModule</title>
<polygon fill="none" stroke="black" stroke-dasharray="1,5" points="73,-70 73,-268 423,-268 423,-70 73,-70"/>
</g>
<g id="clust4" class="cluster">
<title>cluster_TwoDimImageModule_imports</title>
<polygon fill="none" stroke="black" points="271,-78 271,-130 415,-130 415,-78 271,-78"/>
</g>
<g id="clust2" class="cluster">
<title>cluster_TwoDimImageModule_declarations</title>
<polygon fill="none" stroke="black" points="81,-78 81,-130 263,-130 263,-78 81,-78"/>
</g>
<g id="clust5" class="cluster">
<title>cluster_TwoDimImageModule_exports</title>
<polygon fill="none" stroke="black" points="155,-208 155,-260 341,-260 341,-208 155,-208"/>
</g>
<!-- TwoDimImageComponent -->
<g id="node1" class="node">
<title>TwoDimImageComponent</title>
<polygon fill="#ffffb3" stroke="black" points="255.36,-122 88.64,-122 88.64,-86 255.36,-86 255.36,-122"/>
<text text-anchor="middle" x="172" y="-99.8" font-family="Times,serif" font-size="14.00">TwoDimImageComponent</text>
</g>
<!-- TwoDimImageModule -->
<g id="node2" class="node">
<title>TwoDimImageModule</title>
<polygon fill="#8dd3c7" stroke="black" points="320.58,-187 317.58,-191 296.58,-191 293.58,-187 175.42,-187 175.42,-151 320.58,-151 320.58,-187"/>
<text text-anchor="middle" x="248" y="-164.8" font-family="Times,serif" font-size="14.00">TwoDimImageModule</text>
</g>
<!-- TwoDimImageComponent&#45;&gt;TwoDimImageModule -->
<g id="edge1" class="edge">
<title>TwoDimImageComponent&#45;&gt;TwoDimImageModule</title>
<path fill="none" stroke="black" d="M215.45,-122.11C215.45,-122.11 215.45,-140.99 215.45,-140.99"/>
<polygon fill="black" stroke="black" points="211.95,-140.99 215.45,-150.99 218.95,-140.99 211.95,-140.99"/>
</g>
<!-- TwoDimImageComponent  -->
<g id="node4" class="node">
<title>TwoDimImageComponent </title>
<polygon fill="#fb8072" stroke="black" points="333.36,-252 162.64,-252 162.64,-216 333.36,-216 333.36,-252"/>
<text text-anchor="middle" x="248" y="-229.8" font-family="Times,serif" font-size="14.00">TwoDimImageComponent </text>
</g>
<!-- TwoDimImageModule&#45;&gt;TwoDimImageComponent  -->
<g id="edge3" class="edge">
<title>TwoDimImageModule&#45;&gt;TwoDimImageComponent </title>
<path fill="none" stroke="black" stroke-dasharray="5,2" d="M248,-187.11C248,-187.11 248,-205.99 248,-205.99"/>
<polygon fill="black" stroke="black" points="244.5,-205.99 248,-215.99 251.5,-205.99 244.5,-205.99"/>
</g>
<!-- NgOptimizedImage -->
<g id="node3" class="node">
<title>NgOptimizedImage</title>
<polygon fill="#8dd3c7" stroke="black" points="406.69,-122 403.69,-126 382.69,-126 379.69,-122 279.31,-122 279.31,-86 406.69,-86 406.69,-122"/>
<text text-anchor="middle" x="343" y="-99.8" font-family="Times,serif" font-size="14.00">NgOptimizedImage</text>
</g>
<!-- NgOptimizedImage&#45;&gt;TwoDimImageModule -->
<g id="edge2" class="edge">
<title>NgOptimizedImage&#45;&gt;TwoDimImageModule</title>
<path fill="none" stroke="black" d="M299.97,-122.11C299.97,-122.11 299.97,-140.99 299.97,-140.99"/>
<polygon fill="black" stroke="black" points="296.47,-140.99 299.97,-150.99 303.47,-140.99 296.47,-140.99"/>
</g>
</g>
</svg>
