<svg width="204" height="48" viewBox="0 0 204 48" fill="none" xmlns="http://www.w3.org/2000/svg">
<g clip-path="url(#clip0_2595_2157)">
<path d="M24.005 48.0099C37.2625 48.0099 48.0099 37.2625 48.0099 24.005C48.0099 10.7474 37.2625 0 24.005 0C10.7474 0 0 10.7474 0 24.005C0 37.2625 10.7474 48.0099 24.005 48.0099Z" fill="#201E3D"/>
<path d="M27.0346 21.8567H26.1428C26.1428 19.0224 27.7392 16.7139 29.7012 16.7139H33.8571V17.6052H29.7012C28.2564 17.6052 27.0346 19.5482 27.0346 21.8567Z" fill="white"/>
<path d="M32.3529 26.1431C31.2612 26.1431 29.9369 26.1174 28.9973 26.0057C26.8945 25.7566 26.2144 22.3899 26.1428 22.012L27.0197 21.8574C27.1808 22.7249 27.8698 25.0094 29.1047 25.1554C30.8854 25.3702 34.223 25.2585 34.2588 25.2585L34.2857 26.1174C34.2141 26.1174 33.3909 26.1431 32.3529 26.1431Z" fill="white"/>
<path d="M19.3204 26.5716H18.4286C18.4286 23.7372 20.025 21.4287 21.987 21.4287H26.1429V22.32H21.987C20.5422 22.32 19.3204 24.2631 19.3204 26.5716Z" fill="white"/>
<path d="M24.6386 32.5717C23.547 32.5717 22.2316 32.5434 21.2831 32.4205C19.1802 32.1466 18.5002 28.4432 18.4286 28.0275L19.3055 27.8574C19.4666 28.8116 20.1556 31.3246 21.3904 31.4852C23.1711 31.7214 26.5088 31.6081 26.5446 31.5986L26.5714 32.5434C26.4999 32.5434 25.6766 32.5717 24.6297 32.5717H24.6386Z" fill="white"/>
<path d="M26.3571 24.4282C27.659 24.4282 28.7143 23.3728 28.7143 22.071C28.7143 20.7692 27.659 19.7139 26.3571 19.7139C25.0553 19.7139 24 20.7692 24 22.071C24 23.3728 25.0553 24.4282 26.3571 24.4282Z" fill="white"/>
<path d="M27 34.2857C28.1835 34.2857 29.1429 33.3263 29.1429 32.1429C29.1429 30.9594 28.1835 30 27 30C25.8166 30 24.8572 30.9594 24.8572 32.1429C24.8572 33.3263 25.8166 34.2857 27 34.2857Z" fill="white"/>
<path d="M33.6429 19.7143C34.9447 19.7143 36.0001 18.659 36.0001 17.3571C36.0001 16.0553 34.9447 15 33.6429 15C32.3411 15 31.2858 16.0553 31.2858 17.3571C31.2858 18.659 32.3411 19.7143 33.6429 19.7143Z" fill="white"/>
<path d="M18.4286 26.1426H12V26.9997H18.4286V26.1426Z" fill="white"/>
<path d="M12.4286 28.7144C13.6121 28.7144 14.5715 27.755 14.5715 26.5716C14.5715 25.3881 13.6121 24.4287 12.4286 24.4287C11.2452 24.4287 10.2858 25.3881 10.2858 26.5716C10.2858 27.755 11.2452 28.7144 12.4286 28.7144Z" fill="white"/>
<path d="M19.0714 28.7144C20.3732 28.7144 21.4285 27.755 21.4285 26.5716C21.4285 25.3881 20.3732 24.4287 19.0714 24.4287C17.7696 24.4287 16.7142 25.3881 16.7142 26.5716C16.7142 27.755 17.7696 28.7144 19.0714 28.7144Z" fill="white"/>
<path d="M36.4779 25.6319L34.5866 23.5895C34.4024 23.3907 34.092 23.3788 33.8931 23.5629L31.8507 25.4542C31.6519 25.6383 31.64 25.9488 31.8241 26.1476L33.7154 28.19C33.8995 28.3889 34.21 28.4008 34.4088 28.2167L36.4512 26.3254C36.6501 26.1412 36.662 25.8308 36.4779 25.6319Z" fill="white"/>
</g>
<path d="M66.088 31V14.512H71.776C77.104 14.512 80.896 17.92 80.896 22.744C80.896 27.568 77.104 31 71.776 31H66.088ZM68.512 28.792H71.92C75.736 28.792 78.4 26.296 78.4 22.744C78.4 19.216 75.736 16.72 71.92 16.72H68.512V28.792ZM89.2173 18.304C92.5533 18.304 94.4012 20.416 94.4012 23.488V31H92.0733V29.296C91.1613 30.592 89.4573 31.288 87.9453 31.288C85.3053 31.288 83.3613 29.752 83.3613 27.328C83.3613 24.856 85.5933 23.2 88.3293 23.2C89.5533 23.2 90.8733 23.464 92.0733 23.872V23.488C92.0733 21.928 91.3533 20.272 88.8813 20.272C87.6573 20.272 86.4573 20.752 85.3773 21.304L84.5133 19.552C86.2893 18.664 87.8493 18.304 89.2173 18.304ZM88.4013 29.416C89.9373 29.416 91.6653 28.648 92.0733 27.112V25.456C91.0653 25.144 89.9133 24.976 88.6893 24.976C87.0333 24.976 85.6413 25.912 85.6413 27.256C85.6413 28.6 86.8413 29.416 88.4013 29.416ZM102.325 31.288C100.501 31.288 98.5094 30.64 97.0214 29.44L98.1494 27.736C99.4694 28.696 100.885 29.248 102.349 29.248C103.741 29.248 104.701 28.6 104.701 27.64C104.701 26.488 103.429 26.128 101.893 25.696C99.0374 24.904 97.6214 24.088 97.6214 22.072C97.5974 19.792 99.4934 18.304 102.133 18.304C103.741 18.304 105.373 18.856 106.717 19.744L105.661 21.496C104.461 20.752 103.213 20.344 102.133 20.344C100.909 20.344 99.9494 20.872 99.9494 21.808C99.9494 22.768 100.717 23.056 102.805 23.704C104.845 24.304 107.029 24.976 107.029 27.448C107.029 29.8 105.037 31.288 102.325 31.288ZM116.103 18.304C118.839 18.304 120.759 20.296 120.759 23.104V31H118.431V23.512C118.431 21.664 117.255 20.368 115.575 20.368C113.703 20.368 112.143 21.688 112.143 23.296V31H109.791V14.224H112.143V20.44C112.887 19.192 114.398 18.304 116.103 18.304ZM131.046 18.304C134.31 18.304 136.758 20.992 136.758 24.784C136.758 28.6 134.31 31.288 131.046 31.288C129.126 31.288 127.59 30.376 126.63 28.84V31H124.278V14.224H126.63V20.728C127.59 19.216 129.126 18.304 131.046 18.304ZM130.47 29.224C132.75 29.224 134.358 27.376 134.358 24.784C134.358 22.192 132.75 20.368 130.47 20.368C128.238 20.368 126.63 22.192 126.63 24.784C126.63 27.376 128.238 29.224 130.47 29.224ZM145.506 31.288C141.954 31.288 138.954 28.312 138.954 24.784C138.954 21.256 141.954 18.304 145.506 18.304C149.034 18.304 152.01 21.256 152.01 24.784C152.01 28.312 149.034 31.288 145.506 31.288ZM145.506 29.224C147.738 29.224 149.634 27.208 149.634 24.784C149.634 22.384 147.738 20.368 145.506 20.368C143.226 20.368 141.33 22.384 141.33 24.784C141.33 27.208 143.226 29.224 145.506 29.224ZM159.999 18.304C163.335 18.304 165.182 20.416 165.182 23.488V31H162.855V29.296C161.943 30.592 160.239 31.288 158.727 31.288C156.087 31.288 154.143 29.752 154.143 27.328C154.143 24.856 156.375 23.2 159.111 23.2C160.335 23.2 161.655 23.464 162.855 23.872V23.488C162.855 21.928 162.135 20.272 159.663 20.272C158.439 20.272 157.239 20.752 156.159 21.304L155.295 19.552C157.071 18.664 158.631 18.304 159.999 18.304ZM159.183 29.416C160.719 29.416 162.447 28.648 162.855 27.112V25.456C161.847 25.144 160.695 24.976 159.471 24.976C157.815 24.976 156.423 25.912 156.423 27.256C156.423 28.6 157.623 29.416 159.183 29.416ZM171.115 20.968C171.907 19.336 173.587 18.304 175.723 18.304V20.368C173.155 20.368 171.331 21.784 171.115 23.944V31H168.739V18.592H171.115V20.968ZM187.593 14.224H189.945V31H187.593V28.84C186.633 30.376 185.097 31.288 183.177 31.288C179.913 31.288 177.465 28.6 177.465 24.784C177.465 20.992 179.913 18.304 183.177 18.304C185.097 18.304 186.633 19.216 187.593 20.728V14.224ZM183.753 29.224C185.985 29.224 187.593 27.376 187.593 24.784C187.593 22.192 185.985 20.368 183.753 20.368C181.473 20.368 179.865 22.192 179.865 24.784C179.865 27.376 181.473 29.224 183.753 29.224ZM197.997 31.288C196.173 31.288 194.181 30.64 192.693 29.44L193.821 27.736C195.141 28.696 196.557 29.248 198.021 29.248C199.413 29.248 200.373 28.6 200.373 27.64C200.373 26.488 199.101 26.128 197.565 25.696C194.709 24.904 193.293 24.088 193.293 22.072C193.269 19.792 195.165 18.304 197.805 18.304C199.413 18.304 201.045 18.856 202.389 19.744L201.333 21.496C200.133 20.752 198.885 20.344 197.805 20.344C196.581 20.344 195.621 20.872 195.621 21.808C195.621 22.768 196.389 23.056 198.477 23.704C200.517 24.304 202.701 24.976 202.701 27.448C202.701 29.8 200.709 31.288 197.997 31.288Z" fill="#201E3D"/>
<defs>
<clipPath id="clip0_2595_2157">
<rect width="48" height="48" fill="white"/>
</clipPath>
</defs>
</svg>
