<?xml version="1.0" encoding="UTF-8" standalone="no"?>
<!DOCTYPE svg PUBLIC "-//W3C//DTD SVG 1.1//EN"
 "http://www.w3.org/Graphics/SVG/1.1/DTD/svg11.dtd">
<!-- Generated by graphviz version 2.47.0 (20210316.0004)
 -->
<!-- Title: dependencies Pages: 1 -->
<svg width="995pt" height="284pt"
 viewBox="0.00 0.00 995.00 284.00" xmlns="http://www.w3.org/2000/svg" xmlns:xlink="http://www.w3.org/1999/xlink">
<g id="graph0" class="graph" transform="scale(1 1) rotate(0) translate(4 280)">
<title>dependencies</title>
<polygon fill="white" stroke="transparent" points="-4,4 -4,-280 991,-280 991,4 -4,4"/>
<text text-anchor="start" x="472.51" y="-42.4" font-family="Times-12" font-weight="bold" font-size="14.00">Legend</text>
<polygon fill="#ffffb3" stroke="transparent" points="259.5,-10 259.5,-30 279.5,-30 279.5,-10 259.5,-10"/>
<text text-anchor="start" x="283.13" y="-15.4" font-family="Times-12" font-size="14.00"> &#160;Declarations</text>
<polygon fill="#8dd3c7" stroke="transparent" points="372.5,-10 372.5,-30 392.5,-30 392.5,-10 372.5,-10"/>
<text text-anchor="start" x="396.23" y="-15.4" font-family="Times-12" font-size="14.00"> &#160;Module</text>
<polygon fill="#80b1d3" stroke="transparent" points="458.5,-10 458.5,-30 478.5,-30 478.5,-10 458.5,-10"/>
<text text-anchor="start" x="482.28" y="-15.4" font-family="Times-12" font-size="14.00"> &#160;Bootstrap</text>
<polygon fill="#fdb462" stroke="transparent" points="555.5,-10 555.5,-30 575.5,-30 575.5,-10 555.5,-10"/>
<text text-anchor="start" x="579.17" y="-15.4" font-family="Times-12" font-size="14.00"> &#160;Providers</text>
<polygon fill="#fb8072" stroke="transparent" points="651.5,-10 651.5,-30 671.5,-30 671.5,-10 651.5,-10"/>
<text text-anchor="start" x="675.23" y="-15.4" font-family="Times-12" font-size="14.00"> &#160;Exports</text>
<g id="clust1" class="cluster">
<title>cluster_ButtonModule</title>
<polygon fill="none" stroke="black" stroke-dasharray="1,5" points="8,-70 8,-268 979,-268 979,-70 8,-70"/>
</g>
<g id="clust4" class="cluster">
<title>cluster_ButtonModule_exports</title>
<polygon fill="none" stroke="black" points="16,-208 16,-260 971,-260 971,-208 16,-208"/>
</g>
<g id="clust3" class="cluster">
<title>cluster_ButtonModule_imports</title>
<polygon fill="none" stroke="black" points="24,-78 24,-130 962,-130 962,-78 24,-78"/>
</g>
<!-- ButtonSizeDirective -->
<g id="node1" class="node">
<title>ButtonSizeDirective</title>
<polygon fill="#8dd3c7" stroke="black" points="954.3,-122 951.3,-126 930.3,-126 927.3,-122 823.7,-122 823.7,-86 954.3,-86 954.3,-122"/>
<text text-anchor="middle" x="889" y="-99.8" font-family="Times,serif" font-size="14.00">ButtonSizeDirective</text>
</g>
<!-- ButtonModule -->
<g id="node6" class="node">
<title>ButtonModule</title>
<polygon fill="#8dd3c7" stroke="black" points="543.67,-187 540.67,-191 519.67,-191 516.67,-187 446.33,-187 446.33,-151 543.67,-151 543.67,-187"/>
<text text-anchor="middle" x="495" y="-164.8" font-family="Times,serif" font-size="14.00">ButtonModule</text>
</g>
<!-- ButtonSizeDirective&#45;&gt;ButtonModule -->
<g id="edge1" class="edge">
<title>ButtonSizeDirective&#45;&gt;ButtonModule</title>
<path fill="none" stroke="black" d="M912.47,-122.27C912.47,-140.56 912.47,-166 912.47,-166 912.47,-166 553.71,-166 553.71,-166"/>
<polygon fill="black" stroke="black" points="553.71,-162.5 543.71,-166 553.71,-169.5 553.71,-162.5"/>
</g>
<!-- CallToActionButtonDirective -->
<g id="node2" class="node">
<title>CallToActionButtonDirective</title>
<polygon fill="#8dd3c7" stroke="black" points="805.69,-122 802.69,-126 781.69,-126 778.69,-122 622.31,-122 622.31,-86 805.69,-86 805.69,-122"/>
<text text-anchor="middle" x="714" y="-99.8" font-family="Times,serif" font-size="14.00">CallToActionButtonDirective</text>
</g>
<!-- CallToActionButtonDirective&#45;&gt;ButtonModule -->
<g id="edge2" class="edge">
<title>CallToActionButtonDirective&#45;&gt;ButtonModule</title>
<path fill="none" stroke="black" d="M745.28,-122.01C745.28,-138.05 745.28,-159 745.28,-159 745.28,-159 553.85,-159 553.85,-159"/>
<polygon fill="black" stroke="black" points="553.85,-155.5 543.85,-159 553.85,-162.5 553.85,-155.5"/>
</g>
<!-- NavigationCategoryButtonDirective -->
<g id="node3" class="node">
<title>NavigationCategoryButtonDirective</title>
<polygon fill="#8dd3c7" stroke="black" points="604.73,-122 601.73,-126 580.73,-126 577.73,-122 385.27,-122 385.27,-86 604.73,-86 604.73,-122"/>
<text text-anchor="middle" x="495" y="-99.8" font-family="Times,serif" font-size="14.00">NavigationCategoryButtonDirective</text>
</g>
<!-- NavigationCategoryButtonDirective&#45;&gt;ButtonModule -->
<g id="edge3" class="edge">
<title>NavigationCategoryButtonDirective&#45;&gt;ButtonModule</title>
<path fill="none" stroke="black" d="M495,-122.11C495,-122.11 495,-140.99 495,-140.99"/>
<polygon fill="black" stroke="black" points="491.5,-140.99 495,-150.99 498.5,-140.99 491.5,-140.99"/>
</g>
<!-- PrimaryButtonDirective -->
<g id="node4" class="node">
<title>PrimaryButtonDirective</title>
<polygon fill="#8dd3c7" stroke="black" points="366.8,-122 363.8,-126 342.8,-126 339.8,-122 215.2,-122 215.2,-86 366.8,-86 366.8,-122"/>
<text text-anchor="middle" x="291" y="-99.8" font-family="Times,serif" font-size="14.00">PrimaryButtonDirective</text>
</g>
<!-- PrimaryButtonDirective&#45;&gt;ButtonModule -->
<g id="edge4" class="edge">
<title>PrimaryButtonDirective&#45;&gt;ButtonModule</title>
<path fill="none" stroke="black" d="M315.38,-122.01C315.38,-138.05 315.38,-159 315.38,-159 315.38,-159 435.92,-159 435.92,-159"/>
<polygon fill="black" stroke="black" points="435.92,-162.5 445.92,-159 435.92,-155.5 435.92,-162.5"/>
</g>
<!-- SecondaryButtonDirective -->
<g id="node5" class="node">
<title>SecondaryButtonDirective</title>
<polygon fill="#8dd3c7" stroke="black" points="197.79,-122 194.79,-126 173.79,-126 170.79,-122 32.21,-122 32.21,-86 197.79,-86 197.79,-122"/>
<text text-anchor="middle" x="115" y="-99.8" font-family="Times,serif" font-size="14.00">SecondaryButtonDirective</text>
</g>
<!-- SecondaryButtonDirective&#45;&gt;ButtonModule -->
<g id="edge5" class="edge">
<title>SecondaryButtonDirective&#45;&gt;ButtonModule</title>
<path fill="none" stroke="black" d="M139.05,-122.27C139.05,-140.56 139.05,-166 139.05,-166 139.05,-166 436.25,-166 436.25,-166"/>
<polygon fill="black" stroke="black" points="436.25,-169.5 446.25,-166 436.25,-162.5 436.25,-169.5"/>
</g>
<!-- ButtonSizeDirective  -->
<g id="node7" class="node">
<title>ButtonSizeDirective </title>
<polygon fill="#fb8072" stroke="black" points="962.8,-252 829.2,-252 829.2,-216 962.8,-216 962.8,-252"/>
<text text-anchor="middle" x="896" y="-229.8" font-family="Times,serif" font-size="14.00">ButtonSizeDirective </text>
</g>
<!-- ButtonModule&#45;&gt;ButtonSizeDirective  -->
<g id="edge6" class="edge">
<title>ButtonModule&#45;&gt;ButtonSizeDirective </title>
<path fill="none" stroke="black" stroke-dasharray="5,2" d="M543.74,-173C645.42,-173 870.78,-173 870.78,-173 870.78,-173 870.78,-205.7 870.78,-205.7"/>
<polygon fill="black" stroke="black" points="867.28,-205.7 870.78,-215.7 874.28,-205.7 867.28,-205.7"/>
</g>
<!-- CallToActionButtonDirective  -->
<g id="node8" class="node">
<title>CallToActionButtonDirective </title>
<polygon fill="#fb8072" stroke="black" points="811.19,-252 624.81,-252 624.81,-216 811.19,-216 811.19,-252"/>
<text text-anchor="middle" x="718" y="-229.8" font-family="Times,serif" font-size="14.00">CallToActionButtonDirective </text>
</g>
<!-- ButtonModule&#45;&gt;CallToActionButtonDirective  -->
<g id="edge7" class="edge">
<title>ButtonModule&#45;&gt;CallToActionButtonDirective </title>
<path fill="none" stroke="black" stroke-dasharray="5,2" d="M543.92,-180C600.21,-180 684.97,-180 684.97,-180 684.97,-180 684.97,-205.72 684.97,-205.72"/>
<polygon fill="black" stroke="black" points="681.47,-205.72 684.97,-215.72 688.47,-205.72 681.47,-205.72"/>
</g>
<!-- NavigationCategoryButtonDirective  -->
<g id="node9" class="node">
<title>NavigationCategoryButtonDirective </title>
<polygon fill="#fb8072" stroke="black" points="606.73,-252 383.27,-252 383.27,-216 606.73,-216 606.73,-252"/>
<text text-anchor="middle" x="495" y="-229.8" font-family="Times,serif" font-size="14.00">NavigationCategoryButtonDirective </text>
</g>
<!-- ButtonModule&#45;&gt;NavigationCategoryButtonDirective  -->
<g id="edge8" class="edge">
<title>ButtonModule&#45;&gt;NavigationCategoryButtonDirective </title>
<path fill="none" stroke="black" stroke-dasharray="5,2" d="M495,-187.11C495,-187.11 495,-205.99 495,-205.99"/>
<polygon fill="black" stroke="black" points="491.5,-205.99 495,-215.99 498.5,-205.99 491.5,-205.99"/>
</g>
<!-- PrimaryButtonDirective  -->
<g id="node10" class="node">
<title>PrimaryButtonDirective </title>
<polygon fill="#fb8072" stroke="black" points="365.3,-252 210.7,-252 210.7,-216 365.3,-216 365.3,-252"/>
<text text-anchor="middle" x="288" y="-229.8" font-family="Times,serif" font-size="14.00">PrimaryButtonDirective </text>
</g>
<!-- ButtonModule&#45;&gt;PrimaryButtonDirective  -->
<g id="edge9" class="edge">
<title>ButtonModule&#45;&gt;PrimaryButtonDirective </title>
<path fill="none" stroke="black" stroke-dasharray="5,2" d="M446.3,-180C378.89,-180 265.37,-180 265.37,-180 265.37,-180 265.37,-205.72 265.37,-205.72"/>
<polygon fill="black" stroke="black" points="261.87,-205.72 265.37,-215.72 268.87,-205.72 261.87,-205.72"/>
</g>
<!-- SecondaryButtonDirective  -->
<g id="node11" class="node">
<title>SecondaryButtonDirective </title>
<polygon fill="#fb8072" stroke="black" points="192.29,-252 23.71,-252 23.71,-216 192.29,-216 192.29,-252"/>
<text text-anchor="middle" x="108" y="-229.8" font-family="Times,serif" font-size="14.00">SecondaryButtonDirective </text>
</g>
<!-- ButtonModule&#45;&gt;SecondaryButtonDirective  -->
<g id="edge10" class="edge">
<title>ButtonModule&#45;&gt;SecondaryButtonDirective </title>
<path fill="none" stroke="black" stroke-dasharray="5,2" d="M446.04,-173C337.39,-173 85.7,-173 85.7,-173 85.7,-173 85.7,-205.7 85.7,-205.7"/>
<polygon fill="black" stroke="black" points="82.2,-205.7 85.7,-215.7 89.2,-205.7 82.2,-205.7"/>
</g>
</g>
</svg>
