<?xml version="1.0" encoding="UTF-8" standalone="no"?>
<!DOCTYPE svg PUBLIC "-//W3C//DTD SVG 1.1//EN"
 "http://www.w3.org/Graphics/SVG/1.1/DTD/svg11.dtd">
<!-- Generated by graphviz version 2.47.0 (20210316.0004)
 -->
<!-- Title: dependencies Pages: 1 -->
<svg width="504pt" height="284pt"
 viewBox="0.00 0.00 504.00 284.00" xmlns="http://www.w3.org/2000/svg" xmlns:xlink="http://www.w3.org/1999/xlink">
<g id="graph0" class="graph" transform="scale(1 1) rotate(0) translate(4 280)">
<title>dependencies</title>
<polygon fill="white" stroke="transparent" points="-4,4 -4,-280 500,-280 500,4 -4,4"/>
<text text-anchor="start" x="227.01" y="-42.4" font-family="Times-12" font-weight="bold" font-size="14.00">Legend</text>
<polygon fill="#ffffb3" stroke="transparent" points="14,-10 14,-30 34,-30 34,-10 14,-10"/>
<text text-anchor="start" x="37.63" y="-15.4" font-family="Times-12" font-size="14.00"> &#160;Declarations</text>
<polygon fill="#8dd3c7" stroke="transparent" points="127,-10 127,-30 147,-30 147,-10 127,-10"/>
<text text-anchor="start" x="150.73" y="-15.4" font-family="Times-12" font-size="14.00"> &#160;Module</text>
<polygon fill="#80b1d3" stroke="transparent" points="213,-10 213,-30 233,-30 233,-10 213,-10"/>
<text text-anchor="start" x="236.78" y="-15.4" font-family="Times-12" font-size="14.00"> &#160;Bootstrap</text>
<polygon fill="#fdb462" stroke="transparent" points="310,-10 310,-30 330,-30 330,-10 310,-10"/>
<text text-anchor="start" x="333.67" y="-15.4" font-family="Times-12" font-size="14.00"> &#160;Providers</text>
<polygon fill="#fb8072" stroke="transparent" points="406,-10 406,-30 426,-30 426,-10 406,-10"/>
<text text-anchor="start" x="429.73" y="-15.4" font-family="Times-12" font-size="14.00"> &#160;Exports</text>
<g id="clust1" class="cluster">
<title>cluster_ScrollingModule</title>
<polygon fill="none" stroke="black" stroke-dasharray="1,5" points="80,-70 80,-268 416,-268 416,-70 80,-70"/>
</g>
<g id="clust4" class="cluster">
<title>cluster_ScrollingModule_exports</title>
<polygon fill="none" stroke="black" points="88,-208 88,-260 408,-260 408,-208 88,-208"/>
</g>
<g id="clust3" class="cluster">
<title>cluster_ScrollingModule_imports</title>
<polygon fill="none" stroke="black" points="92,-78 92,-130 404,-130 404,-78 92,-78"/>
</g>
<!-- CdkScrollable -->
<g id="node1" class="node">
<title>CdkScrollable</title>
<polygon fill="#8dd3c7" stroke="black" points="396.1,-122 393.1,-126 372.1,-126 369.1,-122 299.9,-122 299.9,-86 396.1,-86 396.1,-122"/>
<text text-anchor="middle" x="348" y="-99.8" font-family="Times,serif" font-size="14.00">CdkScrollable</text>
</g>
<!-- ScrollingModule -->
<g id="node3" class="node">
<title>ScrollingModule</title>
<polygon fill="#8dd3c7" stroke="black" points="247.38,-187 244.38,-191 223.38,-191 220.38,-187 136.62,-187 136.62,-151 247.38,-151 247.38,-187"/>
<text text-anchor="middle" x="192" y="-164.8" font-family="Times,serif" font-size="14.00">ScrollingModule</text>
</g>
<!-- CdkScrollable&#45;&gt;ScrollingModule -->
<g id="edge1" class="edge">
<title>CdkScrollable&#45;&gt;ScrollingModule</title>
<path fill="none" stroke="black" d="M364.1,-122.02C364.1,-139.37 364.1,-163 364.1,-163 364.1,-163 257.4,-163 257.4,-163"/>
<polygon fill="black" stroke="black" points="257.4,-159.5 247.4,-163 257.4,-166.5 257.4,-159.5"/>
</g>
<!-- ScrollOverflowFadeDirective -->
<g id="node2" class="node">
<title>ScrollOverflowFadeDirective</title>
<polygon fill="#8dd3c7" stroke="black" points="282.37,-122 279.37,-126 258.37,-126 255.37,-122 99.63,-122 99.63,-86 282.37,-86 282.37,-122"/>
<text text-anchor="middle" x="191" y="-99.8" font-family="Times,serif" font-size="14.00">ScrollOverflowFadeDirective</text>
</g>
<!-- ScrollOverflowFadeDirective&#45;&gt;ScrollingModule -->
<g id="edge2" class="edge">
<title>ScrollOverflowFadeDirective&#45;&gt;ScrollingModule</title>
<path fill="none" stroke="black" d="M192,-122.11C192,-122.11 192,-140.99 192,-140.99"/>
<polygon fill="black" stroke="black" points="188.5,-140.99 192,-150.99 195.5,-140.99 188.5,-140.99"/>
</g>
<!-- CdkScrollable  -->
<g id="node4" class="node">
<title>CdkScrollable </title>
<polygon fill="#fb8072" stroke="black" points="399.6,-252 300.4,-252 300.4,-216 399.6,-216 399.6,-252"/>
<text text-anchor="middle" x="350" y="-229.8" font-family="Times,serif" font-size="14.00">CdkScrollable </text>
</g>
<!-- ScrollingModule&#45;&gt;CdkScrollable  -->
<g id="edge3" class="edge">
<title>ScrollingModule&#45;&gt;CdkScrollable </title>
<path fill="none" stroke="black" stroke-dasharray="5,2" d="M247.39,-175C286.57,-175 332.15,-175 332.15,-175 332.15,-175 332.15,-205.98 332.15,-205.98"/>
<polygon fill="black" stroke="black" points="328.65,-205.98 332.15,-215.98 335.65,-205.98 328.65,-205.98"/>
</g>
<!-- ScrollOverflowFadeDirective  -->
<g id="node5" class="node">
<title>ScrollOverflowFadeDirective </title>
<polygon fill="#fb8072" stroke="black" points="281.87,-252 96.13,-252 96.13,-216 281.87,-216 281.87,-252"/>
<text text-anchor="middle" x="189" y="-229.8" font-family="Times,serif" font-size="14.00">ScrollOverflowFadeDirective </text>
</g>
<!-- ScrollingModule&#45;&gt;ScrollOverflowFadeDirective  -->
<g id="edge4" class="edge">
<title>ScrollingModule&#45;&gt;ScrollOverflowFadeDirective </title>
<path fill="none" stroke="black" stroke-dasharray="5,2" d="M192,-187.11C192,-187.11 192,-205.99 192,-205.99"/>
<polygon fill="black" stroke="black" points="188.5,-205.99 192,-215.99 195.5,-205.99 188.5,-205.99"/>
</g>
</g>
</svg>
