<svg width="4" height="6" viewBox="0 0 4 6" fill="none" xmlns="http://www.w3.org/2000/svg">
<path d="M3.08239 3.28665L1.02842 5.33938C1.0001 5.36769 0.968445 5.39001 0.933456 5.40635C0.898468 5.42269 0.863328 5.43086 0.82804 5.43086C0.757462 5.43086 0.696212 5.4063 0.64429 5.35716C0.592368 5.30804 0.566406 5.24329 0.566406 5.16291L0.566406 0.837312C0.566406 0.756935 0.59349 0.692185 0.647656 0.643063C0.701834 0.593929 0.765035 0.569363 0.837257 0.569363C0.846435 0.569363 0.910001 0.599901 1.02796 0.660979L3.08241 2.71358C3.11958 2.75076 3.14928 2.79512 3.17151 2.84666C3.19373 2.89822 3.20484 2.94937 3.20484 3.00011C3.20484 3.05086 3.19373 3.10201 3.17151 3.15356C3.14928 3.20511 3.11958 3.24947 3.08239 3.28665Z" fill="#4C4C58"/>
</svg>
