<?xml version="1.0" encoding="UTF-8" standalone="no"?>
<!DOCTYPE svg PUBLIC "-//W3C//DTD SVG 1.1//EN"
 "http://www.w3.org/Graphics/SVG/1.1/DTD/svg11.dtd">
<!-- Generated by graphviz version 2.47.0 (20210316.0004)
 -->
<!-- Title: dependencies Pages: 1 -->
<svg width="1162pt" height="211pt"
 viewBox="0.00 0.00 1162.00 211.00" xmlns="http://www.w3.org/2000/svg" xmlns:xlink="http://www.w3.org/1999/xlink">
<g id="graph0" class="graph" transform="scale(1 1) rotate(0) translate(4 207)">
<title>dependencies</title>
<polygon fill="white" stroke="transparent" points="-4,4 -4,-207 1158,-207 1158,4 -4,4"/>
<text text-anchor="start" x="556.01" y="-42.4" font-family="Times-12" font-weight="bold" font-size="14.00">Legend</text>
<polygon fill="#ffffb3" stroke="transparent" points="343,-10 343,-30 363,-30 363,-10 343,-10"/>
<text text-anchor="start" x="366.63" y="-15.4" font-family="Times-12" font-size="14.00"> &#160;Declarations</text>
<polygon fill="#8dd3c7" stroke="transparent" points="456,-10 456,-30 476,-30 476,-10 456,-10"/>
<text text-anchor="start" x="479.73" y="-15.4" font-family="Times-12" font-size="14.00"> &#160;Module</text>
<polygon fill="#80b1d3" stroke="transparent" points="542,-10 542,-30 562,-30 562,-10 542,-10"/>
<text text-anchor="start" x="565.78" y="-15.4" font-family="Times-12" font-size="14.00"> &#160;Bootstrap</text>
<polygon fill="#fdb462" stroke="transparent" points="639,-10 639,-30 659,-30 659,-10 639,-10"/>
<text text-anchor="start" x="662.67" y="-15.4" font-family="Times-12" font-size="14.00"> &#160;Providers</text>
<polygon fill="#fb8072" stroke="transparent" points="735,-10 735,-30 755,-30 755,-10 735,-10"/>
<text text-anchor="start" x="758.73" y="-15.4" font-family="Times-12" font-size="14.00"> &#160;Exports</text>
<g id="clust1" class="cluster">
<title>cluster_AppModule</title>
<polygon fill="none" stroke="black" stroke-dasharray="1,5" points="8,-70 8,-195 1146,-195 1146,-70 8,-70"/>
</g>
<g id="clust5" class="cluster">
<title>cluster_AppModule_imports</title>
<polygon fill="none" stroke="black" points="296,-78 296,-130 1138,-130 1138,-78 296,-78"/>
</g>
<g id="clust2" class="cluster">
<title>cluster_AppModule_declarations</title>
<polygon fill="none" stroke="black" points="16,-78 16,-130 288,-130 288,-78 16,-78"/>
</g>
<!-- AppComponent -->
<g id="node1" class="node">
<title>AppComponent</title>
<polygon fill="#ffffb3" stroke="black" points="279.94,-122 174.06,-122 174.06,-86 279.94,-86 279.94,-122"/>
<text text-anchor="middle" x="227" y="-99.8" font-family="Times,serif" font-size="14.00">AppComponent</text>
</g>
<!-- AppModule -->
<g id="node3" class="node">
<title>AppModule</title>
<polygon fill="#8dd3c7" stroke="black" points="608.66,-187 605.66,-191 584.66,-191 581.66,-187 525.34,-187 525.34,-151 608.66,-151 608.66,-187"/>
<text text-anchor="middle" x="567" y="-164.8" font-family="Times,serif" font-size="14.00">AppModule</text>
</g>
<!-- AppComponent&#45;&gt;AppModule -->
<g id="edge1" class="edge">
<title>AppComponent&#45;&gt;AppModule</title>
<path fill="none" stroke="black" d="M227,-122.11C227,-141.34 227,-169 227,-169 227,-169 515.31,-169 515.31,-169"/>
<polygon fill="black" stroke="black" points="515.31,-172.5 525.31,-169 515.31,-165.5 515.31,-172.5"/>
</g>
<!-- AppWebComponent -->
<g id="node2" class="node">
<title>AppWebComponent</title>
<polygon fill="#ffffb3" stroke="black" points="155.87,-122 24.13,-122 24.13,-86 155.87,-86 155.87,-122"/>
<text text-anchor="middle" x="90" y="-99.8" font-family="Times,serif" font-size="14.00">AppWebComponent</text>
</g>
<!-- AppWebComponent&#45;&gt;AppModule -->
<g id="edge2" class="edge">
<title>AppWebComponent&#45;&gt;AppModule</title>
<path fill="none" stroke="black" d="M90,-122.29C90,-144.21 90,-178 90,-178 90,-178 515.09,-178 515.09,-178"/>
<polygon fill="black" stroke="black" points="515.09,-181.5 525.09,-178 515.09,-174.5 515.09,-181.5"/>
</g>
<!-- CoreModule -->
<g id="node4" class="node">
<title>CoreModule</title>
<polygon fill="#8dd3c7" stroke="black" points="1130.26,-122 1127.26,-126 1106.26,-126 1103.26,-122 1043.74,-122 1043.74,-86 1130.26,-86 1130.26,-122"/>
<text text-anchor="middle" x="1087" y="-99.8" font-family="Times,serif" font-size="14.00">CoreModule</text>
</g>
<!-- CoreModule&#45;&gt;AppModule -->
<g id="edge3" class="edge">
<title>CoreModule&#45;&gt;AppModule</title>
<path fill="none" stroke="black" d="M1087,-122.29C1087,-144.21 1087,-178 1087,-178 1087,-178 618.67,-178 618.67,-178"/>
<polygon fill="black" stroke="black" points="618.67,-174.5 608.67,-178 618.67,-181.5 618.67,-174.5"/>
</g>
<!-- FiltersContentComponent -->
<g id="node5" class="node">
<title>FiltersContentComponent</title>
<polygon fill="#8dd3c7" stroke="black" points="1025.94,-122 1022.94,-126 1001.94,-126 998.94,-122 864.06,-122 864.06,-86 1025.94,-86 1025.94,-122"/>
<text text-anchor="middle" x="945" y="-99.8" font-family="Times,serif" font-size="14.00">FiltersContentComponent</text>
</g>
<!-- FiltersContentComponent&#45;&gt;AppModule -->
<g id="edge4" class="edge">
<title>FiltersContentComponent&#45;&gt;AppModule</title>
<path fill="none" stroke="black" d="M945,-122.11C945,-141.34 945,-169 945,-169 945,-169 618.9,-169 618.9,-169"/>
<polygon fill="black" stroke="black" points="618.9,-165.5 608.9,-169 618.9,-172.5 618.9,-165.5"/>
</g>
<!-- OntologySelectionComponent -->
<g id="node6" class="node">
<title>OntologySelectionComponent</title>
<polygon fill="#8dd3c7" stroke="black" points="846.32,-122 843.32,-126 822.32,-126 819.32,-122 659.68,-122 659.68,-86 846.32,-86 846.32,-122"/>
<text text-anchor="middle" x="753" y="-99.8" font-family="Times,serif" font-size="14.00">OntologySelectionComponent</text>
</g>
<!-- OntologySelectionComponent&#45;&gt;AppModule -->
<g id="edge5" class="edge">
<title>OntologySelectionComponent&#45;&gt;AppModule</title>
<path fill="none" stroke="black" d="M753,-122.03C753,-138.4 753,-160 753,-160 753,-160 618.74,-160 618.74,-160"/>
<polygon fill="black" stroke="black" points="618.74,-156.5 608.74,-160 618.74,-163.5 618.74,-156.5"/>
</g>
<!-- OrganSelectComponent -->
<g id="node7" class="node">
<title>OrganSelectComponent</title>
<polygon fill="#8dd3c7" stroke="black" points="642.02,-122 639.02,-126 618.02,-126 615.02,-122 491.98,-122 491.98,-86 642.02,-86 642.02,-122"/>
<text text-anchor="middle" x="567" y="-99.8" font-family="Times,serif" font-size="14.00">OrganSelectComponent</text>
</g>
<!-- OrganSelectComponent&#45;&gt;AppModule -->
<g id="edge6" class="edge">
<title>OrganSelectComponent&#45;&gt;AppModule</title>
<path fill="none" stroke="black" d="M567,-122.11C567,-122.11 567,-140.99 567,-140.99"/>
<polygon fill="black" stroke="black" points="563.5,-140.99 567,-150.99 570.5,-140.99 563.5,-140.99"/>
</g>
<!-- ResultsBrowserComponent -->
<g id="node8" class="node">
<title>ResultsBrowserComponent</title>
<polygon fill="#8dd3c7" stroke="black" points="473.98,-122 470.98,-126 449.98,-126 446.98,-122 304.02,-122 304.02,-86 473.98,-86 473.98,-122"/>
<text text-anchor="middle" x="389" y="-99.8" font-family="Times,serif" font-size="14.00">ResultsBrowserComponent</text>
</g>
<!-- ResultsBrowserComponent&#45;&gt;AppModule -->
<g id="edge7" class="edge">
<title>ResultsBrowserComponent&#45;&gt;AppModule</title>
<path fill="none" stroke="black" d="M389,-122.03C389,-138.4 389,-160 389,-160 389,-160 515.27,-160 515.27,-160"/>
<polygon fill="black" stroke="black" points="515.27,-163.5 525.27,-160 515.27,-156.5 515.27,-163.5"/>
</g>
</g>
</svg>
