<?xml version="1.0" encoding="UTF-8" standalone="no"?>
<!DOCTYPE svg PUBLIC "-//W3C//DTD SVG 1.1//EN"
 "http://www.w3.org/Graphics/SVG/1.1/DTD/svg11.dtd">
<!-- Generated by graphviz version 2.47.0 (20210316.0004)
 -->
<!-- Title: dependencies Pages: 1 -->
<svg width="504pt" height="284pt"
 viewBox="0.00 0.00 504.00 284.00" xmlns="http://www.w3.org/2000/svg" xmlns:xlink="http://www.w3.org/1999/xlink">
<g id="graph0" class="graph" transform="scale(1 1) rotate(0) translate(4 280)">
<title>dependencies</title>
<polygon fill="white" stroke="transparent" points="-4,4 -4,-280 500,-280 500,4 -4,4"/>
<text text-anchor="start" x="227.01" y="-42.4" font-family="Times-12" font-weight="bold" font-size="14.00">Legend</text>
<polygon fill="#ffffb3" stroke="transparent" points="14,-10 14,-30 34,-30 34,-10 14,-10"/>
<text text-anchor="start" x="37.63" y="-15.4" font-family="Times-12" font-size="14.00"> &#160;Declarations</text>
<polygon fill="#8dd3c7" stroke="transparent" points="127,-10 127,-30 147,-30 147,-10 127,-10"/>
<text text-anchor="start" x="150.73" y="-15.4" font-family="Times-12" font-size="14.00"> &#160;Module</text>
<polygon fill="#80b1d3" stroke="transparent" points="213,-10 213,-30 233,-30 233,-10 213,-10"/>
<text text-anchor="start" x="236.78" y="-15.4" font-family="Times-12" font-size="14.00"> &#160;Bootstrap</text>
<polygon fill="#fdb462" stroke="transparent" points="310,-10 310,-30 330,-30 330,-10 310,-10"/>
<text text-anchor="start" x="333.67" y="-15.4" font-family="Times-12" font-size="14.00"> &#160;Providers</text>
<polygon fill="#fb8072" stroke="transparent" points="406,-10 406,-30 426,-30 426,-10 406,-10"/>
<text text-anchor="start" x="429.73" y="-15.4" font-family="Times-12" font-size="14.00"> &#160;Exports</text>
<g id="clust1" class="cluster">
<title>cluster_HomeModule</title>
<polygon fill="none" stroke="black" stroke-dasharray="1,5" points="23.5,-70 23.5,-268 472.5,-268 472.5,-70 23.5,-70"/>
</g>
<g id="clust2" class="cluster">
<title>cluster_HomeModule_declarations</title>
<polygon fill="none" stroke="black" points="332.5,-78 332.5,-130 464.5,-130 464.5,-78 332.5,-78"/>
</g>
<g id="clust4" class="cluster">
<title>cluster_HomeModule_imports</title>
<polygon fill="none" stroke="black" points="31.5,-78 31.5,-130 324.5,-130 324.5,-78 31.5,-78"/>
</g>
<g id="clust5" class="cluster">
<title>cluster_HomeModule_exports</title>
<polygon fill="none" stroke="black" points="200.5,-208 200.5,-260 336.5,-260 336.5,-208 200.5,-208"/>
</g>
<!-- HomeComponent -->
<g id="node1" class="node">
<title>HomeComponent</title>
<polygon fill="#ffffb3" stroke="black" points="456.05,-122 340.95,-122 340.95,-86 456.05,-86 456.05,-122"/>
<text text-anchor="middle" x="398.5" y="-99.8" font-family="Times,serif" font-size="14.00">HomeComponent</text>
</g>
<!-- HomeModule -->
<g id="node2" class="node">
<title>HomeModule</title>
<polygon fill="#8dd3c7" stroke="black" points="315.26,-187 312.26,-191 291.26,-191 288.26,-187 221.74,-187 221.74,-151 315.26,-151 315.26,-187"/>
<text text-anchor="middle" x="268.5" y="-164.8" font-family="Times,serif" font-size="14.00">HomeModule</text>
</g>
<!-- HomeComponent&#45;&gt;HomeModule -->
<g id="edge1" class="edge">
<title>HomeComponent&#45;&gt;HomeModule</title>
<path fill="none" stroke="black" d="M398.5,-122.11C398.5,-141.34 398.5,-169 398.5,-169 398.5,-169 325.43,-169 325.43,-169"/>
<polygon fill="black" stroke="black" points="325.43,-165.5 315.43,-169 325.43,-172.5 325.43,-165.5"/>
</g>
<!-- HomeComponent  -->
<g id="node5" class="node">
<title>HomeComponent </title>
<polygon fill="#fb8072" stroke="black" points="328.04,-252 208.96,-252 208.96,-216 328.04,-216 328.04,-252"/>
<text text-anchor="middle" x="268.5" y="-229.8" font-family="Times,serif" font-size="14.00">HomeComponent </text>
</g>
<!-- HomeModule&#45;&gt;HomeComponent  -->
<g id="edge4" class="edge">
<title>HomeModule&#45;&gt;HomeComponent </title>
<path fill="none" stroke="black" stroke-dasharray="5,2" d="M268.5,-187.11C268.5,-187.11 268.5,-205.99 268.5,-205.99"/>
<polygon fill="black" stroke="black" points="265,-205.99 268.5,-215.99 272,-205.99 265,-205.99"/>
</g>
<!-- FooterModule -->
<g id="node3" class="node">
<title>FooterModule</title>
<polygon fill="#8dd3c7" stroke="black" points="316.6,-122 313.6,-126 292.6,-126 289.6,-122 220.4,-122 220.4,-86 316.6,-86 316.6,-122"/>
<text text-anchor="middle" x="268.5" y="-99.8" font-family="Times,serif" font-size="14.00">FooterModule</text>
</g>
<!-- FooterModule&#45;&gt;HomeModule -->
<g id="edge2" class="edge">
<title>FooterModule&#45;&gt;HomeModule</title>
<path fill="none" stroke="black" d="M268.5,-122.11C268.5,-122.11 268.5,-140.99 268.5,-140.99"/>
<polygon fill="black" stroke="black" points="265,-140.99 268.5,-150.99 272,-140.99 265,-140.99"/>
</g>
<!-- TableNestedMenuModule -->
<g id="node4" class="node">
<title>TableNestedMenuModule</title>
<polygon fill="#8dd3c7" stroke="black" points="201.95,-122 198.95,-126 177.95,-126 174.95,-122 39.05,-122 39.05,-86 201.95,-86 201.95,-122"/>
<text text-anchor="middle" x="120.5" y="-99.8" font-family="Times,serif" font-size="14.00">TableNestedMenuModule</text>
</g>
<!-- TableNestedMenuModule&#45;&gt;HomeModule -->
<g id="edge3" class="edge">
<title>TableNestedMenuModule&#45;&gt;HomeModule</title>
<path fill="none" stroke="black" d="M120.5,-122.11C120.5,-141.34 120.5,-169 120.5,-169 120.5,-169 211.67,-169 211.67,-169"/>
<polygon fill="black" stroke="black" points="211.67,-172.5 221.67,-169 211.67,-165.5 211.67,-172.5"/>
</g>
</g>
</svg>
