<svg width="40" height="40" viewBox="0 0 40 40" fill="none" xmlns="http://www.w3.org/2000/svg">
<g clip-path="url(#clip0_1409_387)">
<path d="M20.0041 40.0083C31.0521 40.0083 40.0083 31.0521 40.0083 20.0041C40.0083 8.95616 31.0521 0 20.0041 0C8.95616 0 0 8.95616 0 20.0041C0 31.0521 8.95616 40.0083 20.0041 40.0083Z" fill="#201E3D"/>
<path d="M19.8939 19.2853C19.8902 19.1408 19.8443 18.996 19.7494 18.8832L16.1698 14.5959C16.062 14.4636 15.9165 14.391 15.743 14.3718C15.5776 14.3543 15.4148 14.405 15.2906 14.5144C15.026 14.7298 14.9936 15.1288 15.2091 15.3935L18.6391 19.5059L18.6428 27.3265C18.6405 27.6219 18.8495 27.8768 19.1412 27.9375C19.1817 27.9459 19.2222 27.9543 19.2661 27.9466C19.4349 27.9479 19.5929 27.8793 19.709 27.7682C19.8268 27.6491 19.8929 27.4937 19.8943 27.3249L19.8956 19.2772L19.8939 19.2853Z" fill="white"/>
<path d="M14.798 16.3138C14.6886 16.1896 14.535 16.1153 14.3679 16.1059C14.2008 16.0965 14.038 16.1472 13.9138 16.2566C13.6556 16.4818 13.6314 16.8825 13.8583 17.1326L17.1549 20.8707C17.2434 20.9737 17.3646 21.0412 17.4942 21.0682C17.6887 21.1086 17.8855 21.0566 18.031 20.9263C18.2892 20.7011 18.3135 20.3003 18.0865 20.0502L14.7899 16.3121L14.798 16.3138Z" fill="white"/>
<path d="M22.1718 19.4297L25.6062 15.3174C25.8209 15.0578 25.7932 14.6631 25.5271 14.4387C25.2593 14.2223 24.8728 14.2517 24.6483 14.5178L21.0681 18.8026C20.9763 18.9187 20.9216 19.0595 20.9253 19.204L20.9256 27.2437C20.9233 27.5391 21.1324 27.7939 21.4241 27.8547C21.4646 27.8631 21.5051 27.8715 21.5473 27.8719C21.893 27.8762 22.1711 27.5959 22.1674 27.2485L22.1718 19.4297Z" fill="white"/>
<path d="M27.2173 16.473C27.2089 16.3106 27.1322 16.1509 27.0096 16.0493C26.8888 15.9396 26.722 15.888 26.5596 15.8965C26.3972 15.9049 26.2456 15.9833 26.1359 16.1042L22.8392 19.8393C22.6083 20.0955 22.6361 20.4902 22.8923 20.7211C22.9713 20.7882 23.0699 20.8426 23.1753 20.8645C23.394 20.91 23.6202 20.8388 23.766 20.6662L27.0628 16.9311C27.1742 16.8021 27.2322 16.6451 27.2156 16.4811L27.2173 16.473Z" fill="white"/>
</g>
<defs>
<clipPath id="clip0_1409_387">
<rect width="40" height="40" fill="white"/>
</clipPath>
</defs>
</svg>
