<svg width="40" height="40" viewBox="0 0 40 40" fill="none" xmlns="http://www.w3.org/2000/svg">
<g clip-path="url(#clip0_1409_397)">
<g clip-path="url(#clip1_1409_397)">
<path d="M20 40C31.0457 40 40 31.0457 40 20C40 8.95431 31.0457 0 20 0C8.95431 0 0 8.95431 0 20C0 31.0457 8.95431 40 20 40Z" fill="#201E3D"/>
<path d="M28.8609 18.3695C28.9562 18.899 29.0095 19.4438 29.0095 20C29.0095 24.9752 24.9752 29.0057 20.0038 29.0057C17.3638 29.0057 14.9905 27.8705 13.3409 26.061" stroke="white" stroke-width="2.5" stroke-miterlimit="10" stroke-linecap="round"/>
<path d="M15.5162 26.1067L13.7143 26.4876L12.7391 28.0495L11.8286 23.7905L15.5162 26.1067Z" fill="white"/>
<path d="M10.9943 20C10.9943 15.0248 15.0285 10.9943 20 10.9943C21.9809 10.9943 23.8133 11.6343 25.299 12.7162" stroke="white" stroke-width="2.5" stroke-miterlimit="10" stroke-linecap="round"/>
<path d="M23.4362 13.0895L24.899 12.419L25.4362 10.9029L27.0285 14.3657L23.4362 13.0895Z" fill="white"/>
<path d="M20.1791 25.9771C19.7981 25.9771 19.4248 25.939 19.0515 25.8514C17.4553 25.4971 16.1905 24.4305 15.4934 22.8381C14.5143 20.6019 13.6648 18.6705 15.5429 16.7238C17.4134 14.7771 18.4267 14.6781 20.4457 14.4724L20.9257 14.4229C23.4553 14.1524 24.541 16.4152 25.3334 18.8914C26.0762 21.2076 25.0286 23.4629 23.661 24.6667C22.6972 25.5162 21.4515 25.9733 20.1829 25.9733L20.1791 25.9771ZM20.9715 14.9219L20.4877 14.9714C18.4762 15.1771 17.6419 15.261 15.8972 17.0743C14.3353 18.6971 14.8991 20.2476 15.9467 22.64C16.5791 24.0838 17.7181 25.0514 19.1543 25.3714C20.6057 25.6914 22.2096 25.28 23.3219 24.2971C24.5715 23.2 25.5238 21.1543 24.8496 19.0514C23.8362 15.8933 22.7429 14.7429 20.9677 14.9295H20.9715V14.9219Z" fill="white"/>
<path d="M20.0723 16.1448C20.979 15.9238 21.8552 15.8171 22.3771 16.5448C22.3771 16.5448 24.2285 18.8762 24.0838 20.1981C23.939 21.52 21.7942 20.2895 21.4285 18.96C21.0628 17.6305 21.1238 17.4171 19.9847 17.1086C18.8457 16.8 19.1581 16.3657 20.0647 16.1448H20.0685H20.0723ZM22.16 18.16C22.3047 18.6933 22.9142 19.1048 23.1085 18.979C23.3028 18.8533 23.1466 18.1219 22.7352 17.7067C22.6742 17.6457 22.4304 17.4019 22.2666 17.4705C22.1028 17.539 22.0914 17.9048 22.16 18.16Z" fill="white"/>
<path d="M19.8628 23.5962C20.3123 23.3562 21.2571 23.1924 21.6647 22.8838C22.0723 22.5752 22.438 21.5771 22.7276 21.3676C23.0171 21.1581 23.4857 20.9333 23.8514 21.0933C23.8514 21.0933 24.0914 21.5581 23.8514 22.2514C23.6114 22.9409 22.2285 24.1867 21.5885 24.3429C20.9485 24.499 19.5657 24.9333 19.0666 24.4838C18.5676 24.0343 19.4095 23.8438 19.859 23.6038L19.8628 23.5962ZM21.8247 23.9467C21.9809 23.7409 21.9352 23.3562 21.7409 23.219C21.3904 22.9676 20.5714 23.5124 20.6171 23.7867C20.6628 24.0457 21.5504 24.3162 21.8247 23.9467Z" fill="white"/>
<path d="M15.6762 19.5276C16.0952 18.7657 16.2591 18.1638 16.7505 17.6571C17.2381 17.1467 17.6381 16.6171 18.7467 16.6171C18.7467 16.6171 19.6343 17.0895 19.581 17.5048C19.5276 17.9238 17.6762 18.3238 17.4743 19.12C17.2762 19.92 17.2 20.7581 17.7829 21.5924C18.3657 22.4267 19.4362 23.3524 18.9257 23.6419C18.4152 23.9314 17.7295 23.6419 17.021 22.5676C16.3124 21.4933 15.261 20.2781 15.68 19.5124V19.5238L15.6762 19.5276ZM16.2095 19.6038C16.2933 19.9048 16.5791 20.2171 16.8076 20.1714C17.1657 20.1067 17.4552 19.1467 17.1086 18.6629C17.0705 18.6095 16.9752 18.48 16.8343 18.4686C16.5181 18.4495 16.061 19.0629 16.2095 19.5962V19.6038Z" fill="white"/>
</g>
</g>
<defs>
<clipPath id="clip0_1409_397">
<rect width="40" height="40" fill="white"/>
</clipPath>
<clipPath id="clip1_1409_397">
<rect width="40" height="40" fill="white"/>
</clipPath>
</defs>
</svg>
