<svg width="24" height="24" viewBox="0 0 24 24" fill="none" xmlns="http://www.w3.org/2000/svg">
<path d="M17.1169 10.7005C17.2425 10.7005 17.3738 10.7633 17.4937 10.7233C17.6993 10.6605 17.7278 10.3465 17.5965 10.1923V10.2152L17.5851 10.2038C17.448 10.0496 17.2082 10.0096 16.997 9.99822C16.78 9.99822 16.5688 10.0268 16.3632 9.95825C15.9521 9.83264 15.7466 9.38159 15.5011 9.01046C14.9986 8.23396 14.1479 7.68585 13.2287 7.57166C12.9832 7.54311 12.692 7.50314 12.5949 7.27476C12.555 7.19482 12.555 7.09776 12.555 7.01212C12.5435 6.80657 12.5093 6.5839 12.3494 6.44116C12.1953 6.30413 11.8984 6.32126 11.8298 6.5211C11.767 6.68667 11.8984 6.85796 11.9669 7.01212C12.161 7.47459 11.5158 7.56024 11.2246 7.62304C10.7736 7.72581 10.3168 7.76007 9.88288 7.93707C9.32335 8.15403 8.85516 8.58796 8.5811 9.11324C8.42695 9.41013 8.26708 9.78696 7.93022 9.79838C7.77606 9.79838 7.59335 9.72987 7.49058 9.82693C7.36497 9.93541 7.4449 10.141 7.55338 10.2551C7.66187 10.375 7.81031 10.4892 7.81602 10.6548C7.81602 10.7633 7.77035 10.8604 7.71325 10.9574C7.22223 11.9052 7.24507 12.3677 7.35355 13.4354C7.45632 14.406 7.74751 14.8057 7.81602 14.9541C7.87883 15.0911 7.83315 15.251 7.78748 15.3938C7.7418 15.5308 7.66758 15.6792 7.6847 15.822C7.70183 15.9704 7.83886 16.1189 7.98731 16.0789C8.12434 16.0389 8.17573 15.8505 8.27279 15.7592C8.43837 15.5936 8.72384 15.6507 8.90655 15.7991C9.08355 15.9476 9.19203 16.1588 9.34619 16.3358C9.75727 16.8154 10.4253 16.9924 11.0591 17.0038C11.6871 17.021 12.3209 16.9011 12.9489 16.941H13.0117C13.0117 16.981 13.0231 17.021 13.0231 17.0609C13.0231 17.1637 12.966 17.2379 12.9204 17.3236C12.8804 17.4035 12.8747 17.5006 12.9204 17.5805C12.9832 17.6662 13.1145 17.689 13.2058 17.6433C13.3086 17.5976 13.36 17.4949 13.4114 17.3978C13.4799 17.2608 13.5142 17.1123 13.5199 16.9696C13.7768 16.9696 14.028 16.9525 14.2336 16.8154C14.4106 16.6955 14.5362 16.53 14.696 16.3929C15.0158 16.1074 15.4497 15.9933 15.7751 15.7192C16.1348 15.4052 16.3118 14.9256 16.4717 14.4688C16.5916 14.406 16.7286 14.5316 16.8543 14.5373C17.0427 14.5373 17.1569 14.2918 17.0826 14.1148C17.0027 13.9378 16.82 13.8522 16.6316 13.8008C16.7172 13.2127 16.7172 12.6018 16.6316 12.0194C16.5916 11.7568 16.5288 11.4827 16.5859 11.2144C16.643 10.9517 16.86 10.6948 17.1226 10.7062L17.1169 10.7005ZM11.807 14.6801C10.8364 14.6801 10.0428 13.8978 10.0428 12.9158C10.0428 11.9338 10.825 11.1515 11.807 11.1515C12.789 11.1515 13.5713 11.9338 13.5713 12.9158C13.5713 13.8978 12.789 14.6801 11.807 14.6801Z" fill="white"/>
<path d="M22.8172 10.0155C22.7487 9.62721 22.3776 9.37028 21.9894 9.43879C21.6011 9.50731 21.3442 9.87843 21.4127 10.2667C21.5155 10.8491 21.5726 11.4371 21.5726 12.0024C21.5726 17.278 17.279 21.5716 12.0033 21.5716C9.69097 21.5716 7.45853 20.7209 5.72854 19.2193L6.88187 18.9738L2.66821 16.3302L3.70735 21.1948L4.46101 19.9901C6.49362 21.9085 9.19424 22.999 12.0033 22.999C18.0669 22.999 23 18.0659 23 12.0024C23 11.3515 22.9371 10.6835 22.8172 10.0155Z" fill="white"/>
<path d="M11.9966 2.4331C13.6981 2.4331 15.331 2.87844 16.7812 3.71775L15.9191 4.11171L20.0185 5.56765L18.2029 1.61092L17.8261 2.6729C16.0789 1.57667 14.0806 1 11.9966 1C5.93306 1.00571 1 5.93877 1 12.0023C1 12.3963 1.31974 12.716 1.71369 12.716C2.10765 12.716 2.42739 12.3963 2.42739 12.0023C2.42739 6.72669 6.72098 2.4331 11.9966 2.4331Z" fill="white"/>
</svg>
