<svg width="160" height="160" viewBox="0 0 160 160" fill="none" xmlns="http://www.w3.org/2000/svg">
<rect width="160" height="160" fill="#444A65"/>
<mask id="mask0_2805_1054" style="mask-type:alpha" maskUnits="userSpaceOnUse" x="56" y="56" width="48" height="48">
<rect x="56" y="56" width="48" height="48" fill="#D9D9D9"/>
</mask>
<g mask="url(#mask0_2805_1054)">
<path d="M80 98V94.45L90.8 83.65L94.35 87.2L83.55 98H80ZM62 87.5V84.5H77V87.5H62ZM96.5 85.05L92.95 81.5L94.4 80.05C94.6667 79.7833 95.0167 79.65 95.45 79.65C95.8833 79.65 96.2333 79.7833 96.5 80.05L97.95 81.5C98.2167 81.7667 98.35 82.1167 98.35 82.55C98.35 82.9833 98.2167 83.3333 97.95 83.6L96.5 85.05ZM62 79.25V76.25H85.5V79.25H62ZM62 71V68H85.5V71H62Z" fill="white"/>
</g>
</svg>
