<svg width="160" height="160" viewBox="0 0 160 160" fill="none" xmlns="http://www.w3.org/2000/svg">
<rect width="160" height="160" fill="#444A65"/>
<mask id="mask0_2981_5247" style="mask-type:alpha" maskUnits="userSpaceOnUse" x="56" y="56" width="48" height="48">
<rect x="56" y="56" width="48" height="48" fill="#D9D9D9"/>
</mask>
<g mask="url(#mask0_2981_5247)">
<path d="M86.6 98L73.45 93.35L64.5 96.9C63.9333 97.2 63.375 97.1833 62.825 96.85C62.275 96.5167 62 96.0167 62 95.35V67.45C62 67.0167 62.125 66.6333 62.375 66.3C62.625 65.9667 62.95 65.7167 63.35 65.55L73.45 62L86.6 66.6L95.5 63.05C96.0667 62.7833 96.625 62.8083 97.175 63.125C97.725 63.4417 98 63.9333 98 64.6V92.85C98 93.2167 97.875 93.5333 97.625 93.8C97.375 94.0667 97.0667 94.2667 96.7 94.4L86.6 98ZM84.9 94.25V69L75.1 65.7V90.95L84.9 94.25ZM87.9 94.25L95 91.9V66.3L87.9 69V94.25ZM65 93.65L72.1 90.95V65.7L65 68.05V93.65Z" fill="white"/>
</g>
</svg>
