<svg width="120" height="144" viewBox="0 0 120 144" fill="none" xmlns="http://www.w3.org/2000/svg">
<rect width="120" height="144" rx="4" fill="#FAFAFA"/>
<g clip-path="url(#clip0_2079_9896)">
<path d="M51.7181 58.51L52.0216 58.1038L51.6112 57.806C50.8856 57.2797 50.1291 56.7825 49.3919 56.2981C49.2882 56.23 49.1849 56.1621 49.0822 56.0945C48.2436 55.5423 47.4382 55.0028 46.7104 54.4351C45.2506 53.2966 44.1675 52.0927 43.7814 50.5591C43.1222 47.8906 43.3183 45.6368 44.1945 43.6294C45.0755 41.611 46.6623 39.7999 48.8552 38.0583C53.0417 34.7331 66.9748 33.1554 75.1458 49.8545C79.2434 58.2288 79.4072 65.8676 77.627 71.5574C75.837 77.2787 72.1192 80.9524 68.5105 81.5904L68.5098 81.5905C66.6875 81.9151 64.6021 82.032 62.785 81.5689C60.9872 81.1107 59.4746 80.0944 58.6938 78.1424L58.6924 78.139C58.1057 76.7026 57.8746 74.9113 57.701 72.9115C57.6649 72.4954 57.6313 72.0706 57.5972 71.6395C57.4696 70.0255 57.3352 68.3248 57.0362 66.6762L56.9555 66.2314L56.5049 66.2669C54.7282 66.4072 52.9638 65.8736 51.5625 64.7723L51.228 64.5094L50.915 64.7975C49.6765 65.9372 48.285 66.8985 46.7808 67.6534C45.052 68.3516 43.277 68.9288 41.4685 69.3811L40.4597 67.1526C42.3684 66.681 44.2493 66.103 46.0936 65.421L46.1136 65.4136L46.1329 65.4046C47.6473 64.693 49.0244 63.72 50.201 62.5303L49.8455 62.1787L50.3444 62.2131C50.4367 60.8723 50.9136 59.5866 51.7181 58.51ZM59.1143 63.4472L59.2723 63.9985L59.797 63.7667C60.7323 63.3534 61.5998 62.8979 62.1844 62.5731L61.9415 62.1361L62.4351 62.0561C62.2049 60.6349 61.7741 59.2535 61.1558 57.9533L61.1558 57.9533L61.1531 57.9479C60.7721 57.171 60.3205 56.4307 59.8041 55.7363L59.5811 55.4366L59.2305 55.5654C58.1509 55.962 57.0942 56.418 56.065 56.9313L55.4945 57.2159L55.9069 57.7022C56.4685 58.3643 56.99 59.0594 57.4685 59.7838C58.1892 60.9201 58.7434 62.1538 59.1143 63.4472ZM57.8544 54.8161L57.744 54.2216L57.9424 53.9413C56.9019 53.2049 55.707 52.7158 54.4488 52.5113C53.1905 52.3069 51.9023 52.3924 50.6821 52.7615L49.3796 53.1554L50.6273 53.6985C51.9596 54.2784 53.1891 55.0703 54.268 56.0434L54.5192 56.2699L54.823 56.121C55.8923 55.5968 57.029 55.1335 57.8544 54.8161ZM52.9033 59.5462C52.1446 60.4167 51.7293 61.5309 51.73 62.6805L51.6284 62.7821L51.7482 63.0869C51.8511 63.3489 52.0545 63.5752 52.2877 63.7603C52.5273 63.9506 52.8309 64.1233 53.1839 64.268C53.8907 64.5579 54.8289 64.7492 55.9358 64.7266L56.6091 64.7129L56.4011 64.0723C56.1691 63.3577 55.8807 62.6627 55.5387 61.9938L55.5343 61.9852L55.5296 61.9767C55.0193 61.0673 54.3783 60.2377 53.627 59.5145L53.2485 59.1502L52.9033 59.5462ZM59.924 65.1458L59.8526 65.1819L59.796 65.2385L59.7746 65.2599L59.5926 65.4419L59.635 65.6958C59.8788 67.1548 59.9345 68.639 59.8009 70.1122L59.6354 71.9379L60.7049 70.4491C61.9317 68.7415 62.6049 66.6986 62.6335 64.5962L62.6447 63.7708L61.908 64.1431L59.924 65.1458Z" fill="#212121" stroke="#212121"/>
</g>
<path d="M44.3043 105.364C44.248 104.797 43.9977 104.346 43.5536 104.011C43.1095 103.677 42.551 103.509 41.8782 103.509C41.4042 103.509 40.9866 103.59 40.6253 103.753C40.2674 103.915 39.9857 104.141 39.7802 104.429C39.578 104.714 39.4769 105.039 39.4769 105.403C39.4769 105.672 39.5349 105.907 39.6509 106.109C39.7669 106.312 39.9227 106.486 40.1182 106.631C40.3171 106.774 40.5358 106.897 40.7745 106.999C41.0164 107.102 41.26 107.188 41.5053 107.258L42.5792 107.566C42.904 107.656 43.2288 107.77 43.5536 107.909C43.8784 108.048 44.1751 108.224 44.4435 108.436C44.7153 108.645 44.9324 108.902 45.0948 109.207C45.2605 109.508 45.3434 109.871 45.3434 110.295C45.3434 110.839 45.2025 111.328 44.9208 111.762C44.6391 112.196 44.2347 112.541 43.7077 112.796C43.1807 113.048 42.5493 113.174 41.8135 113.174C41.1208 113.174 40.5193 113.06 40.0089 112.831C39.4984 112.599 39.0974 112.279 38.8057 111.871C38.5141 111.464 38.35 110.991 38.3135 110.455H39.2681C39.3012 110.856 39.4338 111.195 39.6658 111.474C39.8978 111.752 40.1994 111.964 40.5707 112.11C40.9419 112.253 41.3562 112.324 41.8135 112.324C42.3207 112.324 42.7714 112.239 43.1658 112.07C43.5635 111.898 43.8751 111.659 44.1005 111.354C44.3292 111.046 44.4435 110.688 44.4435 110.281C44.4435 109.936 44.354 109.647 44.1751 109.415C43.9961 109.18 43.7458 108.983 43.4243 108.824C43.1062 108.665 42.7366 108.524 42.3157 108.401L41.0976 108.043C40.2989 107.805 39.6791 107.475 39.2383 107.054C38.7974 106.633 38.577 106.096 38.577 105.443C38.577 104.896 38.7229 104.416 39.0145 104.001C39.3095 103.584 39.7073 103.259 40.2077 103.027C40.7115 102.792 41.2766 102.674 41.903 102.674C42.5361 102.674 43.0962 102.79 43.5834 103.022C44.0707 103.254 44.4568 103.574 44.7418 103.982C45.0302 104.386 45.1843 104.847 45.2042 105.364H44.3043ZM47.4666 115.864V105.364H48.3267V106.82H48.4311C48.5372 106.592 48.683 106.358 48.8686 106.119C49.0542 105.877 49.2995 105.674 49.6044 105.508C49.9127 105.342 50.3005 105.259 50.7678 105.259C51.3975 105.259 51.9477 105.425 52.4183 105.756C52.8923 106.085 53.2602 106.545 53.522 107.138C53.7872 107.728 53.9198 108.416 53.9198 109.202C53.9198 109.991 53.7872 110.682 53.522 111.275C53.2602 111.868 52.8923 112.33 52.4183 112.662C51.9477 112.993 51.4008 113.159 50.7777 113.159C50.317 113.159 49.9309 113.076 49.6193 112.911C49.3111 112.745 49.0609 112.541 48.8686 112.299C48.6797 112.054 48.5339 111.815 48.4311 111.583H48.3516V115.864H47.4666ZM48.3416 109.187C48.3416 109.803 48.4328 110.35 48.6151 110.827C48.8007 111.301 49.0658 111.674 49.4105 111.946C49.7585 112.214 50.1795 112.349 50.6733 112.349C51.1804 112.349 51.608 112.21 51.956 111.931C52.3073 111.649 52.5741 111.27 52.7564 110.793C52.942 110.315 53.0348 109.78 53.0348 109.187C53.0348 108.6 52.9437 108.071 52.7614 107.601C52.5824 107.13 52.3173 106.757 51.9659 106.482C51.6146 106.204 51.1837 106.065 50.6733 106.065C50.1762 106.065 49.7536 106.199 49.4056 106.467C49.0576 106.732 48.7924 107.1 48.6101 107.571C48.4311 108.038 48.3416 108.577 48.3416 109.187ZM56.8161 102.818V113H55.9312V102.818H56.8161ZM62.3151 113.159C61.6025 113.159 60.986 112.993 60.4657 112.662C59.9453 112.327 59.5426 111.865 59.2576 111.275C58.9758 110.682 58.835 109.999 58.835 109.227C58.835 108.458 58.9758 107.775 59.2576 107.178C59.5426 106.578 59.9354 106.109 60.4358 105.771C60.9396 105.43 61.5213 105.259 62.1809 105.259C62.5952 105.259 62.9945 105.335 63.379 105.488C63.7635 105.637 64.1082 105.867 64.4131 106.179C64.7213 106.487 64.965 106.877 65.1439 107.347C65.3229 107.815 65.4124 108.368 65.4124 109.008V109.445H59.4465V108.665H64.5076C64.5076 108.174 64.4081 107.733 64.2093 107.342C64.0137 106.948 63.7403 106.636 63.389 106.408C63.0409 106.179 62.6382 106.065 62.1809 106.065C61.697 106.065 61.2711 106.194 60.9032 106.452C60.5353 106.711 60.2469 107.052 60.0381 107.477C59.8326 107.901 59.7282 108.365 59.7249 108.869V109.336C59.7249 109.942 59.8293 110.473 60.0381 110.927C60.2502 111.378 60.5502 111.727 60.938 111.976C61.3257 112.224 61.7848 112.349 62.3151 112.349C62.6764 112.349 62.9929 112.292 63.2647 112.18C63.5398 112.067 63.7701 111.916 63.9557 111.727C64.1446 111.535 64.2872 111.325 64.3833 111.096L65.2235 111.369C65.1075 111.691 64.9169 111.987 64.6517 112.259C64.3899 112.531 64.0618 112.75 63.6674 112.915C63.2763 113.078 62.8255 113.159 62.3151 113.159ZM70.5199 113.159C69.8073 113.159 69.1908 112.993 68.6704 112.662C68.1501 112.327 67.7474 111.865 67.4623 111.275C67.1806 110.682 67.0397 109.999 67.0397 109.227C67.0397 108.458 67.1806 107.775 67.4623 107.178C67.7474 106.578 68.1401 106.109 68.6406 105.771C69.1444 105.43 69.7261 105.259 70.3856 105.259C70.7999 105.259 71.1993 105.335 71.5838 105.488C71.9683 105.637 72.313 105.867 72.6179 106.179C72.9261 106.487 73.1697 106.877 73.3487 107.347C73.5277 107.815 73.6172 108.368 73.6172 109.008V109.445H67.6513V108.665H72.7123C72.7123 108.174 72.6129 107.733 72.414 107.342C72.2185 106.948 71.9451 106.636 71.5937 106.408C71.2457 106.179 70.843 106.065 70.3856 106.065C69.9017 106.065 69.4758 106.194 69.1079 106.452C68.74 106.711 68.4517 107.052 68.2429 107.477C68.0374 107.901 67.933 108.365 67.9297 108.869V109.336C67.9297 109.942 68.0341 110.473 68.2429 110.927C68.455 111.378 68.7549 111.727 69.1427 111.976C69.5305 112.224 69.9896 112.349 70.5199 112.349C70.8811 112.349 71.1977 112.292 71.4694 112.18C71.7445 112.067 71.9749 111.916 72.1605 111.727C72.3494 111.535 72.4919 111.325 72.588 111.096L73.4282 111.369C73.3122 111.691 73.1217 111.987 72.8565 112.259C72.5947 112.531 72.2665 112.75 71.8721 112.915C71.481 113.078 71.0303 113.159 70.5199 113.159ZM76.5222 108.227V113H75.6373V105.364H76.4974V106.562H76.5769C76.7559 106.171 77.0343 105.857 77.4121 105.622C77.7933 105.384 78.2639 105.264 78.8241 105.264C79.3378 105.264 79.7885 105.372 80.1763 105.587C80.5674 105.799 80.8707 106.113 81.0861 106.527C81.3049 106.941 81.4143 107.45 81.4143 108.053V113H80.5293V108.108C80.5293 107.482 80.3537 106.986 80.0023 106.621C79.6543 106.257 79.187 106.075 78.6003 106.075C78.1993 106.075 77.843 106.161 77.5314 106.333C77.2199 106.505 76.973 106.754 76.7907 107.079C76.6117 107.4 76.5222 107.783 76.5222 108.227Z" fill="#212121"/>
<defs>
<clipPath id="clip0_2079_9896">
<rect width="64" height="64" fill="white" transform="translate(28 27)"/>
</clipPath>
</defs>
</svg>
