<svg width="48" height="48" viewBox="0 0 48 48" fill="none" xmlns="http://www.w3.org/2000/svg">
<path fill-rule="evenodd" clip-rule="evenodd" d="M40 24C40 32.8366 32.8366 40 24 40C15.1634 40 8 32.8366 8 24C8 15.1634 15.1634 8 24 8C32.8366 8 40 15.1634 40 24ZM44 24C44 35.0457 35.0457 44 24 44C12.9543 44 4 35.0457 4 24C4 12.9543 12.9543 4 24 4C35.0457 4 44 12.9543 44 24ZM18 21.4445C20.2091 21.4445 22 19.6536 22 17.4445C22 15.2354 20.2091 13.4445 18 13.4445C15.7909 13.4445 14 15.2354 14 17.4445C14 19.6536 15.7909 21.4445 18 21.4445Z" fill="#990000"/>
</svg>
