<svg width="24" height="24" viewBox="0 0 24 24" fill="none" xmlns="http://www.w3.org/2000/svg">
<path d="M15.8496 18.302C15.7217 18.1742 15.6404 18.0115 15.6171 17.8372L15.4428 14.9437C15.3498 14.3976 15.7915 13.9095 16.3493 13.9444L18.6038 14.1419C18.72 13.2472 18.72 12.3291 18.5805 11.4344C18.5108 10.9928 18.4062 10.5396 18.5108 10.098C18.6038 9.65646 18.964 9.23813 19.4173 9.24975C19.6264 9.24975 19.8356 9.35434 20.0448 9.29623C20.3818 9.19165 20.4399 8.68036 20.2075 8.41309C19.9751 8.14582 19.58 8.0761 19.2197 8.0761C18.8594 8.0761 18.4992 8.12258 18.1505 8.01799C17.4533 7.79721 17.1163 7.04188 16.7211 6.43762C15.8844 5.13614 14.455 4.22976 12.921 4.03221C12.5143 3.97411 12.0262 3.91601 11.8519 3.54416C11.7938 3.40471 11.7938 3.25365 11.7822 3.10258C11.7705 2.75397 11.7008 2.38212 11.4451 2.14971C11.1895 1.9173 10.6898 1.95217 10.5736 2.27754C10.4806 2.55642 10.6898 2.83531 10.806 3.10258C11.1314 3.86952 10.0506 4.02059 9.57413 4.12517C8.81876 4.28786 8.05176 4.35758 7.33125 4.63647C6.40156 5.00832 5.62294 5.71716 5.15809 6.60031C4.90243 7.08836 4.62352 7.72748 4.07733 7.75072C3.82166 7.75072 3.53113 7.63452 3.33357 7.79721C3.12439 7.98313 3.25222 8.32012 3.43816 8.51767C3.6241 8.71522 3.86814 8.91276 3.87977 9.18003C3.89139 9.36596 3.79842 9.52864 3.71707 9.69132C2.89197 11.2833 2.92683 12.0386 3.10115 13.8166C3.26385 15.4434 3.75194 16.1058 3.86815 16.3614C3.97274 16.5938 3.90301 16.8611 3.82166 17.0935C3.72869 17.3259 3.6241 17.5699 3.65897 17.814C3.69383 18.058 3.92625 18.302 4.1703 18.2323C4.40272 18.1626 4.47245 17.8604 4.64676 17.6861C4.92567 17.4072 5.40214 17.5118 5.70429 17.7559C6.00644 17.9999 6.18076 18.3601 6.43642 18.6622C7.11045 19.464 8.2377 19.7546 9.29523 19.7778C10.3528 19.801 11.3987 19.6151 12.4562 19.6848C12.491 19.6848 12.5259 19.6848 12.5608 19.6848C12.5724 19.7546 12.584 19.8127 12.584 19.8824C12.5724 20.0451 12.4794 20.1845 12.4213 20.324C12.3632 20.4634 12.3283 20.6261 12.4213 20.7539C12.5143 20.905 12.7467 20.9398 12.8978 20.8585C13.0605 20.7772 13.1651 20.6145 13.2464 20.4518C13.351 20.231 13.4091 19.987 13.4324 19.7313C13.8623 19.7313 14.2807 19.6965 14.6293 19.4757C14.9199 19.2897 15.129 18.9992 15.3963 18.7668C15.5707 18.6158 15.7682 18.4879 15.9774 18.3717L15.896 18.2904L15.8496 18.302ZM10.5387 15.9082C8.91173 15.9082 7.59854 14.5951 7.59854 12.9683C7.59854 11.3414 8.91173 10.0283 10.5387 10.0283C12.1657 10.0283 13.4788 11.3414 13.4788 12.9683C13.4788 14.5951 12.1657 15.9082 10.5387 15.9082Z" fill="white"/>
<path d="M17.333 15.2226L19.5061 15.4085C19.6456 15.4085 19.785 15.4782 19.878 15.5828L22.3533 18.0579C22.5857 18.2904 22.5857 18.6622 22.3533 18.8946L20.4242 20.8236C20.1918 21.056 19.8199 21.056 19.5875 20.8236L16.9959 18.2323C16.9146 18.1509 16.8565 18.0347 16.8332 17.9185L16.717 15.9082C16.6473 15.5247 16.9611 15.1877 17.3446 15.2226H17.333ZM18.0418 16.0825C17.7397 16.0825 17.4957 16.3265 17.4957 16.6286C17.4957 16.9308 17.7397 17.1748 18.0418 17.1748C18.344 17.1748 18.588 16.9308 18.588 16.6286C18.588 16.3265 18.344 16.0825 18.0418 16.0825Z" fill="white"/>
</svg>
