<svg width="24" height="24" viewBox="0 0 24 24" fill="none" xmlns="http://www.w3.org/2000/svg">
<path d="M16.4906 13.246C16.4906 13.246 16.0155 11.2694 14.7589 10.7255C14.3911 10.6029 13.326 10.917 13.9697 12.4876C13.8088 12.3037 13.2188 11.1468 13.7168 10.4037C14.0693 9.94403 14.6056 9.67589 15.188 9.66057C15.5558 9.66057 15.8546 9.36944 15.8623 9.0017C15.8623 8.94041 15.8546 8.87912 15.8393 8.81783C15.732 8.09001 14.7819 8.18961 14.7819 8.18961C14.7819 8.18961 12.3223 8.14364 11.7399 9.76016C11.7399 7.79123 14.2608 7.78356 14.2608 7.78356C14.2608 7.17067 12.146 6.79526 10.7975 7.83719C8.98152 9.2392 8.99684 11.6525 10.4527 13.4835C9.60983 12.9166 9.08113 11.9896 9.01983 10.9783C8.7823 11.2848 8.0697 12.411 8.27659 14.4565C8.57542 17.5593 15.165 20.0339 16.2454 18.4633C17.3258 16.8928 16.4906 13.2384 16.4906 13.2384V13.246Z" fill="white"/>
<path d="M9.43273 8.4349C9.27182 8.11312 7.99988 8.13611 7.99988 8.50385V11.1929C8.22208 10.7716 8.53624 10.4038 8.91935 10.1127C8.93468 9.51513 9.11857 8.94054 9.43273 8.4349Z" fill="white"/>
<path d="M11.2615 7.10238L11.7595 6.88787V4.32902L12.6484 4.71208L11.5067 2L10.365 4.71208L11.2615 4.32902V7.10238Z" fill="white"/>
<path d="M22.2232 14.9937L19.5108 13.8445L19.8862 14.7409H17.0282L17.0895 15.2389H19.8862L19.5108 16.1353L22.2232 14.9937Z" fill="white"/>
<path d="M9.52271 17.3301L9.16258 16.9854L6.97116 19.1765L6.61103 18.2724L5.5 20.9998L8.22778 19.889L7.32363 19.5212L9.52271 17.3301Z" fill="white"/>
</svg>
