<svg width="24" height="24" viewBox="0 0 24 24" fill="none" xmlns="http://www.w3.org/2000/svg">
<path d="M7.92844 6.15146H16.8708C17.092 6.15146 17.2716 6.33114 17.2716 6.55228H18.1931C18.1931 5.82436 17.5987 5.23004 16.8708 5.23004H7.92844C7.20052 5.23004 6.6062 5.82436 6.6062 6.55228V18.5077C6.6062 19.2356 7.20052 19.8299 7.92844 19.8299V18.9085C7.7073 18.9085 7.52762 18.7288 7.52762 18.5077V6.54767C7.52762 6.32653 7.7073 6.14685 7.92844 6.14685V6.15146Z" fill="white"/>
<path d="M5.82224 3.92142H14.7646C14.9858 3.92142 15.1654 4.1011 15.1654 4.32224H16.0869C16.0869 3.59432 15.4925 3 14.7646 3H5.82224C5.09432 3 4.5 3.59432 4.5 4.32224V16.2777C4.5 17.0056 5.09432 17.5999 5.82224 17.5999V16.6785C5.6011 16.6785 5.42142 16.4988 5.42142 16.2777V4.32224C5.42142 4.1011 5.6011 3.92142 5.82224 3.92142Z" fill="white"/>
<path d="M18.5427 7.32581H10.0288C9.43446 7.32581 8.95532 7.80494 8.95532 8.39926V19.9262C8.95532 20.5205 9.43446 20.9997 10.0288 20.9997H18.5427C19.137 20.9997 19.6162 20.5205 19.6162 19.9262V8.39926C19.6162 7.80494 19.137 7.32581 18.5427 7.32581ZM14.2857 11.2511C15.0874 11.2511 15.737 11.9053 15.737 12.7023C15.737 13.4993 15.0828 14.1535 14.2857 14.1535C13.4887 14.1535 12.8345 13.4993 12.8345 12.7023C12.8345 11.9053 13.4887 11.2511 14.2857 11.2511ZM16.7091 16.6644C16.7091 16.8901 16.5248 17.0698 16.3036 17.0698H12.2632C12.0421 17.0698 11.8578 16.8901 11.8578 16.6644C11.8578 15.5495 12.7654 14.6419 13.8757 14.6419H14.6819C15.7969 14.6419 16.7045 15.5449 16.7045 16.6598L16.7091 16.6644Z" fill="white"/>
</svg>
