<svg width="24" height="24" viewBox="0 0 24 24" fill="none" xmlns="http://www.w3.org/2000/svg">
<path d="M6.74814 4.95322C6.49695 4.45084 4.5 4.48852 4.5 5.06625V9.28624C4.85167 8.62058 5.34148 8.04285 5.93178 7.59071C5.9569 6.66131 6.24576 5.74447 6.73558 4.95322H6.74814Z" fill="white"/>
<path d="M14.9761 16.0802C14.9761 14.347 16.1944 12.9027 17.8271 12.5384C17.8271 12.5259 17.8271 12.5008 17.8271 12.5008C17.8271 12.5008 17.0735 9.39857 15.1143 8.54453C14.5365 8.35614 12.8661 8.84596 13.8834 11.3076C13.6322 11.0187 12.7028 9.21018 13.4815 8.04215C14.0341 7.32626 14.8756 6.89924 15.7799 6.87412C16.3576 6.87412 16.8349 6.40942 16.8349 5.83168C16.8349 5.73121 16.8349 5.63073 16.7972 5.54282C16.6339 4.39991 15.1394 4.56318 15.1394 4.56318C15.1394 4.56318 11.2836 4.48782 10.3668 7.03739C10.3668 3.94777 14.3104 3.9352 14.3104 3.9352C14.3104 2.98068 10.9947 2.39039 8.88476 4.02312C6.03376 6.22103 6.05888 10.0014 8.3447 12.8775C7.02596 11.9984 6.19703 10.5415 6.09656 8.94643C5.71977 9.42369 4.60198 11.1946 4.92853 14.4098C5.40579 19.2703 15.7297 23.1637 17.4252 20.7021C17.6387 20.4007 17.802 20.0364 17.9276 19.6471C16.2446 19.3331 14.9761 17.8637 14.9761 16.0928V16.0802Z" fill="white"/>
<path d="M20.9655 15.9801C20.9655 15.9801 20.9027 15.9298 20.5385 15.9298C20.4631 14.9753 19.7096 14.2343 18.755 14.1464C18.755 14.0334 18.755 13.9329 18.755 13.8952C18.755 13.845 18.755 13.7947 18.7174 13.7571C18.6546 13.6943 18.5541 13.6943 18.4913 13.7571C18.4536 13.7947 18.441 13.8073 18.441 14.1464C17.4865 14.2218 16.733 14.9879 16.6576 15.9424C16.532 15.9424 16.419 15.9424 16.3813 15.9424C16.3311 15.9424 16.2808 15.9424 16.2431 15.9801C16.1803 16.0429 16.1803 16.1434 16.2431 16.2062C16.2808 16.2438 16.3059 16.2564 16.6576 16.2564C16.733 17.2109 17.4991 17.9645 18.4536 18.0273C18.4536 18.1529 18.4536 18.2533 18.4536 18.2785C18.4536 18.3287 18.4536 18.3789 18.4913 18.4166C18.5164 18.4417 18.5666 18.4669 18.6043 18.4669C18.642 18.4669 18.6797 18.4543 18.7174 18.4166C18.755 18.3789 18.7676 18.3664 18.7676 18.0273C19.7221 17.9519 20.4631 17.1984 20.5385 16.2438C20.6766 16.2438 20.7897 16.2438 20.8148 16.2438H20.8399C20.8776 16.2438 20.9153 16.2313 20.9529 16.1936C21.0157 16.1308 21.0157 16.0303 20.9529 15.9675L20.9655 15.9801ZM18.755 17.5375C18.755 17.3993 18.755 17.2486 18.755 17.0476C18.755 16.9597 18.6797 16.8969 18.6043 16.8969C18.5164 16.8969 18.4536 16.9723 18.4536 17.0602C18.4536 17.1984 18.4536 17.3742 18.4536 17.55C17.7628 17.4747 17.2353 16.9472 17.1474 16.2564C17.2856 16.2564 17.4237 16.2564 17.6121 16.2564C17.7 16.2564 17.7628 16.181 17.7628 16.0931C17.7628 16.0052 17.6875 15.9424 17.6121 15.9424C17.474 15.9424 17.3107 15.9424 17.1474 15.9424C17.2228 15.2516 17.7503 14.7116 18.4536 14.6362C18.4536 14.7744 18.4536 14.9376 18.4536 15.126C18.4536 15.214 18.529 15.2768 18.6043 15.2768C18.6922 15.2768 18.755 15.2014 18.755 15.1135C18.755 14.9753 18.755 14.7995 18.755 14.6237C19.4458 14.699 19.9733 15.2265 20.0487 15.9173C19.9231 15.9173 19.7724 15.9173 19.5965 15.9173C19.5086 15.9173 19.4458 15.9926 19.4458 16.0806C19.4458 16.1685 19.5212 16.2313 19.5965 16.2313C19.7347 16.2313 19.8854 16.2313 20.0487 16.2313C19.9733 16.922 19.4458 17.4495 18.755 17.5249V17.5375Z" fill="white"/>
</svg>
