<svg width="24" height="24" viewBox="0 0 24 24" fill="none" xmlns="http://www.w3.org/2000/svg">
<path d="M11.481 9.98437C11.4763 9.80545 11.4194 9.62613 11.302 9.48653L6.86976 4.17785C6.73639 4.01401 6.55621 3.92416 6.34135 3.90037C6.13652 3.87866 5.93505 3.9414 5.78124 4.07687C5.45357 4.34363 5.41352 4.83775 5.68026 5.16544L9.92725 10.2576L9.93178 19.9413C9.92891 20.307 10.1877 20.6226 10.5489 20.6978C10.5991 20.7082 10.6492 20.7187 10.7036 20.7091C10.9126 20.7107 11.1082 20.6258 11.2519 20.4883C11.3978 20.3407 11.4797 20.1484 11.4813 19.9393L11.483 9.97434L11.481 9.98437Z" fill="white"/>
<path d="M5.16953 6.30502C5.03407 6.15121 4.84386 6.05927 4.63694 6.0476C4.43003 6.03593 4.22856 6.09867 4.07475 6.23413C3.75502 6.51301 3.72501 7.00922 4.00596 7.31893L8.08776 11.9475C8.1973 12.075 8.34737 12.1586 8.5079 12.192C8.74868 12.2421 8.99237 12.1777 9.1725 12.0163C9.49224 11.7374 9.52225 11.2412 9.2413 10.9315L5.1595 6.30293L5.16953 6.30502Z" fill="white"/>
<path d="M14.3002 10.1626L18.5526 5.07071C18.8184 4.7492 18.7841 4.26052 18.4546 3.98259C18.1231 3.71468 17.6445 3.75113 17.3666 4.08059L12.9336 9.38612C12.8199 9.52995 12.7522 9.70428 12.7569 9.88319L12.7573 19.8382C12.7544 20.2039 13.0132 20.5195 13.3744 20.5947C13.4245 20.6051 13.4747 20.6156 13.5269 20.616C13.955 20.6214 14.2994 20.2743 14.2947 19.8442L14.3002 10.1626Z" fill="white"/>
<path d="M20.5474 6.50199C20.5369 6.30092 20.442 6.10321 20.2902 5.97741C20.1405 5.84157 19.934 5.77765 19.733 5.78813C19.5319 5.79861 19.3442 5.89563 19.2084 6.0453L15.1265 10.6702C14.8406 10.9876 14.875 11.4762 15.1923 11.7621C15.2901 11.8453 15.4122 11.9126 15.5426 11.9397C15.8135 11.9961 16.0935 11.9079 16.2741 11.6942L20.356 7.06929C20.4939 6.90958 20.5658 6.71518 20.5453 6.51202L20.5474 6.50199Z" fill="white"/>
</svg>
