<svg width="24" height="24" viewBox="0 0 24 24" fill="none" xmlns="http://www.w3.org/2000/svg">
<path d="M17.4367 8.85942C17.4367 8.85942 16.8927 6.61968 15.4781 6.00307C15.061 5.86706 13.855 6.2207 14.5895 7.99798C14.4081 7.78942 13.7462 6.48367 14.2993 5.64036C14.6983 5.1235 15.3058 4.8152 15.9587 4.79706C16.3758 4.79706 16.7204 4.46155 16.7204 4.04444C16.7204 3.97189 16.7204 3.89935 16.6932 3.83588C16.5753 3.01071 15.4962 3.12859 15.4962 3.12859C15.4962 3.12859 12.7124 3.07419 12.0505 4.91494C12.0505 2.68427 14.8978 2.6752 14.8978 2.6752C14.8978 1.98605 12.5039 1.55987 10.9805 2.73868C8.92212 4.32554 8.94025 7.05493 10.5906 9.13145C9.63847 8.49671 9.04 7.44485 8.96745 6.29324C8.69542 6.63782 7.88839 7.91637 8.12415 10.2377C8.46873 13.7469 15.9224 16.558 17.1466 14.7807C18.3707 13.0034 17.4277 8.86849 17.4277 8.86849L17.4367 8.85942Z" fill="white"/>
<path d="M9.45613 3.40985C9.27478 3.04714 7.83301 3.07435 7.83301 3.49146V6.53823C8.0869 6.05764 8.44055 5.64052 8.86673 5.31408C8.88487 4.64307 9.09342 3.98112 9.44707 3.40985H9.45613Z" fill="white"/>
<path d="M4.5 19.5593C4.51814 19.378 6.12312 18.6707 6.40422 18.4621C7.0571 17.9543 7.32913 17.646 8.19963 17.238C9.60513 16.576 10.4394 16.7211 11.727 16.9387C12.4977 17.0748 15.1909 16.8934 15.2181 17.6279C15.2453 18.4531 12.8695 18.1176 12.2529 18.2445C12.135 18.2626 11.9899 18.4621 12.0262 18.6253C12.3889 18.6526 13.1143 19.2057 13.4771 19.2238C13.9576 19.251 15.4538 19.1331 15.7893 19.0515C16.415 18.9064 17.3399 18.1448 18.1107 17.8002C18.5459 17.6007 19.4527 17.4103 19.5343 18.0903C19.498 18.2264 17.2855 19.8404 16.9772 20.0218C16.0523 20.5477 13.6221 20.9558 12.5703 20.8651C10.9925 20.7291 9.41471 20.0218 7.84599 20.8832C7.57396 21.0283 6.61278 22.1618 6.4677 21.9804L4.51814 19.5593H4.5Z" fill="white"/>
</svg>
