<svg width="24" height="24" viewBox="0 0 24 24" fill="none" xmlns="http://www.w3.org/2000/svg">
<path d="M13.9527 11.6237C13.9527 11.0186 14.4478 10.5344 15.053 10.5344H19.4651V7.11255C19.4651 5.94625 18.5189 5 17.3526 5H5.61255C4.44625 5 3.5 5.94625 3.5 7.11255V13.9013C3.5 15.0676 4.44625 16.0139 5.61255 16.0139H13.9087L13.9527 11.6347V11.6237Z" fill="white"/>
<path d="M16.0426 11.8657H20.8069C21.137 11.8657 21.412 12.1298 21.412 12.4709L21.5 19.8978C21.5 20.1179 21.247 20.2389 21.0819 20.1069L18.4633 18.0714L15.7786 19.9528C15.6025 20.0739 15.3605 19.9528 15.3715 19.7328L15.4375 12.4599C15.4375 12.1298 15.7125 11.8547 16.0426 11.8547V11.8657Z" fill="white"/>
</svg>
