<svg width="128" height="128" viewBox="0 0 128 128" fill="none" xmlns="http://www.w3.org/2000/svg">
<rect width="128" height="128" fill="#444A65"/>
<mask id="mask0_2889_4921" style="mask-type:alpha" maskUnits="userSpaceOnUse" x="40" y="40" width="48" height="48">
<rect x="40" y="40" width="48" height="48" fill="#D9D9D9"/>
</mask>
<g mask="url(#mask0_2889_4921)">
<path d="M64 82C61.5 82 59.1583 81.525 56.975 80.575C54.7917 79.625 52.8917 78.3417 51.275 76.725C49.6583 75.1083 48.375 73.2083 47.425 71.025C46.475 68.8417 46 66.5 46 64C46 62.6 46.1667 61.2333 46.5 59.9C46.8333 58.5667 47.3167 57.2917 47.95 56.075C48.5833 54.8583 49.3417 53.725 50.225 52.675C51.1083 51.625 52.1167 50.6833 53.25 49.85L66.65 63.25L64.55 65.4L53.05 53.9C51.75 55.3 50.75 56.8583 50.05 58.575C49.35 60.2917 49 62.1 49 64C49 68.1667 50.4583 71.7083 53.375 74.625C56.2917 77.5417 59.8333 79 64 79C68.1667 79 71.7083 77.5417 74.625 74.625C77.5417 71.7083 79 68.1667 79 64C79 60.0667 77.6833 56.6583 75.05 53.775C72.4167 50.8917 69.1333 49.3167 65.2 49.05V54.05H62.2V46H63.9C66.4 46 68.75 46.475 70.95 47.425C73.15 48.375 75.0667 49.6583 76.7 51.275C78.3333 52.8917 79.625 54.7917 80.575 56.975C81.525 59.1583 82 61.5 82 64C82 66.5 81.525 68.8417 80.575 71.025C79.625 73.2083 78.3417 75.1083 76.725 76.725C75.1083 78.3417 73.2083 79.625 71.025 80.575C68.8417 81.525 66.5 82 64 82ZM63.9 76.85C63.3667 76.85 62.9167 76.6667 62.55 76.3C62.1833 75.9333 62 75.4833 62 74.95C62 74.4167 62.1833 73.9667 62.55 73.6C62.9167 73.2333 63.3667 73.05 63.9 73.05C64.4333 73.05 64.8833 73.2333 65.25 73.6C65.6167 73.9667 65.8 74.4167 65.8 74.95C65.8 75.4833 65.6167 75.9333 65.25 76.3C64.8833 76.6667 64.4333 76.85 63.9 76.85ZM74.95 65.8C74.4167 65.8 73.9667 65.6167 73.6 65.25C73.2333 64.8833 73.05 64.4333 73.05 63.9C73.05 63.3667 73.2333 62.9167 73.6 62.55C73.9667 62.1833 74.4167 62 74.95 62C75.4833 62 75.9333 62.1833 76.3 62.55C76.6667 62.9167 76.85 63.3667 76.85 63.9C76.85 64.4333 76.6667 64.8833 76.3 65.25C75.9333 65.6167 75.4833 65.8 74.95 65.8ZM53 65.8C52.4667 65.8 52.0167 65.6167 51.65 65.25C51.2833 64.8833 51.1 64.4333 51.1 63.9C51.1 63.3667 51.2833 62.9167 51.65 62.55C52.0167 62.1833 52.4667 62 53 62C53.5333 62 53.9833 62.1833 54.35 62.55C54.7167 62.9167 54.9 63.3667 54.9 63.9C54.9 64.4333 54.7167 64.8833 54.35 65.25C53.9833 65.6167 53.5333 65.8 53 65.8Z" fill="white"/>
</g>
</svg>
