<svg width="160" height="160" viewBox="0 0 160 160" fill="none" xmlns="http://www.w3.org/2000/svg">
<rect width="160" height="160" fill="#444A65"/>
<path d="M33.0469 63.8789V95.5H24.8242V82.2188H22.3633V95.5H14.1406V63.8789H22.3633V75.1875H24.8242V63.8789H33.0469ZM54.1992 69.582V95.5H46.1719L46.3086 93.3516C45.7617 94.224 45.0846 94.8815 44.2773 95.3242C43.4831 95.7539 42.5651 95.9688 41.5234 95.9688C40.3385 95.9688 39.3555 95.7604 38.5742 95.3438C37.793 94.9271 37.2135 94.3737 36.8359 93.6836C36.4714 92.9935 36.2435 92.2773 36.1523 91.5352C36.0612 90.7799 36.0156 89.2891 36.0156 87.0625V69.582H43.9062V87.2188C43.9062 89.237 43.9648 90.4349 44.082 90.8125C44.2122 91.1901 44.5508 91.3789 45.0977 91.3789C45.6836 91.3789 46.0286 91.1836 46.1328 90.793C46.25 90.4023 46.3086 89.1458 46.3086 87.0234V69.582H54.1992ZM57.2656 63.8789H65.4688C68.0599 63.8789 70.0195 64.0807 71.3477 64.4844C72.6888 64.888 73.7695 65.7083 74.5898 66.9453C75.4102 68.1693 75.8203 70.1484 75.8203 72.8828C75.8203 74.7318 75.5273 76.0208 74.9414 76.75C74.3685 77.4792 73.2292 78.0391 71.5234 78.4297C73.4245 78.8594 74.7135 79.5755 75.3906 80.5781C76.0677 81.5677 76.4062 83.0911 76.4062 85.1484V88.0781C76.4062 90.2135 76.1589 91.7956 75.6641 92.8242C75.1823 93.8529 74.4076 94.556 73.3398 94.9336C72.2721 95.3112 70.0846 95.5 66.7773 95.5H57.2656V63.8789ZM65.4883 69.2891V76.3203C65.8398 76.3073 66.1133 76.3008 66.3086 76.3008C67.1159 76.3008 67.6302 76.1055 67.8516 75.7148C68.0729 75.3112 68.1836 74.1719 68.1836 72.2969C68.1836 71.3073 68.0924 70.6172 67.9102 70.2266C67.7279 69.8229 67.487 69.569 67.1875 69.4648C66.901 69.3607 66.3346 69.3021 65.4883 69.2891ZM65.4883 81.2422V90.0898C66.6471 90.0508 67.3828 89.8685 67.6953 89.543C68.0208 89.2174 68.1836 88.4167 68.1836 87.1406V84.1914C68.1836 82.8372 68.0404 82.0169 67.7539 81.7305C67.4674 81.444 66.7122 81.2812 65.4883 81.2422ZM104.746 63.8789V95.5H97.5586V74.1523L94.6875 95.5H89.5898L86.5625 74.6406V95.5H79.375V63.8789H90.0195C90.332 65.7799 90.6641 68.0195 91.0156 70.5977L92.1484 78.6445L94.0234 63.8789H104.746ZM122.246 63.8789L126.953 95.5H118.535L118.125 89.8164H115.176L114.688 95.5H106.172L110.352 63.8789H122.246ZM117.891 84.2109C117.474 80.6302 117.057 76.2096 116.641 70.9492C115.807 76.9909 115.286 81.4115 115.078 84.2109H117.891ZM128.359 63.8789H136.641C138.88 63.8789 140.599 64.0547 141.797 64.4062C143.008 64.7578 143.913 65.2656 144.512 65.9297C145.124 66.5938 145.534 67.401 145.742 68.3516C145.964 69.2891 146.074 70.7474 146.074 72.7266V75.4805C146.074 77.4987 145.866 78.9701 145.449 79.8945C145.033 80.819 144.264 81.5286 143.145 82.0234C142.038 82.5182 140.586 82.7656 138.789 82.7656H136.582V95.5H128.359V63.8789ZM136.582 69.2891V77.3359C136.816 77.349 137.018 77.3555 137.188 77.3555C137.943 77.3555 138.464 77.1732 138.75 76.8086C139.049 76.431 139.199 75.6562 139.199 74.4844V71.8867C139.199 70.806 139.03 70.1029 138.691 69.7773C138.353 69.4518 137.65 69.2891 136.582 69.2891Z" fill="white"/>
</svg>
