<svg width="128" height="128" viewBox="0 0 128 128" fill="none" xmlns="http://www.w3.org/2000/svg">
<rect width="128" height="128" fill="#444A65"/>
<path d="M96.4974 68.6299C95.4455 68.6269 94.4165 68.9363 93.5406 69.5188C92.6648 70.1013 91.9816 70.9307 91.5777 71.902C91.1737 72.8732 91.0673 73.9425 91.2717 74.9743C91.4762 76.0061 91.9824 76.954 92.7262 77.6978C93.47 78.4416 94.4179 78.9478 95.4497 79.1523C96.4815 79.3567 97.5508 79.2503 98.522 78.8463C99.4932 78.4424 100.323 77.7592 100.905 76.8834C101.488 76.0075 101.797 74.9784 101.794 73.9266C101.79 72.523 101.231 71.1781 100.238 70.1857C99.2459 69.1932 97.9009 68.6339 96.4974 68.6299ZM96.4974 77.7359C95.7434 77.7389 95.0054 77.5181 94.3769 77.1013C93.7485 76.6846 93.2579 76.0907 92.9672 75.3949C92.6766 74.6991 92.599 73.9327 92.7442 73.1928C92.8895 72.4528 93.2511 71.7726 93.7832 71.2384C94.3154 70.7041 94.9941 70.3398 95.7335 70.1916C96.4728 70.0433 97.2395 70.1179 97.9365 70.4058C98.6334 70.6936 99.2293 71.1819 99.6485 71.8086C100.068 72.4354 100.292 73.1725 100.292 73.9266C100.288 74.933 99.8871 75.8974 99.1768 76.6105C98.4666 77.3236 97.5039 77.728 96.4974 77.7359Z" fill="white"/>
<path d="M96.4668 40.3251C95.1478 40.3281 93.8576 39.9396 92.7596 39.2086C91.6616 38.4777 90.8053 37.4373 90.2991 36.2192C89.793 35.0012 89.6598 33.6603 89.9163 32.3665C90.1729 31.0727 90.8078 29.8841 91.7405 28.9514C92.6732 28.0187 93.8617 27.3839 95.1556 27.1273C96.4494 26.8707 97.7903 27.0039 99.0083 27.5101C100.226 28.0162 101.267 28.8725 101.998 29.9705C102.729 31.0685 103.117 32.3587 103.114 33.6777C103.11 35.4395 102.409 37.128 101.163 38.3737C99.917 39.6195 98.2286 40.3211 96.4668 40.3251ZM96.4668 29.7014C95.6797 29.6984 94.9095 29.9291 94.2536 30.3642C93.5977 30.7993 93.0857 31.4192 92.7824 32.1455C92.4791 32.8718 92.3982 33.6718 92.5499 34.4441C92.7016 35.2165 93.0791 35.9264 93.6346 36.484C94.1901 37.0416 94.8985 37.4218 95.6703 37.5765C96.442 37.7312 97.2423 37.6533 97.9698 37.3528C98.6972 37.0523 99.3191 36.5426 99.7567 35.8884C100.194 35.2342 100.428 34.4648 100.428 33.6777C100.424 32.627 100.006 31.6202 99.2643 30.8758C98.5227 30.1314 97.5175 29.7094 96.4668 29.7014Z" fill="white"/>
<path d="M96.4668 99.9999C95.1484 100.003 93.8588 99.6147 92.7612 98.8845C91.6635 98.1542 90.8072 97.1147 90.3006 95.8976C89.794 94.6804 89.6599 93.3403 89.9152 92.0469C90.1706 90.7535 90.8039 89.5649 91.7351 88.6316C92.6663 87.6983 93.8534 87.0623 95.1462 86.8039C96.4391 86.5456 97.7795 86.6767 98.9978 87.1805C100.216 87.6843 101.258 88.5383 101.99 89.6343C102.723 90.7302 103.114 92.019 103.114 93.3374C103.11 95.1005 102.409 96.7906 101.164 98.0388C99.9184 99.2869 98.23 99.9919 96.4668 99.9999ZM96.4668 89.3762C95.6791 89.3732 94.9082 89.6043 94.252 90.04C93.5958 90.4758 93.0838 91.0967 92.781 91.8239C92.4781 92.551 92.3981 93.3518 92.551 94.1245C92.704 94.8973 93.083 95.6072 93.64 96.1642C94.197 96.7212 94.9069 97.1002 95.6796 97.2531C96.4524 97.4061 97.2531 97.3261 97.9803 97.0232C98.7075 96.7204 99.3284 96.2084 99.7641 95.5522C100.2 94.896 100.431 94.1251 100.428 93.3374C100.424 92.288 100.005 91.2828 99.2633 90.5408C98.5213 89.7989 97.5161 89.3802 96.4668 89.3762Z" fill="white"/>
<path d="M96.4668 80.0878C95.1484 80.0908 93.8588 79.7026 92.7612 78.9724C91.6635 78.2421 90.8072 77.2026 90.3006 75.9855C89.794 74.7683 89.6599 73.4282 89.9152 72.1348C90.1706 70.8414 90.8039 69.6528 91.7351 68.7195C92.6663 67.7862 93.8534 67.1501 95.1462 66.8918C96.4391 66.6335 97.7795 66.7646 98.9978 67.2684C100.216 67.7722 101.258 68.6262 101.99 69.7222C102.723 70.8181 103.114 72.1069 103.114 73.4253C103.11 75.1884 102.409 76.8785 101.164 78.1267C99.9184 79.3748 98.23 80.0798 96.4668 80.0878ZM96.4668 69.4641C95.6791 69.4611 94.9082 69.6922 94.252 70.1279C93.5958 70.5637 93.0838 71.1846 92.781 71.9117C92.4781 72.6389 92.3981 73.4397 92.551 74.2124C92.704 74.9852 93.083 75.6951 93.64 76.2521C94.197 76.8091 94.9069 77.1881 95.6796 77.341C96.4524 77.494 97.2531 77.414 97.9803 77.1111C98.7075 76.8083 99.3284 76.2963 99.7641 75.6401C100.2 74.9838 100.431 74.213 100.428 73.4253C100.424 72.3759 100.005 71.3707 99.2633 70.6287C98.5213 69.8868 97.5161 69.4681 96.4668 69.4641Z" fill="white"/>
<path d="M96.4668 60.207C95.1478 60.21 93.8576 59.8214 92.7596 59.0905C91.6616 58.3595 90.8053 57.3191 90.2991 56.1011C89.793 54.883 89.6598 53.5422 89.9163 52.2483C90.1729 50.9545 90.8078 49.766 91.7405 48.8333C92.6732 47.9006 93.8617 47.2657 95.1556 47.0091C96.4494 46.7525 97.7903 46.8857 99.0083 47.3919C100.226 47.8981 101.267 48.7544 101.998 49.8523C102.729 50.9503 103.117 52.2406 103.114 53.5596C103.11 55.3213 102.409 57.0098 101.163 58.2556C99.917 59.5013 98.2286 60.203 96.4668 60.207ZM96.4668 49.5833C95.6797 49.5803 94.9095 49.8109 94.2536 50.246C93.5977 50.6811 93.0857 51.3011 92.7824 52.0274C92.4791 52.7537 92.3982 53.5536 92.5499 54.326C92.7016 55.0983 93.0791 55.8082 93.6346 56.3658C94.1901 56.9235 94.8985 57.3037 95.6703 57.4583C96.442 57.613 97.2423 57.5351 97.9698 57.2346C98.6972 56.9341 99.3191 56.4245 99.7567 55.7703C100.194 55.116 100.428 54.3467 100.428 53.5596C100.424 52.5088 100.006 51.502 99.2643 50.7576C98.5227 50.0132 97.5175 49.5913 96.4668 49.5833Z" fill="white"/>
<path d="M31.6626 70.1318C35.3422 70.1318 38.3252 67.1489 38.3252 63.4692C38.3252 59.7896 35.3422 56.8066 31.6626 56.8066C27.9829 56.8066 25 59.7896 25 63.4692C25 67.1489 27.9829 70.1318 31.6626 70.1318Z" fill="white"/>
<path d="M31.3892 62.9688C31.3892 62.9688 33.8933 65.1391 45.0482 61.0566C56.2031 56.974 62.2131 44.0738 71.5316 38.1549C77.6699 34.5404 84.7409 32.8242 91.8532 33.2225" stroke="white" stroke-width="2" stroke-miterlimit="10"/>
<path d="M31.3892 64.1076C31.3892 64.1076 33.8933 61.9373 45.0482 66.0198C56.2031 70.1024 62.2131 83.0178 71.5316 88.9215C77.6715 92.5307 84.7424 94.2416 91.8532 93.8388" stroke="white" stroke-width="2" stroke-miterlimit="10"/>
<path d="M33.3926 64.4715L49.3888 63.576C49.3888 63.576 64.3986 63.2118 73.368 69.6467C80.8653 74.9737 91.0337 73.3043 91.0337 73.3043" stroke="white" stroke-width="2" stroke-miterlimit="10"/>
</svg>
