<svg width="128" height="128" viewBox="0 0 128 128" fill="none" xmlns="http://www.w3.org/2000/svg">
<rect width="128" height="128" fill="#444A65"/>
<path d="M63.9922 41.0029C68.5405 41.0029 72.9868 42.3517 76.7686 44.8786C80.5504 47.4055 83.498 50.9972 85.2386 55.1993C86.9792 59.4015 87.4346 64.0254 86.5472 68.4864C85.6599 72.9473 83.4697 77.045 80.2535 80.2612C77.0373 83.4774 72.9396 85.6676 68.4787 86.555C64.0177 87.4423 59.3938 86.9869 55.1916 85.2463C50.9895 83.5057 47.3979 80.5581 44.8709 76.7763C42.344 72.9945 40.9952 68.5482 40.9952 63.9999C41.0034 57.9032 43.429 52.0586 47.7399 47.7476C52.0509 43.4367 57.8955 41.0111 63.9922 41.0029ZM63.9922 39.4512C59.1376 39.4542 54.3929 40.8966 50.3579 43.5959C46.3229 46.2952 43.1789 50.1303 41.3232 54.6162C39.4675 59.1022 38.9836 64.0376 39.9326 68.7986C40.8816 73.5596 43.2208 77.9323 46.6546 81.3639C50.0884 84.7956 54.4626 87.1321 59.2242 88.078C63.9857 89.024 68.9209 88.5369 73.4057 86.6784C77.8904 84.8199 81.7235 81.6735 84.4203 77.6368C87.117 73.6001 88.5564 68.8545 88.5564 63.9999C88.5564 60.7748 87.9209 57.5813 86.6863 54.6019C85.4516 51.6225 83.642 48.9156 81.3608 46.6358C79.0796 44.3561 76.3715 42.5482 73.3913 41.3154C70.4111 40.0826 67.2173 39.4491 63.9922 39.4512Z" fill="white"/>
<path d="M70.9749 67.3363L113.369 63.7517L70.9749 60.1517L79.8044 47.9394L67.5921 56.7688L63.9921 14.375L60.4075 56.7688L48.1952 47.9394L57.1954 60.3999L14.6309 64.0155L56.8385 67.5845L48.2108 79.533L60.361 70.7501L63.9921 113.625L67.6387 70.7501L79.8044 79.5485L70.9749 67.3363Z" fill="white"/>
</svg>
