<svg width="128" height="128" viewBox="0 0 128 128" fill="none" xmlns="http://www.w3.org/2000/svg">
<rect width="128" height="128" fill="#444C65"/>
<path d="M30.4286 31H17V46.1071H30.4286V31Z" fill="white"/>
<path d="M30.4286 51.5625H17V56.5982H30.4286V51.5625Z" fill="white"/>
<path d="M57.2855 31H35.7998V46.1071H57.2855V31Z" fill="white"/>
<path d="M84.1429 31H62.6572V46.1071H84.1429V31Z" fill="white"/>
<path d="M111 31H89.5146V46.1071H111V31Z" fill="white"/>
<path d="M57.2855 51.5625H35.7998V56.5982H57.2855V51.5625Z" fill="white"/>
<path d="M84.1429 51.5625H62.6572V56.5982H84.1429V51.5625Z" fill="white"/>
<path d="M111 51.5625H89.5146V56.5982H111V51.5625Z" fill="white"/>
<path d="M30.4286 61.6338H17V66.6695H30.4286V61.6338Z" fill="white"/>
<path d="M57.2855 61.6338H35.7998V66.6695H57.2855V61.6338Z" fill="white"/>
<path d="M84.1429 61.6338H62.6572V66.6695H84.1429V61.6338Z" fill="white"/>
<path d="M111 61.6338H89.5146V66.6695H111V61.6338Z" fill="white"/>
<path d="M30.4286 71.7051H17V76.7408H30.4286V71.7051Z" fill="white"/>
<path d="M57.2855 71.7051H35.7998V76.7408H57.2855V71.7051Z" fill="white"/>
<path d="M84.1429 71.7051H62.6572V76.7408H84.1429V71.7051Z" fill="white"/>
<path d="M111 71.7051H89.5146V76.7408H111V71.7051Z" fill="white"/>
<path d="M30.4286 81.7764H17V86.8121H30.4286V81.7764Z" fill="white"/>
<path d="M57.2855 81.7764H35.7998V86.8121H57.2855V81.7764Z" fill="white"/>
<path d="M84.1429 81.7764H62.6572V86.8121H84.1429V81.7764Z" fill="white"/>
<path d="M111 81.7764H89.5146V86.8121H111V81.7764Z" fill="white"/>
<path d="M30.4286 91.8486H17V96.8843H30.4286V91.8486Z" fill="white"/>
<path d="M57.2855 91.8486H35.7998V96.8843H57.2855V91.8486Z" fill="white"/>
<path d="M84.1429 91.8486H62.6572V96.8843H84.1429V91.8486Z" fill="white"/>
<path d="M111 91.8486H89.5146V96.8843H111V91.8486Z" fill="white"/>
</svg>
