<svg width="120" height="144" viewBox="0 0 120 144" fill="none" xmlns="http://www.w3.org/2000/svg">
<rect width="120" height="144" rx="4" fill="#FAFAFA"/>
<g clip-path="url(#clip0_532_9055)">
<path d="M62.7733 34.4027C46.1759 31.2667 32.2666 39.3947 32.2666 50.6587C32.2666 60.984 37.5359 63.4587 42.9333 63.4587C42.9333 56.5253 54.8586 55.544 60.4053 57.6347C55.2426 56.9733 44.9173 57.1653 44.9173 64.6107C44.9173 65.08 44.9173 69.88 51.5519 70.584C54.2463 70.902 56.9737 70.8013 59.6373 70.2853C59.5649 70.9994 59.7363 71.717 60.1237 72.3213C60.511 72.9256 61.0915 73.381 61.7706 73.6133C62.3272 73.8009 62.8979 73.9435 63.4773 74.04C65.2727 76.7425 67.4256 79.1895 69.8773 81.3147C70.453 81.2798 71.0007 81.0547 71.4346 80.6747C71.793 80.3822 72.0227 79.961 72.0746 79.5013C70.7674 78.1176 69.9118 76.3692 69.6213 74.488C70.6239 74.488 71.2853 74.488 71.2853 74.488C71.2853 74.488 80.5439 73.9333 79.8186 69.176C79.8186 69.048 79.8186 68.92 79.7119 68.792C80.9577 69.0466 82.2421 69.0466 83.4879 68.792C86.3466 67.9387 87.5413 64.7813 87.7546 60.6427C88.0746 53.496 79.3493 37.5387 62.7733 34.4027Z" fill="#212121"/>
</g>
<path d="M44.6146 113V102.818H48.05C48.7129 102.818 49.2647 102.934 49.7055 103.166C50.1497 103.398 50.4828 103.715 50.7048 104.116C50.9269 104.517 51.0379 104.973 51.0379 105.483C51.0379 105.907 50.9667 106.27 50.8241 106.572C50.6816 106.873 50.4877 107.117 50.2425 107.303C49.9972 107.488 49.7238 107.622 49.4221 107.705V107.785C49.7503 107.808 50.0685 107.924 50.3767 108.133C50.6849 108.338 50.9385 108.627 51.1373 108.998C51.3362 109.369 51.4356 109.813 51.4356 110.33C51.4356 110.844 51.3213 111.303 51.0926 111.707C50.8639 112.108 50.5126 112.425 50.0386 112.657C49.568 112.886 48.9681 113 48.2389 113H44.6146ZM45.5443 112.165H48.2389C49.0244 112.165 49.6044 111.991 49.979 111.643C50.3568 111.295 50.5457 110.857 50.5457 110.33C50.5457 109.942 50.4513 109.591 50.2623 109.276C50.0767 108.958 49.8132 108.706 49.4719 108.521C49.1338 108.335 48.7361 108.242 48.2787 108.242H45.5443V112.165ZM45.5443 107.417H48.1345C48.5355 107.417 48.8869 107.334 49.1885 107.168C49.4901 107.003 49.7254 106.774 49.8944 106.482C50.0635 106.191 50.148 105.857 50.148 105.483C50.148 104.943 49.9723 104.504 49.621 104.165C49.2697 103.824 48.746 103.653 48.05 103.653H45.5443V107.417ZM53.5651 113V105.364H54.4252V106.537H54.4898C54.6423 106.152 54.9075 105.843 55.2853 105.607C55.6664 105.369 56.0973 105.249 56.5779 105.249C56.6508 105.249 56.732 105.251 56.8215 105.254C56.911 105.258 56.9856 105.261 57.0452 105.264V106.164C57.0055 106.157 56.9359 106.147 56.8364 106.134C56.737 106.121 56.6293 106.114 56.5133 106.114C56.1155 106.114 55.7609 106.199 55.4494 106.368C55.1411 106.534 54.8975 106.764 54.7185 107.059C54.5396 107.354 54.4501 107.69 54.4501 108.068V113H53.5651ZM60.7582 113.174C60.2975 113.174 59.8765 113.085 59.4954 112.906C59.1142 112.723 58.811 112.461 58.5856 112.12C58.3602 111.775 58.2475 111.358 58.2475 110.867C58.2475 110.489 58.3188 110.171 58.4613 109.913C58.6038 109.654 58.806 109.442 59.0678 109.276C59.3297 109.111 59.6396 108.98 59.9975 108.884C60.3555 108.787 60.7499 108.713 61.1808 108.66C61.6083 108.607 61.9696 108.56 62.2646 108.521C62.5629 108.481 62.7899 108.418 62.9457 108.332C63.1014 108.246 63.1793 108.106 63.1793 107.914V107.735C63.1793 107.215 63.0236 106.805 62.712 106.507C62.4038 106.205 61.9596 106.055 61.3796 106.055C60.8294 106.055 60.3803 106.176 60.0323 106.418C59.6876 106.66 59.4457 106.945 59.3065 107.273L58.4663 106.969C58.6386 106.552 58.8772 106.219 59.1822 105.97C59.4871 105.718 59.8285 105.538 60.2063 105.428C60.5842 105.316 60.967 105.259 61.3548 105.259C61.6464 105.259 61.9497 105.297 62.2646 105.374C62.5827 105.45 62.8777 105.582 63.1495 105.771C63.4213 105.957 63.6417 106.217 63.8107 106.552C63.9798 106.883 64.0643 107.304 64.0643 107.815V113H63.1793V111.792H63.1246C63.0186 112.017 62.8612 112.236 62.6523 112.448C62.4435 112.66 62.1817 112.834 61.8668 112.97C61.552 113.106 61.1824 113.174 60.7582 113.174ZM60.8775 112.364C61.3481 112.364 61.7558 112.259 62.1005 112.05C62.4452 111.842 62.7103 111.565 62.896 111.22C63.0849 110.872 63.1793 110.489 63.1793 110.072V108.968C63.113 109.031 63.002 109.087 62.8462 109.137C62.6938 109.187 62.5165 109.232 62.3143 109.271C62.1154 109.308 61.9165 109.339 61.7177 109.366C61.5188 109.392 61.3398 109.415 61.1808 109.435C60.7499 109.488 60.382 109.571 60.0771 109.684C59.7721 109.797 59.5385 109.952 59.3761 110.151C59.2137 110.347 59.1325 110.599 59.1325 110.907C59.1325 111.371 59.2982 111.731 59.6296 111.986C59.9611 112.238 60.377 112.364 60.8775 112.364ZM66.4983 113V105.364H67.3882V113H66.4983ZM66.9507 104.051C66.7684 104.051 66.6126 103.99 66.4834 103.867C66.3541 103.741 66.2895 103.59 66.2895 103.415C66.2895 103.239 66.3541 103.09 66.4834 102.967C66.6126 102.841 66.7684 102.778 66.9507 102.778C67.133 102.778 67.2887 102.841 67.418 102.967C67.5473 103.09 67.6119 103.239 67.6119 103.415C67.6119 103.59 67.5473 103.741 67.418 103.867C67.2887 103.99 67.133 104.051 66.9507 104.051ZM70.6835 108.227V113H69.7986V105.364H70.6586V106.562H70.7382C70.9172 106.171 71.1956 105.857 71.5734 105.622C71.9546 105.384 72.4252 105.264 72.9853 105.264C73.4991 105.264 73.9498 105.372 74.3376 105.587C74.7287 105.799 75.032 106.113 75.2474 106.527C75.4662 106.941 75.5755 107.45 75.5755 108.053V113H74.6906V108.108C74.6906 107.482 74.5149 106.986 74.1636 106.621C73.8156 106.257 73.3483 106.075 72.7616 106.075C72.3606 106.075 72.0043 106.161 71.6927 106.333C71.3812 106.505 71.1343 106.754 70.952 107.079C70.773 107.4 70.6835 107.783 70.6835 108.227Z" fill="#212121"/>
<defs>
<clipPath id="clip0_532_9055">
<rect width="64" height="64" fill="white" transform="translate(28 27)"/>
</clipPath>
</defs>
</svg>
