<svg width="128" height="128" viewBox="0 0 128 128" fill="none" xmlns="http://www.w3.org/2000/svg">
<rect width="128" height="128" fill="#444A65"/>
<path d="M109 33H92.9287V47.4643H109V33Z" fill="white"/>
<path d="M109 61.9287H92.9287V66.7501H109V61.9287Z" fill="white"/>
<path d="M109 52.2861H92.9287V57.1076H109V52.2861Z" fill="white"/>
<path d="M109 71.5713H92.9287V76.3927H109V71.5713Z" fill="white"/>
<path d="M109 81.2139H92.9287V86.0353H109V81.2139Z" fill="white"/>
<path d="M109 90.8574H92.9287V95.6789H109V90.8574Z" fill="white"/>
<path d="M54.0358 46.3555C41.3233 46.3555 28.8358 54.6965 31.0215 64.3394C34.0912 77.9358 41.3233 82.243 54.0358 82.243C66.7483 82.243 76.6965 74.143 77.0662 64.3394C77.5644 50.9037 66.7644 46.3555 54.0358 46.3555ZM54.0358 79.6073C43.1072 79.6073 37.2412 77.1965 34.3162 64.3394C32.4358 55.9983 43.1072 48.9108 54.0358 48.9108C64.9644 48.9108 75.3947 53.0894 73.7715 64.3394C72.5662 72.6483 64.9483 79.6073 54.0358 79.6073Z" fill="white"/>
<path d="M53.2966 75.2359C57.2908 75.2359 60.5287 73.4371 60.5287 71.2181C60.5287 68.9991 57.2908 67.2002 53.2966 67.2002C49.3024 67.2002 46.0645 68.9991 46.0645 71.2181C46.0645 73.4371 49.3024 75.2359 53.2966 75.2359Z" stroke="white" stroke-miterlimit="10"/>
<path d="M49.9376 64.6769C50.6476 64.6769 51.2233 64.1013 51.2233 63.3912C51.2233 62.6811 50.6476 62.1055 49.9376 62.1055C49.2275 62.1055 48.6519 62.6811 48.6519 63.3912C48.6519 64.1013 49.2275 64.6769 49.9376 64.6769Z" fill="white"/>
<path d="M65.3502 67.0871C66.0602 67.0871 66.6359 66.5114 66.6359 65.8013C66.6359 65.0913 66.0602 64.5156 65.3502 64.5156C64.6401 64.5156 64.0645 65.0913 64.0645 65.8013C64.0645 66.5114 64.6401 67.0871 65.3502 67.0871Z" fill="white"/>
<path d="M66.1859 62.7478C67.2422 62.7478 68.0984 61.8916 68.0984 60.8353C68.0984 59.7791 67.2422 58.9229 66.1859 58.9229C65.1297 58.9229 64.2734 59.7791 64.2734 60.8353C64.2734 61.8916 65.1297 62.7478 66.1859 62.7478Z" fill="white"/>
<path d="M61.0108 63.841C61.7209 63.841 62.2965 63.2653 62.2965 62.5552C62.2965 61.8452 61.7209 61.2695 61.0108 61.2695C60.3007 61.2695 59.7251 61.8452 59.7251 62.5552C59.7251 63.2653 60.3007 63.841 61.0108 63.841Z" fill="white"/>
<path d="M52.0108 59.6788C52.7209 59.6788 53.2965 59.1032 53.2965 58.3931C53.2965 57.6831 52.7209 57.1074 52.0108 57.1074C51.3007 57.1074 50.7251 57.6831 50.7251 58.3931C50.7251 59.1032 51.3007 59.6788 52.0108 59.6788Z" fill="white"/>
<path d="M40.7768 71.8445C41.833 71.8445 42.6893 70.9883 42.6893 69.932C42.6893 68.8758 41.833 68.0195 40.7768 68.0195C39.7205 68.0195 38.8643 68.8758 38.8643 69.932C38.8643 70.9883 39.7205 71.8445 40.7768 71.8445Z" fill="white"/>
<path d="M38.8643 63.841C39.5744 63.841 40.15 63.2653 40.15 62.5552C40.15 61.8452 39.5744 61.2695 38.8643 61.2695C38.1542 61.2695 37.5786 61.8452 37.5786 62.5552C37.5786 63.2653 38.1542 63.841 38.8643 63.841Z" fill="white"/>
<path d="M56.7196 53.0893C56.4253 52.9588 56.0913 52.9497 55.7904 53.064C55.4894 53.1784 55.2457 53.407 55.1124 53.7V53.8125C55.0451 53.957 55.007 54.1133 55.0005 54.2726C54.994 54.4318 55.0191 54.5907 55.0744 54.7402C55.1297 54.8896 55.2141 55.0267 55.3227 55.1433C55.4313 55.2599 55.5619 55.3539 55.7071 55.4197C56.266 55.6318 56.8041 55.8954 57.3142 56.2072C58.0882 56.7904 58.804 57.447 59.4517 58.1679C59.6805 58.3946 59.9895 58.5218 60.3115 58.5218C60.6336 58.5218 60.9426 58.3946 61.1714 58.1679L61.2678 58.0715C61.4841 57.8323 61.5971 57.5172 61.5821 57.1951C61.567 56.8729 61.4251 56.5698 61.1874 56.3518C60.5068 55.5976 59.7471 54.9187 58.9214 54.3268C58.2541 53.8056 57.5117 53.3884 56.7196 53.0893Z" fill="white"/>
<path d="M70.9752 65.9469C71.0591 65.6358 71.0166 65.3041 70.8571 65.0242C70.6975 64.7442 70.4338 64.5387 70.1234 64.4523H70.0109C69.8579 64.4082 69.6977 64.395 69.5395 64.4132C69.3813 64.4315 69.2284 64.4809 69.0894 64.5586C68.9504 64.6363 68.8282 64.7407 68.7298 64.8659C68.6315 64.9911 68.5589 65.1346 68.5163 65.288C68.3812 65.8366 68.2039 66.3739 67.9859 66.8951C67.527 67.7524 66.9889 68.5648 66.3788 69.3219C66.2067 69.5939 66.1473 69.9223 66.2133 70.2374C66.2793 70.5524 66.4655 70.8294 66.7323 71.0094H66.8448C67.1077 71.1651 67.4198 71.2152 67.7181 71.1495C68.0165 71.0839 68.2788 70.9074 68.452 70.6558C69.0761 69.8687 69.6148 69.0175 70.0591 68.1165C70.4577 67.4363 70.7657 66.7069 70.9752 65.9469Z" fill="white"/>
<path d="M43.6694 54.6967C43.461 54.9417 43.3562 55.2583 43.3772 55.5793C43.3982 55.9003 43.5433 56.2005 43.7819 56.4163L43.8784 56.4967C43.9979 56.6039 44.1376 56.6861 44.2893 56.7386C44.441 56.791 44.6017 56.8126 44.7618 56.8022C44.922 56.7917 45.0785 56.7493 45.2221 56.6775C45.3657 56.6058 45.4935 56.506 45.598 56.3842C45.9591 55.9242 46.3627 55.4991 46.8034 55.1145C47.5773 54.5362 48.4063 54.0356 49.2784 53.6199C49.5408 53.4567 49.7304 53.1989 49.8082 52.8998C49.8859 52.6007 49.8459 52.2831 49.6962 52.0128V51.9003C49.6141 51.7499 49.5012 51.6186 49.3649 51.5147C49.2287 51.4108 49.0721 51.3368 48.9054 51.2974C48.7387 51.258 48.5655 51.2541 48.3972 51.286C48.2289 51.3178 48.0691 51.3848 47.9284 51.4824C47.0117 51.9256 46.1444 52.4643 45.3409 53.0895C44.7169 53.5511 44.1551 54.0913 43.6694 54.6967Z" fill="white"/>
<path d="M19 33V95.6786H88.1071V33H19ZM85.15 93.075H21.9571V35.6196H85.15V93.075Z" fill="white"/>
</svg>
