<svg width="120" height="144" viewBox="0 0 120 144" fill="none" xmlns="http://www.w3.org/2000/svg">
<rect width="120" height="144" rx="4" fill="#FAFAFA"/>
<path d="M48.3306 65.4C49.5088 65.4 50.4639 62.5346 50.4639 59C50.4639 55.4654 49.5088 52.6 48.3306 52.6C47.1524 52.6 46.1973 55.4654 46.1973 59C46.1973 62.5346 47.1524 65.4 48.3306 65.4Z" fill="#212121" stroke="#212121" stroke-width="0.71" stroke-miterlimit="10"/>
<path d="M77.7494 57.848C76.8926 57.7804 76.0583 57.541 75.296 57.144C74.9109 53.4048 73.3693 49.8788 70.8859 47.0571C68.4024 44.2354 65.1008 42.2584 61.4409 41.4015C57.7809 40.5447 53.9448 40.8505 50.4669 42.2765C46.9889 43.7025 44.0423 46.1777 42.0374 49.3573C41.572 50.04 41.0587 50.6887 40.5014 51.2986C39.4548 52.2943 38.6162 53.4876 38.0339 54.8095C37.4517 56.1315 37.1374 57.5558 37.1094 59C37.131 60.4535 37.4442 61.8879 38.0306 63.2182C38.6169 64.5484 39.4644 65.7474 40.5227 66.744C41.0857 67.3621 41.606 68.0179 42.08 68.7066C43.9353 71.6168 46.5852 73.9348 49.7163 75.3865C52.8474 76.8382 56.3287 77.3628 59.7486 76.8983C63.1685 76.4338 66.3838 74.9996 69.0142 72.7654C71.6447 70.5311 73.5803 67.5903 74.592 64.2906C75.6911 64.6843 76.8402 64.9213 78.0054 64.9946C79.6953 64.9301 81.3558 64.5313 82.8907 63.8213V56.0986C82.2048 56.7352 81.3925 57.2201 80.5066 57.5215C79.6207 57.8229 78.6812 57.9342 77.7494 57.848ZM57.312 75.064H56.7574C55.4543 74.8064 54.2538 74.1765 53.3014 73.2506C52.1494 71.672 51.8294 67.1706 49.8454 67.2773C48.3947 67.2773 49.376 68.4293 48.0747 68.4933C45.024 68.6213 45.152 62.0933 43.232 62.0933C42.0587 62.0933 42.272 64.2266 42.72 66.2106L42.0374 65.4C41.1407 64.588 40.419 63.6016 39.9164 62.5012C39.4139 61.4008 39.1411 60.2094 39.1147 59C39.1396 57.7923 39.4097 56.6023 39.9084 55.5021C40.4071 54.402 41.1242 53.4146 42.016 52.6L42.8054 51.6613C42.3574 53.624 42.144 55.736 43.3174 55.7786C45.2374 55.7786 45.088 49.3786 48.16 49.3786C49.44 49.3786 48.48 50.5093 49.9094 50.5733C51.8934 50.68 52.2134 46.3066 53.3654 44.6C54.2292 43.7429 55.3154 43.1444 56.5014 42.872H57.312C61.5725 42.872 65.6584 44.5644 68.671 47.577C71.6836 50.5896 73.376 54.6755 73.376 58.936C73.376 63.1964 71.6836 67.2823 68.671 70.2949C65.6584 73.3075 61.5725 75 57.312 75V75.064Z" fill="#212121"/>
<path d="M41.4556 113V102.818H47.3618V103.653H42.3853V107.487H47.0486V108.322H42.3853V112.165H47.4613V113H41.4556ZM50.2706 115.864C50.095 115.864 49.9309 115.847 49.7784 115.814C49.626 115.781 49.505 115.744 49.4155 115.705L49.6541 114.924C49.9558 115.017 50.2242 115.05 50.4595 115.023C50.6949 115 50.9037 114.894 51.086 114.705C51.2683 114.52 51.4307 114.235 51.5732 113.85L51.8516 113.075L49.0426 105.364H50.0022L52.2692 111.832H52.3388L54.6058 105.364H55.5654L52.3338 114.208C52.1979 114.576 52.0306 114.883 51.8317 115.128C51.6328 115.376 51.4025 115.56 51.1407 115.68C50.8821 115.802 50.5921 115.864 50.2706 115.864ZM60.1806 113.159C59.468 113.159 58.8516 112.993 58.3312 112.662C57.8109 112.327 57.4082 111.865 57.1231 111.275C56.8414 110.682 56.7005 109.999 56.7005 109.227C56.7005 108.458 56.8414 107.775 57.1231 107.178C57.4082 106.578 57.8009 106.109 58.3014 105.771C58.8052 105.43 59.3868 105.259 60.0464 105.259C60.4607 105.259 60.8601 105.335 61.2446 105.488C61.629 105.637 61.9737 105.867 62.2787 106.179C62.5869 106.487 62.8305 106.877 63.0095 107.347C63.1885 107.815 63.2779 108.368 63.2779 109.008V109.445H57.312V108.665H62.3731C62.3731 108.174 62.2737 107.733 62.0748 107.342C61.8793 106.948 61.6058 106.636 61.2545 106.408C60.9065 106.179 60.5038 106.065 60.0464 106.065C59.5625 106.065 59.1366 106.194 58.7687 106.452C58.4008 106.711 58.1125 107.052 57.9037 107.477C57.6982 107.901 57.5938 108.365 57.5904 108.869V109.336C57.5904 109.942 57.6948 110.473 57.9037 110.927C58.1158 111.378 58.4157 111.727 58.8035 111.976C59.1913 112.224 59.6503 112.349 60.1806 112.349C60.5419 112.349 60.8584 112.292 61.1302 112.18C61.4053 112.067 61.6357 111.916 61.8213 111.727C62.0102 111.535 62.1527 111.325 62.2488 111.096L63.089 111.369C62.973 111.691 62.7824 111.987 62.5173 112.259C62.2555 112.531 61.9273 112.75 61.5329 112.915C61.1418 113.078 60.6911 113.159 60.1806 113.159ZM66.7696 111.608L66.6802 112.14C66.6238 112.498 66.5443 112.892 66.4415 113.323C66.3388 113.754 66.2327 114.163 66.1233 114.551C66.014 114.939 65.9195 115.25 65.84 115.486H65.1588C65.2019 115.26 65.2566 114.974 65.3229 114.626C65.3925 114.278 65.4638 113.892 65.5367 113.467C65.6096 113.046 65.6759 112.612 65.7356 112.165L65.8052 111.608H66.7696ZM73.374 113V102.818H74.3036V112.165H79.1559V113H73.374Z" fill="#212121"/>
</svg>
