<svg width="120" height="144" viewBox="0 0 120 144" fill="none" xmlns="http://www.w3.org/2000/svg">
<rect width="120" height="144" rx="4" fill="#FAFAFA"/>
<g clip-path="url(#clip0_2079_9412)">
<path d="M44.3285 52.0303C44.6049 53.8512 45.2154 55.6098 46.1332 57.2158C47.2819 59.2261 48.8809 60.9429 50.8046 62.2314L51.4743 61.505C45.0922 53.4698 45.0959 43.0104 52.9456 36.9532L52.9462 36.9528C55.8464 34.7084 59.5899 33.9789 62.6195 34.1525C64.1338 34.2393 65.4358 34.5502 66.3414 34.9834C66.9265 35.2633 67.28 35.5584 67.4645 35.831C67.1603 35.852 66.7635 35.8882 66.3017 35.9501C65.2204 36.0952 63.77 36.3834 62.3125 36.959C60.8564 37.5339 59.369 38.4053 58.2431 39.7306C57.1092 41.0653 56.3642 42.8351 56.3642 45.1547L57.3343 45.3248C58.563 41.9285 61.766 40.235 64.7872 39.3965C66.2868 38.9803 67.7103 38.7843 68.7606 38.6928C69.2849 38.6471 69.7143 38.6276 70.0112 38.6195C70.1597 38.6155 70.2748 38.6143 70.3521 38.6141C70.3907 38.614 70.4198 38.6141 70.4389 38.6143L70.4598 38.6145L70.4644 38.6146L70.4651 38.6146L70.4653 38.6146L70.4653 38.6146L70.4963 38.6152L70.5266 38.612L70.5267 38.612L70.527 38.612L70.5273 38.6119L70.5273 38.6119L70.5333 38.6114L70.5624 38.6089C70.5891 38.6067 70.6301 38.6038 70.6834 38.6011C70.7902 38.5957 70.9458 38.5912 71.1348 38.5952C71.5153 38.6034 72.0191 38.646 72.5295 38.7797C73.5499 39.047 74.5006 39.6402 74.6946 40.981L74.6994 41.0135L74.7083 41.0451C74.8131 41.4167 74.8299 41.8075 74.7575 42.1867C74.685 42.5659 74.5253 42.9231 74.2909 43.2298C74.0565 43.5366 73.7539 43.7846 73.4071 43.9542C73.0602 44.1237 72.6787 44.2102 72.2926 44.2067L72.2848 44.2066L72.2769 44.2068C70.928 44.2373 69.603 44.5696 68.3994 45.1792C67.1957 45.7889 66.1439 46.6604 65.3212 47.7298L65.3109 47.7432L65.3015 47.7573C64.0735 49.5993 64.2181 51.898 64.703 53.7581C64.9483 54.6991 65.2876 55.5565 65.6114 56.2334C65.9299 56.8993 66.2491 57.4234 66.4665 57.6803L67.3107 57.1675C65.9078 53.7485 66.4304 51.8785 67.2849 50.9226C67.7263 50.4289 68.2933 50.1313 68.8462 49.9872C69.3953 49.8441 69.8904 49.8625 70.1927 49.9543C72.8167 51.1028 74.6779 53.7782 75.8952 56.2602C76.5001 57.4935 76.934 58.6541 77.2165 59.5067C77.3577 59.9325 77.4607 60.2804 77.5281 60.5207C77.5619 60.6408 77.5867 60.7339 77.6029 60.7964C77.611 60.8276 77.617 60.8511 77.6208 60.8665L77.6247 60.8821L77.6248 60.8824L77.625 60.8835L77.6252 60.8843L77.6259 60.8872L77.6261 60.8879L77.6261 60.888L77.6271 60.8925L77.6346 60.9262C77.6413 60.9563 77.6513 61.0016 77.6641 61.0613C77.6898 61.1805 77.7271 61.3573 77.7729 61.5852C77.8646 62.041 77.9905 62.7013 78.1267 63.5161C78.3991 65.1465 78.712 67.3914 78.8746 69.8517C79.0373 72.314 79.0487 74.9793 78.7234 77.4546C78.3973 79.9365 77.738 82.1847 76.5913 83.8467C76.0744 84.5959 75.205 85.139 74.0062 85.4607C72.8071 85.7826 71.3147 85.872 69.6176 85.7399C66.2245 85.4757 62.1021 84.3332 58.0705 82.5354C54.0402 80.7381 50.1317 78.2998 47.1555 75.4675C44.1734 72.6296 42.1723 69.4405 41.8525 66.1411L41.8522 66.1385C41.1019 58.8053 43.0394 54.1897 44.3285 52.0303Z" fill="#212121" stroke="#212121"/>
<path d="M46.5602 39.2454C45.8348 37.816 40.1602 37.9227 40.1602 39.5654V51.5974C41.163 49.7085 42.5598 48.057 44.2562 46.7547C44.3403 44.0908 45.1358 41.498 46.5602 39.2454V39.2454Z" fill="#212121"/>
</g>
<path d="M42.8373 113V102.818H43.767V107.487H49.544V102.818H50.4736V113H49.544V108.322H43.767V113H42.8373ZM56.1466 113.159C55.434 113.159 54.8175 112.993 54.2972 112.662C53.7768 112.327 53.3741 111.865 53.0891 111.275C52.8074 110.682 52.6665 109.999 52.6665 109.227C52.6665 108.458 52.8074 107.775 53.0891 107.178C53.3741 106.578 53.7669 106.109 54.2674 105.771C54.7711 105.43 55.3528 105.259 56.0124 105.259C56.4267 105.259 56.8261 105.335 57.2105 105.488C57.595 105.637 57.9397 105.867 58.2446 106.179C58.5529 106.487 58.7965 106.877 58.9755 107.347C59.1544 107.815 59.2439 108.368 59.2439 109.008V109.445H53.278V108.665H58.3391C58.3391 108.174 58.2397 107.733 58.0408 107.342C57.8452 106.948 57.5718 106.636 57.2205 106.408C56.8725 106.179 56.4698 106.065 56.0124 106.065C55.5285 106.065 55.1026 106.194 54.7347 106.452C54.3668 106.711 54.0784 107.052 53.8696 107.477C53.6641 107.901 53.5597 108.365 53.5564 108.869V109.336C53.5564 109.942 53.6608 110.473 53.8696 110.927C54.0818 111.378 54.3817 111.727 54.7695 111.976C55.1573 112.224 55.6163 112.349 56.1466 112.349C56.5079 112.349 56.8244 112.292 57.0962 112.18C57.3713 112.067 57.6016 111.916 57.7872 111.727C57.9762 111.535 58.1187 111.325 58.2148 111.096L59.055 111.369C58.939 111.691 58.7484 111.987 58.4833 112.259C58.2214 112.531 57.8933 112.75 57.4989 112.915C57.1078 113.078 56.657 113.159 56.1466 113.159ZM63.3968 113.174C62.9361 113.174 62.5152 113.085 62.1341 112.906C61.7529 112.723 61.4496 112.461 61.2243 112.12C60.9989 111.775 60.8862 111.358 60.8862 110.867C60.8862 110.489 60.9574 110.171 61.1 109.913C61.2425 109.654 61.4447 109.442 61.7065 109.276C61.9683 109.111 62.2782 108.98 62.6362 108.884C62.9941 108.787 63.3886 108.713 63.8194 108.66C64.247 108.607 64.6083 108.56 64.9032 108.521C65.2015 108.481 65.4286 108.418 65.5843 108.332C65.7401 108.246 65.818 108.106 65.818 107.914V107.735C65.818 107.215 65.6622 106.805 65.3507 106.507C65.0424 106.205 64.5983 106.055 64.0183 106.055C63.4681 106.055 63.019 106.176 62.671 106.418C62.3263 106.66 62.0843 106.945 61.9451 107.273L61.1049 106.969C61.2773 106.552 61.5159 106.219 61.8208 105.97C62.1258 105.718 62.4672 105.538 62.845 105.428C63.2228 105.316 63.6056 105.259 63.9934 105.259C64.2851 105.259 64.5884 105.297 64.9032 105.374C65.2214 105.45 65.5164 105.582 65.7882 105.771C66.06 105.957 66.2804 106.217 66.4494 106.552C66.6184 106.883 66.7029 107.304 66.7029 107.815V113H65.818V111.792H65.7633C65.6573 112.017 65.4998 112.236 65.291 112.448C65.0822 112.66 64.8204 112.834 64.5055 112.97C64.1906 113.106 63.8211 113.174 63.3968 113.174ZM63.5162 112.364C63.9868 112.364 64.3945 112.259 64.7392 112.05C65.0839 111.842 65.349 111.565 65.5346 111.22C65.7235 110.872 65.818 110.489 65.818 110.072V108.968C65.7517 109.031 65.6407 109.087 65.4849 109.137C65.3324 109.187 65.1551 109.232 64.9529 109.271C64.7541 109.308 64.5552 109.339 64.3564 109.366C64.1575 109.392 63.9785 109.415 63.8194 109.435C63.3886 109.488 63.0207 109.571 62.7157 109.684C62.4108 109.797 62.1771 109.952 62.0147 110.151C61.8523 110.347 61.7711 110.599 61.7711 110.907C61.7711 111.371 61.9368 111.731 62.2683 111.986C62.5997 112.238 63.0157 112.364 63.5162 112.364ZM69.127 113V105.364H69.9871V106.537H70.0517C70.2042 106.152 70.4693 105.843 70.8472 105.607C71.2283 105.369 71.6592 105.249 72.1398 105.249C72.2127 105.249 72.2939 105.251 72.3834 105.254C72.4729 105.258 72.5475 105.261 72.6071 105.264V106.164C72.5673 106.157 72.4977 106.147 72.3983 106.134C72.2989 106.121 72.1912 106.114 72.0751 106.114C71.6774 106.114 71.3228 106.199 71.0112 106.368C70.703 106.534 70.4594 106.764 70.2804 107.059C70.1014 107.354 70.0119 107.69 70.0119 108.068V113H69.127ZM77.6736 105.364V106.134H74.0294V105.364H77.6736ZM75.1679 103.534H76.0578V111.006C76.0578 111.325 76.1125 111.575 76.2219 111.757C76.3312 111.936 76.4737 112.064 76.6494 112.14C76.8251 112.213 77.0123 112.249 77.2112 112.249C77.3272 112.249 77.4266 112.243 77.5095 112.229C77.5924 112.213 77.6653 112.196 77.7282 112.18L77.9172 112.98C77.831 113.013 77.7249 113.043 77.599 113.07C77.473 113.099 77.3173 113.114 77.1317 113.114C76.8068 113.114 76.4936 113.043 76.192 112.901C75.8937 112.758 75.6485 112.546 75.4562 112.264C75.264 111.982 75.1679 111.633 75.1679 111.215V103.534Z" fill="#212121"/>
<defs>
<clipPath id="clip0_2079_9412">
<rect width="64" height="64" fill="white" transform="translate(28 27)"/>
</clipPath>
</defs>
</svg>
