<svg width="128" height="128" viewBox="0 0 128 128" fill="none" xmlns="http://www.w3.org/2000/svg">
<rect width="128" height="128" fill="#444A65"/>
<path d="M73.5 37.5H43.5C40.2 37.5 37.53 40.2 37.53 43.5L37.5 85.5C37.5 88.8 40.17 91.5 43.47 91.5H85.5C88.8 91.5 91.5 88.8 91.5 85.5V55.5L73.5 37.5ZM43.5 85.5V43.5H70.5V58.5H85.5V85.5H43.5ZM55.5 52.5C55.5 54.15 54.15 55.5 52.5 55.5C50.85 55.5 49.5 54.15 49.5 52.5C49.5 50.85 50.85 49.5 52.5 49.5C54.15 49.5 55.5 50.85 55.5 52.5ZM55.5 64.5C55.5 66.15 54.15 67.5 52.5 67.5C50.85 67.5 49.5 66.15 49.5 64.5C49.5 62.85 50.85 61.5 52.5 61.5C54.15 61.5 55.5 62.85 55.5 64.5ZM55.5 76.5C55.5 78.15 54.15 79.5 52.5 79.5C50.85 79.5 49.5 78.15 49.5 76.5C49.5 74.85 50.85 73.5 52.5 73.5C54.15 73.5 55.5 74.85 55.5 76.5Z" fill="white"/>
</svg>
