<svg width="128" height="128" viewBox="0 0 128 128" fill="none" xmlns="http://www.w3.org/2000/svg">
<rect width="128" height="128" fill="#444A65"/>
<mask id="mask0_2805_4804" style="mask-type:alpha" maskUnits="userSpaceOnUse" x="40" y="40" width="48" height="48">
<rect x="40" y="40" width="48" height="48" fill="#D9D9D9"/>
</mask>
<g mask="url(#mask0_2805_4804)">
<path d="M72.9 55.6V49H55.1V55.6H52.1V46H75.9V55.6H72.9ZM76.95 63.35C77.35 63.35 77.7 63.2 78 62.9C78.3 62.6 78.45 62.25 78.45 61.85C78.45 61.45 78.3 61.1 78 60.8C77.7 60.5 77.35 60.35 76.95 60.35C76.55 60.35 76.2 60.5 75.9 60.8C75.6 61.1 75.45 61.45 75.45 61.85C75.45 62.25 75.6 62.6 75.9 62.9C76.2 63.2 76.55 63.35 76.95 63.35ZM72.9 79V69.4H55.1V79H72.9ZM75.9 82H52.1V73.2H44V60.9C44 59.4 44.5083 58.1417 45.525 57.125C46.5417 56.1083 47.8 55.6 49.3 55.6H78.7C80.2 55.6 81.4583 56.1083 82.475 57.125C83.4917 58.1417 84 59.4 84 60.9V73.2H75.9V82ZM81 70.2V60.9C81 60.2333 80.7833 59.6833 80.35 59.25C79.9167 58.8167 79.3667 58.6 78.7 58.6H49.3C48.6333 58.6 48.0833 58.8167 47.65 59.25C47.2167 59.6833 47 60.2333 47 60.9V70.2H52.1V66.4H75.9V70.2H81Z" fill="white"/>
</g>
</svg>
