<svg width="128" height="128" viewBox="0 0 128 128" fill="none" xmlns="http://www.w3.org/2000/svg">
<rect width="128" height="128" fill="#444A65"/>
<path fill-rule="evenodd" clip-rule="evenodd" d="M35 44C35 43.4477 35.4477 43 36 43H92C92.5523 43 93 43.4477 93 44V46.2972C93 46.4714 92.9543 46.6423 92.869 46.7941C92.2242 47.9421 91.2972 49.7284 90.2115 51.8204C86.3122 59.3341 80.3659 70.7922 78.0917 70.7922C76.4288 70.7922 73.289 66.7085 70.0953 62.5549C66.7903 58.2564 63.4277 53.8831 61.5849 53.8831C59.4521 53.8831 55.0882 61.1353 51.4479 67.1849C48.9032 71.4138 46.7121 75.0551 45.8839 75.2207C44.7542 75.4467 41.672 71.9953 38.9283 68.923C37.5576 67.3882 36.2714 65.948 35.3554 65.1081C35.135 64.906 35 64.6244 35 64.3254V44ZM33 42C33 41.4477 33.4477 41 34 41H35H93H94C94.5523 41 95 41.4477 95 42V43V85.7013V86.7013C95 87.2536 94.5523 87.7013 94 87.7013H93H35H34C33.4477 87.7013 33 87.2536 33 86.7013V85.7013V43V42Z" fill="white"/>
</svg>
