<svg width="128" height="128" viewBox="0 0 128 128" fill="none" xmlns="http://www.w3.org/2000/svg">
<rect width="128" height="128" fill="#444A65"/>
<path d="M26.4375 51.2031V76.5H19.8594V65.875H17.8906V76.5H11.3125V51.2031H17.8906V60.25H19.8594V51.2031H26.4375ZM43.3594 55.7656V76.5H36.9375L37.0469 74.7812C36.6094 75.4792 36.0677 76.0052 35.4219 76.3594C34.7865 76.7031 34.0521 76.875 33.2188 76.875C32.2708 76.875 31.4844 76.7083 30.8594 76.375C30.2344 76.0417 29.7708 75.599 29.4688 75.0469C29.1771 74.4948 28.9948 73.9219 28.9219 73.3281C28.849 72.724 28.8125 71.5312 28.8125 69.75V55.7656H35.125V69.875C35.125 71.4896 35.1719 72.4479 35.2656 72.75C35.3698 73.0521 35.6406 73.2031 36.0781 73.2031C36.5469 73.2031 36.8229 73.0469 36.9062 72.7344C37 72.4219 37.0469 71.4167 37.0469 69.7188V55.7656H43.3594ZM45.8125 51.2031H52.375C54.4479 51.2031 56.0156 51.3646 57.0781 51.6875C58.151 52.0104 59.0156 52.6667 59.6719 53.6562C60.3281 54.6354 60.6562 56.2188 60.6562 58.4062C60.6562 59.8854 60.4219 60.9167 59.9531 61.5C59.4948 62.0833 58.5833 62.5312 57.2188 62.8438C58.7396 63.1875 59.7708 63.7604 60.3125 64.5625C60.8542 65.3542 61.125 66.5729 61.125 68.2188V70.5625C61.125 72.2708 60.9271 73.5365 60.5312 74.3594C60.1458 75.1823 59.526 75.7448 58.6719 76.0469C57.8177 76.349 56.0677 76.5 53.4219 76.5H45.8125V51.2031ZM52.3906 55.5312V61.1562C52.6719 61.1458 52.8906 61.1406 53.0469 61.1406C53.6927 61.1406 54.1042 60.9844 54.2812 60.6719C54.4583 60.349 54.5469 59.4375 54.5469 57.9375C54.5469 57.1458 54.474 56.5938 54.3281 56.2812C54.1823 55.9583 53.9896 55.7552 53.75 55.6719C53.5208 55.5885 53.0677 55.5417 52.3906 55.5312ZM52.3906 65.0938V72.1719C53.3177 72.1406 53.9062 71.9948 54.1562 71.7344C54.4167 71.474 54.5469 70.8333 54.5469 69.8125V67.4531C54.5469 66.3698 54.4323 65.7135 54.2031 65.4844C53.974 65.2552 53.3698 65.125 52.3906 65.0938ZM83.7969 51.2031V76.5H78.0469V59.4219L75.75 76.5H71.6719L69.25 59.8125V76.5H63.5V51.2031H72.0156C72.2656 52.724 72.5312 54.5156 72.8125 56.5781L73.7188 63.0156L75.2188 51.2031H83.7969ZM97.7969 51.2031L101.562 76.5H94.8281L94.5 71.9531H92.1406L91.75 76.5H84.9375L88.2812 51.2031H97.7969ZM94.3125 67.4688C93.9792 64.6042 93.6458 61.0677 93.3125 56.8594C92.6458 61.6927 92.2292 65.2292 92.0625 67.4688H94.3125ZM102.688 51.2031H109.312C111.104 51.2031 112.479 51.3438 113.438 51.625C114.406 51.9062 115.13 52.3125 115.609 52.8438C116.099 53.375 116.427 54.0208 116.594 54.7812C116.771 55.5312 116.859 56.6979 116.859 58.2812V60.4844C116.859 62.099 116.693 63.276 116.359 64.0156C116.026 64.7552 115.411 65.3229 114.516 65.7188C113.63 66.1146 112.469 66.3125 111.031 66.3125H109.266V76.5H102.688V51.2031ZM109.266 55.5312V61.9688C109.453 61.9792 109.615 61.9844 109.75 61.9844C110.354 61.9844 110.771 61.8385 111 61.5469C111.24 61.2448 111.359 60.625 111.359 59.6875V57.6094C111.359 56.7448 111.224 56.1823 110.953 55.9219C110.682 55.6615 110.12 55.5312 109.266 55.5312Z" fill="white"/>
</svg>
