<svg width="128" height="128" viewBox="0 0 128 128" fill="none" xmlns="http://www.w3.org/2000/svg">
<rect width="128" height="128" fill="#444A65"/>
<path d="M83.7909 97.9608L64.2838 73.4011L83.6117 54.1191C83.7451 53.9879 83.8366 53.8197 83.8745 53.6361C83.9124 53.4525 83.895 53.2617 83.8245 53.088C83.7541 52.9143 83.6337 52.7656 83.4787 52.6609C83.3238 52.5561 83.1413 52.5001 82.9544 52.4998H72.8424C72.5897 52.5018 72.348 52.6042 72.1703 52.7847L52.9619 72.2766V28.9896C52.97 28.7376 52.879 28.4924 52.7085 28.3072C52.538 28.1221 52.3017 28.0117 52.0508 28H44.941C44.6901 28.0039 44.4507 28.1068 44.2747 28.2863C44.0986 28.4658 44 28.7077 44 28.9596V99.0554C44 99.3059 44.0991 99.5462 44.2756 99.7233C44.4521 99.9005 44.6914 100 44.941 100H52.0508C52.3004 100 52.5397 99.9005 52.7162 99.7233C52.8926 99.5462 52.9918 99.3059 52.9918 99.0554V84.7064L57.4727 80.2082L73.2905 99.1603C73.3755 99.2693 73.4845 99.3571 73.6088 99.4169C73.7332 99.4768 73.8696 99.507 74.0075 99.5052H83.059C83.3086 99.5052 83.5479 99.4057 83.7244 99.2285C83.9009 99.0514 84 98.8111 84 98.5606C83.999 98.3428 83.9254 98.1317 83.7909 97.9608Z" fill="white"/>
</svg>
