<svg width="120" height="144" viewBox="0 0 120 144" fill="none" xmlns="http://www.w3.org/2000/svg">
<rect width="120" height="144" rx="4" fill="#FAFAFA"/>
<g clip-path="url(#clip0_532_9091)">
<path d="M50.7773 42.7156L50.7748 42.7404V42.7654C50.7748 42.815 50.776 43.0539 50.7779 43.4527C50.7819 44.2616 50.789 45.7282 50.7962 47.6073C50.8068 50.4149 50.8175 54.1475 50.8175 57.9974V58.0425V58.0877V58.133V58.1783V58.2236V58.269V58.3145V58.36V58.4056V58.4512V58.4968V58.5425V58.5883V58.6341V58.6799V58.7258V58.7717V58.8177V58.8637V58.9098V58.9559V59.002V59.0482V59.0944V59.1407V59.187V59.2333V59.2797V59.3261V59.3726V59.4191V59.4656V59.5121V59.5587V59.6054V59.652V59.6987V59.7455V59.7922V59.839V59.8859V59.9327V59.9796V60.0265V60.0735V60.1205V60.1675V60.2145V60.2615V60.3086V60.3557V60.4029V60.45V60.4972V60.5444V60.5916V60.6389V60.6862V60.7335V60.7808V60.8281V60.8755V60.9228V60.9702V61.0176V61.0651V61.1125V61.16V61.2074V61.2549V61.3024V61.35V61.3975V61.445V61.4926V61.5402V61.5877V61.6353V61.6829V61.7305V61.7782V61.8258V61.8734V61.9211V61.9687V62.0164V62.064V62.1117V62.1594V62.2071V62.2547V62.3024V62.3501V62.3978V62.4455V62.4932V62.5409V62.5886V62.6362V62.6839V62.7316V62.7793V62.827V62.8747V62.9223V62.97V63.0177V63.0653V63.113V63.1606V63.2082V63.2559V63.3035V63.3511V63.3987V63.4463V63.4939V63.5414V63.589V63.6365V63.6841V63.7316V63.7791V63.8266V63.874V63.9215V63.9689V64.0163V64.0638V64.1111V64.1585V64.2059V64.2532V64.3005V64.3478V64.3951V64.4423V64.4895V64.5367V64.5839V64.6311V64.6782V64.7253V64.7724V64.8194V64.8664V64.9134V64.9604V65.0073V65.0543V65.1011V65.148V65.1948V65.2416V65.2884V65.3351V65.3818V65.4284V65.4751V65.5216V65.5682V65.6147V65.6612V65.7077V65.7541V65.8004V65.8468V65.8931V65.9393V65.9855V66.0317V66.0778V66.1239V66.17V66.216V66.2619V66.3079V66.3537V66.3996V66.4453V66.4911V66.5368V66.5824V66.628V66.6736V66.719V66.7645V66.8099V66.8552V66.9005V66.9458V66.991V67.0361V67.0812V67.1262V67.1712V67.2161V67.261V67.3058V67.3506V67.3953V67.4399V67.4845V67.529V67.5735V67.6179V67.6622V67.7065V67.7507V67.7949V67.839V67.883V67.927V67.9709V68.0147V68.0585V68.1022V68.1458V68.1894V68.2329V68.2763V68.3197V68.363V68.4062V68.4494V68.4925V68.5355V68.5784V68.6213V68.6641V68.7068V68.7495V68.7921V68.8346V68.877V68.9193V68.9616V69.0038V69.0459V69.0879V69.1299V69.1718V69.2136V69.2553V69.2969V69.3385V69.3799V69.4213V69.4626V69.5038V69.545V69.586V69.627V69.6679V69.7086V69.7493V69.79V69.8305V69.8709V69.9113V69.9515V69.9917V70.0318V70.0717V70.1116V70.1514V70.1911V70.2307V70.2702V70.3096V70.349V70.3882V70.4273V70.4663V70.5053V70.5441V70.5828V70.6215V70.66V70.6984V70.7368V70.775V70.8131V70.8512V70.8891V70.9269V70.9646V71.0022V71.0397V71.0771V71.1144V71.1516V71.1886V71.2256V71.2625V71.2992V71.3358V71.3724V71.4088V71.4451V71.4813V71.5173V71.5533V71.5891V71.6249V71.6605V71.696V71.7314V71.7666V71.8018V71.8368V71.8717V71.9065V71.9412V71.9758V72.0102V72.0445V72.0787V72.1128V72.1467V72.1805V72.2142V72.2478V72.2813V72.3146V72.3478V72.3809V72.4138V72.4466V72.4793V72.5119V72.5443V72.5766V72.6088V72.6408V72.6727V72.7045V72.7361V72.7676V72.799V72.8302V72.8613V72.8923V72.9231V72.9538V72.9844V73.0148V73.0451V73.0752V73.1052V73.1351V73.1648V73.1944V73.2238V73.2531V73.2823V73.3113V73.3401V73.3689V73.3974V73.4259V73.4542V73.4823V73.5103V73.5381V73.5658V73.5934V73.6208V73.648V73.6751V73.7021V73.7289V73.7555V73.782V73.8083V73.8345V73.8605V73.8864V73.9121V73.9377V73.9631V73.9883V74.0134V74.0383V74.0631V74.0877V74.1122V74.1365V74.1606V74.1846V74.2084V74.232V74.2555V74.2788V74.302V74.325V74.3478V74.3705V74.3929V74.4153V74.4374V74.4594V74.4812V74.5029V74.5244V74.5457V74.5668V74.5878V74.6086V74.6292V74.6496V74.6699V74.69V74.7099V74.7297V74.7493V74.7687V74.7879V74.8069V74.8258V74.8445V74.863V74.8813V74.8995V74.9174V74.9352V74.9528V74.9702V74.9875V75.0045V75.0214V75.0381V75.0546V75.0709V75.087V75.103V75.1187V75.1343V75.1497V75.1649V75.1799V75.1947V75.2093V75.2237V75.2379V75.252V75.2658V75.2795V75.2929V75.3062V75.3193V75.3321V75.3448V75.3573V75.3696V75.3817V75.3936V75.4052V75.4167V75.428V75.4391V75.45V75.4607V75.4712V75.4814V75.4915V75.5014V75.511V75.5205V75.5298V75.5388V75.5476V75.5563V75.5647V75.5729V75.5809V75.5887V75.5963V75.6037V75.6109V75.6178V75.6246V75.6311V75.6374V75.6435V75.6494V75.6551V75.6605V75.6658V75.6708V75.6756V75.6802V75.6846V75.6887V75.6926V75.6964V75.6998V75.7031V75.7062V75.709V75.7116V75.714V75.7142C50.7965 76.1751 50.7246 76.6323 50.6031 77.0775C50.4395 77.5928 50.1053 78.0372 49.6554 78.3374C47.3155 79.8658 43.6435 80.8762 40.1939 81.3283C38.4765 81.5533 36.8355 81.6371 35.47 81.5821C34.0823 81.5262 33.0495 81.329 32.4976 81.0418L32.4977 81.0417L32.4868 81.0364C31.6552 80.6289 31.0342 79.5794 30.7732 77.5935C30.5153 75.6307 30.6308 72.899 31.1194 69.3726L31.1197 69.3704C31.6698 65.2637 32.8351 61.2632 34.5765 57.5035L34.5766 57.5034C36.0044 54.4195 37.6607 51.4466 39.5316 48.6096C41.0479 46.3368 42.7846 44.2189 44.7164 42.2869L44.7217 42.2816L44.7269 42.2761C45.1841 41.7904 45.6833 41.346 46.2186 40.9479L46.2246 40.9434L46.2306 40.9387C46.8385 40.4573 47.5873 40.188 48.3626 40.1719L48.3626 40.172L48.3736 40.1716C48.7052 40.1573 49.036 40.2146 49.3436 40.3394L49.5316 39.8761L49.3436 40.3394C49.6511 40.4642 49.9283 40.6536 50.1562 40.8949C50.3842 41.1361 50.5576 41.4236 50.6648 41.7377C50.7719 42.0519 50.8103 42.3854 50.7773 42.7156Z" fill="#212121" stroke="#212121"/>
<path d="M68.7466 42.7654C68.7703 42.1393 68.9539 41.5297 69.2799 40.9947C69.5165 40.5745 69.8653 40.2284 70.2872 39.9948C70.7091 39.7613 71.1875 39.6495 71.6692 39.672C72.5536 39.6904 73.4077 39.9976 74.1012 40.5467C74.6619 40.9758 75.183 41.4542 75.6586 41.976C77.614 43.9317 79.3719 46.0754 80.9066 48.376C82.7896 51.2204 84.4582 54.2011 85.8986 57.2934C87.6515 61.1022 88.8305 65.1497 89.3972 69.304C90.3786 76.3867 89.8239 80.44 87.7972 81.4854C85.1732 82.8507 74.8906 81.9334 70.1332 78.7547C69.5849 78.3895 69.1783 77.8474 68.9812 77.2187C68.8475 76.7313 68.7687 76.2304 68.7466 75.7254V42.7654Z" fill="#212121"/>
<path d="M66.4001 49.272C65.1654 48.8621 64.0899 48.0759 63.3247 47.0238C62.5595 45.9716 62.1429 44.7063 62.1334 43.4053V33.5493H57.8668V43.4053C57.8617 44.7099 57.4472 45.98 56.6817 47.0365C55.9162 48.0929 54.8383 48.8823 53.6001 49.2933V52.8347H66.4001V49.272Z" fill="#212121"/>
</g>
<path d="M41.3881 113V102.818H42.3177V112.165H47.17V113H41.3881ZM54.0014 110.082V105.364H54.8863V113H54.0014V111.732H53.9318C53.7528 112.123 53.4694 112.45 53.0816 112.712C52.6939 112.97 52.2199 113.099 51.6598 113.099C51.1725 113.099 50.74 112.993 50.3622 112.781C49.9843 112.566 49.6877 112.251 49.4723 111.837C49.2568 111.422 49.1491 110.914 49.1491 110.31V105.364H50.034V110.256C50.034 110.852 50.2097 111.333 50.561 111.697C50.9124 112.059 51.3631 112.239 51.9133 112.239C52.258 112.239 52.5894 112.156 52.9076 111.991C53.2258 111.825 53.4876 111.583 53.6931 111.265C53.8986 110.943 54.0014 110.549 54.0014 110.082ZM58.1841 108.227V113H57.2992V105.364H58.1593V106.562H58.2388C58.4178 106.171 58.6962 105.857 59.074 105.622C59.4552 105.384 59.9258 105.264 60.486 105.264C60.9997 105.264 61.4505 105.372 61.8382 105.587C62.2293 105.799 62.5326 106.113 62.748 106.527C62.9668 106.941 63.0762 107.45 63.0762 108.053V113H62.1912V108.108C62.1912 107.482 62.0156 106.986 61.6642 106.621C61.3162 106.257 60.8489 106.075 60.2623 106.075C59.8612 106.075 59.5049 106.161 59.1934 106.333C58.8818 106.505 58.6349 106.754 58.4526 107.079C58.2736 107.4 58.1841 107.783 58.1841 108.227ZM68.39 116.023C67.8696 116.023 67.4139 115.955 67.0228 115.819C66.6317 115.686 66.3019 115.504 66.0334 115.272C65.765 115.04 65.5562 114.78 65.407 114.491L66.1329 114.014C66.2422 114.206 66.3881 114.395 66.5704 114.581C66.756 114.767 66.9963 114.921 67.2912 115.043C67.5895 115.166 67.9558 115.227 68.39 115.227C69.0661 115.227 69.6113 115.058 70.0256 114.72C70.4432 114.382 70.652 113.857 70.652 113.144V111.424H70.5725C70.4697 111.656 70.3222 111.888 70.13 112.12C69.9378 112.349 69.6859 112.539 69.3743 112.692C69.0661 112.844 68.6833 112.92 68.2259 112.92C67.616 112.92 67.0741 112.77 66.6002 112.468C66.1295 112.166 65.7583 111.736 65.4865 111.175C65.2181 110.612 65.0838 109.941 65.0838 109.162C65.0838 108.39 65.2148 107.71 65.4766 107.124C65.7418 106.537 66.1113 106.08 66.5853 105.751C67.0592 105.423 67.6111 105.259 68.2408 105.259C68.7081 105.259 69.0959 105.342 69.4042 105.508C69.7124 105.67 69.9593 105.872 70.1449 106.114C70.3338 106.356 70.4813 106.592 70.5874 106.82H70.6769V105.364H71.5419V113.199C71.5419 113.845 71.4044 114.377 71.1293 114.795C70.8542 115.212 70.4797 115.521 70.0057 115.719C69.5318 115.922 68.9932 116.023 68.39 116.023ZM68.3303 112.11C68.8208 112.11 69.2401 111.992 69.5881 111.757C69.9361 111.518 70.2029 111.177 70.3885 110.733C70.5741 110.289 70.6669 109.76 70.6669 109.147C70.6669 108.55 70.5758 108.022 70.3935 107.561C70.2112 107.097 69.9461 106.732 69.5981 106.467C69.2534 106.199 68.8308 106.065 68.3303 106.065C67.8199 106.065 67.389 106.202 67.0377 106.477C66.6864 106.752 66.4212 107.124 66.2422 107.591C66.0633 108.055 65.9738 108.574 65.9738 109.147C65.9738 109.73 66.0649 110.246 66.2472 110.693C66.4295 111.137 66.6963 111.485 67.0476 111.737C67.399 111.986 67.8265 112.11 68.3303 112.11ZM79.0855 107.039L78.2751 107.268C78.1956 107.039 78.0829 106.832 77.9371 106.646C77.7912 106.461 77.6006 106.313 77.3653 106.204C77.1333 106.094 76.845 106.04 76.5003 106.04C75.9832 106.04 75.559 106.162 75.2275 106.408C74.8961 106.653 74.7304 106.969 74.7304 107.357C74.7304 107.685 74.8431 107.952 75.0684 108.158C75.2971 108.36 75.6485 108.521 76.1224 108.64L77.2758 108.923C77.9155 109.079 78.3944 109.326 78.7126 109.664C79.0341 110.002 79.1949 110.426 79.1949 110.937C79.1949 111.368 79.0755 111.75 78.8369 112.085C78.5983 112.42 78.2652 112.683 77.8376 112.876C77.4134 113.065 76.9212 113.159 76.3611 113.159C75.6153 113.159 75.0005 112.992 74.5166 112.657C74.0327 112.319 73.7228 111.832 73.5869 111.195L74.4371 110.987C74.5464 111.441 74.7602 111.784 75.0784 112.016C75.3999 112.248 75.8225 112.364 76.3461 112.364C76.9328 112.364 77.4018 112.233 77.7531 111.971C78.1044 111.706 78.2801 111.374 78.2801 110.977C78.2801 110.668 78.1773 110.41 77.9719 110.201C77.7664 109.989 77.4548 109.833 77.0372 109.734L75.7893 109.435C75.1264 109.276 74.6359 109.024 74.3177 108.68C73.9996 108.335 73.8405 107.907 73.8405 107.397C73.8405 106.976 73.9548 106.607 74.1835 106.288C74.4122 105.967 74.7271 105.715 75.1281 105.533C75.5291 105.35 75.9865 105.259 76.5003 105.259C77.1996 105.259 77.7581 105.418 78.1757 105.737C78.5966 106.051 78.8999 106.486 79.0855 107.039Z" fill="#212121"/>
<defs>
<clipPath id="clip0_532_9091">
<rect width="64" height="64" fill="white" transform="translate(28 27)"/>
</clipPath>
</defs>
</svg>
