<svg width="120" height="144" viewBox="0 0 120 144" fill="none" xmlns="http://www.w3.org/2000/svg">
<rect width="120" height="144" rx="4" fill="#FAFAFA"/>
<g clip-path="url(#clip0_2079_9704)">
<mask id="path-2-inside-1_2079_9704" fill="white">
<path d="M78.7305 58.2533C78.9225 57.784 74.3145 55.3733 72.2025 56.5253C70.0905 57.6773 67.3812 59 65.9305 59.6186L66.5279 57.4853C67.1318 57.282 67.6594 56.8995 68.0405 56.3888C68.4216 55.8781 68.6381 55.2634 68.6612 54.6266C68.8959 52.9626 68.2345 51.4906 67.1465 51.2133L67.0185 48.7813C67.8649 47.8901 68.8435 47.1345 69.9199 46.5413C70.9012 45.9866 72.3092 45.7093 73.4398 45.176C74.4271 44.6165 75.2888 43.8601 75.9714 42.9536C76.654 42.0472 77.143 41.01 77.4079 39.9066C77.0665 39.8 75.6799 43.192 72.9919 44.3653C71.8612 44.8773 70.4319 45.1333 69.4505 45.688C68.5325 46.2002 67.686 46.8315 66.9332 47.5653V46.4773C67.4405 46.2078 67.871 45.814 68.1844 45.3326C68.4979 44.8513 68.6839 44.2982 68.7252 43.7253C68.8001 43.2589 68.8001 42.7836 68.7252 42.3173C68.9641 40.6813 69.3133 39.0634 69.7705 37.4746C70.5291 35.6671 71.1287 33.7969 71.5625 31.8853C70.2444 33.4014 69.3016 35.2065 68.8105 37.1546C68.439 38.3124 68.1538 39.4961 67.9572 40.696C67.7207 40.4574 67.4143 40.3004 67.0825 40.248C66.6922 40.2152 66.3021 40.3127 65.9732 40.5253C65.8025 37.6666 65.2692 30.5626 64.7359 30.5626C64.2025 30.5626 64.6292 36.216 64.8639 39.5013C63.3492 36.6213 60.5972 31.5866 60.1919 31.7786C59.7865 31.9706 64.2665 40.568 64.8425 41.784C64.6319 42.2056 64.4948 42.6601 64.4372 43.128C64.3112 43.7061 64.3417 44.3074 64.5254 44.8699C64.7091 45.4323 65.0395 45.9357 65.4825 46.328L65.8025 51.5546C65.6716 51.6572 65.5502 51.7715 65.4399 51.896C64.4585 50.2746 62.3465 46.6693 60.5332 42.9573C59.1252 40.12 52.7252 37.6666 52.5972 38.136C52.4692 38.6053 58.4852 40.6746 59.7439 43.5333C59.9785 44.0666 60.2132 44.6 60.4692 45.1333C59.4474 44.5161 58.3597 44.0152 57.2265 43.64C55.2627 42.9239 53.1574 42.6826 51.0825 42.936C50.9545 43.256 54.2185 43.64 56.9279 44.6C58.4872 45.1694 59.9704 45.9289 61.3439 46.8613C62.7945 49.6773 64.2239 51.9386 64.7999 52.8346C64.6188 53.2345 64.4967 53.6584 64.4372 54.0933C64.3456 54.5931 64.3571 55.1063 64.4708 55.6015C64.5845 56.0967 64.7981 56.5635 65.0985 56.9733L63.9679 60.8986C63.5904 61.0163 63.2408 61.2093 62.9401 61.466C62.6394 61.7227 62.3939 62.0377 62.2185 62.392L59.6159 61.1333C59.6159 60.088 58.5705 58.6586 56.7785 57.656C55.7128 57.0151 54.4787 56.7103 53.2372 56.7813C52.7437 54.7387 51.9758 52.7724 50.9545 50.936C50.1306 49.4119 48.8037 48.2206 47.1999 47.5653C46.9225 47.6933 48.7999 49.0586 50.0372 51.2773C50.4626 52.0467 50.8333 52.8451 51.1465 53.6666C50.9491 53.4445 50.7352 53.2377 50.5065 53.048C49.0935 51.8667 47.3655 51.125 45.5359 50.9146C45.2159 51.064 47.9679 52.0026 49.8025 53.688C50.8366 54.6973 51.6249 55.9308 52.1065 57.2933L51.9999 57.4213C51.8998 57.6274 51.8479 57.8535 51.8479 58.0826C51.8479 58.3117 51.8998 58.5378 51.9999 58.744C50.5219 58.938 49.0317 59.0236 47.5412 59C43.9572 59 40.1599 58.168 40.1172 58.5093C42.4506 59.5296 44.9732 60.0458 47.5199 60.024C49.2406 60.0767 50.9625 59.9624 52.6612 59.6826C53.2549 60.3789 53.9798 60.9515 54.7945 61.368C55.1907 61.5813 55.6047 61.7598 56.0319 61.9013L52.2559 64.9733H52.0212H51.7012C50.6687 64.5466 49.5863 64.2527 48.4799 64.0986C46.8953 63.8002 45.2596 63.9328 43.7439 64.4826C43.7439 64.8453 46.1759 64.7813 48.3945 65.1226C49.0586 65.225 49.7145 65.3747 50.3572 65.5706C50.2769 65.6236 50.2049 65.6883 50.1439 65.7626C49.1816 66.0923 48.198 66.356 47.1999 66.552C44.6825 66.9573 41.8239 66.9786 41.9092 67.3413C43.6571 67.849 45.5025 67.9222 47.2852 67.5546C48.339 67.4114 49.3754 67.1612 50.3785 66.808C50.9345 67.0785 51.5569 67.1823 52.1705 67.1066C53.3439 66.9786 54.3039 66.3813 54.1759 65.8053C54.0479 65.2293 53.8772 65.2933 53.4932 65.144L57.0132 62.2C57.5267 62.3082 58.057 62.3082 58.5705 62.2L61.7065 63.7573C61.5955 64.2042 61.5761 64.669 61.6494 65.1236C61.7228 65.5782 61.8873 66.0133 62.1332 66.4026L60.3625 70.1786C59.7719 70.2148 59.2015 70.4078 58.7103 70.7378C58.2191 71.0678 57.8247 71.5228 57.5679 72.056C57.269 72.515 57.0807 73.0372 57.0177 73.5813C56.9548 74.1255 57.019 74.6768 57.2052 75.192L56.2879 76.4506H50.3359C49.8864 76.0624 49.3272 75.8238 48.7359 75.768H48.3305C47.2756 75.4112 46.178 75.196 45.0665 75.128C43.4446 74.9867 41.8161 75.3124 40.3732 76.0666C40.3732 76.408 42.8052 76.0666 45.0452 76.2373L46.4959 76.408C46.4959 76.408 46.4959 76.408 46.4959 76.5573C46.467 76.6692 46.467 76.7867 46.4959 76.8986C45.8235 77.0881 45.1672 77.3306 44.5332 77.624C42.8333 78.2839 41.3182 79.3452 40.1172 80.7173C40.2452 81.0586 42.6772 79.544 45.0239 78.584C45.8199 78.2405 46.6398 77.9553 47.4772 77.7306C47.7745 77.8439 48.0815 77.9296 48.3945 77.9866C49.0199 78.0991 49.665 78.0016 50.2292 77.7093L55.3279 77.8586L54.3252 79.2026C53.2799 78.9893 52.0212 79.9066 51.4025 81.336C51.2071 81.8179 51.0987 82.3308 51.0825 82.8506C50.6527 83.0451 50.2389 83.2734 49.8452 83.5333C47.9892 84.6 46.2825 86.456 46.4319 86.7333C46.5812 87.0106 48.5652 85.4106 50.3999 84.2373L51.2105 83.7893C51.2648 84.0415 51.3756 84.2781 51.5344 84.4813C51.6933 84.6845 51.8962 84.8491 52.1279 84.9626C52.2826 84.9948 52.4424 84.9948 52.5972 84.9626C52.5999 85.0124 52.5999 85.0622 52.5972 85.112C52.2772 86.456 51.5092 87.864 51.8719 87.9066C52.2345 87.9493 53.1732 86.7333 53.5999 85.4533C53.6202 85.2476 53.6202 85.0403 53.5999 84.8346C54.3571 84.3834 54.9426 83.6929 55.2639 82.872C55.6272 82.0767 55.71 81.1817 55.4985 80.3333L58.5705 76.0666H58.9545C59.6592 77.9152 60.0974 79.8546 60.2559 81.8266C60.2559 83.6186 60.4052 84.984 60.6399 85.0053C60.8745 85.0266 61.0452 83.5973 61.1519 81.7413C61.1029 79.651 60.6615 77.5885 59.8505 75.6613C60.412 75.2968 60.8739 74.7982 61.1945 74.2106C61.503 73.7557 61.697 73.2331 61.7602 72.6871C61.8233 72.1411 61.7537 71.5879 61.5572 71.0746L62.4959 69.0906L64.3945 71.6506C64.4011 71.9911 64.4851 72.3257 64.6404 72.6288C64.7957 72.9319 65.018 73.1957 65.2905 73.4C65.4118 74.7483 65.94 76.028 66.8052 77.0693C68.2595 78.6423 70.1821 79.7046 72.2879 80.0986C72.5865 79.8853 69.2799 78.4346 67.5092 76.3226C66.9852 75.6931 66.5869 74.9689 66.3359 74.1893C66.9332 74.4453 67.4665 74.488 67.7225 74.1893C67.7991 74.0832 67.8435 73.9573 67.8505 73.8266C68.4265 74.104 69.0665 74.424 69.7065 74.808C71.8398 76.1306 74.1012 77.9653 74.2719 77.6453C74.4425 77.3253 72.4372 75.3413 70.3252 73.976C69.3657 73.3879 68.3511 72.8949 67.2959 72.504C67.1491 72.3179 66.9848 72.1465 66.8052 71.992C66.3642 71.5889 65.8159 71.3221 65.2265 71.224L62.9439 68.216L63.4345 67.1493C64.0361 67.0168 64.5862 66.7124 65.0179 66.273C65.4497 65.8337 65.7445 65.2784 65.8665 64.6746C66.0763 64.1387 66.1472 63.5585 66.0726 62.9878C65.9981 62.4171 65.7804 61.8746 65.4399 61.4106L65.5679 60.9413C67.0239 60.3633 68.4482 59.7081 69.8345 58.9786C71.0373 59.2063 72.192 59.6393 73.2478 60.2586C75.1465 61.3466 77.0665 63.2666 77.1519 62.9466C76.2807 61.4616 75.0477 60.2212 73.5679 59.3413C72.8039 58.873 71.9781 58.5139 71.1145 58.2746C71.4985 58.04 71.8825 57.8266 72.2665 57.5706C74.3999 56.2053 78.4745 58.872 78.7305 58.2533Z"/>
</mask>
<path d="M78.7305 58.2533C78.9225 57.784 74.3145 55.3733 72.2025 56.5253C70.0905 57.6773 67.3812 59 65.9305 59.6186L66.5279 57.4853C67.1318 57.282 67.6594 56.8995 68.0405 56.3888C68.4216 55.8781 68.6381 55.2634 68.6612 54.6266C68.8959 52.9626 68.2345 51.4906 67.1465 51.2133L67.0185 48.7813C67.8649 47.8901 68.8435 47.1345 69.9199 46.5413C70.9012 45.9866 72.3092 45.7093 73.4398 45.176C74.4271 44.6165 75.2888 43.8601 75.9714 42.9536C76.654 42.0472 77.143 41.01 77.4079 39.9066C77.0665 39.8 75.6799 43.192 72.9919 44.3653C71.8612 44.8773 70.4319 45.1333 69.4505 45.688C68.5325 46.2002 67.686 46.8315 66.9332 47.5653V46.4773C67.4405 46.2078 67.871 45.814 68.1844 45.3326C68.4979 44.8513 68.6839 44.2982 68.7252 43.7253C68.8001 43.2589 68.8001 42.7836 68.7252 42.3173C68.9641 40.6813 69.3133 39.0634 69.7705 37.4746C70.5291 35.6671 71.1287 33.7969 71.5625 31.8853C70.2444 33.4014 69.3016 35.2065 68.8105 37.1546C68.439 38.3124 68.1538 39.4961 67.9572 40.696C67.7207 40.4574 67.4143 40.3004 67.0825 40.248C66.6922 40.2152 66.3021 40.3127 65.9732 40.5253C65.8025 37.6666 65.2692 30.5626 64.7359 30.5626C64.2025 30.5626 64.6292 36.216 64.8639 39.5013C63.3492 36.6213 60.5972 31.5866 60.1919 31.7786C59.7865 31.9706 64.2665 40.568 64.8425 41.784C64.6319 42.2056 64.4948 42.6601 64.4372 43.128C64.3112 43.7061 64.3417 44.3074 64.5254 44.8699C64.7091 45.4323 65.0395 45.9357 65.4825 46.328L65.8025 51.5546C65.6716 51.6572 65.5502 51.7715 65.4399 51.896C64.4585 50.2746 62.3465 46.6693 60.5332 42.9573C59.1252 40.12 52.7252 37.6666 52.5972 38.136C52.4692 38.6053 58.4852 40.6746 59.7439 43.5333C59.9785 44.0666 60.2132 44.6 60.4692 45.1333C59.4474 44.5161 58.3597 44.0152 57.2265 43.64C55.2627 42.9239 53.1574 42.6826 51.0825 42.936C50.9545 43.256 54.2185 43.64 56.9279 44.6C58.4872 45.1694 59.9704 45.9289 61.3439 46.8613C62.7945 49.6773 64.2239 51.9386 64.7999 52.8346C64.6188 53.2345 64.4967 53.6584 64.4372 54.0933C64.3456 54.5931 64.3571 55.1063 64.4708 55.6015C64.5845 56.0967 64.7981 56.5635 65.0985 56.9733L63.9679 60.8986C63.5904 61.0163 63.2408 61.2093 62.9401 61.466C62.6394 61.7227 62.3939 62.0377 62.2185 62.392L59.6159 61.1333C59.6159 60.088 58.5705 58.6586 56.7785 57.656C55.7128 57.0151 54.4787 56.7103 53.2372 56.7813C52.7437 54.7387 51.9758 52.7724 50.9545 50.936C50.1306 49.4119 48.8037 48.2206 47.1999 47.5653C46.9225 47.6933 48.7999 49.0586 50.0372 51.2773C50.4626 52.0467 50.8333 52.8451 51.1465 53.6666C50.9491 53.4445 50.7352 53.2377 50.5065 53.048C49.0935 51.8667 47.3655 51.125 45.5359 50.9146C45.2159 51.064 47.9679 52.0026 49.8025 53.688C50.8366 54.6973 51.6249 55.9308 52.1065 57.2933L51.9999 57.4213C51.8998 57.6274 51.8479 57.8535 51.8479 58.0826C51.8479 58.3117 51.8998 58.5378 51.9999 58.744C50.5219 58.938 49.0317 59.0236 47.5412 59C43.9572 59 40.1599 58.168 40.1172 58.5093C42.4506 59.5296 44.9732 60.0458 47.5199 60.024C49.2406 60.0767 50.9625 59.9624 52.6612 59.6826C53.2549 60.3789 53.9798 60.9515 54.7945 61.368C55.1907 61.5813 55.6047 61.7598 56.0319 61.9013L52.2559 64.9733H52.0212H51.7012C50.6687 64.5466 49.5863 64.2527 48.4799 64.0986C46.8953 63.8002 45.2596 63.9328 43.7439 64.4826C43.7439 64.8453 46.1759 64.7813 48.3945 65.1226C49.0586 65.225 49.7145 65.3747 50.3572 65.5706C50.2769 65.6236 50.2049 65.6883 50.1439 65.7626C49.1816 66.0923 48.198 66.356 47.1999 66.552C44.6825 66.9573 41.8239 66.9786 41.9092 67.3413C43.6571 67.849 45.5025 67.9222 47.2852 67.5546C48.339 67.4114 49.3754 67.1612 50.3785 66.808C50.9345 67.0785 51.5569 67.1823 52.1705 67.1066C53.3439 66.9786 54.3039 66.3813 54.1759 65.8053C54.0479 65.2293 53.8772 65.2933 53.4932 65.144L57.0132 62.2C57.5267 62.3082 58.057 62.3082 58.5705 62.2L61.7065 63.7573C61.5955 64.2042 61.5761 64.669 61.6494 65.1236C61.7228 65.5782 61.8873 66.0133 62.1332 66.4026L60.3625 70.1786C59.7719 70.2148 59.2015 70.4078 58.7103 70.7378C58.2191 71.0678 57.8247 71.5228 57.5679 72.056C57.269 72.515 57.0807 73.0372 57.0177 73.5813C56.9548 74.1255 57.019 74.6768 57.2052 75.192L56.2879 76.4506H50.3359C49.8864 76.0624 49.3272 75.8238 48.7359 75.768H48.3305C47.2756 75.4112 46.178 75.196 45.0665 75.128C43.4446 74.9867 41.8161 75.3124 40.3732 76.0666C40.3732 76.408 42.8052 76.0666 45.0452 76.2373L46.4959 76.408C46.4959 76.408 46.4959 76.408 46.4959 76.5573C46.467 76.6692 46.467 76.7867 46.4959 76.8986C45.8235 77.0881 45.1672 77.3306 44.5332 77.624C42.8333 78.2839 41.3182 79.3452 40.1172 80.7173C40.2452 81.0586 42.6772 79.544 45.0239 78.584C45.8199 78.2405 46.6398 77.9553 47.4772 77.7306C47.7745 77.8439 48.0815 77.9296 48.3945 77.9866C49.0199 78.0991 49.665 78.0016 50.2292 77.7093L55.3279 77.8586L54.3252 79.2026C53.2799 78.9893 52.0212 79.9066 51.4025 81.336C51.2071 81.8179 51.0987 82.3308 51.0825 82.8506C50.6527 83.0451 50.2389 83.2734 49.8452 83.5333C47.9892 84.6 46.2825 86.456 46.4319 86.7333C46.5812 87.0106 48.5652 85.4106 50.3999 84.2373L51.2105 83.7893C51.2648 84.0415 51.3756 84.2781 51.5344 84.4813C51.6933 84.6845 51.8962 84.8491 52.1279 84.9626C52.2826 84.9948 52.4424 84.9948 52.5972 84.9626C52.5999 85.0124 52.5999 85.0622 52.5972 85.112C52.2772 86.456 51.5092 87.864 51.8719 87.9066C52.2345 87.9493 53.1732 86.7333 53.5999 85.4533C53.6202 85.2476 53.6202 85.0403 53.5999 84.8346C54.3571 84.3834 54.9426 83.6929 55.2639 82.872C55.6272 82.0767 55.71 81.1817 55.4985 80.3333L58.5705 76.0666H58.9545C59.6592 77.9152 60.0974 79.8546 60.2559 81.8266C60.2559 83.6186 60.4052 84.984 60.6399 85.0053C60.8745 85.0266 61.0452 83.5973 61.1519 81.7413C61.1029 79.651 60.6615 77.5885 59.8505 75.6613C60.412 75.2968 60.8739 74.7982 61.1945 74.2106C61.503 73.7557 61.697 73.2331 61.7602 72.6871C61.8233 72.1411 61.7537 71.5879 61.5572 71.0746L62.4959 69.0906L64.3945 71.6506C64.4011 71.9911 64.4851 72.3257 64.6404 72.6288C64.7957 72.9319 65.018 73.1957 65.2905 73.4C65.4118 74.7483 65.94 76.028 66.8052 77.0693C68.2595 78.6423 70.1821 79.7046 72.2879 80.0986C72.5865 79.8853 69.2799 78.4346 67.5092 76.3226C66.9852 75.6931 66.5869 74.9689 66.3359 74.1893C66.9332 74.4453 67.4665 74.488 67.7225 74.1893C67.7991 74.0832 67.8435 73.9573 67.8505 73.8266C68.4265 74.104 69.0665 74.424 69.7065 74.808C71.8398 76.1306 74.1012 77.9653 74.2719 77.6453C74.4425 77.3253 72.4372 75.3413 70.3252 73.976C69.3657 73.3879 68.3511 72.8949 67.2959 72.504C67.1491 72.3179 66.9848 72.1465 66.8052 71.992C66.3642 71.5889 65.8159 71.3221 65.2265 71.224L62.9439 68.216L63.4345 67.1493C64.0361 67.0168 64.5862 66.7124 65.0179 66.273C65.4497 65.8337 65.7445 65.2784 65.8665 64.6746C66.0763 64.1387 66.1472 63.5585 66.0726 62.9878C65.9981 62.4171 65.7804 61.8746 65.4399 61.4106L65.5679 60.9413C67.0239 60.3633 68.4482 59.7081 69.8345 58.9786C71.0373 59.2063 72.192 59.6393 73.2478 60.2586C75.1465 61.3466 77.0665 63.2666 77.1519 62.9466C76.2807 61.4616 75.0477 60.2212 73.5679 59.3413C72.8039 58.873 71.9781 58.5139 71.1145 58.2746C71.4985 58.04 71.8825 57.8266 72.2665 57.5706C74.3999 56.2053 78.4745 58.872 78.7305 58.2533Z" fill="#212121" stroke="#212121" stroke-width="2" mask="url(#path-2-inside-1_2079_9704)"/>
</g>
<path d="M19.6867 113V102.818H20.6164V112.165H25.4686V113H19.6867ZM27.1072 115.864C26.9315 115.864 26.7675 115.847 26.615 115.814C26.4625 115.781 26.3416 115.744 26.2521 115.705L26.4907 114.924C26.7923 115.017 27.0608 115.05 27.2961 115.023C27.5314 115 27.7402 114.894 27.9225 114.705C28.1048 114.52 28.2672 114.235 28.4097 113.85L28.6882 113.075L25.8792 105.364H26.8387L29.1058 111.832H29.1754L31.4424 105.364H32.4019L29.1704 114.208C29.0345 114.576 28.8671 114.883 28.6683 115.128C28.4694 115.376 28.2391 115.56 27.9772 115.68C27.7187 115.802 27.4287 115.864 27.1072 115.864ZM34.2033 113V105.364H35.0634V106.537H35.1429C35.2954 106.143 35.5489 105.833 35.9036 105.607C36.2615 105.379 36.6907 105.264 37.1912 105.264C37.7182 105.264 38.1507 105.388 38.4888 105.637C38.8302 105.882 39.0854 106.22 39.2544 106.651H39.3191C39.4914 106.227 39.7715 105.891 40.1593 105.642C40.5504 105.39 41.0243 105.264 41.5811 105.264C42.2904 105.264 42.8505 105.488 43.2615 105.935C43.6725 106.379 43.878 107.029 43.878 107.884V113H42.9931V107.884C42.9931 107.281 42.8389 106.829 42.5307 106.527C42.2225 106.225 41.8164 106.075 41.3127 106.075C40.7293 106.075 40.2802 106.254 39.9654 106.612C39.6505 106.969 39.4931 107.424 39.4931 107.974V113H38.5882V107.805C38.5882 107.288 38.4441 106.87 38.1557 106.552C37.8673 106.234 37.4613 106.075 36.9377 106.075C36.5863 106.075 36.2698 106.161 35.9881 106.333C35.7097 106.505 35.4893 106.746 35.3269 107.054C35.1678 107.359 35.0882 107.71 35.0882 108.108V113H34.2033ZM46.2909 115.864V105.364H47.1509V106.82H47.2554C47.3614 106.592 47.5072 106.358 47.6929 106.119C47.8785 105.877 48.1237 105.674 48.4286 105.508C48.7369 105.342 49.1247 105.259 49.592 105.259C50.2217 105.259 50.7719 105.425 51.2426 105.756C51.7165 106.085 52.0844 106.545 52.3463 107.138C52.6114 107.728 52.744 108.416 52.744 109.202C52.744 109.991 52.6114 110.682 52.3463 111.275C52.0844 111.868 51.7165 112.33 51.2426 112.662C50.7719 112.993 50.225 113.159 49.6019 113.159C49.1412 113.159 48.7551 113.076 48.4436 112.911C48.1353 112.745 47.8851 112.541 47.6929 112.299C47.5039 112.054 47.3581 111.815 47.2554 111.583H47.1758V115.864H46.2909ZM47.1659 109.187C47.1659 109.803 47.257 110.35 47.4393 110.827C47.6249 111.301 47.8901 111.674 48.2348 111.946C48.5828 112.214 49.0037 112.349 49.4975 112.349C50.0046 112.349 50.4322 112.21 50.7802 111.931C51.1315 111.649 51.3983 111.27 51.5806 110.793C51.7662 110.315 51.859 109.78 51.859 109.187C51.859 108.6 51.7679 108.071 51.5856 107.601C51.4066 107.13 51.1415 106.757 50.7902 106.482C50.4388 106.204 50.008 106.065 49.4975 106.065C49.0004 106.065 48.5778 106.199 48.2298 106.467C47.8818 106.732 47.6166 107.1 47.4343 107.571C47.2554 108.038 47.1659 108.577 47.1659 109.187ZM55.6403 108.227V113H54.7554V102.818H55.6403V106.562H55.7199C55.8989 106.167 56.1756 105.853 56.5501 105.617C56.928 105.382 57.4053 105.264 57.982 105.264C58.499 105.264 58.9531 105.37 59.3442 105.582C59.7353 105.795 60.0402 106.108 60.2589 106.522C60.4777 106.936 60.5871 107.447 60.5871 108.053V113H59.6972V108.108C59.6972 107.478 59.5215 106.983 59.1702 106.621C58.8222 106.257 58.3515 106.075 57.7582 106.075C57.3506 106.075 56.9876 106.161 56.6695 106.333C56.3513 106.505 56.0994 106.754 55.9138 107.079C55.7315 107.4 55.6403 107.783 55.6403 108.227ZM75.1086 102.818V113H74.2038L68.1882 104.474H68.1086V113H67.179V102.818H68.0788L74.1143 111.354H74.1939V102.818H75.1086ZM80.6698 113.159C80.0102 113.159 79.4269 112.992 78.9198 112.657C78.416 112.322 78.0216 111.86 77.7365 111.27C77.4515 110.677 77.309 109.992 77.309 109.217C77.309 108.434 77.4515 107.747 77.7365 107.153C78.0216 106.557 78.416 106.093 78.9198 105.761C79.4269 105.427 80.0102 105.259 80.6698 105.259C81.3293 105.259 81.911 105.427 82.4148 105.761C82.9186 106.096 83.313 106.56 83.598 107.153C83.8864 107.747 84.0306 108.434 84.0306 109.217C84.0306 109.992 83.888 110.677 83.603 111.27C83.318 111.86 82.9219 112.322 82.4148 112.657C81.911 112.992 81.3293 113.159 80.6698 113.159ZM80.6698 112.349C81.2001 112.349 81.6492 112.206 82.0171 111.921C82.385 111.636 82.6634 111.257 82.8523 110.783C83.0445 110.309 83.1406 109.787 83.1406 109.217C83.1406 108.647 83.0445 108.123 82.8523 107.646C82.6634 107.168 82.385 106.786 82.0171 106.497C81.6492 106.209 81.2001 106.065 80.6698 106.065C80.1428 106.065 79.6937 106.209 79.3225 106.497C78.9546 106.786 78.6745 107.168 78.4823 107.646C78.2933 108.123 78.1989 108.647 78.1989 109.217C78.1989 109.787 78.2933 110.309 78.4823 110.783C78.6745 111.257 78.9546 111.636 79.3225 111.921C79.6904 112.206 80.1395 112.349 80.6698 112.349ZM88.7925 113.159C88.1661 113.159 87.6175 112.993 87.1469 112.662C86.6763 112.33 86.3084 111.868 86.0432 111.275C85.7814 110.682 85.6504 109.991 85.6504 109.202C85.6504 108.416 85.7814 107.728 86.0432 107.138C86.3084 106.545 86.6779 106.085 87.1519 105.756C87.6258 105.425 88.1777 105.259 88.8074 105.259C89.2714 105.259 89.6575 105.342 89.9658 105.508C90.274 105.67 90.5209 105.872 90.7066 106.114C90.8922 106.356 91.0363 106.592 91.1391 106.82H91.2186V102.818H92.1085V113H91.2435V111.583H91.1391C91.0363 111.815 90.8905 112.054 90.7016 112.299C90.5127 112.541 90.2624 112.745 89.9509 112.911C89.6426 113.076 89.2565 113.159 88.7925 113.159ZM88.8969 112.349C89.3907 112.349 89.8117 112.214 90.1597 111.946C90.5077 111.674 90.7728 111.301 90.9551 110.827C91.1407 110.35 91.2335 109.803 91.2335 109.187C91.2335 108.577 91.1424 108.038 90.9601 107.571C90.7778 107.1 90.5127 106.732 90.1647 106.467C89.8166 106.199 89.3941 106.065 88.8969 106.065C88.3865 106.065 87.9556 106.204 87.6043 106.482C87.2563 106.757 86.9911 107.13 86.8088 107.601C86.6298 108.071 86.5404 108.6 86.5404 109.187C86.5404 109.78 86.6315 110.315 86.8138 110.793C86.9961 111.27 87.2612 111.649 87.6093 111.931C87.9606 112.21 88.3898 112.349 88.8969 112.349ZM97.7865 113.159C97.0739 113.159 96.4574 112.993 95.9371 112.662C95.4167 112.327 95.014 111.865 94.729 111.275C94.4473 110.682 94.3064 109.999 94.3064 109.227C94.3064 108.458 94.4473 107.775 94.729 107.178C95.014 106.578 95.4068 106.109 95.9072 105.771C96.411 105.43 96.9927 105.259 97.6523 105.259C98.0666 105.259 98.466 105.335 98.8504 105.488C99.2349 105.637 99.5796 105.867 99.8845 106.179C100.193 106.487 100.436 106.877 100.615 107.347C100.794 107.815 100.884 108.368 100.884 109.008V109.445H94.9179V108.665H99.979C99.979 108.174 99.8795 107.733 99.6807 107.342C99.4851 106.948 99.2117 106.636 98.8604 106.408C98.5124 106.179 98.1097 106.065 97.6523 106.065C97.1684 106.065 96.7425 106.194 96.3746 106.452C96.0067 106.711 95.7183 107.052 95.5095 107.477C95.304 107.901 95.1996 108.365 95.1963 108.869V109.336C95.1963 109.942 95.3007 110.473 95.5095 110.927C95.7216 111.378 96.0216 111.727 96.4094 111.976C96.7972 112.224 97.2562 112.349 97.7865 112.349C98.1478 112.349 98.4643 112.292 98.7361 112.18C99.0112 112.067 99.2415 111.916 99.4271 111.727C99.6161 111.535 99.7586 111.325 99.8547 111.096L100.695 111.369C100.579 111.691 100.388 111.987 100.123 112.259C99.8613 112.531 99.5332 112.75 99.1388 112.915C98.7477 113.078 98.2969 113.159 97.7865 113.159Z" fill="#212121"/>
<defs>
<clipPath id="clip0_2079_9704">
<rect width="64" height="64" fill="white" transform="translate(28 27)"/>
</clipPath>
</defs>
</svg>
