<svg width="120" height="144" viewBox="0 0 120 144" fill="none" xmlns="http://www.w3.org/2000/svg">
<rect width="120" height="144" rx="4" fill="#FAFAFA"/>
<path d="M75.7697 55.389L75.7763 55.4057L75.784 55.4218C76.2522 56.3996 76.9291 57.2628 77.767 57.9505C78.5809 58.6186 79.5276 59.1053 80.5437 59.3787C80.9549 59.678 81.2704 60.0912 81.4507 60.5681C81.6407 61.0707 81.6712 61.6196 81.5381 62.1402C81.4051 62.6607 81.1148 63.1277 80.7069 63.4775C80.2991 63.8272 79.7933 64.0428 79.2585 64.0949L79.2351 64.0972L79.212 64.1017C78.7779 64.1857 78.3631 64.4145 77.9916 64.6976C77.6162 64.9837 77.258 65.346 76.9356 65.7346C76.3033 66.4967 75.7705 67.406 75.4987 68.1464C73.399 72.2105 71.0075 74.8508 68.0953 76.3849C65.1777 77.9218 61.6745 78.3817 57.2906 77.963C55.0794 77.6077 52.8951 77.102 50.7527 76.4494L50.7441 76.4462L50.6769 76.4208C50.6175 76.3982 50.5299 76.3646 50.4181 76.3208C50.1943 76.2331 49.8738 76.1048 49.4888 75.943C48.7178 75.6189 47.6924 75.162 46.6685 74.6291C45.6403 74.0938 44.634 73.4924 43.8891 72.8824C43.5167 72.5774 43.2252 72.2829 43.0292 72.0071C42.832 71.7297 42.7542 71.5039 42.751 71.3261C42.751 71.3259 42.751 71.3257 42.751 71.3254L42.0752 21.8926H47.0424C47.5689 25.4432 48.8714 28.8361 50.8595 31.829C52.9281 34.9433 55.6837 37.5413 58.9143 39.4232C62.7064 41.6884 66.6839 45.0604 69.8455 48.1981C71.4249 49.7656 72.7941 51.2681 73.829 52.5358C74.878 53.8206 75.5454 54.8188 75.7697 55.389Z" fill="#212121" stroke="#212121"/>
<path d="M79.4566 60.9228C78.1425 60.9251 76.8472 60.6105 75.6806 60.0055C74.0593 59.0241 75.4673 58.6828 73.0139 56.0161C71.5672 55.0982 70.0028 54.3806 68.3633 53.8828" stroke="#FAFAFA" stroke-width="0.5" stroke-miterlimit="10"/>
<path d="M65.6326 48.8052C66.4859 50.1065 68.4059 50.9385 68.7686 52.0265C68.8757 52.4523 68.8833 52.897 68.7908 53.3261C68.6983 53.7553 68.5082 54.1574 68.2352 54.5012C67.2966 55.5892 65.1419 54.2452 62.9659 52.3679C62.1795 51.4825 61.6162 50.4219 61.3232 49.2745C61.101 48.873 60.9844 48.4215 60.9844 47.9625C60.9844 47.5036 61.101 47.0521 61.3232 46.6505C62.2406 45.5839 64.2672 46.7785 65.6326 48.8052Z" fill="#FAFAFA" stroke="#212121" stroke-width="0.25" stroke-miterlimit="10"/>
<path d="M79.1999 61.9899C77.7945 61.7191 76.3572 61.6544 74.9332 61.7979C72.6292 61.6485 71.6052 62.9499 68.5332 60.5605" stroke="#FAFAFA" stroke-width="0.5" stroke-miterlimit="10"/>
<path d="M64.0751 58.7037C65.3551 59.1944 66.8484 58.405 67.6377 58.981C67.9379 59.2511 68.1798 59.5796 68.3486 59.9464C68.5173 60.3133 68.6094 60.7107 68.6191 61.1144C68.6191 62.5224 66.3577 62.7997 63.8831 62.7144C62.8472 62.5335 61.8848 62.0597 61.1097 61.349C60.791 61.1952 60.5323 60.9401 60.374 60.6236C60.2157 60.307 60.1669 59.947 60.2351 59.5997C60.2777 58.277 62.1337 57.9784 64.0751 58.7037Z" fill="#FAFAFA" stroke="#212121" stroke-width="0.25" stroke-miterlimit="10"/>
<path d="M79.4563 61.5414C79.4563 61.5414 73.8456 61.8827 72.011 59.0454C70.987 57.4667 70.347 57.296 66.7416 56.7414C64.9796 56.5894 63.288 55.979 61.835 54.9707" stroke="#FAFAFA" stroke-width="0.5" stroke-miterlimit="10"/>
<path d="M55.3072 51.8994C57.1205 52.646 59.7445 52.454 60.8538 53.2007C61.2652 53.4701 61.5995 53.8419 61.8239 54.2795C62.0483 54.717 62.1551 55.2054 62.1338 55.6967C61.8992 57.1474 58.6992 57.062 55.1152 56.5074C53.6947 56.1515 52.3694 55.4889 51.2325 54.566C50.0805 53.9047 49.0992 53.4567 49.3765 52.2194C49.6538 50.982 52.5338 50.7687 55.3072 51.8994Z" fill="#FAFAFA" stroke="#212121" stroke-width="0.25" stroke-miterlimit="10"/>
<path d="M78.9657 62.1602C77.4914 62.2389 76.0275 62.4531 74.5924 62.8002C72.7791 63.3335 72.0751 66.4908 68.4271 66.4695C64.9492 67.033 61.6817 68.5049 58.9551 70.7362" stroke="#FAFAFA" stroke-width="0.5" stroke-miterlimit="10"/>
<path d="M79.4562 60.9232C77.9183 60.7596 76.3645 60.8316 74.8482 61.1365C73.0349 61.6485 71.5202 64.8059 67.8722 64.7845C63.4562 65.6805 62.0482 66.4699 58.3789 65.7019" stroke="#FAFAFA" stroke-width="0.5" stroke-miterlimit="10"/>
<path d="M53.835 68.4534C55.3497 68.8588 57.2057 67.9201 58.2083 68.4534C58.6476 68.7779 58.9839 69.2222 59.1769 69.733C59.3699 70.2439 59.4114 70.7996 59.2963 71.3334C59.0403 72.3148 54.4537 74.9814 51.4457 72.8694C50.4857 72.2081 49.5897 71.4614 49.483 70.5228C49.3337 68.6668 51.467 67.8561 53.835 68.4534Z" fill="#FAFAFA" stroke="#212121" stroke-width="0.25" stroke-miterlimit="10"/>
<path d="M79.4566 62.1604C78.1684 62.1103 76.8788 62.2178 75.6166 62.4804C73.8033 63.0137 73.9953 69.2857 70.4326 70.8004" stroke="#FAFAFA" stroke-width="0.5" stroke-miterlimit="10"/>
<path d="M67.7653 73.8078C69.5146 74.5118 71.4133 72.0371 69.8986 70.0958C68.8746 68.7944 68.4053 68.1118 64.3733 70.4158C63.3493 70.9918 61.1306 71.4824 62.5386 74.2344C63.2213 75.5998 65.6533 72.9758 67.7653 73.8078Z" fill="#FAFAFA" stroke="#212121" stroke-width="0.25" stroke-miterlimit="10"/>
<path d="M56.3098 68.3037C55.7932 68.3008 55.2783 68.2436 54.7738 68.133C53.6353 67.9014 52.5263 67.5436 51.4671 67.0663L51.0191 66.8743C50.3606 66.7219 49.7805 66.3343 49.3877 65.7844C48.9948 65.2344 48.8164 64.5599 48.8858 63.8877C48.8858 62.4797 50.5711 61.7543 52.1924 61.7543C52.6027 61.7487 53.0117 61.799 53.4084 61.9037H53.8138C55.0298 62.181 55.7978 62.3517 57.5684 62.821C58.17 63.0137 58.7212 63.3376 59.1824 63.7692C59.6435 64.2009 60.0031 64.7295 60.2351 65.317C60.3424 65.6055 60.3771 65.9159 60.3362 66.221C60.2952 66.526 60.1799 66.8163 60.0004 67.0663C59.5096 67.5246 58.9261 67.8722 58.2894 68.0857C57.6527 68.2991 56.9776 68.3735 56.3098 68.3037Z" fill="#FAFAFA"/>
<path d="M52.2354 61.9474C52.63 61.9467 53.0235 61.9896 53.4087 62.0754H53.8354C55.03 62.3527 55.7767 62.5234 57.5474 62.9927C58.1088 63.1825 58.6205 63.4956 59.0451 63.9091C59.4696 64.3226 59.7961 64.8259 60.0007 65.3821C60.0586 65.6271 60.0578 65.8823 59.9985 66.1269C59.9392 66.3716 59.823 66.5988 59.6594 66.7901C59.2173 67.2247 58.6888 67.5614 58.108 67.7782C57.5273 67.9951 56.9074 68.0873 56.2887 68.0487C55.7863 68.0446 55.2857 67.9874 54.7954 67.8781C53.7099 67.6102 52.6526 67.2387 51.638 66.7687L51.19 66.5767C50.5719 66.4525 50.0228 66.1008 49.6515 65.5912C49.2801 65.0816 49.1136 64.4512 49.1847 63.8247C49.1847 62.6087 50.7634 61.9474 52.214 61.9474H52.2354ZM52.214 61.4141C50.358 61.4141 48.6514 62.2887 48.6514 63.8247C48.6514 66.4701 50.422 66.7901 51.4247 67.2381C52.4669 67.7413 53.5615 68.1277 54.6887 68.3901C55.2126 68.517 55.7497 68.5815 56.2887 68.5821C58.7847 68.5821 60.9394 67.2594 60.5554 65.2754C60.3232 64.6357 59.9463 64.0583 59.4541 63.5884C58.9619 63.1184 58.3678 62.7685 57.718 62.5661C55.734 62.0327 55.0087 61.8834 53.4514 61.5421C53.0301 61.4565 52.6012 61.4136 52.1714 61.4141H52.214Z" fill="#212121"/>
<path d="M28.6981 93.8182H29.772L33.4659 102.688H33.5553L37.2492 93.8182H38.3231V104H37.4481V95.782H37.3685L33.9332 104H33.088L29.6526 95.782H29.5731V104H28.6981V93.8182ZM43.049 104.174C42.5883 104.174 42.1674 104.085 41.7862 103.906C41.405 103.723 41.1018 103.461 40.8764 103.12C40.651 102.775 40.5383 102.358 40.5383 101.867C40.5383 101.489 40.6096 101.171 40.7521 100.913C40.8946 100.654 41.0968 100.442 41.3586 100.276C41.6205 100.111 41.9304 99.9796 42.2883 99.8835C42.6463 99.7874 43.0407 99.7128 43.4716 99.6598C43.8991 99.6068 44.2604 99.5604 44.5554 99.5206C44.8537 99.4808 45.0807 99.4179 45.2365 99.3317C45.3923 99.2455 45.4702 99.1063 45.4702 98.9141V98.7351C45.4702 98.2147 45.3144 97.8054 45.0028 97.5071C44.6946 97.2055 44.2505 97.0547 43.6704 97.0547C43.1202 97.0547 42.6711 97.1757 42.3231 97.4176C41.9784 97.6596 41.7365 97.9446 41.5973 98.2727L40.7571 97.9695C40.9294 97.5518 41.1681 97.2187 41.473 96.9702C41.7779 96.7183 42.1193 96.5376 42.4971 96.4283C42.875 96.3156 43.2578 96.2592 43.6456 96.2592C43.9372 96.2592 44.2405 96.2973 44.5554 96.3736C44.8736 96.4498 45.1685 96.5824 45.4403 96.7713C45.7121 96.9569 45.9325 97.2171 46.1015 97.5518C46.2706 97.8833 46.3551 98.3042 46.3551 98.8146V104H45.4702V102.792H45.4155C45.3094 103.017 45.152 103.236 44.9432 103.448C44.7344 103.66 44.4725 103.834 44.1577 103.97C43.8428 104.106 43.4732 104.174 43.049 104.174ZM43.1683 103.364C43.639 103.364 44.0466 103.259 44.3913 103.05C44.736 102.842 45.0012 102.565 45.1868 102.22C45.3757 101.872 45.4702 101.489 45.4702 101.072V99.968C45.4039 100.031 45.2928 100.087 45.1371 100.137C44.9846 100.187 44.8073 100.232 44.6051 100.271C44.4062 100.308 44.2074 100.339 44.0085 100.366C43.8096 100.392 43.6307 100.415 43.4716 100.435C43.0407 100.488 42.6728 100.571 42.3679 100.684C42.063 100.797 41.8293 100.952 41.6669 101.151C41.5045 101.347 41.4233 101.599 41.4233 101.907C41.4233 102.371 41.589 102.731 41.9204 102.986C42.2519 103.238 42.6678 103.364 43.1683 103.364ZM48.7791 104V96.3636H49.6392V97.5369H49.7188C49.8712 97.1425 50.1248 96.8326 50.4794 96.6072C50.8374 96.3786 51.2666 96.2642 51.7671 96.2642C52.2941 96.2642 52.7266 96.3885 53.0647 96.6371C53.406 96.8823 53.6612 97.2204 53.8303 97.6513H53.8949C54.0673 97.227 54.3473 96.8906 54.7351 96.642C55.1262 96.3902 55.6002 96.2642 56.157 96.2642C56.8663 96.2642 57.4264 96.4879 57.8374 96.9354C58.2484 97.3795 58.4539 98.0291 58.4539 98.8842V104H57.5689V98.8842C57.5689 98.281 57.4148 97.8286 57.1066 97.527C56.7983 97.2254 56.3923 97.0746 55.8885 97.0746C55.3052 97.0746 54.8561 97.2536 54.5412 97.6115C54.2264 97.9695 54.0689 98.4235 54.0689 98.9737V104H53.1641V98.8047C53.1641 98.2876 53.0199 97.87 52.7316 97.5518C52.4432 97.2337 52.0372 97.0746 51.5135 97.0746C51.1622 97.0746 50.8457 97.1607 50.5639 97.3331C50.2855 97.5054 50.0651 97.7457 49.9027 98.054C49.7436 98.3589 49.6641 98.7102 49.6641 99.108V104H48.7791ZM60.8667 104V96.3636H61.7268V97.5369H61.8064C61.9588 97.1425 62.2124 96.8326 62.567 96.6072C62.925 96.3786 63.3542 96.2642 63.8546 96.2642C64.3816 96.2642 64.8142 96.3885 65.1522 96.6371C65.4936 96.8823 65.7488 97.2204 65.9179 97.6513H65.9825C66.1548 97.227 66.4349 96.8906 66.8227 96.642C67.2138 96.3902 67.6877 96.2642 68.2446 96.2642C68.9538 96.2642 69.514 96.4879 69.925 96.9354C70.3359 97.3795 70.5414 98.0291 70.5414 98.8842V104H69.6565V98.8842C69.6565 98.281 69.5024 97.8286 69.1941 97.527C68.8859 97.2254 68.4799 97.0746 67.9761 97.0746C67.3928 97.0746 66.9437 97.2536 66.6288 97.6115C66.3139 97.9695 66.1565 98.4235 66.1565 98.9737V104H65.2517V98.8047C65.2517 98.2876 65.1075 97.87 64.8191 97.5518C64.5308 97.2337 64.1248 97.0746 63.6011 97.0746C63.2498 97.0746 62.9332 97.1607 62.6515 97.3331C62.3731 97.5054 62.1527 97.7457 61.9903 98.054C61.8312 98.3589 61.7517 98.7102 61.7517 99.108V104H60.8667ZM75.0871 104.174C74.6264 104.174 74.2055 104.085 73.8243 103.906C73.4432 103.723 73.1399 103.461 72.9145 103.12C72.6891 102.775 72.5765 102.358 72.5765 101.867C72.5765 101.489 72.6477 101.171 72.7902 100.913C72.9328 100.654 73.1349 100.442 73.3968 100.276C73.6586 100.111 73.9685 99.9796 74.3265 99.8835C74.6844 99.7874 75.0788 99.7128 75.5097 99.6598C75.9373 99.6068 76.2985 99.5604 76.5935 99.5206C76.8918 99.4808 77.1188 99.4179 77.2746 99.3317C77.4304 99.2455 77.5083 99.1063 77.5083 98.9141V98.7351C77.5083 98.2147 77.3525 97.8054 77.0409 97.5071C76.7327 97.2055 76.2886 97.0547 75.7086 97.0547C75.1584 97.0547 74.7093 97.1757 74.3613 97.4176C74.0166 97.6596 73.7746 97.9446 73.6354 98.2727L72.7952 97.9695C72.9676 97.5518 73.2062 97.2187 73.5111 96.9702C73.816 96.7183 74.1574 96.5376 74.5353 96.4283C74.9131 96.3156 75.2959 96.2592 75.6837 96.2592C75.9754 96.2592 76.2786 96.2973 76.5935 96.3736C76.9117 96.4498 77.2067 96.5824 77.4784 96.7713C77.7502 96.9569 77.9706 97.2171 78.1397 97.5518C78.3087 97.8833 78.3932 98.3042 78.3932 98.8146V104H77.5083V102.792H77.4536C77.3475 103.017 77.1901 103.236 76.9813 103.448C76.7725 103.66 76.5106 103.834 76.1958 103.97C75.8809 104.106 75.5114 104.174 75.0871 104.174ZM75.2064 103.364C75.6771 103.364 76.0847 103.259 76.4294 103.05C76.7741 102.842 77.0393 102.565 77.2249 102.22C77.4138 101.872 77.5083 101.489 77.5083 101.072V99.968C77.442 100.031 77.331 100.087 77.1752 100.137C77.0227 100.187 76.8454 100.232 76.6432 100.271C76.4444 100.308 76.2455 100.339 76.0466 100.366C75.8478 100.392 75.6688 100.415 75.5097 100.435C75.0788 100.488 74.7109 100.571 74.406 100.684C74.1011 100.797 73.8674 100.952 73.705 101.151C73.5426 101.347 73.4614 101.599 73.4614 101.907C73.4614 102.371 73.6271 102.731 73.9586 102.986C74.29 103.238 74.706 103.364 75.2064 103.364ZM80.8173 104V96.3636H81.6774V97.5369H81.742C81.8944 97.1525 82.1596 96.8426 82.5374 96.6072C82.9186 96.3686 83.3495 96.2493 83.8301 96.2493C83.903 96.2493 83.9842 96.2509 84.0737 96.2543C84.1631 96.2576 84.2377 96.2609 84.2974 96.2642V97.1641C84.2576 97.1574 84.188 97.1475 84.0886 97.1342C83.9891 97.121 83.8814 97.1143 83.7654 97.1143C83.3677 97.1143 83.0131 97.1989 82.7015 97.3679C82.3933 97.5336 82.1497 97.764 81.9707 98.0589C81.7917 98.3539 81.7022 98.6903 81.7022 99.0682V104H80.8173ZM86.7264 106.864C86.5507 106.864 86.3867 106.847 86.2342 106.814C86.0818 106.781 85.9608 106.744 85.8713 106.705L86.1099 105.924C86.4115 106.017 86.68 106.05 86.9153 106.023C87.1506 106 87.3595 105.894 87.5417 105.705C87.724 105.52 87.8864 105.235 88.029 104.85L88.3074 104.075L85.4984 96.3636H86.4579L88.725 102.832H88.7946L91.0616 96.3636H92.0211L88.7896 105.208C88.6537 105.576 88.4863 105.883 88.2875 106.128C88.0886 106.376 87.8583 106.56 87.5964 106.68C87.3379 106.802 87.0479 106.864 86.7264 106.864ZM49.2121 115C49.1193 114.662 48.9834 114.345 48.8044 114.05C48.6254 113.752 48.4034 113.492 48.1382 113.27C47.8764 113.045 47.5731 112.869 47.2284 112.743C46.887 112.617 46.5059 112.554 46.085 112.554C45.4221 112.554 44.8288 112.726 44.3051 113.071C43.7815 113.416 43.3672 113.913 43.0622 114.562C42.7606 115.212 42.6098 115.994 42.6098 116.909C42.6098 117.821 42.7623 118.601 43.0672 119.251C43.3721 119.9 43.7897 120.399 44.3201 120.747C44.8537 121.092 45.4635 121.264 46.1496 121.264C46.776 121.264 47.3295 121.125 47.8101 120.847C48.2907 120.568 48.6652 120.17 48.9337 119.653C49.2055 119.136 49.338 118.522 49.3314 117.809L49.6297 117.903H46.3683V117.068H50.2362V117.903C50.2362 118.772 50.0606 119.522 49.7093 120.156C49.3579 120.789 48.8757 121.277 48.2625 121.622C47.6494 121.967 46.9451 122.139 46.1496 122.139C45.2613 122.139 44.4841 121.925 43.8179 121.498C43.1517 121.067 42.633 120.46 42.2618 119.678C41.8939 118.893 41.71 117.97 41.71 116.909C41.71 116.11 41.816 115.389 42.0281 114.746C42.2403 114.103 42.5402 113.553 42.928 113.096C43.3191 112.638 43.7815 112.289 44.3151 112.047C44.8487 111.802 45.4387 111.679 46.085 111.679C46.6418 111.679 47.1505 111.767 47.6112 111.942C48.0753 112.118 48.4829 112.36 48.8343 112.668C49.1889 112.973 49.4789 113.326 49.7043 113.727C49.933 114.125 50.0871 114.549 50.1666 115H49.2121ZM53.3153 111.818V122H52.4304V111.818H53.3153ZM57.8597 122.174C57.399 122.174 56.9781 122.085 56.5969 121.906C56.2158 121.723 55.9125 121.461 55.6871 121.12C55.4618 120.775 55.3491 120.358 55.3491 119.867C55.3491 119.489 55.4203 119.171 55.5629 118.913C55.7054 118.654 55.9076 118.442 56.1694 118.276C56.4312 118.111 56.7411 117.98 57.0991 117.884C57.457 117.787 57.8514 117.713 58.2823 117.66C58.7099 117.607 59.0711 117.56 59.3661 117.521C59.6644 117.481 59.8915 117.418 60.0472 117.332C60.203 117.246 60.2809 117.106 60.2809 116.914V116.735C60.2809 116.215 60.1251 115.805 59.8136 115.507C59.5053 115.205 59.0612 115.055 58.4812 115.055C57.931 115.055 57.4819 115.176 57.1339 115.418C56.7892 115.66 56.5472 115.945 56.408 116.273L55.5678 115.969C55.7402 115.552 55.9788 115.219 56.2837 114.97C56.5887 114.718 56.93 114.538 57.3079 114.428C57.6857 114.316 58.0685 114.259 58.4563 114.259C58.748 114.259 59.0513 114.297 59.3661 114.374C59.6843 114.45 59.9793 114.582 60.2511 114.771C60.5228 114.957 60.7433 115.217 60.9123 115.552C61.0813 115.883 61.1658 116.304 61.1658 116.815V122H60.2809V120.792H60.2262C60.1201 121.017 59.9627 121.236 59.7539 121.448C59.5451 121.66 59.2833 121.834 58.9684 121.97C58.6535 122.106 58.284 122.174 57.8597 122.174ZM57.979 121.364C58.4497 121.364 58.8574 121.259 59.2021 121.05C59.5468 120.842 59.8119 120.565 59.9975 120.22C60.1864 119.872 60.2809 119.489 60.2809 119.072V117.968C60.2146 118.031 60.1036 118.087 59.9478 118.137C59.7953 118.187 59.618 118.232 59.4158 118.271C59.217 118.308 59.0181 118.339 58.8192 118.366C58.6204 118.392 58.4414 118.415 58.2823 118.435C57.8514 118.488 57.4835 118.571 57.1786 118.684C56.8737 118.797 56.64 118.952 56.4776 119.151C56.3152 119.347 56.234 119.599 56.234 119.907C56.234 120.371 56.3997 120.731 56.7312 120.986C57.0626 121.238 57.4786 121.364 57.979 121.364ZM64.4748 117.227V122H63.5899V114.364H64.45V115.562H64.5295C64.7085 115.171 64.9869 114.857 65.3647 114.622C65.7459 114.384 66.2165 114.264 66.7767 114.264C67.2904 114.264 67.7412 114.372 68.1289 114.587C68.52 114.799 68.8233 115.113 69.0387 115.527C69.2575 115.941 69.3669 116.45 69.3669 117.053V122H68.4819V117.108C68.4819 116.482 68.3063 115.986 67.9549 115.621C67.6069 115.257 67.1396 115.075 66.553 115.075C66.1519 115.075 65.7956 115.161 65.4841 115.333C65.1725 115.505 64.9256 115.754 64.7433 116.079C64.5643 116.4 64.4748 116.783 64.4748 117.227ZM74.5166 122.159C73.8902 122.159 73.3416 121.993 72.871 121.662C72.4004 121.33 72.0325 120.868 71.7673 120.275C71.5055 119.682 71.3746 118.991 71.3746 118.202C71.3746 117.416 71.5055 116.728 71.7673 116.138C72.0325 115.545 72.402 115.085 72.876 114.756C73.3499 114.425 73.9018 114.259 74.5315 114.259C74.9955 114.259 75.3817 114.342 75.6899 114.508C75.9981 114.67 76.2451 114.872 76.4307 115.114C76.6163 115.356 76.7604 115.592 76.8632 115.82H76.9427V111.818H77.8326V122H76.9676V120.583H76.8632C76.7604 120.815 76.6146 121.054 76.4257 121.299C76.2368 121.541 75.9865 121.745 75.675 121.911C75.3667 122.076 74.9806 122.159 74.5166 122.159ZM74.621 121.349C75.1148 121.349 75.5358 121.214 75.8838 120.946C76.2318 120.674 76.4969 120.301 76.6792 119.827C76.8648 119.35 76.9576 118.803 76.9576 118.187C76.9576 117.577 76.8665 117.038 76.6842 116.571C76.5019 116.1 76.2368 115.732 75.8888 115.467C75.5407 115.199 75.1182 115.065 74.621 115.065C74.1106 115.065 73.6797 115.204 73.3284 115.482C72.9804 115.757 72.7152 116.13 72.5329 116.601C72.354 117.071 72.2645 117.6 72.2645 118.187C72.2645 118.78 72.3556 119.315 72.5379 119.793C72.7202 120.27 72.9853 120.649 73.3334 120.931C73.6847 121.21 74.1139 121.349 74.621 121.349Z" fill="#212121"/>
</svg>
