<svg width="128" height="128" viewBox="0 0 128 128" fill="none" xmlns="http://www.w3.org/2000/svg">
<rect width="128" height="128" fill="#444A65"/>
<mask id="mask0_2805_4844" style="mask-type:alpha" maskUnits="userSpaceOnUse" x="40" y="40" width="48" height="48">
<rect x="40" y="40" width="48" height="48" fill="#D9D9D9"/>
</mask>
<g mask="url(#mask0_2805_4844)">
<path d="M70.6 82L57.45 77.35L48.5 80.9C47.9333 81.2 47.375 81.1833 46.825 80.85C46.275 80.5167 46 80.0167 46 79.35V51.45C46 51.0167 46.125 50.6333 46.375 50.3C46.625 49.9667 46.95 49.7167 47.35 49.55L57.45 46L70.6 50.6L79.5 47.05C80.0667 46.7833 80.625 46.8083 81.175 47.125C81.725 47.4417 82 47.9333 82 48.6V76.85C82 77.2167 81.875 77.5333 81.625 77.8C81.375 78.0667 81.0667 78.2667 80.7 78.4L70.6 82ZM68.9 78.25V53L59.1 49.7V74.95L68.9 78.25ZM71.9 78.25L79 75.9V50.3L71.9 53V78.25ZM49 77.65L56.1 74.95V49.7L49 52.05V77.65Z" fill="white"/>
</g>
</svg>
