<svg width="120" height="144" viewBox="0 0 120 144" fill="none" xmlns="http://www.w3.org/2000/svg">
<rect width="120" height="144" rx="4" fill="#FAFAFA"/>
<g clip-path="url(#clip0_532_9103)">
<mask id="path-2-inside-1_532_9103" fill="white">
<path d="M84.7252 43.6826C84.8244 43.3819 84.839 43.0597 84.7676 42.7512C84.6961 42.4427 84.5412 42.1598 84.3198 41.9333C84.538 41.6606 84.6582 41.3225 84.6612 40.9733C84.6852 40.564 84.5629 40.1596 84.3162 39.8321C84.0695 39.5047 83.7144 39.2756 83.3144 39.1859C82.9144 39.0962 82.4955 39.1516 82.1325 39.3422C81.7696 39.5329 81.4863 39.8463 81.3332 40.2266C81.1138 40.1384 80.8787 40.0956 80.6423 40.1007C80.4059 40.1058 80.173 40.1589 79.9576 40.2566C79.7422 40.3543 79.5489 40.4946 79.3894 40.6692C79.2298 40.8437 79.1072 41.0488 79.0292 41.272C78.8242 41.1947 78.6081 41.1514 78.3892 41.144C77.9659 41.1466 77.5584 41.3044 77.2438 41.5875C76.9292 41.8707 76.7295 42.2594 76.6825 42.68H76.4052C75.9392 42.6799 75.4921 42.8636 75.1606 43.191C74.8291 43.5185 74.6401 43.9634 74.6345 44.4293C74.6474 44.597 74.6833 44.7621 74.7412 44.92C74.5019 44.8015 74.24 44.736 73.9732 44.728C73.5476 44.73 73.1373 44.8871 72.8192 45.1698C72.5012 45.4526 72.2971 45.8416 72.2452 46.264C71.9524 46.0348 71.5929 45.9074 71.2212 45.9013C70.789 45.9045 70.3733 46.0676 70.0543 46.3591C69.7352 46.6506 69.5353 47.0499 69.4932 47.48C69.3364 47.2709 69.1336 47.1006 68.9006 46.9822C68.6676 46.8639 68.4105 46.8006 68.1492 46.7973C67.7935 46.799 67.4465 46.9077 67.1535 47.1094C66.8605 47.3111 66.6351 47.5963 66.5065 47.928C66.2068 47.6791 65.8294 47.5432 65.4398 47.544C65.176 47.5502 64.9169 47.6147 64.6808 47.7327C64.4448 47.8507 64.2378 48.0194 64.0745 48.2266C63.9252 47.9808 63.7155 47.7772 63.4653 47.6353C63.2151 47.4934 62.9328 47.4179 62.6452 47.416C62.3802 47.416 62.1189 47.4777 61.8819 47.5962C61.6449 47.7146 61.4388 47.8867 61.2798 48.0986C61.1348 47.8162 60.9147 47.5791 60.6437 47.4135C60.3727 47.2479 60.0614 47.1602 59.7438 47.16C59.3797 47.1634 59.0258 47.2803 58.7313 47.4945C58.4369 47.7086 58.2166 48.0093 58.1012 48.3546C57.8605 48.2429 57.5985 48.1847 57.3332 48.184C57.0769 48.1864 56.8246 48.2472 56.5954 48.3618C56.3662 48.4764 56.1662 48.6418 56.0105 48.8453C55.8108 48.6437 55.565 48.4938 55.2944 48.4083C55.0238 48.3229 54.7364 48.3046 54.4572 48.355C54.1779 48.4054 53.9151 48.523 53.6914 48.6976C53.4677 48.8722 53.2898 49.0986 53.1732 49.3573C53.0475 49.0296 52.8251 48.748 52.5355 48.5498C52.2458 48.3517 51.9028 48.2464 51.5518 48.248C51.123 48.2506 50.71 48.4107 50.3915 48.6978C50.0729 48.9849 49.8709 49.379 49.8238 49.8053C49.6733 49.7475 49.5152 49.7116 49.3545 49.6986C48.8905 49.6986 48.4456 49.883 48.1175 50.211C47.7895 50.5391 47.6052 50.984 47.6052 51.448C47.5729 51.6315 47.5729 51.8192 47.6052 52.0026C47.402 51.9192 47.1847 51.8757 46.9652 51.8746C46.5012 51.8746 46.0563 52.059 45.7282 52.387C45.4001 52.7151 45.2158 53.16 45.2158 53.624C45.2202 53.9694 45.3321 54.305 45.5358 54.584C45.0699 54.5839 44.6227 54.7676 44.2913 55.095C43.9598 55.4225 43.7708 55.8674 43.7652 56.3333C43.7726 56.5522 43.8158 56.7684 43.8932 56.9733C43.484 56.979 43.0901 57.1296 42.7816 57.3985C42.4731 57.6674 42.27 58.0371 42.2086 58.4416C42.1471 58.8462 42.2312 59.2595 42.446 59.6079C42.6607 59.9562 42.9921 60.2171 43.3812 60.344C42.8409 61.1044 42.5501 62.0138 42.5492 62.9466C42.5496 63.638 42.718 64.3188 43.0398 64.9306C44.3137 63.2898 45.7039 61.7427 47.1998 60.3013C47.2775 59.4842 47.5245 58.6923 47.9252 57.976C47.8385 57.4104 47.8385 56.8349 47.9252 56.2693C47.9848 55.8786 48.1467 55.5106 48.3945 55.2026C48.6337 54.9612 48.8287 54.6796 48.9705 54.3706C49.1132 53.9042 49.2132 53.4258 49.2692 52.9413C49.2813 53.4626 49.2456 53.9839 49.1625 54.4986C49.0652 54.7927 48.905 55.0621 48.6932 55.288C48.4316 55.5768 48.2739 55.9447 48.2452 56.3333C48.2205 56.6742 48.2205 57.0164 48.2452 57.3573C48.5947 56.8096 49.0797 56.3614 49.6532 56.056C50.1772 55.8062 50.6537 55.4669 51.0612 55.0533C51.7225 54.0506 52.7678 52.3226 52.7678 52.3226C52.4178 53.3939 51.9827 54.4355 51.4665 55.4373C51.1122 55.905 50.661 56.2907 50.1438 56.568C49.4736 56.9005 48.9604 57.4826 48.7145 58.1893C48.5208 58.6139 48.3706 59.0571 48.2665 59.512C49.4613 58.4497 50.7461 57.4932 52.1065 56.6533C54.0526 55.4708 56.2401 54.7416 58.5065 54.52H59.1678C59.3085 54.1612 59.4724 53.812 59.6585 53.4746C59.8978 53.0192 60.2697 52.6472 60.7252 52.408L61.5998 51.832C62.0503 51.3162 62.4174 50.7332 62.6878 50.104C62.5362 50.7108 62.3142 51.2979 62.0265 51.8533C61.7499 52.1879 61.4089 52.4636 61.0238 52.664C60.5821 52.877 60.2386 53.251 60.0638 53.7093C60.0638 53.9866 59.8932 54.2213 59.8292 54.456H59.9998C61.8974 54.3953 63.7874 54.1885 65.6532 53.8373C66.9032 53.5344 68.103 53.053 69.2158 52.408C69.6722 51.6584 70.1857 50.9452 70.7518 50.2746C71.2951 49.8402 71.9083 49.5011 72.5652 49.272C72.0623 49.5375 71.5961 49.8674 71.1785 50.2533C70.7965 50.7571 70.5141 51.3291 70.3465 51.9386C72.7305 50.8165 74.9841 49.4358 77.0665 47.8213C77.0665 47.8213 69.7918 55.2666 60.8105 55.5226H59.9785C60.2811 55.7245 60.5944 55.9096 60.9172 56.0773C61.5874 56.381 62.3444 56.434 63.0505 56.2266C63.4132 56.0986 64.0745 55.6933 64.5865 55.8426C65.4793 55.9569 66.3859 55.8008 67.1892 55.3946C67.1892 55.3946 65.5678 56.568 64.5438 56.248C64.1598 56.1413 63.3705 56.6746 63.0292 56.76C62.2731 57.0031 61.4599 57.0031 60.7038 56.76C60.0406 56.4704 59.417 56.0976 58.8478 55.6506C56.5193 55.8195 54.2926 56.6731 52.4478 58.104C51.1892 59.064 50.1012 59.896 49.1412 60.728C49.7273 60.8944 50.3269 61.0086 50.9332 61.0693C51.7367 61.1403 52.539 60.9208 53.1945 60.4506C53.4718 60.1946 53.8558 59.576 54.3678 59.512C55.4345 59.4053 56.5012 57.9973 56.5012 57.9973C56.5012 57.9973 55.5838 59.7466 54.5172 59.8533C54.1118 59.8533 53.5785 60.8346 53.3012 61.048C52.7058 61.4564 51.9962 61.6656 51.2745 61.6453C50.3426 61.6648 49.4135 61.5351 48.5225 61.2613C46.8179 62.6488 45.3358 64.2891 44.1278 66.1253C44.8905 66.8032 45.8609 67.2019 46.8798 67.256C46.8798 67.6304 46.9539 68.0011 47.0978 68.3467C47.2417 68.6924 47.4527 69.0061 47.7184 69.2699C47.9841 69.5336 48.2994 69.7422 48.6461 69.8835C48.9928 70.0248 49.3641 70.0961 49.7385 70.0933C50.207 70.0888 50.667 69.9674 51.0768 69.7401C51.4866 69.5129 51.8332 69.187 52.0852 68.792C52.4554 68.9542 52.8543 69.0412 53.2585 69.048C53.8277 69.0466 54.3836 68.8753 54.8549 68.5561C55.3262 68.2368 55.6914 67.7841 55.9038 67.256C56.2036 67.3727 56.521 67.4377 56.8425 67.448C57.6063 67.448 58.3389 67.1446 58.879 66.6044C59.4191 66.0643 59.7225 65.3318 59.7225 64.568C59.7123 64.139 59.6105 63.7171 59.4238 63.3306C59.7495 63.1685 60.0237 62.9191 60.2158 62.6102C60.4079 62.3013 60.5104 61.9451 60.5118 61.5813C60.5218 61.482 60.5218 61.382 60.5118 61.2826C60.6183 61.2927 60.7254 61.2927 60.8318 61.2826C61.3359 61.2887 61.8226 61.0984 62.1889 60.752C62.5552 60.4056 62.7724 59.9303 62.7945 59.4266C63.1263 59.6795 63.5294 59.8214 63.9465 59.832C64.39 59.8281 64.819 59.6742 65.1638 59.3953C65.5086 59.1163 65.7488 58.7289 65.8452 58.296C65.9935 58.5617 66.2102 58.7829 66.4727 58.9366C66.7353 59.0904 67.0342 59.1712 67.3385 59.1706C67.7707 59.1674 68.1863 59.0044 68.5054 58.7129C68.8245 58.4214 69.0243 58.0221 69.0665 57.592C69.2365 57.6125 69.4084 57.6125 69.5785 57.592C69.8844 57.5882 70.1839 57.5033 70.4463 57.3459C70.7087 57.1884 70.9245 56.9642 71.0718 56.696C71.3732 56.9418 71.7496 57.0773 72.1385 57.08C72.5236 57.0765 72.8965 56.9444 73.1979 56.7048C73.4994 56.4651 73.7122 56.1317 73.8025 55.7573C74.0044 55.8447 74.2225 55.8883 74.4425 55.8853C74.6722 55.8853 74.8997 55.8401 75.1119 55.7522C75.3242 55.6642 75.517 55.5354 75.6795 55.3729C75.8419 55.2105 75.9708 55.0177 76.0587 54.8054C76.1466 54.5932 76.1918 54.3657 76.1918 54.136C76.2141 53.9589 76.2141 53.7797 76.1918 53.6026C76.3753 53.6349 76.563 53.6349 76.7465 53.6026C77.1925 53.6035 77.6221 53.4339 77.9472 53.1286C78.2724 52.8232 78.4686 52.4052 78.4958 51.96C78.6307 51.9719 78.7663 51.9719 78.9012 51.96C79.3651 51.96 79.8101 51.7757 80.1381 51.4476C80.4662 51.1195 80.6505 50.6746 80.6505 50.2106C81.0576 50.1453 81.4286 49.9382 81.698 49.626C81.9673 49.3137 82.1176 48.9163 82.1225 48.504C82.1225 48.504 82.1225 48.376 82.1225 48.312C82.5026 48.2293 82.8431 48.0193 83.0875 47.7167C83.3319 47.414 83.4656 47.037 83.4665 46.648C83.5364 46.5012 83.6004 46.3518 83.6585 46.2C83.8558 46.0119 84.0026 45.7771 84.0852 45.5173C84.1486 45.2508 84.1486 44.9731 84.0852 44.7066C84.0852 44.7066 84.0852 44.536 84.0852 44.4506C84.3695 44.2633 84.5922 43.9961 84.7252 43.6826Z"/>
</mask>
<path d="M84.7252 43.6826C84.8244 43.3819 84.839 43.0597 84.7676 42.7512C84.6961 42.4427 84.5412 42.1598 84.3198 41.9333C84.538 41.6606 84.6582 41.3225 84.6612 40.9733C84.6852 40.564 84.5629 40.1596 84.3162 39.8321C84.0695 39.5047 83.7144 39.2756 83.3144 39.1859C82.9144 39.0962 82.4955 39.1516 82.1325 39.3422C81.7696 39.5329 81.4863 39.8463 81.3332 40.2266C81.1138 40.1384 80.8787 40.0956 80.6423 40.1007C80.4059 40.1058 80.173 40.1589 79.9576 40.2566C79.7422 40.3543 79.5489 40.4946 79.3894 40.6692C79.2298 40.8437 79.1072 41.0488 79.0292 41.272C78.8242 41.1947 78.6081 41.1514 78.3892 41.144C77.9659 41.1466 77.5584 41.3044 77.2438 41.5875C76.9292 41.8707 76.7295 42.2594 76.6825 42.68H76.4052C75.9392 42.6799 75.4921 42.8636 75.1606 43.191C74.8291 43.5185 74.6401 43.9634 74.6345 44.4293C74.6474 44.597 74.6833 44.7621 74.7412 44.92C74.5019 44.8015 74.24 44.736 73.9732 44.728C73.5476 44.73 73.1373 44.8871 72.8192 45.1698C72.5012 45.4526 72.2971 45.8416 72.2452 46.264C71.9524 46.0348 71.5929 45.9074 71.2212 45.9013C70.789 45.9045 70.3733 46.0676 70.0543 46.3591C69.7352 46.6506 69.5353 47.0499 69.4932 47.48C69.3364 47.2709 69.1336 47.1006 68.9006 46.9822C68.6676 46.8639 68.4105 46.8006 68.1492 46.7973C67.7935 46.799 67.4465 46.9077 67.1535 47.1094C66.8605 47.3111 66.6351 47.5963 66.5065 47.928C66.2068 47.6791 65.8294 47.5432 65.4398 47.544C65.176 47.5502 64.9169 47.6147 64.6808 47.7327C64.4448 47.8507 64.2378 48.0194 64.0745 48.2266C63.9252 47.9808 63.7155 47.7772 63.4653 47.6353C63.2151 47.4934 62.9328 47.4179 62.6452 47.416C62.3802 47.416 62.1189 47.4777 61.8819 47.5962C61.6449 47.7146 61.4388 47.8867 61.2798 48.0986C61.1348 47.8162 60.9147 47.5791 60.6437 47.4135C60.3727 47.2479 60.0614 47.1602 59.7438 47.16C59.3797 47.1634 59.0258 47.2803 58.7313 47.4945C58.4369 47.7086 58.2166 48.0093 58.1012 48.3546C57.8605 48.2429 57.5985 48.1847 57.3332 48.184C57.0769 48.1864 56.8246 48.2472 56.5954 48.3618C56.3662 48.4764 56.1662 48.6418 56.0105 48.8453C55.8108 48.6437 55.565 48.4938 55.2944 48.4083C55.0238 48.3229 54.7364 48.3046 54.4572 48.355C54.1779 48.4054 53.9151 48.523 53.6914 48.6976C53.4677 48.8722 53.2898 49.0986 53.1732 49.3573C53.0475 49.0296 52.8251 48.748 52.5355 48.5498C52.2458 48.3517 51.9028 48.2464 51.5518 48.248C51.123 48.2506 50.71 48.4107 50.3915 48.6978C50.0729 48.9849 49.8709 49.379 49.8238 49.8053C49.6733 49.7475 49.5152 49.7116 49.3545 49.6986C48.8905 49.6986 48.4456 49.883 48.1175 50.211C47.7895 50.5391 47.6052 50.984 47.6052 51.448C47.5729 51.6315 47.5729 51.8192 47.6052 52.0026C47.402 51.9192 47.1847 51.8757 46.9652 51.8746C46.5012 51.8746 46.0563 52.059 45.7282 52.387C45.4001 52.7151 45.2158 53.16 45.2158 53.624C45.2202 53.9694 45.3321 54.305 45.5358 54.584C45.0699 54.5839 44.6227 54.7676 44.2913 55.095C43.9598 55.4225 43.7708 55.8674 43.7652 56.3333C43.7726 56.5522 43.8158 56.7684 43.8932 56.9733C43.484 56.979 43.0901 57.1296 42.7816 57.3985C42.4731 57.6674 42.27 58.0371 42.2086 58.4416C42.1471 58.8462 42.2312 59.2595 42.446 59.6079C42.6607 59.9562 42.9921 60.2171 43.3812 60.344C42.8409 61.1044 42.5501 62.0138 42.5492 62.9466C42.5496 63.638 42.718 64.3188 43.0398 64.9306C44.3137 63.2898 45.7039 61.7427 47.1998 60.3013C47.2775 59.4842 47.5245 58.6923 47.9252 57.976C47.8385 57.4104 47.8385 56.8349 47.9252 56.2693C47.9848 55.8786 48.1467 55.5106 48.3945 55.2026C48.6337 54.9612 48.8287 54.6796 48.9705 54.3706C49.1132 53.9042 49.2132 53.4258 49.2692 52.9413C49.2813 53.4626 49.2456 53.9839 49.1625 54.4986C49.0652 54.7927 48.905 55.0621 48.6932 55.288C48.4316 55.5768 48.2739 55.9447 48.2452 56.3333C48.2205 56.6742 48.2205 57.0164 48.2452 57.3573C48.5947 56.8096 49.0797 56.3614 49.6532 56.056C50.1772 55.8062 50.6537 55.4669 51.0612 55.0533C51.7225 54.0506 52.7678 52.3226 52.7678 52.3226C52.4178 53.3939 51.9827 54.4355 51.4665 55.4373C51.1122 55.905 50.661 56.2907 50.1438 56.568C49.4736 56.9005 48.9604 57.4826 48.7145 58.1893C48.5208 58.6139 48.3706 59.0571 48.2665 59.512C49.4613 58.4497 50.7461 57.4932 52.1065 56.6533C54.0526 55.4708 56.2401 54.7416 58.5065 54.52H59.1678C59.3085 54.1612 59.4724 53.812 59.6585 53.4746C59.8978 53.0192 60.2697 52.6472 60.7252 52.408L61.5998 51.832C62.0503 51.3162 62.4174 50.7332 62.6878 50.104C62.5362 50.7108 62.3142 51.2979 62.0265 51.8533C61.7499 52.1879 61.4089 52.4636 61.0238 52.664C60.5821 52.877 60.2386 53.251 60.0638 53.7093C60.0638 53.9866 59.8932 54.2213 59.8292 54.456H59.9998C61.8974 54.3953 63.7874 54.1885 65.6532 53.8373C66.9032 53.5344 68.103 53.053 69.2158 52.408C69.6722 51.6584 70.1857 50.9452 70.7518 50.2746C71.2951 49.8402 71.9083 49.5011 72.5652 49.272C72.0623 49.5375 71.5961 49.8674 71.1785 50.2533C70.7965 50.7571 70.5141 51.3291 70.3465 51.9386C72.7305 50.8165 74.9841 49.4358 77.0665 47.8213C77.0665 47.8213 69.7918 55.2666 60.8105 55.5226H59.9785C60.2811 55.7245 60.5944 55.9096 60.9172 56.0773C61.5874 56.381 62.3444 56.434 63.0505 56.2266C63.4132 56.0986 64.0745 55.6933 64.5865 55.8426C65.4793 55.9569 66.3859 55.8008 67.1892 55.3946C67.1892 55.3946 65.5678 56.568 64.5438 56.248C64.1598 56.1413 63.3705 56.6746 63.0292 56.76C62.2731 57.0031 61.4599 57.0031 60.7038 56.76C60.0406 56.4704 59.417 56.0976 58.8478 55.6506C56.5193 55.8195 54.2926 56.6731 52.4478 58.104C51.1892 59.064 50.1012 59.896 49.1412 60.728C49.7273 60.8944 50.3269 61.0086 50.9332 61.0693C51.7367 61.1403 52.539 60.9208 53.1945 60.4506C53.4718 60.1946 53.8558 59.576 54.3678 59.512C55.4345 59.4053 56.5012 57.9973 56.5012 57.9973C56.5012 57.9973 55.5838 59.7466 54.5172 59.8533C54.1118 59.8533 53.5785 60.8346 53.3012 61.048C52.7058 61.4564 51.9962 61.6656 51.2745 61.6453C50.3426 61.6648 49.4135 61.5351 48.5225 61.2613C46.8179 62.6488 45.3358 64.2891 44.1278 66.1253C44.8905 66.8032 45.8609 67.2019 46.8798 67.256C46.8798 67.6304 46.9539 68.0011 47.0978 68.3467C47.2417 68.6924 47.4527 69.0061 47.7184 69.2699C47.9841 69.5336 48.2994 69.7422 48.6461 69.8835C48.9928 70.0248 49.3641 70.0961 49.7385 70.0933C50.207 70.0888 50.667 69.9674 51.0768 69.7401C51.4866 69.5129 51.8332 69.187 52.0852 68.792C52.4554 68.9542 52.8543 69.0412 53.2585 69.048C53.8277 69.0466 54.3836 68.8753 54.8549 68.5561C55.3262 68.2368 55.6914 67.7841 55.9038 67.256C56.2036 67.3727 56.521 67.4377 56.8425 67.448C57.6063 67.448 58.3389 67.1446 58.879 66.6044C59.4191 66.0643 59.7225 65.3318 59.7225 64.568C59.7123 64.139 59.6105 63.7171 59.4238 63.3306C59.7495 63.1685 60.0237 62.9191 60.2158 62.6102C60.4079 62.3013 60.5104 61.9451 60.5118 61.5813C60.5218 61.482 60.5218 61.382 60.5118 61.2826C60.6183 61.2927 60.7254 61.2927 60.8318 61.2826C61.3359 61.2887 61.8226 61.0984 62.1889 60.752C62.5552 60.4056 62.7724 59.9303 62.7945 59.4266C63.1263 59.6795 63.5294 59.8214 63.9465 59.832C64.39 59.8281 64.819 59.6742 65.1638 59.3953C65.5086 59.1163 65.7488 58.7289 65.8452 58.296C65.9935 58.5617 66.2102 58.7829 66.4727 58.9366C66.7353 59.0904 67.0342 59.1712 67.3385 59.1706C67.7707 59.1674 68.1863 59.0044 68.5054 58.7129C68.8245 58.4214 69.0243 58.0221 69.0665 57.592C69.2365 57.6125 69.4084 57.6125 69.5785 57.592C69.8844 57.5882 70.1839 57.5033 70.4463 57.3459C70.7087 57.1884 70.9245 56.9642 71.0718 56.696C71.3732 56.9418 71.7496 57.0773 72.1385 57.08C72.5236 57.0765 72.8965 56.9444 73.1979 56.7048C73.4994 56.4651 73.7122 56.1317 73.8025 55.7573C74.0044 55.8447 74.2225 55.8883 74.4425 55.8853C74.6722 55.8853 74.8997 55.8401 75.1119 55.7522C75.3242 55.6642 75.517 55.5354 75.6795 55.3729C75.8419 55.2105 75.9708 55.0177 76.0587 54.8054C76.1466 54.5932 76.1918 54.3657 76.1918 54.136C76.2141 53.9589 76.2141 53.7797 76.1918 53.6026C76.3753 53.6349 76.563 53.6349 76.7465 53.6026C77.1925 53.6035 77.6221 53.4339 77.9472 53.1286C78.2724 52.8232 78.4686 52.4052 78.4958 51.96C78.6307 51.9719 78.7663 51.9719 78.9012 51.96C79.3651 51.96 79.8101 51.7757 80.1381 51.4476C80.4662 51.1195 80.6505 50.6746 80.6505 50.2106C81.0576 50.1453 81.4286 49.9382 81.698 49.626C81.9673 49.3137 82.1176 48.9163 82.1225 48.504C82.1225 48.504 82.1225 48.376 82.1225 48.312C82.5026 48.2293 82.8431 48.0193 83.0875 47.7167C83.3319 47.414 83.4656 47.037 83.4665 46.648C83.5364 46.5012 83.6004 46.3518 83.6585 46.2C83.8558 46.0119 84.0026 45.7771 84.0852 45.5173C84.1486 45.2508 84.1486 44.9731 84.0852 44.7066C84.0852 44.7066 84.0852 44.536 84.0852 44.4506C84.3695 44.2633 84.5922 43.9961 84.7252 43.6826Z" fill="#212121" stroke="#212121" stroke-width="2" mask="url(#path-2-inside-1_532_9103)"/>
<path d="M75.3815 61.816C74.1233 60.575 72.5766 59.666 70.8802 59.1707C70.8449 59.6635 70.6578 60.1333 70.3445 60.5153C70.0312 60.8974 69.6072 61.1729 69.1308 61.304C68.8454 61.3256 68.5585 61.2895 68.2873 61.1979C68.016 61.1062 67.766 60.9609 67.5522 60.7707C67.4455 62.1573 65.6322 62.392 64.6082 62.0507H64.1602C64.1723 62.1855 64.1723 62.3212 64.1602 62.456C64.1478 62.9459 63.9997 63.4227 63.7322 63.8332C63.4648 64.2438 63.0886 64.5721 62.6455 64.7813C62.9113 65.2881 63.0504 65.8517 63.0508 66.424C63.0397 66.9339 62.9283 67.4367 62.7229 67.9035C62.5174 68.3703 62.222 68.7921 61.8535 69.1448C61.4851 69.4974 61.0507 69.774 60.5753 69.9587C60.0999 70.1434 59.5927 70.2327 59.0828 70.2213C58.6305 70.2124 58.1831 70.1258 57.7602 69.9653C57.4551 70.6831 56.9431 71.2936 56.2896 71.7192C55.6361 72.1447 54.8706 72.366 54.0908 72.3547C53.5327 72.3531 52.9809 72.237 52.4695 72.0133C52.1074 72.5471 51.6212 72.985 51.0528 73.2897C50.4843 73.5944 49.8504 73.7567 49.2055 73.7627C48.6956 73.774 48.1884 73.6848 47.713 73.5C47.2376 73.3153 46.8033 73.0387 46.4348 72.6861C46.0663 72.3335 45.7709 71.9117 45.5654 71.4448C45.36 70.978 45.2486 70.4753 45.2375 69.9653C43.6864 69.9434 42.2047 69.319 41.1058 68.224C40.0069 67.1291 39.377 65.6497 39.3495 64.0987C39.3526 62.8594 39.7567 61.6545 40.5015 60.664C40.0634 60.5862 39.6607 60.3734 39.3495 60.0554C39.0384 59.7374 38.8345 59.3301 38.7663 58.8905C38.6981 58.4508 38.7691 58.0009 38.9693 57.6036C39.1695 57.2063 39.4889 56.8815 39.8828 56.6747C39.8828 56.504 39.8828 56.3333 39.8828 56.1627C39.8391 55.4897 39.9555 54.8159 40.2225 54.1967C40.4895 53.5774 40.8995 53.0302 41.4188 52.6C41.6464 52.4012 41.9061 52.2425 42.1868 52.1307C41.2695 52.1307 40.0535 51.064 39.4562 49.4853C39.1074 48.933 38.9223 48.2932 38.9223 47.64C38.9223 46.9868 39.1074 46.347 39.4562 45.7947C38.253 46.1333 37.1485 46.7551 36.2348 47.608C35.175 48.7972 34.36 50.1838 33.8365 51.6883C33.313 53.1928 33.0914 54.7857 33.1842 56.376C33.1003 59.5753 33.6594 62.7588 34.8283 65.738C35.9973 68.7172 37.7523 71.4315 39.9895 73.72C42.0901 75.8329 44.9066 77.0813 47.8828 77.2187H48.1815C56.1388 77.3893 59.6802 72.952 62.2402 69.56C64.3735 66.7227 65.3975 65.6987 67.4882 65.6987C72.6082 65.6987 72.6508 74.936 72.6508 75.4053C72.6985 75.8359 72.8309 76.2528 73.0403 76.632C73.2498 77.0113 73.5321 77.3453 73.8712 77.615C74.2103 77.8846 74.5993 78.0846 75.0159 78.2033C75.4326 78.322 75.8686 78.3571 76.2988 78.3067C79.3922 78.3067 79.9895 76.1733 79.9895 75.512C79.9895 74.8507 80.2028 66.5947 75.3815 61.816Z" fill="#212121"/>
<path d="M43.3036 51.4848C44.184 51.1164 44.3445 49.4961 43.6622 47.8658C42.9799 46.2355 41.7132 45.2125 40.8328 45.581C39.9524 45.9494 39.7919 47.5697 40.4742 49.2C41.1565 50.8303 42.4233 51.8532 43.3036 51.4848Z" fill="#212121"/>
</g>
<path d="M30.954 113V102.818H34.2402C34.9627 102.818 35.5659 102.957 36.0498 103.236C36.537 103.511 36.9033 103.885 37.1486 104.359C37.3971 104.833 37.5214 105.367 37.5214 105.96C37.5214 106.554 37.3988 107.089 37.1535 107.566C36.9083 108.04 36.5437 108.416 36.0598 108.695C35.5759 108.97 34.9743 109.107 34.2551 109.107H31.6699V108.272H34.2302C34.7638 108.272 35.2063 108.173 35.5576 107.974C35.909 107.772 36.1708 107.496 36.3432 107.148C36.5188 106.8 36.6067 106.404 36.6067 105.96C36.6067 105.516 36.5188 105.12 36.3432 104.772C36.1708 104.424 35.9073 104.151 35.5527 103.952C35.2013 103.753 34.7556 103.653 34.2153 103.653H31.8836V113H30.954ZM41.7228 113.174C41.2621 113.174 40.8412 113.085 40.46 112.906C40.0789 112.723 39.7756 112.461 39.5502 112.12C39.3249 111.775 39.2122 111.358 39.2122 110.867C39.2122 110.489 39.2834 110.171 39.4259 109.913C39.5685 109.654 39.7706 109.442 40.0325 109.276C40.2943 109.111 40.6042 108.98 40.9622 108.884C41.3201 108.787 41.7145 108.713 42.1454 108.66C42.573 108.607 42.9342 108.56 43.2292 108.521C43.5275 108.481 43.7545 108.418 43.9103 108.332C44.0661 108.246 44.144 108.106 44.144 107.914V107.735C44.144 107.215 43.9882 106.805 43.6767 106.507C43.3684 106.205 42.9243 106.055 42.3443 106.055C41.7941 106.055 41.345 106.176 40.997 106.418C40.6523 106.66 40.4103 106.945 40.2711 107.273L39.4309 106.969C39.6033 106.552 39.8419 106.219 40.1468 105.97C40.4517 105.718 40.7931 105.538 41.171 105.428C41.5488 105.316 41.9316 105.259 42.3194 105.259C42.6111 105.259 42.9143 105.297 43.2292 105.374C43.5474 105.45 43.8424 105.582 44.1142 105.771C44.3859 105.957 44.6063 106.217 44.7754 106.552C44.9444 106.883 45.0289 107.304 45.0289 107.815V113H44.144V111.792H44.0893C43.9832 112.017 43.8258 112.236 43.617 112.448C43.4082 112.66 43.1463 112.834 42.8315 112.97C42.5166 113.106 42.1471 113.174 41.7228 113.174ZM41.8421 112.364C42.3128 112.364 42.7204 112.259 43.0651 112.05C43.4098 111.842 43.675 111.565 43.8606 111.22C44.0495 110.872 44.144 110.489 44.144 110.072V108.968C44.0777 109.031 43.9667 109.087 43.8109 109.137C43.6584 109.187 43.4811 109.232 43.2789 109.271C43.0801 109.308 42.8812 109.339 42.6823 109.366C42.4835 109.392 42.3045 109.415 42.1454 109.435C41.7145 109.488 41.3466 109.571 41.0417 109.684C40.7368 109.797 40.5031 109.952 40.3407 110.151C40.1783 110.347 40.0971 110.599 40.0971 110.907C40.0971 111.371 40.2628 111.731 40.5943 111.986C40.9257 112.238 41.3417 112.364 41.8421 112.364ZM48.3379 108.227V113H47.453V105.364H48.3131V106.562H48.3926C48.5716 106.171 48.85 105.857 49.2278 105.622C49.609 105.384 50.0796 105.264 50.6398 105.264C51.1535 105.264 51.6042 105.372 51.992 105.587C52.3831 105.799 52.6864 106.113 52.9018 106.527C53.1206 106.941 53.23 107.45 53.23 108.053V113H52.345V108.108C52.345 107.482 52.1694 106.986 51.818 106.621C51.47 106.257 51.0027 106.075 50.416 106.075C50.015 106.075 49.6587 106.161 49.3471 106.333C49.0356 106.505 48.7887 106.754 48.6064 107.079C48.4274 107.4 48.3379 107.783 48.3379 108.227ZM58.6133 113.159C57.9306 113.159 57.3356 112.988 56.8285 112.647C56.3248 112.306 55.9337 111.838 55.6553 111.245C55.3768 110.652 55.2376 109.976 55.2376 109.217C55.2376 108.451 55.3785 107.77 55.6602 107.173C55.9453 106.577 56.3397 106.109 56.8435 105.771C57.3472 105.43 57.9322 105.259 58.5984 105.259C59.1088 105.259 59.5712 105.359 59.9855 105.558C60.3998 105.753 60.7412 106.03 61.0097 106.388C61.2814 106.742 61.4521 107.157 61.5217 107.631H60.6268C60.534 107.2 60.3103 106.832 59.9557 106.527C59.6044 106.219 59.1569 106.065 58.6133 106.065C58.1261 106.065 57.6953 106.197 57.3207 106.462C56.9462 106.724 56.6529 107.09 56.4408 107.561C56.232 108.028 56.1276 108.57 56.1276 109.187C56.1276 109.807 56.2303 110.355 56.4358 110.832C56.6413 111.306 56.9296 111.678 57.3008 111.946C57.6754 112.214 58.1129 112.349 58.6133 112.349C58.9514 112.349 59.2597 112.286 59.5381 112.16C59.8198 112.031 60.0551 111.848 60.244 111.613C60.4363 111.378 60.5655 111.098 60.6318 110.773H61.5267C61.4604 111.233 61.2963 111.644 61.0345 112.006C60.776 112.364 60.4396 112.645 60.0253 112.851C59.6143 113.056 59.1437 113.159 58.6133 113.159ZM63.4934 113V105.364H64.3534V106.537H64.4181C64.5705 106.152 64.8357 105.843 65.2135 105.607C65.5947 105.369 66.0256 105.249 66.5061 105.249C66.5791 105.249 66.6603 105.251 66.7498 105.254C66.8392 105.258 66.9138 105.261 66.9735 105.264V106.164C66.9337 106.157 66.8641 106.147 66.7647 106.134C66.6652 106.121 66.5575 106.114 66.4415 106.114C66.0438 106.114 65.6891 106.199 65.3776 106.368C65.0694 106.534 64.8257 106.764 64.6468 107.059C64.4678 107.354 64.3783 107.69 64.3783 108.068V113H63.4934ZM71.4085 113.159C70.6959 113.159 70.0795 112.993 69.5591 112.662C69.0387 112.327 68.636 111.865 68.351 111.275C68.0693 110.682 67.9284 109.999 67.9284 109.227C67.9284 108.458 68.0693 107.775 68.351 107.178C68.636 106.578 69.0288 106.109 69.5293 105.771C70.0331 105.43 70.6147 105.259 71.2743 105.259C71.6886 105.259 72.088 105.335 72.4724 105.488C72.8569 105.637 73.2016 105.867 73.5065 106.179C73.8148 106.487 74.0584 106.877 74.2374 107.347C74.4163 107.815 74.5058 108.368 74.5058 109.008V109.445H68.5399V108.665H73.601C73.601 108.174 73.5016 107.733 73.3027 107.342C73.1072 106.948 72.8337 106.636 72.4824 106.408C72.1344 106.179 71.7317 106.065 71.2743 106.065C70.7904 106.065 70.3645 106.194 69.9966 106.452C69.6287 106.711 69.3403 107.052 69.1315 107.477C68.926 107.901 68.8216 108.365 68.8183 108.869V109.336C68.8183 109.942 68.9227 110.473 69.1315 110.927C69.3437 111.378 69.6436 111.727 70.0314 111.976C70.4192 112.224 70.8782 112.349 71.4085 112.349C71.7698 112.349 72.0863 112.292 72.3581 112.18C72.6332 112.067 72.8635 111.916 73.0492 111.727C73.2381 111.535 73.3806 111.325 73.4767 111.096L74.3169 111.369C74.2009 111.691 74.0103 111.987 73.7452 112.259C73.4833 112.531 73.1552 112.75 72.7608 112.915C72.3697 113.078 71.9189 113.159 71.4085 113.159ZM78.6587 113.174C78.198 113.174 77.7771 113.085 77.396 112.906C77.0148 112.723 76.7115 112.461 76.4862 112.12C76.2608 111.775 76.1481 111.358 76.1481 110.867C76.1481 110.489 76.2194 110.171 76.3619 109.913C76.5044 109.654 76.7066 109.442 76.9684 109.276C77.2302 109.111 77.5401 108.98 77.8981 108.884C78.2561 108.787 78.6505 108.713 79.0813 108.66C79.5089 108.607 79.8702 108.56 80.1651 108.521C80.4634 108.481 80.6905 108.418 80.8462 108.332C81.002 108.246 81.0799 108.106 81.0799 107.914V107.735C81.0799 107.215 80.9241 106.805 80.6126 106.507C80.3043 106.205 79.8602 106.055 79.2802 106.055C78.73 106.055 78.2809 106.176 77.9329 106.418C77.5882 106.66 77.3462 106.945 77.207 107.273L76.3668 106.969C76.5392 106.552 76.7778 106.219 77.0828 105.97C77.3877 105.718 77.7291 105.538 78.1069 105.428C78.4847 105.316 78.8676 105.259 79.2553 105.259C79.547 105.259 79.8503 105.297 80.1651 105.374C80.4833 105.45 80.7783 105.582 81.0501 105.771C81.3219 105.957 81.5423 106.217 81.7113 106.552C81.8803 106.883 81.9649 107.304 81.9649 107.815V113H81.0799V111.792H81.0252C80.9192 112.017 80.7617 112.236 80.5529 112.448C80.3441 112.66 80.0823 112.834 79.7674 112.97C79.4525 113.106 79.083 113.174 78.6587 113.174ZM78.7781 112.364C79.2487 112.364 79.6564 112.259 80.0011 112.05C80.3458 111.842 80.6109 111.565 80.7965 111.22C80.9855 110.872 81.0799 110.489 81.0799 110.072V108.968C81.0136 109.031 80.9026 109.087 80.7468 109.137C80.5944 109.187 80.417 109.232 80.2149 109.271C80.016 109.308 79.8171 109.339 79.6183 109.366C79.4194 109.392 79.2404 109.415 79.0813 109.435C78.6505 109.488 78.2826 109.571 77.9776 109.684C77.6727 109.797 77.4391 109.952 77.2766 110.151C77.1142 110.347 77.033 110.599 77.033 110.907C77.033 111.371 77.1988 111.731 77.5302 111.986C77.8616 112.238 78.2776 112.364 78.7781 112.364ZM89.5196 107.039L88.7092 107.268C88.6297 107.039 88.517 106.832 88.3712 106.646C88.2253 106.461 88.0347 106.313 87.7994 106.204C87.5674 106.094 87.2791 106.04 86.9344 106.04C86.4173 106.04 85.9931 106.162 85.6616 106.408C85.3302 106.653 85.1645 106.969 85.1645 107.357C85.1645 107.685 85.2772 107.952 85.5025 108.158C85.7312 108.36 86.0826 108.521 86.5565 108.64L87.7099 108.923C88.3496 109.079 88.8285 109.326 89.1467 109.664C89.4682 110.002 89.629 110.426 89.629 110.937C89.629 111.368 89.5097 111.75 89.271 112.085C89.0324 112.42 88.6993 112.683 88.2717 112.876C87.8475 113.065 87.3553 113.159 86.7952 113.159C86.0494 113.159 85.4346 112.992 84.9507 112.657C84.4668 112.319 84.1569 111.832 84.021 111.195L84.8712 110.987C84.9805 111.441 85.1943 111.784 85.5125 112.016C85.834 112.248 86.2566 112.364 86.7802 112.364C87.3669 112.364 87.8359 112.233 88.1872 111.971C88.5385 111.706 88.7142 111.374 88.7142 110.977C88.7142 110.668 88.6115 110.41 88.406 110.201C88.2005 109.989 87.8889 109.833 87.4713 109.734L86.2234 109.435C85.5606 109.276 85.07 109.024 84.7518 108.68C84.4337 108.335 84.2746 107.907 84.2746 107.397C84.2746 106.976 84.3889 106.607 84.6176 106.288C84.8463 105.967 85.1612 105.715 85.5622 105.533C85.9632 105.35 86.4206 105.259 86.9344 105.259C87.6337 105.259 88.1922 105.418 88.6098 105.737C89.0307 106.051 89.334 106.486 89.5196 107.039Z" fill="#212121"/>
<defs>
<clipPath id="clip0_532_9103">
<rect width="64" height="64" fill="white" transform="translate(28 27)"/>
</clipPath>
</defs>
</svg>
