<svg width="120" height="144" viewBox="0 0 120 144" fill="none" xmlns="http://www.w3.org/2000/svg">
<rect width="120" height="144" rx="4" fill="#FAFAFA"/>
<path d="M75.4669 42.8933C75.4911 41.569 76.0172 40.3033 76.9389 39.352L80.8216 35.5333L79.8829 34.5733L77.7496 32.44L73.9096 36.3013C73.3561 36.8162 72.6976 37.2049 71.9794 37.4406C71.2612 37.6763 70.5005 37.7534 69.7496 37.6666C66.572 35.9786 63.0222 35.1131 59.4242 35.1493C55.7972 35.0969 52.2159 35.9629 49.0136 37.6666C48.3109 37.6896 47.6108 37.5711 46.9548 37.3182C46.2989 37.0654 45.7004 36.6833 45.1949 36.1946L41.3122 32.2906L40.3736 33.2506L38.2402 35.384L42.0162 39.3093C42.9131 40.2425 43.4368 41.472 43.4882 42.7653C42.4735 44.3762 41.9269 46.2376 41.9096 48.1413C41.9096 54.0933 47.2429 59.1066 54.5389 60.6853C55.3324 61.1382 55.9951 61.7889 56.4624 62.574C56.9297 63.3591 57.1857 64.2519 57.2056 65.1653V81.3573H61.6429V65.2293C61.6624 64.297 61.927 63.3862 62.4101 62.5886C62.8932 61.7909 63.5777 61.1345 64.3949 60.6853C65.1538 60.5173 65.9018 60.3035 66.6349 60.0453V60.0453C72.6936 57.912 76.9176 53.4533 76.9176 48.1413C76.8391 46.3045 76.343 44.5097 75.4669 42.8933V42.8933Z" stroke="#212121" stroke-miterlimit="10"/>
<path d="M57.8671 68.472C58.6351 70.6053 57.8671 79.1386 56.2457 79.7573C54.6244 80.376 49.9951 77.3253 48.2458 72.2906C46.4964 67.256 47.6058 63.3306 51.6591 61.88C55.7124 60.4293 56.0538 63.416 57.8671 68.472Z" fill="#212121"/>
<path d="M61.1949 68.472C60.4269 70.6053 61.0882 79.1386 62.8375 79.7573C64.5869 80.376 69.0669 77.3253 70.8375 72.2906C72.6082 67.256 71.4562 63.3306 67.4029 61.88C63.3495 60.4293 62.9442 63.416 61.1949 68.472Z" fill="#212121"/>
<path d="M33.6883 113V102.818H36.9745C37.6971 102.818 38.3003 102.957 38.7842 103.236C39.2714 103.511 39.6377 103.885 39.8829 104.359C40.1315 104.833 40.2558 105.367 40.2558 105.96C40.2558 106.554 40.1332 107.089 39.8879 107.566C39.6426 108.04 39.2781 108.416 38.7942 108.695C38.3102 108.97 37.7087 109.107 36.9895 109.107H34.4042V108.272H36.9646C37.4982 108.272 37.9407 108.173 38.292 107.974C38.6433 107.772 38.9052 107.496 39.0775 107.148C39.2532 106.8 39.341 106.404 39.341 105.96C39.341 105.516 39.2532 105.12 39.0775 104.772C38.9052 104.424 38.6417 104.151 38.287 103.952C37.9357 103.753 37.4899 103.653 36.9497 103.653H34.618V113H33.6883ZM42.3244 113V105.364H43.1845V106.537H43.2491C43.4016 106.152 43.6667 105.843 44.0445 105.607C44.4257 105.369 44.8566 105.249 45.3372 105.249C45.4101 105.249 45.4913 105.251 45.5808 105.254C45.6703 105.258 45.7448 105.261 45.8045 105.264V106.164C45.7647 106.157 45.6951 106.147 45.5957 106.134C45.4963 106.121 45.3885 106.114 45.2725 106.114C44.8748 106.114 44.5202 106.199 44.2086 106.368C43.9004 106.534 43.6568 106.764 43.4778 107.059C43.2988 107.354 43.2093 107.69 43.2093 108.068V113H42.3244ZM50.1202 113.159C49.4607 113.159 48.8773 112.992 48.3702 112.657C47.8664 112.322 47.472 111.86 47.187 111.27C46.902 110.677 46.7594 109.992 46.7594 109.217C46.7594 108.434 46.902 107.747 47.187 107.153C47.472 106.557 47.8664 106.093 48.3702 105.761C48.8773 105.427 49.4607 105.259 50.1202 105.259C50.7798 105.259 51.3615 105.427 51.8653 105.761C52.369 106.096 52.7635 106.56 53.0485 107.153C53.3368 107.747 53.481 108.434 53.481 109.217C53.481 109.992 53.3385 110.677 53.0535 111.27C52.7684 111.86 52.3724 112.322 51.8653 112.657C51.3615 112.992 50.7798 113.159 50.1202 113.159ZM50.1202 112.349C50.6505 112.349 51.0996 112.206 51.4675 111.921C51.8354 111.636 52.1138 111.257 52.3028 110.783C52.495 110.309 52.5911 109.787 52.5911 109.217C52.5911 108.647 52.495 108.123 52.3028 107.646C52.1138 107.168 51.8354 106.786 51.4675 106.497C51.0996 106.209 50.6505 106.065 50.1202 106.065C49.5932 106.065 49.1441 106.209 48.7729 106.497C48.405 106.786 48.125 107.168 47.9327 107.646C47.7438 108.123 47.6493 108.647 47.6493 109.217C47.6493 109.787 47.7438 110.309 47.9327 110.783C48.125 111.257 48.405 111.636 48.7729 111.921C49.1408 112.206 49.5899 112.349 50.1202 112.349ZM60.6244 107.039L59.814 107.268C59.7344 107.039 59.6218 106.832 59.4759 106.646C59.3301 106.461 59.1395 106.313 58.9042 106.204C58.6722 106.094 58.3838 106.04 58.0391 106.04C57.5221 106.04 57.0978 106.162 56.7664 106.408C56.435 106.653 56.2692 106.969 56.2692 107.357C56.2692 107.685 56.3819 107.952 56.6073 108.158C56.836 108.36 57.1873 108.521 57.6613 108.64L58.8147 108.923C59.4544 109.079 59.9333 109.326 60.2515 109.664C60.573 110.002 60.7337 110.426 60.7337 110.937C60.7337 111.368 60.6144 111.75 60.3758 112.085C60.1371 112.42 59.804 112.683 59.3765 112.876C58.9522 113.065 58.4601 113.159 57.8999 113.159C57.1542 113.159 56.5394 112.992 56.0555 112.657C55.5716 112.319 55.2617 111.832 55.1258 111.195L55.9759 110.987C56.0853 111.441 56.2991 111.784 56.6173 112.016C56.9387 112.248 57.3613 112.364 57.885 112.364C58.4717 112.364 58.9406 112.233 59.292 111.971C59.6433 111.706 59.819 111.374 59.819 110.977C59.819 110.668 59.7162 110.41 59.5107 110.201C59.3052 109.989 58.9937 109.833 58.5761 109.734L57.3282 109.435C56.6653 109.276 56.1748 109.024 55.8566 108.68C55.5384 108.335 55.3793 107.907 55.3793 107.397C55.3793 106.976 55.4937 106.607 55.7224 106.288C55.9511 105.967 56.2659 105.715 56.667 105.533C57.068 105.35 57.5254 105.259 58.0391 105.259C58.7385 105.259 59.2969 105.418 59.7146 105.737C60.1355 106.051 60.4387 106.486 60.6244 107.039ZM65.7492 105.364V106.134H62.105V105.364H65.7492ZM63.2435 103.534H64.1335V111.006C64.1335 111.325 64.1881 111.575 64.2975 111.757C64.4069 111.936 64.5494 112.064 64.7251 112.14C64.9007 112.213 65.088 112.249 65.2869 112.249C65.4029 112.249 65.5023 112.243 65.5852 112.229C65.668 112.213 65.7409 112.196 65.8039 112.18L65.9928 112.98C65.9067 113.013 65.8006 113.043 65.6746 113.07C65.5487 113.099 65.3929 113.114 65.2073 113.114C64.8825 113.114 64.5693 113.043 64.2677 112.901C63.9694 112.758 63.7241 112.546 63.5319 112.264C63.3397 111.982 63.2435 111.633 63.2435 111.215V103.534ZM69.9618 113.174C69.5011 113.174 69.0802 113.085 68.699 112.906C68.3179 112.723 68.0146 112.461 67.7892 112.12C67.5638 111.775 67.4511 111.358 67.4511 110.867C67.4511 110.489 67.5224 110.171 67.6649 109.913C67.8074 109.654 68.0096 109.442 68.2715 109.276C68.5333 109.111 68.8432 108.98 69.2011 108.884C69.5591 108.787 69.9535 108.713 70.3844 108.66C70.8119 108.607 71.1732 108.56 71.4682 108.521C71.7665 108.481 71.9935 108.418 72.1493 108.332C72.3051 108.246 72.383 108.106 72.383 107.914V107.735C72.383 107.215 72.2272 106.805 71.9156 106.507C71.6074 106.205 71.1633 106.055 70.5832 106.055C70.0331 106.055 69.584 106.176 69.2359 106.418C68.8912 106.66 68.6493 106.945 68.5101 107.273L67.6699 106.969C67.8422 106.552 68.0809 106.219 68.3858 105.97C68.6907 105.718 69.0321 105.538 69.4099 105.428C69.7878 105.316 70.1706 105.259 70.5584 105.259C70.8501 105.259 71.1533 105.297 71.4682 105.374C71.7864 105.45 72.0814 105.582 72.3531 105.771C72.6249 105.957 72.8453 106.217 73.0144 106.552C73.1834 106.883 73.2679 107.304 73.2679 107.815V113H72.383V111.792H72.3283C72.2222 112.017 72.0648 112.236 71.856 112.448C71.6472 112.66 71.3853 112.834 71.0705 112.97C70.7556 113.106 70.386 113.174 69.9618 113.174ZM70.0811 112.364C70.5518 112.364 70.9594 112.259 71.3041 112.05C71.6488 111.842 71.914 111.565 72.0996 111.22C72.2885 110.872 72.383 110.489 72.383 110.072V108.968C72.3167 109.031 72.2056 109.087 72.0499 109.137C71.8974 109.187 71.7201 109.232 71.5179 109.271C71.319 109.308 71.1202 109.339 70.9213 109.366C70.7224 109.392 70.5435 109.415 70.3844 109.435C69.9535 109.488 69.5856 109.571 69.2807 109.684C68.9758 109.797 68.7421 109.952 68.5797 110.151C68.4173 110.347 68.3361 110.599 68.3361 110.907C68.3361 111.371 68.5018 111.731 68.8332 111.986C69.1647 112.238 69.5806 112.364 70.0811 112.364ZM78.6998 105.364V106.134H75.0556V105.364H78.6998ZM76.1941 103.534H77.084V111.006C77.084 111.325 77.1387 111.575 77.2481 111.757C77.3574 111.936 77.5 112.064 77.6756 112.14C77.8513 112.213 78.0385 112.249 78.2374 112.249C78.3534 112.249 78.4528 112.243 78.5357 112.229C78.6186 112.213 78.6915 112.196 78.7545 112.18L78.9434 112.98C78.8572 113.013 78.7511 113.043 78.6252 113.07C78.4992 113.099 78.3435 113.114 78.1579 113.114C77.8331 113.114 77.5198 113.043 77.2182 112.901C76.9199 112.758 76.6747 112.546 76.4824 112.264C76.2902 111.982 76.1941 111.633 76.1941 111.215V103.534ZM83.7849 113.159C83.0723 113.159 82.4558 112.993 81.9354 112.662C81.4151 112.327 81.0124 111.865 80.7273 111.275C80.4456 110.682 80.3048 109.999 80.3048 109.227C80.3048 108.458 80.4456 107.775 80.7273 107.178C81.0124 106.578 81.4051 106.109 81.9056 105.771C82.4094 105.43 82.9911 105.259 83.6506 105.259C84.0649 105.259 84.4643 105.335 84.8488 105.488C85.2333 105.637 85.578 105.867 85.8829 106.179C86.1911 106.487 86.4347 106.877 86.6137 107.347C86.7927 107.815 86.8822 108.368 86.8822 109.008V109.445H80.9163V108.665H85.9773C85.9773 108.174 85.8779 107.733 85.679 107.342C85.4835 106.948 85.2101 106.636 84.8587 106.408C84.5107 106.179 84.108 106.065 83.6506 106.065C83.1667 106.065 82.7408 106.194 82.3729 106.452C82.005 106.711 81.7167 107.052 81.5079 107.477C81.3024 107.901 81.198 108.365 81.1947 108.869V109.336C81.1947 109.942 81.2991 110.473 81.5079 110.927C81.72 111.378 82.0199 111.727 82.4077 111.976C82.7955 112.224 83.2546 112.349 83.7849 112.349C84.1461 112.349 84.4627 112.292 84.7344 112.18C85.0095 112.067 85.2399 111.916 85.4255 111.727C85.6144 111.535 85.7569 111.325 85.853 111.096L86.6932 111.369C86.5772 111.691 86.3867 111.987 86.1215 112.259C85.8597 112.531 85.5316 112.75 85.1371 112.915C84.746 113.078 84.2953 113.159 83.7849 113.159Z" fill="#212121"/>
</svg>
