<svg width="128" height="128" viewBox="0 0 128 128" fill="none" xmlns="http://www.w3.org/2000/svg">
<rect width="128" height="128" fill="#444A65"/>
<mask id="mask0_2889_4928" style="mask-type:alpha" maskUnits="userSpaceOnUse" x="40" y="40" width="48" height="48">
<rect x="40" y="40" width="48" height="48" fill="#D9D9D9"/>
</mask>
<g mask="url(#mask0_2889_4928)">
<path d="M54 82L51.85 79.85L56.15 75.55C52.55 75.7833 49.2917 74.6083 46.375 72.025C43.4583 69.4417 42 66.1 42 62C42 58.1 43.3583 54.7917 46.075 52.075C48.7917 49.3583 52.1 48 56 48H62V51H56C52.9667 51 50.375 52.075 48.225 54.225C46.075 56.375 45 58.9667 45 62C45 65.1333 46.0917 67.7 48.275 69.7C50.4583 71.7 53.1333 72.6667 56.3 72.6L51.85 68.15L54 66L62 74L54 82ZM66 80V66H84V80H66ZM66 62V48H84V62H66ZM69 59H81V51H69V59Z" fill="white"/>
</g>
</svg>
