<svg width="160" height="160" viewBox="0 0 160 160" fill="none" xmlns="http://www.w3.org/2000/svg">
<rect width="160" height="160" fill="#444A65"/>
<path d="M112.444 65.202C115.925 72.3386 116.795 80.5197 116.795 88.5266C116.795 111.503 95.7337 128.735 74.4979 122.121C67.3613 119.858 57.0915 110.111 52.7399 103.844C51.5215 102.104 56.2212 105.759 57.7878 104.54C63.1838 102.278 66.491 105.933 70.3204 108.022C87.0305 116.551 101.652 110.111 104.611 92.8782C106.004 84.6972 103.393 77.2124 100.608 69.5536C99.5631 64.3317 99.3891 59.2838 106.7 57.3691C108.767 59.8644 110.686 62.4799 112.444 65.202Z" fill="white"/>
<path d="M106.7 57.3698C105.307 62.4176 108.441 66.7692 109.485 71.469C103.393 74.0799 101.13 70.0765 98.8671 66.4211C96.3399 61.9784 93.1728 57.9316 89.4677 54.4107C79.546 45.3594 68.58 45.0112 58.3102 53.5404C55.5252 55.8032 53.9586 59.2845 49.4329 59.4585C48.8436 59.4507 48.262 59.3232 47.7235 59.0839C47.1849 58.8445 46.7005 58.4982 46.2998 58.066C48.7367 40.6596 67.3615 31.4342 85.2901 39.2671C94.1506 42.9035 101.641 49.2371 106.7 57.3698Z" fill="white"/>
<path d="M58.6586 105.586C58.1364 106.63 58.1364 109.415 57.2661 108.719C45.4297 99.8415 41.7744 68.51 46.3 58.0662C46.4741 57.544 47.5185 58.4143 48.0407 58.5883C52.3923 59.8068 53.6107 63.114 53.7848 66.5953C54.481 77.9094 55.5254 89.0495 60.7473 99.6674C61.7917 101.756 60.7473 104.019 58.6586 105.586Z" fill="white"/>
<path d="M91.2089 83.4794C85.987 78.7797 88.2498 69.2062 78.8504 68.5099C77.4578 68.3359 72.7581 68.51 73.1063 67.2915C73.3177 66.7365 73.6441 66.2324 74.0641 65.8124C74.4841 65.3924 74.9881 65.066 75.5431 64.8546C80.4169 62.9399 83.7241 65.0287 87.5536 69.7284C90.4116 73.8072 91.9322 78.6731 91.9052 83.6535L91.2089 83.4794Z" fill="white"/>
<path d="M91.7308 82.7834C91.8178 83.5351 91.8178 84.2944 91.7308 85.0462C91.5567 86.0906 91.3826 87.6572 89.9901 87.309C88.5976 86.9609 89.2939 85.5684 89.8161 84.524C90.1642 83.8277 90.6864 83.3055 91.0345 82.6093C91.0345 82.4352 91.7308 82.7834 91.7308 82.7834Z" fill="white"/>
<path d="M54.6546 42.7477C41.4258 50.7547 42.122 68.3351 44.733 81.564C46.069 88.2698 48.2934 94.7674 51.3474 100.885C54.3065 106.629 58.484 112.721 64.2281 115.855C65.9688 116.899 67.5354 114.636 66.3169 113.07C62.4875 108.196 58.31 104.018 55.5249 98.4482C52.8119 93.1241 50.8775 87.438 49.7808 81.564C47.1699 69.2054 46.2995 54.2359 56.3953 45.0105C56.6327 44.7609 56.773 44.4345 56.791 44.0905C56.809 43.7464 56.7034 43.4072 56.4934 43.1342C56.2833 42.8611 55.9826 42.6721 55.6454 42.6012C55.3082 42.5303 54.9568 42.5823 54.6546 42.7477Z" fill="white"/>
</svg>
