<svg width="128" height="128" viewBox="0 0 128 128" fill="none" xmlns="http://www.w3.org/2000/svg">
<rect width="128" height="128" fill="#444A65"/>
<path d="M96.4434 49.202C99.9247 56.3386 100.795 64.5197 100.795 72.5266C100.795 95.503 79.7332 112.735 58.4974 106.121C51.3608 103.858 41.091 94.1105 36.7394 87.8442C35.521 86.1036 40.2207 89.7589 41.7873 88.5405C47.1833 86.2776 50.4905 89.933 54.3199 92.0218C71.03 100.551 85.6514 94.1105 88.6105 76.8782C90.003 68.6972 87.3921 61.2124 84.607 53.5536C83.5626 48.3317 83.3886 43.2838 90.6993 41.3691C92.767 43.8644 94.6851 46.4799 96.4434 49.202Z" fill="white"/>
<path d="M90.7 41.3698C89.3075 46.4176 92.4406 50.7692 93.485 55.469C87.3928 58.0799 85.1299 54.0765 82.8671 50.4211C80.3399 45.9784 77.1728 41.9316 73.4677 38.4107C63.546 29.3594 52.58 29.0112 42.3102 37.5404C39.5252 39.8032 37.9586 43.2845 33.4329 43.4585C32.8436 43.4507 32.262 43.3232 31.7235 43.0839C31.1849 42.8445 30.7005 42.4982 30.2998 42.066C32.7367 24.6596 51.3615 15.4342 69.2901 23.2671C78.1506 26.9035 85.6413 33.2371 90.7 41.3698Z" fill="white"/>
<path d="M42.6591 89.5856C42.1369 90.63 42.1369 93.415 41.2665 92.7187C29.4302 83.8415 25.7749 52.51 30.3005 42.0662C30.4746 41.544 31.519 42.4143 32.0412 42.5883C36.3928 43.8068 37.6112 47.114 37.7853 50.5953C38.4815 61.9094 39.5259 73.0495 44.7478 83.6674C45.7922 85.7562 44.7478 88.019 42.6591 89.5856Z" fill="white"/>
<path d="M75.2089 67.4794C69.987 62.7797 72.2498 53.2062 62.8504 52.5099C61.4578 52.3359 56.7581 52.51 57.1063 51.2915C57.3177 50.7365 57.6441 50.2324 58.0641 49.8124C58.4841 49.3924 58.9881 49.066 59.5431 48.8546C64.4169 46.9399 67.7241 49.0287 71.5536 53.7284C74.4116 57.8072 75.9322 62.6731 75.9052 67.6535L75.2089 67.4794Z" fill="white"/>
<path d="M75.7303 66.7834C75.8173 67.5351 75.8173 68.2944 75.7303 69.0462C75.5562 70.0906 75.3821 71.6572 73.9896 71.309C72.5971 70.9609 73.2934 69.5684 73.8156 68.524C74.1637 67.8277 74.6859 67.3055 75.034 66.6093C75.034 66.4352 75.7303 66.7834 75.7303 66.7834Z" fill="white"/>
<path d="M38.6546 26.7477C25.4258 34.7547 26.122 52.3351 28.733 65.564C30.069 72.2698 32.2934 78.7674 35.3474 84.8851C38.3065 90.6292 42.484 96.7214 48.2281 99.8546C49.9688 100.899 51.5354 98.6361 50.3169 97.0695C46.4875 92.1957 42.31 88.0182 39.5249 82.4482C36.8119 77.1241 34.8775 71.438 33.7808 65.564C31.1699 53.2054 30.2995 38.2359 40.3953 29.0105C40.6327 28.7609 40.773 28.4345 40.791 28.0905C40.809 27.7464 40.7034 27.4072 40.4934 27.1342C40.2833 26.8611 39.9826 26.6721 39.6454 26.6012C39.3082 26.5303 38.9568 26.5823 38.6546 26.7477Z" fill="white"/>
</svg>
