<svg width="128" height="128" viewBox="0 0 128 128" fill="none" xmlns="http://www.w3.org/2000/svg">
<rect width="128" height="128" fill="#444A65"/>
<path d="M60.2905 91.9532V30.2913C59.0169 28.5927 57.2011 27.3803 55.1441 26.8551C51.7237 26 48.2875 27.7102 46.5773 28.5653C44.8671 29.4204 44.8671 32.0015 44.8671 32.0015C42.3541 32.0401 39.9317 32.9464 38.0105 34.5668C35.4452 37.1321 38.0105 42.2785 38.0105 42.2785C38.0105 42.2785 34.5901 42.2785 31.1697 46.554C30.1898 47.9036 29.5917 49.4924 29.4385 51.1532C29.2852 52.8141 29.5824 54.4855 30.2988 55.9917C29.0182 56.8344 27.9604 57.9744 27.2159 59.3145C26.4714 60.6546 26.0622 62.155 26.0233 63.6875C25.9164 65.0334 26.1783 66.3829 26.781 67.591C27.3836 68.7991 28.3042 69.8201 29.4437 70.5441C27.9561 73.1373 27.3556 76.1453 27.7335 79.1109C28.5886 83.3864 34.5901 85.9675 34.5901 85.9675C34.5901 85.9675 33.735 90.243 36.3003 92.8083C38.3189 94.6427 40.6383 96.1158 43.1569 97.1629C43.1569 97.1629 49.1426 104.875 55.1441 100.583C61.1456 96.292 60.2905 91.9532 60.2905 91.9532Z" stroke="white" stroke-width="2" stroke-miterlimit="10"/>
<path d="M50.4409 52.128C50.4409 52.128 49.5858 46.9816 47.0047 44.4163C44.4236 41.851 37.5986 42.3102 37.5986 42.3102" stroke="white" stroke-width="2" stroke-miterlimit="10" stroke-linecap="round"/>
<path d="M29.4438 70.5439C30.8075 71.307 32.3298 71.7429 33.8907 71.8171C35.4515 71.8912 37.0083 71.6018 38.4382 70.9715" stroke="white" stroke-width="2" stroke-miterlimit="10" stroke-linecap="round"/>
<path d="M53.4337 71.3997C53.4337 71.3997 48.2873 70.5446 45.722 73.965C43.1567 77.3854 44.0118 83.3869 44.0118 83.3869" stroke="white" stroke-width="2" stroke-miterlimit="10" stroke-linecap="round"/>
<path d="M37.2344 58.1133C37.2344 58.1133 39.4671 62.8638 43.7584 62.9747C48.0497 63.0855 52.4677 58.9842 52.4677 58.9842" stroke="white" stroke-width="2" stroke-miterlimit="10" stroke-linecap="round"/>
<path d="M46.6089 32.002C48.1963 32.0478 49.7163 32.6536 50.9002 33.7121C51.8769 34.5991 52.4869 35.819 52.6104 37.1325" stroke="white" stroke-width="2" stroke-miterlimit="10" stroke-linecap="round"/>
<path d="M72.4676 60.6947H67.7329V40.2041V30.2913L74.5895 26L78.0891 28.8186L79.1975 29.6737" stroke="white" stroke-width="2" stroke-miterlimit="10"/>
<path d="M68.1606 41.6133L71.1218 41.645" stroke="white" stroke-width="2" stroke-miterlimit="10"/>
<path d="M82.3806 34.6616C84.3221 34.6616 85.896 33.0877 85.896 31.1462C85.896 29.2048 84.3221 27.6309 82.3806 27.6309C80.4391 27.6309 78.8652 29.2048 78.8652 31.1462C78.8652 33.0877 80.4391 34.6616 82.3806 34.6616Z" stroke="white" stroke-miterlimit="10"/>
<path d="M74.3679 44.6851C76.3094 44.6851 77.8833 43.1112 77.8833 41.1697C77.8833 39.2282 76.3094 37.6543 74.3679 37.6543C72.4264 37.6543 70.8525 39.2282 70.8525 41.1697C70.8525 43.1112 72.4264 44.6851 74.3679 44.6851Z" stroke="white" stroke-miterlimit="10"/>
<path d="M74.7952 74.7407C76.7367 74.7407 78.3106 73.1668 78.3106 71.2253C78.3106 69.2839 76.7367 67.71 74.7952 67.71C72.8537 67.71 71.2798 69.2839 71.2798 71.2253C71.2798 73.1668 72.8537 74.7407 74.7952 74.7407Z" stroke="white" stroke-miterlimit="10"/>
<path d="M77.2498 92.4761C79.1913 92.4761 80.7652 90.9022 80.7652 88.9607C80.7652 87.0192 79.1913 85.4453 77.2498 85.4453C75.3083 85.4453 73.7344 87.0192 73.7344 88.9607C73.7344 90.9022 75.3083 92.4761 77.2498 92.4761Z" stroke="white" stroke-miterlimit="10"/>
<path d="M89.2371 92.9029C91.1786 92.9029 92.7525 91.329 92.7525 89.3875C92.7525 87.446 91.1786 85.8721 89.2371 85.8721C87.2956 85.8721 85.7217 87.446 85.7217 89.3875C85.7217 91.329 87.2956 92.9029 89.2371 92.9029Z" stroke="white" stroke-miterlimit="10"/>
<path d="M97.2498 77.48C99.1913 77.48 100.765 75.9061 100.765 73.9646C100.765 72.0231 99.1913 70.4492 97.2498 70.4492C95.3083 70.4492 93.7344 72.0231 93.7344 73.9646C93.7344 75.9061 95.3083 77.48 97.2498 77.48Z" stroke="white" stroke-miterlimit="10"/>
<path d="M83.7263 82.9429C85.6678 82.9429 87.2417 81.369 87.2417 79.4275C87.2417 77.486 85.6678 75.9121 83.7263 75.9121C81.7848 75.9121 80.2109 77.486 80.2109 79.4275C80.2109 81.369 81.7848 82.9429 83.7263 82.9429Z" stroke="white" stroke-miterlimit="10"/>
<path d="M75.5398 64.6372C77.4813 64.6372 79.0552 63.0633 79.0552 61.1218C79.0552 59.1803 77.4813 57.6064 75.5398 57.6064C73.5983 57.6064 72.0244 59.1803 72.0244 61.1218C72.0244 63.0633 73.5983 64.6372 75.5398 64.6372Z" stroke="white" stroke-miterlimit="10"/>
<path d="M79.8152 55.2154C81.7567 55.2154 83.3306 53.6415 83.3306 51.7C83.3306 49.7585 81.7567 48.1846 79.8152 48.1846C77.8737 48.1846 76.2998 49.7585 76.2998 51.7C76.2998 53.6415 77.8737 55.2154 79.8152 55.2154Z" stroke="white" stroke-miterlimit="10"/>
<path d="M88.9993 42.437C90.9408 42.437 92.5147 40.8631 92.5147 38.9216C92.5147 36.9801 90.9408 35.4062 88.9993 35.4062C87.0578 35.4062 85.4839 36.9801 85.4839 38.9216C85.4839 40.8631 87.0578 42.437 88.9993 42.437Z" stroke="white" stroke-miterlimit="10"/>
<path d="M94.6843 52.397C96.6258 52.397 98.1997 50.8231 98.1997 48.8816C98.1997 46.9401 96.6258 45.3662 94.6843 45.3662C92.7428 45.3662 91.1689 46.9401 91.1689 48.8816C91.1689 50.8231 92.7428 52.397 94.6843 52.397Z" stroke="white" stroke-miterlimit="10"/>
<path d="M98.4846 65.3657C100.426 65.3657 102 63.7918 102 61.8504C102 59.9089 100.426 58.335 98.4846 58.335C96.5431 58.335 94.9692 59.9089 94.9692 61.8504C94.9692 63.7918 96.5431 65.3657 98.4846 65.3657Z" stroke="white" stroke-miterlimit="10"/>
<path d="M86.5291 71.6997C88.4706 71.6997 90.0444 70.1258 90.0444 68.1843C90.0444 66.2428 88.4706 64.6689 86.5291 64.6689C84.5876 64.6689 83.0137 66.2428 83.0137 68.1843C83.0137 70.1258 84.5876 71.6997 86.5291 71.6997Z" stroke="white" stroke-miterlimit="10"/>
<path d="M87.5266 61.2173C89.4681 61.2173 91.042 59.6434 91.042 57.7019C91.042 55.7604 89.4681 54.1865 87.5266 54.1865C85.5851 54.1865 84.0112 55.7604 84.0112 57.7019C84.0112 59.6434 85.5851 61.2173 87.5266 61.2173Z" stroke="white" stroke-miterlimit="10"/>
<path d="M78.4375 98.3822L77.7407 92.3174" stroke="white" stroke-width="2" stroke-miterlimit="10"/>
<path d="M81.8262 48.8816L86.5134 42.4209L88.8728 43.2127L92.1506 47.0922" stroke="white" stroke-width="2" stroke-miterlimit="10"/>
<path d="M89.3477 66.7753L94.9691 63.5449" stroke="white" stroke-width="2" stroke-miterlimit="10"/>
<path d="M71.0741 70.9873H67.7329V93.6631L74.162 100.947L83.1563 97.9545L86.9884 92.3013" stroke="white" stroke-width="2" stroke-miterlimit="10"/>
<path d="M96.3785 76.6084L95.1434 81.6756L87.3525 80.3772" stroke="white" stroke-width="2" stroke-miterlimit="10"/>
<path d="M90.8999 59.2383L94.9695 61.1543" stroke="white" stroke-width="2" stroke-miterlimit="10"/>
</svg>
