<svg width="128" height="128" viewBox="0 0 128 128" fill="none" xmlns="http://www.w3.org/2000/svg">
<rect width="128" height="128" fill="#444A65"/>
<mask id="mask0_2805_4907" style="mask-type:alpha" maskUnits="userSpaceOnUse" x="40" y="40" width="48" height="48">
<rect x="40" y="40" width="48" height="48" fill="#D9D9D9"/>
</mask>
<g mask="url(#mask0_2805_4907)">
<path d="M68 59.3V56.9C69.1 56.4333 70.225 56.0833 71.375 55.85C72.525 55.6167 73.7333 55.5 75 55.5C75.8667 55.5 76.7167 55.5667 77.55 55.7C78.3833 55.8333 79.2 56 80 56.2V58.4C79.2 58.1 78.3917 57.875 77.575 57.725C76.7583 57.575 75.9 57.5 75 57.5C73.7333 57.5 72.5167 57.6583 71.35 57.975C70.1833 58.2917 69.0667 58.7333 68 59.3ZM68 70.3V67.85C69.1 67.3833 70.225 67.0417 71.375 66.825C72.525 66.6083 73.7333 66.5 75 66.5C75.8667 66.5 76.7167 66.5667 77.55 66.7C78.3833 66.8333 79.2 67 80 67.2V69.4C79.2 69.1 78.3917 68.875 77.575 68.725C76.7583 68.575 75.9 68.5 75 68.5C73.7333 68.5 72.5167 68.65 71.35 68.95C70.1833 69.25 69.0667 69.7 68 70.3ZM68 64.8V62.4C69.1 61.9333 70.225 61.5833 71.375 61.35C72.525 61.1167 73.7333 61 75 61C75.8667 61 76.7167 61.0667 77.55 61.2C78.3833 61.3333 79.2 61.5 80 61.7V63.9C79.2 63.6 78.3917 63.375 77.575 63.225C76.7583 63.075 75.9 63 75 63C73.7333 63 72.5167 63.1583 71.35 63.475C70.1833 63.7917 69.0667 64.2333 68 64.8ZM52.4 73C54.2 73 55.9417 73.2083 57.625 73.625C59.3083 74.0417 60.9667 74.6667 62.6 75.5V54.15C61.1 53.15 59.475 52.375 57.725 51.825C55.975 51.275 54.2 51 52.4 51C51.1333 51 49.8917 51.1583 48.675 51.475C47.4583 51.7917 46.2333 52.1833 45 52.65V74.35C46.0333 73.8833 47.2083 73.5417 48.525 73.325C49.8417 73.1083 51.1333 73 52.4 73ZM65.6 75.5C67.2667 74.6667 68.9 74.0417 70.5 73.625C72.1 73.2083 73.8 73 75.6 73C76.8667 73 78.175 73.1 79.525 73.3C80.875 73.5 82.0333 73.7667 83 74.1V52.65C81.8667 52.0833 80.6667 51.6667 79.4 51.4C78.1333 51.1333 76.8667 51 75.6 51C73.8 51 72.0583 51.275 70.375 51.825C68.6917 52.375 67.1 53.15 65.6 54.15V75.5ZM64.1 80C62.4 78.7333 60.55 77.7583 58.55 77.075C56.55 76.3917 54.5 76.05 52.4 76.05C51.1667 76.05 49.9667 76.2 48.8 76.5C47.6333 76.8 46.4667 77.1667 45.3 77.6C44.5333 77.9667 43.7917 77.9167 43.075 77.45C42.3583 76.9833 42 76.3167 42 75.45V52.3C42 51.8 42.1167 51.3417 42.35 50.925C42.5833 50.5083 42.9333 50.1833 43.4 49.95C44.8 49.2833 46.2583 48.7917 47.775 48.475C49.2917 48.1583 50.8333 48 52.4 48C54.5 48 56.5417 48.2833 58.525 48.85C60.5083 49.4167 62.3667 50.2833 64.1 51.45C65.8 50.2833 67.625 49.4167 69.575 48.85C71.525 48.2833 73.5333 48 75.6 48C77.1667 48 78.7 48.1583 80.2 48.475C81.7 48.7917 83.15 49.2833 84.55 49.95C85.0167 50.1833 85.375 50.5083 85.625 50.925C85.875 51.3417 86 51.8 86 52.3V75.45C86 76.3833 85.625 77.0917 84.875 77.575C84.125 78.0583 83.3833 78.0667 82.65 77.6C81.5167 77.1333 80.3667 76.7583 79.2 76.475C78.0333 76.1917 76.8333 76.05 75.6 76.05C73.5 76.05 71.4833 76.4 69.55 77.1C67.6167 77.8 65.8 78.7667 64.1 80Z" fill="white"/>
</g>
</svg>
