<svg width="16" height="16" viewBox="0 0 16 16" fill="none" xmlns="http://www.w3.org/2000/svg">
<mask id="mask0_2016_4467" style="mask-type:alpha" maskUnits="userSpaceOnUse" x="0" y="0" width="16" height="16">
<rect width="16" height="16" fill="#D9D9D9"/>
</mask>
<g mask="url(#mask0_2016_4467)">
<mask id="mask1_2016_4467" style="mask-type:alpha" maskUnits="userSpaceOnUse" x="0" y="0" width="24" height="24">
<rect width="24" height="24" fill="#D9D9D9"/>
</mask>
<g mask="url(#mask1_2016_4467)">
<path d="M7.50005 4.91553L4.05389 8.3617C3.95474 8.46084 3.83872 8.50977 3.70582 8.50848C3.57291 8.5072 3.45475 8.45485 3.35134 8.35143C3.25476 8.24802 3.20476 8.13093 3.20134 8.00016C3.19791 7.8694 3.24791 7.75231 3.35134 7.6489L7.57825 3.42198C7.64064 3.35959 7.70645 3.31558 7.77569 3.28993C7.84491 3.26429 7.91969 3.25146 8.00004 3.25146C8.08038 3.25146 8.15516 3.26429 8.22439 3.28993C8.29362 3.31558 8.35943 3.35959 8.42182 3.42198L12.6487 7.6489C12.741 7.7412 12.7883 7.85551 12.7904 7.99183C12.7925 8.12815 12.7453 8.24802 12.6487 8.35143C12.5453 8.45485 12.4265 8.50657 12.2923 8.50657C12.1581 8.50657 12.0393 8.45485 11.9359 8.35143L8.50002 4.91553V12.5001C8.50002 12.642 8.45216 12.7608 8.35644 12.8565C8.26071 12.9523 8.14191 13.0001 8.00004 13.0001C7.85816 13.0001 7.73936 12.9523 7.64364 12.8565C7.54791 12.7608 7.50005 12.642 7.50005 12.5001V4.91553Z" fill="#201E3D"/>
</g>
</g>
</svg>
