<svg width="55" height="55" viewBox="0 0 55 55" fill="none" xmlns="http://www.w3.org/2000/svg">
<g clip-path="url(#clip0_1116_9718)">
<path d="M18.1084 5.81135C15.7113 4.07631 11.4181 5.89987 8.50229 9.84797C5.58648 13.7961 5.17504 18.3992 7.57209 20.1166C9.96914 21.8339 14.2624 20.0457 17.1782 16.0976C20.094 12.1495 20.5054 7.54639 18.1084 5.81135ZM16.3016 13.1587C16.2122 13.2826 16.0512 13.3358 15.9081 13.2826C15.9081 13.2826 15.8902 13.2826 15.8723 13.2826C15.7292 13.1764 15.6934 12.9817 15.8008 12.84C16.6594 11.3883 16.6952 10.4322 16.5342 10.3083C16.3732 10.1844 15.8902 10.2729 15.1747 10.7332C14.2445 11.3706 13.4216 12.1318 12.724 12.9994C10.9351 15.2655 10.6668 17.1599 10.8099 17.2838C10.953 17.4078 11.5612 17.3193 12.5987 16.5226C12.724 16.3986 12.9386 16.3986 13.046 16.5226C13.1712 16.6465 13.1712 16.8412 13.046 16.9652C11.8653 17.8858 10.7562 18.0274 10.3985 17.7265C10.0407 17.4255 9.98703 16.8943 10.1659 16.2216C10.6131 14.9114 11.3108 13.7075 12.2231 12.6807C12.9565 11.7246 13.833 10.8925 14.799 10.1844C15.9975 9.42306 16.6058 9.54699 16.9277 9.79486C17.7864 10.503 16.8025 12.3974 16.2838 13.1764L16.3016 13.1587Z" fill="currentColor"/>
<path d="M29.2885 38.3167L29.3412 38.3344H29.2885V38.3167Z" fill="blue"/>
<path d="M43.313 12.9285C39.7353 9.38763 33.0272 10.2374 28.3583 14.8583C26.2653 16.8589 24.8879 19.4792 24.3871 22.3119C25.3709 22.5066 26.7841 23.0024 28.0005 23.6751C27.7322 22.9315 27.6964 22.1348 27.8753 21.3558C27.9111 21.1611 28.1257 21.0372 28.3225 21.0726C28.3225 21.0726 28.3404 21.0726 28.3583 21.0726C28.5551 21.1257 28.6624 21.3204 28.6087 21.5152C28.2688 22.4712 28.5014 23.5158 29.1812 24.2594C29.9682 24.879 31.0416 25.0561 31.9896 24.6843C33.4386 24.2594 34.7266 23.4627 35.7641 22.3827C36.8553 21.3558 37.6603 20.0634 38.0896 18.6294C38.4653 17.691 38.3043 16.6288 37.6603 15.8498C37.2846 15.5134 36.8016 15.3009 36.3008 15.2832C36.0861 15.2655 35.943 15.0885 35.9609 14.876C35.9609 14.6813 36.1398 14.5219 36.3365 14.5219C37.0163 14.575 37.6424 14.8583 38.1254 15.3186C38.9661 16.2924 39.2166 17.6556 38.7515 18.8595C38.2864 20.4175 37.4277 21.8162 36.2471 22.9492C35.1022 24.1177 33.689 24.9676 32.1149 25.4456C31.7034 25.5518 31.0594 25.6049 30.6301 25.6226C30.5943 25.6049 30.5586 25.5518 30.5228 25.5341C32.1149 26.9505 32.6157 27.8888 33.2239 29.7124C33.528 30.6153 33.528 31.1464 33.528 31.1464C33.528 31.1464 37.6424 31.2526 42.4365 26.4016C42.7943 26.0298 43.1341 25.6226 43.4203 25.1977C46.1931 20.9309 46.2825 15.8675 43.313 12.9285Z" fill="currentColor"/>
<path d="M22.4014 22.3119C15.9795 21.4621 10.2909 24.4364 9.68274 28.951C9.07453 33.4657 13.7792 37.8387 20.1833 38.6885C26.6052 39.5383 32.2937 36.564 32.9019 32.0493C33.5101 27.5347 28.8055 23.1617 22.4014 22.3119ZM20.8809 33.5542C16.7487 33.0054 13.7613 30.8454 14.0475 28.7209C14.2085 27.4639 15.6038 26.4016 17.7683 25.9767C18.0009 25.9413 18.2155 26.1006 18.2513 26.3131C18.2871 26.5255 18.144 26.7557 17.9293 26.7911C16.1584 27.1275 14.9777 27.8888 14.8525 28.8094C14.6378 30.4028 17.4642 32.1556 20.9882 32.6336C24.5123 33.0939 27.6964 32.1556 27.9111 30.5444C28.0184 29.8186 27.5533 29.0927 26.6768 28.4199C26.4979 28.2783 26.4442 28.0304 26.5694 27.8357C26.7125 27.6586 26.963 27.6232 27.1419 27.7648C28.1615 28.3491 28.7697 29.4468 28.7339 30.5976C28.4477 32.7221 24.9774 34.0853 20.8451 33.5365L20.8809 33.5542Z" fill="currentColor"/>
<path d="M28.5908 38.6708C27.3923 38.1928 27.124 39.2019 27.0524 39.379C26.963 39.5737 27.0524 39.9632 27.7143 40.5652C28.5729 41.291 29.521 41.893 30.5407 42.3356C33.2239 43.628 35.0307 43.3625 35.1201 43.1677C35.2095 42.973 34.977 42.3887 33.9216 41.5566C33.7964 41.415 33.7964 41.2202 33.9216 41.0786C33.9216 41.0786 33.9395 41.0609 33.9573 41.0432C34.0826 40.937 34.2793 40.9547 34.3867 41.0786C35.5673 42.0169 36.0503 42.8844 35.782 43.5041C35.4779 43.9821 34.9054 44.23 34.3509 44.1415C32.9377 44.0352 31.5603 43.6457 30.3081 43.0084C29.2169 42.4949 28.2152 41.8399 27.3207 41.0432C26.2653 40.0517 26.158 39.6445 26.3905 39.1134C26.4442 38.9895 26.7125 38.8478 26.6052 38.7947C26.5336 38.7593 26.2653 38.8655 26.0864 38.9186C25.2278 39.1665 24.7806 39.2019 23.904 39.2904L22.8129 39.3613C21.99 42.0523 24.7627 45.4516 29.2169 47.1866C33.8142 48.9748 38.4116 48.1958 39.5028 45.4162C39.9321 43.8582 39.3597 41.9815 38.2864 40.7599C38.2327 40.7068 38.1611 40.6714 38.0896 40.6891C37.7139 40.7422 36.4796 40.9547 34.9412 40.8484C33.7606 40.7776 31.7392 40.4235 28.9486 38.8655L28.5908 38.6885V38.6708Z" fill="currentColor"/>
<path d="M42.2934 27.3222C41.9893 27.6232 41.0054 28.4553 41.0054 28.4553C41.0054 28.4553 43.2772 29.6061 43.2057 31.8546C43.0626 33.9968 40.3972 35.7673 37.1415 35.7673H36.587C35.1738 35.7141 33.7964 35.2892 32.5978 34.5279H32.5621C31.9539 35.484 31.131 36.3161 30.165 36.9889C30.165 36.9889 28.7339 37.8741 28.7339 38.0157C28.7339 38.1219 29.2527 38.3698 29.2527 38.3698C29.7536 38.6354 30.3618 38.9364 30.8627 39.2019C32.2759 39.7331 33.9216 40.3527 35.4242 40.3527C36.9269 40.3527 38.4474 40.1403 38.4474 40.1403C43.9212 39.5383 48.1071 36.263 48.1071 32.3326C47.8746 29.5353 46.1215 27.1098 43.5456 25.9767C43.5098 25.9767 43.4561 26.1006 43.2415 26.2954C43.2415 26.2954 42.6154 26.9681 42.2755 27.3045L42.2934 27.3222ZM40.4509 28.9864C39.4491 29.6946 38.4831 30.3497 36.4796 31.1464C35.4779 31.5536 33.9931 31.6421 33.6712 31.6421C33.6354 31.6421 33.5996 31.6775 33.5996 31.7129C33.4923 32.4565 33.2239 33.2355 32.9377 33.8552H32.9735C34.0468 34.5456 35.3348 34.8643 36.6049 34.9351H37.1236C39.9142 34.9351 42.2755 33.6427 42.3828 31.8723C42.5796 30.7392 41.5421 29.4822 40.4688 28.9864H40.4509Z" fill="currentColor"/>
</g>
<defs>
<clipPath id="clip0_1116_9718">
<rect width="42.1094" height="42.9688" fill="green" transform="translate(6.01562 5.15625)"/>
</clipPath>
</defs>
</svg>
