<svg width="54" height="55" viewBox="0 0 54 55" fill="none" xmlns="http://www.w3.org/2000/svg">
<g clip-path="url(#clip0_1116_9721)">
<g clip-path="url(#clip1_1116_9721)">
<path d="M51.9632 28.0976C50.2295 27.6439 48.7755 26.4529 48.0112 24.8081C47.1164 22.5017 39.8089 14.5049 33.098 10.4403C27.4869 7.13198 23.7213 1.36596 22.8824 -5.15625H17.7188L18.3153 39.1003C18.3526 41.3311 25.6041 44.0534 25.6041 44.0534C27.5055 44.6394 29.4443 45.0932 31.4016 45.4145C39.1751 46.1707 44.0406 43.7887 47.7689 36.4536C48.1976 35.2437 49.5398 33.3532 50.6956 33.1263C51.4972 33.0507 52.2242 32.6159 52.6902 31.9353C53.5291 30.6687 53.2122 28.9672 51.9632 28.0976ZM35.1486 17.3785C35.2977 17.1894 35.5027 17.1138 35.7451 17.1138C35.7637 17.1138 35.7824 17.1138 35.8197 17.1138C36.6212 17.1516 37.7211 18.0212 38.5413 19.269C38.9141 19.8361 39.4734 20.2898 40.014 20.7247C40.5732 21.1784 41.1138 21.6132 41.2443 22.048C41.4121 22.7286 41.2443 23.4848 40.8342 24.033C40.2563 24.7136 38.7837 24.0519 36.584 22.1425C35.9315 21.3863 35.4468 20.4789 35.2045 19.4958V19.4391C34.8317 18.7774 34.8317 18.0023 35.1486 17.3785ZM24.7652 22.2181C24.8025 22.0291 24.9517 21.8779 25.194 21.7455C25.5295 21.5754 26.0329 21.4619 26.6667 21.4619C27.5055 21.4619 28.5495 21.651 29.6493 22.1047C30.4323 22.4261 31.3643 22.5584 32.2405 22.6719C33.1353 22.8042 33.9928 22.9176 34.4588 23.2201C35.1113 23.6549 35.5027 24.43 35.4655 25.2051C35.3723 25.7345 34.5147 26.4907 29.612 25.7345C28.419 25.432 27.2632 24.8459 26.2752 24.033L26.0515 23.9007C25.0821 23.3335 24.5788 23.0122 24.7652 22.1992V22.2181ZM35.6705 27.7951C36.1552 27.7951 36.7144 27.9085 37.2923 28.1165C37.9075 28.3434 38.5413 28.2866 39.1006 28.2299C39.6225 28.1732 40.0886 28.1354 40.3495 28.3245C40.8342 28.7593 41.1138 29.3831 41.1325 30.0448C41.1325 30.2717 41.0579 30.4418 40.9088 30.593C40.4241 31.0846 39.1751 31.2925 37.2737 31.2169C36.4162 31.0657 35.6146 30.6687 34.9621 30.0637L34.9062 30.0259C34.4215 29.799 34.1606 29.2508 34.2724 28.7025C34.2724 28.419 34.4029 28.211 34.6266 28.0598C34.8876 27.8896 35.2418 27.7951 35.6892 27.7951H35.6705ZM24.3738 32.4457C24.3738 31.3681 25.7532 30.7821 27.0209 30.7821H27.0395C27.375 30.7821 27.7292 30.8199 28.0648 30.8955H28.4376C29.4815 31.1413 30.134 31.2925 31.6812 31.7084C32.6692 32.0487 33.4708 32.8238 33.825 33.8258C33.9369 34.2606 33.825 34.7332 33.5267 35.0735C32.7438 35.8486 31.6812 36.2645 30.5814 36.1889C30.134 36.1889 29.7052 36.1322 29.2765 36.0377C28.3258 35.7919 27.4123 35.4705 26.5175 35.0546L26.1261 34.8845C25.0076 34.6576 24.2433 33.5989 24.3738 32.4457ZM32.9861 39.0436C32.9116 39.3082 32.1286 40.0266 30.7864 40.5182C29.8171 40.8773 27.9716 41.3122 26.4803 40.2724C25.7346 39.7431 24.9517 39.1192 24.8584 38.363C24.8212 37.8715 24.9889 37.4556 25.3431 37.1531C25.7532 36.7939 26.387 36.6237 27.1141 36.6237C27.5055 36.6237 27.9343 36.6805 28.363 36.7939C29.0528 36.9829 29.8171 36.8695 30.4882 36.7561C31.1406 36.6615 31.7558 36.567 32.0914 36.7561C32.7997 37.2854 33.1353 38.1928 32.9489 39.0625L32.9861 39.0436ZM42.3442 40.4993C41.9154 41.0853 41.263 41.2933 40.7037 41.0664C39.6971 40.6694 38.6159 41.0853 37.7584 41.4445C36.8263 41.8226 36.4348 41.936 36.2484 41.5579C35.8942 40.8584 35.801 40.2913 35.9315 39.8565C36.1366 39.2704 36.7517 38.9679 37.311 38.7033C37.4787 38.6277 37.6279 38.552 37.7584 38.4764C39.3802 37.5312 40.2936 37.172 40.9088 37.172C41.524 37.172 41.8595 37.569 42.2883 38.1361C42.9593 39.0058 42.7357 39.951 42.3442 40.4993ZM50.8261 30.4985V30.6309V30.8955H50.8074V31.4438C50.621 31.4438 50.4532 31.4438 50.2855 31.4438C49.3161 31.5005 48.3467 31.6517 47.3774 31.8408C47.0418 32.1622 46.7249 33.0696 46.4267 34.0148C45.8301 35.8675 45.0845 38.155 43.1271 39.0436C43.0898 38.76 42.978 38.4575 42.8102 38.155C44.3575 37.4366 44.9913 35.4705 45.5505 33.7313C45.7183 33.2397 45.8674 32.786 46.0352 32.389C45.8115 32.5781 45.5878 32.8427 45.3455 33.1074C44.4693 34.0716 43.3881 35.2626 41.207 35.2626H41.1698C38.3922 35.7163 35.7078 36.9451 33.4522 38.7411C33.4708 38.3819 33.4522 38.0227 33.3217 37.6824C35.6146 35.9621 38.2803 34.771 41.0952 34.3173C42.9407 34.3173 43.7982 33.3721 44.6371 32.4457C45.159 31.8786 45.6437 31.3492 46.3148 31.1224C46.1657 31.1224 45.9979 31.1224 45.8674 31.1413C45.6996 31.2736 45.5319 31.4249 45.3455 31.595C44.2456 32.5592 42.8848 33.7502 40.7224 33.7502H40.6851C39.9208 33.9203 39.2124 34.0905 38.56 34.2417C37.1059 34.582 36.0061 34.8467 34.7384 34.8467C34.552 34.8467 34.3656 34.8467 34.1792 34.8089C34.291 34.5253 34.3283 34.2039 34.291 33.8636C35.6519 33.9392 36.7517 33.6935 38.3363 33.3154C38.9887 33.1641 39.7157 32.994 40.5732 32.8049C42.2137 32.8049 43.2949 32.0676 44.2083 31.2925C43.4627 31.2925 42.6052 31.0468 41.4867 30.2717C41.4867 30.1771 41.5426 30.1015 41.5426 30.007C41.5426 29.7612 41.4867 29.5155 41.4121 29.2886L41.5053 29.1563C43.2576 30.5363 44.1151 30.404 45.1963 30.2528C45.2709 30.2528 45.3641 30.2339 45.4573 30.2149C45.5505 30.1393 45.6624 30.0637 45.7556 29.9881C44.9913 29.6289 44.3015 29.1374 43.8541 28.419C43.0898 27.228 42.7729 27.0767 39.5666 26.5852C38.243 26.4718 36.9568 26.0369 35.7824 25.3375C35.7824 25.2808 35.8383 25.2429 35.8569 25.1862C35.8569 24.8459 35.801 24.5056 35.6892 24.1843C36.8822 24.9972 38.2617 25.5076 39.6971 25.6399C42.8661 26.1315 43.6304 26.3016 44.6557 27.8896C45.1777 28.7025 46.1098 29.1941 47.0978 29.4777C47.1723 29.4777 47.2655 29.4777 47.3401 29.4587C47.3028 29.4587 47.2842 29.4398 47.2469 29.4209C46.4453 28.9294 46.2962 28.5702 46.147 28.0031C46.0166 27.5683 45.8488 26.9633 44.8235 25.829C43.705 25.1106 42.4747 24.5435 41.207 24.1275C41.3935 23.8629 41.524 23.5793 41.5985 23.2768C42.9221 23.7116 44.1897 24.2977 45.3641 25.0539L45.4573 25.1295C46.669 26.4718 46.8741 27.228 47.0232 27.7384C47.135 28.1354 47.1723 28.2677 47.6943 28.5891C48.6077 29.0617 49.6703 29.3264 50.7329 29.3264C50.7329 29.3264 50.7701 29.3264 50.7888 29.3264L50.7329 29.799V30.2717V30.4229L50.8261 30.4985Z" fill="currentColor"/>
</g>
</g>
<defs>
<clipPath id="clip0_1116_9721">
<rect width="54" height="55" fill="currentColor"/>
</clipPath>
<clipPath id="clip1_1116_9721">
<rect width="35.4375" height="50.7031" fill="currentColor" transform="translate(17.7188 -5.15625)"/>
</clipPath>
</defs>
</svg>
