<svg width="55" height="54" viewBox="0 0 55 54" fill="none" xmlns="http://www.w3.org/2000/svg">
<g clip-path="url(#clip0_1116_9756)">
<path d="M11.5119 29.4682L11.4127 30.1712C11.2542 31.382 11.7894 32.6903 12.8203 33.6081L12.9788 33.7644C13.9899 34.565 15.2983 34.897 16.4481 34.6236L17.1617 34.4478C17.1617 34.4478 18.6089 33.2957 19.382 32.5146C19.1243 32.5536 18.8468 32.5927 18.5891 32.5927C17.1221 32.5927 15.5362 32.0264 14.2476 30.8938C13.3159 30.0736 12.6617 29.0582 12.285 27.9841C11.9876 28.4919 11.5119 29.4487 11.5119 29.4487V29.4682Z" fill="currentColor"/>
<path d="M12.5229 34.0573C11.3137 32.9833 10.7784 31.4992 10.9568 30.1908C10.3026 30.347 9.70791 30.6595 9.25196 31.1672C7.86427 32.6904 8.20128 35.229 10.0053 36.8303C11.8093 38.4315 14.4062 38.4901 15.7939 36.967C16.2499 36.4592 16.5076 35.8343 16.6067 35.1899C15.2983 35.5024 13.7322 35.1509 12.5229 34.0768V34.0573Z" fill="currentColor"/>
<path d="M7.90391 40.0133C6.9127 38.9002 6.63516 37.4161 7.03164 36.1468C6.37745 36.264 5.72325 36.5178 5.20783 36.9865C3.60207 38.373 3.50295 40.8725 4.98976 42.5324C6.47657 44.2118 8.99423 44.4266 10.6 43.0401C11.1352 42.5714 11.4921 41.9856 11.6903 41.3607C10.3621 41.5951 8.89511 41.1264 7.90391 40.0133Z" fill="currentColor"/>
<path d="M34.5475 27.6521C32.9219 29.0191 30.9593 29.5854 29.3932 29.312C29.3932 30.0931 29.6311 30.7961 30.1069 31.3624C31.5738 33.0613 34.7457 32.7684 37.2039 30.718C39.6423 28.6676 40.4352 25.6212 38.9682 23.9223C38.4726 23.356 37.7986 23.0436 37.0255 22.9069C37.0453 24.4691 36.173 26.2656 34.5475 27.6521Z" fill="currentColor"/>
<path d="M37.5607 31.6749C35.9351 33.0418 34.1708 33.6277 32.5848 33.3348C32.6047 34.1159 32.6245 34.8189 33.1399 35.4047C34.6465 37.1427 37.858 36.8888 40.2964 34.8384C42.7348 32.788 43.5079 29.7026 42.0013 27.9646C41.5057 27.3788 40.8118 27.0468 40.0189 26.9101C40.0585 28.4919 39.2061 30.3079 37.5607 31.6944V31.6749Z" fill="currentColor"/>
<path d="M41.7238 36.7131C40.0388 38.4315 38.1356 39.486 36.6885 39.6813C36.629 40.3843 36.7678 40.9897 37.1643 41.3802C38.3934 42.5519 41.4264 41.3998 43.9441 38.8221C46.4618 36.2444 47.4926 33.2176 46.2635 32.0459C45.8472 31.6554 45.2327 31.5382 44.519 31.6358C44.4001 33.0809 43.389 34.9946 41.7238 36.7131Z" fill="currentColor"/>
<path d="M49.356 36.7131C48.9001 37.8066 48.1071 38.5878 47.2943 38.8612C47.4727 39.2322 47.7503 39.5251 48.1071 39.6813C49.1974 40.1305 50.7239 38.9393 51.3979 37.3185C52.0719 35.6976 51.6754 34.2331 50.5851 33.7839C50.2283 33.6277 49.8318 33.6472 49.4353 33.7839C49.812 34.526 49.812 35.6391 49.356 36.7326V36.7131Z" fill="currentColor"/>
<path d="M44.2018 43.8798C42.5366 44.7195 40.8515 44.9929 39.7017 44.6805C39.5035 45.2272 39.4638 45.735 39.7017 46.1646C40.3757 47.4534 42.9529 47.4729 45.4507 46.2036C47.9486 44.9343 49.4155 42.8644 48.7415 41.556C48.5235 41.1264 48.0675 40.853 47.4926 40.6968C47.0763 41.7903 45.8869 43.0011 44.2216 43.8408V43.8798H44.2018Z" fill="currentColor"/>
<path d="M21.6618 15.6425C22.6332 16.6775 23.8425 18.0445 25.131 18.6108C26.4989 19.1966 28.0055 18.6694 28.0055 18.6694C29.4725 18.0445 30.8602 16.6189 31.9505 15.5058C32.347 15.0958 32.684 14.7443 33.021 14.4513L32.8624 7.32368C32.8228 5.50759 31.217 4.08206 29.3734 4.23828C27.9064 4.35545 24.3976 4.27734 24.239 4.27734H24.0407C22.1773 4.14064 20.5913 5.62476 20.6111 7.4799L20.7103 14.6857C21.0076 14.9591 21.305 15.291 21.6618 15.6425Z" fill="currentColor"/>
<path d="M21.9195 29.3511C20.5913 29.4683 18.8468 28.9215 17.9745 28.3942C17.7367 28.2575 17.1419 27.6912 17.1419 27.6912C15.7542 26.461 14.9415 24.8402 14.882 23.2194C14.4062 23.4146 14.0097 23.688 13.6925 24.02C13.078 24.6839 12.7806 25.5822 12.8401 26.5781C12.9194 27.9256 13.6331 29.273 14.7829 30.2689C16.8446 32.085 19.7389 32.2217 21.2257 30.6009C21.5429 30.2689 21.7609 29.8393 21.8997 29.3511H21.9195Z" fill="currentColor"/>
<path d="M7.82455 44.739C7.72543 44.739 7.62631 44.739 7.52718 44.739C6.29809 44.6609 5.16812 44.0946 4.3355 43.1573C3.52272 42.2394 3.08659 41.0287 3.16588 39.8375C3.20553 39.3298 3.32447 38.8611 3.52272 38.412C3.22535 38.5682 2.92799 38.7244 2.65045 38.8025C2.37292 38.9002 2.15485 39.0955 2.05573 39.3493C2.01608 39.447 1.00505 41.9075 2.80905 44.3484C4.57339 46.7308 7.56683 46.7504 7.68578 46.7504C8.02279 46.7504 8.33997 46.5746 8.51839 46.3012C8.89505 45.7154 9.41047 44.9733 9.96555 44.1727C9.33118 44.5437 8.59769 44.739 7.82455 44.739Z" fill="currentColor"/>
<path d="M8.02285 35.1313L7.78496 35.8929C7.42813 37.0451 7.72549 38.3534 8.5581 39.2908C9.39071 40.2476 10.6793 40.6968 11.8885 40.482L12.7013 40.3453C12.7013 40.3453 13.6925 39.2127 14.2476 38.4901C13.9304 38.5878 13.6132 38.6464 13.2762 38.6659C13.1969 38.6659 13.1176 38.6659 13.0383 38.6659C11.8093 38.6659 10.5405 38.1777 9.54931 37.2989C8.65722 36.4983 8.04267 35.1313 8.04267 35.1313H8.02285Z" fill="currentColor"/>
<path d="M28.8976 28.5114L29.4725 28.609C30.9593 28.8629 32.7633 28.277 34.2104 27.0663C35.6774 25.8165 36.5298 24.1762 36.51 22.6921V22.1062C36.51 22.1062 35.7369 17.5758 35.7369 15.5644C35.7369 15.1739 35.499 14.8224 35.1422 14.6661C34.7655 14.5099 34.3492 14.588 34.0717 14.8614L30.9394 17.8492C29.5716 19.138 28.3623 19.8605 27.7478 19.9777C27.5892 20.0168 26.1222 20.1925 25.6861 20.0363C24.0803 19.47 23.1486 18.8256 22.1574 17.4781L19.9172 14.4513C19.6992 14.1584 19.3225 14.0022 18.9657 14.0608C18.589 14.1194 18.2917 14.3732 18.1727 14.7247C17.5582 16.5994 15.9722 21.7938 15.9722 21.7938L15.893 22.4773C15.7344 23.8833 16.3291 25.3869 17.4789 26.5391L17.7961 26.8125C19.1441 28.0037 20.9085 28.5114 22.4151 28.1599L23.1089 28.0037C23.1089 28.0037 25.2301 28.0622 26.2015 28.0427C26.2213 28.0427 26.2411 28.0427 26.261 28.0427C27.0737 28.0427 28.8976 28.5309 28.8976 28.5309V28.5114Z" fill="currentColor"/>
<path d="M36.0145 39.0564L36.411 38.9978C37.8185 38.8025 39.6423 37.7285 41.1489 36.1663C42.6754 34.5845 43.6864 32.7684 43.8053 31.3819L43.845 30.9914C43.845 30.9914 43.6468 30.7375 43.4683 30.6204C43.4683 31.0304 43.4287 31.4405 43.3296 31.8897C42.9926 33.2957 42.1005 34.6431 40.8317 35.6976C39.5828 36.7521 38.0762 37.3965 36.629 37.5137C36.4704 37.5137 36.3118 37.5137 36.1731 37.5137C35.7766 37.5137 35.3999 37.4551 35.0431 37.377C35.3801 37.9238 35.6973 38.4706 36.0145 39.0369V39.0564Z" fill="currentColor"/>
<path d="M53.1227 36.0687C52.9839 35.6781 52.7659 35.3852 52.5081 35.1313C52.7262 35.8929 52.6667 36.8107 52.2703 37.7676C51.8143 38.8416 51.0412 39.7204 50.1887 40.1891C50.5456 40.2867 50.9619 40.3453 51.4178 40.1891C51.9927 39.9938 52.4487 39.5446 52.7857 38.8612C53.3011 37.8262 53.42 36.8889 53.1425 36.0882L53.1227 36.0687Z" fill="currentColor"/>
<path d="M49.2768 43.5673C49.2768 43.5673 49.1975 43.4307 49.1381 43.3525C48.7416 44.6218 47.453 46.0083 45.5697 46.9457C44.301 47.5901 42.9728 47.9416 41.823 47.9416H41.7833C41.4265 47.9416 41.0895 47.883 40.7921 47.8244C40.8714 48.0002 40.9705 48.1759 41.03 48.3517C41.1886 48.7032 41.5256 48.9375 41.9023 48.9375C41.9023 48.9375 41.9816 48.9375 42.1005 48.9375C42.7745 48.9375 45.1138 48.8594 46.6997 47.9611C48.583 46.8871 49.4553 44.6609 49.4949 44.5633C49.6337 44.2118 49.5345 43.8017 49.2768 43.5478V43.5673Z" fill="currentColor"/>
<path d="M38.7701 43.704L39.2062 43.8212C40.2172 44.0946 41.7437 43.8212 43.2107 43.1182V43.0791L43.3693 43.001C44.8561 42.259 46.0059 41.1459 46.4023 40.1109L46.5609 39.7008C46.5609 39.7008 46.3429 38.9978 46.2239 38.7244L45.986 38.2362L46.5015 38.0605C47.2151 37.8262 47.8892 37.1036 48.2658 36.1858L48.3649 35.971C48.6623 35.1118 48.6623 34.2526 48.3649 33.6667L48.1072 33.1785C48.1072 33.1785 47.909 32.7294 47.5323 32.5927C47.3737 32.5341 47.4332 32.7099 47.2746 32.6513C47.909 34.2721 46.8385 36.9865 44.4992 39.3884C42.6159 41.3021 40.1974 42.298 38.5322 42.3176C38.5124 42.3176 38.4925 42.3176 38.4727 42.3176C38.3273 42.3176 38.1886 42.3566 38.0564 42.4347C38.3538 42.9815 38.7304 43.6845 38.7304 43.6845L38.7701 43.704Z" fill="currentColor"/>
</g>
<defs>
<clipPath id="clip0_1116_9756">
<rect width="51.5625" height="44.7188" fill="currentColor" transform="translate(1.71875 4.21875)"/>
</clipPath>
</defs>
</svg>
