<svg width="55" height="55" viewBox="0 0 55 55" fill="none" xmlns="http://www.w3.org/2000/svg">
<path d="M13.145 25.355C15.18 27.1883 16.9217 27.1883 18.8467 28.05C17.9925 27.9692 17.1311 28.0804 16.3254 28.3754C15.5197 28.6704 14.7901 29.1417 14.19 29.755C12.9984 30.7817 10.89 30.5617 10.2667 31.7167C10.3584 28.985 6.98504 26.6383 5.75671 24.8233C-2.69496 12.485 8.83671 4.38165 22.1467 6.76498C27.3078 7.79606 32.2318 9.77931 36.6667 12.6133L34.8334 17.7283C31.2197 14.8017 26.9678 12.7668 22.4217 11.7883C13.255 9.60665 3.20838 16.6467 13.145 25.355Z" fill="currentColor"/>
<path d="M18.2234 27.775C18.3334 27.775 26.95 29.6083 26.95 29.6083C31.2217 31.2583 28.7834 32.5783 23.7967 31.9C19.91 31.3866 16.665 30.0666 16.7384 30.91C16.8117 31.7533 23.1 35.09 22.385 36.41C21.67 37.73 14.6667 32.5966 14.0434 33.7883C13.6629 34.3563 13.3608 34.9729 13.145 35.6216C12.0817 37.9866 11.055 40.8283 10.1384 39.2883C9.7769 38.5949 9.58813 37.8244 9.58813 37.0425C9.58813 36.2605 9.7769 35.49 10.1384 34.7966C10.445 33.8241 10.445 32.7808 10.1384 31.8083L11.0367 29.1316L18.2234 27.775Z" fill="currentColor"/>
<path d="M48.7117 7.73666C42.735 6.71 42.0017 12.5767 38.8667 12.8333C37.4097 12.8966 35.9785 12.4347 34.8334 11.5317L33.3667 15.9133C33.3667 15.9133 35.2 17.5633 35.2 18.7367C35.2 19.91 34.2284 23.9983 35.8784 27.0783C37.5284 30.1583 39.8384 32.3583 40.425 34.65C41.0117 36.9417 40.535 37.73 41.7267 42.9917C42.2853 45.8685 43.5096 48.5746 45.3017 50.8933H48.6567L48.7117 7.73666Z" fill="currentColor"/>
</svg>
