<svg width="55" height="55" viewBox="0 0 55 55" fill="none" xmlns="http://www.w3.org/2000/svg">
<g clip-path="url(#clip0_1116_9726)">
<path d="M22.66 23.4666C22.0673 22.2691 21.7539 20.9527 21.7433 19.6166C21.7433 19.6166 18.8833 20.2766 17.0133 16.6649C14.7766 12.3566 16.5 7.95661 21.2116 5.49995C29.4433 1.31995 36.6666 10.9999 38.7566 15.1983C40.8466 19.3966 43.8166 31.1666 36.4283 35.0349C32.1383 37.2349 27.6833 37.3449 25.4283 32.8533C24.7783 31.788 24.4995 30.5374 24.6355 29.2968C24.7715 28.0563 25.3146 26.8958 26.18 25.9966C24.7337 25.6186 23.4793 24.717 22.66 23.4666Z" fill="currentColor"/>
<path d="M20.6617 22.2567C20.7635 22.8517 20.9422 23.431 21.1933 23.98C20.5369 24.4307 19.998 25.0321 19.6216 25.7338C19.2452 26.4355 19.0424 27.2171 19.03 28.0133V50.765H17.1967V28.0133C17.2209 26.8347 17.5536 25.683 18.1616 24.673C18.7695 23.6629 19.6315 22.8298 20.6617 22.2567Z" fill="currentColor"/>
</g>
<defs>
<clipPath id="clip0_1116_9726">
<rect width="55" height="55" fill="currentColor"/>
</clipPath>
</defs>
</svg>
