<svg width="55" height="55" viewBox="0 0 55 55" fill="none" xmlns="http://www.w3.org/2000/svg">
<g clip-path="url(#clip0_1116_9727)">
<path d="M30.14 23.65C30.7339 22.4529 31.0474 21.1363 31.0567 19.8C31.0567 19.8 33.935 20.4784 35.805 16.8484C38.0233 12.54 36.2817 8.14002 31.6067 5.73836C23.3567 1.50336 16.1883 11.2384 14.0433 15.3817C11.8983 19.525 8.98333 31.4234 16.3717 35.2367C20.6617 37.4367 25.1167 37.5284 27.3717 33.0367C28.0217 31.9714 28.3005 30.7208 28.1645 29.4802C28.0285 28.2397 27.4854 27.0792 26.62 26.18C28.0701 25.8102 29.3273 24.9067 30.14 23.65Z" fill="currentColor"/>
<path d="M32.1383 22.44C32.0453 23.0349 31.8727 23.6145 31.625 24.1633C32.2752 24.6232 32.8081 25.2295 33.1807 25.9333C33.5533 26.6372 33.7552 27.4188 33.77 28.215V50.9483H35.6033V28.215C35.5841 27.0328 35.2537 25.8766 34.6454 24.8628C34.0371 23.8489 33.1724 23.0133 32.1383 22.44Z" fill="currentColor"/>
</g>
<defs>
<clipPath id="clip0_1116_9727">
<rect width="55" height="55" fill="currentColor"/>
</clipPath>
</defs>
</svg>
