<svg width="55" height="55" viewBox="0 0 55 55" fill="none" xmlns="http://www.w3.org/2000/svg">
<g clip-path="url(#clip0_1116_9735)">
<path d="M43.5967 26.8583C43.7617 26.455 39.8017 24.3833 37.9867 25.3733C36.1717 26.3633 33.8433 27.5 32.5967 28.0316L33.11 26.1983C33.629 26.0236 34.0824 25.6949 34.41 25.256C34.7375 24.8171 34.9235 24.2889 34.9433 23.7416C35.145 22.3116 34.5767 21.0466 33.6417 20.8083L33.5317 18.7183C34.259 17.9524 35.1 17.3031 36.025 16.7933C36.8683 16.3166 38.0783 16.0783 39.05 15.62C39.8984 15.1392 40.639 14.4892 41.2256 13.7102C41.8122 12.9312 42.2324 12.0399 42.46 11.0916C42.1667 11 40.975 13.915 38.665 14.9233C37.6933 15.3633 36.465 15.5833 35.6217 16.06C34.8327 16.5002 34.1053 17.0427 33.4583 17.6733V16.7383C33.8943 16.5067 34.2643 16.1683 34.5336 15.7546C34.803 15.3409 34.9629 14.8657 34.9983 14.3733C35.0627 13.9725 35.0627 13.5641 34.9983 13.1633C35.2036 11.7574 35.5037 10.367 35.8967 9.00165C36.5486 7.44833 37.0639 5.84113 37.4367 4.19831C36.3039 5.50124 35.4937 7.05252 35.0717 8.72665C34.7524 9.72159 34.5073 10.7388 34.3383 11.77C34.1351 11.5649 33.8718 11.4301 33.5867 11.385C33.2513 11.3568 32.916 11.4406 32.6333 11.6233C32.4867 9.16665 32.0283 3.06165 31.57 3.06165C31.1117 3.06165 31.4783 7.91998 31.68 10.7433C30.3783 8.26831 28.0133 3.94165 27.665 4.10665C27.3167 4.27165 31.1667 11.66 31.6617 12.705C31.4806 13.0673 31.3628 13.458 31.3133 13.86C31.2051 14.3568 31.2312 14.8736 31.3891 15.3569C31.547 15.8403 31.831 16.2729 32.2117 16.61L32.4867 21.1016C32.3741 21.1898 32.2698 21.288 32.175 21.395C31.3317 20.0016 29.5167 16.9033 27.9583 13.7133C26.7483 11.275 21.2483 9.16665 21.1383 9.56998C21.0283 9.97331 26.1983 11.7516 27.28 14.2083C27.4817 14.6666 27.6833 15.125 27.9033 15.5833C27.0252 15.0529 26.0905 14.6225 25.1167 14.3C23.429 13.6846 21.6197 13.4773 19.8367 13.695C19.7267 13.97 22.5317 14.3 24.86 15.125C26.2 15.6144 27.4746 16.2671 28.655 17.0683C29.9017 19.4883 31.13 21.4316 31.625 22.2016C31.4694 22.5453 31.3644 22.9096 31.3133 23.2833C31.2347 23.7128 31.2445 24.1539 31.3422 24.5794C31.4399 25.005 31.6235 25.4062 31.8817 25.7583L30.91 29.1316C30.5856 29.2328 30.2852 29.3986 30.0268 29.6192C29.7684 29.8398 29.5574 30.1105 29.4067 30.415L27.17 29.3333C27.17 28.435 26.2717 27.2066 24.7317 26.345C23.8158 25.7943 22.7553 25.5323 21.6883 25.5933C21.2642 23.838 20.6043 22.1482 19.7267 20.57C19.0186 19.2602 17.8783 18.2365 16.5 17.6733C16.2617 17.7833 17.875 18.9566 18.9383 20.8633C19.3039 21.5245 19.6225 22.2107 19.8917 22.9166C19.722 22.7258 19.5381 22.5481 19.3417 22.385C18.1274 21.3698 16.6424 20.7325 15.07 20.5516C14.795 20.68 17.16 21.4866 18.7367 22.935C19.6254 23.8024 20.3028 24.8625 20.7167 26.0333L20.625 26.1433C20.539 26.3204 20.4944 26.5148 20.4944 26.7116C20.4944 26.9085 20.539 27.1029 20.625 27.28C19.3549 27.4468 18.0742 27.5203 16.7933 27.5C13.7133 27.5 10.45 26.785 10.4133 27.0783C12.4186 27.9552 14.5865 28.3987 16.775 28.38C18.2538 28.4253 19.7335 28.327 21.1933 28.0866C21.7035 28.685 22.3265 29.1771 23.0267 29.535C23.3671 29.7184 23.7229 29.8717 24.09 29.9933L20.845 32.6333H20.6433H20.3683C19.4811 32.2667 18.5509 32.0141 17.6 31.8816C16.2383 31.6252 14.8326 31.7392 13.53 32.2116C13.53 32.5233 15.62 32.4683 17.5267 32.7616C18.0973 32.8496 18.661 32.9783 19.2133 33.1466C19.1443 33.1921 19.0825 33.2478 19.03 33.3116C18.203 33.5949 17.3578 33.8216 16.5 33.99C14.3367 34.3383 11.88 34.3566 11.9533 34.6683C13.4554 35.1046 15.0414 35.1676 16.5733 34.8516C17.4789 34.7286 18.3696 34.5136 19.2317 34.21C19.7094 34.4425 20.2443 34.5317 20.7717 34.4666C21.78 34.3566 22.605 33.8433 22.495 33.3483C22.385 32.8533 22.2383 32.9083 21.9083 32.78L24.9333 30.25C25.3746 30.343 25.8304 30.343 26.2717 30.25L28.9667 31.5883C28.8713 31.9724 28.8546 32.3718 28.9176 32.7625C28.9806 33.1531 29.122 33.527 29.3333 33.8616L27.8117 37.1066C27.3041 37.1377 26.8139 37.3036 26.3918 37.5872C25.9696 37.8708 25.6307 38.2618 25.41 38.72C25.1532 39.1145 24.9913 39.5632 24.9372 40.0308C24.8832 40.4985 24.9383 40.9723 25.0983 41.415L24.31 42.4966H19.195C18.8087 42.163 18.3281 41.958 17.82 41.91H17.4717C16.5651 41.6034 15.6219 41.4184 14.6667 41.36C13.2728 41.2386 11.8733 41.5185 10.6333 42.1666C10.6333 42.46 12.7233 42.1666 14.6483 42.3133L15.895 42.46C15.895 42.46 15.895 42.46 15.895 42.5883C15.8702 42.6845 15.8702 42.7854 15.895 42.8816C15.3172 43.0445 14.7532 43.2529 14.2083 43.505C12.7475 44.0721 11.4455 44.9841 10.4133 46.1633C10.5233 46.4566 12.6133 45.155 14.63 44.33C15.3141 44.0348 16.0187 43.7897 16.7383 43.5966C16.9938 43.694 17.2577 43.7677 17.5267 43.8166C18.0641 43.9133 18.6185 43.8295 19.1033 43.5783L23.485 43.7066L22.6233 44.8616C21.725 44.6783 20.6433 45.4666 20.1117 46.695C19.9437 47.1092 19.8506 47.5499 19.8367 47.9966C19.4673 48.1638 19.1117 48.3599 18.7733 48.5833C17.1783 49.5 15.7117 51.095 15.84 51.3333C15.9683 51.5716 17.6733 50.1966 19.25 49.1883L19.9467 48.8033C19.9933 49.02 20.0885 49.2234 20.225 49.398C20.3616 49.5727 20.5359 49.7141 20.735 49.8116C20.868 49.8393 21.0053 49.8393 21.1383 49.8116C21.1407 49.8544 21.1407 49.8972 21.1383 49.94C20.8633 51.095 20.2033 52.305 20.515 52.3416C20.8267 52.3783 21.6333 51.3333 22 50.2333C22.0175 50.0565 22.0175 49.8784 22 49.7016C22.6508 49.3139 23.1539 48.7204 23.43 48.015C23.7423 47.3316 23.8134 46.5624 23.6317 45.8333L26.2717 42.1666H26.6017C27.2072 43.7553 27.5838 45.422 27.72 47.1166C27.72 48.6566 27.8483 49.83 28.05 49.8483C28.2517 49.8666 28.3983 48.6383 28.49 47.0433C28.4479 45.247 28.0686 43.4745 27.3717 41.8183C27.8542 41.5051 28.2511 41.0766 28.5267 40.5716C28.7918 40.1807 28.9585 39.7315 29.0128 39.2623C29.067 38.7931 29.0072 38.3178 28.8383 37.8766L29.645 36.1716L31.2767 38.3716C31.2823 38.6643 31.3545 38.9518 31.488 39.2123C31.6214 39.4728 31.8125 39.6994 32.0467 39.875C32.1509 41.0337 32.6048 42.1335 33.3483 43.0283C34.5981 44.3801 36.2504 45.293 38.06 45.6316C38.3167 45.4483 35.475 44.2016 33.9533 42.3866C33.503 41.8457 33.1607 41.2233 32.945 40.5533C33.4583 40.7733 33.9167 40.81 34.1367 40.5533C34.2024 40.4621 34.2406 40.3539 34.2467 40.2416C34.7417 40.48 35.2917 40.755 35.8417 41.085C37.675 42.2216 39.6183 43.7983 39.765 43.5233C39.9117 43.2483 38.1883 41.5433 36.3733 40.37C35.5488 39.8647 34.6768 39.441 33.77 39.105C33.6439 38.9451 33.5027 38.7978 33.3483 38.665C32.9693 38.3186 32.4981 38.0893 31.9917 38.005L30.03 35.42L30.4517 34.5033C30.9686 34.3895 31.4414 34.1278 31.8124 33.7503C32.1835 33.3727 32.4368 32.8955 32.5417 32.3766C32.722 31.9161 32.7829 31.4174 32.7188 30.927C32.6547 30.4366 32.4676 29.9704 32.175 29.5716L32.285 29.1683C33.5363 28.6716 34.7603 28.1086 35.9517 27.4816C36.9853 27.6773 37.9776 28.0494 38.885 28.5816C40.5167 29.5166 42.1667 31.1666 42.24 30.8916C41.4914 29.6154 40.4318 28.5495 39.16 27.7933C38.5034 27.3909 37.7938 27.0823 37.0517 26.8766C37.3817 26.675 37.7117 26.4916 38.0417 26.2716C39.875 25.0983 43.3767 27.39 43.5967 26.8583Z" fill="currentColor"/>
</g>
<defs>
<clipPath id="clip0_1116_9735">
<rect width="55" height="55" fill="currentColor"/>
</clipPath>
</defs>
</svg>
