<svg width="54" height="55" viewBox="0 0 54 55" fill="none" xmlns="http://www.w3.org/2000/svg">
<path d="M44.982 50.875L43.668 53.1667" stroke="currentColor" stroke-width="0.75" stroke-miterlimit="10" stroke-linecap="round"/>
<path d="M23.5079 22C34.6679 25.3917 33.8939 27.5 36.1079 29.92C39.0059 33.0917 38.8259 35.1267 40.7159 40.1133C41.6879 42.68 42.1019 51.8467 48.6539 52.4333" stroke="currentColor" stroke-width="0.75" stroke-miterlimit="10" stroke-linecap="round"/>
<path d="M48.6 47.905L43.668 49.1884" stroke="currentColor" stroke-width="0.75" stroke-miterlimit="10" stroke-linecap="round"/>
<path d="M30.474 24.6767C36 28.4717 37.8 28.7834 42.84 47.905" stroke="currentColor" stroke-width="2" stroke-linecap="round" stroke-linejoin="round" stroke-dasharray="2 2 2 2 2 2"/>
<path d="M11.1059 26.8217C9.83821 27.471 8.80944 28.5188 8.17194 29.81C7.68594 31.0933 7.45194 32.505 4.91394 33.0917" stroke="currentColor" stroke-width="0.75" stroke-miterlimit="10" stroke-linecap="round"/>
<path d="M8.22595 31.2217L10.062 32.4133" stroke="currentColor" stroke-width="0.75" stroke-miterlimit="10" stroke-linecap="round"/>
<path d="M10.062 18.0033C7.28998 18.5166 5.39998 15.7483 4.22998 14.0616" stroke="currentColor" stroke-width="0.75" stroke-miterlimit="10" stroke-linecap="round"/>
<path d="M6.696 17.7466L3.87 18.865" stroke="currentColor" stroke-width="0.75" stroke-miterlimit="10" stroke-linecap="round"/>
<path d="M18.684 13.145C19.3848 11.4741 19.7637 9.6816 19.8 7.865C19.656 5.57334 19.44 3.04333 19.44 3.04333" stroke="currentColor" stroke-width="0.75" stroke-miterlimit="10" stroke-linecap="round"/>
<path d="M19.926 8.69L23.508 5.35333" stroke="currentColor" stroke-width="0.75" stroke-miterlimit="10" stroke-linecap="round"/>
<path d="M19.764 6.49L16.47 5.005" stroke="currentColor" stroke-width="0.75" stroke-miterlimit="10" stroke-linecap="round"/>
<path d="M24.606 16.06C26.586 15.235 27.432 15.0883 29.7 14.0617C31.968 13.035 34.002 12.2283 34.002 12.2283" stroke="currentColor" stroke-width="0.75" stroke-miterlimit="10" stroke-linecap="round"/>
<path d="M31.086 13.145L30.834 10.1567" stroke="currentColor" stroke-width="0.75" stroke-miterlimit="10" stroke-linecap="round"/>
<path d="M19.926 28.7833C19.926 28.7833 23.4 31.8267 23.4 33.7517C23.5568 35.1075 24.1085 36.3846 24.984 37.4183" stroke="currentColor" stroke-width="0.75" stroke-miterlimit="10" stroke-linecap="round"/>
<path d="M23.1479 34.815L18.8099 36.685" stroke="currentColor" stroke-width="0.75" stroke-miterlimit="10" stroke-linecap="round"/>
<path fill-rule="evenodd" clip-rule="evenodd" d="M21.7261 30.635C18.8641 27.8483 13.1761 27.2066 9.41405 28.0866C10.0865 26.3603 10.3057 24.4853 10.05 22.6464C9.79436 20.8076 9.07266 19.0683 7.95605 17.6C13.0173 16.9998 15.796 14.6044 18.0164 12.6902C18.4414 12.3238 18.8459 11.9751 19.2421 11.66C20.3937 15.3522 22.0687 15.2649 24.2047 15.1535C25.0066 15.1117 25.8735 15.0665 26.8021 15.2166C25.7581 16.2983 22.9141 19.25 25.0021 22.4033C23.5081 23.0266 22.8061 23.6133 22.3561 24.86C21.6417 26.6927 21.4241 28.6873 21.7261 30.635ZM18.2659 19.7612C17.937 19.118 17.3969 18.6127 16.7399 18.3333C16.0419 18.1744 15.3112 18.2757 14.6803 18.6188C14.0495 18.9619 13.5604 19.5241 13.3019 20.2033C12.8699 21.6883 13.3199 23.21 14.3999 23.5216C15.4799 23.8333 17.9999 23.4483 18.5399 21.8533C18.6917 21.1448 18.5948 20.4044 18.2659 19.7612Z" fill="currentColor"/>
<path d="M21.186 35.6583C21.4664 36.427 21.5187 37.2626 21.3362 38.0613C21.1538 38.86 20.7448 39.5863 20.16 40.15" stroke="currentColor" stroke-width="0.75" stroke-miterlimit="10" stroke-linecap="round"/>
</svg>
