<svg width="55" height="54" viewBox="0 0 55 54" fill="none" xmlns="http://www.w3.org/2000/svg">
<path d="M45.815 49.95L44.4767 52.2" stroke="currentColor" stroke-width="0.75" stroke-miterlimit="10" stroke-linecap="round"/>
<path d="M23.9433 21.6C35.31 24.93 34.5216 27 36.7766 29.376C39.7283 32.49 39.545 34.488 41.47 39.384C42.46 41.904 42.8816 50.904 49.555 51.48" stroke="currentColor" stroke-width="0.75" stroke-miterlimit="10" stroke-linecap="round"/>
<path d="M49.5 47.034L44.4767 48.294" stroke="currentColor" stroke-width="0.75" stroke-miterlimit="10" stroke-linecap="round"/>
<path d="M31.0383 24.228C36.6667 27.954 38.5 28.26 43.6333 47.034" stroke="currentColor" stroke-width="2" stroke-linecap="round" stroke-linejoin="round" stroke-dasharray="2 2 2 2 2 2"/>
<path d="M11.3117 26.334C10.0205 26.9715 8.97264 28.0002 8.32334 29.268C7.82834 30.528 7.59 31.914 5.005 32.49" stroke="currentColor" stroke-width="0.75" stroke-miterlimit="10" stroke-linecap="round"/>
<path d="M8.3783 30.654L10.2483 31.824" stroke="currentColor" stroke-width="0.75" stroke-miterlimit="10" stroke-linecap="round"/>
<path d="M10.2483 17.676C7.42496 18.18 5.49996 15.462 4.30829 13.806" stroke="currentColor" stroke-width="0.75" stroke-miterlimit="10" stroke-linecap="round"/>
<path d="M6.81998 17.424L3.94165 18.5219" stroke="currentColor" stroke-width="0.75" stroke-miterlimit="10" stroke-linecap="round"/>
<path d="M19.03 12.906C19.7438 11.2655 20.1297 9.50554 20.1666 7.72198C20.02 5.47198 19.8 2.98798 19.8 2.98798" stroke="currentColor" stroke-width="0.75" stroke-miterlimit="10" stroke-linecap="round"/>
<path d="M20.295 8.53198L23.9433 5.25598" stroke="currentColor" stroke-width="0.75" stroke-miterlimit="10" stroke-linecap="round"/>
<path d="M20.13 6.372L16.775 4.914" stroke="currentColor" stroke-width="0.75" stroke-miterlimit="10" stroke-linecap="round"/>
<path d="M25.0616 15.768C27.0783 14.958 27.94 14.814 30.25 13.806C32.56 12.798 34.6316 12.006 34.6316 12.006" stroke="currentColor" stroke-width="0.75" stroke-miterlimit="10" stroke-linecap="round"/>
<path d="M31.6616 12.906L31.405 9.97198" stroke="currentColor" stroke-width="0.75" stroke-miterlimit="10" stroke-linecap="round"/>
<path d="M20.295 28.2599C20.295 28.2599 23.8333 31.2479 23.8333 33.1379C23.993 34.4692 24.5549 35.723 25.4467 36.7379" stroke="currentColor" stroke-width="0.75" stroke-miterlimit="10" stroke-linecap="round"/>
<path d="M23.5767 34.1819L19.1583 36.0179" stroke="currentColor" stroke-width="0.75" stroke-miterlimit="10" stroke-linecap="round"/>
<path fill-rule="evenodd" clip-rule="evenodd" d="M22.1284 30.078C19.2134 27.342 13.4201 26.712 9.58839 27.576C10.2733 25.8811 10.4965 24.0402 10.2361 22.2347C9.97574 20.4293 9.24068 18.7216 8.10339 17.28C13.2584 16.6908 16.0885 14.3389 18.35 12.4595C18.7829 12.0998 19.1949 11.7574 19.5984 11.448C20.7714 15.0731 22.4774 14.9874 24.653 14.878C25.4697 14.837 26.3526 14.7926 27.2984 14.94C26.2351 16.002 23.3384 18.9 25.4651 21.996C23.9434 22.608 23.2284 23.184 22.7701 24.408C22.0424 26.2074 21.8208 28.1657 22.1284 30.078ZM18.6041 19.402C18.2691 18.7705 17.7191 18.2743 17.0499 18C16.339 17.8439 15.5947 17.9434 14.9522 18.2803C14.3096 18.6172 13.8115 19.1692 13.5482 19.836C13.1082 21.294 13.5665 22.788 14.6665 23.094C15.7665 23.4 18.3332 23.022 18.8832 21.456C19.0379 20.7604 18.9391 20.0335 18.6041 19.402Z" fill="currentColor"/>
<path d="M21.5783 35.01C21.8639 35.7647 21.9171 36.5852 21.7313 37.3693C21.5455 38.1534 21.1289 38.8666 20.5333 39.42" stroke="currentColor" stroke-width="0.75" stroke-miterlimit="10" stroke-linecap="round"/>
</svg>
