<svg width="55" height="54" viewBox="0 0 55 54" fill="none" xmlns="http://www.w3.org/2000/svg">
<g clip-path="url(#clip0_1116_9743)">
<path d="M51.5474 24.5378C49.8896 15.5571 44.5518 23.7761 32.3277 28.1513C32.5099 28.417 32.6738 28.6827 32.8742 28.9307C33.3115 29.3558 33.3297 29.8341 33.1657 30.3124C33.3479 30.3832 33.5301 30.4364 33.7487 30.5072C35.2243 28.0982 37.8477 26.5394 40.7261 26.3446C40.7807 26.3446 40.8536 26.3446 40.9083 26.3446C41.1815 26.3977 41.3455 26.6457 41.2908 26.9114C41.2362 27.1771 40.9811 27.3365 40.7079 27.2834C38.2667 27.4782 36.0623 28.7713 34.7689 30.7906C35.3336 30.8792 35.8984 30.9323 36.4631 30.9323C38.631 30.9323 40.799 30.7021 42.9122 30.2415C43.1673 30.1707 43.4405 30.3124 43.5316 30.5604C43.5316 30.5604 43.5316 30.5781 43.5316 30.5958C43.5863 30.8438 43.4405 31.0918 43.1855 31.1449C42.5296 31.074 41.892 31.074 41.2362 31.1449C40.1978 31.3397 38.3213 31.8712 37.5926 31.9951C37.1372 32.0837 36.6817 32.1369 36.2081 32.1369H35.7162C34.9146 32.1723 34.113 32.1014 33.3297 31.9243C32.9835 31.818 32.6192 31.694 32.2913 31.5523C32.0727 31.7649 31.854 31.9597 31.6536 32.1191C31.8358 32.3317 32.018 32.5443 32.2366 32.7391C34.277 34.3333 35.3519 36.7955 35.0968 39.3285C35.1332 40.2142 35.1879 41.2061 35.3336 42.4461C35.3519 42.7118 35.1515 42.942 34.8782 42.9598C34.6049 42.9775 34.3681 42.8003 34.3134 42.5346C34.0948 41.277 34.0948 40.2673 34.0948 39.3639C34.0948 38.6731 34.022 37.9823 33.9309 37.3092L33.5665 36.0515C33.2932 35.4316 32.9289 34.8647 32.4552 34.3687C32.2913 36.4589 31.4533 38.4251 30.0505 40.0193C29.8501 40.1965 29.5404 40.1965 29.34 40.0193C29.2125 39.9308 29.1396 39.7891 29.1578 39.6296C29.1578 39.5234 29.1943 39.4348 29.2671 39.3639C30.7792 37.6989 31.5808 35.5555 31.5079 33.3414C31.1982 33.1288 30.9432 32.8808 30.7063 32.6151C30.1416 32.7922 29.5768 32.8631 28.9939 32.7568C28.0648 33.5894 27.3543 34.6344 26.9717 35.8035L26.5345 37.8052C26.498 38.4605 26.498 39.1337 26.5345 39.7891C26.4434 42.5169 26.662 45.2448 27.1721 47.9195C27.245 48.2029 27.0628 48.4864 26.7531 48.5572C26.4798 48.6103 26.2248 48.4509 26.1519 48.2029V47.9018C25.6418 45.9533 25.3139 43.9694 25.1681 41.9678C24.9495 42.2689 24.7127 42.5524 24.4759 42.8535C24.239 43.1546 24.0386 43.4912 23.8565 43.7746C23.3646 44.5717 23.237 46.839 21.9436 47.0161C21.6521 47.0161 21.1238 47.0161 21.0874 46.715C21.0509 46.4139 21.5428 46.1305 21.7432 45.9179C22.2715 45.3865 22.4719 44.0049 22.9456 43.2255L23.0549 43.066C21.8889 42.942 20.723 43.1192 19.6664 43.5974C19.4113 43.7214 19.0834 43.5974 18.9559 43.3672C18.8284 43.1015 18.9377 42.7826 19.2109 42.6409C20.4862 42.0741 21.8889 41.8615 23.2735 42.021H23.7471C24.2755 41.3478 24.7673 40.6924 25.1135 40.2496V38.9742C25.1135 38.124 25.241 37.2915 25.496 36.4766C25.8604 35.5024 26.3158 34.5636 26.8624 33.6602C26.0608 34.103 25.3139 34.6344 24.6398 35.2544C22.6905 37.256 19.8486 38.1948 17.043 37.7874H13.3995C13.0898 37.7874 12.8529 37.5572 12.8529 37.256C12.8529 36.9549 13.0898 36.7246 13.3995 36.7246C14.6201 36.6715 15.8224 36.6715 17.043 36.7246C17.9175 36.7246 20.1947 36.4589 20.1947 36.4589C21.142 36.2109 22.0529 35.8212 22.8727 35.3076C20.5226 35.0064 18.3547 33.9968 16.624 32.4203C16.4236 32.2077 16.4236 31.8712 16.624 31.6586C16.8426 31.4637 17.1705 31.4637 17.3892 31.6586C19.2109 33.3591 21.6157 34.3333 24.1479 34.3687C25.1499 33.4654 26.3158 32.7568 27.5182 32.1723C27.4089 32.1014 27.2632 32.0483 27.1721 31.942C27.0628 31.7649 27.1721 31.0032 26.917 29.7278L27.0628 29.6393C27.0628 29.6393 26.9717 29.657 26.9353 29.6747C20.7412 30.9501 19.6117 29.7455 8.49889 22.9436C1.92229 18.9226 1.50328 30.5958 3.94446 36.7423C6.6589 43.4203 9.13652 47.3704 16.2597 49.1418C21.4881 50.3817 30.597 53.7472 36.0623 51.6393C40.8536 49.8149 43.5498 47.1933 47.9039 43.2255C53.2417 38.3366 52.9502 32.1191 51.5474 24.5378Z" fill="currentColor"/>
<path d="M51.2378 9.3398C50.6184 7.99357 50.3451 6.52336 50.4362 5.05314C50.4544 4.30918 50.1447 3.58293 49.5982 3.06924C47.9403 2.00643 45.9546 1.52817 43.9871 1.74073C43.2948 1.74073 42.7301 2.28985 42.7301 2.96296C42.7301 2.96296 42.7301 2.98067 42.7301 2.99838C42.7301 3.6715 43.313 4.18519 44.0053 4.16747C44.0235 4.16747 44.06 4.16747 44.0782 4.16747C45.3352 4.02576 46.5922 4.23833 47.7217 4.80516V4.96458C47.6124 6.78906 47.9586 8.61354 48.7055 10.2786C48.997 10.8277 49.1427 11.43 49.1609 12.05C49.1245 13.6087 46.5011 14.5653 44.8433 14.5653C43.9871 14.5653 43.5317 13.839 42.6754 12.2802C42.3475 11.6248 41.9831 11.0049 41.5641 10.4026C40.3071 9.09181 38.376 8.63126 36.6271 9.19809C34.0949 9.71178 31.3258 11.3946 30.8521 13.9984C30.6699 14.9372 30.3602 15.0258 30.2509 15.0612C29.6497 15.1321 29.0303 15.0967 28.4291 14.955C27.6822 14.7778 26.9171 14.6893 26.1519 14.707C25.9333 14.707 25.9151 14.707 25.8422 14.5653C25.5507 13.5379 25.66 12.4396 26.1519 11.4831C27.7004 10.5089 27.3725 9.35751 27.2268 9.03867C26.4434 7.16104 22.3626 6.68278 19.8121 7.05476C17.4985 7.47988 15.4581 8.73754 14.0918 10.5975C13.7639 10.9694 13.4177 11.3237 13.0534 11.6603C11.1587 12.9533 10.6304 15.4509 11.851 17.364C12.3975 18.6748 12.7437 20.0564 12.8894 21.4558C12.9258 22.3769 13.3995 23.2448 14.1646 23.794C15.7314 24.9099 18.0815 24.5025 19.9579 24.1837C20.4315 24.0951 20.9052 24.0419 21.3789 24.0065C22.1805 24.0065 22.2169 24.0951 22.5448 24.8922C22.8181 26.2561 23.9294 27.3189 25.3321 27.5669C27.1903 27.9566 28.4656 29.6217 28.3563 31.4639C28.4656 32.0838 29.6862 31.8713 30.3784 31.7296C31.0707 31.5879 32.2002 30.7022 32.2002 30.0822C32.2002 29.9405 31.6355 27.2304 26.6256 25.459H26.3523C25.4232 25.2287 25.2957 24.8036 25.0042 24.0774C24.5488 22.5363 23.0185 21.5266 21.3789 21.6506C20.723 21.6683 20.0672 21.7569 19.4296 21.8809C18.2636 22.0758 16.3326 22.4123 15.6767 21.8809C15.6767 21.8809 15.4581 21.7392 15.4217 21.2787C15.2577 19.6667 14.8569 18.0902 14.2193 16.5846C13.5817 14.9195 13.3995 14.5653 14.7658 13.5025C15.2031 13.095 15.6221 12.6699 16.0229 12.2094C16.9884 10.81 18.464 9.83577 20.1583 9.46379C21.561 9.26894 22.982 9.37522 24.3301 9.76492C23.1824 11.3591 22.8545 13.3785 23.4375 15.2384C23.8565 16.5137 25.1682 17.3108 26.5345 17.1337C27.0446 17.1337 27.5547 17.1691 28.0466 17.2754C29.0485 17.5057 30.1052 17.5057 31.1071 17.2754C32.4188 16.8326 33.3297 15.6812 33.439 14.335C33.6941 12.9179 35.5158 11.8551 37.1919 11.5185C38.4307 11.2706 39.2505 11.5185 39.4144 11.6957C39.7606 12.2094 40.0885 12.7408 40.3618 13.2899C41.1998 14.8487 42.1835 16.8326 44.6976 16.9389C47.9221 17.1337 51.6568 15.1675 51.8754 12.2094C51.8936 11.2174 51.675 10.2255 51.2378 9.3398Z" fill="currentColor"/>
</g>
<defs>
<clipPath id="clip0_1116_9743">
<rect width="49.8438" height="50.625" fill="currentColor" transform="translate(2.57812 1.6875)"/>
</clipPath>
</defs>
</svg>
