<svg width="54" height="54" viewBox="0 0 54 54" fill="none" xmlns="http://www.w3.org/2000/svg">
<g clip-path="url(#clip0_1116_9744)">
<path d="M30.0603 46.4062H24.588V32.027C24.5702 30.8539 23.9306 29.7519 22.9179 29.1298C16.3973 27.6723 11.8488 23.0332 11.8488 17.8432C11.8488 16.1902 12.3108 14.5727 13.1458 13.1508C13.057 12.3865 12.7194 11.6578 12.1864 11.1068L8.4375 7.21422L12.2397 3.375L16.113 7.26754C16.7348 7.85409 17.5699 8.20957 18.4405 8.22735C21.1767 6.80541 24.2682 6.09445 27.3419 6.13C30.3979 6.07667 33.4539 6.82319 36.19 8.24512C37.1495 8.29844 38.0911 7.97851 38.7841 7.32086L42.5863 3.49942L46.4062 7.35641L42.5507 11.1601C42 11.7289 41.6624 12.4754 41.5913 13.2752C42.302 14.6794 42.7284 16.2435 42.7817 17.8076C42.7817 22.4822 39.2816 26.6058 33.6316 28.5965C33.0275 28.8098 32.4056 28.9876 31.8015 29.1298C30.7532 29.7519 30.0959 30.8716 30.0781 32.098V46.4062H30.0603ZM26.3647 44.6288H28.2836V32.0803C28.3191 30.1607 29.3852 28.4366 31.0375 27.5123L31.2685 27.4234C31.8726 27.299 32.4589 27.1213 33.0275 26.9258C37.949 25.2017 41.005 21.7179 41.005 17.8432C40.9517 16.4923 40.5608 15.1059 39.9034 13.8973L39.7968 13.684V13.453C39.8323 12.1199 40.3476 10.8579 41.2715 9.89812L43.8833 7.32086L42.5863 6.02335L40.01 8.6006C38.8551 9.66705 37.3449 10.1647 35.8169 9.98699L35.4971 9.88034C32.9919 8.54728 30.1314 7.81854 27.3242 7.88964C24.3925 7.88964 21.5853 8.52951 19.0624 9.88034L18.8847 9.96922H18.6715C17.2501 10.0403 15.8642 9.48931 14.8515 8.49396L12.2397 5.86338L10.9249 7.19645L13.4656 9.8448C14.3718 10.7868 14.887 12.0132 14.9403 13.3108V13.5774L14.7982 13.8084C14.0342 15.0171 13.6256 16.4035 13.6256 17.8254C13.6256 22.2156 17.6587 26.1437 23.4509 27.4057L23.6996 27.4945C25.2987 28.4188 26.3292 30.1251 26.3647 31.9736V44.5933V44.6288Z" fill="currentColor"/>
<path d="M34.9463 29.8407C34.1823 29.5741 33.596 29.503 33.0985 29.5919C32.9919 29.6275 32.8853 29.663 32.7787 29.6808C31.7305 30.3029 31.0731 31.4226 31.0553 32.6491V44.6644C31.0553 44.6644 31.1264 44.7177 31.1619 44.7355C32.6188 45.2509 36.35 42.7092 37.8246 38.5145C39.2993 34.3198 38.3399 31.0494 34.9641 29.8407H34.9463Z" fill="currentColor"/>
<path d="M23.5575 32.578C23.5397 31.4049 22.9001 30.3029 21.8874 29.6808C21.763 29.6452 21.6209 29.6097 21.4965 29.5741C21.0345 29.5386 20.5015 29.5741 19.8086 29.8408C16.4328 31.0494 15.5089 34.3198 16.9658 38.5145C18.405 42.6382 22.1184 45.1443 23.5397 44.7355V32.578H23.5575Z" fill="currentColor"/>
</g>
<defs>
<clipPath id="clip0_1116_9744">
<rect width="37.9688" height="43.0312" fill="currentColor" transform="translate(8.4375 3.375)"/>
</clipPath>
</defs>
</svg>
