<svg width="54" height="54" viewBox="0 0 54 54" fill="none" xmlns="http://www.w3.org/2000/svg">
<g clip-path="url(#clip0_1116_9745)">
<path d="M18.0899 40.752C18.587 40.752 18.9899 40.3491 18.9899 39.852C18.9899 39.355 18.587 38.952 18.0899 38.952C17.5929 38.952 17.1899 39.355 17.1899 39.852C17.1899 40.3491 17.5929 40.752 18.0899 40.752Z" fill="currentColor"/>
<path d="M9.39597 40.752C9.89303 40.752 10.296 40.3491 10.296 39.852C10.296 39.355 9.89303 38.952 9.39597 38.952C8.89892 38.952 8.49597 39.355 8.49597 39.852C8.49597 40.3491 8.89892 40.752 9.39597 40.752Z" fill="currentColor"/>
<path d="M35.4601 40.752C35.9571 40.752 36.3601 40.3491 36.3601 39.852C36.3601 39.355 35.9571 38.952 35.4601 38.952C34.963 38.952 34.5601 39.355 34.5601 39.852C34.5601 40.3491 34.963 40.752 35.4601 40.752Z" fill="currentColor"/>
<path d="M44.154 40.752C44.6511 40.752 45.054 40.3491 45.054 39.852C45.054 39.355 44.6511 38.952 44.154 38.952C43.657 38.952 43.254 39.355 43.254 39.852C43.254 40.3491 43.657 40.752 44.154 40.752Z" fill="currentColor"/>
<path d="M26.784 40.752C27.2811 40.752 27.684 40.3491 27.684 39.852C27.684 39.355 27.2811 38.952 26.784 38.952C26.287 38.952 25.884 39.355 25.884 39.852C25.884 40.3491 26.287 40.752 26.784 40.752Z" fill="currentColor"/>
<path d="M18.0899 46.152C18.587 46.152 18.9899 45.749 18.9899 45.252C18.9899 44.7549 18.587 44.352 18.0899 44.352C17.5929 44.352 17.1899 44.7549 17.1899 45.252C17.1899 45.749 17.5929 46.152 18.0899 46.152Z" fill="currentColor"/>
<path d="M9.39597 46.152C9.89303 46.152 10.296 45.749 10.296 45.252C10.296 44.7549 9.89303 44.352 9.39597 44.352C8.89892 44.352 8.49597 44.7549 8.49597 45.252C8.49597 45.749 8.89892 46.152 9.39597 46.152Z" fill="currentColor"/>
<path d="M35.4601 46.152C35.9571 46.152 36.3601 45.749 36.3601 45.252C36.3601 44.7549 35.9571 44.352 35.4601 44.352C34.963 44.352 34.5601 44.7549 34.5601 45.252C34.5601 45.749 34.963 46.152 35.4601 46.152Z" fill="currentColor"/>
<path d="M44.154 46.152C44.6511 46.152 45.054 45.749 45.054 45.252C45.054 44.7549 44.6511 44.352 44.154 44.352C43.657 44.352 43.254 44.7549 43.254 45.252C43.254 45.749 43.657 46.152 44.154 46.152Z" fill="currentColor"/>
<path d="M26.784 46.152C27.2811 46.152 27.684 45.749 27.684 45.252C27.684 44.7549 27.2811 44.352 26.784 44.352C26.287 44.352 25.884 44.7549 25.884 45.252C25.884 45.749 26.287 46.152 26.784 46.152Z" fill="currentColor"/>
<path d="M48.402 34.308C47.9268 33.7454 47.3416 33.2858 46.6822 32.9577C46.0229 32.6296 45.3034 32.4398 44.568 32.4C43.6368 32.4387 42.7314 32.7178 41.94 33.21C41.3415 33.5957 40.6529 33.819 39.942 33.858C39.2586 33.8214 38.5984 33.5972 38.034 33.21C37.2163 32.7027 36.278 32.423 35.316 32.4C34.218 32.4 31.986 33.876 31.302 33.876C30.6563 33.8317 30.0345 33.614 29.502 33.246L29.268 33.12C28.5628 32.6686 27.7471 32.4196 26.91 32.4C25.9788 32.4387 25.0734 32.7178 24.282 33.21C23.6768 33.5956 22.9825 33.8188 22.266 33.858C21.5836 33.816 20.9248 33.5923 20.358 33.21C19.5299 32.6965 18.5783 32.4166 17.604 32.4C16.506 32.4 14.256 33.876 13.572 33.876C12.9263 33.8317 12.3045 33.614 11.772 33.246C11.0141 32.7341 10.1296 32.4414 9.216 32.4C8.50999 32.4565 7.82401 32.6622 7.20342 33.0035C6.58283 33.3448 6.04176 33.814 5.616 34.38C5.46699 34.5882 5.4061 34.8467 5.44654 35.0994C5.48698 35.3522 5.62549 35.5788 5.832 35.73C5.99269 35.8506 6.18912 35.914 6.39 35.91C6.54827 35.9108 6.70443 35.8736 6.84536 35.8016C6.9863 35.7295 7.10791 35.6248 7.2 35.496C7.44316 35.1631 7.7526 34.884 8.10884 34.6765C8.46509 34.4689 8.86043 34.3374 9.27 34.29C9.83352 34.3412 10.3736 34.5398 10.836 34.866C11.6671 35.4112 12.6326 35.7164 13.626 35.748C14.82 35.5124 15.9686 35.087 17.028 34.488C17.2585 34.3982 17.5012 34.3436 17.748 34.326C18.0179 34.312 18.2878 34.3549 18.54 34.452L18.81 34.578L19.404 34.884C20.259 35.435 21.2492 35.7401 22.266 35.766C22.679 35.7612 23.0899 35.7068 23.49 35.604C23.49 35.604 25.47 34.776 26.244 34.452C26.4599 34.3824 26.6836 34.3401 26.91 34.326C28.188 34.326 29.772 35.748 31.356 35.748C32.5491 35.5092 33.6972 35.084 34.758 34.488C34.9879 34.3963 35.2309 34.3416 35.478 34.326C35.7477 34.315 36.017 34.3579 36.27 34.452L36.522 34.578L37.116 34.884C37.9778 35.4348 38.9736 35.7398 39.996 35.766C41.0325 35.7382 42.0438 35.4404 42.93 34.902C43.4366 34.5708 44.0185 34.3727 44.622 34.326C45.0587 34.3662 45.4828 34.4937 45.8693 34.7008C46.2558 34.908 46.5968 35.1906 46.872 35.532C46.9661 35.6517 47.0865 35.748 47.2238 35.8136C47.3612 35.8791 47.5118 35.9121 47.664 35.91C47.8867 35.9103 48.1028 35.834 48.276 35.694C48.4751 35.5261 48.6001 35.2864 48.6236 35.0269C48.6472 34.7674 48.5676 34.5092 48.402 34.308Z" fill="currentColor"/>
<path d="M21.6 19.224C21.5725 18.9246 21.5725 18.6233 21.6 18.324H5.40002V20.124H21.6C21.5725 19.8246 21.5725 19.5233 21.6 19.224Z" fill="currentColor"/>
<path d="M32.292 18.324C32.3108 18.6237 32.3108 18.9243 32.292 19.224C32.3108 19.5237 32.3108 19.8243 32.292 20.124H48.492V18.324H32.292Z" fill="currentColor"/>
<path d="M30.456 18.324C30.5344 18.6177 30.5767 18.92 30.582 19.224C30.582 20.1788 30.2027 21.0944 29.5276 21.7696C28.8524 22.4447 27.9368 22.824 26.982 22.824C26.0272 22.824 25.1115 22.4447 24.4364 21.7696C23.7613 21.0944 23.382 20.1788 23.382 19.224C23.3873 18.92 23.4296 18.6177 23.508 18.324H21.6C21.5725 18.6233 21.5725 18.9246 21.6 19.224C21.6 20.6561 22.1689 22.0297 23.1816 23.0424C24.1943 24.055 25.5678 24.624 27 24.624C28.4322 24.624 29.8057 24.055 30.8184 23.0424C31.8311 22.0297 32.4 20.6561 32.4 19.224C32.4188 18.9243 32.4188 18.6237 32.4 18.324H30.456Z" fill="currentColor"/>
<path d="M48.582 27.486H5.38196V29.286H48.582V27.486Z" fill="currentColor"/>
<path d="M32.292 4.80603C31.716 4.80603 29.088 8.28003 27.252 12.402C26.0575 14.6263 25.3576 17.0823 25.2 19.602C25.2 20.0794 25.3896 20.5373 25.7272 20.8748C26.0647 21.2124 26.5226 21.402 27 21.402C27.4773 21.402 27.9352 21.2124 28.2727 20.8748C28.6103 20.5373 28.8 20.0794 28.8 19.602C28.2892 17.4416 28.2279 15.1992 28.62 13.014C29.3838 10.0946 30.6245 7.32127 32.292 4.80603Z" fill="currentColor"/>
</g>
<defs>
<clipPath id="clip0_1116_9745">
<rect width="54" height="54" fill="currentColor"/>
</clipPath>
</defs>
</svg>
