<svg width="55" height="54" viewBox="0 0 55 54" fill="none" xmlns="http://www.w3.org/2000/svg">
<g clip-path="url(#clip0_1116_9747)">
<path d="M21.9825 23.0244C22.2971 24.5871 19.2059 25.4049 19.9278 26.9494C20.9088 28.494 22.982 28.9847 24.5739 28.0216C24.8331 27.858 25.0552 27.6763 25.2588 27.4582C27.1099 25.7865 24.9257 24.3327 25.6105 23.1334C26.0918 22.2975 26.2769 22.3884 26.8878 22.0613C27.4431 21.716 28.091 21.5707 28.7388 21.6433C30.1271 21.6433 30.775 24.151 33.1814 23.2788C35.5878 22.4065 35.3657 20.1896 34.0884 18.536C33.0333 17.1731 30.8676 19.4809 29.5903 18.536C28.8684 17.9545 30.6825 15.5014 28.7944 15.8466C26.9063 16.1919 26.9433 17.1913 27.2025 19.3537C27.0174 20.0079 26.5361 20.5349 25.9067 20.8075C25.2959 21.1891 24.5554 21.3708 23.8335 21.3163C21.9825 20.0806 21.1125 19.59 19.9278 21.0619C18.7431 22.5338 21.7788 22.1158 21.9825 23.0244Z" fill="currentColor"/>
<path d="M50.5814 14.3021C49.1006 13.9387 45.8057 14.8291 45.3984 14.5202C44.9912 14.2113 44.7136 13.4117 43.4178 12.703C42.4182 12.0852 41.178 11.9762 40.0859 12.3941C39.0678 12.7757 39.7342 11.7036 36.3838 11.8308C34.8844 11.7763 33.4035 12.1034 32.0523 12.7576C32.0337 12.7576 31.9967 12.7576 31.9782 12.7576C29.1091 12.3033 25.8512 12.8302 22.8525 14.2658C20.0018 15.6105 17.7805 17.6094 16.3737 19.79L16.4292 19.6082C14.3005 20.4986 12.5605 22.1159 11.5239 24.1511C9.67285 27.2948 11.0056 27.2585 10.0986 28.0035C9.08051 28.8394 8.5437 30.0932 8.61775 31.3834C8.69179 32.3647 8.91392 33.3278 9.26562 34.2363C9.26562 34.6725 6.50753 37.9797 5.56348 39.815C5.26731 40.1239 5.08221 40.5601 5.15625 41.0143C5.2488 41.6322 5.74859 42.1046 6.35944 42.1955C6.41498 42.1955 6.47051 42.1592 6.54455 42.141C6.74817 42.141 6.93327 42.1046 7.11838 42.0138C7.34051 41.8684 7.61817 41.4141 7.89583 40.8145C8.26604 40.2693 8.56221 39.706 8.56221 39.3607C9.19158 37.9797 9.932 36.4896 10.8205 35.999C11.4314 35.2903 12.8382 35.6901 14.7078 36.0535V37.1801L14.7448 36.8712C14.7448 36.8712 14.7448 41.505 21.168 42.7225C25.4995 43.5402 31.8486 42.9224 31.8486 39.3971C35.7174 40.978 39.0493 33.9819 39.0493 31.4379V27.313C38.1423 28.1852 36.7355 28.3306 35.6989 27.5492C35.6803 27.5492 35.6618 27.5129 35.6248 27.4947C36.6059 27.8581 37.7535 27.6946 38.4199 27.4947C38.4569 27.4947 38.4755 27.4584 38.5125 27.4584C39.8267 27.0222 41.6778 24.6418 42.6218 23.0063C44.2323 20.3351 44.8061 16.7553 46.0833 16.4827C47.5457 15.7013 50.1372 16.9188 50.9146 16.4827C51.2293 16.3192 51.4514 16.0284 51.507 15.6832C51.6365 15.0472 51.2108 14.4475 50.5629 14.3203L50.5814 14.3021ZM23.6669 15.8831C25.7216 14.9018 27.8688 14.393 29.905 14.393C30.5159 14.393 31.1082 14.4475 31.7006 14.5384C34.0884 14.92 35.8655 16.0648 36.6984 17.7547C37.5314 19.4447 37.3463 21.5162 36.1616 23.5878C35.2916 25.1324 33.9403 26.5134 32.2929 27.6582C31.1267 26.2954 29.8865 25.0052 28.5352 23.8059L28.4982 23.8422L28.3501 23.9512C28.961 25.2232 29.5533 26.4226 30.2012 27.5856C30.3308 27.949 30.4974 28.2942 30.701 28.6032C30.4974 28.7122 30.3123 28.8394 30.1086 28.9303C24.7035 31.4924 18.8727 30.6565 17.0956 27.0586C15.3186 23.4606 18.2618 18.4453 23.6669 15.8831ZM11.3203 33.6185C12.3014 31.8014 12.5605 29.6935 12.0237 27.6946C11.7831 25.3323 13.0788 23.079 15.2446 22.0432C14.9114 22.9881 14.7448 23.9149 14.7448 24.8416H14.7263V33.7094C16.8365 33.7275 18.9837 33.673 20.7607 32.6009C20.7978 32.5827 20.8533 32.5646 20.8903 32.5282C21.0939 32.3647 21.2605 32.183 21.3716 31.9467C21.3716 31.9467 21.3716 31.9286 21.3901 31.9104H21.4271C20.8163 33.564 17.8731 34.0365 16.3182 34.1273C16.1146 34.1273 15.8554 34.1455 15.6148 34.1455C15.5778 34.1455 15.5592 34.1455 15.5222 34.1455C15.2631 34.1455 14.9854 34.1455 14.7078 34.1273C12.1163 34.0183 8.87689 33.4913 11.3018 33.564L11.3203 33.6185ZM40.234 21.8615C39.6972 22.334 39.364 22.5884 39.0678 22.6792V19.5537H39.0308C38.9752 18.6451 38.7531 17.7729 38.3459 16.9552C37.5129 15.2652 36.032 14.0114 34.0514 13.2845C35.6618 12.5758 37.5684 12.703 39.0678 13.7206C40.4006 15.0108 42.1776 15.7377 44.0472 15.7922C43.1216 18.0091 41.8259 20.0444 40.234 21.8615Z" fill="currentColor"/>
</g>
<defs>
<clipPath id="clip0_1116_9747">
<rect width="46.4062" height="31.2188" fill="currentColor" transform="translate(5.15625 11.8125)"/>
</clipPath>
</defs>
</svg>
