<svg width="55" height="54" viewBox="0 0 55 54" fill="none" xmlns="http://www.w3.org/2000/svg">
<g clip-path="url(#clip0_1116_9748)">
<path d="M40.9017 19.098C33.77 4.78801 21.4867 6.01201 17.655 9.00001C13.8233 11.988 11.9717 15.318 13.145 19.98C13.8783 22.842 17.2333 24.336 20.0383 26.334C19.2975 27.3074 18.8583 28.4698 18.7733 29.682C17.7976 30.6506 16.6557 31.4427 15.4 32.022C13.6684 32.6506 11.8989 33.1736 10.1017 33.588L11.33 36.252C13.0296 35.8528 14.6965 35.3293 16.3167 34.686C17.6511 34.0303 18.8853 33.1941 19.9833 32.202C21.2724 33.1967 22.8955 33.6787 24.53 33.552C25.1717 37.026 24.915 40.752 25.9783 43.308C27.445 46.908 31.6983 47.034 34.8883 46.476C41.525 45.324 48.0333 33.408 40.9017 19.098ZM29.1683 29.646C28.6733 29.916 27.94 30.294 27.1517 30.636C26.8213 29.5047 26.3273 28.4257 25.685 27.432C25.2637 26.8056 24.8046 26.2045 24.31 25.632C25.1802 25.2058 26.0738 24.8272 26.9867 24.498C27.4148 25.0631 27.7891 25.6657 28.105 26.298C28.6189 27.359 28.9769 28.4862 29.1683 29.646ZM25.5017 23.076C24.7867 23.346 23.7967 23.742 22.8617 24.192C21.9 23.3404 20.8041 22.6475 19.6167 22.14C20.6026 21.8472 21.6436 21.7793 22.6603 21.9416C23.677 22.1038 24.6425 22.4918 25.4833 23.076H25.5017ZM20.8267 30.276C20.7813 29.3479 21.1032 28.4385 21.725 27.738C22.3403 28.3196 22.8654 28.9867 23.2833 29.718C23.5669 30.2625 23.806 30.8283 23.9983 31.41C22.2017 31.446 21.01 30.798 20.8083 30.294L20.8267 30.276ZM27.6283 32.562L29.3333 31.716C29.3099 33.4035 28.7596 35.0434 27.7567 36.414C27.8748 35.1351 27.8255 33.8466 27.61 32.58L27.6283 32.562Z" fill="currentColor"/>
</g>
<defs>
<clipPath id="clip0_1116_9748">
<rect width="55" height="54" fill="currentColor"/>
</clipPath>
</defs>
</svg>
