<svg width="55" height="54" viewBox="0 0 55 54" fill="none" xmlns="http://www.w3.org/2000/svg">
<path d="M44.9716 4.122C42.6287 5.3195 40.6211 7.06348 39.1251 9.20077C37.6291 11.3381 36.6905 13.8033 36.3916 16.38C36.0441 19.6197 34.8576 22.7181 32.945 25.38C32.5783 25.83 32.1933 26.244 31.79 26.658L30.9283 27.504L30.085 28.314C29.3246 28.9504 28.3523 29.29 27.3533 29.268C24.9448 27.9893 22.2446 27.3327 19.5066 27.36C16.7973 27.314 14.1192 27.9327 11.715 29.16C11.1531 29.2034 10.5881 29.1296 10.0573 28.9435C9.52649 28.7573 9.04177 28.4631 8.63498 28.08L5.71998 25.2L4.06998 26.82L3.35498 27.54L6.28831 30.438C6.96496 31.1657 7.338 32.1167 7.33331 33.102C6.65792 34.2951 6.27501 35.6263 6.21498 36.99C6.21498 40.914 9.40498 44.28 13.9883 45.792C14.5419 45.9716 15.1049 46.1218 15.675 46.242C16.3163 46.7537 16.8346 47.3983 17.1927 48.1295C17.5508 48.8607 17.74 49.6606 17.7466 50.472H21.1016C21.1135 49.6773 21.2998 48.8945 21.6478 48.1769C21.9958 47.4593 22.4974 46.8239 23.1183 46.314C28.6183 45.144 32.6333 41.418 32.6333 37.026C32.6236 35.6134 32.2177 34.2308 31.46 33.03C31.4921 32.4934 31.6291 31.9679 31.8633 31.482C33.1778 30.3761 34.4036 29.1726 35.53 27.882C37.5182 25.4851 38.8835 22.6497 39.5083 19.62C39.8736 16.8665 40.7762 14.208 42.1666 11.79C43.1506 9.79054 44.7907 8.17393 46.8233 7.2C47.18 6.9327 47.4245 6.54624 47.5104 6.11382C47.5964 5.6814 47.5178 5.23306 47.2896 4.85371C47.0614 4.47436 46.6994 4.19036 46.2722 4.05551C45.845 3.92066 45.3823 3.94431 44.9716 4.122Z" fill="currentColor"/>
</svg>
