<?xml version="1.0" encoding="UTF-8" standalone="no"?>
<!DOCTYPE svg PUBLIC "-//W3C//DTD SVG 1.1//EN"
 "http://www.w3.org/Graphics/SVG/1.1/DTD/svg11.dtd">
<!-- Generated by graphviz version 2.47.0 (20210316.0004)
 -->
<!-- Title: dependencies Pages: 1 -->
<svg width="1468pt" height="396pt"
 viewBox="0.00 0.00 1468.00 395.59" xmlns="http://www.w3.org/2000/svg" xmlns:xlink="http://www.w3.org/1999/xlink">
<g id="graph0" class="graph" transform="scale(1 1) rotate(0) translate(4 391.59)">
<title>dependencies</title>
<polygon fill="white" stroke="transparent" points="-4,4 -4,-391.59 1464,-391.59 1464,4 -4,4"/>
<text text-anchor="start" x="709.01" y="-42.4" font-family="Times-12" font-weight="bold" font-size="14.00">Legend</text>
<polygon fill="#ffffb3" stroke="transparent" points="496,-10 496,-30 516,-30 516,-10 496,-10"/>
<text text-anchor="start" x="519.63" y="-15.4" font-family="Times-12" font-size="14.00"> &#160;Declarations</text>
<polygon fill="#8dd3c7" stroke="transparent" points="609,-10 609,-30 629,-30 629,-10 609,-10"/>
<text text-anchor="start" x="632.73" y="-15.4" font-family="Times-12" font-size="14.00"> &#160;Module</text>
<polygon fill="#80b1d3" stroke="transparent" points="695,-10 695,-30 715,-30 715,-10 695,-10"/>
<text text-anchor="start" x="718.78" y="-15.4" font-family="Times-12" font-size="14.00"> &#160;Bootstrap</text>
<polygon fill="#fdb462" stroke="transparent" points="792,-10 792,-30 812,-30 812,-10 792,-10"/>
<text text-anchor="start" x="815.67" y="-15.4" font-family="Times-12" font-size="14.00"> &#160;Providers</text>
<polygon fill="#fb8072" stroke="transparent" points="888,-10 888,-30 908,-30 908,-10 888,-10"/>
<text text-anchor="start" x="911.73" y="-15.4" font-family="Times-12" font-size="14.00"> &#160;Exports</text>
<g id="clust1" class="cluster">
<title>cluster_FileUploadModule</title>
<polygon fill="none" stroke="black" stroke-dasharray="1,5" points="8,-70 8,-379.59 1452,-379.59 1452,-70 8,-70"/>
</g>
<g id="clust5" class="cluster">
<title>cluster_FileUploadModule_exports</title>
<polygon fill="none" stroke="black" points="634,-319.59 634,-371.59 798,-371.59 798,-319.59 634,-319.59"/>
</g>
<g id="clust3" class="cluster">
<title>cluster_FileUploadModule_FileUploadComponent_providers</title>
<polygon fill="none" stroke="black" points="16,-78 16,-241.59 1444,-241.59 1444,-78 16,-78"/>
</g>
<!-- FileUploadComponent -->
<g id="node1" class="node">
<title>FileUploadComponent</title>
<polygon fill="#ffffb3" stroke="black" points="788.32,-233.59 643.68,-233.59 643.68,-197.59 788.32,-197.59 788.32,-233.59"/>
<text text-anchor="middle" x="716" y="-211.39" font-family="Times,serif" font-size="14.00">FileUploadComponent</text>
</g>
<!-- FileUploadModule -->
<g id="node2" class="node">
<title>FileUploadModule</title>
<polygon fill="#8dd3c7" stroke="black" points="777.04,-298.59 774.04,-302.59 753.04,-302.59 750.04,-298.59 654.96,-298.59 654.96,-262.59 777.04,-262.59 777.04,-298.59"/>
<text text-anchor="middle" x="716" y="-276.39" font-family="Times,serif" font-size="14.00">FileUploadModule</text>
</g>
<!-- FileUploadComponent&#45;&gt;FileUploadModule -->
<g id="edge1" class="edge">
<title>FileUploadComponent&#45;&gt;FileUploadModule</title>
<path fill="none" stroke="black" d="M716,-233.7C716,-233.7 716,-252.58 716,-252.58"/>
<polygon fill="black" stroke="black" points="712.5,-252.58 716,-262.58 719.5,-252.58 712.5,-252.58"/>
</g>
<!-- FileUploadComponent  -->
<g id="node5" class="node">
<title>FileUploadComponent </title>
<polygon fill="#fb8072" stroke="black" points="789.82,-363.59 642.18,-363.59 642.18,-327.59 789.82,-327.59 789.82,-363.59"/>
<text text-anchor="middle" x="716" y="-341.39" font-family="Times,serif" font-size="14.00">FileUploadComponent </text>
</g>
<!-- FileUploadModule&#45;&gt;FileUploadComponent  -->
<g id="edge4" class="edge">
<title>FileUploadModule&#45;&gt;FileUploadComponent </title>
<path fill="none" stroke="black" stroke-dasharray="5,2" d="M716,-298.7C716,-298.7 716,-317.58 716,-317.58"/>
<polygon fill="black" stroke="black" points="712.5,-317.58 716,-327.58 719.5,-317.58 712.5,-317.58"/>
</g>
<!-- {
 &#160;&#160;&#160;provide: NG_VALUE_ACCESSOR, multi: true, useExisting: FileUploadComponent,
} -->
<g id="node3" class="node">
<title>{
 &#160;&#160;&#160;provide: NG_VALUE_ACCESSOR, multi: true, useExisting: FileUploadComponent,
}</title>
<ellipse fill="#fdb462" stroke="black" cx="1074" cy="-127.3" rx="361.72" ry="41.09"/>
<text text-anchor="middle" x="1074" y="-139.9" font-family="Times,serif" font-size="14.00">{</text>
<text text-anchor="middle" x="1074" y="-123.1" font-family="Times,serif" font-size="14.00"> &#160;&#160;&#160;provide: NG_VALUE_ACCESSOR, multi: true, useExisting: FileUploadComponent,</text>
<text text-anchor="middle" x="1074" y="-106.3" font-family="Times,serif" font-size="14.00">}</text>
</g>
<!-- {
 &#160;&#160;&#160;provide: NG_VALUE_ACCESSOR, multi: true, useExisting: FileUploadComponent,
}&#45;&gt;FileUploadComponent -->
<g id="edge2" class="edge">
<title>{
 &#160;&#160;&#160;provide: NG_VALUE_ACCESSOR, multi: true, useExisting: FileUploadComponent,
}&#45;&gt;FileUploadComponent</title>
<path fill="none" stroke="black" d="M750.28,-146.02C750.28,-146.02 750.28,-187.5 750.28,-187.5"/>
<polygon fill="black" stroke="black" points="746.78,-187.5 750.28,-197.5 753.78,-187.5 746.78,-187.5"/>
</g>
<!-- {
 &#160;&#160;&#160;provide: NG_VALIDATORS, multi: true, useExisting: FileUploadComponent,
} -->
<g id="node4" class="node">
<title>{
 &#160;&#160;&#160;provide: NG_VALIDATORS, multi: true, useExisting: FileUploadComponent,
}</title>
<ellipse fill="#fdb462" stroke="black" cx="359" cy="-127.3" rx="335.4" ry="41.09"/>
<text text-anchor="middle" x="359" y="-139.9" font-family="Times,serif" font-size="14.00">{</text>
<text text-anchor="middle" x="359" y="-123.1" font-family="Times,serif" font-size="14.00"> &#160;&#160;&#160;provide: NG_VALIDATORS, multi: true, useExisting: FileUploadComponent,</text>
<text text-anchor="middle" x="359" y="-106.3" font-family="Times,serif" font-size="14.00">}</text>
</g>
<!-- {
 &#160;&#160;&#160;provide: NG_VALIDATORS, multi: true, useExisting: FileUploadComponent,
}&#45;&gt;FileUploadComponent -->
<g id="edge3" class="edge">
<title>{
 &#160;&#160;&#160;provide: NG_VALIDATORS, multi: true, useExisting: FileUploadComponent,
}&#45;&gt;FileUploadComponent</title>
<path fill="none" stroke="black" d="M669.02,-143.08C669.02,-143.08 669.02,-187.51 669.02,-187.51"/>
<polygon fill="black" stroke="black" points="665.52,-187.51 669.02,-197.51 672.52,-187.51 665.52,-187.51"/>
</g>
</g>
</svg>
