<?xml version="1.0" encoding="UTF-8" standalone="no"?>
<!DOCTYPE svg PUBLIC "-//W3C//DTD SVG 1.1//EN"
 "http://www.w3.org/Graphics/SVG/1.1/DTD/svg11.dtd">
<!-- Generated by graphviz version 2.47.0 (20210316.0004)
 -->
<!-- Title: dependencies Pages: 1 -->
<svg width="504pt" height="284pt"
 viewBox="0.00 0.00 504.00 284.00" xmlns="http://www.w3.org/2000/svg" xmlns:xlink="http://www.w3.org/1999/xlink">
<g id="graph0" class="graph" transform="scale(1 1) rotate(0) translate(4 280)">
<title>dependencies</title>
<polygon fill="white" stroke="transparent" points="-4,4 -4,-280 500,-280 500,4 -4,4"/>
<text text-anchor="start" x="227.01" y="-42.4" font-family="Times-12" font-weight="bold" font-size="14.00">Legend</text>
<polygon fill="#ffffb3" stroke="transparent" points="14,-10 14,-30 34,-30 34,-10 14,-10"/>
<text text-anchor="start" x="37.63" y="-15.4" font-family="Times-12" font-size="14.00"> &#160;Declarations</text>
<polygon fill="#8dd3c7" stroke="transparent" points="127,-10 127,-30 147,-30 147,-10 127,-10"/>
<text text-anchor="start" x="150.73" y="-15.4" font-family="Times-12" font-size="14.00"> &#160;Module</text>
<polygon fill="#80b1d3" stroke="transparent" points="213,-10 213,-30 233,-30 233,-10 213,-10"/>
<text text-anchor="start" x="236.78" y="-15.4" font-family="Times-12" font-size="14.00"> &#160;Bootstrap</text>
<polygon fill="#fdb462" stroke="transparent" points="310,-10 310,-30 330,-30 330,-10 310,-10"/>
<text text-anchor="start" x="333.67" y="-15.4" font-family="Times-12" font-size="14.00"> &#160;Providers</text>
<polygon fill="#fb8072" stroke="transparent" points="406,-10 406,-30 426,-30 426,-10 406,-10"/>
<text text-anchor="start" x="429.73" y="-15.4" font-family="Times-12" font-size="14.00"> &#160;Exports</text>
<g id="clust1" class="cluster">
<title>cluster_IconButtonModule</title>
<polygon fill="none" stroke="black" stroke-dasharray="1,5" points="55.5,-70 55.5,-268 440.5,-268 440.5,-70 55.5,-70"/>
</g>
<g id="clust3" class="cluster">
<title>cluster_IconButtonModule_imports</title>
<polygon fill="none" stroke="black" points="66.5,-78 66.5,-130 429.5,-130 429.5,-78 66.5,-78"/>
</g>
<g id="clust4" class="cluster">
<title>cluster_IconButtonModule_exports</title>
<polygon fill="none" stroke="black" points="63.5,-208 63.5,-260 432.5,-260 432.5,-208 63.5,-208"/>
</g>
<!-- IconButtonSizeDirective -->
<g id="node1" class="node">
<title>IconButtonSizeDirective</title>
<polygon fill="#8dd3c7" stroke="black" points="421.18,-122 418.18,-126 397.18,-126 394.18,-122 265.82,-122 265.82,-86 421.18,-86 421.18,-122"/>
<text text-anchor="middle" x="343.5" y="-99.8" font-family="Times,serif" font-size="14.00">IconButtonSizeDirective</text>
</g>
<!-- IconButtonModule -->
<g id="node3" class="node">
<title>IconButtonModule</title>
<polygon fill="#8dd3c7" stroke="black" points="222.54,-187 219.54,-191 198.54,-191 195.54,-187 100.46,-187 100.46,-151 222.54,-151 222.54,-187"/>
<text text-anchor="middle" x="161.5" y="-164.8" font-family="Times,serif" font-size="14.00">IconButtonModule</text>
</g>
<!-- IconButtonSizeDirective&#45;&gt;IconButtonModule -->
<g id="edge1" class="edge">
<title>IconButtonSizeDirective&#45;&gt;IconButtonModule</title>
<path fill="none" stroke="black" d="M369.45,-122.02C369.45,-139.37 369.45,-163 369.45,-163 369.45,-163 232.77,-163 232.77,-163"/>
<polygon fill="black" stroke="black" points="232.77,-159.5 222.77,-163 232.77,-166.5 232.77,-159.5"/>
</g>
<!-- IconButtonVariantDirective -->
<g id="node2" class="node">
<title>IconButtonVariantDirective</title>
<polygon fill="#8dd3c7" stroke="black" points="248.05,-122 245.05,-126 224.05,-126 221.05,-122 74.95,-122 74.95,-86 248.05,-86 248.05,-122"/>
<text text-anchor="middle" x="161.5" y="-99.8" font-family="Times,serif" font-size="14.00">IconButtonVariantDirective</text>
</g>
<!-- IconButtonVariantDirective&#45;&gt;IconButtonModule -->
<g id="edge2" class="edge">
<title>IconButtonVariantDirective&#45;&gt;IconButtonModule</title>
<path fill="none" stroke="black" d="M161.5,-122.11C161.5,-122.11 161.5,-140.99 161.5,-140.99"/>
<polygon fill="black" stroke="black" points="158,-140.99 161.5,-150.99 165,-140.99 158,-140.99"/>
</g>
<!-- IconButtonSizeDirective  -->
<g id="node4" class="node">
<title>IconButtonSizeDirective </title>
<polygon fill="#fb8072" stroke="black" points="424.68,-252 266.32,-252 266.32,-216 424.68,-216 424.68,-252"/>
<text text-anchor="middle" x="345.5" y="-229.8" font-family="Times,serif" font-size="14.00">IconButtonSizeDirective </text>
</g>
<!-- IconButtonModule&#45;&gt;IconButtonSizeDirective  -->
<g id="edge3" class="edge">
<title>IconButtonModule&#45;&gt;IconButtonSizeDirective </title>
<path fill="none" stroke="black" stroke-dasharray="5,2" d="M222.83,-175C266.62,-175 317.8,-175 317.8,-175 317.8,-175 317.8,-205.98 317.8,-205.98"/>
<polygon fill="black" stroke="black" points="314.3,-205.98 317.8,-215.98 321.3,-205.98 314.3,-205.98"/>
</g>
<!-- IconButtonVariantDirective  -->
<g id="node5" class="node">
<title>IconButtonVariantDirective </title>
<polygon fill="#fb8072" stroke="black" points="247.55,-252 71.45,-252 71.45,-216 247.55,-216 247.55,-252"/>
<text text-anchor="middle" x="159.5" y="-229.8" font-family="Times,serif" font-size="14.00">IconButtonVariantDirective </text>
</g>
<!-- IconButtonModule&#45;&gt;IconButtonVariantDirective  -->
<g id="edge4" class="edge">
<title>IconButtonModule&#45;&gt;IconButtonVariantDirective </title>
<path fill="none" stroke="black" stroke-dasharray="5,2" d="M161.5,-187.11C161.5,-187.11 161.5,-205.99 161.5,-205.99"/>
<polygon fill="black" stroke="black" points="158,-205.99 161.5,-215.99 165,-205.99 158,-205.99"/>
</g>
</g>
</svg>
