<?xml version="1.0" encoding="UTF-8" standalone="no"?>
<!DOCTYPE svg PUBLIC "-//W3C//DTD SVG 1.1//EN"
 "http://www.w3.org/Graphics/SVG/1.1/DTD/svg11.dtd">
<!-- Generated by graphviz version 2.47.0 (20210316.0004)
 -->
<!-- Title: dependencies Pages: 1 -->
<svg width="504pt" height="284pt"
 viewBox="0.00 0.00 504.00 284.00" xmlns="http://www.w3.org/2000/svg" xmlns:xlink="http://www.w3.org/1999/xlink">
<g id="graph0" class="graph" transform="scale(1 1) rotate(0) translate(4 280)">
<title>dependencies</title>
<polygon fill="white" stroke="transparent" points="-4,4 -4,-280 500,-280 500,4 -4,4"/>
<text text-anchor="start" x="227.01" y="-42.4" font-family="Times-12" font-weight="bold" font-size="14.00">Legend</text>
<polygon fill="#ffffb3" stroke="transparent" points="14,-10 14,-30 34,-30 34,-10 14,-10"/>
<text text-anchor="start" x="37.63" y="-15.4" font-family="Times-12" font-size="14.00"> &#160;Declarations</text>
<polygon fill="#8dd3c7" stroke="transparent" points="127,-10 127,-30 147,-30 147,-10 127,-10"/>
<text text-anchor="start" x="150.73" y="-15.4" font-family="Times-12" font-size="14.00"> &#160;Module</text>
<polygon fill="#80b1d3" stroke="transparent" points="213,-10 213,-30 233,-30 233,-10 213,-10"/>
<text text-anchor="start" x="236.78" y="-15.4" font-family="Times-12" font-size="14.00"> &#160;Bootstrap</text>
<polygon fill="#fdb462" stroke="transparent" points="310,-10 310,-30 330,-30 330,-10 310,-10"/>
<text text-anchor="start" x="333.67" y="-15.4" font-family="Times-12" font-size="14.00"> &#160;Providers</text>
<polygon fill="#fb8072" stroke="transparent" points="406,-10 406,-30 426,-30 426,-10 406,-10"/>
<text text-anchor="start" x="429.73" y="-15.4" font-family="Times-12" font-size="14.00"> &#160;Exports</text>
<g id="clust1" class="cluster">
<title>cluster_TableVersionModule</title>
<polygon fill="none" stroke="black" stroke-dasharray="1,5" points="13,-70 13,-268 483,-268 483,-70 13,-70"/>
</g>
<g id="clust2" class="cluster">
<title>cluster_TableVersionModule_declarations</title>
<polygon fill="none" stroke="black" points="301,-78 301,-130 475,-130 475,-78 301,-78"/>
</g>
<g id="clust5" class="cluster">
<title>cluster_TableVersionModule_exports</title>
<polygon fill="none" stroke="black" points="123,-208 123,-260 301,-260 301,-208 123,-208"/>
</g>
<g id="clust4" class="cluster">
<title>cluster_TableVersionModule_imports</title>
<polygon fill="none" stroke="black" points="21,-78 21,-130 293,-130 293,-78 21,-78"/>
</g>
<!-- TableVersionComponent -->
<g id="node1" class="node">
<title>TableVersionComponent</title>
<polygon fill="#ffffb3" stroke="black" points="466.52,-122 309.48,-122 309.48,-86 466.52,-86 466.52,-122"/>
<text text-anchor="middle" x="388" y="-99.8" font-family="Times,serif" font-size="14.00">TableVersionComponent</text>
</g>
<!-- TableVersionModule -->
<g id="node2" class="node">
<title>TableVersionModule</title>
<polygon fill="#8dd3c7" stroke="black" points="279.74,-187 276.74,-191 255.74,-191 252.74,-187 144.26,-187 144.26,-151 279.74,-151 279.74,-187"/>
<text text-anchor="middle" x="212" y="-164.8" font-family="Times,serif" font-size="14.00">TableVersionModule</text>
</g>
<!-- TableVersionComponent&#45;&gt;TableVersionModule -->
<g id="edge1" class="edge">
<title>TableVersionComponent&#45;&gt;TableVersionModule</title>
<path fill="none" stroke="black" d="M388,-122.11C388,-141.34 388,-169 388,-169 388,-169 289.79,-169 289.79,-169"/>
<polygon fill="black" stroke="black" points="289.79,-165.5 279.79,-169 289.79,-172.5 289.79,-165.5"/>
</g>
<!-- TableVersionComponent  -->
<g id="node5" class="node">
<title>TableVersionComponent </title>
<polygon fill="#fb8072" stroke="black" points="292.52,-252 131.48,-252 131.48,-216 292.52,-216 292.52,-252"/>
<text text-anchor="middle" x="212" y="-229.8" font-family="Times,serif" font-size="14.00">TableVersionComponent </text>
</g>
<!-- TableVersionModule&#45;&gt;TableVersionComponent  -->
<g id="edge4" class="edge">
<title>TableVersionModule&#45;&gt;TableVersionComponent </title>
<path fill="none" stroke="black" stroke-dasharray="5,2" d="M212,-187.11C212,-187.11 212,-205.99 212,-205.99"/>
<polygon fill="black" stroke="black" points="208.5,-205.99 212,-215.99 215.5,-205.99 208.5,-205.99"/>
</g>
<!-- ChooseVersionModule -->
<g id="node3" class="node">
<title>ChooseVersionModule</title>
<polygon fill="#8dd3c7" stroke="black" points="284.86,-122 281.86,-126 260.86,-126 257.86,-122 139.14,-122 139.14,-86 284.86,-86 284.86,-122"/>
<text text-anchor="middle" x="212" y="-99.8" font-family="Times,serif" font-size="14.00">ChooseVersionModule</text>
</g>
<!-- ChooseVersionModule&#45;&gt;TableVersionModule -->
<g id="edge2" class="edge">
<title>ChooseVersionModule&#45;&gt;TableVersionModule</title>
<path fill="none" stroke="black" d="M212,-122.11C212,-122.11 212,-140.99 212,-140.99"/>
<polygon fill="black" stroke="black" points="208.5,-140.99 212,-150.99 215.5,-140.99 208.5,-140.99"/>
</g>
<!-- TableModule -->
<g id="node4" class="node">
<title>TableModule</title>
<polygon fill="#8dd3c7" stroke="black" points="120.92,-122 117.92,-126 96.92,-126 93.92,-122 29.08,-122 29.08,-86 120.92,-86 120.92,-122"/>
<text text-anchor="middle" x="75" y="-99.8" font-family="Times,serif" font-size="14.00">TableModule</text>
</g>
<!-- TableModule&#45;&gt;TableVersionModule -->
<g id="edge3" class="edge">
<title>TableModule&#45;&gt;TableVersionModule</title>
<path fill="none" stroke="black" d="M75,-122.11C75,-141.34 75,-169 75,-169 75,-169 133.9,-169 133.9,-169"/>
<polygon fill="black" stroke="black" points="133.9,-172.5 143.9,-169 133.9,-165.5 133.9,-172.5"/>
</g>
</g>
</svg>
