<svg width="24" height="24" viewBox="0 0 24 24" fill="none" xmlns="http://www.w3.org/2000/svg">
<g clip-path="url(#clip0_6265_2168)">
<path d="M18.3124 9.304C18.3283 8.81747 18.5218 8.3536 18.8564 8L20.3204 6.536L19.9604 6.184L19.1604 5.384L17.6964 6.776C17.4959 6.97135 17.2556 7.12108 16.9918 7.21497C16.7281 7.30886 16.4472 7.34469 16.1684 7.32C14.9694 6.68937 13.6351 6.35985 12.2804 6.35985C10.9257 6.35985 9.59134 6.68937 8.39239 7.32C8.1294 7.33011 7.86707 7.28716 7.62104 7.19369C7.37502 7.10023 7.15033 6.95818 6.96039 6.776L5.49639 5.328L5.14439 5.688L4.34439 6.488L5.76039 8C6.09994 8.3478 6.29688 8.81019 6.31239 9.296C5.93772 9.90226 5.73579 10.5994 5.72839 11.312C5.72839 13.544 7.72839 15.424 10.4564 16.016C10.7549 16.1855 11.0046 16.4292 11.1812 16.7235C11.3578 17.0179 11.4554 17.3529 11.4644 17.696V19.768H13.1284V17.68C13.1406 17.3347 13.2421 16.9984 13.423 16.704C13.6038 16.4096 13.8579 16.167 14.1604 16C14.4316 15.9394 14.6988 15.8619 14.9604 15.768C17.2404 14.968 18.8164 13.288 18.8244 11.304C18.8097 10.6068 18.6345 9.92245 18.3124 9.304Z" fill="white"/>
</g>
<defs>
<clipPath id="clip0_6265_2168">
<rect width="24" height="24" fill="white"/>
</clipPath>
</defs>
</svg>
