<svg width="24" height="24" viewBox="0 0 24 24" fill="none" xmlns="http://www.w3.org/2000/svg">
<g clip-path="url(#clip0_5470_348)">
<path d="M18.9997 12.5441C18.9997 12.5441 18.9644 12.4801 18.9355 12.4545C18.7815 12.2753 18.6274 12.1026 18.4734 11.9234C18.3836 11.8242 18.3002 11.7251 18.2649 11.6003C18.2456 11.5203 18.2392 11.4372 18.374 11.4915C18.4478 11.5267 18.528 11.5459 18.6082 11.5651C18.6884 11.5843 18.7718 11.5651 18.8168 11.4915C18.8617 11.4116 18.7911 11.3572 18.7269 11.3188C18.4542 11.1204 18.1654 10.9861 17.8317 10.9221C17.6873 10.8965 17.5782 10.8133 17.498 10.679C17.3632 10.4262 17.2637 10.1575 17.1546 9.89516C16.8851 9.21055 16.5225 8.57072 16.1246 7.95008C16.0155 7.77733 15.9256 7.59818 15.8903 7.39023C15.8101 6.92955 15.7363 6.47208 15.6112 6.03059C15.486 5.57951 15.4122 5.11244 15.2486 4.67096C15.1234 4.32865 14.9052 4.09511 14.5523 4.01193C14.363 3.96714 14.1736 3.92236 13.9843 3.87757C13.7051 3.80399 13.4228 3.7432 13.1693 3.58964C13.0602 3.52566 12.9447 3.46488 12.9062 3.33691C12.781 2.91462 12.9415 2.54352 13.15 2.19162C13.2752 1.98367 13.349 1.75973 13.2142 1.63177C13.1244 1.54219 13.1051 1.45261 13.1147 1.34384C13.134 1.04632 13.0345 0.783992 12.9062 0.515264C12.6527 -0.0349892 12.0013 -0.0797773 11.5681 0.0929767C11.106 0.272129 11.0162 0.713611 10.9071 1.1391C10.8621 1.30225 10.9327 1.491 10.8172 1.63497C10.6985 1.76933 10.6921 1.90689 10.7723 2.04126C10.9712 2.38357 11.1606 2.71628 11.1349 3.14176C11.1253 3.34971 11.0451 3.48407 10.8621 3.55765C10.5445 3.69202 10.23 3.81998 9.8963 3.88077C9.27379 3.98954 8.85665 4.31265 8.68658 4.95248C8.51331 5.6275 8.31757 6.30572 8.19884 6.99674C8.12504 7.45741 7.9999 7.8797 7.72073 8.2668C7.54104 8.51953 7.40306 8.79786 7.25866 9.06978C7.00517 9.54646 6.80622 10.0615 6.59765 10.567C6.52385 10.7461 6.39871 10.8837 6.20939 10.9189C5.86604 10.9829 5.57725 11.1428 5.3045 11.3348C5.2307 11.3796 5.15048 11.4244 5.19541 11.5331C5.24995 11.6323 5.3398 11.6323 5.42965 11.6067C5.50987 11.5811 5.57404 11.5267 5.65426 11.4979C5.75374 11.4531 5.78903 11.4979 5.76336 11.5971C5.70881 11.7699 5.61897 11.9138 5.4842 12.029C5.33017 12.173 5.19541 12.3361 5.06705 12.5057C5.03176 12.5601 4.95795 12.6304 5.02213 12.6944C5.09593 12.768 5.16653 12.6944 5.22108 12.6496C5.33017 12.5601 5.42002 12.4609 5.51949 12.3617C5.56442 12.3169 5.61897 12.2273 5.69919 12.2881C5.76336 12.3329 5.69919 12.4065 5.67993 12.4673C5.58046 12.6656 5.48099 12.864 5.38152 13.0623C5.34622 13.1263 5.35585 13.1807 5.41681 13.2159C5.48099 13.2607 5.50666 13.1967 5.52591 13.1615C5.63501 13.0175 5.74411 12.8544 5.84358 12.7104C5.87888 12.6656 5.88851 12.576 5.96231 12.6112C6.03611 12.6464 5.98156 12.72 5.96231 12.7648C5.95268 12.8 5.92701 12.8384 5.91739 12.8832C5.87246 13.0079 5.82754 13.1263 5.81791 13.2607C5.81791 13.3055 5.81791 13.3502 5.86284 13.3694C5.90776 13.3886 5.94306 13.3438 5.96231 13.3055C6.01686 13.1967 6.06178 13.0719 6.11633 12.9631C6.17088 12.8544 6.17088 12.72 6.31528 12.64C6.36983 12.7648 6.29602 12.848 6.27035 12.9472C6.2511 13.0207 6.28961 13.0719 6.34416 13.0911C6.40833 13.1103 6.44363 13.0655 6.46288 13.0111C6.48213 12.9471 6.49818 12.8864 6.5078 12.8224C6.6169 12.3905 6.83189 12.0034 6.97629 11.5779C7.08539 11.2612 7.25546 10.9829 7.46403 10.7205C7.88117 10.1991 8.32399 9.70322 8.63845 9.10817C8.97216 8.48754 9.29946 7.85411 9.569 7.20788C9.58825 7.16309 9.58825 7.06392 9.66847 7.08311C9.73265 7.10231 9.72302 7.17269 9.73265 7.23667C9.76795 7.57898 9.85138 7.91169 9.88667 8.254C9.92197 8.57712 9.90593 8.89383 9.861 9.21055C9.80645 9.56245 9.67168 9.89516 9.58825 10.2471C9.46953 10.7877 9.36364 11.338 9.19036 11.869C9.04597 12.3105 8.97216 12.7712 8.94649 13.2287C8.92082 13.651 8.92082 14.0764 8.96575 14.4987C9.0203 15.0202 9.11014 15.5449 9.23849 16.0567C9.34759 16.479 9.41177 16.9045 9.36364 17.3268C9.32834 17.6435 9.30909 17.957 9.28342 18.2641C9.20962 19.0223 9.22887 19.7869 9.30909 20.5451C9.37326 21.1594 9.48236 21.7704 9.45348 22.391C9.43423 22.8229 9.28021 23.21 9.10052 23.5907C9.03634 23.7251 9.06522 23.7795 9.16469 23.8338C9.24491 23.8786 9.34439 23.9074 9.43744 23.9138C9.57221 23.9234 9.71019 23.9394 9.84496 23.9874C10.0888 24.0674 10.2878 23.8882 10.2781 23.6355C10.2781 23.5715 10.2589 23.5107 10.2429 23.4372C10.2332 23.3828 10.2236 23.3284 10.2878 23.2932C10.5413 23.1396 10.5669 22.9157 10.506 22.6534C10.4867 22.5798 10.506 22.5094 10.4867 22.4358C10.4418 22.2727 10.5605 22.1127 10.4771 21.9687C10.4129 21.86 10.4129 21.7448 10.4322 21.636C10.4963 21.2137 10.5573 20.7883 10.6504 20.366C10.7691 19.7997 10.8942 19.2303 10.8686 18.6448C10.8686 18.4657 10.9135 18.2929 10.9584 18.1138C11.0675 17.7171 11.183 17.3204 11.2023 16.8981C11.2023 16.6902 11.2023 16.4822 11.2568 16.2775C11.4462 15.5129 11.6996 14.7643 11.8087 13.9805C11.8344 13.7917 11.8087 13.5934 11.8986 13.4142C11.9178 13.3694 11.9178 13.3151 11.9788 13.3055C12.0526 13.3055 12.0526 13.3694 12.0687 13.4142C12.0879 13.4494 12.0879 13.4878 12.0879 13.523C12.0879 14.118 12.2419 14.6843 12.3222 15.2697C12.4024 15.8008 12.4858 16.3414 12.5564 16.8725C12.6109 17.2404 12.6912 17.6115 12.781 17.973C12.8612 18.2801 12.9447 18.5776 12.9062 18.8912C12.8805 19.1439 12.9318 19.387 12.9607 19.6398C13.0249 20.1452 13.2238 20.6123 13.2399 21.1274C13.2591 21.6328 13.3297 22.1383 13.304 22.6502C13.304 22.8229 13.3233 22.9925 13.4228 23.1268C13.5126 23.2516 13.5319 23.3604 13.4869 23.5043C13.4324 23.7027 13.6313 23.9714 13.8303 23.9906C14.0549 24.0098 14.2731 23.9714 14.4817 23.9106C14.6357 23.8658 14.6806 23.7027 14.6004 23.5683C14.4111 23.2452 14.3212 22.8933 14.302 22.5222C14.302 22.423 14.3373 22.3239 14.3277 22.2151C14.2924 21.7288 14.318 21.2425 14.3822 20.7627C14.4817 20.0493 14.4913 19.339 14.5073 18.6256C14.517 18.2481 14.4079 17.877 14.3886 17.4995C14.3533 16.7861 14.4335 16.0951 14.5972 15.4073C14.7063 14.9466 14.7705 14.4699 14.8507 14.0029C14.9405 13.5262 14.8956 13.0559 14.8507 12.5792C14.8154 12.2177 14.7416 11.8754 14.6614 11.5331C14.5715 11.1716 14.4817 10.8133 14.4079 10.4422C14.318 9.97514 14.1351 9.53046 14.0645 9.05379C13.9651 8.41396 14.1095 7.78373 14.2089 7.1535C14.2089 7.10871 14.2346 7.03513 14.3084 7.03513C14.363 7.03513 14.3822 7.09911 14.3982 7.1343C14.5426 7.5022 14.7063 7.8733 14.886 8.22521C15.194 8.82985 15.5021 9.43129 15.9256 9.97194C16.3139 10.4678 16.776 10.9189 16.991 11.5395C17.1354 11.9618 17.3889 12.3521 17.4241 12.8096C17.4241 12.9184 17.4498 13.0879 17.5878 13.0623C17.6873 13.0431 17.6423 12.8832 17.6135 12.784C17.6038 12.7392 17.5782 12.6848 17.6327 12.6592C17.7129 12.6336 17.7129 12.7136 17.7322 12.7488C17.806 12.912 17.867 13.0815 17.9311 13.2447C17.9568 13.3087 17.9761 13.3982 18.0755 13.363C18.1654 13.3278 18.1397 13.2447 18.1108 13.1743C18.0563 13.0111 18.0306 12.8416 17.9568 12.6784C17.9472 12.6528 17.9311 12.5888 17.9761 12.5697C18.021 12.5505 18.0499 12.5952 18.0755 12.6336C18.1654 12.7776 18.2552 12.9312 18.3547 13.0655C18.3996 13.1295 18.4349 13.2543 18.528 13.1999C18.6018 13.1647 18.5633 13.0463 18.5472 12.9663C18.5472 12.9408 18.528 12.912 18.5119 12.8864C18.4221 12.7328 18.3322 12.5792 18.2488 12.4257C18.2231 12.3809 18.1686 12.3265 18.2392 12.2625C18.3034 12.2177 18.3579 12.2625 18.4028 12.2881C18.4927 12.3681 18.5761 12.4609 18.6563 12.5409C18.7013 12.5856 18.7462 12.6208 18.7911 12.6592C18.836 12.6944 18.8809 12.7232 18.9355 12.6784C18.9804 12.6336 18.9708 12.5792 18.9547 12.5249L18.9997 12.5505V12.5441ZM10.6375 13.3598C10.7691 13.9165 10.8942 15.2249 10.7081 15.8328C10.5188 16.4406 10.3455 17.1028 10.2814 17.1156C10.214 17.1284 9.84496 16.0055 9.7519 15.4777C9.65885 14.9498 9.67168 14.0509 10.0182 13.3087C10.3616 12.5697 10.6279 12.0002 10.6279 12.0002L10.814 12.1314C10.814 12.1314 10.5092 12.8064 10.6407 13.3598H10.6375ZM14.2506 15.4745C14.1576 16.0023 13.7854 17.1252 13.7212 17.1124C13.657 17.0996 13.4837 16.4374 13.2944 15.8296C13.1051 15.2217 13.2302 13.9133 13.365 13.3566C13.4966 12.8 13.1917 12.1282 13.1917 12.1282L13.3778 11.997C13.3778 11.997 13.6442 12.5665 13.9875 13.3055C14.3309 14.0445 14.3469 14.9434 14.2539 15.4745H14.2506Z" fill="currentColor"/>
</g>
<defs>
<clipPath id="clip0_5470_348">
<rect width="14" height="24" fill="currentColor" transform="translate(5)"/>
</clipPath>
</defs>
</svg>
