<svg width="55" height="55" viewBox="0 0 55 55" fill="none" xmlns="http://www.w3.org/2000/svg">
<g clip-path="url(#clip0_1116_9759)">
<g clip-path="url(#clip1_1116_9759)">
<path d="M30.2764 31.9768C31.5403 31.5431 32.9493 30.9648 33.4258 29.9529C33.6537 29.4986 33.6537 28.9823 33.4465 28.466C32.9078 27.0617 31.0223 27.7638 29.0332 28.4866C27.8315 28.9203 26.5883 29.3953 25.6974 29.3953H25.4902C23.2317 29.3953 22.1957 29.0029 21.2426 27.8464L20.8697 27.3921L20.4967 27.8464C19.8337 28.6312 19.4814 29.5399 19.4814 30.4692C19.4814 33.2985 22.6308 35.5908 26.4847 35.5908C28.2252 35.5908 32.4313 35.4462 33.633 34.0006C33.9231 33.6702 34.0267 33.2778 33.9645 32.8648C33.7366 31.5844 31.9133 31.7496 30.2764 31.9768Z" fill="currentColor"/>
<path d="M32.452 20.6596L32.0791 20.2466L31.7061 20.6596C30.6494 21.8574 28.6396 22.6216 26.4847 22.6216C24.3299 22.6216 22.3408 21.8781 21.2634 20.6596L20.8904 20.2466L20.5175 20.6596C19.8337 21.4238 19.5022 22.2498 19.5022 23.0965C19.5022 25.6986 22.6309 27.8258 26.4847 27.8258C30.3386 27.8258 33.4673 25.6986 33.4673 23.0965C33.4673 22.2498 33.1151 21.4238 32.452 20.6596Z" fill="currentColor"/>
<path d="M31.9962 -0.466994L31.6647 -0.859375L31.3331 -0.466994C30.3593 0.648196 28.4945 1.3297 26.5054 1.3297C24.5164 1.3297 22.693 0.627544 21.6778 -0.487645L21.3462 -0.859375L21.0147 -0.466994C20.3931 0.235162 20.0823 1.01993 20.0823 1.78404C20.0823 4.20028 22.9624 6.16219 26.5262 6.16219C30.09 6.16219 32.97 4.20028 32.97 1.78404C32.97 0.999274 32.6385 0.235162 32.0376 -0.466994H31.9962Z" fill="currentColor"/>
<path d="M31.8718 14.0511L31.5196 13.5968L31.1674 14.0511C30.1728 15.3109 28.3288 16.075 26.3811 16.075H26.3397C24.3713 16.075 22.5272 15.2902 21.5534 14.0511L21.2012 13.5968L20.849 14.0305C20.2481 14.7739 19.9166 15.6413 19.9166 16.5087C19.9166 19.3792 22.5687 21.3618 26.3604 21.3618C30.1521 21.3618 32.8042 19.3586 32.8042 16.5087C32.8042 15.6619 32.4934 14.8152 31.8926 14.0305L31.8718 14.0511Z" fill="currentColor"/>
<path d="M34.5654 35.5701C34.151 35.281 33.6952 35.1571 33.2601 35.2397L33.0943 35.3017C32.5763 35.5908 31.9962 36.1897 31.271 36.9331C29.9242 38.3375 28.0594 40.2581 26.2154 40.2581C24.6407 40.2581 22.9002 38.3994 21.6363 37.0364C20.4553 35.7767 19.6679 34.9506 18.9013 35.2397C18.1761 35.5288 17.2437 36.2103 16.9744 37.8831C16.7672 39.1016 17.7824 39.7005 18.8391 40.3407C19.8337 40.9396 21.0769 41.6624 21.8435 43.1286C22.03 43.5004 22.2372 43.9134 22.4444 44.3264C23.584 46.6601 24.8686 49.3035 27.0027 49.3241H27.0234C29.0954 49.3241 29.9656 47.3829 30.9809 45.1319C31.271 44.4917 31.5818 43.7895 31.934 43.108C32.8457 41.3526 33.7988 40.5059 34.4825 39.907C35.2077 39.2668 35.8293 38.7092 35.6843 37.6147C35.5807 36.7679 35.1456 35.9625 34.5447 35.5288L34.5654 35.5701Z" fill="currentColor"/>
<path d="M32.0376 6.51325L31.6854 6.10022L31.3331 6.51325C30.4629 7.56649 29.5098 7.93822 27.4585 7.95887H27.2513C26.4226 7.95887 25.283 7.52518 24.1848 7.11215C22.3615 6.43065 20.6418 5.8111 20.1445 7.0915C19.958 7.58714 19.958 8.04147 20.1652 8.47516C20.6625 9.52839 22.1957 10.0447 23.4389 10.4577C23.5011 10.4577 23.5425 10.499 23.6047 10.5197C23.4804 10.4784 23.356 10.4577 23.2317 10.4164C22.0921 10.086 20.8904 9.75556 20.1859 10.2512C19.9787 10.3958 19.7301 10.6642 19.6679 11.1599C19.6265 11.5316 19.7508 11.9033 20.0409 12.2131C21.2012 13.4935 24.9722 13.6174 26.5262 13.6174C31.8304 13.6174 32.9285 11.0566 32.9285 8.90884C32.9285 8.06213 32.6177 7.23606 31.9962 6.51325H32.0376Z" fill="currentColor"/>
<path d="M12.5404 52.4219C13.6592 51.7404 18.3833 48.9731 23.0038 47.7133C22.2165 46.1025 21.0355 43.6243 20.3931 42.5091C19.9373 41.7243 18.922 41.1048 17.9482 40.6298C15.5033 43.2526 12.3539 45.0286 9.78465 45.9166C9.59818 46.3916 9.14234 47.7959 9.78465 49.5307C10.4062 51.2447 11.9602 52.1534 12.5611 52.4219H12.5404Z" fill="currentColor"/>
<path d="M34.0263 38.1715C34.0263 38.1715 34.0263 38.1715 34.006 38.1309L34.0467 38.1715H34.0263Z" fill="currentColor"/>
<path d="M45.4018 46.2264C42.1696 45.0905 38.3364 43.0254 35.6843 40.2374C34.8348 41.0841 33.0115 42.9841 32.5142 44.1819C32.0998 45.1938 31.3746 46.6394 30.9188 47.5481C35.8501 48.6013 41.2372 51.1208 42.3975 51.6784C42.8948 51.4719 44.2001 50.8523 44.7595 49.985C45.7955 48.3741 45.5469 46.8046 45.4226 46.247L45.4018 46.2264Z" fill="currentColor"/>
<path d="M21.657 35.5082C21.367 35.6321 24.392 38.8538 25.7803 39.1016C27.1685 39.3494 28.8468 37.8005 29.3648 37.3049C29.8828 36.8092 30.5044 36.4375 30.2143 36.3136C29.6341 36.0658 27.7694 36.9951 25.7803 36.706C23.7912 36.4169 22.3201 35.2191 21.657 35.5288V35.5082Z" fill="currentColor"/>
</g>
</g>
<defs>
<clipPath id="clip0_1116_9759">
<rect width="55" height="55" fill="currentColor"/>
</clipPath>
<clipPath id="clip1_1116_9759">
<rect width="36.0938" height="53.2812" fill="currentColor" transform="translate(9.45312 -0.859375)"/>
</clipPath>
</defs>
</svg>
