<svg width="54" height="54" viewBox="0 0 54 54" fill="none" xmlns="http://www.w3.org/2000/svg">
<path d="M47.826 30.474L50.706 27.576L50.004 26.856L48.384 25.236L45.522 28.098C45.1226 28.4811 44.6467 28.7753 44.1255 28.9615C43.6044 29.1476 43.0497 29.2214 42.498 29.178C40.1293 27.937 37.4951 27.2887 34.821 27.2887C32.1469 27.2887 29.5127 27.937 27.144 29.178C26.1632 29.2 25.2086 28.8604 24.462 28.224L23.634 27.414L22.788 26.568C22.392 26.154 22.014 25.74 21.654 25.29C19.7762 22.6281 18.6112 19.5297 18.27 16.29C17.9626 13.7292 17.0345 11.2823 15.5665 9.16169C14.0984 7.04113 12.1347 5.31113 9.84602 4.122C9.44286 3.94431 8.98854 3.92066 8.56912 4.05551C8.14969 4.19036 7.79428 4.47436 7.57022 4.85371C7.34617 5.23306 7.26902 5.6814 7.35339 6.11382C7.43776 6.54624 7.67779 6.9327 8.02802 7.2C10.0237 8.17393 11.6339 9.79054 12.6 11.79C13.9379 14.2077 14.7995 16.8596 15.138 19.602C15.7515 22.6318 17.092 25.4671 19.044 27.864C20.1499 29.1546 21.3534 30.3581 22.644 31.464C22.874 31.9499 23.0084 32.4754 23.04 33.012C22.2961 34.2128 21.8975 35.5954 21.888 37.008C21.888 41.4 25.83 45.126 31.23 46.296C31.8329 46.8 32.3213 47.4267 32.6627 48.1344C33.0042 48.8421 33.1907 49.6145 33.21 50.4H36.504C36.5106 49.5886 36.6963 48.7887 37.0479 48.0575C37.3995 47.3263 37.9084 46.6817 38.538 46.17C39.0977 46.0498 39.6505 45.8996 40.194 45.72C44.694 44.208 47.826 40.842 47.826 36.918C47.7783 35.5846 47.4274 34.2796 46.8 33.102C46.8044 32.1291 47.1701 31.1925 47.826 30.474Z" fill="currentColor"/>
</svg>
