<svg width="54" height="54" viewBox="0 0 54 54" fill="none" xmlns="http://www.w3.org/2000/svg">
  <path
    d="M34.8218 16.2154C34.2988 16.571 33.1041 17.8454 33.3124 19.9115C33.4315 21.0843 33.8864 22.3248 34.3924 23.4086C34.8983 24.4925 36.1654 31.563 35.9655 37.067C35.7955 41.7919 35.6722 45.9411 35.6381 49.0106C35.6339 49.4763 35.3065 49.8743 34.8516 49.9759C34.2351 50.1114 33.6483 49.6584 33.6313 49.0318C33.525 45.7167 33.2486 43.1087 33.2826 33.7011C33.2912 30.8941 31.8966 30.1193 30.3744 29.5435C28.8523 28.9677 25.978 29.5138 25.2978 31.038C24.6175 32.5622 24.2603 32.812 24.2305 33.6079C24.2008 34.4039 24.9363 36.0932 24.9363 36.0932C24.7918 36.199 24.5834 36.1652 24.4857 36.0128C24.3156 35.7545 24.0265 35.4073 23.6948 35.3819C23.1506 35.3396 22.7382 35.4327 22.5808 35.7799C22.4235 36.1271 22.3045 36.199 22.3045 36.199C22.3045 36.199 22.7254 34.4293 22.5298 34.1329C22.3342 33.8366 21.3606 35.6825 21.3606 35.6825C21.3606 35.6825 21.6327 34.6029 21.2245 34.3616C20.8163 34.1202 20 34.1456 20 34.1456C20 34.1456 20.4762 33.5571 21.0842 33.2269C21.6922 32.8967 22.4746 32.2489 22.7637 31.5884C23.0528 30.9279 23.3207 30.2886 23.0826 30.2463C22.8445 30.2039 22.1684 30.2082 21.6625 30.4199C21.1565 30.6316 20.4549 30.9703 20.4549 30.9703C20.4549 30.9703 21.6327 30.0346 21.7177 29.3021C21.8028 28.5697 21.4286 27.9939 20.9354 27.7568C20.4422 27.5197 20.9099 27.49 21.0544 27.5917C21.199 27.6933 21.8113 28.1378 22.245 28.104C22.6786 28.0701 23.1421 28.0828 24.3666 27.5917C25.5911 27.1005 27.2026 26.0929 26.9942 25.0895C26.7859 24.086 25.4466 23.9887 24.8598 23.7685C24.2731 23.5484 23.3504 23.578 22.853 23.7346C22.3555 23.8913 21.3096 24.3062 21.165 24.3189C21.0204 24.3316 20.6463 24.1157 20.6463 24.1157C20.6463 24.1157 22.1769 23.8574 22.3725 23.3028C22.5681 22.7482 22.5171 21.9607 22.1684 21.3637C21.8198 20.7667 21.7007 20.3899 21.7985 20.3137C21.8963 20.2375 22.0876 20.6397 22.3895 20.9276C22.6914 21.2155 23.563 21.7871 24.5579 21.8548C25.5529 21.9226 28.6184 21.7278 28.2995 20.7202C27.9977 19.7718 27.1005 19.196 26.4287 18.5863C25.7569 17.9766 24.0817 18.0655 23.7969 17.9428C23.512 17.82 23.5928 17.4559 23.9159 17.5575C24.2391 17.6591 25.8802 16.9478 26.1566 16.4779C26.433 16.0079 26.6201 15.267 26.5733 14.996C26.5265 14.725 26.518 14.4456 26.6116 14.4456C26.7051 14.4456 26.8539 14.7547 26.8709 15.1357C26.8879 15.5168 27.1473 16.3805 27.3216 16.6768C27.4959 16.9732 29.3072 16.9351 29.7664 16.6303C30.2256 16.3254 30.5572 15.6014 30.4552 15.0087C30.3532 14.416 29.9875 13.1585 29.8897 12.8368C29.7919 12.515 29.6133 12.3626 29.7196 12.3372C29.8259 12.3118 29.8472 12.5023 30.1151 12.6293C30.3829 12.7563 30.9356 12.9849 31.195 12.8537C31.4544 12.7224 31.7392 12.3245 31.837 12.1466C31.9348 11.9688 32.1559 11.9646 32.1857 12.0704C32.2154 12.1763 31.9391 12.9807 31.8881 13.3702C31.837 13.7597 31.9773 14.3609 32.1219 14.4541C32.2665 14.5472 32.4323 15.3517 33.2741 15.0002C33.6696 14.8351 34.082 13.9757 34.201 13.5819C34.3201 13.1882 34.5157 13.0019 34.6135 13.0146C34.7113 13.0273 34.5837 13.3109 34.5199 13.62C34.4561 13.9291 34.4732 14.5091 34.8048 14.7716C35.1364 15.0341 35.7317 15.2331 35.8507 15.3262C35.9698 15.4194 36.1186 15.5379 35.8465 15.6057C35.6934 15.6438 35.264 15.9021 34.8346 16.1984L34.8218 16.2154Z"
    fill="currentColor" />
  <path
    d="M29.9415 31.3709C33.3148 40.9788 25.2935 47.7616 16.1133 41.7011C4.10919 33.7771 15.4181 8.38117 27.6668 4.5346C35.6925 2.01295 43.8769 8.84704 42.9241 15.9205C42.5078 19.002 40.2117 21.5237 37.2075 22.3784C37.186 22.387 37.1602 22.3913 37.1388 22.3998"
    stroke="currentColor" stroke-linecap="round" stroke-linejoin="round" />
</svg>
