<svg width="54" height="54" viewBox="0 0 54 54" fill="none" xmlns="http://www.w3.org/2000/svg">
  <path
    d="M19.1782 16.2154C19.7012 16.571 20.8959 17.8454 20.6876 19.9115C20.5685 21.0843 20.1136 22.3248 19.6076 23.4086C19.1017 24.4925 17.8346 31.563 18.0345 37.067C18.2045 41.7919 18.3278 45.9411 18.3619 49.0106C18.3661 49.4763 18.6935 49.8743 19.1484 49.9759C19.7649 50.1114 20.3517 49.6584 20.3687 49.0318C20.475 45.7167 20.7514 43.1087 20.7174 33.7011C20.7088 30.894 22.1034 30.1193 23.6256 29.5435C25.1477 28.9677 28.022 29.5138 28.7022 31.038C29.3825 32.5622 29.7397 32.812 29.7695 33.6079C29.7992 34.4039 29.0637 36.0932 29.0637 36.0932C29.2082 36.199 29.4166 36.1652 29.5143 36.0128C29.6844 35.7545 29.9735 35.4073 30.3052 35.3819C30.8494 35.3396 31.2618 35.4327 31.4192 35.7799C31.5765 36.1271 31.6955 36.199 31.6955 36.199C31.6955 36.199 31.2746 34.4293 31.4702 34.1329C31.6658 33.8366 32.6394 35.6825 32.6394 35.6825C32.6394 35.6825 32.3673 34.6029 32.7755 34.3616C33.1837 34.1202 34 34.1456 34 34.1456C34 34.1456 33.5238 33.5571 32.9158 33.2269C32.3078 32.8967 31.5254 32.2489 31.2363 31.5884C30.9472 30.9279 30.6793 30.2886 30.9174 30.2463C31.1555 30.2039 31.8316 30.2082 32.3375 30.4199C32.8435 30.6316 33.5451 30.9703 33.5451 30.9703C33.5451 30.9703 32.3673 30.0346 32.2823 29.3021C32.1972 28.5697 32.5714 27.9939 33.0646 27.7568C33.5578 27.5197 33.0901 27.49 32.9456 27.5917C32.801 27.6933 32.1887 28.1378 31.755 28.104C31.3214 28.0701 30.8579 28.0828 29.6334 27.5917C28.4089 27.1005 26.7974 26.0929 27.0058 25.0895C27.2141 24.086 28.5534 23.9887 29.1402 23.7685C29.7269 23.5484 30.6496 23.578 31.147 23.7346C31.6445 23.8913 32.6904 24.3062 32.835 24.3189C32.9796 24.3316 33.3537 24.1157 33.3537 24.1157C33.3537 24.1157 31.8231 23.8574 31.6275 23.3028C31.4319 22.7482 31.4829 21.9607 31.8316 21.3637C32.1802 20.7667 32.2993 20.3899 32.2015 20.3137C32.1037 20.2375 31.9124 20.6397 31.6105 20.9276C31.3086 21.2155 30.437 21.7871 29.4421 21.8548C28.4471 21.9226 25.3816 21.7278 25.7005 20.7202C26.0023 19.7718 26.8995 19.196 27.5713 18.5863C28.2431 17.9766 29.9183 18.0655 30.2031 17.9428C30.488 17.82 30.4072 17.4559 30.0841 17.5575C29.7609 17.6591 28.1198 16.9478 27.8434 16.4779C27.567 16.0079 27.3799 15.267 27.4267 14.996C27.4735 14.725 27.482 14.4456 27.3884 14.4456C27.2949 14.4456 27.1461 14.7547 27.1291 15.1357C27.1121 15.5168 26.8527 16.3805 26.6784 16.6768C26.5041 16.9732 24.6928 16.9351 24.2336 16.6303C23.7744 16.3254 23.4428 15.6014 23.5448 15.0087C23.6468 14.416 24.0125 13.1585 24.1103 12.8368C24.2081 12.515 24.3867 12.3626 24.2804 12.3372C24.1741 12.3118 24.1528 12.5023 23.8849 12.6293C23.6171 12.7563 23.0644 12.9849 22.805 12.8537C22.5456 12.7224 22.2608 12.3245 22.163 12.1466C22.0652 11.9688 21.8441 11.9646 21.8143 12.0704C21.7846 12.1763 22.0609 12.9807 22.1119 13.3702C22.163 13.7597 22.0227 14.3609 21.8781 14.4541C21.7335 14.5472 21.5677 15.3517 20.7259 15.0002C20.3304 14.8351 19.918 13.9757 19.799 13.5819C19.6799 13.1882 19.4843 13.0019 19.3865 13.0146C19.2887 13.0273 19.4163 13.3109 19.4801 13.62C19.5439 13.9291 19.5268 14.5091 19.1952 14.7716C18.8636 15.0341 18.2683 15.2331 18.1493 15.3262C18.0302 15.4194 17.8814 15.5379 18.1535 15.6057C18.3066 15.6438 18.736 15.9021 19.1654 16.1984L19.1782 16.2154Z"
    fill="currentColor" />
  <path
    d="M24.0585 31.3709C20.6852 40.9788 28.7065 47.7616 37.8867 41.7011C49.8908 33.7771 38.5819 8.38117 26.3332 4.5346C18.3075 2.01295 10.1231 8.84704 11.0759 15.9205C11.4922 19.002 13.7883 21.5237 16.7925 22.3784C16.814 22.387 16.8398 22.3913 16.8612 22.3998"
    stroke="currentColor" stroke-linecap="round" stroke-linejoin="round" />
</svg>
