<svg width="319" height="48" viewBox="0 0 319 48" fill="none" xmlns="http://www.w3.org/2000/svg">
<g clip-path="url(#clip0_584_15168)">
<path d="M24.005 48.0099C37.2625 48.0099 48.0099 37.2625 48.0099 24.005C48.0099 10.7474 37.2625 0 24.005 0C10.7474 0 0 10.7474 0 24.005C0 37.2625 10.7474 48.0099 24.005 48.0099Z" fill="#201E3D"/>
<path d="M24.2435 18.5226C24.2435 18.6319 24.3131 18.7113 24.3528 18.8305C24.3627 18.7213 24.3925 18.6517 24.4024 18.5723C24.4124 18.4829 24.4024 18.3836 24.4223 18.2942C24.3627 18.2942 24.3031 18.3339 24.2336 18.3041C24.2137 18.3041 24.1939 18.324 24.2038 18.3339C24.2833 18.3836 24.2137 18.4531 24.2336 18.5127L24.2435 18.5226Z" fill="white"/>
<path d="M25.336 19.7343C25.3559 19.6847 25.3062 19.6847 25.2765 19.6648C25.2765 19.7045 25.2566 19.7442 25.2963 19.7641C25.3162 19.7641 25.3261 19.7542 25.336 19.7343Z" fill="white"/>
<path d="M24.1443 20.1415C24.1443 20.1415 24.1443 20.0719 24.1741 20.0421C24.194 20.0223 24.1741 20.0024 24.184 19.9826C24.184 19.9528 24.1741 19.923 24.2039 19.8932C24.2039 19.8236 24.184 19.8038 24.1145 19.8137C24.0946 19.8137 24.0549 19.8137 24.045 19.8137C23.9953 19.7243 23.9258 19.7641 23.8662 19.7939C23.9258 19.8932 24.0152 19.9627 24.0549 20.0719C24.0648 20.1017 24.0847 20.1613 24.1344 20.1514L24.1443 20.1415Z" fill="white"/>
<path d="M24.2931 15.7419C24.2931 15.6624 24.313 15.5929 24.3229 15.5134C24.313 15.5234 24.3031 15.5432 24.2931 15.5532C24.2534 15.6624 24.2534 15.7617 24.2633 15.871C24.2832 15.8312 24.2832 15.7816 24.2832 15.7319L24.2931 15.7419Z" fill="white"/>
<path d="M24.2337 19.6251C24.2635 19.4364 24.2833 19.2576 24.3131 19.0689L24.2933 19.0491C24.2238 19.0689 24.1542 19.0888 24.0847 19.1186C24.0748 19.1285 24.0549 19.1385 24.0351 19.1385C24.0351 19.1385 24.0251 19.1385 24.0152 19.1385C24.0152 19.1385 24.0152 19.1484 24.0152 19.1583C24.0549 19.208 24.0152 19.2278 23.9854 19.2477C23.9556 19.2676 23.9258 19.2775 23.896 19.2676C23.8563 19.3768 23.896 19.496 23.8662 19.6152C23.9059 19.6946 23.9854 19.6946 24.0648 19.7244C24.1542 19.7542 24.2238 19.7244 24.2436 19.6251H24.2337Z" fill="white"/>
<path d="M24.2633 18.8901C24.2633 18.8901 24.2236 18.8404 24.2236 18.8106C24.2037 18.7212 24.154 18.6517 24.1044 18.5723C23.9951 18.7411 23.9653 18.9199 23.9355 19.0986C24.0647 19.049 24.2136 19.0291 24.3328 18.9497C24.2931 18.9497 24.2633 18.9397 24.2633 18.8901Z" fill="white"/>
<path d="M24.2928 17.2515C24.2928 17.2515 24.273 17.2515 24.263 17.2515C24.263 17.2515 24.2531 17.2614 24.2432 17.2713C24.2432 17.2713 24.2531 17.2614 24.263 17.2515C24.273 17.2515 24.2829 17.2515 24.2928 17.2515Z" fill="white"/>
<path d="M23.5284 20.4395H23.4489C23.4489 20.4395 23.3595 20.509 23.3496 20.5686C23.3496 20.5686 23.3496 20.5785 23.3496 20.5884C23.4291 20.5686 23.4589 20.499 23.5184 20.4494L23.5284 20.4395Z" fill="white"/>
<path d="M23.3397 20.7175C23.3397 20.7175 23.3099 20.6877 23.29 20.6877C23.3099 20.6877 23.3298 20.6877 23.3397 20.7175Z" fill="white"/>
<path d="M25.6342 19.913C25.6342 19.913 25.5348 19.8832 25.4951 19.8733C25.5348 19.913 25.5746 19.9726 25.6342 19.913Z" fill="white"/>
<path d="M23.6578 20.7274C23.6578 20.7274 23.6082 20.7175 23.5883 20.7075C23.5684 20.7075 23.5585 20.6877 23.5386 20.6777C23.5784 20.6579 23.628 20.6777 23.6479 20.638C23.6082 20.5784 23.6479 20.5188 23.628 20.4592C23.5883 20.4592 23.5585 20.4791 23.5386 20.5089C23.4791 20.5883 23.4592 20.6976 23.3996 20.787C23.3797 20.8168 23.3996 20.8267 23.4294 20.8267C23.489 20.8267 23.5486 20.8068 23.5982 20.787C23.6181 20.787 23.6678 20.787 23.6578 20.7373V20.7274Z" fill="white"/>
<path d="M23.707 21.5618C23.707 21.5618 23.7269 21.532 23.7368 21.532C23.7368 21.532 23.717 21.532 23.707 21.5618Z" fill="white"/>
<path d="M23.5479 22.2769C23.5479 22.2769 23.5479 22.2868 23.5479 22.2967C23.5479 22.2967 23.5479 22.2868 23.5479 22.2769C23.5479 22.2669 23.5578 22.2471 23.5677 22.2371C23.5677 22.2371 23.5677 22.2272 23.5677 22.2173V22.2371C23.5677 22.2371 23.5479 22.2669 23.5479 22.2769Z" fill="white"/>
<path d="M23.6773 21.2439C23.6773 21.1446 23.6475 21.0453 23.6575 20.946C23.6575 20.9162 23.6376 20.9062 23.6177 20.9062C23.5681 20.9062 23.5184 20.9062 23.4688 20.9062C23.5085 20.9758 23.5283 21.0552 23.5383 21.1347C23.5482 21.2141 23.5681 21.3035 23.6277 21.373C23.6674 21.4128 23.6872 21.4128 23.6972 21.3532C23.6575 21.3135 23.6773 21.2737 23.6773 21.234V21.2439Z" fill="white"/>
<path d="M24.055 18.1056C24.055 18.1056 24.0451 18.0858 24.0352 18.0759C24.0352 18.0759 24.0352 18.0758 24.0352 18.0659C24.0352 18.0659 24.0352 18.0659 24.0352 18.0759C24.0352 18.0759 24.0451 18.0957 24.055 18.1056Z" fill="white"/>
<path d="M24.7694 20.3798C24.7694 20.3798 24.7098 20.3798 24.7098 20.4195C24.7197 20.4394 24.7297 20.4692 24.7297 20.4891C24.7495 20.5288 24.7297 20.5784 24.7297 20.6182C24.6502 20.6976 24.68 20.7473 24.7694 20.787C24.7893 20.787 24.7992 20.8168 24.8191 20.8367C24.8886 20.9062 24.8687 20.9856 24.8489 21.0651C24.829 21.1545 24.7893 21.2339 24.7495 21.3134C24.7495 21.3432 24.7396 21.373 24.7297 21.4028C24.7297 21.4028 24.7396 21.4028 24.7495 21.4127C24.8389 21.2637 24.9283 21.1247 25.0177 20.9757C25.0376 20.9459 25.0773 20.9161 25.0674 20.8665C25.0078 20.7373 24.9184 20.6281 24.8687 20.4891C24.8489 20.4295 24.8191 20.3997 24.7595 20.3699L24.7694 20.3798Z" fill="white"/>
<path d="M24.7695 20.8367C24.6702 20.787 24.5609 20.7373 24.4815 20.6479C24.4616 20.6678 24.4616 20.6877 24.4715 20.7175C24.5013 20.9658 24.4616 21.2141 24.4219 21.4524C24.4219 21.4723 24.4219 21.4921 24.4219 21.5021C24.4219 21.5517 24.4417 21.6113 24.4815 21.6312C24.5311 21.6511 24.5808 21.6113 24.6205 21.5716C24.6404 21.5517 24.6503 21.5319 24.6602 21.5021C24.6702 21.4326 24.7 21.373 24.7099 21.3034C24.7099 21.2041 24.7794 21.1247 24.8092 21.0353C24.8291 20.9558 24.8291 20.8863 24.7695 20.8267V20.8367Z" fill="white"/>
<path d="M24.502 21.691C24.502 21.8598 24.502 22.0286 24.492 22.1975C24.492 22.2273 24.4821 22.267 24.5317 22.2869C24.5615 22.128 24.5913 21.969 24.6112 21.8101C24.6244 21.7174 24.588 21.6777 24.502 21.691Z" fill="white"/>
<path d="M23.9649 20.4098C23.9649 20.4098 23.9649 20.38 23.9649 20.3601C23.8855 20.3899 23.8755 20.4495 23.9153 20.519C23.955 20.4992 23.9749 20.4793 23.9649 20.4296C23.9451 20.4296 23.9451 20.4098 23.9649 20.3998V20.4098Z" fill="white"/>
<path d="M31.6622 24.6008C31.6622 24.6008 31.6225 24.5312 31.5927 24.5015C31.4239 24.3028 31.255 24.1141 31.0862 23.9155C30.9869 23.8062 30.8975 23.697 30.8577 23.5579C30.8379 23.4686 30.828 23.3792 30.9769 23.4388C31.0564 23.4785 31.1458 23.4983 31.2352 23.5182C31.3245 23.5381 31.4139 23.5182 31.4636 23.4388C31.5132 23.3494 31.4338 23.2898 31.3643 23.2501C31.0663 23.0316 30.7485 22.8826 30.381 22.8131C30.2221 22.7833 30.1029 22.6939 30.0136 22.5449C29.8646 22.2668 29.7553 21.9689 29.6361 21.6808C29.3382 20.926 28.9409 20.2209 28.5039 19.5356C28.3848 19.3469 28.2854 19.1483 28.2457 18.9198C28.1563 18.4133 28.0769 17.9068 27.9378 17.4201C27.7988 16.9236 27.7193 16.4071 27.5406 15.9204C27.4015 15.543 27.1631 15.2848 26.7758 15.1954C26.5672 15.1458 26.3587 15.0961 26.1501 15.0465C25.8422 14.967 25.5343 14.8975 25.2563 14.7286C25.1371 14.6591 25.008 14.5896 24.9682 14.4506C24.8292 13.9838 25.008 13.5766 25.2364 13.1892C25.3754 12.9608 25.4549 12.7125 25.3059 12.5735C25.2066 12.4741 25.1867 12.3748 25.1967 12.2556C25.2165 11.9279 25.1073 11.6399 24.9682 11.3419C24.6902 10.7361 23.9751 10.6864 23.4983 10.8751C22.9918 11.0738 22.8925 11.5604 22.7733 12.0272C22.7237 12.206 22.8031 12.4145 22.674 12.5735C22.5449 12.7224 22.535 12.8714 22.6244 13.0204C22.8429 13.3978 23.0514 13.7653 23.0216 14.2321C23.0117 14.4605 22.9223 14.6095 22.7237 14.6889C22.3761 14.8379 22.0285 14.9769 21.661 15.0465C20.9757 15.1656 20.5188 15.5232 20.3301 16.2283C20.1414 16.9732 19.9229 17.7181 19.7938 18.4828C19.7144 18.9893 19.5753 19.4561 19.2674 19.8832C19.0688 20.1613 18.9198 20.4692 18.7609 20.7671C18.4828 21.2935 18.2643 21.8596 18.0359 22.4158C17.9564 22.6144 17.8174 22.7634 17.6088 22.8031C17.2314 22.8726 16.9136 23.0514 16.6157 23.26C16.5362 23.3096 16.4468 23.3593 16.4965 23.4785C16.5561 23.5877 16.6554 23.5877 16.7547 23.5579C16.8441 23.5281 16.9136 23.4686 17.003 23.4388C17.1123 23.3891 17.152 23.4388 17.1222 23.548C17.0626 23.7367 16.9633 23.8956 16.8143 24.0247C16.6455 24.1836 16.4965 24.3624 16.3574 24.5511C16.3177 24.6107 16.2383 24.6902 16.3078 24.7597C16.3872 24.8391 16.4667 24.7597 16.5263 24.71C16.6455 24.6107 16.7448 24.5015 16.854 24.3922C16.9037 24.3425 16.9633 24.2432 17.0527 24.3127C17.1222 24.3624 17.0527 24.4419 17.0328 24.5114C16.9235 24.7299 16.8143 24.9484 16.705 25.1669C16.6653 25.2364 16.6753 25.296 16.7448 25.3357C16.8143 25.3854 16.8441 25.3159 16.864 25.2761C16.9831 25.1172 17.1023 24.9384 17.2116 24.7795C17.2513 24.7299 17.2612 24.6306 17.3407 24.6703C17.4201 24.71 17.3605 24.7895 17.3407 24.8391C17.3307 24.8789 17.301 24.9186 17.291 24.9682C17.2414 25.1073 17.1917 25.2364 17.1818 25.3854C17.1818 25.435 17.1818 25.4847 17.2314 25.5046C17.2811 25.5244 17.3208 25.4748 17.3407 25.435C17.4003 25.3159 17.4499 25.1768 17.5095 25.0576C17.5691 24.9384 17.5691 24.7895 17.728 24.7001C17.7876 24.8391 17.7082 24.9285 17.6784 25.0378C17.6585 25.1172 17.6982 25.1768 17.7578 25.1967C17.8273 25.2165 17.8671 25.1669 17.8869 25.1073C17.9068 25.0378 17.9267 24.9682 17.9366 24.8987C18.0558 24.422 18.2941 23.9949 18.453 23.5281C18.5722 23.1805 18.7609 22.8727 18.9893 22.5846C19.4462 22.0086 19.9329 21.4623 20.2805 20.8069C20.6479 20.1216 21.0055 19.4263 21.3034 18.7113C21.3233 18.6616 21.3233 18.5524 21.4127 18.5722C21.4822 18.5921 21.4723 18.6715 21.4822 18.7411C21.5219 19.1185 21.6113 19.4859 21.651 19.8633C21.6908 20.2209 21.6709 20.5685 21.6213 20.9161C21.5617 21.3034 21.4127 21.6709 21.3233 22.0582C21.1942 22.6542 21.075 23.26 20.8863 23.846C20.7274 24.3326 20.6479 24.8391 20.6181 25.3456C20.5884 25.8124 20.5884 26.2792 20.638 26.746C20.6976 27.3221 20.7969 27.8981 20.936 28.4642C21.0551 28.931 21.1247 29.3978 21.075 29.8646C21.0353 30.2122 21.0154 30.5598 20.9856 30.8975C20.9062 31.7317 20.926 32.5759 21.0154 33.4102C21.0849 34.0856 21.2041 34.7609 21.1743 35.4462C21.1545 35.9229 20.9856 36.35 20.787 36.7671C20.7175 36.9161 20.7473 36.9757 20.8565 37.0353C20.9459 37.0849 21.0551 37.1147 21.1545 37.1247C21.3034 37.1346 21.4524 37.1545 21.6014 37.2041C21.8695 37.2935 22.088 37.0949 22.0781 36.8168C22.0781 36.7473 22.0582 36.6777 22.0384 36.5983C22.0285 36.5387 22.0185 36.4791 22.088 36.4394C22.3661 36.2705 22.3959 36.0222 22.3264 35.7342C22.3065 35.6548 22.3264 35.5753 22.3065 35.4959C22.2569 35.3171 22.386 35.1383 22.2966 34.9794C22.2271 34.8602 22.2271 34.7311 22.2469 34.6119C22.3165 34.1451 22.386 33.6784 22.4853 33.2116C22.6144 32.5859 22.7535 31.9602 22.7237 31.3146C22.7237 31.116 22.7733 30.9273 22.823 30.7286C22.9422 30.2916 23.0713 29.8546 23.0911 29.3879C23.0911 29.1594 23.0911 28.931 23.1507 28.7026C23.3593 27.8584 23.6374 27.034 23.7566 26.17C23.7864 25.9614 23.7566 25.7429 23.8559 25.5443C23.8758 25.4946 23.8758 25.435 23.9453 25.4251C24.0247 25.4251 24.0247 25.4946 24.0446 25.5443C24.0645 25.584 24.0645 25.6237 24.0645 25.6635C24.0645 26.319 24.2333 26.9447 24.3227 27.5902C24.4121 28.1762 24.5014 28.7721 24.5809 29.3581C24.6405 29.7653 24.7299 30.1725 24.8292 30.5697C24.9186 30.9074 25.008 31.2352 24.9682 31.5828C24.9384 31.8609 24.998 32.129 25.0278 32.4071C25.0974 32.9633 25.3159 33.4797 25.3357 34.0458C25.3556 34.602 25.435 35.1582 25.4052 35.7243C25.4052 35.913 25.4251 36.1017 25.5343 36.2507C25.6337 36.3897 25.6535 36.5089 25.6039 36.6678C25.5443 36.8863 25.7628 37.1843 25.9813 37.2041C26.2296 37.224 26.4679 37.1843 26.6964 37.1147C26.8652 37.0651 26.9149 36.8863 26.8255 36.7373C26.6169 36.3798 26.5176 35.9925 26.4977 35.5853C26.4977 35.476 26.5375 35.3668 26.5275 35.2476C26.4878 34.7113 26.5176 34.1749 26.5871 33.6486C26.6964 32.864 26.7063 32.0794 26.7262 31.2947C26.7361 30.8776 26.6169 30.4704 26.597 30.0533C26.5573 29.2687 26.6467 28.5039 26.8255 27.7491C26.9447 27.2426 27.0142 26.7162 27.1036 26.1998C27.2029 25.6734 27.1532 25.1569 27.1036 24.6306C27.0638 24.2333 26.9844 23.8559 26.895 23.4785C26.7957 23.0812 26.6964 22.6839 26.6169 22.2767C26.5176 21.7603 26.319 21.2736 26.2395 20.7473C26.1303 20.0421 26.2892 19.3469 26.3984 18.6517C26.3984 18.602 26.4282 18.5226 26.5077 18.5226C26.5672 18.5226 26.5871 18.5921 26.607 18.6318C26.7659 19.039 26.9447 19.4462 27.1433 19.8335C27.481 20.499 27.8186 21.1644 28.2854 21.7603C28.7125 22.3065 29.219 22.8031 29.4574 23.4884C29.6163 23.9552 29.8944 24.3823 29.9341 24.8888C29.9341 25.008 29.9639 25.1967 30.1129 25.1669C30.2221 25.147 30.1725 24.9682 30.1427 24.859C30.1327 24.8093 30.1029 24.7497 30.1625 24.7199C30.2519 24.6902 30.2519 24.7795 30.2718 24.8193C30.3512 24.998 30.4208 25.1867 30.4903 25.3655C30.5201 25.435 30.5399 25.5344 30.6492 25.4946C30.7485 25.4549 30.7187 25.3655 30.6889 25.2861C30.6293 25.1073 30.5995 24.9186 30.5201 24.7398C30.5101 24.71 30.4903 24.6405 30.5399 24.6206C30.5896 24.6008 30.6194 24.6504 30.6492 24.6902C30.7485 24.8491 30.8478 25.0179 30.9571 25.1669C31.0067 25.2364 31.0465 25.3754 31.1458 25.3159C31.2252 25.2761 31.1855 25.147 31.1656 25.0576C31.1656 25.0278 31.1458 24.998 31.1259 24.9682C31.0266 24.7994 30.9273 24.6306 30.8379 24.4617C30.8081 24.4121 30.7485 24.3525 30.828 24.283C30.8975 24.2333 30.9571 24.283 31.0067 24.3127C31.106 24.4021 31.1954 24.5015 31.2848 24.5908C31.3345 24.6405 31.3841 24.6802 31.4338 24.7199C31.4834 24.7597 31.5331 24.7895 31.5927 24.7398C31.6424 24.6902 31.6324 24.6306 31.6126 24.571L31.6622 24.6008ZM25.6039 18.2743C25.6039 18.2743 25.5741 18.2743 25.5741 18.2941C25.3953 18.5126 25.1669 18.4332 24.9384 18.4034C24.8888 18.4034 24.8292 18.3835 24.7795 18.3736C24.7299 18.3636 24.7199 18.3736 24.71 18.4232C24.6604 18.9397 24.5809 19.4561 24.5114 19.9726C24.5809 19.9925 24.6504 20.0123 24.71 20.052C24.7696 20.0818 24.8093 20.052 24.8491 20.0222C24.8987 19.9925 24.8987 19.9428 24.8789 19.913C24.8491 19.8534 24.8789 19.8236 24.9186 19.7938C24.9484 19.764 24.998 19.764 25.0378 19.7938C25.1271 19.8335 25.1867 19.913 25.2463 19.9825C25.2662 19.9229 25.2463 19.8733 25.2265 19.8335C25.1867 19.7541 25.1768 19.6846 25.2066 19.6051C25.2364 19.5157 25.1669 19.4363 25.147 19.3469C25.1172 19.2476 25.147 19.1483 25.1371 19.0489C25.1371 19.0191 25.1569 18.9993 25.1768 18.9993C25.2066 18.9993 25.2265 19.0191 25.2265 19.0489C25.2265 19.1284 25.2265 19.2078 25.2265 19.2972C25.2265 19.337 25.2265 19.3767 25.2563 19.4065C25.2861 19.4065 25.3159 19.3965 25.3357 19.4065C25.3556 19.4263 25.3357 19.4363 25.3159 19.4462C25.3159 19.4462 25.3159 19.4561 25.3159 19.4661C25.3556 19.4661 25.3556 19.4959 25.3655 19.5257C25.3854 19.5455 25.4251 19.5356 25.435 19.5753C25.4052 19.615 25.3556 19.615 25.296 19.615C25.3556 19.6647 25.4052 19.7044 25.4052 19.7839C25.4052 19.8137 25.445 19.8335 25.4748 19.7839C25.5046 19.7442 25.5343 19.7044 25.5741 19.6945C25.5939 19.7044 25.584 19.7144 25.5741 19.7243C25.5443 19.7541 25.4748 19.7839 25.4946 19.8236C25.5145 19.8733 25.5939 19.8633 25.6337 19.8733C25.7032 19.8832 25.6535 19.8037 25.7131 19.764C25.7131 19.8733 25.7231 19.9825 25.7826 20.0818C25.6535 20.0322 25.5343 19.9825 25.4152 19.9627C25.3159 20.1514 25.1371 20.2209 24.9583 20.2904C24.859 20.3301 24.8689 20.3202 24.9087 20.4195C24.9682 20.5685 25.0477 20.7075 25.1172 20.8565C25.1371 20.8565 25.1569 20.8267 25.1867 20.8366C25.2165 20.8565 25.2265 20.8863 25.2165 20.926C25.2265 21.1247 25.2165 21.3134 25.1867 21.512C25.1768 21.661 25.1867 21.81 25.1867 21.9589C25.1867 22.1576 25.2662 22.3463 25.2861 22.535C25.2861 22.6045 25.3059 22.6641 25.2861 22.7336C25.2761 22.7733 25.2463 22.7634 25.2165 22.7733C25.2165 22.7535 25.2165 22.7336 25.2165 22.7038C25.2761 22.6244 25.2364 22.535 25.2165 22.4655C25.0974 22.0583 25.1569 21.651 25.147 21.2438C25.147 21.224 25.147 21.2141 25.1569 21.2041C25.1569 21.1346 25.1569 21.0551 25.1569 20.9856C25.147 20.9856 25.1271 20.9658 25.1172 20.9658C25.0576 20.9856 25.0477 21.0452 25.0179 21.0849C24.9186 21.2438 24.8193 21.4127 24.7001 21.5716C24.6405 21.651 24.6504 21.7702 24.6306 21.8695C24.6107 21.9987 24.5908 22.1278 24.561 22.2569C24.5412 22.3363 24.5511 22.4059 24.6306 22.4456C24.6802 22.4754 24.7299 22.5052 24.7696 22.5449C24.8391 22.6045 24.9186 22.6144 25.008 22.6045C25.0676 22.6045 25.0874 22.6442 25.0676 22.674C25.0179 22.7535 25.0974 22.7435 25.1271 22.7634C25.1271 22.7634 25.1569 22.7634 25.1669 22.7932C25.1172 22.823 25.0775 22.7932 25.0477 22.7634C24.9583 22.6839 24.8391 22.6641 24.7497 22.5946C24.7299 22.5846 24.71 22.5747 24.6902 22.6045C24.71 22.6144 24.7299 22.6343 24.7299 22.6641C24.7994 22.7932 24.859 22.9124 24.8789 23.0614C24.9086 23.0713 24.9186 23.111 24.9087 23.1309C24.8888 23.26 24.9384 23.3692 24.9881 23.4785C25.0179 23.5579 25.0477 23.6374 25.0378 23.7168C25.0278 23.846 25.1073 23.9552 25.0874 24.0744C25.0874 24.273 25.0874 24.4717 24.9782 24.6504C24.9186 24.7299 24.859 24.6802 24.7994 24.6504C24.6604 24.561 24.5014 24.5412 24.3425 24.5213C24.2532 24.5114 24.2432 24.5908 24.1936 24.6306C24.1538 24.5908 24.1936 24.561 24.1936 24.5312C24.1936 24.4816 24.2134 24.4319 24.1836 24.3823C24.1836 24.3723 24.1836 24.3525 24.1836 24.3425H24.2134C24.2532 24.4816 24.3823 24.4319 24.4717 24.4518C24.561 24.4617 24.6306 24.4915 24.71 24.5312C24.7299 24.5312 24.7497 24.5511 24.7696 24.561C24.9087 24.6306 24.9384 24.6107 24.9782 24.4617C25.008 24.3425 25.008 24.2134 25.0179 24.0843C25.0179 23.985 25.0179 23.8956 24.9881 23.7963C24.9484 23.6374 24.9484 23.6374 24.7895 23.6771C24.6703 23.7566 24.6703 23.7566 24.7597 23.9055C24.8093 23.985 24.8391 24.0545 24.7597 24.134C24.7299 24.1638 24.7001 24.1936 24.6703 24.2234C24.6008 24.3425 24.4816 24.3227 24.3823 24.3127C24.283 24.3028 24.1836 24.2631 24.0942 24.2134C24.0744 24.2035 24.0446 24.1936 24.0645 24.1638C24.0744 24.134 24.1042 24.1538 24.124 24.1638C24.2432 24.2134 24.3624 24.2631 24.4915 24.2631C24.5511 24.2631 24.6008 24.2532 24.6405 24.2035C24.7332 24.0711 24.7332 23.9353 24.6405 23.7963C24.6405 23.7963 24.6008 23.7566 24.571 23.7566C24.4419 23.7566 24.3624 23.6672 24.273 23.5877C24.2631 23.5778 24.2432 23.5579 24.2532 23.5381C24.2631 23.5182 24.283 23.5381 24.3028 23.5381C24.3326 23.5579 24.3624 23.5679 24.3823 23.5778C24.5312 23.697 24.6504 23.7168 24.7994 23.5579C24.859 23.4785 24.8491 23.409 24.8193 23.3196C24.7795 23.2103 24.7199 23.1209 24.7001 23.0117C24.7001 22.972 24.6703 22.9322 24.6107 22.9124C24.561 22.8925 24.5312 22.8329 24.5312 22.7634C24.5312 22.674 24.5114 22.5946 24.4021 22.5747C24.3823 22.6144 24.3624 22.6442 24.3425 22.6839C24.3425 22.7038 24.3425 22.7237 24.3425 22.7435C24.3425 22.7435 24.3525 22.7435 24.3624 22.7435C24.4319 22.8925 24.4717 23.0514 24.4915 23.2203C24.4319 23.1309 24.422 23.0117 24.3425 22.9124C24.3227 23.0216 24.3922 23.1209 24.3525 23.2401C24.273 23.1507 24.3326 23.0415 24.283 22.962C24.2631 22.9521 24.2432 22.9322 24.2234 22.962C24.2234 22.962 24.2035 22.9819 24.1936 22.9819C24.1538 23.0117 24.1042 23.0415 24.0942 23.0713C24.0942 23.1011 24.134 23.1408 24.1538 23.1805C24.1042 23.1607 24.0843 23.111 24.0446 23.0713C24.0247 23.0713 24.0049 23.0911 23.985 23.0911C23.9651 23.1805 24.0049 23.26 24.0148 23.3494C24.0347 23.4785 23.9949 23.5877 23.985 23.7168C23.985 23.5182 24.0247 23.3295 23.9552 23.1408C23.9155 23.1706 23.8956 23.2302 23.836 23.2004C23.7764 23.1805 23.7566 23.1507 23.836 23.111C23.8658 23.0514 23.9155 23.0117 23.9552 22.972C23.985 22.823 23.9552 22.6641 23.9353 22.5151C23.9353 22.4456 23.9155 22.386 23.9155 22.3165C23.9155 22.2668 23.8956 22.2271 23.8658 22.1874C23.8062 22.1079 23.7764 22.1079 23.7069 22.1874C23.6771 22.2172 23.6473 22.237 23.6275 22.2668C23.6275 22.2668 23.6275 22.2668 23.6275 22.2767C23.6175 22.3463 23.5778 22.4059 23.548 22.4754C23.5182 22.5548 23.4884 22.6244 23.4685 22.7038C23.4685 22.7237 23.4686 22.7435 23.4586 22.7535C23.3692 22.8329 23.3295 22.9422 23.2699 23.0415C23.2699 23.0713 23.2501 23.1011 23.2501 23.1309C23.2004 23.2799 23.2004 23.4288 23.2501 23.5877C23.2699 23.6374 23.2898 23.6771 23.3394 23.7069C23.4686 23.7268 23.548 23.6473 23.6275 23.5778C23.6473 23.5579 23.6672 23.5281 23.697 23.5579C23.7168 23.5778 23.697 23.6076 23.6771 23.6275C23.6076 23.7168 23.5182 23.7864 23.399 23.7864C23.3196 23.836 23.2798 23.7665 23.2302 23.7268C23.2004 23.697 23.1805 23.6473 23.1209 23.6771C23.0911 23.7367 23.0911 23.8162 23.0415 23.8758C23.0415 23.8857 23.0316 23.8956 23.0117 23.8956C23.0316 23.9055 23.0117 23.9254 23.0117 23.9353C23.0117 23.9453 23.0117 23.9552 23.0018 23.9552C23.0018 23.9651 23.0018 23.9751 23.0018 23.985C23.0018 23.9949 23.0018 24.0148 23.0018 24.0247C23.0216 24.0545 23.0415 24.0943 23.0514 24.124C23.1507 24.3028 23.2203 24.3326 23.409 24.273C23.4288 24.273 23.4487 24.2631 23.4685 24.2532C23.4983 24.2333 23.5381 24.2035 23.5679 24.1836C23.5877 24.1737 23.5977 24.1538 23.6175 24.1836C23.6374 24.2035 23.6275 24.2234 23.6175 24.2333C23.5778 24.2532 23.548 24.3028 23.4983 24.3028C23.2997 24.3922 23.1905 24.422 23.0018 24.1936L22.9819 24.2234C22.9819 24.3227 23.0117 24.422 23.0415 24.5213C23.0713 24.6107 23.1209 24.6206 23.2004 24.5809C23.26 24.5511 23.3295 24.5114 23.3891 24.4717C23.4586 24.4319 23.5281 24.4121 23.5977 24.422C23.6672 24.4021 23.7367 24.4617 23.8162 24.4121C23.7665 24.5015 23.8658 24.561 23.8559 24.6504C23.7367 24.4816 23.697 24.4617 23.4785 24.5114C23.4388 24.5114 23.4288 24.5412 23.399 24.561C23.399 24.5809 23.3792 24.5908 23.3593 24.5908C23.3593 24.5908 23.3593 24.5908 23.3494 24.5908C23.3295 24.6206 23.2997 24.6306 23.2699 24.6405C23.0216 24.7696 23.0514 24.6902 22.9819 24.4915C22.9521 24.422 22.9521 24.3425 22.9422 24.2631C22.9124 24.2035 22.9124 24.1538 22.9422 24.0943C22.9223 24.0148 22.8726 23.9453 22.9422 23.8658C22.972 23.7864 23.0613 23.7367 23.0812 23.6573C23.1309 23.4686 23.111 23.26 23.1706 23.0713C23.1805 22.972 23.2302 22.8826 23.2798 22.7932C23.2997 22.7634 23.3394 22.7237 23.2798 22.6839C23.2798 22.6839 23.2798 22.6542 23.2798 22.6442C23.3792 22.3463 23.5083 22.0682 23.6374 21.7802C23.6573 21.7404 23.6672 21.6808 23.6672 21.6213C23.5579 21.7007 23.5381 21.8298 23.4487 21.8993C23.4189 21.9391 23.399 21.9887 23.3593 22.0185C23.2997 22.098 23.2302 22.1576 23.1309 22.1874C23.111 22.1874 23.0911 22.2271 23.0613 22.1874C23.0415 22.1476 23.0812 22.1476 23.1011 22.1377C23.111 22.1278 23.1309 22.1178 23.1507 22.1079C23.111 22.098 23.0812 22.0781 23.0911 22.0384C23.0911 22.0086 23.1309 22.0086 23.1607 22.0086C23.2401 22.0086 23.2898 21.9689 23.3295 21.9093C23.399 21.81 23.4288 21.6908 23.4983 21.5915C23.4983 21.5319 23.5778 21.512 23.5778 21.4425C23.4586 21.373 23.4586 21.2438 23.4388 21.1346C23.4388 21.0949 23.4189 21.0551 23.4189 21.0154C23.409 20.9658 23.3891 20.8962 23.3394 20.8863C23.2699 20.8863 23.2004 20.9161 23.1507 20.9856C23.0117 21.1942 22.962 21.4226 22.9024 21.651C22.8726 21.7802 22.9223 21.8894 22.962 22.0086C22.972 22.0483 22.9918 22.088 22.972 22.1377C22.9024 22.098 22.9223 22.0185 22.8925 21.9689C22.7634 21.7106 22.8726 21.4822 22.962 21.2438C22.962 21.2141 22.9819 21.1942 22.9918 21.1644C23.0316 21.0949 23.0514 21.0353 22.9223 21.0154C23.0117 20.9856 23.0812 20.9558 23.1011 20.8764C23.1011 20.8565 23.1011 20.8466 23.111 20.8267C23.111 20.8267 23.1209 20.8069 23.111 20.7969C23.111 20.7969 23.1011 20.7969 23.0911 20.8069C23.0613 20.8168 23.0415 20.8664 22.9918 20.8466C23.0316 20.8069 23.0713 20.7572 23.111 20.7175C23.111 20.6976 23.1706 20.6579 23.0911 20.6479C23.0812 20.6479 23.0713 20.638 23.0812 20.6181C23.0812 20.6181 23.1011 20.6082 23.111 20.6082C23.1706 20.6082 23.2302 20.6082 23.2798 20.6082C23.3096 20.6082 23.3394 20.6082 23.3196 20.5685C23.3196 20.5685 23.3196 20.5685 23.3196 20.5586C23.3096 20.5387 23.2898 20.5288 23.2798 20.5089C23.2203 20.4195 23.2501 20.3103 23.3394 20.2606C23.5182 20.1613 23.5679 19.9825 23.5679 19.7938C23.5381 19.774 23.5381 19.7442 23.5679 19.7243C23.5679 19.7044 23.5679 19.6746 23.5679 19.6548C23.5679 19.5952 23.548 19.5654 23.5083 19.5257C23.4983 19.5257 23.4884 19.5356 23.4685 19.5455C23.409 19.6548 23.3593 19.774 23.3196 19.8931C23.2699 20.052 23.1607 20.1613 22.9918 20.2209C22.962 20.2308 22.9422 20.2606 22.9124 20.2705C22.9024 20.2904 22.8826 20.3003 22.8627 20.3003C22.8031 20.3301 22.7435 20.3699 22.6939 20.3997C22.6939 20.3997 22.6939 20.3897 22.6839 20.3798C22.7435 20.3202 22.8031 20.2705 22.8826 20.2407C22.972 20.1911 23.0613 20.1315 23.1408 20.062C23.2898 19.9329 23.3295 19.7541 23.3692 19.5753C23.3891 19.476 23.3295 19.4065 23.2501 19.4561C23.1507 19.5157 23.1309 19.4561 23.1011 19.3965C23.1011 19.3866 23.0911 19.3668 23.0812 19.3568C23.0713 19.327 23.0614 19.3072 23.0415 19.2774C23.0713 19.2575 23.0911 19.2674 23.1209 19.2774C23.1408 19.2873 23.1607 19.3072 23.1905 19.2972C23.2997 19.2476 23.399 19.3072 23.5083 19.3171C23.548 19.3171 23.5579 19.2972 23.5778 19.2575C23.6076 19.1582 23.5778 19.0589 23.6076 18.9596C23.6175 18.9198 23.6175 18.8702 23.6275 18.8304C23.6076 18.7907 23.5877 18.8304 23.5679 18.8304C23.5182 18.8801 23.4785 18.9397 23.409 18.9794C23.409 18.9794 23.409 18.9893 23.409 18.9993C23.409 18.9993 23.409 18.9993 23.409 19.0092C23.409 19.0092 23.409 19.0092 23.399 19.0092C23.399 19.0092 23.399 19.0092 23.399 18.9993C23.399 18.9993 23.399 18.9993 23.3891 18.9993C23.3692 19.0191 23.3494 19.0191 23.3295 18.9993C23.3096 18.9695 23.3295 18.9596 23.3494 18.9496C23.4288 18.8205 23.5579 18.751 23.6473 18.6318C23.6771 18.602 23.697 18.5722 23.7168 18.5325C23.7466 18.4431 23.6771 18.4232 23.6275 18.3934C23.5579 18.3934 23.4785 18.3835 23.409 18.3736H23.1011C22.9819 18.3736 22.9024 18.453 22.8131 18.5226C22.7932 18.5424 22.7833 18.5524 22.7634 18.5722C22.7435 18.5921 22.7237 18.602 22.7038 18.5821C22.6839 18.5623 22.6839 18.5424 22.7038 18.5226C22.9024 18.3339 23.1209 18.2445 23.409 18.2941C23.5182 18.314 23.6275 18.2941 23.7367 18.2941C23.7268 18.2743 23.7069 18.2445 23.7168 18.2147C23.7566 18.1154 23.687 18.0458 23.6374 17.9763C23.548 17.8472 23.4884 17.7181 23.5381 17.5592C23.548 17.5095 23.4983 17.5095 23.4983 17.4797C23.4686 17.4003 23.4884 17.3407 23.5579 17.291C23.5679 17.2513 23.5381 17.2116 23.5083 17.2215C23.4288 17.2414 23.399 17.1917 23.3593 17.152C23.2997 17.152 23.2798 17.1222 23.3096 17.0725C23.3394 17.0129 23.3891 16.9633 23.3394 16.8938C23.3394 16.8938 23.3394 16.864 23.3494 16.854C23.3196 16.8242 23.3295 16.7944 23.3494 16.7746C23.4288 16.6951 23.4189 16.5958 23.409 16.5064C23.3891 16.3376 23.4189 16.1787 23.399 16.0098C23.399 15.9701 23.4288 15.9602 23.4487 15.9502C23.5381 15.8708 23.6275 15.8708 23.6672 15.9502C23.7268 15.99 23.7864 16.0297 23.7864 16.1091C23.7864 16.1687 23.7864 16.2283 23.697 16.2184C23.6076 16.2184 23.6275 16.278 23.6573 16.3177C23.7069 16.3872 23.7268 16.4667 23.7168 16.5461C23.7566 16.4965 23.7367 16.427 23.7764 16.3773C23.7764 16.3376 23.7963 16.3078 23.8062 16.2681C23.8062 16.2581 23.8062 16.2482 23.8162 16.2482C23.846 16.1588 23.9155 16.0893 23.8956 15.99C23.7963 15.841 23.697 15.692 23.548 15.5828C23.5281 15.5629 23.5083 15.543 23.5182 15.5132C23.5679 15.3643 23.4884 15.2252 23.4685 15.0763C23.4685 15.0167 23.4686 14.967 23.4487 14.9074C23.4288 14.8578 23.4884 14.8578 23.5182 14.8478C23.5579 14.828 23.5679 14.8677 23.5679 14.8975C23.5679 15.0365 23.6275 15.1656 23.6374 15.3047C23.6374 15.3742 23.687 15.4239 23.687 15.4835C23.7665 15.6424 23.9055 15.7615 24.0049 15.9105C24.0247 15.9403 24.0645 15.9502 24.1042 15.9403C24.1638 15.7317 24.1638 15.5033 24.2234 15.2947C24.2631 15.1855 24.2333 15.0663 24.2333 14.9471C24.2333 14.9173 24.2035 14.8677 24.2631 14.8578C24.3227 14.8578 24.3127 14.9074 24.3127 14.9372C24.3127 15.0067 24.3127 15.0862 24.3127 15.1557C24.4617 15.2054 24.4617 15.2054 24.4518 15.3841C24.422 15.5033 24.4121 15.6225 24.4121 15.7516C24.4121 15.7715 24.4121 15.8013 24.4121 15.8211C24.4617 15.9602 24.561 16.0893 24.5809 16.2383C24.5809 16.2879 24.561 16.3475 24.6008 16.3972C24.6703 16.417 24.7398 16.4369 24.8093 16.4568C24.8391 16.4667 24.859 16.4866 24.8689 16.5263C24.8789 16.5561 24.8789 16.5958 24.8689 16.6355C24.8491 16.715 24.7895 16.7845 24.8292 16.8739C24.9384 16.8739 25.0179 16.9633 25.1172 16.9732C25.1271 16.9732 25.1371 16.9732 25.147 16.9732C25.296 16.9931 25.4052 17.0626 25.4847 17.1917C25.5443 17.2712 25.6337 17.3208 25.6933 17.4102C25.9316 17.6585 25.8621 18.0955 25.5443 18.2445L25.6039 18.2743Z" fill="white"/>
<path d="M24.4718 20.2308C24.5611 20.2904 24.6505 20.3202 24.7498 20.2606C24.7697 20.2507 24.7995 20.2408 24.8194 20.2308C24.9385 20.1911 25.0577 20.1415 25.167 20.062C25.1868 20.0421 25.2365 20.0223 25.2067 19.9925C25.1372 19.9329 25.0975 19.8534 25.0081 19.8137C24.9783 19.8038 24.9485 19.7939 24.9187 19.8137C24.8889 19.8336 24.8988 19.8733 24.9187 19.8932C24.9485 19.9627 24.9187 20.0123 24.8591 20.0421C24.8392 20.0521 24.8194 20.0421 24.8194 20.0819C24.8492 20.0918 24.8492 20.1117 24.8293 20.1415C24.8094 20.1613 24.7995 20.1713 24.7796 20.1415C24.7498 20.0918 24.7002 20.0719 24.6406 20.0521C24.5909 20.0322 24.5413 20.0223 24.4916 20.0123C24.4916 20.0918 24.4618 20.1613 24.4718 20.2408V20.2308Z" fill="white"/>
<path d="M24.4218 21.8498C24.4218 21.8498 24.4417 21.7306 24.392 21.7207C24.3424 21.7207 24.3523 21.8002 24.3523 21.8399C24.3424 21.9293 24.3026 21.9789 24.2132 21.9789C24.1834 21.9789 24.1537 21.9889 24.1338 22.0187C24.2331 22.0981 24.3324 22.1776 24.4218 22.2669C24.4218 22.2669 24.4218 22.2669 24.4317 22.2669C24.4317 22.2471 24.4317 22.2173 24.4317 22.1974C24.4119 22.0782 24.4317 21.969 24.4317 21.8498H24.4218Z" fill="white"/>
<path d="M24.1838 22.9026C24.1838 22.9026 24.1341 22.9324 24.1143 22.9622C24.1441 22.9721 24.1639 22.9622 24.1738 22.9423C24.1738 22.9324 24.1937 22.9125 24.1838 22.9026C24.1838 22.9026 24.1838 22.9026 24.1738 22.9026H24.1838Z" fill="white"/>
<path d="M24.0545 21.7108C24.0545 21.7108 24.0545 21.6313 23.9949 21.6313C23.9453 21.6711 23.9651 21.7903 24.0247 21.83C24.0247 21.7903 24.0247 21.7505 24.0446 21.7108H24.0545Z" fill="white"/>
<path d="M23.9751 21.5419C23.9751 21.5419 24.0744 21.5915 24.0844 21.522C24.1142 21.4028 24.1439 21.2836 24.1439 21.1545C24.1439 21.1347 24.1439 21.1247 24.1539 21.1148C24.1638 21.0453 24.1539 20.9857 24.1539 20.9162C24.1142 20.8764 24.134 20.8268 24.134 20.7871C24.134 20.7672 24.134 20.7374 24.134 20.7175C24.0943 20.6579 24.134 20.5984 24.1142 20.5388C24.1142 20.509 24.1142 20.4792 24.0744 20.5189C24.0546 20.5686 24.0347 20.6282 24.0248 20.6778C24.0347 20.7175 24.0049 20.7473 24.0049 20.7871C23.985 20.8963 23.9652 21.0056 23.9453 21.1148C23.985 21.2539 23.9652 21.3929 23.9751 21.5319V21.5419Z" fill="white"/>
<path d="M24.1838 22.9026C24.2036 22.8927 24.2136 22.8828 24.2235 22.853C24.2434 22.853 24.2434 22.8331 24.2235 22.8132L24.2036 22.8331C24.1937 22.853 24.1738 22.8629 24.1738 22.8927L24.1838 22.9026Z" fill="white"/>
<path d="M24.0443 22.3167C24.0443 22.3167 24.0146 22.3961 24.0245 22.4358C24.0642 22.6047 24.0543 22.7835 24.0543 22.9523C24.1933 22.8232 24.2926 22.6643 24.392 22.5054C24.3026 22.4756 24.2529 22.3961 24.1735 22.3564C24.1337 22.3365 24.094 22.2869 24.0443 22.3167Z" fill="white"/>
</g>
<path d="M73.72 31.288C69.088 31.288 65.152 27.376 65.152 22.744C65.152 18.112 69.088 14.224 73.72 14.224C76.072 14.224 78.232 15.208 79.792 16.816L78.088 18.448C76.984 17.248 75.424 16.456 73.72 16.456C70.432 16.456 67.648 19.336 67.648 22.744C67.648 26.176 70.432 29.056 73.72 29.056C75.424 29.056 76.984 28.264 78.088 27.064L79.792 28.696C78.232 30.28 76.072 31.288 73.72 31.288ZM87.8457 29.176C89.1417 29.176 90.6537 28.6 91.3977 27.832L92.8857 29.368C91.7817 30.544 89.6217 31.288 87.8697 31.288C84.4137 31.288 81.4857 28.576 81.4857 24.76C81.4857 21.04 84.2457 18.304 87.6777 18.304C91.4697 18.304 93.6537 21.184 93.6537 25.624H83.8857C84.1977 27.688 85.7097 29.176 87.8457 29.176ZM87.7737 20.416C85.8537 20.416 84.2937 21.712 83.9097 23.728H91.3497C91.0857 21.808 89.9097 20.416 87.7737 20.416ZM96.4077 31V14.224H98.7597V31H96.4077ZM102.22 31V14.224H104.572V31H102.22ZM115.26 31V14.512H120.948C126.276 14.512 130.068 17.92 130.068 22.744C130.068 27.568 126.276 31 120.948 31H115.26ZM117.684 28.792H121.092C124.908 28.792 127.572 26.296 127.572 22.744C127.572 19.216 124.908 16.72 121.092 16.72H117.684V28.792ZM134.357 16.528C133.541 16.528 132.917 15.856 132.917 15.088C132.917 14.344 133.541 13.672 134.357 13.672C135.125 13.672 135.773 14.344 135.773 15.088C135.773 15.856 135.125 16.528 134.357 16.528ZM133.157 31V18.592H135.533V31H133.157ZM143.458 31.288C141.634 31.288 139.642 30.64 138.154 29.44L139.282 27.736C140.602 28.696 142.018 29.248 143.482 29.248C144.874 29.248 145.834 28.6 145.834 27.64C145.834 26.488 144.562 26.128 143.026 25.696C140.17 24.904 138.754 24.088 138.754 22.072C138.73 19.792 140.626 18.304 143.266 18.304C144.874 18.304 146.506 18.856 147.85 19.744L146.794 21.496C145.594 20.752 144.346 20.344 143.266 20.344C142.042 20.344 141.082 20.872 141.082 21.808C141.082 22.768 141.85 23.056 143.938 23.704C145.978 24.304 148.162 24.976 148.162 27.448C148.162 29.8 146.17 31.288 143.458 31.288ZM156.731 28.768L157.595 30.4C156.923 30.952 156.011 31.288 155.123 31.288C153.203 31.288 151.859 29.896 151.859 27.904V20.608H149.987V18.592H151.859V15.184H154.187V18.592H157.115V20.608H154.187V27.736C154.187 28.6 154.763 29.224 155.459 29.224C155.987 29.224 156.467 29.032 156.731 28.768ZM165.225 18.304C168.561 18.304 170.409 20.416 170.409 23.488V31H168.081V29.296C167.169 30.592 165.465 31.288 163.953 31.288C161.313 31.288 159.369 29.752 159.369 27.328C159.369 24.856 161.601 23.2 164.337 23.2C165.561 23.2 166.881 23.464 168.081 23.872V23.488C168.081 21.928 167.361 20.272 164.889 20.272C163.665 20.272 162.465 20.752 161.385 21.304L160.521 19.552C162.297 18.664 163.857 18.304 165.225 18.304ZM164.409 29.416C165.945 29.416 167.673 28.648 168.081 27.112V25.456C167.073 25.144 165.921 24.976 164.697 24.976C163.041 24.976 161.649 25.912 161.649 27.256C161.649 28.6 162.849 29.416 164.409 29.416ZM180.157 18.304C182.893 18.304 184.813 20.296 184.813 23.104V31H182.485V23.512C182.485 21.664 181.309 20.368 179.629 20.368C177.901 20.368 176.413 21.496 176.221 22.96V31H173.845V18.592H176.221V20.392C176.965 19.168 178.477 18.304 180.157 18.304ZM194.068 31.288C190.54 31.288 187.54 28.312 187.54 24.784C187.54 21.256 190.54 18.304 194.092 18.304C195.868 18.304 197.476 19.048 198.652 20.224L197.044 21.712C196.3 20.872 195.22 20.368 194.068 20.368C191.812 20.368 189.94 22.384 189.94 24.784C189.94 27.208 191.812 29.224 194.092 29.224C195.244 29.224 196.348 28.696 197.116 27.832L198.724 29.296C197.524 30.52 195.916 31.288 194.068 31.288ZM206.955 29.176C208.251 29.176 209.763 28.6 210.507 27.832L211.995 29.368C210.891 30.544 208.731 31.288 206.979 31.288C203.523 31.288 200.595 28.576 200.595 24.76C200.595 21.04 203.355 18.304 206.787 18.304C210.579 18.304 212.763 21.184 212.763 25.624H202.995C203.307 27.688 204.819 29.176 206.955 29.176ZM206.883 20.416C204.963 20.416 203.403 21.712 203.019 23.728H210.459C210.195 21.808 209.019 20.416 206.883 20.416ZM234.576 16.768H224.904V21.472H233.64V23.728H224.904V28.744H234.576V31H222.456V14.512H234.576V16.768ZM248.54 31H245.876L242.492 26.44L239.084 31H236.444L241.172 24.664L236.636 18.592H239.324L242.492 22.864L245.684 18.592H248.324L243.812 24.64L248.54 31ZM257.772 18.304C261.036 18.304 263.484 20.992 263.484 24.784C263.484 28.6 261.036 31.288 257.772 31.288C255.852 31.288 254.316 30.376 253.356 28.84V35.128H251.004V18.592H253.356V20.728C254.316 19.216 255.852 18.304 257.772 18.304ZM257.196 29.224C259.476 29.224 261.084 27.376 261.084 24.784C261.084 22.192 259.476 20.368 257.196 20.368C254.964 20.368 253.356 22.192 253.356 24.784C253.356 27.376 254.964 29.224 257.196 29.224ZM266.353 31V14.224H268.705V31H266.353ZM278.046 31.288C274.494 31.288 271.494 28.312 271.494 24.784C271.494 21.256 274.494 18.304 278.046 18.304C281.574 18.304 284.549 21.256 284.549 24.784C284.549 28.312 281.574 31.288 278.046 31.288ZM278.046 29.224C280.278 29.224 282.174 27.208 282.174 24.784C282.174 22.384 280.278 20.368 278.046 20.368C275.766 20.368 273.87 22.384 273.87 24.784C273.87 27.208 275.766 29.224 278.046 29.224ZM289.826 20.968C290.618 19.336 292.298 18.304 294.434 18.304V20.368C291.866 20.368 290.042 21.784 289.826 23.944V31H287.45V18.592H289.826V20.968ZM302.439 29.176C303.735 29.176 305.247 28.6 305.991 27.832L307.479 29.368C306.375 30.544 304.215 31.288 302.463 31.288C299.007 31.288 296.079 28.576 296.079 24.76C296.079 21.04 298.839 18.304 302.271 18.304C306.063 18.304 308.247 21.184 308.247 25.624H298.479C298.791 27.688 300.303 29.176 302.439 29.176ZM302.367 20.416C300.447 20.416 298.887 21.712 298.503 23.728H305.943C305.679 21.808 304.503 20.416 302.367 20.416ZM313.497 20.968C314.289 19.336 315.969 18.304 318.105 18.304V20.368C315.537 20.368 313.713 21.784 313.497 23.944V31H311.121V18.592H313.497V20.968Z" fill="#201E3D"/>
<defs>
<clipPath id="clip0_584_15168">
<rect width="48" height="48" fill="white"/>
</clipPath>
</defs>
</svg>
