<svg width="273" height="54" viewBox="0 0 273 54" fill="none" xmlns="http://www.w3.org/2000/svg">
<g clip-path="url(#clip0_2268_11524)">
<path d="M24.005 51.0099C37.2625 51.0099 48.0099 40.2625 48.0099 27.005C48.0099 13.7474 37.2625 3 24.005 3C10.7474 3 0 13.7474 0 27.005C0 40.2625 10.7474 51.0099 24.005 51.0099Z" fill="#201E3D"/>
<path d="M30.6966 24.9174C30.5314 24.729 30.2482 24.6819 29.9886 24.6701C29.7289 24.6701 29.4693 24.7054 29.2215 24.623C28.7259 24.4699 28.478 23.9283 28.183 23.4808C27.5812 22.5506 26.5545 21.8912 25.4452 21.7499C25.1502 21.7146 24.7962 21.6675 24.6782 21.3967C24.631 21.3025 24.631 21.1848 24.631 21.0788C24.6192 20.8315 24.572 20.5607 24.3831 20.3958C24.1943 20.231 23.8403 20.2545 23.7577 20.49C23.6869 20.6902 23.8403 20.8904 23.9229 21.0788C24.1589 21.6322 23.3801 21.7382 23.026 21.8088C22.4832 21.9266 21.9286 21.9737 21.4093 22.1856C20.7367 22.4447 20.1702 22.9628 19.8398 23.5986C19.651 23.9518 19.4622 24.4111 19.0609 24.4228C18.8721 24.4228 18.6597 24.3404 18.5299 24.4582C18.3765 24.5877 18.4709 24.835 18.6007 24.9763C18.7305 25.1176 18.9075 25.2589 18.9193 25.459C18.9193 25.5885 18.8603 25.7063 18.8013 25.824C18.2113 26.9662 18.2349 27.5196 18.3647 28.8031C18.4827 29.9688 18.8367 30.4516 18.9193 30.6282C18.9901 30.793 18.9429 30.9814 18.8839 31.1581C18.8249 31.3229 18.7423 31.4995 18.7659 31.6762C18.7895 31.8528 18.9547 32.0294 19.1318 31.9823C19.297 31.9352 19.356 31.7115 19.474 31.5937C19.6746 31.3936 20.0168 31.4642 20.241 31.6408C20.4534 31.8174 20.5833 32.0765 20.7721 32.2884C21.2677 32.8654 22.0702 33.0774 22.8372 33.0891C23.5925 33.1127 24.3595 32.9714 25.1148 33.0185C25.1384 33.0185 25.162 33.0185 25.1856 33.0185C25.1856 33.0656 25.1974 33.1127 25.1974 33.1598C25.1974 33.2775 25.1266 33.3717 25.0794 33.4777C25.0322 33.5719 25.0204 33.6897 25.0794 33.7838C25.1502 33.8898 25.3154 33.9134 25.4216 33.8545C25.5396 33.7956 25.6104 33.6779 25.6694 33.5601C25.752 33.3953 25.7874 33.2187 25.7992 33.042C26.1061 33.042 26.4129 33.0185 26.6607 32.8536C26.8731 32.7123 27.0265 32.5122 27.2153 32.3473C27.6048 32.0058 28.124 31.8645 28.5134 31.5349C28.9501 31.1581 29.1625 30.5811 29.3513 30.0277C29.4929 29.957 29.6581 30.0983 29.8115 30.1101C30.0358 30.1101 30.1774 29.8157 30.083 29.6038C29.9886 29.3918 29.7643 29.2859 29.5401 29.227C29.6463 28.5205 29.6463 27.7904 29.5401 27.084C29.4929 26.766 29.4221 26.4363 29.4811 26.1184C29.5519 25.8005 29.8115 25.4944 30.1302 25.5061C30.2836 25.5061 30.437 25.5768 30.5786 25.5297C30.8264 25.459 30.8618 25.0822 30.6966 24.8938V24.9174ZM23.7459 30.3103C22.5776 30.3103 21.6217 29.3683 21.6217 28.1908C21.6217 27.0133 22.5658 26.0713 23.7459 26.0713C24.926 26.0713 25.87 27.0133 25.87 28.1908C25.87 29.3683 24.926 30.3103 23.7459 30.3103Z" fill="#FCFCFC"/>
<path d="M10.9375 27.2915H15.4583" stroke="white" stroke-width="0.7" stroke-linecap="round" stroke-linejoin="round"/>
<path d="M10.2891 28.5835V26.0002" stroke="white" stroke-width="0.7" stroke-linecap="round" stroke-linejoin="round"/>
<path d="M37.4609 27.292L32.9401 27.292" stroke="white" stroke-width="0.7" stroke-linecap="round" stroke-linejoin="round"/>
<path d="M38.1094 26L38.1094 28.5833" stroke="white" stroke-width="0.7" stroke-linecap="round" stroke-linejoin="round"/>
</g>
<path d="M68.1 21.24C64.24 21.24 60.96 17.98 60.96 14.12C60.96 10.26 64.24 7.02 68.1 7.02C70.06 7.02 71.86 7.84 73.16 9.18L71.74 10.54C70.82 9.54 69.52 8.88 68.1 8.88C65.36 8.88 63.04 11.28 63.04 14.12C63.04 16.98 65.36 19.38 68.1 19.38C69.52 19.38 70.82 18.72 71.74 17.72L73.16 19.08C71.86 20.4 70.06 21.24 68.1 21.24ZM79.8714 19.48C80.9514 19.48 82.2114 19 82.8314 18.36L84.0714 19.64C83.1514 20.62 81.3514 21.24 79.8914 21.24C77.0114 21.24 74.5714 18.98 74.5714 15.8C74.5714 12.7 76.8714 10.42 79.7314 10.42C82.8914 10.42 84.7114 12.82 84.7114 16.52H76.5714C76.8314 18.24 78.0914 19.48 79.8714 19.48ZM79.8114 12.18C78.2114 12.18 76.9114 13.26 76.5914 14.94H82.7914C82.5714 13.34 81.5914 12.18 79.8114 12.18ZM87.0064 21V7.02H88.9664V21H87.0064ZM91.8502 21V7.02H93.8102V21H91.8502ZM102.717 21V7.26H107.457C111.897 7.26 115.057 10.1 115.057 14.12C115.057 18.14 111.897 21 107.457 21H102.717ZM104.737 19.16H107.577C110.757 19.16 112.977 17.08 112.977 14.12C112.977 11.18 110.757 9.1 107.577 9.1H104.737V19.16ZM118.631 8.94C117.951 8.94 117.431 8.38 117.431 7.74C117.431 7.12 117.951 6.56 118.631 6.56C119.271 6.56 119.811 7.12 119.811 7.74C119.811 8.38 119.271 8.94 118.631 8.94ZM117.631 21V10.66H119.611V21H117.631ZM126.215 21.24C124.695 21.24 123.035 20.7 121.795 19.7L122.735 18.28C123.835 19.08 125.015 19.54 126.235 19.54C127.395 19.54 128.195 19 128.195 18.2C128.195 17.24 127.135 16.94 125.855 16.58C123.475 15.92 122.295 15.24 122.295 13.56C122.275 11.66 123.855 10.42 126.055 10.42C127.395 10.42 128.755 10.88 129.875 11.62L128.995 13.08C127.995 12.46 126.955 12.12 126.055 12.12C125.035 12.12 124.235 12.56 124.235 13.34C124.235 14.14 124.875 14.38 126.615 14.92C128.315 15.42 130.135 15.98 130.135 18.04C130.135 20 128.475 21.24 126.215 21.24ZM137.276 19.14L137.996 20.5C137.436 20.96 136.676 21.24 135.936 21.24C134.336 21.24 133.216 20.08 133.216 18.42V12.34H131.656V10.66H133.216V7.82H135.156V10.66H137.596V12.34H135.156V18.28C135.156 19 135.636 19.52 136.216 19.52C136.656 19.52 137.056 19.36 137.276 19.14ZM144.354 10.42C147.134 10.42 148.674 12.18 148.674 14.74V21H146.734V19.58C145.974 20.66 144.554 21.24 143.294 21.24C141.094 21.24 139.474 19.96 139.474 17.94C139.474 15.88 141.334 14.5 143.614 14.5C144.634 14.5 145.734 14.72 146.734 15.06V14.74C146.734 13.44 146.134 12.06 144.074 12.06C143.054 12.06 142.054 12.46 141.154 12.92L140.434 11.46C141.914 10.72 143.214 10.42 144.354 10.42ZM143.674 19.68C144.954 19.68 146.394 19.04 146.734 17.76V16.38C145.894 16.12 144.934 15.98 143.914 15.98C142.534 15.98 141.374 16.76 141.374 17.88C141.374 19 142.374 19.68 143.674 19.68ZM156.798 10.42C159.078 10.42 160.678 12.08 160.678 14.42V21H158.738V14.76C158.738 13.22 157.758 12.14 156.358 12.14C154.918 12.14 153.678 13.08 153.518 14.3V21H151.538V10.66H153.518V12.16C154.138 11.14 155.398 10.42 156.798 10.42ZM168.39 21.24C165.45 21.24 162.95 18.76 162.95 15.82C162.95 12.88 165.45 10.42 168.41 10.42C169.89 10.42 171.23 11.04 172.21 12.02L170.87 13.26C170.25 12.56 169.35 12.14 168.39 12.14C166.51 12.14 164.95 13.82 164.95 15.82C164.95 17.84 166.51 19.52 168.41 19.52C169.37 19.52 170.29 19.08 170.93 18.36L172.27 19.58C171.27 20.6 169.93 21.24 168.39 21.24ZM179.129 19.48C180.209 19.48 181.469 19 182.089 18.36L183.329 19.64C182.409 20.62 180.609 21.24 179.149 21.24C176.269 21.24 173.829 18.98 173.829 15.8C173.829 12.7 176.129 10.42 178.989 10.42C182.149 10.42 183.969 12.82 183.969 16.52H175.829C176.089 18.24 177.349 19.48 179.129 19.48ZM179.069 12.18C177.469 12.18 176.169 13.26 175.849 14.94H182.049C181.829 13.34 180.849 12.18 179.069 12.18ZM202.147 9.14H194.087V13.06H201.367V14.94H194.087V19.12H202.147V21H192.047V7.26H202.147V9.14ZM213.784 21H211.564L208.744 17.2L205.904 21H203.704L207.644 15.72L203.864 10.66H206.104L208.744 14.22L211.404 10.66H213.604L209.844 15.7L213.784 21ZM221.477 10.42C224.197 10.42 226.237 12.66 226.237 15.82C226.237 19 224.197 21.24 221.477 21.24C219.877 21.24 218.597 20.48 217.797 19.2V24.44H215.837V10.66H217.797V12.44C218.597 11.18 219.877 10.42 221.477 10.42ZM220.997 19.52C222.897 19.52 224.237 17.98 224.237 15.82C224.237 13.66 222.897 12.14 220.997 12.14C219.137 12.14 217.797 13.66 217.797 15.82C217.797 17.98 219.137 19.52 220.997 19.52ZM228.628 21V7.02H230.588V21H228.628ZM238.371 21.24C235.411 21.24 232.911 18.76 232.911 15.82C232.911 12.88 235.411 10.42 238.371 10.42C241.311 10.42 243.791 12.88 243.791 15.82C243.791 18.76 241.311 21.24 238.371 21.24ZM238.371 19.52C240.231 19.52 241.811 17.84 241.811 15.82C241.811 13.82 240.231 12.14 238.371 12.14C236.471 12.14 234.891 13.82 234.891 15.82C234.891 17.84 236.471 19.52 238.371 19.52ZM248.188 12.64C248.848 11.28 250.248 10.42 252.028 10.42V12.14C249.888 12.14 248.368 13.32 248.188 15.12V21H246.208V10.66H248.188V12.64ZM258.7 19.48C259.78 19.48 261.04 19 261.66 18.36L262.9 19.64C261.98 20.62 260.18 21.24 258.72 21.24C255.84 21.24 253.4 18.98 253.4 15.8C253.4 12.7 255.7 10.42 258.56 10.42C261.72 10.42 263.54 12.82 263.54 16.52H255.4C255.66 18.24 256.92 19.48 258.7 19.48ZM258.64 12.18C257.04 12.18 255.74 13.26 255.42 14.94H261.62C261.4 13.34 260.42 12.18 258.64 12.18ZM267.915 12.64C268.575 11.28 269.975 10.42 271.755 10.42V12.14C269.615 12.14 268.095 13.32 267.915 15.12V21H265.935V10.66H267.915V12.64Z" fill="#201E3D"/>
<path d="M61.392 47V35.72H62.704V40.712H69.472V35.72H70.784V47H69.472V41.848H62.704V47H61.392ZM74.0639 47V35.72H78.5279C79.7439 35.72 80.6719 36.0027 81.3119 36.568C81.9625 37.1333 82.2879 37.9387 82.2879 38.984C82.2879 39.816 82.0585 40.4987 81.5999 41.032C81.1519 41.5653 80.5119 41.912 79.6799 42.072C80.1705 42.2427 80.5919 42.6587 80.9439 43.32L82.9279 47H81.4879L79.5359 43.384C79.2905 42.936 79.0079 42.632 78.6879 42.472C78.3679 42.312 77.9465 42.232 77.4239 42.232H75.3759V47H74.0639ZM75.3759 41.192H78.3359C80.1065 41.192 80.9919 40.456 80.9919 38.984C80.9919 37.5333 80.1065 36.808 78.3359 36.808H75.3759V41.192ZM84.0071 47L88.9831 35.72H90.1031L95.0791 47H93.7191L92.4711 44.12H86.5991L85.3671 47H84.0071ZM89.5271 37.256L87.0791 43.016H92.0071L89.5591 37.256H89.5271ZM101.861 47V35.72H106.325C107.541 35.72 108.469 36.0133 109.109 36.6C109.759 37.1867 110.085 38.024 110.085 39.112C110.085 40.1893 109.759 41.0267 109.109 41.624C108.469 42.2107 107.541 42.504 106.325 42.504H103.173V47H101.861ZM103.173 41.4H106.165C107.914 41.4 108.789 40.6373 108.789 39.112C108.789 37.576 107.914 36.808 106.165 36.808H103.173V41.4ZM112.154 47V39.224H113.418V40.616C113.834 39.6773 114.687 39.16 115.978 39.064L116.442 39.016L116.538 40.136L115.722 40.232C114.986 40.296 114.426 40.5307 114.042 40.936C113.658 41.3307 113.466 41.8747 113.466 42.568V47H112.154ZM121.798 47.144C120.571 47.144 119.601 46.7867 118.886 46.072C118.171 45.3467 117.814 44.3653 117.814 43.128C117.814 42.328 117.974 41.624 118.294 41.016C118.614 40.3973 119.051 39.9227 119.606 39.592C120.171 39.2507 120.822 39.08 121.558 39.08C122.614 39.08 123.441 39.4213 124.038 40.104C124.635 40.776 124.934 41.704 124.934 42.888V43.384H119.078C119.121 44.2693 119.377 44.9467 119.846 45.416C120.315 45.8747 120.966 46.104 121.798 46.104C122.267 46.104 122.715 46.0347 123.142 45.896C123.569 45.7467 123.974 45.5067 124.358 45.176L124.806 46.088C124.454 46.4187 124.006 46.68 123.462 46.872C122.918 47.0533 122.363 47.144 121.798 47.144ZM121.59 40.04C120.854 40.04 120.273 40.2693 119.846 40.728C119.419 41.1867 119.169 41.7893 119.094 42.536H123.814C123.782 41.7467 123.574 41.1333 123.19 40.696C122.817 40.2587 122.283 40.04 121.59 40.04ZM129.504 47L126.16 39.224H127.568L130.144 45.528L132.752 39.224H134.08L130.72 47H129.504ZM135.79 37.288V35.832H137.39V37.288H135.79ZM135.95 47V39.224H137.246V47H135.95ZM143.673 47.144C142.446 47.144 141.476 46.7867 140.761 46.072C140.046 45.3467 139.689 44.3653 139.689 43.128C139.689 42.328 139.849 41.624 140.169 41.016C140.489 40.3973 140.926 39.9227 141.481 39.592C142.046 39.2507 142.697 39.08 143.433 39.08C144.489 39.08 145.316 39.4213 145.913 40.104C146.51 40.776 146.809 41.704 146.809 42.888V43.384H140.953C140.996 44.2693 141.252 44.9467 141.721 45.416C142.19 45.8747 142.841 46.104 143.673 46.104C144.142 46.104 144.59 46.0347 145.017 45.896C145.444 45.7467 145.849 45.5067 146.233 45.176L146.681 46.088C146.329 46.4187 145.881 46.68 145.337 46.872C144.793 47.0533 144.238 47.144 143.673 47.144ZM143.465 40.04C142.729 40.04 142.148 40.2693 141.721 40.728C141.294 41.1867 141.044 41.7893 140.969 42.536H145.689C145.657 41.7467 145.449 41.1333 145.065 40.696C144.692 40.2587 144.158 40.04 143.465 40.04ZM151.155 47L148.259 39.224H149.619L151.811 45.48L154.083 39.224H155.187L157.427 45.496L159.651 39.224H160.947L158.035 47H156.803L154.611 40.968L152.403 47H151.155ZM166.742 47L171.718 35.72H172.838L177.814 47H176.454L175.206 44.12H169.334L168.102 47H166.742ZM172.262 37.256L169.814 43.016H174.742L172.294 37.256H172.262ZM179.81 49.88V39.224H181.074V40.616C181.308 40.136 181.655 39.7627 182.114 39.496C182.583 39.2187 183.127 39.08 183.746 39.08C184.439 39.08 185.042 39.2453 185.554 39.576C186.076 39.896 186.476 40.36 186.754 40.968C187.042 41.5653 187.186 42.28 187.186 43.112C187.186 43.9333 187.042 44.648 186.754 45.256C186.476 45.8533 186.076 46.3173 185.554 46.648C185.042 46.9787 184.439 47.144 183.746 47.144C183.148 47.144 182.615 47.0107 182.146 46.744C181.676 46.4773 181.33 46.1093 181.106 45.64V49.88H179.81ZM183.474 46.104C184.199 46.104 184.78 45.848 185.218 45.336C185.655 44.8133 185.874 44.072 185.874 43.112C185.874 42.1413 185.655 41.4 185.218 40.888C184.78 40.376 184.199 40.12 183.474 40.12C182.748 40.12 182.167 40.376 181.73 40.888C181.292 41.4 181.074 42.1413 181.074 43.112C181.074 44.072 181.292 44.8133 181.73 45.336C182.167 45.848 182.748 46.104 183.474 46.104ZM189.638 49.88V39.224H190.902V40.616C191.137 40.136 191.483 39.7627 191.942 39.496C192.411 39.2187 192.955 39.08 193.574 39.08C194.267 39.08 194.87 39.2453 195.382 39.576C195.905 39.896 196.305 40.36 196.582 40.968C196.87 41.5653 197.014 42.28 197.014 43.112C197.014 43.9333 196.87 44.648 196.582 45.256C196.305 45.8533 195.905 46.3173 195.382 46.648C194.87 46.9787 194.267 47.144 193.574 47.144C192.977 47.144 192.443 47.0107 191.974 46.744C191.505 46.4773 191.158 46.1093 190.934 45.64V49.88H189.638ZM193.302 46.104C194.027 46.104 194.609 45.848 195.046 45.336C195.483 44.8133 195.702 44.072 195.702 43.112C195.702 42.1413 195.483 41.4 195.046 40.888C194.609 40.376 194.027 40.12 193.302 40.12C192.577 40.12 191.995 40.376 191.558 40.888C191.121 41.4 190.902 42.1413 190.902 43.112C190.902 44.072 191.121 44.8133 191.558 45.336C191.995 45.848 192.577 46.104 193.302 46.104ZM201.85 47.144C201.061 47.144 200.463 46.9147 200.058 46.456C199.663 45.9867 199.466 45.3093 199.466 44.424V35.72H200.762V44.328C200.762 45.4693 201.215 46.04 202.122 46.04C202.389 46.04 202.629 46.008 202.842 45.944L202.81 47.032C202.479 47.1067 202.159 47.144 201.85 47.144ZM204.54 37.288V35.832H206.14V37.288H204.54ZM204.7 47V39.224H205.996V47H204.7ZM212.215 47.144C211.436 47.144 210.764 46.9787 210.199 46.648C209.634 46.3067 209.196 45.832 208.887 45.224C208.588 44.6053 208.439 43.8853 208.439 43.064C208.439 41.8267 208.775 40.856 209.447 40.152C210.119 39.4373 211.042 39.08 212.215 39.08C212.695 39.08 213.17 39.1653 213.639 39.336C214.108 39.5067 214.498 39.7467 214.807 40.056L214.359 41C214.05 40.7013 213.708 40.4827 213.335 40.344C212.972 40.2053 212.626 40.136 212.295 40.136C211.484 40.136 210.86 40.392 210.423 40.904C209.986 41.4053 209.767 42.1307 209.767 43.08C209.767 44.008 209.986 44.744 210.423 45.288C210.86 45.8213 211.484 46.088 212.295 46.088C212.626 46.088 212.972 46.0187 213.335 45.88C213.708 45.7413 214.05 45.5173 214.359 45.208L214.807 46.152C214.498 46.4613 214.103 46.7067 213.623 46.888C213.154 47.0587 212.684 47.144 212.215 47.144ZM219.211 47.144C218.678 47.144 218.198 47.0427 217.771 46.84C217.355 46.6267 217.024 46.3387 216.779 45.976C216.534 45.6133 216.411 45.208 216.411 44.76C216.411 44.1947 216.555 43.7467 216.843 43.416C217.142 43.0853 217.627 42.8507 218.299 42.712C218.982 42.5627 219.91 42.488 221.083 42.488H221.595V41.992C221.595 41.3307 221.456 40.856 221.179 40.568C220.912 40.2693 220.48 40.12 219.883 40.12C219.414 40.12 218.96 40.1893 218.523 40.328C218.086 40.456 217.638 40.6693 217.179 40.968L216.731 40.024C217.136 39.736 217.627 39.5067 218.203 39.336C218.79 39.1653 219.35 39.08 219.883 39.08C220.886 39.08 221.627 39.3253 222.107 39.816C222.598 40.3067 222.843 41.0693 222.843 42.104V47H221.627V45.656C221.424 46.1147 221.11 46.4773 220.683 46.744C220.267 47.0107 219.776 47.144 219.211 47.144ZM219.419 46.168C220.059 46.168 220.582 45.9493 220.987 45.512C221.392 45.064 221.595 44.4987 221.595 43.816V43.336H221.099C220.235 43.336 219.552 43.3787 219.051 43.464C218.56 43.5387 218.214 43.6773 218.011 43.88C217.819 44.072 217.723 44.3387 217.723 44.68C217.723 45.1173 217.872 45.4747 218.171 45.752C218.48 46.0293 218.896 46.168 219.419 46.168ZM228.867 47.144C227.95 47.144 227.262 46.904 226.803 46.424C226.345 45.9333 226.115 45.2293 226.115 44.312V40.232H224.595V39.224H226.115V36.84H227.411V39.224H229.875V40.232H227.411V44.184C227.411 44.792 227.539 45.256 227.795 45.576C228.051 45.8853 228.467 46.04 229.043 46.04C229.214 46.04 229.385 46.0187 229.555 45.976C229.726 45.9333 229.881 45.8907 230.019 45.848L230.243 46.84C230.105 46.9147 229.902 46.984 229.635 47.048C229.369 47.112 229.113 47.144 228.867 47.144ZM231.681 37.288V35.832H233.281V37.288H231.681ZM231.841 47V39.224H233.137V47H231.841ZM239.292 47.144C238.534 47.144 237.878 46.9787 237.324 46.648C236.769 46.3173 236.337 45.8533 236.028 45.256C235.729 44.648 235.58 43.9333 235.58 43.112C235.58 42.2907 235.729 41.5813 236.028 40.984C236.337 40.376 236.769 39.9067 237.324 39.576C237.878 39.2453 238.534 39.08 239.292 39.08C240.038 39.08 240.689 39.2453 241.244 39.576C241.809 39.9067 242.241 40.376 242.54 40.984C242.849 41.5813 243.004 42.2907 243.004 43.112C243.004 43.9333 242.849 44.648 242.54 45.256C242.241 45.8533 241.809 46.3173 241.244 46.648C240.689 46.9787 240.038 47.144 239.292 47.144ZM239.292 46.104C240.017 46.104 240.598 45.848 241.036 45.336C241.473 44.8133 241.692 44.072 241.692 43.112C241.692 42.1413 241.473 41.4 241.036 40.888C240.598 40.376 240.017 40.12 239.292 40.12C238.556 40.12 237.969 40.376 237.532 40.888C237.105 41.4 236.892 42.1413 236.892 43.112C236.892 44.072 237.105 44.8133 237.532 45.336C237.969 45.848 238.556 46.104 239.292 46.104ZM245.45 47V39.224H246.714V40.552C246.97 40.0613 247.333 39.6933 247.802 39.448C248.272 39.2027 248.8 39.08 249.386 39.08C251.232 39.08 252.154 40.104 252.154 42.152V47H250.858V42.232C250.858 41.5067 250.714 40.9787 250.426 40.648C250.149 40.3067 249.701 40.136 249.082 40.136C248.368 40.136 247.797 40.36 247.37 40.808C246.954 41.2453 246.746 41.832 246.746 42.568V47H245.45Z" fill="#4B4B5E"/>
<defs>
<clipPath id="clip0_2268_11524">
<rect width="48" height="48" fill="white" transform="translate(0 3)"/>
</clipPath>
</defs>
</svg>
