<svg width="24" height="25" viewBox="0 0 24 25" fill="none" xmlns="http://www.w3.org/2000/svg">
<mask id="mask0_771_2812" style="mask-type:alpha" maskUnits="userSpaceOnUse" x="0" y="0" width="24" height="25">
<rect y="0.5" width="24" height="24" fill="#D9D9D9"/>
</mask>
<g mask="url(#mask0_771_2812)">
<mask id="mask1_771_2812" style="mask-type:alpha" maskUnits="userSpaceOnUse" x="0" y="0" width="24" height="25">
<rect y="0.5" width="24" height="24" fill="#D9D9D9"/>
</mask>
<g mask="url(#mask1_771_2812)">
<path d="M12.0016 22C10.6877 22 9.45268 21.7506 8.29655 21.252C7.1404 20.7533 6.13472 20.0765 5.2795 19.2217C4.42427 18.3669 3.74721 17.3616 3.24833 16.206C2.74944 15.0504 2.5 13.8156 2.5 12.5017C2.5 11.1877 2.74933 9.95268 3.248 8.79655C3.74667 7.6404 4.42342 6.63472 5.27825 5.7795C6.1331 4.92427 7.13834 4.24721 8.29398 3.74833C9.44959 3.24944 10.6844 3 11.9983 3C13.3122 3 14.5473 3.24933 15.7034 3.748C16.8596 4.24667 17.8652 4.92342 18.7205 5.77825C19.5757 6.6331 20.2527 7.63834 20.7516 8.79398C21.2505 9.94959 21.5 11.1844 21.5 12.4983C21.5 13.8122 21.2506 15.0473 20.752 16.2034C20.2533 17.3596 19.5765 18.3652 18.7217 19.2205C17.8669 20.0757 16.8616 20.7527 15.706 21.2516C14.5504 21.7505 13.3156 22 12.0016 22ZM12 20.5C14.2333 20.5 16.125 19.725 17.675 18.175C19.225 16.625 20 14.7333 20 12.5C20 10.2666 19.225 8.37498 17.675 6.82498C16.125 5.27498 14.2333 4.49998 12 4.49998C9.76664 4.49998 7.87498 5.27498 6.32498 6.82498C4.77498 8.37498 3.99998 10.2666 3.99998 12.5C3.99998 14.7333 4.77498 16.625 6.32498 18.175C7.87498 19.725 9.76664 20.5 12 20.5ZM9.99998 16.25H14C14.2125 16.25 14.3906 16.1781 14.5344 16.0343C14.6781 15.8906 14.75 15.7125 14.75 15.5V14.5C14.75 14.2875 14.6781 14.1094 14.5343 13.9656C14.3904 13.8219 14.2122 13.75 13.9997 13.75C13.7871 13.75 13.609 13.8219 13.4654 13.9656C13.3218 14.1094 13.25 14.2875 13.25 14.5V14.75H10.75V10.25H13.25V10.5C13.25 10.7125 13.3219 10.8906 13.4657 11.0344C13.6095 11.1781 13.7877 11.25 14.0003 11.25C14.2129 11.25 14.391 11.1781 14.5346 11.0344C14.6782 10.8906 14.75 10.7125 14.75 10.5V9.49998C14.75 9.28748 14.6781 9.10935 14.5344 8.9656C14.3906 8.82187 14.2125 8.75 14 8.75H9.99998C9.78748 8.75 9.60936 8.82187 9.46563 8.9656C9.32188 9.10935 9.25 9.28748 9.25 9.49998V15.5C9.25 15.7125 9.32188 15.8906 9.46563 16.0343C9.60936 16.1781 9.78748 16.25 9.99998 16.25Z" fill="white"/>
</g>
</g>
</svg>
