<svg width="48" height="48" fill="none" xmlns="http://www.w3.org/2000/svg">
  <path d="M48 24c0 13.255-10.745 24-24 24S0 37.255 0 24 10.745 0 24 0s24 10.745 24 24Z" class='fbbg' fill='currentColor'/>
  <path d="M20.16 31.2v16.32c0 .265.215.48.48.48h6.72a.48.48 0 0 0 .48-.48V31.2a.48.48 0 0 1 .48-.48h4.8a.48.48 0 0 0 .48-.48v-5.76a.48.48 0 0 0-.48-.48h-4.8a.48.48 0 0 1-.48-.48V19.2c0-1.92 2.4-2.88 3.36-2.88h2.88a.48.48 0 0 0 .48-.48v-5.76a.48.48 0 0 0-.48-.48h-6.24c-4.608 0-7.68 4.8-7.68 7.68v6.24a.48.48 0 0 1-.48.48h-4.8a.48.48 0 0 0-.48.48v5.76c0 .265.215.48.48.48h4.8a.48.48 0 0 1 .48.48Z" fill="#fff"/>
</svg>
