<svg width="60" height="36" viewBox="0 0 60 36" fill="none" xmlns="http://www.w3.org/2000/svg">
<path d="M24.409 31.4491C19.9772 31.4491 15.5454 31.4491 11.1136 31.4491C9.34084 31.4491 8.31812 30.4982 8.31812 28.7322C8.31812 21.6001 8.31812 14.4001 8.31812 7.26801C8.31812 5.56989 9.34084 4.55103 11.0454 4.55103C19.9772 4.55103 28.909 4.55103 37.8408 4.55103C38.3181 4.55103 38.5908 4.68687 38.8636 5.09442C41.1136 9.23782 43.4318 13.3133 45.7499 17.4567C45.9545 17.8642 45.9545 18.1359 45.7499 18.5435C43.4318 22.6869 41.1136 26.8303 38.7954 30.9737C38.5908 31.3812 38.3863 31.5171 37.909 31.5171C33.4772 31.4491 28.9772 31.4491 24.409 31.4491ZM14.7272 15.5548C14.7954 15.5548 14.7954 15.4869 14.8636 15.4869C14.9999 15.6906 15.0681 15.8265 15.2045 16.0303C16.6363 18.2718 18.0681 20.5133 19.3636 22.7548C19.9772 23.7737 20.5908 24.2491 21.8181 24.1133C22.4318 24.0454 22.6363 23.9095 22.6363 23.2982C22.6363 19.9699 22.6363 16.5737 22.6363 13.2454C22.6363 11.6831 22.8408 11.9548 21.2727 11.8869C20.659 11.8869 20.4545 12.0906 20.4545 12.702C20.4545 15.0793 20.4545 17.4567 20.4545 19.834C20.4545 20.0378 20.4545 20.2416 20.4545 20.5133C20.1818 20.3095 20.0454 20.1737 19.909 19.9699C18.409 17.6605 17.0454 15.419 15.6818 13.2454C14.8636 11.8869 14.8636 11.9548 13.2954 11.9548C12.7499 11.9548 12.6136 12.1586 12.6136 12.634C12.6136 16.234 12.6136 19.834 12.6136 23.434C12.6136 23.6378 12.6136 23.8416 12.6818 24.1133C12.9545 24.1133 13.159 24.1133 13.4318 24.1133C14.7954 24.1133 14.7954 24.1133 14.7954 22.8227C14.7272 20.3774 14.7272 18.0001 14.7272 15.5548ZM28.8408 24.1133C29.3863 24.1133 29.8636 24.1133 30.3408 24.1133C30.8863 24.1812 31.0227 23.9774 31.0227 23.434C31.0227 22.0756 31.0227 20.6491 31.0227 19.2906C31.0227 18.8152 31.159 18.6793 31.6363 18.6793C33.0681 18.6793 34.4999 18.6793 35.8636 18.6793C36.2727 18.6793 36.409 18.8152 36.409 19.2227C36.409 20.3095 36.409 21.4642 36.409 22.551C36.409 24.1133 36.409 24.1133 37.9772 24.1133C38.5908 24.1133 38.7272 23.9095 38.659 23.3661C38.659 19.9699 38.659 16.5737 38.659 13.1774C38.659 11.751 38.9318 11.8869 37.3636 11.8869C36.409 11.8869 36.409 11.8869 36.409 12.8378C36.409 14.1284 36.409 15.351 36.409 16.7095C34.7727 16.7095 33.2727 16.7095 31.7045 16.7095C31.159 16.7095 30.9545 16.5737 31.0227 16.0303C31.0908 14.8076 31.0227 13.6529 31.0227 12.4303C31.0227 12.2265 30.8181 11.8869 30.6818 11.8869C30.0681 11.819 29.5227 11.8869 28.8408 11.8869C28.8408 16.0303 28.8408 20.0378 28.8408 24.1133ZM26.7954 18.0001C26.7954 16.4378 26.7954 14.9435 26.7954 13.3812C26.7954 11.6831 26.9999 11.9548 25.3636 11.8869C24.5454 11.8869 24.5454 11.8869 24.5454 12.7699C24.5454 16.0303 24.5454 19.2227 24.5454 22.4831C24.5454 24.1133 24.5454 24.1133 26.1818 24.1133C26.7272 24.1133 26.8636 23.9095 26.8636 23.434C26.7954 21.6001 26.7954 19.834 26.7954 18.0001Z" fill="#E00D3A"/>
<path d="M40.5681 31.4489C41.3181 30.1584 41.9999 28.9357 42.6136 27.7131C44.3181 24.5886 46.0908 21.532 47.7954 18.4754C47.9999 18.0678 47.9318 17.7961 47.7272 17.4565C45.4772 13.4489 43.2272 9.37347 40.9772 5.298C40.8408 5.09423 40.7727 4.82253 40.6363 4.61876C42.7499 4.21121 44.3863 4.82253 45.3408 6.58857C47.3181 10.2565 49.3636 13.8565 51.409 17.4565C51.6136 17.7961 51.6136 18.0678 51.409 18.4074C49.2954 22.1433 47.1818 25.9471 45.0681 29.6829C44.4545 30.8376 43.3636 31.381 42.1363 31.381C41.7272 31.4489 41.1818 31.4489 40.5681 31.4489Z" fill="#E00D3A"/>
</svg>
