<svg width="48" height="48" viewBox="0 0 48 48" fill="none" xmlns="http://www.w3.org/2000/svg">
<rect width="48" height="48" rx="24" fill="#E00D3A"/>
<path d="M21.6 27.4988V20.5013L27.84 24.0001L21.6 27.4988Z" fill="#E00D3A"/>
<path d="M35.4937 18.388C35.3571 17.8951 35.0897 17.4457 34.7181 17.0848C34.3466 16.7238 33.884 16.464 33.3766 16.3314C31.5082 15.8401 24 15.8401 24 15.8401C24 15.8401 16.4918 15.8401 14.6234 16.3314C14.116 16.464 13.6534 16.7238 13.2819 17.0848C12.9103 17.4457 12.6429 17.8951 12.5063 18.388C12.1574 20.2392 11.9881 22.1181 12.0006 24.0001C11.9881 25.882 12.1574 27.761 12.5063 29.6122C12.6429 30.1051 12.9103 30.5545 13.2819 30.9154C13.6534 31.2763 14.116 31.5361 14.6234 31.6688C16.4918 32.1601 24 32.1601 24 32.1601C24 32.1601 31.5082 32.1601 33.3766 31.6688C33.884 31.5361 34.3466 31.2763 34.7181 30.9154C35.0897 30.5545 35.3571 30.1051 35.4937 29.6122C35.8426 27.761 36.0119 25.882 35.9994 24.0001C36.0119 22.1181 35.8426 20.2392 35.4937 18.388ZM21.6001 27.4972V20.5029L27.8312 24.0001L21.6001 27.4972Z" fill="white"/>
</svg>
