<svg width="24" height="24" viewBox="0 0 24 24" fill="none" xmlns="http://www.w3.org/2000/svg">
<path d="M20.5 5.81104V7.5C20.5 9.05306 16.8062 10.311 12.25 10.311C7.69379 10.311 4 9.05306 4 7.5V5.81104C4 4.25798 7.69379 3 12.25 3C16.8062 3 20.5 4.25798 20.5 5.81104ZM18.4822 10.5479C19.2064 10.3188 19.8898 9.97714 20.5 9.54228V13.126C20.5 14.679 16.8062 15.937 12.25 15.937C7.69379 15.937 4 14.679 4 13.126V9.54228C4.61021 9.97714 5.29364 10.3188 6.01775 10.5479C8.03143 11.1691 10.1346 11.472 12.25 11.437C14.3654 11.4681 16.4686 11.1691 18.4822 10.5479ZM4 15.1682C4.61021 15.6031 5.29364 15.9448 6.01775 16.1739C8.03143 16.7951 10.1346 17.0979 12.25 17.063C14.3654 17.094 16.4686 16.7951 18.4822 16.1739C19.2064 15.9448 19.8898 15.6031 20.5 15.1682V18.189C20.5 19.742 16.8062 21 12.25 21C7.69379 21 4 19.742 4 18.189V15.1682Z" fill="white"/>
</svg>
