<svg width="24" height="24" viewBox="0 0 24 24" fill="none" xmlns="http://www.w3.org/2000/svg">
<path d="M3.50943 6.15962C3.50943 5.81139 3.4959 5.45978 3.50943 5.11156C3.53648 4.45567 3.95571 4.03306 4.61499 4.01616C5.31485 3.99925 6.0147 3.99925 6.71117 4.01616C7.36707 4.03306 7.79645 4.46581 7.81336 5.11832C7.83026 5.8283 7.83026 6.54166 7.81336 7.25164C7.79645 7.90415 7.36369 8.33352 6.70779 8.34704C6.00794 8.36394 5.30808 8.36394 4.61161 8.34704C3.95233 8.33013 3.53648 7.90415 3.50943 7.24488C3.4959 6.88313 3.50943 6.52138 3.50943 6.15962Z" fill="white"/>
<path d="M13.6049 6.20009C13.6049 6.53818 13.6117 6.87627 13.6049 7.21097C13.5847 7.88714 13.1654 8.32666 12.496 8.34356C11.7961 8.36046 11.0963 8.36046 10.3998 8.34356C9.74053 8.32666 9.31791 7.90067 9.30101 7.2414C9.2841 6.53142 9.2841 5.81806 9.30101 5.10808C9.31791 4.45219 9.74729 4.02958 10.4066 4.01268C11.1064 3.99577 11.8063 3.99577 12.5028 4.01268C13.1587 4.02958 13.5813 4.46233 13.6049 5.11484C13.6185 5.47659 13.6049 5.83834 13.6049 6.20009Z" fill="white"/>
<path d="M7.8179 11.9778C7.8179 12.326 7.82805 12.6776 7.8179 13.0258C7.79424 13.6784 7.37162 14.1111 6.71572 14.128C6.01587 14.1449 5.31939 14.1449 4.61954 14.128C3.96026 14.1111 3.53088 13.6885 3.51398 13.0326C3.49369 12.3226 3.49707 11.6093 3.51398 10.8993C3.53088 10.2265 3.96702 9.80727 4.64997 9.79713C5.32615 9.7836 5.99896 9.78699 6.67515 9.79713C7.36824 9.80727 7.801 10.24 7.82128 10.9297C7.83143 11.2779 7.82128 11.6296 7.82128 11.9778H7.8179Z" fill="white"/>
<path d="M13.605 11.9815C13.605 12.3298 13.6151 12.6814 13.605 13.0296C13.5813 13.6821 13.1553 14.1149 12.5028 14.1284C11.8029 14.1453 11.1031 14.1453 10.4066 14.1284C9.74733 14.1115 9.32133 13.6889 9.30443 13.033C9.28752 12.323 9.28752 11.6096 9.30443 10.8997C9.32133 10.2404 9.74733 9.81779 10.4032 9.80089C11.1031 9.78398 11.7996 9.78398 12.4994 9.80089C13.1688 9.81779 13.5881 10.2573 13.6084 10.9335C13.6185 11.2817 13.6084 11.6333 13.6084 11.9815H13.605Z" fill="white"/>
<path d="M15.3395 6.15962C15.3395 5.81139 15.326 5.45978 15.3395 5.11156C15.3666 4.45567 15.7858 4.03306 16.4451 4.01616C17.1449 3.99925 17.8448 3.99925 18.5412 4.01616C19.1972 4.03306 19.6265 4.46581 19.6434 5.11832C19.6603 5.8283 19.6603 6.54166 19.6434 7.25164C19.6265 7.90415 19.1938 8.33352 18.5379 8.34704C17.838 8.36394 17.1382 8.36394 16.4417 8.34704C15.7824 8.33013 15.3666 7.90415 15.3395 7.24488C15.326 6.88313 15.3395 6.52138 15.3395 6.15962Z" fill="white"/>
<path d="M19.648 11.9778C19.648 12.326 19.6581 12.6776 19.648 13.0258C19.6243 13.6784 19.2017 14.1111 18.5458 14.128C17.8459 14.1449 17.1495 14.1449 16.4496 14.128C15.7903 14.1111 15.361 13.6885 15.3441 13.0326C15.3238 12.3226 15.3271 11.6093 15.3441 10.8993C15.361 10.2265 15.7971 9.80727 16.48 9.79713C17.1562 9.7836 17.829 9.78699 18.5052 9.79713C19.1983 9.80727 19.6311 10.24 19.6514 10.9297C19.6615 11.2779 19.6514 11.6296 19.6514 11.9778H19.648Z" fill="white"/>
<path d="M7.8179 17.8372C7.8179 18.1854 7.82805 18.537 7.8179 18.8852C7.79424 19.5377 7.37162 19.9705 6.71572 19.9874C6.01587 20.0043 5.31939 20.0043 4.61954 19.9874C3.96026 19.9705 3.53088 19.5479 3.51398 18.892C3.49369 18.182 3.49707 17.4686 3.51398 16.7587C3.53088 16.0859 3.96702 15.6666 4.64997 15.6565C5.32615 15.643 5.99896 15.6464 6.67515 15.6565C7.36824 15.6666 7.801 16.0994 7.82128 16.7891C7.83143 17.1373 7.82128 17.4889 7.82128 17.8372H7.8179Z" fill="white"/>
<path d="M13.605 17.8401C13.605 18.1883 13.6151 18.5399 13.605 18.8881C13.5813 19.5406 13.1553 19.9734 12.5028 19.9869C11.8029 20.0038 11.1031 20.0038 10.4066 19.9869C9.74733 19.97 9.32133 19.5474 9.30443 18.8915C9.28752 18.1815 9.28752 17.4682 9.30443 16.7582C9.32133 16.0989 9.74733 15.6763 10.4032 15.6594C11.1031 15.6425 11.7996 15.6425 12.4994 15.6594C13.1688 15.6763 13.5881 16.1158 13.6084 16.792C13.6185 17.1402 13.6084 17.4918 13.6084 17.8401H13.605Z" fill="white"/>
<path d="M19.648 17.8372C19.648 18.1854 19.6581 18.537 19.648 18.8852C19.6243 19.5377 19.2017 19.9705 18.5458 19.9874C17.8459 20.0043 17.1495 20.0043 16.4496 19.9874C15.7903 19.9705 15.361 19.5479 15.3441 18.892C15.3238 18.182 15.3271 17.4686 15.3441 16.7587C15.361 16.0859 15.7971 15.6666 16.48 15.6565C17.1562 15.643 17.829 15.6464 18.5052 15.6565C19.1983 15.6666 19.6311 16.0994 19.6514 16.7891C19.6615 17.1373 19.6514 17.4889 19.6514 17.8372H19.648Z" fill="white"/>
</svg>
