<?xml version="1.0" encoding="UTF-8" standalone="no"?>
<!DOCTYPE svg PUBLIC "-//W3C//DTD SVG 1.1//EN"
 "http://www.w3.org/Graphics/SVG/1.1/DTD/svg11.dtd">
<!-- Generated by graphviz version 2.47.0 (20210316.0004)
 -->
<!-- Title: dependencies Pages: 1 -->
<svg width="526pt" height="284pt"
 viewBox="0.00 0.00 526.00 284.00" xmlns="http://www.w3.org/2000/svg" xmlns:xlink="http://www.w3.org/1999/xlink">
<g id="graph0" class="graph" transform="scale(1 1) rotate(0) translate(4 280)">
<title>dependencies</title>
<polygon fill="white" stroke="transparent" points="-4,4 -4,-280 522,-280 522,4 -4,4"/>
<text text-anchor="start" x="238.01" y="-42.4" font-family="Times-12" font-weight="bold" font-size="14.00">Legend</text>
<polygon fill="#ffffb3" stroke="transparent" points="25,-10 25,-30 45,-30 45,-10 25,-10"/>
<text text-anchor="start" x="48.63" y="-15.4" font-family="Times-12" font-size="14.00"> &#160;Declarations</text>
<polygon fill="#8dd3c7" stroke="transparent" points="138,-10 138,-30 158,-30 158,-10 138,-10"/>
<text text-anchor="start" x="161.73" y="-15.4" font-family="Times-12" font-size="14.00"> &#160;Module</text>
<polygon fill="#80b1d3" stroke="transparent" points="224,-10 224,-30 244,-30 244,-10 224,-10"/>
<text text-anchor="start" x="247.78" y="-15.4" font-family="Times-12" font-size="14.00"> &#160;Bootstrap</text>
<polygon fill="#fdb462" stroke="transparent" points="321,-10 321,-30 341,-30 341,-10 321,-10"/>
<text text-anchor="start" x="344.67" y="-15.4" font-family="Times-12" font-size="14.00"> &#160;Providers</text>
<polygon fill="#fb8072" stroke="transparent" points="417,-10 417,-30 437,-30 437,-10 417,-10"/>
<text text-anchor="start" x="440.73" y="-15.4" font-family="Times-12" font-size="14.00"> &#160;Exports</text>
<g id="clust1" class="cluster">
<title>cluster_ContentTemplatesModule</title>
<polygon fill="none" stroke="black" stroke-dasharray="1,5" points="8,-70 8,-268 510,-268 510,-70 8,-70"/>
</g>
<g id="clust3" class="cluster">
<title>cluster_ContentTemplatesModule_imports</title>
<polygon fill="none" stroke="black" points="20,-78 20,-130 498,-130 498,-78 20,-78"/>
</g>
<g id="clust4" class="cluster">
<title>cluster_ContentTemplatesModule_exports</title>
<polygon fill="none" stroke="black" points="16,-208 16,-260 502,-260 502,-208 16,-208"/>
</g>
<!-- AppLabelComponent -->
<g id="node1" class="node">
<title>AppLabelComponent</title>
<polygon fill="#8dd3c7" stroke="black" points="489.81,-122 486.81,-126 465.81,-126 462.81,-122 352.19,-122 352.19,-86 489.81,-86 489.81,-122"/>
<text text-anchor="middle" x="421" y="-99.8" font-family="Times,serif" font-size="14.00">AppLabelComponent</text>
</g>
<!-- ContentTemplatesModule -->
<g id="node4" class="node">
<title>ContentTemplatesModule</title>
<polygon fill="#8dd3c7" stroke="black" points="340.2,-187 337.2,-191 316.2,-191 313.2,-187 177.8,-187 177.8,-151 340.2,-151 340.2,-187"/>
<text text-anchor="middle" x="259" y="-164.8" font-family="Times,serif" font-size="14.00">ContentTemplatesModule</text>
</g>
<!-- AppLabelComponent&#45;&gt;ContentTemplatesModule -->
<g id="edge1" class="edge">
<title>AppLabelComponent&#45;&gt;ContentTemplatesModule</title>
<path fill="none" stroke="black" d="M444.3,-122.02C444.3,-139.37 444.3,-163 444.3,-163 444.3,-163 350.28,-163 350.28,-163"/>
<polygon fill="black" stroke="black" points="350.28,-159.5 340.28,-163 350.28,-166.5 350.28,-159.5"/>
</g>
<!-- PageSectionComponent -->
<g id="node2" class="node">
<title>PageSectionComponent</title>
<polygon fill="#8dd3c7" stroke="black" points="334.04,-122 331.04,-126 310.04,-126 307.04,-122 183.96,-122 183.96,-86 334.04,-86 334.04,-122"/>
<text text-anchor="middle" x="259" y="-99.8" font-family="Times,serif" font-size="14.00">PageSectionComponent</text>
</g>
<!-- PageSectionComponent&#45;&gt;ContentTemplatesModule -->
<g id="edge2" class="edge">
<title>PageSectionComponent&#45;&gt;ContentTemplatesModule</title>
<path fill="none" stroke="black" d="M259,-122.11C259,-122.11 259,-140.99 259,-140.99"/>
<polygon fill="black" stroke="black" points="255.5,-140.99 259,-150.99 262.5,-140.99 255.5,-140.99"/>
</g>
<!-- UiSectionComponent -->
<g id="node3" class="node">
<title>UiSectionComponent</title>
<polygon fill="#8dd3c7" stroke="black" points="165.82,-122 162.82,-126 141.82,-126 138.82,-122 28.18,-122 28.18,-86 165.82,-86 165.82,-122"/>
<text text-anchor="middle" x="97" y="-99.8" font-family="Times,serif" font-size="14.00">UiSectionComponent</text>
</g>
<!-- UiSectionComponent&#45;&gt;ContentTemplatesModule -->
<g id="edge3" class="edge">
<title>UiSectionComponent&#45;&gt;ContentTemplatesModule</title>
<path fill="none" stroke="black" d="M119.05,-122.02C119.05,-139.37 119.05,-163 119.05,-163 119.05,-163 167.59,-163 167.59,-163"/>
<polygon fill="black" stroke="black" points="167.59,-166.5 177.59,-163 167.59,-159.5 167.59,-166.5"/>
</g>
<!-- AppLabelComponent  -->
<g id="node5" class="node">
<title>AppLabelComponent </title>
<polygon fill="#fb8072" stroke="black" points="494.31,-252 353.69,-252 353.69,-216 494.31,-216 494.31,-252"/>
<text text-anchor="middle" x="424" y="-229.8" font-family="Times,serif" font-size="14.00">AppLabelComponent </text>
</g>
<!-- ContentTemplatesModule&#45;&gt;AppLabelComponent  -->
<g id="edge4" class="edge">
<title>ContentTemplatesModule&#45;&gt;AppLabelComponent </title>
<path fill="none" stroke="black" stroke-dasharray="5,2" d="M340.41,-175C371.2,-175 398.95,-175 398.95,-175 398.95,-175 398.95,-205.98 398.95,-205.98"/>
<polygon fill="black" stroke="black" points="395.45,-205.98 398.95,-215.98 402.45,-205.98 395.45,-205.98"/>
</g>
<!-- PageSectionComponent  -->
<g id="node6" class="node">
<title>PageSectionComponent </title>
<polygon fill="#fb8072" stroke="black" points="336.04,-252 181.96,-252 181.96,-216 336.04,-216 336.04,-252"/>
<text text-anchor="middle" x="259" y="-229.8" font-family="Times,serif" font-size="14.00">PageSectionComponent </text>
</g>
<!-- ContentTemplatesModule&#45;&gt;PageSectionComponent  -->
<g id="edge5" class="edge">
<title>ContentTemplatesModule&#45;&gt;PageSectionComponent </title>
<path fill="none" stroke="black" stroke-dasharray="5,2" d="M259,-187.11C259,-187.11 259,-205.99 259,-205.99"/>
<polygon fill="black" stroke="black" points="255.5,-205.99 259,-215.99 262.5,-205.99 255.5,-205.99"/>
</g>
<!-- UiSectionComponent  -->
<g id="node7" class="node">
<title>UiSectionComponent </title>
<polygon fill="#fb8072" stroke="black" points="164.32,-252 23.68,-252 23.68,-216 164.32,-216 164.32,-252"/>
<text text-anchor="middle" x="94" y="-229.8" font-family="Times,serif" font-size="14.00">UiSectionComponent </text>
</g>
<!-- ContentTemplatesModule&#45;&gt;UiSectionComponent  -->
<g id="edge6" class="edge">
<title>ContentTemplatesModule&#45;&gt;UiSectionComponent </title>
<path fill="none" stroke="black" stroke-dasharray="5,2" d="M177.72,-175C127.93,-175 73.7,-175 73.7,-175 73.7,-175 73.7,-205.98 73.7,-205.98"/>
<polygon fill="black" stroke="black" points="70.2,-205.98 73.7,-215.98 77.2,-205.98 70.2,-205.98"/>
</g>
</g>
</svg>
