<?xml version="1.0" encoding="UTF-8" standalone="no"?>
<!DOCTYPE svg PUBLIC "-//W3C//DTD SVG 1.1//EN"
 "http://www.w3.org/Graphics/SVG/1.1/DTD/svg11.dtd">
<!-- Generated by graphviz version 2.47.0 (20210316.0004)
 -->
<!-- Title: dependencies Pages: 1 -->
<svg width="504pt" height="211pt"
 viewBox="0.00 0.00 504.00 211.00" xmlns="http://www.w3.org/2000/svg" xmlns:xlink="http://www.w3.org/1999/xlink">
<g id="graph0" class="graph" transform="scale(1 1) rotate(0) translate(4 207)">
<title>dependencies</title>
<polygon fill="white" stroke="transparent" points="-4,4 -4,-207 500,-207 500,4 -4,4"/>
<text text-anchor="start" x="227.01" y="-42.4" font-family="Times-12" font-weight="bold" font-size="14.00">Legend</text>
<polygon fill="#ffffb3" stroke="transparent" points="14,-10 14,-30 34,-30 34,-10 14,-10"/>
<text text-anchor="start" x="37.63" y="-15.4" font-family="Times-12" font-size="14.00"> &#160;Declarations</text>
<polygon fill="#8dd3c7" stroke="transparent" points="127,-10 127,-30 147,-30 147,-10 127,-10"/>
<text text-anchor="start" x="150.73" y="-15.4" font-family="Times-12" font-size="14.00"> &#160;Module</text>
<polygon fill="#80b1d3" stroke="transparent" points="213,-10 213,-30 233,-30 233,-10 213,-10"/>
<text text-anchor="start" x="236.78" y="-15.4" font-family="Times-12" font-size="14.00"> &#160;Bootstrap</text>
<polygon fill="#fdb462" stroke="transparent" points="310,-10 310,-30 330,-30 330,-10 310,-10"/>
<text text-anchor="start" x="333.67" y="-15.4" font-family="Times-12" font-size="14.00"> &#160;Providers</text>
<polygon fill="#fb8072" stroke="transparent" points="406,-10 406,-30 426,-30 426,-10 406,-10"/>
<text text-anchor="start" x="429.73" y="-15.4" font-family="Times-12" font-size="14.00"> &#160;Exports</text>
<g id="clust1" class="cluster">
<title>cluster_CoreModule</title>
<polygon fill="none" stroke="black" stroke-dasharray="1,5" points="129,-70 129,-195 367,-195 367,-70 129,-70"/>
</g>
<g id="clust3" class="cluster">
<title>cluster_CoreModule_imports</title>
<polygon fill="none" stroke="black" points="137,-78 137,-130 359,-130 359,-78 137,-78"/>
</g>
<!-- ConfigModule -->
<g id="node1" class="node">
<title>ConfigModule</title>
<polygon fill="#8dd3c7" stroke="black" points="351.44,-122 348.44,-126 327.44,-126 324.44,-122 252.56,-122 252.56,-86 351.44,-86 351.44,-122"/>
<text text-anchor="middle" x="302" y="-99.8" font-family="Times,serif" font-size="14.00">ConfigModule</text>
</g>
<!-- CoreModule -->
<g id="node3" class="node">
<title>CoreModule</title>
<polygon fill="#8dd3c7" stroke="black" points="289.26,-187 286.26,-191 265.26,-191 262.26,-187 202.74,-187 202.74,-151 289.26,-151 289.26,-187"/>
<text text-anchor="middle" x="246" y="-164.8" font-family="Times,serif" font-size="14.00">CoreModule</text>
</g>
<!-- ConfigModule&#45;&gt;CoreModule -->
<g id="edge1" class="edge">
<title>ConfigModule&#45;&gt;CoreModule</title>
<path fill="none" stroke="black" d="M271.08,-122.11C271.08,-122.11 271.08,-140.99 271.08,-140.99"/>
<polygon fill="black" stroke="black" points="267.58,-140.99 271.08,-150.99 274.58,-140.99 267.58,-140.99"/>
</g>
<!-- StoreModule -->
<g id="node2" class="node">
<title>StoreModule</title>
<polygon fill="#8dd3c7" stroke="black" points="234.6,-122 231.6,-126 210.6,-126 207.6,-122 145.4,-122 145.4,-86 234.6,-86 234.6,-122"/>
<text text-anchor="middle" x="190" y="-99.8" font-family="Times,serif" font-size="14.00">StoreModule</text>
</g>
<!-- StoreModule&#45;&gt;CoreModule -->
<g id="edge2" class="edge">
<title>StoreModule&#45;&gt;CoreModule</title>
<path fill="none" stroke="black" d="M218.58,-122.11C218.58,-122.11 218.58,-140.99 218.58,-140.99"/>
<polygon fill="black" stroke="black" points="215.08,-140.99 218.58,-150.99 222.08,-140.99 215.08,-140.99"/>
</g>
</g>
</svg>
