<?xml version="1.0" encoding="UTF-8" standalone="no"?>
<!DOCTYPE svg PUBLIC "-//W3C//DTD SVG 1.1//EN"
 "http://www.w3.org/Graphics/SVG/1.1/DTD/svg11.dtd">
<!-- Generated by graphviz version 2.47.0 (20210316.0004)
 -->
<!-- Title: dependencies Pages: 1 -->
<svg width="675pt" height="284pt"
 viewBox="0.00 0.00 675.00 284.00" xmlns="http://www.w3.org/2000/svg" xmlns:xlink="http://www.w3.org/1999/xlink">
<g id="graph0" class="graph" transform="scale(1 1) rotate(0) translate(4 280)">
<title>dependencies</title>
<polygon fill="white" stroke="transparent" points="-4,4 -4,-280 671,-280 671,4 -4,4"/>
<text text-anchor="start" x="312.51" y="-42.4" font-family="Times-12" font-weight="bold" font-size="14.00">Legend</text>
<polygon fill="#ffffb3" stroke="transparent" points="99.5,-10 99.5,-30 119.5,-30 119.5,-10 99.5,-10"/>
<text text-anchor="start" x="123.13" y="-15.4" font-family="Times-12" font-size="14.00"> &#160;Declarations</text>
<polygon fill="#8dd3c7" stroke="transparent" points="212.5,-10 212.5,-30 232.5,-30 232.5,-10 212.5,-10"/>
<text text-anchor="start" x="236.23" y="-15.4" font-family="Times-12" font-size="14.00"> &#160;Module</text>
<polygon fill="#80b1d3" stroke="transparent" points="298.5,-10 298.5,-30 318.5,-30 318.5,-10 298.5,-10"/>
<text text-anchor="start" x="322.28" y="-15.4" font-family="Times-12" font-size="14.00"> &#160;Bootstrap</text>
<polygon fill="#fdb462" stroke="transparent" points="395.5,-10 395.5,-30 415.5,-30 415.5,-10 395.5,-10"/>
<text text-anchor="start" x="419.17" y="-15.4" font-family="Times-12" font-size="14.00"> &#160;Providers</text>
<polygon fill="#fb8072" stroke="transparent" points="491.5,-10 491.5,-30 511.5,-30 511.5,-10 491.5,-10"/>
<text text-anchor="start" x="515.23" y="-15.4" font-family="Times-12" font-size="14.00"> &#160;Exports</text>
<g id="clust1" class="cluster">
<title>cluster_WorkflowCardModule</title>
<polygon fill="none" stroke="black" stroke-dasharray="1,5" points="8,-70 8,-268 659,-268 659,-70 8,-70"/>
</g>
<g id="clust3" class="cluster">
<title>cluster_WorkflowCardModule_imports</title>
<polygon fill="none" stroke="black" points="22,-78 22,-130 646,-130 646,-78 22,-78"/>
</g>
<g id="clust4" class="cluster">
<title>cluster_WorkflowCardModule_exports</title>
<polygon fill="none" stroke="black" points="16,-208 16,-260 651,-260 651,-208 16,-208"/>
</g>
<!-- WorkflowCardActionsComponent -->
<g id="node1" class="node">
<title>WorkflowCardActionsComponent</title>
<polygon fill="#8dd3c7" stroke="black" points="637.62,-122 634.62,-126 613.62,-126 610.62,-122 428.38,-122 428.38,-86 637.62,-86 637.62,-122"/>
<text text-anchor="middle" x="533" y="-99.8" font-family="Times,serif" font-size="14.00">WorkflowCardActionsComponent</text>
</g>
<!-- WorkflowCardModule -->
<g id="node4" class="node">
<title>WorkflowCardModule</title>
<polygon fill="#8dd3c7" stroke="black" points="399.29,-187 396.29,-191 375.29,-191 372.29,-187 254.71,-187 254.71,-151 399.29,-151 399.29,-187"/>
<text text-anchor="middle" x="327" y="-164.8" font-family="Times,serif" font-size="14.00">WorkflowCardModule</text>
</g>
<!-- WorkflowCardActionsComponent&#45;&gt;WorkflowCardModule -->
<g id="edge1" class="edge">
<title>WorkflowCardActionsComponent&#45;&gt;WorkflowCardModule</title>
<path fill="none" stroke="black" d="M568.35,-122.02C568.35,-139.37 568.35,-163 568.35,-163 568.35,-163 409.41,-163 409.41,-163"/>
<polygon fill="black" stroke="black" points="409.41,-159.5 399.41,-163 409.41,-166.5 409.41,-159.5"/>
</g>
<!-- WorkflowCardComponent -->
<g id="node2" class="node">
<title>WorkflowCardComponent</title>
<polygon fill="#8dd3c7" stroke="black" points="410.08,-122 407.08,-126 386.08,-126 383.08,-122 243.92,-122 243.92,-86 410.08,-86 410.08,-122"/>
<text text-anchor="middle" x="327" y="-99.8" font-family="Times,serif" font-size="14.00">WorkflowCardComponent</text>
</g>
<!-- WorkflowCardComponent&#45;&gt;WorkflowCardModule -->
<g id="edge2" class="edge">
<title>WorkflowCardComponent&#45;&gt;WorkflowCardModule</title>
<path fill="none" stroke="black" d="M327,-122.11C327,-122.11 327,-140.99 327,-140.99"/>
<polygon fill="black" stroke="black" points="323.5,-140.99 327,-150.99 330.5,-140.99 323.5,-140.99"/>
</g>
<!-- WorkflowCardExtraComponent -->
<g id="node3" class="node">
<title>WorkflowCardExtraComponent</title>
<polygon fill="#8dd3c7" stroke="black" points="226.4,-122 223.4,-126 202.4,-126 199.4,-122 29.6,-122 29.6,-86 226.4,-86 226.4,-122"/>
<text text-anchor="middle" x="128" y="-99.8" font-family="Times,serif" font-size="14.00">WorkflowCardExtraComponent</text>
</g>
<!-- WorkflowCardExtraComponent&#45;&gt;WorkflowCardModule -->
<g id="edge3" class="edge">
<title>WorkflowCardExtraComponent&#45;&gt;WorkflowCardModule</title>
<path fill="none" stroke="black" d="M159.23,-122.02C159.23,-139.37 159.23,-163 159.23,-163 159.23,-163 244.39,-163 244.39,-163"/>
<polygon fill="black" stroke="black" points="244.39,-166.5 254.39,-163 244.39,-159.5 244.39,-166.5"/>
</g>
<!-- WorkflowCardActionsComponent  -->
<g id="node5" class="node">
<title>WorkflowCardActionsComponent </title>
<polygon fill="#fb8072" stroke="black" points="642.62,-252 429.38,-252 429.38,-216 642.62,-216 642.62,-252"/>
<text text-anchor="middle" x="536" y="-229.8" font-family="Times,serif" font-size="14.00">WorkflowCardActionsComponent </text>
</g>
<!-- WorkflowCardModule&#45;&gt;WorkflowCardActionsComponent  -->
<g id="edge4" class="edge">
<title>WorkflowCardModule&#45;&gt;WorkflowCardActionsComponent </title>
<path fill="none" stroke="black" stroke-dasharray="5,2" d="M399.4,-175C446.38,-175 498.9,-175 498.9,-175 498.9,-175 498.9,-205.98 498.9,-205.98"/>
<polygon fill="black" stroke="black" points="495.4,-205.98 498.9,-215.98 502.4,-205.98 495.4,-205.98"/>
</g>
<!-- WorkflowCardComponent  -->
<g id="node6" class="node">
<title>WorkflowCardComponent </title>
<polygon fill="#fb8072" stroke="black" points="411.58,-252 242.42,-252 242.42,-216 411.58,-216 411.58,-252"/>
<text text-anchor="middle" x="327" y="-229.8" font-family="Times,serif" font-size="14.00">WorkflowCardComponent </text>
</g>
<!-- WorkflowCardModule&#45;&gt;WorkflowCardComponent  -->
<g id="edge5" class="edge">
<title>WorkflowCardModule&#45;&gt;WorkflowCardComponent </title>
<path fill="none" stroke="black" stroke-dasharray="5,2" d="M327,-187.11C327,-187.11 327,-205.99 327,-205.99"/>
<polygon fill="black" stroke="black" points="323.5,-205.99 327,-215.99 330.5,-205.99 323.5,-205.99"/>
</g>
<!-- WorkflowCardExtraComponent  -->
<g id="node7" class="node">
<title>WorkflowCardExtraComponent </title>
<polygon fill="#fb8072" stroke="black" points="223.9,-252 24.1,-252 24.1,-216 223.9,-216 223.9,-252"/>
<text text-anchor="middle" x="124" y="-229.8" font-family="Times,serif" font-size="14.00">WorkflowCardExtraComponent </text>
</g>
<!-- WorkflowCardModule&#45;&gt;WorkflowCardExtraComponent  -->
<g id="edge6" class="edge">
<title>WorkflowCardModule&#45;&gt;WorkflowCardExtraComponent </title>
<path fill="none" stroke="black" stroke-dasharray="5,2" d="M254.72,-175C186.47,-175 94.52,-175 94.52,-175 94.52,-175 94.52,-205.98 94.52,-205.98"/>
<polygon fill="black" stroke="black" points="91.02,-205.98 94.52,-215.98 98.02,-205.98 91.02,-205.98"/>
</g>
</g>
</svg>
