<svg width="178" height="74" viewBox="0 0 178 74" fill="none" xmlns="http://www.w3.org/2000/svg">
<path d="M95.048 7.24609V19.8083H93.6144V14.0875H86.1582V19.8083H84.7246V7.24609H86.1582V12.731H93.6144V7.24609H95.048Z" fill="white"/>
<path d="M105.982 10.3541V19.8074H104.6V18.2908C104.048 19.2934 102.818 20.0265 101.47 20.0265C99.3744 20.0265 97.8984 18.5099 97.8984 16.3698V10.3541H99.2811V16.1845C99.2811 17.7179 100.257 18.7963 101.656 18.7963C103.259 18.7963 104.6 17.6842 104.6 16.3614V10.3457H105.982V10.3541Z" fill="white"/>
<path d="M122.473 13.7933V19.809H121.09V13.9787C121.09 12.4453 120.191 11.3668 118.902 11.3668C117.392 11.3668 116.323 12.3694 116.323 13.8018V19.8175H114.94V13.9871C114.94 12.4537 114.041 11.3752 112.752 11.3752C111.242 11.3752 110.173 12.3779 110.173 13.8102V19.8259H108.799V10.3558H110.182V11.746C110.657 10.7602 111.691 10.1367 112.938 10.1367C114.372 10.1367 115.5 10.9203 116.009 12.1504C116.399 10.9287 117.646 10.1367 119.08 10.1367C121.073 10.1367 122.473 11.6533 122.473 13.7933Z" fill="white"/>
<path d="M133 14.0455V19.8H131.618V18.3172C130.939 19.4293 129.522 20.0191 128.267 20.0191C126.265 20.0191 124.789 18.8648 124.789 17.0028C124.789 15.124 126.486 13.8602 128.521 13.8602C129.556 13.8602 130.642 14.0792 131.618 14.3909V14.0455C131.618 12.7649 131.1 11.3073 129.039 11.3073C128.08 11.3073 127.122 11.7285 126.257 12.1667L125.705 11.0545C127.071 10.3805 128.208 10.1446 129.132 10.1446C131.728 10.1361 133 11.7622 133 14.0455ZM131.618 16.8427V15.402C130.752 15.1661 129.777 15.0144 128.75 15.0144C127.334 15.0144 126.138 15.8148 126.138 16.9523C126.138 18.1234 127.164 18.8143 128.513 18.8143C129.76 18.8227 131.253 18.1824 131.618 16.8427Z" fill="white"/>
<path d="M143.916 13.7933V19.809H142.533V13.9787C142.533 12.4453 141.558 11.3668 140.158 11.3668C138.555 11.3668 137.215 12.479 137.215 13.8018V19.8175H135.832V10.3558H137.215V11.8723C137.766 10.8697 138.996 10.1367 140.345 10.1367C142.44 10.1367 143.916 11.6533 143.916 13.7933Z" fill="white"/>
<path d="M91.0703 37.097L94.3446 41.7393H92.7075L89.501 37.2233H86.1504V41.7393H84.7168V29.1855H89.8488C92.4615 29.1855 94.5058 30.8453 94.5058 33.2044C94.5143 35.1844 93.0807 36.6841 91.0703 37.097ZM86.1588 35.8753H89.6028C91.6641 35.8753 93.0637 34.8895 93.0637 33.2044C93.0637 31.5194 91.6641 30.5336 89.6028 30.5336H86.1588V35.8753Z" fill="white"/>
<path d="M103.921 39.6084L104.769 40.5015C103.938 41.3946 102.266 41.9676 100.943 41.9676C98.4068 41.9676 96.125 39.9033 96.125 36.9966C96.125 34.1825 98.2626 32.0762 100.816 32.0762C103.683 32.0762 105.329 34.2331 105.329 37.5442H97.5416C97.7452 39.3894 99.0515 40.7459 100.926 40.7459C102.046 40.7374 103.327 40.2488 103.921 39.6084ZM97.5501 36.3141H103.954C103.768 34.6122 102.758 33.2979 100.858 33.2979C99.1703 33.2979 97.8131 34.4858 97.5501 36.3141Z" fill="white"/>
<path d="M109.733 32.2951H112.074V33.5167H109.733V41.7399H108.35V33.5167H106.857V32.2951H108.35V30.9975C108.35 29.5905 109.309 28.5879 110.666 28.5879C111.311 28.5879 111.939 28.807 112.431 29.1945L111.752 30.1971C111.548 29.9781 111.184 29.8096 110.759 29.8096C110.208 29.8096 109.725 30.3067 109.725 30.9975V32.2951H109.733Z" fill="white"/>
<path d="M121.329 39.6084L122.177 40.5015C121.346 41.3946 119.675 41.9676 118.351 41.9676C115.815 41.9676 113.533 39.9033 113.533 36.9966C113.533 34.1825 115.671 32.0762 118.224 32.0762C121.091 32.0762 122.737 34.2331 122.737 37.5442H114.95C115.153 39.3894 116.46 40.7459 118.334 40.7459C119.454 40.7374 120.743 40.2488 121.329 39.6084ZM114.967 36.3141H121.371C121.185 34.6122 120.175 33.2979 118.275 33.2979C116.587 33.2979 115.221 34.4858 114.967 36.3141Z" fill="white"/>
<path d="M130.183 32.0762V33.2979C128.029 33.2979 126.502 34.6122 126.502 36.4574V41.7401H125.119V32.2952H126.502V34.1404C127.07 32.8766 128.436 32.0762 130.183 32.0762Z" fill="white"/>
<path d="M139.387 39.6084L140.236 40.5015C139.404 41.3946 137.733 41.9676 136.41 41.9676C133.874 41.9676 131.592 39.9033 131.592 36.9966C131.592 34.1825 133.729 32.0762 136.283 32.0762C139.15 32.0762 140.795 34.2331 140.795 37.5442H133.008C133.212 39.3894 134.518 40.7459 136.393 40.7459C137.504 40.7374 138.794 40.2488 139.387 39.6084ZM133.017 36.3141H139.421C139.235 34.6122 138.225 33.2979 136.334 33.2979C134.637 33.2979 133.271 34.4858 133.017 36.3141Z" fill="white"/>
<path d="M151.144 35.7328V41.7485H149.761V35.9181C149.761 34.3847 148.786 33.3063 147.386 33.3063C145.783 33.3063 144.443 34.4184 144.443 35.7412V41.7569H143.068V32.2952H144.451V33.8118C145.002 32.8092 146.232 32.0762 147.581 32.0762C149.676 32.0762 151.144 33.5927 151.144 35.7328Z" fill="white"/>
<path d="M153.426 37.0134C153.426 34.3257 155.691 32.0762 158.354 32.0762C159.644 32.0762 160.84 32.607 161.739 33.4664L160.78 34.4016C160.153 33.7275 159.287 33.3063 158.354 33.3063C156.463 33.3063 154.876 35.0082 154.876 37.0134C154.876 39.0439 156.463 40.7459 158.354 40.7459C159.313 40.7459 160.195 40.3078 160.84 39.5916L161.798 40.5268C160.899 41.4199 159.677 41.9676 158.354 41.9676C155.691 41.9676 153.426 39.7011 153.426 37.0134Z" fill="white"/>
<path d="M171.206 39.6084L172.054 40.5015C171.223 41.3946 169.552 41.9676 168.228 41.9676C165.692 41.9676 163.41 39.9033 163.41 36.9966C163.41 34.1825 165.548 32.0762 168.101 32.0762C170.968 32.0762 172.614 34.2331 172.614 37.5442H164.827C165.03 39.3894 166.337 40.7459 168.211 40.7459C169.331 40.7374 170.62 40.2488 171.206 39.6084ZM164.835 36.3141H171.24C171.053 34.6122 170.044 33.2979 168.152 33.2979C166.455 33.2979 165.098 34.4858 164.835 36.3141Z" fill="white"/>
<path d="M93.7417 60.8316H86.6926L85.4202 63.6794H83.8594L89.4325 51.1172H90.9933L96.5664 63.6794H95.0056L93.7417 60.8316ZM93.1564 59.4752L90.2298 52.8781L87.2864 59.4752H93.1564Z" fill="white"/>
<path d="M103.421 63.3007C102.92 63.6883 102.301 63.9073 101.656 63.9073C100.291 63.9073 99.3406 62.9047 99.3406 61.4977V55.4651H97.8477V54.2434H99.3406V51.6484H100.723V54.2434H103.064V55.4651H100.723V61.4977C100.723 62.1886 101.198 62.6857 101.758 62.6857C102.182 62.6857 102.547 62.5172 102.751 62.2981L103.421 63.3007Z" fill="white"/>
<path d="M105.371 50.9062H106.754V63.6875H105.371V50.9062Z" fill="white"/>
<path d="M117.282 57.9245V63.679H115.899V62.1962C115.22 63.3083 113.804 63.8981 112.548 63.8981C110.546 63.8981 109.07 62.7438 109.07 60.8818C109.07 59.003 110.767 57.7392 112.803 57.7392C113.829 57.7392 114.923 57.9582 115.899 58.2699V57.9245C115.899 56.6439 115.381 55.1863 113.32 55.1863C112.362 55.1863 111.403 55.6075 110.538 56.0457L109.986 54.9335C111.352 54.2595 112.489 54.0236 113.413 54.0236C116.009 54.0067 117.282 55.6412 117.282 57.9245ZM115.899 60.7217V59.281C115.034 59.0451 114.058 58.8934 113.032 58.8934C111.615 58.8934 110.419 59.6938 110.419 60.8313C110.419 62.0024 111.454 62.6933 112.794 62.6933C114.041 62.6933 115.534 62.0529 115.899 60.7217Z" fill="white"/>
<path d="M119.529 62.4902L120.25 61.4876C121.336 62.2711 122.422 62.6756 123.474 62.6756C124.729 62.6756 125.569 62.0942 125.569 61.1927C125.569 60.1648 124.466 59.8362 123.177 59.4739C120.878 58.8167 119.996 58.1427 119.996 56.7862C119.996 55.0675 121.429 54.0059 123.33 54.0059C124.509 54.0059 125.722 54.4103 126.731 55.0675L126.069 56.1291C125.111 55.5224 124.178 55.236 123.33 55.236C122.261 55.236 121.379 55.7078 121.379 56.6261C121.379 57.4518 122.074 57.7046 123.847 58.2691C125.374 58.7409 126.96 59.2549 126.96 61.0495C126.96 62.7851 125.45 63.8972 123.482 63.8972C122.142 63.8972 120.666 63.4086 119.529 62.4902Z" fill="white"/>
<path d="M74.8908 36.0796C74.8908 16.1534 58.369 0 37.9884 0C17.6077 0 1.08594 16.1534 1.08594 36.0796V37.9204C1.08594 57.8466 17.6077 74 37.9884 74C58.369 74 74.8908 57.8466 74.8908 37.9204V36.0796Z" fill="#FF0043"/>
<path d="M68.6694 24.6234C66.9921 20.7469 64.5914 17.2655 61.5341 14.2756C58.4767 11.2857 54.9151 8.93854 50.9501 7.2994C46.8441 5.60169 42.4832 4.74023 37.9882 4.74023C33.4932 4.74023 29.1324 5.60095 25.0263 7.2994C21.0613 8.93928 17.5005 11.2864 14.4423 14.2756C11.3842 17.2647 8.98355 20.7469 7.30701 24.6234C5.57057 28.6379 4.68945 32.9014 4.68945 37.2962C4.68945 41.6909 5.56981 45.9545 7.30701 49.9689C8.98431 53.8455 11.385 57.3269 14.4423 60.3168C17.4997 63.3059 21.0613 65.6538 25.0263 67.2929C29.1324 68.9907 33.4932 69.8521 37.9882 69.8521C42.4832 69.8521 46.8441 68.9914 50.9501 67.2929C54.9151 65.6531 58.4767 63.3059 61.5341 60.3168C64.5914 57.3269 66.9929 53.8455 68.6694 49.9689C70.4059 45.9545 71.287 41.6909 71.287 37.2962C71.287 32.9014 70.4066 28.6379 68.6694 24.6234ZM69.0099 36.9996H61.3673C61.3597 36.4236 61.3308 35.8513 61.28 35.2826L67.2734 34.6896C67.3985 34.677 67.4895 34.568 67.4766 34.4457C67.4637 34.3233 67.3523 34.2336 67.2272 34.247L61.2361 34.8401C60.8911 31.6604 59.8773 28.6245 58.2614 25.8897L64.8697 22.1688C67.4554 26.5443 68.956 31.6055 69.0091 36.9996H69.0099ZM6.96655 36.9996C6.98323 35.3197 7.14019 33.6724 7.42605 32.0681L14.942 33.3989C14.7358 34.5784 14.6243 35.7816 14.6092 36.9996H6.96655ZM15.6927 33.5316L22.5278 34.7422C22.4012 35.4784 22.3276 36.2323 22.3132 36.9996H15.3682C15.3841 35.8194 15.4948 34.6614 15.6935 33.5316H15.6927ZM47.9868 47.7108L45.5649 44.9166C46.0031 44.4999 46.4058 44.0477 46.7675 43.5643L49.9143 45.5504C49.3464 46.3326 48.6996 47.0554 47.9868 47.7108ZM26.552 46.1873L29.4849 43.9195C29.7807 44.2812 30.0999 44.6245 30.4404 44.9455L27.9275 47.6551C27.4353 47.1977 26.9758 46.707 26.552 46.1873ZM28.3157 26.5902L30.7338 29.38C29.0338 30.8708 27.8145 32.8755 27.3352 35.1418L23.6531 34.4894C24.2908 31.3727 25.9681 28.6193 28.3149 26.5902H28.3157ZM45.0947 40.9815L45.925 41.3996C45.5034 42.1758 44.9666 42.8838 44.3365 43.4998L43.0482 42.0142C44.1628 40.8436 44.8688 39.2963 44.9423 37.592H46.9624C46.9207 38.8063 46.6257 39.9591 46.1275 41.0015L45.3025 40.5856C45.191 40.5292 45.0538 40.5722 44.9962 40.6812C44.9385 40.7902 44.9825 40.9244 45.094 40.9807L45.0947 40.9815ZM29.8224 40.9503L34.0687 38.9739C34.598 40.1519 35.6671 41.0467 36.9683 41.3596L36.1456 45.8907C33.3301 45.3147 30.9954 43.4457 29.8224 40.9503ZM31.9592 30.7937L33.1239 32.1371C32.0517 33.0764 31.2692 34.3352 30.9401 35.7801L29.2029 35.4724C29.601 33.6368 30.5875 32.011 31.9599 30.7937H31.9592ZM30.9393 36.2323C30.953 36.2345 30.9666 36.236 30.9803 36.236C31.0273 36.236 31.0713 36.2212 31.1084 36.196C31.1865 36.1856 31.2532 36.1285 31.2684 36.0485C31.5528 34.6058 32.3118 33.3492 33.3688 32.4195L35.0014 34.3033C34.2719 34.9987 33.7957 35.9462 33.7199 36.9996H29.0125C29.0254 36.6304 29.0611 36.2664 29.1195 35.9098L30.9393 36.2323ZM41.4747 40.1993C41.3944 40.1067 41.2677 40.074 41.1555 40.1074C41.7826 39.4328 42.186 38.5572 42.2558 37.5935H44.5639C44.4911 39.1844 43.836 40.6301 42.8025 41.731L41.4755 40.2001L41.4747 40.1993ZM34.6943 37.2969C34.6943 35.5214 36.1721 34.0765 37.9882 34.0765C39.8043 34.0765 41.2821 35.5214 41.2821 37.2969C41.2821 39.0725 39.8043 40.5174 37.9882 40.5174C36.1721 40.5174 34.6943 39.0725 34.6943 37.2969ZM42.2558 37.0004C42.2095 36.3546 42.0124 35.7497 41.6992 35.2174L43.7101 34.0854C44.2113 34.9542 44.5154 35.9454 44.5639 37.0004H42.2558ZM41.54 34.9653C40.7703 33.8489 39.4661 33.1127 37.9882 33.1127C37.0449 33.1127 36.1729 33.4129 35.4647 33.92L33.8382 32.0444C34.968 31.2185 36.3655 30.7352 37.8585 30.7352C40.2585 30.7352 42.368 31.9732 43.5547 33.8303L41.5392 34.9653H41.54ZM33.7207 37.5935C33.7487 37.9782 33.8291 38.3489 33.9565 38.6988L29.7011 40.6797C29.2916 39.7241 29.0505 38.684 29.0133 37.5935H33.7207ZM37.2656 41.4203C37.5006 41.4596 37.7418 41.4811 37.9882 41.4811C39.1377 41.4811 40.1819 41.0348 40.9515 40.3113C40.9258 40.4025 40.9447 40.5048 41.0122 40.5833L42.371 42.1513C41.5051 42.9208 40.4336 43.4732 39.2477 43.7178C39.2356 43.7171 39.2234 43.7178 39.2113 43.7193C39.1969 43.7215 39.1832 43.7267 39.1704 43.7334C38.7465 43.8157 38.3074 43.8594 37.8593 43.8594C37.7547 43.8594 37.6697 43.9424 37.6697 44.0447C37.6697 44.147 37.7547 44.2301 37.8593 44.2301C38.293 44.2301 38.7177 44.1915 39.1309 44.1181L39.4699 45.9574C38.9876 46.036 38.4932 46.0775 37.9882 46.0775C37.4832 46.0775 36.9456 46.0323 36.4436 45.9471L37.2656 41.4203ZM39.4274 44.0588C40.6361 43.7912 41.728 43.2211 42.6159 42.4338L43.8929 43.9068C42.7388 44.8936 41.3254 45.5964 39.7671 45.9041L39.4266 44.0581L39.4274 44.0588ZM44.9431 37.0011C44.8945 35.8787 44.5715 34.8245 44.0385 33.9008L45.7734 32.9236C46.4862 34.1321 46.9131 35.5206 46.9631 37.0011H44.9431ZM43.8838 33.6457C42.6311 31.6774 40.3995 30.3645 37.8593 30.3645C36.2738 30.3645 34.7898 30.8805 33.5933 31.7612L32.4225 30.4112C33.9534 29.2258 35.8878 28.517 37.9882 28.517C41.204 28.517 44.0309 30.1784 45.6172 32.6701L43.8838 33.6457ZM46.8297 31.1118L49.912 29.0397C50.119 29.3251 50.3162 29.6179 50.502 29.9182L47.2596 31.7442C47.1239 31.5284 46.9806 31.3171 46.8297 31.1118ZM46.5567 30.7552C45.7233 29.7143 44.6959 28.8284 43.5281 28.1501L45.3943 24.9808C47.045 25.9334 48.4888 27.1937 49.6421 28.6816L46.5567 30.7559V30.7552ZM43.1323 27.9306C41.6818 27.1663 40.0348 26.714 38.2855 26.6673L38.2726 23.0087C40.7051 23.0547 42.9943 23.6841 44.9992 24.7598L43.1323 27.9299V27.9306ZM37.6788 26.6681C35.8848 26.717 34.1984 27.1937 32.7213 27.9959L30.843 24.8332C32.8691 23.719 35.1925 23.0621 37.6659 23.0102L37.6788 26.6688V26.6681ZM32.3285 28.2197C31.9342 28.4555 31.5558 28.7157 31.1964 28.9974L28.7782 26.2077C29.3068 25.7873 29.8648 25.4026 30.4502 25.0564L32.3285 28.219V28.2197ZM27.2534 35.5807C27.176 36.0448 27.129 36.5192 27.1153 37.0011H23.3733C23.3877 36.2968 23.4552 35.6051 23.5712 34.929L27.2526 35.5807H27.2534ZM27.1153 37.5942C27.154 38.9694 27.4611 40.2794 27.9874 41.4774L24.6085 43.0506C23.8517 41.3751 23.415 39.5314 23.374 37.5942H27.1161H27.1153ZM28.111 41.748C28.4158 42.3915 28.7843 43.0009 29.2089 43.5673L26.2737 45.8366C25.6761 45.0552 25.1598 44.2123 24.7336 43.3197L28.111 41.748ZM30.7748 45.2487C32.1791 46.4675 33.9064 47.3378 35.8142 47.7174L35.1606 51.3189C32.5453 50.8156 30.1788 49.6286 28.2634 47.9569L30.7755 45.2487H30.7748ZM36.1122 47.7723C36.7219 47.8761 37.3482 47.9309 37.9882 47.9309C38.6282 47.9309 39.2143 47.879 39.8058 47.7819L40.4693 51.382C39.6625 51.5176 38.8337 51.5888 37.9882 51.5888C37.1427 51.5888 36.2806 51.5146 35.4586 51.3738L36.1122 47.7723ZM40.1038 47.7285C41.9972 47.3623 43.7154 46.5142 45.1182 45.3206L47.5364 48.1096C45.6407 49.7117 43.3211 50.8459 40.7673 51.3286L40.1038 47.7285ZM47.0291 43.2018C47.2391 42.8956 47.4332 42.5776 47.6099 42.2499L50.9349 43.9254C50.7022 44.3591 50.4466 44.7794 50.1714 45.1849L47.0291 43.2018ZM47.8147 41.8525C48.4463 40.5552 48.8171 39.114 48.8603 37.5935H52.6024C52.5576 39.7167 52.0375 41.728 51.142 43.5288L47.8154 41.8525H47.8147ZM48.8603 37.0004C48.8558 36.8373 48.8474 36.6757 48.8353 36.5148L52.5584 36.1463C52.5811 36.4288 52.5963 36.7135 52.6024 37.0004H48.8603ZM48.7921 36.0722C48.6192 34.6028 48.1392 33.2239 47.4158 31.9984L50.6567 30.1732C51.6386 31.8353 52.2869 33.7087 52.5144 35.7037L48.7921 36.0722ZM51.5764 29.655L57.5933 26.267C59.1281 28.8647 60.1373 31.7938 60.4808 34.9157L53.5707 35.5992C53.3281 33.4545 52.632 31.4417 51.5764 29.655ZM51.4217 29.4C51.2216 29.076 51.01 28.7594 50.7863 28.451L56.5075 24.6056C56.8358 25.0616 57.146 25.5308 57.4386 26.0112L51.4217 29.3992V29.4ZM50.5179 28.0922C49.2743 26.4783 47.7123 25.1112 45.9235 24.0807L49.3873 18.1973C52.0731 19.7357 54.4078 21.8003 56.2413 24.2446L50.5171 28.0922H50.5179ZM45.5285 23.8606C43.3666 22.6959 40.8954 22.0161 38.2688 21.9708L38.2453 15.18C42.1413 15.223 45.8037 16.2327 48.993 17.9764L45.5285 23.8606ZM37.6621 21.9716C34.9961 22.025 32.4923 22.7322 30.3099 23.9354L26.8234 18.0639C30.0248 16.2809 33.7116 15.2401 37.6386 15.1815L37.6621 21.9716ZM29.9172 24.1593C29.2779 24.5359 28.6683 24.9563 28.092 25.4159L23.6023 20.2368C24.491 19.5199 25.4365 18.8683 26.4306 18.2885L29.9172 24.1593ZM27.6295 25.8C25.0983 27.9818 23.2914 30.9479 22.6089 34.3063L15.7746 33.0956C16.7498 28.1589 19.4075 23.802 23.1405 20.6208L27.6295 25.8ZM22.3125 37.5942C22.3534 39.6908 22.8266 41.6857 23.6493 43.4969L17.3761 46.4163C16.1227 43.7193 15.4091 40.7346 15.3667 37.5942H22.3117H22.3125ZM23.7752 43.7667C24.2354 44.7298 24.795 45.6394 25.4411 46.4808L19.9952 50.6917C19.0276 49.4522 18.1905 48.1096 17.5042 46.6847L23.7744 43.766L23.7752 43.7667ZM25.7201 46.833C26.1804 47.3979 26.6801 47.9302 27.2154 48.4262L22.5521 53.454C21.7339 52.7067 20.9726 51.9009 20.275 51.0431L25.7201 46.833ZM27.5506 48.7264C29.6108 50.5272 32.1594 51.8045 34.9748 52.342L33.7608 59.029C29.6321 58.2632 25.8968 56.3965 22.8872 53.7543L27.5506 48.7264ZM35.2736 52.3969C36.1555 52.5481 37.0631 52.6274 37.989 52.6274C38.9148 52.6274 39.7906 52.5503 40.6581 52.4043L41.8895 59.0876C40.6217 59.3041 39.3182 59.4175 37.9882 59.4175C36.6582 59.4175 35.3358 59.3026 34.0588 59.0832L35.2728 52.3969H35.2736ZM40.9561 52.3509C43.698 51.8349 46.1882 50.6198 48.2226 48.9021L52.7108 54.0797C49.7619 56.5559 46.1563 58.3033 42.1875 59.0342L40.9561 52.3509ZM48.6738 48.5055C49.4654 47.7834 50.1812 46.9835 50.8068 46.1161L52.7518 47.3438C52.7897 47.3682 52.8329 47.3794 52.8746 47.3794C52.9489 47.3794 53.0225 47.3438 53.0657 47.2778C53.1339 47.1747 53.1036 47.0369 52.9982 46.9701L51.0631 45.7491C51.3573 45.3147 51.6303 44.8654 51.879 44.4021L58.0521 47.5121C56.8047 49.8451 55.1449 51.935 53.1665 53.6883L48.6745 48.5055H48.6738ZM52.0852 44.0055C53.0566 42.0624 53.6192 39.8894 53.664 37.5949H60.609C60.5627 41.0096 59.7218 44.239 58.2583 47.1154L52.0852 44.0047V44.0055ZM53.664 37.0019C53.6579 36.6801 53.6412 36.3606 53.6147 36.0433L60.5248 35.3597C60.5733 35.9017 60.6014 36.4495 60.609 37.0019H53.664ZM37.9882 6.96653C49.3555 6.96653 59.3146 12.9752 64.7181 21.9145L58.1097 25.6354C57.8079 25.1394 57.4864 24.6538 57.1452 24.1786L62.2999 20.7142C62.4038 20.6446 62.4296 20.5059 62.3583 20.4051C62.287 20.3035 62.1452 20.2783 62.0421 20.348L56.879 23.8183C56.1716 22.8746 55.3852 21.976 54.5231 21.1331C53.0831 19.7253 51.487 18.5243 49.774 17.5442L52.889 12.2524C52.952 12.1456 52.914 12.01 52.8056 11.9484C52.6964 11.8869 52.5577 11.924 52.4947 12.03L49.379 17.3218C46.0084 15.478 42.2042 14.4802 38.243 14.4394L38.2218 8.28466C38.2218 8.12156 38.0853 7.98886 37.9184 7.98886H37.9177C37.7501 7.98886 37.6151 8.1223 37.6151 8.28614L37.6364 14.4401C33.6463 14.4972 29.8186 15.5248 26.4359 17.41L23.2406 12.0285C23.1776 11.9225 23.0381 11.8862 22.9297 11.9477C22.8213 12.0092 22.7841 12.1456 22.847 12.2517L26.0431 17.6339C25.0187 18.2314 24.0368 18.909 23.1056 19.6623L18.1753 13.9738C23.553 9.59909 30.4624 6.96505 37.989 6.96505L37.9882 6.96653ZM17.712 14.3593L22.6431 20.0485C22.2359 20.3955 21.8393 20.7565 21.4533 21.1331C18.101 24.4107 15.8929 28.5089 15.0232 32.9637L7.50719 31.6322C8.83569 24.7865 12.5239 18.7482 17.712 14.3593ZM6.96655 37.5949H14.6092C14.6509 40.8006 15.3629 43.9009 16.6808 46.7411L9.79263 49.9467C8.01751 46.1791 7.00977 41.9979 6.96655 37.5949ZM9.92077 50.2158L16.8074 47.0109C17.5096 48.4721 18.3747 49.8622 19.3908 51.1603L14.4348 54.9924C14.3362 55.0687 14.3195 55.2088 14.3976 55.3045C14.4423 55.3601 14.5091 55.389 14.5758 55.389C14.6251 55.389 14.6751 55.3734 14.7168 55.3408L19.6706 51.5102C20.2234 52.1885 20.8171 52.8409 21.4533 53.4637C21.6444 53.6505 21.8385 53.8314 22.0349 54.0108L17.6423 58.7466C17.5581 58.8378 17.5649 58.9779 17.6582 59.0609C17.7014 59.0995 17.7568 59.1187 17.8106 59.1187C17.8728 59.1187 17.9342 59.0943 17.9789 59.0461L22.3693 54.3125C25.5745 57.1319 29.4485 58.9972 33.6266 59.7637L32.2913 67.1172C22.3792 65.312 14.1095 58.8837 9.91925 50.2158H9.92077ZM32.5908 67.1706L33.9254 59.8178C35.2539 60.044 36.6112 60.1596 37.9874 60.1596C39.3637 60.1596 40.7036 60.0454 42.0237 59.8223L43.378 67.1714C41.6272 67.4724 39.8255 67.6303 37.9874 67.6303C36.1494 67.6303 34.344 67.4724 32.5901 67.1706H32.5908ZM43.6768 67.1187L42.3225 59.7689C46.3398 59.0365 50.0758 57.2891 53.2082 54.655L55.728 57.5619C55.7879 57.6308 55.8736 57.6664 55.9593 57.6664C56.0283 57.6664 56.098 57.6434 56.1549 57.596C56.283 57.49 56.2982 57.3032 56.1905 57.1779L53.6632 54.2621C53.9551 54.0034 54.241 53.738 54.5216 53.4637C56.2345 51.789 57.6479 49.8992 58.7376 47.8583L60.0797 48.5344C60.1131 48.5514 60.1487 48.5589 60.1836 48.5589C60.2662 48.5589 60.3458 48.5151 60.386 48.438C60.4437 48.329 60.3997 48.1949 60.2882 48.1385L58.9453 47.4617C60.4876 44.4288 61.3225 41.0741 61.3673 37.5949H69.0099C68.8651 52.2886 57.9801 64.5158 43.6768 67.118V67.1187Z" fill="url(#paint0_linear_9649_45107)"/>
<defs>
<linearGradient id="paint0_linear_9649_45107" x1="9.14354" y1="53.5771" x2="66.1741" y2="19.8994" gradientUnits="userSpaceOnUse">
<stop offset="0.12" stop-color="white" stop-opacity="0"/>
<stop offset="0.44" stop-color="white"/>
</linearGradient>
</defs>
</svg>
