<svg width="120" height="144" viewBox="0 0 120 144" fill="none" xmlns="http://www.w3.org/2000/svg">
<rect width="120" height="144" rx="4" fill="#FAFAFA"/>
<path d="M42.7501 32.6429C44.3098 32.7539 45.8597 32.3785 47.1897 31.577L48.5877 35.7361C48.5524 35.7711 48.514 35.8096 48.4728 35.8514C48.2653 36.0624 47.9874 36.3597 47.708 36.7033C47.43 37.0452 47.1422 37.4433 46.9217 37.8556C46.7054 38.26 46.5293 38.7232 46.5293 39.184C46.5293 39.4941 46.581 39.9522 46.64 40.4753C46.6528 40.5889 46.6659 40.7054 46.679 40.8242C46.7545 41.5124 46.834 42.3282 46.8548 43.2092C46.8966 44.9795 46.6996 46.9638 45.7987 48.6557C44.9672 50.2169 43.977 51.5525 43.0436 52.8114C42.9231 52.9739 42.8036 53.1351 42.6855 53.2954C41.6682 54.6756 40.7323 56.013 40.3198 57.4339C39.9726 58.6297 39.9236 59.5127 39.8647 60.5721C39.8553 60.7427 39.8455 60.9179 39.8343 61.0997C39.7531 62.4081 39.5914 64.1454 38.8838 67.166L38.8816 67.1753L38.8798 67.1847C38.2602 70.3757 36.9203 73.3819 34.9634 75.9747H31.8066V26.6866C33.2623 26.5003 34.3973 26.6995 35.3303 27.0987C36.3583 27.5386 37.1765 28.2362 37.9258 29.0115C38.2378 29.3344 38.5318 29.664 38.8258 29.9936C38.886 30.0612 38.9463 30.1288 39.0068 30.1963C39.3576 30.5884 39.7129 30.9775 40.0824 31.3225C40.8211 32.0121 41.666 32.5729 42.7501 32.6429Z" fill="#212121" stroke="#212121"/>
<path d="M72.8002 46.7787C70.4322 48.912 68.4055 48.912 66.1655 49.8933C67.1611 49.802 68.1645 49.9348 69.1022 50.2818C70.0398 50.6288 70.8879 51.1812 71.5842 51.8987C72.9708 53.072 75.4242 52.8373 76.1495 54.16C76.0428 51.0027 79.9682 48.272 81.4188 46.16C91.1255 31.8027 77.7068 22.2667 62.1335 25.1467C56.3078 26.2878 50.7494 28.517 45.7495 31.7173L47.3068 38.1173C51.5345 34.64 56.5171 32.1999 61.8562 30.992C72.5655 28.432 84.2562 36.624 72.8002 46.7787Z" fill="#212121"/>
<path d="M66.784 49.5947C66.656 49.5947 56.6294 51.7281 56.6294 51.7281C51.6587 53.6267 54.496 55.1627 60.2987 54.3947C64.8214 53.7761 68.5974 52.2614 68.512 53.2214C68.4267 54.1814 61.1094 58.0854 61.9414 59.5147C62.7734 60.9441 70.9227 55.1201 71.6694 56.5067C72.1001 57.1713 72.4443 57.8882 72.6934 58.6401C73.9307 61.3921 75.1254 64.6987 76.192 62.9067C76.618 62.1015 76.8406 61.2043 76.8406 60.2934C76.8406 59.3824 76.618 58.4853 76.192 57.6801C75.8366 56.5482 75.8366 55.3346 76.192 54.2027L74.9334 51.0454L66.784 49.5947Z" fill="#212121"/>
<path d="M31.9443 104V93.8182H37.8357V94.6534H32.874V98.4865H37.3733V99.3217H32.874V104H31.9443ZM42.1663 104.174C41.7056 104.174 41.2847 104.085 40.9035 103.906C40.5224 103.723 40.2191 103.461 39.9937 103.12C39.7684 102.775 39.6557 102.358 39.6557 101.867C39.6557 101.489 39.7269 101.171 39.8695 100.913C40.012 100.654 40.2142 100.442 40.476 100.276C40.7378 100.111 41.0477 99.9796 41.4057 99.8835C41.7636 99.7874 42.158 99.7128 42.5889 99.6598C43.0165 99.6068 43.3777 99.5604 43.6727 99.5206C43.971 99.4808 44.1981 99.4179 44.3538 99.3317C44.5096 99.2455 44.5875 99.1063 44.5875 98.9141V98.7351C44.5875 98.2147 44.4317 97.8054 44.1202 97.5071C43.8119 97.2055 43.3678 97.0547 42.7878 97.0547C42.2376 97.0547 41.7885 97.1757 41.4405 97.4176C41.0958 97.6596 40.8538 97.9446 40.7146 98.2727L39.8744 97.9695C40.0468 97.5518 40.2854 97.2187 40.5903 96.9702C40.8953 96.7183 41.2366 96.5376 41.6145 96.4283C41.9923 96.3156 42.3751 96.2592 42.7629 96.2592C43.0546 96.2592 43.3579 96.2973 43.6727 96.3736C43.9909 96.4498 44.2859 96.5824 44.5577 96.7713C44.8294 96.9569 45.0499 97.2171 45.2189 97.5518C45.3879 97.8833 45.4724 98.3042 45.4724 98.8146V104H44.5875V102.792H44.5328C44.4267 103.017 44.2693 103.236 44.0605 103.448C43.8517 103.66 43.5899 103.834 43.275 103.97C42.9601 104.106 42.5906 104.174 42.1663 104.174ZM42.2856 103.364C42.7563 103.364 43.164 103.259 43.5087 103.05C43.8534 102.842 44.1185 102.565 44.3041 102.22C44.493 101.872 44.5875 101.489 44.5875 101.072V99.968C44.5212 100.031 44.4102 100.087 44.2544 100.137C44.1019 100.187 43.9246 100.232 43.7224 100.271C43.5236 100.308 43.3247 100.339 43.1258 100.366C42.927 100.392 42.748 100.415 42.5889 100.435C42.158 100.488 41.7901 100.571 41.4852 100.684C41.1803 100.797 40.9466 100.952 40.7842 101.151C40.6218 101.347 40.5406 101.599 40.5406 101.907C40.5406 102.371 40.7063 102.731 41.0378 102.986C41.3692 103.238 41.7852 103.364 42.2856 103.364ZM48.7814 93.8182V104H47.8965V93.8182H48.7814ZM52.078 93.8182V104H51.193V93.8182H52.078ZM57.4577 104.159C56.7981 104.159 56.2148 103.992 55.7077 103.657C55.2039 103.322 54.8095 102.86 54.5244 102.27C54.2394 101.677 54.0969 100.992 54.0969 100.217C54.0969 99.4344 54.2394 98.7467 54.5244 98.1534C54.8095 97.5568 55.2039 97.0928 55.7077 96.7614C56.2148 96.4266 56.7981 96.2592 57.4577 96.2592C58.1172 96.2592 58.6989 96.4266 59.2027 96.7614C59.7065 97.0961 60.1009 97.5601 60.3859 98.1534C60.6743 98.7467 60.8184 99.4344 60.8184 100.217C60.8184 100.992 60.6759 101.677 60.3909 102.27C60.1059 102.86 59.7098 103.322 59.2027 103.657C58.6989 103.992 58.1172 104.159 57.4577 104.159ZM57.4577 103.349C57.988 103.349 58.4371 103.206 58.805 102.921C59.1729 102.636 59.4513 102.257 59.6402 101.783C59.8324 101.309 59.9285 100.787 59.9285 100.217C59.9285 99.6465 59.8324 99.1229 59.6402 98.6456C59.4513 98.1683 59.1729 97.7855 58.805 97.4972C58.4371 97.2088 57.988 97.0646 57.4577 97.0646C56.9307 97.0646 56.4816 97.2088 56.1104 97.4972C55.7425 97.7855 55.4624 98.1683 55.2702 98.6456C55.0812 99.1229 54.9868 99.6465 54.9868 100.217C54.9868 100.787 55.0812 101.309 55.2702 101.783C55.4624 102.257 55.7425 102.636 56.1104 102.921C56.4782 103.206 56.9273 103.349 57.4577 103.349ZM62.8311 106.864V96.3636H63.6912V97.8203H63.7956C63.9016 97.5916 64.0475 97.358 64.2331 97.1193C64.4187 96.8774 64.664 96.6735 64.9689 96.5078C65.2771 96.3421 65.6649 96.2592 66.1322 96.2592C66.762 96.2592 67.3122 96.425 67.7828 96.7564C68.2568 97.0845 68.6247 97.5452 68.8865 98.1385C69.1516 98.7285 69.2842 99.4162 69.2842 100.202C69.2842 100.991 69.1516 101.682 68.8865 102.275C68.6247 102.868 68.2568 103.33 67.7828 103.662C67.3122 103.993 66.7653 104.159 66.1422 104.159C65.6815 104.159 65.2953 104.076 64.9838 103.911C64.6756 103.745 64.4253 103.541 64.2331 103.299C64.0442 103.054 63.8983 102.815 63.7956 102.583H63.716V106.864H62.8311ZM63.7061 100.187C63.7061 100.803 63.7972 101.35 63.9795 101.827C64.1651 102.301 64.4303 102.674 64.775 102.946C65.123 103.214 65.5439 103.349 66.0378 103.349C66.5449 103.349 66.9724 103.21 67.3204 102.931C67.6718 102.649 67.9386 102.27 68.1209 101.793C68.3065 101.315 68.3993 100.78 68.3993 100.187C68.3993 99.6001 68.3081 99.0715 68.1258 98.6009C67.9469 98.1302 67.6817 97.7573 67.3304 97.4822C66.9791 97.2038 66.5482 97.0646 66.0378 97.0646C65.5406 97.0646 65.118 97.1989 64.77 97.4673C64.422 97.7325 64.1569 98.1004 63.9746 98.571C63.7956 99.0384 63.7061 99.5769 63.7061 100.187ZM71.3056 104V96.3636H72.1955V104H71.3056ZM71.758 95.0511C71.5757 95.0511 71.4199 94.9898 71.2907 94.8672C71.1614 94.7412 71.0968 94.5904 71.0968 94.4148C71.0968 94.2391 71.1614 94.09 71.2907 93.9673C71.4199 93.8414 71.5757 93.7784 71.758 93.7784C71.9403 93.7784 72.0961 93.8414 72.2253 93.9673C72.3546 94.09 72.4192 94.2391 72.4192 94.4148C72.4192 94.5904 72.3546 94.7412 72.2253 94.8672C72.0961 94.9898 71.9403 95.0511 71.758 95.0511ZM76.7387 104.174C76.278 104.174 75.857 104.085 75.4759 103.906C75.0947 103.723 74.7915 103.461 74.5661 103.12C74.3407 102.775 74.228 102.358 74.228 101.867C74.228 101.489 74.2993 101.171 74.4418 100.913C74.5843 100.654 74.7865 100.442 75.0483 100.276C75.3102 100.111 75.6201 99.9796 75.978 99.8835C76.336 99.7874 76.7304 99.7128 77.1613 99.6598C77.5888 99.6068 77.9501 99.5604 78.2451 99.5206C78.5434 99.4808 78.7704 99.4179 78.9262 99.3317C79.082 99.2455 79.1598 99.1063 79.1598 98.9141V98.7351C79.1598 98.2147 79.0041 97.8054 78.6925 97.5071C78.3843 97.2055 77.9401 97.0547 77.3601 97.0547C76.8099 97.0547 76.3608 97.1757 76.0128 97.4176C75.6681 97.6596 75.4262 97.9446 75.287 98.2727L74.4468 97.9695C74.6191 97.5518 74.8578 97.2187 75.1627 96.9702C75.4676 96.7183 75.809 96.5376 76.1868 96.4283C76.5647 96.3156 76.9475 96.2592 77.3353 96.2592C77.6269 96.2592 77.9302 96.2973 78.2451 96.3736C78.5632 96.4498 78.8582 96.5824 79.13 96.7713C79.4018 96.9569 79.6222 97.2171 79.7912 97.5518C79.9603 97.8833 80.0448 98.3042 80.0448 98.8146V104H79.1598V102.792H79.1052C78.9991 103.017 78.8417 103.236 78.6329 103.448C78.424 103.66 78.1622 103.834 77.8473 103.97C77.5325 104.106 77.1629 104.174 76.7387 104.174ZM76.858 103.364C77.3286 103.364 77.7363 103.259 78.081 103.05C78.4257 102.842 78.6909 102.565 78.8765 102.22C79.0654 101.872 79.1598 101.489 79.1598 101.072V99.968C79.0936 100.031 78.9825 100.087 78.8267 100.137C78.6743 100.187 78.497 100.232 78.2948 100.271C78.0959 100.308 77.8971 100.339 77.6982 100.366C77.4993 100.392 77.3204 100.415 77.1613 100.435C76.7304 100.488 76.3625 100.571 76.0576 100.684C75.7526 100.797 75.519 100.952 75.3566 101.151C75.1942 101.347 75.113 101.599 75.113 101.907C75.113 102.371 75.2787 102.731 75.6101 102.986C75.9416 103.238 76.3575 103.364 76.858 103.364ZM83.3538 99.2273V104H82.4688V96.3636H83.3289V97.5618H83.4085C83.5874 97.1707 83.8658 96.8575 84.2437 96.6222C84.6248 96.3835 85.0955 96.2642 85.6556 96.2642C86.1694 96.2642 86.6201 96.3719 87.0079 96.5874C87.399 96.7995 87.7023 97.1127 87.9177 97.527C88.1364 97.9413 88.2458 98.45 88.2458 99.0533V104H87.3609V99.108C87.3609 98.4815 87.1852 97.986 86.8339 97.6214C86.4859 97.2569 86.0185 97.0746 85.4319 97.0746C85.0309 97.0746 84.6746 97.1607 84.363 97.3331C84.0515 97.5054 83.8045 97.754 83.6222 98.0788C83.4433 98.4003 83.3538 98.7831 83.3538 99.2273ZM44.3202 112.653V111.818H51.7031V112.653H48.4765V122H47.5468V112.653H44.3202ZM57.4954 119.082V114.364H58.3803V122H57.4954V120.732H57.4258C57.2468 121.123 56.9634 121.45 56.5756 121.712C56.1878 121.97 55.7139 122.099 55.1537 122.099C54.6665 122.099 54.234 121.993 53.8562 121.781C53.4783 121.566 53.1817 121.251 52.9662 120.837C52.7508 120.422 52.6431 119.914 52.6431 119.31V114.364H53.528V119.256C53.528 119.852 53.7037 120.333 54.055 120.697C54.4063 121.059 54.8571 121.239 55.4073 121.239C55.752 121.239 56.0834 121.156 56.4016 120.991C56.7198 120.825 56.9816 120.583 57.1871 120.265C57.3926 119.943 57.4954 119.549 57.4954 119.082ZM60.9771 122V111.818H61.867V115.82H61.9466C62.046 115.592 62.1885 115.356 62.3741 115.114C62.5631 114.872 62.81 114.67 63.1149 114.508C63.4231 114.342 63.8109 114.259 64.2783 114.259C64.9047 114.259 65.4549 114.425 65.9288 114.756C66.4028 115.085 66.7723 115.545 67.0375 116.138C67.3026 116.728 67.4352 117.416 67.4352 118.202C67.4352 118.991 67.3026 119.682 67.0375 120.275C66.7756 120.868 66.4078 121.33 65.9338 121.662C65.4631 121.993 64.9163 122.159 64.2932 122.159C63.8292 122.159 63.4414 122.076 63.1298 121.911C62.8216 121.745 62.573 121.541 62.3841 121.299C62.1952 121.054 62.0493 120.815 61.9466 120.583H61.8372V122H60.9771ZM61.8521 118.187C61.8521 118.803 61.9433 119.35 62.1256 119.827C62.3112 120.301 62.5763 120.674 62.921 120.946C63.269 121.214 63.6899 121.349 64.1838 121.349C64.6909 121.349 65.1201 121.21 65.4714 120.931C65.8228 120.649 66.0896 120.27 66.2719 119.793C66.4542 119.315 66.5453 118.78 66.5453 118.187C66.5453 117.6 66.4542 117.071 66.2719 116.601C66.0929 116.13 65.8277 115.757 65.4764 115.482C65.1251 115.204 64.6942 115.065 64.1838 115.065C63.6866 115.065 63.264 115.199 62.916 115.467C62.5713 115.732 62.3078 116.1 62.1256 116.571C61.9433 117.038 61.8521 117.577 61.8521 118.187ZM72.5365 122.159C71.8239 122.159 71.2074 121.993 70.687 121.662C70.1667 121.327 69.764 120.865 69.4789 120.275C69.1972 119.682 69.0563 118.999 69.0563 118.227C69.0563 117.458 69.1972 116.775 69.4789 116.178C69.764 115.578 70.1567 115.109 70.6572 114.771C71.161 114.43 71.7427 114.259 72.4022 114.259C72.8165 114.259 73.2159 114.335 73.6004 114.488C73.9849 114.637 74.3295 114.867 74.6345 115.179C74.9427 115.487 75.1863 115.877 75.3653 116.347C75.5443 116.815 75.6338 117.368 75.6338 118.008V118.445H69.6679V117.665H74.7289C74.7289 117.174 74.6295 116.733 74.4306 116.342C74.2351 115.948 73.9617 115.636 73.6103 115.408C73.2623 115.179 72.8596 115.065 72.4022 115.065C71.9183 115.065 71.4924 115.194 71.1245 115.452C70.7566 115.711 70.4683 116.052 70.2595 116.477C70.054 116.901 69.9496 117.365 69.9463 117.869V118.336C69.9463 118.942 70.0507 119.473 70.2595 119.927C70.4716 120.378 70.7715 120.727 71.1593 120.976C71.5471 121.224 72.0062 121.349 72.5365 121.349C72.8977 121.349 73.2143 121.292 73.486 121.18C73.7611 121.067 73.9915 120.916 74.1771 120.727C74.366 120.535 74.5085 120.325 74.6046 120.096L75.4448 120.369C75.3288 120.691 75.1383 120.987 74.8731 121.259C74.6113 121.531 74.2831 121.75 73.8887 121.915C73.4976 122.078 73.0469 122.159 72.5365 122.159Z" fill="#212121"/>
</svg>
