<svg width="120" height="144" viewBox="0 0 120 144" fill="none" xmlns="http://www.w3.org/2000/svg">
<rect width="120" height="144" rx="4" fill="#FAFAFA"/>
<g clip-path="url(#clip0_537_8927)">
<path d="M51.0599 47.1507C51.0596 47.1507 51.0592 47.1507 51.059 47.1507H50.4175L50.5769 47.7745C50.9391 49.1926 50.9827 50.6733 50.7047 52.11C50.1956 53.6282 49.1487 54.9081 47.7609 55.7082L47.0238 56.1331L47.7537 56.5703C48.9029 57.2586 49.79 58.3099 50.2752 59.5585C50.7603 60.807 50.8158 62.1815 50.4328 63.4651L50.4271 63.4842L50.423 63.5038C49.8362 66.2555 48.3714 67.8589 46.4323 68.6636C44.4615 69.4814 41.9412 69.4974 39.2407 68.9218C34.8286 67.9582 32.4897 64.1123 31.4028 59.6939C30.3182 55.2847 30.5304 50.4716 31.0911 47.9068C31.6572 45.3174 33.2026 40.7934 35.888 37.212C38.5673 33.6388 42.3053 31.0878 47.3073 32.1607C50.1777 32.7907 52.3806 34.1644 53.7214 36.0015C55.0576 37.8322 55.5684 40.1635 54.9891 42.7855L54.9891 42.7855L54.9881 42.7903C54.5132 45.0431 53.4864 46.1106 52.6337 46.6287C52.1995 46.8926 51.7948 47.0234 51.5022 47.0882C51.3561 47.1206 51.2389 47.1362 51.1614 47.1438C51.1227 47.1475 51.0941 47.1493 51.0769 47.1501L51.0599 47.1507Z" fill="#212121" stroke="#212121"/>
<path d="M68.8107 52.2374C68.5117 50.718 68.5555 49.151 68.9387 47.6507C68.9387 47.6507 65.5254 47.6507 64.5227 42.8934C63.3067 37.3894 66.6561 32.9734 72.5867 31.672C83.1254 29.4107 88.2454 42.5307 89.3974 47.8C90.5494 53.0694 90.2507 67.3627 80.8641 69.4107C75.3601 70.584 70.3254 69.4107 69.0881 63.608C68.6733 62.218 68.7334 60.7295 69.2588 59.3774C69.7842 58.0253 70.7449 56.8867 71.9894 56.1414C70.4862 55.2748 69.3546 53.885 68.8107 52.2374Z" fill="#212121"/>
<path d="M55.5625 58.1466V86.3919H57.6958V58.1466C57.6794 56.6647 57.2774 55.2126 56.5292 53.9332C55.7811 52.6539 54.7127 51.5915 53.4291 50.8506C53.4129 51.2887 53.3558 51.7244 53.2585 52.1519C53.1937 52.4707 53.086 52.7793 52.9385 53.0693C53.7394 53.6544 54.3933 54.4176 54.8487 55.2987C55.3041 56.1799 55.5484 57.1548 55.5625 58.1466Z" fill="#212121"/>
<path d="M64.4585 58.1466V86.3919H62.3252V58.1466C62.3416 56.6647 62.7436 55.2126 63.4918 53.9332C64.2399 52.6539 65.3083 51.5915 66.5919 50.8506C66.5919 51.2773 66.5919 51.7039 66.7625 52.1519C66.8467 52.4651 66.9537 52.7717 67.0825 53.0693C66.2816 53.6544 65.6277 54.4176 65.1723 55.2987C64.7169 56.1799 64.4726 57.1548 64.4585 58.1466Z" fill="black"/>
</g>
<path d="M38.7144 113V102.818H39.6441V108.302H39.7336L44.7052 102.818H45.9282L41.578 107.526L45.9083 113H44.7748L41.0013 108.173L39.6441 109.694V113H38.7144ZM48.0576 113V105.364H48.9476V113H48.0576ZM48.5101 104.051C48.3278 104.051 48.172 103.99 48.0427 103.867C47.9135 103.741 47.8488 103.59 47.8488 103.415C47.8488 103.239 47.9135 103.09 48.0427 102.967C48.172 102.841 48.3278 102.778 48.5101 102.778C48.6923 102.778 48.8481 102.841 48.9774 102.967C49.1066 103.09 49.1713 103.239 49.1713 103.415C49.1713 103.59 49.1066 103.741 48.9774 103.867C48.8481 103.99 48.6923 104.051 48.5101 104.051ZM54.1072 113.159C53.4808 113.159 52.9323 112.993 52.4616 112.662C51.991 112.33 51.6231 111.868 51.3579 111.275C51.0961 110.682 50.9652 109.991 50.9652 109.202C50.9652 108.416 51.0961 107.728 51.3579 107.138C51.6231 106.545 51.9926 106.085 52.4666 105.756C52.9406 105.425 53.4924 105.259 54.1221 105.259C54.5862 105.259 54.9723 105.342 55.2805 105.508C55.5888 105.67 55.8357 105.872 56.0213 106.114C56.2069 106.356 56.3511 106.592 56.4538 106.82H56.5334V102.818H57.4233V113H56.5582V111.583H56.4538C56.3511 111.815 56.2052 112.054 56.0163 112.299C55.8274 112.541 55.5772 112.745 55.2656 112.911C54.9574 113.076 54.5712 113.159 54.1072 113.159ZM54.2116 112.349C54.7055 112.349 55.1264 112.214 55.4744 111.946C55.8224 111.674 56.0876 111.301 56.2699 110.827C56.4555 110.35 56.5483 109.803 56.5483 109.187C56.5483 108.577 56.4571 108.038 56.2748 107.571C56.0925 107.1 55.8274 106.732 55.4794 106.467C55.1314 106.199 54.7088 106.065 54.2116 106.065C53.7012 106.065 53.2703 106.204 52.919 106.482C52.571 106.757 52.3059 107.13 52.1236 107.601C51.9446 108.071 51.8551 108.6 51.8551 109.187C51.8551 109.78 51.9462 110.315 52.1285 110.793C52.3108 111.27 52.576 111.649 52.924 111.931C53.2753 112.21 53.7045 112.349 54.2116 112.349ZM60.8988 108.227V113H60.0139V105.364H60.874V106.562H60.9535C61.1325 106.171 61.4109 105.857 61.7887 105.622C62.1699 105.384 62.6405 105.264 63.2007 105.264C63.7144 105.264 64.1651 105.372 64.5529 105.587C64.944 105.799 65.2473 106.113 65.4627 106.527C65.6815 106.941 65.7909 107.45 65.7909 108.053V113H64.9059V108.108C64.9059 107.482 64.7303 106.986 64.3789 106.621C64.0309 106.257 63.5636 106.075 62.9769 106.075C62.5759 106.075 62.2196 106.161 61.908 106.333C61.5965 106.505 61.3496 106.754 61.1673 107.079C60.9883 107.4 60.8988 107.783 60.8988 108.227ZM71.2787 113.159C70.5661 113.159 69.9496 112.993 69.4292 112.662C68.9089 112.327 68.5062 111.865 68.2211 111.275C67.9394 110.682 67.7985 109.999 67.7985 109.227C67.7985 108.458 67.9394 107.775 68.2211 107.178C68.5062 106.578 68.8989 106.109 69.3994 105.771C69.9032 105.43 70.4849 105.259 71.1444 105.259C71.5587 105.259 71.9581 105.335 72.3426 105.488C72.727 105.637 73.0717 105.867 73.3767 106.179C73.6849 106.487 73.9285 106.877 74.1075 107.347C74.2865 107.815 74.376 108.368 74.376 109.008V109.445H68.41V108.665H73.4711C73.4711 108.174 73.3717 107.733 73.1728 107.342C72.9773 106.948 72.7038 106.636 72.3525 106.408C72.0045 106.179 71.6018 106.065 71.1444 106.065C70.6605 106.065 70.2346 106.194 69.8667 106.452C69.4988 106.711 69.2105 107.052 69.0017 107.477C68.7962 107.901 68.6918 108.365 68.6885 108.869V109.336C68.6885 109.942 68.7929 110.473 69.0017 110.927C69.2138 111.378 69.5137 111.727 69.9015 111.976C70.2893 112.224 70.7483 112.349 71.2787 112.349C71.6399 112.349 71.9564 112.292 72.2282 112.18C72.5033 112.067 72.7337 111.916 72.9193 111.727C73.1082 111.535 73.2507 111.325 73.3468 111.096L74.187 111.369C74.071 111.691 73.8805 111.987 73.6153 112.259C73.3535 112.531 73.0253 112.75 72.6309 112.915C72.2398 113.078 71.7891 113.159 71.2787 113.159ZM76.7801 115.864C76.6045 115.864 76.4404 115.847 76.2879 115.814C76.1355 115.781 76.0145 115.744 75.925 115.705L76.1636 114.924C76.4652 115.017 76.7337 115.05 76.969 115.023C77.2044 115 77.4132 114.894 77.5955 114.705C77.7777 114.52 77.9402 114.235 78.0827 113.85L78.3611 113.075L75.5521 105.364H76.5116L78.7787 111.832H78.8483L81.1153 105.364H82.0749L78.8433 114.208C78.7074 114.576 78.5401 114.883 78.3412 115.128C78.1423 115.376 77.912 115.56 77.6501 115.68C77.3916 115.802 77.1016 115.864 76.7801 115.864Z" fill="#212121"/>
<defs>
<clipPath id="clip0_537_8927">
<rect width="64" height="64" fill="white" transform="translate(28 27)"/>
</clipPath>
</defs>
</svg>
