<svg width="24" height="24" viewBox="0 0 24 24" fill="none" xmlns="http://www.w3.org/2000/svg">
<path d="M17.3733 10.8237C17.2344 10.6699 17.0012 10.6302 16.7878 10.6203C16.5745 10.6203 16.3562 10.65 16.1527 10.5806C15.7409 10.4516 15.5375 10.005 15.2943 9.63783C14.7982 8.86876 13.9497 8.32297 13.0318 8.20885C12.7887 8.17907 12.4959 8.13938 12.3967 7.9161C12.357 7.83671 12.357 7.74244 12.357 7.65313C12.3471 7.4497 12.3074 7.22642 12.1536 7.08749C11.9997 6.95352 11.707 6.96841 11.6375 7.16688C11.578 7.33061 11.707 7.49931 11.7765 7.65313C11.97 8.10961 11.3299 8.19892 11.0372 8.25846C10.5906 8.3577 10.1292 8.39243 9.70245 8.57105C9.14673 8.78441 8.67537 9.21608 8.40247 9.73707C8.24866 10.0298 8.08988 10.4069 7.75744 10.4168C7.60363 10.4168 7.42501 10.3474 7.31585 10.4466C7.18684 10.5558 7.26623 10.7592 7.37539 10.8733C7.48455 10.9924 7.62844 11.1065 7.63836 11.2702C7.63836 11.3794 7.58874 11.4737 7.53913 11.5729C7.05288 12.5156 7.07272 12.9771 7.17692 14.0389C7.27615 15.0015 7.5689 15.4034 7.6334 15.5473C7.69294 15.6812 7.65325 15.84 7.60363 15.9839C7.55401 16.1179 7.48455 16.2667 7.50439 16.4106C7.52424 16.5545 7.65821 16.7034 7.80706 16.6637C7.94599 16.624 7.99065 16.4404 8.08988 16.3412C8.25362 16.1774 8.53644 16.232 8.72499 16.3809C8.89865 16.5247 9.00781 16.7431 9.16658 16.9167C9.57841 17.3931 10.2383 17.5667 10.8734 17.5766C11.4986 17.5965 12.1337 17.4774 12.7589 17.5171H12.8184C12.8184 17.5568 12.8284 17.5965 12.8284 17.6362C12.8284 17.7354 12.7688 17.8098 12.7291 17.8991C12.6894 17.9785 12.6795 18.0728 12.7291 18.1522C12.7887 18.2415 12.9226 18.2614 13.0119 18.2117C13.1112 18.1621 13.1658 18.0678 13.2154 17.9686C13.2848 17.8346 13.3146 17.6858 13.3245 17.5419C13.5776 17.5419 13.8306 17.5221 14.039 17.3881C14.2127 17.269 14.3417 17.1053 14.4955 16.9713C14.818 16.6885 15.2447 16.5744 15.5672 16.3015C15.9295 15.9889 16.1031 15.5125 16.2619 15.0561C16.381 14.9965 16.5149 15.1156 16.6439 15.1255C16.8275 15.1255 16.9466 14.8824 16.8672 14.7087C16.7878 14.5351 16.6042 14.4458 16.4207 14.3962C16.51 13.8107 16.51 13.2103 16.4207 12.6248C16.381 12.3618 16.3214 12.0889 16.371 11.826C16.4306 11.563 16.6439 11.3099 16.9069 11.3199C17.0359 11.3199 17.16 11.3794 17.279 11.3397C17.4825 11.2802 17.5123 10.9676 17.3783 10.8138V10.8336L17.3733 10.8237ZM11.6227 15.2843C10.6551 15.2843 9.86619 14.5053 9.86619 13.5328C9.86619 12.5603 10.6452 11.7813 11.6227 11.7813C12.6001 11.7813 13.3791 12.5603 13.3791 13.5328C13.3791 14.5053 12.6001 15.2843 11.6227 15.2843Z" fill="white"/>
<path d="M4.76824 12.2924H1.03204C1.03204 12.2924 1.00724 12.2974 0.992351 12.3023V11.7218C0.992351 11.4489 0.769072 11.2256 0.496175 11.2256C0.223279 11.2256 0 11.4489 0 11.7218V13.8603C0 14.1332 0.223279 14.3565 0.496175 14.3565C0.769072 14.3565 0.992351 14.1332 0.992351 13.8603V13.2798C0.992351 13.2798 1.01716 13.2897 1.03204 13.2897H4.76824C5.04114 13.2897 5.26442 13.0665 5.26442 12.7936C5.26442 12.5207 5.04114 12.2974 4.76824 12.2974V12.2924Z" fill="white"/>
<path d="M23.5018 11.2253C23.2289 11.2253 23.0057 11.4486 23.0057 11.7215V12.302C23.0057 12.302 22.9809 12.2921 22.966 12.2921H19.2248C18.9519 12.2921 18.7286 12.5154 18.7286 12.7883C18.7286 13.0611 18.9519 13.2844 19.2248 13.2844H22.966C22.966 13.2844 22.9908 13.2795 23.0057 13.2745V13.855C23.0057 14.1279 23.2289 14.3512 23.5018 14.3512C23.7747 14.3512 23.998 14.1279 23.998 13.855V11.7165C23.998 11.4436 23.7747 11.2203 23.5018 11.2203V11.2253Z" fill="white"/>
</svg>
