<svg width="54" height="54" viewBox="0 0 54 54" fill="none" xmlns="http://www.w3.org/2000/svg">
<g clip-path="url(#clip0_1116_9753)">
<path d="M42.4457 16.2224C39.5063 16.5344 34.0656 17.3973 34.5403 23.217C34.7229 26.081 33.9926 28.9266 32.4772 31.3499C31.1992 33.2959 29.3917 34.0119 28.8257 35.1502C28.2598 36.2884 28.6249 41.3921 29.6656 42.4936C30.7063 43.5951 30.2863 48.9375 30.2863 48.9375H32.2946C32.5685 46.6243 32.6598 44.2744 32.605 41.9429C32.6963 35.499 40.4739 20.7569 44.1071 19.3617C46.0789 18.4621 48.2698 18.1684 50.4059 18.4805V17.5625C47.8316 16.6997 45.1478 16.2591 42.4457 16.2224Z" fill="currentColor"/>
<path d="M41.0216 11.1735C35.5444 10.4208 32.7693 6.87756 27.4382 7.74042C22.107 6.87756 19.3137 10.3106 13.8547 11.1735C10.4041 11.9078 6.88041 12.1832 3.375 11.9629L3.52106 15.0655C8.37751 13.3765 23.805 12.5504 27.566 12.5504C31.327 12.5504 45.6955 13.3765 50.4789 15.0105L50.625 12.1465C47.3935 12.1465 44.1802 11.816 41.0216 11.1735Z" fill="currentColor"/>
<path d="M10.7693 19.3066C14.4207 20.7019 22.1618 35.4439 22.2714 41.8878C22.1983 44.2193 22.2896 46.5693 22.5818 48.8825H24.5535C24.5535 48.8825 24.2979 43.3748 25.156 42.4386C26.0141 41.5023 26.5801 36.2884 26.0141 35.0951C25.4482 33.9018 23.6407 33.2592 22.3627 31.2948C20.8108 28.8898 20.0805 26.0259 20.2631 23.1619C20.7195 17.3973 15.2971 16.5344 12.3942 16.2224C9.41821 16.2591 6.46052 16.6997 3.59412 17.5442V18.15C6.0406 17.9664 8.50534 18.352 10.7693 19.3066Z" fill="currentColor"/>
</g>
<defs>
<clipPath id="clip0_1116_9753">
<rect width="47.25" height="41.3438" fill="currentColor" transform="translate(3.375 7.59375)"/>
</clipPath>
</defs>
</svg>
