<?xml version="1.0" encoding="UTF-8" standalone="no"?>
<!DOCTYPE svg PUBLIC "-//W3C//DTD SVG 1.1//EN"
 "http://www.w3.org/Graphics/SVG/1.1/DTD/svg11.dtd">
<!-- Generated by graphviz version 2.47.0 (20210316.0004)
 -->
<!-- Title: dependencies Pages: 1 -->
<svg width="504pt" height="284pt"
 viewBox="0.00 0.00 504.00 284.00" xmlns="http://www.w3.org/2000/svg" xmlns:xlink="http://www.w3.org/1999/xlink">
<g id="graph0" class="graph" transform="scale(1 1) rotate(0) translate(4 280)">
<title>dependencies</title>
<polygon fill="white" stroke="transparent" points="-4,4 -4,-280 500,-280 500,4 -4,4"/>
<text text-anchor="start" x="227.01" y="-42.4" font-family="Times-12" font-weight="bold" font-size="14.00">Legend</text>
<polygon fill="#ffffb3" stroke="transparent" points="14,-10 14,-30 34,-30 34,-10 14,-10"/>
<text text-anchor="start" x="37.63" y="-15.4" font-family="Times-12" font-size="14.00"> &#160;Declarations</text>
<polygon fill="#8dd3c7" stroke="transparent" points="127,-10 127,-30 147,-30 147,-10 127,-10"/>
<text text-anchor="start" x="150.73" y="-15.4" font-family="Times-12" font-size="14.00"> &#160;Module</text>
<polygon fill="#80b1d3" stroke="transparent" points="213,-10 213,-30 233,-30 233,-10 213,-10"/>
<text text-anchor="start" x="236.78" y="-15.4" font-family="Times-12" font-size="14.00"> &#160;Bootstrap</text>
<polygon fill="#fdb462" stroke="transparent" points="310,-10 310,-30 330,-30 330,-10 310,-10"/>
<text text-anchor="start" x="333.67" y="-15.4" font-family="Times-12" font-size="14.00"> &#160;Providers</text>
<polygon fill="#fb8072" stroke="transparent" points="406,-10 406,-30 426,-30 426,-10 406,-10"/>
<text text-anchor="start" x="429.73" y="-15.4" font-family="Times-12" font-size="14.00"> &#160;Exports</text>
<g id="clust1" class="cluster">
<title>cluster_RunSpatialSearchModule</title>
<polygon fill="none" stroke="black" stroke-dasharray="1,5" points="16,-70 16,-268 480,-268 480,-70 16,-70"/>
</g>
<g id="clust4" class="cluster">
<title>cluster_RunSpatialSearchModule_imports</title>
<polygon fill="none" stroke="black" points="230,-78 230,-130 472,-130 472,-78 230,-78"/>
</g>
<g id="clust2" class="cluster">
<title>cluster_RunSpatialSearchModule_declarations</title>
<polygon fill="none" stroke="black" points="24,-78 24,-130 222,-130 222,-78 24,-78"/>
</g>
<g id="clust5" class="cluster">
<title>cluster_RunSpatialSearchModule_exports</title>
<polygon fill="none" stroke="black" points="137,-208 137,-260 339,-260 339,-208 137,-208"/>
</g>
<!-- RunSpatialSearchComponent -->
<g id="node1" class="node">
<title>RunSpatialSearchComponent</title>
<polygon fill="#ffffb3" stroke="black" points="213.64,-122 32.36,-122 32.36,-86 213.64,-86 213.64,-122"/>
<text text-anchor="middle" x="123" y="-99.8" font-family="Times,serif" font-size="14.00">RunSpatialSearchComponent</text>
</g>
<!-- RunSpatialSearchModule -->
<g id="node2" class="node">
<title>RunSpatialSearchModule</title>
<polygon fill="#8dd3c7" stroke="black" points="317.86,-187 314.86,-191 293.86,-191 290.86,-187 158.14,-187 158.14,-151 317.86,-151 317.86,-187"/>
<text text-anchor="middle" x="238" y="-164.8" font-family="Times,serif" font-size="14.00">RunSpatialSearchModule</text>
</g>
<!-- RunSpatialSearchComponent&#45;&gt;RunSpatialSearchModule -->
<g id="edge1" class="edge">
<title>RunSpatialSearchComponent&#45;&gt;RunSpatialSearchModule</title>
<path fill="none" stroke="black" d="M185.95,-122.11C185.95,-122.11 185.95,-140.99 185.95,-140.99"/>
<polygon fill="black" stroke="black" points="182.45,-140.99 185.95,-150.99 189.45,-140.99 182.45,-140.99"/>
</g>
<!-- RunSpatialSearchComponent  -->
<g id="node4" class="node">
<title>RunSpatialSearchComponent </title>
<polygon fill="#fb8072" stroke="black" points="330.64,-252 145.36,-252 145.36,-216 330.64,-216 330.64,-252"/>
<text text-anchor="middle" x="238" y="-229.8" font-family="Times,serif" font-size="14.00">RunSpatialSearchComponent </text>
</g>
<!-- RunSpatialSearchModule&#45;&gt;RunSpatialSearchComponent  -->
<g id="edge3" class="edge">
<title>RunSpatialSearchModule&#45;&gt;RunSpatialSearchComponent </title>
<path fill="none" stroke="black" stroke-dasharray="5,2" d="M238,-187.11C238,-187.11 238,-205.99 238,-205.99"/>
<polygon fill="black" stroke="black" points="234.5,-205.99 238,-215.99 241.5,-205.99 234.5,-205.99"/>
</g>
<!-- SpatialSearchConfigBehaviorModule -->
<g id="node3" class="node">
<title>SpatialSearchConfigBehaviorModule</title>
<polygon fill="#8dd3c7" stroke="black" points="464.23,-122 461.23,-126 440.23,-126 437.23,-122 237.77,-122 237.77,-86 464.23,-86 464.23,-122"/>
<text text-anchor="middle" x="351" y="-99.8" font-family="Times,serif" font-size="14.00">SpatialSearchConfigBehaviorModule</text>
</g>
<!-- SpatialSearchConfigBehaviorModule&#45;&gt;RunSpatialSearchModule -->
<g id="edge2" class="edge">
<title>SpatialSearchConfigBehaviorModule&#45;&gt;RunSpatialSearchModule</title>
<path fill="none" stroke="black" d="M277.78,-122.11C277.78,-122.11 277.78,-140.99 277.78,-140.99"/>
<polygon fill="black" stroke="black" points="274.28,-140.99 277.78,-150.99 281.28,-140.99 274.28,-140.99"/>
</g>
</g>
</svg>
