<svg width="149" height="63" viewBox="0 0 149 63" fill="none" xmlns="http://www.w3.org/2000/svg">
<g clip-path="url(#clip0_12120_54143)">
<path d="M63.9536 30.4119C63.9536 13.6159 49.9904 0 32.7659 0C15.5414 0 1.57812 13.6159 1.57812 30.4119V31.9636C1.57812 48.7596 15.5414 62.3755 32.7659 62.3755C49.9904 62.3755 63.9536 48.7596 63.9536 31.9636V30.4119Z" fill="#FF0043"/>
<path d="M58.697 20.7559C57.2795 17.4883 55.2506 14.5538 52.6667 12.0335C50.0828 9.51332 47.0727 7.53489 43.7217 6.15324C40.2516 4.72223 36.5661 3.99609 32.7671 3.99609C28.9682 3.99609 25.2827 4.7216 21.8125 6.15324C18.4615 7.53552 15.4521 9.51395 12.8676 12.0335C10.283 14.5531 8.25411 17.4883 6.8372 20.7559C5.36966 24.1397 4.625 27.7335 4.625 31.4379C4.625 35.1423 5.36902 38.7361 6.8372 42.1199C8.25475 45.3875 10.2837 48.322 12.8676 50.8422C15.4515 53.3618 18.4615 55.3409 21.8125 56.7225C25.2827 58.1535 28.9682 58.8797 32.7671 58.8797C36.5661 58.8797 40.2516 58.1542 43.7217 56.7225C47.0727 55.3402 50.0828 53.3618 52.6667 50.8422C55.2506 48.322 57.2801 45.3875 58.697 42.1199C60.1646 38.7361 60.9092 35.1423 60.9092 31.4379C60.9092 27.7335 60.1652 24.1397 58.697 20.7559ZM58.9848 31.1879H52.5257C52.5193 30.7024 52.4949 30.22 52.452 29.7407L57.5172 29.2407C57.623 29.2301 57.6999 29.1383 57.689 29.0351C57.6781 28.932 57.5839 28.8564 57.4782 28.8677L52.4148 29.3676C52.1232 26.6874 51.2664 24.1284 49.9008 21.8232L55.4858 18.6868C57.671 22.375 58.9393 26.6412 58.9841 31.1879H58.9848ZM6.54946 31.1879C6.56356 29.7719 6.69621 28.3834 6.93781 27.0311L13.2899 28.1528C13.1156 29.147 13.0214 30.1612 13.0086 31.1879H6.54946ZM13.9243 28.2646L19.7009 29.2851C19.5939 29.9056 19.5317 30.5412 19.5196 31.1879H13.65C13.6635 30.1931 13.7571 29.217 13.925 28.2646H13.9243ZM41.2173 40.2165L39.1705 37.8612C39.5409 37.51 39.8812 37.1288 40.1868 36.7214L42.8464 38.3955C42.3664 39.0548 41.8197 39.664 41.2173 40.2165ZM23.1019 38.9323L25.5807 37.0207C25.8306 37.3257 26.1004 37.615 26.3881 37.8856L24.2644 40.1696C23.8485 39.784 23.4601 39.3703 23.1019 38.9323ZM24.5925 22.4137L26.6361 24.7652C25.1994 26.0219 24.1689 27.7116 23.7639 29.6219L20.6519 29.072C21.1909 26.4449 22.6084 24.1241 24.5918 22.4137H24.5925ZM38.7731 34.5442L39.4749 34.8967C39.1185 35.551 38.6648 36.1477 38.1323 36.667L37.0435 35.4147C37.9855 34.428 38.5822 33.1239 38.6443 31.6872H40.3515C40.3163 32.7108 40.067 33.6825 39.646 34.5611L38.9487 34.2106C38.8545 34.1631 38.7385 34.1993 38.6898 34.2912C38.6411 34.383 38.6783 34.4961 38.7725 34.5436L38.7731 34.5442ZM25.8659 34.518L29.4546 32.852C29.9019 33.845 30.8055 34.5992 31.9052 34.8629L31.2099 38.6823C28.8304 38.1968 26.8572 36.6214 25.8659 34.518ZM27.6718 25.9569L28.6561 27.0892C27.7499 27.881 27.0886 28.942 26.8105 30.16L25.3423 29.9006C25.6787 28.3534 26.5125 26.983 27.6724 25.9569H27.6718ZM26.8098 30.5412C26.8214 30.543 26.8329 30.5443 26.8444 30.5443C26.8841 30.5443 26.9213 30.5318 26.9527 30.5105C27.0187 30.5018 27.0751 30.4537 27.0879 30.3862C27.3283 29.1701 27.9697 28.1109 28.8631 27.3273L30.2428 28.9152C29.6263 29.5013 29.2239 30.2999 29.1598 31.1879H25.1814C25.1923 30.8767 25.2224 30.5699 25.2718 30.2693L26.8098 30.5412ZM35.7137 33.885C35.6458 33.8069 35.5388 33.7794 35.4439 33.8075C35.9739 33.2388 36.3148 32.5008 36.3738 31.6885H38.3245C38.263 33.0295 37.7093 34.248 36.8359 35.176L35.7144 33.8856L35.7137 33.885ZM29.9833 31.4385C29.9833 29.9419 31.2323 28.7239 32.7671 28.7239C34.3019 28.7239 35.551 29.9419 35.551 31.4385C35.551 32.9351 34.3019 34.1531 32.7671 34.1531C31.2323 34.1531 29.9833 32.9351 29.9833 31.4385ZM36.3738 31.1885C36.3347 30.6443 36.1681 30.1343 35.9034 29.6857L37.6029 28.7314C38.0265 29.4638 38.2835 30.2993 38.3245 31.1885H36.3738ZM35.7688 29.4732C35.1184 28.5321 34.0161 27.9116 32.7671 27.9116C31.9699 27.9116 31.2329 28.1647 30.6344 28.5921L29.2598 27.0111C30.2146 26.315 31.3957 25.9075 32.6575 25.9075C34.6858 25.9075 36.4687 26.9511 37.4716 28.5165L35.7682 29.4732H35.7688ZM29.1604 31.6885C29.1841 32.0128 29.2521 32.3252 29.3597 32.6202L25.7633 34.2899C25.4173 33.4844 25.2135 32.6077 25.1821 31.6885H29.1604ZM32.1564 34.9142C32.3551 34.9473 32.5588 34.9654 32.7671 34.9654C33.7386 34.9654 34.6211 34.5892 35.2715 33.9793C35.2498 34.0562 35.2658 34.1424 35.3228 34.2087L36.4712 35.5303C35.7394 36.179 34.8338 36.6445 33.8316 36.8507C33.8213 36.8501 33.8111 36.8507 33.8008 36.852C33.7886 36.8539 33.7771 36.8582 33.7662 36.8639C33.408 36.9332 33.0369 36.9701 32.6582 36.9701C32.5697 36.9701 32.498 37.0401 32.498 37.1263C32.498 37.2126 32.5697 37.2826 32.6582 37.2826C33.0247 37.2826 33.3836 37.2501 33.7329 37.1882L34.0193 38.7386C33.6118 38.8048 33.1939 38.8398 32.7671 38.8398C32.3403 38.8398 31.886 38.8017 31.4617 38.7298L32.1564 34.9142ZM33.9834 37.1382C35.005 36.9126 35.9278 36.4321 36.6782 35.7684L37.7574 37.0101C36.782 37.8418 35.5875 38.4342 34.2705 38.6936L33.9828 37.1376L33.9834 37.1382ZM38.645 31.1892C38.6039 30.2431 38.331 29.3545 37.8804 28.5758L39.3467 27.7522C39.9491 28.7708 40.3099 29.9412 40.3522 31.1892H38.645ZM37.7497 28.3609C36.691 26.7018 34.805 25.5951 32.6582 25.5951C31.3182 25.5951 30.064 26.03 29.0528 26.7724L28.0633 25.6344C29.3572 24.6352 30.992 24.0378 32.7671 24.0378C35.4849 24.0378 37.874 25.4382 39.2147 27.5385L37.7497 28.3609ZM40.2394 26.225L42.8444 24.4784C43.0194 24.719 43.186 24.9658 43.343 25.2189L40.6027 26.758C40.488 26.5762 40.3669 26.3981 40.2394 26.225ZM40.0087 25.9244C39.3044 25.047 38.4361 24.3003 37.4491 23.7285L39.0263 21.0571C40.4214 21.8601 41.6416 22.9224 42.6163 24.1766L40.0087 25.925V25.9244ZM37.1146 23.5435C35.8887 22.8993 34.4968 22.5181 33.0183 22.4787L33.0074 19.3948C35.0633 19.4336 36.998 19.9641 38.6924 20.8708L37.1146 23.5429V23.5435ZM32.5057 22.4793C30.9894 22.5206 29.5642 22.9224 28.3158 23.5985L26.7284 20.9327C28.4408 19.9935 30.4043 19.4398 32.4948 19.3961L32.5057 22.48V22.4793ZM27.9838 23.7873C27.6506 23.986 27.3308 24.2053 27.0271 24.4428L24.9834 22.0913C25.4301 21.737 25.9017 21.4126 26.3965 21.1208L27.9838 23.7866V23.7873ZM23.6947 29.9919C23.6293 30.3831 23.5896 30.783 23.578 31.1892H20.4155C20.4276 30.5955 20.4847 30.0125 20.5827 29.4426L23.694 29.9919H23.6947ZM23.578 31.6891C23.6107 32.8483 23.8703 33.9525 24.315 34.9623L21.4594 36.2883C20.8198 34.8761 20.4507 33.3219 20.4161 31.6891H23.5787H23.578ZM24.4195 35.1904C24.6771 35.7328 24.9885 36.2465 25.3474 36.7239L22.8667 38.6367C22.3617 37.9781 21.9253 37.2676 21.5651 36.5152L24.4195 35.1904ZM26.6707 38.1412C27.8576 39.1685 29.3174 39.9021 30.9298 40.2221L30.3774 43.2578C28.1671 42.8335 26.167 41.8331 24.5483 40.4239L26.6714 38.1412H26.6707ZM31.1817 40.2683C31.6969 40.3558 32.2262 40.402 32.7671 40.402C33.308 40.402 33.8034 40.3583 34.3032 40.2764L34.864 43.311C34.1821 43.4253 33.4817 43.4853 32.7671 43.4853C32.0526 43.4853 31.3239 43.4228 30.6293 43.3041L31.1817 40.2683ZM34.5551 40.2314C36.1553 39.9227 37.6074 39.2079 38.793 38.2018L40.8367 40.5527C39.2345 41.9031 37.2742 42.8591 35.1158 43.266L34.5551 40.2314ZM40.4079 36.4158C40.5854 36.1577 40.7495 35.8897 40.8988 35.6134L43.7089 37.0257C43.5122 37.3913 43.2962 37.7456 43.0636 38.0874L40.4079 36.4158ZM41.0719 35.2785C41.6057 34.1849 41.919 32.9701 41.9556 31.6885H45.1181C45.0803 33.4782 44.6407 35.1735 43.8839 36.6914L41.0725 35.2785H41.0719ZM41.9556 31.1885C41.9517 31.0511 41.9447 30.9148 41.9344 30.7792L45.081 30.4687C45.1002 30.7067 45.113 30.9467 45.1181 31.1885H41.9556ZM41.8979 30.4062C41.7518 29.1676 41.3461 28.0053 40.7348 26.9724L43.4737 25.4339C44.3036 26.8349 44.8516 28.414 45.0438 30.0956L41.8979 30.4062ZM44.2511 24.9971L49.3362 22.1413C50.6333 24.3309 51.4862 26.7999 51.7765 29.4313L45.9365 30.0075C45.7314 28.1997 45.1431 26.5031 44.2511 24.9971ZM44.1203 24.7821C43.9512 24.509 43.7724 24.2422 43.5833 23.9822L48.4185 20.7409C48.696 21.1252 48.9581 21.5207 49.2055 21.9257L44.1203 24.7815V24.7821ZM43.3565 23.6798C42.3055 22.3194 40.9853 21.167 39.4736 20.2984L42.401 15.3392C44.6708 16.6359 46.644 18.3763 48.1936 20.4365L43.3558 23.6798H43.3565ZM39.1397 20.1128C37.3126 19.1311 35.2241 18.5581 33.0042 18.52L32.9844 12.7959C36.277 12.8322 39.3723 13.6833 42.0677 15.153L39.1397 20.1128ZM32.4916 18.5206C30.2383 18.5656 28.1223 19.1618 26.2779 20.176L23.3313 15.2268C26.037 13.7239 29.1527 12.8465 32.4717 12.7972L32.4916 18.5206ZM25.946 20.3647C25.4057 20.6821 24.8905 21.0364 24.4034 21.4239L20.609 17.0583C21.3601 16.4541 22.1592 15.9048 22.9993 15.4161L25.946 20.3647ZM24.0125 21.7476C21.8734 23.5867 20.3462 26.0869 19.7695 28.9177L13.9935 27.8972C14.8177 23.736 17.0638 20.0635 20.2187 17.382L24.0125 21.7476ZM19.5189 31.6891C19.5535 33.4563 19.9534 35.1379 20.6487 36.6645L15.347 39.1254C14.2877 36.852 13.6846 34.3362 13.6488 31.6891H19.5183H19.5189ZM20.7551 36.892C21.1441 37.7037 21.617 38.4705 22.163 39.1797L17.5605 42.7292C16.7428 41.6843 16.0353 40.5526 15.4553 39.3516L20.7545 36.8914L20.7551 36.892ZM22.3989 39.4766C22.7879 39.9527 23.2102 40.4014 23.6626 40.8195L19.7214 45.0575C19.0299 44.4276 18.3865 43.7484 17.797 43.0254L22.3989 39.4766ZM23.9459 41.0726C25.687 42.5904 27.8409 43.6671 30.2204 44.1202L29.1944 49.7568C25.705 49.1113 22.5482 47.5378 20.0047 45.3106L23.9459 41.0726ZM30.4729 44.1664C31.2182 44.2939 31.9853 44.3608 32.7678 44.3608C33.5502 44.3608 34.2904 44.2958 35.0235 44.1727L36.0643 49.8061C34.9928 49.9886 33.8912 50.0842 32.7671 50.0842C31.6431 50.0842 30.5254 49.9874 29.4463 49.8024L30.4722 44.1664H30.4729ZM35.2754 44.1277C37.5927 43.6928 39.6972 42.6686 41.4166 41.2207L45.2098 45.585C42.7175 47.6721 39.6703 49.145 36.3161 49.7612L35.2754 44.1277ZM41.7979 40.8863C42.467 40.2777 43.0719 39.6034 43.6006 38.8723L45.2444 39.9071C45.2764 39.9277 45.313 39.9371 45.3482 39.9371C45.411 39.9371 45.4732 39.9071 45.5097 39.8515C45.5674 39.7646 45.5417 39.6484 45.4527 39.5922L43.8172 38.563C44.0659 38.1968 44.2966 37.8181 44.5068 37.4275L49.7239 40.049C48.6697 42.0155 47.2669 43.7771 45.5949 45.255L41.7986 40.8863H41.7979ZM44.6811 37.0932C45.502 35.4554 45.9775 33.6238 46.0153 31.6897H51.8848C51.8458 34.568 51.1351 37.2901 49.8982 39.7147L44.6811 37.0926V37.0932ZM46.0153 31.1898C46.0102 30.9186 45.9961 30.6493 45.9737 30.3818L51.8137 29.8056C51.8547 30.2624 51.8784 30.7242 51.8848 31.1898H46.0153ZM32.7671 5.87266C42.374 5.87266 50.7909 10.9375 55.3576 18.4725L49.7726 21.6089C49.5176 21.1908 49.2458 20.7815 48.9575 20.3809L53.3139 17.4608C53.4017 17.402 53.4235 17.2852 53.3633 17.2002C53.303 17.1146 53.1832 17.0933 53.096 17.1521L48.7325 20.0772C48.1346 19.2817 47.4701 18.5244 46.7414 17.8138C45.5244 16.6272 44.1755 15.6148 42.7278 14.7887L45.3604 10.3282C45.4136 10.2382 45.3815 10.1238 45.2899 10.072C45.1976 10.0201 45.0803 10.0514 45.0272 10.1407L42.3939 14.6012C39.5453 13.0471 36.3302 12.206 32.9824 12.1716L32.9645 6.98373C32.9645 6.84626 32.8491 6.7344 32.7082 6.7344H32.7075C32.5659 6.7344 32.4518 6.84688 32.4518 6.98498L32.4698 12.1723C29.0976 12.2204 25.8626 13.0865 23.0038 14.6756L20.3033 10.1395C20.2501 10.0501 20.1322 10.0195 20.0406 10.0714C19.9489 10.1232 19.9175 10.2382 19.9707 10.3276L22.6719 14.8643C21.8061 15.368 20.9762 15.9392 20.1892 16.574L16.0224 11.7792C20.5673 8.09168 26.4067 5.87141 32.7678 5.87141L32.7671 5.87266ZM15.6309 12.1041L19.7983 16.8996C19.4542 17.1921 19.119 17.4964 18.7928 17.8138C15.9596 20.5765 14.0935 24.031 13.3585 27.786L7.00639 26.6637C8.12915 20.8933 11.2462 15.8035 15.6309 12.1041ZM6.54946 31.6897H13.0086C13.0438 34.3918 13.6456 37.0051 14.7593 39.3991L8.9379 42.1011C7.43768 38.9254 6.58599 35.401 6.54946 31.6897ZM9.0462 42.328L14.8664 39.6265C15.4598 40.8582 16.191 42.0299 17.0497 43.1241L12.8612 46.3542C12.7778 46.4186 12.7637 46.5367 12.8298 46.6173C12.8676 46.6642 12.924 46.6885 12.9804 46.6885C13.022 46.6885 13.0643 46.6754 13.0995 46.6479L17.2862 43.4191C17.7534 43.9908 18.2552 44.5407 18.7928 45.0657C18.9543 45.2231 19.1184 45.3756 19.2844 45.5268L15.5719 49.5187C15.5008 49.5956 15.5066 49.7137 15.5854 49.7836C15.6219 49.8161 15.6687 49.8324 15.7142 49.8324C15.7668 49.8324 15.8187 49.8118 15.8565 49.7711L19.567 45.7812C22.2758 48.1577 25.5499 49.7299 29.081 50.3761L27.9524 56.5744C19.5753 55.0528 12.5862 49.6343 9.04491 42.328H9.0462ZM28.2056 56.6194L29.3335 50.4217C30.4562 50.6123 31.6033 50.7097 32.7665 50.7097C33.9296 50.7097 35.062 50.6135 36.1777 50.4254L37.3223 56.62C35.8425 56.8737 34.3199 57.0068 32.7665 57.0068C31.2131 57.0068 29.6872 56.8737 28.2049 56.6194H28.2056ZM37.5747 56.5757L36.4302 50.3804C39.8254 49.763 42.9828 48.2901 45.6302 46.0699L47.7597 48.5201C47.8103 48.5782 47.8828 48.6082 47.9552 48.6082C48.0135 48.6082 48.0725 48.5888 48.1205 48.5488C48.2288 48.4595 48.2416 48.302 48.1506 48.1964L46.0147 45.7387C46.2614 45.5206 46.503 45.2969 46.7401 45.0657C48.1878 43.654 49.3823 42.0612 50.3032 40.3408L51.4375 40.9107C51.4657 40.9251 51.4958 40.9313 51.5253 40.9313C51.5952 40.9313 51.6625 40.8945 51.6964 40.8295C51.7451 40.7376 51.708 40.6245 51.6138 40.577L50.4788 40.0065C51.7823 37.45 52.4879 34.6224 52.5257 31.6897H58.9848C58.8624 44.0752 49.663 54.3816 37.5747 56.575V56.5757Z" fill="url(#paint0_linear_12120_54143)"/>
<path d="M80.4706 6.80469V17.5793H79.2662V12.6726H73.0014V17.5793H71.7969V6.80469H73.0014V11.5091H79.2662V6.80469H80.4706Z" fill="currentColor"/>
<path d="M89.6594 9.47207V17.5801H88.4976V16.2794C88.0344 17.1393 87.0009 17.768 85.8677 17.768C84.1073 17.768 82.8672 16.4673 82.8672 14.6317V9.47207H84.0289V14.4728C84.0289 15.788 84.8485 16.713 86.0245 16.713C87.3716 16.713 88.4976 15.7591 88.4976 14.6245V9.46484H89.6594V9.47207Z" fill="currentColor"/>
<path d="M103.512 12.4195V17.5792H102.351V12.5785C102.351 11.2632 101.595 10.3383 100.512 10.3383C99.2433 10.3383 98.3452 11.1982 98.3452 12.4267V17.5864H97.1835V12.5857C97.1835 11.2705 96.428 10.3455 95.3447 10.3455C94.0761 10.3455 93.178 11.2054 93.178 12.4339V17.5936H92.0234V9.47109H93.1852V10.6635C93.5843 9.81796 94.4538 9.2832 95.5015 9.2832C96.706 9.2832 97.6539 9.95526 98.0815 11.0103C98.4094 9.96249 99.4571 9.2832 100.662 9.2832C102.336 9.2832 103.512 10.584 103.512 12.4195Z" fill="currentColor"/>
<path d="M112.36 12.6369V17.5725H111.198V16.3007C110.628 17.2546 109.438 17.7604 108.383 17.7604C106.701 17.7604 105.461 16.7704 105.461 15.1734C105.461 13.5619 106.886 12.4779 108.597 12.4779C109.466 12.4779 110.379 12.6658 111.198 12.9332V12.6369C111.198 11.5385 110.764 10.2883 109.032 10.2883C108.226 10.2883 107.421 10.6496 106.694 11.0254L106.231 10.0715C107.378 9.49338 108.333 9.29104 109.11 9.29104C111.291 9.28382 112.36 10.6785 112.36 12.6369ZM111.198 15.0361V13.8003C110.471 13.598 109.652 13.4679 108.789 13.4679C107.599 13.4679 106.594 14.1544 106.594 15.13C106.594 16.1345 107.457 16.727 108.59 16.727C109.637 16.7343 110.892 16.1851 111.198 15.0361Z" fill="currentColor"/>
<path d="M121.527 12.4195V17.5792H120.365V12.5785C120.365 11.2632 119.545 10.3383 118.369 10.3383C117.022 10.3383 115.896 11.2922 115.896 12.4267V17.5864H114.734V9.47109H115.896V10.7718C116.359 9.9119 117.393 9.2832 118.526 9.2832C120.286 9.2832 121.527 10.584 121.527 12.4195Z" fill="currentColor"/>
<path d="M77.1273 32.4087L79.8784 36.3904H78.5029L75.8088 32.5171H72.9936V36.3904H71.7891V25.623H76.101C78.2962 25.623 80.0138 27.0467 80.0138 29.0701C80.0209 30.7683 78.8165 32.0546 77.1273 32.4087ZM73.0007 31.3608H75.8943C77.6262 31.3608 78.8022 30.5153 78.8022 29.0701C78.8022 27.6248 77.6262 26.7793 75.8943 26.7793H73.0007V31.3608Z" fill="currentColor"/>
<path d="M87.9249 34.562L88.6376 35.328C87.9391 36.094 86.5351 36.5854 85.4232 36.5854C83.2922 36.5854 81.375 34.8149 81.375 32.3218C81.375 29.9082 83.171 28.1016 85.3163 28.1016C87.7253 28.1016 89.108 29.9515 89.108 32.7915H82.5652C82.7363 34.3741 83.8339 35.5376 85.409 35.5376C86.3498 35.5303 87.426 35.1112 87.9249 34.562ZM82.5724 31.7365H87.9534C87.7966 30.2767 86.9484 29.1494 85.352 29.1494C83.9337 29.1494 82.7933 30.1683 82.5724 31.7365Z" fill="currentColor"/>
<path d="M92.8067 28.289H94.7738V29.3368H92.8067V36.3898H91.645V29.3368H90.3906V28.289H91.645V27.1761C91.645 25.9693 92.4504 25.1094 93.5907 25.1094C94.1324 25.1094 94.6598 25.2973 95.0732 25.6297L94.503 26.4896C94.332 26.3017 94.0255 26.1572 93.6691 26.1572C93.2059 26.1572 92.7996 26.5836 92.7996 27.1761V28.289H92.8067Z" fill="currentColor"/>
<path d="M102.55 34.562L103.263 35.328C102.564 36.094 101.16 36.5854 100.048 36.5854C97.9172 36.5854 96 34.8149 96 32.3218C96 29.9082 97.796 28.1016 99.9413 28.1016C102.35 28.1016 103.733 29.9515 103.733 32.7915H97.1902C97.3613 34.3741 98.4589 35.5376 100.034 35.5376C100.975 35.5303 102.058 35.1112 102.55 34.562ZM97.2045 31.7365H102.585C102.429 30.2767 101.581 29.1494 99.9841 29.1494C98.5658 29.1494 97.4183 30.1683 97.2045 31.7365Z" fill="currentColor"/>
<path d="M109.989 28.1016V29.1494C108.179 29.1494 106.896 30.2767 106.896 31.8593V36.3903H105.734V28.2894H106.896V29.872C107.374 28.7881 108.521 28.1016 109.989 28.1016Z" fill="currentColor"/>
<path d="M117.722 34.562L118.434 35.328C117.736 36.094 116.332 36.5854 115.22 36.5854C113.089 36.5854 111.172 34.8149 111.172 32.3218C111.172 29.9082 112.968 28.1016 115.113 28.1016C117.522 28.1016 118.905 29.9515 118.905 32.7915H112.362C112.533 34.3741 113.631 35.5376 115.206 35.5376C116.14 35.5303 117.223 35.1112 117.722 34.562ZM112.369 31.7365H117.75C117.593 30.2767 116.745 29.1494 115.156 29.1494C113.731 29.1494 112.583 30.1683 112.369 31.7365Z" fill="currentColor"/>
<path d="M127.605 31.2378V36.3975H126.444V31.3968C126.444 30.0816 125.624 29.1566 124.448 29.1566C123.101 29.1566 121.975 30.1105 121.975 31.2451V36.4047H120.82V28.2894H121.982V29.5902C122.445 28.7303 123.479 28.1016 124.612 28.1016C126.372 28.1016 127.605 29.4023 127.605 31.2378Z" fill="currentColor"/>
<path d="M129.523 32.3363C129.523 30.031 131.426 28.1016 133.664 28.1016C134.748 28.1016 135.753 28.5568 136.508 29.2939L135.703 30.0961C135.175 29.5179 134.448 29.1566 133.664 29.1566C132.075 29.1566 130.742 30.6164 130.742 32.3363C130.742 34.0778 132.075 35.5376 133.664 35.5376C134.47 35.5376 135.211 35.1618 135.753 34.5475L136.558 35.3497C135.802 36.1157 134.776 36.5854 133.664 36.5854C131.426 36.5854 129.523 34.6415 129.523 32.3363Z" fill="currentColor"/>
<path d="M144.456 34.562L145.169 35.328C144.47 36.094 143.066 36.5854 141.954 36.5854C139.823 36.5854 137.906 34.8149 137.906 32.3218C137.906 29.9082 139.702 28.1016 141.848 28.1016C144.257 28.1016 145.639 29.9515 145.639 32.7915H139.096C139.268 34.3741 140.365 35.5376 141.94 35.5376C142.881 35.5303 143.964 35.1112 144.456 34.562ZM139.104 31.7365H144.485C144.328 30.2767 143.48 29.1494 141.89 29.1494C140.465 29.1494 139.325 30.1683 139.104 31.7365Z" fill="currentColor"/>
<path d="M79.3735 52.7637H73.4508L72.3817 55.2063H71.0703L75.7529 44.4316H77.0643L81.7468 55.2063H80.4354L79.3735 52.7637ZM78.8817 51.6003L76.4228 45.942L73.9497 51.6003H78.8817Z" fill="currentColor"/>
<path d="M87.5029 54.8828C87.0824 55.2152 86.5621 55.4031 86.0204 55.4031C84.8729 55.4031 84.0747 54.5432 84.0747 53.3364V48.1622H82.8203V47.1144H84.0747V44.8887H85.2364V47.1144H87.2035V48.1622H85.2364V53.3364C85.2364 53.9289 85.6355 54.3553 86.1059 54.3553C86.4623 54.3553 86.7688 54.2108 86.9398 54.0229L87.5029 54.8828Z" fill="currentColor"/>
<path d="M89.1484 44.252H90.3102V55.2145H89.1484V44.252Z" fill="currentColor"/>
<path d="M99.1491 50.2717V55.2074H97.9874V53.9355C97.4172 54.8894 96.227 55.3953 95.1721 55.3953C93.4901 55.3953 92.25 54.4052 92.25 52.8082C92.25 51.1967 93.6754 50.1127 95.386 50.1127C96.2483 50.1127 97.1677 50.3006 97.9874 50.568V50.2717C97.9874 49.1733 97.5526 47.9231 95.8207 47.9231C95.0153 47.9231 94.21 48.2845 93.483 48.6602L93.0197 47.7063C94.1672 47.1282 95.1223 46.9259 95.8991 46.9259C98.08 46.9114 99.1491 48.3134 99.1491 50.2717ZM97.9874 52.6709V51.4352C97.2604 51.2328 96.4408 51.1028 95.5784 51.1028C94.3882 51.1028 93.3832 51.7893 93.3832 52.7649C93.3832 53.7693 94.2527 54.3619 95.3788 54.3619C96.4265 54.3619 97.6809 53.8127 97.9874 52.6709Z" fill="currentColor"/>
<path d="M101.039 54.1891L101.645 53.3292C102.557 54.0012 103.469 54.3481 104.353 54.3481C105.408 54.3481 106.114 53.8495 106.114 53.0763C106.114 52.1946 105.187 51.9128 104.104 51.6021C102.172 51.0384 101.431 50.4603 101.431 49.2968C101.431 47.8226 102.636 46.9121 104.232 46.9121C105.223 46.9121 106.242 47.259 107.09 47.8226L106.534 48.7332C105.729 48.2129 104.945 47.9672 104.232 47.9672C103.334 47.9672 102.593 48.3718 102.593 49.1595C102.593 49.8677 103.177 50.0845 104.667 50.5687C105.95 50.9734 107.282 51.4142 107.282 52.9534C107.282 54.4421 106.014 55.3959 104.36 55.3959C103.234 55.3959 101.994 54.9768 101.039 54.1891Z" fill="currentColor"/>
</g>
<defs>
<linearGradient id="paint0_linear_12120_54143" x1="8.38933" y1="45.1613" x2="56.5222" y2="16.6627" gradientUnits="userSpaceOnUse">
<stop offset="0.12" stop-color="white" stop-opacity="0"/>
<stop offset="0.44" stop-color="white"/>
</linearGradient>
<clipPath id="clip0_12120_54143">
<rect width="148" height="62.3755" fill="white" transform="translate(0.5)"/>
</clipPath>
</defs>
</svg>
