<svg width="116" height="48" viewBox="0 0 116 48" fill="none" xmlns="http://www.w3.org/2000/svg">
<g clip-path="url(#clip0_2379_1338)">
<path d="M26.5 48C39.7548 48 50.5 37.2548 50.5 24C50.5 10.7452 39.7548 0 26.5 0C13.2452 0 2.5 10.7452 2.5 24C2.5 37.2548 13.2452 48 26.5 48Z" fill="#FF0043"/>
<path d="M26.5 3.40479C15.1432 3.40479 5.90472 12.6443 5.90472 24C5.90472 35.3558 15.1442 44.5953 26.5 44.5953C37.8557 44.5953 47.0952 35.3558 47.0952 24C47.0952 12.6443 37.8567 3.40479 26.5 3.40479ZM45.2157 23.6054H40.1624C40.0854 20.8962 39.2153 18.3814 37.7768 16.2858L41.4489 13.7611C41.5841 13.6684 41.6176 13.4839 41.5249 13.3497C41.4321 13.2145 41.2477 13.181 41.1135 13.2737L37.4325 15.8044C36.3729 14.3945 35.0479 13.1958 33.5324 12.2832L35.7454 8.41967C35.8263 8.2776 35.7779 8.09705 35.6359 8.01615C35.4938 7.93426 35.3133 7.98458 35.2324 8.12566L33.0204 11.9892C31.1834 10.9888 29.0928 10.3968 26.8719 10.3376L26.8542 5.86142C26.8542 5.64436 26.6766 5.46875 26.4595 5.46875H26.4576C26.2395 5.46875 26.0639 5.64732 26.0649 5.86536L26.0826 10.3406C23.0232 10.4333 20.2134 11.5363 17.9758 13.327L14.7101 9.47335C17.9314 6.85393 22.0366 5.2813 26.5019 5.2813C36.6925 5.2813 45.0066 13.4661 45.2177 23.6074L45.2157 23.6054ZM35.2531 33.3037L32.4334 29.9759C33.0056 29.4086 33.4959 28.7594 33.8876 28.048L37.759 30.043C37.102 31.2614 36.2535 32.3615 35.2531 33.3027V33.3037ZM14.9706 29.5131L18.9022 27.6416C19.3205 28.5108 19.8829 29.2971 20.5597 29.9699L17.6433 33.206C16.5462 32.1503 15.6375 30.9013 14.9706 29.5141V29.5131ZM7.78419 24.3947H12.8376C12.8898 26.2199 13.3013 27.9563 14.0037 29.5358L9.44069 31.7083C8.4245 29.4697 7.83846 26.9963 7.78419 24.3947ZM17.9462 14.5129L20.7629 17.8368C19.2001 19.292 18.1899 21.3323 18.0843 23.6054H13.7265C13.836 20.0033 15.4441 16.7712 17.9462 14.5129ZM26.5 31.0443C26.1211 31.0443 25.7502 31.0138 25.3871 30.9556L26.1103 26.8799C26.2375 26.8967 26.3678 26.9066 26.499 26.9066C27.1689 26.9066 27.7855 26.6786 28.2778 26.2958L29.3246 27.5311C28.5334 28.1842 27.5191 28.5779 26.4151 28.5779C26.279 28.5779 26.1685 28.6884 26.1685 28.8245C26.1685 28.9607 26.279 29.0711 26.4151 29.0711C27.6405 29.0711 28.7662 28.6341 29.6433 27.908L30.9535 29.454C29.739 30.4484 28.188 31.0453 26.499 31.0453L26.5 31.0443ZM20.1492 27.0476L23.8855 25.2688C24.2466 26.0107 24.9155 26.576 25.7245 26.801L25.0003 30.8825C22.8594 30.4159 21.0786 28.9755 20.1502 27.0486L20.1492 27.0476ZM21.6568 18.8914L22.8949 20.3516C22.1639 21.056 21.639 21.9815 21.4367 23.0351C21.4111 23.1693 21.4989 23.2986 21.6321 23.3242C21.7663 23.3499 21.8955 23.2621 21.9212 23.1289C22.1017 22.1886 22.5664 21.3619 23.2146 20.7285L24.3403 22.0574C23.9595 22.4797 23.702 23.0144 23.6211 23.6054H19.4675C19.5701 21.7535 20.3919 20.0921 21.6568 18.8914ZM29.8899 26.9756L28.8343 25.7305C29.1194 25.3467 29.3118 24.8909 29.3799 24.3947H30.9762C30.8923 25.3754 30.4977 26.2692 29.8909 26.9756H29.8899ZM24.7774 24C24.7774 23.0499 25.5499 22.2774 26.5 22.2774C27.4501 22.2774 28.2226 23.0499 28.2226 24C28.2226 24.9501 27.4501 25.7226 26.5 25.7226C25.5499 25.7226 24.7774 24.9501 24.7774 24ZM29.3789 23.6054C29.1855 22.1886 27.969 21.0935 26.5 21.0935C25.9268 21.0935 25.393 21.2602 24.9421 21.5473L23.8233 20.2273C24.5662 19.7172 25.4621 19.4222 26.4151 19.4222C28.8057 19.4222 30.7739 21.2652 30.9742 23.6054H29.3779H29.3789ZM23.6211 24.3947C23.6448 24.5693 23.6842 24.739 23.7375 24.9028L19.9894 26.6875C19.6944 25.9742 19.5119 25.2027 19.4675 24.3957H23.6211V24.3947ZM30.2125 27.3564C30.4503 27.0871 30.6605 26.7931 30.838 26.4774L32.6583 27.4156C32.3515 27.9662 31.9736 28.4713 31.5366 28.9182L30.2125 27.3564ZM31.0975 25.9456C31.2998 25.4622 31.427 24.9403 31.4695 24.3947H33.5324C33.4831 25.2787 33.27 26.1183 32.9227 26.8858L31.0975 25.9446V25.9456ZM31.4695 23.6054C31.2672 20.9929 29.0789 18.9289 26.4151 18.9289C25.3417 18.9289 24.3334 19.2673 23.5037 19.8494L22.2576 18.3794C23.4386 17.4855 24.9076 16.9547 26.499 16.9547C28.783 16.9547 30.8144 18.0479 32.1029 19.7369C32.1108 19.7596 32.1216 19.7823 32.1364 19.803C32.1542 19.8297 32.1769 19.8504 32.2005 19.8691C32.9721 20.9307 33.4545 22.2143 33.5315 23.6044H31.4685L31.4695 23.6054ZM30.9259 16.8344L33.0905 13.0537C34.4914 13.9002 35.7168 15.0072 36.6994 16.3085L33.1052 18.7799C32.4975 18.0124 31.7605 17.3523 30.9249 16.8354L30.9259 16.8344ZM30.4118 16.5413C29.3503 15.9829 28.1575 15.6426 26.8907 15.5853L26.8729 11.2265C28.9319 11.2857 30.8706 11.8343 32.5764 12.7607L30.4109 16.5423L30.4118 16.5413ZM26.1014 15.5843C24.3235 15.6672 22.6897 16.3056 21.3657 17.3267L18.549 14.0028C20.6317 12.3424 23.2422 11.3193 26.0846 11.2275L26.1024 15.5853L26.1014 15.5843ZM13.7265 24.3947H18.0843C18.1316 25.4138 18.3605 26.3876 18.7394 27.2815L14.8058 29.154C14.1576 27.6899 13.7778 26.0827 13.7255 24.3947H13.7265ZM20.9957 30.3705C22.0544 31.2861 23.3409 31.9441 24.7586 32.2431L23.997 36.5328C21.7604 36.0869 19.7319 35.0549 18.0794 33.6046L20.9957 30.3695V30.3705ZM25.1464 32.3151C25.5874 32.3871 26.0392 32.4256 26.5 32.4256C26.9607 32.4256 27.3919 32.3891 27.823 32.321L28.5955 36.6078C27.9138 36.7212 27.2143 36.7804 26.5 36.7804C25.7857 36.7804 25.0734 36.7193 24.3847 36.6048L25.1464 32.3161V32.3151ZM28.2107 32.251C29.5703 31.9698 30.8114 31.3591 31.8464 30.5067L34.6611 33.8275C33.053 35.1654 31.1123 36.1165 28.9832 36.5377L28.2107 32.251ZM34.152 27.5192C34.595 26.5603 34.8634 25.5056 34.9157 24.3947H39.2735C39.2172 26.2238 38.7762 27.9573 38.0274 29.5161L34.152 27.5192ZM34.9157 23.6054C34.8407 21.9972 34.3138 20.5055 33.4585 19.2555L37.0457 16.789C38.3855 18.7415 39.1965 21.0827 39.2735 23.6054H34.9157ZM14.1063 9.98244L17.372 13.8361C14.6776 16.2582 12.9481 19.733 12.8376 23.6054H7.78419C7.89667 18.19 10.3207 13.3329 14.1063 9.98244ZM9.60842 32.0665L14.1695 29.895C14.8857 31.3877 15.8664 32.7314 17.0484 33.865L13.9475 37.3053C13.838 37.4267 13.8478 37.6141 13.9692 37.7236C14.0254 37.7749 14.0965 37.7996 14.1675 37.7996C14.2484 37.7996 14.3293 37.767 14.3875 37.7019L17.4854 34.2656C19.2593 35.8254 21.4377 36.9334 23.8421 37.4089L22.9591 42.3843C17.0592 41.2497 12.1361 37.3379 9.60842 32.0665ZM23.3468 42.4544L24.2298 37.4789C24.9688 37.6033 25.7265 37.6684 26.5 37.6684C27.2735 37.6684 28.0193 37.6042 28.7524 37.4819L29.6482 42.4544C28.6241 42.629 27.5724 42.7207 26.5 42.7207C25.4275 42.7207 24.3719 42.628 23.3468 42.4534V42.4544ZM30.0369 42.3843L29.1411 37.4119C31.427 36.963 33.5107 35.9418 35.2353 34.5044L37.1838 36.8031C37.2618 36.8949 37.3733 36.9422 37.4848 36.9422C37.5745 36.9422 37.6653 36.9116 37.7393 36.8485C37.906 36.7074 37.9258 36.4588 37.7857 36.2921L35.8263 33.9805C36.9145 32.9633 37.836 31.7715 38.5463 30.4494L39.9305 31.1627C39.974 31.1854 40.0203 31.1953 40.0657 31.1953C40.1732 31.1953 40.2768 31.1371 40.3291 31.0345C40.4041 30.8895 40.3469 30.7109 40.2019 30.6359L38.8157 29.9216C39.6277 28.2404 40.1042 26.3679 40.1614 24.3927H45.2148C45.0293 33.3303 38.5483 40.7475 30.0359 42.3823L30.0369 42.3843Z" fill="url(#paint0_linear_2379_1338)"/>
</g>
<path d="M61.244 4.756H62.18V13H61.244V9.244H56.384V13H55.448V4.756H56.384V8.356H61.244V4.756ZM68.405 6.796H69.305V13H68.405V12.004C68.045 12.664 67.241 13.144 66.365 13.144C64.997 13.144 64.037 12.148 64.037 10.744V6.796H64.937V10.624C64.937 11.632 65.573 12.34 66.485 12.34C67.529 12.34 68.405 11.608 68.405 10.744V6.796ZM77.8466 6.652C79.1426 6.652 80.0546 7.648 80.0546 9.052V13H79.1546V9.172C79.1546 8.164 78.5666 7.456 77.7266 7.456C76.7426 7.456 76.0466 8.116 76.0466 9.052V13H75.1466V9.172C75.1466 8.164 74.5586 7.456 73.7186 7.456C72.7346 7.456 72.0386 8.116 72.0386 9.052V13H71.1386V6.796H72.0386V7.708C72.3506 7.06 73.0226 6.652 73.8386 6.652C74.7746 6.652 75.5066 7.168 75.8426 7.972C76.0946 7.168 76.9106 6.652 77.8466 6.652ZM84.3929 6.652C86.0849 6.652 86.9129 7.72 86.9129 9.22V13H86.0129V12.028C85.5689 12.76 84.6449 13.144 83.8289 13.144C82.5209 13.144 81.5609 12.388 81.5609 11.164C81.5609 9.928 82.6649 9.1 83.9969 9.1C84.6689 9.1 85.3769 9.244 86.0129 9.448V9.22C86.0129 8.38 85.6769 7.42 84.3329 7.42C83.7089 7.42 83.0849 7.696 82.5209 7.984L82.1609 7.252C83.0489 6.808 83.7929 6.652 84.3929 6.652ZM83.9849 12.352C84.8009 12.352 85.7729 11.932 86.0129 11.056V10.108C85.4489 9.952 84.8129 9.856 84.1409 9.856C83.2169 9.856 82.4369 10.384 82.4369 11.128C82.4369 11.896 83.1089 12.352 83.9849 12.352ZM91.7038 6.652C93.0718 6.652 94.0318 7.648 94.0318 9.052V13H93.1318V9.172C93.1318 8.164 92.4958 7.456 91.5838 7.456C90.5398 7.456 89.6638 8.188 89.6638 9.052V13H88.7638V6.796H89.6638V7.792C90.0238 7.132 90.8278 6.652 91.7038 6.652Z" fill="currentColor"/>
<path d="M61.832 21.396C61.832 22.692 60.896 23.676 59.588 23.952L61.724 27H60.656L58.568 24.036H56.384V27H55.448V18.756H58.796C60.5 18.756 61.832 19.848 61.832 21.396ZM56.384 19.644V23.148H58.628C59.972 23.148 60.884 22.5 60.884 21.396C60.884 20.292 59.972 19.644 58.628 19.644H56.384ZM66.0127 26.34C66.7447 26.34 67.5847 26.016 67.9687 25.596L68.5207 26.184C67.9807 26.772 66.8887 27.144 66.0247 27.144C64.3687 27.144 62.8807 25.788 62.8807 23.88C62.8807 22.032 64.2727 20.652 65.9407 20.652C67.8127 20.652 68.8807 22.068 68.8807 24.24H63.8047C63.9367 25.452 64.7887 26.34 66.0127 26.34ZM65.9767 21.456C64.8727 21.456 63.9847 22.236 63.8167 23.436H67.9927C67.8727 22.32 67.2127 21.456 65.9767 21.456ZM71.7574 19.944V20.796H73.2814V21.6H71.7574V27H70.8574V21.6H69.8854V20.796H70.8574V19.944C70.8574 19.02 71.4814 18.36 72.3694 18.36C72.7894 18.36 73.1974 18.504 73.5214 18.756L73.0774 19.416C72.9454 19.272 72.7054 19.164 72.4294 19.164C72.0694 19.164 71.7574 19.488 71.7574 19.944ZM77.3564 26.34C78.0884 26.34 78.9284 26.016 79.3124 25.596L79.8644 26.184C79.3244 26.772 78.2324 27.144 77.3684 27.144C75.7124 27.144 74.2244 25.788 74.2244 23.88C74.2244 22.032 75.6164 20.652 77.2844 20.652C79.1564 20.652 80.2244 22.068 80.2244 24.24H75.1484C75.2804 25.452 76.1324 26.34 77.3564 26.34ZM77.3204 21.456C76.2164 21.456 75.3284 22.236 75.1604 23.436H79.3364C79.2164 22.32 78.5564 21.456 77.3204 21.456ZM82.6812 22.008C83.0532 21.18 83.9412 20.652 85.0812 20.652V21.456C83.6772 21.456 82.6812 22.32 82.6812 23.532V27H81.7812V20.796H82.6812V22.008ZM89.1221 26.34C89.8541 26.34 90.6941 26.016 91.0781 25.596L91.6301 26.184C91.0901 26.772 89.9981 27.144 89.1341 27.144C87.4781 27.144 85.9901 25.788 85.9901 23.88C85.9901 22.032 87.3821 20.652 89.0501 20.652C90.9221 20.652 91.9901 22.068 91.9901 24.24H86.9141C87.0461 25.452 87.8981 26.34 89.1221 26.34ZM89.0861 21.456C87.9821 21.456 87.0941 22.236 86.9261 23.436H91.1021C90.9821 22.32 90.3221 21.456 89.0861 21.456ZM96.4148 20.652C97.7828 20.652 98.7428 21.648 98.7428 23.052V27H97.8428V23.172C97.8428 22.164 97.2068 21.456 96.2948 21.456C95.2508 21.456 94.3748 22.188 94.3748 23.052V27H93.4748V20.796H94.3748V21.792C94.7348 21.132 95.5388 20.652 96.4148 20.652ZM103.444 27.144C101.704 27.144 100.228 25.656 100.228 23.892C100.228 22.128 101.704 20.652 103.444 20.652C104.284 20.652 105.064 21 105.652 21.564L105.028 22.176C104.62 21.732 104.056 21.456 103.444 21.456C102.208 21.456 101.176 22.572 101.176 23.892C101.176 25.224 102.208 26.34 103.444 26.34C104.068 26.34 104.644 26.052 105.064 25.584L105.688 26.196C105.1 26.784 104.308 27.144 103.444 27.144ZM109.864 26.34C110.596 26.34 111.436 26.016 111.82 25.596L112.372 26.184C111.832 26.772 110.74 27.144 109.876 27.144C108.22 27.144 106.732 25.788 106.732 23.88C106.732 22.032 108.124 20.652 109.792 20.652C111.664 20.652 112.732 22.068 112.732 24.24H107.656C107.788 25.452 108.64 26.34 109.864 26.34ZM109.828 21.456C108.724 21.456 107.836 22.236 107.668 23.436H111.844C111.724 22.32 111.064 21.456 109.828 21.456Z" fill="currentColor"/>
<path d="M62.156 41L61.328 39.128H56.732L55.904 41H54.884L58.52 32.756H59.54L63.176 41H62.156ZM57.116 38.24H60.944L59.036 33.908L57.116 38.24ZM67.1946 40.088L67.6386 40.748C67.3146 41 66.9066 41.144 66.4866 41.144C65.5986 41.144 64.9746 40.484 64.9746 39.56V35.6H64.0026V34.796H64.9746V33.092H65.8746V34.796H67.3986V35.6H65.8746V39.56C65.8746 40.016 66.1866 40.34 66.5466 40.34C66.8226 40.34 67.0626 40.232 67.1946 40.088ZM68.912 41V32.612H69.812V41H68.912ZM74.1508 34.652C75.8428 34.652 76.6708 35.72 76.6708 37.22V41H75.7708V40.028C75.3268 40.76 74.4028 41.144 73.5868 41.144C72.2788 41.144 71.3188 40.388 71.3188 39.164C71.3188 37.928 72.4228 37.1 73.7548 37.1C74.4268 37.1 75.1348 37.244 75.7708 37.448V37.22C75.7708 36.38 75.4348 35.42 74.0908 35.42C73.4668 35.42 72.8428 35.696 72.2788 35.984L71.9188 35.252C72.8068 34.808 73.5508 34.652 74.1508 34.652ZM73.7428 40.352C74.5588 40.352 75.5308 39.932 75.7708 39.056V38.108C75.2068 37.952 74.5708 37.856 73.8988 37.856C72.9748 37.856 72.1948 38.384 72.1948 39.128C72.1948 39.896 72.8668 40.352 73.7428 40.352ZM80.7057 41.144C79.8417 41.144 78.8817 40.82 78.1377 40.22L78.6057 39.56C79.3137 40.076 80.0217 40.34 80.7057 40.34C81.5217 40.34 82.0737 39.956 82.0737 39.368C82.0737 38.696 81.3537 38.48 80.5137 38.24C79.0137 37.808 78.4377 37.364 78.4377 36.476C78.4377 35.348 79.3737 34.652 80.6097 34.652C81.3777 34.652 82.1697 34.916 82.8297 35.348L82.3977 36.044C81.7737 35.648 81.1617 35.456 80.6097 35.456C79.9137 35.456 79.3377 35.768 79.3377 36.368C79.3377 36.908 79.7937 37.076 80.9457 37.448C81.9417 37.76 82.9737 38.096 82.9737 39.272C82.9737 40.412 81.9897 41.144 80.7057 41.144Z" fill="currentColor"/>
<defs>
<linearGradient id="paint0_linear_2379_1338" x1="8.6672" y1="34.2962" x2="44.3327" y2="13.7049" gradientUnits="userSpaceOnUse">
<stop offset="0.12" stop-color="white" stop-opacity="0"/>
<stop offset="0.44" stop-color="white"/>
</linearGradient>
<clipPath id="clip0_2379_1338">
<rect width="48" height="48" fill="white" transform="translate(2.5)"/>
</clipPath>
</defs>
</svg>
