<svg width="116" height="48" viewBox="0 0 116 48" fill="none" xmlns="http://www.w3.org/2000/svg">
<g clip-path="url(#clip0_5097_23012)">
<path d="M26.5 48C39.7548 48 50.5 37.2548 50.5 24C50.5 10.7452 39.7548 0 26.5 0C13.2452 0 2.5 10.7452 2.5 24C2.5 37.2548 13.2452 48 26.5 48Z" fill="#FF0043"/>
<path d="M26.5015 3.4043C15.1448 3.4043 5.90625 12.6438 5.90625 23.9995C5.90625 35.3553 15.1457 44.5948 26.5015 44.5948C37.8573 44.5948 47.0967 35.3553 47.0967 23.9995C47.0967 12.6438 37.8582 3.4043 26.5015 3.4043ZM45.2173 23.6049H40.1639C40.087 20.8957 39.2168 18.3809 37.7783 16.2853L41.4504 13.7606C41.5856 13.6679 41.6191 13.4834 41.5264 13.3492C41.4337 13.214 41.2492 13.1805 41.115 13.2732L37.434 15.8039C36.3744 14.394 35.0494 13.1953 33.534 12.2827L35.7469 8.41918C35.8278 8.27711 35.7795 8.09656 35.6374 8.01566C35.4953 7.93377 35.3148 7.98409 35.2339 8.12517L33.0219 11.9887C31.1849 10.9883 29.0943 10.3963 26.8734 10.3371L26.8557 5.86093C26.8557 5.64388 26.6781 5.46826 26.4611 5.46826H26.4591C26.241 5.46826 26.0654 5.64684 26.0664 5.86487L26.0842 10.3401C23.0247 10.4328 20.2149 11.5358 17.9773 13.3265L14.7116 9.47287C17.9329 6.85345 22.0381 5.28081 26.5035 5.28081C36.694 5.28081 45.0081 13.4656 45.2192 23.6069L45.2173 23.6049ZM35.2546 33.3032L32.4349 29.9754C33.0071 29.4081 33.4975 28.7589 33.8892 28.0476L37.7606 30.0425C37.1035 31.2609 36.255 32.361 35.2546 33.3022V33.3032ZM14.9721 29.5127L18.9037 27.6411C19.322 28.5103 19.8844 29.2966 20.5612 29.9695L17.6448 33.2055C16.5477 32.1498 15.639 30.9008 14.9721 29.5136V29.5127ZM7.78572 24.3942H12.8391C12.8914 26.2194 13.3028 27.9558 14.0052 29.5353L9.44222 31.7078C8.42602 29.4692 7.83998 26.9958 7.78572 24.3942ZM17.9477 14.5124L20.7644 17.8363C19.2017 19.2915 18.1914 21.3318 18.0858 23.6049H13.728C13.8375 20.0028 15.4457 16.7707 17.9477 14.5124ZM26.5015 31.0439C26.1226 31.0439 25.7517 31.0133 25.3886 30.9551L26.1118 26.8794C26.2391 26.8962 26.3693 26.9061 26.5005 26.9061C27.1704 26.9061 27.787 26.6782 28.2794 26.2954L29.3261 27.5306C28.5349 28.1837 27.5207 28.5774 26.4167 28.5774C26.2805 28.5774 26.17 28.6879 26.17 28.824C26.17 28.9602 26.2805 29.0707 26.4167 29.0707C27.642 29.0707 28.7677 28.6336 29.6448 27.9075L30.955 29.4535C29.7405 30.448 28.1896 31.0448 26.5005 31.0448L26.5015 31.0439ZM20.1508 27.0471L23.887 25.2683C24.2481 26.0102 24.917 26.5756 25.726 26.8005L25.0019 30.8821C22.8609 30.4154 21.0801 28.975 20.1517 27.0481L20.1508 27.0471ZM21.6583 18.8909L22.8965 20.3511C22.1654 21.0555 21.6405 21.981 21.4383 23.0347C21.4126 23.1688 21.5004 23.2981 21.6336 23.3237C21.7678 23.3494 21.897 23.2616 21.9227 23.1284C22.1032 22.1882 22.5679 21.3614 23.2161 20.728L24.3418 22.0569C23.961 22.4792 23.7035 23.0139 23.6226 23.6049H19.469C19.5716 21.7531 20.3935 20.0916 21.6583 18.8909ZM29.8915 26.9751L28.8358 25.73C29.1209 25.3463 29.3133 24.8904 29.3814 24.3942H30.9777C30.8938 25.3749 30.4992 26.2687 29.8924 26.9751H29.8915ZM24.7789 23.9995C24.7789 23.0494 25.5514 22.2769 26.5015 22.2769C27.4516 22.2769 28.2241 23.0494 28.2241 23.9995C28.2241 24.9496 27.4516 25.7221 26.5015 25.7221C25.5514 25.7221 24.7789 24.9496 24.7789 23.9995ZM29.3804 23.6049C29.187 22.1882 27.9705 21.093 26.5015 21.093C25.9283 21.093 25.3945 21.2598 24.9437 21.5469L23.8249 20.2268C24.5678 19.7167 25.4636 19.4217 26.4167 19.4217C28.8072 19.4217 30.7754 21.2647 30.9757 23.6049H29.3794H29.3804ZM23.6226 24.3942C23.6463 24.5688 23.6857 24.7385 23.739 24.9023L19.9909 26.687C19.6959 25.9737 19.5134 25.2022 19.469 24.3952H23.6226V24.3942ZM30.2141 27.356C30.4518 27.0866 30.662 26.7926 30.8396 26.4769L32.6598 27.4152C32.353 27.9657 31.9751 28.4708 31.5381 28.9177L30.2141 27.356ZM31.099 25.9451C31.3013 25.4617 31.4286 24.9398 31.471 24.3942H33.534C33.4846 25.2782 33.2715 26.1178 32.9243 26.8853L31.099 25.9441V25.9451ZM31.471 23.6049C31.2687 20.9924 29.0805 18.9284 26.4167 18.9284C25.3432 18.9284 24.3349 19.2668 23.5052 19.8489L22.2591 18.3789C23.4401 17.485 24.9091 16.9542 26.5005 16.9542C28.7845 16.9542 30.8159 18.0474 32.1044 19.7365C32.1123 19.7591 32.1231 19.7818 32.1379 19.8026C32.1557 19.8292 32.1784 19.8499 32.2021 19.8687C32.9736 20.9302 33.456 22.2138 33.533 23.6039H31.47L31.471 23.6049ZM30.9274 16.8339L33.092 13.0532C34.4929 13.8997 35.7183 15.0067 36.701 16.308L33.1068 18.7795C32.499 18.0119 31.762 17.3518 30.9264 16.8349L30.9274 16.8339ZM30.4134 16.5409C29.3518 15.9824 28.159 15.6421 26.8922 15.5848L26.8744 11.2261C28.9335 11.2852 30.8721 11.8338 32.578 12.7602L30.4124 16.5418L30.4134 16.5409ZM26.1029 15.5839C24.3251 15.6667 22.6913 16.3051 21.3672 17.3262L18.5505 14.0023C20.6332 12.3419 23.2437 11.3188 26.0861 11.227L26.1039 15.5848L26.1029 15.5839ZM13.728 24.3942H18.0858C18.1332 25.4133 18.3621 26.3871 18.7409 27.281L14.8073 29.1535C14.1591 27.6894 13.7793 26.0823 13.727 24.3942H13.728ZM20.9973 30.37C22.0559 31.2856 23.3424 31.9436 24.7602 32.2426L23.9985 36.5323C21.7619 36.0864 19.7334 35.0544 18.0809 33.6041L20.9973 30.369V30.37ZM25.1479 32.3146C25.5889 32.3866 26.0408 32.4251 26.5015 32.4251C26.9622 32.4251 27.3934 32.3886 27.8245 32.3205L28.597 36.6073C27.9153 36.7207 27.2158 36.7799 26.5015 36.7799C25.7872 36.7799 25.0749 36.7188 24.3862 36.6043L25.1479 32.3156V32.3146ZM28.2123 32.2505C29.5718 31.9693 30.8129 31.3586 31.8479 30.5062L34.6626 33.8271C33.0545 35.1649 31.1138 36.116 28.9848 36.5372L28.2123 32.2505ZM34.1536 27.5187C34.5965 26.5598 34.8649 25.5051 34.9172 24.3942H39.275C39.2188 26.2233 38.7777 27.9568 38.0289 29.5156L34.1536 27.5187ZM34.9172 23.6049C34.8422 21.9967 34.3154 20.505 33.46 19.255L37.0473 16.7885C38.3871 18.741 39.198 21.0822 39.275 23.6049H34.9172ZM14.1078 9.98195L17.3735 13.8356C14.6791 16.2577 12.9496 19.7325 12.8391 23.6049H7.78572C7.89819 18.1895 10.3223 13.3324 14.1078 9.98195ZM9.60994 32.066L14.171 29.8945C14.8873 31.3872 15.8679 32.7309 17.0499 33.8645L13.949 37.3048C13.8395 37.4262 13.8494 37.6136 13.9707 37.7231C14.0269 37.7744 14.098 37.7991 14.169 37.7991C14.2499 37.7991 14.3308 37.7665 14.389 37.7014L17.4869 34.2651C19.2609 35.8249 21.4393 36.9329 23.8436 37.4084L22.9606 42.3838C17.0607 41.2492 12.1376 37.3374 9.60994 32.066ZM23.3483 42.4539L24.2313 37.4785C24.9703 37.6028 25.728 37.6679 26.5015 37.6679C27.275 37.6679 28.0209 37.6038 28.7539 37.4814L29.6497 42.4539C28.6256 42.6285 27.5739 42.7203 26.5015 42.7203C25.4291 42.7203 24.3734 42.6275 23.3483 42.4529V42.4539ZM30.0385 42.3838L29.1426 37.4114C31.4286 36.9625 33.5123 35.9413 35.2368 34.5039L37.1854 36.8026C37.2633 36.8944 37.3748 36.9417 37.4863 36.9417C37.5761 36.9417 37.6668 36.9112 37.7408 36.848C37.9076 36.7069 37.9273 36.4583 37.7872 36.2916L35.8278 33.98C36.916 32.9628 37.8375 31.771 38.5479 30.4489L39.9321 31.1623C39.9755 31.1849 40.0218 31.1948 40.0672 31.1948C40.1748 31.1948 40.2784 31.1366 40.3307 31.034C40.4056 30.889 40.3484 30.7104 40.2034 30.6354L38.8172 29.9211C39.6292 28.2399 40.1057 26.3674 40.1629 24.3922H45.2163C45.0308 33.3298 38.5498 40.7471 30.0375 42.3819L30.0385 42.3838Z" fill="url(#paint0_linear_5097_23012)"/>
</g>
<path d="M61.244 4.756H62.18V13H61.244V9.244H56.384V13H55.448V4.756H56.384V8.356H61.244V4.756ZM68.405 6.796H69.305V13H68.405V12.004C68.045 12.664 67.241 13.144 66.365 13.144C64.997 13.144 64.037 12.148 64.037 10.744V6.796H64.937V10.624C64.937 11.632 65.573 12.34 66.485 12.34C67.529 12.34 68.405 11.608 68.405 10.744V6.796ZM77.8466 6.652C79.1426 6.652 80.0546 7.648 80.0546 9.052V13H79.1546V9.172C79.1546 8.164 78.5666 7.456 77.7266 7.456C76.7426 7.456 76.0466 8.116 76.0466 9.052V13H75.1466V9.172C75.1466 8.164 74.5586 7.456 73.7186 7.456C72.7346 7.456 72.0386 8.116 72.0386 9.052V13H71.1386V6.796H72.0386V7.708C72.3506 7.06 73.0226 6.652 73.8386 6.652C74.7746 6.652 75.5066 7.168 75.8426 7.972C76.0946 7.168 76.9106 6.652 77.8466 6.652ZM84.3929 6.652C86.0849 6.652 86.9129 7.72 86.9129 9.22V13H86.0129V12.028C85.5689 12.76 84.6449 13.144 83.8289 13.144C82.5209 13.144 81.5609 12.388 81.5609 11.164C81.5609 9.928 82.6649 9.1 83.9969 9.1C84.6689 9.1 85.3769 9.244 86.0129 9.448V9.22C86.0129 8.38 85.6769 7.42 84.3329 7.42C83.7089 7.42 83.0849 7.696 82.5209 7.984L82.1609 7.252C83.0489 6.808 83.7929 6.652 84.3929 6.652ZM83.9849 12.352C84.8009 12.352 85.7729 11.932 86.0129 11.056V10.108C85.4489 9.952 84.8129 9.856 84.1409 9.856C83.2169 9.856 82.4369 10.384 82.4369 11.128C82.4369 11.896 83.1089 12.352 83.9849 12.352ZM91.7038 6.652C93.0718 6.652 94.0318 7.648 94.0318 9.052V13H93.1318V9.172C93.1318 8.164 92.4958 7.456 91.5838 7.456C90.5398 7.456 89.6638 8.188 89.6638 9.052V13H88.7638V6.796H89.6638V7.792C90.0238 7.132 90.8278 6.652 91.7038 6.652Z" fill="#201E3D"/>
<path d="M61.832 21.396C61.832 22.692 60.896 23.676 59.588 23.952L61.724 27H60.656L58.568 24.036H56.384V27H55.448V18.756H58.796C60.5 18.756 61.832 19.848 61.832 21.396ZM56.384 19.644V23.148H58.628C59.972 23.148 60.884 22.5 60.884 21.396C60.884 20.292 59.972 19.644 58.628 19.644H56.384ZM66.0127 26.34C66.7447 26.34 67.5847 26.016 67.9687 25.596L68.5207 26.184C67.9807 26.772 66.8887 27.144 66.0247 27.144C64.3687 27.144 62.8807 25.788 62.8807 23.88C62.8807 22.032 64.2727 20.652 65.9407 20.652C67.8127 20.652 68.8807 22.068 68.8807 24.24H63.8047C63.9367 25.452 64.7887 26.34 66.0127 26.34ZM65.9767 21.456C64.8727 21.456 63.9847 22.236 63.8167 23.436H67.9927C67.8727 22.32 67.2127 21.456 65.9767 21.456ZM71.7574 19.944V20.796H73.2814V21.6H71.7574V27H70.8574V21.6H69.8854V20.796H70.8574V19.944C70.8574 19.02 71.4814 18.36 72.3694 18.36C72.7894 18.36 73.1974 18.504 73.5214 18.756L73.0774 19.416C72.9454 19.272 72.7054 19.164 72.4294 19.164C72.0694 19.164 71.7574 19.488 71.7574 19.944ZM77.3564 26.34C78.0884 26.34 78.9284 26.016 79.3124 25.596L79.8644 26.184C79.3244 26.772 78.2324 27.144 77.3684 27.144C75.7124 27.144 74.2244 25.788 74.2244 23.88C74.2244 22.032 75.6164 20.652 77.2844 20.652C79.1564 20.652 80.2244 22.068 80.2244 24.24H75.1484C75.2804 25.452 76.1324 26.34 77.3564 26.34ZM77.3204 21.456C76.2164 21.456 75.3284 22.236 75.1604 23.436H79.3364C79.2164 22.32 78.5564 21.456 77.3204 21.456ZM82.6812 22.008C83.0532 21.18 83.9412 20.652 85.0812 20.652V21.456C83.6772 21.456 82.6812 22.32 82.6812 23.532V27H81.7812V20.796H82.6812V22.008ZM89.1221 26.34C89.8541 26.34 90.6941 26.016 91.0781 25.596L91.6301 26.184C91.0901 26.772 89.9981 27.144 89.1341 27.144C87.4781 27.144 85.9901 25.788 85.9901 23.88C85.9901 22.032 87.3821 20.652 89.0501 20.652C90.9221 20.652 91.9901 22.068 91.9901 24.24H86.9141C87.0461 25.452 87.8981 26.34 89.1221 26.34ZM89.0861 21.456C87.9821 21.456 87.0941 22.236 86.9261 23.436H91.1021C90.9821 22.32 90.3221 21.456 89.0861 21.456ZM96.4148 20.652C97.7828 20.652 98.7428 21.648 98.7428 23.052V27H97.8428V23.172C97.8428 22.164 97.2068 21.456 96.2948 21.456C95.2508 21.456 94.3748 22.188 94.3748 23.052V27H93.4748V20.796H94.3748V21.792C94.7348 21.132 95.5388 20.652 96.4148 20.652ZM103.444 27.144C101.704 27.144 100.228 25.656 100.228 23.892C100.228 22.128 101.704 20.652 103.444 20.652C104.284 20.652 105.064 21 105.652 21.564L105.028 22.176C104.62 21.732 104.056 21.456 103.444 21.456C102.208 21.456 101.176 22.572 101.176 23.892C101.176 25.224 102.208 26.34 103.444 26.34C104.068 26.34 104.644 26.052 105.064 25.584L105.688 26.196C105.1 26.784 104.308 27.144 103.444 27.144ZM109.864 26.34C110.596 26.34 111.436 26.016 111.82 25.596L112.372 26.184C111.832 26.772 110.74 27.144 109.876 27.144C108.22 27.144 106.732 25.788 106.732 23.88C106.732 22.032 108.124 20.652 109.792 20.652C111.664 20.652 112.732 22.068 112.732 24.24H107.656C107.788 25.452 108.64 26.34 109.864 26.34ZM109.828 21.456C108.724 21.456 107.836 22.236 107.668 23.436H111.844C111.724 22.32 111.064 21.456 109.828 21.456Z" fill="#201E3D"/>
<path d="M62.156 41L61.328 39.128H56.732L55.904 41H54.884L58.52 32.756H59.54L63.176 41H62.156ZM57.116 38.24H60.944L59.036 33.908L57.116 38.24ZM67.1946 40.088L67.6386 40.748C67.3146 41 66.9066 41.144 66.4866 41.144C65.5986 41.144 64.9746 40.484 64.9746 39.56V35.6H64.0026V34.796H64.9746V33.092H65.8746V34.796H67.3986V35.6H65.8746V39.56C65.8746 40.016 66.1866 40.34 66.5466 40.34C66.8226 40.34 67.0626 40.232 67.1946 40.088ZM68.912 41V32.612H69.812V41H68.912ZM74.1508 34.652C75.8428 34.652 76.6708 35.72 76.6708 37.22V41H75.7708V40.028C75.3268 40.76 74.4028 41.144 73.5868 41.144C72.2788 41.144 71.3188 40.388 71.3188 39.164C71.3188 37.928 72.4228 37.1 73.7548 37.1C74.4268 37.1 75.1348 37.244 75.7708 37.448V37.22C75.7708 36.38 75.4348 35.42 74.0908 35.42C73.4668 35.42 72.8428 35.696 72.2788 35.984L71.9188 35.252C72.8068 34.808 73.5508 34.652 74.1508 34.652ZM73.7428 40.352C74.5588 40.352 75.5308 39.932 75.7708 39.056V38.108C75.2068 37.952 74.5708 37.856 73.8988 37.856C72.9748 37.856 72.1948 38.384 72.1948 39.128C72.1948 39.896 72.8668 40.352 73.7428 40.352ZM80.7057 41.144C79.8417 41.144 78.8817 40.82 78.1377 40.22L78.6057 39.56C79.3137 40.076 80.0217 40.34 80.7057 40.34C81.5217 40.34 82.0737 39.956 82.0737 39.368C82.0737 38.696 81.3537 38.48 80.5137 38.24C79.0137 37.808 78.4377 37.364 78.4377 36.476C78.4377 35.348 79.3737 34.652 80.6097 34.652C81.3777 34.652 82.1697 34.916 82.8297 35.348L82.3977 36.044C81.7737 35.648 81.1617 35.456 80.6097 35.456C79.9137 35.456 79.3377 35.768 79.3377 36.368C79.3377 36.908 79.7937 37.076 80.9457 37.448C81.9417 37.76 82.9737 38.096 82.9737 39.272C82.9737 40.412 81.9897 41.144 80.7057 41.144Z" fill="#201E3D"/>
<defs>
<linearGradient id="paint0_linear_5097_23012" x1="8.66873" y1="34.2957" x2="44.3343" y2="13.7044" gradientUnits="userSpaceOnUse">
<stop offset="0.12" stop-color="white" stop-opacity="0"/>
<stop offset="0.44" stop-color="white"/>
</linearGradient>
<clipPath id="clip0_5097_23012">
<rect width="48" height="48" fill="white" transform="translate(2.5)"/>
</clipPath>
</defs>
</svg>
