<svg width="48" height="48" viewBox="0 0 48 48" fill="none" xmlns="http://www.w3.org/2000/svg">
<g clip-path="url(#clip0_2191_1748)">
<path d="M24 48C37.2548 48 48 37.2548 48 24C48 10.7452 37.2548 0 24 0C10.7452 0 0 10.7452 0 24C0 37.2548 10.7452 48 24 48Z" fill="#FF0043"/>
<path d="M24 3.4043C12.6433 3.4043 3.40479 12.6438 3.40479 23.9995C3.40479 35.3553 12.6443 44.5948 24 44.5948C35.3558 44.5948 44.5953 35.3553 44.5953 23.9995C44.5953 12.6438 35.3568 3.4043 24 3.4043ZM42.7158 23.6049H37.6625C37.5855 20.8957 36.7153 18.3809 35.2769 16.2853L38.949 13.7606C39.0841 13.6679 39.1177 13.4834 39.0249 13.3492C38.9322 13.214 38.7477 13.1805 38.6135 13.2732L34.9325 15.8039C33.8729 14.394 32.5479 13.1953 31.0325 12.2827L33.2454 8.41918C33.3264 8.27711 33.278 8.09656 33.1359 8.01566C32.9939 7.93377 32.8133 7.98409 32.7324 8.12517L30.5205 11.9887C28.6834 10.9883 26.5928 10.3963 24.372 10.3371L24.3542 5.86093C24.3542 5.64388 24.1766 5.46826 23.9596 5.46826H23.9576C23.7396 5.46826 23.564 5.64684 23.5649 5.86487L23.5827 10.3401C20.5233 10.4328 17.7134 11.5358 15.4758 13.3265L12.2102 9.47287C15.4314 6.85345 19.5367 5.28081 24.002 5.28081C34.1926 5.28081 42.5067 13.4656 42.7178 23.6069L42.7158 23.6049ZM32.7531 33.3032L29.9334 29.9754C30.5057 29.4081 30.996 28.7589 31.3877 28.0476L35.2591 30.0425C34.602 31.2609 33.7535 32.361 32.7531 33.3022V33.3032ZM12.4706 29.5127L16.4022 27.6411C16.8206 28.5103 17.3829 29.2966 18.0597 29.9695L15.1433 33.2055C14.0462 32.1498 13.1376 30.9008 12.4706 29.5136V29.5127ZM5.28426 24.3942H10.3376C10.3899 26.2194 10.8013 27.9558 11.5038 29.5353L6.94076 31.7078C5.92456 29.4692 5.33852 26.9958 5.28426 24.3942ZM15.4462 14.5124L18.263 17.8363C16.7002 19.2915 15.6899 21.3318 15.5843 23.6049H11.2265C11.3361 20.0028 12.9442 16.7707 15.4462 14.5124ZM24 31.0439C23.6212 31.0439 23.2502 31.0133 22.8871 30.9551L23.6103 26.8794C23.7376 26.8962 23.8678 26.9061 23.999 26.9061C24.6689 26.9061 25.2856 26.6782 25.7779 26.2954L26.8247 27.5306C26.0334 28.1837 25.0192 28.5774 23.9152 28.5774C23.779 28.5774 23.6685 28.6879 23.6685 28.824C23.6685 28.9602 23.779 29.0707 23.9152 29.0707C25.1405 29.0707 26.2663 28.6336 27.1433 27.9075L28.4535 29.4535C27.239 30.448 25.6881 31.0448 23.999 31.0448L24 31.0439ZM17.6493 27.0471L21.3855 25.2683C21.7466 26.0102 22.4156 26.5756 23.2246 26.8005L22.5004 30.8821C20.3595 30.4154 18.5787 28.975 17.6503 27.0481L17.6493 27.0471ZM19.1568 18.8909L20.395 20.3511C19.6639 21.0555 19.1391 21.981 18.9368 23.0347C18.9112 23.1688 18.999 23.2981 19.1322 23.3237C19.2663 23.3494 19.3956 23.2616 19.4212 23.1284C19.6018 22.1882 20.0665 21.3614 20.7147 20.728L21.8404 22.0569C21.4595 22.4792 21.202 23.0139 21.1211 23.6049H16.9676C17.0702 21.7531 17.892 20.0916 19.1568 18.8909ZM27.39 26.9751L26.3343 25.73C26.6195 25.3463 26.8118 24.8904 26.8799 24.3942H28.4762C28.3924 25.3749 27.9977 26.2687 27.391 26.9751H27.39ZM22.2774 23.9995C22.2774 23.0494 23.0499 22.2769 24 22.2769C24.9501 22.2769 25.7226 23.0494 25.7226 23.9995C25.7226 24.9496 24.9501 25.7221 24 25.7221C23.0499 25.7221 22.2774 24.9496 22.2774 23.9995ZM26.8789 23.6049C26.6856 22.1882 25.4691 21.093 24 21.093C23.4268 21.093 22.8931 21.2598 22.4422 21.5469L21.3234 20.2268C22.0663 19.7167 22.9621 19.4217 23.9152 19.4217C26.3057 19.4217 28.274 21.2647 28.4743 23.6049H26.8779H26.8789ZM21.1211 24.3942C21.1448 24.5688 21.1843 24.7385 21.2376 24.9023L17.4895 26.687C17.1945 25.9737 17.012 25.2022 16.9676 24.3952H21.1211V24.3942ZM27.7126 27.356C27.9504 27.0866 28.1605 26.7926 28.3381 26.4769L30.1584 27.4152C29.8515 27.9657 29.4737 28.4708 29.0366 28.9177L27.7126 27.356ZM28.5976 25.9451C28.7998 25.4617 28.9271 24.9398 28.9695 24.3942H31.0325C30.9832 25.2782 30.7701 26.1178 30.4228 26.8853L28.5976 25.9441V25.9451ZM28.9695 23.6049C28.7673 20.9924 26.579 18.9284 23.9152 18.9284C22.8418 18.9284 21.8335 19.2668 21.0037 19.8489L19.7577 18.3789C20.9386 17.485 22.4077 16.9542 23.999 16.9542C26.283 16.9542 28.3144 18.0474 29.6029 19.7365C29.6108 19.7591 29.6217 19.7818 29.6365 19.8026C29.6542 19.8292 29.6769 19.8499 29.7006 19.8687C30.4721 20.9302 30.9546 22.2138 31.0315 23.6039H28.9685L28.9695 23.6049ZM28.4259 16.8339L30.5905 13.0532C31.9915 13.8997 33.2168 15.0067 34.1995 16.308L30.6053 18.7795C29.9976 18.0119 29.2606 17.3518 28.4249 16.8349L28.4259 16.8339ZM27.9119 16.5409C26.8503 15.9824 25.6575 15.6421 24.3907 15.5848L24.373 11.2261C26.432 11.2852 28.3707 11.8338 30.0765 12.7602L27.9109 16.5418L27.9119 16.5409ZM23.6014 15.5839C21.8236 15.6667 20.1898 16.3051 18.8658 17.3262L16.049 14.0023C18.1317 12.3419 20.7423 11.3188 23.5847 11.227L23.6024 15.5848L23.6014 15.5839ZM11.2265 24.3942H15.5843C15.6317 25.4133 15.8606 26.3871 16.2394 27.281L12.3059 29.1535C11.6577 27.6894 11.2778 26.0823 11.2256 24.3942H11.2265ZM18.4958 30.37C19.5544 31.2856 20.8409 31.9436 22.2587 32.2426L21.497 36.5323C19.2604 36.0864 17.232 35.0544 15.5794 33.6041L18.4958 30.369V30.37ZM22.6464 32.3146C23.0874 32.3866 23.5393 32.4251 24 32.4251C24.4608 32.4251 24.8919 32.3886 25.3231 32.3205L26.0956 36.6073C25.4138 36.7207 24.7143 36.7799 24 36.7799C23.2857 36.7799 22.5734 36.7188 21.8848 36.6043L22.6464 32.3156V32.3146ZM25.7108 32.2505C27.0703 31.9693 28.3115 31.3586 29.3464 30.5062L32.1612 33.8271C30.553 35.1649 28.6124 36.116 26.4833 36.5372L25.7108 32.2505ZM31.6521 27.5187C32.0951 26.5598 32.3634 25.5051 32.4157 24.3942H36.7735C36.7173 26.2233 36.2763 27.9568 35.5275 29.5156L31.6521 27.5187ZM32.4157 23.6049C32.3407 21.9967 31.8139 20.505 30.9585 19.255L34.5458 16.7885C35.8856 18.741 36.6966 21.0822 36.7735 23.6049H32.4157ZM11.6064 9.98195L14.872 13.8356C12.1776 16.2577 10.4481 19.7325 10.3376 23.6049H5.28426C5.39673 18.1895 7.8208 13.3324 11.6064 9.98195ZM7.10848 32.066L11.6695 29.8945C12.3858 31.3872 13.3665 32.7309 14.5484 33.8645L11.4475 37.3048C11.338 37.4262 11.3479 37.6136 11.4692 37.7231C11.5255 37.7744 11.5965 37.7991 11.6675 37.7991C11.7485 37.7991 11.8294 37.7665 11.8876 37.7014L14.9855 34.2651C16.7594 35.8249 18.9378 36.9329 21.3421 37.4084L20.4591 42.3838C14.5593 41.2492 9.63614 37.3374 7.10848 32.066ZM20.8469 42.4539L21.7299 37.4785C22.4688 37.6028 23.2265 37.6679 24 37.6679C24.7735 37.6679 25.5194 37.6038 26.2524 37.4814L27.1483 42.4539C26.1242 42.6285 25.0725 42.7203 24 42.7203C22.9276 42.7203 21.8719 42.6275 20.8469 42.4529V42.4539ZM27.537 42.3838L26.6412 37.4114C28.9271 36.9625 31.0108 35.9413 32.7354 34.5039L34.6839 36.8026C34.7619 36.8944 34.8733 36.9417 34.9848 36.9417C35.0746 36.9417 35.1654 36.9112 35.2394 36.848C35.4061 36.7069 35.4258 36.4583 35.2857 36.2916L33.3264 33.98C34.4146 32.9628 35.3361 31.771 36.0464 30.4489L37.4306 31.1623C37.474 31.1849 37.5204 31.1948 37.5658 31.1948C37.6733 31.1948 37.7769 31.1366 37.8292 31.034C37.9042 30.889 37.8469 30.7104 37.7019 30.6354L36.3157 29.9211C37.1277 28.2399 37.6042 26.3674 37.6615 24.3922H42.7148C42.5293 33.3298 36.0484 40.7471 27.536 42.3819L27.537 42.3838Z" fill="url(#paint0_linear_2191_1748)"/>
</g>
<defs>
<linearGradient id="paint0_linear_2191_1748" x1="6.16726" y1="34.2957" x2="41.8328" y2="13.7044" gradientUnits="userSpaceOnUse">
<stop offset="0.12" stop-color="white" stop-opacity="0"/>
<stop offset="0.44" stop-color="white"/>
</linearGradient>
<clipPath id="clip0_2191_1748">
<rect width="48" height="48" fill="white"/>
</clipPath>
</defs>
</svg>
