<svg width="36" height="36" viewBox="0 0 36 36" fill="none" xmlns="http://www.w3.org/2000/svg">
<path d="M13.9465 27.8508C10.6992 27.8508 7.45189 27.8508 4.20456 27.8508C2.90563 27.8508 2.15625 27.1538 2.15625 25.8596C2.15625 20.6327 2.15625 15.356 2.15625 10.1291C2.15625 8.88464 2.90563 8.13794 4.15461 8.13794C10.6992 8.13794 17.2438 8.13794 23.7884 8.13794C24.1382 8.13794 24.338 8.2375 24.5378 8.53618C26.1865 11.5728 27.8851 14.5595 29.5837 17.5961C29.7336 17.8948 29.7336 18.0939 29.5837 18.3926C27.8851 21.4292 26.1865 24.4657 24.4879 27.5023C24.338 27.801 24.1881 27.9005 23.8384 27.9005C20.5911 27.8508 17.2938 27.8508 13.9465 27.8508ZM6.85239 16.2023C6.90234 16.2023 6.90234 16.1525 6.9523 16.1525C7.05222 16.3018 7.10218 16.4014 7.2021 16.5507C8.25123 18.1935 9.30037 19.8362 10.2496 21.4789C10.6992 22.2256 11.1488 22.5741 12.0481 22.4745C12.4977 22.4248 12.6476 22.3252 12.6476 21.8772C12.6476 19.438 12.6476 16.949 12.6476 14.5098C12.6476 13.3648 12.7975 13.5639 11.6484 13.5142C11.1988 13.5142 11.0489 13.6635 11.0489 14.1115C11.0489 15.8538 11.0489 17.5961 11.0489 19.3384C11.0489 19.4878 11.0489 19.6371 11.0489 19.8362C10.8491 19.6869 10.7492 19.5873 10.6493 19.438C9.55016 17.7455 8.55099 16.1027 7.55181 14.5098C6.9523 13.5142 6.9523 13.5639 5.80325 13.5639C5.40358 13.5639 5.30366 13.7133 5.30366 14.0617C5.30366 16.7001 5.30366 19.3384 5.30366 21.9767C5.30366 22.1261 5.30366 22.2754 5.35362 22.4745C5.55345 22.4745 5.70333 22.4745 5.90317 22.4745C6.90234 22.4745 6.90234 22.4745 6.90234 21.5287C6.85239 19.7366 6.85239 17.9944 6.85239 16.2023ZM17.1939 22.4745C17.5935 22.4745 17.9433 22.4745 18.293 22.4745C18.6926 22.5243 18.7926 22.375 18.7926 21.9767C18.7926 20.9811 18.7926 19.9358 18.7926 18.9402C18.7926 18.5917 18.8925 18.4922 19.2422 18.4922C20.2913 18.4922 21.3405 18.4922 22.3396 18.4922C22.6394 18.4922 22.7393 18.5917 22.7393 18.8904C22.7393 19.6869 22.7393 20.5331 22.7393 21.3296C22.7393 22.4745 22.7393 22.4745 23.8884 22.4745C24.338 22.4745 24.4379 22.3252 24.388 21.927C24.388 19.438 24.388 16.949 24.388 14.46C24.388 13.4146 24.5878 13.5142 23.4387 13.5142C22.7393 13.5142 22.7393 13.5142 22.7393 14.2111C22.7393 15.1569 22.7393 16.0529 22.7393 17.0485C21.5403 17.0485 20.4412 17.0485 19.2921 17.0485C18.8925 17.0485 18.7426 16.949 18.7926 16.5507C18.8425 15.6547 18.7926 14.8084 18.7926 13.9124C18.7926 13.7631 18.6427 13.5142 18.5428 13.5142C18.0931 13.4644 17.6935 13.5142 17.1939 13.5142C17.1939 16.5507 17.1939 19.4878 17.1939 22.4745ZM15.6951 17.9944C15.6951 16.8494 15.6951 15.7543 15.6951 14.6093C15.6951 13.3648 15.845 13.5639 14.646 13.5142C14.0465 13.5142 14.0465 13.5142 14.0465 14.1613C14.0465 16.5507 14.0465 18.8904 14.0465 21.2798C14.0465 22.4745 14.0465 22.4745 15.2455 22.4745C15.6451 22.4745 15.7451 22.3252 15.7451 21.9767C15.6951 20.6327 15.6951 19.3384 15.6951 17.9944Z" fill="#E00D3A"/>
<path d="M25.7852 27.8514C26.3347 26.9055 26.8343 26.0095 27.2839 25.1135C28.5329 22.8236 29.8318 20.5835 31.0808 18.3434C31.2307 18.0447 31.1807 17.8456 31.0308 17.5967C29.3822 14.6597 27.7336 11.6729 26.0849 8.68611C25.985 8.53677 25.935 8.33765 25.8351 8.18831C27.3838 7.88963 28.5829 8.33765 29.2823 9.63193C30.7311 12.32 32.2299 14.9584 33.7286 17.5967C33.8785 17.8456 33.8785 18.0447 33.7286 18.2936C32.1799 21.0315 30.6312 23.8192 29.0824 26.5571C28.6328 27.4033 27.8335 27.8016 26.9342 27.8016C26.6345 27.8514 26.2348 27.8514 25.7852 27.8514Z" fill="#E00D3A"/>
</svg>
