<svg width="40" height="40" viewBox="0 0 40 40" fill="none" xmlns="http://www.w3.org/2000/svg">
<g clip-path="url(#clip0_1409_385)">
<path d="M20.0041 40.0083C31.0521 40.0083 40.0083 31.0521 40.0083 20.0041C40.0083 8.95616 31.0521 0 20.0041 0C8.95616 0 0 8.95616 0 20.0041C0 31.0521 8.95616 40.0083 20.0041 40.0083Z" fill="#201E3D"/>
<path d="M24.341 17.5378C24.2251 17.4053 24.0265 17.3722 23.8444 17.364C23.6623 17.364 23.4803 17.3888 23.3065 17.3309C22.9589 17.2233 22.785 16.8425 22.5781 16.528C22.156 15.8742 21.436 15.4107 20.658 15.3114C20.4511 15.2866 20.2028 15.2535 20.12 15.0631C20.0869 14.9969 20.0869 14.9141 20.0869 14.8396C20.0787 14.6658 20.0455 14.4755 19.9131 14.3596C19.7807 14.2437 19.5324 14.2603 19.4745 14.4258C19.4248 14.5665 19.5324 14.7072 19.5903 14.8396C19.7559 15.2286 19.2096 15.3031 18.9613 15.3528C18.5806 15.4355 18.1916 15.4687 17.8275 15.6176C17.3557 15.7997 16.9584 16.1639 16.7267 16.6108C16.5943 16.8591 16.4619 17.1819 16.1805 17.1902C16.048 17.1902 15.8991 17.1322 15.808 17.215C15.7004 17.306 15.7666 17.4798 15.8577 17.5791C15.9487 17.6785 16.0729 17.7778 16.0811 17.9185C16.0811 18.0095 16.0398 18.0923 15.9984 18.175C15.5845 18.9779 15.6011 19.3669 15.6921 20.269C15.7749 21.0884 16.0232 21.4277 16.0811 21.5518C16.1308 21.6677 16.0977 21.8001 16.0563 21.9243C16.0149 22.0401 15.957 22.1643 15.9735 22.2884C15.9901 22.4126 16.106 22.5367 16.2301 22.5036C16.346 22.4705 16.3874 22.3133 16.4701 22.2305C16.6108 22.0898 16.8508 22.1395 17.0081 22.2636C17.1571 22.3878 17.2481 22.5698 17.3805 22.7188C17.7281 23.1244 18.2909 23.2733 18.8289 23.2816C19.3586 23.2982 19.8966 23.1988 20.4263 23.2319C20.4428 23.2319 20.4594 23.2319 20.4759 23.2319C20.4759 23.2651 20.4842 23.2982 20.4842 23.3313C20.4842 23.414 20.4345 23.4802 20.4014 23.5547C20.3683 23.6209 20.3601 23.7037 20.4014 23.7699C20.4511 23.8444 20.567 23.861 20.6415 23.8196C20.7242 23.7782 20.7739 23.6954 20.8153 23.6127C20.8732 23.4968 20.898 23.3726 20.9063 23.2485C21.1215 23.2485 21.3367 23.2319 21.5105 23.1161C21.6595 23.0168 21.767 22.8761 21.8995 22.7602C22.1726 22.5202 22.5368 22.4209 22.8099 22.1891C23.1161 21.9243 23.2651 21.5187 23.3975 21.1297C23.4968 21.0801 23.6127 21.1794 23.7203 21.1877C23.8775 21.1877 23.9769 20.9808 23.9106 20.8318C23.8444 20.6828 23.6872 20.6083 23.5299 20.5669C23.6044 20.0704 23.6044 19.5572 23.5299 19.0606C23.4968 18.8372 23.4472 18.6054 23.4885 18.382C23.5382 18.1585 23.7203 17.9433 23.9437 17.9516C24.0513 17.9516 24.1589 18.0012 24.2583 17.9681C24.4321 17.9185 24.4569 17.6536 24.341 17.5212V17.5378ZM19.4662 21.3284C18.6468 21.3284 17.9764 20.6663 17.9764 19.8386C17.9764 19.011 18.6386 18.3489 19.4662 18.3489C20.2938 18.3489 20.956 19.011 20.956 19.8386C20.956 20.6663 20.2938 21.3284 19.4662 21.3284Z" fill="white"/>
<path d="M19.6979 27.155C15.4438 27.155 11.9843 23.6954 11.9843 19.4413C11.9843 15.1873 15.4438 11.7277 19.6979 11.7277C23.952 11.7277 27.4115 15.1873 27.4115 19.4413C27.4115 23.6954 23.952 27.155 19.6979 27.155ZM19.6979 12.5554C15.899 12.5554 12.8119 15.6425 12.8119 19.4413C12.8119 23.2402 15.899 26.3273 19.6979 26.3273C23.4968 26.3273 26.5839 23.2402 26.5839 19.4413C26.5839 15.6425 23.4968 12.5554 19.6979 12.5554Z" fill="white"/>
<path d="M27.6516 28.2226C27.5523 28.2226 27.4447 28.1895 27.3702 28.115L24.4486 25.3838C24.2831 25.2266 24.2748 24.97 24.432 24.7962C24.5893 24.6307 24.8541 24.6224 25.0197 24.7796L27.9412 27.5109C28.1068 27.6681 28.115 27.9247 27.9578 28.0985C27.875 28.1895 27.7674 28.2309 27.6516 28.2309V28.2226Z" fill="white"/>
</g>
<defs>
<clipPath id="clip0_1409_385">
<rect width="40" height="40" fill="white"/>
</clipPath>
</defs>
</svg>
