<svg width="80" height="80" viewBox="0 0 80 80" fill="none" xmlns="http://www.w3.org/2000/svg">
<g clip-path="url(#clip0_1409_394)">
<g clip-path="url(#clip1_1409_394)">
<path d="M40 80C62.0914 80 80 62.0914 80 40C80 17.9086 62.0914 0 40 0C17.9086 0 0 17.9086 0 40C0 62.0914 17.9086 80 40 80Z" fill="#201E3D"/>
<path d="M49.7752 36.8381C49.5314 36.5638 49.12 36.4952 48.7467 36.48C48.3657 36.48 47.9924 36.5333 47.6343 36.4114C46.9105 36.1905 46.5524 35.3981 46.1257 34.7505C45.2495 33.3943 43.7562 32.4343 42.1486 32.2286C41.7219 32.1752 41.2038 32.1067 41.0362 31.7105C40.9676 31.5733 40.9676 31.3981 40.9676 31.2457C40.9524 30.8876 40.8838 30.4914 40.6095 30.2476C40.3352 30.0038 39.8171 30.0419 39.7028 30.3848C39.5962 30.6743 39.8248 30.9714 39.9467 31.2457C40.2895 32.0533 39.1543 32.2057 38.6438 32.3124C37.8514 32.4876 37.0514 32.5562 36.2971 32.861C35.3219 33.2419 34.499 33.9962 34.019 34.9181C33.7448 35.4362 33.4705 36.0991 32.8838 36.1219C32.6095 36.1219 32.2971 36 32.1143 36.1752C31.8933 36.3657 32.0305 36.7238 32.2209 36.9295C32.4114 37.1352 32.6705 37.341 32.6857 37.6305C32.6857 37.821 32.6019 37.9886 32.5105 38.1638C31.6495 39.8248 31.6876 40.6324 31.8781 42.5067C32.0533 44.2057 32.5638 44.9067 32.6857 45.1657C32.7924 45.4095 32.7162 45.6838 32.6324 45.9352C32.5486 46.1791 32.4267 46.4305 32.4571 46.6895C32.4876 46.9486 32.7314 47.2076 32.9905 47.1391C33.2343 47.0705 33.3181 46.7429 33.4857 46.5752C33.7752 46.2857 34.2781 46.3848 34.5981 46.6438C34.9105 46.9029 35.0933 47.2762 35.3676 47.5886C36.0914 48.4267 37.2571 48.7391 38.3695 48.7543C39.4667 48.7848 40.579 48.5791 41.6762 48.6476H41.7828C41.7828 48.7162 41.7981 48.7848 41.7981 48.8533C41.7981 49.0286 41.699 49.1657 41.6228 49.3181C41.5543 49.4552 41.539 49.6305 41.6228 49.7676C41.7295 49.92 41.9657 49.9581 42.1181 49.8743C42.2933 49.7905 42.3924 49.6152 42.4762 49.4476C42.5981 49.2038 42.6514 48.9524 42.6667 48.6933C43.1162 48.6933 43.5581 48.6629 43.9162 48.4191C44.2286 48.2133 44.4495 47.9238 44.7238 47.68C45.2876 47.1848 46.0419 46.9791 46.6133 46.4991C47.2457 45.9505 47.5581 45.1124 47.8324 44.3048C48.0381 44.1981 48.2819 44.4114 48.5028 44.4267C48.8305 44.4267 49.0362 44 48.899 43.6876C48.7619 43.3752 48.4343 43.2229 48.1067 43.1391C48.259 42.1105 48.259 41.0438 48.1067 40.0152C48.0381 39.5505 47.9314 39.0705 48.0228 38.6057C48.1219 38.141 48.5028 37.6991 48.9676 37.7143C49.1886 37.7143 49.4171 37.821 49.6228 37.7524C49.9809 37.6457 50.0343 37.0971 49.7981 36.8229V36.861L49.7752 36.8381ZM39.6724 44.6933C37.9733 44.6933 36.5867 43.3219 36.5867 41.6076C36.5867 39.8933 37.9581 38.5219 39.6724 38.5219C41.3867 38.5219 42.7581 39.8933 42.7581 41.6076C42.7581 43.3219 41.3867 44.6933 39.6724 44.6933Z" fill="white"/>
<path d="M57.7219 36.739C57.9124 37.7981 58.019 38.8876 58.019 40C58.019 49.9505 49.9505 58.0114 40.0076 58.0114C34.7276 58.0114 29.9809 55.7409 26.6819 52.1219" stroke="white" stroke-width="2.5" stroke-miterlimit="10" stroke-linecap="round"/>
<path d="M31.0323 52.2133L27.4285 52.9752L25.4781 56.0991L23.6571 47.581L31.0323 52.2133Z" fill="white"/>
<path d="M21.9885 40C21.9885 30.0495 30.0571 21.9886 40 21.9886C43.9619 21.9886 47.6266 23.2686 50.5981 25.4324" stroke="white" stroke-width="2.5" stroke-miterlimit="10" stroke-linecap="round"/>
<path d="M46.8724 26.179L49.7982 24.8381L50.8724 21.8057L54.0572 28.7314L46.8724 26.179Z" fill="white"/>
</g>
</g>
<defs>
<clipPath id="clip0_1409_394">
<rect width="80" height="80" fill="white"/>
</clipPath>
<clipPath id="clip1_1409_394">
<rect width="80" height="80" fill="white"/>
</clipPath>
</defs>
</svg>
