<svg width="40" height="40" viewBox="0 0 40 40" fill="none" xmlns="http://www.w3.org/2000/svg">
<g clip-path="url(#clip0_4049_22272)">
<path d="M20.0041 40.0083C31.0521 40.0083 40.0083 31.0521 40.0083 20.0041C40.0083 8.95616 31.0521 0 20.0041 0C8.95616 0 0 8.95616 0 20.0041C0 31.0521 8.95616 40.0083 20.0041 40.0083Z" fill="#201E3D"/>
<path d="M15.3927 13.6892C15.1527 13.2174 13.2656 13.2505 13.2656 13.7967V17.8025C13.5967 17.1735 14.0602 16.6273 14.6312 16.1886C14.6561 15.3031 14.9209 14.4423 15.4009 13.6892H15.3927Z" fill="white"/>
<path d="M25.8881 20.8496C25.8881 20.8496 25.1763 17.9032 23.3141 17.0921C22.7679 16.9183 21.1871 17.3735 22.1471 19.7074C21.9154 19.4343 21.0298 17.7128 21.7747 16.6038C22.2961 15.9251 23.0989 15.5196 23.9597 15.4947C24.5059 15.4947 24.9611 15.0561 24.9611 14.5098C24.9611 14.4188 24.9528 14.3195 24.9197 14.2284C24.7625 13.1525 23.3555 13.3015 23.3555 13.3015C23.3555 13.3015 19.6973 13.227 18.8283 15.6437C18.8283 12.7139 22.5775 12.6973 22.5775 12.6973C22.5775 11.7869 19.4325 11.2324 17.4296 12.7801C14.7232 14.8657 14.748 18.4577 16.9081 21.1806C15.6584 20.3447 14.8639 18.9626 14.7811 17.4563C14.4252 17.9115 13.3658 19.5833 13.6721 22.6373C14.119 27.2473 23.9183 30.9386 25.5322 28.6046C27.1461 26.2707 25.9046 20.833 25.9046 20.833L25.8881 20.8496ZM20.8808 25.2692C20.8808 25.6665 20.8808 26.0637 20.8808 26.4693C20.8808 26.701 20.8146 26.7341 20.616 26.6265C19.9539 26.2458 19.3 25.8651 18.6379 25.4927C18.4145 25.3602 18.3069 25.1782 18.3151 24.9133C18.3151 24.1684 18.3151 23.4236 18.3151 22.6787C18.3151 22.4138 18.3731 22.3807 18.5965 22.5132C19.2752 22.9021 19.9456 23.2994 20.6325 23.6884C20.8146 23.796 20.8891 23.9367 20.8891 24.1436C20.8891 24.5243 20.8891 24.9133 20.8891 25.294L20.8808 25.2692ZM20.8394 23.316C20.1525 22.927 19.4656 22.5297 18.7869 22.1324C18.5717 22.0083 18.58 21.9421 18.7869 21.8097C19.4407 21.4289 20.1028 21.0482 20.765 20.6675C20.9636 20.5516 21.1705 20.5434 21.3774 20.6675C22.0395 21.0565 22.7099 21.4372 23.372 21.8179C23.5872 21.9421 23.5872 22.0083 23.372 22.1324C22.6851 22.5297 22.0064 22.927 21.3195 23.316C21.2533 23.3574 21.1705 23.3822 21.0877 23.4153C21.005 23.3822 20.9139 23.3574 20.8394 23.316ZM23.5624 25.4678C22.8837 25.8568 22.2051 26.2541 21.5181 26.6431C21.3526 26.7424 21.2781 26.6928 21.2781 26.4858C21.2781 26.0803 21.2781 25.6665 21.2781 25.2609C21.2781 24.8802 21.2781 24.5078 21.2781 24.1271C21.2781 23.9119 21.3526 23.7629 21.5429 23.6553C22.2299 23.2663 22.9168 22.8608 23.6038 22.4718C23.7941 22.3642 23.8603 22.4056 23.8603 22.6207C23.8603 23.3987 23.8603 24.1767 23.8603 24.9547C23.8603 25.1864 23.761 25.352 23.5624 25.4678Z" fill="white"/>
</g>
<defs>
<clipPath id="clip0_4049_22272">
<rect width="40" height="40" fill="white"/>
</clipPath>
</defs>
</svg>
