<?xml version="1.0" encoding="UTF-8" standalone="no"?>
<!DOCTYPE svg PUBLIC "-//W3C//DTD SVG 1.1//EN"
 "http://www.w3.org/Graphics/SVG/1.1/DTD/svg11.dtd">
<!-- Generated by graphviz version 2.47.0 (20210316.0004)
 -->
<!-- Title: dependencies Pages: 1 -->
<svg width="504pt" height="284pt"
 viewBox="0.00 0.00 504.00 284.00" xmlns="http://www.w3.org/2000/svg" xmlns:xlink="http://www.w3.org/1999/xlink">
<g id="graph0" class="graph" transform="scale(1 1) rotate(0) translate(4 280)">
<title>dependencies</title>
<polygon fill="white" stroke="transparent" points="-4,4 -4,-280 500,-280 500,4 -4,4"/>
<text text-anchor="start" x="227.01" y="-42.4" font-family="Times-12" font-weight="bold" font-size="14.00">Legend</text>
<polygon fill="#ffffb3" stroke="transparent" points="14,-10 14,-30 34,-30 34,-10 14,-10"/>
<text text-anchor="start" x="37.63" y="-15.4" font-family="Times-12" font-size="14.00"> &#160;Declarations</text>
<polygon fill="#8dd3c7" stroke="transparent" points="127,-10 127,-30 147,-30 147,-10 127,-10"/>
<text text-anchor="start" x="150.73" y="-15.4" font-family="Times-12" font-size="14.00"> &#160;Module</text>
<polygon fill="#80b1d3" stroke="transparent" points="213,-10 213,-30 233,-30 233,-10 213,-10"/>
<text text-anchor="start" x="236.78" y="-15.4" font-family="Times-12" font-size="14.00"> &#160;Bootstrap</text>
<polygon fill="#fdb462" stroke="transparent" points="310,-10 310,-30 330,-30 330,-10 310,-10"/>
<text text-anchor="start" x="333.67" y="-15.4" font-family="Times-12" font-size="14.00"> &#160;Providers</text>
<polygon fill="#fb8072" stroke="transparent" points="406,-10 406,-30 426,-30 426,-10 406,-10"/>
<text text-anchor="start" x="429.73" y="-15.4" font-family="Times-12" font-size="14.00"> &#160;Exports</text>
<g id="clust1" class="cluster">
<title>cluster_DebugLogsModule</title>
<polygon fill="none" stroke="black" stroke-dasharray="1,5" points="13,-70 13,-268 483,-268 483,-70 13,-70"/>
</g>
<g id="clust5" class="cluster">
<title>cluster_DebugLogsModule_exports</title>
<polygon fill="none" stroke="black" points="141,-208 141,-260 307,-260 307,-208 141,-208"/>
</g>
<g id="clust2" class="cluster">
<title>cluster_DebugLogsModule_declarations</title>
<polygon fill="none" stroke="black" points="313,-78 313,-130 475,-130 475,-78 313,-78"/>
</g>
<g id="clust4" class="cluster">
<title>cluster_DebugLogsModule_imports</title>
<polygon fill="none" stroke="black" points="21,-78 21,-130 305,-130 305,-78 21,-78"/>
</g>
<!-- DebugLogsComponent -->
<g id="node1" class="node">
<title>DebugLogsComponent</title>
<polygon fill="#ffffb3" stroke="black" points="467.15,-122 320.85,-122 320.85,-86 467.15,-86 467.15,-122"/>
<text text-anchor="middle" x="394" y="-99.8" font-family="Times,serif" font-size="14.00">DebugLogsComponent</text>
</g>
<!-- DebugLogsModule -->
<g id="node2" class="node">
<title>DebugLogsModule</title>
<polygon fill="#8dd3c7" stroke="black" points="286.37,-187 283.37,-191 262.37,-191 259.37,-187 161.63,-187 161.63,-151 286.37,-151 286.37,-187"/>
<text text-anchor="middle" x="224" y="-164.8" font-family="Times,serif" font-size="14.00">DebugLogsModule</text>
</g>
<!-- DebugLogsComponent&#45;&gt;DebugLogsModule -->
<g id="edge1" class="edge">
<title>DebugLogsComponent&#45;&gt;DebugLogsModule</title>
<path fill="none" stroke="black" d="M394,-122.11C394,-141.34 394,-169 394,-169 394,-169 296.82,-169 296.82,-169"/>
<polygon fill="black" stroke="black" points="296.82,-165.5 286.82,-169 296.82,-172.5 296.82,-165.5"/>
</g>
<!-- DebugLogsComponent  -->
<g id="node5" class="node">
<title>DebugLogsComponent </title>
<polygon fill="#fb8072" stroke="black" points="299.15,-252 148.85,-252 148.85,-216 299.15,-216 299.15,-252"/>
<text text-anchor="middle" x="224" y="-229.8" font-family="Times,serif" font-size="14.00">DebugLogsComponent </text>
</g>
<!-- DebugLogsModule&#45;&gt;DebugLogsComponent  -->
<g id="edge4" class="edge">
<title>DebugLogsModule&#45;&gt;DebugLogsComponent </title>
<path fill="none" stroke="black" stroke-dasharray="5,2" d="M224,-187.11C224,-187.11 224,-205.99 224,-205.99"/>
<polygon fill="black" stroke="black" points="220.5,-205.99 224,-215.99 227.5,-205.99 220.5,-205.99"/>
</g>
<!-- SidenavHeaderModule -->
<g id="node3" class="node">
<title>SidenavHeaderModule</title>
<polygon fill="#8dd3c7" stroke="black" points="296.56,-122 293.56,-126 272.56,-126 269.56,-122 151.44,-122 151.44,-86 296.56,-86 296.56,-122"/>
<text text-anchor="middle" x="224" y="-99.8" font-family="Times,serif" font-size="14.00">SidenavHeaderModule</text>
</g>
<!-- SidenavHeaderModule&#45;&gt;DebugLogsModule -->
<g id="edge2" class="edge">
<title>SidenavHeaderModule&#45;&gt;DebugLogsModule</title>
<path fill="none" stroke="black" d="M224,-122.11C224,-122.11 224,-140.99 224,-140.99"/>
<polygon fill="black" stroke="black" points="220.5,-140.99 224,-150.99 227.5,-140.99 220.5,-140.99"/>
</g>
<!-- SidenavModule -->
<g id="node4" class="node">
<title>SidenavModule</title>
<polygon fill="#8dd3c7" stroke="black" points="133.15,-122 130.15,-126 109.15,-126 106.15,-122 28.85,-122 28.85,-86 133.15,-86 133.15,-122"/>
<text text-anchor="middle" x="81" y="-99.8" font-family="Times,serif" font-size="14.00">SidenavModule</text>
</g>
<!-- SidenavModule&#45;&gt;DebugLogsModule -->
<g id="edge3" class="edge">
<title>SidenavModule&#45;&gt;DebugLogsModule</title>
<path fill="none" stroke="black" d="M81,-122.11C81,-141.34 81,-169 81,-169 81,-169 151.28,-169 151.28,-169"/>
<polygon fill="black" stroke="black" points="151.28,-172.5 161.28,-169 151.28,-165.5 151.28,-172.5"/>
</g>
</g>
</svg>
