<?xml version="1.0" encoding="UTF-8" standalone="no"?>
<!DOCTYPE svg PUBLIC "-//W3C//DTD SVG 1.1//EN"
 "http://www.w3.org/Graphics/SVG/1.1/DTD/svg11.dtd">
<!-- Generated by graphviz version 2.47.0 (20210316.0004)
 -->
<!-- Title: dependencies Pages: 1 -->
<svg width="504pt" height="284pt"
 viewBox="0.00 0.00 504.00 284.00" xmlns="http://www.w3.org/2000/svg" xmlns:xlink="http://www.w3.org/1999/xlink">
<g id="graph0" class="graph" transform="scale(1 1) rotate(0) translate(4 280)">
<title>dependencies</title>
<polygon fill="white" stroke="transparent" points="-4,4 -4,-280 500,-280 500,4 -4,4"/>
<text text-anchor="start" x="227.01" y="-42.4" font-family="Times-12" font-weight="bold" font-size="14.00">Legend</text>
<polygon fill="#ffffb3" stroke="transparent" points="14,-10 14,-30 34,-30 34,-10 14,-10"/>
<text text-anchor="start" x="37.63" y="-15.4" font-family="Times-12" font-size="14.00"> &#160;Declarations</text>
<polygon fill="#8dd3c7" stroke="transparent" points="127,-10 127,-30 147,-30 147,-10 127,-10"/>
<text text-anchor="start" x="150.73" y="-15.4" font-family="Times-12" font-size="14.00"> &#160;Module</text>
<polygon fill="#80b1d3" stroke="transparent" points="213,-10 213,-30 233,-30 233,-10 213,-10"/>
<text text-anchor="start" x="236.78" y="-15.4" font-family="Times-12" font-size="14.00"> &#160;Bootstrap</text>
<polygon fill="#fdb462" stroke="transparent" points="310,-10 310,-30 330,-30 330,-10 310,-10"/>
<text text-anchor="start" x="333.67" y="-15.4" font-family="Times-12" font-size="14.00"> &#160;Providers</text>
<polygon fill="#fb8072" stroke="transparent" points="406,-10 406,-30 426,-30 426,-10 406,-10"/>
<text text-anchor="start" x="429.73" y="-15.4" font-family="Times-12" font-size="14.00"> &#160;Exports</text>
<g id="clust1" class="cluster">
<title>cluster_DebugLogsModule</title>
<polygon fill="none" stroke="black" stroke-dasharray="1,5" points="13,-70 13,-268 483,-268 483,-70 13,-70"/>
</g>
<g id="clust4" class="cluster">
<title>cluster_DebugLogsModule_imports</title>
<polygon fill="none" stroke="black" points="191,-78 191,-130 475,-130 475,-78 191,-78"/>
</g>
<g id="clust2" class="cluster">
<title>cluster_DebugLogsModule_declarations</title>
<polygon fill="none" stroke="black" points="21,-78 21,-130 183,-130 183,-78 21,-78"/>
</g>
<g id="clust5" class="cluster">
<title>cluster_DebugLogsModule_exports</title>
<polygon fill="none" stroke="black" points="168,-208 168,-260 334,-260 334,-208 168,-208"/>
</g>
<!-- DebugLogsComponent -->
<g id="node1" class="node">
<title>DebugLogsComponent</title>
<polygon fill="#ffffb3" stroke="black" points="175.15,-122 28.85,-122 28.85,-86 175.15,-86 175.15,-122"/>
<text text-anchor="middle" x="102" y="-99.8" font-family="Times,serif" font-size="14.00">DebugLogsComponent</text>
</g>
<!-- DebugLogsModule -->
<g id="node2" class="node">
<title>DebugLogsModule</title>
<polygon fill="#8dd3c7" stroke="black" points="313.37,-187 310.37,-191 289.37,-191 286.37,-187 188.63,-187 188.63,-151 313.37,-151 313.37,-187"/>
<text text-anchor="middle" x="251" y="-164.8" font-family="Times,serif" font-size="14.00">DebugLogsModule</text>
</g>
<!-- DebugLogsComponent&#45;&gt;DebugLogsModule -->
<g id="edge1" class="edge">
<title>DebugLogsComponent&#45;&gt;DebugLogsModule</title>
<path fill="none" stroke="black" d="M175.52,-104C186.17,-104 193.62,-104 193.62,-104 193.62,-104 193.62,-140.89 193.62,-140.89"/>
<polygon fill="black" stroke="black" points="190.12,-140.89 193.62,-150.89 197.12,-140.89 190.12,-140.89"/>
</g>
<!-- DebugLogsComponent  -->
<g id="node5" class="node">
<title>DebugLogsComponent </title>
<polygon fill="#fb8072" stroke="black" points="326.15,-252 175.85,-252 175.85,-216 326.15,-216 326.15,-252"/>
<text text-anchor="middle" x="251" y="-229.8" font-family="Times,serif" font-size="14.00">DebugLogsComponent </text>
</g>
<!-- DebugLogsModule&#45;&gt;DebugLogsComponent  -->
<g id="edge4" class="edge">
<title>DebugLogsModule&#45;&gt;DebugLogsComponent </title>
<path fill="none" stroke="black" stroke-dasharray="5,2" d="M251,-187.11C251,-187.11 251,-205.99 251,-205.99"/>
<polygon fill="black" stroke="black" points="247.5,-205.99 251,-215.99 254.5,-205.99 247.5,-205.99"/>
</g>
<!-- SidenavHeaderModule -->
<g id="node3" class="node">
<title>SidenavHeaderModule</title>
<polygon fill="#8dd3c7" stroke="black" points="466.56,-122 463.56,-126 442.56,-126 439.56,-122 321.44,-122 321.44,-86 466.56,-86 466.56,-122"/>
<text text-anchor="middle" x="394" y="-99.8" font-family="Times,serif" font-size="14.00">SidenavHeaderModule</text>
</g>
<!-- SidenavHeaderModule&#45;&gt;DebugLogsModule -->
<g id="edge2" class="edge">
<title>SidenavHeaderModule&#45;&gt;DebugLogsModule</title>
<path fill="none" stroke="black" d="M321.38,-104C313.57,-104 308.38,-104 308.38,-104 308.38,-104 308.38,-140.89 308.38,-140.89"/>
<polygon fill="black" stroke="black" points="304.88,-140.89 308.38,-150.89 311.88,-140.89 304.88,-140.89"/>
</g>
<!-- SidenavModule -->
<g id="node4" class="node">
<title>SidenavModule</title>
<polygon fill="#8dd3c7" stroke="black" points="303.15,-122 300.15,-126 279.15,-126 276.15,-122 198.85,-122 198.85,-86 303.15,-86 303.15,-122"/>
<text text-anchor="middle" x="251" y="-99.8" font-family="Times,serif" font-size="14.00">SidenavModule</text>
</g>
<!-- SidenavModule&#45;&gt;DebugLogsModule -->
<g id="edge3" class="edge">
<title>SidenavModule&#45;&gt;DebugLogsModule</title>
<path fill="none" stroke="black" d="M251,-122.11C251,-122.11 251,-140.99 251,-140.99"/>
<polygon fill="black" stroke="black" points="247.5,-140.99 251,-150.99 254.5,-140.99 247.5,-140.99"/>
</g>
</g>
</svg>
