<?xml version="1.0" encoding="UTF-8" standalone="no"?>
<!DOCTYPE svg PUBLIC "-//W3C//DTD SVG 1.1//EN"
 "http://www.w3.org/Graphics/SVG/1.1/DTD/svg11.dtd">
<!-- Generated by graphviz version 2.47.0 (20210316.0004)
 -->
<!-- Title: dependencies Pages: 1 -->
<svg width="504pt" height="284pt"
 viewBox="0.00 0.00 504.00 284.00" xmlns="http://www.w3.org/2000/svg" xmlns:xlink="http://www.w3.org/1999/xlink">
<g id="graph0" class="graph" transform="scale(1 1) rotate(0) translate(4 280)">
<title>dependencies</title>
<polygon fill="white" stroke="transparent" points="-4,4 -4,-280 500,-280 500,4 -4,4"/>
<text text-anchor="start" x="227.01" y="-42.4" font-family="Times-12" font-weight="bold" font-size="14.00">Legend</text>
<polygon fill="#ffffb3" stroke="transparent" points="14,-10 14,-30 34,-30 34,-10 14,-10"/>
<text text-anchor="start" x="37.63" y="-15.4" font-family="Times-12" font-size="14.00"> &#160;Declarations</text>
<polygon fill="#8dd3c7" stroke="transparent" points="127,-10 127,-30 147,-30 147,-10 127,-10"/>
<text text-anchor="start" x="150.73" y="-15.4" font-family="Times-12" font-size="14.00"> &#160;Module</text>
<polygon fill="#80b1d3" stroke="transparent" points="213,-10 213,-30 233,-30 233,-10 213,-10"/>
<text text-anchor="start" x="236.78" y="-15.4" font-family="Times-12" font-size="14.00"> &#160;Bootstrap</text>
<polygon fill="#fdb462" stroke="transparent" points="310,-10 310,-30 330,-30 330,-10 310,-10"/>
<text text-anchor="start" x="333.67" y="-15.4" font-family="Times-12" font-size="14.00"> &#160;Providers</text>
<polygon fill="#fb8072" stroke="transparent" points="406,-10 406,-30 426,-30 426,-10 406,-10"/>
<text text-anchor="start" x="429.73" y="-15.4" font-family="Times-12" font-size="14.00"> &#160;Exports</text>
<g id="clust1" class="cluster">
<title>cluster_DocsModule</title>
<polygon fill="none" stroke="black" stroke-dasharray="1,5" points="52,-70 52,-268 444,-268 444,-70 52,-70"/>
</g>
<g id="clust2" class="cluster">
<title>cluster_DocsModule_declarations</title>
<polygon fill="none" stroke="black" points="310,-78 310,-130 436,-130 436,-78 310,-78"/>
</g>
<g id="clust4" class="cluster">
<title>cluster_DocsModule_imports</title>
<polygon fill="none" stroke="black" points="60,-78 60,-130 302,-130 302,-78 60,-78"/>
</g>
<g id="clust5" class="cluster">
<title>cluster_DocsModule_exports</title>
<polygon fill="none" stroke="black" points="173,-208 173,-260 303,-260 303,-208 173,-208"/>
</g>
<!-- DocsComponent -->
<g id="node1" class="node">
<title>DocsComponent</title>
<polygon fill="#ffffb3" stroke="black" points="428.1,-122 317.9,-122 317.9,-86 428.1,-86 428.1,-122"/>
<text text-anchor="middle" x="373" y="-99.8" font-family="Times,serif" font-size="14.00">DocsComponent</text>
</g>
<!-- DocsModule -->
<g id="node2" class="node">
<title>DocsModule</title>
<polygon fill="#8dd3c7" stroke="black" points="282.32,-187 279.32,-191 258.32,-191 255.32,-187 193.68,-187 193.68,-151 282.32,-151 282.32,-187"/>
<text text-anchor="middle" x="238" y="-164.8" font-family="Times,serif" font-size="14.00">DocsModule</text>
</g>
<!-- DocsComponent&#45;&gt;DocsModule -->
<g id="edge1" class="edge">
<title>DocsComponent&#45;&gt;DocsModule</title>
<path fill="none" stroke="black" d="M373,-122.11C373,-141.34 373,-169 373,-169 373,-169 292.2,-169 292.2,-169"/>
<polygon fill="black" stroke="black" points="292.2,-165.5 282.2,-169 292.2,-172.5 292.2,-165.5"/>
</g>
<!-- DocsComponent  -->
<g id="node5" class="node">
<title>DocsComponent </title>
<polygon fill="#fb8072" stroke="black" points="294.6,-252 181.4,-252 181.4,-216 294.6,-216 294.6,-252"/>
<text text-anchor="middle" x="238" y="-229.8" font-family="Times,serif" font-size="14.00">DocsComponent </text>
</g>
<!-- DocsModule&#45;&gt;DocsComponent  -->
<g id="edge4" class="edge">
<title>DocsModule&#45;&gt;DocsComponent </title>
<path fill="none" stroke="black" stroke-dasharray="5,2" d="M238,-187.11C238,-187.11 238,-205.99 238,-205.99"/>
<polygon fill="black" stroke="black" points="234.5,-205.99 238,-215.99 241.5,-205.99 234.5,-205.99"/>
</g>
<!-- DocsNavModule -->
<g id="node3" class="node">
<title>DocsNavModule</title>
<polygon fill="#8dd3c7" stroke="black" points="293.64,-122 290.64,-126 269.64,-126 266.64,-122 182.36,-122 182.36,-86 293.64,-86 293.64,-122"/>
<text text-anchor="middle" x="238" y="-99.8" font-family="Times,serif" font-size="14.00">DocsNavModule</text>
</g>
<!-- DocsNavModule&#45;&gt;DocsModule -->
<g id="edge2" class="edge">
<title>DocsNavModule&#45;&gt;DocsModule</title>
<path fill="none" stroke="black" d="M238,-122.11C238,-122.11 238,-140.99 238,-140.99"/>
<polygon fill="black" stroke="black" points="234.5,-140.99 238,-150.99 241.5,-140.99 234.5,-140.99"/>
</g>
<!-- FooterModule -->
<g id="node4" class="node">
<title>FooterModule</title>
<polygon fill="#8dd3c7" stroke="black" points="164.1,-122 161.1,-126 140.1,-126 137.1,-122 67.9,-122 67.9,-86 164.1,-86 164.1,-122"/>
<text text-anchor="middle" x="116" y="-99.8" font-family="Times,serif" font-size="14.00">FooterModule</text>
</g>
<!-- FooterModule&#45;&gt;DocsModule -->
<g id="edge3" class="edge">
<title>FooterModule&#45;&gt;DocsModule</title>
<path fill="none" stroke="black" d="M116,-122.11C116,-141.34 116,-169 116,-169 116,-169 183.61,-169 183.61,-169"/>
<polygon fill="black" stroke="black" points="183.61,-172.5 193.61,-169 183.61,-165.5 183.61,-172.5"/>
</g>
</g>
</svg>
