<?xml version="1.0" encoding="UTF-8" standalone="no"?>
<!DOCTYPE svg PUBLIC "-//W3C//DTD SVG 1.1//EN"
 "http://www.w3.org/Graphics/SVG/1.1/DTD/svg11.dtd">
<!-- Generated by graphviz version 2.47.0 (20210316.0004)
 -->
<!-- Title: dependencies Pages: 1 -->
<svg width="504pt" height="284pt"
 viewBox="0.00 0.00 504.00 284.00" xmlns="http://www.w3.org/2000/svg" xmlns:xlink="http://www.w3.org/1999/xlink">
<g id="graph0" class="graph" transform="scale(1 1) rotate(0) translate(4 280)">
<title>dependencies</title>
<polygon fill="white" stroke="transparent" points="-4,4 -4,-280 500,-280 500,4 -4,4"/>
<text text-anchor="start" x="227.01" y="-42.4" font-family="Times-12" font-weight="bold" font-size="14.00">Legend</text>
<polygon fill="#ffffb3" stroke="transparent" points="14,-10 14,-30 34,-30 34,-10 14,-10"/>
<text text-anchor="start" x="37.63" y="-15.4" font-family="Times-12" font-size="14.00"> &#160;Declarations</text>
<polygon fill="#8dd3c7" stroke="transparent" points="127,-10 127,-30 147,-30 147,-10 127,-10"/>
<text text-anchor="start" x="150.73" y="-15.4" font-family="Times-12" font-size="14.00"> &#160;Module</text>
<polygon fill="#80b1d3" stroke="transparent" points="213,-10 213,-30 233,-30 233,-10 213,-10"/>
<text text-anchor="start" x="236.78" y="-15.4" font-family="Times-12" font-size="14.00"> &#160;Bootstrap</text>
<polygon fill="#fdb462" stroke="transparent" points="310,-10 310,-30 330,-30 330,-10 310,-10"/>
<text text-anchor="start" x="333.67" y="-15.4" font-family="Times-12" font-size="14.00"> &#160;Providers</text>
<polygon fill="#fb8072" stroke="transparent" points="406,-10 406,-30 426,-30 426,-10 406,-10"/>
<text text-anchor="start" x="429.73" y="-15.4" font-family="Times-12" font-size="14.00"> &#160;Exports</text>
<g id="clust1" class="cluster">
<title>cluster_DocsModule</title>
<polygon fill="none" stroke="black" stroke-dasharray="1,5" points="52,-70 52,-268 444,-268 444,-70 52,-70"/>
</g>
<g id="clust5" class="cluster">
<title>cluster_DocsModule_exports</title>
<polygon fill="none" stroke="black" points="185,-208 185,-260 315,-260 315,-208 185,-208"/>
</g>
<g id="clust4" class="cluster">
<title>cluster_DocsModule_imports</title>
<polygon fill="none" stroke="black" points="194,-78 194,-130 436,-130 436,-78 194,-78"/>
</g>
<g id="clust2" class="cluster">
<title>cluster_DocsModule_declarations</title>
<polygon fill="none" stroke="black" points="60,-78 60,-130 186,-130 186,-78 60,-78"/>
</g>
<!-- DocsComponent -->
<g id="node1" class="node">
<title>DocsComponent</title>
<polygon fill="#ffffb3" stroke="black" points="178.1,-122 67.9,-122 67.9,-86 178.1,-86 178.1,-122"/>
<text text-anchor="middle" x="123" y="-99.8" font-family="Times,serif" font-size="14.00">DocsComponent</text>
</g>
<!-- DocsModule -->
<g id="node2" class="node">
<title>DocsModule</title>
<polygon fill="#8dd3c7" stroke="black" points="294.32,-187 291.32,-191 270.32,-191 267.32,-187 205.68,-187 205.68,-151 294.32,-151 294.32,-187"/>
<text text-anchor="middle" x="250" y="-164.8" font-family="Times,serif" font-size="14.00">DocsModule</text>
</g>
<!-- DocsComponent&#45;&gt;DocsModule -->
<g id="edge1" class="edge">
<title>DocsComponent&#45;&gt;DocsModule</title>
<path fill="none" stroke="black" d="M123,-122.11C123,-141.34 123,-169 123,-169 123,-169 195.58,-169 195.58,-169"/>
<polygon fill="black" stroke="black" points="195.58,-172.5 205.58,-169 195.58,-165.5 195.58,-172.5"/>
</g>
<!-- DocsComponent  -->
<g id="node5" class="node">
<title>DocsComponent </title>
<polygon fill="#fb8072" stroke="black" points="306.6,-252 193.4,-252 193.4,-216 306.6,-216 306.6,-252"/>
<text text-anchor="middle" x="250" y="-229.8" font-family="Times,serif" font-size="14.00">DocsComponent </text>
</g>
<!-- DocsModule&#45;&gt;DocsComponent  -->
<g id="edge4" class="edge">
<title>DocsModule&#45;&gt;DocsComponent </title>
<path fill="none" stroke="black" stroke-dasharray="5,2" d="M250,-187.11C250,-187.11 250,-205.99 250,-205.99"/>
<polygon fill="black" stroke="black" points="246.5,-205.99 250,-215.99 253.5,-205.99 246.5,-205.99"/>
</g>
<!-- DocsNavModule -->
<g id="node3" class="node">
<title>DocsNavModule</title>
<polygon fill="#8dd3c7" stroke="black" points="427.64,-122 424.64,-126 403.64,-126 400.64,-122 316.36,-122 316.36,-86 427.64,-86 427.64,-122"/>
<text text-anchor="middle" x="372" y="-99.8" font-family="Times,serif" font-size="14.00">DocsNavModule</text>
</g>
<!-- DocsNavModule&#45;&gt;DocsModule -->
<g id="edge2" class="edge">
<title>DocsNavModule&#45;&gt;DocsModule</title>
<path fill="none" stroke="black" d="M372,-122.11C372,-141.34 372,-169 372,-169 372,-169 304.39,-169 304.39,-169"/>
<polygon fill="black" stroke="black" points="304.39,-165.5 294.39,-169 304.39,-172.5 304.39,-165.5"/>
</g>
<!-- FooterModule -->
<g id="node4" class="node">
<title>FooterModule</title>
<polygon fill="#8dd3c7" stroke="black" points="298.1,-122 295.1,-126 274.1,-126 271.1,-122 201.9,-122 201.9,-86 298.1,-86 298.1,-122"/>
<text text-anchor="middle" x="250" y="-99.8" font-family="Times,serif" font-size="14.00">FooterModule</text>
</g>
<!-- FooterModule&#45;&gt;DocsModule -->
<g id="edge3" class="edge">
<title>FooterModule&#45;&gt;DocsModule</title>
<path fill="none" stroke="black" d="M250,-122.11C250,-122.11 250,-140.99 250,-140.99"/>
<polygon fill="black" stroke="black" points="246.5,-140.99 250,-150.99 253.5,-140.99 246.5,-140.99"/>
</g>
</g>
</svg>
