<svg width="54" height="55" viewBox="0 0 54 55" fill="none" xmlns="http://www.w3.org/2000/svg">
<g clip-path="url(#clip0_1116_9729)">
<path d="M39.114 16.7017C37.8 14.6667 29.718 10.7067 20.628 7.33336C13.428 4.73003 12.06 3.81336 3.45599 3.75836V12.925C3.45599 12.925 21.096 15.84 23.058 16.28C25.02 16.72 27.774 15.455 29.628 16.61C31.482 17.765 32.004 18.8284 31.248 22.4034C30.492 25.9784 28.17 27.6284 26.316 27.1517C22.896 26.3084 23.508 21.5417 22.356 21.12C19.962 20.2584 3.45599 17.4534 3.45599 17.4534V31.735C14.67 28.9484 19.656 30.2867 19.656 30.2867C19.656 30.2867 15.462 39.4534 15.12 44.7884C14.9252 46.9796 15.0709 49.1884 15.552 51.3334H23.49C23.49 51.3334 25.848 38.8667 25.56 35.915C25.272 32.9634 22.176 28.93 22.392 27.83C22.608 26.73 23.976 29.2417 27.54 29.2417C30.33 29.2417 31.356 26.7117 32.4 27.2067C33.444 27.7017 31.212 32.2484 30.834 34.9617C30.456 37.675 28.35 51.3334 28.35 51.3334H34.2C35.8396 45.0484 36.9535 38.6332 37.53 32.1567C37.962 29.04 41.4 20.0567 39.114 16.7017ZM35.154 24.475C33.786 24.64 34.344 21.6884 34.074 20.0567C33.804 18.425 32.526 16.5734 33.714 16.39C34.6106 16.4204 35.4637 16.7906 36.1063 17.4281C36.7489 18.0657 37.1347 18.9246 37.188 19.8367C37.206 22.11 36.522 24.2917 35.154 24.475Z" fill="currentColor"/>
</g>
<defs>
<clipPath id="clip0_1116_9729">
<rect width="54" height="55" fill="currentColor"/>
</clipPath>
</defs>
</svg>
