<svg width="55" height="54" viewBox="0 0 55 54" fill="none" xmlns="http://www.w3.org/2000/svg">
<g clip-path="url(#clip0_1116_9755)">
<path d="M48.565 20.664C46.035 20.988 43.9633 21.132 42.13 21.24C36.74 21.6 33.4767 21.816 28.655 26.64C27.5517 27.7532 26.3214 28.7377 24.9883 29.574C25.8192 28.0326 26.4829 26.4097 26.9683 24.732C27.3041 23.3598 27.3971 21.9412 27.2433 20.538V19.8C27.2433 19.386 27.2433 18.972 27.2433 18.54C27.7933 17.676 28.5633 16.506 29.3883 15.318H30.2683C32.8141 15.3854 35.3361 14.822 37.6016 13.68C37.7085 13.6241 37.8024 13.5472 37.8775 13.454C37.9527 13.3609 38.0075 13.2535 38.0384 13.1386C38.0694 13.0238 38.0759 12.9039 38.0575 12.7864C38.0392 12.6689 37.9963 12.5565 37.9316 12.456C37.7838 12.2546 37.5655 12.1139 37.3186 12.0608C37.0716 12.0076 36.8134 12.0458 36.5933 12.168C34.7238 13.0929 32.6549 13.5622 30.5616 13.536C30.6176 13.4499 30.6667 13.3596 30.7083 13.266C31.46 11.88 31.295 9.19802 32.6333 8.92802C32.7529 8.90646 32.867 8.86174 32.9689 8.79647C33.0707 8.7312 33.1583 8.64668 33.2266 8.54784C33.2948 8.449 33.3424 8.33781 33.3664 8.22075C33.3905 8.10369 33.3905 7.98311 33.3667 7.86602C33.3376 7.72138 33.2748 7.58533 33.1832 7.46853C33.0916 7.35173 32.9737 7.25736 32.8387 7.19284C32.7037 7.12831 32.5553 7.09537 32.4051 7.09662C32.255 7.09787 32.1072 7.13326 31.9733 7.20002C29.6633 7.65002 29.48 11.088 28.7283 12.474C28.4404 13.0341 28.1159 13.5752 27.7567 14.094C27.39 14.616 27.0233 15.156 26.6933 15.66C26.0557 12.3325 25.0981 9.07194 23.8333 5.92202L23.7233 5.40002C23.6398 5.16604 23.4668 4.97319 23.2409 4.86231C23.015 4.75144 22.7541 4.73124 22.5133 4.80602C22.3947 4.83496 22.2834 4.88734 22.1862 4.95996C22.089 5.03258 22.0078 5.12392 21.9478 5.22838C21.8877 5.33284 21.85 5.44823 21.8369 5.56749C21.8238 5.68676 21.8356 5.80739 21.8717 5.92202C23.2625 10.2648 24.1241 14.7541 24.4383 19.296C24.474 20.2938 24.4311 21.2928 24.31 22.284C22.3432 21.3135 20.6473 19.8865 19.3694 18.1268C18.0915 16.3671 17.2702 14.3279 16.9766 12.186C16.9533 11.9441 16.8351 11.7205 16.6469 11.5626C16.4587 11.4047 16.2154 11.3249 15.9683 11.34C15.7203 11.34 15.4825 11.4367 15.3072 11.6089C15.1318 11.781 15.0333 12.0145 15.0333 12.258C14.9966 12.6 15.4366 19.8 23.8333 24.156C23.0976 26.669 21.787 28.9839 20.0016 30.924C19.3166 31.6411 18.7533 32.4615 18.3333 33.354C17.5829 35.2193 17.1254 37.1858 16.9766 39.186C16.874 40.2673 16.7149 41.3427 16.5 42.408C16.3956 42.8909 16.2097 43.3533 15.95 43.776C14.8976 40.4821 14.0527 37.1278 13.42 33.732C13.3702 32.8447 13.3702 31.9553 13.42 31.068C15.7154 30.3011 17.6625 28.7654 18.92 26.73C18.9825 26.6276 19.0222 26.5134 19.0365 26.3948C19.0508 26.2763 19.0394 26.1561 19.003 26.0422C18.9667 25.9283 18.9062 25.8232 18.8255 25.7339C18.7448 25.6446 18.6458 25.5731 18.535 25.524C18.3114 25.4081 18.0516 25.379 17.8071 25.4423C17.5626 25.5057 17.3513 25.6569 17.215 25.866C16.3291 27.3157 15.0016 28.4554 13.42 29.124C13.6033 26.136 13.9883 23.166 13.9883 23.13C14.0009 23.0103 13.9889 22.8894 13.9531 22.7743C13.9173 22.6592 13.8583 22.5524 13.7797 22.4601C13.701 22.3678 13.6044 22.2919 13.4953 22.2369C13.3863 22.182 13.2672 22.149 13.145 22.14C12.898 22.1083 12.6481 22.171 12.4468 22.315C12.2455 22.459 12.1082 22.6735 12.0633 22.914C11.5505 26.557 11.3604 30.2368 11.495 33.912C11.6326 34.9551 11.8346 35.989 12.1 37.008C10.1126 36.1604 8.4953 34.649 7.53498 32.742C7.3965 32.5405 7.18849 32.3949 6.94929 32.332C6.71009 32.2692 6.45581 32.2933 6.23332 32.4C6.12055 32.4446 6.01841 32.5116 5.93334 32.5969C5.84828 32.6822 5.78213 32.7838 5.73907 32.8954C5.696 33.007 5.67696 33.1262 5.68315 33.2454C5.68933 33.3646 5.7206 33.4813 5.77498 33.588C6.46347 34.9332 7.42549 36.1256 8.60164 37.0915C9.77779 38.0574 11.1431 38.7764 12.6133 39.204C13.2916 41.778 14.08 44.352 14.4466 45.504C14.0645 45.7714 13.6523 45.9948 13.2183 46.17C13.4595 46.0874 13.7166 46.0591 13.9704 46.0871C14.2243 46.1152 14.4685 46.1989 14.685 46.332C15.4183 46.71 16.17 47.682 15.8766 48.132C15.8766 48.222 15.7483 48.258 15.6933 48.312C16.8613 47.826 17.8936 47.0723 18.7038 46.1139C19.514 45.1556 20.0785 44.0206 20.35 42.804C20.6067 41.526 20.735 40.482 20.845 39.492C20.9635 37.6399 21.378 35.8176 22.0733 34.092C22.244 33.6976 22.4592 33.3233 22.715 32.976C25.3665 31.7381 27.7989 30.0912 29.92 28.098C34.4341 27.778 38.9222 28.9988 42.625 31.554C42.7967 31.6725 43.0018 31.7354 43.2116 31.734C43.3594 31.7355 43.5056 31.7038 43.639 31.6414C43.7725 31.579 43.8896 31.4876 43.9816 31.374C44.0605 31.283 44.1183 31.1762 44.1511 31.0612C44.1839 30.9461 44.191 30.8255 44.1718 30.7075C44.1527 30.5895 44.1077 30.4769 44.0401 30.3776C43.9725 30.2783 43.8837 30.1945 43.78 30.132C40.2903 27.7432 36.1701 26.3989 31.9183 26.262C32.9296 25.3904 34.0822 24.6907 35.3283 24.192C37.7954 25.3548 40.5135 25.9108 43.2483 25.812C44.6222 25.805 45.9941 25.7088 47.355 25.524C47.4773 25.5129 47.5961 25.4777 47.7044 25.4206C47.8126 25.3635 47.908 25.2856 47.985 25.1916C48.0619 25.0976 48.1189 24.9893 48.1524 24.8733C48.1859 24.7572 48.1953 24.6357 48.18 24.516C48.1269 24.2773 47.9843 24.067 47.7805 23.9269C47.5766 23.7869 47.3265 23.7273 47.08 23.76C44.1004 24.1779 41.0681 24.0559 38.1333 23.4C39.3433 23.202 40.6633 23.112 42.2583 23.004C43.8533 22.896 46.2366 22.734 48.84 22.41C48.9623 22.3989 49.0811 22.3637 49.1894 22.3066C49.2976 22.2495 49.393 22.1716 49.47 22.0776C49.5469 21.9836 49.6039 21.8753 49.6374 21.7593C49.6709 21.6432 49.6802 21.5217 49.665 21.402C49.6161 21.1623 49.4736 20.951 49.2681 20.813C49.0625 20.6751 48.8102 20.6216 48.565 20.664Z" fill="currentColor"/>
<path d="M15.4 47.934C15.1617 48.24 14.3 48.114 13.7683 47.754C13.2367 47.394 13.0167 46.854 13.255 46.53C13.4933 46.206 14.1533 46.26 14.685 46.53C15.2167 46.8 15.6567 47.628 15.4 47.934Z" fill="currentColor"/>
</g>
<defs>
<clipPath id="clip0_1116_9755">
<rect width="55" height="54" fill="currentColor"/>
</clipPath>
</defs>
</svg>
