<svg width="46" height="16" viewBox="0 0 46 16" fill="none" xmlns="http://www.w3.org/2000/svg">
<g clip-path="url(#clip0_2348_1083)">
<mask id="mask0_2348_1083" style="mask-type:luminance" maskUnits="userSpaceOnUse" x="0" y="0" width="15" height="16">
<path d="M0 0.144775H14.122V15.5081H0V0.144775Z" fill="white"/>
</mask>
<g mask="url(#mask0_2348_1083)">
<path fill-rule="evenodd" clip-rule="evenodd" d="M14.122 15.5081H11.0751L10.0825 12.3454H4.03892L3.06626 15.5081H0L5.35053 0.144775H7.56095C8.31087 0.144775 8.79266 0.398775 8.98876 0.989442C9.18426 1.57811 11.6217 8.41211 11.6217 8.41211H8.77147L7.04103 3.22144L4.84997 9.76011H10.9698C11.7905 9.76011 12.2414 10.0521 12.4587 10.7868L14.122 15.5081Z" fill="#E00D3A"/>
</g>
<path fill-rule="evenodd" clip-rule="evenodd" d="M40.8456 15.5088H37.7981L36.8055 12.3461H30.7625L29.7893 15.5088H26.7236L32.0741 0.144775H34.2845C35.0345 0.144775 35.5163 0.399442 35.7118 0.990109C35.9073 1.57878 38.3447 8.41278 38.3447 8.41278H35.4951L33.7646 3.22211L31.5736 9.76078H37.6934C38.5141 9.76078 38.9644 10.0528 39.1823 10.7874L40.9697 15.6441M20.2763 12.7301C22.9698 12.7301 24.1095 11.2981 24.1095 7.83678C24.1095 4.41811 23.0291 2.83678 20.631 2.83678H17.9376V12.7301H20.2763ZM15.0892 0.144775H20.6316C24.9562 0.144775 27.0789 2.64478 27.0789 7.83678C27.0789 10.7008 26.2533 12.8594 24.7789 14.1408C23.4031 15.3374 21.8694 15.5081 19.846 15.5081H15.0886L15.0892 0.144775Z" fill="#E00D3A"/>
<mask id="mask1_2348_1083" style="mask-type:luminance" maskUnits="userSpaceOnUse" x="41" y="11" width="5" height="5">
<path d="M41.0266 11.0181H45.4577V15.7214H41.0266V11.0181Z" fill="white"/>
</mask>
<g mask="url(#mask1_2348_1083)">
<path fill-rule="evenodd" clip-rule="evenodd" d="M42.9198 13.2627H43.1565C43.4331 13.2627 43.6564 13.1627 43.6564 12.9194C43.6564 12.7047 43.5112 12.5621 43.1964 12.5621C43.0645 12.5621 42.9725 12.5767 42.9198 12.5907V13.2627ZM42.9065 14.5774H42.4072V12.2474C42.6045 12.2047 42.8805 12.1621 43.2358 12.1621C43.6431 12.1621 43.8271 12.2334 43.9851 12.3474C44.1031 12.4474 44.1951 12.6341 44.1951 12.8474C44.1951 13.1194 44.0111 13.3194 43.7484 13.4054V13.4341C43.9584 13.5054 44.0771 13.6914 44.1431 14.0061C44.2084 14.3634 44.2478 14.5061 44.3004 14.5774H43.7617C43.6952 14.4921 43.6564 14.2914 43.5904 14.0201C43.5511 13.7627 43.4198 13.6487 43.1432 13.6487H42.9071L42.9065 14.5774ZM43.2358 11.4901C42.2885 11.4901 41.5792 12.3334 41.5792 13.3627C41.5792 14.4061 42.2885 15.2354 43.2618 15.2354C44.2084 15.2494 44.9051 14.4061 44.9051 13.3621C44.9051 12.3334 44.209 11.4901 43.2485 11.4901H43.2358ZM43.2618 11.0181C44.4977 11.0181 45.4577 12.0621 45.4577 13.3627C45.4577 14.6921 44.4977 15.7214 43.2485 15.7214C42.0125 15.7214 41.0266 14.6921 41.0266 13.3627C41.0266 12.0621 42.0131 11.0181 43.2485 11.0181H43.2618Z" fill="#E00D3A"/>
</g>
</g>
<defs>
<clipPath id="clip0_2348_1083">
<rect width="46" height="16" fill="white"/>
</clipPath>
</defs>
</svg>
