<svg width="40" height="40" viewBox="0 0 40 40" fill="none" xmlns="http://www.w3.org/2000/svg">
<g clip-path="url(#clip0_1409_403)">
<g clip-path="url(#clip1_1409_403)">
<path d="M20 40C31.0457 40 40 31.0457 40 20C40 8.95431 31.0457 0 20 0C8.95431 0 0 8.95431 0 20C0 31.0457 8.95431 40 20 40Z" fill="#201E3D"/>
<path d="M10.9067 13.4171C10.9067 13.0248 10.8914 12.6286 10.9067 12.2362C10.9372 11.4971 11.4095 11.021 12.1524 11.0019C12.941 10.9829 13.7295 10.9829 14.5143 11.0019C15.2533 11.021 15.7372 11.5086 15.7562 12.2438C15.7752 13.0438 15.7752 13.8476 15.7562 14.6476C15.7372 15.3829 15.2495 15.8667 14.5105 15.8819C13.7219 15.901 12.9333 15.901 12.1486 15.8819C11.4057 15.8629 10.9372 15.3829 10.9067 14.64C10.8914 14.2324 10.9067 13.8248 10.9067 13.4171Z" fill="white"/>
<path d="M22.2819 13.4629C22.2819 13.8438 22.2895 14.2248 22.2819 14.6019C22.259 15.3638 21.7867 15.859 21.0324 15.8781C20.2438 15.8971 19.4552 15.8971 18.6705 15.8781C17.9276 15.859 17.4514 15.379 17.4324 14.6362C17.4133 13.8362 17.4133 13.0324 17.4324 12.2324C17.4514 11.4933 17.9352 11.0171 18.6781 10.9981C19.4667 10.979 20.2552 10.979 21.04 10.9981C21.779 11.0171 22.2552 11.5048 22.2819 12.24C22.2971 12.6476 22.2819 13.0552 22.2819 13.4629Z" fill="white"/>
<path d="M15.7638 19.9733C15.7638 20.3657 15.7753 20.7619 15.7638 21.1543C15.7372 21.8895 15.261 22.3771 14.5219 22.3962C13.7334 22.4152 12.9486 22.4152 12.16 22.3962C11.4172 22.3771 10.9334 21.901 10.9143 21.1619C10.8914 20.3619 10.8953 19.5581 10.9143 18.7581C10.9334 18 11.4248 17.5276 12.1943 17.5162C12.9562 17.501 13.7143 17.5048 14.4762 17.5162C15.2572 17.5276 15.7448 18.0152 15.7676 18.7924C15.7791 19.1848 15.7676 19.581 15.7676 19.9733H15.7638Z" fill="white"/>
<path d="M22.2819 19.9771C22.2819 20.3695 22.2933 20.7657 22.2819 21.1581C22.2552 21.8933 21.7752 22.381 21.04 22.3962C20.2514 22.4152 19.4628 22.4152 18.6781 22.3962C17.9352 22.3771 17.4552 21.901 17.4362 21.1619C17.4171 20.3619 17.4171 19.5581 17.4362 18.7581C17.4552 18.0152 17.9352 17.539 18.6743 17.52C19.4628 17.501 20.2476 17.501 21.0362 17.52C21.7904 17.539 22.2628 18.0343 22.2857 18.7962C22.2971 19.1886 22.2857 19.5848 22.2857 19.9771H22.2819Z" fill="white"/>
<path d="M24.24 13.4171C24.24 13.0248 24.2247 12.6286 24.24 12.2362C24.2705 11.4971 24.7428 11.021 25.4857 11.0019C26.2743 10.9829 27.0628 10.9829 27.8476 11.0019C28.5867 11.021 29.0705 11.5086 29.0895 12.2438C29.1086 13.0438 29.1086 13.8476 29.0895 14.6476C29.0705 15.3829 28.5828 15.8667 27.8438 15.8819C27.0552 15.901 26.2667 15.901 25.4819 15.8819C24.739 15.8629 24.2705 15.3829 24.24 14.64C24.2247 14.2324 24.24 13.8248 24.24 13.4171Z" fill="white"/>
<path d="M29.0934 19.9733C29.0934 20.3657 29.1048 20.7619 29.0934 21.1543C29.0667 21.8895 28.5905 22.3771 27.8515 22.3962C27.0629 22.4152 26.2781 22.4152 25.4896 22.3962C24.7467 22.3771 24.2629 21.901 24.2438 21.1619C24.221 20.3619 24.2248 19.5581 24.2438 18.7581C24.2629 18 24.7543 17.5276 25.5238 17.5162C26.2857 17.501 27.0438 17.5048 27.8057 17.5162C28.5867 17.5276 29.0743 18.0152 29.0972 18.7924C29.1086 19.1848 29.0972 19.581 29.0972 19.9733H29.0934Z" fill="white"/>
<path d="M15.7638 26.5752C15.7638 26.9676 15.7753 27.3638 15.7638 27.7562C15.7372 28.4914 15.261 28.9791 14.5219 28.9981C13.7334 29.0171 12.9486 29.0171 12.16 28.9981C11.4172 28.9791 10.9334 28.5029 10.9143 27.7638C10.8914 26.9638 10.8953 26.16 10.9143 25.36C10.9334 24.6019 11.4248 24.1295 12.1943 24.1181C12.9562 24.1029 13.7143 24.1067 14.4762 24.1181C15.2572 24.1295 15.7448 24.6171 15.7676 25.3943C15.7791 25.7867 15.7676 26.1829 15.7676 26.5752H15.7638Z" fill="white"/>
<path d="M22.2819 26.579C22.2819 26.9714 22.2933 27.3676 22.2819 27.76C22.2552 28.4952 21.7752 28.9829 21.04 28.9981C20.2514 29.0171 19.4628 29.0171 18.6781 28.9981C17.9352 28.979 17.4552 28.5029 17.4362 27.7638C17.4171 26.9638 17.4171 26.16 17.4362 25.36C17.4552 24.6171 17.9352 24.141 18.6743 24.1219C19.4628 24.1029 20.2476 24.1029 21.0362 24.1219C21.7904 24.141 22.2628 24.6362 22.2857 25.3981C22.2971 25.7905 22.2857 26.1867 22.2857 26.579H22.2819Z" fill="white"/>
<path d="M29.0934 26.5752C29.0934 26.9676 29.1048 27.3638 29.0934 27.7562C29.0667 28.4914 28.5905 28.9791 27.8515 28.9981C27.0629 29.0171 26.2781 29.0171 25.4896 28.9981C24.7467 28.9791 24.2629 28.5029 24.2438 27.7638C24.221 26.9638 24.2248 26.16 24.2438 25.36C24.2629 24.6019 24.7543 24.1295 25.5238 24.1181C26.2857 24.1029 27.0438 24.1067 27.8057 24.1181C28.5867 24.1295 29.0743 24.6171 29.0972 25.3943C29.1086 25.7867 29.0972 26.1829 29.0972 26.5752H29.0934Z" fill="white"/>
</g>
</g>
<defs>
<clipPath id="clip0_1409_403">
<rect width="40" height="40" fill="white"/>
</clipPath>
<clipPath id="clip1_1409_403">
<rect width="40" height="40" fill="white"/>
</clipPath>
</defs>
</svg>
