<svg width="48" height="48" viewBox="0 0 48 48" fill="none" xmlns="http://www.w3.org/2000/svg">
<g clip-path="url(#clip0_5373_8742)">
<path d="M24.005 48.0099C37.2625 48.0099 48.0099 37.2625 48.0099 24.005C48.0099 10.7474 37.2625 0 24.005 0C10.7474 0 0 10.7474 0 24.005C0 37.2625 10.7474 48.0099 24.005 48.0099Z" fill="#201E3D"/>
<path d="M18.4743 16.427C18.1863 15.8609 15.9219 15.9006 15.9219 16.5561V21.363C16.3191 20.6082 16.8753 19.9527 17.5606 19.4264C17.5904 18.3637 17.9082 17.3308 18.4843 16.427H18.4743Z" fill="white"/>
<path d="M31.0688 25.0181C31.0688 25.0181 30.2147 21.4824 27.98 20.5091C27.3246 20.3006 25.4276 20.8468 26.5797 23.6476C26.3016 23.3198 25.2389 21.254 26.1327 19.9232C26.7584 19.1088 27.7218 18.6221 28.7547 18.5923C29.4102 18.5923 29.9565 18.0659 29.9565 17.4104C29.9565 17.3012 29.9465 17.182 29.9068 17.0728C29.7181 15.7816 28.0297 15.9604 28.0297 15.9604C28.0297 15.9604 23.6399 15.871 22.5971 18.7711C22.5971 15.2553 27.0961 15.2354 27.0961 15.2354C27.0961 14.1429 23.3221 13.4775 20.9186 15.3347C17.6709 17.8375 17.7007 22.1479 20.2929 25.4154C18.7932 24.4123 17.8398 22.7537 17.7404 20.9461C17.3134 21.4924 16.0421 23.4986 16.4096 27.1634C16.9459 32.6954 28.7051 37.1249 30.6417 34.3242C32.5784 31.5234 31.0887 24.9983 31.0887 24.9983L31.0688 25.0181ZM25.0601 30.3217C25.0601 30.7984 25.0601 31.2751 25.0601 31.7618C25.0601 32.0399 24.9807 32.0796 24.7423 31.9505C23.9478 31.4936 23.1632 31.0368 22.3686 30.5898C22.1005 30.4309 21.9714 30.2124 21.9813 29.8946C21.9813 29.0008 21.9813 28.1069 21.9813 27.2131C21.9813 26.8952 22.0508 26.8555 22.319 27.0144C23.1334 27.4812 23.9378 27.9579 24.7622 28.4247C24.9807 28.5538 25.0701 28.7227 25.0701 28.971C25.0701 29.4278 25.0701 29.8946 25.0701 30.3515L25.0601 30.3217ZM25.0105 27.9778C24.1861 27.511 23.3618 27.0343 22.5474 26.5576C22.2892 26.4086 22.2991 26.3291 22.5474 26.1702C23.332 25.7134 24.1265 25.2565 24.9211 24.7996C25.1594 24.6606 25.4077 24.6507 25.656 24.7996C26.4506 25.2664 27.255 25.7233 28.0496 26.1802C28.3078 26.3291 28.3078 26.4086 28.0496 26.5576C27.2252 27.0343 26.4108 27.511 25.5865 27.9778C25.507 28.0275 25.4077 28.0572 25.3084 28.097C25.2091 28.0572 25.0998 28.0275 25.0105 27.9778ZM28.278 30.56C27.4636 31.0268 26.6492 31.5036 25.8249 31.9703C25.6262 32.0895 25.5368 32.0299 25.5368 31.7816C25.5368 31.295 25.5368 30.7984 25.5368 30.3117C25.5368 29.8549 25.5368 29.408 25.5368 28.9511C25.5368 28.6929 25.6262 28.5141 25.8547 28.385C26.679 27.9182 27.5033 27.4315 28.3277 26.9648C28.5561 26.8356 28.6355 26.8853 28.6355 27.1435C28.6355 28.0771 28.6355 29.0107 28.6355 29.9443C28.6355 30.2224 28.5164 30.421 28.278 30.56Z" fill="white"/>
</g>
<defs>
<clipPath id="clip0_5373_8742">
<rect width="48" height="48" fill="white"/>
</clipPath>
</defs>
</svg>
