<?xml version="1.0" encoding="UTF-8" standalone="no"?>
<!DOCTYPE svg PUBLIC "-//W3C//DTD SVG 1.1//EN"
 "http://www.w3.org/Graphics/SVG/1.1/DTD/svg11.dtd">
<!-- Generated by graphviz version 2.47.0 (20210316.0004)
 -->
<!-- Title: dependencies Pages: 1 -->
<svg width="1162pt" height="287pt"
 viewBox="0.00 0.00 1162.00 287.00" xmlns="http://www.w3.org/2000/svg" xmlns:xlink="http://www.w3.org/1999/xlink">
<g id="graph0" class="graph" transform="scale(1 1) rotate(0) translate(4 283)">
<title>dependencies</title>
<polygon fill="white" stroke="transparent" points="-4,4 -4,-283 1158,-283 1158,4 -4,4"/>
<text text-anchor="start" x="556.01" y="-42.4" font-family="Times-12" font-weight="bold" font-size="14.00">Legend</text>
<polygon fill="#ffffb3" stroke="transparent" points="343,-10 343,-30 363,-30 363,-10 343,-10"/>
<text text-anchor="start" x="366.63" y="-15.4" font-family="Times-12" font-size="14.00"> &#160;Declarations</text>
<polygon fill="#8dd3c7" stroke="transparent" points="456,-10 456,-30 476,-30 476,-10 456,-10"/>
<text text-anchor="start" x="479.73" y="-15.4" font-family="Times-12" font-size="14.00"> &#160;Module</text>
<polygon fill="#80b1d3" stroke="transparent" points="542,-10 542,-30 562,-30 562,-10 542,-10"/>
<text text-anchor="start" x="565.78" y="-15.4" font-family="Times-12" font-size="14.00"> &#160;Bootstrap</text>
<polygon fill="#fdb462" stroke="transparent" points="639,-10 639,-30 659,-30 659,-10 639,-10"/>
<text text-anchor="start" x="662.67" y="-15.4" font-family="Times-12" font-size="14.00"> &#160;Providers</text>
<polygon fill="#fb8072" stroke="transparent" points="735,-10 735,-30 755,-30 755,-10 735,-10"/>
<text text-anchor="start" x="758.73" y="-15.4" font-family="Times-12" font-size="14.00"> &#160;Exports</text>
<g id="clust1" class="cluster">
<title>cluster_AppModule</title>
<polygon fill="none" stroke="black" stroke-dasharray="1,5" points="8,-146 8,-271 1146,-271 1146,-146 8,-146"/>
</g>
<g id="clust2" class="cluster">
<title>cluster_AppModule_declarations</title>
<polygon fill="none" stroke="black" points="866,-154 866,-206 1138,-206 1138,-154 866,-154"/>
</g>
<g id="clust5" class="cluster">
<title>cluster_AppModule_imports</title>
<polygon fill="none" stroke="black" points="16,-154 16,-206 858,-206 858,-154 16,-154"/>
</g>
<g id="clust9" class="cluster">
<title>cluster_CoreModule</title>
<polygon fill="none" stroke="black" stroke-dasharray="1,5" points="746,-70 746,-138 868,-138 868,-70 746,-70"/>
</g>
<g id="clust11" class="cluster">
<title>cluster_CoreModule_imports</title>
<polygon fill="none" stroke="black" points="754,-78 754,-130 860,-130 860,-78 754,-78"/>
</g>
<!-- AppComponent -->
<g id="node1" class="node">
<title>AppComponent</title>
<polygon fill="#ffffb3" stroke="black" points="1129.94,-198 1024.06,-198 1024.06,-162 1129.94,-162 1129.94,-198"/>
<text text-anchor="middle" x="1077" y="-175.8" font-family="Times,serif" font-size="14.00">AppComponent</text>
</g>
<!-- AppModule -->
<g id="node3" class="node">
<title>AppModule</title>
<polygon fill="#8dd3c7" stroke="black" points="706.66,-263 703.66,-267 682.66,-267 679.66,-263 623.34,-263 623.34,-227 706.66,-227 706.66,-263"/>
<text text-anchor="middle" x="665" y="-240.8" font-family="Times,serif" font-size="14.00">AppModule</text>
</g>
<!-- AppComponent&#45;&gt;AppModule -->
<g id="edge1" class="edge">
<title>AppComponent&#45;&gt;AppModule</title>
<path fill="none" stroke="black" d="M1077,-198.29C1077,-220.21 1077,-254 1077,-254 1077,-254 716.77,-254 716.77,-254"/>
<polygon fill="black" stroke="black" points="716.77,-250.5 706.77,-254 716.77,-257.5 716.77,-250.5"/>
</g>
<!-- AppWebComponent -->
<g id="node2" class="node">
<title>AppWebComponent</title>
<polygon fill="#ffffb3" stroke="black" points="1005.87,-198 874.13,-198 874.13,-162 1005.87,-162 1005.87,-198"/>
<text text-anchor="middle" x="940" y="-175.8" font-family="Times,serif" font-size="14.00">AppWebComponent</text>
</g>
<!-- AppWebComponent&#45;&gt;AppModule -->
<g id="edge2" class="edge">
<title>AppWebComponent&#45;&gt;AppModule</title>
<path fill="none" stroke="black" d="M940,-198.11C940,-217.34 940,-245 940,-245 940,-245 716.77,-245 716.77,-245"/>
<polygon fill="black" stroke="black" points="716.77,-241.5 706.77,-245 716.77,-248.5 716.77,-241.5"/>
</g>
<!-- CoreModule -->
<g id="node4" class="node">
<title>CoreModule</title>
<polygon fill="#8dd3c7" stroke="black" points="850.26,-198 847.26,-202 826.26,-202 823.26,-198 763.74,-198 763.74,-162 850.26,-162 850.26,-198"/>
<text text-anchor="middle" x="807" y="-175.8" font-family="Times,serif" font-size="14.00">CoreModule</text>
</g>
<!-- CoreModule&#45;&gt;AppModule -->
<g id="edge3" class="edge">
<title>CoreModule&#45;&gt;AppModule</title>
<path fill="none" stroke="black" d="M807,-198.03C807,-214.4 807,-236 807,-236 807,-236 716.84,-236 716.84,-236"/>
<polygon fill="black" stroke="black" points="716.84,-232.5 706.84,-236 716.84,-239.5 716.84,-232.5"/>
</g>
<!-- FiltersContentComponent -->
<g id="node5" class="node">
<title>FiltersContentComponent</title>
<polygon fill="#8dd3c7" stroke="black" points="745.94,-198 742.94,-202 721.94,-202 718.94,-198 584.06,-198 584.06,-162 745.94,-162 745.94,-198"/>
<text text-anchor="middle" x="665" y="-175.8" font-family="Times,serif" font-size="14.00">FiltersContentComponent</text>
</g>
<!-- FiltersContentComponent&#45;&gt;AppModule -->
<g id="edge4" class="edge">
<title>FiltersContentComponent&#45;&gt;AppModule</title>
<path fill="none" stroke="black" d="M665,-198.11C665,-198.11 665,-216.99 665,-216.99"/>
<polygon fill="black" stroke="black" points="661.5,-216.99 665,-226.99 668.5,-216.99 661.5,-216.99"/>
</g>
<!-- OntologySelectionComponent -->
<g id="node6" class="node">
<title>OntologySelectionComponent</title>
<polygon fill="#8dd3c7" stroke="black" points="566.32,-198 563.32,-202 542.32,-202 539.32,-198 379.68,-198 379.68,-162 566.32,-162 566.32,-198"/>
<text text-anchor="middle" x="473" y="-175.8" font-family="Times,serif" font-size="14.00">OntologySelectionComponent</text>
</g>
<!-- OntologySelectionComponent&#45;&gt;AppModule -->
<g id="edge5" class="edge">
<title>OntologySelectionComponent&#45;&gt;AppModule</title>
<path fill="none" stroke="black" d="M473,-198.03C473,-214.4 473,-236 473,-236 473,-236 613.34,-236 613.34,-236"/>
<polygon fill="black" stroke="black" points="613.34,-239.5 623.34,-236 613.34,-232.5 613.34,-239.5"/>
</g>
<!-- OrganSelectComponent -->
<g id="node7" class="node">
<title>OrganSelectComponent</title>
<polygon fill="#8dd3c7" stroke="black" points="362.02,-198 359.02,-202 338.02,-202 335.02,-198 211.98,-198 211.98,-162 362.02,-162 362.02,-198"/>
<text text-anchor="middle" x="287" y="-175.8" font-family="Times,serif" font-size="14.00">OrganSelectComponent</text>
</g>
<!-- OrganSelectComponent&#45;&gt;AppModule -->
<g id="edge6" class="edge">
<title>OrganSelectComponent&#45;&gt;AppModule</title>
<path fill="none" stroke="black" d="M287,-198.11C287,-217.34 287,-245 287,-245 287,-245 613.1,-245 613.1,-245"/>
<polygon fill="black" stroke="black" points="613.1,-248.5 623.1,-245 613.1,-241.5 613.1,-248.5"/>
</g>
<!-- ResultsBrowserComponent -->
<g id="node8" class="node">
<title>ResultsBrowserComponent</title>
<polygon fill="#8dd3c7" stroke="black" points="193.98,-198 190.98,-202 169.98,-202 166.98,-198 24.02,-198 24.02,-162 193.98,-162 193.98,-198"/>
<text text-anchor="middle" x="109" y="-175.8" font-family="Times,serif" font-size="14.00">ResultsBrowserComponent</text>
</g>
<!-- ResultsBrowserComponent&#45;&gt;AppModule -->
<g id="edge7" class="edge">
<title>ResultsBrowserComponent&#45;&gt;AppModule</title>
<path fill="none" stroke="black" d="M109,-198.29C109,-220.21 109,-254 109,-254 109,-254 613.21,-254 613.21,-254"/>
<polygon fill="black" stroke="black" points="613.21,-257.5 623.21,-254 613.21,-250.5 613.21,-257.5"/>
</g>
<!-- StoreModule -->
<g id="node9" class="node">
<title>StoreModule</title>
<polygon fill="#8dd3c7" stroke="black" points="851.6,-122 848.6,-126 827.6,-126 824.6,-122 762.4,-122 762.4,-86 851.6,-86 851.6,-122"/>
<text text-anchor="middle" x="807" y="-99.8" font-family="Times,serif" font-size="14.00">StoreModule</text>
</g>
<!-- StoreModule&#45;&gt;CoreModule -->
<g id="edge8" class="edge">
<title>StoreModule&#45;&gt;CoreModule</title>
<path fill="none" stroke="black" d="M807,-122.01C807,-122.01 807,-151.85 807,-151.85"/>
<polygon fill="black" stroke="black" points="803.5,-151.85 807,-161.85 810.5,-151.85 803.5,-151.85"/>
</g>
</g>
</svg>
