<?xml version="1.0" encoding="UTF-8" standalone="no"?>
<!DOCTYPE svg PUBLIC "-//W3C//DTD SVG 1.1//EN"
 "http://www.w3.org/Graphics/SVG/1.1/DTD/svg11.dtd">
<!-- Generated by graphviz version 2.47.0 (20210316.0004)
 -->
<!-- Title: dependencies Pages: 1 -->
<svg width="504pt" height="284pt"
 viewBox="0.00 0.00 504.00 284.00" xmlns="http://www.w3.org/2000/svg" xmlns:xlink="http://www.w3.org/1999/xlink">
<g id="graph0" class="graph" transform="scale(1 1) rotate(0) translate(4 280)">
<title>dependencies</title>
<polygon fill="white" stroke="transparent" points="-4,4 -4,-280 500,-280 500,4 -4,4"/>
<text text-anchor="start" x="227.01" y="-42.4" font-family="Times-12" font-weight="bold" font-size="14.00">Legend</text>
<polygon fill="#ffffb3" stroke="transparent" points="14,-10 14,-30 34,-30 34,-10 14,-10"/>
<text text-anchor="start" x="37.63" y="-15.4" font-family="Times-12" font-size="14.00"> &#160;Declarations</text>
<polygon fill="#8dd3c7" stroke="transparent" points="127,-10 127,-30 147,-30 147,-10 127,-10"/>
<text text-anchor="start" x="150.73" y="-15.4" font-family="Times-12" font-size="14.00"> &#160;Module</text>
<polygon fill="#80b1d3" stroke="transparent" points="213,-10 213,-30 233,-30 233,-10 213,-10"/>
<text text-anchor="start" x="236.78" y="-15.4" font-family="Times-12" font-size="14.00"> &#160;Bootstrap</text>
<polygon fill="#fdb462" stroke="transparent" points="310,-10 310,-30 330,-30 330,-10 310,-10"/>
<text text-anchor="start" x="333.67" y="-15.4" font-family="Times-12" font-size="14.00"> &#160;Providers</text>
<polygon fill="#fb8072" stroke="transparent" points="406,-10 406,-30 426,-30 426,-10 406,-10"/>
<text text-anchor="start" x="429.73" y="-15.4" font-family="Times-12" font-size="14.00"> &#160;Exports</text>
<g id="clust1" class="cluster">
<title>cluster_SimpleImageModule</title>
<polygon fill="none" stroke="black" stroke-dasharray="1,5" points="82,-70 82,-268 414,-268 414,-70 82,-70"/>
</g>
<g id="clust5" class="cluster">
<title>cluster_SimpleImageModule_exports</title>
<polygon fill="none" stroke="black" points="160,-208 160,-260 336,-260 336,-208 160,-208"/>
</g>
<g id="clust4" class="cluster">
<title>cluster_SimpleImageModule_imports</title>
<polygon fill="none" stroke="black" points="270,-78 270,-130 406,-130 406,-78 270,-78"/>
</g>
<g id="clust2" class="cluster">
<title>cluster_SimpleImageModule_declarations</title>
<polygon fill="none" stroke="black" points="90,-78 90,-130 262,-130 262,-78 90,-78"/>
</g>
<!-- SimpleImageComponent -->
<g id="node1" class="node">
<title>SimpleImageComponent</title>
<polygon fill="#ffffb3" stroke="black" points="253.98,-122 98.02,-122 98.02,-86 253.98,-86 253.98,-122"/>
<text text-anchor="middle" x="176" y="-99.8" font-family="Times,serif" font-size="14.00">SimpleImageComponent</text>
</g>
<!-- SimpleImageModule -->
<g id="node2" class="node">
<title>SimpleImageModule</title>
<polygon fill="#8dd3c7" stroke="black" points="315.2,-187 312.2,-191 291.2,-191 288.2,-187 180.8,-187 180.8,-151 315.2,-151 315.2,-187"/>
<text text-anchor="middle" x="248" y="-164.8" font-family="Times,serif" font-size="14.00">SimpleImageModule</text>
</g>
<!-- SimpleImageComponent&#45;&gt;SimpleImageModule -->
<g id="edge1" class="edge">
<title>SimpleImageComponent&#45;&gt;SimpleImageModule</title>
<path fill="none" stroke="black" d="M217.45,-122.11C217.45,-122.11 217.45,-140.99 217.45,-140.99"/>
<polygon fill="black" stroke="black" points="213.95,-140.99 217.45,-150.99 220.95,-140.99 213.95,-140.99"/>
</g>
<!-- SimpleImageComponent  -->
<g id="node4" class="node">
<title>SimpleImageComponent </title>
<polygon fill="#fb8072" stroke="black" points="327.98,-252 168.02,-252 168.02,-216 327.98,-216 327.98,-252"/>
<text text-anchor="middle" x="248" y="-229.8" font-family="Times,serif" font-size="14.00">SimpleImageComponent </text>
</g>
<!-- SimpleImageModule&#45;&gt;SimpleImageComponent  -->
<g id="edge3" class="edge">
<title>SimpleImageModule&#45;&gt;SimpleImageComponent </title>
<path fill="none" stroke="black" stroke-dasharray="5,2" d="M248,-187.11C248,-187.11 248,-205.99 248,-205.99"/>
<polygon fill="black" stroke="black" points="244.5,-205.99 248,-215.99 251.5,-205.99 244.5,-205.99"/>
</g>
<!-- UseButtonModule -->
<g id="node3" class="node">
<title>UseButtonModule</title>
<polygon fill="#8dd3c7" stroke="black" points="397.93,-122 394.93,-126 373.93,-126 370.93,-122 278.07,-122 278.07,-86 397.93,-86 397.93,-122"/>
<text text-anchor="middle" x="338" y="-99.8" font-family="Times,serif" font-size="14.00">UseButtonModule</text>
</g>
<!-- UseButtonModule&#45;&gt;SimpleImageModule -->
<g id="edge2" class="edge">
<title>UseButtonModule&#45;&gt;SimpleImageModule</title>
<path fill="none" stroke="black" d="M296.69,-122.11C296.69,-122.11 296.69,-140.99 296.69,-140.99"/>
<polygon fill="black" stroke="black" points="293.19,-140.99 296.69,-150.99 300.19,-140.99 293.19,-140.99"/>
</g>
</g>
</svg>
