<?xml version="1.0" encoding="UTF-8" standalone="no"?>
<!DOCTYPE svg PUBLIC "-//W3C//DTD SVG 1.1//EN"
 "http://www.w3.org/Graphics/SVG/1.1/DTD/svg11.dtd">
<!-- Generated by graphviz version 2.47.0 (20210316.0004)
 -->
<!-- Title: dependencies Pages: 1 -->
<svg width="882pt" height="284pt"
 viewBox="0.00 0.00 882.00 284.00" xmlns="http://www.w3.org/2000/svg" xmlns:xlink="http://www.w3.org/1999/xlink">
<g id="graph0" class="graph" transform="scale(1 1) rotate(0) translate(4 280)">
<title>dependencies</title>
<polygon fill="white" stroke="transparent" points="-4,4 -4,-280 878,-280 878,4 -4,4"/>
<text text-anchor="start" x="416.01" y="-42.4" font-family="Times-12" font-weight="bold" font-size="14.00">Legend</text>
<polygon fill="#ffffb3" stroke="transparent" points="203,-10 203,-30 223,-30 223,-10 203,-10"/>
<text text-anchor="start" x="226.63" y="-15.4" font-family="Times-12" font-size="14.00"> &#160;Declarations</text>
<polygon fill="#8dd3c7" stroke="transparent" points="316,-10 316,-30 336,-30 336,-10 316,-10"/>
<text text-anchor="start" x="339.73" y="-15.4" font-family="Times-12" font-size="14.00"> &#160;Module</text>
<polygon fill="#80b1d3" stroke="transparent" points="402,-10 402,-30 422,-30 422,-10 402,-10"/>
<text text-anchor="start" x="425.78" y="-15.4" font-family="Times-12" font-size="14.00"> &#160;Bootstrap</text>
<polygon fill="#fdb462" stroke="transparent" points="499,-10 499,-30 519,-30 519,-10 499,-10"/>
<text text-anchor="start" x="522.67" y="-15.4" font-family="Times-12" font-size="14.00"> &#160;Providers</text>
<polygon fill="#fb8072" stroke="transparent" points="595,-10 595,-30 615,-30 615,-10 595,-10"/>
<text text-anchor="start" x="618.73" y="-15.4" font-family="Times-12" font-size="14.00"> &#160;Exports</text>
<g id="clust1" class="cluster">
<title>cluster_CardsModule</title>
<polygon fill="none" stroke="black" stroke-dasharray="1,5" points="8,-70 8,-268 866,-268 866,-70 8,-70"/>
</g>
<g id="clust4" class="cluster">
<title>cluster_CardsModule_exports</title>
<polygon fill="none" stroke="black" points="16,-208 16,-260 858,-260 858,-208 16,-208"/>
</g>
<g id="clust3" class="cluster">
<title>cluster_CardsModule_imports</title>
<polygon fill="none" stroke="black" points="24,-78 24,-130 850,-130 850,-78 24,-78"/>
</g>
<!-- ActionCardActionComponent -->
<g id="node1" class="node">
<title>ActionCardActionComponent</title>
<polygon fill="#8dd3c7" stroke="black" points="842.25,-122 839.25,-126 818.25,-126 815.25,-122 657.75,-122 657.75,-86 842.25,-86 842.25,-122"/>
<text text-anchor="middle" x="750" y="-99.8" font-family="Times,serif" font-size="14.00">ActionCardActionComponent</text>
</g>
<!-- CardsModule -->
<g id="node6" class="node">
<title>CardsModule</title>
<polygon fill="#8dd3c7" stroke="black" points="466.21,-187 463.21,-191 442.21,-191 439.21,-187 373.79,-187 373.79,-151 466.21,-151 466.21,-187"/>
<text text-anchor="middle" x="420" y="-164.8" font-family="Times,serif" font-size="14.00">CardsModule</text>
</g>
<!-- ActionCardActionComponent&#45;&gt;CardsModule -->
<g id="edge1" class="edge">
<title>ActionCardActionComponent&#45;&gt;CardsModule</title>
<path fill="none" stroke="black" d="M782.21,-122.27C782.21,-140.56 782.21,-166 782.21,-166 782.21,-166 476.24,-166 476.24,-166"/>
<polygon fill="black" stroke="black" points="476.24,-162.5 466.24,-166 476.24,-169.5 476.24,-162.5"/>
</g>
<!-- ActionCardComponent -->
<g id="node2" class="node">
<title>ActionCardComponent</title>
<polygon fill="#8dd3c7" stroke="black" points="639.15,-122 636.15,-126 615.15,-126 612.15,-122 492.85,-122 492.85,-86 639.15,-86 639.15,-122"/>
<text text-anchor="middle" x="566" y="-99.8" font-family="Times,serif" font-size="14.00">ActionCardComponent</text>
</g>
<!-- ActionCardComponent&#45;&gt;CardsModule -->
<g id="edge2" class="edge">
<title>ActionCardComponent&#45;&gt;CardsModule</title>
<path fill="none" stroke="black" d="M590.86,-122.01C590.86,-138.05 590.86,-159 590.86,-159 590.86,-159 476.24,-159 476.24,-159"/>
<polygon fill="black" stroke="black" points="476.24,-155.5 466.24,-159 476.24,-162.5 476.24,-155.5"/>
</g>
<!-- FlatCardModule -->
<g id="node3" class="node">
<title>FlatCardModule</title>
<polygon fill="#8dd3c7" stroke="black" points="474.04,-122 471.04,-126 450.04,-126 447.04,-122 365.96,-122 365.96,-86 474.04,-86 474.04,-122"/>
<text text-anchor="middle" x="420" y="-99.8" font-family="Times,serif" font-size="14.00">FlatCardModule</text>
</g>
<!-- FlatCardModule&#45;&gt;CardsModule -->
<g id="edge3" class="edge">
<title>FlatCardModule&#45;&gt;CardsModule</title>
<path fill="none" stroke="black" d="M420,-122.11C420,-122.11 420,-140.99 420,-140.99"/>
<polygon fill="black" stroke="black" points="416.5,-140.99 420,-150.99 423.5,-140.99 416.5,-140.99"/>
</g>
<!-- GalleryCardComponent -->
<g id="node4" class="node">
<title>GalleryCardComponent</title>
<polygon fill="#8dd3c7" stroke="black" points="347.02,-122 344.02,-126 323.02,-126 320.02,-122 196.98,-122 196.98,-86 347.02,-86 347.02,-122"/>
<text text-anchor="middle" x="272" y="-99.8" font-family="Times,serif" font-size="14.00">GalleryCardComponent</text>
</g>
<!-- GalleryCardComponent&#45;&gt;CardsModule -->
<g id="edge4" class="edge">
<title>GalleryCardComponent&#45;&gt;CardsModule</title>
<path fill="none" stroke="black" d="M296.25,-122.01C296.25,-138.05 296.25,-159 296.25,-159 296.25,-159 363.57,-159 363.57,-159"/>
<polygon fill="black" stroke="black" points="363.57,-162.5 373.57,-159 363.57,-155.5 363.57,-162.5"/>
</g>
<!-- ProfileCardComponent -->
<g id="node5" class="node">
<title>ProfileCardComponent</title>
<polygon fill="#8dd3c7" stroke="black" points="178.14,-122 175.14,-126 154.14,-126 151.14,-122 31.86,-122 31.86,-86 178.14,-86 178.14,-122"/>
<text text-anchor="middle" x="105" y="-99.8" font-family="Times,serif" font-size="14.00">ProfileCardComponent</text>
</g>
<!-- ProfileCardComponent&#45;&gt;CardsModule -->
<g id="edge5" class="edge">
<title>ProfileCardComponent&#45;&gt;CardsModule</title>
<path fill="none" stroke="black" d="M126.61,-122.27C126.61,-140.56 126.61,-166 126.61,-166 126.61,-166 363.83,-166 363.83,-166"/>
<polygon fill="black" stroke="black" points="363.83,-169.5 373.83,-166 363.83,-162.5 363.83,-169.5"/>
</g>
<!-- ActionCardActionComponent  -->
<g id="node7" class="node">
<title>ActionCardActionComponent </title>
<polygon fill="#fb8072" stroke="black" points="850.25,-252 661.75,-252 661.75,-216 850.25,-216 850.25,-252"/>
<text text-anchor="middle" x="756" y="-229.8" font-family="Times,serif" font-size="14.00">ActionCardActionComponent </text>
</g>
<!-- CardsModule&#45;&gt;ActionCardActionComponent  -->
<g id="edge6" class="edge">
<title>CardsModule&#45;&gt;ActionCardActionComponent </title>
<path fill="none" stroke="black" stroke-dasharray="5,2" d="M466.2,-173C550.81,-173 722.04,-173 722.04,-173 722.04,-173 722.04,-205.7 722.04,-205.7"/>
<polygon fill="black" stroke="black" points="718.54,-205.7 722.04,-215.7 725.54,-205.7 718.54,-205.7"/>
</g>
<!-- ActionCardComponent  -->
<g id="node8" class="node">
<title>ActionCardComponent </title>
<polygon fill="#fb8072" stroke="black" points="644.15,-252 493.85,-252 493.85,-216 644.15,-216 644.15,-252"/>
<text text-anchor="middle" x="569" y="-229.8" font-family="Times,serif" font-size="14.00">ActionCardComponent </text>
</g>
<!-- CardsModule&#45;&gt;ActionCardComponent  -->
<g id="edge7" class="edge">
<title>CardsModule&#45;&gt;ActionCardComponent </title>
<path fill="none" stroke="black" stroke-dasharray="5,2" d="M466.27,-180C500.93,-180 542.39,-180 542.39,-180 542.39,-180 542.39,-205.72 542.39,-205.72"/>
<polygon fill="black" stroke="black" points="538.89,-205.72 542.39,-215.72 545.89,-205.72 538.89,-205.72"/>
</g>
<!-- FlatCardModule  -->
<g id="node9" class="node">
<title>FlatCardModule </title>
<polygon fill="#fb8072" stroke="black" points="476.04,-252 363.96,-252 363.96,-216 476.04,-216 476.04,-252"/>
<text text-anchor="middle" x="420" y="-229.8" font-family="Times,serif" font-size="14.00">FlatCardModule </text>
</g>
<!-- CardsModule&#45;&gt;FlatCardModule  -->
<g id="edge8" class="edge">
<title>CardsModule&#45;&gt;FlatCardModule </title>
<path fill="none" stroke="black" stroke-dasharray="5,2" d="M420,-187.11C420,-187.11 420,-205.99 420,-205.99"/>
<polygon fill="black" stroke="black" points="416.5,-205.99 420,-215.99 423.5,-205.99 416.5,-205.99"/>
</g>
<!-- GalleryCardComponent  -->
<g id="node10" class="node">
<title>GalleryCardComponent </title>
<polygon fill="#fb8072" stroke="black" points="346.02,-252 191.98,-252 191.98,-216 346.02,-216 346.02,-252"/>
<text text-anchor="middle" x="269" y="-229.8" font-family="Times,serif" font-size="14.00">GalleryCardComponent </text>
</g>
<!-- CardsModule&#45;&gt;GalleryCardComponent  -->
<g id="edge9" class="edge">
<title>CardsModule&#45;&gt;GalleryCardComponent </title>
<path fill="none" stroke="black" stroke-dasharray="5,2" d="M373.5,-180C322.11,-180 246.5,-180 246.5,-180 246.5,-180 246.5,-205.72 246.5,-205.72"/>
<polygon fill="black" stroke="black" points="243,-205.72 246.5,-215.72 250,-205.72 243,-205.72"/>
</g>
<!-- ProfileCardComponent  -->
<g id="node11" class="node">
<title>ProfileCardComponent </title>
<polygon fill="#fb8072" stroke="black" points="174.14,-252 23.86,-252 23.86,-216 174.14,-216 174.14,-252"/>
<text text-anchor="middle" x="99" y="-229.8" font-family="Times,serif" font-size="14.00">ProfileCardComponent </text>
</g>
<!-- CardsModule&#45;&gt;ProfileCardComponent  -->
<g id="edge10" class="edge">
<title>CardsModule&#45;&gt;ProfileCardComponent </title>
<path fill="none" stroke="black" stroke-dasharray="5,2" d="M373.68,-173C280.48,-173 79.14,-173 79.14,-173 79.14,-173 79.14,-205.7 79.14,-205.7"/>
<polygon fill="black" stroke="black" points="75.64,-205.7 79.14,-215.7 82.64,-205.7 75.64,-205.7"/>
</g>
</g>
</svg>
