<?xml version="1.0" encoding="UTF-8" standalone="no"?>
<!DOCTYPE svg PUBLIC "-//W3C//DTD SVG 1.1//EN"
 "http://www.w3.org/Graphics/SVG/1.1/DTD/svg11.dtd">
<!-- Generated by graphviz version 2.47.0 (20210316.0004)
 -->
<!-- Title: dependencies Pages: 1 -->
<svg width="710pt" height="284pt"
 viewBox="0.00 0.00 710.00 284.00" xmlns="http://www.w3.org/2000/svg" xmlns:xlink="http://www.w3.org/1999/xlink">
<g id="graph0" class="graph" transform="scale(1 1) rotate(0) translate(4 280)">
<title>dependencies</title>
<polygon fill="white" stroke="transparent" points="-4,4 -4,-280 706,-280 706,4 -4,4"/>
<text text-anchor="start" x="330.01" y="-42.4" font-family="Times-12" font-weight="bold" font-size="14.00">Legend</text>
<polygon fill="#ffffb3" stroke="transparent" points="117,-10 117,-30 137,-30 137,-10 117,-10"/>
<text text-anchor="start" x="140.63" y="-15.4" font-family="Times-12" font-size="14.00"> &#160;Declarations</text>
<polygon fill="#8dd3c7" stroke="transparent" points="230,-10 230,-30 250,-30 250,-10 230,-10"/>
<text text-anchor="start" x="253.73" y="-15.4" font-family="Times-12" font-size="14.00"> &#160;Module</text>
<polygon fill="#80b1d3" stroke="transparent" points="316,-10 316,-30 336,-30 336,-10 316,-10"/>
<text text-anchor="start" x="339.78" y="-15.4" font-family="Times-12" font-size="14.00"> &#160;Bootstrap</text>
<polygon fill="#fdb462" stroke="transparent" points="413,-10 413,-30 433,-30 433,-10 413,-10"/>
<text text-anchor="start" x="436.67" y="-15.4" font-family="Times-12" font-size="14.00"> &#160;Providers</text>
<polygon fill="#fb8072" stroke="transparent" points="509,-10 509,-30 529,-30 529,-10 509,-10"/>
<text text-anchor="start" x="532.73" y="-15.4" font-family="Times-12" font-size="14.00"> &#160;Exports</text>
<g id="clust1" class="cluster">
<title>cluster_CardsModule</title>
<polygon fill="none" stroke="black" stroke-dasharray="1,5" points="8,-70 8,-268 694,-268 694,-70 8,-70"/>
</g>
<g id="clust3" class="cluster">
<title>cluster_CardsModule_imports</title>
<polygon fill="none" stroke="black" points="24,-78 24,-130 681,-130 681,-78 24,-78"/>
</g>
<g id="clust4" class="cluster">
<title>cluster_CardsModule_exports</title>
<polygon fill="none" stroke="black" points="16,-208 16,-260 686,-260 686,-208 16,-208"/>
</g>
<!-- ActionCardActionComponent -->
<g id="node1" class="node">
<title>ActionCardActionComponent</title>
<polygon fill="#8dd3c7" stroke="black" points="673.25,-122 670.25,-126 649.25,-126 646.25,-122 488.75,-122 488.75,-86 673.25,-86 673.25,-122"/>
<text text-anchor="middle" x="581" y="-99.8" font-family="Times,serif" font-size="14.00">ActionCardActionComponent</text>
</g>
<!-- CardsModule -->
<g id="node5" class="node">
<title>CardsModule</title>
<polygon fill="#8dd3c7" stroke="black" points="299.21,-187 296.21,-191 275.21,-191 272.21,-187 206.79,-187 206.79,-151 299.21,-151 299.21,-187"/>
<text text-anchor="middle" x="253" y="-164.8" font-family="Times,serif" font-size="14.00">CardsModule</text>
</g>
<!-- ActionCardActionComponent&#45;&gt;CardsModule -->
<g id="edge1" class="edge">
<title>ActionCardActionComponent&#45;&gt;CardsModule</title>
<path fill="none" stroke="black" d="M612.21,-122.27C612.21,-140.56 612.21,-166 612.21,-166 612.21,-166 309.22,-166 309.22,-166"/>
<polygon fill="black" stroke="black" points="309.22,-162.5 299.22,-166 309.22,-169.5 309.22,-162.5"/>
</g>
<!-- ActionCardComponent -->
<g id="node2" class="node">
<title>ActionCardComponent</title>
<polygon fill="#8dd3c7" stroke="black" points="470.15,-122 467.15,-126 446.15,-126 443.15,-122 323.85,-122 323.85,-86 470.15,-86 470.15,-122"/>
<text text-anchor="middle" x="397" y="-99.8" font-family="Times,serif" font-size="14.00">ActionCardComponent</text>
</g>
<!-- ActionCardComponent&#45;&gt;CardsModule -->
<g id="edge2" class="edge">
<title>ActionCardComponent&#45;&gt;CardsModule</title>
<path fill="none" stroke="black" d="M421.44,-122.01C421.44,-138.05 421.44,-159 421.44,-159 421.44,-159 309.47,-159 309.47,-159"/>
<polygon fill="black" stroke="black" points="309.47,-155.5 299.47,-159 309.47,-162.5 309.47,-155.5"/>
</g>
<!-- FlatCardModule -->
<g id="node3" class="node">
<title>FlatCardModule</title>
<polygon fill="#8dd3c7" stroke="black" points="305.04,-122 302.04,-126 281.04,-126 278.04,-122 196.96,-122 196.96,-86 305.04,-86 305.04,-122"/>
<text text-anchor="middle" x="251" y="-99.8" font-family="Times,serif" font-size="14.00">FlatCardModule</text>
</g>
<!-- FlatCardModule&#45;&gt;CardsModule -->
<g id="edge3" class="edge">
<title>FlatCardModule&#45;&gt;CardsModule</title>
<path fill="none" stroke="black" d="M253,-122.11C253,-122.11 253,-140.99 253,-140.99"/>
<polygon fill="black" stroke="black" points="249.5,-140.99 253,-150.99 256.5,-140.99 249.5,-140.99"/>
</g>
<!-- ProfileCardComponent -->
<g id="node4" class="node">
<title>ProfileCardComponent</title>
<polygon fill="#8dd3c7" stroke="black" points="178.14,-122 175.14,-126 154.14,-126 151.14,-122 31.86,-122 31.86,-86 178.14,-86 178.14,-122"/>
<text text-anchor="middle" x="105" y="-99.8" font-family="Times,serif" font-size="14.00">ProfileCardComponent</text>
</g>
<!-- ProfileCardComponent&#45;&gt;CardsModule -->
<g id="edge4" class="edge">
<title>ProfileCardComponent&#45;&gt;CardsModule</title>
<path fill="none" stroke="black" d="M126.61,-122.02C126.61,-139.37 126.61,-163 126.61,-163 126.61,-163 196.65,-163 196.65,-163"/>
<polygon fill="black" stroke="black" points="196.65,-166.5 206.65,-163 196.65,-159.5 196.65,-166.5"/>
</g>
<!-- ActionCardActionComponent  -->
<g id="node6" class="node">
<title>ActionCardActionComponent </title>
<polygon fill="#fb8072" stroke="black" points="678.25,-252 489.75,-252 489.75,-216 678.25,-216 678.25,-252"/>
<text text-anchor="middle" x="584" y="-229.8" font-family="Times,serif" font-size="14.00">ActionCardActionComponent </text>
</g>
<!-- CardsModule&#45;&gt;ActionCardActionComponent  -->
<g id="edge5" class="edge">
<title>CardsModule&#45;&gt;ActionCardActionComponent </title>
<path fill="none" stroke="black" stroke-dasharray="5,2" d="M299.24,-173C382.96,-173 551.04,-173 551.04,-173 551.04,-173 551.04,-205.7 551.04,-205.7"/>
<polygon fill="black" stroke="black" points="547.54,-205.7 551.04,-215.7 554.54,-205.7 547.54,-205.7"/>
</g>
<!-- ActionCardComponent  -->
<g id="node7" class="node">
<title>ActionCardComponent </title>
<polygon fill="#fb8072" stroke="black" points="472.15,-252 321.85,-252 321.85,-216 472.15,-216 472.15,-252"/>
<text text-anchor="middle" x="397" y="-229.8" font-family="Times,serif" font-size="14.00">ActionCardComponent </text>
</g>
<!-- CardsModule&#45;&gt;ActionCardComponent  -->
<g id="edge6" class="edge">
<title>CardsModule&#45;&gt;ActionCardComponent </title>
<path fill="none" stroke="black" stroke-dasharray="5,2" d="M299.22,-180C332.87,-180 372.56,-180 372.56,-180 372.56,-180 372.56,-205.72 372.56,-205.72"/>
<polygon fill="black" stroke="black" points="369.06,-205.72 372.56,-215.72 376.06,-205.72 369.06,-205.72"/>
</g>
<!-- FlatCardModule  -->
<g id="node8" class="node">
<title>FlatCardModule </title>
<polygon fill="#fb8072" stroke="black" points="304.04,-252 191.96,-252 191.96,-216 304.04,-216 304.04,-252"/>
<text text-anchor="middle" x="248" y="-229.8" font-family="Times,serif" font-size="14.00">FlatCardModule </text>
</g>
<!-- CardsModule&#45;&gt;FlatCardModule  -->
<g id="edge7" class="edge">
<title>CardsModule&#45;&gt;FlatCardModule </title>
<path fill="none" stroke="black" stroke-dasharray="5,2" d="M253,-187.11C253,-187.11 253,-205.99 253,-205.99"/>
<polygon fill="black" stroke="black" points="249.5,-205.99 253,-215.99 256.5,-205.99 249.5,-205.99"/>
</g>
<!-- ProfileCardComponent  -->
<g id="node9" class="node">
<title>ProfileCardComponent </title>
<polygon fill="#fb8072" stroke="black" points="174.14,-252 23.86,-252 23.86,-216 174.14,-216 174.14,-252"/>
<text text-anchor="middle" x="99" y="-229.8" font-family="Times,serif" font-size="14.00">ProfileCardComponent </text>
</g>
<!-- CardsModule&#45;&gt;ProfileCardComponent  -->
<g id="edge8" class="edge">
<title>CardsModule&#45;&gt;ProfileCardComponent </title>
<path fill="none" stroke="black" stroke-dasharray="5,2" d="M206.87,-175C155.36,-175 79.14,-175 79.14,-175 79.14,-175 79.14,-205.98 79.14,-205.98"/>
<polygon fill="black" stroke="black" points="75.64,-205.98 79.14,-215.98 82.64,-205.98 75.64,-205.98"/>
</g>
</g>
</svg>
