<svg width="319" height="48" viewBox="0 0 319 48" fill="none" xmlns="http://www.w3.org/2000/svg">
<g clip-path="url(#clip0_584_15168)">
<path d="M24.005 48.0099C37.2625 48.0099 48.0099 37.2625 48.0099 24.005C48.0099 10.7474 37.2625 0 24.005 0C10.7474 0 0 10.7474 0 24.005C0 37.2625 10.7474 48.0099 24.005 48.0099Z" fill="#201E3D"/>
<path d="M30.6966 21.9173C30.5314 21.7289 30.2482 21.6818 29.9885 21.67C29.7289 21.67 29.4693 21.7054 29.2215 21.6229C28.7259 21.4699 28.478 20.9282 28.183 20.4808C27.5812 19.5506 26.5545 18.8912 25.4452 18.7499C25.1502 18.7145 24.7962 18.6674 24.6782 18.3966C24.631 18.3024 24.631 18.1847 24.631 18.0787C24.6192 17.8314 24.572 17.5606 24.3831 17.3958C24.1943 17.2309 23.8403 17.2545 23.7577 17.49C23.6869 17.6901 23.8403 17.8903 23.9229 18.0787C24.1589 18.6321 23.3801 18.7381 23.026 18.8087C22.4832 18.9265 21.9286 18.9736 21.4093 19.1855C20.7367 19.4446 20.1702 19.9627 19.8398 20.5985C19.651 20.9518 19.4622 21.411 19.0609 21.4228C18.8721 21.4228 18.6597 21.3403 18.5299 21.4581C18.3765 21.5876 18.4709 21.8349 18.6007 21.9762C18.7305 22.1175 18.9075 22.2588 18.9193 22.4589C18.9193 22.5885 18.8603 22.7062 18.8013 22.824C18.2113 23.9661 18.2349 24.5195 18.3647 25.803C18.4827 26.9687 18.8367 27.4515 18.9193 27.6281C18.9901 27.793 18.9429 27.9814 18.8839 28.158C18.8249 28.3228 18.7423 28.4995 18.7659 28.6761C18.7895 28.8527 18.9547 29.0293 19.1318 28.9822C19.297 28.9351 19.356 28.7114 19.474 28.5937C19.6746 28.3935 20.0168 28.4641 20.241 28.6407C20.4534 28.8174 20.5833 29.0764 20.7721 29.2884C21.2677 29.8653 22.0702 30.0773 22.8372 30.0891C23.5925 30.1126 24.3595 29.9713 25.1148 30.0184C25.1384 30.0184 25.162 30.0184 25.1856 30.0184C25.1856 30.0655 25.1974 30.1126 25.1974 30.1597C25.1974 30.2775 25.1266 30.3717 25.0794 30.4776C25.0322 30.5718 25.0204 30.6896 25.0794 30.7838C25.1502 30.8897 25.3154 30.9133 25.4216 30.8544C25.5396 30.7956 25.6104 30.6778 25.6694 30.5601C25.752 30.3952 25.7874 30.2186 25.7992 30.042C26.1061 30.042 26.4129 30.0184 26.6607 29.8536C26.8731 29.7123 27.0265 29.5121 27.2153 29.3472C27.6048 29.0058 28.124 28.8645 28.5134 28.5348C28.9501 28.158 29.1625 27.581 29.3513 27.0276C29.4929 26.9569 29.6581 27.0982 29.8115 27.11C30.0358 27.11 30.1774 26.8156 30.083 26.6037C29.9885 26.3918 29.7643 26.2858 29.5401 26.2269C29.6463 25.5204 29.6463 24.7904 29.5401 24.0839C29.4929 23.766 29.4221 23.4363 29.4811 23.1183C29.5519 22.8004 29.8115 22.4943 30.1302 22.506C30.2836 22.506 30.437 22.5767 30.5786 22.5296C30.8264 22.4589 30.8618 22.0822 30.6966 21.8938V21.9173ZM23.7459 27.3102C22.5776 27.3102 21.6217 26.3682 21.6217 25.1907C21.6217 24.0132 22.5658 23.0712 23.7459 23.0712C24.926 23.0712 25.87 24.0132 25.87 25.1907C25.87 26.3682 24.926 27.3102 23.7459 27.3102Z" fill="white"/>
<path d="M10.9355 24.2917H15.4564" stroke="white" stroke-linecap="round" stroke-linejoin="round"/>
<path d="M10.2891 25.5833V23" stroke="white" stroke-linecap="round" stroke-linejoin="round"/>
<path d="M37.4629 24.2917L32.9421 24.2917" stroke="white" stroke-linecap="round" stroke-linejoin="round"/>
<path d="M38.1094 23L38.1094 25.5833" stroke="white" stroke-linecap="round" stroke-linejoin="round"/>
</g>
<path d="M73.72 31.288C69.088 31.288 65.152 27.376 65.152 22.744C65.152 18.112 69.088 14.224 73.72 14.224C76.072 14.224 78.232 15.208 79.792 16.816L78.088 18.448C76.984 17.248 75.424 16.456 73.72 16.456C70.432 16.456 67.648 19.336 67.648 22.744C67.648 26.176 70.432 29.056 73.72 29.056C75.424 29.056 76.984 28.264 78.088 27.064L79.792 28.696C78.232 30.28 76.072 31.288 73.72 31.288ZM87.8457 29.176C89.1417 29.176 90.6537 28.6 91.3977 27.832L92.8857 29.368C91.7817 30.544 89.6217 31.288 87.8697 31.288C84.4137 31.288 81.4857 28.576 81.4857 24.76C81.4857 21.04 84.2457 18.304 87.6777 18.304C91.4697 18.304 93.6537 21.184 93.6537 25.624H83.8857C84.1977 27.688 85.7097 29.176 87.8457 29.176ZM87.7737 20.416C85.8537 20.416 84.2937 21.712 83.9097 23.728H91.3497C91.0857 21.808 89.9097 20.416 87.7737 20.416ZM96.4077 31V14.224H98.7597V31H96.4077ZM102.22 31V14.224H104.572V31H102.22ZM115.26 31V14.512H120.948C126.276 14.512 130.068 17.92 130.068 22.744C130.068 27.568 126.276 31 120.948 31H115.26ZM117.684 28.792H121.092C124.908 28.792 127.572 26.296 127.572 22.744C127.572 19.216 124.908 16.72 121.092 16.72H117.684V28.792ZM134.357 16.528C133.541 16.528 132.917 15.856 132.917 15.088C132.917 14.344 133.541 13.672 134.357 13.672C135.125 13.672 135.773 14.344 135.773 15.088C135.773 15.856 135.125 16.528 134.357 16.528ZM133.157 31V18.592H135.533V31H133.157ZM143.458 31.288C141.634 31.288 139.642 30.64 138.154 29.44L139.282 27.736C140.602 28.696 142.018 29.248 143.482 29.248C144.874 29.248 145.834 28.6 145.834 27.64C145.834 26.488 144.562 26.128 143.026 25.696C140.17 24.904 138.754 24.088 138.754 22.072C138.73 19.792 140.626 18.304 143.266 18.304C144.874 18.304 146.506 18.856 147.85 19.744L146.794 21.496C145.594 20.752 144.346 20.344 143.266 20.344C142.042 20.344 141.082 20.872 141.082 21.808C141.082 22.768 141.85 23.056 143.938 23.704C145.978 24.304 148.162 24.976 148.162 27.448C148.162 29.8 146.17 31.288 143.458 31.288ZM156.731 28.768L157.595 30.4C156.923 30.952 156.011 31.288 155.123 31.288C153.203 31.288 151.859 29.896 151.859 27.904V20.608H149.987V18.592H151.859V15.184H154.187V18.592H157.115V20.608H154.187V27.736C154.187 28.6 154.763 29.224 155.459 29.224C155.987 29.224 156.467 29.032 156.731 28.768ZM165.225 18.304C168.561 18.304 170.409 20.416 170.409 23.488V31H168.081V29.296C167.169 30.592 165.465 31.288 163.953 31.288C161.313 31.288 159.369 29.752 159.369 27.328C159.369 24.856 161.601 23.2 164.337 23.2C165.561 23.2 166.881 23.464 168.081 23.872V23.488C168.081 21.928 167.361 20.272 164.889 20.272C163.665 20.272 162.465 20.752 161.385 21.304L160.521 19.552C162.297 18.664 163.857 18.304 165.225 18.304ZM164.409 29.416C165.945 29.416 167.673 28.648 168.081 27.112V25.456C167.073 25.144 165.921 24.976 164.697 24.976C163.041 24.976 161.649 25.912 161.649 27.256C161.649 28.6 162.849 29.416 164.409 29.416ZM180.157 18.304C182.893 18.304 184.813 20.296 184.813 23.104V31H182.485V23.512C182.485 21.664 181.309 20.368 179.629 20.368C177.901 20.368 176.413 21.496 176.221 22.96V31H173.845V18.592H176.221V20.392C176.965 19.168 178.477 18.304 180.157 18.304ZM194.068 31.288C190.54 31.288 187.54 28.312 187.54 24.784C187.54 21.256 190.54 18.304 194.092 18.304C195.868 18.304 197.476 19.048 198.652 20.224L197.044 21.712C196.3 20.872 195.22 20.368 194.068 20.368C191.812 20.368 189.94 22.384 189.94 24.784C189.94 27.208 191.812 29.224 194.092 29.224C195.244 29.224 196.348 28.696 197.116 27.832L198.724 29.296C197.524 30.52 195.916 31.288 194.068 31.288ZM206.955 29.176C208.251 29.176 209.763 28.6 210.507 27.832L211.995 29.368C210.891 30.544 208.731 31.288 206.979 31.288C203.523 31.288 200.595 28.576 200.595 24.76C200.595 21.04 203.355 18.304 206.787 18.304C210.579 18.304 212.763 21.184 212.763 25.624H202.995C203.307 27.688 204.819 29.176 206.955 29.176ZM206.883 20.416C204.963 20.416 203.403 21.712 203.019 23.728H210.459C210.195 21.808 209.019 20.416 206.883 20.416ZM234.576 16.768H224.904V21.472H233.64V23.728H224.904V28.744H234.576V31H222.456V14.512H234.576V16.768ZM248.54 31H245.876L242.492 26.44L239.084 31H236.444L241.172 24.664L236.636 18.592H239.324L242.492 22.864L245.684 18.592H248.324L243.812 24.64L248.54 31ZM257.772 18.304C261.036 18.304 263.484 20.992 263.484 24.784C263.484 28.6 261.036 31.288 257.772 31.288C255.852 31.288 254.316 30.376 253.356 28.84V35.128H251.004V18.592H253.356V20.728C254.316 19.216 255.852 18.304 257.772 18.304ZM257.196 29.224C259.476 29.224 261.084 27.376 261.084 24.784C261.084 22.192 259.476 20.368 257.196 20.368C254.964 20.368 253.356 22.192 253.356 24.784C253.356 27.376 254.964 29.224 257.196 29.224ZM266.353 31V14.224H268.705V31H266.353ZM278.046 31.288C274.494 31.288 271.494 28.312 271.494 24.784C271.494 21.256 274.494 18.304 278.046 18.304C281.574 18.304 284.549 21.256 284.549 24.784C284.549 28.312 281.574 31.288 278.046 31.288ZM278.046 29.224C280.278 29.224 282.174 27.208 282.174 24.784C282.174 22.384 280.278 20.368 278.046 20.368C275.766 20.368 273.87 22.384 273.87 24.784C273.87 27.208 275.766 29.224 278.046 29.224ZM289.826 20.968C290.618 19.336 292.298 18.304 294.434 18.304V20.368C291.866 20.368 290.042 21.784 289.826 23.944V31H287.45V18.592H289.826V20.968ZM302.439 29.176C303.735 29.176 305.247 28.6 305.991 27.832L307.479 29.368C306.375 30.544 304.215 31.288 302.463 31.288C299.007 31.288 296.079 28.576 296.079 24.76C296.079 21.04 298.839 18.304 302.271 18.304C306.063 18.304 308.247 21.184 308.247 25.624H298.479C298.791 27.688 300.303 29.176 302.439 29.176ZM302.367 20.416C300.447 20.416 298.887 21.712 298.503 23.728H305.943C305.679 21.808 304.503 20.416 302.367 20.416ZM313.497 20.968C314.289 19.336 315.969 18.304 318.105 18.304V20.368C315.537 20.368 313.713 21.784 313.497 23.944V31H311.121V18.592H313.497V20.968Z" fill="#201E3D"/>
<defs>
<clipPath id="clip0_584_15168">
<rect width="48" height="48" fill="white"/>
</clipPath>
</defs>
</svg>
