<svg width="41" height="41" viewBox="0 0 41 41" fill="none" xmlns="http://www.w3.org/2000/svg">
<mask id="mask0_11461_18546" style="mask-type:luminance" maskUnits="userSpaceOnUse" x="0" y="13" width="42" height="15">
<path d="M41.1317 13.7305H0.875V27.7305H41.1317V13.7305Z" fill="white"/>
</mask>
<g mask="url(#mask0_11461_18546)">
<mask id="mask1_11461_18546" style="mask-type:luminance" maskUnits="userSpaceOnUse" x="0" y="13" width="14" height="15">
<path d="M0.875 13.8555H13.2338V27.2984H0.875V13.8555Z" fill="white"/>
</mask>
<g mask="url(#mask1_11461_18546)">
<path fill-rule="evenodd" clip-rule="evenodd" d="M13.2338 27.2984H10.5673L9.69865 24.5311H4.40963L3.55846 27.2984H0.875L5.55747 13.8555H7.49188C8.14824 13.8555 8.56989 14.0777 8.74151 14.5946C8.9126 15.1097 11.0457 21.0894 11.0457 21.0894H8.55134L7.0369 16.5476L5.11945 22.2689H10.4752C11.1934 22.2689 11.588 22.5244 11.7782 23.1672L13.2338 27.2984Z" fill="#339933"/>
</g>
<path fill-rule="evenodd" clip-rule="evenodd" d="M36.6116 27.299H33.9444L33.0758 24.5317H27.7873L26.9356 27.299H24.2526L28.9351 13.8555H30.8696C31.5259 13.8555 31.9475 14.0783 32.1186 14.5952C32.2897 15.1102 34.4228 21.09 34.4228 21.09H31.929L30.4145 16.5482L28.4971 22.2695H33.8528C34.5708 22.2695 34.9655 22.525 35.1562 23.1678L36.7201 27.4174M18.6104 24.8677C20.9675 24.8677 21.9649 23.6147 21.9649 20.586C21.9649 17.5947 21.0194 16.211 18.9207 16.211H16.5636V24.8677H18.6104ZM14.0708 13.8555H18.9212C22.7059 13.8555 24.5636 16.043 24.5636 20.586C24.5636 23.092 23.841 24.9808 22.5507 26.102C21.3467 27.1491 20.0045 27.2984 18.2337 27.2984H14.0703L14.0708 13.8555Z" fill="#339933"/>
<mask id="mask2_11461_18546" style="mask-type:luminance" maskUnits="userSpaceOnUse" x="36" y="23" width="5" height="5">
<path d="M36.7656 23.3711H40.6434V27.4865H36.7656V23.3711Z" fill="white"/>
</mask>
<g mask="url(#mask2_11461_18546)">
<path fill-rule="evenodd" clip-rule="evenodd" d="M38.4231 25.3351H38.6297C38.8721 25.3351 39.0673 25.2476 39.0673 25.0347C39.0673 24.8469 38.9404 24.7221 38.6647 24.7221C38.5492 24.7221 38.4687 24.7349 38.4231 24.7471V25.3351ZM38.4109 26.4855H37.9742V24.4467C38.1466 24.4094 38.3881 24.3721 38.6997 24.3721C39.0559 24.3721 39.2169 24.4345 39.3552 24.5342C39.4584 24.6217 39.539 24.7851 39.539 24.9717C39.539 25.2097 39.3779 25.3847 39.1478 25.46V25.4851C39.3316 25.5475 39.4357 25.7102 39.4934 25.9856C39.5503 26.2982 39.5853 26.4231 39.6309 26.4855H39.16C39.1014 26.4108 39.0673 26.2352 39.0095 25.9978C38.9754 25.7726 38.8607 25.6729 38.6183 25.6729H38.4118L38.4109 26.4855ZM38.6997 23.7841C37.8701 23.7841 37.2496 24.522 37.2496 25.4226C37.2496 26.3356 37.8701 27.0612 38.7224 27.0612C39.5503 27.0735 40.1603 26.3356 40.1603 25.4221C40.1603 24.522 39.5512 23.7841 38.7102 23.7841H38.6997ZM38.7224 23.3711C39.8041 23.3711 40.6434 24.2846 40.6434 25.4226C40.6434 26.5858 39.8041 27.4865 38.7102 27.4865C37.6285 27.4865 36.7656 26.5858 36.7656 25.4226C36.7656 24.2846 37.6294 23.3711 38.7102 23.3711H38.7224Z" fill="#339933"/>
</g>
</g>
</svg>
