<svg width="40" height="41" viewBox="0 0 40 41" fill="none" xmlns="http://www.w3.org/2000/svg">
<path d="M15.897 30.6802C12.6203 30.6802 9.3436 30.6802 6.06685 30.6802C4.75616 30.6802 4 29.9763 4 28.669C4 23.3896 4 18.06 4 12.7807C4 11.5238 4.75616 10.7695 6.01644 10.7695C12.6203 10.7695 19.2241 10.7695 25.828 10.7695C26.1808 10.7695 26.3825 10.8701 26.5841 11.1718C28.2477 14.2388 29.9617 17.2556 31.6757 20.3227C31.8269 20.6243 31.8269 20.8254 31.6757 21.1271C29.9617 24.1941 28.2477 27.2612 26.5337 30.3283C26.3825 30.6299 26.2313 30.7305 25.8784 30.7305C22.6017 30.6802 19.2745 30.6802 15.897 30.6802ZM8.7386 18.9148C8.78904 18.9148 8.78904 18.8645 8.83949 18.8645C8.94029 19.0154 8.99065 19.1159 9.09154 19.2668C10.1501 20.926 11.2088 22.5852 12.1666 24.2444C12.6203 24.9987 13.074 25.3506 13.9814 25.25C14.4351 25.1998 14.5863 25.0992 14.5863 24.6467C14.5863 22.183 14.5863 19.669 14.5863 17.2053C14.5863 16.0489 14.7376 16.25 13.5781 16.1997C13.1244 16.1997 12.9732 16.3506 12.9732 16.8031C12.9732 18.5629 12.9732 20.3227 12.9732 22.0824C12.9732 22.2332 12.9732 22.3841 12.9732 22.5852C12.7716 22.4344 12.6707 22.3339 12.5699 22.183C11.4608 20.4735 10.4526 18.8143 9.4444 17.2053C8.83949 16.1997 8.83949 16.25 7.68002 16.25C7.27671 16.25 7.17591 16.4009 7.17591 16.7528C7.17591 19.4176 7.17591 22.0824 7.17591 24.7473C7.17591 24.898 7.17591 25.0489 7.22627 25.25C7.42796 25.25 7.57921 25.25 7.78082 25.25C8.78904 25.25 8.78904 25.25 8.78904 24.2947C8.7386 22.4846 8.7386 20.7248 8.7386 18.9148ZM19.1737 25.25C19.577 25.25 19.9299 25.25 20.2828 25.25C20.6861 25.3003 20.7869 25.1494 20.7869 24.7473C20.7869 23.7416 20.7869 22.6857 20.7869 21.6802C20.7869 21.3282 20.8877 21.2277 21.2405 21.2277C22.2992 21.2277 23.3579 21.2277 24.3661 21.2277C24.6685 21.2277 24.7693 21.3282 24.7693 21.6299C24.7693 22.4344 24.7693 23.2891 24.7693 24.0936C24.7693 25.25 24.7693 25.25 25.9288 25.25C26.3825 25.25 26.4833 25.0992 26.4329 24.6969C26.4329 22.183 26.4329 19.669 26.4329 17.155C26.4329 16.0991 26.6346 16.1997 25.4751 16.1997C24.7693 16.1997 24.7693 16.1997 24.7693 16.9036C24.7693 17.8589 24.7693 18.764 24.7693 19.7696C23.5595 19.7696 22.4505 19.7696 21.291 19.7696C20.8877 19.7696 20.7364 19.669 20.7869 19.2668C20.8373 18.3618 20.7869 17.507 20.7869 16.602C20.7869 16.4511 20.6356 16.1997 20.5348 16.1997C20.0812 16.1495 19.6778 16.1997 19.1737 16.1997C19.1737 19.2668 19.1737 22.2332 19.1737 25.25ZM17.6614 20.7248C17.6614 19.5684 17.6614 18.4623 17.6614 17.3059C17.6614 16.0489 17.8127 16.25 16.6027 16.1997C15.9978 16.1997 15.9978 16.1997 15.9978 16.8534C15.9978 19.2668 15.9978 21.6299 15.9978 24.0433C15.9978 25.25 15.9978 25.25 17.2077 25.25C17.611 25.25 17.7118 25.0992 17.7118 24.7473C17.6614 23.3896 17.6614 22.0824 17.6614 20.7248Z" fill="#616265"/>
<path d="M27.8672 30.6806C28.4221 29.7253 28.9266 28.8203 29.3808 27.9152C30.6421 25.6023 31.9538 23.3398 33.2151 21.0772C33.3665 20.7755 33.316 20.5744 33.1647 20.323C31.4998 17.3565 29.8348 14.3397 28.1698 11.3229C28.069 11.1722 28.0185 10.971 27.9176 10.8202C29.4817 10.5185 30.6925 10.971 31.3989 12.2783C32.862 14.9934 34.3755 17.6582 35.8891 20.323C36.0405 20.5744 36.0405 20.7755 35.8891 21.0269C34.325 23.7923 32.7611 26.608 31.197 29.3733C30.743 30.2281 29.9357 30.6303 29.0275 30.6303C28.7249 30.6806 28.3212 30.6806 27.8672 30.6806Z" fill="#20558A"/>
</svg>
