<svg width="36" height="24" viewBox="0 0 36 24" fill="none" xmlns="http://www.w3.org/2000/svg">
<path d="M13.3967 23.1916C9.70731 23.1916 6.01791 23.1916 2.32851 23.1916C0.852744 23.1916 0.00134277 22.3998 0.00134277 20.9293C0.00134277 14.9909 0.00134277 8.99589 0.00134277 3.05743C0.00134277 1.64352 0.852744 0.795166 2.27175 0.795166C9.70731 0.795166 17.1429 0.795166 24.5785 0.795166C24.9758 0.795166 25.2028 0.90828 25.4299 1.24762C27.3029 4.69758 29.2328 8.09098 31.1626 11.5409C31.3329 11.8803 31.3329 12.1065 31.1626 12.4458C29.2328 15.8958 27.3029 19.3458 25.3731 22.7957C25.2028 23.1351 25.0325 23.2482 24.6352 23.2482C20.9458 23.1916 17.1996 23.1916 13.3967 23.1916ZM5.33679 9.95735C5.39355 9.95735 5.39355 9.90079 5.45031 9.90079C5.56383 10.0705 5.62059 10.1836 5.73411 10.3532C6.92607 12.2196 8.11803 14.086 9.19647 15.9524C9.70731 16.8007 10.2182 17.1966 11.2398 17.0835C11.7507 17.0269 11.921 16.9138 11.921 16.4048C11.921 13.6335 11.921 10.8057 11.921 8.03442C11.921 6.73362 12.0912 6.95985 10.7858 6.90329C10.2749 6.90329 10.1046 7.07296 10.1046 7.58197C10.1046 9.56145 10.1046 11.5409 10.1046 13.5204C10.1046 13.6901 10.1046 13.8598 10.1046 14.086C9.87759 13.9163 9.76407 13.8032 9.65055 13.6335C8.40183 11.7106 7.26663 9.84424 6.13143 8.03442C5.45031 6.90329 5.45031 6.95985 4.14483 6.95985C3.69075 6.95985 3.57723 7.12952 3.57723 7.52541C3.57723 10.5229 3.57723 13.5204 3.57723 16.5179C3.57723 16.6876 3.57723 16.8573 3.63399 17.0835C3.86103 17.0835 4.03131 17.0835 4.25835 17.0835C5.39355 17.0835 5.39355 17.0835 5.39355 16.0089C5.33679 13.9729 5.33679 11.9934 5.33679 9.95735ZM17.0861 17.0835C17.5402 17.0835 17.9375 17.0835 18.3348 17.0835C18.7889 17.1401 18.9024 16.9704 18.9024 16.5179C18.9024 15.3868 18.9024 14.1991 18.9024 13.068C18.9024 12.6721 19.016 12.559 19.4133 12.559C20.6052 12.559 21.7972 12.559 22.9324 12.559C23.273 12.559 23.3865 12.6721 23.3865 13.0114C23.3865 13.9163 23.3865 14.8778 23.3865 15.7827C23.3865 17.0835 23.3865 17.0835 24.692 17.0835C25.2028 17.0835 25.3163 16.9138 25.2596 16.4614C25.2596 13.6335 25.2596 10.8057 25.2596 7.97787C25.2596 6.79018 25.4866 6.90329 24.1811 6.90329C23.3865 6.90329 23.3865 6.90329 23.3865 7.69508C23.3865 8.76966 23.3865 9.78768 23.3865 10.9188C22.0242 10.9188 20.7755 10.9188 19.47 10.9188C19.016 10.9188 18.8457 10.8057 18.9024 10.3532C18.9592 9.33523 18.9024 8.37376 18.9024 7.35574C18.9024 7.18607 18.7322 6.90329 18.6186 6.90329C18.1078 6.84673 17.6537 6.90329 17.0861 6.90329C17.0861 10.3532 17.0861 13.6901 17.0861 17.0835ZM15.3833 11.9934C15.3833 10.6926 15.3833 9.44834 15.3833 8.14754C15.3833 6.73362 15.5536 6.95985 14.1914 6.90329C13.5102 6.90329 13.5102 6.90329 13.5102 7.63853C13.5102 10.3532 13.5102 13.0114 13.5102 15.7261C13.5102 17.0835 13.5102 17.0835 14.8725 17.0835C15.3266 17.0835 15.4401 16.9138 15.4401 16.5179C15.3833 14.9909 15.3833 13.5204 15.3833 11.9934Z" fill="#E00D3A"/>
<path d="M26.846 23.1925C27.4704 22.1179 28.038 21.0999 28.5488 20.0819C29.9678 17.4803 31.4436 14.9352 32.8626 12.3902C33.0329 12.0508 32.9761 11.8246 32.8058 11.5418C30.9327 8.20499 29.0596 4.81159 27.1866 1.41819C27.073 1.24852 27.0163 1.02229 26.9028 0.852624C28.6623 0.513284 30.0246 1.02229 30.8192 2.49277C32.4653 5.54683 34.1681 8.54433 35.8709 11.5418C36.0411 11.8246 36.0411 12.0508 35.8709 12.3336C34.1113 15.4443 32.3517 18.6114 30.5922 21.722C30.0813 22.6835 29.1732 23.136 28.1515 23.136C27.8109 23.1925 27.3568 23.1925 26.846 23.1925Z" fill="#E00D3A"/>
</svg>
