<svg width="120" height="144" viewBox="0 0 120 144" fill="none" xmlns="http://www.w3.org/2000/svg">
<rect width="120" height="144" rx="4" fill="#FAFAFA"/>
<path d="M59.4879 61.8586C59.4879 61.8586 59.7226 61.6239 60.0639 61.7733C60.4052 61.9226 60.3199 65.7199 60.2772 66.1466C60.2346 66.5733 60.3199 69.0266 60.3199 70.0933C60.3199 71.1599 60.5332 72.0346 60.6399 72.7599C60.7466 73.4853 60.2559 75.1919 60.2772 76.4506C60.2986 77.7093 60.6826 79.6719 60.6826 79.6719C60.9172 81.1653 61.0239 82.1039 60.7252 84.1946C60.4266 86.2853 60.7039 86.8399 60.9812 87.2239C61.2586 87.6079 63.2212 87.3946 63.7119 87.2879C64.2026 87.1813 63.9252 86.8826 63.9252 86.7333C63.9252 86.5839 63.4132 86.3919 63.1999 86.0933C62.9866 85.7946 62.8586 85.2613 62.8586 85.2613C62.8586 84.5999 62.6879 83.9386 62.6666 83.2133C62.6452 81.7626 63.4132 79.0319 63.7119 77.3253C64.0106 75.6186 63.7119 74.2319 63.6692 72.4613C63.6266 70.6906 64.0746 67.9813 64.3519 67.1279C64.6292 66.2746 64.7359 65.6346 65.0772 63.2026C65.4186 60.7706 64.4372 55.7573 64.4159 55.1813C64.3946 54.6053 64.5226 54.8186 64.4586 53.8159C64.3946 52.8133 64.1599 52.0879 64.0532 51.6826C63.9466 51.2773 63.9039 49.9759 63.9039 49.4426C63.9039 48.9093 64.3519 45.5173 64.3519 45.5173C64.3519 45.5173 64.6079 45.7093 64.6932 45.8373C64.7786 45.9653 64.7786 46.9039 64.9066 47.3306C65.0346 47.7573 65.4612 48.8026 65.7386 49.4213C66.0159 50.0399 66.1652 51.0639 66.1652 51.0639C66.2506 51.5759 66.3359 52.5146 66.9546 53.5173C67.9999 55.2239 68.8319 57.6133 68.9812 57.7413C69.1306 57.8693 69.1306 59.2559 69.1306 59.2559C69.1306 59.2559 68.4692 60.3653 68.4052 60.8133C68.3412 61.2613 68.4266 61.2613 68.6612 61.0693C68.8532 60.9199 69.3439 60.4293 69.3439 60.4293C69.3439 60.4293 69.4932 60.6639 69.5359 60.9839C69.5786 61.3039 69.1946 61.7946 69.1732 62.1146C69.0239 63.3306 69.3012 63.3093 69.5786 63.1599C69.8559 63.0106 69.9412 62.3706 69.9839 62.2426C70.0266 62.1146 70.2826 60.3653 70.2612 59.8106C70.2399 59.2559 70.1972 58.2319 70.0906 57.7626C69.9839 57.2933 69.5146 54.7119 69.5146 54.7119C69.5146 54.7119 69.1946 52.1733 69.0026 51.4266C68.8106 50.6799 67.7439 48.6746 67.5732 48.1839C67.4026 47.6933 66.9972 45.9653 66.9972 45.9653L66.8906 42.9999C66.8906 42.9999 66.6132 40.7386 65.6319 40.3119C64.6506 39.8853 62.7946 38.9466 62.1546 38.8399C61.5146 38.7333 61.4079 38.1146 61.4079 38.1146C61.3652 37.7733 61.6852 36.6213 61.7706 36.2586C61.8559 35.8959 61.9199 36.0239 62.0692 35.9813C62.2186 35.9386 62.3466 35.3626 62.4319 34.9359C62.5172 34.5093 62.2399 34.2319 62.2399 34.2319C62.3039 30.7973 59.9359 30.9893 59.9359 30.9893L59.4452 30.9039C59.4452 30.9039 57.0986 30.6906 57.1412 34.1466C57.1412 34.1466 56.8852 34.4239 56.9492 34.8506C57.0132 35.2773 57.1412 35.8533 57.3119 35.8959C57.4826 35.9386 57.5039 35.8319 57.6106 36.1733C57.7172 36.5146 58.0372 37.6879 57.9732 38.0293C57.9732 38.0293 57.8666 38.6479 57.2266 38.7546C56.5866 38.8613 54.7306 39.7999 53.7492 40.2266C52.7679 40.6533 52.4906 42.9146 52.4906 42.9146L52.3839 45.8799C52.3839 45.8799 51.9786 47.6293 51.8079 48.0986C51.6372 48.5679 50.5706 50.5519 50.3786 51.3413C50.1866 52.1306 49.8666 54.6266 49.8666 54.6266C49.8666 54.6266 49.3972 57.2293 49.2906 57.6773C49.1839 58.1253 49.1412 59.1493 49.1199 59.7253C49.0986 60.3013 49.3546 62.0293 49.3972 62.1573C49.4399 62.2853 49.5039 62.9466 49.8026 63.0746C50.1012 63.2026 50.3572 63.2453 50.2079 62.0293C50.1652 61.7306 49.8026 61.2186 49.8452 60.8986C49.8879 60.5786 50.0372 60.3439 50.0372 60.3439C50.0372 60.3439 50.5279 60.8346 50.7199 60.9839C50.9546 61.1546 51.0612 61.1759 50.9759 60.7279C50.8906 60.2799 50.2506 59.1706 50.2506 59.1706C50.2506 59.1706 50.2506 57.7839 50.3999 57.6559C50.5492 57.5279 51.4026 55.1386 52.4266 53.4319C53.0452 52.4293 53.1092 51.5119 53.2159 50.9786C53.2159 50.9786 53.3439 49.9759 53.6426 49.3359C53.9412 48.6959 54.3679 47.6719 54.4746 47.2453C54.5812 46.8186 54.6026 45.8799 54.6879 45.7519C54.7732 45.6239 55.0292 45.4319 55.0292 45.4319C55.0292 45.4319 55.4986 48.8026 55.4772 49.3573C55.4559 49.9119 55.4346 51.1919 55.3279 51.5973C55.2212 52.0026 54.9652 52.7279 54.9226 53.7306C54.8799 54.7333 55.0079 54.5199 54.9652 55.0959C54.9226 55.6719 53.9626 60.7066 54.3039 63.1173C54.6452 65.5279 54.7519 66.2106 55.0292 67.0426C55.3066 67.8746 55.7972 70.6053 55.7119 72.3759C55.6266 74.1466 55.3706 75.5333 55.6692 77.2399C55.9679 78.9466 56.7359 81.6773 56.7146 83.1279C56.7146 83.8533 56.5439 84.5146 56.5226 85.1759C56.5226 85.1759 56.3946 85.7093 56.1812 86.0079C55.9679 86.3066 55.4559 86.4986 55.4559 86.6479C55.4559 86.7973 55.1786 87.1173 55.6692 87.2026C56.1599 87.2879 58.1226 87.5013 58.3999 87.1386C58.6772 86.7759 58.9546 86.2213 58.6559 84.1093C58.3572 81.9973 58.4639 81.0799 58.6986 79.5866C58.6986 79.5866 59.0826 77.6239 59.1039 76.3653C59.1252 75.1066 58.6132 73.3999 58.7412 72.6746C58.8692 71.9493 59.0612 71.0746 59.0612 70.0079C59.0612 68.9413 59.1466 66.5093 59.1039 66.0613C59.0612 65.6133 58.9759 61.8159 59.3172 61.6879C59.6586 61.5599 59.8932 61.7733 59.8932 61.7733" fill="black"/>
<path d="M59.4879 61.8586C59.4879 61.8586 59.7226 61.6239 60.0639 61.7733C60.4052 61.9226 60.3199 65.7199 60.2772 66.1466C60.2346 66.5733 60.3199 69.0266 60.3199 70.0933C60.3199 71.1599 60.5332 72.0346 60.6399 72.7599C60.7466 73.4853 60.2559 75.1919 60.2772 76.4506C60.2986 77.7093 60.6826 79.6719 60.6826 79.6719C60.9172 81.1653 61.0239 82.1039 60.7252 84.1946C60.4266 86.2853 60.7039 86.8399 60.9812 87.2239C61.2586 87.6079 63.2212 87.3946 63.7119 87.2879C64.2026 87.1813 63.9252 86.8826 63.9252 86.7333C63.9252 86.5839 63.4132 86.3919 63.1999 86.0933C62.9866 85.7946 62.8586 85.2613 62.8586 85.2613C62.8586 84.5999 62.6879 83.9386 62.6666 83.2133C62.6452 81.7626 63.4132 79.0319 63.7119 77.3253C64.0106 75.6186 63.7119 74.2319 63.6692 72.4613C63.6266 70.6906 64.0746 67.9813 64.3519 67.1279C64.6292 66.2746 64.7359 65.6346 65.0772 63.2026C65.4186 60.7706 64.4372 55.7573 64.4159 55.1813C64.3946 54.6053 64.5226 54.8186 64.4586 53.8159C64.3946 52.8133 64.1599 52.0879 64.0532 51.6826C63.9466 51.2773 63.9039 49.9759 63.9039 49.4426C63.9039 48.9093 64.3519 45.5173 64.3519 45.5173C64.3519 45.5173 64.6079 45.7093 64.6932 45.8373C64.7786 45.9653 64.7786 46.9039 64.9066 47.3306C65.0346 47.7573 65.4612 48.8026 65.7386 49.4213C66.0159 50.0399 66.1652 51.0639 66.1652 51.0639C66.2506 51.5759 66.3359 52.5146 66.9546 53.5173C67.9999 55.2239 68.8319 57.6133 68.9812 57.7413C69.1306 57.8693 69.1306 59.2559 69.1306 59.2559C69.1306 59.2559 68.4692 60.3653 68.4052 60.8133C68.3412 61.2613 68.4266 61.2613 68.6612 61.0693C68.8532 60.9199 69.3439 60.4293 69.3439 60.4293C69.3439 60.4293 69.4932 60.6639 69.5359 60.9839C69.5786 61.3039 69.1946 61.7946 69.1732 62.1146C69.0239 63.3306 69.3012 63.3093 69.5786 63.1599C69.8559 63.0106 69.9412 62.3706 69.9839 62.2426C70.0266 62.1146 70.2826 60.3653 70.2612 59.8106C70.2399 59.2559 70.1972 58.2319 70.0906 57.7626C69.9839 57.2933 69.5146 54.7119 69.5146 54.7119C69.5146 54.7119 69.1946 52.1733 69.0026 51.4266C68.8106 50.6799 67.7439 48.6746 67.5732 48.1839C67.4026 47.6933 66.9972 45.9653 66.9972 45.9653L66.8906 42.9999C66.8906 42.9999 66.6132 40.7386 65.6319 40.3119C64.6506 39.8853 62.7946 38.9466 62.1546 38.8399C61.5146 38.7333 61.4079 38.1146 61.4079 38.1146C61.3652 37.7733 61.6852 36.6213 61.7706 36.2586C61.8559 35.8959 61.9199 36.0239 62.0692 35.9813C62.2186 35.9386 62.3466 35.3626 62.4319 34.9359C62.5172 34.5093 62.2399 34.2319 62.2399 34.2319C62.3039 30.7973 59.9359 30.9893 59.9359 30.9893L59.4452 30.9039C59.4452 30.9039 57.0986 30.6906 57.1412 34.1466C57.1412 34.1466 56.8852 34.4239 56.9492 34.8506C57.0132 35.2773 57.1412 35.8533 57.3119 35.8959C57.4826 35.9386 57.5039 35.8319 57.6106 36.1733C57.7172 36.5146 58.0372 37.6879 57.9732 38.0293C57.9732 38.0293 57.8666 38.6479 57.2266 38.7546C56.5866 38.8613 54.7306 39.7999 53.7492 40.2266C52.7679 40.6533 52.4906 42.9146 52.4906 42.9146L52.3839 45.8799C52.3839 45.8799 51.9786 47.6293 51.8079 48.0986C51.6372 48.5679 50.5706 50.5519 50.3786 51.3413C50.1866 52.1306 49.8666 54.6266 49.8666 54.6266C49.8666 54.6266 49.3972 57.2293 49.2906 57.6773C49.1839 58.1253 49.1412 59.1493 49.1199 59.7253C49.0986 60.3013 49.3546 62.0293 49.3972 62.1573C49.4399 62.2853 49.5039 62.9466 49.8026 63.0746C50.1012 63.2026 50.3572 63.2453 50.2079 62.0293C50.1652 61.7306 49.8026 61.2186 49.8452 60.8986C49.8879 60.5786 50.0372 60.3439 50.0372 60.3439C50.0372 60.3439 50.5279 60.8346 50.7199 60.9839C50.9546 61.1546 51.0612 61.1759 50.9759 60.7279C50.8906 60.2799 50.2506 59.1706 50.2506 59.1706C50.2506 59.1706 50.2506 57.7839 50.3999 57.6559C50.5492 57.5279 51.4026 55.1386 52.4266 53.4319C53.0452 52.4293 53.1092 51.5119 53.2159 50.9786C53.2159 50.9786 53.3439 49.9759 53.6426 49.3359C53.9412 48.6959 54.3679 47.6719 54.4746 47.2453C54.5812 46.8186 54.6026 45.8799 54.6879 45.7519C54.7732 45.6239 55.0292 45.4319 55.0292 45.4319C55.0292 45.4319 55.4986 48.8026 55.4772 49.3573C55.4559 49.9119 55.4346 51.1919 55.3279 51.5973C55.2212 52.0026 54.9652 52.7279 54.9226 53.7306C54.8799 54.7333 55.0079 54.5199 54.9652 55.0959C54.9226 55.6719 53.9626 60.7066 54.3039 63.1173C54.6452 65.5279 54.7519 66.2106 55.0292 67.0426C55.3066 67.8746 55.7972 70.6053 55.7119 72.3759C55.6266 74.1466 55.3706 75.5333 55.6692 77.2399C55.9679 78.9466 56.7359 81.6773 56.7146 83.1279C56.7146 83.8533 56.5439 84.5146 56.5226 85.1759C56.5226 85.1759 56.3946 85.7093 56.1812 86.0079C55.9679 86.3066 55.4559 86.4986 55.4559 86.6479C55.4559 86.7973 55.1786 87.1173 55.6692 87.2026C56.1599 87.2879 58.1226 87.5013 58.3999 87.1386C58.6772 86.7759 58.9546 86.2213 58.6559 84.1093C58.3572 81.9973 58.4639 81.0799 58.6986 79.5866C58.6986 79.5866 59.0826 77.6239 59.1039 76.3653C59.1252 75.1066 58.6132 73.3999 58.7412 72.6746C58.8692 71.9493 59.0612 71.0746 59.0612 70.0079C59.0612 68.9413 59.1466 66.5093 59.1039 66.0613C59.0612 65.6133 58.9759 61.8159 59.3172 61.6879C59.6586 61.5599 59.8932 61.7733 59.8932 61.7733" stroke="black" stroke-width="0.25" stroke-miterlimit="10"/>
<path d="M27.8432 113H26.8688L30.5726 102.818H31.5669L35.2708 113H34.2963L31.1046 104.026H31.035L27.8432 113ZM28.5442 109.097H33.5953V109.933H28.5442V109.097ZM37.7868 102.818V113H36.9018V102.818H37.7868ZM41.0833 102.818V113H40.1984V102.818H41.0833ZM56.0337 107.909C56.0337 108.97 55.8448 109.893 55.467 110.678C55.0891 111.46 54.5688 112.067 53.9059 112.498C53.2463 112.925 52.4873 113.139 51.6289 113.139C50.7705 113.139 50.0098 112.925 49.3469 112.498C48.6874 112.067 48.1687 111.46 47.7908 110.678C47.4163 109.893 47.229 108.97 47.229 107.909C47.229 106.848 47.4163 105.927 47.7908 105.145C48.1687 104.359 48.689 103.753 49.3519 103.325C50.0148 102.894 50.7738 102.679 51.6289 102.679C52.4873 102.679 53.2463 102.894 53.9059 103.325C54.5688 103.753 55.0891 104.359 55.467 105.145C55.8448 105.927 56.0337 106.848 56.0337 107.909ZM55.1289 107.909C55.1289 106.998 54.9764 106.217 54.6715 105.567C54.3666 104.915 53.9506 104.416 53.4236 104.071C52.8966 103.726 52.2984 103.554 51.6289 103.554C50.9627 103.554 50.3661 103.726 49.8391 104.071C49.3121 104.416 48.8945 104.913 48.5863 105.562C48.2813 106.212 48.1289 106.994 48.1289 107.909C48.1289 108.821 48.2813 109.601 48.5863 110.251C48.8912 110.9 49.3072 111.399 49.8341 111.747C50.3611 112.092 50.9594 112.264 51.6289 112.264C52.2984 112.264 52.8966 112.092 53.4236 111.747C53.9539 111.402 54.3715 110.905 54.6765 110.256C54.9814 109.603 55.1322 108.821 55.1289 107.909ZM58.1682 113V105.364H59.0283V106.537H59.0929C59.2453 106.152 59.5105 105.843 59.8883 105.607C60.2695 105.369 60.7004 105.249 61.181 105.249C61.2539 105.249 61.3351 105.251 61.4246 105.254C61.5141 105.258 61.5886 105.261 61.6483 105.264V106.164C61.6085 106.157 61.5389 106.147 61.4395 106.134C61.34 106.121 61.2323 106.114 61.1163 106.114C60.7186 106.114 60.364 106.199 60.0524 106.368C59.7442 106.534 59.5006 106.764 59.3216 107.059C59.1426 107.354 59.0531 107.69 59.0531 108.068V113H58.1682ZM65.9093 116.023C65.389 116.023 64.9332 115.955 64.5421 115.819C64.151 115.686 63.8213 115.504 63.5528 115.272C63.2843 115.04 63.0755 114.78 62.9264 114.491L63.6522 114.014C63.7616 114.206 63.9074 114.395 64.0897 114.581C64.2753 114.767 64.5156 114.921 64.8106 115.043C65.1089 115.166 65.4751 115.227 65.9093 115.227C66.5855 115.227 67.1307 115.058 67.545 114.72C67.9626 114.382 68.1714 113.857 68.1714 113.144V111.424H68.0919C67.9891 111.656 67.8416 111.888 67.6494 112.12C67.4572 112.349 67.2053 112.539 66.8937 112.692C66.5855 112.844 66.2027 112.92 65.7453 112.92C65.1354 112.92 64.5935 112.77 64.1196 112.468C63.6489 112.166 63.2777 111.736 63.0059 111.175C62.7375 110.612 62.6032 109.941 62.6032 109.162C62.6032 108.39 62.7341 107.71 62.996 107.124C63.2611 106.537 63.6307 106.08 64.1046 105.751C64.5786 105.423 65.1304 105.259 65.7602 105.259C66.2275 105.259 66.6153 105.342 66.9235 105.508C67.2318 105.67 67.4787 105.872 67.6643 106.114C67.8532 106.356 68.0007 106.592 68.1068 106.82H68.1963V105.364H69.0613V113.199C69.0613 113.845 68.9238 114.377 68.6487 114.795C68.3736 115.212 67.9991 115.521 67.5251 115.719C67.0511 115.922 66.5126 116.023 65.9093 116.023ZM65.8497 112.11C66.3402 112.11 66.7595 111.992 67.1075 111.757C67.4555 111.518 67.7223 111.177 67.9079 110.733C68.0935 110.289 68.1863 109.76 68.1863 109.147C68.1863 108.55 68.0952 108.022 67.9129 107.561C67.7306 107.097 67.4654 106.732 67.1174 106.467C66.7727 106.199 66.3501 106.065 65.8497 106.065C65.3393 106.065 64.9084 106.202 64.5571 106.477C64.2057 106.752 63.9406 107.124 63.7616 107.591C63.5826 108.055 63.4931 108.574 63.4931 109.147C63.4931 109.73 63.5843 110.246 63.7666 110.693C63.9489 111.137 64.2157 111.485 64.567 111.737C64.9183 111.986 65.3459 112.11 65.8497 112.11ZM73.607 113.174C73.1463 113.174 72.7254 113.085 72.3442 112.906C71.9631 112.723 71.6598 112.461 71.4344 112.12C71.209 111.775 71.0963 111.358 71.0963 110.867C71.0963 110.489 71.1676 110.171 71.3101 109.913C71.4526 109.654 71.6548 109.442 71.9167 109.276C72.1785 109.111 72.4884 108.98 72.8463 108.884C73.2043 108.787 73.5987 108.713 74.0296 108.66C74.4571 108.607 74.8184 108.56 75.1134 108.521C75.4117 108.481 75.6387 108.418 75.7945 108.332C75.9503 108.246 76.0282 108.106 76.0282 107.914V107.735C76.0282 107.215 75.8724 106.805 75.5608 106.507C75.2526 106.205 74.8085 106.055 74.2284 106.055C73.6783 106.055 73.2292 106.176 72.8811 106.418C72.5364 106.66 72.2945 106.945 72.1553 107.273L71.3151 106.969C71.4874 106.552 71.7261 106.219 72.031 105.97C72.3359 105.718 72.6773 105.538 73.0552 105.428C73.433 105.316 73.8158 105.259 74.2036 105.259C74.4953 105.259 74.7985 105.297 75.1134 105.374C75.4316 105.45 75.7266 105.582 75.9983 105.771C76.2701 105.957 76.4905 106.217 76.6596 106.552C76.8286 106.883 76.9131 107.304 76.9131 107.815V113H76.0282V111.792H75.9735C75.8674 112.017 75.71 112.236 75.5012 112.448C75.2924 112.66 75.0305 112.834 74.7157 112.97C74.4008 113.106 74.0312 113.174 73.607 113.174ZM73.7263 112.364C74.197 112.364 74.6046 112.259 74.9493 112.05C75.294 111.842 75.5592 111.565 75.7448 111.22C75.9337 110.872 76.0282 110.489 76.0282 110.072V108.968C75.9619 109.031 75.8508 109.087 75.6951 109.137C75.5426 109.187 75.3653 109.232 75.1631 109.271C74.9642 109.308 74.7654 109.339 74.5665 109.366C74.3677 109.392 74.1887 109.415 74.0296 109.435C73.5987 109.488 73.2308 109.571 72.9259 109.684C72.621 109.797 72.3873 109.952 72.2249 110.151C72.0625 110.347 71.9813 110.599 71.9813 110.907C71.9813 111.371 72.147 111.731 72.4784 111.986C72.8099 112.238 73.2258 112.364 73.7263 112.364ZM80.2221 108.227V113H79.3372V105.364H80.1972V106.562H80.2768C80.4558 106.171 80.7342 105.857 81.112 105.622C81.4932 105.384 81.9638 105.264 82.5239 105.264C83.0377 105.264 83.4884 105.372 83.8762 105.587C84.2673 105.799 84.5706 106.113 84.786 106.527C85.0048 106.941 85.1141 107.45 85.1141 108.053V113H84.2292V108.108C84.2292 107.482 84.0535 106.986 83.7022 106.621C83.3542 106.257 82.8869 106.075 82.3002 106.075C81.8992 106.075 81.5429 106.161 81.2313 106.333C80.9198 106.505 80.6729 106.754 80.4906 107.079C80.3116 107.4 80.2221 107.783 80.2221 108.227ZM92.6453 107.039L91.8349 107.268C91.7553 107.039 91.6427 106.832 91.4968 106.646C91.351 106.461 91.1604 106.313 90.9251 106.204C90.6931 106.094 90.4047 106.04 90.06 106.04C89.543 106.04 89.1187 106.162 88.7873 106.408C88.4559 106.653 88.2901 106.969 88.2901 107.357C88.2901 107.685 88.4028 107.952 88.6282 108.158C88.8569 108.36 89.2082 108.521 89.6822 108.64L90.8356 108.923C91.4753 109.079 91.9542 109.326 92.2724 109.664C92.5939 110.002 92.7546 110.426 92.7546 110.937C92.7546 111.368 92.6353 111.75 92.3967 112.085C92.158 112.42 91.8249 112.683 91.3974 112.876C90.9731 113.065 90.481 113.159 89.9208 113.159C89.1751 113.159 88.5603 112.992 88.0764 112.657C87.5925 112.319 87.2826 111.832 87.1467 111.195L87.9968 110.987C88.1062 111.441 88.32 111.784 88.6382 112.016C88.9597 112.248 89.3822 112.364 89.9059 112.364C90.4926 112.364 90.9615 112.233 91.3129 111.971C91.6642 111.706 91.8399 111.374 91.8399 110.977C91.8399 110.668 91.7371 110.41 91.5316 110.201C91.3261 109.989 91.0146 109.833 90.597 109.734L89.3491 109.435C88.6862 109.276 88.1957 109.024 87.8775 108.68C87.5593 108.335 87.4002 107.907 87.4002 107.397C87.4002 106.976 87.5146 106.607 87.7433 106.288C87.972 105.967 88.2868 105.715 88.6879 105.533C89.0889 105.35 89.5463 105.259 90.06 105.259C90.7594 105.259 91.3178 105.418 91.7355 105.737C92.1564 106.051 92.4597 106.486 92.6453 107.039Z" fill="#212121"/>
</svg>
