<svg width="120" height="144" viewBox="0 0 120 144" fill="none" xmlns="http://www.w3.org/2000/svg">
<rect width="120" height="144" rx="4" fill="#FAFAFA"/>
<g clip-path="url(#clip0_532_9055)">
<path d="M62.7733 34.4027C46.1759 31.2667 32.2666 39.3947 32.2666 50.6587C32.2666 60.984 37.5359 63.4587 42.9333 63.4587C42.9333 56.5253 54.8586 55.544 60.4053 57.6347C55.2426 56.9733 44.9173 57.1653 44.9173 64.6107C44.9173 65.08 44.9173 69.88 51.5519 70.584C54.2463 70.902 56.9737 70.8013 59.6373 70.2853C59.5649 70.9994 59.7363 71.717 60.1237 72.3213C60.511 72.9256 61.0915 73.381 61.7706 73.6133C62.3272 73.8009 62.8979 73.9435 63.4773 74.04C65.2727 76.7425 67.4256 79.1895 69.8773 81.3147C70.453 81.2798 71.0007 81.0547 71.4346 80.6747C71.793 80.3822 72.0227 79.961 72.0746 79.5013C70.7674 78.1176 69.9118 76.3692 69.6213 74.488C70.6239 74.488 71.2853 74.488 71.2853 74.488C71.2853 74.488 80.5439 73.9333 79.8186 69.176C79.8186 69.048 79.8186 68.92 79.7119 68.792C80.9577 69.0466 82.2421 69.0466 83.4879 68.792C86.3466 67.9387 87.5413 64.7813 87.7546 60.6427C88.0746 53.496 79.3493 37.5387 62.7733 34.4027Z" fill="#212121"/>
</g>
<path d="M26.5094 113H25.5349L29.2388 102.818H30.2331L33.9369 113H32.9625L29.7707 104.026H29.7011L26.5094 113ZM27.2104 109.097H32.2615V109.933H27.2104V109.097ZM36.453 102.818V113H35.568V102.818H36.453ZM39.7495 102.818V113H38.8646V102.818H39.7495ZM45.2485 113.159C44.5359 113.159 43.9194 112.993 43.3991 112.662C42.8787 112.327 42.476 111.865 42.191 111.275C41.9092 110.682 41.7684 109.999 41.7684 109.227C41.7684 108.458 41.9092 107.775 42.191 107.178C42.476 106.578 42.8688 106.109 43.3692 105.771C43.873 105.43 44.4547 105.259 45.1143 105.259C45.5286 105.259 45.9279 105.335 46.3124 105.488C46.6969 105.637 47.0416 105.867 47.3465 106.179C47.6547 106.487 47.8984 106.877 48.0773 107.347C48.2563 107.815 48.3458 108.368 48.3458 109.008V109.445H42.3799V108.665H47.441C47.441 108.174 47.3415 107.733 47.1427 107.342C46.9471 106.948 46.6737 106.636 46.3224 106.408C45.9743 106.179 45.5716 106.065 45.1143 106.065C44.6304 106.065 44.2045 106.194 43.8366 106.452C43.4687 106.711 43.1803 107.052 42.9715 107.477C42.766 107.901 42.6616 108.365 42.6583 108.869V109.336C42.6583 109.942 42.7627 110.473 42.9715 110.927C43.1836 111.378 43.4836 111.727 43.8714 111.976C44.2591 112.224 44.7182 112.349 45.2485 112.349C45.6098 112.349 45.9263 112.292 46.1981 112.18C46.4732 112.067 46.7035 111.916 46.8891 111.727C47.078 111.535 47.2206 111.325 47.3167 111.096L48.1569 111.369C48.0409 111.691 47.8503 111.987 47.5851 112.259C47.3233 112.531 46.9952 112.75 46.6008 112.915C46.2097 113.078 45.7589 113.159 45.2485 113.159ZM51.2508 108.227V113H50.3659V105.364H51.226V106.562H51.3055C51.4845 106.171 51.7629 105.857 52.1408 105.622C52.5219 105.384 52.9926 105.264 53.5527 105.264C54.0664 105.264 54.5172 105.372 54.905 105.587C55.2961 105.799 55.5993 106.113 55.8148 106.527C56.0335 106.941 56.1429 107.45 56.1429 108.053V113H55.2579V108.108C55.2579 107.482 55.0823 106.986 54.731 106.621C54.3829 106.257 53.9156 106.075 53.329 106.075C52.9279 106.075 52.5716 106.161 52.2601 106.333C51.9485 106.505 51.7016 106.754 51.5193 107.079C51.3403 107.4 51.2508 107.783 51.2508 108.227ZM62.7348 113V102.818H66.1701C66.833 102.818 67.3849 102.934 67.8257 103.166C68.2698 103.398 68.6029 103.715 68.825 104.116C69.047 104.517 69.1581 104.973 69.1581 105.483C69.1581 105.907 69.0868 106.27 68.9443 106.572C68.8018 106.873 68.6079 107.117 68.3626 107.303C68.1173 107.488 67.8439 107.622 67.5423 107.705V107.785C67.8704 107.808 68.1886 107.924 68.4968 108.133C68.8051 108.338 69.0586 108.627 69.2575 108.998C69.4564 109.369 69.5558 109.813 69.5558 110.33C69.5558 110.844 69.4414 111.303 69.2128 111.707C68.9841 112.108 68.6327 112.425 68.1588 112.657C67.6881 112.886 67.0882 113 66.3591 113H62.7348ZM63.6645 112.165H66.3591C67.1446 112.165 67.7246 111.991 68.0991 111.643C68.477 111.295 68.6659 110.857 68.6659 110.33C68.6659 109.942 68.5714 109.591 68.3825 109.276C68.1969 108.958 67.9334 108.706 67.592 108.521C67.2539 108.335 66.8562 108.242 66.3988 108.242H63.6645V112.165ZM63.6645 107.417H66.2547C66.6557 107.417 67.007 107.334 67.3086 107.168C67.6102 107.003 67.8456 106.774 68.0146 106.482C68.1836 106.191 68.2682 105.857 68.2682 105.483C68.2682 104.943 68.0925 104.504 67.7412 104.165C67.3898 103.824 66.8662 103.653 66.1701 103.653H63.6645V107.417ZM71.6853 113V105.364H72.5454V106.537H72.61C72.7625 106.152 73.0276 105.843 73.4055 105.607C73.7866 105.369 74.2175 105.249 74.6981 105.249C74.771 105.249 74.8522 105.251 74.9417 105.254C75.0312 105.258 75.1057 105.261 75.1654 105.264V106.164C75.1256 106.157 75.056 106.147 74.9566 106.134C74.8572 106.121 74.7494 106.114 74.6334 106.114C74.2357 106.114 73.8811 106.199 73.5695 106.368C73.2613 106.534 73.0177 106.764 72.8387 107.059C72.6597 107.354 72.5702 107.69 72.5702 108.068V113H71.6853ZM78.8783 113.174C78.4176 113.174 77.9967 113.085 77.6155 112.906C77.2344 112.723 76.9311 112.461 76.7057 112.12C76.4804 111.775 76.3677 111.358 76.3677 110.867C76.3677 110.489 76.4389 110.171 76.5815 109.913C76.724 109.654 76.9261 109.442 77.188 109.276C77.4498 109.111 77.7597 108.98 78.1177 108.884C78.4756 108.787 78.87 108.713 79.3009 108.66C79.7285 108.607 80.0897 108.56 80.3847 108.521C80.683 108.481 80.9101 108.418 81.0658 108.332C81.2216 108.246 81.2995 108.106 81.2995 107.914V107.735C81.2995 107.215 81.1437 106.805 80.8322 106.507C80.5239 106.205 80.0798 106.055 79.4998 106.055C78.9496 106.055 78.5005 106.176 78.1525 106.418C77.8078 106.66 77.5658 106.945 77.4266 107.273L76.5864 106.969C76.7588 106.552 76.9974 106.219 77.3023 105.97C77.6073 105.718 77.9486 105.538 78.3265 105.428C78.7043 105.316 79.0871 105.259 79.4749 105.259C79.7666 105.259 80.0699 105.297 80.3847 105.374C80.7029 105.45 80.9979 105.582 81.2697 105.771C81.5414 105.957 81.7618 106.217 81.9309 106.552C82.0999 106.883 82.1844 107.304 82.1844 107.815V113H81.2995V111.792H81.2448C81.1387 112.017 80.9813 112.236 80.7725 112.448C80.5637 112.66 80.3019 112.834 79.987 112.97C79.6721 113.106 79.3026 113.174 78.8783 113.174ZM78.9976 112.364C79.4683 112.364 79.876 112.259 80.2207 112.05C80.5654 111.842 80.8305 111.565 81.0161 111.22C81.205 110.872 81.2995 110.489 81.2995 110.072V108.968C81.2332 109.031 81.1222 109.087 80.9664 109.137C80.8139 109.187 80.6366 109.232 80.4344 109.271C80.2356 109.308 80.0367 109.339 79.8378 109.366C79.639 109.392 79.46 109.415 79.3009 109.435C78.87 109.488 78.5021 109.571 78.1972 109.684C77.8923 109.797 77.6586 109.952 77.4962 110.151C77.3338 110.347 77.2526 110.599 77.2526 110.907C77.2526 111.371 77.4183 111.731 77.7498 111.986C78.0812 112.238 78.4972 112.364 78.9976 112.364ZM84.6184 113V105.364H85.5083V113H84.6184ZM85.0708 104.051C84.8885 104.051 84.7328 103.99 84.6035 103.867C84.4742 103.741 84.4096 103.59 84.4096 103.415C84.4096 103.239 84.4742 103.09 84.6035 102.967C84.7328 102.841 84.8885 102.778 85.0708 102.778C85.2531 102.778 85.4089 102.841 85.5382 102.967C85.6674 103.09 85.7321 103.239 85.7321 103.415C85.7321 103.59 85.6674 103.741 85.5382 103.867C85.4089 103.99 85.2531 104.051 85.0708 104.051ZM88.8037 108.227V113H87.9187V105.364H88.7788V106.562H88.8584C89.0373 106.171 89.3157 105.857 89.6936 105.622C90.0747 105.384 90.5454 105.264 91.1055 105.264C91.6192 105.264 92.07 105.372 92.4578 105.587C92.8489 105.799 93.1521 106.113 93.3676 106.527C93.5863 106.941 93.6957 107.45 93.6957 108.053V113H92.8108V108.108C92.8108 107.482 92.6351 106.986 92.2838 106.621C91.9358 106.257 91.4684 106.075 90.8818 106.075C90.4807 106.075 90.1244 106.161 89.8129 106.333C89.5013 106.505 89.2544 106.754 89.0721 107.079C88.8932 107.4 88.8037 107.783 88.8037 108.227Z" fill="#212121"/>
<defs>
<clipPath id="clip0_532_9055">
<rect width="64" height="64" fill="white" transform="translate(28 27)"/>
</clipPath>
</defs>
</svg>
