<svg width="44" height="32" viewBox="0 0 44 32" fill="none" xmlns="http://www.w3.org/2000/svg">
<path d="M0 32V24C0 23.0333 0.341667 22.2083 1.025 21.525C1.70833 20.8417 2.53333 20.5 3.5 20.5H10.55C11.1167 20.5 11.6583 20.6417 12.175 20.925C12.6917 21.2083 13.1333 21.6 13.5 22.1C14.4667 23.5 15.7 24.5833 17.2 25.35C18.7 26.1167 20.3 26.5 22 26.5C23.7 26.5 25.3 26.1167 26.8 25.35C28.3 24.5833 29.55 23.5 30.55 22.1C30.9167 21.6 31.35 21.2083 31.85 20.925C32.35 20.6417 32.8833 20.5 33.45 20.5H40.5C41.4667 20.5 42.2917 20.8417 42.975 21.525C43.6583 22.2083 44 23.0333 44 24V32H31V26.05C29.8 27.15 28.425 28 26.875 28.6C25.325 29.2 23.7 29.5 22 29.5C20.3 29.5 18.6833 29.2 17.15 28.6C15.6167 28 14.2333 27.15 13 26.05V32H0ZM22 23.5C20.8333 23.5 19.7083 23.225 18.625 22.675C17.5417 22.125 16.6667 21.3667 16 20.4C15.4667 19.6333 14.825 19.0167 14.075 18.55C13.325 18.0833 12.5167 17.7667 11.65 17.6C12.6167 16.6 14.1333 15.8333 16.2 15.3C18.2667 14.7667 20.2 14.5 22 14.5C23.8 14.5 25.7417 14.7667 27.825 15.3C29.9083 15.8333 31.4333 16.6 32.4 17.6C31.5333 17.7667 30.725 18.0833 29.975 18.55C29.225 19.0167 28.5833 19.6333 28.05 20.4C27.3833 21.3667 26.5083 22.125 25.425 22.675C24.3417 23.225 23.2 23.5 22 23.5ZM6 17C4.5 17 3.20833 16.4583 2.125 15.375C1.04167 14.2917 0.5 13 0.5 11.5C0.5 9.96667 1.04167 8.66667 2.125 7.6C3.20833 6.53333 4.5 6 6 6C7.53333 6 8.83333 6.53333 9.9 7.6C10.9667 8.66667 11.5 9.96667 11.5 11.5C11.5 13 10.9667 14.2917 9.9 15.375C8.83333 16.4583 7.53333 17 6 17ZM38 17C36.5 17 35.2083 16.4583 34.125 15.375C33.0417 14.2917 32.5 13 32.5 11.5C32.5 9.96667 33.0417 8.66667 34.125 7.6C35.2083 6.53333 36.5 6 38 6C39.5333 6 40.8333 6.53333 41.9 7.6C42.9667 8.66667 43.5 9.96667 43.5 11.5C43.5 13 42.9667 14.2917 41.9 15.375C40.8333 16.4583 39.5333 17 38 17ZM22 11C20.5 11 19.2083 10.4583 18.125 9.375C17.0417 8.29167 16.5 7 16.5 5.5C16.5 3.96667 17.0417 2.66667 18.125 1.6C19.2083 0.533334 20.5 0 22 0C23.5333 0 24.8333 0.533334 25.9 1.6C26.9667 2.66667 27.5 3.96667 27.5 5.5C27.5 7 26.9667 8.29167 25.9 9.375C24.8333 10.4583 23.5333 11 22 11Z" fill="#444C65"/>
</svg>
