<svg width="128" height="128" viewBox="0 0 128 128" fill="none" xmlns="http://www.w3.org/2000/svg">
<rect width="128" height="128" fill="#444A65"/>
<mask id="mask0_2805_4797" style="mask-type:alpha" maskUnits="userSpaceOnUse" x="40" y="40" width="48" height="48">
<rect x="40" y="40" width="48" height="48" fill="#D9D9D9"/>
</mask>
<g mask="url(#mask0_2805_4797)">
<path d="M62.9 83.95C60.2667 83.8167 57.8 83.2 55.5 82.1C53.2 81 51.2 79.5583 49.5 77.775C47.8 75.9917 46.4583 73.9167 45.475 71.55C44.4917 69.1833 44 66.6667 44 64C44 61.2333 44.525 58.6333 45.575 56.2C46.625 53.7667 48.05 51.65 49.85 49.85C51.65 48.05 53.7667 46.625 56.2 45.575C58.6333 44.525 61.2333 44 64 44C68.9667 44 73.2833 45.5667 76.95 48.7C80.6167 51.8333 82.8667 55.7667 83.7 60.5H80.65C80.0833 57.7 78.9 55.2 77.1 53C75.3 50.8 73.05 49.15 70.35 48.05V48.95C70.35 50.1167 69.95 51.1333 69.15 52C68.35 52.8667 67.3667 53.3 66.2 53.3H61.85V57.65C61.85 58.2167 61.625 58.6833 61.175 59.05C60.725 59.4167 60.2167 59.6 59.65 59.6H55.5V64H61V70.25H57.65L47.45 60.05C47.2833 60.7167 47.1667 61.375 47.1 62.025C47.0333 62.675 47 63.3333 47 64C47 68.5 48.5167 72.3833 51.55 75.65C54.5833 78.9167 58.3667 80.6833 62.9 80.95V83.95ZM82.5 82.65L75.8 75.95C75.1 76.45 74.3417 76.8333 73.525 77.1C72.7083 77.3667 71.8667 77.5 71 77.5C68.6333 77.5 66.625 76.675 64.975 75.025C63.325 73.375 62.5 71.3667 62.5 69C62.5 66.6333 63.325 64.625 64.975 62.975C66.625 61.325 68.6333 60.5 71 60.5C73.3667 60.5 75.375 61.325 77.025 62.975C78.675 64.625 79.5 66.6333 79.5 69C79.5 69.8667 79.3583 70.7083 79.075 71.525C78.7917 72.3417 78.4167 73.1167 77.95 73.85L84.65 80.5L82.5 82.65ZM71 74.5C72.5333 74.5 73.8333 73.9667 74.9 72.9C75.9667 71.8333 76.5 70.5333 76.5 69C76.5 67.4667 75.9667 66.1667 74.9 65.1C73.8333 64.0333 72.5333 63.5 71 63.5C69.4667 63.5 68.1667 64.0333 67.1 65.1C66.0333 66.1667 65.5 67.4667 65.5 69C65.5 70.5333 66.0333 71.8333 67.1 72.9C68.1667 73.9667 69.4667 74.5 71 74.5Z" fill="white"/>
</g>
</svg>
