<svg width="120" height="144" viewBox="0 0 120 144" fill="none" xmlns="http://www.w3.org/2000/svg">
<rect width="120" height="144" rx="4" fill="#FAFAFA"/>
<g clip-path="url(#clip0_4334_13609)">
<path d="M66.0802 43.4508L65.7602 28.4961C65.7602 28.4961 63.0935 28.6241 61.3869 28.7734C59.7655 28.9014 55.7122 28.8161 55.7122 28.8161L51.0615 28.5174L51.2535 43.4721C51.2535 47.4401 66.0802 47.4188 66.0802 43.4721V43.4508Z" fill="white" stroke="#231F20" stroke-width="0.5" stroke-linecap="round" stroke-linejoin="round"/>
<path d="M81.3759 71.8447C80.1173 69.6474 78.0693 67.3434 79.1999 66.2127C80.1599 65.2314 81.1413 65.8927 82.0586 66.1487C82.4853 66.2767 83.6159 67.258 84.4266 65.594C85.5999 63.226 84.1279 62.3727 83.0613 61.882C80.5013 60.7087 76.9813 60.0047 75.2533 58.106C71.0293 53.4554 67.1253 46.5007 67.1253 41.6794L63.7546 44.9434C63.7546 44.9434 60.4906 48.058 59.0826 48.3354C57.7386 48.6127 54.1973 46.458 54.1973 46.458L50.2933 41.082C47.9253 48.3354 40.5653 64.698 33.5039 67.066C33.5039 67.066 32.5866 69.2847 34.1866 71.482C35.7866 73.6794 38.5813 73.6794 38.5813 73.6794C38.5813 73.6794 50.9119 54.4154 57.8879 54.2234C64.8426 54.0314 74.2719 75.898 74.2719 75.898C74.2719 75.898 77.1306 75.9834 78.8586 74.9807C80.5866 73.978 81.3973 71.8234 81.3973 71.8234L81.3759 71.8447Z" fill="#231F20" stroke="#231F20" stroke-linecap="round" stroke-linejoin="round"/>
<path d="M48.5221 54.3731C46.8795 52.9011 46.1115 50.9172 46.3035 49.1465C45.4501 49.3385 44.6608 49.7438 44.0635 50.4051C42.2715 52.4105 42.8261 55.8238 45.2795 57.9998C47.7328 60.1758 51.1675 60.3251 52.9595 58.3198C53.5568 57.6585 53.8555 56.8265 53.9621 55.9518C52.2341 56.3572 50.1648 55.8238 48.5221 54.3518V54.3731Z" fill="white" stroke="#231F20" stroke-width="0.5" stroke-miterlimit="10"/>
<path d="M43.0397 61.7533C41.7383 60.58 41.1623 58.9586 41.3543 57.5293C40.6503 57.7 40.0103 58.0413 39.5197 58.596C38.0263 60.26 38.389 63.0333 40.3303 64.7826C42.2717 66.532 45.0663 66.596 46.5597 64.932C47.0503 64.3773 47.3277 63.6946 47.4343 62.9906C46.0263 63.332 44.341 62.948 43.0397 61.7746V61.7533Z" fill="white" stroke="#231F20" stroke-width="0.5" stroke-miterlimit="10"/>
<path d="M38.517 67.7064C37.4504 66.4904 37.1517 64.8691 37.5784 63.4824C36.8744 63.6104 36.1704 63.8878 35.6157 64.3998C33.8877 65.9144 33.781 68.6451 35.381 70.4584C36.981 72.2931 39.6904 72.5278 41.4184 71.0131C41.9944 70.5011 42.3784 69.8611 42.5917 69.1784C41.1624 69.4344 39.5837 68.9224 38.517 67.7064Z" fill="white" stroke="#231F20" stroke-width="0.5" stroke-miterlimit="10"/>
<path d="M66.8904 54.6508C65.1411 56.1441 63.0291 56.7628 61.3438 56.4641C61.3438 57.3175 61.5997 58.0855 62.1117 58.7041C63.6904 60.5601 67.1037 60.2401 69.7491 58.0001C72.3731 55.7601 73.2264 52.4321 71.6477 50.5761C71.1144 49.9575 70.3891 49.6161 69.5571 49.4668C69.5784 51.1735 68.6397 53.1361 66.8904 54.6508Z" fill="white" stroke="#231F20" stroke-width="0.5" stroke-miterlimit="10"/>
<path d="M70.6027 59.6428C68.8534 61.1362 66.9547 61.7762 65.248 61.4562C65.2694 62.3095 65.2907 63.0775 65.8454 63.7175C67.4667 65.6162 70.9227 65.3388 73.5467 63.0988C76.1707 60.8588 77.0027 57.4882 75.3814 55.5895C74.848 54.9495 74.1014 54.5868 73.248 54.4375C73.2907 56.1655 72.3734 58.1495 70.6027 59.6642V59.6428Z" fill="white" stroke="#231F20" stroke-width="0.5" stroke-miterlimit="10"/>
<path d="M74.6135 64.3772C72.8002 66.2546 70.7522 67.4066 69.1949 67.6199C69.1309 68.3879 69.2802 69.0492 69.7069 69.4759C71.0295 70.7559 74.2935 69.4972 77.0029 66.6812C79.7122 63.8652 80.8215 60.5586 79.4989 59.2786C79.0509 58.8519 78.3895 58.7239 77.6215 58.8306C77.4935 60.4092 76.4055 62.4999 74.6135 64.3772Z" fill="white" stroke="#231F20" stroke-width="0.5" stroke-miterlimit="10"/>
<path d="M82.1435 64.0154C81.6528 65.2101 80.7995 66.0634 79.9248 66.3621C80.1168 66.7674 80.4155 67.0874 80.7995 67.2581C81.9728 67.7488 83.6155 66.4474 84.3408 64.6768C85.0661 62.9061 84.6395 61.3061 83.4661 60.8154C83.0821 60.6448 82.6555 60.6661 82.2288 60.8154C82.6341 61.6261 82.6341 62.8421 82.1435 64.0368V64.0154Z" fill="white" stroke="#231F20" stroke-width="0.5" stroke-miterlimit="10"/>
<path d="M76.5972 71.7801C74.8052 72.6974 72.9918 72.9961 71.7545 72.6547C71.5412 73.2521 71.4985 73.8067 71.7545 74.2761C72.4798 75.6841 75.2532 75.7054 77.9412 74.3187C80.6292 72.9321 82.2078 70.6707 81.4825 69.2414C81.2478 68.7721 80.7572 68.4734 80.1385 68.3027C79.6905 69.4974 78.4105 70.8201 76.6185 71.7374L76.5972 71.7801Z" fill="white" stroke="#231F20" stroke-width="0.5" stroke-miterlimit="10"/>
<path d="M58.2722 46.5861C54.6668 46.5861 51.1255 40.1008 49.8455 40.6128C49.0775 40.9114 48.2242 41.5941 47.9468 43.2794C47.6055 45.4128 51.7015 45.4128 53.6642 49.1034C55.0722 51.7701 56.6508 56.1008 59.2108 56.1221C61.9202 56.1648 62.6668 52.6448 64.5015 49.1034C66.7415 44.7941 69.1095 44.9008 68.8748 42.9381C68.7255 41.5941 67.7228 40.3994 66.6988 40.6128C65.0348 41.5301 61.8775 46.5861 58.2722 46.5861Z" fill="white" stroke="#231F20" stroke-width="0.5" stroke-miterlimit="10"/>
</g>
<path d="M9.74313 104V93.8182H15.6494V94.6534H10.6728V98.4865H15.3362V99.3217H10.6728V103.165H15.7488V104H9.74313ZM18.4886 96.3636L20.4573 99.62L22.4261 96.3636H23.4552L20.9992 100.182L23.4552 104H22.4261L20.4573 100.848L18.4886 104H17.4644L19.8905 100.182L17.4644 96.3636H18.4886ZM28.3886 96.3636V97.1342H24.7445V96.3636H28.3886ZM25.883 94.5341H26.7729V102.006C26.7729 102.325 26.8276 102.575 26.9369 102.757C27.0463 102.936 27.1888 103.064 27.3645 103.14C27.5401 103.213 27.7274 103.249 27.9263 103.249C28.0423 103.249 28.1417 103.243 28.2246 103.229C28.3074 103.213 28.3803 103.196 28.4433 103.18L28.6322 103.98C28.5461 104.013 28.44 104.043 28.3141 104.07C28.1881 104.099 28.0323 104.114 27.8467 104.114C27.5219 104.114 27.2087 104.043 26.9071 103.901C26.6088 103.758 26.3635 103.546 26.1713 103.264C25.9791 102.982 25.883 102.633 25.883 102.215V94.5341ZM30.4684 104V96.3636H31.3285V97.5369H31.3931C31.5456 97.1525 31.8107 96.8426 32.1886 96.6072C32.5697 96.3686 33.0006 96.2493 33.4812 96.2493C33.5541 96.2493 33.6353 96.2509 33.7248 96.2543C33.8143 96.2576 33.8889 96.2609 33.9485 96.2642V97.1641C33.9087 97.1574 33.8391 97.1475 33.7397 97.1342C33.6403 97.121 33.5326 97.1143 33.4166 97.1143C33.0188 97.1143 32.6642 97.1989 32.3526 97.3679C32.0444 97.5336 31.8008 97.764 31.6218 98.0589C31.4428 98.3539 31.3533 98.6903 31.3533 99.0682V104H30.4684ZM37.6614 104.174C37.2007 104.174 36.7798 104.085 36.3987 103.906C36.0175 103.723 35.7142 103.461 35.4889 103.12C35.2635 102.775 35.1508 102.358 35.1508 101.867C35.1508 101.489 35.2221 101.171 35.3646 100.913C35.5071 100.654 35.7093 100.442 35.9711 100.276C36.2329 100.111 36.5428 99.9796 36.9008 99.8835C37.2588 99.7874 37.6532 99.7128 38.084 99.6598C38.5116 99.6068 38.8729 99.5604 39.1678 99.5206C39.4661 99.4808 39.6932 99.4179 39.8489 99.3317C40.0047 99.2455 40.0826 99.1063 40.0826 98.9141V98.7351C40.0826 98.2147 39.9268 97.8054 39.6153 97.5071C39.307 97.2055 38.8629 97.0547 38.2829 97.0547C37.7327 97.0547 37.2836 97.1757 36.9356 97.4176C36.5909 97.6596 36.3489 97.9446 36.2097 98.2727L35.3695 97.9695C35.5419 97.5518 35.7805 97.2187 36.0855 96.9702C36.3904 96.7183 36.7318 96.5376 37.1096 96.4283C37.4874 96.3156 37.8703 96.2592 38.258 96.2592C38.5497 96.2592 38.853 96.2973 39.1678 96.3736C39.486 96.4498 39.781 96.5824 40.0528 96.7713C40.3246 96.9569 40.545 97.2171 40.714 97.5518C40.883 97.8833 40.9676 98.3042 40.9676 98.8146V104H40.0826V102.792H40.0279C39.9219 103.017 39.7644 103.236 39.5556 103.448C39.3468 103.66 39.085 103.834 38.7701 103.97C38.4552 104.106 38.0857 104.174 37.6614 104.174ZM37.7808 103.364C38.2514 103.364 38.6591 103.259 39.0038 103.05C39.3485 102.842 39.6136 102.565 39.7992 102.22C39.9882 101.872 40.0826 101.489 40.0826 101.072V99.968C40.0163 100.031 39.9053 100.087 39.7495 100.137C39.5971 100.187 39.4197 100.232 39.2176 100.271C39.0187 100.308 38.8198 100.339 38.621 100.366C38.4221 100.392 38.2431 100.415 38.084 100.435C37.6532 100.488 37.2853 100.571 36.9803 100.684C36.6754 100.797 36.4418 100.952 36.2793 101.151C36.1169 101.347 36.0357 101.599 36.0357 101.907C36.0357 102.371 36.2015 102.731 36.5329 102.986C36.8643 103.238 37.2803 103.364 37.7808 103.364ZM43.3916 106.864V96.3636H44.2517V97.8203H44.3561C44.4622 97.5916 44.608 97.358 44.7936 97.1193C44.9792 96.8774 45.2245 96.6735 45.5294 96.5078C45.8376 96.3421 46.2254 96.2592 46.6927 96.2592C47.3225 96.2592 47.8727 96.425 48.3433 96.7564C48.8173 97.0845 49.1852 97.5452 49.447 98.1385C49.7122 98.7285 49.8447 99.4162 49.8447 100.202C49.8447 100.991 49.7122 101.682 49.447 102.275C49.1852 102.868 48.8173 103.33 48.3433 103.662C47.8727 103.993 47.3258 104.159 46.7027 104.159C46.242 104.159 45.8559 104.076 45.5443 103.911C45.2361 103.745 44.9858 103.541 44.7936 103.299C44.6047 103.054 44.4588 102.815 44.3561 102.583H44.2765V106.864H43.3916ZM44.2666 100.187C44.2666 100.803 44.3577 101.35 44.54 101.827C44.7256 102.301 44.9908 102.674 45.3355 102.946C45.6835 103.214 46.1044 103.349 46.5983 103.349C47.1054 103.349 47.5329 103.21 47.8809 102.931C48.2323 102.649 48.4991 102.27 48.6814 101.793C48.867 101.315 48.9598 100.78 48.9598 100.187C48.9598 99.6001 48.8686 99.0715 48.6863 98.6009C48.5074 98.1302 48.2422 97.7573 47.8909 97.4822C47.5396 97.2038 47.1087 97.0646 46.5983 97.0646C46.1011 97.0646 45.6785 97.1989 45.3305 97.4673C44.9825 97.7325 44.7174 98.1004 44.5351 98.571C44.3561 99.0384 44.2666 99.5769 44.2666 100.187ZM56.7084 101.082V96.3636H57.5933V104H56.7084V102.732H56.6388C56.4598 103.123 56.1764 103.45 55.7887 103.712C55.4009 103.97 54.9269 104.099 54.3668 104.099C53.8796 104.099 53.447 103.993 53.0692 103.781C52.6914 103.566 52.3947 103.251 52.1793 102.837C51.9639 102.422 51.8561 101.914 51.8561 101.31V96.3636H52.7411V101.256C52.7411 101.852 52.9167 102.333 53.2681 102.697C53.6194 103.059 54.0701 103.239 54.6203 103.239C54.965 103.239 55.2965 103.156 55.6147 102.991C55.9328 102.825 56.1947 102.583 56.4002 102.265C56.6057 101.943 56.7084 101.549 56.7084 101.082ZM60.8912 93.8182V104H60.0062V93.8182H60.8912ZM63.3028 104V96.3636H64.1629V97.5369H64.2424C64.3949 97.1425 64.6484 96.8326 65.0031 96.6072C65.361 96.3786 65.7902 96.2642 66.2907 96.2642C66.8177 96.2642 67.2502 96.3885 67.5883 96.6371C67.9297 96.8823 68.1849 97.2204 68.3539 97.6513H68.4185C68.5909 97.227 68.871 96.8906 69.2587 96.642C69.6498 96.3902 70.1238 96.2642 70.6806 96.2642C71.3899 96.2642 71.95 96.4879 72.361 96.9354C72.772 97.3795 72.9775 98.0291 72.9775 98.8842V104H72.0925V98.8842C72.0925 98.281 71.9384 97.8286 71.6302 97.527C71.322 97.2254 70.9159 97.0746 70.4122 97.0746C69.8288 97.0746 69.3797 97.2536 69.0649 97.6115C68.75 97.9695 68.5925 98.4235 68.5925 98.9737V104H67.6877V98.8047C67.6877 98.2876 67.5435 97.87 67.2552 97.5518C66.9668 97.2337 66.5608 97.0746 66.0372 97.0746C65.6858 97.0746 65.3693 97.1607 65.0876 97.3331C64.8092 97.5054 64.5888 97.7457 64.4264 98.054C64.2673 98.3589 64.1877 98.7102 64.1877 99.108V104H63.3028ZM78.3584 104.159C77.6988 104.159 77.1155 103.992 76.6084 103.657C76.1046 103.322 75.7102 102.86 75.4252 102.27C75.1401 101.677 74.9976 100.992 74.9976 100.217C74.9976 99.4344 75.1401 98.7467 75.4252 98.1534C75.7102 97.5568 76.1046 97.0928 76.6084 96.7614C77.1155 96.4266 77.6988 96.2592 78.3584 96.2592C79.018 96.2592 79.5996 96.4266 80.1034 96.7614C80.6072 97.0961 81.0016 97.5601 81.2867 98.1534C81.575 98.7467 81.7192 99.4344 81.7192 100.217C81.7192 100.992 81.5767 101.677 81.2916 102.27C81.0066 102.86 80.6105 103.322 80.1034 103.657C79.5996 103.992 79.018 104.159 78.3584 104.159ZM78.3584 103.349C78.8887 103.349 79.3378 103.206 79.7057 102.921C80.0736 102.636 80.352 102.257 80.5409 101.783C80.7332 101.309 80.8293 100.787 80.8293 100.217C80.8293 99.6465 80.7332 99.1229 80.5409 98.6456C80.352 98.1683 80.0736 97.7855 79.7057 97.4972C79.3378 97.2088 78.8887 97.0646 78.3584 97.0646C77.8314 97.0646 77.3823 97.2088 77.0111 97.4972C76.6432 97.7855 76.3631 98.1683 76.1709 98.6456C75.982 99.1229 75.8875 99.6465 75.8875 100.217C75.8875 100.787 75.982 101.309 76.1709 101.783C76.3631 102.257 76.6432 102.636 77.0111 102.921C77.379 103.206 77.8281 103.349 78.3584 103.349ZM84.6168 99.2273V104H83.7318V96.3636H84.5919V97.5618H84.6715C84.8504 97.1707 85.1288 96.8575 85.5067 96.6222C85.8878 96.3835 86.3585 96.2642 86.9186 96.2642C87.4324 96.2642 87.8831 96.3719 88.2709 96.5874C88.662 96.7995 88.9653 97.1127 89.1807 97.527C89.3994 97.9413 89.5088 98.45 89.5088 99.0533V104H88.6239V99.108C88.6239 98.4815 88.4482 97.986 88.0969 97.6214C87.7489 97.2569 87.2815 97.0746 86.6949 97.0746C86.2939 97.0746 85.9376 97.1607 85.626 97.3331C85.3145 97.5054 85.0675 97.754 84.8852 98.0788C84.7063 98.4003 84.6168 98.7831 84.6168 99.2273ZM94.0421 104.174C93.5814 104.174 93.1604 104.085 92.7793 103.906C92.3981 103.723 92.0949 103.461 91.8695 103.12C91.6441 102.775 91.5314 102.358 91.5314 101.867C91.5314 101.489 91.6027 101.171 91.7452 100.913C91.8877 100.654 92.0899 100.442 92.3517 100.276C92.6136 100.111 92.9235 99.9796 93.2814 99.8835C93.6394 99.7874 94.0338 99.7128 94.4647 99.6598C94.8922 99.6068 95.2535 99.5604 95.5485 99.5206C95.8468 99.4808 96.0738 99.4179 96.2296 99.3317C96.3853 99.2455 96.4632 99.1063 96.4632 98.9141V98.7351C96.4632 98.2147 96.3075 97.8054 95.9959 97.5071C95.6877 97.2055 95.2435 97.0547 94.6635 97.0547C94.1133 97.0547 93.6642 97.1757 93.3162 97.4176C92.9715 97.6596 92.7296 97.9446 92.5904 98.2727L91.7502 97.9695C91.9225 97.5518 92.1612 97.2187 92.4661 96.9702C92.771 96.7183 93.1124 96.5376 93.4902 96.4283C93.8681 96.3156 94.2509 96.2592 94.6387 96.2592C94.9303 96.2592 95.2336 96.2973 95.5485 96.3736C95.8666 96.4498 96.1616 96.5824 96.4334 96.7713C96.7052 96.9569 96.9256 97.2171 97.0946 97.5518C97.2637 97.8833 97.3482 98.3042 97.3482 98.8146V104H96.4632V102.792H96.4086C96.3025 103.017 96.1451 103.236 95.9362 103.448C95.7274 103.66 95.4656 103.834 95.1507 103.97C94.8359 104.106 94.4663 104.174 94.0421 104.174ZM94.1614 103.364C94.632 103.364 95.0397 103.259 95.3844 103.05C95.7291 102.842 95.9943 102.565 96.1799 102.22C96.3688 101.872 96.4632 101.489 96.4632 101.072V99.968C96.3969 100.031 96.2859 100.087 96.1301 100.137C95.9777 100.187 95.8004 100.232 95.5982 100.271C95.3993 100.308 95.2005 100.339 95.0016 100.366C94.8027 100.392 94.6237 100.415 94.4647 100.435C94.0338 100.488 93.6659 100.571 93.361 100.684C93.056 100.797 92.8224 100.952 92.66 101.151C92.4976 101.347 92.4164 101.599 92.4164 101.907C92.4164 102.371 92.5821 102.731 92.9135 102.986C93.245 103.238 93.6609 103.364 94.1614 103.364ZM99.7722 104V96.3636H100.632V97.5369H100.697C100.849 97.1525 101.115 96.8426 101.492 96.6072C101.874 96.3686 102.304 96.2493 102.785 96.2493C102.858 96.2493 102.939 96.2509 103.029 96.2543C103.118 96.2576 103.193 96.2609 103.252 96.2642V97.1641C103.213 97.1574 103.143 97.1475 103.044 97.1342C102.944 97.121 102.836 97.1143 102.72 97.1143C102.323 97.1143 101.968 97.1989 101.656 97.3679C101.348 97.5336 101.105 97.764 100.926 98.0589C100.747 98.3539 100.657 98.6903 100.657 99.0682V104H99.7722ZM105.681 106.864C105.506 106.864 105.342 106.847 105.189 106.814C105.037 106.781 104.916 106.744 104.826 106.705L105.065 105.924C105.366 106.017 105.635 106.05 105.87 106.023C106.106 106 106.314 105.894 106.497 105.705C106.679 105.52 106.841 105.235 106.984 104.85L107.262 104.075L104.453 96.3636H105.413L107.68 102.832H107.75L110.017 96.3636H110.976L107.745 105.208C107.609 105.576 107.441 105.883 107.242 106.128C107.044 106.376 106.813 106.56 106.551 106.68C106.293 106.802 106.003 106.864 105.681 106.864ZM30.4002 122V111.818H33.8356C34.4985 111.818 35.0503 111.934 35.4911 112.166C35.9353 112.398 36.2684 112.715 36.4904 113.116C36.7125 113.517 36.8235 113.973 36.8235 114.483C36.8235 114.907 36.7523 115.27 36.6098 115.572C36.4672 115.873 36.2733 116.117 36.0281 116.303C35.7828 116.488 35.5094 116.622 35.2078 116.705V116.785C35.5359 116.808 35.8541 116.924 36.1623 117.133C36.4706 117.338 36.7241 117.627 36.923 117.998C37.1218 118.369 37.2213 118.813 37.2213 119.33C37.2213 119.844 37.1069 120.303 36.8782 120.707C36.6495 121.108 36.2982 121.425 35.8242 121.657C35.3536 121.886 34.7537 122 34.0245 122H30.4002ZM31.3299 121.165H34.0245C34.81 121.165 35.3901 120.991 35.7646 120.643C36.1424 120.295 36.3313 119.857 36.3313 119.33C36.3313 118.942 36.2369 118.591 36.048 118.276C35.8624 117.958 35.5989 117.706 35.2575 117.521C34.9194 117.335 34.5217 117.242 34.0643 117.242H31.3299V121.165ZM31.3299 116.417H33.9201C34.3212 116.417 34.6725 116.334 34.9741 116.168C35.2757 116.003 35.511 115.774 35.6801 115.482C35.8491 115.191 35.9336 114.857 35.9336 114.483C35.9336 113.943 35.758 113.504 35.4066 113.165C35.0553 112.824 34.5316 112.653 33.8356 112.653H31.3299V116.417ZM39.3507 122V114.364H40.2108V115.537H40.2755C40.4279 115.152 40.6931 114.843 41.0709 114.607C41.4521 114.369 41.8829 114.249 42.3635 114.249C42.4364 114.249 42.5176 114.251 42.6071 114.254C42.6966 114.258 42.7712 114.261 42.8309 114.264V115.164C42.7911 115.157 42.7215 115.147 42.622 115.134C42.5226 115.121 42.4149 115.114 42.2989 115.114C41.9012 115.114 41.5465 115.199 41.235 115.368C40.9267 115.534 40.6831 115.764 40.5042 116.059C40.3252 116.354 40.2357 116.69 40.2357 117.068V122H39.3507ZM47.1466 122.159C46.487 122.159 45.9037 121.992 45.3966 121.657C44.8928 121.322 44.4984 120.86 44.2134 120.27C43.9283 119.677 43.7858 118.992 43.7858 118.217C43.7858 117.434 43.9283 116.747 44.2134 116.153C44.4984 115.557 44.8928 115.093 45.3966 114.761C45.9037 114.427 46.487 114.259 47.1466 114.259C47.8062 114.259 48.3878 114.427 48.8916 114.761C49.3954 115.096 49.7898 115.56 50.0749 116.153C50.3632 116.747 50.5074 117.434 50.5074 118.217C50.5074 118.992 50.3649 119.677 50.0798 120.27C49.7948 120.86 49.3987 121.322 48.8916 121.657C48.3878 121.992 47.8062 122.159 47.1466 122.159ZM47.1466 121.349C47.6769 121.349 48.126 121.206 48.4939 120.921C48.8618 120.636 49.1402 120.257 49.3291 119.783C49.5214 119.309 49.6175 118.787 49.6175 118.217C49.6175 117.647 49.5214 117.123 49.3291 116.646C49.1402 116.168 48.8618 115.786 48.4939 115.497C48.126 115.209 47.6769 115.065 47.1466 115.065C46.6196 115.065 46.1705 115.209 45.7993 115.497C45.4314 115.786 45.1513 116.168 44.9591 116.646C44.7702 117.123 44.6757 117.647 44.6757 118.217C44.6757 118.787 44.7702 119.309 44.9591 119.783C45.1513 120.257 45.4314 120.636 45.7993 120.921C46.1672 121.206 46.6163 121.349 47.1466 121.349ZM53.405 117.227V122H52.52V114.364H53.3801V115.562H53.4597C53.6386 115.171 53.9171 114.857 54.2949 114.622C54.6761 114.384 55.1467 114.264 55.7068 114.264C56.2206 114.264 56.6713 114.372 57.0591 114.587C57.4502 114.799 57.7535 115.113 57.9689 115.527C58.1877 115.941 58.297 116.45 58.297 117.053V122H57.4121V117.108C57.4121 116.482 57.2364 115.986 56.8851 115.621C56.5371 115.257 56.0698 115.075 55.4831 115.075C55.0821 115.075 54.7258 115.161 54.4142 115.333C54.1027 115.505 53.8557 115.754 53.6734 116.079C53.4945 116.4 53.405 116.783 53.405 117.227ZM63.6804 122.159C62.9977 122.159 62.4027 121.988 61.8956 121.647C61.3918 121.306 61.0007 120.838 60.7223 120.245C60.4439 119.652 60.3047 118.976 60.3047 118.217C60.3047 117.451 60.4456 116.77 60.7273 116.173C61.0123 115.577 61.4067 115.109 61.9105 114.771C62.4143 114.43 62.9993 114.259 63.6655 114.259C64.1759 114.259 64.6383 114.359 65.0526 114.558C65.4669 114.753 65.8083 115.03 66.0767 115.388C66.3485 115.742 66.5192 116.157 66.5888 116.631H65.6939C65.6011 116.2 65.3774 115.832 65.0227 115.527C64.6714 115.219 64.224 115.065 63.6804 115.065C63.1932 115.065 62.7623 115.197 62.3878 115.462C62.0133 115.724 61.72 116.09 61.5078 116.561C61.299 117.028 61.1946 117.57 61.1946 118.187C61.1946 118.807 61.2974 119.355 61.5029 119.832C61.7084 120.306 61.9967 120.678 62.3679 120.946C62.7424 121.214 63.1799 121.349 63.6804 121.349C64.0185 121.349 64.3267 121.286 64.6051 121.16C64.8869 121.031 65.1222 120.848 65.3111 120.613C65.5033 120.378 65.6326 120.098 65.6989 119.773H66.5938C66.5275 120.233 66.3634 120.644 66.1016 121.006C65.8431 121.364 65.5067 121.645 65.0924 121.851C64.6814 122.056 64.2107 122.159 63.6804 122.159ZM69.4454 117.227V122H68.5604V111.818H69.4454V115.562H69.5249C69.7039 115.167 69.9806 114.853 70.3552 114.617C70.733 114.382 71.2103 114.264 71.787 114.264C72.304 114.264 72.7581 114.37 73.1492 114.582C73.5403 114.795 73.8452 115.108 74.064 115.522C74.2827 115.936 74.3921 116.447 74.3921 117.053V122H73.5022V117.108C73.5022 116.478 73.3265 115.983 72.9752 115.621C72.6272 115.257 72.1565 115.075 71.5633 115.075C71.1556 115.075 70.7927 115.161 70.4745 115.333C70.1563 115.505 69.9044 115.754 69.7188 116.079C69.5365 116.4 69.4454 116.783 69.4454 117.227ZM81.6448 119.082V114.364H82.5298V122H81.6448V120.732H81.5752C81.3962 121.123 81.1129 121.45 80.7251 121.712C80.3373 121.97 79.8633 122.099 79.3032 122.099C78.816 122.099 78.3834 121.993 78.0056 121.781C77.6278 121.566 77.3311 121.251 77.1157 120.837C76.9003 120.422 76.7925 119.914 76.7925 119.31V114.364H77.6775V119.256C77.6775 119.852 77.8531 120.333 78.2045 120.697C78.5558 121.059 79.0066 121.239 79.5567 121.239C79.9014 121.239 80.2329 121.156 80.5511 120.991C80.8692 120.825 81.1311 120.583 81.3366 120.265C81.5421 119.943 81.6448 119.549 81.6448 119.082ZM90.0733 116.039L89.2629 116.268C89.1834 116.039 89.0707 115.832 88.9249 115.646C88.779 115.461 88.5885 115.313 88.3531 115.204C88.1211 115.094 87.8328 115.04 87.4881 115.04C86.971 115.04 86.5468 115.162 86.2154 115.408C85.8839 115.653 85.7182 115.969 85.7182 116.357C85.7182 116.685 85.8309 116.952 86.0563 117.158C86.285 117.36 86.6363 117.521 87.1102 117.64L88.2636 117.923C88.9033 118.079 89.3823 118.326 89.7004 118.664C90.0219 119.002 90.1827 119.426 90.1827 119.937C90.1827 120.368 90.0634 120.75 89.8247 121.085C89.5861 121.42 89.253 121.683 88.8254 121.876C88.4012 122.065 87.909 122.159 87.3489 122.159C86.6031 122.159 85.9883 121.992 85.5044 121.657C85.0205 121.319 84.7106 120.832 84.5747 120.195L85.4249 119.987C85.5342 120.441 85.748 120.784 86.0662 121.016C86.3877 121.248 86.8103 121.364 87.334 121.364C87.9206 121.364 88.3896 121.233 88.7409 120.971C89.0922 120.706 89.2679 120.374 89.2679 119.977C89.2679 119.668 89.1652 119.41 88.9597 119.201C88.7542 118.989 88.4426 118.833 88.025 118.734L86.7771 118.435C86.1143 118.276 85.6237 118.024 85.3055 117.68C84.9874 117.335 84.8283 116.907 84.8283 116.397C84.8283 115.976 84.9426 115.607 85.1713 115.288C85.4 114.967 85.7149 114.715 86.1159 114.533C86.517 114.35 86.9743 114.259 87.4881 114.259C88.1874 114.259 88.7459 114.418 89.1635 114.737C89.5844 115.051 89.8877 115.486 90.0733 116.039Z" fill="#212121"/>
<defs>
<clipPath id="clip0_4334_13609">
<rect width="64" height="64" fill="white" transform="translate(28 18)"/>
</clipPath>
</defs>
</svg>
