<svg width="120" height="144" viewBox="0 0 120 144" fill="none" xmlns="http://www.w3.org/2000/svg">
<rect width="120" height="144" rx="4" fill="#FAFAFA"/>
<path d="M48.3306 65.4C49.5088 65.4 50.4639 62.5346 50.4639 59C50.4639 55.4654 49.5088 52.6 48.3306 52.6C47.1524 52.6 46.1973 55.4654 46.1973 59C46.1973 62.5346 47.1524 65.4 48.3306 65.4Z" fill="#212121" stroke="#212121" stroke-width="0.71" stroke-miterlimit="10"/>
<path d="M77.7494 57.848C76.8926 57.7804 76.0583 57.541 75.296 57.144C74.9109 53.4048 73.3693 49.8789 70.8859 47.0571C68.4024 44.2354 65.1008 42.2585 61.4409 41.4016C57.7809 40.5447 53.9448 40.8506 50.4669 42.2766C46.9889 43.7026 44.0423 46.1777 42.0374 49.3573C41.572 50.04 41.0587 50.6887 40.5014 51.2987C39.4548 52.2943 38.6162 53.4876 38.0339 54.8095C37.4517 56.1315 37.1374 57.5558 37.1094 59C37.131 60.4536 37.4442 61.888 38.0306 63.2182C38.6169 64.5484 39.4644 65.7474 40.5227 66.744C41.0857 67.3622 41.606 68.0179 42.08 68.7067C43.9353 71.6169 46.5852 73.9349 49.7163 75.3866C52.8474 76.8382 56.3287 77.3628 59.7486 76.8983C63.1685 76.4338 66.3838 74.9996 69.0142 72.7654C71.6447 70.5311 73.5803 67.5903 74.592 64.2907C75.6911 64.6844 76.8402 64.9214 78.0054 64.9947C79.6953 64.9301 81.3558 64.5313 82.8907 63.8213V56.0987C82.2048 56.7353 81.3925 57.2201 80.5066 57.5215C79.6207 57.823 78.6812 57.9342 77.7494 57.848ZM57.312 75.064H56.7574C55.4543 74.8064 54.2538 74.1765 53.3014 73.2507C52.1494 71.672 51.8294 67.1707 49.8454 67.2773C48.3947 67.2773 49.376 68.4293 48.0747 68.4933C45.024 68.6213 45.152 62.0933 43.232 62.0933C42.0587 62.0933 42.272 64.2267 42.72 66.2107L42.0374 65.4C41.1407 64.588 40.419 63.6016 39.9164 62.5012C39.4139 61.4008 39.1411 60.2094 39.1147 59C39.1396 57.7923 39.4097 56.6023 39.9084 55.5022C40.4071 54.402 41.1242 53.4146 42.016 52.6L42.8054 51.6613C42.3574 53.624 42.144 55.736 43.3174 55.7787C45.2374 55.7787 45.088 49.3787 48.16 49.3787C49.44 49.3787 48.48 50.5093 49.9094 50.5733C51.8934 50.68 52.2134 46.3067 53.3654 44.6C54.2292 43.743 55.3154 43.1445 56.5014 42.872H57.312C61.5725 42.872 65.6584 44.5644 68.671 47.577C71.6836 50.5896 73.376 54.6756 73.376 58.936C73.376 63.1964 71.6836 67.2824 68.671 70.295C65.6584 73.3075 61.5725 75 57.312 75V75.064Z" fill="#212121"/>
<path d="M49.3741 113V102.818H55.2803V103.653H50.3038V107.487H54.9671V108.322H50.3038V112.165H55.3798V113H49.3741ZM58.1891 115.864C58.0134 115.864 57.8494 115.847 57.6969 115.814C57.5444 115.781 57.4235 115.744 57.334 115.705L57.5726 114.924C57.8742 115.017 58.1427 115.05 58.378 115.023C58.6133 115 58.8221 114.894 59.0044 114.705C59.1867 114.52 59.3491 114.235 59.4917 113.85L59.7701 113.075L56.9611 105.364H57.9206L60.1877 111.832H60.2573L62.5243 105.364H63.4838L60.2523 114.208C60.1164 114.576 59.949 114.883 59.7502 115.128C59.5513 115.376 59.321 115.56 59.0591 115.68C58.8006 115.802 58.5106 115.864 58.1891 115.864ZM68.0991 113.159C67.3865 113.159 66.77 112.993 66.2497 112.662C65.7293 112.327 65.3266 111.865 65.0416 111.275C64.7599 110.682 64.619 109.999 64.619 109.227C64.619 108.458 64.7599 107.775 65.0416 107.178C65.3266 106.578 65.7194 106.109 66.2199 105.771C66.7236 105.43 67.3053 105.259 67.9649 105.259C68.3792 105.259 68.7786 105.335 69.163 105.488C69.5475 105.637 69.8922 105.867 70.1971 106.179C70.5054 106.487 70.749 106.877 70.928 107.347C71.1069 107.815 71.1964 108.368 71.1964 109.008V109.445H65.2305V108.665H70.2916C70.2916 108.174 70.1922 107.733 69.9933 107.342C69.7977 106.948 69.5243 106.636 69.173 106.408C68.825 106.179 68.4223 106.065 67.9649 106.065C67.481 106.065 67.0551 106.194 66.6872 106.452C66.3193 106.711 66.0309 107.052 65.8221 107.477C65.6166 107.901 65.5122 108.365 65.5089 108.869V109.336C65.5089 109.942 65.6133 110.473 65.8221 110.927C66.0343 111.378 66.3342 111.727 66.722 111.976C67.1098 112.224 67.5688 112.349 68.0991 112.349C68.4604 112.349 68.7769 112.292 69.0487 112.18C69.3238 112.067 69.5541 111.916 69.7397 111.727C69.9287 111.535 70.0712 111.325 70.1673 111.096L71.0075 111.369C70.8915 111.691 70.7009 111.987 70.4358 112.259C70.1739 112.531 69.8458 112.75 69.4514 112.915C69.0603 113.078 68.6095 113.159 68.0991 113.159Z" fill="#212121"/>
</svg>
