<svg width="120" height="144" viewBox="0 0 120 144" fill="none" xmlns="http://www.w3.org/2000/svg">
<rect width="120" height="144" rx="4" fill="#FAFAFA"/>
<g clip-path="url(#clip0_537_8977)">
<mask id="path-2-inside-1_537_8977" fill="white">
<path d="M86.6668 44.8588C86.6692 44.42 86.5749 43.9861 86.3905 43.5879C86.2061 43.1896 85.9363 42.8369 85.6002 42.5548C85.8946 42.2827 86.1299 41.9528 86.2914 41.5858C86.4528 41.2188 86.5371 40.8225 86.5388 40.4215C86.5322 39.9208 86.3998 39.4298 86.1537 38.9936C85.9077 38.5574 85.556 38.1902 85.1308 37.9255C85.5587 37.6638 85.9126 37.2972 86.159 36.8604C86.4054 36.4236 86.5362 35.931 86.5388 35.4295C86.5349 35.0309 86.4518 34.637 86.2943 34.2707C86.1368 33.9045 85.9081 33.5732 85.6215 33.2962L85.8988 32.6348C86.2116 31.8649 86.365 31.0396 86.3497 30.2087C86.3343 29.3778 86.1506 28.5587 85.8096 27.8009C85.4685 27.0431 84.9773 26.3623 84.3656 25.7998C83.7539 25.2372 83.0345 24.8047 82.2508 24.5282C81.1193 24.1023 79.895 23.9845 78.7031 24.1869C77.5111 24.3893 76.3943 24.9046 75.4668 25.6802C74.9112 25.3053 74.2596 25.098 73.5895 25.0828C72.8006 24.9862 72.0056 25.2057 71.378 25.6933C70.7504 26.181 70.3414 26.8972 70.2402 27.6855V28.1548C69.9394 27.7187 69.5382 27.3612 69.0704 27.1124C68.6026 26.8637 68.0819 26.731 67.5522 26.7255C66.9184 26.6915 66.2888 26.8455 65.7422 27.1681C65.1957 27.4907 64.7566 27.9676 64.4802 28.5388C64.1723 28.1213 63.7704 27.7821 63.3072 27.5487C62.8439 27.3152 62.3323 27.194 61.8135 27.1948C61.1924 27.1575 60.5738 27.3008 60.0325 27.6075C59.4911 27.9141 59.0501 28.371 58.7628 28.9228C58.7518 28.5371 58.6645 28.1574 58.506 27.8056C58.3475 27.4538 58.1209 27.1368 57.8393 26.873C57.5576 26.6093 57.2266 26.4039 56.8651 26.2687C56.5037 26.1335 56.1191 26.0713 55.7335 26.0855C55.388 26.0834 55.0438 26.1264 54.7095 26.2135C54.5003 25.3473 54.0012 24.5787 53.2949 24.0354C52.5886 23.4921 51.7177 23.2068 50.8268 23.2268C50.1408 23.1865 49.4549 23.3085 48.8248 23.5827C48.1947 23.857 47.6381 24.2759 47.2002 24.8055L46.5388 24.0162C45.7343 23.1607 44.6642 22.6025 43.5023 22.4321C42.3405 22.2617 41.1551 22.4891 40.1388 23.0775C39.4944 23.4294 38.9719 23.9685 38.6405 24.6237C38.3091 25.2789 38.1844 26.0192 38.2828 26.7468C37.3847 26.74 36.5074 27.0168 35.7757 27.5378C35.0441 28.0587 34.4955 28.7972 34.2082 29.6482C34.086 30.1692 34.0982 30.7127 34.2438 31.2277C34.3893 31.7426 34.6634 32.2122 35.0402 32.5922C34.3449 33.0358 33.8363 33.7189 33.6108 34.5122C33.3836 35.3091 33.4504 36.1612 33.7989 36.913C34.1474 37.6649 34.7545 38.2665 35.5095 38.6082C34.9663 38.7014 34.472 38.9796 34.1104 39.3956C33.7488 39.8117 33.5422 40.3399 33.5255 40.8908C33.4517 41.482 33.5918 42.08 33.9205 42.5769C34.2491 43.0738 34.7446 43.4367 35.3175 43.6002C34.8601 43.8007 34.4701 44.1286 34.194 44.5447C33.9179 44.9608 33.7673 45.4475 33.7602 45.9468V46.5228C33.7769 47.1247 33.9969 47.7031 34.3843 48.1641C34.7716 48.625 35.3035 48.9413 35.8935 49.0615C35.1203 49.5439 34.4807 50.2127 34.0334 51.0067C33.5861 51.8007 33.3455 52.6943 33.3335 53.6055V54.8215C33.3726 56.3041 33.995 57.7113 35.0654 58.7378C36.1358 59.7643 37.5679 60.3272 39.0508 60.3042V62.5868C39.0508 62.8924 39.1722 63.1854 39.3882 63.4014C39.6043 63.6175 39.8973 63.7388 40.2028 63.7388C40.5084 63.7388 40.8014 63.6175 41.0174 63.4014C41.2335 63.1854 41.3548 62.8924 41.3548 62.5868V60.3042C42.814 60.2883 44.2105 59.7089 45.2522 58.687C46.2939 57.6652 46.9002 56.2801 46.9442 54.8215V53.6055C46.9312 52.6867 46.6858 51.786 46.2307 50.9877C45.7755 50.1894 45.1256 49.5194 44.3415 49.0402C44.9297 48.9165 45.4596 48.5992 45.8463 48.139C46.233 47.6788 46.4543 47.1023 46.4748 46.5015V45.9255C46.4811 45.5082 46.3853 45.0956 46.1957 44.7238C46.006 44.3519 45.7284 44.0321 45.3868 43.7922C45.8627 43.3371 46.1517 42.721 46.1975 42.0642C46.2364 41.4454 46.0715 40.831 45.7282 40.3148C46.3565 39.877 46.8158 39.237 47.0295 38.5015C47.2179 37.8565 47.2155 37.1707 47.0224 36.5271C46.8293 35.8835 46.4539 35.3096 45.9415 34.8748C46.382 34.7925 46.8067 34.6413 47.2002 34.4268C47.5967 34.8662 48.0802 35.2182 48.6201 35.4606C49.16 35.703 49.7444 35.8305 50.3362 35.8348C50.9721 35.8555 51.6051 35.739 52.1922 35.4935V35.9415C52.2415 36.6997 52.5821 37.4095 53.1427 37.9224C53.7033 38.4353 54.4405 38.7116 55.2002 38.6935C55.8243 38.7324 56.4464 38.5899 56.9914 38.2833C57.5365 37.9767 57.9813 37.5191 58.2722 36.9655C58.3217 37.7409 58.6735 38.4658 59.252 38.9844C59.8305 39.5031 60.5894 39.774 61.3655 39.7388C62.0021 39.7738 62.6346 39.6179 63.1819 39.291C63.7292 38.9641 64.1664 38.4812 64.4375 37.9042C64.7386 38.3252 65.1355 38.6686 65.5954 38.906C66.0554 39.1434 66.5652 39.268 67.0828 39.2695C67.8582 39.3487 68.634 39.1238 69.2468 38.6423C69.8596 38.1608 70.2616 37.4602 70.3682 36.6882V36.2828C70.6748 36.7181 71.0802 37.0746 71.5511 37.3231C72.022 37.5715 72.5451 37.7048 73.0775 37.7122C73.3721 37.7096 73.6655 37.6738 73.9522 37.6055C74.0722 37.7299 74.2086 37.8376 74.3575 37.9255C73.9363 38.1944 73.5877 38.5627 73.3422 38.9979C73.0967 39.4331 72.9618 39.922 72.9495 40.4215C72.9591 40.8638 73.0675 41.2984 73.2668 41.6934C73.4662 42.0884 73.7514 42.4337 74.1015 42.7042C73.811 42.9794 73.5783 43.3099 73.4171 43.6762C73.256 44.0425 73.1695 44.4373 73.1628 44.8375C73.1725 45.2412 73.2646 45.6386 73.4333 46.0054C73.6021 46.3723 73.844 46.7008 74.1442 46.9708C73.7487 47.3695 73.4359 47.8423 73.2235 48.3622C73.0112 48.882 72.9036 49.4387 72.9068 50.0002C72.9081 50.7553 73.1225 51.4948 73.5255 52.1335C72.6439 52.8246 72.0385 53.8083 71.8188 54.9068C71.8188 55.0348 71.8188 55.1842 71.8188 55.3122C71.6093 55.454 71.4223 55.6266 71.2642 55.8242C70.9599 56.2353 70.7754 56.7226 70.7308 57.2322C70.073 57.4951 69.5085 57.9482 69.1095 58.5335C68.5288 58.0383 67.8189 57.7191 67.0632 57.6133C66.3074 57.5075 65.5372 57.6195 64.8428 57.9362C64.209 57.2974 63.4544 56.7912 62.623 56.4469C61.7916 56.1026 60.9 55.9272 60.0002 55.9308H59.5735C58.7162 55.9139 57.8639 56.066 57.0654 56.3784C56.2669 56.6909 55.5378 57.1576 54.9197 57.752C54.3016 58.3463 53.8066 59.0566 53.4631 59.8422C53.1195 60.6279 52.9341 61.4735 52.9175 62.3308V62.7362C52.9183 63.5676 53.089 64.3901 53.4192 65.1531C53.7494 65.9162 54.232 66.6037 54.8375 67.1735C54.479 67.5561 54.2739 68.0573 54.2615 68.5815C54.2557 69.096 54.436 69.5952 54.7692 69.9873C55.1024 70.3793 55.5661 70.6377 56.0748 70.7148C56.0748 70.7148 56.0748 70.8428 56.0748 70.9282C56.0816 71.3372 56.2059 71.7358 56.4328 72.0762C56.6598 72.4166 56.9798 72.6846 57.3548 72.8482V75.6002C57.4099 76.1702 57.6753 76.6994 58.0993 77.0844C58.5232 77.4694 59.0754 77.6827 59.6482 77.6827C60.2209 77.6827 60.7731 77.4694 61.1971 77.0844C61.6211 76.6994 61.8864 76.1702 61.9415 75.6002V72.5708C62.2399 72.3845 62.4876 72.1273 62.6625 71.8221C62.8375 71.5169 62.9342 71.1732 62.9442 70.8215C62.9442 70.8215 62.9442 70.8215 62.9442 70.6935H63.4988C64.1606 70.6209 64.7782 70.3261 65.2509 69.8573C65.7236 69.3885 66.0235 68.7733 66.1015 68.1122C66.1015 67.3015 65.9948 67.2588 65.9948 67.2588C66.3147 67.6364 66.7188 67.9336 67.1746 68.1263C67.6304 68.319 68.1251 68.4018 68.6188 68.3682C69.2218 68.3391 69.7991 68.1155 70.2644 67.731C70.7297 67.3464 71.058 66.8215 71.2002 66.2348C71.7547 66.841 72.4724 67.2741 73.2671 67.4822C74.0618 67.6904 74.8997 67.6646 75.6802 67.4082C76.1582 67.2453 76.5958 66.9822 76.9638 66.6363C77.3317 66.2904 77.6214 65.8699 77.8135 65.4028C78.365 65.7791 79.0417 65.925 79.6993 65.8094C80.3569 65.6938 80.9433 65.3259 81.3335 64.7842C81.6128 64.3857 81.7981 63.9292 81.8757 63.4489C81.9533 62.9686 81.9211 62.4769 81.7815 62.0108C82.4655 61.7302 83.068 61.2824 83.5339 60.7084C83.9999 60.1344 84.3142 59.4526 84.4482 58.7255C84.6317 57.9111 84.6191 57.0648 84.4113 56.2562C84.2036 55.4476 83.8068 54.7 83.2535 54.0748C84.1601 53.8409 84.9645 53.3152 85.5428 52.5788C86.1211 51.8425 86.4411 50.9364 86.4535 50.0002C86.4375 48.9952 86.0673 48.0282 85.4082 47.2695C85.7976 46.9998 86.1157 46.6394 86.335 46.2195C86.5542 45.7995 86.6681 45.3326 86.6668 44.8588Z"/>
</mask>
<path d="M86.6668 44.8588C86.6692 44.42 86.5749 43.9861 86.3905 43.5879C86.2061 43.1896 85.9363 42.8369 85.6002 42.5548C85.8946 42.2827 86.1299 41.9528 86.2914 41.5858C86.4528 41.2188 86.5371 40.8225 86.5388 40.4215C86.5322 39.9208 86.3998 39.4298 86.1537 38.9936C85.9077 38.5574 85.556 38.1902 85.1308 37.9255C85.5587 37.6638 85.9126 37.2972 86.159 36.8604C86.4054 36.4236 86.5362 35.931 86.5388 35.4295C86.5349 35.0309 86.4518 34.637 86.2943 34.2707C86.1368 33.9045 85.9081 33.5732 85.6215 33.2962L85.8988 32.6348C86.2116 31.8649 86.365 31.0396 86.3497 30.2087C86.3343 29.3778 86.1506 28.5587 85.8096 27.8009C85.4685 27.0431 84.9773 26.3623 84.3656 25.7998C83.7539 25.2372 83.0345 24.8047 82.2508 24.5282C81.1193 24.1023 79.895 23.9845 78.7031 24.1869C77.5111 24.3893 76.3943 24.9046 75.4668 25.6802C74.9112 25.3053 74.2596 25.098 73.5895 25.0828C72.8006 24.9862 72.0056 25.2057 71.378 25.6933C70.7504 26.181 70.3414 26.8972 70.2402 27.6855V28.1548C69.9394 27.7187 69.5382 27.3612 69.0704 27.1124C68.6026 26.8637 68.0819 26.731 67.5522 26.7255C66.9184 26.6915 66.2888 26.8455 65.7422 27.1681C65.1957 27.4907 64.7566 27.9676 64.4802 28.5388C64.1723 28.1213 63.7704 27.7821 63.3072 27.5487C62.8439 27.3152 62.3323 27.194 61.8135 27.1948C61.1924 27.1575 60.5738 27.3008 60.0325 27.6075C59.4911 27.9141 59.0501 28.371 58.7628 28.9228C58.7518 28.5371 58.6645 28.1574 58.506 27.8056C58.3475 27.4538 58.1209 27.1368 57.8393 26.873C57.5576 26.6093 57.2266 26.4039 56.8651 26.2687C56.5037 26.1335 56.1191 26.0713 55.7335 26.0855C55.388 26.0834 55.0438 26.1264 54.7095 26.2135C54.5003 25.3473 54.0012 24.5787 53.2949 24.0354C52.5886 23.4921 51.7177 23.2068 50.8268 23.2268C50.1408 23.1865 49.4549 23.3085 48.8248 23.5827C48.1947 23.857 47.6381 24.2759 47.2002 24.8055L46.5388 24.0162C45.7343 23.1607 44.6642 22.6025 43.5023 22.4321C42.3405 22.2617 41.1551 22.4891 40.1388 23.0775C39.4944 23.4294 38.9719 23.9685 38.6405 24.6237C38.3091 25.2789 38.1844 26.0192 38.2828 26.7468C37.3847 26.74 36.5074 27.0168 35.7757 27.5378C35.0441 28.0587 34.4955 28.7972 34.2082 29.6482C34.086 30.1692 34.0982 30.7127 34.2438 31.2277C34.3893 31.7426 34.6634 32.2122 35.0402 32.5922C34.3449 33.0358 33.8363 33.7189 33.6108 34.5122C33.3836 35.3091 33.4504 36.1612 33.7989 36.913C34.1474 37.6649 34.7545 38.2665 35.5095 38.6082C34.9663 38.7014 34.472 38.9796 34.1104 39.3956C33.7488 39.8117 33.5422 40.3399 33.5255 40.8908C33.4517 41.482 33.5918 42.08 33.9205 42.5769C34.2491 43.0738 34.7446 43.4367 35.3175 43.6002C34.8601 43.8007 34.4701 44.1286 34.194 44.5447C33.9179 44.9608 33.7673 45.4475 33.7602 45.9468V46.5228C33.7769 47.1247 33.9969 47.7031 34.3843 48.1641C34.7716 48.625 35.3035 48.9413 35.8935 49.0615C35.1203 49.5439 34.4807 50.2127 34.0334 51.0067C33.5861 51.8007 33.3455 52.6943 33.3335 53.6055V54.8215C33.3726 56.3041 33.995 57.7113 35.0654 58.7378C36.1358 59.7643 37.5679 60.3272 39.0508 60.3042V62.5868C39.0508 62.8924 39.1722 63.1854 39.3882 63.4014C39.6043 63.6175 39.8973 63.7388 40.2028 63.7388C40.5084 63.7388 40.8014 63.6175 41.0174 63.4014C41.2335 63.1854 41.3548 62.8924 41.3548 62.5868V60.3042C42.814 60.2883 44.2105 59.7089 45.2522 58.687C46.2939 57.6652 46.9002 56.2801 46.9442 54.8215V53.6055C46.9312 52.6867 46.6858 51.786 46.2307 50.9877C45.7755 50.1894 45.1256 49.5194 44.3415 49.0402C44.9297 48.9165 45.4596 48.5992 45.8463 48.139C46.233 47.6788 46.4543 47.1023 46.4748 46.5015V45.9255C46.4811 45.5082 46.3853 45.0956 46.1957 44.7238C46.006 44.3519 45.7284 44.0321 45.3868 43.7922C45.8627 43.3371 46.1517 42.721 46.1975 42.0642C46.2364 41.4454 46.0715 40.831 45.7282 40.3148C46.3565 39.877 46.8158 39.237 47.0295 38.5015C47.2179 37.8565 47.2155 37.1707 47.0224 36.5271C46.8293 35.8835 46.4539 35.3096 45.9415 34.8748C46.382 34.7925 46.8067 34.6413 47.2002 34.4268C47.5967 34.8662 48.0802 35.2182 48.6201 35.4606C49.16 35.703 49.7444 35.8305 50.3362 35.8348C50.9721 35.8555 51.6051 35.739 52.1922 35.4935V35.9415C52.2415 36.6997 52.5821 37.4095 53.1427 37.9224C53.7033 38.4353 54.4405 38.7116 55.2002 38.6935C55.8243 38.7324 56.4464 38.5899 56.9914 38.2833C57.5365 37.9767 57.9813 37.5191 58.2722 36.9655C58.3217 37.7409 58.6735 38.4658 59.252 38.9844C59.8305 39.5031 60.5894 39.774 61.3655 39.7388C62.0021 39.7738 62.6346 39.6179 63.1819 39.291C63.7292 38.9641 64.1664 38.4812 64.4375 37.9042C64.7386 38.3252 65.1355 38.6686 65.5954 38.906C66.0554 39.1434 66.5652 39.268 67.0828 39.2695C67.8582 39.3487 68.634 39.1238 69.2468 38.6423C69.8596 38.1608 70.2616 37.4602 70.3682 36.6882V36.2828C70.6748 36.7181 71.0802 37.0746 71.5511 37.3231C72.022 37.5715 72.5451 37.7048 73.0775 37.7122C73.3721 37.7096 73.6655 37.6738 73.9522 37.6055C74.0722 37.7299 74.2086 37.8376 74.3575 37.9255C73.9363 38.1944 73.5877 38.5627 73.3422 38.9979C73.0967 39.4331 72.9618 39.922 72.9495 40.4215C72.9591 40.8638 73.0675 41.2984 73.2668 41.6934C73.4662 42.0884 73.7514 42.4337 74.1015 42.7042C73.811 42.9794 73.5783 43.3099 73.4171 43.6762C73.256 44.0425 73.1695 44.4373 73.1628 44.8375C73.1725 45.2412 73.2646 45.6386 73.4333 46.0054C73.6021 46.3723 73.844 46.7008 74.1442 46.9708C73.7487 47.3695 73.4359 47.8423 73.2235 48.3622C73.0112 48.882 72.9036 49.4387 72.9068 50.0002C72.9081 50.7553 73.1225 51.4948 73.5255 52.1335C72.6439 52.8246 72.0385 53.8083 71.8188 54.9068C71.8188 55.0348 71.8188 55.1842 71.8188 55.3122C71.6093 55.454 71.4223 55.6266 71.2642 55.8242C70.9599 56.2353 70.7754 56.7226 70.7308 57.2322C70.073 57.4951 69.5085 57.9482 69.1095 58.5335C68.5288 58.0383 67.8189 57.7191 67.0632 57.6133C66.3074 57.5075 65.5372 57.6195 64.8428 57.9362C64.209 57.2974 63.4544 56.7912 62.623 56.4469C61.7916 56.1026 60.9 55.9272 60.0002 55.9308H59.5735C58.7162 55.9139 57.8639 56.066 57.0654 56.3784C56.2669 56.6909 55.5378 57.1576 54.9197 57.752C54.3016 58.3463 53.8066 59.0566 53.4631 59.8422C53.1195 60.6279 52.9341 61.4735 52.9175 62.3308V62.7362C52.9183 63.5676 53.089 64.3901 53.4192 65.1531C53.7494 65.9162 54.232 66.6037 54.8375 67.1735C54.479 67.5561 54.2739 68.0573 54.2615 68.5815C54.2557 69.096 54.436 69.5952 54.7692 69.9873C55.1024 70.3793 55.5661 70.6377 56.0748 70.7148C56.0748 70.7148 56.0748 70.8428 56.0748 70.9282C56.0816 71.3372 56.2059 71.7358 56.4328 72.0762C56.6598 72.4166 56.9798 72.6846 57.3548 72.8482V75.6002C57.4099 76.1702 57.6753 76.6994 58.0993 77.0844C58.5232 77.4694 59.0754 77.6827 59.6482 77.6827C60.2209 77.6827 60.7731 77.4694 61.1971 77.0844C61.6211 76.6994 61.8864 76.1702 61.9415 75.6002V72.5708C62.2399 72.3845 62.4876 72.1273 62.6625 71.8221C62.8375 71.5169 62.9342 71.1732 62.9442 70.8215C62.9442 70.8215 62.9442 70.8215 62.9442 70.6935H63.4988C64.1606 70.6209 64.7782 70.3261 65.2509 69.8573C65.7236 69.3885 66.0235 68.7733 66.1015 68.1122C66.1015 67.3015 65.9948 67.2588 65.9948 67.2588C66.3147 67.6364 66.7188 67.9336 67.1746 68.1263C67.6304 68.319 68.1251 68.4018 68.6188 68.3682C69.2218 68.3391 69.7991 68.1155 70.2644 67.731C70.7297 67.3464 71.058 66.8215 71.2002 66.2348C71.7547 66.841 72.4724 67.2741 73.2671 67.4822C74.0618 67.6904 74.8997 67.6646 75.6802 67.4082C76.1582 67.2453 76.5958 66.9822 76.9638 66.6363C77.3317 66.2904 77.6214 65.8699 77.8135 65.4028C78.365 65.7791 79.0417 65.925 79.6993 65.8094C80.3569 65.6938 80.9433 65.3259 81.3335 64.7842C81.6128 64.3857 81.7981 63.9292 81.8757 63.4489C81.9533 62.9686 81.9211 62.4769 81.7815 62.0108C82.4655 61.7302 83.068 61.2824 83.5339 60.7084C83.9999 60.1344 84.3142 59.4526 84.4482 58.7255C84.6317 57.9111 84.6191 57.0648 84.4113 56.2562C84.2036 55.4476 83.8068 54.7 83.2535 54.0748C84.1601 53.8409 84.9645 53.3152 85.5428 52.5788C86.1211 51.8425 86.4411 50.9364 86.4535 50.0002C86.4375 48.9952 86.0673 48.0282 85.4082 47.2695C85.7976 46.9998 86.1157 46.6394 86.335 46.2195C86.5542 45.7995 86.6681 45.3326 86.6668 44.8588Z" fill="#212121" stroke="#212121" stroke-width="2" mask="url(#path-2-inside-1_537_8977)"/>
</g>
<path d="M42.7279 104V93.8182H43.6576V103.165H48.5099V104H42.7279ZM52.6218 104.174C52.1611 104.174 51.7401 104.085 51.359 103.906C50.9778 103.723 50.6746 103.461 50.4492 103.12C50.2238 102.775 50.1111 102.358 50.1111 101.867C50.1111 101.489 50.1824 101.171 50.3249 100.913C50.4674 100.654 50.6696 100.442 50.9314 100.276C51.1933 100.111 51.5032 99.9796 51.8611 99.8835C52.2191 99.7874 52.6135 99.7128 53.0443 99.6598C53.4719 99.6068 53.8332 99.5604 54.1282 99.5206C54.4264 99.4808 54.6535 99.4179 54.8093 99.3317C54.965 99.2455 55.0429 99.1063 55.0429 98.9141V98.7351C55.0429 98.2147 54.8872 97.8054 54.5756 97.5071C54.2674 97.2055 53.8232 97.0547 53.2432 97.0547C52.693 97.0547 52.2439 97.1757 51.8959 97.4176C51.5512 97.6596 51.3093 97.9446 51.1701 98.2727L50.3299 97.9695C50.5022 97.5518 50.7408 97.2187 51.0458 96.9702C51.3507 96.7183 51.6921 96.5376 52.0699 96.4283C52.4478 96.3156 52.8306 96.2592 53.2184 96.2592C53.51 96.2592 53.8133 96.2973 54.1282 96.3736C54.4463 96.4498 54.7413 96.5824 55.0131 96.7713C55.2849 96.9569 55.5053 97.2171 55.6743 97.5518C55.8434 97.8833 55.9279 98.3042 55.9279 98.8146V104H55.0429V102.792H54.9882C54.8822 103.017 54.7247 103.236 54.5159 103.448C54.3071 103.66 54.0453 103.834 53.7304 103.97C53.4156 104.106 53.046 104.174 52.6218 104.174ZM52.7411 103.364C53.2117 103.364 53.6194 103.259 53.9641 103.05C54.3088 102.842 54.5739 102.565 54.7595 102.22C54.9485 101.872 55.0429 101.489 55.0429 101.072V99.968C54.9766 100.031 54.8656 100.087 54.7098 100.137C54.5574 100.187 54.38 100.232 54.1779 100.271C53.979 100.308 53.7801 100.339 53.5813 100.366C53.3824 100.392 53.2034 100.415 53.0443 100.435C52.6135 100.488 52.2456 100.571 51.9407 100.684C51.6357 100.797 51.4021 100.952 51.2397 101.151C51.0773 101.347 50.9961 101.599 50.9961 101.907C50.9961 102.371 51.1618 102.731 51.4932 102.986C51.8246 103.238 52.2406 103.364 52.7411 103.364ZM58.3519 104V96.3636H59.212V97.5369H59.2766C59.4291 97.1525 59.6942 96.8426 60.0721 96.6072C60.4532 96.3686 60.8841 96.2493 61.3647 96.2493C61.4376 96.2493 61.5188 96.2509 61.6083 96.2543C61.6978 96.2576 61.7724 96.2609 61.832 96.2642V97.1641C61.7923 97.1574 61.7227 97.1475 61.6232 97.1342C61.5238 97.121 61.4161 97.1143 61.3001 97.1143C60.9023 97.1143 60.5477 97.1989 60.2362 97.3679C59.9279 97.5336 59.6843 97.764 59.5053 98.0589C59.3263 98.3539 59.2369 98.6903 59.2369 99.0682V104H58.3519ZM66.0931 107.023C65.5727 107.023 65.117 106.955 64.7259 106.819C64.3348 106.686 64.005 106.504 63.7365 106.272C63.4681 106.04 63.2593 105.78 63.1101 105.491L63.836 105.014C63.9454 105.206 64.0912 105.395 64.2735 105.581C64.4591 105.767 64.6994 105.921 64.9944 106.043C65.2927 106.166 65.6589 106.227 66.0931 106.227C66.7692 106.227 67.3144 106.058 67.7287 105.72C68.1463 105.382 68.3552 104.857 68.3552 104.144V102.424H68.2756C68.1729 102.656 68.0254 102.888 67.8331 103.12C67.6409 103.349 67.389 103.539 67.0775 103.692C66.7692 103.844 66.3864 103.92 65.929 103.92C65.3192 103.92 64.7773 103.77 64.3033 103.468C63.8327 103.166 63.4615 102.736 63.1897 102.175C62.9212 101.612 62.787 100.941 62.787 100.162C62.787 99.3897 62.9179 98.7102 63.1797 98.1236C63.4449 97.5369 63.8144 97.0795 64.2884 96.7514C64.7624 96.4233 65.3142 96.2592 65.9439 96.2592C66.4113 96.2592 66.799 96.3421 67.1073 96.5078C67.4155 96.6702 67.6624 96.8724 67.8481 97.1143C68.037 97.3563 68.1845 97.5916 68.2905 97.8203H68.38V96.3636H69.2451V104.199C69.2451 104.845 69.1075 105.377 68.8324 105.795C68.5573 106.212 68.1828 106.521 67.7088 106.719C67.2349 106.922 66.6963 107.023 66.0931 107.023ZM66.0334 103.11C66.524 103.11 66.9432 102.992 67.2912 102.757C67.6392 102.518 67.9061 102.177 68.0917 101.733C68.2773 101.289 68.3701 100.76 68.3701 100.147C68.3701 99.5504 68.2789 99.0218 68.0966 98.5611C67.9143 98.0971 67.6492 97.7325 67.3012 97.4673C66.9565 97.1989 66.5339 97.0646 66.0334 97.0646C65.523 97.0646 65.0921 97.2022 64.7408 97.4773C64.3895 97.7524 64.1243 98.1236 63.9454 98.5909C63.7664 99.0549 63.6769 99.5736 63.6769 100.147C63.6769 100.73 63.768 101.246 63.9503 101.693C64.1326 102.137 64.3994 102.485 64.7508 102.737C65.1021 102.986 65.5296 103.11 66.0334 103.11ZM74.7453 104.159C74.0327 104.159 73.4162 103.993 72.8959 103.662C72.3755 103.327 71.9728 102.865 71.6878 102.275C71.406 101.682 71.2652 100.999 71.2652 100.227C71.2652 99.4576 71.406 98.7749 71.6878 98.1783C71.9728 97.5784 72.3656 97.1094 72.866 96.7713C73.3698 96.4299 73.9515 96.2592 74.6111 96.2592C75.0254 96.2592 75.4247 96.3355 75.8092 96.4879C76.1937 96.6371 76.5384 96.8674 76.8433 97.179C77.1515 97.4872 77.3951 97.8767 77.5741 98.3473C77.7531 98.8146 77.8426 99.3681 77.8426 100.008V100.445H71.8767V99.6648H76.9378C76.9378 99.1742 76.8383 98.7334 76.6395 98.3423C76.4439 97.9479 76.1705 97.6364 75.8192 97.4077C75.4711 97.179 75.0684 97.0646 74.6111 97.0646C74.1272 97.0646 73.7013 97.1939 73.3334 97.4524C72.9655 97.7109 72.6771 98.0523 72.4683 98.4766C72.2628 98.9008 72.1584 99.3648 72.1551 99.8686V100.336C72.1551 100.942 72.2595 101.473 72.4683 101.927C72.6804 102.378 72.9804 102.727 73.3682 102.976C73.7559 103.224 74.215 103.349 74.7453 103.349C75.1066 103.349 75.4231 103.292 75.6949 103.18C75.97 103.067 76.2003 102.916 76.3859 102.727C76.5748 102.535 76.7174 102.325 76.8135 102.096L77.6537 102.369C77.5377 102.691 77.3471 102.987 77.0819 103.259C76.8201 103.531 76.492 103.75 76.0976 103.915C75.7065 104.078 75.2557 104.159 74.7453 104.159ZM33.7559 111.818V122H32.8262V111.818H33.7559ZM37.2339 117.227V122H36.3489V114.364H37.209V115.562H37.2886C37.4676 115.171 37.746 114.857 38.1238 114.622C38.505 114.384 38.9756 114.264 39.5357 114.264C40.0495 114.264 40.5002 114.372 40.888 114.587C41.2791 114.799 41.5824 115.113 41.7978 115.527C42.0166 115.941 42.1259 116.45 42.1259 117.053V122H41.241V117.108C41.241 116.482 41.0653 115.986 40.714 115.621C40.366 115.257 39.8987 115.075 39.312 115.075C38.911 115.075 38.5547 115.161 38.2431 115.333C37.9316 115.505 37.6846 115.754 37.5024 116.079C37.3234 116.4 37.2339 116.783 37.2339 117.227ZM47.5342 114.364V115.134H43.89V114.364H47.5342ZM45.0285 112.534H45.9184V120.006C45.9184 120.325 45.9731 120.575 46.0825 120.757C46.1919 120.936 46.3344 121.064 46.51 121.14C46.6857 121.213 46.873 121.249 47.0718 121.249C47.1878 121.249 47.2873 121.243 47.3701 121.229C47.453 121.213 47.5259 121.196 47.5889 121.18L47.7778 121.98C47.6916 122.013 47.5856 122.043 47.4596 122.07C47.3337 122.099 47.1779 122.114 46.9923 122.114C46.6675 122.114 46.3543 122.043 46.0526 121.901C45.7544 121.758 45.5091 121.546 45.3169 121.264C45.1246 120.982 45.0285 120.633 45.0285 120.215V112.534ZM52.6193 122.159C51.9067 122.159 51.2902 121.993 50.7698 121.662C50.2495 121.327 49.8468 120.865 49.5617 120.275C49.28 119.682 49.1392 118.999 49.1392 118.227C49.1392 117.458 49.28 116.775 49.5617 116.178C49.8468 115.578 50.2395 115.109 50.74 114.771C51.2438 114.43 51.8255 114.259 52.485 114.259C52.8993 114.259 53.2987 114.335 53.6832 114.488C54.0677 114.637 54.4124 114.867 54.7173 115.179C55.0255 115.487 55.2691 115.877 55.4481 116.347C55.6271 116.815 55.7166 117.368 55.7166 118.008V118.445H49.7507V117.665H54.8117C54.8117 117.174 54.7123 116.733 54.5135 116.342C54.3179 115.948 54.0445 115.636 53.6931 115.408C53.3451 115.179 52.9424 115.065 52.485 115.065C52.0011 115.065 51.5752 115.194 51.2073 115.452C50.8394 115.711 50.5511 116.052 50.3423 116.477C50.1368 116.901 50.0324 117.365 50.0291 117.869V118.336C50.0291 118.942 50.1335 119.473 50.3423 119.927C50.5544 120.378 50.8544 120.727 51.2421 120.976C51.6299 121.224 52.089 121.349 52.6193 121.349C52.9805 121.349 53.2971 121.292 53.5688 121.18C53.8439 121.067 54.0743 120.916 54.2599 120.727C54.4488 120.535 54.5913 120.325 54.6875 120.096L55.5277 120.369C55.4117 120.691 55.2211 120.987 54.9559 121.259C54.6941 121.531 54.366 121.75 53.9715 121.915C53.5804 122.078 53.1297 122.159 52.6193 122.159ZM62.8674 116.039L62.057 116.268C61.9775 116.039 61.8648 115.832 61.7189 115.646C61.5731 115.461 61.3825 115.313 61.1472 115.204C60.9152 115.094 60.6268 115.04 60.2821 115.04C59.7651 115.04 59.3409 115.162 59.0094 115.408C58.678 115.653 58.5123 115.969 58.5123 116.357C58.5123 116.685 58.6249 116.952 58.8503 117.158C59.079 117.36 59.4303 117.521 59.9043 117.64L61.0577 117.923C61.6974 118.079 62.1763 118.326 62.4945 118.664C62.816 119.002 62.9767 119.426 62.9767 119.937C62.9767 120.368 62.8574 120.75 62.6188 121.085C62.3801 121.42 62.0471 121.683 61.6195 121.876C61.1953 122.065 60.7031 122.159 60.1429 122.159C59.3972 122.159 58.7824 121.992 58.2985 121.657C57.8146 121.319 57.5047 120.832 57.3688 120.195L58.2189 119.987C58.3283 120.441 58.5421 120.784 58.8603 121.016C59.1818 121.248 59.6043 121.364 60.128 121.364C60.7147 121.364 61.1837 121.233 61.535 120.971C61.8863 120.706 62.062 120.374 62.062 119.977C62.062 119.668 61.9592 119.41 61.7537 119.201C61.5482 118.989 61.2367 118.833 60.8191 118.734L59.5712 118.435C58.9083 118.276 58.4178 118.024 58.0996 117.68C57.7814 117.335 57.6223 116.907 57.6223 116.397C57.6223 115.976 57.7367 115.607 57.9654 115.288C58.1941 114.967 58.5089 114.715 58.91 114.533C59.311 114.35 59.7684 114.259 60.2821 114.259C60.9815 114.259 61.54 114.418 61.9576 114.737C62.3785 115.051 62.6818 115.486 62.8674 116.039ZM67.9922 114.364V115.134H64.3481V114.364H67.9922ZM65.4865 112.534H66.3765V120.006C66.3765 120.325 66.4312 120.575 66.5405 120.757C66.6499 120.936 66.7924 121.064 66.9681 121.14C67.1437 121.213 67.331 121.249 67.5299 121.249C67.6459 121.249 67.7453 121.243 67.8282 121.229C67.911 121.213 67.9839 121.196 68.0469 121.18L68.2358 121.98C68.1497 122.013 68.0436 122.043 67.9177 122.07C67.7917 122.099 67.6359 122.114 67.4503 122.114C67.1255 122.114 66.8123 122.043 66.5107 121.901C66.2124 121.758 65.9671 121.546 65.7749 121.264C65.5827 120.982 65.4865 120.633 65.4865 120.215V112.534ZM70.0819 122V114.364H70.9719V122H70.0819ZM70.5344 113.051C70.3521 113.051 70.1963 112.99 70.067 112.867C69.9378 112.741 69.8731 112.59 69.8731 112.415C69.8731 112.239 69.9378 112.09 70.067 111.967C70.1963 111.841 70.3521 111.778 70.5344 111.778C70.7166 111.778 70.8724 111.841 71.0017 111.967C71.1309 112.09 71.1956 112.239 71.1956 112.415C71.1956 112.59 71.1309 112.741 71.0017 112.867C70.8724 112.99 70.7166 113.051 70.5344 113.051ZM74.2672 117.227V122H73.3822V114.364H74.2423V115.562H74.3219C74.5008 115.171 74.7792 114.857 75.1571 114.622C75.5382 114.384 76.0089 114.264 76.569 114.264C77.0828 114.264 77.5335 114.372 77.9213 114.587C78.3124 114.799 78.6157 115.113 78.8311 115.527C79.0498 115.941 79.1592 116.45 79.1592 117.053V122H78.2743V117.108C78.2743 116.482 78.0986 115.986 77.7473 115.621C77.3993 115.257 76.9319 115.075 76.3453 115.075C75.9443 115.075 75.588 115.161 75.2764 115.333C74.9649 115.505 74.7179 115.754 74.5356 116.079C74.3567 116.4 74.2672 116.783 74.2672 117.227ZM84.647 122.159C83.9344 122.159 83.3179 121.993 82.7976 121.662C82.2772 121.327 81.8745 120.865 81.5895 120.275C81.3078 119.682 81.1669 118.999 81.1669 118.227C81.1669 117.458 81.3078 116.775 81.5895 116.178C81.8745 115.578 82.2673 115.109 82.7677 114.771C83.2715 114.43 83.8532 114.259 84.5128 114.259C84.9271 114.259 85.3265 114.335 85.7109 114.488C86.0954 114.637 86.4401 114.867 86.745 115.179C87.0533 115.487 87.2969 115.877 87.4758 116.347C87.6548 116.815 87.7443 117.368 87.7443 118.008V118.445H81.7784V117.665H86.8395C86.8395 117.174 86.74 116.733 86.5412 116.342C86.3456 115.948 86.0722 115.636 85.7209 115.408C85.3729 115.179 84.9702 115.065 84.5128 115.065C84.0289 115.065 83.603 115.194 83.2351 115.452C82.8672 115.711 82.5788 116.052 82.37 116.477C82.1645 116.901 82.0601 117.365 82.0568 117.869V118.336C82.0568 118.942 82.1612 119.473 82.37 119.927C82.5821 120.378 82.8821 120.727 83.2699 120.976C83.6577 121.224 84.1167 121.349 84.647 121.349C85.0083 121.349 85.3248 121.292 85.5966 121.18C85.8717 121.067 86.102 120.916 86.2876 120.727C86.4766 120.535 86.6191 120.325 86.7152 120.096L87.5554 120.369C87.4394 120.691 87.2488 120.987 86.9837 121.259C86.7218 121.531 86.3937 121.75 85.9993 121.915C85.6082 122.078 85.1574 122.159 84.647 122.159Z" fill="#212121"/>
<defs>
<clipPath id="clip0_537_8977">
<rect width="64" height="64" fill="white" transform="translate(28 18)"/>
</clipPath>
</defs>
</svg>
