<svg width="120" height="144" viewBox="0 0 120 144" fill="none" xmlns="http://www.w3.org/2000/svg">
<rect width="120" height="144" rx="4" fill="#FAFAFA"/>
<g clip-path="url(#clip0_537_9003)">
<path d="M50.7773 42.7161L50.7748 42.7409V42.7658C50.7748 42.8155 50.776 43.0544 50.7779 43.4532C50.7819 44.2621 50.789 45.7287 50.7962 47.6077C50.8068 50.4154 50.8175 54.148 50.8175 57.9978V58.043V58.0882V58.1335V58.1788V58.2241V58.2695V58.315V58.3605V58.4061V58.4517V58.4973V58.543V58.5888V58.6346V58.6804V58.7263V58.7722V58.8182V58.8642V58.9102V58.9563V59.0025V59.0487V59.0949V59.1412V59.1875V59.2338V59.2802V59.3266V59.3731V59.4195V59.4661V59.5126V59.5592V59.6059V59.6525V59.6992V59.746V59.7927V59.8395V59.8864V59.9332V59.9801V60.027V60.074V60.1209V60.1679V60.215V60.262V60.3091V60.3562V60.4034V60.4505V60.4977V60.5449V60.5921V60.6394V60.6867V60.7339V60.7813V60.8286V60.8759V60.9233V60.9707V61.0181V61.0655V61.113V61.1605V61.2079V61.2554V61.3029V61.3504V61.398V61.4455V61.4931V61.5406V61.5882V61.6358V61.6834V61.731V61.7787V61.8263V61.8739V61.9216V61.9692V62.0169V62.0645V62.1122V62.1599V62.2076V62.2552V62.3029V62.3506V62.3983V62.446V62.4937V62.5414V62.589V62.6367V62.6844V62.7321V62.7798V62.8275V62.8751V62.9228V62.9705V63.0181V63.0658V63.1135V63.1611V63.2087V63.2564V63.304V63.3516V63.3992V63.4468V63.4944V63.5419V63.5895V63.637V63.6845V63.7321V63.7796V63.827V63.8745V63.922V63.9694V64.0168V64.0642V64.1116V64.159V64.2063V64.2537V64.301V64.3483V64.3955V64.4428V64.49V64.5372V64.5844V64.6315V64.6787V64.7258V64.7729V64.8199V64.8669V64.9139V64.9609V65.0078V65.0547V65.1016V65.1485V65.1953V65.2421V65.2888V65.3356V65.3823V65.4289V65.4755V65.5221V65.5687V65.6152V65.6617V65.7081V65.7545V65.8009V65.8473V65.8935V65.9398V65.986V66.0322V66.0783V66.1244V66.1705V66.2165V66.2624V66.3083V66.3542V66.4V66.4458V66.4916V66.5373V66.5829V66.6285V66.674V66.7195V66.765V66.8104V66.8557V66.901V66.9463V66.9915V67.0366V67.0817V67.1267V67.1717V67.2166V67.2615V67.3063V67.3511V67.3958V67.4404V67.485V67.5295V67.574V67.6184V67.6627V67.707V67.7512V67.7954V67.8395V67.8835V67.9275V67.9714V68.0152V68.059V68.1027V68.1463V68.1899V68.2334V68.2768V68.3202V68.3635V68.4067V68.4499V68.493V68.536V68.5789V68.6218V68.6646V68.7073V68.75V68.7926V68.8351V68.8775V68.9198V68.9621V69.0043V69.0464V69.0884V69.1304V69.1723V69.2141V69.2558V69.2974V69.339V69.3804V69.4218V69.4631V69.5043V69.5455V69.5865V69.6275V69.6684V69.7091V69.7498V69.7904V69.831V69.8714V69.9118V69.952V69.9922V70.0322V70.0722V70.1121V70.1519V70.1916V70.2312V70.2707V70.3101V70.3495V70.3887V70.4278V70.4668V70.5058V70.5446V70.5833V70.622V70.6605V70.6989V70.7373V70.7755V70.8136V70.8516V70.8896V70.9274V70.9651V71.0027V71.0402V71.0776V71.1149V71.1521V71.1891V71.2261V71.2629V71.2997V71.3363V71.3728V71.4093V71.4456V71.4817V71.5178V71.5538V71.5896V71.6254V71.661V71.6965V71.7319V71.7671V71.8023V71.8373V71.8722V71.907V71.9417V71.9763V72.0107V72.045V72.0792V72.1133V72.1472V72.181V72.2147V72.2483V72.2818V72.3151V72.3483V72.3813V72.4143V72.4471V72.4798V72.5124V72.5448V72.5771V72.6092V72.6413V72.6732V72.705V72.7366V72.7681V72.7995V72.8307V72.8618V72.8928V72.9236V72.9543V72.9849V73.0153V73.0456V73.0757V73.1057V73.1356V73.1653V73.1949V73.2243V73.2536V73.2828V73.3118V73.3406V73.3694V73.3979V73.4264V73.4547V73.4828V73.5108V73.5386V73.5663V73.5939V73.6213V73.6485V73.6756V73.7025V73.7293V73.756V73.7825V73.8088V73.835V73.861V73.8869V73.9126V73.9382V73.9636V73.9888V74.0139V74.0388V74.0636V74.0882V74.1127V74.137V74.1611V74.1851V74.2089V74.2325V74.256V74.2793V74.3025V74.3255V74.3483V74.3709V74.3934V74.4158V74.4379V74.4599V74.4817V74.5034V74.5248V74.5462V74.5673V74.5883V74.6091V74.6297V74.6501V74.6704V74.6905V74.7104V74.7302V74.7498V74.7692V74.7884V74.8074V74.8263V74.845V74.8635V74.8818V74.9V74.9179V74.9357V74.9533V74.9707V74.988V75.005V75.0219V75.0386V75.0551V75.0714V75.0875V75.1035V75.1192V75.1348V75.1502V75.1653V75.1803V75.1951V75.2098V75.2242V75.2384V75.2525V75.2663V75.28V75.2934V75.3067V75.3198V75.3326V75.3453V75.3578V75.3701V75.3822V75.394V75.4057V75.4172V75.4285V75.4396V75.4505V75.4612V75.4716V75.4819V75.492V75.5019V75.5115V75.521V75.5302V75.5393V75.5481V75.5568V75.5652V75.5734V75.5814V75.5892V75.5968V75.6042V75.6114V75.6183V75.625V75.6316V75.6379V75.644V75.6499V75.6556V75.661V75.6663V75.6713V75.6761V75.6807V75.685V75.6892V75.6931V75.6968V75.7003V75.7036V75.7066V75.7095V75.7121V75.7145V75.7146C50.7965 76.1756 50.7246 76.6328 50.6031 77.078C50.4395 77.5933 50.1053 78.0377 49.6554 78.3379C47.3155 79.8663 43.6435 80.8767 40.1939 81.3287C38.4765 81.5538 36.8355 81.6376 35.47 81.5826C34.0823 81.5267 33.0495 81.3295 32.4976 81.0423L32.4977 81.0422L32.4868 81.0368C31.6552 80.6293 31.0342 79.5799 30.7732 77.594C30.5153 75.6312 30.6308 72.8995 31.1194 69.3731L31.1197 69.3709C31.6698 65.2642 32.8351 61.2637 34.5765 57.504L34.5766 57.5039C36.0044 54.42 37.6607 51.4471 39.5316 48.6101C41.0479 46.3372 42.7846 44.2194 44.7164 42.2874L44.7217 42.2821L44.7269 42.2766C45.1841 41.7909 45.6833 41.3465 46.2186 40.9484L46.2246 40.9439L46.2306 40.9392C46.8385 40.4578 47.5873 40.1885 48.3626 40.1724L48.3626 40.1725L48.3736 40.172C48.7052 40.1578 49.036 40.2151 49.3436 40.3399L49.5316 39.8765L49.3436 40.3399C49.6511 40.4647 49.9283 40.6541 50.1562 40.8954C50.3842 41.1366 50.5576 41.4241 50.6648 41.7382C50.7719 42.0524 50.8103 42.3859 50.7773 42.7161Z" fill="#212121" stroke="#212121"/>
<path d="M68.7466 42.7661C68.7703 42.14 68.9539 41.5304 69.2799 40.9954C69.5165 40.5753 69.8653 40.2291 70.2872 39.9955C70.7091 39.762 71.1875 39.6502 71.6692 39.6728C72.5536 39.6911 73.4077 39.9983 74.1012 40.5474C74.6619 40.9766 75.183 41.4549 75.6586 41.9768C77.614 43.9324 79.3719 46.0761 80.9066 48.3768C82.7896 51.2212 84.4582 54.2019 85.8986 57.2941C87.6515 61.1029 88.8305 65.1504 89.3972 69.3048C90.3786 76.3874 89.8239 80.4408 87.7972 81.4861C85.1732 82.8514 74.8906 81.9341 70.1332 78.7554C69.5849 78.3903 69.1783 77.8481 68.9812 77.2194C68.8475 76.732 68.7687 76.2311 68.7466 75.7261V42.7661Z" fill="#212121"/>
<path d="M66.4001 49.2715C65.1654 48.8616 64.0899 48.0755 63.3247 47.0233C62.5595 45.9711 62.1429 44.7058 62.1334 43.4048V33.5488H57.8668V43.4048C57.8617 44.7094 57.4472 45.9795 56.6817 47.036C55.9162 48.0924 54.8383 48.8818 53.6001 49.2928V52.8342H66.4001V49.2715Z" fill="#212121"/>
</g>
<path d="M45.0119 113V102.818H45.9416V112.165H50.7939V113H45.0119ZM57.6252 110.082V105.364H58.5102V113H57.6252V111.732H57.5556C57.3767 112.123 57.0933 112.45 56.7055 112.712C56.3177 112.97 55.8438 113.099 55.2836 113.099C54.7964 113.099 54.3639 112.993 53.986 112.781C53.6082 112.566 53.3116 112.251 53.0961 111.837C52.8807 111.422 52.773 110.914 52.773 110.31V105.364H53.6579V110.256C53.6579 110.852 53.8336 111.333 54.1849 111.697C54.5362 112.059 54.987 112.239 55.5372 112.239C55.8819 112.239 56.2133 112.156 56.5315 111.991C56.8497 111.825 57.1115 111.583 57.317 111.265C57.5225 110.943 57.6252 110.549 57.6252 110.082ZM61.808 108.227V113H60.9231V105.364H61.7831V106.562H61.8627C62.0417 106.171 62.3201 105.857 62.6979 105.622C63.0791 105.384 63.5497 105.264 64.1098 105.264C64.6236 105.264 65.0743 105.372 65.4621 105.587C65.8532 105.799 66.1565 106.113 66.3719 106.527C66.5907 106.941 66.7 107.45 66.7 108.053V113H65.8151V108.108C65.8151 107.482 65.6394 106.986 65.2881 106.621C64.9401 106.257 64.4728 106.075 63.8861 106.075C63.4851 106.075 63.1288 106.161 62.8172 106.333C62.5057 106.505 62.2588 106.754 62.0765 107.079C61.8975 107.4 61.808 107.783 61.808 108.227ZM72.0138 116.023C71.4935 116.023 71.0377 115.955 70.6466 115.819C70.2555 115.686 69.9258 115.504 69.6573 115.272C69.3888 115.04 69.18 114.78 69.0309 114.491L69.7567 114.014C69.8661 114.206 70.0119 114.395 70.1942 114.581C70.3798 114.767 70.6201 114.921 70.9151 115.043C71.2134 115.166 71.5796 115.227 72.0138 115.227C72.69 115.227 73.2352 115.058 73.6495 114.72C74.0671 114.382 74.2759 113.857 74.2759 113.144V111.424H74.1964C74.0936 111.656 73.9461 111.888 73.7539 112.12C73.5616 112.349 73.3098 112.539 72.9982 112.692C72.69 112.844 72.3071 112.92 71.8498 112.92C71.2399 112.92 70.698 112.77 70.2241 112.468C69.7534 112.166 69.3822 111.736 69.1104 111.175C68.8419 110.612 68.7077 109.941 68.7077 109.162C68.7077 108.39 68.8386 107.71 69.1005 107.124C69.3656 106.537 69.7352 106.08 70.2091 105.751C70.6831 105.423 71.2349 105.259 71.8647 105.259C72.332 105.259 72.7198 105.342 73.028 105.508C73.3363 105.67 73.5832 105.872 73.7688 106.114C73.9577 106.356 74.1052 106.592 74.2113 106.82H74.3008V105.364H75.1658V113.199C75.1658 113.845 75.0283 114.377 74.7532 114.795C74.4781 115.212 74.1035 115.521 73.6296 115.719C73.1556 115.922 72.617 116.023 72.0138 116.023ZM71.9542 112.11C72.4447 112.11 72.864 111.992 73.212 111.757C73.56 111.518 73.8268 111.177 74.0124 110.733C74.198 110.289 74.2908 109.76 74.2908 109.147C74.2908 108.55 74.1997 108.022 74.0174 107.561C73.8351 107.097 73.5699 106.732 73.2219 106.467C72.8772 106.199 72.4546 106.065 71.9542 106.065C71.4437 106.065 71.0129 106.202 70.6616 106.477C70.3102 106.752 70.0451 107.124 69.8661 107.591C69.6871 108.055 69.5976 108.574 69.5976 109.147C69.5976 109.73 69.6888 110.246 69.8711 110.693C70.0534 111.137 70.3202 111.485 70.6715 111.737C71.0228 111.986 71.4504 112.11 71.9542 112.11Z" fill="#212121"/>
<defs>
<clipPath id="clip0_537_9003">
<rect width="64" height="64" fill="white" transform="translate(28 27)"/>
</clipPath>
</defs>
</svg>
