<svg width="48" height="48" viewBox="0 0 48 48" fill="none" xmlns="http://www.w3.org/2000/svg">
<mask id="mask0_3859_21220" style="mask-type:alpha" maskUnits="userSpaceOnUse" x="0" y="0" width="48" height="48">
<rect width="48" height="48" fill="#D9D9D9"/>
</mask>
<g mask="url(#mask0_3859_21220)">
<path d="M19.2502 42.5999C17.5835 42.5999 16.1419 42.0166 14.9252 40.8499C13.7085 39.6832 12.9502 38.3499 12.6502 36.8499C10.4502 36.8832 8.5752 36.0999 7.0252 34.4999C5.4752 32.8999 4.7002 30.9166 4.7002 28.5499C4.7002 27.7166 4.80853 26.9249 5.0252 26.1749C5.24186 25.4249 5.5502 24.6999 5.9502 23.9999C5.5502 23.3666 5.24186 22.6749 5.0252 21.9249C4.80853 21.1749 4.7002 20.3666 4.7002 19.4999C4.7002 17.4332 5.43353 15.6332 6.9002 14.0999C8.36686 12.5666 10.1169 11.6999 12.1502 11.4999C12.3502 9.76657 13.0835 8.31657 14.3502 7.1499C15.6169 5.98324 17.1169 5.3999 18.8502 5.3999C19.9169 5.3999 20.8585 5.5999 21.6752 5.9999C22.4919 6.3999 23.2669 6.98324 24.0002 7.7499C24.7335 7.01657 25.5002 6.44157 26.3002 6.0249C27.1002 5.60824 28.0169 5.3999 29.0502 5.3999C30.7835 5.3999 32.2835 5.99157 33.5502 7.1749C34.8169 8.35824 35.5669 9.7999 35.8002 11.4999C37.8335 11.6666 39.6002 12.5082 41.1002 14.0249C42.6002 15.5416 43.3502 17.3666 43.3502 19.4999C43.3502 20.3999 43.2252 21.2332 42.9752 21.9999C42.7252 22.7666 42.3669 23.4832 41.9002 24.1499C42.2669 24.8166 42.5502 25.5332 42.7502 26.2999C42.9502 27.0666 43.0502 27.7999 43.0502 28.4999C43.0502 30.8332 42.3169 32.7582 40.8502 34.2749C39.3835 35.7916 37.5669 36.5666 35.4002 36.5999C35.1335 38.1666 34.3752 39.5582 33.1252 40.7749C31.8752 41.9916 30.4169 42.5999 28.7502 42.5999C27.7502 42.5999 26.8919 42.4416 26.1752 42.1249C25.4585 41.8082 24.7335 41.3332 24.0002 40.6999C23.2669 41.3332 22.5419 41.8082 21.8252 42.1249C21.1085 42.4416 20.2502 42.5999 19.2502 42.5999ZM25.9002 11.9999V36.1999C25.9002 36.9332 26.1835 37.5582 26.7502 38.0749C27.3169 38.5916 28.0002 38.8499 28.8002 38.8499C29.5669 38.8499 30.2335 38.5082 30.8002 37.8249C31.3669 37.1416 31.6835 36.4499 31.7502 35.7499C31.1169 35.5166 30.5335 35.1999 30.0002 34.7999C29.4669 34.3999 29.0169 33.9166 28.6502 33.3499C28.3169 32.9166 28.1919 32.4582 28.2752 31.9749C28.3585 31.4916 28.6335 31.0832 29.1002 30.7499C29.5335 30.4499 30.0002 30.3416 30.5002 30.4249C31.0002 30.5082 31.4002 30.7666 31.7002 31.1999C32.1002 31.7332 32.5919 32.1499 33.1752 32.4499C33.7585 32.7499 34.4002 32.8999 35.1002 32.8999C36.2669 32.8999 37.2585 32.4999 38.0752 31.6999C38.8919 30.8999 39.3002 29.8332 39.3002 28.4999C39.3002 28.2332 39.2752 27.9332 39.2252 27.5999C39.1752 27.2666 39.1002 26.9499 39.0002 26.6499C38.5002 26.9832 37.9419 27.2332 37.3252 27.3999C36.7085 27.5666 36.0835 27.6499 35.4502 27.6499C34.9169 27.6499 34.4669 27.4749 34.1002 27.1249C33.7335 26.7749 33.5502 26.3332 33.5502 25.7999C33.5502 25.2666 33.7335 24.8166 34.1002 24.4499C34.4669 24.0832 34.9169 23.8999 35.4502 23.8999C36.5835 23.8999 37.5502 23.4749 38.3502 22.6249C39.1502 21.7749 39.5502 20.7499 39.5502 19.5499C39.5502 18.3832 39.1252 17.3832 38.2752 16.5499C37.4252 15.7166 36.4502 15.2666 35.3502 15.1999C34.9835 16.0999 34.4669 16.8916 33.8002 17.5749C33.1335 18.2582 32.3502 18.7666 31.4502 19.0999C30.9502 19.2999 30.4585 19.2916 29.9752 19.0749C29.4919 18.8582 29.1669 18.4999 29.0002 17.9999C28.8669 17.4999 28.9085 17.0166 29.1252 16.5499C29.3419 16.0832 29.6835 15.7499 30.1502 15.5499C30.7169 15.3499 31.1752 14.9582 31.5252 14.3749C31.8752 13.7916 32.0502 13.1499 32.0502 12.4499C32.0502 11.5499 31.7419 10.7749 31.1252 10.1249C30.5085 9.4749 29.7835 9.1499 28.9502 9.1499C28.1169 9.1499 27.4002 9.43324 26.8002 9.9999C26.2002 10.5666 25.9002 11.2332 25.9002 11.9999ZM22.1502 36.1999V11.9999C22.1502 11.2332 21.8502 10.5666 21.2502 9.9999C20.6502 9.43324 19.9335 9.1499 19.1002 9.1499C18.2335 9.1499 17.4919 9.4749 16.8752 10.1249C16.2585 10.7749 15.9502 11.5499 15.9502 12.4499C15.9502 13.1499 16.1169 13.7832 16.4502 14.3499C16.7835 14.9166 17.2169 15.2999 17.7502 15.4999C18.2502 15.6999 18.6085 16.0332 18.8252 16.4999C19.0419 16.9666 19.0835 17.4332 18.9502 17.8999C18.7502 18.3999 18.4085 18.7666 17.9252 18.9999C17.4419 19.2332 16.9335 19.2499 16.4002 19.0499C15.5002 18.7499 14.7252 18.2582 14.0752 17.5749C13.4252 16.8916 12.9169 16.0999 12.5502 15.1999C11.4835 15.3332 10.5335 15.7999 9.7002 16.5999C8.86686 17.3999 8.4502 18.3666 8.4502 19.4999C8.4502 20.7332 8.85019 21.7749 9.6502 22.6249C10.4502 23.4749 11.4169 23.8999 12.5502 23.8999C13.0835 23.8999 13.5335 24.0832 13.9002 24.4499C14.2669 24.8166 14.4502 25.2499 14.4502 25.7499C14.4502 26.3166 14.2669 26.7749 13.9002 27.1249C13.5335 27.4749 13.0835 27.6499 12.5502 27.6499C11.8835 27.6499 11.2335 27.5582 10.6002 27.3749C9.96686 27.1916 9.38353 26.9332 8.8502 26.5999C8.71686 26.9332 8.61686 27.2582 8.5502 27.5749C8.48353 27.8916 8.4502 28.2166 8.4502 28.5499C8.4502 29.8832 8.85019 30.9749 9.6502 31.8249C10.4502 32.6749 11.4335 33.0999 12.6002 33.0999C13.2669 33.0999 13.9002 32.9499 14.5002 32.6499C15.1002 32.3499 15.6002 31.9332 16.0002 31.3999C16.3335 30.9999 16.7502 30.7499 17.2502 30.6499C17.7502 30.5499 18.2169 30.6499 18.6502 30.9499C19.0502 31.2832 19.3002 31.7082 19.4002 32.2249C19.5002 32.7416 19.4002 33.1999 19.1002 33.5999C18.7335 34.0999 18.3085 34.5249 17.8252 34.8749C17.3419 35.2249 16.8335 35.5166 16.3002 35.7499C16.3335 36.4499 16.6335 37.1416 17.2002 37.8249C17.7669 38.5082 18.4502 38.8499 19.2502 38.8499C20.0502 38.8499 20.7335 38.5916 21.3002 38.0749C21.8669 37.5582 22.1502 36.9332 22.1502 36.1999Z" fill="#444C65"/>
</g>
</svg>
