<svg width="120" height="144" viewBox="0 0 120 144" fill="none" xmlns="http://www.w3.org/2000/svg">
<rect width="120" height="144" rx="4" fill="#FAFAFA"/>
<g clip-path="url(#clip0_2079_9729)">
<path d="M80.9919 44.2373C76.5546 44.2373 73.1413 45.176 69.2799 45.0693C65.4186 44.9626 63.6479 42.1466 59.9999 42.7226C56.3519 42.1466 54.4959 44.856 50.7199 45.0693C46.9439 45.2826 43.4453 44.2373 39.0079 44.2373C33.2053 44.2373 30.4746 48.504 30.4746 50.872C30.4746 53.24 31.2639 57.272 37.6853 58.8293L38.6239 59C38.2924 58.7504 38.0221 58.4286 37.8336 58.0589C37.6451 57.6893 37.5433 57.2815 37.5359 56.8666C37.5435 56.1785 37.819 55.5203 38.3039 55.032C37.4528 54.8983 36.6723 54.4792 36.0908 53.8434C35.5093 53.2076 35.1613 52.393 35.1039 51.5333C34.9546 48.9093 37.8986 47.992 39.1573 47.9706C42.3518 48.0341 45.5261 48.4927 48.6079 49.336C51.0826 50.296 56.3946 60.3226 56.4586 64.696C56.5226 69.0693 56.6719 77.9866 56.6719 77.9866H63.3279C63.3279 77.9866 63.4559 69.0693 63.5413 64.696C63.6266 60.3226 68.9173 50.296 71.3919 49.336C74.4738 48.4927 77.6481 48.0341 80.8426 47.9706C82.1013 47.9706 85.1093 48.9093 84.8959 51.5333C84.8413 52.3736 84.5104 53.1722 83.9548 53.805C83.3992 54.4377 82.6501 54.8691 81.8239 55.032C82.3148 55.5182 82.5978 56.1759 82.6133 56.8666C82.6003 57.2827 82.4939 57.6905 82.3018 58.0598C82.1098 58.4291 81.8371 58.7504 81.5039 59L82.4213 58.8293C88.8213 57.2933 89.6319 53.112 89.6319 50.872C89.6319 48.632 86.7946 44.2373 80.9919 44.2373Z" fill="#212121"/>
<path d="M49.3332 54.9253C48.7398 55.1059 48.1336 55.2413 47.5198 55.3307C46.8372 55.3307 46.6238 55.1387 46.6238 55.1387C46.1511 54.6418 45.5766 54.253 44.9395 53.9989C44.3025 53.7448 43.6181 53.6315 42.9332 53.6667C40.5865 53.6667 38.6665 55.096 38.6665 56.8667C38.6665 58.6373 40.5865 60.0667 42.9332 60.0667C43.8807 60.1782 44.8363 59.941 45.6216 59.3991C46.4068 58.8573 46.9679 58.0481 47.1998 57.1227C47.1998 57.1227 47.1998 56.696 47.8185 56.376C48.3604 56.1456 48.9254 55.9739 49.5038 55.864L49.3332 54.9253Z" fill="#212121"/>
<path d="M70.9015 54.9254C71.5017 55.1076 72.1151 55.2431 72.7362 55.3307C73.4188 55.3307 73.6108 55.1387 73.6108 55.1387C74.0686 54.6446 74.6278 54.2553 75.2501 53.9976C75.8724 53.7398 76.5431 53.6197 77.2162 53.6454C79.5628 53.6454 81.4828 55.0747 81.4828 56.8454C81.4828 58.616 79.5628 60.0454 77.2162 60.0454C76.2702 60.1478 75.3189 59.9068 74.5357 59.3664C73.7525 58.826 73.1895 58.0221 72.9495 57.1014V57.1014C72.9495 57.1014 72.9495 56.6747 72.3095 56.3547C71.7756 56.1227 71.2175 55.951 70.6455 55.8427L70.9015 54.9254Z" fill="#212121"/>
</g>
<path d="M50.2275 107.909C50.2275 108.97 50.0386 109.893 49.6608 110.678C49.2829 111.46 48.7626 112.067 48.0997 112.498C47.4401 112.925 46.6811 113.139 45.8227 113.139C44.9643 113.139 44.2036 112.925 43.5408 112.498C42.8812 112.067 42.3625 111.46 41.9846 110.678C41.6101 109.893 41.4229 108.97 41.4229 107.909C41.4229 106.848 41.6101 105.927 41.9846 105.145C42.3625 104.359 42.8828 103.753 43.5457 103.325C44.2086 102.894 44.9676 102.679 45.8227 102.679C46.6811 102.679 47.4401 102.894 48.0997 103.325C48.7626 103.753 49.2829 104.359 49.6608 105.145C50.0386 105.927 50.2275 106.848 50.2275 107.909ZM49.3227 107.909C49.3227 106.998 49.1703 106.217 48.8653 105.567C48.5604 104.915 48.1444 104.416 47.6175 104.071C47.0905 103.726 46.4922 103.554 45.8227 103.554C45.1565 103.554 44.5599 103.726 44.0329 104.071C43.506 104.416 43.0883 104.913 42.7801 105.562C42.4752 106.212 42.3227 106.994 42.3227 107.909C42.3227 108.821 42.4752 109.601 42.7801 110.251C43.085 110.9 43.501 111.399 44.028 111.747C44.555 112.092 45.1532 112.264 45.8227 112.264C46.4922 112.264 47.0905 112.092 47.6175 111.747C48.1478 111.402 48.5654 110.905 48.8703 110.256C49.1752 109.603 49.326 108.821 49.3227 107.909ZM58.2732 105.364L55.4842 113H54.5396L51.7505 105.364H52.71L54.9771 111.832H55.0467L57.3137 105.364H58.2732ZM61.975 113.174C61.5143 113.174 61.0933 113.085 60.7122 112.906C60.331 112.723 60.0278 112.461 59.8024 112.12C59.577 111.775 59.4643 111.358 59.4643 110.867C59.4643 110.489 59.5356 110.171 59.6781 109.913C59.8206 109.654 60.0228 109.442 60.2846 109.276C60.5465 109.111 60.8564 108.98 61.2143 108.884C61.5723 108.787 61.9667 108.713 62.3975 108.66C62.8251 108.607 63.1864 108.56 63.4814 108.521C63.7797 108.481 64.0067 108.418 64.1625 108.332C64.3182 108.246 64.3961 108.106 64.3961 107.914V107.735C64.3961 107.215 64.2404 106.805 63.9288 106.507C63.6206 106.205 63.1764 106.055 62.5964 106.055C62.0462 106.055 61.5971 106.176 61.2491 106.418C60.9044 106.66 60.6625 106.945 60.5233 107.273L59.6831 106.969C59.8554 106.552 60.094 106.219 60.399 105.97C60.7039 105.718 61.0453 105.538 61.4231 105.428C61.801 105.316 62.1838 105.259 62.5716 105.259C62.8632 105.259 63.1665 105.297 63.4814 105.374C63.7995 105.45 64.0945 105.582 64.3663 105.771C64.6381 105.957 64.8585 106.217 65.0275 106.552C65.1966 106.883 65.2811 107.304 65.2811 107.815V113H64.3961V111.792H64.3414C64.2354 112.017 64.0779 112.236 63.8691 112.448C63.6603 112.66 63.3985 112.834 63.0836 112.97C62.7688 113.106 62.3992 113.174 61.975 113.174ZM62.0943 112.364C62.5649 112.364 62.9726 112.259 63.3173 112.05C63.662 111.842 63.9271 111.565 64.1127 111.22C64.3017 110.872 64.3961 110.489 64.3961 110.072V108.968C64.3298 109.031 64.2188 109.087 64.063 109.137C63.9106 109.187 63.7333 109.232 63.5311 109.271C63.3322 109.308 63.1333 109.339 62.9345 109.366C62.7356 109.392 62.5566 109.415 62.3975 109.435C61.9667 109.488 61.5988 109.571 61.2939 109.684C60.9889 109.797 60.7553 109.952 60.5929 110.151C60.4305 110.347 60.3493 110.599 60.3493 110.907C60.3493 111.371 60.515 111.731 60.8464 111.986C61.1779 112.238 61.5938 112.364 62.0943 112.364ZM67.7051 113V105.364H68.5652V106.537H68.6298C68.7823 106.152 69.0475 105.843 69.4253 105.607C69.8064 105.369 70.2373 105.249 70.7179 105.249C70.7908 105.249 70.872 105.251 70.9615 105.254C71.051 105.258 71.1256 105.261 71.1852 105.264V106.164C71.1455 106.157 71.0759 106.147 70.9764 106.134C70.877 106.121 70.7693 106.114 70.6533 106.114C70.2555 106.114 69.9009 106.199 69.5894 106.368C69.2811 106.534 69.0375 106.764 68.8585 107.059C68.6796 107.354 68.5901 107.69 68.5901 108.068V113H67.7051ZM73.6143 115.864C73.4386 115.864 73.2745 115.847 73.1221 115.814C72.9696 115.781 72.8486 115.744 72.7591 115.705L72.9978 114.924C73.2994 115.017 73.5679 115.05 73.8032 115.023C74.0385 115 74.2473 114.894 74.4296 114.705C74.6119 114.52 74.7743 114.235 74.9168 113.85L75.1952 113.075L72.3863 105.364H73.3458L75.6128 111.832H75.6824L77.9495 105.364H78.909L75.6775 114.208C75.5416 114.576 75.3742 114.883 75.1753 115.128C74.9765 115.376 74.7461 115.56 74.4843 115.68C74.2258 115.802 73.9358 115.864 73.6143 115.864Z" fill="#212121"/>
<defs>
<clipPath id="clip0_2079_9729">
<rect width="64" height="64" fill="white" transform="translate(28 27)"/>
</clipPath>
</defs>
</svg>
