<svg width="128" height="128" viewBox="0 0 128 128" fill="none" xmlns="http://www.w3.org/2000/svg">
<rect width="128" height="128" fill="#444A65"/>
<mask id="mask0_5049_8534" style="mask-type:alpha" maskUnits="userSpaceOnUse" x="40" y="40" width="48" height="48">
<rect x="40" y="40" width="48" height="48" fill="#D9D9D9"/>
</mask>
<g mask="url(#mask0_5049_8534)">
<path d="M62.5 80.2996V64.8496L49 57.0496V72.4996L62.5 80.2996ZM65.5 80.2996L79 72.4996V56.9996L65.5 64.8415V80.2996ZM64 62.2996L77.3 54.5496L64 46.8496L50.65 54.5496L64 62.2996ZM47.5 75.0996C47.025 74.8187 46.6562 74.4485 46.3938 73.989C46.1312 73.5294 46 73.0329 46 72.4996V55.4996C46 54.9663 46.1312 54.4698 46.3938 54.0103C46.6562 53.5507 47.025 53.1805 47.5 52.8996L62.5 44.2496C62.9776 43.9829 63.4803 43.8496 64.0082 43.8496C64.5361 43.8496 65.0333 43.9829 65.5 44.2496L80.5 52.8996C80.975 53.1805 81.3438 53.5507 81.6063 54.0103C81.8688 54.4698 82 54.9663 82 55.4996V72.4996C82 73.0329 81.8688 73.5294 81.6063 73.989C81.3438 74.4485 80.975 74.8187 80.5 75.0996L65.5 83.7496C65.0224 84.0163 64.5197 84.1496 63.9918 84.1496C63.4639 84.1496 62.9667 84.0163 62.5 83.7496L47.5 75.0996Z" fill="white"/>
</g>
</svg>
