<svg width="120" height="144" viewBox="0 0 120 144" fill="none" xmlns="http://www.w3.org/2000/svg">
<rect width="120" height="144" rx="4" fill="#FAFAFA"/>
<g clip-path="url(#clip0_2079_9925)">
<path d="M42.9859 44.7428L42.9533 44.7394L42.9205 44.7402C39.5823 44.8267 36.2701 45.3426 33.0654 46.2746V44.0842C36.1552 43.2631 41.8212 42.6173 47.3336 42.1731C53.0527 41.7123 58.5365 41.4734 60.6614 41.4734C62.7984 41.4734 67.9842 41.6804 73.3843 42.1118C78.5878 42.5275 83.9274 43.1471 86.9348 43.974V46.151C84.0745 45.2532 81.0971 44.7775 78.097 44.7401L78.0675 44.7397L78.0383 44.7428C76.3215 44.9241 73.775 45.2714 71.7235 46.4726C70.6883 47.0787 69.7648 47.9099 69.1406 49.0571C68.5161 50.2049 68.2104 51.6338 68.3546 53.4034C68.547 56.6254 67.7159 59.8259 65.9802 62.5473C65.2795 63.6174 64.4322 64.3331 63.6402 64.9741C63.5943 65.0112 63.5484 65.0483 63.5025 65.0853C63.1585 65.3629 62.8175 65.6382 62.5235 65.9194C62.1872 66.2411 61.884 66.5962 61.6821 67.0195C61.4691 67.4662 61.3713 68.1884 61.3372 68.96C61.302 69.7572 61.3326 70.6904 61.4224 71.6138C61.5122 72.5364 61.6627 73.4636 61.8725 74.2462C62.0746 75.0004 62.3555 75.7159 62.7612 76.1216L62.7612 76.1216L62.7657 76.1261C62.7914 76.1511 62.8533 76.2382 62.9266 76.4394C62.9958 76.6293 63.0598 76.8774 63.117 77.1762C63.2314 77.7729 63.3098 78.5217 63.3626 79.3056C63.4483 80.5794 63.4644 81.9082 63.4674 82.7561H57.6095C57.5967 81.914 57.5999 80.5798 57.6752 79.3015C57.7214 78.5178 57.7939 77.7689 57.903 77.1719C57.9576 76.873 58.0191 76.6246 58.0861 76.4344C58.1572 76.2325 58.2176 76.1457 58.2416 76.1216L58.2418 76.1217L58.2506 76.1124C58.6482 75.6939 58.9291 74.9739 59.1337 74.2101C59.3453 73.4204 59.4984 72.4898 59.5909 71.5673C59.6835 70.6441 59.7168 69.7147 59.6837 68.9251C59.6671 68.5304 59.6336 68.1637 59.5806 67.8462C59.5288 67.5363 59.4534 67.242 59.338 67.0111C59.1356 66.6064 58.8332 66.26 58.4999 65.9426C58.2155 65.6718 57.8863 65.402 57.5522 65.1281C57.4972 65.0831 57.4421 65.0379 57.3871 64.9926C56.5953 64.3412 55.745 63.6081 55.0426 62.5451C53.2886 59.8328 52.4563 56.6271 52.6695 53.4041C52.8086 51.6338 52.5001 50.2046 51.8745 49.0568C51.2494 47.91 50.3268 47.0789 49.293 46.4727C47.244 45.2714 44.7028 44.9241 42.9859 44.7428Z" fill="white" stroke="white"/>
<path d="M78.0479 45.24C74.6132 45.6027 68.2559 46.6053 68.8105 53.368C69.0232 56.6936 68.1794 60.0013 66.3999 62.8187C64.9065 65.08 62.7945 65.912 62.1332 67.2347C61.4719 68.5573 61.8985 74.488 63.1145 75.768C64.3305 77.048 63.8399 83.256 63.8399 83.256H66.1865C66.5016 80.5588 66.6228 77.8425 66.5492 75.128C66.6559 67.64 75.7439 50.5093 79.9892 48.888C82.2949 47.8527 84.8484 47.4974 87.3492 47.864V46.7973C84.3473 45.8029 81.21 45.2776 78.0479 45.24V45.24Z" fill="#212121"/>
<path d="M76.3839 39.3734C69.9839 38.4987 66.7412 34.3814 60.5119 35.384C54.2825 34.3814 51.0185 38.3707 44.6399 39.3734C40.6181 40.23 36.499 40.5386 32.3945 40.2907L32.5652 43.896C38.2399 41.9334 56.2665 40.9734 60.6612 40.9734C65.0559 40.9734 81.8452 41.9334 87.4345 43.832L87.6052 40.504C83.8362 40.5066 80.0766 40.1278 76.3839 39.3734V39.3734Z" fill="#212121"/>
<path d="M41.0349 48.824C45.3015 50.4453 54.3469 67.576 54.4749 75.064C54.3811 77.7787 54.5024 80.4965 54.8375 83.192H57.1415C57.1415 83.192 56.8429 76.792 57.8455 75.704C58.8482 74.616 59.5095 68.5573 58.8482 67.1707C58.1869 65.784 56.0749 65.0373 54.5815 62.7547C52.7676 59.9507 51.9072 56.6362 52.1282 53.304C52.6615 46.6053 46.3255 45.6027 42.9335 45.24C39.4522 45.2835 35.993 45.8002 32.6509 46.776V47.48C35.5126 47.2565 38.3864 47.7172 41.0349 48.824V48.824Z" fill="#212121"/>
</g>
<path d="M46.0953 102.818H47.025V109.56C47.025 110.252 46.8626 110.872 46.5378 111.419C46.213 111.963 45.7606 112.392 45.1806 112.707C44.6039 113.018 43.9327 113.174 43.1671 113.174C42.4048 113.174 41.7336 113.017 41.1536 112.702C40.5736 112.387 40.1211 111.958 39.7963 111.414C39.4715 110.871 39.3091 110.252 39.3091 109.56V102.818H40.2388V109.495C40.2388 110.035 40.3598 110.518 40.6017 110.942C40.8437 111.363 41.1834 111.694 41.6209 111.936C42.0617 112.178 42.5771 112.299 43.1671 112.299C43.757 112.299 44.2724 112.178 44.7132 111.936C45.154 111.694 45.4938 111.363 45.7324 110.942C45.9744 110.518 46.0953 110.035 46.0953 109.495V102.818ZM52.6209 105.364V106.134H48.9768V105.364H52.6209ZM50.1153 103.534H51.0052V111.006C51.0052 111.325 51.0599 111.575 51.1692 111.757C51.2786 111.936 51.4211 112.064 51.5968 112.14C51.7725 112.213 51.9597 112.249 52.1586 112.249C52.2746 112.249 52.374 112.243 52.4569 112.229C52.5397 112.213 52.6127 112.196 52.6756 112.18L52.8645 112.98C52.7784 113.013 52.6723 113.043 52.5464 113.07C52.4204 113.099 52.2646 113.114 52.079 113.114C51.7542 113.114 51.441 113.043 51.1394 112.901C50.8411 112.758 50.5958 112.546 50.4036 112.264C50.2114 111.982 50.1153 111.633 50.1153 111.215V103.534ZM57.706 113.159C56.9934 113.159 56.377 112.993 55.8566 112.662C55.3362 112.327 54.9335 111.865 54.6485 111.275C54.3668 110.682 54.2259 109.999 54.2259 109.227C54.2259 108.458 54.3668 107.775 54.6485 107.178C54.9335 106.578 55.3263 106.109 55.8268 105.771C56.3306 105.43 56.9122 105.259 57.5718 105.259C57.9861 105.259 58.3855 105.335 58.77 105.488C59.1544 105.637 59.4991 105.867 59.804 106.179C60.1123 106.487 60.3559 106.877 60.5349 107.347C60.7138 107.815 60.8033 108.368 60.8033 109.008V109.445H54.8374V108.665H59.8985C59.8985 108.174 59.7991 107.733 59.6002 107.342C59.4047 106.948 59.1312 106.636 58.7799 106.408C58.4319 106.179 58.0292 106.065 57.5718 106.065C57.0879 106.065 56.662 106.194 56.2941 106.452C55.9262 106.711 55.6379 107.052 55.429 107.477C55.2236 107.901 55.1192 108.365 55.1158 108.869V109.336C55.1158 109.942 55.2202 110.473 55.429 110.927C55.6412 111.378 55.9411 111.727 56.3289 111.976C56.7167 112.224 57.1757 112.349 57.706 112.349C58.0673 112.349 58.3838 112.292 58.6556 112.18C58.9307 112.067 59.1611 111.916 59.3467 111.727C59.5356 111.535 59.6781 111.325 59.7742 111.096L60.6144 111.369C60.4984 111.691 60.3078 111.987 60.0427 112.259C59.7808 112.531 59.4527 112.75 59.0583 112.915C58.6672 113.078 58.2165 113.159 57.706 113.159ZM62.8234 113V105.364H63.6835V106.537H63.7482C63.9006 106.152 64.1658 105.843 64.5436 105.607C64.9248 105.369 65.3556 105.249 65.8362 105.249C65.9091 105.249 65.9903 105.251 66.0798 105.254C66.1693 105.258 66.2439 105.261 66.3036 105.264V106.164C66.2638 106.157 66.1942 106.147 66.0947 106.134C65.9953 106.121 65.8876 106.114 65.7716 106.114C65.3739 106.114 65.0192 106.199 64.7077 106.368C64.3994 106.534 64.1558 106.764 63.9769 107.059C63.7979 107.354 63.7084 107.69 63.7084 108.068V113H62.8234ZM72.7359 110.082V105.364H73.6209V113H72.7359V111.732H72.6663C72.4874 112.123 72.204 112.45 71.8162 112.712C71.4284 112.97 70.9545 113.099 70.3943 113.099C69.9071 113.099 69.4746 112.993 69.0967 112.781C68.7189 112.566 68.4223 112.251 68.2068 111.837C67.9914 111.422 67.8837 110.914 67.8837 110.31V105.364H68.7686V110.256C68.7686 110.852 68.9443 111.333 69.2956 111.697C69.6469 112.059 70.0977 112.239 70.6479 112.239C70.9926 112.239 71.324 112.156 71.6422 111.991C71.9604 111.825 72.2222 111.583 72.4277 111.265C72.6332 110.943 72.7359 110.549 72.7359 110.082ZM81.1644 107.039L80.3541 107.268C80.2745 107.039 80.1618 106.832 80.016 106.646C79.8702 106.461 79.6796 106.313 79.4443 106.204C79.2123 106.094 78.9239 106.04 78.5792 106.04C78.0622 106.04 77.6379 106.162 77.3065 106.408C76.975 106.653 76.8093 106.969 76.8093 107.357C76.8093 107.685 76.922 107.952 77.1474 108.158C77.3761 108.36 77.7274 108.521 78.2014 108.64L79.3548 108.923C79.9945 109.079 80.4734 109.326 80.7916 109.664C81.1131 110.002 81.2738 110.426 81.2738 110.937C81.2738 111.368 81.1545 111.75 80.9159 112.085C80.6772 112.42 80.3441 112.683 79.9166 112.876C79.4923 113.065 79.0001 113.159 78.44 113.159C77.6943 113.159 77.0794 112.992 76.5955 112.657C76.1116 112.319 75.8017 111.832 75.6659 111.195L76.516 110.987C76.6254 111.441 76.8392 111.784 77.1573 112.016C77.4788 112.248 77.9014 112.364 78.4251 112.364C79.0117 112.364 79.4807 112.233 79.832 111.971C80.1834 111.706 80.359 111.374 80.359 110.977C80.359 110.668 80.2563 110.41 80.0508 110.201C79.8453 109.989 79.5338 109.833 79.1161 109.734L77.8683 109.435C77.2054 109.276 76.7149 109.024 76.3967 108.68C76.0785 108.335 75.9194 107.907 75.9194 107.397C75.9194 106.976 76.0338 106.607 76.2624 106.288C76.4911 105.967 76.806 105.715 77.207 105.533C77.6081 105.35 78.0655 105.259 78.5792 105.259C79.2785 105.259 79.837 105.418 80.2546 105.737C80.6756 106.051 80.9788 106.486 81.1644 107.039Z" fill="#212121"/>
<defs>
<clipPath id="clip0_2079_9925">
<rect width="64" height="64" fill="white" transform="translate(28 27)"/>
</clipPath>
</defs>
</svg>
