<svg width="128" height="128" viewBox="0 0 128 128" fill="none" xmlns="http://www.w3.org/2000/svg">
<rect width="128" height="128" fill="#444A65"/>
<mask id="mask0_2805_779" style="mask-type:alpha" maskUnits="userSpaceOnUse" x="40" y="40" width="48" height="48">
<rect x="40" y="40" width="48" height="48" fill="#D9D9D9"/>
</mask>
<g mask="url(#mask0_2805_779)">
<path d="M62.4 79.65L51.4 73.2C50.9333 72.9333 50.575 72.5667 50.325 72.1C50.075 71.6333 49.95 71.1333 49.95 70.6V57.75C49.95 57.2167 50.075 56.7167 50.325 56.25C50.575 55.7833 50.9333 55.4167 51.4 55.15L62.45 48.6C62.9167 48.3333 63.4333 48.2 64 48.2C64.5667 48.2 65.0833 48.3333 65.55 48.6L76.6 55.15C77.0667 55.4167 77.425 55.7833 77.675 56.25C77.925 56.7167 78.05 57.2167 78.05 57.75V70.6C78.05 71.1333 77.9167 71.6333 77.65 72.1C77.3833 72.5667 77.0167 72.9333 76.55 73.2L65.4 79.65C64.9333 79.9167 64.4333 80.05 63.9 80.05C63.3667 80.05 62.8667 79.9167 62.4 79.65ZM62.5 76.2V65L53 59.55V70.5L62.5 76.2ZM65.5 76.2L75.05 70.5V59.55L65.5 65V76.2ZM42 51.45V47.6C42 46.0333 42.5417 44.7083 43.625 43.625C44.7083 42.5417 46.0333 42 47.6 42H51.45V45H47.6C46.8667 45 46.25 45.25 45.75 45.75C45.25 46.25 45 46.8667 45 47.6V51.45H42ZM47.6 86C46.0333 86 44.7083 85.4583 43.625 84.375C42.5417 83.2917 42 81.9667 42 80.4V76.55H45V80.4C45 81.1333 45.25 81.75 45.75 82.25C46.25 82.75 46.8667 83 47.6 83H51.45V86H47.6ZM76.55 85.8V82.8H80.4C81.1333 82.8 81.75 82.55 82.25 82.05C82.75 81.55 83 80.9333 83 80.2V76.35H86V80.2C86 81.7667 85.4583 83.0917 84.375 84.175C83.2917 85.2583 81.9667 85.8 80.4 85.8H76.55ZM83 51.45V47.6C83 46.8667 82.75 46.25 82.25 45.75C81.75 45.25 81.1333 45 80.4 45H76.55V42H80.4C81.9667 42 83.2917 42.5417 84.375 43.625C85.4583 44.7083 86 46.0333 86 47.6V51.45H83ZM64 62.3L73.5 56.8L64 51.35L54.5 56.8L64 62.3Z" fill="white"/>
</g>
</svg>
