<?xml version="1.0" encoding="UTF-8" standalone="no"?>
<!DOCTYPE svg PUBLIC "-//W3C//DTD SVG 1.1//EN"
 "http://www.w3.org/Graphics/SVG/1.1/DTD/svg11.dtd">
<!-- Generated by graphviz version 2.47.0 (20210316.0004)
 -->
<!-- Title: dependencies Pages: 1 -->
<svg width="504pt" height="284pt"
 viewBox="0.00 0.00 504.00 284.00" xmlns="http://www.w3.org/2000/svg" xmlns:xlink="http://www.w3.org/1999/xlink">
<g id="graph0" class="graph" transform="scale(1 1) rotate(0) translate(4 280)">
<title>dependencies</title>
<polygon fill="white" stroke="transparent" points="-4,4 -4,-280 500,-280 500,4 -4,4"/>
<text text-anchor="start" x="227.01" y="-42.4" font-family="Times-12" font-weight="bold" font-size="14.00">Legend</text>
<polygon fill="#ffffb3" stroke="transparent" points="14,-10 14,-30 34,-30 34,-10 14,-10"/>
<text text-anchor="start" x="37.63" y="-15.4" font-family="Times-12" font-size="14.00"> &#160;Declarations</text>
<polygon fill="#8dd3c7" stroke="transparent" points="127,-10 127,-30 147,-30 147,-10 127,-10"/>
<text text-anchor="start" x="150.73" y="-15.4" font-family="Times-12" font-size="14.00"> &#160;Module</text>
<polygon fill="#80b1d3" stroke="transparent" points="213,-10 213,-30 233,-30 233,-10 213,-10"/>
<text text-anchor="start" x="236.78" y="-15.4" font-family="Times-12" font-size="14.00"> &#160;Bootstrap</text>
<polygon fill="#fdb462" stroke="transparent" points="310,-10 310,-30 330,-30 330,-10 310,-10"/>
<text text-anchor="start" x="333.67" y="-15.4" font-family="Times-12" font-size="14.00"> &#160;Providers</text>
<polygon fill="#fb8072" stroke="transparent" points="406,-10 406,-30 426,-30 426,-10 406,-10"/>
<text text-anchor="start" x="429.73" y="-15.4" font-family="Times-12" font-size="14.00"> &#160;Exports</text>
<g id="clust1" class="cluster">
<title>cluster_RouterExtModule</title>
<polygon fill="none" stroke="black" stroke-dasharray="1,5" points="21,-70 21,-268 475,-268 475,-70 21,-70"/>
</g>
<g id="clust4" class="cluster">
<title>cluster_RouterExtModule_exports</title>
<polygon fill="none" stroke="black" points="29,-208 29,-260 467,-260 467,-208 29,-208"/>
</g>
<g id="clust3" class="cluster">
<title>cluster_RouterExtModule_imports</title>
<polygon fill="none" stroke="black" points="35,-78 35,-130 461,-130 461,-78 35,-78"/>
</g>
<!-- FragmentLinkDirective -->
<g id="node1" class="node">
<title>FragmentLinkDirective</title>
<polygon fill="#8dd3c7" stroke="black" points="453.18,-122 450.18,-126 429.18,-126 426.18,-122 304.82,-122 304.82,-86 453.18,-86 453.18,-122"/>
<text text-anchor="middle" x="379" y="-99.8" font-family="Times,serif" font-size="14.00">FragmentLinkDirective</text>
</g>
<!-- RouterExtModule -->
<g id="node4" class="node">
<title>RouterExtModule</title>
<polygon fill="#8dd3c7" stroke="black" points="279.6,-187 276.6,-191 255.6,-191 252.6,-187 162.4,-187 162.4,-151 279.6,-151 279.6,-187"/>
<text text-anchor="middle" x="221" y="-164.8" font-family="Times,serif" font-size="14.00">RouterExtModule</text>
</g>
<!-- FragmentLinkDirective&#45;&gt;RouterExtModule -->
<g id="edge1" class="edge">
<title>FragmentLinkDirective&#45;&gt;RouterExtModule</title>
<path fill="none" stroke="black" d="M404.45,-122.02C404.45,-139.37 404.45,-163 404.45,-163 404.45,-163 289.55,-163 289.55,-163"/>
<polygon fill="black" stroke="black" points="289.55,-159.5 279.55,-163 289.55,-166.5 289.55,-159.5"/>
</g>
<!-- LinkActiveDirective -->
<g id="node2" class="node">
<title>LinkActiveDirective</title>
<polygon fill="#8dd3c7" stroke="black" points="286.84,-122 283.84,-126 262.84,-126 259.84,-122 155.16,-122 155.16,-86 286.84,-86 286.84,-122"/>
<text text-anchor="middle" x="221" y="-99.8" font-family="Times,serif" font-size="14.00">LinkActiveDirective</text>
</g>
<!-- LinkActiveDirective&#45;&gt;RouterExtModule -->
<g id="edge2" class="edge">
<title>LinkActiveDirective&#45;&gt;RouterExtModule</title>
<path fill="none" stroke="black" d="M221,-122.11C221,-122.11 221,-140.99 221,-140.99"/>
<polygon fill="black" stroke="black" points="217.5,-140.99 221,-150.99 224.5,-140.99 217.5,-140.99"/>
</g>
<!-- LinkDirective -->
<g id="node3" class="node">
<title>LinkDirective</title>
<polygon fill="#8dd3c7" stroke="black" points="137.03,-122 134.03,-126 113.03,-126 110.03,-122 42.97,-122 42.97,-86 137.03,-86 137.03,-122"/>
<text text-anchor="middle" x="90" y="-99.8" font-family="Times,serif" font-size="14.00">LinkDirective</text>
</g>
<!-- LinkDirective&#45;&gt;RouterExtModule -->
<g id="edge3" class="edge">
<title>LinkDirective&#45;&gt;RouterExtModule</title>
<path fill="none" stroke="black" d="M104.25,-122.02C104.25,-139.37 104.25,-163 104.25,-163 104.25,-163 152.29,-163 152.29,-163"/>
<polygon fill="black" stroke="black" points="152.29,-166.5 162.29,-163 152.29,-159.5 152.29,-166.5"/>
</g>
<!-- FragmentLinkDirective  -->
<g id="node5" class="node">
<title>FragmentLinkDirective </title>
<polygon fill="#fb8072" stroke="black" points="458.68,-252 307.32,-252 307.32,-216 458.68,-216 458.68,-252"/>
<text text-anchor="middle" x="383" y="-229.8" font-family="Times,serif" font-size="14.00">FragmentLinkDirective </text>
</g>
<!-- RouterExtModule&#45;&gt;FragmentLinkDirective  -->
<g id="edge4" class="edge">
<title>RouterExtModule&#45;&gt;FragmentLinkDirective </title>
<path fill="none" stroke="black" stroke-dasharray="5,2" d="M279.73,-175C316.06,-175 355.8,-175 355.8,-175 355.8,-175 355.8,-205.98 355.8,-205.98"/>
<polygon fill="black" stroke="black" points="352.3,-205.98 355.8,-215.98 359.3,-205.98 352.3,-205.98"/>
</g>
<!-- LinkActiveDirective  -->
<g id="node6" class="node">
<title>LinkActiveDirective </title>
<polygon fill="#fb8072" stroke="black" points="288.84,-252 153.16,-252 153.16,-216 288.84,-216 288.84,-252"/>
<text text-anchor="middle" x="221" y="-229.8" font-family="Times,serif" font-size="14.00">LinkActiveDirective </text>
</g>
<!-- RouterExtModule&#45;&gt;LinkActiveDirective  -->
<g id="edge5" class="edge">
<title>RouterExtModule&#45;&gt;LinkActiveDirective </title>
<path fill="none" stroke="black" stroke-dasharray="5,2" d="M221,-187.11C221,-187.11 221,-205.99 221,-205.99"/>
<polygon fill="black" stroke="black" points="217.5,-205.99 221,-215.99 224.5,-205.99 217.5,-205.99"/>
</g>
<!-- LinkDirective  -->
<g id="node7" class="node">
<title>LinkDirective </title>
<polygon fill="#fb8072" stroke="black" points="135.03,-252 36.97,-252 36.97,-216 135.03,-216 135.03,-252"/>
<text text-anchor="middle" x="86" y="-229.8" font-family="Times,serif" font-size="14.00">LinkDirective </text>
</g>
<!-- RouterExtModule&#45;&gt;LinkDirective  -->
<g id="edge6" class="edge">
<title>RouterExtModule&#45;&gt;LinkDirective </title>
<path fill="none" stroke="black" stroke-dasharray="5,2" d="M162.28,-175C121.14,-175 73.5,-175 73.5,-175 73.5,-175 73.5,-205.98 73.5,-205.98"/>
<polygon fill="black" stroke="black" points="70,-205.98 73.5,-215.98 77,-205.98 70,-205.98"/>
</g>
</g>
</svg>
