<svg width="36" height="36" viewBox="0 0 36 36" fill="none" xmlns="http://www.w3.org/2000/svg">
<rect width="36" height="36" rx="18" fill="currentColor"/>
<mask id="mask0_2183_9270" style="mask-type:alpha" maskUnits="userSpaceOnUse" x="6" y="6" width="24" height="24">
<rect x="6" y="6" width="24" height="24" fill="#D9D9D9"/>
</mask>
<g mask="url(#mask0_2183_9270)">
<path d="M10 26C9.45 26 8.97917 25.8042 8.5875 25.4125C8.19583 25.0208 8 24.55 8 24V12C8 11.45 8.19583 10.9792 8.5875 10.5875C8.97917 10.1958 9.45 10 10 10H26C26.55 10 27.0208 10.1958 27.4125 10.5875C27.8042 10.9792 28 11.45 28 12V24C28 24.55 27.8042 25.0208 27.4125 25.4125C27.0208 25.8042 26.55 26 26 26H10ZM18 19L10 14V24H26V14L18 19ZM18 17L26 12H10L18 17ZM10 14V12V24V14Z" fill="white"/>
</g>
</svg>
