<?xml version="1.0" encoding="UTF-8" standalone="no"?>
<!DOCTYPE svg PUBLIC "-//W3C//DTD SVG 1.1//EN"
 "http://www.w3.org/Graphics/SVG/1.1/DTD/svg11.dtd">
<!-- Generated by graphviz version 2.47.0 (20210316.0004)
 -->
<!-- Title: dependencies Pages: 1 -->
<svg width="3278pt" height="284pt"
 viewBox="0.00 0.00 3278.00 284.00" xmlns="http://www.w3.org/2000/svg" xmlns:xlink="http://www.w3.org/1999/xlink">
<g id="graph0" class="graph" transform="scale(1 1) rotate(0) translate(4 280)">
<title>dependencies</title>
<polygon fill="white" stroke="transparent" points="-4,4 -4,-280 3274,-280 3274,4 -4,4"/>
<text text-anchor="start" x="1614.01" y="-42.4" font-family="Times-12" font-weight="bold" font-size="14.00">Legend</text>
<polygon fill="#ffffb3" stroke="transparent" points="1401,-10 1401,-30 1421,-30 1421,-10 1401,-10"/>
<text text-anchor="start" x="1424.63" y="-15.4" font-family="Times-12" font-size="14.00"> &#160;Declarations</text>
<polygon fill="#8dd3c7" stroke="transparent" points="1514,-10 1514,-30 1534,-30 1534,-10 1514,-10"/>
<text text-anchor="start" x="1537.73" y="-15.4" font-family="Times-12" font-size="14.00"> &#160;Module</text>
<polygon fill="#80b1d3" stroke="transparent" points="1600,-10 1600,-30 1620,-30 1620,-10 1600,-10"/>
<text text-anchor="start" x="1623.78" y="-15.4" font-family="Times-12" font-size="14.00"> &#160;Bootstrap</text>
<polygon fill="#fdb462" stroke="transparent" points="1697,-10 1697,-30 1717,-30 1717,-10 1697,-10"/>
<text text-anchor="start" x="1720.67" y="-15.4" font-family="Times-12" font-size="14.00"> &#160;Providers</text>
<polygon fill="#fb8072" stroke="transparent" points="1793,-10 1793,-30 1813,-30 1813,-10 1793,-10"/>
<text text-anchor="start" x="1816.73" y="-15.4" font-family="Times-12" font-size="14.00"> &#160;Exports</text>
<g id="clust1" class="cluster">
<title>cluster_SliderModule</title>
<polygon fill="none" stroke="black" stroke-dasharray="1,5" points="8,-70 8,-268 3262,-268 3262,-70 8,-70"/>
</g>
<g id="clust4" class="cluster">
<title>cluster_SliderModule_exports</title>
<polygon fill="none" stroke="black" points="16,-208 16,-260 3254,-260 3254,-208 16,-208"/>
</g>
<g id="clust3" class="cluster">
<title>cluster_SliderModule_imports</title>
<polygon fill="none" stroke="black" points="45,-78 45,-130 3221,-130 3221,-78 45,-78"/>
</g>
<!-- AppNavButtonComponent -->
<g id="node1" class="node">
<title>AppNavButtonComponent</title>
<polygon fill="#8dd3c7" stroke="black" points="3213.38,-122 3210.38,-126 3189.38,-126 3186.38,-122 3046.62,-122 3046.62,-86 3213.38,-86 3213.38,-122"/>
<text text-anchor="middle" x="3130" y="-99.8" font-family="Times,serif" font-size="14.00">AppNavButtonComponent</text>
</g>
<!-- SliderModule -->
<g id="node18" class="node">
<title>SliderModule</title>
<polygon fill="#8dd3c7" stroke="black" points="1815.49,-187 1812.49,-191 1791.49,-191 1788.49,-187 1722.51,-187 1722.51,-151 1815.49,-151 1815.49,-187"/>
<text text-anchor="middle" x="1769" y="-164.8" font-family="Times,serif" font-size="14.00">SliderModule</text>
</g>
<!-- AppNavButtonComponent&#45;&gt;SliderModule -->
<g id="edge1" class="edge">
<title>AppNavButtonComponent&#45;&gt;SliderModule</title>
<path fill="none" stroke="black" d="M3052.15,-122.17C3052.15,-141.09 3052.15,-168 3052.15,-168 3052.15,-168 1825.81,-168 1825.81,-168"/>
<polygon fill="black" stroke="black" points="1825.81,-164.5 1815.81,-168 1825.81,-171.5 1825.81,-164.5"/>
</g>
<!-- BreadcrumbsComponent -->
<g id="node2" class="node">
<title>BreadcrumbsComponent</title>
<polygon fill="#8dd3c7" stroke="black" points="3028.97,-122 3025.97,-126 3004.97,-126 3001.97,-122 2873.03,-122 2873.03,-86 3028.97,-86 3028.97,-122"/>
<text text-anchor="middle" x="2951" y="-99.8" font-family="Times,serif" font-size="14.00">BreadcrumbsComponent</text>
</g>
<!-- BreadcrumbsComponent&#45;&gt;SliderModule -->
<g id="edge2" class="edge">
<title>BreadcrumbsComponent&#45;&gt;SliderModule</title>
<path fill="none" stroke="black" d="M2889.08,-122.27C2889.08,-140.56 2889.08,-166 2889.08,-166 2889.08,-166 1825.7,-166 1825.7,-166"/>
<polygon fill="black" stroke="black" points="1825.7,-162.5 1815.7,-166 1825.7,-169.5 1825.7,-162.5"/>
</g>
<!-- ButtonSizeDirective -->
<g id="node3" class="node">
<title>ButtonSizeDirective</title>
<polygon fill="#8dd3c7" stroke="black" points="2855.3,-122 2852.3,-126 2831.3,-126 2828.3,-122 2724.7,-122 2724.7,-86 2855.3,-86 2855.3,-122"/>
<text text-anchor="middle" x="2790" y="-99.8" font-family="Times,serif" font-size="14.00">ButtonSizeDirective</text>
</g>
<!-- ButtonSizeDirective&#45;&gt;SliderModule -->
<g id="edge3" class="edge">
<title>ButtonSizeDirective&#45;&gt;SliderModule</title>
<path fill="none" stroke="black" d="M2736.91,-122C2736.91,-139.68 2736.91,-164 2736.91,-164 2736.91,-164 1825.68,-164 1825.68,-164"/>
<polygon fill="black" stroke="black" points="1825.68,-160.5 1815.68,-164 1825.68,-167.5 1825.68,-160.5"/>
</g>
<!-- ButtonToggleSizeDirective -->
<g id="node4" class="node">
<title>ButtonToggleSizeDirective</title>
<polygon fill="#8dd3c7" stroke="black" points="2706.96,-122 2703.96,-126 2682.96,-126 2679.96,-122 2537.04,-122 2537.04,-86 2706.96,-86 2706.96,-122"/>
<text text-anchor="middle" x="2622" y="-99.8" font-family="Times,serif" font-size="14.00">ButtonToggleSizeDirective</text>
</g>
<!-- ButtonToggleSizeDirective&#45;&gt;SliderModule -->
<g id="edge4" class="edge">
<title>ButtonToggleSizeDirective&#45;&gt;SliderModule</title>
<path fill="none" stroke="black" d="M2545.64,-122.03C2545.64,-139.06 2545.64,-162 2545.64,-162 2545.64,-162 1825.54,-162 1825.54,-162"/>
<polygon fill="black" stroke="black" points="1825.54,-158.5 1815.54,-162 1825.54,-165.5 1825.54,-158.5"/>
</g>
<!-- ButtonVariantDirective -->
<g id="node5" class="node">
<title>ButtonVariantDirective</title>
<polygon fill="#8dd3c7" stroke="black" points="2519.18,-122 2516.18,-126 2495.18,-126 2492.18,-122 2370.82,-122 2370.82,-86 2519.18,-86 2519.18,-122"/>
<text text-anchor="middle" x="2445" y="-99.8" font-family="Times,serif" font-size="14.00">ButtonVariantDirective</text>
</g>
<!-- ButtonVariantDirective&#45;&gt;SliderModule -->
<g id="edge5" class="edge">
<title>ButtonVariantDirective&#45;&gt;SliderModule</title>
<path fill="none" stroke="black" d="M2377.54,-122.03C2377.54,-138.4 2377.54,-160 2377.54,-160 2377.54,-160 1825.49,-160 1825.49,-160"/>
<polygon fill="black" stroke="black" points="1825.49,-156.5 1815.49,-160 1825.49,-163.5 1825.49,-156.5"/>
</g>
<!-- CheckboxErrorVariantDirective -->
<g id="node6" class="node">
<title>CheckboxErrorVariantDirective</title>
<polygon fill="#8dd3c7" stroke="black" points="2353.36,-122 2350.36,-126 2329.36,-126 2326.36,-122 2156.64,-122 2156.64,-86 2353.36,-86 2353.36,-122"/>
<text text-anchor="middle" x="2255" y="-99.8" font-family="Times,serif" font-size="14.00">CheckboxErrorVariantDirective</text>
</g>
<!-- CheckboxErrorVariantDirective&#45;&gt;SliderModule -->
<g id="edge6" class="edge">
<title>CheckboxErrorVariantDirective&#45;&gt;SliderModule</title>
<path fill="none" stroke="black" d="M2161.44,-122.28C2161.44,-137.95 2161.44,-158 2161.44,-158 2161.44,-158 1825.56,-158 1825.56,-158"/>
<polygon fill="black" stroke="black" points="1825.56,-154.5 1815.56,-158 1825.56,-161.5 1825.56,-154.5"/>
</g>
<!-- CtaButtonDirective -->
<g id="node7" class="node">
<title>CtaButtonDirective</title>
<polygon fill="#8dd3c7" stroke="black" points="2138.64,-122 2135.64,-126 2114.64,-126 2111.64,-122 2013.36,-122 2013.36,-86 2138.64,-86 2138.64,-122"/>
<text text-anchor="middle" x="2076" y="-99.8" font-family="Times,serif" font-size="14.00">CtaButtonDirective</text>
</g>
<!-- CtaButtonDirective&#45;&gt;SliderModule -->
<g id="edge7" class="edge">
<title>CtaButtonDirective&#45;&gt;SliderModule</title>
<path fill="none" stroke="black" d="M2098.69,-122.19C2098.69,-137.18 2098.69,-156 2098.69,-156 2098.69,-156 1825.54,-156 1825.54,-156"/>
<polygon fill="black" stroke="black" points="1825.54,-152.5 1815.54,-156 1825.54,-159.5 1825.54,-152.5"/>
</g>
<!-- HelpButtonComponent -->
<g id="node8" class="node">
<title>HelpButtonComponent</title>
<polygon fill="#8dd3c7" stroke="black" points="1995.16,-122 1992.16,-126 1971.16,-126 1968.16,-122 1848.84,-122 1848.84,-86 1995.16,-86 1995.16,-122"/>
<text text-anchor="middle" x="1922" y="-99.8" font-family="Times,serif" font-size="14.00">HelpButtonComponent</text>
</g>
<!-- HelpButtonComponent&#45;&gt;SliderModule -->
<g id="edge8" class="edge">
<title>HelpButtonComponent&#45;&gt;SliderModule</title>
<path fill="none" stroke="black" d="M1946.86,-122.05C1946.86,-136.37 1946.86,-154 1946.86,-154 1946.86,-154 1825.73,-154 1825.73,-154"/>
<polygon fill="black" stroke="black" points="1825.73,-150.5 1815.73,-154 1825.73,-157.5 1825.73,-150.5"/>
</g>
<!-- IconButtonModule -->
<g id="node9" class="node">
<title>IconButtonModule</title>
<polygon fill="#8dd3c7" stroke="black" points="1830.04,-122 1827.04,-126 1806.04,-126 1803.04,-122 1707.96,-122 1707.96,-86 1830.04,-86 1830.04,-122"/>
<text text-anchor="middle" x="1769" y="-99.8" font-family="Times,serif" font-size="14.00">IconButtonModule</text>
</g>
<!-- IconButtonModule&#45;&gt;SliderModule -->
<g id="edge9" class="edge">
<title>IconButtonModule&#45;&gt;SliderModule</title>
<path fill="none" stroke="black" d="M1769,-122.11C1769,-122.11 1769,-140.99 1769,-140.99"/>
<polygon fill="black" stroke="black" points="1765.5,-140.99 1769,-150.99 1772.5,-140.99 1765.5,-140.99"/>
</g>
<!-- InfoButtonComponent -->
<g id="node10" class="node">
<title>InfoButtonComponent</title>
<polygon fill="#8dd3c7" stroke="black" points="1689.27,-122 1686.27,-126 1665.27,-126 1662.27,-122 1546.73,-122 1546.73,-86 1689.27,-86 1689.27,-122"/>
<text text-anchor="middle" x="1618" y="-99.8" font-family="Times,serif" font-size="14.00">InfoButtonComponent</text>
</g>
<!-- InfoButtonComponent&#45;&gt;SliderModule -->
<g id="edge10" class="edge">
<title>InfoButtonComponent&#45;&gt;SliderModule</title>
<path fill="none" stroke="black" d="M1640.96,-122.05C1640.96,-136.37 1640.96,-154 1640.96,-154 1640.96,-154 1712.41,-154 1712.41,-154"/>
<polygon fill="black" stroke="black" points="1712.41,-157.5 1722.41,-154 1712.41,-150.5 1712.41,-157.5"/>
</g>
<!-- InfoButtonTooltipContentComponent -->
<g id="node11" class="node">
<title>InfoButtonTooltipContentComponent</title>
<polygon fill="#8dd3c7" stroke="black" points="1528.33,-122 1525.33,-126 1504.33,-126 1501.33,-122 1299.67,-122 1299.67,-86 1528.33,-86 1528.33,-122"/>
<text text-anchor="middle" x="1414" y="-99.8" font-family="Times,serif" font-size="14.00">InfoButtonTooltipContentComponent</text>
</g>
<!-- InfoButtonTooltipContentComponent&#45;&gt;SliderModule -->
<g id="edge11" class="edge">
<title>InfoButtonTooltipContentComponent&#45;&gt;SliderModule</title>
<path fill="none" stroke="black" d="M1449.22,-122.19C1449.22,-137.18 1449.22,-156 1449.22,-156 1449.22,-156 1712.5,-156 1712.5,-156"/>
<polygon fill="black" stroke="black" points="1712.5,-159.5 1722.5,-156 1712.5,-152.5 1712.5,-159.5"/>
</g>
<!-- NavigationCategoryToggleComponent -->
<g id="node12" class="node">
<title>NavigationCategoryToggleComponent</title>
<polygon fill="#8dd3c7" stroke="black" points="1282.02,-122 1279.02,-126 1258.02,-126 1255.02,-122 1047.98,-122 1047.98,-86 1282.02,-86 1282.02,-122"/>
<text text-anchor="middle" x="1165" y="-99.8" font-family="Times,serif" font-size="14.00">NavigationCategoryToggleComponent</text>
</g>
<!-- NavigationCategoryToggleComponent&#45;&gt;SliderModule -->
<g id="edge12" class="edge">
<title>NavigationCategoryToggleComponent&#45;&gt;SliderModule</title>
<path fill="none" stroke="black" d="M1278.13,-122.28C1278.13,-137.95 1278.13,-158 1278.13,-158 1278.13,-158 1712.38,-158 1712.38,-158"/>
<polygon fill="black" stroke="black" points="1712.38,-161.5 1722.38,-158 1712.38,-154.5 1712.38,-161.5"/>
</g>
<!-- PrimaryButtonVariantDirective -->
<g id="node13" class="node">
<title>PrimaryButtonVariantDirective</title>
<polygon fill="#8dd3c7" stroke="black" points="1029.78,-122 1026.78,-126 1005.78,-126 1002.78,-122 836.22,-122 836.22,-86 1029.78,-86 1029.78,-122"/>
<text text-anchor="middle" x="933" y="-99.8" font-family="Times,serif" font-size="14.00">PrimaryButtonVariantDirective</text>
</g>
<!-- PrimaryButtonVariantDirective&#45;&gt;SliderModule -->
<g id="edge13" class="edge">
<title>PrimaryButtonVariantDirective&#45;&gt;SliderModule</title>
<path fill="none" stroke="black" d="M1024.01,-122.03C1024.01,-138.4 1024.01,-160 1024.01,-160 1024.01,-160 1712.4,-160 1712.4,-160"/>
<polygon fill="black" stroke="black" points="1712.4,-163.5 1722.4,-160 1712.4,-156.5 1712.4,-163.5"/>
</g>
<!-- SecondaryButtonVariantDirective -->
<g id="node14" class="node">
<title>SecondaryButtonVariantDirective</title>
<polygon fill="#8dd3c7" stroke="black" points="818.77,-122 815.77,-126 794.77,-126 791.77,-122 611.23,-122 611.23,-86 818.77,-86 818.77,-122"/>
<text text-anchor="middle" x="715" y="-99.8" font-family="Times,serif" font-size="14.00">SecondaryButtonVariantDirective</text>
</g>
<!-- SecondaryButtonVariantDirective&#45;&gt;SliderModule -->
<g id="edge14" class="edge">
<title>SecondaryButtonVariantDirective&#45;&gt;SliderModule</title>
<path fill="none" stroke="black" d="M811.01,-122.03C811.01,-139.06 811.01,-162 811.01,-162 811.01,-162 1712.47,-162 1712.47,-162"/>
<polygon fill="black" stroke="black" points="1712.47,-165.5 1722.47,-162 1712.47,-158.5 1712.47,-165.5"/>
</g>
<!-- SocialMediaButtonComponent -->
<g id="node15" class="node">
<title>SocialMediaButtonComponent</title>
<polygon fill="#8dd3c7" stroke="black" points="593.21,-122 590.21,-126 569.21,-126 566.21,-122 402.79,-122 402.79,-86 593.21,-86 593.21,-122"/>
<text text-anchor="middle" x="498" y="-99.8" font-family="Times,serif" font-size="14.00">SocialMediaButtonComponent</text>
</g>
<!-- SocialMediaButtonComponent&#45;&gt;SliderModule -->
<g id="edge15" class="edge">
<title>SocialMediaButtonComponent&#45;&gt;SliderModule</title>
<path fill="none" stroke="black" d="M583.74,-122C583.74,-139.68 583.74,-164 583.74,-164 583.74,-164 1712.17,-164 1712.17,-164"/>
<polygon fill="black" stroke="black" points="1712.17,-167.5 1722.17,-164 1712.17,-160.5 1712.17,-167.5"/>
</g>
<!-- TextHyperlinkComponent -->
<g id="node16" class="node">
<title>TextHyperlinkComponent</title>
<polygon fill="#8dd3c7" stroke="black" points="384.75,-122 381.75,-126 360.75,-126 357.75,-122 221.25,-122 221.25,-86 384.75,-86 384.75,-122"/>
<text text-anchor="middle" x="303" y="-99.8" font-family="Times,serif" font-size="14.00">TextHyperlinkComponent</text>
</g>
<!-- TextHyperlinkComponent&#45;&gt;SliderModule -->
<g id="edge16" class="edge">
<title>TextHyperlinkComponent&#45;&gt;SliderModule</title>
<path fill="none" stroke="black" d="M372.39,-122.27C372.39,-140.56 372.39,-166 372.39,-166 372.39,-166 1712.13,-166 1712.13,-166"/>
<polygon fill="black" stroke="black" points="1712.13,-169.5 1722.13,-166 1712.13,-162.5 1712.13,-169.5"/>
</g>
<!-- TextHyperlinkDirective -->
<g id="node17" class="node">
<title>TextHyperlinkDirective</title>
<polygon fill="#8dd3c7" stroke="black" points="203,-122 200,-126 179,-126 176,-122 53,-122 53,-86 203,-86 203,-122"/>
<text text-anchor="middle" x="128" y="-99.8" font-family="Times,serif" font-size="14.00">TextHyperlinkDirective</text>
</g>
<!-- TextHyperlinkDirective&#45;&gt;SliderModule -->
<g id="edge17" class="edge">
<title>TextHyperlinkDirective&#45;&gt;SliderModule</title>
<path fill="none" stroke="black" d="M187.19,-122.17C187.19,-141.09 187.19,-168 187.19,-168 187.19,-168 1712.09,-168 1712.09,-168"/>
<polygon fill="black" stroke="black" points="1712.09,-171.5 1722.09,-168 1712.09,-164.5 1712.09,-171.5"/>
</g>
<!-- AppNavButtonComponent  -->
<g id="node19" class="node">
<title>AppNavButtonComponent </title>
<polygon fill="#fb8072" stroke="black" points="3246.38,-252 3075.62,-252 3075.62,-216 3246.38,-216 3246.38,-252"/>
<text text-anchor="middle" x="3161" y="-229.8" font-family="Times,serif" font-size="14.00">AppNavButtonComponent </text>
</g>
<!-- SliderModule&#45;&gt;AppNavButtonComponent  -->
<g id="edge18" class="edge">
<title>SliderModule&#45;&gt;AppNavButtonComponent </title>
<path fill="none" stroke="black" stroke-dasharray="5,2" d="M1815.56,-171C2055.85,-171 3144.62,-171 3144.62,-171 3144.62,-171 3144.62,-205.78 3144.62,-205.78"/>
<polygon fill="black" stroke="black" points="3141.13,-205.78 3144.62,-215.78 3148.13,-205.78 3141.13,-205.78"/>
</g>
<!-- BreadcrumbsComponent  -->
<g id="node20" class="node">
<title>BreadcrumbsComponent </title>
<polygon fill="#fb8072" stroke="black" points="3057.97,-252 2898.03,-252 2898.03,-216 3057.97,-216 3057.97,-252"/>
<text text-anchor="middle" x="2978" y="-229.8" font-family="Times,serif" font-size="14.00">BreadcrumbsComponent </text>
</g>
<!-- SliderModule&#45;&gt;BreadcrumbsComponent  -->
<g id="edge19" class="edge">
<title>SliderModule&#45;&gt;BreadcrumbsComponent </title>
<path fill="none" stroke="black" stroke-dasharray="5,2" d="M1815.83,-173C2036.7,-173 2963.62,-173 2963.62,-173 2963.62,-173 2963.62,-205.7 2963.62,-205.7"/>
<polygon fill="black" stroke="black" points="2960.13,-205.7 2963.62,-215.7 2967.13,-205.7 2960.13,-205.7"/>
</g>
<!-- ButtonSizeDirective  -->
<g id="node21" class="node">
<title>ButtonSizeDirective </title>
<polygon fill="#fb8072" stroke="black" points="2879.8,-252 2746.2,-252 2746.2,-216 2879.8,-216 2879.8,-252"/>
<text text-anchor="middle" x="2813" y="-229.8" font-family="Times,serif" font-size="14.00">ButtonSizeDirective </text>
</g>
<!-- SliderModule&#45;&gt;ButtonSizeDirective  -->
<g id="edge20" class="edge">
<title>SliderModule&#45;&gt;ButtonSizeDirective </title>
<path fill="none" stroke="black" stroke-dasharray="5,2" d="M1815.67,-175C2016.95,-175 2800.62,-175 2800.62,-175 2800.62,-175 2800.62,-205.98 2800.62,-205.98"/>
<polygon fill="black" stroke="black" points="2797.13,-205.98 2800.62,-215.98 2804.13,-205.98 2797.13,-205.98"/>
</g>
<!-- ButtonToggleSizeDirective  -->
<g id="node22" class="node">
<title>ButtonToggleSizeDirective </title>
<polygon fill="#fb8072" stroke="black" points="2727.96,-252 2554.04,-252 2554.04,-216 2727.96,-216 2727.96,-252"/>
<text text-anchor="middle" x="2641" y="-229.8" font-family="Times,serif" font-size="14.00">ButtonToggleSizeDirective </text>
</g>
<!-- SliderModule&#45;&gt;ButtonToggleSizeDirective  -->
<g id="edge21" class="edge">
<title>SliderModule&#45;&gt;ButtonToggleSizeDirective </title>
<path fill="none" stroke="black" stroke-dasharray="5,2" d="M1815.63,-177C1995.02,-177 2630.62,-177 2630.62,-177 2630.62,-177 2630.62,-205.96 2630.62,-205.96"/>
<polygon fill="black" stroke="black" points="2627.13,-205.96 2630.62,-215.96 2634.13,-205.96 2627.13,-205.96"/>
</g>
<!-- ButtonVariantDirective  -->
<g id="node23" class="node">
<title>ButtonVariantDirective </title>
<polygon fill="#fb8072" stroke="black" points="2535.68,-252 2384.32,-252 2384.32,-216 2535.68,-216 2535.68,-252"/>
<text text-anchor="middle" x="2460" y="-229.8" font-family="Times,serif" font-size="14.00">ButtonVariantDirective </text>
</g>
<!-- SliderModule&#45;&gt;ButtonVariantDirective  -->
<g id="edge22" class="edge">
<title>SliderModule&#45;&gt;ButtonVariantDirective </title>
<path fill="none" stroke="black" stroke-dasharray="5,2" d="M1815.65,-179C1969.58,-179 2451.62,-179 2451.62,-179 2451.62,-179 2451.62,-205.99 2451.62,-205.99"/>
<polygon fill="black" stroke="black" points="2448.13,-205.99 2451.62,-215.99 2455.13,-205.99 2448.13,-205.99"/>
</g>
<!-- CheckboxErrorVariantDirective  -->
<g id="node24" class="node">
<title>CheckboxErrorVariantDirective </title>
<polygon fill="#fb8072" stroke="black" points="2365.86,-252 2166.14,-252 2166.14,-216 2365.86,-216 2365.86,-252"/>
<text text-anchor="middle" x="2266" y="-229.8" font-family="Times,serif" font-size="14.00">CheckboxErrorVariantDirective </text>
</g>
<!-- SliderModule&#45;&gt;CheckboxErrorVariantDirective  -->
<g id="edge23" class="edge">
<title>SliderModule&#45;&gt;CheckboxErrorVariantDirective </title>
<path fill="none" stroke="black" stroke-dasharray="5,2" d="M1815.6,-181C1938.07,-181 2259.62,-181 2259.62,-181 2259.62,-181 2259.62,-205.76 2259.62,-205.76"/>
<polygon fill="black" stroke="black" points="2256.13,-205.76 2259.62,-215.76 2263.13,-205.76 2256.13,-205.76"/>
</g>
<!-- CtaButtonDirective  -->
<g id="node25" class="node">
<title>CtaButtonDirective </title>
<polygon fill="#fb8072" stroke="black" points="2147.64,-252 2018.36,-252 2018.36,-216 2147.64,-216 2147.64,-252"/>
<text text-anchor="middle" x="2083" y="-229.8" font-family="Times,serif" font-size="14.00">CtaButtonDirective </text>
</g>
<!-- SliderModule&#45;&gt;CtaButtonDirective  -->
<g id="edge24" class="edge">
<title>SliderModule&#45;&gt;CtaButtonDirective </title>
<path fill="none" stroke="black" stroke-dasharray="5,2" d="M1815.52,-183C1897.37,-183 2058.56,-183 2058.56,-183 2058.56,-183 2058.56,-205.88 2058.56,-205.88"/>
<polygon fill="black" stroke="black" points="2055.06,-205.88 2058.56,-215.88 2062.06,-205.88 2055.06,-205.88"/>
</g>
<!-- HelpButtonComponent  -->
<g id="node26" class="node">
<title>HelpButtonComponent </title>
<polygon fill="#fb8072" stroke="black" points="2000.16,-252 1849.84,-252 1849.84,-216 2000.16,-216 2000.16,-252"/>
<text text-anchor="middle" x="1925" y="-229.8" font-family="Times,serif" font-size="14.00">HelpButtonComponent </text>
</g>
<!-- SliderModule&#45;&gt;HelpButtonComponent  -->
<g id="edge25" class="edge">
<title>SliderModule&#45;&gt;HelpButtonComponent </title>
<path fill="none" stroke="black" stroke-dasharray="5,2" d="M1815.71,-185C1852.77,-185 1898.39,-185 1898.39,-185 1898.39,-185 1898.39,-205.75 1898.39,-205.75"/>
<polygon fill="black" stroke="black" points="1894.89,-205.75 1898.39,-215.75 1901.89,-205.75 1894.89,-205.75"/>
</g>
<!-- IconButtonModule  -->
<g id="node27" class="node">
<title>IconButtonModule </title>
<polygon fill="#fb8072" stroke="black" points="1832.04,-252 1705.96,-252 1705.96,-216 1832.04,-216 1832.04,-252"/>
<text text-anchor="middle" x="1769" y="-229.8" font-family="Times,serif" font-size="14.00">IconButtonModule </text>
</g>
<!-- SliderModule&#45;&gt;IconButtonModule  -->
<g id="edge26" class="edge">
<title>SliderModule&#45;&gt;IconButtonModule </title>
<path fill="none" stroke="black" stroke-dasharray="5,2" d="M1769,-187.11C1769,-187.11 1769,-205.99 1769,-205.99"/>
<polygon fill="black" stroke="black" points="1765.5,-205.99 1769,-215.99 1772.5,-205.99 1765.5,-205.99"/>
</g>
<!-- InfoButtonComponent  -->
<g id="node28" class="node">
<title>InfoButtonComponent </title>
<polygon fill="#fb8072" stroke="black" points="1688.27,-252 1541.73,-252 1541.73,-216 1688.27,-216 1688.27,-252"/>
<text text-anchor="middle" x="1615" y="-229.8" font-family="Times,serif" font-size="14.00">InfoButtonComponent </text>
</g>
<!-- SliderModule&#45;&gt;InfoButtonComponent  -->
<g id="edge27" class="edge">
<title>SliderModule&#45;&gt;InfoButtonComponent </title>
<path fill="none" stroke="black" stroke-dasharray="5,2" d="M1722.51,-185C1670.6,-185 1593.79,-185 1593.79,-185 1593.79,-185 1593.79,-205.75 1593.79,-205.75"/>
<polygon fill="black" stroke="black" points="1590.29,-205.75 1593.79,-215.75 1597.29,-205.75 1590.29,-205.75"/>
</g>
<!-- InfoButtonTooltipContentComponent  -->
<g id="node29" class="node">
<title>InfoButtonTooltipContentComponent </title>
<polygon fill="#fb8072" stroke="black" points="1523.83,-252 1292.17,-252 1292.17,-216 1523.83,-216 1523.83,-252"/>
<text text-anchor="middle" x="1408" y="-229.8" font-family="Times,serif" font-size="14.00">InfoButtonTooltipContentComponent </text>
</g>
<!-- SliderModule&#45;&gt;InfoButtonTooltipContentComponent  -->
<g id="edge28" class="edge">
<title>SliderModule&#45;&gt;InfoButtonTooltipContentComponent </title>
<path fill="none" stroke="black" stroke-dasharray="5,2" d="M1722.2,-183C1617.71,-183 1374.53,-183 1374.53,-183 1374.53,-183 1374.53,-205.88 1374.53,-205.88"/>
<polygon fill="black" stroke="black" points="1371.03,-205.88 1374.53,-215.88 1378.03,-205.88 1371.03,-205.88"/>
</g>
<!-- NavigationCategoryToggleComponent  -->
<g id="node30" class="node">
<title>NavigationCategoryToggleComponent </title>
<polygon fill="#fb8072" stroke="black" points="1274.01,-252 1035.99,-252 1035.99,-216 1274.01,-216 1274.01,-252"/>
<text text-anchor="middle" x="1155" y="-229.8" font-family="Times,serif" font-size="14.00">NavigationCategoryToggleComponent </text>
</g>
<!-- SliderModule&#45;&gt;NavigationCategoryToggleComponent  -->
<g id="edge29" class="edge">
<title>SliderModule&#45;&gt;NavigationCategoryToggleComponent </title>
<path fill="none" stroke="black" stroke-dasharray="5,2" d="M1722.29,-181C1579.89,-181 1160.88,-181 1160.88,-181 1160.88,-181 1160.88,-205.76 1160.88,-205.76"/>
<polygon fill="black" stroke="black" points="1157.38,-205.76 1160.88,-215.76 1164.38,-205.76 1157.38,-205.76"/>
</g>
<!-- PrimaryButtonVariantDirective  -->
<g id="node31" class="node">
<title>PrimaryButtonVariantDirective </title>
<polygon fill="#fb8072" stroke="black" points="1018.28,-252 821.72,-252 821.72,-216 1018.28,-216 1018.28,-252"/>
<text text-anchor="middle" x="920" y="-229.8" font-family="Times,serif" font-size="14.00">PrimaryButtonVariantDirective </text>
</g>
<!-- SliderModule&#45;&gt;PrimaryButtonVariantDirective  -->
<g id="edge30" class="edge">
<title>SliderModule&#45;&gt;PrimaryButtonVariantDirective </title>
<path fill="none" stroke="black" stroke-dasharray="5,2" d="M1722.25,-179C1545.41,-179 927.38,-179 927.38,-179 927.38,-179 927.38,-205.99 927.38,-205.99"/>
<polygon fill="black" stroke="black" points="923.88,-205.99 927.38,-215.99 930.88,-205.99 923.88,-205.99"/>
</g>
<!-- SecondaryButtonVariantDirective  -->
<g id="node32" class="node">
<title>SecondaryButtonVariantDirective </title>
<polygon fill="#fb8072" stroke="black" points="803.27,-252 592.73,-252 592.73,-216 803.27,-216 803.27,-252"/>
<text text-anchor="middle" x="698" y="-229.8" font-family="Times,serif" font-size="14.00">SecondaryButtonVariantDirective </text>
</g>
<!-- SliderModule&#45;&gt;SecondaryButtonVariantDirective  -->
<g id="edge31" class="edge">
<title>SliderModule&#45;&gt;SecondaryButtonVariantDirective </title>
<path fill="none" stroke="black" stroke-dasharray="5,2" d="M1722.36,-177C1517.46,-177 707.38,-177 707.38,-177 707.38,-177 707.38,-205.96 707.38,-205.96"/>
<polygon fill="black" stroke="black" points="703.88,-205.96 707.38,-215.96 710.88,-205.96 703.88,-205.96"/>
</g>
<!-- SocialMediaButtonComponent  -->
<g id="node33" class="node">
<title>SocialMediaButtonComponent </title>
<polygon fill="#fb8072" stroke="black" points="574.71,-252 381.29,-252 381.29,-216 574.71,-216 574.71,-252"/>
<text text-anchor="middle" x="478" y="-229.8" font-family="Times,serif" font-size="14.00">SocialMediaButtonComponent </text>
</g>
<!-- SliderModule&#45;&gt;SocialMediaButtonComponent  -->
<g id="edge32" class="edge">
<title>SliderModule&#45;&gt;SocialMediaButtonComponent </title>
<path fill="none" stroke="black" stroke-dasharray="5,2" d="M1722.3,-175C1492.08,-175 488.88,-175 488.88,-175 488.88,-175 488.88,-205.98 488.88,-205.98"/>
<polygon fill="black" stroke="black" points="485.38,-205.98 488.88,-215.98 492.38,-205.98 485.38,-205.98"/>
</g>
<!-- TextHyperlinkComponent  -->
<g id="node34" class="node">
<title>TextHyperlinkComponent </title>
<polygon fill="#fb8072" stroke="black" points="363.75,-252 196.25,-252 196.25,-216 363.75,-216 363.75,-252"/>
<text text-anchor="middle" x="280" y="-229.8" font-family="Times,serif" font-size="14.00">TextHyperlinkComponent </text>
</g>
<!-- SliderModule&#45;&gt;TextHyperlinkComponent  -->
<g id="edge33" class="edge">
<title>SliderModule&#45;&gt;TextHyperlinkComponent </title>
<path fill="none" stroke="black" stroke-dasharray="5,2" d="M1722.37,-173C1471.37,-173 292.38,-173 292.38,-173 292.38,-173 292.38,-205.7 292.38,-205.7"/>
<polygon fill="black" stroke="black" points="288.88,-205.7 292.38,-215.7 295.88,-205.7 288.88,-205.7"/>
</g>
<!-- TextHyperlinkDirective  -->
<g id="node35" class="node">
<title>TextHyperlinkDirective </title>
<polygon fill="#fb8072" stroke="black" points="178,-252 24,-252 24,-216 178,-216 178,-252"/>
<text text-anchor="middle" x="101" y="-229.8" font-family="Times,serif" font-size="14.00">TextHyperlinkDirective </text>
</g>
<!-- SliderModule&#45;&gt;TextHyperlinkDirective  -->
<g id="edge34" class="edge">
<title>SliderModule&#45;&gt;TextHyperlinkDirective </title>
<path fill="none" stroke="black" stroke-dasharray="5,2" d="M1722.17,-171C1453.07,-171 115.38,-171 115.38,-171 115.38,-171 115.38,-205.78 115.38,-205.78"/>
<polygon fill="black" stroke="black" points="111.88,-205.78 115.38,-215.78 118.88,-205.78 111.88,-205.78"/>
</g>
</g>
</svg>
