<?xml version="1.0" encoding="UTF-8" standalone="no"?>
<!DOCTYPE svg PUBLIC "-//W3C//DTD SVG 1.1//EN"
 "http://www.w3.org/Graphics/SVG/1.1/DTD/svg11.dtd">
<!-- Generated by graphviz version 2.47.0 (20210316.0004)
 -->
<!-- Title: dependencies Pages: 1 -->
<svg width="4145pt" height="284pt"
 viewBox="0.00 0.00 4145.00 284.00" xmlns="http://www.w3.org/2000/svg" xmlns:xlink="http://www.w3.org/1999/xlink">
<g id="graph0" class="graph" transform="scale(1 1) rotate(0) translate(4 280)">
<title>dependencies</title>
<polygon fill="white" stroke="transparent" points="-4,4 -4,-280 4141,-280 4141,4 -4,4"/>
<text text-anchor="start" x="2047.51" y="-42.4" font-family="Times-12" font-weight="bold" font-size="14.00">Legend</text>
<polygon fill="#ffffb3" stroke="transparent" points="1834.5,-10 1834.5,-30 1854.5,-30 1854.5,-10 1834.5,-10"/>
<text text-anchor="start" x="1858.13" y="-15.4" font-family="Times-12" font-size="14.00"> &#160;Declarations</text>
<polygon fill="#8dd3c7" stroke="transparent" points="1947.5,-10 1947.5,-30 1967.5,-30 1967.5,-10 1947.5,-10"/>
<text text-anchor="start" x="1971.23" y="-15.4" font-family="Times-12" font-size="14.00"> &#160;Module</text>
<polygon fill="#80b1d3" stroke="transparent" points="2033.5,-10 2033.5,-30 2053.5,-30 2053.5,-10 2033.5,-10"/>
<text text-anchor="start" x="2057.28" y="-15.4" font-family="Times-12" font-size="14.00"> &#160;Bootstrap</text>
<polygon fill="#fdb462" stroke="transparent" points="2130.5,-10 2130.5,-30 2150.5,-30 2150.5,-10 2130.5,-10"/>
<text text-anchor="start" x="2154.17" y="-15.4" font-family="Times-12" font-size="14.00"> &#160;Providers</text>
<polygon fill="#fb8072" stroke="transparent" points="2226.5,-10 2226.5,-30 2246.5,-30 2246.5,-10 2226.5,-10"/>
<text text-anchor="start" x="2250.23" y="-15.4" font-family="Times-12" font-size="14.00"> &#160;Exports</text>
<g id="clust1" class="cluster">
<title>cluster_SliderModule</title>
<polygon fill="none" stroke="black" stroke-dasharray="1,5" points="8,-70 8,-268 4129,-268 4129,-70 8,-70"/>
</g>
<g id="clust3" class="cluster">
<title>cluster_SliderModule_imports</title>
<polygon fill="none" stroke="black" points="52,-78 52,-130 4082,-130 4082,-78 52,-78"/>
</g>
<g id="clust4" class="cluster">
<title>cluster_SliderModule_exports</title>
<polygon fill="none" stroke="black" points="16,-208 16,-260 4121,-260 4121,-208 16,-208"/>
</g>
<!-- AppNavButtonComponent -->
<g id="node1" class="node">
<title>AppNavButtonComponent</title>
<polygon fill="#8dd3c7" stroke="black" points="4074.38,-122 4071.38,-126 4050.38,-126 4047.38,-122 3907.62,-122 3907.62,-86 4074.38,-86 4074.38,-122"/>
<text text-anchor="middle" x="3991" y="-99.8" font-family="Times,serif" font-size="14.00">AppNavButtonComponent</text>
</g>
<!-- SliderModule -->
<g id="node22" class="node">
<title>SliderModule</title>
<polygon fill="#8dd3c7" stroke="black" points="2321.49,-187 2318.49,-191 2297.49,-191 2294.49,-187 2228.51,-187 2228.51,-151 2321.49,-151 2321.49,-187"/>
<text text-anchor="middle" x="2275" y="-164.8" font-family="Times,serif" font-size="14.00">SliderModule</text>
</g>
<!-- AppNavButtonComponent&#45;&gt;SliderModule -->
<g id="edge1" class="edge">
<title>AppNavButtonComponent&#45;&gt;SliderModule</title>
<path fill="none" stroke="black" d="M3916.15,-122.11C3916.15,-141.34 3916.15,-169 3916.15,-169 3916.15,-169 2331.91,-169 2331.91,-169"/>
<polygon fill="black" stroke="black" points="2331.91,-165.5 2321.91,-169 2331.91,-172.5 2331.91,-165.5"/>
</g>
<!-- BreadcrumbsComponent -->
<g id="node2" class="node">
<title>BreadcrumbsComponent</title>
<polygon fill="#8dd3c7" stroke="black" points="3889.97,-122 3886.97,-126 3865.97,-126 3862.97,-122 3734.03,-122 3734.03,-86 3889.97,-86 3889.97,-122"/>
<text text-anchor="middle" x="3812" y="-99.8" font-family="Times,serif" font-size="14.00">BreadcrumbsComponent</text>
</g>
<!-- BreadcrumbsComponent&#45;&gt;SliderModule -->
<g id="edge2" class="edge">
<title>BreadcrumbsComponent&#45;&gt;SliderModule</title>
<path fill="none" stroke="black" d="M3740.46,-122.22C3740.46,-140.83 3740.46,-167 3740.46,-167 3740.46,-167 2331.69,-167 2331.69,-167"/>
<polygon fill="black" stroke="black" points="2331.69,-163.5 2321.69,-167 2331.69,-170.5 2331.69,-163.5"/>
</g>
<!-- ButtonSizeDirective -->
<g id="node3" class="node">
<title>ButtonSizeDirective</title>
<polygon fill="#8dd3c7" stroke="black" points="3716.3,-122 3713.3,-126 3692.3,-126 3689.3,-122 3585.7,-122 3585.7,-86 3716.3,-86 3716.3,-122"/>
<text text-anchor="middle" x="3651" y="-99.8" font-family="Times,serif" font-size="14.00">ButtonSizeDirective</text>
</g>
<!-- ButtonSizeDirective&#45;&gt;SliderModule -->
<g id="edge3" class="edge">
<title>ButtonSizeDirective&#45;&gt;SliderModule</title>
<path fill="none" stroke="black" d="M3590.29,-122.3C3590.29,-140.27 3590.29,-165 3590.29,-165 3590.29,-165 2331.81,-165 2331.81,-165"/>
<polygon fill="black" stroke="black" points="2331.81,-161.5 2321.81,-165 2331.81,-168.5 2331.81,-161.5"/>
</g>
<!-- ButtonToggleSizeDirective -->
<g id="node4" class="node">
<title>ButtonToggleSizeDirective</title>
<polygon fill="#8dd3c7" stroke="black" points="3567.96,-122 3564.96,-126 3543.96,-126 3540.96,-122 3398.04,-122 3398.04,-86 3567.96,-86 3567.96,-122"/>
<text text-anchor="middle" x="3483" y="-99.8" font-family="Times,serif" font-size="14.00">ButtonToggleSizeDirective</text>
</g>
<!-- ButtonToggleSizeDirective&#45;&gt;SliderModule -->
<g id="edge4" class="edge">
<title>ButtonToggleSizeDirective&#45;&gt;SliderModule</title>
<path fill="none" stroke="black" d="M3412.05,-122.02C3412.05,-139.37 3412.05,-163 3412.05,-163 3412.05,-163 2331.69,-163 2331.69,-163"/>
<polygon fill="black" stroke="black" points="2331.69,-159.5 2321.69,-163 2331.69,-166.5 2331.69,-159.5"/>
</g>
<!-- ButtonVariantDirective -->
<g id="node5" class="node">
<title>ButtonVariantDirective</title>
<polygon fill="#8dd3c7" stroke="black" points="3380.18,-122 3377.18,-126 3356.18,-126 3353.18,-122 3231.82,-122 3231.82,-86 3380.18,-86 3380.18,-122"/>
<text text-anchor="middle" x="3306" y="-99.8" font-family="Times,serif" font-size="14.00">ButtonVariantDirective</text>
</g>
<!-- ButtonVariantDirective&#45;&gt;SliderModule -->
<g id="edge5" class="edge">
<title>ButtonVariantDirective&#45;&gt;SliderModule</title>
<path fill="none" stroke="black" d="M3242.05,-122.03C3242.05,-139.06 3242.05,-162 3242.05,-162 3242.05,-162 2331.64,-162 2331.64,-162"/>
<polygon fill="black" stroke="black" points="2331.64,-158.5 2321.64,-162 2331.64,-165.5 2331.64,-158.5"/>
</g>
<!-- CheckboxErrorVariantDirective -->
<g id="node6" class="node">
<title>CheckboxErrorVariantDirective</title>
<polygon fill="#8dd3c7" stroke="black" points="3214.36,-122 3211.36,-126 3190.36,-126 3187.36,-122 3017.64,-122 3017.64,-86 3214.36,-86 3214.36,-122"/>
<text text-anchor="middle" x="3116" y="-99.8" font-family="Times,serif" font-size="14.00">CheckboxErrorVariantDirective</text>
</g>
<!-- CheckboxErrorVariantDirective&#45;&gt;SliderModule -->
<g id="edge6" class="edge">
<title>CheckboxErrorVariantDirective&#45;&gt;SliderModule</title>
<path fill="none" stroke="black" d="M3025.44,-122.03C3025.44,-138.4 3025.44,-160 3025.44,-160 3025.44,-160 2331.66,-160 2331.66,-160"/>
<polygon fill="black" stroke="black" points="2331.66,-156.5 2321.66,-160 2331.66,-163.5 2331.66,-156.5"/>
</g>
<!-- CtaButtonDirective -->
<g id="node7" class="node">
<title>CtaButtonDirective</title>
<polygon fill="#8dd3c7" stroke="black" points="2999.64,-122 2996.64,-126 2975.64,-126 2972.64,-122 2874.36,-122 2874.36,-86 2999.64,-86 2999.64,-122"/>
<text text-anchor="middle" x="2937" y="-99.8" font-family="Times,serif" font-size="14.00">CtaButtonDirective</text>
</g>
<!-- CtaButtonDirective&#45;&gt;SliderModule -->
<g id="edge7" class="edge">
<title>CtaButtonDirective&#45;&gt;SliderModule</title>
<path fill="none" stroke="black" d="M2879.8,-122.28C2879.8,-137.95 2879.8,-158 2879.8,-158 2879.8,-158 2331.7,-158 2331.7,-158"/>
<polygon fill="black" stroke="black" points="2331.7,-154.5 2321.7,-158 2331.7,-161.5 2331.7,-154.5"/>
</g>
<!-- HelpButtonComponent -->
<g id="node8" class="node">
<title>HelpButtonComponent</title>
<polygon fill="#8dd3c7" stroke="black" points="2856.16,-122 2853.16,-126 2832.16,-126 2829.16,-122 2709.84,-122 2709.84,-86 2856.16,-86 2856.16,-122"/>
<text text-anchor="middle" x="2783" y="-99.8" font-family="Times,serif" font-size="14.00">HelpButtonComponent</text>
</g>
<!-- HelpButtonComponent&#45;&gt;SliderModule -->
<g id="edge8" class="edge">
<title>HelpButtonComponent&#45;&gt;SliderModule</title>
<path fill="none" stroke="black" d="M2713.29,-122.24C2713.29,-137.57 2713.29,-157 2713.29,-157 2713.29,-157 2331.49,-157 2331.49,-157"/>
<polygon fill="black" stroke="black" points="2331.49,-153.5 2321.49,-157 2331.49,-160.5 2331.49,-153.5"/>
</g>
<!-- IconButtonModule -->
<g id="node9" class="node">
<title>IconButtonModule</title>
<polygon fill="#8dd3c7" stroke="black" points="2691.04,-122 2688.04,-126 2667.04,-126 2664.04,-122 2568.96,-122 2568.96,-86 2691.04,-86 2691.04,-122"/>
<text text-anchor="middle" x="2630" y="-99.8" font-family="Times,serif" font-size="14.00">IconButtonModule</text>
</g>
<!-- IconButtonModule&#45;&gt;SliderModule -->
<g id="edge9" class="edge">
<title>IconButtonModule&#45;&gt;SliderModule</title>
<path fill="none" stroke="black" d="M2651.84,-122.12C2651.84,-136.78 2651.84,-155 2651.84,-155 2651.84,-155 2331.59,-155 2331.59,-155"/>
<polygon fill="black" stroke="black" points="2331.59,-151.5 2321.59,-155 2331.59,-158.5 2331.59,-151.5"/>
</g>
<!-- InfoButtonComponent -->
<g id="node10" class="node">
<title>InfoButtonComponent</title>
<polygon fill="#8dd3c7" stroke="black" points="2550.27,-122 2547.27,-126 2526.27,-126 2523.27,-122 2407.73,-122 2407.73,-86 2550.27,-86 2550.27,-122"/>
<text text-anchor="middle" x="2479" y="-99.8" font-family="Times,serif" font-size="14.00">InfoButtonComponent</text>
</g>
<!-- InfoButtonComponent&#45;&gt;SliderModule -->
<g id="edge10" class="edge">
<title>InfoButtonComponent&#45;&gt;SliderModule</title>
<path fill="none" stroke="black" d="M2503.21,-122.25C2503.21,-136.18 2503.21,-153 2503.21,-153 2503.21,-153 2331.73,-153 2331.73,-153"/>
<polygon fill="black" stroke="black" points="2331.73,-149.5 2321.73,-153 2331.73,-156.5 2331.73,-149.5"/>
</g>
<!-- InfoButtonTooltipContentComponent -->
<g id="node11" class="node">
<title>InfoButtonTooltipContentComponent</title>
<polygon fill="#8dd3c7" stroke="black" points="2389.33,-122 2386.33,-126 2365.33,-126 2362.33,-122 2160.67,-122 2160.67,-86 2389.33,-86 2389.33,-122"/>
<text text-anchor="middle" x="2275" y="-99.8" font-family="Times,serif" font-size="14.00">InfoButtonTooltipContentComponent</text>
</g>
<!-- InfoButtonTooltipContentComponent&#45;&gt;SliderModule -->
<g id="edge11" class="edge">
<title>InfoButtonTooltipContentComponent&#45;&gt;SliderModule</title>
<path fill="none" stroke="black" d="M2275,-122.11C2275,-122.11 2275,-140.99 2275,-140.99"/>
<polygon fill="black" stroke="black" points="2271.5,-140.99 2275,-150.99 2278.5,-140.99 2271.5,-140.99"/>
</g>
<!-- NavigationButtonComponent -->
<g id="node12" class="node">
<title>NavigationButtonComponent</title>
<polygon fill="#8dd3c7" stroke="black" points="2142.66,-122 2139.66,-126 2118.66,-126 2115.66,-122 1961.34,-122 1961.34,-86 2142.66,-86 2142.66,-122"/>
<text text-anchor="middle" x="2052" y="-99.8" font-family="Times,serif" font-size="14.00">NavigationButtonComponent</text>
</g>
<!-- NavigationButtonComponent&#45;&gt;SliderModule -->
<g id="edge12" class="edge">
<title>NavigationButtonComponent&#45;&gt;SliderModule</title>
<path fill="none" stroke="black" d="M2081.44,-122.25C2081.44,-136.18 2081.44,-153 2081.44,-153 2081.44,-153 2218.15,-153 2218.15,-153"/>
<polygon fill="black" stroke="black" points="2218.15,-156.5 2228.15,-153 2218.15,-149.5 2218.15,-156.5"/>
</g>
<!-- NavigationButtonDescriptionDirective -->
<g id="node13" class="node">
<title>NavigationButtonDescriptionDirective</title>
<polygon fill="#8dd3c7" stroke="black" points="1942.72,-122 1939.72,-126 1918.72,-126 1915.72,-122 1709.28,-122 1709.28,-86 1942.72,-86 1942.72,-122"/>
<text text-anchor="middle" x="1826" y="-99.8" font-family="Times,serif" font-size="14.00">NavigationButtonDescriptionDirective</text>
</g>
<!-- NavigationButtonDescriptionDirective&#45;&gt;SliderModule -->
<g id="edge13" class="edge">
<title>NavigationButtonDescriptionDirective&#45;&gt;SliderModule</title>
<path fill="none" stroke="black" d="M1862.12,-122.12C1862.12,-136.78 1862.12,-155 1862.12,-155 1862.12,-155 2218.44,-155 2218.44,-155"/>
<polygon fill="black" stroke="black" points="2218.44,-158.5 2228.44,-155 2218.44,-151.5 2218.44,-158.5"/>
</g>
<!-- NavigationButtonTaglineDirective -->
<g id="node14" class="node">
<title>NavigationButtonTaglineDirective</title>
<polygon fill="#8dd3c7" stroke="black" points="1691.67,-122 1688.67,-126 1667.67,-126 1664.67,-122 1480.33,-122 1480.33,-86 1691.67,-86 1691.67,-122"/>
<text text-anchor="middle" x="1586" y="-99.8" font-family="Times,serif" font-size="14.00">NavigationButtonTaglineDirective</text>
</g>
<!-- NavigationButtonTaglineDirective&#45;&gt;SliderModule -->
<g id="edge14" class="edge">
<title>NavigationButtonTaglineDirective&#45;&gt;SliderModule</title>
<path fill="none" stroke="black" d="M1687.46,-122.24C1687.46,-137.57 1687.46,-157 1687.46,-157 1687.46,-157 2218.41,-157 2218.41,-157"/>
<polygon fill="black" stroke="black" points="2218.41,-160.5 2228.41,-157 2218.41,-153.5 2218.41,-160.5"/>
</g>
<!-- NavigationCategoryToggleComponent -->
<g id="node15" class="node">
<title>NavigationCategoryToggleComponent</title>
<polygon fill="#8dd3c7" stroke="black" points="1462.02,-122 1459.02,-126 1438.02,-126 1435.02,-122 1227.98,-122 1227.98,-86 1462.02,-86 1462.02,-122"/>
<text text-anchor="middle" x="1345" y="-99.8" font-family="Times,serif" font-size="14.00">NavigationCategoryToggleComponent</text>
</g>
<!-- NavigationCategoryToggleComponent&#45;&gt;SliderModule -->
<g id="edge15" class="edge">
<title>NavigationCategoryToggleComponent&#45;&gt;SliderModule</title>
<path fill="none" stroke="black" d="M1456.63,-122.28C1456.63,-137.95 1456.63,-158 1456.63,-158 1456.63,-158 2218.36,-158 2218.36,-158"/>
<polygon fill="black" stroke="black" points="2218.36,-161.5 2228.36,-158 2218.36,-154.5 2218.36,-161.5"/>
</g>
<!-- NavigationIconDirective -->
<g id="node16" class="node">
<title>NavigationIconDirective</title>
<polygon fill="#8dd3c7" stroke="black" points="1209.67,-122 1206.67,-126 1185.67,-126 1182.67,-122 1054.33,-122 1054.33,-86 1209.67,-86 1209.67,-122"/>
<text text-anchor="middle" x="1132" y="-99.8" font-family="Times,serif" font-size="14.00">NavigationIconDirective</text>
</g>
<!-- NavigationIconDirective&#45;&gt;SliderModule -->
<g id="edge16" class="edge">
<title>NavigationIconDirective&#45;&gt;SliderModule</title>
<path fill="none" stroke="black" d="M1202.46,-122.03C1202.46,-138.4 1202.46,-160 1202.46,-160 1202.46,-160 2218.22,-160 2218.22,-160"/>
<polygon fill="black" stroke="black" points="2218.22,-163.5 2228.22,-160 2218.22,-156.5 2218.22,-163.5"/>
</g>
<!-- PrimaryButtonVariantDirective -->
<g id="node17" class="node">
<title>PrimaryButtonVariantDirective</title>
<polygon fill="#8dd3c7" stroke="black" points="1036.78,-122 1033.78,-126 1012.78,-126 1009.78,-122 843.22,-122 843.22,-86 1036.78,-86 1036.78,-122"/>
<text text-anchor="middle" x="940" y="-99.8" font-family="Times,serif" font-size="14.00">PrimaryButtonVariantDirective</text>
</g>
<!-- PrimaryButtonVariantDirective&#45;&gt;SliderModule -->
<g id="edge17" class="edge">
<title>PrimaryButtonVariantDirective&#45;&gt;SliderModule</title>
<path fill="none" stroke="black" d="M1027.51,-122.03C1027.51,-139.06 1027.51,-162 1027.51,-162 1027.51,-162 2218.37,-162 2218.37,-162"/>
<polygon fill="black" stroke="black" points="2218.37,-165.5 2228.37,-162 2218.37,-158.5 2218.37,-165.5"/>
</g>
<!-- SecondaryButtonVariantDirective -->
<g id="node18" class="node">
<title>SecondaryButtonVariantDirective</title>
<polygon fill="#8dd3c7" stroke="black" points="825.77,-122 822.77,-126 801.77,-126 798.77,-122 618.23,-122 618.23,-86 825.77,-86 825.77,-122"/>
<text text-anchor="middle" x="722" y="-99.8" font-family="Times,serif" font-size="14.00">SecondaryButtonVariantDirective</text>
</g>
<!-- SecondaryButtonVariantDirective&#45;&gt;SliderModule -->
<g id="edge18" class="edge">
<title>SecondaryButtonVariantDirective&#45;&gt;SliderModule</title>
<path fill="none" stroke="black" d="M812.5,-122.02C812.5,-139.37 812.5,-163 812.5,-163 812.5,-163 2218.41,-163 2218.41,-163"/>
<polygon fill="black" stroke="black" points="2218.41,-166.5 2228.41,-163 2218.41,-159.5 2218.41,-166.5"/>
</g>
<!-- SocialMediaButtonComponent -->
<g id="node19" class="node">
<title>SocialMediaButtonComponent</title>
<polygon fill="#8dd3c7" stroke="black" points="600.21,-122 597.21,-126 576.21,-126 573.21,-122 409.79,-122 409.79,-86 600.21,-86 600.21,-122"/>
<text text-anchor="middle" x="505" y="-99.8" font-family="Times,serif" font-size="14.00">SocialMediaButtonComponent</text>
</g>
<!-- SocialMediaButtonComponent&#45;&gt;SliderModule -->
<g id="edge19" class="edge">
<title>SocialMediaButtonComponent&#45;&gt;SliderModule</title>
<path fill="none" stroke="black" d="M596.36,-122.3C596.36,-140.27 596.36,-165 596.36,-165 596.36,-165 2218.35,-165 2218.35,-165"/>
<polygon fill="black" stroke="black" points="2218.35,-168.5 2228.35,-165 2218.35,-161.5 2218.35,-168.5"/>
</g>
<!-- TextHyperlinkComponent -->
<g id="node20" class="node">
<title>TextHyperlinkComponent</title>
<polygon fill="#8dd3c7" stroke="black" points="391.75,-122 388.75,-126 367.75,-126 364.75,-122 228.25,-122 228.25,-86 391.75,-86 391.75,-122"/>
<text text-anchor="middle" x="310" y="-99.8" font-family="Times,serif" font-size="14.00">TextHyperlinkComponent</text>
</g>
<!-- TextHyperlinkComponent&#45;&gt;SliderModule -->
<g id="edge20" class="edge">
<title>TextHyperlinkComponent&#45;&gt;SliderModule</title>
<path fill="none" stroke="black" d="M386.51,-122.22C386.51,-140.83 386.51,-167 386.51,-167 386.51,-167 2218.32,-167 2218.32,-167"/>
<polygon fill="black" stroke="black" points="2218.32,-170.5 2228.32,-167 2218.32,-163.5 2218.32,-170.5"/>
</g>
<!-- TextHyperlinkDirective -->
<g id="node21" class="node">
<title>TextHyperlinkDirective</title>
<polygon fill="#8dd3c7" stroke="black" points="210,-122 207,-126 186,-126 183,-122 60,-122 60,-86 210,-86 210,-122"/>
<text text-anchor="middle" x="135" y="-99.8" font-family="Times,serif" font-size="14.00">TextHyperlinkDirective</text>
</g>
<!-- TextHyperlinkDirective&#45;&gt;SliderModule -->
<g id="edge21" class="edge">
<title>TextHyperlinkDirective&#45;&gt;SliderModule</title>
<path fill="none" stroke="black" d="M203.31,-122.11C203.31,-141.34 203.31,-169 203.31,-169 203.31,-169 2218.33,-169 2218.33,-169"/>
<polygon fill="black" stroke="black" points="2218.33,-172.5 2228.33,-169 2218.33,-165.5 2218.33,-172.5"/>
</g>
<!-- AppNavButtonComponent  -->
<g id="node23" class="node">
<title>AppNavButtonComponent </title>
<polygon fill="#fb8072" stroke="black" points="4113.38,-252 3942.62,-252 3942.62,-216 4113.38,-216 4113.38,-252"/>
<text text-anchor="middle" x="4028" y="-229.8" font-family="Times,serif" font-size="14.00">AppNavButtonComponent </text>
</g>
<!-- SliderModule&#45;&gt;AppNavButtonComponent  -->
<g id="edge22" class="edge">
<title>SliderModule&#45;&gt;AppNavButtonComponent </title>
<path fill="none" stroke="black" stroke-dasharray="5,2" d="M2321.82,-170C2598.59,-170 4008.62,-170 4008.62,-170 4008.62,-170 4008.62,-205.83 4008.62,-205.83"/>
<polygon fill="black" stroke="black" points="4005.13,-205.83 4008.62,-215.83 4012.13,-205.83 4005.13,-205.83"/>
</g>
<!-- BreadcrumbsComponent  -->
<g id="node24" class="node">
<title>BreadcrumbsComponent </title>
<polygon fill="#fb8072" stroke="black" points="3924.97,-252 3765.03,-252 3765.03,-216 3924.97,-216 3924.97,-252"/>
<text text-anchor="middle" x="3845" y="-229.8" font-family="Times,serif" font-size="14.00">BreadcrumbsComponent </text>
</g>
<!-- SliderModule&#45;&gt;BreadcrumbsComponent  -->
<g id="edge23" class="edge">
<title>SliderModule&#45;&gt;BreadcrumbsComponent </title>
<path fill="none" stroke="black" stroke-dasharray="5,2" d="M2321.89,-172C2581.16,-172 3827.62,-172 3827.62,-172 3827.62,-172 3827.62,-205.73 3827.62,-205.73"/>
<polygon fill="black" stroke="black" points="3824.13,-205.73 3827.62,-215.73 3831.13,-205.73 3824.13,-205.73"/>
</g>
<!-- ButtonSizeDirective  -->
<g id="node25" class="node">
<title>ButtonSizeDirective </title>
<polygon fill="#fb8072" stroke="black" points="3746.8,-252 3613.2,-252 3613.2,-216 3746.8,-216 3746.8,-252"/>
<text text-anchor="middle" x="3680" y="-229.8" font-family="Times,serif" font-size="14.00">ButtonSizeDirective </text>
</g>
<!-- SliderModule&#45;&gt;ButtonSizeDirective  -->
<g id="edge24" class="edge">
<title>SliderModule&#45;&gt;ButtonSizeDirective </title>
<path fill="none" stroke="black" stroke-dasharray="5,2" d="M2321.63,-174C2563.56,-174 3664.62,-174 3664.62,-174 3664.62,-174 3664.62,-206 3664.62,-206"/>
<polygon fill="black" stroke="black" points="3661.13,-206 3664.62,-216 3668.13,-206 3661.13,-206"/>
</g>
<!-- ButtonToggleSizeDirective  -->
<g id="node26" class="node">
<title>ButtonToggleSizeDirective </title>
<polygon fill="#fb8072" stroke="black" points="3594.96,-252 3421.04,-252 3421.04,-216 3594.96,-216 3594.96,-252"/>
<text text-anchor="middle" x="3508" y="-229.8" font-family="Times,serif" font-size="14.00">ButtonToggleSizeDirective </text>
</g>
<!-- SliderModule&#45;&gt;ButtonToggleSizeDirective  -->
<g id="edge25" class="edge">
<title>SliderModule&#45;&gt;ButtonToggleSizeDirective </title>
<path fill="none" stroke="black" stroke-dasharray="5,2" d="M2321.69,-175C2545.15,-175 3494.62,-175 3494.62,-175 3494.62,-175 3494.62,-205.98 3494.62,-205.98"/>
<polygon fill="black" stroke="black" points="3491.13,-205.98 3494.62,-215.98 3498.13,-205.98 3491.13,-205.98"/>
</g>
<!-- ButtonVariantDirective  -->
<g id="node27" class="node">
<title>ButtonVariantDirective </title>
<polygon fill="#fb8072" stroke="black" points="3402.68,-252 3251.32,-252 3251.32,-216 3402.68,-216 3402.68,-252"/>
<text text-anchor="middle" x="3327" y="-229.8" font-family="Times,serif" font-size="14.00">ButtonVariantDirective </text>
</g>
<!-- SliderModule&#45;&gt;ButtonVariantDirective  -->
<g id="edge26" class="edge">
<title>SliderModule&#45;&gt;ButtonVariantDirective </title>
<path fill="none" stroke="black" stroke-dasharray="5,2" d="M2321.74,-177C2524.22,-177 3315.62,-177 3315.62,-177 3315.62,-177 3315.62,-205.96 3315.62,-205.96"/>
<polygon fill="black" stroke="black" points="3312.13,-205.96 3315.62,-215.96 3319.13,-205.96 3312.13,-205.96"/>
</g>
<!-- CheckboxErrorVariantDirective  -->
<g id="node28" class="node">
<title>CheckboxErrorVariantDirective </title>
<polygon fill="#fb8072" stroke="black" points="3232.86,-252 3033.14,-252 3033.14,-216 3232.86,-216 3232.86,-252"/>
<text text-anchor="middle" x="3133" y="-229.8" font-family="Times,serif" font-size="14.00">CheckboxErrorVariantDirective </text>
</g>
<!-- SliderModule&#45;&gt;CheckboxErrorVariantDirective  -->
<g id="edge27" class="edge">
<title>SliderModule&#45;&gt;CheckboxErrorVariantDirective </title>
<path fill="none" stroke="black" stroke-dasharray="5,2" d="M2321.53,-179C2499.03,-179 3123.62,-179 3123.62,-179 3123.62,-179 3123.62,-205.99 3123.62,-205.99"/>
<polygon fill="black" stroke="black" points="3120.13,-205.99 3123.62,-215.99 3127.13,-205.99 3120.13,-205.99"/>
</g>
<!-- CtaButtonDirective  -->
<g id="node29" class="node">
<title>CtaButtonDirective </title>
<polygon fill="#fb8072" stroke="black" points="3014.64,-252 2885.36,-252 2885.36,-216 3014.64,-216 3014.64,-252"/>
<text text-anchor="middle" x="2950" y="-229.8" font-family="Times,serif" font-size="14.00">CtaButtonDirective </text>
</g>
<!-- SliderModule&#45;&gt;CtaButtonDirective  -->
<g id="edge28" class="edge">
<title>SliderModule&#45;&gt;CtaButtonDirective </title>
<path fill="none" stroke="black" stroke-dasharray="5,2" d="M2321.68,-181C2473.37,-181 2942.62,-181 2942.62,-181 2942.62,-181 2942.62,-205.76 2942.62,-205.76"/>
<polygon fill="black" stroke="black" points="2939.13,-205.76 2942.62,-215.76 2946.13,-205.76 2939.13,-205.76"/>
</g>
<!-- HelpButtonComponent  -->
<g id="node30" class="node">
<title>HelpButtonComponent </title>
<polygon fill="#fb8072" stroke="black" points="2867.16,-252 2716.84,-252 2716.84,-216 2867.16,-216 2867.16,-252"/>
<text text-anchor="middle" x="2792" y="-229.8" font-family="Times,serif" font-size="14.00">HelpButtonComponent </text>
</g>
<!-- SliderModule&#45;&gt;HelpButtonComponent  -->
<g id="edge29" class="edge">
<title>SliderModule&#45;&gt;HelpButtonComponent </title>
<path fill="none" stroke="black" stroke-dasharray="5,2" d="M2321.76,-182C2448.06,-182 2786.62,-182 2786.62,-182 2786.62,-182 2786.62,-205.81 2786.62,-205.81"/>
<polygon fill="black" stroke="black" points="2783.13,-205.81 2786.62,-215.81 2790.13,-205.81 2783.13,-205.81"/>
</g>
<!-- IconButtonModule  -->
<g id="node31" class="node">
<title>IconButtonModule </title>
<polygon fill="#fb8072" stroke="black" points="2699.04,-252 2572.96,-252 2572.96,-216 2699.04,-216 2699.04,-252"/>
<text text-anchor="middle" x="2636" y="-229.8" font-family="Times,serif" font-size="14.00">IconButtonModule </text>
</g>
<!-- SliderModule&#45;&gt;IconButtonModule  -->
<g id="edge30" class="edge">
<title>SliderModule&#45;&gt;IconButtonModule </title>
<path fill="none" stroke="black" stroke-dasharray="5,2" d="M2321.56,-184C2414.12,-184 2612.41,-184 2612.41,-184 2612.41,-184 2612.41,-205.95 2612.41,-205.95"/>
<polygon fill="black" stroke="black" points="2608.91,-205.95 2612.41,-215.95 2615.91,-205.95 2608.91,-205.95"/>
</g>
<!-- InfoButtonComponent  -->
<g id="node32" class="node">
<title>InfoButtonComponent </title>
<polygon fill="#fb8072" stroke="black" points="2555.27,-252 2408.73,-252 2408.73,-216 2555.27,-216 2555.27,-252"/>
<text text-anchor="middle" x="2482" y="-229.8" font-family="Times,serif" font-size="14.00">InfoButtonComponent </text>
</g>
<!-- SliderModule&#45;&gt;InfoButtonComponent  -->
<g id="edge31" class="edge">
<title>SliderModule&#45;&gt;InfoButtonComponent </title>
<path fill="none" stroke="black" stroke-dasharray="5,2" d="M2321.62,-186C2375.26,-186 2456.04,-186 2456.04,-186 2456.04,-186 2456.04,-205.85 2456.04,-205.85"/>
<polygon fill="black" stroke="black" points="2452.54,-205.85 2456.04,-215.85 2459.54,-205.85 2452.54,-205.85"/>
</g>
<!-- InfoButtonTooltipContentComponent  -->
<g id="node33" class="node">
<title>InfoButtonTooltipContentComponent </title>
<polygon fill="#fb8072" stroke="black" points="2390.83,-252 2159.17,-252 2159.17,-216 2390.83,-216 2390.83,-252"/>
<text text-anchor="middle" x="2275" y="-229.8" font-family="Times,serif" font-size="14.00">InfoButtonTooltipContentComponent </text>
</g>
<!-- SliderModule&#45;&gt;InfoButtonTooltipContentComponent  -->
<g id="edge32" class="edge">
<title>SliderModule&#45;&gt;InfoButtonTooltipContentComponent </title>
<path fill="none" stroke="black" stroke-dasharray="5,2" d="M2275,-187.11C2275,-187.11 2275,-205.99 2275,-205.99"/>
<polygon fill="black" stroke="black" points="2271.5,-205.99 2275,-215.99 2278.5,-205.99 2271.5,-205.99"/>
</g>
<!-- NavigationButtonComponent  -->
<g id="node34" class="node">
<title>NavigationButtonComponent </title>
<polygon fill="#fb8072" stroke="black" points="2141.66,-252 1956.34,-252 1956.34,-216 2141.66,-216 2141.66,-252"/>
<text text-anchor="middle" x="2049" y="-229.8" font-family="Times,serif" font-size="14.00">NavigationButtonComponent </text>
</g>
<!-- SliderModule&#45;&gt;NavigationButtonComponent  -->
<g id="edge33" class="edge">
<title>SliderModule&#45;&gt;NavigationButtonComponent </title>
<path fill="none" stroke="black" stroke-dasharray="5,2" d="M2228.47,-186C2155.23,-186 2021.31,-186 2021.31,-186 2021.31,-186 2021.31,-205.85 2021.31,-205.85"/>
<polygon fill="black" stroke="black" points="2017.81,-205.85 2021.31,-215.85 2024.81,-205.85 2017.81,-205.85"/>
</g>
<!-- NavigationButtonDescriptionDirective  -->
<g id="node35" class="node">
<title>NavigationButtonDescriptionDirective </title>
<polygon fill="#fb8072" stroke="black" points="1938.72,-252 1701.28,-252 1701.28,-216 1938.72,-216 1938.72,-252"/>
<text text-anchor="middle" x="1820" y="-229.8" font-family="Times,serif" font-size="14.00">NavigationButtonDescriptionDirective </text>
</g>
<!-- SliderModule&#45;&gt;NavigationButtonDescriptionDirective  -->
<g id="edge34" class="edge">
<title>SliderModule&#45;&gt;NavigationButtonDescriptionDirective </title>
<path fill="none" stroke="black" stroke-dasharray="5,2" d="M2228.08,-184C2105.59,-184 1785.63,-184 1785.63,-184 1785.63,-184 1785.63,-205.95 1785.63,-205.95"/>
<polygon fill="black" stroke="black" points="1782.13,-205.95 1785.63,-215.95 1789.13,-205.95 1782.13,-205.95"/>
</g>
<!-- NavigationButtonTaglineDirective  -->
<g id="node36" class="node">
<title>NavigationButtonTaglineDirective </title>
<polygon fill="#fb8072" stroke="black" points="1683.17,-252 1468.83,-252 1468.83,-216 1683.17,-216 1683.17,-252"/>
<text text-anchor="middle" x="1576" y="-229.8" font-family="Times,serif" font-size="14.00">NavigationButtonTaglineDirective </text>
</g>
<!-- SliderModule&#45;&gt;NavigationButtonTaglineDirective  -->
<g id="edge35" class="edge">
<title>SliderModule&#45;&gt;NavigationButtonTaglineDirective </title>
<path fill="none" stroke="black" stroke-dasharray="5,2" d="M2228.45,-182C2073.04,-182 1581.88,-182 1581.88,-182 1581.88,-182 1581.88,-205.81 1581.88,-205.81"/>
<polygon fill="black" stroke="black" points="1578.38,-205.81 1581.88,-215.81 1585.38,-205.81 1578.38,-205.81"/>
</g>
<!-- NavigationCategoryToggleComponent  -->
<g id="node37" class="node">
<title>NavigationCategoryToggleComponent </title>
<polygon fill="#fb8072" stroke="black" points="1451.01,-252 1212.99,-252 1212.99,-216 1451.01,-216 1451.01,-252"/>
<text text-anchor="middle" x="1332" y="-229.8" font-family="Times,serif" font-size="14.00">NavigationCategoryToggleComponent </text>
</g>
<!-- SliderModule&#45;&gt;NavigationCategoryToggleComponent  -->
<g id="edge36" class="edge">
<title>SliderModule&#45;&gt;NavigationCategoryToggleComponent </title>
<path fill="none" stroke="black" stroke-dasharray="5,2" d="M2228.28,-181C2039.02,-181 1339.38,-181 1339.38,-181 1339.38,-181 1339.38,-205.76 1339.38,-205.76"/>
<polygon fill="black" stroke="black" points="1335.88,-205.76 1339.38,-215.76 1342.88,-205.76 1335.88,-205.76"/>
</g>
<!-- NavigationIconDirective  -->
<g id="node38" class="node">
<title>NavigationIconDirective </title>
<polygon fill="#fb8072" stroke="black" points="1195.17,-252 1036.83,-252 1036.83,-216 1195.17,-216 1195.17,-252"/>
<text text-anchor="middle" x="1116" y="-229.8" font-family="Times,serif" font-size="14.00">NavigationIconDirective </text>
</g>
<!-- SliderModule&#45;&gt;NavigationIconDirective  -->
<g id="edge37" class="edge">
<title>SliderModule&#45;&gt;NavigationIconDirective </title>
<path fill="none" stroke="black" stroke-dasharray="5,2" d="M2228.49,-179C2013.32,-179 1124.88,-179 1124.88,-179 1124.88,-179 1124.88,-205.99 1124.88,-205.99"/>
<polygon fill="black" stroke="black" points="1121.38,-205.99 1124.88,-215.99 1128.38,-205.99 1121.38,-205.99"/>
</g>
<!-- PrimaryButtonVariantDirective  -->
<g id="node39" class="node">
<title>PrimaryButtonVariantDirective </title>
<polygon fill="#fb8072" stroke="black" points="1018.28,-252 821.72,-252 821.72,-216 1018.28,-216 1018.28,-252"/>
<text text-anchor="middle" x="920" y="-229.8" font-family="Times,serif" font-size="14.00">PrimaryButtonVariantDirective </text>
</g>
<!-- SliderModule&#45;&gt;PrimaryButtonVariantDirective  -->
<g id="edge38" class="edge">
<title>SliderModule&#45;&gt;PrimaryButtonVariantDirective </title>
<path fill="none" stroke="black" stroke-dasharray="5,2" d="M2228.34,-177C1991.22,-177 930.88,-177 930.88,-177 930.88,-177 930.88,-205.96 930.88,-205.96"/>
<polygon fill="black" stroke="black" points="927.38,-205.96 930.88,-215.96 934.38,-205.96 927.38,-205.96"/>
</g>
<!-- SecondaryButtonVariantDirective  -->
<g id="node40" class="node">
<title>SecondaryButtonVariantDirective </title>
<polygon fill="#fb8072" stroke="black" points="803.27,-252 592.73,-252 592.73,-216 803.27,-216 803.27,-252"/>
<text text-anchor="middle" x="698" y="-229.8" font-family="Times,serif" font-size="14.00">SecondaryButtonVariantDirective </text>
</g>
<!-- SliderModule&#45;&gt;SecondaryButtonVariantDirective  -->
<g id="edge39" class="edge">
<title>SliderModule&#45;&gt;SecondaryButtonVariantDirective </title>
<path fill="none" stroke="black" stroke-dasharray="5,2" d="M2228.19,-175C1967.94,-175 710.88,-175 710.88,-175 710.88,-175 710.88,-205.98 710.88,-205.98"/>
<polygon fill="black" stroke="black" points="707.38,-205.98 710.88,-215.98 714.38,-205.98 707.38,-205.98"/>
</g>
<!-- SocialMediaButtonComponent  -->
<g id="node41" class="node">
<title>SocialMediaButtonComponent </title>
<polygon fill="#fb8072" stroke="black" points="574.71,-252 381.29,-252 381.29,-216 574.71,-216 574.71,-252"/>
<text text-anchor="middle" x="478" y="-229.8" font-family="Times,serif" font-size="14.00">SocialMediaButtonComponent </text>
</g>
<!-- SliderModule&#45;&gt;SocialMediaButtonComponent  -->
<g id="edge40" class="edge">
<title>SliderModule&#45;&gt;SocialMediaButtonComponent </title>
<path fill="none" stroke="black" stroke-dasharray="5,2" d="M2228.24,-174C1946.97,-174 492.38,-174 492.38,-174 492.38,-174 492.38,-206 492.38,-206"/>
<polygon fill="black" stroke="black" points="488.88,-206 492.38,-216 495.88,-206 488.88,-206"/>
</g>
<!-- TextHyperlinkComponent  -->
<g id="node42" class="node">
<title>TextHyperlinkComponent </title>
<polygon fill="#fb8072" stroke="black" points="363.75,-252 196.25,-252 196.25,-216 363.75,-216 363.75,-252"/>
<text text-anchor="middle" x="280" y="-229.8" font-family="Times,serif" font-size="14.00">TextHyperlinkComponent </text>
</g>
<!-- SliderModule&#45;&gt;TextHyperlinkComponent  -->
<g id="edge41" class="edge">
<title>SliderModule&#45;&gt;TextHyperlinkComponent </title>
<path fill="none" stroke="black" stroke-dasharray="5,2" d="M2228.03,-172C1928.32,-172 295.88,-172 295.88,-172 295.88,-172 295.88,-205.73 295.88,-205.73"/>
<polygon fill="black" stroke="black" points="292.38,-205.73 295.88,-215.73 299.38,-205.73 292.38,-205.73"/>
</g>
<!-- TextHyperlinkDirective  -->
<g id="node43" class="node">
<title>TextHyperlinkDirective </title>
<polygon fill="#fb8072" stroke="black" points="178,-252 24,-252 24,-216 178,-216 178,-252"/>
<text text-anchor="middle" x="101" y="-229.8" font-family="Times,serif" font-size="14.00">TextHyperlinkDirective </text>
</g>
<!-- SliderModule&#45;&gt;TextHyperlinkDirective  -->
<g id="edge42" class="edge">
<title>SliderModule&#45;&gt;TextHyperlinkDirective </title>
<path fill="none" stroke="black" stroke-dasharray="5,2" d="M2228.47,-170C1914.57,-170 118.88,-170 118.88,-170 118.88,-170 118.88,-205.83 118.88,-205.83"/>
<polygon fill="black" stroke="black" points="115.38,-205.83 118.88,-215.83 122.38,-205.83 115.38,-205.83"/>
</g>
</g>
</svg>
