<?xml version="1.0" encoding="UTF-8" standalone="no"?>
<!DOCTYPE svg PUBLIC "-//W3C//DTD SVG 1.1//EN"
 "http://www.w3.org/Graphics/SVG/1.1/DTD/svg11.dtd">
<!-- Generated by graphviz version 2.47.0 (20210316.0004)
 -->
<!-- Title: dependencies Pages: 1 -->
<svg width="2864pt" height="284pt"
 viewBox="0.00 0.00 2864.00 284.00" xmlns="http://www.w3.org/2000/svg" xmlns:xlink="http://www.w3.org/1999/xlink">
<g id="graph0" class="graph" transform="scale(1 1) rotate(0) translate(4 280)">
<title>dependencies</title>
<polygon fill="white" stroke="transparent" points="-4,4 -4,-280 2860,-280 2860,4 -4,4"/>
<text text-anchor="start" x="1407.01" y="-42.4" font-family="Times-12" font-weight="bold" font-size="14.00">Legend</text>
<polygon fill="#ffffb3" stroke="transparent" points="1194,-10 1194,-30 1214,-30 1214,-10 1194,-10"/>
<text text-anchor="start" x="1217.63" y="-15.4" font-family="Times-12" font-size="14.00"> &#160;Declarations</text>
<polygon fill="#8dd3c7" stroke="transparent" points="1307,-10 1307,-30 1327,-30 1327,-10 1307,-10"/>
<text text-anchor="start" x="1330.73" y="-15.4" font-family="Times-12" font-size="14.00"> &#160;Module</text>
<polygon fill="#80b1d3" stroke="transparent" points="1393,-10 1393,-30 1413,-30 1413,-10 1393,-10"/>
<text text-anchor="start" x="1416.78" y="-15.4" font-family="Times-12" font-size="14.00"> &#160;Bootstrap</text>
<polygon fill="#fdb462" stroke="transparent" points="1490,-10 1490,-30 1510,-30 1510,-10 1490,-10"/>
<text text-anchor="start" x="1513.67" y="-15.4" font-family="Times-12" font-size="14.00"> &#160;Providers</text>
<polygon fill="#fb8072" stroke="transparent" points="1586,-10 1586,-30 1606,-30 1606,-10 1586,-10"/>
<text text-anchor="start" x="1609.73" y="-15.4" font-family="Times-12" font-size="14.00"> &#160;Exports</text>
<g id="clust1" class="cluster">
<title>cluster_SliderModule</title>
<polygon fill="none" stroke="black" stroke-dasharray="1,5" points="8,-70 8,-268 2848,-268 2848,-70 8,-70"/>
</g>
<g id="clust3" class="cluster">
<title>cluster_SliderModule_imports</title>
<polygon fill="none" stroke="black" points="41,-78 41,-130 2810,-130 2810,-78 41,-78"/>
</g>
<g id="clust4" class="cluster">
<title>cluster_SliderModule_exports</title>
<polygon fill="none" stroke="black" points="16,-208 16,-260 2840,-260 2840,-208 16,-208"/>
</g>
<!-- AppNavButtonComponent -->
<g id="node1" class="node">
<title>AppNavButtonComponent</title>
<polygon fill="#8dd3c7" stroke="black" points="2802.38,-122 2799.38,-126 2778.38,-126 2775.38,-122 2635.62,-122 2635.62,-86 2802.38,-86 2802.38,-122"/>
<text text-anchor="middle" x="2719" y="-99.8" font-family="Times,serif" font-size="14.00">AppNavButtonComponent</text>
</g>
<!-- SliderModule -->
<g id="node16" class="node">
<title>SliderModule</title>
<polygon fill="#8dd3c7" stroke="black" points="1557.49,-187 1554.49,-191 1533.49,-191 1530.49,-187 1464.51,-187 1464.51,-151 1557.49,-151 1557.49,-187"/>
<text text-anchor="middle" x="1511" y="-164.8" font-family="Times,serif" font-size="14.00">SliderModule</text>
</g>
<!-- AppNavButtonComponent&#45;&gt;SliderModule -->
<g id="edge1" class="edge">
<title>AppNavButtonComponent&#45;&gt;SliderModule</title>
<path fill="none" stroke="black" d="M2639.65,-122.17C2639.65,-141.09 2639.65,-168 2639.65,-168 2639.65,-168 1567.7,-168 1567.7,-168"/>
<polygon fill="black" stroke="black" points="1567.7,-164.5 1557.7,-168 1567.7,-171.5 1567.7,-164.5"/>
</g>
<!-- BreadcrumbsComponent -->
<g id="node2" class="node">
<title>BreadcrumbsComponent</title>
<polygon fill="#8dd3c7" stroke="black" points="2617.97,-122 2614.97,-126 2593.97,-126 2590.97,-122 2462.03,-122 2462.03,-86 2617.97,-86 2617.97,-122"/>
<text text-anchor="middle" x="2540" y="-99.8" font-family="Times,serif" font-size="14.00">BreadcrumbsComponent</text>
</g>
<!-- BreadcrumbsComponent&#45;&gt;SliderModule -->
<g id="edge2" class="edge">
<title>BreadcrumbsComponent&#45;&gt;SliderModule</title>
<path fill="none" stroke="black" d="M2475.08,-122.27C2475.08,-140.56 2475.08,-166 2475.08,-166 2475.08,-166 1567.5,-166 1567.5,-166"/>
<polygon fill="black" stroke="black" points="1567.5,-162.5 1557.5,-166 1567.5,-169.5 1567.5,-162.5"/>
</g>
<!-- ButtonSizeDirective -->
<g id="node3" class="node">
<title>ButtonSizeDirective</title>
<polygon fill="#8dd3c7" stroke="black" points="2444.3,-122 2441.3,-126 2420.3,-126 2417.3,-122 2313.7,-122 2313.7,-86 2444.3,-86 2444.3,-122"/>
<text text-anchor="middle" x="2379" y="-99.8" font-family="Times,serif" font-size="14.00">ButtonSizeDirective</text>
</g>
<!-- ButtonSizeDirective&#45;&gt;SliderModule -->
<g id="edge3" class="edge">
<title>ButtonSizeDirective&#45;&gt;SliderModule</title>
<path fill="none" stroke="black" d="M2322.97,-122.02C2322.97,-139.37 2322.97,-163 2322.97,-163 2322.97,-163 1567.57,-163 1567.57,-163"/>
<polygon fill="black" stroke="black" points="1567.57,-159.5 1557.57,-163 1567.57,-166.5 1567.57,-159.5"/>
</g>
<!-- ButtonToggleSizeDirective -->
<g id="node4" class="node">
<title>ButtonToggleSizeDirective</title>
<polygon fill="#8dd3c7" stroke="black" points="2295.96,-122 2292.96,-126 2271.96,-126 2268.96,-122 2126.04,-122 2126.04,-86 2295.96,-86 2295.96,-122"/>
<text text-anchor="middle" x="2211" y="-99.8" font-family="Times,serif" font-size="14.00">ButtonToggleSizeDirective</text>
</g>
<!-- ButtonToggleSizeDirective&#45;&gt;SliderModule -->
<g id="edge4" class="edge">
<title>ButtonToggleSizeDirective&#45;&gt;SliderModule</title>
<path fill="none" stroke="black" d="M2133.14,-122.04C2133.14,-138.73 2133.14,-161 2133.14,-161 2133.14,-161 1567.51,-161 1567.51,-161"/>
<polygon fill="black" stroke="black" points="1567.51,-157.5 1557.51,-161 1567.51,-164.5 1567.51,-157.5"/>
</g>
<!-- ButtonVariantDirective -->
<g id="node5" class="node">
<title>ButtonVariantDirective</title>
<polygon fill="#8dd3c7" stroke="black" points="2108.18,-122 2105.18,-126 2084.18,-126 2081.18,-122 1959.82,-122 1959.82,-86 2108.18,-86 2108.18,-122"/>
<text text-anchor="middle" x="2034" y="-99.8" font-family="Times,serif" font-size="14.00">ButtonVariantDirective</text>
</g>
<!-- ButtonVariantDirective&#45;&gt;SliderModule -->
<g id="edge5" class="edge">
<title>ButtonVariantDirective&#45;&gt;SliderModule</title>
<path fill="none" stroke="black" d="M1965.04,-122.01C1965.04,-138.05 1965.04,-159 1965.04,-159 1965.04,-159 1567.88,-159 1567.88,-159"/>
<polygon fill="black" stroke="black" points="1567.88,-155.5 1557.88,-159 1567.88,-162.5 1567.88,-155.5"/>
</g>
<!-- CheckboxErrorVariantDirective -->
<g id="node6" class="node">
<title>CheckboxErrorVariantDirective</title>
<polygon fill="#8dd3c7" stroke="black" points="1942.36,-122 1939.36,-126 1918.36,-126 1915.36,-122 1745.64,-122 1745.64,-86 1942.36,-86 1942.36,-122"/>
<text text-anchor="middle" x="1844" y="-99.8" font-family="Times,serif" font-size="14.00">CheckboxErrorVariantDirective</text>
</g>
<!-- CheckboxErrorVariantDirective&#45;&gt;SliderModule -->
<g id="edge6" class="edge">
<title>CheckboxErrorVariantDirective&#45;&gt;SliderModule</title>
<path fill="none" stroke="black" d="M1878.81,-122.19C1878.81,-137.18 1878.81,-156 1878.81,-156 1878.81,-156 1567.58,-156 1567.58,-156"/>
<polygon fill="black" stroke="black" points="1567.58,-152.5 1557.58,-156 1567.58,-159.5 1567.58,-152.5"/>
</g>
<!-- CtaButtonDirective -->
<g id="node7" class="node">
<title>CtaButtonDirective</title>
<polygon fill="#8dd3c7" stroke="black" points="1727.64,-122 1724.64,-126 1703.64,-126 1700.64,-122 1602.36,-122 1602.36,-86 1727.64,-86 1727.64,-122"/>
<text text-anchor="middle" x="1665" y="-99.8" font-family="Times,serif" font-size="14.00">CtaButtonDirective</text>
</g>
<!-- CtaButtonDirective&#45;&gt;SliderModule -->
<g id="edge7" class="edge">
<title>CtaButtonDirective&#45;&gt;SliderModule</title>
<path fill="none" stroke="black" d="M1686.69,-122.05C1686.69,-136.37 1686.69,-154 1686.69,-154 1686.69,-154 1567.62,-154 1567.62,-154"/>
<polygon fill="black" stroke="black" points="1567.62,-150.5 1557.62,-154 1567.62,-157.5 1567.62,-150.5"/>
</g>
<!-- HelpButtonComponent -->
<g id="node8" class="node">
<title>HelpButtonComponent</title>
<polygon fill="#8dd3c7" stroke="black" points="1584.16,-122 1581.16,-126 1560.16,-126 1557.16,-122 1437.84,-122 1437.84,-86 1584.16,-86 1584.16,-122"/>
<text text-anchor="middle" x="1511" y="-99.8" font-family="Times,serif" font-size="14.00">HelpButtonComponent</text>
</g>
<!-- HelpButtonComponent&#45;&gt;SliderModule -->
<g id="edge8" class="edge">
<title>HelpButtonComponent&#45;&gt;SliderModule</title>
<path fill="none" stroke="black" d="M1511,-122.11C1511,-122.11 1511,-140.99 1511,-140.99"/>
<polygon fill="black" stroke="black" points="1507.5,-140.99 1511,-150.99 1514.5,-140.99 1507.5,-140.99"/>
</g>
<!-- IconButtonModule -->
<g id="node9" class="node">
<title>IconButtonModule</title>
<polygon fill="#8dd3c7" stroke="black" points="1419.04,-122 1416.04,-126 1395.04,-126 1392.04,-122 1296.96,-122 1296.96,-86 1419.04,-86 1419.04,-122"/>
<text text-anchor="middle" x="1358" y="-99.8" font-family="Times,serif" font-size="14.00">IconButtonModule</text>
</g>
<!-- IconButtonModule&#45;&gt;SliderModule -->
<g id="edge9" class="edge">
<title>IconButtonModule&#45;&gt;SliderModule</title>
<path fill="none" stroke="black" d="M1377.59,-122.05C1377.59,-136.37 1377.59,-154 1377.59,-154 1377.59,-154 1454.34,-154 1454.34,-154"/>
<polygon fill="black" stroke="black" points="1454.34,-157.5 1464.34,-154 1454.34,-150.5 1454.34,-157.5"/>
</g>
<!-- NavigationCategoryToggleComponent -->
<g id="node10" class="node">
<title>NavigationCategoryToggleComponent</title>
<polygon fill="#8dd3c7" stroke="black" points="1278.02,-122 1275.02,-126 1254.02,-126 1251.02,-122 1043.98,-122 1043.98,-86 1278.02,-86 1278.02,-122"/>
<text text-anchor="middle" x="1161" y="-99.8" font-family="Times,serif" font-size="14.00">NavigationCategoryToggleComponent</text>
</g>
<!-- NavigationCategoryToggleComponent&#45;&gt;SliderModule -->
<g id="edge10" class="edge">
<title>NavigationCategoryToggleComponent&#45;&gt;SliderModule</title>
<path fill="none" stroke="black" d="M1197.25,-122.19C1197.25,-137.18 1197.25,-156 1197.25,-156 1197.25,-156 1454.37,-156 1454.37,-156"/>
<polygon fill="black" stroke="black" points="1454.37,-159.5 1464.37,-156 1454.37,-152.5 1454.37,-159.5"/>
</g>
<!-- PrimaryButtonVariantDirective -->
<g id="node11" class="node">
<title>PrimaryButtonVariantDirective</title>
<polygon fill="#8dd3c7" stroke="black" points="1025.78,-122 1022.78,-126 1001.78,-126 998.78,-122 832.22,-122 832.22,-86 1025.78,-86 1025.78,-122"/>
<text text-anchor="middle" x="929" y="-99.8" font-family="Times,serif" font-size="14.00">PrimaryButtonVariantDirective</text>
</g>
<!-- PrimaryButtonVariantDirective&#45;&gt;SliderModule -->
<g id="edge11" class="edge">
<title>PrimaryButtonVariantDirective&#45;&gt;SliderModule</title>
<path fill="none" stroke="black" d="M1022.01,-122.01C1022.01,-138.05 1022.01,-159 1022.01,-159 1022.01,-159 1454.11,-159 1454.11,-159"/>
<polygon fill="black" stroke="black" points="1454.11,-162.5 1464.11,-159 1454.11,-155.5 1454.11,-162.5"/>
</g>
<!-- SecondaryButtonVariantDirective -->
<g id="node12" class="node">
<title>SecondaryButtonVariantDirective</title>
<polygon fill="#8dd3c7" stroke="black" points="814.77,-122 811.77,-126 790.77,-126 787.77,-122 607.23,-122 607.23,-86 814.77,-86 814.77,-122"/>
<text text-anchor="middle" x="711" y="-99.8" font-family="Times,serif" font-size="14.00">SecondaryButtonVariantDirective</text>
</g>
<!-- SecondaryButtonVariantDirective&#45;&gt;SliderModule -->
<g id="edge12" class="edge">
<title>SecondaryButtonVariantDirective&#45;&gt;SliderModule</title>
<path fill="none" stroke="black" d="M809.01,-122.04C809.01,-138.73 809.01,-161 809.01,-161 809.01,-161 1454.4,-161 1454.4,-161"/>
<polygon fill="black" stroke="black" points="1454.4,-164.5 1464.4,-161 1454.4,-157.5 1454.4,-164.5"/>
</g>
<!-- SocialMediaButtonComponent -->
<g id="node13" class="node">
<title>SocialMediaButtonComponent</title>
<polygon fill="#8dd3c7" stroke="black" points="589.21,-122 586.21,-126 565.21,-126 562.21,-122 398.79,-122 398.79,-86 589.21,-86 589.21,-122"/>
<text text-anchor="middle" x="494" y="-99.8" font-family="Times,serif" font-size="14.00">SocialMediaButtonComponent</text>
</g>
<!-- SocialMediaButtonComponent&#45;&gt;SliderModule -->
<g id="edge13" class="edge">
<title>SocialMediaButtonComponent&#45;&gt;SliderModule</title>
<path fill="none" stroke="black" d="M581.98,-122.02C581.98,-139.37 581.98,-163 581.98,-163 581.98,-163 1454.29,-163 1454.29,-163"/>
<polygon fill="black" stroke="black" points="1454.29,-166.5 1464.29,-163 1454.29,-159.5 1454.29,-166.5"/>
</g>
<!-- TextHyperlinkComponent -->
<g id="node14" class="node">
<title>TextHyperlinkComponent</title>
<polygon fill="#8dd3c7" stroke="black" points="380.75,-122 377.75,-126 356.75,-126 353.75,-122 217.25,-122 217.25,-86 380.75,-86 380.75,-122"/>
<text text-anchor="middle" x="299" y="-99.8" font-family="Times,serif" font-size="14.00">TextHyperlinkComponent</text>
</g>
<!-- TextHyperlinkComponent&#45;&gt;SliderModule -->
<g id="edge14" class="edge">
<title>TextHyperlinkComponent&#45;&gt;SliderModule</title>
<path fill="none" stroke="black" d="M372.25,-122.27C372.25,-140.56 372.25,-166 372.25,-166 372.25,-166 1454.24,-166 1454.24,-166"/>
<polygon fill="black" stroke="black" points="1454.24,-169.5 1464.24,-166 1454.24,-162.5 1454.24,-169.5"/>
</g>
<!-- TextHyperlinkDirective -->
<g id="node15" class="node">
<title>TextHyperlinkDirective</title>
<polygon fill="#8dd3c7" stroke="black" points="199,-122 196,-126 175,-126 172,-122 49,-122 49,-86 199,-86 199,-122"/>
<text text-anchor="middle" x="124" y="-99.8" font-family="Times,serif" font-size="14.00">TextHyperlinkDirective</text>
</g>
<!-- TextHyperlinkDirective&#45;&gt;SliderModule -->
<g id="edge15" class="edge">
<title>TextHyperlinkDirective&#45;&gt;SliderModule</title>
<path fill="none" stroke="black" d="M187.19,-122.17C187.19,-141.09 187.19,-168 187.19,-168 187.19,-168 1454.27,-168 1454.27,-168"/>
<polygon fill="black" stroke="black" points="1454.27,-171.5 1464.27,-168 1454.27,-164.5 1454.27,-171.5"/>
</g>
<!-- AppNavButtonComponent  -->
<g id="node17" class="node">
<title>AppNavButtonComponent </title>
<polygon fill="#fb8072" stroke="black" points="2832.38,-252 2661.62,-252 2661.62,-216 2832.38,-216 2832.38,-252"/>
<text text-anchor="middle" x="2747" y="-229.8" font-family="Times,serif" font-size="14.00">AppNavButtonComponent </text>
</g>
<!-- SliderModule&#45;&gt;AppNavButtonComponent  -->
<g id="edge16" class="edge">
<title>SliderModule&#45;&gt;AppNavButtonComponent </title>
<path fill="none" stroke="black" stroke-dasharray="5,2" d="M1557.75,-171C1781.48,-171 2732.12,-171 2732.12,-171 2732.12,-171 2732.12,-205.78 2732.12,-205.78"/>
<polygon fill="black" stroke="black" points="2728.63,-205.78 2732.12,-215.78 2735.63,-205.78 2728.63,-205.78"/>
</g>
<!-- BreadcrumbsComponent  -->
<g id="node18" class="node">
<title>BreadcrumbsComponent </title>
<polygon fill="#fb8072" stroke="black" points="2643.97,-252 2484.03,-252 2484.03,-216 2643.97,-216 2643.97,-252"/>
<text text-anchor="middle" x="2564" y="-229.8" font-family="Times,serif" font-size="14.00">BreadcrumbsComponent </text>
</g>
<!-- SliderModule&#45;&gt;BreadcrumbsComponent  -->
<g id="edge17" class="edge">
<title>SliderModule&#45;&gt;BreadcrumbsComponent </title>
<path fill="none" stroke="black" stroke-dasharray="5,2" d="M1557.71,-173C1760.1,-173 2551.12,-173 2551.12,-173 2551.12,-173 2551.12,-205.7 2551.12,-205.7"/>
<polygon fill="black" stroke="black" points="2547.63,-205.7 2551.12,-215.7 2554.63,-205.7 2547.63,-205.7"/>
</g>
<!-- ButtonSizeDirective  -->
<g id="node19" class="node">
<title>ButtonSizeDirective </title>
<polygon fill="#fb8072" stroke="black" points="2465.8,-252 2332.2,-252 2332.2,-216 2465.8,-216 2465.8,-252"/>
<text text-anchor="middle" x="2399" y="-229.8" font-family="Times,serif" font-size="14.00">ButtonSizeDirective </text>
</g>
<!-- SliderModule&#45;&gt;ButtonSizeDirective  -->
<g id="edge18" class="edge">
<title>SliderModule&#45;&gt;ButtonSizeDirective </title>
<path fill="none" stroke="black" stroke-dasharray="5,2" d="M1557.54,-175C1738.87,-175 2388.12,-175 2388.12,-175 2388.12,-175 2388.12,-205.98 2388.12,-205.98"/>
<polygon fill="black" stroke="black" points="2384.63,-205.98 2388.12,-215.98 2391.63,-205.98 2384.63,-205.98"/>
</g>
<!-- ButtonToggleSizeDirective  -->
<g id="node20" class="node">
<title>ButtonToggleSizeDirective </title>
<polygon fill="#fb8072" stroke="black" points="2313.96,-252 2140.04,-252 2140.04,-216 2313.96,-216 2313.96,-252"/>
<text text-anchor="middle" x="2227" y="-229.8" font-family="Times,serif" font-size="14.00">ButtonToggleSizeDirective </text>
</g>
<!-- SliderModule&#45;&gt;ButtonToggleSizeDirective  -->
<g id="edge19" class="edge">
<title>SliderModule&#45;&gt;ButtonToggleSizeDirective </title>
<path fill="none" stroke="black" stroke-dasharray="5,2" d="M1557.67,-178C1715.3,-178 2218.12,-178 2218.12,-178 2218.12,-178 2218.12,-205.97 2218.12,-205.97"/>
<polygon fill="black" stroke="black" points="2214.63,-205.97 2218.12,-215.97 2221.63,-205.97 2214.63,-205.97"/>
</g>
<!-- ButtonVariantDirective  -->
<g id="node21" class="node">
<title>ButtonVariantDirective </title>
<polygon fill="#fb8072" stroke="black" points="2121.68,-252 1970.32,-252 1970.32,-216 2121.68,-216 2121.68,-252"/>
<text text-anchor="middle" x="2046" y="-229.8" font-family="Times,serif" font-size="14.00">ButtonVariantDirective </text>
</g>
<!-- SliderModule&#45;&gt;ButtonVariantDirective  -->
<g id="edge20" class="edge">
<title>SliderModule&#45;&gt;ButtonVariantDirective </title>
<path fill="none" stroke="black" stroke-dasharray="5,2" d="M1557.87,-180C1687.12,-180 2039.12,-180 2039.12,-180 2039.12,-180 2039.12,-205.72 2039.12,-205.72"/>
<polygon fill="black" stroke="black" points="2035.63,-205.72 2039.12,-215.72 2042.63,-205.72 2035.63,-205.72"/>
</g>
<!-- CheckboxErrorVariantDirective  -->
<g id="node22" class="node">
<title>CheckboxErrorVariantDirective </title>
<polygon fill="#fb8072" stroke="black" points="1951.86,-252 1752.14,-252 1752.14,-216 1951.86,-216 1951.86,-252"/>
<text text-anchor="middle" x="1852" y="-229.8" font-family="Times,serif" font-size="14.00">CheckboxErrorVariantDirective </text>
</g>
<!-- SliderModule&#45;&gt;CheckboxErrorVariantDirective  -->
<g id="edge21" class="edge">
<title>SliderModule&#45;&gt;CheckboxErrorVariantDirective </title>
<path fill="none" stroke="black" stroke-dasharray="5,2" d="M1557.57,-183C1642.85,-183 1815.44,-183 1815.44,-183 1815.44,-183 1815.44,-205.88 1815.44,-205.88"/>
<polygon fill="black" stroke="black" points="1811.94,-205.88 1815.44,-215.88 1818.94,-205.88 1811.94,-205.88"/>
</g>
<!-- CtaButtonDirective  -->
<g id="node23" class="node">
<title>CtaButtonDirective </title>
<polygon fill="#fb8072" stroke="black" points="1733.64,-252 1604.36,-252 1604.36,-216 1733.64,-216 1733.64,-252"/>
<text text-anchor="middle" x="1669" y="-229.8" font-family="Times,serif" font-size="14.00">CtaButtonDirective </text>
</g>
<!-- SliderModule&#45;&gt;CtaButtonDirective  -->
<g id="edge22" class="edge">
<title>SliderModule&#45;&gt;CtaButtonDirective </title>
<path fill="none" stroke="black" stroke-dasharray="5,2" d="M1557.68,-185C1596.55,-185 1645.56,-185 1645.56,-185 1645.56,-185 1645.56,-205.75 1645.56,-205.75"/>
<polygon fill="black" stroke="black" points="1642.06,-205.75 1645.56,-215.75 1649.06,-205.75 1642.06,-205.75"/>
</g>
<!-- HelpButtonComponent  -->
<g id="node24" class="node">
<title>HelpButtonComponent </title>
<polygon fill="#fb8072" stroke="black" points="1586.16,-252 1435.84,-252 1435.84,-216 1586.16,-216 1586.16,-252"/>
<text text-anchor="middle" x="1511" y="-229.8" font-family="Times,serif" font-size="14.00">HelpButtonComponent </text>
</g>
<!-- SliderModule&#45;&gt;HelpButtonComponent  -->
<g id="edge23" class="edge">
<title>SliderModule&#45;&gt;HelpButtonComponent </title>
<path fill="none" stroke="black" stroke-dasharray="5,2" d="M1511,-187.11C1511,-187.11 1511,-205.99 1511,-205.99"/>
<polygon fill="black" stroke="black" points="1507.5,-205.99 1511,-215.99 1514.5,-205.99 1507.5,-205.99"/>
</g>
<!-- IconButtonModule  -->
<g id="node25" class="node">
<title>IconButtonModule </title>
<polygon fill="#fb8072" stroke="black" points="1418.04,-252 1291.96,-252 1291.96,-216 1418.04,-216 1418.04,-252"/>
<text text-anchor="middle" x="1355" y="-229.8" font-family="Times,serif" font-size="14.00">IconButtonModule </text>
</g>
<!-- SliderModule&#45;&gt;IconButtonModule  -->
<g id="edge24" class="edge">
<title>SliderModule&#45;&gt;IconButtonModule </title>
<path fill="none" stroke="black" stroke-dasharray="5,2" d="M1464.41,-185C1412.92,-185 1337.16,-185 1337.16,-185 1337.16,-185 1337.16,-205.75 1337.16,-205.75"/>
<polygon fill="black" stroke="black" points="1333.66,-205.75 1337.16,-215.75 1340.66,-205.75 1333.66,-205.75"/>
</g>
<!-- NavigationCategoryToggleComponent  -->
<g id="node26" class="node">
<title>NavigationCategoryToggleComponent </title>
<polygon fill="#fb8072" stroke="black" points="1274.01,-252 1035.99,-252 1035.99,-216 1274.01,-216 1274.01,-252"/>
<text text-anchor="middle" x="1155" y="-229.8" font-family="Times,serif" font-size="14.00">NavigationCategoryToggleComponent </text>
</g>
<!-- SliderModule&#45;&gt;NavigationCategoryToggleComponent  -->
<g id="edge25" class="edge">
<title>SliderModule&#45;&gt;NavigationCategoryToggleComponent </title>
<path fill="none" stroke="black" stroke-dasharray="5,2" d="M1464.28,-183C1360.63,-183 1120.5,-183 1120.5,-183 1120.5,-183 1120.5,-205.88 1120.5,-205.88"/>
<polygon fill="black" stroke="black" points="1117,-205.88 1120.5,-215.88 1124,-205.88 1117,-205.88"/>
</g>
<!-- PrimaryButtonVariantDirective  -->
<g id="node27" class="node">
<title>PrimaryButtonVariantDirective </title>
<polygon fill="#fb8072" stroke="black" points="1018.28,-252 821.72,-252 821.72,-216 1018.28,-216 1018.28,-252"/>
<text text-anchor="middle" x="920" y="-229.8" font-family="Times,serif" font-size="14.00">PrimaryButtonVariantDirective </text>
</g>
<!-- SliderModule&#45;&gt;PrimaryButtonVariantDirective  -->
<g id="edge26" class="edge">
<title>SliderModule&#45;&gt;PrimaryButtonVariantDirective </title>
<path fill="none" stroke="black" stroke-dasharray="5,2" d="M1464.07,-180C1325.1,-180 925.38,-180 925.38,-180 925.38,-180 925.38,-205.72 925.38,-205.72"/>
<polygon fill="black" stroke="black" points="921.88,-205.72 925.38,-215.72 928.88,-205.72 921.88,-205.72"/>
</g>
<!-- SecondaryButtonVariantDirective  -->
<g id="node28" class="node">
<title>SecondaryButtonVariantDirective </title>
<polygon fill="#fb8072" stroke="black" points="803.27,-252 592.73,-252 592.73,-216 803.27,-216 803.27,-252"/>
<text text-anchor="middle" x="698" y="-229.8" font-family="Times,serif" font-size="14.00">SecondaryButtonVariantDirective </text>
</g>
<!-- SliderModule&#45;&gt;SecondaryButtonVariantDirective  -->
<g id="edge27" class="edge">
<title>SliderModule&#45;&gt;SecondaryButtonVariantDirective </title>
<path fill="none" stroke="black" stroke-dasharray="5,2" d="M1464.5,-178C1292.94,-178 705.38,-178 705.38,-178 705.38,-178 705.38,-205.97 705.38,-205.97"/>
<polygon fill="black" stroke="black" points="701.88,-205.97 705.38,-215.97 708.88,-205.97 701.88,-205.97"/>
</g>
<!-- SocialMediaButtonComponent  -->
<g id="node29" class="node">
<title>SocialMediaButtonComponent </title>
<polygon fill="#fb8072" stroke="black" points="574.71,-252 381.29,-252 381.29,-216 574.71,-216 574.71,-252"/>
<text text-anchor="middle" x="478" y="-229.8" font-family="Times,serif" font-size="14.00">SocialMediaButtonComponent </text>
</g>
<!-- SliderModule&#45;&gt;SocialMediaButtonComponent  -->
<g id="edge28" class="edge">
<title>SliderModule&#45;&gt;SocialMediaButtonComponent </title>
<path fill="none" stroke="black" stroke-dasharray="5,2" d="M1464.33,-175C1263.99,-175 486.88,-175 486.88,-175 486.88,-175 486.88,-205.98 486.88,-205.98"/>
<polygon fill="black" stroke="black" points="483.38,-205.98 486.88,-215.98 490.38,-205.98 483.38,-205.98"/>
</g>
<!-- TextHyperlinkComponent  -->
<g id="node30" class="node">
<title>TextHyperlinkComponent </title>
<polygon fill="#fb8072" stroke="black" points="363.75,-252 196.25,-252 196.25,-216 363.75,-216 363.75,-252"/>
<text text-anchor="middle" x="280" y="-229.8" font-family="Times,serif" font-size="14.00">TextHyperlinkComponent </text>
</g>
<!-- SliderModule&#45;&gt;TextHyperlinkComponent  -->
<g id="edge29" class="edge">
<title>SliderModule&#45;&gt;TextHyperlinkComponent </title>
<path fill="none" stroke="black" stroke-dasharray="5,2" d="M1464.27,-173C1240.63,-173 290.38,-173 290.38,-173 290.38,-173 290.38,-205.7 290.38,-205.7"/>
<polygon fill="black" stroke="black" points="286.88,-205.7 290.38,-215.7 293.88,-205.7 286.88,-205.7"/>
</g>
<!-- TextHyperlinkDirective  -->
<g id="node31" class="node">
<title>TextHyperlinkDirective </title>
<polygon fill="#fb8072" stroke="black" points="178,-252 24,-252 24,-216 178,-216 178,-252"/>
<text text-anchor="middle" x="101" y="-229.8" font-family="Times,serif" font-size="14.00">TextHyperlinkDirective </text>
</g>
<!-- SliderModule&#45;&gt;TextHyperlinkDirective  -->
<g id="edge30" class="edge">
<title>SliderModule&#45;&gt;TextHyperlinkDirective </title>
<path fill="none" stroke="black" stroke-dasharray="5,2" d="M1464.5,-171C1221.99,-171 113.38,-171 113.38,-171 113.38,-171 113.38,-205.78 113.38,-205.78"/>
<polygon fill="black" stroke="black" points="109.88,-205.78 113.38,-215.78 116.88,-205.78 109.88,-205.78"/>
</g>
</g>
</svg>
