<svg width="25" height="24" viewBox="0 0 25 24" fill="none" xmlns="http://www.w3.org/2000/svg">
<path d="M18.6061 18.3371H15.9391V14.1603C15.9391 13.1643 15.9213 11.8822 14.552 11.8822C13.1629 11.8822 12.9503 12.9674 12.9503 14.0878V18.3368H10.2834V9.74773H12.8437V10.9215H12.8795C13.1358 10.4834 13.506 10.123 13.9509 9.87866C14.3957 9.63432 14.8985 9.51523 15.4057 9.53405C18.1089 9.53405 18.6073 11.3121 18.6073 13.6252L18.6061 18.3371ZM7.27401 8.57372C6.41922 8.57386 5.72615 7.881 5.72601 7.02621C5.72587 6.17142 6.41865 5.47835 7.27344 5.47821C8.12823 5.478 8.8213 6.17086 8.82144 7.02565C8.82152 7.43613 8.65853 7.82984 8.36833 8.12016C8.07813 8.41047 7.68449 8.57362 7.27401 8.57372ZM8.60755 18.3372H5.93772V9.74773H8.60748V18.3371L8.60755 18.3372ZM19.9357 3.00131H4.59756C3.87264 2.99315 3.27815 3.57386 3.26929 4.29879V19.701C3.27787 20.4262 3.87229 21.0075 4.59749 20.9999H19.9357C20.6625 21.0089 21.2592 20.4276 21.2693 19.701V4.29759C21.259 3.57126 20.6621 2.99062 19.9357 3.00011" fill="currentColor"/>
</svg>
