<?xml version="1.0" encoding="UTF-8" standalone="no"?>
<!DOCTYPE svg PUBLIC "-//W3C//DTD SVG 1.1//EN"
 "http://www.w3.org/Graphics/SVG/1.1/DTD/svg11.dtd">
<!-- Generated by graphviz version 2.47.0 (20210316.0004)
 -->
<!-- Title: dependencies Pages: 1 -->
<svg width="840pt" height="211pt"
 viewBox="0.00 0.00 840.00 211.00" xmlns="http://www.w3.org/2000/svg" xmlns:xlink="http://www.w3.org/1999/xlink">
<g id="graph0" class="graph" transform="scale(1 1) rotate(0) translate(4 207)">
<title>dependencies</title>
<polygon fill="white" stroke="transparent" points="-4,4 -4,-207 836,-207 836,4 -4,4"/>
<text text-anchor="start" x="395.01" y="-42.4" font-family="Times-12" font-weight="bold" font-size="14.00">Legend</text>
<polygon fill="#ffffb3" stroke="transparent" points="182,-10 182,-30 202,-30 202,-10 182,-10"/>
<text text-anchor="start" x="205.63" y="-15.4" font-family="Times-12" font-size="14.00"> &#160;Declarations</text>
<polygon fill="#8dd3c7" stroke="transparent" points="295,-10 295,-30 315,-30 315,-10 295,-10"/>
<text text-anchor="start" x="318.73" y="-15.4" font-family="Times-12" font-size="14.00"> &#160;Module</text>
<polygon fill="#80b1d3" stroke="transparent" points="381,-10 381,-30 401,-30 401,-10 381,-10"/>
<text text-anchor="start" x="404.78" y="-15.4" font-family="Times-12" font-size="14.00"> &#160;Bootstrap</text>
<polygon fill="#fdb462" stroke="transparent" points="478,-10 478,-30 498,-30 498,-10 478,-10"/>
<text text-anchor="start" x="501.67" y="-15.4" font-family="Times-12" font-size="14.00"> &#160;Providers</text>
<polygon fill="#fb8072" stroke="transparent" points="574,-10 574,-30 594,-30 594,-10 574,-10"/>
<text text-anchor="start" x="597.73" y="-15.4" font-family="Times-12" font-size="14.00"> &#160;Exports</text>
<g id="clust1" class="cluster">
<title>cluster_AppModule</title>
<polygon fill="none" stroke="black" stroke-dasharray="1,5" points="8,-70 8,-195 824,-195 824,-70 8,-70"/>
</g>
<g id="clust2" class="cluster">
<title>cluster_AppModule_declarations</title>
<polygon fill="none" stroke="black" points="544,-78 544,-130 816,-130 816,-78 544,-78"/>
</g>
<g id="clust5" class="cluster">
<title>cluster_AppModule_imports</title>
<polygon fill="none" stroke="black" points="16,-78 16,-130 536,-130 536,-78 16,-78"/>
</g>
<!-- AppComponent -->
<g id="node1" class="node">
<title>AppComponent</title>
<polygon fill="#ffffb3" stroke="black" points="807.94,-122 702.06,-122 702.06,-86 807.94,-86 807.94,-122"/>
<text text-anchor="middle" x="755" y="-99.8" font-family="Times,serif" font-size="14.00">AppComponent</text>
</g>
<!-- AppModule -->
<g id="node3" class="node">
<title>AppModule</title>
<polygon fill="#8dd3c7" stroke="black" points="460.66,-187 457.66,-191 436.66,-191 433.66,-187 377.34,-187 377.34,-151 460.66,-151 460.66,-187"/>
<text text-anchor="middle" x="419" y="-164.8" font-family="Times,serif" font-size="14.00">AppModule</text>
</g>
<!-- AppComponent&#45;&gt;AppModule -->
<g id="edge1" class="edge">
<title>AppComponent&#45;&gt;AppModule</title>
<path fill="none" stroke="black" d="M755,-122.28C755,-143.32 755,-175 755,-175 755,-175 470.88,-175 470.88,-175"/>
<polygon fill="black" stroke="black" points="470.88,-171.5 460.88,-175 470.88,-178.5 470.88,-171.5"/>
</g>
<!-- AppWebComponent -->
<g id="node2" class="node">
<title>AppWebComponent</title>
<polygon fill="#ffffb3" stroke="black" points="683.87,-122 552.13,-122 552.13,-86 683.87,-86 683.87,-122"/>
<text text-anchor="middle" x="618" y="-99.8" font-family="Times,serif" font-size="14.00">AppWebComponent</text>
</g>
<!-- AppWebComponent&#45;&gt;AppModule -->
<g id="edge2" class="edge">
<title>AppWebComponent&#45;&gt;AppModule</title>
<path fill="none" stroke="black" d="M618,-122.02C618,-139.37 618,-163 618,-163 618,-163 470.72,-163 470.72,-163"/>
<polygon fill="black" stroke="black" points="470.72,-159.5 460.72,-163 470.72,-166.5 470.72,-159.5"/>
</g>
<!-- ContentModule -->
<g id="node4" class="node">
<title>ContentModule</title>
<polygon fill="#8dd3c7" stroke="black" points="527.88,-122 524.88,-126 503.88,-126 500.88,-122 424.12,-122 424.12,-86 527.88,-86 527.88,-122"/>
<text text-anchor="middle" x="476" y="-99.8" font-family="Times,serif" font-size="14.00">ContentModule</text>
</g>
<!-- ContentModule&#45;&gt;AppModule -->
<g id="edge3" class="edge">
<title>ContentModule&#45;&gt;AppModule</title>
<path fill="none" stroke="black" d="M442.44,-122.11C442.44,-122.11 442.44,-140.99 442.44,-140.99"/>
<polygon fill="black" stroke="black" points="438.94,-140.99 442.44,-150.99 445.94,-140.99 438.94,-140.99"/>
</g>
<!-- CoreModule -->
<g id="node5" class="node">
<title>CoreModule</title>
<polygon fill="#8dd3c7" stroke="black" points="406.26,-122 403.26,-126 382.26,-126 379.26,-122 319.74,-122 319.74,-86 406.26,-86 406.26,-122"/>
<text text-anchor="middle" x="363" y="-99.8" font-family="Times,serif" font-size="14.00">CoreModule</text>
</g>
<!-- CoreModule&#45;&gt;AppModule -->
<g id="edge4" class="edge">
<title>CoreModule&#45;&gt;AppModule</title>
<path fill="none" stroke="black" d="M391.78,-122.11C391.78,-122.11 391.78,-140.99 391.78,-140.99"/>
<polygon fill="black" stroke="black" points="388.28,-140.99 391.78,-150.99 395.28,-140.99 388.28,-140.99"/>
</g>
<!-- LeftSidebarModule -->
<g id="node6" class="node">
<title>LeftSidebarModule</title>
<polygon fill="#8dd3c7" stroke="black" points="301.63,-122 298.63,-126 277.63,-126 274.63,-122 176.37,-122 176.37,-86 301.63,-86 301.63,-122"/>
<text text-anchor="middle" x="239" y="-99.8" font-family="Times,serif" font-size="14.00">LeftSidebarModule</text>
</g>
<!-- LeftSidebarModule&#45;&gt;AppModule -->
<g id="edge5" class="edge">
<title>LeftSidebarModule&#45;&gt;AppModule</title>
<path fill="none" stroke="black" d="M239,-122.02C239,-139.37 239,-163 239,-163 239,-163 367.25,-163 367.25,-163"/>
<polygon fill="black" stroke="black" points="367.25,-166.5 377.25,-163 367.25,-159.5 367.25,-166.5"/>
</g>
<!-- RightSidebarModule -->
<g id="node7" class="node">
<title>RightSidebarModule</title>
<polygon fill="#8dd3c7" stroke="black" points="157.93,-122 154.93,-126 133.93,-126 130.93,-122 24.07,-122 24.07,-86 157.93,-86 157.93,-122"/>
<text text-anchor="middle" x="91" y="-99.8" font-family="Times,serif" font-size="14.00">RightSidebarModule</text>
</g>
<!-- RightSidebarModule&#45;&gt;AppModule -->
<g id="edge6" class="edge">
<title>RightSidebarModule&#45;&gt;AppModule</title>
<path fill="none" stroke="black" d="M91,-122.28C91,-143.32 91,-175 91,-175 91,-175 367.13,-175 367.13,-175"/>
<polygon fill="black" stroke="black" points="367.13,-178.5 377.13,-175 367.13,-171.5 367.13,-178.5"/>
</g>
</g>
</svg>
