<svg width="40" height="40" viewBox="0 0 40 40" fill="none" xmlns="http://www.w3.org/2000/svg">
<g clip-path="url(#clip0_1409_402)">
<path d="M20.0041 40.0083C31.0521 40.0083 40.0083 31.0521 40.0083 20.0041C40.0083 8.95616 31.0521 0 20.0041 0C8.95616 0 0 8.95616 0 20.0041C0 31.0521 8.95616 40.0083 20.0041 40.0083Z" fill="#201E3D"/>
<path d="M20.7821 18.2661C20.6414 18.2247 20.5007 18.3075 20.4594 18.4399L19.4248 22.0484C19.3834 22.1891 19.4662 22.3298 19.5986 22.3712C19.731 22.4126 19.88 22.3298 19.9214 22.1974L20.9559 18.5889C20.9973 18.4482 20.9146 18.3075 20.7821 18.2661ZM21.4277 19.2262C21.3284 19.3255 21.3284 19.491 21.4277 19.5903L22.1478 20.3104L21.4277 21.0304C21.3284 21.1297 21.3284 21.2953 21.4277 21.3946C21.527 21.4939 21.6926 21.4939 21.7919 21.3946L22.694 20.4925C22.7933 20.3931 22.7933 20.2276 22.694 20.1283L21.7919 19.2262C21.6926 19.1268 21.527 19.1268 21.4277 19.2262ZM18.9613 19.2262C18.862 19.1268 18.6965 19.1268 18.5972 19.2262L17.695 20.1283C17.5957 20.2276 17.5957 20.3931 17.695 20.4925L18.5972 21.3946C18.6965 21.4939 18.862 21.4939 18.9613 21.3946C19.0606 21.2953 19.0606 21.1297 18.9613 21.0304L18.2413 20.3104L18.9613 19.5903C19.0606 19.491 19.0606 19.3255 18.9613 19.2262Z" fill="white"/>
<path d="M27.8005 17.4798C27.8998 17.753 27.8171 18.0592 27.6019 18.2578C27.6019 18.2578 26.3852 19.0689 26.228 19.5076C26.137 19.7558 26.2114 20.0372 26.2114 20.3104C26.2114 20.5835 26.137 20.8649 26.228 21.1132C26.3852 21.5518 27.6019 22.3629 27.6019 22.3629C27.8171 22.5616 27.9081 22.8678 27.8088 23.1409C27.6681 23.5216 27.5026 23.8775 27.3039 24.2251L27.155 24.4817C26.948 24.8293 26.708 25.1604 26.4597 25.4666C26.2694 25.69 25.9632 25.7728 25.6818 25.6818L24.3658 25.268C24.0844 25.1769 23.7782 25.2348 23.5299 25.4004C23.3478 25.5245 23.1492 25.6321 22.9588 25.7314C22.694 25.8639 22.487 26.1039 22.4291 26.3935L22.1312 27.7426C22.0649 28.024 21.8415 28.2557 21.5601 28.3054C21.1214 28.3799 20.6745 28.413 20.211 28.413C19.7475 28.413 19.3006 28.3716 18.862 28.3054C18.5723 28.2557 18.3488 28.024 18.2909 27.7426L17.9929 26.3935C17.9267 26.1039 17.7281 25.8639 17.4633 25.7314C17.2646 25.6321 17.0743 25.5245 16.8922 25.4004C16.6439 25.2348 16.3377 25.1769 16.048 25.268L14.7403 25.69C14.4589 25.7811 14.1527 25.6983 13.9623 25.4749C13.7058 25.1604 13.474 24.8376 13.2588 24.49L13.1099 24.2334C12.9195 23.8858 12.7457 23.5216 12.605 23.1492C12.5057 22.8761 12.5884 22.5698 12.8119 22.3712C12.8119 22.3712 14.0203 21.5601 14.1858 21.1215C14.2768 20.8732 14.2354 20.6 14.2354 20.3269C14.2354 20.0538 14.2768 19.7558 14.1858 19.5076C14.0285 19.0689 12.8119 18.2578 12.8119 18.2578C12.5967 18.0592 12.5057 17.753 12.605 17.4798C12.7457 17.0991 12.9112 16.7432 13.1099 16.3956L13.2588 16.139C13.4657 15.7914 13.7058 15.4604 13.954 15.1541C14.1444 14.9307 14.4506 14.8479 14.732 14.939L16.048 15.3528C16.3294 15.4438 16.6356 15.3859 16.8839 15.2204C17.066 15.0962 17.2646 14.9886 17.455 14.8893C17.7198 14.7569 17.9267 14.5169 17.9847 14.2272L18.2826 12.8781C18.3406 12.5967 18.564 12.365 18.8537 12.3153C19.2923 12.2408 19.7475 12.1995 20.211 12.1995C20.6745 12.1995 21.1214 12.2408 21.5601 12.3071C21.8498 12.3567 22.0732 12.5885 22.1312 12.8699L22.4291 14.2189C22.4953 14.5086 22.694 14.7486 22.9588 14.881C23.1574 14.9803 23.3478 15.0962 23.5299 15.2121C23.7782 15.3776 24.0844 15.4355 24.3658 15.3445L25.6818 14.9307C25.9632 14.8396 26.2694 14.9224 26.4597 15.1459C26.7163 15.4521 26.948 15.7832 27.155 16.1308L27.3039 16.3873C27.4943 16.7349 27.6681 17.0991 27.8005 17.4716V17.4798ZM20.1945 24.7714C22.6609 24.7714 24.6555 22.7767 24.6555 20.3104C24.6555 17.844 22.6609 15.8494 20.1945 15.8494C17.7281 15.8494 15.7335 17.844 15.7335 20.3104C15.7335 22.7767 17.7281 24.7714 20.1945 24.7714Z" fill="white"/>
</g>
<defs>
<clipPath id="clip0_1409_402">
<rect width="40" height="40" fill="white"/>
</clipPath>
</defs>
</svg>
