<svg width="80" height="81" viewBox="0 0 80 81" fill="none" xmlns="http://www.w3.org/2000/svg">
<g clip-path="url(#clip0_2448_11466)">
<path d="M40 80.5C62.0914 80.5 80 62.5914 80 40.5C80 18.4086 62.0914 0.5 40 0.5C17.9086 0.5 0 18.4086 0 40.5C0 62.5914 17.9086 80.5 40 80.5Z" fill="#201E3D"/>
<path d="M57.7219 37.2383C57.9124 38.2973 58.019 39.3869 58.019 40.4992C58.019 50.4497 49.9505 58.5107 40.0076 58.5107C34.7276 58.5107 29.9809 56.2402 26.6819 52.6211" stroke="white" stroke-width="2.5" stroke-miterlimit="10" stroke-linecap="round"/>
<path d="M31.0323 52.7125L27.4285 53.4744L25.4781 56.5982L23.6571 48.0801L31.0323 52.7125Z" fill="white"/>
<path d="M21.9885 40.4997C21.9885 30.5492 30.0571 22.4883 40 22.4883C43.9619 22.4883 47.6266 23.7683 50.5981 25.9321" stroke="white" stroke-width="2.5" stroke-miterlimit="10" stroke-linecap="round"/>
<path d="M46.8724 26.68L49.7982 25.339L50.8724 22.3066L54.0572 29.2324L46.8724 26.68Z" fill="white"/>
<path d="M40.358 52.4534C39.5961 52.4534 38.8495 52.3772 38.1028 52.202C34.9104 51.4934 32.3809 49.3601 30.9866 46.1753C29.0285 41.7029 27.3295 37.8401 31.0857 33.9467C34.8266 30.0534 36.8533 29.8553 40.8914 29.4439L41.8514 29.3448C46.9104 28.8039 49.0818 33.3296 50.6666 38.282C52.1523 42.9144 50.0571 47.4248 47.3218 49.8324C45.3942 51.5315 42.9028 52.4458 40.3657 52.4458L40.358 52.4534ZM41.9428 30.3429L40.9752 30.442C36.9523 30.8534 35.2838 31.021 31.7942 34.6477C28.6704 37.8934 29.798 40.9944 31.8933 45.7791C33.158 48.6667 35.4361 50.602 38.3085 51.242C41.2114 51.882 44.419 51.0591 46.6438 49.0934C49.1428 46.8991 51.0476 42.8077 49.699 38.602C47.6723 32.2858 45.4857 29.9848 41.9352 30.3582H41.9428V30.3429Z" fill="white"/>
<path d="M40.1448 32.7901C41.9581 32.3482 43.7105 32.1349 44.7543 33.5901C44.7543 33.5901 48.4572 38.253 48.1677 40.8968C47.8781 43.5406 43.5886 41.0796 42.8572 38.4206C42.1257 35.7615 42.2477 35.3349 39.9696 34.7177C37.6915 34.1006 38.3162 33.232 40.1296 32.7901H40.1372H40.1448ZM44.32 36.8206C44.6096 37.8872 45.8286 38.7101 46.2172 38.4587C46.6057 38.2072 46.2934 36.7444 45.4705 35.9139C45.3486 35.792 44.861 35.3044 44.5334 35.4415C44.2057 35.5787 44.1829 36.3101 44.32 36.8206Z" fill="white"/>
<path d="M39.7257 47.6923C40.6248 47.2123 42.5143 46.8847 43.3295 46.2676C44.1448 45.6504 44.8762 43.6542 45.4553 43.2352C46.0343 42.8161 46.9714 42.3666 47.7029 42.6866C47.7029 42.6866 48.1829 43.6161 47.7029 45.0028C47.2229 46.3819 44.4572 48.8733 43.1772 49.1857C41.8972 49.4981 39.1314 50.3666 38.1333 49.4676C37.1353 48.5685 38.8191 48.1876 39.7181 47.7076L39.7257 47.6923ZM43.6495 48.3933C43.9619 47.9819 43.8705 47.2123 43.4819 46.9381C42.781 46.4352 41.1429 47.5247 41.2343 48.0733C41.3257 48.5914 43.101 49.1323 43.6495 48.3933Z" fill="white"/>
<path d="M31.3524 39.5553C32.1905 38.0315 32.5181 36.8277 33.501 35.8144C34.4762 34.7934 35.2762 33.7344 37.4933 33.7344C37.4933 33.7344 39.2686 34.6791 39.1619 35.5096C39.0552 36.3477 35.3524 37.1477 34.9486 38.7401C34.5524 40.3401 34.4 42.0163 35.5657 43.6849C36.7314 45.3534 38.8724 47.2049 37.8514 47.7839C36.8305 48.3629 35.4591 47.7839 34.0419 45.6353C32.6248 43.4868 30.5219 41.0563 31.36 39.5249V39.5477L31.3524 39.5553ZM32.4191 39.7077C32.5867 40.3096 33.1581 40.9344 33.6152 40.8429C34.3314 40.7134 34.9105 38.7934 34.2172 37.8258C34.141 37.7191 33.9505 37.4601 33.6686 37.4372C33.0362 37.3991 32.1219 38.6258 32.4191 39.6925V39.7077Z" fill="white"/>
</g>
<defs>
<clipPath id="clip0_2448_11466">
<rect width="80" height="80" fill="white" transform="translate(0 0.5)"/>
</clipPath>
</defs>
</svg>
