<svg width="32" height="32" viewBox="0 0 32 32" fill="none" xmlns="http://www.w3.org/2000/svg">
<mask id="mask0_3340_43287" style="mask-type:alpha" maskUnits="userSpaceOnUse" x="4" y="4" width="24" height="24">
<rect x="4" y="4" width="24" height="24" fill="#D9D9D9"/>
</mask>
<g mask="url(#mask0_3340_43287)">
<path d="M16 21C16.2833 21 16.5208 20.9042 16.7125 20.7125C16.9042 20.5208 17 20.2833 17 20C17 19.7167 16.9042 19.4792 16.7125 19.2875C16.5208 19.0958 16.2833 19 16 19C15.7167 19 15.4792 19.0958 15.2875 19.2875C15.0958 19.4792 15 19.7167 15 20C15 20.2833 15.0958 20.5208 15.2875 20.7125C15.4792 20.9042 15.7167 21 16 21ZM16 17C16.2833 17 16.5208 16.9042 16.7125 16.7125C16.9042 16.5208 17 16.2833 17 16V12C17 11.7167 16.9042 11.4792 16.7125 11.2875C16.5208 11.0958 16.2833 11 16 11C15.7167 11 15.4792 11.0958 15.2875 11.2875C15.0958 11.4792 15 11.7167 15 12V16C15 16.2833 15.0958 16.5208 15.2875 16.7125C15.4792 16.9042 15.7167 17 16 17ZM16 26C14.6167 26 13.3167 25.7375 12.1 25.2125C10.8833 24.6875 9.825 23.975 8.925 23.075C8.025 22.175 7.3125 21.1167 6.7875 19.9C6.2625 18.6833 6 17.3833 6 16C6 14.6167 6.2625 13.3167 6.7875 12.1C7.3125 10.8833 8.025 9.825 8.925 8.925C9.825 8.025 10.8833 7.3125 12.1 6.7875C13.3167 6.2625 14.6167 6 16 6C17.3833 6 18.6833 6.2625 19.9 6.7875C21.1167 7.3125 22.175 8.025 23.075 8.925C23.975 9.825 24.6875 10.8833 25.2125 12.1C25.7375 13.3167 26 14.6167 26 16C26 17.3833 25.7375 18.6833 25.2125 19.9C24.6875 21.1167 23.975 22.175 23.075 23.075C22.175 23.975 21.1167 24.6875 19.9 25.2125C18.6833 25.7375 17.3833 26 16 26Z" fill="#883700"/>
</g>
</svg>
