<svg width="24" height="24" viewBox="0 0 24 24" fill="none" xmlns="http://www.w3.org/2000/svg">
<mask id="mask0_3165_3444" style="mask-type:alpha" maskUnits="userSpaceOnUse" x="0" y="0" width="24" height="24">
<rect width="24" height="24" fill="#D9D9D9"/>
</mask>
<g mask="url(#mask0_3165_3444)">
<path d="M17.3207 19.8285L15.8024 21.3468C15.5162 21.633 15.1654 21.7792 14.75 21.7854C14.3346 21.7914 13.9777 21.6452 13.6793 21.3468C13.3931 21.0606 13.25 20.7068 13.25 20.2854C13.25 19.8638 13.3931 19.5099 13.6793 19.2237L15.1976 17.6937C15.1022 17.4661 15.0288 17.2284 14.9774 16.9806C14.9258 16.733 14.9 16.4815 14.9 16.2261C14.9 15.1431 15.2792 14.2223 16.0376 13.4637C16.7962 12.7053 17.717 12.3261 18.8 12.3261C18.9646 12.3261 19.1254 12.3311 19.2824 12.3411C19.4392 12.3511 19.5899 12.3823 19.7345 12.4347C19.9315 12.5069 20.0531 12.6488 20.0993 12.8604C20.1453 13.072 20.096 13.2501 19.9514 13.3947L18.8 14.5461C18.58 14.7661 18.4681 15.0442 18.4643 15.3804C18.4605 15.7166 18.5724 15.9985 18.8 16.2261C19.02 16.4461 19.2981 16.5561 19.6343 16.5561C19.9705 16.5561 20.2524 16.4461 20.48 16.2261L21.6314 15.0861C21.776 14.9415 21.956 14.8904 22.1714 14.9328C22.3868 14.975 22.5268 15.0946 22.5914 15.2916C22.6438 15.4362 22.675 15.5889 22.685 15.7497C22.695 15.9103 22.7 16.0691 22.7 16.2261C22.7 17.3091 22.3208 18.2299 21.5624 18.9885C20.8038 19.7469 19.883 20.1261 18.8 20.1261C18.5324 20.1261 18.2759 20.1003 18.0305 20.0487C17.7851 19.9973 17.5485 19.9239 17.3207 19.8285ZM12.2 3.79921C9.86 3.79921 7.875 4.61421 6.245 6.24421C4.615 7.87421 3.8 9.85921 3.8 12.1992C3.8 13.7622 4.1846 15.1803 4.9538 16.4535C5.723 17.7265 6.7384 18.7199 8 19.4337V16.6992C8 16.4438 8.0862 16.23 8.2586 16.0578C8.4308 15.8854 8.6446 15.7992 8.9 15.7992C9.1554 15.7992 9.3692 15.8854 9.5414 16.0578C9.7138 16.23 9.8 16.4438 9.8 16.6992V21.3144C9.8 21.6238 9.6965 21.8819 9.4895 22.0887C9.2827 22.2957 9.0247 22.3992 8.7155 22.3992H4.1C3.8446 22.3992 3.6308 22.313 3.4586 22.1406C3.2862 21.9684 3.2 21.7546 3.2 21.4992C3.2 21.2438 3.2862 21.03 3.4586 20.8578C3.6308 20.6854 3.8446 20.5992 4.1 20.5992H6.5969C5.2109 19.6992 4.0982 18.5165 3.2588 17.0511C2.4196 15.5857 2 13.9684 2 12.1992C2 10.7838 2.2677 9.45771 2.8031 8.22091C3.3385 6.98391 4.0662 5.90541 4.9862 4.98541C5.9062 4.06541 6.9847 3.33771 8.2217 2.80231C9.4585 2.26691 10.7846 1.99921 12.2 1.99921C14.3446 1.99921 16.2719 2.60041 17.9819 3.80281C19.6919 5.00501 20.9238 6.55001 21.6776 8.43781C21.7668 8.67321 21.7668 8.90431 21.6776 9.13111C21.5884 9.35811 21.4261 9.51621 21.1907 9.60541C20.9553 9.69461 20.7211 9.69271 20.4881 9.59971C20.2551 9.50651 20.0939 9.34221 20.0045 9.10681C19.3923 7.53921 18.3873 6.26271 16.9895 5.27731C15.5919 4.29191 13.9954 3.79921 12.2 3.79921Z" fill="currentColor"/>
</g>
</svg>
