<svg width="21" height="21" viewBox="0 0 21 21" fill="none" xmlns="http://www.w3.org/2000/svg">
<path d="M15.3207 17.8285L13.8024 19.3468C13.5162 19.633 13.1654 19.7792 12.75 19.7854C12.3346 19.7914 11.9777 19.6452 11.6793 19.3468C11.3931 19.0606 11.25 18.7068 11.25 18.2854C11.25 17.8638 11.3931 17.5099 11.6793 17.2237L13.1976 15.6937C13.1022 15.4661 13.0288 15.2284 12.9774 14.9806C12.9258 14.733 12.9 14.4815 12.9 14.2261C12.9 13.1431 13.2792 12.2223 14.0376 11.4637C14.7962 10.7053 15.717 10.3261 16.8 10.3261C16.9646 10.3261 17.1254 10.3311 17.2824 10.3411C17.4392 10.3511 17.5899 10.3823 17.7345 10.4347C17.9315 10.5069 18.0531 10.6488 18.0993 10.8604C18.1453 11.072 18.096 11.2501 17.9514 11.3947L16.8 12.5461C16.58 12.7661 16.4681 13.0442 16.4643 13.3804C16.4605 13.7166 16.5724 13.9985 16.8 14.2261C17.02 14.4461 17.2981 14.5561 17.6343 14.5561C17.9705 14.5561 18.2524 14.4461 18.48 14.2261L19.6314 13.0861C19.776 12.9415 19.956 12.8904 20.1714 12.9328C20.3868 12.975 20.5268 13.0946 20.5914 13.2916C20.6438 13.4362 20.675 13.5889 20.685 13.7497C20.695 13.9103 20.7 14.0691 20.7 14.2261C20.7 15.3091 20.3208 16.2299 19.5624 16.9885C18.8038 17.7469 17.883 18.1261 16.8 18.1261C16.5324 18.1261 16.2759 18.1003 16.0305 18.0487C15.7851 17.9973 15.5485 17.9239 15.3207 17.8285ZM10.2 1.79921C7.86 1.79921 5.875 2.61421 4.245 4.24421C2.615 5.87421 1.8 7.85921 1.8 10.1992C1.8 11.7622 2.1846 13.1803 2.9538 14.4535C3.723 15.7265 4.7384 16.7199 6 17.4337V14.6992C6 14.4438 6.0862 14.23 6.2586 14.0578C6.4308 13.8854 6.6446 13.7992 6.9 13.7992C7.1554 13.7992 7.3692 13.8854 7.5414 14.0578C7.7138 14.23 7.8 14.4438 7.8 14.6992V19.3144C7.8 19.6238 7.6965 19.8819 7.4895 20.0887C7.2827 20.2957 7.0247 20.3992 6.7155 20.3992H2.1C1.8446 20.3992 1.6308 20.313 1.4586 20.1406C1.2862 19.9684 1.2 19.7546 1.2 19.4992C1.2 19.2438 1.2862 19.03 1.4586 18.8578C1.6308 18.6854 1.8446 18.5992 2.1 18.5992H4.5969C3.2109 17.6992 2.0982 16.5165 1.2588 15.0511C0.4196 13.5857 0 11.9684 0 10.1992C0 8.78381 0.2677 7.45771 0.8031 6.22091C1.3385 4.98391 2.0662 3.90541 2.9862 2.98541C3.9062 2.06541 4.9847 1.33771 6.2217 0.802307C7.4585 0.266907 8.7846 -0.000793457 10.2 -0.000793457C12.3446 -0.000793457 14.2719 0.600406 15.9819 1.80281C17.6919 3.00501 18.9238 4.55001 19.6776 6.43781C19.7668 6.67321 19.7668 6.90431 19.6776 7.13111C19.5884 7.35811 19.4261 7.51621 19.1907 7.60541C18.9553 7.69461 18.7211 7.69271 18.4881 7.59971C18.2551 7.50651 18.0939 7.34221 18.0045 7.10681C17.3923 5.53921 16.3873 4.26271 14.9895 3.27731C13.5919 2.29191 11.9954 1.79921 10.2 1.79921Z" fill="#B20A2F"/>
</svg>
