<?xml version="1.0" encoding="UTF-8" standalone="no"?>
<!DOCTYPE svg PUBLIC "-//W3C//DTD SVG 1.1//EN"
 "http://www.w3.org/Graphics/SVG/1.1/DTD/svg11.dtd">
<!-- Generated by graphviz version 2.47.0 (20210316.0004)
 -->
<!-- Title: dependencies Pages: 1 -->
<svg width="610pt" height="284pt"
 viewBox="0.00 0.00 610.00 284.00" xmlns="http://www.w3.org/2000/svg" xmlns:xlink="http://www.w3.org/1999/xlink">
<g id="graph0" class="graph" transform="scale(1 1) rotate(0) translate(4 280)">
<title>dependencies</title>
<polygon fill="white" stroke="transparent" points="-4,4 -4,-280 606,-280 606,4 -4,4"/>
<text text-anchor="start" x="280.01" y="-42.4" font-family="Times-12" font-weight="bold" font-size="14.00">Legend</text>
<polygon fill="#ffffb3" stroke="transparent" points="67,-10 67,-30 87,-30 87,-10 67,-10"/>
<text text-anchor="start" x="90.63" y="-15.4" font-family="Times-12" font-size="14.00"> &#160;Declarations</text>
<polygon fill="#8dd3c7" stroke="transparent" points="180,-10 180,-30 200,-30 200,-10 180,-10"/>
<text text-anchor="start" x="203.73" y="-15.4" font-family="Times-12" font-size="14.00"> &#160;Module</text>
<polygon fill="#80b1d3" stroke="transparent" points="266,-10 266,-30 286,-30 286,-10 266,-10"/>
<text text-anchor="start" x="289.78" y="-15.4" font-family="Times-12" font-size="14.00"> &#160;Bootstrap</text>
<polygon fill="#fdb462" stroke="transparent" points="363,-10 363,-30 383,-30 383,-10 363,-10"/>
<text text-anchor="start" x="386.67" y="-15.4" font-family="Times-12" font-size="14.00"> &#160;Providers</text>
<polygon fill="#fb8072" stroke="transparent" points="459,-10 459,-30 479,-30 479,-10 459,-10"/>
<text text-anchor="start" x="482.73" y="-15.4" font-family="Times-12" font-size="14.00"> &#160;Exports</text>
<g id="clust1" class="cluster">
<title>cluster_UploadModule</title>
<polygon fill="none" stroke="black" stroke-dasharray="1,5" points="8,-70 8,-268 594,-268 594,-70 8,-70"/>
</g>
<g id="clust4" class="cluster">
<title>cluster_UploadModule_imports</title>
<polygon fill="none" stroke="black" points="162,-78 162,-130 586,-130 586,-78 162,-78"/>
</g>
<g id="clust5" class="cluster">
<title>cluster_UploadModule_exports</title>
<polygon fill="none" stroke="black" points="222,-208 222,-260 364,-260 364,-208 222,-208"/>
</g>
<g id="clust2" class="cluster">
<title>cluster_UploadModule_declarations</title>
<polygon fill="none" stroke="black" points="16,-78 16,-130 154,-130 154,-78 16,-78"/>
</g>
<!-- UploadComponent -->
<g id="node1" class="node">
<title>UploadComponent</title>
<polygon fill="#ffffb3" stroke="black" points="146.05,-122 23.95,-122 23.95,-86 146.05,-86 146.05,-122"/>
<text text-anchor="middle" x="85" y="-99.8" font-family="Times,serif" font-size="14.00">UploadComponent</text>
</g>
<!-- UploadModule -->
<g id="node2" class="node">
<title>UploadModule</title>
<polygon fill="#8dd3c7" stroke="black" points="343.26,-187 340.26,-191 319.26,-191 316.26,-187 242.74,-187 242.74,-151 343.26,-151 343.26,-187"/>
<text text-anchor="middle" x="293" y="-164.8" font-family="Times,serif" font-size="14.00">UploadModule</text>
</g>
<!-- UploadComponent&#45;&gt;UploadModule -->
<g id="edge1" class="edge">
<title>UploadComponent&#45;&gt;UploadModule</title>
<path fill="none" stroke="black" d="M85,-122.11C85,-141.34 85,-169 85,-169 85,-169 232.65,-169 232.65,-169"/>
<polygon fill="black" stroke="black" points="232.65,-172.5 242.65,-169 232.65,-165.5 232.65,-172.5"/>
</g>
<!-- UploadComponent  -->
<g id="node6" class="node">
<title>UploadComponent </title>
<polygon fill="#fb8072" stroke="black" points="356.04,-252 229.96,-252 229.96,-216 356.04,-216 356.04,-252"/>
<text text-anchor="middle" x="293" y="-229.8" font-family="Times,serif" font-size="14.00">UploadComponent </text>
</g>
<!-- UploadModule&#45;&gt;UploadComponent  -->
<g id="edge5" class="edge">
<title>UploadModule&#45;&gt;UploadComponent </title>
<path fill="none" stroke="black" stroke-dasharray="5,2" d="M293,-187.11C293,-187.11 293,-205.99 293,-205.99"/>
<polygon fill="black" stroke="black" points="289.5,-205.99 293,-215.99 296.5,-205.99 289.5,-205.99"/>
</g>
<!-- FileUploadModule -->
<g id="node3" class="node">
<title>FileUploadModule</title>
<polygon fill="#8dd3c7" stroke="black" points="578.04,-122 575.04,-126 554.04,-126 551.04,-122 455.96,-122 455.96,-86 578.04,-86 578.04,-122"/>
<text text-anchor="middle" x="517" y="-99.8" font-family="Times,serif" font-size="14.00">FileUploadModule</text>
</g>
<!-- FileUploadModule&#45;&gt;UploadModule -->
<g id="edge2" class="edge">
<title>FileUploadModule&#45;&gt;UploadModule</title>
<path fill="none" stroke="black" d="M517,-122.11C517,-141.34 517,-169 517,-169 517,-169 353.27,-169 353.27,-169"/>
<polygon fill="black" stroke="black" points="353.27,-165.5 343.27,-169 353.27,-172.5 353.27,-165.5"/>
</g>
<!-- SidenavHeaderModule -->
<g id="node4" class="node">
<title>SidenavHeaderModule</title>
<polygon fill="#8dd3c7" stroke="black" points="437.56,-122 434.56,-126 413.56,-126 410.56,-122 292.44,-122 292.44,-86 437.56,-86 437.56,-122"/>
<text text-anchor="middle" x="365" y="-99.8" font-family="Times,serif" font-size="14.00">SidenavHeaderModule</text>
</g>
<!-- SidenavHeaderModule&#45;&gt;UploadModule -->
<g id="edge3" class="edge">
<title>SidenavHeaderModule&#45;&gt;UploadModule</title>
<path fill="none" stroke="black" d="M317.92,-122.11C317.92,-122.11 317.92,-140.99 317.92,-140.99"/>
<polygon fill="black" stroke="black" points="314.42,-140.99 317.92,-150.99 321.42,-140.99 314.42,-140.99"/>
</g>
<!-- SidenavModule -->
<g id="node5" class="node">
<title>SidenavModule</title>
<polygon fill="#8dd3c7" stroke="black" points="274.15,-122 271.15,-126 250.15,-126 247.15,-122 169.85,-122 169.85,-86 274.15,-86 274.15,-122"/>
<text text-anchor="middle" x="222" y="-99.8" font-family="Times,serif" font-size="14.00">SidenavModule</text>
</g>
<!-- SidenavModule&#45;&gt;UploadModule -->
<g id="edge4" class="edge">
<title>SidenavModule&#45;&gt;UploadModule</title>
<path fill="none" stroke="black" d="M258.47,-122.11C258.47,-122.11 258.47,-140.99 258.47,-140.99"/>
<polygon fill="black" stroke="black" points="254.97,-140.99 258.47,-150.99 261.97,-140.99 254.97,-140.99"/>
</g>
</g>
</svg>
