<?xml version="1.0" encoding="UTF-8" standalone="no"?>
<!DOCTYPE svg PUBLIC "-//W3C//DTD SVG 1.1//EN"
 "http://www.w3.org/Graphics/SVG/1.1/DTD/svg11.dtd">
<!-- Generated by graphviz version 2.47.0 (20210316.0004)
 -->
<!-- Title: dependencies Pages: 1 -->
<svg width="3079pt" height="382pt"
 viewBox="0.00 0.00 3079.00 382.00" xmlns="http://www.w3.org/2000/svg" xmlns:xlink="http://www.w3.org/1999/xlink">
<g id="graph0" class="graph" transform="scale(1 1) rotate(0) translate(4 378)">
<title>dependencies</title>
<polygon fill="white" stroke="transparent" points="-4,4 -4,-378 3075,-378 3075,4 -4,4"/>
<text text-anchor="start" x="1514.51" y="-42.4" font-family="Times-12" font-weight="bold" font-size="14.00">Legend</text>
<polygon fill="#ffffb3" stroke="transparent" points="1301.5,-10 1301.5,-30 1321.5,-30 1321.5,-10 1301.5,-10"/>
<text text-anchor="start" x="1325.13" y="-15.4" font-family="Times-12" font-size="14.00"> &#160;Declarations</text>
<polygon fill="#8dd3c7" stroke="transparent" points="1414.5,-10 1414.5,-30 1434.5,-30 1434.5,-10 1414.5,-10"/>
<text text-anchor="start" x="1438.23" y="-15.4" font-family="Times-12" font-size="14.00"> &#160;Module</text>
<polygon fill="#80b1d3" stroke="transparent" points="1500.5,-10 1500.5,-30 1520.5,-30 1520.5,-10 1500.5,-10"/>
<text text-anchor="start" x="1524.28" y="-15.4" font-family="Times-12" font-size="14.00"> &#160;Bootstrap</text>
<polygon fill="#fdb462" stroke="transparent" points="1597.5,-10 1597.5,-30 1617.5,-30 1617.5,-10 1597.5,-10"/>
<text text-anchor="start" x="1621.17" y="-15.4" font-family="Times-12" font-size="14.00"> &#160;Providers</text>
<polygon fill="#fb8072" stroke="transparent" points="1693.5,-10 1693.5,-30 1713.5,-30 1713.5,-10 1693.5,-10"/>
<text text-anchor="start" x="1717.23" y="-15.4" font-family="Times-12" font-size="14.00"> &#160;Exports</text>
<g id="clust1" class="cluster">
<title>cluster_AppModule</title>
<polygon fill="none" stroke="black" stroke-dasharray="1,5" points="473,-222 473,-358 1289,-358 1289,-222 473,-222"/>
</g>
<g id="clust2" class="cluster">
<title>cluster_AppModule_declarations</title>
<polygon fill="none" stroke="black" points="481,-230 481,-282 753,-282 753,-230 481,-230"/>
</g>
<g id="clust5" class="cluster">
<title>cluster_AppModule_imports</title>
<polygon fill="none" stroke="black" points="761,-230 761,-282 1281,-282 1281,-230 761,-230"/>
</g>
<g id="clust9" class="cluster">
<title>cluster_BlockSizeInputModule</title>
<polygon fill="none" stroke="black" stroke-dasharray="1,5" points="8,-70 8,-290 212,-290 212,-70 8,-70"/>
</g>
<g id="clust10" class="cluster">
<title>cluster_BlockSizeInputModule_declarations</title>
<polygon fill="none" stroke="black" points="19,-78 19,-130 203,-130 203,-78 19,-78"/>
</g>
<g id="clust13" class="cluster">
<title>cluster_BlockSizeInputModule_exports</title>
<polygon fill="none" stroke="black" points="16,-230 16,-282 204,-282 204,-230 16,-230"/>
</g>
<g id="clust22" class="cluster">
<title>cluster_ContentModule</title>
<polygon fill="none" stroke="black" stroke-dasharray="1,5" points="1297,-298 1297,-366 1609,-366 1609,-298 1297,-298"/>
</g>
<g id="clust23" class="cluster">
<title>cluster_ContentModule_declarations</title>
<polygon fill="none" stroke="black" points="1459,-306 1459,-358 1601,-358 1601,-306 1459,-306"/>
</g>
<g id="clust26" class="cluster">
<title>cluster_ContentModule_exports</title>
<polygon fill="none" stroke="black" points="1305,-306 1305,-358 1451,-358 1451,-306 1305,-306"/>
</g>
<g id="clust29" class="cluster">
<title>cluster_CoreModule</title>
<polygon fill="none" stroke="black" stroke-dasharray="1,5" points="220,-146 220,-214 458,-214 458,-146 220,-146"/>
</g>
<g id="clust31" class="cluster">
<title>cluster_CoreModule_imports</title>
<polygon fill="none" stroke="black" points="228,-154 228,-206 450,-206 450,-154 228,-154"/>
</g>
<g id="clust35" class="cluster">
<title>cluster_LeftSidebarModule</title>
<polygon fill="none" stroke="black" stroke-dasharray="1,5" points="466,-146 466,-214 1010,-214 1010,-146 466,-146"/>
</g>
<g id="clust36" class="cluster">
<title>cluster_LeftSidebarModule_declarations</title>
<polygon fill="none" stroke="black" points="838,-154 838,-206 1002,-206 1002,-154 838,-154"/>
</g>
<g id="clust38" class="cluster">
<title>cluster_LeftSidebarModule_imports</title>
<polygon fill="none" stroke="black" points="648,-154 648,-206 830,-206 830,-154 648,-154"/>
</g>
<g id="clust39" class="cluster">
<title>cluster_LeftSidebarModule_exports</title>
<polygon fill="none" stroke="black" points="474,-154 474,-206 640,-206 640,-154 474,-154"/>
</g>
<g id="clust42" class="cluster">
<title>cluster_ReviewButtonModule</title>
<polygon fill="none" stroke="black" stroke-dasharray="1,5" points="2319,-70 2319,-290 2675,-290 2675,-70 2319,-70"/>
</g>
<g id="clust43" class="cluster">
<title>cluster_ReviewButtonModule_declarations</title>
<polygon fill="none" stroke="black" points="2327,-78 2327,-130 2505,-130 2505,-78 2327,-78"/>
</g>
<g id="clust45" class="cluster">
<title>cluster_ReviewButtonModule_imports</title>
<polygon fill="none" stroke="black" points="2513,-78 2513,-130 2667,-130 2667,-78 2513,-78"/>
</g>
<g id="clust46" class="cluster">
<title>cluster_ReviewButtonModule_exports</title>
<polygon fill="none" stroke="black" points="2327,-230 2327,-282 2509,-282 2509,-230 2327,-230"/>
</g>
<g id="clust49" class="cluster">
<title>cluster_ReviewModalModule</title>
<polygon fill="none" stroke="black" stroke-dasharray="1,5" points="2683,-146 2683,-214 3063,-214 3063,-146 2683,-146"/>
</g>
<g id="clust50" class="cluster">
<title>cluster_ReviewModalModule_declarations</title>
<polygon fill="none" stroke="black" points="2879,-154 2879,-206 3055,-206 3055,-154 2879,-154"/>
</g>
<g id="clust53" class="cluster">
<title>cluster_ReviewModalModule_exports</title>
<polygon fill="none" stroke="black" points="2691,-154 2691,-206 2871,-206 2871,-154 2691,-154"/>
</g>
<g id="clust56" class="cluster">
<title>cluster_RightSidebarModule</title>
<polygon fill="none" stroke="black" stroke-dasharray="1,5" points="1018,-146 1018,-214 1953,-214 1953,-146 1018,-146"/>
</g>
<g id="clust57" class="cluster">
<title>cluster_RightSidebarModule_declarations</title>
<polygon fill="none" stroke="black" points="1208,-154 1208,-206 1380,-206 1380,-154 1208,-154"/>
</g>
<g id="clust59" class="cluster">
<title>cluster_RightSidebarModule_imports</title>
<polygon fill="none" stroke="black" points="1388,-154 1388,-206 1945,-206 1945,-154 1388,-154"/>
</g>
<g id="clust60" class="cluster">
<title>cluster_RightSidebarModule_exports</title>
<polygon fill="none" stroke="black" points="1026,-154 1026,-206 1200,-206 1200,-154 1026,-154"/>
</g>
<g id="clust63" class="cluster">
<title>cluster_RotationSliderModule</title>
<polygon fill="none" stroke="black" stroke-dasharray="1,5" points="1368,-70 1368,-138 1892,-138 1892,-70 1368,-70"/>
</g>
<g id="clust64" class="cluster">
<title>cluster_RotationSliderModule_declarations</title>
<polygon fill="none" stroke="black" points="1566,-78 1566,-130 1744,-130 1744,-78 1566,-78"/>
</g>
<g id="clust66" class="cluster">
<title>cluster_RotationSliderModule_imports</title>
<polygon fill="none" stroke="black" points="1752,-78 1752,-130 1884,-130 1884,-78 1752,-78"/>
</g>
<g id="clust67" class="cluster">
<title>cluster_RotationSliderModule_exports</title>
<polygon fill="none" stroke="black" points="1376,-78 1376,-130 1558,-130 1558,-78 1376,-78"/>
</g>
<g id="clust70" class="cluster">
<title>cluster_SlicesInputModule</title>
<polygon fill="none" stroke="black" stroke-dasharray="1,5" points="1297,-222 1297,-290 1645,-290 1645,-222 1297,-222"/>
</g>
<g id="clust71" class="cluster">
<title>cluster_SlicesInputModule_declarations</title>
<polygon fill="none" stroke="black" points="1477,-230 1477,-282 1637,-282 1637,-230 1477,-230"/>
</g>
<g id="clust74" class="cluster">
<title>cluster_SlicesInputModule_exports</title>
<polygon fill="none" stroke="black" points="1305,-230 1305,-282 1469,-282 1469,-230 1305,-230"/>
</g>
<g id="clust77" class="cluster">
<title>cluster_SliderBoxModule</title>
<polygon fill="none" stroke="black" stroke-dasharray="1,5" points="1961,-146 1961,-214 2297,-214 2297,-146 1961,-146"/>
</g>
<g id="clust78" class="cluster">
<title>cluster_SliderBoxModule_declarations</title>
<polygon fill="none" stroke="black" points="2135,-154 2135,-206 2289,-206 2289,-154 2135,-154"/>
</g>
<g id="clust81" class="cluster">
<title>cluster_SliderBoxModule_exports</title>
<polygon fill="none" stroke="black" points="1969,-154 1969,-206 2127,-206 2127,-154 1969,-154"/>
</g>
<g id="clust90" class="cluster">
<title>cluster_TagListModule</title>
<polygon fill="none" stroke="black" stroke-dasharray="1,5" points="1653,-222 1653,-290 1961,-290 1961,-222 1653,-222"/>
</g>
<g id="clust91" class="cluster">
<title>cluster_TagListModule_declarations</title>
<polygon fill="none" stroke="black" points="1813,-230 1813,-282 1953,-282 1953,-230 1813,-230"/>
</g>
<g id="clust94" class="cluster">
<title>cluster_TagListModule_exports</title>
<polygon fill="none" stroke="black" points="1661,-230 1661,-282 1805,-282 1805,-230 1661,-230"/>
</g>
<g id="clust97" class="cluster">
<title>cluster_TagSearchModule</title>
<polygon fill="none" stroke="black" stroke-dasharray="1,5" points="1969,-222 1969,-290 2311,-290 2311,-222 1969,-222"/>
</g>
<g id="clust98" class="cluster">
<title>cluster_TagSearchModule_declarations</title>
<polygon fill="none" stroke="black" points="2145,-230 2145,-282 2303,-282 2303,-230 2145,-230"/>
</g>
<g id="clust101" class="cluster">
<title>cluster_TagSearchModule_exports</title>
<polygon fill="none" stroke="black" points="1977,-230 1977,-282 2137,-282 2137,-230 1977,-230"/>
</g>
<!-- AppComponent -->
<g id="node1" class="node">
<title>AppComponent</title>
<polygon fill="#ffffb3" stroke="black" points="744.94,-274 639.06,-274 639.06,-238 744.94,-238 744.94,-274"/>
<text text-anchor="middle" x="692" y="-251.8" font-family="Times,serif" font-size="14.00">AppComponent</text>
</g>
<!-- AppModule -->
<g id="node3" class="node">
<title>AppModule</title>
<polygon fill="#8dd3c7" stroke="black" points="915.66,-350 912.66,-354 891.66,-354 888.66,-350 832.34,-350 832.34,-314 915.66,-314 915.66,-350"/>
<text text-anchor="middle" x="874" y="-327.8" font-family="Times,serif" font-size="14.00">AppModule</text>
</g>
<!-- AppComponent&#45;&gt;AppModule -->
<g id="edge1" class="edge">
<title>AppComponent&#45;&gt;AppModule</title>
<path fill="none" stroke="black" d="M692,-274.03C692,-294.77 692,-326 692,-326 692,-326 822.25,-326 822.25,-326"/>
<polygon fill="black" stroke="black" points="822.25,-329.5 832.25,-326 822.25,-322.5 822.25,-329.5"/>
</g>
<!-- AppWebComponent -->
<g id="node2" class="node">
<title>AppWebComponent</title>
<polygon fill="#ffffb3" stroke="black" points="620.87,-274 489.13,-274 489.13,-238 620.87,-238 620.87,-274"/>
<text text-anchor="middle" x="555" y="-251.8" font-family="Times,serif" font-size="14.00">AppWebComponent</text>
</g>
<!-- AppWebComponent&#45;&gt;AppModule -->
<g id="edge2" class="edge">
<title>AppWebComponent&#45;&gt;AppModule</title>
<path fill="none" stroke="black" d="M555,-274.2C555,-298.36 555,-338 555,-338 555,-338 822.3,-338 822.3,-338"/>
<polygon fill="black" stroke="black" points="822.3,-341.5 832.3,-338 822.3,-334.5 822.3,-341.5"/>
</g>
<!-- ContentModule -->
<g id="node4" class="node">
<title>ContentModule</title>
<polygon fill="#8dd3c7" stroke="black" points="1272.88,-274 1269.88,-278 1248.88,-278 1245.88,-274 1169.12,-274 1169.12,-238 1272.88,-238 1272.88,-274"/>
<text text-anchor="middle" x="1221" y="-251.8" font-family="Times,serif" font-size="14.00">ContentModule</text>
</g>
<!-- ContentModule&#45;&gt;AppModule -->
<g id="edge3" class="edge">
<title>ContentModule&#45;&gt;AppModule</title>
<path fill="none" stroke="black" d="M1195.03,-274.01C1195.03,-296.49 1195.03,-332 1195.03,-332 1195.03,-332 925.97,-332 925.97,-332"/>
<polygon fill="black" stroke="black" points="925.97,-328.5 915.97,-332 925.97,-335.5 925.97,-328.5"/>
</g>
<!-- ContentComponent  -->
<g id="node12" class="node">
<title>ContentComponent </title>
<polygon fill="#fb8072" stroke="black" points="1442.66,-350 1313.34,-350 1313.34,-314 1442.66,-314 1442.66,-350"/>
<text text-anchor="middle" x="1378" y="-327.8" font-family="Times,serif" font-size="14.00">ContentComponent </text>
</g>
<!-- ContentModule&#45;&gt;ContentComponent  -->
<g id="edge10" class="edge">
<title>ContentModule&#45;&gt;ContentComponent </title>
<path fill="none" stroke="black" stroke-dasharray="5,2" d="M1246.97,-274.03C1246.97,-298.98 1246.97,-341 1246.97,-341 1246.97,-341 1303.25,-341 1303.25,-341"/>
<polygon fill="black" stroke="black" points="1303.25,-344.5 1313.25,-341 1303.25,-337.5 1303.25,-344.5"/>
</g>
<!-- CoreModule -->
<g id="node5" class="node">
<title>CoreModule</title>
<polygon fill="#8dd3c7" stroke="black" points="855.26,-274 852.26,-278 831.26,-278 828.26,-274 768.74,-274 768.74,-238 855.26,-238 855.26,-274"/>
<text text-anchor="middle" x="812" y="-251.8" font-family="Times,serif" font-size="14.00">CoreModule</text>
</g>
<!-- CoreModule&#45;&gt;AppModule -->
<g id="edge4" class="edge">
<title>CoreModule&#45;&gt;AppModule</title>
<path fill="none" stroke="black" d="M843.78,-274.01C843.78,-274.01 843.78,-303.85 843.78,-303.85"/>
<polygon fill="black" stroke="black" points="840.28,-303.85 843.78,-313.85 847.28,-303.85 840.28,-303.85"/>
</g>
<!-- LeftSidebarModule -->
<g id="node6" class="node">
<title>LeftSidebarModule</title>
<polygon fill="#8dd3c7" stroke="black" points="998.63,-274 995.63,-278 974.63,-278 971.63,-274 873.37,-274 873.37,-238 998.63,-238 998.63,-274"/>
<text text-anchor="middle" x="936" y="-251.8" font-family="Times,serif" font-size="14.00">LeftSidebarModule</text>
</g>
<!-- LeftSidebarModule&#45;&gt;AppModule -->
<g id="edge5" class="edge">
<title>LeftSidebarModule&#45;&gt;AppModule</title>
<path fill="none" stroke="black" d="M894.51,-274.01C894.51,-274.01 894.51,-303.85 894.51,-303.85"/>
<polygon fill="black" stroke="black" points="891.01,-303.85 894.51,-313.85 898.01,-303.85 891.01,-303.85"/>
</g>
<!-- LeftSidebarComponent  -->
<g id="node17" class="node">
<title>LeftSidebarComponent </title>
<polygon fill="#fb8072" stroke="black" points="632.41,-198 481.59,-198 481.59,-162 632.41,-162 632.41,-198"/>
<text text-anchor="middle" x="557" y="-175.8" font-family="Times,serif" font-size="14.00">LeftSidebarComponent </text>
</g>
<!-- LeftSidebarModule&#45;&gt;LeftSidebarComponent  -->
<g id="edge15" class="edge">
<title>LeftSidebarModule&#45;&gt;LeftSidebarComponent </title>
<path fill="none" stroke="black" stroke-dasharray="5,2" d="M903.32,-237.94C903.32,-233.51 903.32,-230 903.32,-230 903.32,-230 626.7,-230 626.7,-230 626.7,-230 626.7,-208.05 626.7,-208.05"/>
<polygon fill="black" stroke="black" points="630.2,-208.05 626.7,-198.05 623.2,-208.05 630.2,-208.05"/>
</g>
<!-- RightSidebarModule -->
<g id="node7" class="node">
<title>RightSidebarModule</title>
<polygon fill="#8dd3c7" stroke="black" points="1150.93,-274 1147.93,-278 1126.93,-278 1123.93,-274 1017.07,-274 1017.07,-238 1150.93,-238 1150.93,-274"/>
<text text-anchor="middle" x="1084" y="-251.8" font-family="Times,serif" font-size="14.00">RightSidebarModule</text>
</g>
<!-- RightSidebarModule&#45;&gt;AppModule -->
<g id="edge6" class="edge">
<title>RightSidebarModule&#45;&gt;AppModule</title>
<path fill="none" stroke="black" d="M1084,-274.31C1084,-294.15 1084,-323 1084,-323 1084,-323 925.74,-323 925.74,-323"/>
<polygon fill="black" stroke="black" points="925.74,-319.5 915.74,-323 925.74,-326.5 925.74,-319.5"/>
</g>
<!-- RightSidebarComponent  -->
<g id="node29" class="node">
<title>RightSidebarComponent </title>
<polygon fill="#fb8072" stroke="black" points="1192.21,-198 1033.79,-198 1033.79,-162 1192.21,-162 1192.21,-198"/>
<text text-anchor="middle" x="1113" y="-175.8" font-family="Times,serif" font-size="14.00">RightSidebarComponent </text>
</g>
<!-- RightSidebarModule&#45;&gt;RightSidebarComponent  -->
<g id="edge28" class="edge">
<title>RightSidebarModule&#45;&gt;RightSidebarComponent </title>
<path fill="none" stroke="black" stroke-dasharray="5,2" d="M1048.28,-237.99C1048.28,-237.99 1048.28,-208.15 1048.28,-208.15"/>
<polygon fill="black" stroke="black" points="1051.78,-208.15 1048.28,-198.15 1044.78,-208.15 1051.78,-208.15"/>
</g>
<!-- BlockSizeInputComponent -->
<g id="node8" class="node">
<title>BlockSizeInputComponent</title>
<polygon fill="#ffffb3" stroke="black" points="195.43,-122 26.57,-122 26.57,-86 195.43,-86 195.43,-122"/>
<text text-anchor="middle" x="111" y="-99.8" font-family="Times,serif" font-size="14.00">BlockSizeInputComponent</text>
</g>
<!-- BlockSizeInputModule -->
<g id="node9" class="node">
<title>BlockSizeInputModule</title>
<polygon fill="#8dd3c7" stroke="black" points="184.15,-198 181.15,-202 160.15,-202 157.15,-198 37.85,-198 37.85,-162 184.15,-162 184.15,-198"/>
<text text-anchor="middle" x="111" y="-175.8" font-family="Times,serif" font-size="14.00">BlockSizeInputModule</text>
</g>
<!-- BlockSizeInputComponent&#45;&gt;BlockSizeInputModule -->
<g id="edge7" class="edge">
<title>BlockSizeInputComponent&#45;&gt;BlockSizeInputModule</title>
<path fill="none" stroke="black" d="M111,-122.01C111,-122.01 111,-151.85 111,-151.85"/>
<polygon fill="black" stroke="black" points="107.5,-151.85 111,-161.85 114.5,-151.85 107.5,-151.85"/>
</g>
<!-- BlockSizeInputModule&#45;&gt;RightSidebarModule -->
<g id="edge22" class="edge">
<title>BlockSizeInputModule&#45;&gt;RightSidebarModule</title>
<path fill="none" stroke="black" d="M135.44,-198.08C135.44,-199.85 135.44,-201 135.44,-201 135.44,-201 1025.46,-201 1025.46,-201 1025.46,-201 1025.46,-227.99 1025.46,-227.99"/>
<polygon fill="black" stroke="black" points="1021.96,-227.99 1025.46,-237.99 1028.96,-227.99 1021.96,-227.99"/>
</g>
<!-- BlockSizeInputComponent  -->
<g id="node10" class="node">
<title>BlockSizeInputComponent </title>
<polygon fill="#fb8072" stroke="black" points="195.93,-274 24.07,-274 24.07,-238 195.93,-238 195.93,-274"/>
<text text-anchor="middle" x="110" y="-251.8" font-family="Times,serif" font-size="14.00">BlockSizeInputComponent </text>
</g>
<!-- BlockSizeInputModule&#45;&gt;BlockSizeInputComponent  -->
<g id="edge8" class="edge">
<title>BlockSizeInputModule&#45;&gt;BlockSizeInputComponent </title>
<path fill="none" stroke="black" stroke-dasharray="5,2" d="M86.56,-198.01C86.56,-198.01 86.56,-227.85 86.56,-227.85"/>
<polygon fill="black" stroke="black" points="83.06,-227.85 86.56,-237.85 90.06,-227.85 83.06,-227.85"/>
</g>
<!-- ContentComponent -->
<g id="node11" class="node">
<title>ContentComponent</title>
<polygon fill="#ffffb3" stroke="black" points="1592.67,-350 1467.33,-350 1467.33,-314 1592.67,-314 1592.67,-350"/>
<text text-anchor="middle" x="1530" y="-327.8" font-family="Times,serif" font-size="14.00">ContentComponent</text>
</g>
<!-- ContentComponent&#45;&gt;ContentModule -->
<g id="edge9" class="edge">
<title>ContentComponent&#45;&gt;ContentModule</title>
<path fill="none" stroke="black" d="M1476,-313.89C1476,-304.1 1476,-294 1476,-294 1476,-294 1221,-294 1221,-294 1221,-294 1221,-284.11 1221,-284.11"/>
<polygon fill="black" stroke="black" points="1224.5,-284.11 1221,-274.11 1217.5,-284.11 1224.5,-284.11"/>
</g>
<!-- ConfigModule -->
<g id="node13" class="node">
<title>ConfigModule</title>
<polygon fill="#8dd3c7" stroke="black" points="442.44,-198 439.44,-202 418.44,-202 415.44,-198 343.56,-198 343.56,-162 442.44,-162 442.44,-198"/>
<text text-anchor="middle" x="393" y="-175.8" font-family="Times,serif" font-size="14.00">ConfigModule</text>
</g>
<!-- ConfigModule&#45;&gt;CoreModule -->
<g id="edge11" class="edge">
<title>ConfigModule&#45;&gt;CoreModule</title>
<path fill="none" stroke="black" d="M393,-198.24C393,-213.57 393,-233 393,-233 393,-233 795.53,-233 795.53,-233 795.53,-233 795.53,-233.49 795.53,-233.49"/>
<polygon fill="black" stroke="black" points="792.03,-227.88 795.53,-237.88 799.03,-227.88 792.03,-227.88"/>
</g>
<!-- StoreModule -->
<g id="node14" class="node">
<title>StoreModule</title>
<polygon fill="#8dd3c7" stroke="black" points="325.6,-198 322.6,-202 301.6,-202 298.6,-198 236.4,-198 236.4,-162 325.6,-162 325.6,-198"/>
<text text-anchor="middle" x="281" y="-175.8" font-family="Times,serif" font-size="14.00">StoreModule</text>
</g>
<!-- StoreModule&#45;&gt;CoreModule -->
<g id="edge12" class="edge">
<title>StoreModule&#45;&gt;CoreModule</title>
<path fill="none" stroke="black" d="M281,-198.03C281,-214.4 281,-236 281,-236 281,-236 782.08,-236 782.08,-236 782.08,-236 782.08,-236.18 782.08,-236.18"/>
<polygon fill="black" stroke="black" points="778.58,-227.85 782.08,-237.85 785.58,-227.85 778.58,-227.85"/>
</g>
<!-- LeftSidebarComponent -->
<g id="node15" class="node">
<title>LeftSidebarComponent</title>
<polygon fill="#ffffb3" stroke="black" points="993.91,-198 846.09,-198 846.09,-162 993.91,-162 993.91,-198"/>
<text text-anchor="middle" x="920" y="-175.8" font-family="Times,serif" font-size="14.00">LeftSidebarComponent</text>
</g>
<!-- LeftSidebarComponent&#45;&gt;LeftSidebarModule -->
<g id="edge13" class="edge">
<title>LeftSidebarComponent&#45;&gt;LeftSidebarModule</title>
<path fill="none" stroke="black" d="M963.58,-198.01C963.58,-198.01 963.58,-227.85 963.58,-227.85"/>
<polygon fill="black" stroke="black" points="960.08,-227.85 963.58,-237.85 967.08,-227.85 960.08,-227.85"/>
</g>
<!-- VisibilityMenuComponent -->
<g id="node16" class="node">
<title>VisibilityMenuComponent</title>
<polygon fill="#8dd3c7" stroke="black" points="822.39,-198 819.39,-202 798.39,-202 795.39,-198 655.61,-198 655.61,-162 822.39,-162 822.39,-198"/>
<text text-anchor="middle" x="739" y="-175.8" font-family="Times,serif" font-size="14.00">VisibilityMenuComponent</text>
</g>
<!-- VisibilityMenuComponent&#45;&gt;LeftSidebarModule -->
<g id="edge14" class="edge">
<title>VisibilityMenuComponent&#45;&gt;LeftSidebarModule</title>
<path fill="none" stroke="black" d="M808.99,-198.04C808.99,-211.29 808.99,-227 808.99,-227 808.99,-227 933.45,-227 933.45,-227 933.45,-227 933.45,-228.08 933.45,-228.08"/>
<polygon fill="black" stroke="black" points="929.95,-227.8 933.45,-237.8 936.95,-227.8 929.95,-227.8"/>
</g>
<!-- ReviewButtonComponent -->
<g id="node18" class="node">
<title>ReviewButtonComponent</title>
<polygon fill="#ffffb3" stroke="black" points="2497.21,-122 2334.79,-122 2334.79,-86 2497.21,-86 2497.21,-122"/>
<text text-anchor="middle" x="2416" y="-99.8" font-family="Times,serif" font-size="14.00">ReviewButtonComponent</text>
</g>
<!-- ReviewButtonModule -->
<g id="node19" class="node">
<title>ReviewButtonModule</title>
<polygon fill="#8dd3c7" stroke="black" points="2487.43,-198 2484.43,-202 2463.43,-202 2460.43,-198 2346.57,-198 2346.57,-162 2487.43,-162 2487.43,-198"/>
<text text-anchor="middle" x="2417" y="-175.8" font-family="Times,serif" font-size="14.00">ReviewButtonModule</text>
</g>
<!-- ReviewButtonComponent&#45;&gt;ReviewButtonModule -->
<g id="edge16" class="edge">
<title>ReviewButtonComponent&#45;&gt;ReviewButtonModule</title>
<path fill="none" stroke="black" d="M2417,-122.01C2417,-122.01 2417,-151.85 2417,-151.85"/>
<polygon fill="black" stroke="black" points="2413.5,-151.85 2417,-161.85 2420.5,-151.85 2413.5,-151.85"/>
</g>
<!-- ReviewButtonModule&#45;&gt;RightSidebarModule -->
<g id="edge23" class="edge">
<title>ReviewButtonModule&#45;&gt;RightSidebarModule</title>
<path fill="none" stroke="black" d="M2393.59,-198.1C2393.59,-209.09 2393.59,-221 2393.59,-221 2393.59,-221 1136.08,-221 1136.08,-221 1136.08,-221 1136.08,-227.68 1136.08,-227.68"/>
<polygon fill="black" stroke="black" points="1132.58,-227.68 1136.08,-237.68 1139.58,-227.68 1132.58,-227.68"/>
</g>
<!-- ReviewButtonComponent  -->
<g id="node21" class="node">
<title>ReviewButtonComponent </title>
<polygon fill="#fb8072" stroke="black" points="2500.71,-274 2335.29,-274 2335.29,-238 2500.71,-238 2500.71,-274"/>
<text text-anchor="middle" x="2418" y="-251.8" font-family="Times,serif" font-size="14.00">ReviewButtonComponent </text>
</g>
<!-- ReviewButtonModule&#45;&gt;ReviewButtonComponent  -->
<g id="edge18" class="edge">
<title>ReviewButtonModule&#45;&gt;ReviewButtonComponent </title>
<path fill="none" stroke="black" stroke-dasharray="5,2" d="M2440.41,-198.01C2440.41,-198.01 2440.41,-227.85 2440.41,-227.85"/>
<polygon fill="black" stroke="black" points="2436.91,-227.85 2440.41,-237.85 2443.91,-227.85 2436.91,-227.85"/>
</g>
<!-- ReviewModalModule -->
<g id="node20" class="node">
<title>ReviewModalModule</title>
<polygon fill="#8dd3c7" stroke="black" points="2659.36,-122 2656.36,-126 2635.36,-126 2632.36,-122 2520.64,-122 2520.64,-86 2659.36,-86 2659.36,-122"/>
<text text-anchor="middle" x="2590" y="-99.8" font-family="Times,serif" font-size="14.00">ReviewModalModule</text>
</g>
<!-- ReviewModalModule&#45;&gt;ReviewButtonModule -->
<g id="edge17" class="edge">
<title>ReviewModalModule&#45;&gt;ReviewButtonModule</title>
<path fill="none" stroke="black" d="M2566.86,-122.2C2566.86,-146.36 2566.86,-186 2566.86,-186 2566.86,-186 2497.54,-186 2497.54,-186"/>
<polygon fill="black" stroke="black" points="2497.54,-182.5 2487.54,-186 2497.54,-189.5 2497.54,-182.5"/>
</g>
<!-- ReviewModalComponent  -->
<g id="node23" class="node">
<title>ReviewModalComponent </title>
<polygon fill="#fb8072" stroke="black" points="2863.15,-198 2698.85,-198 2698.85,-162 2863.15,-162 2863.15,-198"/>
<text text-anchor="middle" x="2781" y="-175.8" font-family="Times,serif" font-size="14.00">ReviewModalComponent </text>
</g>
<!-- ReviewModalModule&#45;&gt;ReviewModalComponent  -->
<g id="edge20" class="edge">
<title>ReviewModalModule&#45;&gt;ReviewModalComponent </title>
<path fill="none" stroke="black" stroke-dasharray="5,2" d="M2613.14,-122.03C2613.14,-142.77 2613.14,-174 2613.14,-174 2613.14,-174 2688.55,-174 2688.55,-174"/>
<polygon fill="black" stroke="black" points="2688.55,-177.5 2698.55,-174 2688.55,-170.5 2688.55,-177.5"/>
</g>
<!-- ReviewModalComponent -->
<g id="node22" class="node">
<title>ReviewModalComponent</title>
<polygon fill="#ffffb3" stroke="black" points="3047.15,-198 2886.85,-198 2886.85,-162 3047.15,-162 3047.15,-198"/>
<text text-anchor="middle" x="2967" y="-175.8" font-family="Times,serif" font-size="14.00">ReviewModalComponent</text>
</g>
<!-- ReviewModalComponent&#45;&gt;ReviewModalModule -->
<g id="edge19" class="edge">
<title>ReviewModalComponent&#45;&gt;ReviewModalModule</title>
<path fill="none" stroke="black" d="M2967,-161.99C2967,-139.51 2967,-104 2967,-104 2967,-104 2669.59,-104 2669.59,-104"/>
<polygon fill="black" stroke="black" points="2669.59,-100.5 2659.59,-104 2669.59,-107.5 2669.59,-100.5"/>
</g>
<!-- RightSidebarComponent -->
<g id="node24" class="node">
<title>RightSidebarComponent</title>
<polygon fill="#ffffb3" stroke="black" points="1371.71,-198 1216.29,-198 1216.29,-162 1371.71,-162 1371.71,-198"/>
<text text-anchor="middle" x="1294" y="-175.8" font-family="Times,serif" font-size="14.00">RightSidebarComponent</text>
</g>
<!-- RightSidebarComponent&#45;&gt;RightSidebarModule -->
<g id="edge21" class="edge">
<title>RightSidebarComponent&#45;&gt;RightSidebarModule</title>
<path fill="none" stroke="black" d="M1244.67,-198.16C1244.67,-203.04 1244.67,-207 1244.67,-207 1244.67,-207 1062.91,-207 1062.91,-207 1062.91,-207 1062.91,-227.75 1062.91,-227.75"/>
<polygon fill="black" stroke="black" points="1059.41,-227.75 1062.91,-237.75 1066.41,-227.75 1059.41,-227.75"/>
</g>
<!-- RotationSliderModule -->
<g id="node25" class="node">
<title>RotationSliderModule</title>
<polygon fill="#8dd3c7" stroke="black" points="1537.71,-198 1534.71,-202 1513.71,-202 1510.71,-198 1396.29,-198 1396.29,-162 1537.71,-162 1537.71,-198"/>
<text text-anchor="middle" x="1467" y="-175.8" font-family="Times,serif" font-size="14.00">RotationSliderModule</text>
</g>
<!-- RotationSliderModule&#45;&gt;RightSidebarModule -->
<g id="edge24" class="edge">
<title>RotationSliderModule&#45;&gt;RightSidebarModule</title>
<path fill="none" stroke="black" d="M1417.9,-198.14C1417.9,-204.46 1417.9,-210 1417.9,-210 1417.9,-210 1077.55,-210 1077.55,-210 1077.55,-210 1077.55,-227.82 1077.55,-227.82"/>
<polygon fill="black" stroke="black" points="1074.05,-227.82 1077.55,-237.82 1081.05,-227.82 1074.05,-227.82"/>
</g>
<!-- RotationSliderComponent  -->
<g id="node32" class="node">
<title>RotationSliderComponent </title>
<polygon fill="#fb8072" stroke="black" points="1550.5,-122 1383.5,-122 1383.5,-86 1550.5,-86 1550.5,-122"/>
<text text-anchor="middle" x="1467" y="-99.8" font-family="Times,serif" font-size="14.00">RotationSliderComponent </text>
</g>
<!-- RotationSliderModule&#45;&gt;RotationSliderComponent  -->
<g id="edge31" class="edge">
<title>RotationSliderModule&#45;&gt;RotationSliderComponent </title>
<path fill="none" stroke="black" stroke-dasharray="5,2" d="M1431.7,-161.99C1431.7,-161.99 1431.7,-132.15 1431.7,-132.15"/>
<polygon fill="black" stroke="black" points="1435.2,-132.15 1431.7,-122.15 1428.2,-132.15 1435.2,-132.15"/>
</g>
<!-- SlicesInputModule -->
<g id="node26" class="node">
<title>SlicesInputModule</title>
<polygon fill="#8dd3c7" stroke="black" points="1678.04,-198 1675.04,-202 1654.04,-202 1651.04,-198 1555.96,-198 1555.96,-162 1678.04,-162 1678.04,-198"/>
<text text-anchor="middle" x="1617" y="-175.8" font-family="Times,serif" font-size="14.00">SlicesInputModule</text>
</g>
<!-- SlicesInputModule&#45;&gt;RightSidebarModule -->
<g id="edge25" class="edge">
<title>SlicesInputModule&#45;&gt;RightSidebarModule</title>
<path fill="none" stroke="black" d="M1574.09,-198.04C1574.09,-205.75 1574.09,-213 1574.09,-213 1574.09,-213 1092.18,-213 1092.18,-213 1092.18,-213 1092.18,-227.51 1092.18,-227.51"/>
<polygon fill="black" stroke="black" points="1088.68,-227.51 1092.18,-237.51 1095.68,-227.51 1088.68,-227.51"/>
</g>
<!-- SlicesInputComponent  -->
<g id="node34" class="node">
<title>SlicesInputComponent </title>
<polygon fill="#fb8072" stroke="black" points="1460.82,-274 1313.18,-274 1313.18,-238 1460.82,-238 1460.82,-274"/>
<text text-anchor="middle" x="1387" y="-251.8" font-family="Times,serif" font-size="14.00">SlicesInputComponent </text>
</g>
<!-- SlicesInputModule&#45;&gt;SlicesInputComponent  -->
<g id="edge33" class="edge">
<title>SlicesInputModule&#45;&gt;SlicesInputComponent </title>
<path fill="none" stroke="black" stroke-dasharray="5,2" d="M1592.45,-198.15C1592.45,-210.27 1592.45,-224 1592.45,-224 1592.45,-224 1439.41,-224 1439.41,-224 1439.41,-224 1439.41,-227.76 1439.41,-227.76"/>
<polygon fill="black" stroke="black" points="1435.91,-227.76 1439.41,-237.76 1442.91,-227.76 1435.91,-227.76"/>
</g>
<!-- TagListModule -->
<g id="node27" class="node">
<title>TagListModule</title>
<polygon fill="#8dd3c7" stroke="black" points="1799.6,-198 1796.6,-202 1775.6,-202 1772.6,-198 1696.4,-198 1696.4,-162 1799.6,-162 1799.6,-198"/>
<text text-anchor="middle" x="1748" y="-175.8" font-family="Times,serif" font-size="14.00">TagListModule</text>
</g>
<!-- TagListModule&#45;&gt;RightSidebarModule -->
<g id="edge26" class="edge">
<title>TagListModule&#45;&gt;RightSidebarModule</title>
<path fill="none" stroke="black" d="M1730.03,-198.42C1730.03,-207.28 1730.03,-216 1730.03,-216 1730.03,-216 1106.81,-216 1106.81,-216 1106.81,-216 1106.81,-227.87 1106.81,-227.87"/>
<polygon fill="black" stroke="black" points="1103.31,-227.87 1106.81,-237.87 1110.31,-227.87 1103.31,-227.87"/>
</g>
<!-- TagListComponent  -->
<g id="node38" class="node">
<title>TagListComponent </title>
<polygon fill="#fb8072" stroke="black" points="1797.38,-274 1668.62,-274 1668.62,-238 1797.38,-238 1797.38,-274"/>
<text text-anchor="middle" x="1733" y="-251.8" font-family="Times,serif" font-size="14.00">TagListComponent </text>
</g>
<!-- TagListModule&#45;&gt;TagListComponent  -->
<g id="edge37" class="edge">
<title>TagListModule&#45;&gt;TagListComponent </title>
<path fill="none" stroke="black" stroke-dasharray="5,2" d="M1763.61,-198.01C1763.61,-198.01 1763.61,-227.85 1763.61,-227.85"/>
<polygon fill="black" stroke="black" points="1760.11,-227.85 1763.61,-237.85 1767.11,-227.85 1760.11,-227.85"/>
</g>
<!-- TagSearchModule -->
<g id="node28" class="node">
<title>TagSearchModule</title>
<polygon fill="#8dd3c7" stroke="black" points="1936.9,-198 1933.9,-202 1912.9,-202 1909.9,-198 1817.1,-198 1817.1,-162 1936.9,-162 1936.9,-198"/>
<text text-anchor="middle" x="1877" y="-175.8" font-family="Times,serif" font-size="14.00">TagSearchModule</text>
</g>
<!-- TagSearchModule&#45;&gt;RightSidebarModule -->
<g id="edge27" class="edge">
<title>TagSearchModule&#45;&gt;RightSidebarModule</title>
<path fill="none" stroke="black" d="M1859.27,-198.11C1859.27,-207.9 1859.27,-218 1859.27,-218 1859.27,-218 1121.45,-218 1121.45,-218 1121.45,-218 1121.45,-227.89 1121.45,-227.89"/>
<polygon fill="black" stroke="black" points="1117.95,-227.89 1121.45,-237.89 1124.95,-227.89 1117.95,-227.89"/>
</g>
<!-- TagSearchComponent  -->
<g id="node40" class="node">
<title>TagSearchComponent </title>
<polygon fill="#fb8072" stroke="black" points="2129.19,-274 1984.81,-274 1984.81,-238 2129.19,-238 2129.19,-274"/>
<text text-anchor="middle" x="2057" y="-251.8" font-family="Times,serif" font-size="14.00">TagSearchComponent </text>
</g>
<!-- TagSearchModule&#45;&gt;TagSearchComponent  -->
<g id="edge39" class="edge">
<title>TagSearchModule&#45;&gt;TagSearchComponent </title>
<path fill="none" stroke="black" stroke-dasharray="5,2" d="M1936.93,-180C1950.66,-180 1961.32,-180 1961.32,-180 1961.32,-180 1961.32,-256 1961.32,-256 1961.32,-256 1974.48,-256 1974.48,-256"/>
<polygon fill="black" stroke="black" points="1974.48,-259.5 1984.48,-256 1974.48,-252.5 1974.48,-259.5"/>
</g>
<!-- RotationSliderComponent -->
<g id="node30" class="node">
<title>RotationSliderComponent</title>
<polygon fill="#ffffb3" stroke="black" points="1736.49,-122 1573.51,-122 1573.51,-86 1736.49,-86 1736.49,-122"/>
<text text-anchor="middle" x="1655" y="-99.8" font-family="Times,serif" font-size="14.00">RotationSliderComponent</text>
</g>
<!-- RotationSliderComponent&#45;&gt;RotationSliderModule -->
<g id="edge29" class="edge">
<title>RotationSliderComponent&#45;&gt;RotationSliderModule</title>
<path fill="none" stroke="black" d="M1625.89,-122.24C1625.89,-129.43 1625.89,-136 1625.89,-136 1625.89,-136 1467,-136 1467,-136 1467,-136 1467,-151.85 1467,-151.85"/>
<polygon fill="black" stroke="black" points="1463.5,-151.85 1467,-161.85 1470.5,-151.85 1463.5,-151.85"/>
</g>
<!-- SliderBoxModule -->
<g id="node31" class="node">
<title>SliderBoxModule</title>
<polygon fill="#8dd3c7" stroke="black" points="1876.33,-122 1873.33,-126 1852.33,-126 1849.33,-122 1759.67,-122 1759.67,-86 1876.33,-86 1876.33,-122"/>
<text text-anchor="middle" x="1818" y="-99.8" font-family="Times,serif" font-size="14.00">SliderBoxModule</text>
</g>
<!-- SliderBoxModule&#45;&gt;RotationSliderModule -->
<g id="edge30" class="edge">
<title>SliderBoxModule&#45;&gt;RotationSliderModule</title>
<path fill="none" stroke="black" d="M1779.69,-122.04C1779.69,-134.56 1779.69,-149 1779.69,-149 1779.69,-149 1502.3,-149 1502.3,-149 1502.3,-149 1502.3,-151.97 1502.3,-151.97"/>
<polygon fill="black" stroke="black" points="1498.8,-151.97 1502.3,-161.97 1505.8,-151.97 1498.8,-151.97"/>
</g>
<!-- SliderBoxComponent  -->
<g id="node36" class="node">
<title>SliderBoxComponent </title>
<polygon fill="#fb8072" stroke="black" points="2118.61,-198 1977.39,-198 1977.39,-162 2118.61,-162 2118.61,-198"/>
<text text-anchor="middle" x="2048" y="-175.8" font-family="Times,serif" font-size="14.00">SliderBoxComponent </text>
</g>
<!-- SliderBoxModule&#45;&gt;SliderBoxComponent  -->
<g id="edge35" class="edge">
<title>SliderBoxModule&#45;&gt;SliderBoxComponent </title>
<path fill="none" stroke="black" stroke-dasharray="5,2" d="M1876.34,-110C1944.48,-110 2048,-110 2048,-110 2048,-110 2048,-151.97 2048,-151.97"/>
<polygon fill="black" stroke="black" points="2044.5,-151.97 2048,-161.97 2051.5,-151.97 2044.5,-151.97"/>
</g>
<!-- SlicesInputComponent -->
<g id="node33" class="node">
<title>SlicesInputComponent</title>
<polygon fill="#ffffb3" stroke="black" points="1629.32,-274 1484.68,-274 1484.68,-238 1629.32,-238 1629.32,-274"/>
<text text-anchor="middle" x="1557" y="-251.8" font-family="Times,serif" font-size="14.00">SlicesInputComponent</text>
</g>
<!-- SlicesInputComponent&#45;&gt;SlicesInputModule -->
<g id="edge32" class="edge">
<title>SlicesInputComponent&#45;&gt;SlicesInputModule</title>
<path fill="none" stroke="black" d="M1610.8,-237.99C1610.8,-237.99 1610.8,-208.15 1610.8,-208.15"/>
<polygon fill="black" stroke="black" points="1614.3,-208.15 1610.8,-198.15 1607.3,-208.15 1614.3,-208.15"/>
</g>
<!-- SliderBoxComponent -->
<g id="node35" class="node">
<title>SliderBoxComponent</title>
<polygon fill="#ffffb3" stroke="black" points="2281.11,-198 2142.89,-198 2142.89,-162 2281.11,-162 2281.11,-198"/>
<text text-anchor="middle" x="2212" y="-175.8" font-family="Times,serif" font-size="14.00">SliderBoxComponent</text>
</g>
<!-- SliderBoxComponent&#45;&gt;SliderBoxModule -->
<g id="edge34" class="edge">
<title>SliderBoxComponent&#45;&gt;SliderBoxModule</title>
<path fill="none" stroke="black" d="M2212,-161.8C2212,-137.64 2212,-98 2212,-98 2212,-98 1886.56,-98 1886.56,-98"/>
<polygon fill="black" stroke="black" points="1886.56,-94.5 1876.56,-98 1886.56,-101.5 1886.56,-94.5"/>
</g>
<!-- TagListComponent -->
<g id="node37" class="node">
<title>TagListComponent</title>
<polygon fill="#ffffb3" stroke="black" points="1945.38,-274 1820.62,-274 1820.62,-238 1945.38,-238 1945.38,-274"/>
<text text-anchor="middle" x="1883" y="-251.8" font-family="Times,serif" font-size="14.00">TagListComponent</text>
</g>
<!-- TagListComponent&#45;&gt;TagListModule -->
<g id="edge36" class="edge">
<title>TagListComponent&#45;&gt;TagListModule</title>
<path fill="none" stroke="black" d="M1820.4,-256C1813.23,-256 1808.42,-256 1808.42,-256 1808.42,-256 1808.42,-180 1808.42,-180 1808.42,-180 1807.56,-180 1807.56,-180"/>
<polygon fill="black" stroke="black" points="1809.77,-176.5 1799.77,-180 1809.77,-183.5 1809.77,-176.5"/>
</g>
<!-- TagSearchComponent -->
<g id="node39" class="node">
<title>TagSearchComponent</title>
<polygon fill="#ffffb3" stroke="black" points="2294.69,-274 2153.31,-274 2153.31,-238 2294.69,-238 2294.69,-274"/>
<text text-anchor="middle" x="2224" y="-251.8" font-family="Times,serif" font-size="14.00">TagSearchComponent</text>
</g>
<!-- TagSearchComponent&#45;&gt;TagSearchModule -->
<g id="edge38" class="edge">
<title>TagSearchComponent&#45;&gt;TagSearchModule</title>
<path fill="none" stroke="black" d="M2217.23,-237.81C2217.23,-222.82 2217.23,-204 2217.23,-204 2217.23,-204 1897.99,-204 1897.99,-204 1897.99,-204 1897.99,-203.42 1897.99,-203.42"/>
<polygon fill="black" stroke="black" points="1901.49,-208.19 1897.99,-198.19 1894.49,-208.19 1901.49,-208.19"/>
</g>
</g>
</svg>
