<?xml version="1.0" encoding="UTF-8" standalone="no"?>
<!DOCTYPE svg PUBLIC "-//W3C//DTD SVG 1.1//EN"
 "http://www.w3.org/Graphics/SVG/1.1/DTD/svg11.dtd">
<!-- Generated by graphviz version 2.47.0 (20210316.0004)
 -->
<!-- Title: dependencies Pages: 1 -->
<svg width="504pt" height="284pt"
 viewBox="0.00 0.00 504.00 284.00" xmlns="http://www.w3.org/2000/svg" xmlns:xlink="http://www.w3.org/1999/xlink">
<g id="graph0" class="graph" transform="scale(1 1) rotate(0) translate(4 280)">
<title>dependencies</title>
<polygon fill="white" stroke="transparent" points="-4,4 -4,-280 500,-280 500,4 -4,4"/>
<text text-anchor="start" x="227.01" y="-42.4" font-family="Times-12" font-weight="bold" font-size="14.00">Legend</text>
<polygon fill="#ffffb3" stroke="transparent" points="14,-10 14,-30 34,-30 34,-10 14,-10"/>
<text text-anchor="start" x="37.63" y="-15.4" font-family="Times-12" font-size="14.00"> &#160;Declarations</text>
<polygon fill="#8dd3c7" stroke="transparent" points="127,-10 127,-30 147,-30 147,-10 127,-10"/>
<text text-anchor="start" x="150.73" y="-15.4" font-family="Times-12" font-size="14.00"> &#160;Module</text>
<polygon fill="#80b1d3" stroke="transparent" points="213,-10 213,-30 233,-30 233,-10 213,-10"/>
<text text-anchor="start" x="236.78" y="-15.4" font-family="Times-12" font-size="14.00"> &#160;Bootstrap</text>
<polygon fill="#fdb462" stroke="transparent" points="310,-10 310,-30 330,-30 330,-10 310,-10"/>
<text text-anchor="start" x="333.67" y="-15.4" font-family="Times-12" font-size="14.00"> &#160;Providers</text>
<polygon fill="#fb8072" stroke="transparent" points="406,-10 406,-30 426,-30 426,-10 406,-10"/>
<text text-anchor="start" x="429.73" y="-15.4" font-family="Times-12" font-size="14.00"> &#160;Exports</text>
<g id="clust1" class="cluster">
<title>cluster_TableNestedMenuModule</title>
<polygon fill="none" stroke="black" stroke-dasharray="1,5" points="138,-70 138,-268 358,-268 358,-70 138,-70"/>
</g>
<g id="clust5" class="cluster">
<title>cluster_TableNestedMenuModule_exports</title>
<polygon fill="none" stroke="black" points="146,-208 146,-260 350,-260 350,-208 146,-208"/>
</g>
<g id="clust2" class="cluster">
<title>cluster_TableNestedMenuModule_declarations</title>
<polygon fill="none" stroke="black" points="148,-78 148,-130 348,-130 348,-78 148,-78"/>
</g>
<!-- TableNestedMenuComponent -->
<g id="node1" class="node">
<title>TableNestedMenuComponent</title>
<polygon fill="#ffffb3" stroke="black" points="340.24,-122 155.76,-122 155.76,-86 340.24,-86 340.24,-122"/>
<text text-anchor="middle" x="248" y="-99.8" font-family="Times,serif" font-size="14.00">TableNestedMenuComponent</text>
</g>
<!-- TableNestedMenuModule -->
<g id="node2" class="node">
<title>TableNestedMenuModule</title>
<polygon fill="#8dd3c7" stroke="black" points="329.45,-187 326.45,-191 305.45,-191 302.45,-187 166.55,-187 166.55,-151 329.45,-151 329.45,-187"/>
<text text-anchor="middle" x="248" y="-164.8" font-family="Times,serif" font-size="14.00">TableNestedMenuModule</text>
</g>
<!-- TableNestedMenuComponent&#45;&gt;TableNestedMenuModule -->
<g id="edge1" class="edge">
<title>TableNestedMenuComponent&#45;&gt;TableNestedMenuModule</title>
<path fill="none" stroke="black" d="M248,-122.11C248,-122.11 248,-140.99 248,-140.99"/>
<polygon fill="black" stroke="black" points="244.5,-140.99 248,-150.99 251.5,-140.99 244.5,-140.99"/>
</g>
<!-- TableNestedMenuComponent  -->
<g id="node3" class="node">
<title>TableNestedMenuComponent </title>
<polygon fill="#fb8072" stroke="black" points="342.24,-252 153.76,-252 153.76,-216 342.24,-216 342.24,-252"/>
<text text-anchor="middle" x="248" y="-229.8" font-family="Times,serif" font-size="14.00">TableNestedMenuComponent </text>
</g>
<!-- TableNestedMenuModule&#45;&gt;TableNestedMenuComponent  -->
<g id="edge2" class="edge">
<title>TableNestedMenuModule&#45;&gt;TableNestedMenuComponent </title>
<path fill="none" stroke="black" stroke-dasharray="5,2" d="M248,-187.11C248,-187.11 248,-205.99 248,-205.99"/>
<polygon fill="black" stroke="black" points="244.5,-205.99 248,-215.99 251.5,-205.99 244.5,-205.99"/>
</g>
</g>
</svg>
