<svg width="24" height="24" viewBox="0 0 24 24" fill="none" xmlns="http://www.w3.org/2000/svg">
<g clip-path="url(#clip0_5470_303)">
<path d="M12.6965 11.2031C12.7519 11.1464 12.7974 11.0797 12.83 11.0096C12.8723 10.923 12.9114 10.8262 12.9504 10.7729C12.9732 10.7395 13.0123 10.7162 13.0578 10.7029C13.2792 10.6362 13.5005 10.8162 13.4907 11.033C13.4777 11.3731 13.3736 12.1501 13.3573 12.2601C13.328 12.4502 13.1294 12.5602 13.1294 12.5602C12.5696 12.9237 10.685 13.4839 9.12258 13.6173C7.56019 13.7507 4.11968 13.0404 3.80395 12.837C3.48496 12.6336 3.59563 11.4065 3.93089 11.4732C5.24265 11.7299 6.46977 12.0467 8.5497 12.1968C10.6687 12.3501 11.9446 11.7166 12.5403 11.3331C12.5989 11.2964 12.6477 11.2531 12.6933 11.2064L12.6965 11.2031Z" fill="currentColor"/>
<path d="M10.571 5.04074C11.7428 5.30084 13.0383 4.824 13.7772 3.85364" stroke="currentColor" stroke-linecap="round" stroke-linejoin="round"/>
<path d="M19.1705 6.21461C18.552 5.98119 17.8717 6.05455 17.2207 6.15125C17.198 6.15125 17.1752 6.15792 17.1524 6.16125C17.6504 6.28463 18.1582 6.35133 18.6692 6.35466C18.7766 6.35466 18.8645 6.44469 18.8645 6.55473C18.8645 6.66477 18.7766 6.75481 18.6692 6.75481C18.0703 6.75481 17.4746 6.67144 16.8985 6.51138C16.6414 6.44136 16.3452 6.34466 16.0815 6.16125C15.7886 5.95785 15.59 5.68108 15.5184 5.37763C15.5151 5.35762 15.5151 5.33762 15.5184 5.31761C15.284 4.85744 15.1245 4.35392 15.0594 3.8404C15.0139 3.48693 14.9162 3.02343 14.5712 3.00008C14.109 2.97007 13.9983 3.77704 13.5459 3.87374C13.0121 3.99045 12.6247 2.92672 12.1495 3.2135C12.0453 3.27685 11.9575 3.53361 11.8793 3.63365C11.7589 3.78704 11.6189 3.92042 11.466 4.04047C11.1502 4.28723 10.7824 4.46396 10.4016 4.57733C9.6985 4.78741 8.95312 4.79742 8.22075 4.80742C6.74624 4.82743 5.26849 4.84743 3.79398 4.86411C3.54335 4.86411 3.25691 4.88745 3.10393 5.09086C2.96722 5.27092 2.99326 5.52769 3.03557 5.75444C3.20158 6.62143 3.53033 7.46841 3.49453 8.35207C3.47174 8.90227 3.30899 9.47915 3.50429 9.99267C3.65727 10.3928 4.00881 10.6863 4.3929 10.8563C4.77699 11.0264 5.19688 11.0864 5.61351 11.1464C6.61604 11.2898 7.61858 11.4332 8.62111 11.5766C9.01821 11.6333 9.42183 11.69 9.81894 11.65C10.1412 11.6166 10.4569 11.5199 10.7629 11.4165C11.4822 11.1731 12.2048 10.863 12.7354 10.3061C12.9958 10.0327 13.2301 9.68589 13.5947 9.58919C14.0992 9.45581 14.5907 9.8893 14.8088 10.3728C15.0301 10.8563 15.0855 11.4032 15.3101 11.8834C15.424 12.1235 15.6714 12.3702 15.9057 12.2568C15.9806 12.2202 16.0359 12.1535 16.0848 12.0834C16.6056 11.3665 16.8562 10.4362 17.5267 9.86263C17.9792 9.47582 18.5683 9.30575 19.0989 9.04232C19.6294 8.77889 20.1535 8.34206 20.2283 7.74184C20.3162 7.07493 19.7889 6.44803 19.1705 6.21461ZM13.1716 6.12457C12.8656 6.13124 12.5759 6.27463 12.2699 6.43135C12.1593 6.48804 12.0486 6.54473 11.9347 6.59141C11.3846 6.83484 10.8052 6.93154 10.2128 6.93154C9.33395 6.93154 8.43232 6.72146 7.55673 6.46803L7.19217 6.36133C6.27753 6.09456 5.32708 5.81779 4.37662 5.79112C4.26921 5.79112 4.18458 5.69775 4.18784 5.58437C4.18784 5.47433 4.27897 5.39097 4.38313 5.39097C4.38313 5.39097 4.38313 5.39097 4.38964 5.39097C5.38892 5.41765 6.36216 5.70108 7.29959 5.97452L7.66415 6.08123C9.06053 6.48137 10.5285 6.77815 11.7817 6.22128C11.8891 6.17459 11.9933 6.12124 12.0974 6.06789C12.4294 5.90116 12.7712 5.72776 13.165 5.72109C13.279 5.70775 13.3603 5.80779 13.3636 5.91783C13.3636 6.02787 13.279 6.11791 13.1716 6.12124V6.12457Z" fill="currentColor"/>
<path d="M19.2846 9.49907C19.4734 9.39903 19.7013 9.38236 19.8868 9.48573C20.17 9.64246 20.5801 9.43905 20.8372 9.80252C20.9577 9.97258 20.9772 10.1927 20.9902 10.4027C21.0098 10.7129 21.013 11.0463 20.847 11.3064C20.7135 11.5132 20.4922 11.6399 20.2676 11.7332C19.5678 12.0233 18.7671 12.0467 18.051 11.7933C17.8231 11.7132 17.6018 11.6065 17.3707 11.5365C17.1982 11.4865 17.1298 11.2764 17.2437 11.133C17.5692 10.7329 18.1063 10.0993 18.3569 9.98258C18.5881 9.87588 18.9038 9.69915 19.2814 9.49907H19.2846Z" fill="currentColor"/>
<path d="M3.32871 16.0015C3.17247 16.2182 3.04227 16.4716 3.02599 16.7417C2.9967 17.1919 3.39706 17.5654 3.71279 17.8355C3.99272 18.0722 4.27916 18.3023 4.56885 18.5257C4.99851 18.8592 5.44118 19.2026 5.96523 19.3427C6.45674 19.4761 6.98079 19.4194 7.48205 19.5161C7.90845 19.5995 8.30556 19.7962 8.72545 19.8929C9.67265 20.113 10.7208 19.7895 11.3945 19.0759C11.6517 18.8025 11.8567 18.4824 12.1269 18.2223C12.4459 17.9188 12.843 17.7188 13.2336 17.5187C13.8651 17.1986 14.503 16.8784 15.1866 16.6917C15.4925 16.6083 15.8083 16.5517 16.0817 16.3849C16.29 16.2582 16.4593 16.0715 16.6253 15.8914C17.0972 15.3746 17.566 14.861 18.0379 14.3442C18.2951 14.0607 18.575 13.6706 18.3764 13.3238C18.2853 13.1637 18.1095 13.0704 17.9273 13.057C17.6083 13.0337 17.3316 13.2038 17.081 13.3838C16.8206 13.5706 16.5634 13.774 16.2672 13.8873C15.971 14.0007 15.613 14.0107 15.3526 13.8206C15.1052 13.6406 14.9945 13.3238 14.9001 13.0237C14.7537 12.5635 14.6072 12.1033 14.4607 11.6432C14.4347 11.5665 14.4086 11.4831 14.3435 11.4364C14.2231 11.3464 14.0538 11.4264 13.9399 11.5231C13.6535 11.7766 13.979 12.5935 13.7479 12.9003C13.5168 13.2071 11.7819 13.794 11.4141 13.8907C10.1414 14.2308 8.27301 14.4642 6.84082 14.2108C5.82527 14.0307 4.63395 13.7039 4.02853 13.5305C3.84299 13.4772 3.66397 13.6272 3.68024 13.824C3.72581 14.3942 3.74209 15.4212 3.32545 16.0015H3.32871Z" fill="currentColor"/>
<path d="M16.0589 17.1519C16.1143 17.1352 16.1729 17.1719 16.1794 17.2319C16.2738 17.8889 16.4202 18.5358 16.622 19.1627C16.7653 19.6128 16.9378 20.0897 16.6741 20.5432C16.5179 20.8099 16.238 20.9833 15.9352 21.0033C15.8636 21.0067 15.7888 21.0033 15.7204 20.9733C15.639 20.94 15.5707 20.8766 15.5056 20.8133C14.7797 20.073 14.5584 18.9559 13.9595 18.1023C13.9269 18.0589 13.9367 17.9989 13.9823 17.9656C14.1515 17.8455 14.5649 17.5754 14.8774 17.502C15.1899 17.4287 15.8116 17.2319 16.0557 17.1519H16.0589Z" fill="currentColor"/>
<path d="M18.3309 15.1278C18.5132 14.9311 18.7671 14.8377 19.0275 14.8377C19.1349 14.8377 19.252 14.8177 19.4115 14.8311C19.7305 14.8577 20.0853 14.9344 20.2546 15.2145C20.3652 15.3946 20.3718 15.6214 20.375 15.8381C20.3815 16.355 20.3848 16.8718 20.3913 17.3887C20.3913 17.5254 20.3913 17.6754 20.3099 17.7855C20.2448 17.8755 20.1374 17.9222 20.0332 17.9556C19.6784 18.0689 19.3009 18.0723 18.9298 18.0723C18.4871 18.0723 17.911 18.0723 17.413 18.0723C17.2079 18.0723 17.0354 17.9155 17.0126 17.7055L16.9508 17.1753C16.928 16.9819 16.9801 16.7885 17.1005 16.6351C17.3967 16.2483 17.9826 15.498 18.2528 15.2079C18.2788 15.1779 18.3048 15.1512 18.3276 15.1278H18.3309Z" fill="currentColor"/>
</g>
<defs>
<clipPath id="clip0_5470_303">
<rect width="18" height="18" fill="currentColor" transform="translate(3 3)"/>
</clipPath>
</defs>
</svg>
