<svg width="55" height="54" viewBox="0 0 55 54" fill="none" xmlns="http://www.w3.org/2000/svg">
<g clip-path="url(#clip0_1116_9750)">
<path d="M41.25 34.2C41.3077 33.0906 40.9849 31.9942 40.3334 31.086C40.7389 30.2997 40.9464 29.4294 40.9384 28.548C40.9384 26.388 39.8567 24.642 38.5184 24.624C38.5184 24.48 38.5184 24.336 38.5184 24.192C38.6047 23.4391 38.4692 22.6777 38.128 21.9981C37.7868 21.3185 37.2542 20.7493 36.5934 20.358C36.6681 20.021 36.705 19.6769 36.7034 19.332C36.7034 17.334 35.7867 15.732 34.595 15.462C34.6144 15.1743 34.6144 14.8857 34.595 14.598C34.6442 13.9126 34.5211 13.2259 34.2366 12.5982C33.9521 11.9704 33.5149 11.4209 32.9634 10.998C33 8.85601 31.845 7.20001 30.5434 7.20001C29.2417 7.20001 28.1234 9.00001 28.1234 11.106C28.125 11.4618 28.1556 11.817 28.215 12.168H28.0134C26.6567 12.168 25.575 13.968 25.575 16.092C25.575 16.182 25.575 16.272 25.575 16.362C25.2614 16.7296 25.0191 17.1506 24.86 17.604C24.7763 17.5004 24.6774 17.4094 24.5667 17.334C24.67 16.8971 24.7253 16.4505 24.7317 16.002C24.7317 13.842 23.6317 12.096 22.2934 12.096C22.2934 11.988 22.2934 11.88 22.2934 11.772C22.2934 9.61201 21.175 8.78401 19.8184 8.78401C18.4617 8.78401 17.435 9.61201 17.435 11.772C17.4252 11.9279 17.4252 12.0842 17.435 12.24C17.0047 12.6992 16.6726 13.2384 16.4585 13.8259C16.2443 14.4134 16.1525 15.0371 16.1884 15.66C16.1723 16.4612 16.322 17.2573 16.6284 18C16.0838 18.428 15.6527 18.9788 15.3718 19.6056C15.0909 20.2325 14.9685 20.9167 15.015 21.6C15.0059 21.7619 15.0059 21.9241 15.015 22.086C14.5699 22.5411 14.2247 23.081 14.0008 23.6724C13.7769 24.2638 13.679 24.894 13.7134 25.524C13.699 26.5315 13.9721 27.5229 14.5017 28.386C14.0811 29.1869 13.8671 30.077 13.8784 30.978C13.8706 31.8301 14.0586 32.673 14.4284 33.444C14.2863 33.979 14.2124 34.5292 14.2084 35.082C14.2084 37.224 15.2717 38.952 16.61 38.988C16.6009 39.0838 16.6009 39.1802 16.61 39.276C16.61 41.256 17.5084 42.876 18.7 43.146C18.9739 43.5888 19.3547 43.9584 19.8088 44.2221C20.2629 44.4859 20.7763 44.6356 21.3034 44.658C21.9622 44.616 22.5946 44.3882 23.1247 44.0018C23.6549 43.6154 24.0601 43.087 24.2917 42.48C24.571 42.6575 24.8942 42.7571 25.2267 42.768C26.29 42.768 27.2067 41.634 27.5184 40.086C27.6831 40.4334 27.9404 40.7306 28.2632 40.9461C28.5859 41.1616 28.9621 41.2873 29.3517 41.31H29.3334C29.333 41.9561 29.5013 42.5916 29.8223 43.1556C30.1432 43.7197 30.6061 44.1936 31.1667 44.532C31.3965 45.155 31.8037 45.6999 32.3401 46.1021C32.8764 46.5042 33.5191 46.7464 34.1917 46.8C36.025 46.8 37.4917 45 37.6934 42.678C38.1912 42.2215 38.5781 41.6609 38.8257 41.0378C39.0732 40.4147 39.1749 39.7449 39.1234 39.078C39.1149 38.7277 39.0781 38.3786 39.0134 38.034C40.3334 37.926 41.25 36.27 41.25 34.2Z" fill="currentColor"/>
</g>
<defs>
<clipPath id="clip0_1116_9750">
<rect width="55" height="54" fill="currentColor"/>
</clipPath>
</defs>
</svg>
