<svg xmlns="http://www.w3.org/2000/svg" width="24" height="24" fill="currentColor" viewBox="0 0 24 24">
  <path
    d="M18.2836 7.90858C18.2836 7.90858 18.283 7.90919 18.2824 7.90979C18.2648 7.92611 18.2557 7.94968 18.2569 7.97385C18.2964 9.09545 17.8148 9.4254 17.3975 9.50215C17.3757 9.50638 17.3532 9.50819 17.3308 9.50819C16.9754 9.50819 16.5035 9.04831 16.3585 8.89784C16.3585 8.89784 16.3591 8.89844 16.3597 8.89905L16.3203 8.91899C16.3288 9.27493 16.4192 9.80249 16.6418 9.85567C16.8322 9.90099 16.9596 9.81397 17.1203 9.70338C17.2392 9.6218 17.3732 9.52934 17.5473 9.49248C17.7426 9.45078 17.927 9.5662 18.1047 9.67739C18.371 9.84358 18.5014 9.90099 18.6324 9.75052C18.7725 9.58917 18.878 9.29547 18.9381 8.98727C18.9417 8.96914 18.9387 8.94981 18.9302 8.93289C18.7591 8.59568 18.5845 8.25606 18.4158 7.93155C18.3904 7.88199 18.3237 7.87172 18.283 7.90979L18.2836 7.90858Z"/>
  <path
    d="M13.7026 5.32244C13.4042 5.19312 13.0573 5.22817 12.6715 5.42699C11.7593 5.89714 11.8806 8.4588 11.897 8.73618C12.0165 8.86127 12.9736 9.0335 13.793 8.99362C14.3255 8.96763 14.3801 8.86369 14.3807 8.86248C14.5323 8.53495 14.5554 6.82354 14.3759 6.18177C14.2624 5.77688 14.0113 5.45539 13.7038 5.32184L13.7026 5.32244Z"/>
  <path
    d="M16.2869 6.77359C16.2524 6.38924 16.1414 6.13362 15.9558 6.01276C15.8017 5.91184 15.59 5.90519 15.328 5.99221C14.7627 6.18015 14.7312 7.07574 14.73 7.12227C14.7312 7.16034 14.7403 7.53562 14.6706 8.14657C14.622 8.57443 14.6954 8.58893 14.9144 8.63365C14.9726 8.64513 15.0387 8.65842 15.1103 8.68078C15.3832 8.76418 16.0516 8.77204 16.2906 8.77143C16.2997 8.55448 16.3227 7.96105 16.3148 7.41234C16.3112 7.15913 16.3021 6.9446 16.2869 6.77479V6.77359Z"/>
  <path
    d="M10.9158 5.42739C10.6816 5.30652 10.4621 5.24609 10.2589 5.24609C10.1273 5.24609 10.0023 5.27147 9.88467 5.32224C9.57716 5.45579 9.32546 5.77728 9.21264 6.18217C9.03311 6.82394 9.05616 8.53535 9.20779 8.86288C9.20779 8.86409 9.26238 8.96803 9.79551 8.99402C10.6149 9.0339 11.572 8.86167 11.6915 8.73658C11.7073 8.4592 11.8286 5.89693 10.917 5.42739H10.9158Z"/>
  <path
    d="M8.47942 8.68078C8.55099 8.65903 8.6171 8.64573 8.67533 8.63365C8.89428 8.58953 8.96828 8.57443 8.91915 8.14657C8.8494 7.53562 8.8591 7.16034 8.85971 7.12227C8.8585 7.07574 8.82696 6.18015 8.26168 5.99221C7.99905 5.90519 7.78798 5.91184 7.63393 6.01276C7.44894 6.13362 7.33734 6.38985 7.30277 6.77419C7.2876 6.9434 7.2779 7.15793 7.27487 7.41174C7.26759 7.96045 7.29003 8.55388 7.29913 8.77083H7.30944C7.55569 8.77083 8.21073 8.76297 8.47942 8.68018V8.68078Z"/>
  <path
    d="M4.72567 15.8235C4.73174 15.8187 4.73719 15.8132 4.74387 15.809C4.80816 15.7649 4.88155 15.7534 4.95615 15.7752C5.19269 15.8447 5.56267 15.7474 5.88959 15.6622C5.97935 15.6386 6.0673 15.6156 6.151 15.5963C6.28564 15.5649 6.42029 15.583 6.54281 15.6459C6.54645 15.5878 6.54463 15.528 6.5325 15.4694C6.48094 15.2101 6.24743 14.659 5.89262 14.7037C5.80467 14.7152 5.70581 14.7376 5.60149 14.7618C5.36858 14.8149 5.10535 14.8754 4.90702 14.8228C4.72203 14.7738 4.55645 14.9334 4.42969 15.1255C4.52188 15.3582 4.62074 15.5921 4.72567 15.8241V15.8235Z"/>
  <path
    d="M12.0703 16.6075C12.1176 16.6142 12.1607 16.5803 12.1661 16.5332C12.2159 16.1265 12.2025 15.8612 12.1825 15.7107C12.1764 15.663 12.211 15.6195 12.2589 15.6158C12.7029 15.582 13.2021 15.4309 13.8037 15.1572C15.2206 14.5124 16.2231 14.8061 16.4937 14.8991C16.7642 14.9916 16.931 15.1487 16.4136 16.0153C15.8962 16.8813 14.9094 17.3043 13.5551 17.4723C12.2007 17.6403 8.90485 17.5261 7.87377 16.7948C7.25693 16.3573 6.98885 15.8116 6.87301 15.443C6.79416 15.1928 6.94094 14.9523 7.1793 14.8417C7.2909 14.7897 7.43404 14.7245 7.71183 14.6822C8.416 14.5752 9.86134 14.6006 10.7311 15.1844C11.1162 15.443 11.4953 15.5892 11.9168 15.6177C11.9563 15.6201 11.989 15.6485 11.9957 15.6878C12.0157 15.805 12.0406 16.0667 11.986 16.5114C11.9805 16.5574 12.0133 16.5991 12.0588 16.6051L12.0654 16.6063H12.0703V16.6075Z"/>
  <path
    d="M15.1555 11.6318C14.7012 10.9646 13.9321 10.4902 13.3123 10.4902C13.3001 10.4902 13.2886 10.4902 13.2771 10.4902C12.9732 10.4993 12.7397 10.6268 12.6008 10.8595C12.2957 11.3701 12.3812 11.8004 12.4504 12.1466C12.4795 12.2917 12.5062 12.4289 12.5032 12.5558C12.4856 13.2459 12.2696 13.2695 12.0355 13.2719H12.0325C11.8166 13.2441 11.7359 13.2332 11.7116 12.6543C11.7062 12.5262 11.7341 12.3769 11.7632 12.2192C11.833 11.8397 11.9203 11.3677 11.6164 10.8595C11.4781 10.6274 11.2367 10.4999 10.9195 10.4908C10.9068 10.4908 10.8941 10.4908 10.8813 10.4908C10.2269 10.4908 9.40869 10.9749 8.96107 11.6324C8.40368 12.4506 8.37638 13.6314 8.38366 14.0188C8.38488 14.0877 8.44371 14.1415 8.51285 14.1372C8.57775 14.133 8.62809 14.0798 8.62688 14.0152C8.62142 13.6538 8.64993 12.5207 9.16183 11.7683C9.56881 11.1713 10.3385 10.7175 10.9123 10.7338C11.1458 10.7404 11.3126 10.825 11.4078 10.9846C11.6643 11.4148 11.5934 11.8022 11.5242 12.1769C11.4927 12.3485 11.463 12.511 11.469 12.6657C11.4988 13.371 11.6619 13.4689 12.001 13.5124L12.0137 13.5142V13.5154C12.0137 13.5154 12.0179 13.5154 12.0204 13.5154L12.0283 13.5166V13.5154C12.3661 13.5106 12.7233 13.4254 12.7452 12.5636C12.7494 12.4101 12.7191 12.2603 12.6875 12.1013C12.6208 11.7641 12.5511 11.416 12.8088 10.9846C12.9047 10.8244 13.0642 10.7404 13.2838 10.7338C13.8254 10.7175 14.5417 11.1628 14.9541 11.7683C15.4666 12.5207 15.4945 13.6538 15.4891 14.0152C15.4879 14.0798 15.5382 14.1336 15.6031 14.1372C15.6722 14.1415 15.7311 14.0877 15.7323 14.0188C15.7396 13.6314 15.7117 12.45 15.1549 11.6324L15.1555 11.6318Z"/>
  <path
    d="M6.20746 18.7642C4.07493 16.9163 3.11238 12.251 3.10328 12.2045C3.10146 12.1954 3.09964 12.1869 3.09782 12.1797C3.06386 12.2262 3.02868 12.2999 3.02747 12.3761C3.02565 12.4208 2.89282 16.3301 4.31511 18.8555C5.84416 21.5713 9.32802 22.1496 11.2683 22.2529C11.3483 22.2565 12.192 22.2445 12.2757 22.236C15.6255 21.8903 17.866 20.753 18.9341 18.8561C20.3564 16.3307 20.2236 12.4208 20.2218 12.3815C20.2205 12.3018 20.1854 12.2274 20.1514 12.1803C20.1496 12.1875 20.1478 12.196 20.1459 12.2051C20.1368 12.2516 19.1743 16.9169 17.0412 18.7648C15.3156 20.2593 12.5772 20.081 12.0452 20.0297C11.9524 20.0206 11.4508 20.0297 11.375 20.0345C10.0886 20.1185 7.70739 20.0647 6.20686 18.7648L6.20746 18.7642Z"/>
  <path
    d="M14.2868 4.57086C14.4136 4.52191 14.5804 4.49713 14.7745 4.49713C15.7455 4.49713 17.3874 5.11111 18.0206 6.27864C18.6768 7.48967 20.4163 10.8563 20.665 11.6086C20.7354 11.8214 20.8203 11.9452 20.8725 11.9978C20.9034 11.9283 20.9531 11.7525 20.9434 11.344C20.8415 10.9802 19.6503 6.75423 18.8964 5.45194C18.0588 4.00523 16.5892 2.26482 14.3475 2.19049C12.9137 2.14275 12.3272 2.29926 12.1052 2.39656C11.899 2.4872 11.6618 2.4872 11.4556 2.39656C11.2336 2.29926 10.6471 2.14275 9.21328 2.19049C6.97158 2.26482 5.50258 4.00523 4.66497 5.45194C3.91167 6.75423 2.72047 10.9802 2.61857 11.344C2.60826 11.7525 2.65799 11.9283 2.68893 11.9978C2.74169 11.9452 2.82661 11.822 2.89636 11.6086C3.14382 10.8581 4.95732 7.38392 5.60448 6.19041C6.38871 4.7443 8.69046 4.30134 9.38614 4.57086C9.69183 4.6893 10.3311 4.87664 10.9134 4.99025C11.489 5.10265 12.0967 5.20297 12.6377 5.09782C13.2212 4.98421 14.023 4.67299 14.2862 4.57086H14.2868Z"/>
  <path
    d="M12.2862 19.625C12.4943 19.6383 12.8036 19.6492 13.1724 19.6353C13.2282 19.5446 13.2755 19.4328 13.3119 19.3005C13.438 18.8358 13.3822 18.1275 13.3646 17.9432C13.2342 17.8864 12.8903 17.8652 12.5652 17.8652C12.2929 17.8652 12.0885 17.8785 11.9793 17.9003C11.8259 17.9311 11.7483 17.9462 11.8107 18.3898C11.869 18.8049 11.9981 19.3119 12.2868 19.625H12.2862Z"/>
  <path
    d="M13.9915 19.5655C14.3045 19.5238 14.6338 19.4597 14.9637 19.3673C15.0741 18.9425 15.1269 18.3273 15.1378 17.7725C15.139 17.7169 15.0954 17.6704 15.0402 17.6692C15.0044 17.668 14.9692 17.668 14.934 17.668C14.2026 17.668 13.5542 17.8807 13.4747 17.9544C13.4244 18.0354 13.5129 18.5829 13.7228 19.0984C13.7865 19.2549 13.8811 19.4223 13.9909 19.5667L13.9915 19.5655Z"/>
  <path
    d="M15.664 19.1238C16.0394 18.9625 16.4009 18.7522 16.7236 18.4809C16.6963 17.9467 16.5119 17.4112 16.4143 17.2287C16.3767 17.2118 16.2729 17.1895 16.2378 17.1895C15.8041 17.2632 15.4268 17.41 15.1885 17.5194C15.0714 17.5732 15.0168 17.708 15.0635 17.8276C15.1861 18.1431 15.3989 18.6628 15.6143 19.0471C15.6294 19.0743 15.6464 19.0997 15.6646 19.1238H15.664Z"/>
  <path
    d="M17.8267 17.1371C17.7728 17.1003 17.7079 17.0803 17.6393 17.0821C17.4877 17.0876 17.3755 17.119 17.2669 17.1498C17.1232 17.1903 16.9752 17.232 16.7556 17.206C16.7308 17.203 16.7041 17.2012 16.6762 17.2012C16.6513 17.2012 16.6264 17.203 16.6016 17.2072C16.6998 17.4236 16.8436 17.8659 16.8897 18.3282C17.2305 18.0049 17.5429 17.5946 17.8267 17.1377V17.1371Z"/>
  <path
    d="M16.38 17.1242C16.3927 17.1254 16.4025 17.1242 16.4073 17.1187C16.4734 17.0353 16.5128 16.9954 16.7797 17.0263C16.9629 17.048 17.0824 17.0142 17.22 16.9755C17.3335 16.9435 17.4614 16.9078 17.6355 16.9012C17.741 16.8969 17.8411 16.9272 17.9242 16.9815C18.0049 16.8456 18.0825 16.7066 18.1583 16.5646C18.142 16.5567 18.1256 16.5489 18.108 16.5428C17.6816 16.3936 17.4014 16.6927 17.1363 16.5628C16.8713 16.4322 16.6329 16.3035 16.4206 16.5912C16.3115 16.7392 16.2708 16.8432 16.2526 16.9411C16.2369 17.0275 16.2933 17.1139 16.3806 17.123L16.38 17.1242Z"/>
  <path
    d="M17.1498 16.4343L17.1728 16.4458C17.2662 16.4917 17.3712 16.4645 17.504 16.4301C17.672 16.3866 17.8806 16.3328 18.1342 16.4216C18.1615 16.4313 18.1875 16.4434 18.2118 16.4561C18.2882 16.3086 18.3616 16.1593 18.4326 16.0083C18.1512 16.0784 17.7848 15.9829 17.4294 15.8898C17.3414 15.8669 17.2553 15.8439 17.1728 15.8252C17.0103 15.7871 16.8872 15.8578 16.812 15.9231C16.7016 16.0191 16.6251 16.169 16.6094 16.305C16.7895 16.2578 16.9769 16.3497 17.1492 16.4343H17.1498Z"/>
  <path
    d="M17.2128 15.6848C17.2965 15.7041 17.3845 15.7271 17.4742 15.7507C17.8011 15.8365 18.1711 15.9332 18.4077 15.8637C18.4398 15.854 18.4714 15.8522 18.5023 15.8552C18.62 15.5972 18.7297 15.3361 18.8316 15.0769C18.7231 14.9536 18.5957 14.8738 18.4574 14.9107C18.2591 14.9633 17.9958 14.9028 17.7629 14.8496C17.6586 14.8255 17.5597 14.8031 17.4718 14.7916C17.117 14.7469 16.8835 15.298 16.8319 15.5573C16.8204 15.6159 16.8186 15.6757 16.8216 15.7337C16.9435 15.6709 17.0782 15.6528 17.2134 15.6842L17.2128 15.6848Z"/>
  <path
    d="M19.0502 9.18164C18.9811 9.46808 18.8737 9.73096 18.7342 9.8917C18.4874 10.1763 18.2017 9.99746 17.9718 9.85424C17.8245 9.76238 17.6722 9.6669 17.5491 9.69289C17.4108 9.7225 17.3022 9.79683 17.1876 9.87599C17.0463 9.97329 16.9007 10.073 16.7072 10.073C16.669 10.073 16.6284 10.0682 16.5859 10.0597C16.6496 10.2984 16.7818 10.6302 16.9838 10.6459C17.1324 10.6568 17.2549 10.5202 17.3853 10.3752C17.5382 10.2047 17.7116 10.012 17.9536 10.0857C18.0713 10.1213 18.189 10.1896 18.3024 10.2561C18.4565 10.3455 18.6154 10.438 18.716 10.4072C18.7621 10.3933 18.801 10.351 18.8355 10.2785C19.0066 9.9189 19.066 9.46264 19.0781 9.23845C19.069 9.21971 19.0593 9.20158 19.0502 9.18285V9.18164Z"/>
  <path
    d="M19.2533 9.57617C19.2139 9.81487 19.1454 10.0935 19.0332 10.3291C18.9768 10.4482 18.8991 10.5237 18.8033 10.5533C18.6268 10.6083 18.4321 10.4947 18.2447 10.3859C18.1398 10.3249 18.0318 10.2621 17.9341 10.2325C17.8122 10.1956 17.7091 10.2971 17.5545 10.4693C17.4144 10.6253 17.2561 10.8011 17.0359 10.8011C17.0256 10.8011 17.0147 10.8011 17.0037 10.7999C16.8934 10.7914 16.8024 10.7383 16.7266 10.6609C16.7678 10.8059 16.9874 11.4755 17.5284 11.4755C17.5363 11.4755 17.5448 11.4755 17.5526 11.4755C17.8699 11.464 18.0324 11.2199 18.1628 11.0241C18.3053 10.8102 18.3721 10.7346 18.5031 10.7939C18.7748 10.9159 18.9871 10.928 19.1508 10.8325C19.3279 10.7292 19.4292 10.5104 19.4595 10.1642C19.465 10.1055 19.4644 10.05 19.4614 9.99556C19.394 9.85899 19.3243 9.71939 19.2533 9.57678V9.57617Z"/>
  <path
    d="M16.4953 7.44401C16.4146 7.6525 16.4504 8.43327 16.4735 8.75597C16.71 9.00615 17.1425 9.3633 17.3626 9.32281C17.8806 9.22733 18.119 8.7469 18.0698 7.89543C18.0541 7.62228 18.051 7.40111 18.048 7.22344C18.0413 6.78713 18.0334 6.64451 17.917 6.55507C17.7951 6.46141 17.5124 6.38285 17.4299 6.43844C17.1036 6.65841 16.5693 7.25124 16.4947 7.44341L16.4953 7.44401Z"/>
  <path
    d="M17.5084 11.5787C17.5084 11.5787 17.5685 11.6657 17.8008 11.5932C18.0331 11.5207 18.2623 11.2354 18.3296 11.1345C18.397 11.0336 18.4849 10.9732 18.6669 11.0137C18.8488 11.0541 19.1018 11.0336 19.2127 10.9768C19.3237 10.92 19.2716 10.9925 19.2273 11.1073C19.183 11.2221 19.0678 11.5406 18.8349 11.4766C18.602 11.4125 18.451 11.2886 18.3157 11.4433C18.1804 11.598 17.9742 12.0458 17.6916 11.8971C17.5575 11.8264 17.5078 11.5787 17.5078 11.5787H17.5084Z"/>
  <path
    d="M5.26146 7.90723C5.26146 7.90723 5.26206 7.90784 5.26267 7.90844C5.28026 7.92476 5.28936 7.94833 5.28815 7.9725C5.24872 9.0941 5.7303 9.42405 6.14759 9.5008C6.16942 9.50503 6.19186 9.50684 6.2143 9.50684C6.56973 9.50684 7.0416 9.04696 7.18656 8.89649C7.18656 8.89649 7.18595 8.89709 7.18535 8.8977L7.22477 8.91764C7.21628 9.27358 7.12591 9.80114 6.90331 9.85432C6.71287 9.89964 6.5855 9.81262 6.42477 9.70203C6.30589 9.62045 6.17185 9.52799 5.99778 9.49113C5.80248 9.44943 5.61809 9.56485 5.44038 9.67605C5.17412 9.84223 5.04372 9.89964 4.91271 9.74917C4.76836 9.58298 4.661 9.27599 4.60156 8.95692C4.77685 8.61125 4.95577 8.26257 5.12863 7.92959C5.1541 7.88004 5.22082 7.86977 5.26146 7.90784V7.90723Z"/>
  <path
    d="M4.48884 9.18164C4.55798 9.46808 4.66534 9.73096 4.80484 9.8917C5.05169 10.1763 5.33736 9.99746 5.56723 9.85424C5.71462 9.76238 5.86686 9.6669 5.98998 9.69289C6.12827 9.7225 6.23683 9.79683 6.35147 9.87599C6.49279 9.97329 6.63835 10.073 6.83183 10.073C6.87004 10.073 6.91068 10.0682 6.95314 10.0597C6.88945 10.2984 6.75723 10.6302 6.55526 10.6459C6.40666 10.6568 6.28414 10.5202 6.15374 10.3752C6.0009 10.2047 5.82743 10.012 5.58543 10.0857C5.46776 10.1213 5.3501 10.1896 5.23668 10.2561C5.08262 10.3455 4.92371 10.438 4.82303 10.4072C4.77694 10.3933 4.73812 10.351 4.70355 10.2785C4.53251 9.9189 4.47307 9.46264 4.46094 9.23845C4.47004 9.21971 4.47974 9.20158 4.48884 9.18285V9.18164Z"/>
  <path
    d="M4.28845 9.57617C4.32788 9.81487 4.39641 10.0935 4.50862 10.3291C4.56503 10.4482 4.64266 10.5237 4.73849 10.5533C4.91499 10.6083 5.10968 10.4947 5.2971 10.3859C5.40203 10.3249 5.50999 10.2621 5.60764 10.2325C5.72955 10.1956 5.83266 10.2971 5.98732 10.4693C6.12743 10.6253 6.28573 10.8011 6.5059 10.8011C6.51621 10.8011 6.52713 10.8011 6.53804 10.7999C6.64843 10.7914 6.73941 10.7383 6.81522 10.6609C6.77398 10.8059 6.55442 11.4755 6.0134 11.4755C6.00552 11.4755 5.99703 11.4755 5.98914 11.4755C5.67193 11.464 5.50938 11.2199 5.37898 11.0241C5.23645 10.8102 5.16973 10.7346 5.03872 10.7939C4.767 10.9159 4.55472 10.928 4.39096 10.8325C4.21385 10.7292 4.11256 10.5104 4.08224 10.1642C4.07678 10.1055 4.07738 10.05 4.08042 9.99556C4.14774 9.85899 4.21749 9.71939 4.28845 9.57678V9.57617Z"/>
  <path
    d="M7.04958 7.44401C7.13025 7.6525 7.09447 8.43327 7.07142 8.75597C6.83487 9.00615 6.40242 9.3633 6.18226 9.32281C5.66429 9.22733 5.42592 8.7469 5.47505 7.89543C5.49082 7.62228 5.49385 7.40111 5.49689 7.22344C5.50356 6.78713 5.51144 6.64451 5.62789 6.55507C5.74981 6.46141 6.03245 6.38285 6.11493 6.43844C6.44124 6.65841 6.97559 7.25124 7.05019 7.44341L7.04958 7.44401Z"/>
  <path
    d="M6.03627 11.5787C6.03627 11.5787 5.97623 11.6657 5.74393 11.5932C5.51163 11.5207 5.28237 11.2354 5.21504 11.1345C5.14772 11.0336 5.05977 10.9732 4.87782 11.0137C4.69586 11.0541 4.44294 11.0336 4.33195 10.9768C4.22096 10.92 4.27312 10.9925 4.31739 11.1073C4.36167 11.2221 4.47691 11.5406 4.70981 11.4766C4.94272 11.4125 5.09374 11.2886 5.22899 11.4433C5.36425 11.598 5.57047 12.0458 5.85311 11.8971C5.98715 11.8264 6.03688 11.5787 6.03688 11.5787H6.03627Z"/>
  <path
    d="M4.78452 16.8945C4.73114 16.7972 4.67898 16.6987 4.62803 16.5996C4.62682 16.6099 4.62561 16.6202 4.625 16.6304L4.7742 16.9362C4.77724 16.9229 4.78088 16.909 4.78512 16.8951L4.78452 16.8945Z"/>
  <path
    d="M5.0316 16.454C5.0874 16.4032 5.15351 16.3615 5.23236 16.3337C5.48588 16.2449 5.69453 16.2987 5.86253 16.3422C5.99536 16.3766 6.10029 16.4038 6.19369 16.3579L6.21674 16.3464C6.38899 16.2618 6.57641 16.17 6.75655 16.2171C6.74078 16.0811 6.66375 15.9307 6.55397 15.8352C6.47876 15.7699 6.35564 15.6992 6.19309 15.7373C6.1106 15.7566 6.02448 15.779 5.93653 15.8019C5.56958 15.898 5.1899 15.9977 4.90544 15.9137C4.88361 15.9071 4.86662 15.9101 4.84722 15.9234C4.82963 15.9355 4.81264 15.9542 4.79688 15.9778C4.87208 16.1385 4.95033 16.2981 5.03099 16.4546L5.0316 16.454Z"/>
  <path
    d="M5.33097 16.998C5.4268 16.8777 5.57297 16.8082 5.73249 16.8143C5.90596 16.8203 6.03454 16.8566 6.14796 16.8886C6.28564 16.9273 6.40512 16.9611 6.58829 16.9394C6.85516 16.9085 6.89459 16.9478 6.9607 17.0318C6.96494 17.0373 6.97465 17.0385 6.98799 17.0373C7.07533 17.0282 7.13234 16.9412 7.11597 16.8554C7.09777 16.7569 7.05653 16.6529 6.94796 16.5055C6.73568 16.2172 6.49731 16.3465 6.23226 16.4771C5.96721 16.607 5.687 16.3079 5.26062 16.4571C5.19269 16.4807 5.13507 16.5182 5.08594 16.5629C5.16479 16.7115 5.24667 16.8572 5.33097 16.9986V16.998Z"/>
  <path
    d="M6.46495 18.4283C6.48436 17.9013 6.65418 17.3647 6.76578 17.1193C6.74092 17.1157 6.71605 17.1133 6.69118 17.1133C6.66389 17.1133 6.63659 17.1151 6.61173 17.1181C6.39277 17.1435 6.24417 17.1018 6.10043 17.0619C5.99186 17.0317 5.88026 16.9997 5.72802 16.9942C5.60975 16.9912 5.49997 17.0517 5.44357 17.1556C5.44175 17.1592 5.43932 17.1635 5.4375 17.1677C5.74622 17.6608 6.08951 18.0983 6.46495 18.4283Z"/>
  <path
    d="M7.62376 19.1302C7.67713 19.0831 7.72383 19.0257 7.76144 18.9586C7.98524 18.5586 8.20723 18.0123 8.32672 17.7016C8.36432 17.6037 8.32065 17.4938 8.22543 17.449C7.9901 17.3385 7.59525 17.1789 7.13793 17.1016C7.10215 17.1016 6.99904 17.1239 6.96144 17.1408C6.85287 17.3445 6.63513 17.9869 6.64908 18.5767C6.94627 18.8051 7.27683 18.987 7.62436 19.1308L7.62376 19.1302Z"/>
  <path
    d="M9.30741 19.5592C9.44448 19.3997 9.56518 19.1972 9.6416 19.0105C9.85146 18.495 9.94001 17.9475 9.88967 17.8665C9.81022 17.7928 9.16245 17.5801 8.43038 17.5801C8.3952 17.5801 8.35942 17.5801 8.32424 17.5813C8.26904 17.5831 8.22537 17.6296 8.22659 17.6846C8.23872 18.2926 8.30058 18.973 8.43402 19.396C8.72515 19.4685 9.0187 19.5217 9.30741 19.5592Z"/>
  <path
    d="M10.2332 19.6305C10.5279 19.6402 10.8045 19.6366 11.052 19.6269C11.3746 19.3266 11.5323 18.7936 11.6081 18.3657C11.6191 18.3029 11.63 18.2467 11.6391 18.1977C11.6747 18.0112 11.6552 17.9093 11.5808 17.8919C11.3237 17.8309 10.3169 17.7832 10.067 17.8774C10.0427 18.0617 9.96204 18.7664 10.0718 19.2347C10.11 19.3967 10.1652 19.5302 10.2338 19.6311L10.2332 19.6305Z"/>
</svg>
