<svg width="54" height="54" viewBox="0 0 54 54" fill="none" xmlns="http://www.w3.org/2000/svg">
  <path
    d="M20.5826 34.7668C20.3638 33.9766 21.022 33.0366 21.0763 31.8017C21.1306 30.5667 20.8574 29.4785 21.3346 29.0842C21.8134 28.6883 22.2824 26.761 21.5995 25.7974C20.9166 24.8337 21.7328 24.34 22.0076 23.2029C22.2824 22.0658 20.966 21.4239 22.0076 20.7819C23.0492 20.14 23.324 18.2127 23.2697 17.2238C23.2154 16.235 24.5318 15.1972 24.5318 15.1972C24.5318 15.1972 25.5256 15.0089 26.949 15C26.9671 15 26.9835 15 27.0016 15C27.0197 15 27.0362 15 27.0543 15C28.4793 15.0104 29.4715 15.1972 29.4715 15.1972C29.4715 15.1972 30.7879 16.235 30.7336 17.2238C30.6793 18.2127 30.9525 20.14 31.9957 20.7819C33.0373 21.4239 31.7209 22.0673 31.9957 23.2029C32.2705 24.34 33.0866 24.8337 32.4038 25.7974C31.7209 26.761 32.1915 28.6883 32.6687 29.0842C33.1475 29.48 32.8727 30.5667 32.927 31.8017C32.9813 33.0366 33.6395 33.9766 33.4207 34.7668C33.2018 35.557 32.797 36.6452 33.4651 37.5836C34.1332 38.5221 34.222 40.0046 33.4651 40.7963C32.7082 41.5865 32.3231 42.6243 32.4877 43.4159C32.6522 44.2076 30.5131 44.7013 30.0195 45.0957C30.0195 45.0957 29.6361 46.2817 30.0738 46.974C30.5131 47.6664 29.4699 51.6189 28.4283 52.3601C27.3867 53.1014 27.3982 52.9947 27 52.9947C26.6018 52.9947 26.6133 53.1014 25.5717 52.3601C24.5301 51.6189 23.4869 47.6649 23.9262 46.974C24.3656 46.2817 23.9805 45.0957 23.9805 45.0957C23.4869 44.6998 21.3478 44.2061 21.5123 43.4159C21.6769 42.6257 21.2935 41.588 20.5349 40.7963C19.778 40.0061 19.8668 38.5235 20.5349 37.5836C21.203 36.6452 20.7982 35.557 20.5793 34.7668H20.5826Z"
    fill="currentColor" />
  <path
    d="M19.7715 3.55992C20.6433 2.59914 20.591 3.65643 21.924 2.93621C23.2555 2.21598 24.2302 -0.137708 24.8452 0.00633678C25.3972 0.135977 26.7302 0.341961 26.9992 0.382294C27.2698 0.340521 28.6028 0.134537 29.1532 0.00633678C29.7682 -0.137708 30.7415 2.21454 32.0745 2.93477C33.4075 3.65499 33.3552 2.59914 34.2269 3.55848C35.0987 4.51782 35.1494 6.6324 34.7912 7.49666C34.433 8.36093 34.8419 9.70487 33.8687 9.80138C32.8955 9.89789 31.8192 10.0895 31.4087 11.0978C30.9982 12.1061 30.3171 13.0179 29.6668 13.6431C29.2732 14.0205 28.363 14.0291 27.7049 13.9772C27.236 13.9398 26.764 13.9398 26.2951 13.9772C25.637 14.0291 24.7268 14.0205 24.3332 13.6431C23.6829 13.0193 23.0002 12.1061 22.5913 11.0978C22.1808 10.0895 21.1045 9.89789 20.1313 9.80138C19.1581 9.70487 19.567 8.36093 19.2088 7.49666C18.8506 6.6324 18.9013 4.51926 19.7731 3.55992H19.7715Z"
    stroke="currentColor" />
</svg>
