<svg width="48" height="48" viewBox="0 0 48 48" fill="none" xmlns="http://www.w3.org/2000/svg">
<g clip-path="url(#clip0_82_793)">
<path d="M24 48C37.2548 48 48 37.2548 48 24C48 10.7452 37.2548 0 24 0C10.7452 0 0 10.7452 0 24C0 37.2548 10.7452 48 24 48Z" fill="#FF0043"/>
<path d="M24 3.40475C12.6433 3.40475 3.40475 12.6443 3.40475 24C3.40475 35.3558 12.6443 44.5953 24 44.5953C35.3558 44.5953 44.5953 35.3558 44.5953 24C44.5953 12.6443 35.3567 3.40475 24 3.40475ZM42.7158 23.6054H37.6624C37.5855 20.8962 36.7153 18.3813 35.2768 16.2858L38.9489 13.7611C39.0841 13.6683 39.1177 13.4838 39.0249 13.3497C38.9322 13.2145 38.7477 13.181 38.6135 13.2737L34.9325 15.8043C33.8729 14.3945 32.5479 13.1958 31.0325 12.2832L33.2454 8.41964C33.3263 8.27757 33.278 8.09702 33.1359 8.01612C32.9938 7.93423 32.8133 7.98455 32.7324 8.12563L30.5204 11.9892C28.6834 10.9887 26.5928 10.3968 24.372 10.3376L24.3542 5.86139C24.3542 5.64433 24.1766 5.46872 23.9596 5.46872H23.9576C23.7395 5.46872 23.5639 5.64729 23.5649 5.86533L23.5827 10.3405C20.5232 10.4333 17.7134 11.5363 15.4758 13.327L12.2101 9.47332C15.4314 6.8539 19.5366 5.28127 24.002 5.28127C34.1926 5.28127 42.5066 13.4661 42.7178 23.6073L42.7158 23.6054ZM32.7531 33.3036L29.9334 29.9758C30.5056 29.4085 30.996 28.7594 31.3877 28.048L35.2591 30.0429C34.602 31.2614 33.7535 32.3614 32.7531 33.3026V33.3036ZM12.4706 29.5131L16.4022 27.6415C16.8205 28.5107 17.3829 29.2971 18.0597 29.9699L15.1433 33.206C14.0462 32.1503 13.1376 30.9013 12.4706 29.5141V29.5131ZM5.28423 24.3946H10.3376C10.3899 26.2199 10.8013 27.9563 11.5037 29.5358L6.94072 31.7083C5.92453 29.4697 5.33849 26.9963 5.28423 24.3946ZM15.4462 14.5129L18.2629 17.8367C16.7002 19.292 15.6899 21.3322 15.5843 23.6054H11.2265C11.336 20.0033 12.9442 16.7712 15.4462 14.5129ZM24 31.0443C23.6211 31.0443 23.2502 31.0137 22.8871 30.9555L23.6103 26.8799C23.7376 26.8967 23.8678 26.9065 23.999 26.9065C24.6689 26.9065 25.2855 26.6786 25.7779 26.2958L26.8246 27.531C26.0334 28.1842 25.0192 28.5778 23.9152 28.5778C23.779 28.5778 23.6685 28.6883 23.6685 28.8245C23.6685 28.9606 23.779 29.0711 23.9152 29.0711C25.1405 29.0711 26.2662 28.6341 27.1433 27.9079L28.4535 29.4539C27.239 30.4484 25.6881 31.0453 23.999 31.0453L24 31.0443ZM17.6493 27.0476L21.3855 25.2688C21.7466 26.0107 22.4155 26.576 23.2245 26.801L22.5004 30.8825C20.3595 30.4159 18.5786 28.9754 17.6503 27.0486L17.6493 27.0476ZM19.1568 18.8914L20.395 20.3516C19.6639 21.056 19.139 21.9814 18.9368 23.0351C18.9111 23.1693 18.9989 23.2985 19.1321 23.3242C19.2663 23.3498 19.3955 23.262 19.4212 23.1288C19.6017 22.1886 20.0664 21.3618 20.7146 20.7284L21.8403 22.0574C21.4595 22.4797 21.202 23.0144 21.1211 23.6054H16.9675C17.0701 21.7535 17.892 20.0921 19.1568 18.8914ZM27.39 26.9756L26.3343 25.7305C26.6194 25.3467 26.8118 24.8909 26.8799 24.3946H28.4762C28.3923 25.3753 27.9977 26.2692 27.3909 26.9756H27.39ZM22.2774 24C22.2774 23.0499 23.0499 22.2774 24 22.2774C24.9501 22.2774 25.7226 23.0499 25.7226 24C25.7226 24.9501 24.9501 25.7226 24 25.7226C23.0499 25.7226 22.2774 24.9501 22.2774 24ZM26.8789 23.6054C26.6855 22.1886 25.469 21.0935 24 21.0935C23.4268 21.0935 22.893 21.2602 22.4422 21.5473L21.3234 20.2273C22.0663 19.7172 22.9621 19.4222 23.9152 19.4222C26.3057 19.4222 28.2739 21.2652 28.4742 23.6054H26.8779H26.8789ZM21.1211 24.3946C21.1448 24.5693 21.1842 24.739 21.2375 24.9027L17.4894 26.6875C17.1944 25.9742 17.0119 25.2027 16.9675 24.3956H21.1211V24.3946ZM27.7126 27.3564C27.9503 27.0871 28.1605 26.7931 28.3381 26.4774L30.1583 27.4156C29.8515 27.9661 29.4737 28.4713 29.0366 28.9182L27.7126 27.3564ZM28.5976 25.9456C28.7998 25.4621 28.9271 24.9402 28.9695 24.3946H31.0325C30.9831 25.2786 30.77 26.1182 30.4228 26.8858L28.5976 25.9446V25.9456ZM28.9695 23.6054C28.7672 20.9928 26.579 18.9289 23.9152 18.9289C22.8417 18.9289 21.8334 19.2673 21.0037 19.8494L19.7576 18.3793C20.9386 17.4855 22.4076 16.9547 23.999 16.9547C26.283 16.9547 28.3144 18.0479 29.6029 19.7369C29.6108 19.7596 29.6216 19.7823 29.6364 19.803C29.6542 19.8297 29.6769 19.8504 29.7006 19.8691C30.4721 20.9307 30.9545 22.2143 31.0315 23.6044H28.9685L28.9695 23.6054ZM28.4259 16.8343L30.5905 13.0537C31.9915 13.9002 33.2168 15.0072 34.1995 16.3085L30.6053 18.7799C29.9975 18.0123 29.2605 17.3523 28.4249 16.8353L28.4259 16.8343ZM27.9119 16.5413C26.8503 15.9829 25.6575 15.6425 24.3907 15.5853L24.3729 11.2265C26.432 11.2857 28.3706 11.8343 30.0765 12.7607L27.9109 16.5423L27.9119 16.5413ZM23.6014 15.5843C21.8236 15.6672 20.1898 16.3055 18.8657 17.3266L16.049 14.0028C18.1317 12.3424 20.7423 11.3193 23.5846 11.2275L23.6024 15.5853L23.6014 15.5843ZM11.2265 24.3946H15.5843C15.6317 25.4138 15.8606 26.3876 16.2394 27.2814L12.3058 29.154C11.6577 27.6899 11.2778 26.0827 11.2255 24.3946H11.2265ZM18.4958 30.3705C19.5544 31.286 20.8409 31.9441 22.2587 32.243L21.497 36.5328C19.2604 36.0868 17.2319 35.0548 15.5794 33.6045L18.4958 30.3695V30.3705ZM22.6464 32.3151C23.0874 32.3871 23.5393 32.4256 24 32.4256C24.4607 32.4256 24.8919 32.3891 25.323 32.321L26.0955 36.6077C25.4138 36.7212 24.7143 36.7804 24 36.7804C23.2857 36.7804 22.5734 36.7192 21.8847 36.6048L22.6464 32.316V32.3151ZM25.7108 32.2509C27.0703 31.9697 28.3114 31.359 29.3464 30.5066L32.1611 33.8275C30.553 35.1653 28.6124 36.1164 26.4833 36.5377L25.7108 32.2509ZM31.6521 27.5192C32.095 26.5602 32.3634 25.5056 32.4157 24.3946H36.7735C36.7173 26.2238 36.2762 27.9573 35.5274 29.5161L31.6521 27.5192ZM32.4157 23.6054C32.3407 21.9972 31.8139 20.5055 30.9585 19.2555L34.5458 16.789C35.8856 18.7414 36.6965 21.0826 36.7735 23.6054H32.4157ZM11.6063 9.98241L14.872 13.8361C12.1776 16.2582 10.4481 19.733 10.3376 23.6054H5.28423C5.3967 18.1899 7.82077 13.3329 11.6063 9.98241ZM7.10845 32.0664L11.6695 29.8949C12.3858 31.3877 13.3664 32.7314 14.5484 33.865L11.4475 37.3053C11.338 37.4266 11.3479 37.6141 11.4692 37.7236C11.5254 37.7749 11.5965 37.7996 11.6675 37.7996C11.7484 37.7996 11.8293 37.767 11.8875 37.7019L14.9855 34.2656C16.7594 35.8254 18.9378 36.9333 21.3421 37.4089L20.4591 42.3843C14.5592 41.2497 9.63611 37.3378 7.10845 32.0664ZM20.8468 42.4543L21.7298 37.4789C22.4688 37.6032 23.2265 37.6683 24 37.6683C24.7735 37.6683 25.5194 37.6042 26.2524 37.4819L27.1482 42.4543C26.1242 42.629 25.0724 42.7207 24 42.7207C22.9276 42.7207 21.8719 42.628 20.8468 42.4533V42.4543ZM27.537 42.3843L26.6411 37.4118C28.9271 36.9629 31.0108 35.9418 32.7353 34.5043L34.6839 36.8031C34.7618 36.8948 34.8733 36.9422 34.9848 36.9422C35.0746 36.9422 35.1653 36.9116 35.2393 36.8485C35.4061 36.7074 35.4258 36.4588 35.2857 36.292L33.3263 33.9804C34.4145 32.9633 35.336 31.7714 36.0464 30.4494L37.4306 31.1627C37.474 31.1854 37.5204 31.1953 37.5657 31.1953C37.6733 31.1953 37.7769 31.1371 37.8292 31.0345C37.9041 30.8894 37.8469 30.7108 37.7019 30.6359L36.3157 29.9216C37.1277 28.2404 37.6042 26.3678 37.6614 24.3927H42.7148C42.5293 33.3303 36.0483 40.7475 27.536 42.3823L27.537 42.3843Z" fill="url(#paint0_linear_82_793)"/>
</g>
<defs>
<linearGradient id="paint0_linear_82_793" x1="6.16723" y1="34.2961" x2="41.8328" y2="13.7048" gradientUnits="userSpaceOnUse">
<stop offset="0.12" stop-color="white" stop-opacity="0"/>
<stop offset="0.44" stop-color="white"/>
</linearGradient>
<clipPath id="clip0_82_793">
<rect width="48" height="48" fill="white"/>
</clipPath>
</defs>
</svg>
