<svg width="226" height="226" viewBox="0 0 226 226" fill="none" xmlns="http://www.w3.org/2000/svg">
<path d="M226 110.189C226 49.3333 175.408 0 113 0C50.5918 0 0 49.3333 0 110.189V115.811C0 176.667 50.5918 226 113 226C175.408 226 226 176.667 226 115.811V110.189Z" fill="currentColor"/>
<path d="M206.951 75.2035C201.815 63.3643 194.464 52.7319 185.102 43.6006C175.74 34.4693 164.834 27.301 152.692 22.295C140.119 17.1101 126.766 14.4792 113.001 14.4792C99.2368 14.4792 85.8834 17.1079 73.3102 22.295C61.1689 27.3033 50.2651 34.4716 40.9007 43.6006C31.5364 52.7296 24.1852 63.3643 19.0514 75.2035C13.7342 87.4638 11.0361 100.485 11.0361 113.907C11.0361 127.329 13.7319 140.35 19.0514 152.61C24.1875 164.449 31.5387 175.082 40.9007 184.213C50.2627 193.342 61.1689 200.513 73.3102 205.519C85.8834 210.703 99.2368 213.334 113.001 213.334C126.766 213.334 140.119 210.706 152.692 205.519C164.834 200.51 175.74 193.342 185.102 184.213C194.464 175.082 201.817 164.449 206.951 152.61C212.268 140.35 214.966 127.329 214.966 113.907C214.966 100.485 212.271 87.4638 206.951 75.2035ZM207.994 113.001H184.591C184.568 111.242 184.479 109.494 184.324 107.757L202.676 105.946C203.059 105.908 203.338 105.575 203.299 105.201C203.259 104.828 202.918 104.554 202.535 104.594L184.189 106.406C183.133 96.6948 180.028 87.4231 175.08 79.0707L195.316 67.7069C203.234 81.0699 207.829 96.5272 207.991 113.001H207.994ZM18.0089 113.001C18.06 107.871 18.5406 102.84 19.416 97.94L42.4309 102.004C41.7993 105.606 41.458 109.281 41.4116 113.001H18.0089ZM44.7296 102.409L65.6594 106.107C65.2717 108.355 65.0465 110.658 65.0023 113.001H43.7358C43.7846 109.397 44.1236 105.86 44.7319 102.409H44.7296ZM143.618 145.713L136.202 137.18C137.544 135.907 138.777 134.526 139.884 133.05L149.52 139.116C147.781 141.504 145.801 143.712 143.618 145.713ZM77.9819 141.061L86.9631 134.135C87.8687 135.24 88.8462 136.288 89.8887 137.268L82.1939 145.544C80.6869 144.147 79.2799 142.648 77.9819 141.061ZM83.3827 81.2103L90.7873 89.7303C85.5816 94.2834 81.8479 100.406 80.3805 107.327L69.1052 105.335C71.0579 95.8163 76.194 87.4072 83.3804 81.2103H83.3827ZM134.762 125.162L137.305 126.439C136.014 128.809 134.37 130.972 132.44 132.853L128.495 128.316C131.909 124.741 134.07 120.015 134.296 114.81H140.481C140.354 118.519 139.45 122.04 137.925 125.223L135.398 123.953C135.057 123.781 134.637 123.912 134.46 124.245C134.284 124.578 134.419 124.987 134.76 125.16L134.762 125.162ZM87.9964 125.067L100.999 119.031C102.62 122.628 105.894 125.361 109.878 126.317L107.359 140.155C98.7376 138.396 91.5884 132.688 87.9964 125.067ZM94.5396 94.048L98.106 98.1506C94.8228 101.019 92.4266 104.864 91.4189 109.277L86.0994 108.337C87.3184 102.731 90.3392 97.7657 94.5419 94.048H94.5396ZM91.4166 110.658C91.4584 110.665 91.5001 110.669 91.5419 110.669C91.6859 110.669 91.8206 110.624 91.9344 110.547C92.1735 110.515 92.3778 110.341 92.4243 110.096C93.295 105.69 95.6192 101.852 98.856 99.0132L103.855 104.766C101.621 106.89 100.163 109.784 99.9311 113.001H85.5166C85.556 111.874 85.6652 110.762 85.844 109.673L91.4166 110.658ZM123.677 122.773C123.431 122.49 123.044 122.391 122.7 122.492C124.62 120.432 125.855 117.758 126.069 114.815H133.137C132.914 119.674 130.908 124.089 127.743 127.451L123.68 122.775L123.677 122.773ZM102.915 113.909C102.915 108.486 107.44 104.074 113.001 104.074C118.562 104.074 123.088 108.486 123.088 113.909C123.088 119.332 118.562 123.744 113.001 123.744C107.44 123.744 102.915 119.332 102.915 113.909ZM126.069 113.003C125.927 111.031 125.324 109.184 124.365 107.558L130.522 104.101C132.057 106.754 132.988 109.782 133.137 113.003H126.069ZM123.877 106.788C121.52 103.379 117.527 101.13 113.001 101.13C110.113 101.13 107.442 102.047 105.274 103.596L100.293 97.8676C103.753 95.3453 108.032 93.8691 112.604 93.8691C119.953 93.8691 126.413 97.6502 130.046 103.322L123.875 106.788H123.877ZM99.9334 114.815C100.019 115.99 100.265 117.122 100.656 118.191L87.6249 124.24C86.371 121.322 85.6327 118.145 85.5189 114.815H99.9334ZM110.788 126.502C111.508 126.622 112.247 126.688 113.001 126.688C116.521 126.688 119.719 125.325 122.075 123.115C121.996 123.394 122.054 123.706 122.261 123.946L126.422 128.735C123.77 131.085 120.489 132.772 116.858 133.519C116.821 133.517 116.784 133.519 116.746 133.523C116.702 133.53 116.661 133.546 116.621 133.566C115.323 133.818 113.979 133.951 112.606 133.951C112.286 133.951 112.026 134.205 112.026 134.517C112.026 134.83 112.286 135.083 112.606 135.083C113.935 135.083 115.235 134.966 116.5 134.741L117.538 140.359C116.062 140.599 114.548 140.726 113.001 140.726C111.455 140.726 109.809 140.587 108.271 140.327L110.788 126.502ZM117.408 134.56C121.109 133.743 124.453 132.002 127.172 129.597L131.082 134.096C127.548 137.11 123.22 139.256 118.448 140.196L117.406 134.558L117.408 134.56ZM134.298 113.006C134.149 109.578 133.16 106.358 131.528 103.537L136.84 100.553C139.023 104.243 140.33 108.484 140.484 113.006H134.298ZM131.054 102.758C127.218 96.7468 120.385 92.737 112.606 92.737C107.751 92.737 103.207 94.3129 99.5433 97.0027L95.9583 92.8797C100.646 89.2593 106.569 87.0948 113.001 87.0948C122.848 87.0948 131.505 92.1687 136.362 99.7785L131.054 102.758ZM140.075 95.0193L149.513 88.691C150.147 89.5627 150.751 90.457 151.32 91.374L141.391 96.9506C140.976 96.2917 140.537 95.6465 140.075 95.0193ZM139.239 93.9302C136.687 90.7514 133.541 88.0457 129.965 85.974L135.679 76.2948C140.734 79.2043 145.155 83.0533 148.687 87.5974L139.239 93.9325V93.9302ZM128.753 85.3039C124.311 82.9695 119.268 81.5884 113.911 81.4458L113.872 70.2722C121.321 70.4126 128.331 72.3348 134.47 75.6201L128.753 85.3016V85.3039ZM112.054 81.448C106.56 81.5975 101.396 83.0533 96.8731 85.5031L91.1217 75.8443C97.3259 72.4413 104.44 70.4352 112.014 70.2767L112.054 81.4503V81.448ZM95.6703 86.1869C94.4629 86.9069 93.3043 87.7016 92.2037 88.562L84.7991 80.042C86.4175 78.7582 88.1264 77.5831 89.9189 76.5258L95.6703 86.1846V86.1869ZM80.1297 108.668C79.8929 110.085 79.7489 111.534 79.7071 113.006H68.2484C68.2925 110.855 68.4992 108.742 68.8544 106.677L80.1274 108.668H80.1297ZM79.7071 114.817C79.8255 119.017 80.7659 123.018 82.3773 126.677L72.0308 131.481C69.7135 126.364 68.3761 120.733 68.2507 114.817H79.7094H79.7071ZM82.7558 127.503C83.6892 129.468 84.8176 131.329 86.1179 133.059L77.1298 139.99C75.3001 137.603 73.7188 135.029 72.4139 132.303L82.7558 127.503ZM90.9127 138.194C95.2129 141.916 100.502 144.575 106.344 145.734L104.343 156.733C96.3344 155.196 89.0877 151.571 83.2225 146.465L90.915 138.194H90.9127ZM107.257 145.901C109.124 146.218 111.041 146.386 113.001 146.386C114.961 146.386 116.756 146.227 118.567 145.931L120.599 156.926C118.128 157.34 115.59 157.557 113.001 157.557C110.412 157.557 107.772 157.331 105.255 156.901L107.257 145.901ZM119.479 145.768C125.277 144.649 130.539 142.059 134.834 138.414L142.239 146.932C136.434 151.824 129.331 155.289 121.511 156.762L119.479 145.768ZM140.686 131.943C141.329 131.008 141.923 130.037 142.464 129.036L152.646 134.153C151.933 135.477 151.15 136.761 150.308 138L140.686 131.943ZM143.091 127.822C145.025 123.86 146.161 119.458 146.293 114.815H157.752C157.615 121.299 156.022 127.442 153.28 132.941L143.093 127.822H143.091ZM146.293 113.003C146.279 112.505 146.254 112.012 146.216 111.52L157.617 110.395C157.687 111.258 157.733 112.127 157.752 113.003H146.293ZM146.084 110.169C145.555 105.681 144.085 101.47 141.87 97.7272L151.794 92.1529C154.801 97.2291 156.786 102.951 157.482 109.043L146.084 110.169ZM154.61 90.5703L173.035 80.2231C177.734 88.1567 180.825 97.1023 181.876 106.637L160.717 108.724C159.974 102.174 157.842 96.0268 154.61 90.5703ZM154.136 89.7914C153.523 88.8019 152.876 87.8352 152.191 86.8933L169.71 75.1492C170.715 76.5416 171.665 77.9748 172.561 79.442L154.136 89.7891V89.7914ZM151.369 85.7974C147.561 80.8684 142.778 76.6933 137.3 73.5462L147.907 55.5779C156.131 60.276 163.28 66.5817 168.895 74.0465L151.366 85.7974H151.369ZM136.09 72.8737C129.471 69.3167 121.903 67.2405 113.86 67.1024L113.788 46.3629C125.718 46.4942 136.933 49.5779 146.699 54.9032L136.09 72.8737ZM112.003 67.1047C103.839 67.2677 96.1719 69.4277 89.4894 73.1024L78.8132 55.1704C88.6163 49.7251 99.9055 46.5462 111.931 46.3674L112.003 67.1047ZM88.2866 73.7862C86.3292 74.9363 84.4624 76.2201 82.6977 77.6239L68.9496 61.8066C71.6709 59.6172 74.5663 57.627 77.6104 55.8564L88.2866 73.7862ZM81.2814 78.7967C73.5308 85.4601 67.9976 94.5189 65.9079 104.775L44.9804 101.078C47.9664 86.0012 56.1047 72.6948 67.5355 62.9794L81.2814 78.7967ZM65 114.817C65.1254 121.22 66.5743 127.313 69.0936 132.844L49.8843 141.76C46.0461 133.523 43.8612 124.408 43.7312 114.817H64.9977H65ZM69.479 133.668C70.8884 136.609 72.602 139.387 74.5803 141.957L57.9042 154.818C54.9414 151.032 52.378 146.932 50.2767 142.58L69.4767 133.666L69.479 133.668ZM75.4347 143.033C76.8442 144.758 78.3743 146.384 80.0136 147.898L65.7338 163.254C63.2284 160.972 60.8972 158.51 58.761 155.891L75.4347 143.033ZM81.0399 148.815C87.3485 154.315 95.1525 158.216 103.774 159.858L100.056 180.28C87.4136 177.941 75.9758 172.24 66.76 164.171L81.0399 148.815ZM104.689 160.025C107.389 160.487 110.168 160.729 113.004 160.729C115.839 160.729 118.52 160.494 121.177 160.048L124.947 180.459C121.065 181.12 117.074 181.467 113.001 181.467C108.929 181.467 104.879 181.116 100.969 180.445L104.686 160.025H104.689ZM122.089 159.885C130.485 158.309 138.11 154.598 144.34 149.352L158.084 165.165C149.054 172.727 138.013 178.064 125.86 180.296L122.089 159.885ZM145.722 148.141C148.146 145.935 150.338 143.492 152.253 140.843L158.209 144.593C158.325 144.667 158.458 144.701 158.585 144.701C158.813 144.701 159.038 144.593 159.17 144.391C159.379 144.076 159.286 143.655 158.964 143.452L153.038 139.723C153.939 138.396 154.775 137.024 155.537 135.609L174.439 145.107C170.62 152.232 165.537 158.615 159.479 163.969L145.724 148.141H145.722ZM156.168 134.397C159.142 128.463 160.865 121.827 161.002 114.819H182.269C182.127 125.248 179.552 135.11 175.071 143.895L156.168 134.395V134.397ZM161.002 113.008C160.984 112.025 160.933 111.049 160.851 110.08L182.011 107.993C182.16 109.648 182.246 111.321 182.269 113.008H161.002ZM113.001 21.2784C147.809 21.2784 178.305 39.6293 194.851 66.9303L174.616 78.2941C173.692 76.7794 172.707 75.2963 171.662 73.845L187.447 63.2647C187.765 63.0519 187.844 62.6285 187.626 62.3205C187.407 62.0103 186.973 61.9334 186.657 62.1462L170.847 72.7447C168.681 69.8624 166.273 67.1183 163.633 64.5439C159.224 60.2443 154.336 56.5764 149.091 53.5832L158.629 37.4218C158.822 37.0957 158.706 36.6814 158.374 36.4935C158.04 36.3055 157.615 36.4187 157.422 36.7425L147.881 52.904C137.56 47.273 125.911 44.2255 113.781 44.101L113.716 25.3041C113.716 24.8059 113.298 24.4007 112.788 24.4007H112.785C112.272 24.4007 111.859 24.8082 111.859 25.3086L111.924 44.1032C99.7058 44.2776 87.9848 47.4157 77.6267 53.1734L67.8421 36.738C67.6493 36.4142 67.2221 36.3033 66.8901 36.4912C66.558 36.6791 66.4442 37.0957 66.637 37.4195L76.4239 53.8572C73.287 55.6821 70.2801 57.7515 67.4287 60.0519L52.3316 42.6791C68.7987 29.3184 89.9561 21.2739 113.004 21.2739L113.001 21.2784ZM50.9129 43.8564L66.0124 61.2315C64.7655 62.2911 63.5511 63.3937 62.3693 64.5439C52.104 74.5537 45.3426 87.0699 42.6793 100.675L19.6644 96.6087C23.7324 75.7016 35.0263 57.2602 50.9129 43.8564ZM18.0089 114.819H41.4116C41.5393 124.609 43.7196 134.078 47.7551 142.752L26.6627 152.542C21.2271 141.036 18.1412 128.266 18.0089 114.819ZM27.0551 153.364L48.1428 143.576C50.2929 148.039 52.9423 152.284 56.0536 156.249L40.8775 167.952C40.5757 168.185 40.5246 168.613 40.7638 168.905C40.9008 169.075 41.1051 169.163 41.3094 169.163C41.4603 169.163 41.6136 169.116 41.7413 169.016L56.9104 157.317C58.6031 159.389 60.4212 161.381 62.3693 163.283C62.9544 163.854 63.5488 164.406 64.1502 164.954L50.6993 179.417C50.4416 179.696 50.4624 180.124 50.748 180.377C50.8804 180.495 51.0499 180.554 51.2147 180.554C51.4051 180.554 51.5932 180.479 51.7302 180.332L65.1742 165.876C74.9889 174.486 86.8517 180.183 99.6455 182.524L95.5566 204.982C65.2043 199.469 39.8814 179.836 27.0504 153.364H27.0551ZM96.4737 205.145L100.56 182.689C104.628 183.38 108.785 183.733 112.999 183.733C117.213 183.733 121.316 183.384 125.358 182.703L129.505 205.147C124.144 206.066 118.627 206.549 112.999 206.549C107.371 206.549 101.842 206.066 96.4714 205.145H96.4737ZM130.42 204.986L126.273 182.54C138.575 180.303 150.015 174.966 159.607 166.922L167.323 175.799C167.506 176.01 167.768 176.119 168.031 176.119C168.242 176.119 168.456 176.048 168.63 175.904C169.022 175.58 169.069 175.009 168.739 174.627L161 165.722C161.894 164.932 162.769 164.121 163.628 163.283C168.874 158.169 173.202 152.397 176.538 146.164L180.648 148.229C180.75 148.281 180.859 148.304 180.966 148.304C181.219 148.304 181.463 148.17 181.586 147.935C181.763 147.602 181.628 147.192 181.287 147.02L177.175 144.953C181.897 135.69 184.454 125.445 184.591 114.819H207.994C207.55 159.695 174.219 197.037 130.42 204.984V204.986Z" fill="url(#paint0_linear_82_790)"/>
<defs>
<linearGradient id="paint0_linear_82_790" x1="24.6751" y1="163.63" x2="199.071" y2="60.373" gradientUnits="userSpaceOnUse">
<stop offset="0.12" stop-color="white" stop-opacity="0"/>
<stop offset="0.44" stop-color="white"/>
</linearGradient>
</defs>
</svg>
