<?xml version="1.0" encoding="UTF-8" standalone="no"?>
<!DOCTYPE svg PUBLIC "-//W3C//DTD SVG 1.1//EN"
 "http://www.w3.org/Graphics/SVG/1.1/DTD/svg11.dtd">
<!-- Generated by graphviz version 2.47.0 (20210316.0004)
 -->
<!-- Title: dependencies Pages: 1 -->
<svg width="799pt" height="284pt"
 viewBox="0.00 0.00 799.00 284.00" xmlns="http://www.w3.org/2000/svg" xmlns:xlink="http://www.w3.org/1999/xlink">
<g id="graph0" class="graph" transform="scale(1 1) rotate(0) translate(4 280)">
<title>dependencies</title>
<polygon fill="white" stroke="transparent" points="-4,4 -4,-280 795,-280 795,4 -4,4"/>
<text text-anchor="start" x="374.51" y="-42.4" font-family="Times-12" font-weight="bold" font-size="14.00">Legend</text>
<polygon fill="#ffffb3" stroke="transparent" points="161.5,-10 161.5,-30 181.5,-30 181.5,-10 161.5,-10"/>
<text text-anchor="start" x="185.13" y="-15.4" font-family="Times-12" font-size="14.00"> &#160;Declarations</text>
<polygon fill="#8dd3c7" stroke="transparent" points="274.5,-10 274.5,-30 294.5,-30 294.5,-10 274.5,-10"/>
<text text-anchor="start" x="298.23" y="-15.4" font-family="Times-12" font-size="14.00"> &#160;Module</text>
<polygon fill="#80b1d3" stroke="transparent" points="360.5,-10 360.5,-30 380.5,-30 380.5,-10 360.5,-10"/>
<text text-anchor="start" x="384.28" y="-15.4" font-family="Times-12" font-size="14.00"> &#160;Bootstrap</text>
<polygon fill="#fdb462" stroke="transparent" points="457.5,-10 457.5,-30 477.5,-30 477.5,-10 457.5,-10"/>
<text text-anchor="start" x="481.17" y="-15.4" font-family="Times-12" font-size="14.00"> &#160;Providers</text>
<polygon fill="#fb8072" stroke="transparent" points="553.5,-10 553.5,-30 573.5,-30 573.5,-10 553.5,-10"/>
<text text-anchor="start" x="577.23" y="-15.4" font-family="Times-12" font-size="14.00"> &#160;Exports</text>
<g id="clust1" class="cluster">
<title>cluster_OrganVersionModule</title>
<polygon fill="none" stroke="black" stroke-dasharray="1,5" points="8,-70 8,-268 783,-268 783,-70 8,-70"/>
</g>
<g id="clust5" class="cluster">
<title>cluster_OrganVersionModule_exports</title>
<polygon fill="none" stroke="black" points="327,-208 327,-260 507,-260 507,-208 327,-208"/>
</g>
<g id="clust4" class="cluster">
<title>cluster_OrganVersionModule_imports</title>
<polygon fill="none" stroke="black" points="200,-78 200,-130 775,-130 775,-78 200,-78"/>
</g>
<g id="clust2" class="cluster">
<title>cluster_OrganVersionModule_declarations</title>
<polygon fill="none" stroke="black" points="16,-78 16,-130 192,-130 192,-78 16,-78"/>
</g>
<!-- OrganVersionComponent -->
<g id="node1" class="node">
<title>OrganVersionComponent</title>
<polygon fill="#ffffb3" stroke="black" points="184.13,-122 23.87,-122 23.87,-86 184.13,-86 184.13,-122"/>
<text text-anchor="middle" x="104" y="-99.8" font-family="Times,serif" font-size="14.00">OrganVersionComponent</text>
</g>
<!-- OrganVersionModule -->
<g id="node2" class="node">
<title>OrganVersionModule</title>
<polygon fill="#8dd3c7" stroke="black" points="486.35,-187 483.35,-191 462.35,-191 459.35,-187 347.65,-187 347.65,-151 486.35,-151 486.35,-187"/>
<text text-anchor="middle" x="417" y="-164.8" font-family="Times,serif" font-size="14.00">OrganVersionModule</text>
</g>
<!-- OrganVersionComponent&#45;&gt;OrganVersionModule -->
<g id="edge1" class="edge">
<title>OrganVersionComponent&#45;&gt;OrganVersionModule</title>
<path fill="none" stroke="black" d="M104,-122.02C104,-139.37 104,-163 104,-163 104,-163 337.54,-163 337.54,-163"/>
<polygon fill="black" stroke="black" points="337.54,-166.5 347.54,-163 337.54,-159.5 337.54,-166.5"/>
</g>
<!-- OrganVersionComponent  -->
<g id="node7" class="node">
<title>OrganVersionComponent </title>
<polygon fill="#fb8072" stroke="black" points="499.13,-252 334.87,-252 334.87,-216 499.13,-216 499.13,-252"/>
<text text-anchor="middle" x="417" y="-229.8" font-family="Times,serif" font-size="14.00">OrganVersionComponent </text>
</g>
<!-- OrganVersionModule&#45;&gt;OrganVersionComponent  -->
<g id="edge6" class="edge">
<title>OrganVersionModule&#45;&gt;OrganVersionComponent </title>
<path fill="none" stroke="black" stroke-dasharray="5,2" d="M417,-187.11C417,-187.11 417,-205.99 417,-205.99"/>
<polygon fill="black" stroke="black" points="413.5,-205.99 417,-215.99 420.5,-205.99 413.5,-205.99"/>
</g>
<!-- ChooseVersionModule -->
<g id="node3" class="node">
<title>ChooseVersionModule</title>
<polygon fill="#8dd3c7" stroke="black" points="766.86,-122 763.86,-126 742.86,-126 739.86,-122 621.14,-122 621.14,-86 766.86,-86 766.86,-122"/>
<text text-anchor="middle" x="694" y="-99.8" font-family="Times,serif" font-size="14.00">ChooseVersionModule</text>
</g>
<!-- ChooseVersionModule&#45;&gt;OrganVersionModule -->
<g id="edge2" class="edge">
<title>ChooseVersionModule&#45;&gt;OrganVersionModule</title>
<path fill="none" stroke="black" d="M694,-122.28C694,-143.32 694,-175 694,-175 694,-175 496.54,-175 496.54,-175"/>
<polygon fill="black" stroke="black" points="496.54,-171.5 486.54,-175 496.54,-178.5 496.54,-171.5"/>
</g>
<!-- OrganTabsModule -->
<g id="node4" class="node">
<title>OrganTabsModule</title>
<polygon fill="#8dd3c7" stroke="black" points="602.74,-122 599.74,-126 578.74,-126 575.74,-122 481.26,-122 481.26,-86 602.74,-86 602.74,-122"/>
<text text-anchor="middle" x="542" y="-99.8" font-family="Times,serif" font-size="14.00">OrganTabsModule</text>
</g>
<!-- OrganTabsModule&#45;&gt;OrganVersionModule -->
<g id="edge3" class="edge">
<title>OrganTabsModule&#45;&gt;OrganVersionModule</title>
<path fill="none" stroke="black" d="M492.74,-122.02C492.74,-139.37 492.74,-163 492.74,-163 492.74,-163 492.13,-163 492.13,-163"/>
<polygon fill="black" stroke="black" points="496.55,-159.5 486.55,-163 496.55,-166.5 496.55,-159.5"/>
</g>
<!-- TableModule -->
<g id="node5" class="node">
<title>TableModule</title>
<polygon fill="#8dd3c7" stroke="black" points="462.92,-122 459.92,-126 438.92,-126 435.92,-122 371.08,-122 371.08,-86 462.92,-86 462.92,-122"/>
<text text-anchor="middle" x="417" y="-99.8" font-family="Times,serif" font-size="14.00">TableModule</text>
</g>
<!-- TableModule&#45;&gt;OrganVersionModule -->
<g id="edge4" class="edge">
<title>TableModule&#45;&gt;OrganVersionModule</title>
<path fill="none" stroke="black" d="M417,-122.11C417,-122.11 417,-140.99 417,-140.99"/>
<polygon fill="black" stroke="black" points="413.5,-140.99 417,-150.99 420.5,-140.99 413.5,-140.99"/>
</g>
<!-- TwoDimImageModule -->
<g id="node6" class="node">
<title>TwoDimImageModule</title>
<polygon fill="#8dd3c7" stroke="black" points="353.58,-122 350.58,-126 329.58,-126 326.58,-122 208.42,-122 208.42,-86 353.58,-86 353.58,-122"/>
<text text-anchor="middle" x="281" y="-99.8" font-family="Times,serif" font-size="14.00">TwoDimImageModule</text>
</g>
<!-- TwoDimImageModule&#45;&gt;OrganVersionModule -->
<g id="edge5" class="edge">
<title>TwoDimImageModule&#45;&gt;OrganVersionModule</title>
<path fill="none" stroke="black" d="M341.26,-122.28C341.26,-143.32 341.26,-175 341.26,-175 341.26,-175 341.87,-175 341.87,-175"/>
<polygon fill="black" stroke="black" points="337.45,-178.5 347.45,-175 337.45,-171.5 337.45,-178.5"/>
</g>
</g>
</svg>
