<svg width="24" height="24" viewBox="0 0 24 24" fill="none" xmlns="http://www.w3.org/2000/svg">
<path d="M22.6344 11.5001L19.9968 10.3865L20.3652 11.2573H17.5938L17.6524 11.7429H20.3652L19.9968 12.6052L22.6344 11.5001Z" fill="white"/>
<path d="M1 11.5001L3.62915 10.3865L3.26074 11.2573H6.03224L5.982 11.7429H3.26074L3.62915 12.6052L1 11.5001Z" fill="white"/>
<path d="M15.2867 8H8.35373C7.46586 8 6.74609 8.7197 6.74609 9.60749V13.3918C6.74609 14.2796 7.46586 14.9993 8.35373 14.9993H15.2867C16.1745 14.9993 16.8943 14.2796 16.8943 13.3918V9.60749C16.8943 8.7197 16.1745 8 15.2867 8Z" fill="white"/>
</svg>
