<svg width="40" height="40" viewBox="0 0 40 40" fill="none" xmlns="http://www.w3.org/2000/svg">
<g clip-path="url(#clip0_1409_381)">
<path d="M20.0041 40.0083C31.0521 40.0083 40.0083 31.0521 40.0083 20.0041C40.0083 8.95616 31.0521 0 20.0041 0C8.95616 0 0 8.95616 0 20.0041C0 31.0521 8.95616 40.0083 20.0041 40.0083Z" fill="#201E3D"/>
<g clip-path="url(#clip1_1409_381)">
<path d="M25.5809 18.2644C25.4432 18.1074 25.2072 18.0682 24.9908 18.0584C24.7745 18.0584 24.5581 18.0878 24.3516 18.0191C23.9386 17.8916 23.7321 17.4402 23.4862 17.0673C22.9847 16.2921 22.1291 15.7426 21.2047 15.6249C20.9588 15.5955 20.6638 15.5562 20.5655 15.3305C20.5262 15.252 20.5262 15.1539 20.5262 15.0656C20.5163 14.8595 20.477 14.6338 20.3196 14.4965C20.1623 14.3591 19.8673 14.3787 19.7984 14.575C19.7394 14.7418 19.8673 14.9086 19.9361 15.0656C20.1328 15.5268 19.4837 15.6151 19.1887 15.674C18.7364 15.7721 18.2742 15.8113 17.8415 15.988C17.2809 16.2038 16.8089 16.6356 16.5335 17.1654C16.3762 17.4598 16.2188 17.8425 15.8845 17.8523C15.7271 17.8523 15.5501 17.7836 15.4419 17.8817C15.3141 17.9897 15.3928 18.1957 15.5009 18.3135C15.6091 18.4312 15.7566 18.549 15.7665 18.7158C15.7665 18.8237 15.7173 18.9219 15.6681 19.02C15.1764 19.9718 15.1961 20.433 15.3043 21.5025C15.4026 22.4739 15.6976 22.8762 15.7665 23.0234C15.8255 23.1608 15.7861 23.3178 15.737 23.465C15.6878 23.6024 15.619 23.7495 15.6386 23.8967C15.6583 24.0439 15.796 24.1911 15.9435 24.1519C16.0812 24.1126 16.1303 23.9262 16.2287 23.828C16.3958 23.6612 16.681 23.7201 16.8679 23.8673C17.0449 24.0145 17.1531 24.2304 17.3104 24.407C17.7234 24.8878 18.3922 25.0644 19.0314 25.0742C19.6608 25.0938 20.3 24.9761 20.9293 25.0153C20.949 25.0153 20.9687 25.0153 20.9884 25.0153C20.9884 25.0546 20.9982 25.0938 20.9982 25.1331C20.9982 25.2312 20.9392 25.3097 20.8998 25.398C20.8605 25.4765 20.8507 25.5746 20.8998 25.6531C20.9589 25.7415 21.0965 25.7611 21.185 25.712C21.2834 25.663 21.3424 25.5648 21.3915 25.4667C21.4604 25.3293 21.4899 25.1822 21.4997 25.035C21.7554 25.035 22.0111 25.0153 22.2176 24.878C22.3946 24.7602 22.5225 24.5934 22.6798 24.456C23.0043 24.1715 23.437 24.0537 23.7616 23.779C24.1254 23.465 24.3024 22.9842 24.4598 22.523C24.5778 22.4641 24.7155 22.5819 24.8433 22.5917C25.0301 22.5917 25.1482 22.3464 25.0695 22.1698C24.9908 21.9931 24.804 21.9048 24.6171 21.8558C24.7056 21.267 24.7056 20.6586 24.6171 20.0699C24.5778 19.805 24.5188 19.5302 24.5679 19.2653C24.627 19.0004 24.8433 18.7452 25.1088 18.755C25.2367 18.755 25.3645 18.8139 25.4825 18.7747C25.689 18.7158 25.7185 18.4018 25.5809 18.2448V18.2644ZM19.7886 22.7585C18.815 22.7585 18.0185 21.9735 18.0185 20.9923C18.0185 20.011 18.8052 19.226 19.7886 19.226C20.772 19.226 21.5587 20.011 21.5587 20.9923C21.5587 21.9735 20.772 22.7585 19.7886 22.7585Z" fill="white"/>
<path d="M9.11194 20.2431H12.8793" stroke="white" stroke-width="0.75" stroke-linecap="round" stroke-linejoin="round"/>
<path d="M8.57373 21.3194V19.1667" stroke="white" stroke-width="0.75" stroke-linecap="round" stroke-linejoin="round"/>
<path d="M31.2193 20.2431L27.4519 20.2431" stroke="white" stroke-width="0.75" stroke-linecap="round" stroke-linejoin="round"/>
<path d="M31.7575 19.1667L31.7575 21.3194" stroke="white" stroke-width="0.75" stroke-linecap="round" stroke-linejoin="round"/>
</g>
</g>
<defs>
<clipPath id="clip0_1409_381">
<rect width="40" height="40" fill="white"/>
</clipPath>
<clipPath id="clip1_1409_381">
<rect width="25.8333" height="25.8333" fill="white" transform="translate(7.08334 6.25)"/>
</clipPath>
</defs>
</svg>
