<svg width="80" height="80" viewBox="0 0 80 80" fill="none" xmlns="http://www.w3.org/2000/svg">
<g clip-path="url(#clip0_1409_398)">
<g clip-path="url(#clip1_1409_398)">
<path d="M40 80C62.0914 80 80 62.0914 80 40C80 17.9086 62.0914 0 40 0C17.9086 0 0 17.9086 0 40C0 62.0914 17.9086 80 40 80Z" fill="#201E3D"/>
<path d="M38.9181 55.9771C38.2172 55.9771 37.6381 55.3676 37.8133 54.7276C38.3848 52.579 39.5733 50.9105 40.3581 48.8229C40.5333 48.3581 40.8991 48 41.2495 47.6495C44.6552 44.2362 48.0686 40.8229 51.4514 37.3943C51.8324 37.0057 52.0229 36.9752 52.4191 37.3867C54.0876 39.1086 54.9333 40.0838 56.64 41.7676C56.9524 42.0724 57.0667 42.2476 56.6857 42.6209C53.2267 46.0495 49.7905 49.5009 46.3391 52.9448C45.8057 53.4781 45.181 53.8743 44.4572 54.0876C42.6362 54.6286 41.0438 55.3828 39.2229 55.9086C39.1086 55.939 38.9867 55.9619 38.9257 55.9771H38.9181Z" fill="white"/>
<path d="M57.5848 32.9524C57.6305 32.9524 58.0191 32.9752 58.3543 33.2648C59.901 34.5829 60.2362 34.9181 61.181 36.1829C61.7524 36.96 61.0896 38.0571 60.4343 38.7733C59.7791 39.4819 59.0781 40.1371 58.4077 40.8381C58.1867 41.0667 58.042 41.0819 57.8058 40.8533C55.9924 39.0248 55.04 38.0876 53.2191 36.2743C53.0591 36.1143 52.9677 35.9924 53.1734 35.7943C53.981 35.0248 54.7505 34.2248 55.581 33.4857C56.0762 33.0438 56.7162 32.9067 57.5848 32.9524Z" fill="white"/>
<path d="M35.1771 53.341C31.2457 52.1219 28.0381 49.2495 26.3771 45.5543L29.8895 43.9848C30.4076 45.1352 31.1314 46.179 32.0076 47.0629L29.5847 49.6229C29.5009 49.7143 29.5009 49.859 29.5923 49.9429C29.6304 49.981 29.6914 50.0038 29.7447 50.0038C29.8057 50.0038 29.8666 49.981 29.9123 49.9352L32.3352 47.3752C33.44 48.3886 34.7581 49.1733 36.2209 49.6381L36.4114 48.9752C35.0552 48.541 33.8209 47.8248 32.8 46.8876L35.0781 44.48C35.8704 45.1962 36.8381 45.7219 37.9123 45.9733L37.8819 46.1105L38.9943 45.0667C38.7962 45.0514 38.5981 45.0438 38.4152 45.0057L39.04 41.9124C39.139 41.9276 39.2381 41.9352 39.3371 41.9429C39.8476 41.9581 40.32 41.7905 40.7009 41.5086L41.4781 42.4686C40.8609 42.9486 40.0838 43.2305 39.2457 43.2152C39.139 43.2152 39.0552 43.2914 39.0552 43.3981C39.0552 43.5048 39.1314 43.5886 39.2381 43.5886C39.8628 43.6038 40.4495 43.459 40.9752 43.2076L42.9562 41.3486L42.8647 41.2952C43.0247 40.9295 43.1314 40.5333 43.1771 40.1219L44.2362 40.1448L45.7371 38.7352C45.5923 37.8286 45.2647 36.9829 44.7847 36.2438L47.5657 34.4305C47.9238 34.979 48.2209 35.5581 48.4647 36.1752L48.9904 35.68C48.7543 35.1162 48.4647 34.5752 48.1371 34.0648L50.979 32.2057C51.0857 32.1371 51.1162 32 51.0476 31.8933C50.979 31.7867 50.8419 31.7562 50.7352 31.8248L47.8857 33.6838C47.1009 32.5867 46.1181 31.6495 44.9828 30.9333L46.7428 28.0305C46.8038 27.9238 46.7733 27.7867 46.6666 27.7181C46.56 27.6495 46.4228 27.6876 46.3543 27.7943L44.6019 30.6971C43.2228 29.9048 41.6381 29.4095 39.9466 29.3257L40.0152 25.9124C40.0152 25.7448 39.8857 25.6076 39.7181 25.6076C39.5504 25.6076 39.4133 25.7371 39.4133 25.9048L39.3447 29.3105C37.0133 29.3257 34.8495 30.1105 33.1123 31.4362L30.6971 28.4419C33.1962 26.5067 36.3581 25.3867 39.7562 25.4629C45.0285 25.5924 49.5695 28.5867 51.9314 32.9067L52.9981 31.9086C50.3543 27.3219 45.4628 24.1676 39.7943 24.0305C31.1466 23.8248 23.939 30.6895 23.7257 39.3371C23.5504 46.5143 28.259 52.6857 34.8114 54.7048L35.2 53.341H35.1771ZM29.6533 39.779L32.9752 39.8629C32.9904 40.64 33.1504 41.3867 33.4247 42.0724L30.3923 43.4286C29.9276 42.301 29.6685 41.0667 29.6609 39.7867L29.6533 39.779ZM32.4723 46.5676C31.6571 45.7448 30.9866 44.7771 30.5066 43.7029L33.539 42.3467C33.8438 43.0171 34.2552 43.6267 34.7581 44.1524L32.48 46.56L32.4723 46.5676ZM35.6952 39.1162C35.7943 39.139 35.8933 39.0705 35.9162 38.9714C36.0685 38.2552 36.4419 37.6381 36.9447 37.1657L37.7752 38.2019C37.4781 38.5143 37.2723 38.9181 37.1962 39.3676L34.0343 39.2914C34.1485 37.8819 34.8038 36.6324 35.7866 35.741L36.7009 36.8762C36.1295 37.4019 35.7181 38.0952 35.5428 38.8952C35.52 38.9943 35.5885 39.0933 35.6876 39.1162H35.6952ZM37.1885 39.9619C37.2038 40.0914 37.2266 40.221 37.2647 40.3505L34.3771 41.6381C34.1638 41.0895 34.0419 40.4952 34.019 39.8857L37.1809 39.9619H37.1885ZM38.1181 44.9295C36.4952 44.5333 35.1695 43.4057 34.4914 41.92L37.3714 40.6324C37.6304 41.2038 38.1333 41.6457 38.7428 41.8362L38.1181 44.9295ZM39.36 41.0286C38.6362 41.0133 38.0647 40.4114 38.08 39.6876C38.0952 38.9638 38.6971 38.3924 39.4209 38.4076C40.1447 38.4229 40.7162 39.0248 40.7009 39.7486C40.6857 40.4724 40.0838 41.0438 39.36 41.0286ZM41.92 42.0495L41.1352 41.0819C41.3562 40.7924 41.5162 40.4495 41.5771 40.0762L42.7962 40.1067C42.7123 40.8533 42.4 41.5238 41.92 42.0495ZM41.5923 39.4667C41.4704 38.3848 40.5638 37.5238 39.4438 37.501C39.0095 37.4933 38.5981 37.6076 38.2476 37.821L37.4171 36.7924C37.9962 36.419 38.6819 36.2057 39.4057 36.2286C41.2266 36.2743 42.6895 37.7143 42.8038 39.4971L41.5923 39.4667ZM44.6095 31.5048C45.6609 32.1752 46.5752 33.0438 47.299 34.0495L44.5181 35.8629C44.0685 35.2686 43.52 34.7505 42.8952 34.339L44.6171 31.4971L44.6095 31.5048ZM39.9085 29.9962C41.4781 30.08 42.9409 30.5295 44.2209 31.2686L42.499 34.1105C41.699 33.6686 40.8 33.3867 39.8323 33.3181L39.9009 29.9962H39.9085ZM39.52 34.3543C41.2571 34.4 42.7885 35.2686 43.7333 36.579C43.7333 36.5943 43.7485 36.6171 43.7562 36.6324C43.7714 36.6552 43.7866 36.6705 43.8019 36.6857C44.3733 37.5086 44.7162 38.4914 44.7466 39.5581L43.1771 39.52C43.0704 37.5238 41.44 35.9162 39.4133 35.8629C38.5981 35.84 37.8209 36.0838 37.1809 36.5105L36.259 35.3676C37.1733 34.7048 38.3009 34.3314 39.5123 34.3619L39.52 34.3543ZM39.3066 29.981L39.2381 33.3029C37.8819 33.3333 36.6247 33.7905 35.5962 34.5448L33.5085 31.9619C35.1238 30.7352 37.1352 30.0038 39.299 29.9886L39.3066 29.981ZM35.1314 34.9181C33.9123 36 33.1047 37.5314 32.9828 39.261L29.6609 39.1771C29.8133 36.4343 31.0933 34.0038 33.0438 32.3276L35.1314 34.9105V34.9181ZM30.2095 28.8152L32.6247 31.8095C30.5295 33.6076 29.1428 36.221 28.9904 39.1695L25.1428 39.0781C25.3257 34.9562 27.2609 31.299 30.2095 28.8152ZM25.1276 39.6724L28.9752 39.7638C28.9752 41.1581 29.2647 42.4838 29.7676 43.7029L26.2552 45.2724C25.5238 43.5505 25.12 41.6533 25.1276 39.6724Z" fill="white"/>
</g>
</g>
<defs>
<clipPath id="clip0_1409_398">
<rect width="80" height="80" fill="white"/>
</clipPath>
<clipPath id="clip1_1409_398">
<rect width="80" height="80" fill="white"/>
</clipPath>
</defs>
</svg>
