<svg width="80" height="80" viewBox="0 0 80 80" fill="none" xmlns="http://www.w3.org/2000/svg">
<g clip-path="url(#clip0_1409_390)">
<g clip-path="url(#clip1_1409_390)">
<path d="M40 80C62.0914 80 80 62.0914 80 40C80 17.9086 62.0914 0 40 0C17.9086 0 0 17.9086 0 40C0 62.0914 17.9086 80 40 80Z" fill="#201E3D"/>
<path d="M32.8609 56.4876C31.8324 56.4876 30.9943 55.6495 30.9943 54.6209V28.6705C30.9943 27.6419 31.8324 26.8038 32.8609 26.8038H52.2666C53.2952 26.8038 54.1333 27.6419 54.1333 28.6705" stroke="white" stroke-width="2" stroke-miterlimit="10"/>
<path d="M28.2895 51.6495C27.2609 51.6495 26.4229 50.8114 26.4229 49.7829V23.8324C26.4229 22.8038 27.2609 21.9657 28.2895 21.9657H47.6952C48.7238 21.9657 49.5619 22.8038 49.5619 23.8324" stroke="white" stroke-width="2" stroke-miterlimit="10"/>
<path d="M55.901 30.3543H37.4248C36.1372 30.3543 35.0934 31.3981 35.0934 32.6857V57.7067C35.0934 58.9943 36.1372 60.0381 37.4248 60.0381H55.901C57.1886 60.0381 58.2324 58.9943 58.2324 57.7067V32.6857C58.2324 31.3981 57.1886 30.3543 55.901 30.3543ZM46.6591 38.88C48.4039 38.88 49.8134 40.2971 49.8134 42.0343C49.8134 43.7714 48.3962 45.1886 46.6591 45.1886C44.922 45.1886 43.5048 43.7714 43.5048 42.0343C43.5048 40.2971 44.922 38.88 46.6591 38.88ZM51.9239 50.6286C51.9239 51.1162 51.5277 51.5048 51.0477 51.5048H42.2781C41.7981 51.5048 41.402 51.1162 41.402 50.6286C41.402 48.2057 43.3677 46.24 45.7829 46.24H47.5353C49.9581 46.24 51.9239 48.1981 51.9239 50.6209V50.6286Z" fill="white"/>
</g>
</g>
<defs>
<clipPath id="clip0_1409_390">
<rect width="80" height="80" fill="white"/>
</clipPath>
<clipPath id="clip1_1409_390">
<rect width="80" height="80" fill="white"/>
</clipPath>
</defs>
</svg>
