<?xml version="1.0" encoding="utf-8"?>
<!-- Generator: Adobe Illustrator 27.0.0, SVG Export Plug-In . SVG Version: 6.00 Build 0)  -->
<svg version="1.1" xmlns="http://www.w3.org/2000/svg" xmlns:xlink="http://www.w3.org/1999/xlink" x="0px" y="0px"
	 viewBox="0 0 673.3 419.8" style="enable-background:new 0 0 673.3 419.8;" xml:space="preserve">
<style type="text/css">
	#sketch { mix-blend-mode: multiply; }
	#nuclei { mix-blend-mode: multiply; }
	#membrane { mix-blend-mode: multiply; }
	.st0{fill:none;}
	.st1{fill:#F4E4EA;}
	.st2{fill:#CD5257;}
	.st3{fill:#F9C7DC;}
	.st4{fill:#BA9BC9;}
	.st5{fill:none;stroke:#F5A59A;stroke-width:8;stroke-miterlimit:10;}
	.st6{fill:#E2A489;}
	.st7{fill:#A9A9A9;}
	.st8{fill:#A7A7A7;}
	.st9{fill:#C2C2C2;}
	.st10{fill:#BDBDBD;}
	.st11{fill:#B8B8B8;}
	.st12{fill:#D3D3D3;}
	.st13{fill:#BEBEBE;}
	.st14{fill:#9D9D9D;}
	.st15{fill:#C8C8C8;}
	.st16{fill:#BBBBBB;}
	.st17{fill:#A3A3A3;}
	.st18{fill:#A6A6A6;}
	.st19{fill:#DEDEDE;}
	.st20{fill:#CBCBCB;}
	.st21{fill:#A1A1A1;}
	.st22{fill:#ABABAB;}
	.st23{fill:#CCCCCC;}
	.st24{fill:#B6B6B6;}
	.st25{fill:#9F9F9F;}
	.st26{fill:#C1C1C1;}
	.st27{fill:#A8A8A8;}
	.st28{fill:#B2B2B2;}
	.st29{fill:#939393;}
	.st30{fill:#AEAEAE;}
	.st31{fill:#858585;}
	.st32{fill:#C9C9C9;}
	.st33{fill:#8E8E8E;}
	.st34{fill:#EEEEEE;}
	.st35{fill:#FFFFFF;}
	.st36{fill:#777777;}
	.st37{fill:#6C6C6C;}
	.st38{fill:#5F5F5F;}
	.st39{fill:#B7B7B7;}
	.st40{fill:#666666;}
	.st41{fill:#8B8B8B;}
	.st42{fill:#FEFEFE;}
	.st43{fill:#B5B5B5;}
	.st44{fill:#FDFDFD;}
	.st45{fill:#848484;}
	.st46{fill:#7E7E7E;}
	.st47{fill:#8F8F8F;}
	.st48{fill:#A4A4A4;}
	.st49{fill:#A0A0A0;}
	.st50{fill:none;stroke:#FFFFFF;stroke-miterlimit:10;}
	.st51{fill:none;stroke:#000000;stroke-miterlimit:10;}
	.st52{fill:none;stroke:#000000;stroke-width:1.5;stroke-miterlimit:10;}
	.st53{fill:url(#SVGID_1_);stroke:#231F20;stroke-width:0.9396;stroke-miterlimit:10;}
	.st54{opacity:0.1;}
	.st55{opacity:0.9;}
	.st56{opacity:0.3;}
	.st57{fill:url(#SVGID_00000101802444189720617520000016622107658414639533_);}
	.st58{fill:url(#SVGID_00000152980995808130325820000006899989267185633175_);}
	.st59{fill:none;stroke:#231F20;stroke-width:0.9396;stroke-miterlimit:10;}
	.st60{fill:#FFFFFF;stroke:#231F20;stroke-width:0.2349;stroke-miterlimit:10;}
	.st61{fill:none;stroke:#000000;stroke-width:1.4871;stroke-miterlimit:10;}
</style>
<g id="Crosswalk">
	<g id="Descending_x5F_Thin_x5F_Loop_x5F_Of_x5F_Henle">
		<g id="Descending_x5F_Vasa_x5F_recta">
			<polyline class="st0" points="90.8,74.1 105.2,59.3 118.2,53.7 132.9,53.7 156.2,64.6 175,75.8 182.7,86.5 187.7,99.1 184,123.4 
				183,139 182.2,152.2 183.8,163.3 184,172.7 195,140.7 202.7,115.8 205.4,94.2 199.7,70.7 186.5,52 170.9,41.5 146.1,37.2 
				121.4,40 102,51 89.7,60.9 82.7,72.2 90.8,74.1 			"/>
			<polyline class="st0" points="79.1,76.1 67.8,100.4 61.8,128.2 57.2,159.3 49.4,201.9 44.9,238 42.8,256.7 48.1,271.9 61,284.6 
				63.4,274.6 55.2,245.6 59.2,220.7 73.5,197 85.7,167.3 86.1,136.1 83.9,119.7 85.7,98.2 88.9,77.5 79.1,76.1 			"/>
			<polyline class="st0" points="68.1,288.9 82.7,303.2 105.1,309.5 130.1,305.4 152.7,290.9 163.5,273.9 171.2,253.1 174.9,237.1 
				176.8,224.5 180.4,200.9 181.9,188.2 181.9,178.8 177.7,175.2 173.9,184.8 172.5,199.8 165,216 146.4,232.8 129.9,248.6 
				121.7,258 120.6,269.7 113,284.6 101.2,294.7 82.7,291.4 68.1,288.9 			"/>
		</g>
		<g id="Descending_x5F_Thin_x5F_Limb_x5F_Cell">
			<polyline class="st0" points="323,135 296.1,152.6 275.8,178.3 262.8,199.8 254.4,227.8 251.4,252.3 253.9,282.5 259.3,307.1 
				270.1,322 277.6,325.2 288.5,312.5 291.9,303.1 281.5,273.4 281.6,257.6 294.5,236.2 302.2,215.6 307.6,194.6 316.3,177 
				325.1,166 327.9,157.3 329.2,141.8 323,135 			"/>
			<polyline class="st0" points="304.6,311.6 291.7,311.6 283.2,319.9 280.5,331.1 293.8,341.1 330.6,352.5 372.3,354 398.5,347.2 
				431.5,333.7 451.9,319.1 463.6,306.3 470,288 472.8,282.8 445.1,279.5 433.7,275.7 429.1,284.6 411,296.2 392.6,300.3 
				372.3,305.3 356.3,312.1 343,319.2 319.7,316.3 304.6,311.6 			"/>
			<polyline class="st0" points="331.9,160.3 343.9,164.2 355.9,162.8 366.2,162.3 385.2,177.7 398.7,194.9 414.9,205.1 
				426.9,211.9 440.2,234.6 442.7,245.6 438.7,263.7 439.2,270.9 451.9,276.7 468.1,280.5 476.5,275.7 480.8,249.6 480.8,228 
				470,193.9 451.9,167.9 423.9,145.7 389.4,135 360.5,130.1 336.8,130.1 331.9,137.9 329.2,149.1 331.9,160.3 			"/>
		</g>
	</g>
</g>
<g id="art">
	<g>
		<path class="st1" d="M104.5,56.3c-17,18.5-28.7,41.8-33.3,66.5c-2.1,11.4-2.8,23-5.5,34.3c-2.1,8.8-5.5,17.3-7.9,26.1
			c-6.3,22.1-7,45.5-4.4,68.3c0.6,5.2,1.4,10.5,3.4,15.4c1.9,4.6,4.9,8.6,7.9,12.6c4.5,6,9,12.1,15.2,16.3
			c5.7,3.9,12.4,5.9,19.1,7.7c3.4,1,7,1.9,10.5,1.8c4.5-0.2,8.7-2,12.4-4.5c11.7-7.8,18.3-20.9,24.4-33.5
			c10.9-22.5,22-45.2,28.5-69.4c6.5-24.3,8.4-49.7,15.4-73.9c2.8-9.8,6.4-19.7,5.2-29.8c-1.5-12.3-10.1-22.6-19.5-30.6
			c-7.5-6.4-16-12-25.7-13.5c-8.2-1.3-16.6,0.4-24.8,2.1c-7.3,1.5-14.6,3.1-21.9,4.7"/>
		<g>
			<path class="st1" d="M103.1,54.9c-13.4,14.6-23.5,32-29.6,50.9c-3.3,10.1-5,20.4-6.4,30.8c-0.7,5.6-1.5,11.1-2.6,16.6
				c-1.1,5.6-2.8,11-4.6,16.4c-1.7,5.3-3.5,10.6-4.9,16c-1.4,5.4-2.5,10.8-3.3,16.3c-1.6,11.1-2.1,22.3-1.6,33.5
				c0.2,5.5,0.7,11.1,1.3,16.6c0.6,5.4,1.5,10.9,3.7,15.9c2.1,4.9,5.3,9.1,8.4,13.3c3,4,6,8,9.6,11.5c3.7,3.6,7.9,6.4,12.5,8.4
				c4.9,2.1,10.1,3.6,15.2,5c5.4,1.4,10.7,1.7,15.9-0.3c4.6-1.8,8.7-4.7,12.2-8c6.9-6.5,11.7-14.7,15.9-23.1
				c4.8-9.5,9.4-19.2,13.9-28.9c4.6-10.1,9-20.3,12.7-30.7c3.7-10.5,6.6-21.3,8.9-32.3c2.2-11,3.9-22.1,6-33.1
				c1-5.6,2.2-11.1,3.5-16.7c1.3-5.4,2.9-10.7,4.5-16.1c2.9-10.2,4.9-20.8,1.1-31c-3.3-8.9-9.7-16.3-16.7-22.6
				c-7.3-6.5-15.8-12.5-25.5-14.7c-11.1-2.6-22.4,0.4-33.3,2.7C114.3,52.5,108.7,53.7,103.1,54.9c-2.6,0.6-1.5,4.4,1,3.9
				c5.6-1.2,11.3-2.4,16.9-3.6c5.4-1.1,10.8-2.4,16.3-3.1c5.2-0.6,10.6-0.7,15.7,0.7c4.7,1.2,9,3.3,13,5.9
				c7.6,4.9,14.9,11.3,20.2,18.7c2.6,3.6,4.8,7.5,6.1,11.8c1.4,4.7,1.7,9.7,1,14.5c-0.7,5.4-2.3,10.6-3.8,15.7
				c-1.5,5.2-3,10.4-4.2,15.7c-2.4,10.7-4.2,21.5-6.1,32.3c-1.9,10.7-3.9,21.4-6.8,31.8c-2.9,10.3-6.6,20.3-10.7,30.2
				c-4.1,9.9-8.8,19.7-13.4,29.4c-4.2,8.6-8.1,17.4-13.3,25.4c-4.8,7.4-11.4,14.9-19.9,18c-5.2,1.9-10.1,1-15.3-0.5
				c-4.8-1.3-9.7-2.7-14.2-4.9c-9-4.4-14.9-12.4-20.6-20.2c-3-4.1-5.8-8.3-7.3-13.2c-1.6-5.1-2.1-10.4-2.7-15.6
				c-2.1-21.4-1.2-43.2,4.7-64c3-10.6,7.1-20.8,9.1-31.6c2-10.7,2.7-21.5,5-32.1c4-18.6,12-36.2,23.2-51.5c2.8-3.7,5.7-7.3,8.9-10.8
				C107.7,55.8,104.9,53,103.1,54.9L103.1,54.9z"/>
		</g>
	</g>
	<g>
		<path class="st2" d="M98.4,196.2C83,207.9,73.9,229,80.1,247.3c0.8,2.5,2,5,3.6,7.1c5.1,6.6,10.7,8.7,18.5,6s17.9-9.4,21-17.1
			c3.1-7.7,4.5-16.2,3.7-24.5c-0.7-6.7-3.4-13.7-7.9-18.7c-4.5-5-12.6-7.3-18.3-3.6"/>
		<g>
			<path class="st2" d="M95.6,193.4c-10.4,8.1-18.2,20-20.6,33.1c-2.3,12.4,0,28.1,11.1,35.8c10.8,7.5,25,0.1,33.5-7.7
				c10.8-9.8,13.5-27.8,10.3-41.5c-3.2-13.4-16.4-28.5-31.3-20.1c-4.5,2.6-0.4,9.5,4,6.9c6.3-3.6,12.8,1.2,16.1,6.6
				c3.8,6.4,4.8,13.8,4.2,21.2c-0.6,6.9-2.4,14.5-7.3,19.7c-4.3,4.5-10.5,8.4-16.6,9.8c-14,3.1-17.8-16.7-16.5-26.7
				c1.6-12.6,9-23.7,18.8-31.3C105.3,195.9,99.6,190.3,95.6,193.4L95.6,193.4z"/>
		</g>
	</g>
	<g>
		<path class="st2" d="M125.9,162.1c-4.6-5.5-10.8-9.6-17.7-11.8c-2-0.6-4.2-1.1-6.2-0.6c-2.1,0.5-3.9,2.2-4,4.3
			c0,1.3-0.3,2.4,0.2,3.6c7.8,18.9,18.1,26.5,29.7,37.2c2.5,2.3,6.1,3.5,9.2,4.7c3.1,1.2,5.9,2.2,8.6,0.1c2.3-1.7,3.4-4.6,4.4-7.3
			c2.3-6.1,4.4-13.8,0-18.6c-1.3-1.5-3.1-2.5-4.9-3.4c-5.7-3-11.5-5.8-17.3-8.4"/>
		<g>
			<path class="st2" d="M128.8,159.3c-6.2-7-21.9-19.1-31.4-11.5c-9.7,7.7,3.2,24.2,8.4,30.9c3.4,4.3,7.3,8.2,11.3,11.9
				c4.3,3.9,8.4,8.5,13.8,10.9c5.1,2.3,11.6,5.3,16.8,1.8c4.5-3,6.5-9.5,7.9-14.5c1.6-5.9,1.9-12.9-2.6-17.7
				c-2.7-2.9-6.5-4.5-10-6.3c-4.3-2.2-8.7-4.2-13.1-6.2c-4.7-2.1-8.7,4.8-4,6.9c5.9,2.6,11.7,5.3,17.3,8.4c6.1,3.3,6.1,7.9,4.2,14.1
				c-0.7,2.2-1.5,5.4-3,7.2c-2.4,2.7-5.6,0.9-8.4-0.2c-5-2-8.5-5.7-12.4-9.2c-6.9-6.2-13.1-12.9-17.7-21c-1.3-2.3-2.9-4.8-3.7-7.4
				c-1.7-5.4,4.5-3.4,7.3-2.3c5.3,2.1,9.7,5.6,13.5,9.9C126.5,168.8,132.1,163.2,128.8,159.3L128.8,159.3z"/>
		</g>
	</g>
	<g>
		<path class="st2" d="M120.6,72.2c-9.8,2.1-16.5,12.3-17,22.4s4.1,19.7,10.2,27.8c3.8,5,8.1,9.6,13.4,13c2.5,1.5,5.1,2.8,8,3.3
			c7.1,1.1,14.4-3.3,17.9-9.7c3.5-6.3,3.7-14.1,1.9-21.1s-5.3-13.4-9-19.6c-2.5-4.2-5.1-8.4-8.8-11.4s-8.9-4.8-13.5-3.3"/>
		<g>
			<path class="st2" d="M119.5,68.3c-11.8,3-19.3,14.4-19.9,26.2c-0.7,14.4,8,28.7,18.1,38.3c9.8,9.3,23.1,13.9,34.2,3.9
				c11-9.9,9.3-26.3,4-38.6c-5.7-13-15.9-32.7-33.1-28.6c-5,1.2-2.9,8.9,2.1,7.7c7.7-1.8,13,5.1,16.5,10.8c3.5,5.7,7,11.7,9.1,18.2
				c2.1,6.6,2.7,14.3-0.8,20.6c-2.9,5.2-9,9-15.1,7.5c-11.9-3.1-22.2-18.2-25.6-29.4c-3.4-11.2-0.1-25.7,12.6-28.9
				C126.6,74.8,124.5,67.1,119.5,68.3L119.5,68.3z"/>
		</g>
	</g>
	<g>
		<path class="st3" d="M82.7,76.7c-11,17.3-15,38.1-18.8,58.2c-1,5.4-2,10.7-3,16.1c-3.5,18.4-6.9,36.8-9,55.4
			c-0.5,4.9-1,9.9-2.3,14.6c-0.9,3.1-2.1,6.1-2.8,9.3c-2.2,9.1-2.5,18.6-0.7,27.8c1.9,9.5,6.8,20.1,15.3,24.8
			c2-16.3-11.8-31.5-10-47.8c0.6-5.5,3-10.6,5.5-15.5c6.7-13.4,14.4-26.2,20.3-39.9s10-28.6,9-43.5c-0.4-6.7-1.9-13.2-2.5-19.9
			c-1.2-13.3,1-26.7,3.2-40c-1-0.9-2.9-0.6-3.5,0.7"/>
		<g>
			<path class="st3" d="M81,75.7c-7.4,11.7-11.8,25.1-14.9,38.5c-3.4,14.4-5.8,29-8.5,43.6c-2.9,15.4-5.6,30.7-7.4,46.3
				c-0.4,3.8-0.8,7.6-1.4,11.4c-0.6,3.7-1.8,7.3-2.9,10.8c-2.3,7-3.2,14.6-3,22c0.5,13.2,5,29.5,17.4,36.4c1.4,0.8,2.8-0.2,3-1.7
				c1.4-12.3-5.4-23.4-8.6-34.9c-1.7-6-2.1-12-0.2-18c2.1-6.8,5.9-13.2,9.2-19.5c6.8-12.9,14-25.6,18.8-39.4
				c2.4-6.9,4.2-13.9,5.1-21.2c0.9-7.4,0.6-14.7-0.5-22.1c-0.6-4.2-1.3-8.3-1.6-12.6c-0.3-4.2-0.3-8.5-0.1-12.7
				c0.5-8.7,1.9-17.2,3.3-25.7c0.1-0.7,0.1-1.5-0.5-1.9c-2.1-1.7-5.3-1.4-6.6,1.1c-1.2,2.3,2.2,4.3,3.5,2c0.2-0.3,0.5-0.2,0.4-0.3
				c-0.2-0.6-0.3-1.3-0.5-1.9c-1.3,7.6-2.5,15.2-3.2,22.9c-0.7,7.7-0.5,15.3,0.5,23c1,7.4,2.3,14.8,1.9,22.3
				c-0.3,7.2-1.8,14.3-3.9,21.2c-4.3,14.1-11.3,27.1-18.2,40c-3.4,6.4-7,12.8-9.9,19.5c-2.6,6.2-3.6,12.5-2.5,19.2
				c2.1,13.2,11.2,25.2,9.6,39c1-0.6,2-1.2,3-1.7C52.1,275.4,48,262,47.1,251c-0.6-7.2,0-14.6,2-21.5c1-3.5,2.3-6.9,3.1-10.5
				c0.8-3.7,1.2-7.4,1.6-11.2c1.6-15,4.1-29.9,6.9-44.7c2.7-14.4,5.2-28.9,8.3-43.2c3.2-14.7,7.4-29.4,15.6-42.3
				C85.8,75.5,82.4,73.5,81,75.7L81,75.7z"/>
		</g>
	</g>
	<g>
		<path class="st3" d="M91,63.4c-1.4,2-2.6,4-3.7,6.2c-0.6,1.1-1.1,2.4-0.6,3.5c0.7,1.4,2.7,1.7,4.1,1s2.3-2,3.2-3.3
			c5.4-7.4,12.5-13.7,21-17.1s18.3-3.9,26.8-0.4c4.4,1.8,8.4,4.7,12.3,7.5c7,5,13.9,10,20.9,15.1c2.8,2,5.1,4.4,7.2,7.1
			c13.4,17.5,3.8,43.9,0.9,61.4c-1.3,8.1-2,16.7,1.1,24.3c0.2,0.6-0.5,0.2,0.1,0.5c1.4,0.8,0.9,0,1.5-1.5
			c4.8-11.3,7.7-23.3,10.6-35.3c4.3-17.9,8.7-36.5,4.7-54.4c-1-4.6-2.6-9-5.1-12.9c-2.9-4.5-7.1-8.2-11.5-11.3
			c-12.6-8.8-28.1-13.5-43.5-13.1s-30.6,5.7-42.8,15.1c-2.9,2.2-5.7,4.7-7.8,7.7"/>
		<g>
			<path class="st3" d="M89.3,62.4c-1.1,1.6-2.2,3.3-3.1,5c-0.9,1.7-1.9,3.5-1.6,5.5c0.6,3.5,5,4.5,7.7,2.7c1.5-1,2.5-2.5,3.6-3.9
				c1-1.4,2.1-2.7,3.2-4c2.3-2.5,4.8-4.9,7.5-6.9c5.8-4.3,12.6-7.2,19.9-7.7c3.7-0.3,7.3,0,10.9,0.9c3.7,1,7.1,2.8,10.4,4.9
				c6.9,4.5,13.5,9.6,20.3,14.5c3.2,2.3,6.7,4.5,9.5,7.3c2.3,2.3,4.3,4.9,5.9,7.8c5.8,11,4.1,24.5,1.8,36.2
				c-2.5,12.8-6.9,26.3-4.3,39.4c0.4,1.8,1.1,3.5,1.5,5.3c0.1-0.5,0.1-1,0.2-1.5c0,0,0,0.1,0,0.1c0.4-0.3,0.8-0.6,1.2-0.9
				c0,0-0.1,0-0.1,0c-1.5,0.3-1.8,2.3-0.9,3.3c1,1,2.9,1.5,4,0.4c0.5-0.4,0.6-1,0.8-1.6c0.2-0.9,0.6-1.7,1-2.6
				c1.5-3.8,2.9-7.7,4.1-11.6c2.5-8,4.4-16.2,6.4-24.3c3.9-16.3,7.6-33.3,4.8-50.1c-1.3-7.7-4-15-9.2-20.9
				c-4.9-5.5-11.4-9.8-17.9-13.1c-13.7-6.9-29.2-9.5-44.3-7.4c-7.4,1-14.6,3.2-21.3,6.3c-6.7,3.1-13.4,7.3-18.7,12.5
				c-1.3,1.3-2.5,2.7-3.6,4.3c-0.6,0.9-0.2,2.2,0.7,2.7c1,0.6,2.1,0.2,2.7-0.7c4-5.5,10.1-9.6,15.9-12.8c6-3.4,12.5-5.8,19.2-7.3
				c13.7-3.1,28-1.9,41.1,3.1c6.4,2.5,12.7,5.9,18.1,10.2c5.4,4.3,9.4,9.6,11.5,16.2c4.8,14.8,2.6,30.9-0.6,45.8
				c-1.8,8.6-3.9,17.1-6.2,25.5c-1.1,4.1-2.3,8.2-3.6,12.2c-0.7,2.1-1.4,4.2-2.2,6.2c-0.4,1-0.8,2-1.2,3c-0.2,0.4-0.3,0.7-0.4,1.1
				c0,0.2-0.1,0.3-0.1,0.5c-0.1,0.5,0,0.3,0.6-0.5c0.3-0.1,0.7-0.2,1-0.3c0.5,0.2,0.6,0.2,0.3,0c-0.2-0.1-0.2-0.1,0,0.1
				c-0.3,1.1-0.6,2.2-0.9,3.3c0.6-0.1,1.1-0.6,1.4-1.1c0.6-1,0-2-0.3-3c-0.6-1.8-1.1-3.7-1.3-5.6c-0.5-3.8-0.3-7.7,0.1-11.6
				c0.7-6.1,2.1-12,3.3-18c2.6-12.2,5.2-25.3,2-37.6c-1.7-6.4-5.1-12.2-9.9-16.8c-2.9-2.8-6.4-5-9.6-7.4c-3.5-2.5-7-5-10.5-7.5
				c-6.4-4.6-12.8-9.8-20.5-12.1c-7.2-2.1-15.2-1.8-22.3,0.6c-6.8,2.2-12.9,6.2-18,11.2c-2.5,2.5-4.8,5.2-6.9,8.1
				c-0.7,1-1.7,2.5-3.1,2.4c-0.5-0.1-0.4-0.1-0.4-0.7c0.1-0.8,0.7-1.7,1.1-2.4c0.9-1.7,2-3.4,3.1-5C94.2,62.3,90.7,60.3,89.3,62.4
				L89.3,62.4z"/>
		</g>
	</g>
	<g>
		<path class="st3" d="M80.7,293.3c-4.5-2.9-9.4-5.3-14.5-6.9c7.1,9.7,17.2,17.4,28.7,21s24.4,3.1,35.3-2.1
			c13.6-6.4,23.1-19.1,31-31.9c4-6.5,7.7-13.1,10.1-20.4c7.3-22.3,0.9-47.5,9.5-69.4c0.6-1.6,1.4-3.3,1.2-5s-1.6-3.5-3.3-3.3
			c-1.8,0.2-2.8,2.2-3.2,4c-1,4.8-0.3,9.9-0.7,14.8c-1.2,13.3-10.7,24.3-20.8,33.2c-10,8.9-21.2,17-27.8,28.6
			c-3.9,6.9-5.9,14.7-9.2,21.9c-3.3,7.2-8.3,14.2-15.8,16.9c-6.3,2.3-13.3,1.1-20-0.1"/>
		<g>
			<path class="st3" d="M81.7,291.6c-4.7-3-9.7-5.4-15-7.1c-1.6-0.5-3.3,1.5-2.3,2.9c7.4,10.1,17.6,18,29.5,21.8
				c12.7,4.1,27.1,3.2,39-3c11-5.8,19.2-15.5,26-25.7c7.6-11.4,14.4-23.4,16.7-37.1c2.2-13.3,1.4-26.9,2.8-40.4
				c0.7-6.8,2.1-13.3,4.6-19.7c1.1-3,1.6-6.6-1.1-8.9c-2.5-2.1-5.8-1.1-7.4,1.6c-1.6,2.9-1.6,6.6-1.7,9.8c0,3.5,0.2,6.9-0.4,10.4
				c-1.1,6-3.9,11.5-7.4,16.3c-7.4,10.2-17.9,17.4-27.1,25.9c-4.6,4.3-8.9,8.9-12.3,14.2c-3.7,5.9-5.9,12.6-8.4,19.1
				c-2.2,5.6-4.7,11.2-8.9,15.6c-1.9,2-4.2,3.8-6.8,4.9c-3,1.3-6.3,1.7-9.6,1.6c-3.5-0.1-6.8-0.7-10.2-1.3c-1.1-0.2-2.2,0.3-2.5,1.4
				c-0.3,1,0.3,2.3,1.4,2.5c6.6,1.2,13.6,2.4,20.2,0.4c5.6-1.8,10.1-5.7,13.5-10.5c3.6-5.1,5.9-11,8-16.8c2.3-6.1,4.7-12.1,8.5-17.4
				c7.1-9.8,17.3-16.9,26.2-25c8.7-7.9,17-17.8,19.1-29.7c0.6-3.3,0.6-6.6,0.6-10c0-1.8,0-3.5,0.2-5.3c0.1-1.4,0.3-3.1,1.1-4.3
				c0.5-0.7,1.1-0.6,1.5,0.1c0.7,1.2,0,2.7-0.4,3.9c-1.2,3.1-2.3,6.2-3,9.5c-3,12.7-2.4,25.9-3.2,38.9c-0.4,6.5-1.1,13-2.8,19.3
				c-1.8,6.6-4.8,12.6-8.2,18.5c-6.1,10.4-13,20.9-22.3,28.7c-9.6,8-21.8,11.8-34.2,10.7c-12.1-1.1-23.4-7.1-31.9-15.6
				c-2-2-3.9-4.2-5.6-6.6c-0.8,1-1.5,2-2.3,2.9c5,1.6,9.6,3.9,14,6.7C81.8,296.4,83.8,293,81.7,291.6L81.7,291.6z"/>
		</g>
	</g>
	<g>
		<path class="st4" d="M317.9,137.6c-15.8,6.5-23.5,20.9-33.3,35s-18,25.2-23.8,41.3c-2.2,6-8,14.7-8.7,21.1
			c-0.8,6.6,0,13.2,0.4,19.8c1.1,16.7,0.5,33.9,6.8,49.4c7.8,19,25.4,32.8,44.7,40c19.3,7.2,40.2,8.5,60.8,8.4
			c11.3,0,22.7-2.4,33.6-5.3c10.5-2.8,20.3-7.7,29.5-13.6c18.7-11.9,35.1-25.8,45.4-45.4c10.2-19.6,13.8-43.1,7.4-64.3
			c-3.5-11.4-9.7-21.9-13.1-33.3c-1.2-4-2-8.3-4.2-11.9c-3.8-6.4-10.9-10-16.6-14.8c-4.4-3.7-8-8.2-12.6-11.8
			c-6.9-5.4-15.5-8.1-23.9-10.7c-15.1-4.7-30.3-9.4-46-11.1c-15.7-1.7-32.1-0.4-46.3,6.6c8.8,4.2,6.2,18.8,13.9,24.8
			c6.4,4.9,15.6,1,23.7,1c10.5-0.1,19.8,6.8,27,14.5c7.2,7.7,13.3,16.6,21.9,22.7c4.9,3.5,10.4,5.9,15.1,9.7
			c5.2,4.2,12,9.8,15.2,15.6c4.7,8.4,5.2,17.7,5.5,27.3c0.4,14.3-7,30.6-18.9,38.5c-13,8.6-29.6,7.5-44.1,13.1
			c-15,5.7-29,16.8-45,15.5c-6-0.5-11.7-1.7-17.3-3.9c-8.5-3.3-17.3-5.9-23.4-12.7c-7.2-8.2-9.3-21.6-11-32.3
			c-0.5-2.9-1-5.9-0.5-8.9c0.6-3.9,2.6-7.3,4.5-10.7c10.6-18.5,16.5-42.6,22.6-63c2.2-7.3,6.9-10.6,11.8-16.5
			c2.7-3.3,6.4-6.2,6.8-10.5c0.2-2.1-0.4-4.2-1.1-6.1c-1.3-3.9-2.5-7.8-3.8-11.7c-0.7-2-1.4-4.2-3.2-5.4s-4.8-0.6-5.2,1.5"/>
		<g>
			<path class="st4" d="M317.4,135.7c-10.1,4.2-17.6,11.8-23.9,20.5c-3.2,4.4-6.1,9-9.2,13.5c-3.3,4.8-6.7,9.6-9.9,14.4
				c-3.2,4.8-6.2,9.6-8.9,14.7c-1.4,2.6-2.7,5.3-3.8,8c-1.1,2.6-2,5.3-3.2,7.9c-2.1,4.9-4.9,9.5-6.8,14.5
				c-2.1,5.5-1.9,11.5-1.6,17.4c0.4,6.5,0.9,13,1.2,19.6c0.3,6.3,0.6,12.7,1.4,19c1.5,11.6,5,22.7,11.8,32.2
				c13.2,18.4,34.3,29,56.1,33.6c12.8,2.7,25.9,3.5,38.9,3.7c6.7,0.1,13.3-0.2,19.9-1.1c6.5-0.9,12.9-2.4,19.3-4.1
				c12.1-3.2,23.1-9,33.5-15.9c9.2-6.1,18.1-12.8,25.8-20.7c16.4-16.7,26.8-38.9,28-62.3c0.6-12.4-1.7-24.3-6.4-35.8
				c-2.4-5.9-5.2-11.6-7.5-17.5c-1.1-2.9-2.1-5.8-2.9-8.7c-0.8-2.9-1.6-5.8-2.8-8.5c-2.4-5.1-6.7-8.8-11.1-12
				c-2.2-1.6-4.4-3.1-6.4-4.8c-2.4-2-4.5-4.2-6.7-6.4c-4.4-4.4-9-8.2-14.6-10.9c-5.4-2.6-11.1-4.4-16.8-6.1
				c-24.6-7.6-50.5-15.3-76.4-9.9c-5.9,1.2-11.6,3.1-16.9,5.8c-1.3,0.6-1.3,2.8,0,3.5c2.7,1.3,4.1,3.8,5.1,6.5
				c1.2,3.1,1.9,6.4,3,9.6c1.2,3.2,2.8,6.4,5.6,8.5c3.6,2.7,8.1,3.2,12.4,2.8c4.5-0.4,8.9-1.5,13.5-1.4c4.4,0.2,8.6,1.7,12.4,3.9
				c8.2,4.7,14.2,12.2,20.3,19.3c3.1,3.6,6.3,7.2,9.9,10.3c3.7,3.3,7.9,5.8,12.2,8.3c4.1,2.4,7.8,5.2,11.5,8.3
				c3.5,3,7.1,6.2,9.6,10.1c5.3,8.2,5.8,18.5,6,28c0.1,8.3-2.2,16.6-6.4,23.7c-4.4,7.5-10.7,13.3-18.8,16.4
				c-8.7,3.4-18.1,4.2-27.1,6.3c-9.3,2.2-17.7,6.4-26.2,10.6c-8.2,4-16.9,8-26.3,7.6c-5.1-0.2-10.2-1.2-15-2.8
				c-4.4-1.5-8.9-3.2-13.1-5c-4.1-1.8-8.1-3.9-11.3-7.1c-2.9-2.9-5-6.6-6.5-10.4c-1.6-4.1-2.6-8.4-3.5-12.7
				c-0.9-4.4-1.8-8.8-2.2-13.2c-0.2-2.6,0-5,0.8-7.5c0.8-2.3,2.1-4.4,3.3-6.5c2.3-4.1,4.4-8.2,6.2-12.5c3.9-9,7-18.4,9.9-27.8
				c1.4-4.6,2.7-9.3,4.1-13.9c0.7-2.3,1.3-4.5,2-6.8c0.6-2.1,1.2-4.3,2.2-6.3c1.9-3.7,4.9-6.6,7.7-9.6c1.5-1.7,2.9-3.4,4.4-5
				c1.5-1.6,3-3.3,4.1-5.3c1.1-2.2,1.5-4.5,1.1-6.9c-0.4-2.6-1.4-5.2-2.2-7.7c-0.9-2.7-1.7-5.3-2.6-8c-0.7-2.1-1.5-4.3-3.1-5.8
				c-2.7-2.5-8.1-2.2-9.1,1.9c-0.6,2.5,3.3,3.6,3.9,1.1c0.2-1,1.8-0.7,2.4-0.2c1.7,1.4,2.1,4.2,2.8,6.2c0.9,2.7,1.7,5.3,2.6,8
				c0.8,2.3,1.9,5,1.5,7.5c-0.3,2-1.6,3.7-2.9,5.1c-1.4,1.7-2.9,3.3-4.4,5c-2.8,3.2-6,6.2-8.4,9.9c-2.5,3.9-3.6,8.5-4.8,12.9
				c-1.3,4.6-2.7,9.2-4,13.8c-2.8,9.5-5.8,18.9-9.6,28.1c-1.8,4.3-3.8,8.5-6,12.6c-2.4,4.3-5.1,8.6-5.7,13.6
				c-0.5,4.8,0.8,9.8,1.6,14.5c0.8,4.4,1.6,8.7,3,13c1.3,4.1,2.9,8.1,5.4,11.6c2.6,3.8,6,6.8,10,9.1c4,2.4,8.4,4,12.8,5.6
				c4.7,1.8,9.4,3.5,14.3,4.5c4.9,0.9,9.9,1.4,14.9,0.7c4.6-0.6,9.1-2.1,13.4-3.9c8.8-3.7,16.9-8.8,25.9-11.9
				c8.9-3.1,18.4-4,27.5-6.2c8.8-2.2,17-6,23.1-12.9c5.7-6.4,9.7-14.5,11.5-22.9c0.9-4.3,1.2-8.6,1-13c-0.2-5-0.5-10-1.5-15
				c-1-4.7-2.6-9.4-5.4-13.3c-2.7-4-6.3-7.3-9.9-10.4c-3.7-3.2-7.5-6.1-11.7-8.6c-4.2-2.5-8.4-4.9-12.1-8.2
				c-13.6-12.1-23.2-32.1-43.3-34.3c-4.6-0.5-9.1,0.5-13.7,1.1c-4,0.5-8.5,0.8-11.8-2c-2.4-2-3.6-5-4.5-7.9c-1-3.3-1.8-6.7-3.2-9.8
				c-1.3-2.9-3.3-5.5-6.2-7c0,1.2,0,2.3,0,3.5c22.6-11,48.8-7.2,72.1-0.8c6.2,1.7,12.4,3.6,18.6,5.5c5.5,1.7,11.1,3.4,16.3,6
				c2.6,1.3,5.1,2.8,7.4,4.7c2.3,1.9,4.3,4,6.4,6.1c2,2.1,4.1,4.1,6.3,5.9c2.1,1.7,4.3,3.2,6.5,4.8c4.2,3.1,8.2,6.5,10.2,11.4
				c1.1,2.7,1.7,5.6,2.5,8.3c0.9,3,2,6,3.1,9c4.5,11.2,10.2,21.9,12.2,34c3.8,22.5-3,46.4-16.3,64.8c-6.2,8.6-14,16.1-22.3,22.6
				c-8.9,7-18.5,13.3-28.6,18.3c-5.4,2.6-11.1,4.7-16.9,6.2c-6.3,1.6-12.6,3.1-19.1,4c-6.3,0.9-12.7,1-19.1,0.9
				c-6.3-0.1-12.6-0.3-18.8-0.9c-22.4-2-45.2-8.2-62.2-23.6c-7.6-6.8-13.8-15.3-17.2-25c-4.1-11.5-4.7-23.8-5.2-35.9
				c-0.3-6.4-0.8-12.7-1.1-19.1c-0.2-3.2-0.2-6.5,0-9.7c0.2-2.4,0.8-4.6,1.7-6.8c1.9-4.8,4.6-9.2,6.6-14c2.1-5.2,4.1-10.4,6.8-15.4
				c5.3-10,12.1-19.1,18.5-28.4c5.7-8.4,11.1-17.4,18.6-24.3c3.6-3.3,7.7-6.1,12.2-7.9c1-0.4,1.7-1.3,1.4-2.5
				C319.6,136.1,318.4,135.3,317.4,135.7L317.4,135.7z"/>
		</g>
	</g>
</g>
<g id="membrane">
	<path class="st5" d="M289,154.1c-13.5,18.3-34.4,46.7-36.4,60.6s-7.1,28.3-3.9,55.2c3.2,26.9,3.2,40.6,21.8,59.9
		c16.6,17.3,34.9,16.9,56.1,23.3c21.2,6.4,36.1,6.2,64.5-0.1s47.6-21.2,63.5-32.8c15.8-11.6,19.7-31.1,25.9-52.1
		c6.2-21,6.2-50.8-4-68.9c-10.2-18.1-16.2-29.4-42.1-47c-19.5-13.2-53.9-30.3-101-23.8C312.7,131.3,297.4,142.6,289,154.1z"/>
</g>
<g id="nuclei">
	<g>
		<g>
			<path class="st6" d="M286.1,245.1c5.1-9.1,9.6-18.4,13.6-28c1.7-4.2,3.7-8.3,3.5-12.9c-0.3-5.8-3.9-11-9.6-12.5
				c-10.8-2.9-18.3,8.9-22.5,17.1c-4.5,8.7-6.8,18.1-7.3,27.9c-0.3,6.2,5.5,11.5,11.5,11.5c6.5,0,11.2-5.3,11.5-11.5
				c0.4-9.1,3.8-19.1,10.5-25.5c-1.7,1-3.4,2-5.1,3c0.3-0.1,0.6-0.2,1-0.4c-2,0-4.1,0-6.1,0c0.3,0.1,0.5,0.1,0.8,0.2
				c-1.7-1-3.4-2-5.1-3c0.2,0.2,0.3,0.4,0.5,0.5c-1-1.7-2-3.4-3-5.1c-0.4-1.3,0.7-2.9-0.4-1.6c-0.9,1.1-1.2,3-1.7,4.4
				c-1.1,2.6-2.2,5.1-3.4,7.6c-2.7,5.7-5.6,11.2-8.6,16.7C258.9,246.4,278.8,258,286.1,245.1L286.1,245.1z"/>
		</g>
	</g>
	<g>
		<g>
			<path class="st6" d="M390.2,181.7c6.7,9.6,15.4,17.9,26.1,22.9c6.1,2.8,12.6,5,19.2,2.2c7.5-3.2,10.7-11.1,9.3-18.8
				c-1.9-10.6-10.9-20.3-20.5-24.8c-5.7-2.7-12.1-4.6-18.4-3.6c-7.7,1.3-14.3,8.1-13.6,16.2c0.6,6.2,4.9,11.5,11.5,11.5
				c5.8,0,12.1-5.3,11.5-11.5c0,0.2-0.1,0.3-0.1,0.5c-1,1.7-2,3.4-3,5.1c-2.9,3.7-4.5,0-2.2,0.9c0.2,0.1,2,0.6,2.7,0.8
				c1.5,0.6,3.6,1.7,5,2.9c0.9,0.8,2.2,2.2,2.9,3.2c2.5,3.5,0.4,4.9,5.6-0.1c7.5-7.1,4.6-2.6,2.4-4c-0.8-0.6-1.9-0.9-2.8-1.4
				c-2.3-1.2-4.6-2.6-6.7-4.2c-3.4-2.6-6.5-5.9-9-9.4c-3.5-5.1-10.1-7.4-15.7-4.1C389.3,168.9,386.6,176.6,390.2,181.7L390.2,181.7z
				"/>
		</g>
	</g>
	<g>
		<g>
			<path class="st6" d="M359.6,340.8c13.4,3.3,27.1,1.8,39.5-4.4c6.6-3.3,13.9-8.3,14.2-16.5c0.3-7.6-5.5-13.5-12.5-15.6
				c-11.6-3.5-25.8-0.5-35.9,5.7c-5.3,3.3-12.1,8.4-14,14.7c-2.9,9.6,5.8,19.5,15.7,16.3c14.1-4.4,8.1-26.7-6.1-22.2
				c-0.2,0.1-0.5,0.2-0.7,0.2c3,0.4,5.9,0.8,8.9,1.2c-0.2-0.1-0.5-0.3-0.7-0.4c1.4,1.4,2.8,2.8,4.1,4.1c-0.1-0.3-0.3-0.5-0.4-0.8
				c0.4,3,0.8,5.9,1.2,8.9c-1.3,2-1.2,2.2,0.2,0.6c0.4-0.3,0.7-0.7,1.1-1c0.7-0.6,1.6-1.2,2.5-1.8c2.2-1.4,4.4-2.3,6.8-3
				c2.5-0.7,4.6-1,7.3-0.9c0.9,0,2.3,0.3,2.9,0.2c-0.4,0.2,0,0.3,1.1,0.3c-2.2-1.7-2.6-1.8-1.4-0.4c-1-1.7-2-3.4-3-5.1
				c0-0.4,0-0.7-0.1-1.1c0.5-1.9,1-3.9,1.6-5.8c0.1-0.1,3.1-1.8-0.8,0.5c-1.2,0.7-2.3,1.4-3.5,1.9c-2.3,1.1-4.7,1.8-7.1,2.3
				c-4.8,1.1-9.8,0.9-14.6-0.3C351.3,315.1,345.2,337.3,359.6,340.8L359.6,340.8z"/>
		</g>
	</g>
	<g>
		<g>
			<path class="st6" d="M133.6,295.9c15.4-6.1,26-20.4,25.5-37.3c-0.1-4.3-3-8.6-7.3-9.6c-19.1-4.7-27.4,20.5-27.9,35
				c-0.5,12.9,19.5,12.9,20,0c0.1-3.4,0.7-6.6,1.9-9.8c0.5-1.3,1.1-2.5,1.8-3.8c0.4-0.7,0.8-1.5,1.3-2.2c1.3-1,0.4-1-2.5,0
				c-2.4-3.2-4.9-6.4-7.3-9.6c0.2,7.3-3.7,15.2-10.9,18c-5,2-8.5,6.7-7,12.3C122.6,293.7,128.5,297.9,133.6,295.9L133.6,295.9z"/>
		</g>
	</g>
	<g>
		<g>
			<path class="st6" d="M149.9,60.8c8.9,0.6,16.9,4.6,23.2,10.8c9.1,9.1,23.3-5,14.1-14.1c-10.1-10.1-23.1-15.7-37.3-16.7
				c-5.4-0.4-10,4.9-10,10C139.9,56.6,144.5,60.4,149.9,60.8L149.9,60.8z"/>
		</g>
	</g>
	<g>
		<g>
			<path class="st6" d="M62,143.7c0.6,11.3-0.5,22.3-3.6,33.2c-3.5,12.4,15.8,17.7,19.3,5.3c3.5-12.5,5-25.6,4.3-38.6
				C81.3,130.9,61.3,130.8,62,143.7L62,143.7z"/>
		</g>
	</g>
</g>
<g id="sketch">
	<g>
		<path class="st7" d="M320.5,138.6c-12.1,5.8-22.1,14.1-29.6,25.2c-6.6,9.7-14,18.8-19.8,29.1c-7.2,12.8-13.4,25.9-15.5,40.6
			c-1.9,1-3.1,0.9-3-1.6c2.1-20.3,12.4-37.1,23.2-53.6c8.1-12.4,17.3-23.9,27.6-34.5c2.5-2.6,5.8-4.3,8.8-6.2
			c10.9-6.8,22.4-10.9,35.6-10.7c12.7,0.2,25.2,1.3,37.5,4.7c0.3,0.4,0.4,0.7,0.3,1.1c-0.1,0.3-0.2,0.5-0.4,0.5
			c-4.6,0.2-9-1-13.4-1.8c-11.6-2.1-23.3-1.1-34.9-1.2c-0.9,1-1,2.5-2.1,3.3c-2.5,1.5-5.5,1.6-8.1,2.9
			C324.5,136.8,322.2,137.1,320.5,138.6z"/>
		<path class="st8" d="M421.1,143.2c4,1.2,7.3,3.7,10.5,6.1c14.2,10.6,27.6,21.8,37.2,37.2c4.6,7.4,8.1,15.2,11.5,23
			c3,6.8,3.1,14.4,4,21.8c0.2,1.3,0.1,3.2-1.8,3.3c-1.8,0.1-2-1.7-2.2-3.1c-0.6-3.5-1.2-7.1-1.8-10.6c-2.9-16.9-10.9-31.3-21.5-44.5
			c-7.1-8.8-16.6-15-24.2-23.2c-3.5-3.8-9.4-4.7-13.1-8.6C419.6,143.6,420.3,143.4,421.1,143.2z"/>
		<path class="st9" d="M340.6,318.5c7.3-0.2,13.9-2.1,19.7-7.1c5.7-5,13.4-5.1,20.4-5.6c6.1-0.5,11.8-1.4,17.3-3.9
			c2.5-1.1,5.1-1.2,7.7-1.5c-4.7,5.7-11.9,8.9-21.2,8.4c-7.4-0.5-13.6,2-19.6,5.6c-2.7,1.6-5,3.5-8.3,4c-3.5,0.5-5.1,3.9-7.7,5.8
			c-2.8-0.7-5.6,0.1-8.4-0.3c-1.8-0.3-4.3-0.3-4.3-2.7C336.2,318.1,339.5,319.9,340.6,318.5z"/>
		<path class="st7" d="M340.6,318.5c-0.7,0.8-2,1.6-2.1,2.5c-0.1,1.4,1.4,1.5,2.5,1.7c2.7,0.3,5.6,0,8.1,1.4
			c-3.5,1.3-7,1.3-10.5,0.5c-8.1-1.8-16.2-3.7-24.3-5.5c-4-0.9-7.3-3.4-10.9-5.2c-5.4-2.6-10-2.4-14.3,1.9c-1.4,0.3-2.1-0.1-1.7-1.7
			c0.4-0.5,0.8-1,1.2-1.5c2.6-3.8,5.7-6.4,10.7-4.3c3,0,5.5,1.5,7.9,2.9C317.6,316.9,328.8,319,340.6,318.5z"/>
		<path class="st10" d="M441.4,268.2c5.1,7.8,13,9.5,21.4,9.7c3.6,0.1,7.1-0.4,10.3,1.6c1.2,3.2,0.1,4.2-3,3
			c-5-0.3-10.2,2.1-15.1-0.5c-4.8-2.6-9.9-2.7-15.1-2.6c-1.8-0.2-4,0-4.2-2.7c1.3-2.8,2.2-5.9,5.7-6.8c-0.4-0.4-0.5-0.8-0.4-1.1
			C441.1,268.4,441.2,268.2,441.4,268.2z"/>
		<path class="st11" d="M252.6,231.9c1,0.5,2,1.1,3,1.6c-4,15.3-2.8,30.7-1,46.1c0.4,1.2,0.7,2.6-0.7,2.9c-2,0.4-1.5-2-2.4-2.9
			c-0.3-0.9-1-1.8-1-2.7c0.5-9.3-3.7-18.5-0.7-28c0.9-2.8-0.1-6.2,0.2-9.2C250.3,237,250.2,234,252.6,231.9z"/>
		<path class="st12" d="M331.9,160.3c8.5,0,16.7,3.2,25.6-0.5c5.1-2.1,10.7,1.9,14.8,6.1c-0.2,0.6-0.6,1.1-1.3,1.3
			c-11.5-1.8-23-2.5-34.6-2.8c-2-0.1-4.3,1-5.8-1.4C329.8,161.5,330.7,160.9,331.9,160.3z"/>
		<path class="st13" d="M287.2,314c0.6,0.6,1.2,1.1,1.7,1.7c-0.2,2.7-1.3,5.2-3,7.1c-3.3,3.9-3.7,8-2.2,12.6c0.3,1,1.1,2.1,0.6,3.4
			c-1.1,0.5-2.2-0.2-2.4-0.9c-1.5-5.3-5.8-7.6-10-9.9c-2.1-1.2-4.1-2.5-5.3-4.6c-0.5-0.8-0.5-1.9,0.2-2.7c0.8-0.9,1.7-0.6,2.4,0.2
			c0.3,0.4,0.6,0.8,0.9,1.1c5.8,4.9,8.8,4.4,13.1-2.1C284.5,317.9,285.9,315.9,287.2,314z"/>
		<path class="st14" d="M444.1,324.1c-7,6.2-14.4,11.5-23.1,15.2c-6.2,2.6-12.3,5.2-18.4,7.9c-0.8-0.7-2.2-1.1-1.3-2.6
			c14.8-5.5,28.9-12.4,41.5-22.1C444.1,322.2,444.5,322.8,444.1,324.1z"/>
		<path class="st15" d="M291.7,338.6c1.9,0.4,3.8,0.6,5.6,1.2c7.2,2.4,14.3,5.3,21.7,7.3c7.1,1.9,14.2,3.8,21.5,5
			c-4.7,1.5-9.4,1.2-13.9-0.1c-9.8-3-19.6-6.2-29.3-9.3C294.9,342.1,292.9,340.8,291.7,338.6C291.7,338.6,291.7,338.6,291.7,338.6z"
			/>
		<path class="st16" d="M320.5,138.6c1.1-1.9,2.6-3.4,4.6-4.2c3.6,1.4,6.3,0.2,8.2-3c1.2-0.4,2.3-0.9,3.5-1.3c1.8,3,2.4,5.9-1.2,8
			c-3,1.8-3.7,4.9-5.1,7.6c-2.8,3.4,2.1,8.6-2.7,11.6c-0.1-3.8-0.1-7.6-0.5-11.4C327,141.1,325.8,140,320.5,138.6z"/>
		<path class="st17" d="M470,282.5c1.6-0.5,2.6-1.4,3-3c1.9-6.3,2.8-12.9,5.5-18.9c1.9-0.1,1.6-4.2,4.5-2.5
			c-0.9,8.3-4.4,15.9-6.7,23.8c-0.5,1.6-1.3,3.1-0.6,4.8c-3.3,1.7-6.2,2.6-5.7-2.9C470,283.3,470,282.9,470,282.5z"/>
		<path class="st18" d="M401.2,344.5c0.4,0.9,0.9,1.7,1.3,2.6c-13.3,5-27,7.3-41.3,6.8C374.6,350.8,388.4,349.9,401.2,344.5z"/>
		<path class="st19" d="M251.4,279.6c1.1,0.8,2.1,2,3.2,0c3.8,9,5.6,20.1,4.7,27.5C256.4,303.2,251.8,286.8,251.4,279.6z"/>
		<path class="st13" d="M299.1,308.2c-3.6,1.4-7.1,2.9-10.7,4.3c2.4-7.3,0.1-13.5-4.3-19.3c-2.6-3.5-2.5-3.6-2.6-10
			c3.6,5.9,7.1,10.8,9.7,16.1C293.1,303.2,295.7,305.9,299.1,308.2z"/>
		<path class="st20" d="M398.7,188.8c1.4-0.8,2.9-1.1,3.8,0.4c4.1,6.9,11.2,10.7,16.3,16.5c0.2,0.4,0.3,0.8,0.5,1.2
			c-0.4-0.1-0.9-0.1-1.3-0.2c-7.5-3.8-14.7-8.1-21.3-13.3C396.8,189.3,396.8,189.2,398.7,188.8z"/>
		<path class="st21" d="M398.7,188.8c-1.4,1.2-0.4,3.4-2,4.5c-4.1-3.6-6.9-8.4-10.4-12.5c-4.4-5.3-9.7-9.7-15.4-13.5
			c0.4-0.4,0.9-0.9,1.3-1.3c7.3,2.2,11.6,7.9,16.2,13.3C391.6,182.8,394.2,186.8,398.7,188.8z"/>
		<path class="st10" d="M470,283.7c1.1,2.6,3.2,3.1,5.7,2.9c-3.3,6.4-6.3,13-12.1,19.6c-0.8-5.4,1.4-8.6,2.8-11.8
			C468,291,467.7,286.9,470,283.7z"/>
		<path class="st16" d="M331.9,160.3c-0.4,0.9-0.9,1.8-1.3,2.7c-4,3.2-5.6,8.3-9.2,11.8c-0.9,0.8-1.5,1.9-2.4,2.6
			c-0.8,0.6-1.9,0.4-2.6-0.4c-0.6-0.6-0.4-1.4,0.1-2c1-1.3,2.2-2.5,3.2-3.9c3-4,6.3-7.9,8.3-12.5c0.8-0.7,1.6-0.7,2.5-0.1
			C330.8,159.1,331.3,159.7,331.9,160.3z"/>
		<path class="st22" d="M439.8,253.4c0-0.5-0.3-1-0.1-1.4c4.3-8.9,0.4-16.6-3.4-24.4c-0.4-0.9-0.7-1.8-1.1-2.7
			c0.2-0.1,0.4-0.3,0.6-0.4c5,5.1,6.6,11.9,8.8,18.3c1.5,4.3-0.7,8.3-1.9,12.3C440.8,256,439.6,256,439.8,253.4z"/>
		<path class="st20" d="M435.2,224.9c-5.3-6.5-11.3-12.4-17.2-18.3c0.3-0.3,0.5-0.7,0.8-1c2.4,0,4.9-0.1,6.3,2.3
			c3.5,5.6,8.4,10.2,10.7,16.6C435.6,224.7,435.5,224.8,435.2,224.9z"/>
		<path class="st23" d="M304.7,201.9c1.4,5-1.3,9.2-2.5,13.7c-1.6,5.7-3.1,11.4-6.2,16.5l0,0C297.8,221.7,300.2,211.5,304.7,201.9
			L304.7,201.9z"/>
		<path class="st24" d="M290.6,243.7c-1.1,3.4-2.5,6.8-4.6,9.7c-2.7,3.7-4.8,7.6-4.5,12.5c-4.3-1-3.7-3.5-2.3-5.9
			c3.5-5.7,7.2-11.2,10.9-16.8L290.6,243.7z"/>
		<path class="st25" d="M483,258.1c-1.6,0.7-2.2,3.1-4.5,2.5c0.9-4.6-0.7-9.8,3.1-14.9C482.8,250.3,483,254.2,483,258.1z"/>
		<path class="st26" d="M444.1,324.1c-0.5-0.5-1-1.1-1.4-1.6c2.7-3.1,5.4-6.5,11.2-5.9C451.1,320.7,448.2,323.1,444.1,324.1z"/>
		<path class="st27" d="M385.2,133.1c0-0.5,0-1.1,0.1-1.6c5.9,1.2,11.8,2.6,17.4,5.1c1.1,0.6,1.1,1.2,0,1.8
			C396.7,137,390.7,136,385.2,133.1z"/>
		<path class="st28" d="M435.6,276.7c1.4,0.9,2.8,1.8,4.2,2.7c-2.5,1.7-4.3,4.6-8.3,5C431.4,280.9,433.4,278.7,435.6,276.7z"/>
		<path class="st16" d="M310.4,184.6c-1.5,5.9-2.8,11.9-5.7,17.3c0,0-0.1-0.1-0.1-0.1C305,195.6,305.6,189.4,310.4,184.6
			L310.4,184.6z"/>
		<path class="st29" d="M421.1,143.2c-0.5,0.4-1,0.9-1.5,1.3c-3.1-1.9-7.2-1.2-10-3.8c-1.1-0.7-1.1-1.2,0.2-1.7
			C413.7,140,417.6,141.1,421.1,143.2z"/>
		<path class="st30" d="M441.4,268.2c0,0.6,0,1.1,0,1.7c-4.2-0.7-3-3.6-2.7-6.2c1.1-0.9-0.1-2.9,1.8-3.3
			C441.5,262.9,441.2,265.6,441.4,268.2z"/>
		<path class="st31" d="M330.3,158.5c-0.8,0-1.6,0-2.5,0.1c0-0.4,0-0.9,0-1.3c2.6-3.5-0.2-8.2,2.7-11.6
			C330.5,150,330.4,154.3,330.3,158.5z"/>
		<path class="st30" d="M439.8,253.4c1,0.6,1.9,1.1,2.9,1.7c-0.3,1.1-0.7,2.1-1,3.2c-1.4,0-2.2,1.3-3.5,1.6
			C437.6,257.5,436.8,255,439.8,253.4z"/>
		<path class="st32" d="M290.1,243.3c0.7-2.8,2.1-5.3,4.4-7.1c0.8,0.5,0.8,1.1,0.1,1.8c-0.5,2.5-2,4.3-4,5.7
			C290.6,243.7,290.1,243.3,290.1,243.3z"/>
		<path class="st33" d="M409.7,139c-0.1,0.6-0.1,1.1-0.2,1.7c-2.3-0.8-4.6-1.6-7-2.3c0-0.6,0-1.2,0-1.8
			C405.1,137.1,407.6,137.4,409.7,139z"/>
		<path class="st22" d="M438.2,259.9c0.9-1.2,1.7-2.4,3.5-1.6c-0.4,0.7-0.8,1.4-1.2,2.1c-0.6,1.1-1.2,2.2-1.8,3.3
			C438.5,262.4,438.3,261.2,438.2,259.9z"/>
		<path class="st16" d="M310.5,184.7c0.1-1.5-0.6-3.2,1.7-4C312.9,182.7,311.3,183.5,310.5,184.7
			C310.4,184.6,310.5,184.7,310.5,184.7z"/>
		<path class="st15" d="M291.7,338.6c-0.9-0.1-1.9-0.1-2.8-0.3c-0.7-0.2-1.3-0.6-0.8-1.4c0.1-0.2,0.9-0.1,1.3,0.2
			C290.3,337.4,291,338,291.7,338.6C291.7,338.6,291.7,338.6,291.7,338.6z"/>
		<path class="st23" d="M294.7,238c0-0.6-0.1-1.2-0.1-1.8c0.1-1.5,0.6-2.9,1.5-4.1c0,0,0,0,0,0C296.1,234.2,295.9,236.2,294.7,238z"
			/>
		<path class="st34" d="M333.4,131.4c-0.4,2.8-2.3,4.6-4.3,6.5c-2-0.4-2.8-2.2-4-3.5C327.9,133.4,330.6,132.4,333.4,131.4z"/>
		<path class="st35" d="M441.4,274.8c-0.3,0.7-0.8,1.1-1.5,0.8c-0.7-0.3-0.9-1-0.5-1.6c0.2-0.3,0.7-0.6,1.1-0.6
			C441.1,273.5,441.4,274.1,441.4,274.8z"/>
	</g>
	<g>
		<path class="st36" d="M174.9,237.1c-1.5,16.1-7.9,30.5-15.2,44.5c-3.1,6-8,10.7-13.2,15c-15,12.2-32.2,15.5-50.6,11.2
			c-9.2-2.1-18.1-6-25.2-12.9c-3.8-3.7-8-6.8-12-10.2c-1.2-1.1-0.7-2.5-0.6-3.8c2.2-3.9-1.3-6.4-2.4-9.5c-0.3-4.3-2.3-9.4,4.4-10.9
			c4.8,1.8,3.7,6.7,5.1,10.2c6.5,15.3,15.4,20.8,32.2,19c1.9-0.2,3.7-1,5.7-0.7c1.5,0.5,2.7,1.3,3.6,2.7c0.3,0.7,0.4,1.5,0.3,2.3
			c-0.8,2.7-2.5,4.5-5.1,5.6c-7.3,2.5-7.3,2.5-17.7-2.4c24.3,12.1,53.1,4.3,67.1-14.5c8.1-10.9,12.8-23.4,16.4-36.5
			c1.1-3.8-0.2-9.1,5.1-11C174,235.1,174.5,236,174.9,237.1z"/>
		<path class="st37" d="M45.8,270.2c-3.2-9.9-3.4-19.9-2.3-30.1c3.1-28.8,10.4-56.9,14.4-85.6c1.9-13.7,3.9-27.4,6.5-41.1
			c3.8-19.8,13.1-36.9,25.3-52.5c5.6-7.2,13.8-11.8,22-15.7c4.2-2,8-5.5,13.2-5.2c2,0.7,4.3-0.4,6.1,1.4c0.2,4.6-3.5,4.2-6.3,5.1
			c-13.7,4.5-26.9,9.8-34.4,23.4c-2,2.9-2,7-5.4,9C73.3,95.6,69.5,115,66.7,134.4c-3.7,25.9-8.2,51.5-13.2,77.2
			c-3.4,17.7-6.5,35.5-2.9,53.7c0.3,1.4,0.3,2.9-0.6,4.2C48.8,270.8,47.5,271.6,45.8,270.2z"/>
		<path class="st38" d="M130.9,41.6c-2.1-0.2-4.2-0.3-6-1.5c6.9-1.8,14.1-2.4,21.2-2.8c39.6-2.3,60.6,34.8,59.3,60.3
			c-0.9,18-5.9,34.7-10.2,51.8c-0.8,0.4-1.5,0.4-2.1-0.2c-2.3-2.9-0.6-6-0.7-9c1.6-8.5,4.4-16.7,5.6-25.2
			c2.4-17.3,2.7-34.2-8.5-49.5c-12-16.2-28-22.3-47.5-21.2C137.9,44.4,133.7,46,130.9,41.6z"/>
		<path class="st36" d="M193.6,149.3c0.5,0,1,0,1.6,0c-2.1,5.8-4.4,11.6-6.4,17.5c-0.7,2.1-7.8,29-9.1,37.9
			c-1.2,8.5-1.4,17.2-4.7,25.3c-0.8,0.4-1.6,0.3-2.4-0.2c-1-0.9-1.6-2-1.8-3.3c1.5-14,5.7-27.6,6.9-41.7c0.2-2.5,0.8-4.8-0.5-7.1
			c-0.6-1.1-1.2-2.3-1.1-3.6c1.2-3,1.7-6,1.7-9.3c0.1-12.1,2.6-24.1,1.3-36.3c-0.3-2.9,1.7-5.4,1.8-8.3c0-0.8,0-1.7-0.1-2.5
			c-1.3-5.9,3.4-10.4,3.6-15.9c0-3.6-0.4-7.5,4.1-9.1c0.9-0.1,1.6,0.2,2.3,0.7c1.4,1.4,2.8,2.9,2.9,5.1c-2.1,10-3.1,20.3-5.1,30.4
			c-2,9.8-1.2,19.9-2.2,29.8c0.4-2.5,0.5-5.2,2.2-7.3C190.1,150.1,191.4,148.7,193.6,149.3z"/>
		<path class="st39" d="M45.8,270.2c1-0.5,1.9-0.9,2.9-1.4c8.3,0.3,9.6,6.8,11.5,12.8c-0.5,1-1,2-1.5,3c-1.6-2-3.1-4.1-4.8-6.1
			c-1.5-1.7-2.5-4-5.3-4.2C46.1,274.2,46,272.1,45.8,270.2z"/>
		<path class="st40" d="M174.1,230c0.3,0,0.6,0,0.9,0c0.3,2.4,0.3,4.7-0.2,7c-0.4-0.6-0.9-1.1-1.3-1.7
			C172.1,233.4,172,231.6,174.1,230z"/>
		<path class="st35" d="M60.2,281.6c-4.5-3.7-7.3-8.9-11.5-12.8c-3.9-6.8-3.7-14.3-3.2-21.7c1-14.8,3.2-29.5,6.1-44
			c4.5-22.3,8.5-44.6,11.3-67.1c1.3-10.7,3.8-21.2,6.3-31.7c2-8.2,5.6-15.7,9.7-23.1c1.3-2.2,2.3-4.9,5.6-5c5,0.2,7.4-3.2,10-6.7
			c8.5-11.9,20.2-20,34.8-16.7c13.7,3.1,27.4,7.9,38.9,16.9c3.8,2.9,7.5,5.8,10.9,9.2c6.6,6.5,11.1,13.4,8,23.2
			c-1,5.4-2,10.8-3,16.2c-5.2-2.7-4.6-8-5.1-12.5c-1.5-12.2-9-21.8-20.2-24.4c0.5,3.6,3.2,5.1,5.3,7.2c5.7,5.9,4,16.8-3.2,20.5
			c-4.7-1.5-6-6.1-7.4-9.7c-3.4-8.4-9-15-14.9-21.5c-5-5.5-17.7-8.3-23.9-4.4c-6.2,3.8-13.4,7.9-12.2,17.5c0.5,3.7-2.1,6.7-3.7,9.9
			c-1.1,0.8-2.4,1.2-3.4,2.1c0.9-0.6,1.7-1.1,2.8-1.4c6,1.7,4.6,8,7.4,11.8c3.5,6.2,7.5,12,12.5,17.3c5.5,5.9,12.9,7.1,19.2,10.6
			c4.3,2.4,14.1-3.8,17.3-9.3c1.1-1.9,1.3-4.1,2.1-6.1c3.1-4.5,0.7-10.3,3.3-14.9c4.1-1.5,5.2,1.1,5.5,4.2c0.5,5.7,1.3,11.4,2.6,17
			c1.8,7.8-9.5,16.8-16.3,19.5c-2.7,1-5.5,1.6-9.5,1.2c2.3,1.9,4.1,2.6,6,3.2c15.9,4.6,18.5,8.9,18.7,25.2c0.1,12-5,21-12.7,29.2
			c-2,2.2-4.4,3.8-7.3,4.3c-4.3,0.7-7.6,2.5-9.4,6.7c-0.8,1.9-2.7,2.5-4.8,2.4c-4-0.7-3.9-4.3-4.9-7.1c-2.4-6.8-4.6-13.6-10.3-18.6
			c-9-7.9-17.1-7.1-24.6,2.2c-7.2,8.9-12.5,18.6-15.1,29.7c-2,8.7-0.5,16.6,5,23.7c0.6,0.8-0.2-0.1,0.5,0.5c2.7,2.9,2.5,8.3,7.1,9.4
			c5.2,1.2,9.7-2.1,14.3-3.8c2.4-0.9,5-1.6,7.2-3.1c10.5-5.6,15.7-14.9,17.9-26.2c0.4-2.1-0.1-4.4,1.7-6.1
			c16-1.9,24.5-12.1,31.3-25.7c3.8-7.7,3.4-15.2,4.7-22.9c1.2-7.1,4.4-13.8,4.7-21.4c0.3-7.9,1.3-15.6-0.1-23.5
			c-0.5-2.8,0.2-5.7,1.3-8.4c2.3-5.4,4.8-6.2,10.5-3.1c-2.1,16.5-2.7,33.1-2.6,49.7c0,3.1-1.3,4.8-3.5,6.4c2,19-4.7,34.9-17.5,48.7
			c-4.8,5.7-11.2,9.7-17,14.2c-10.9,8.5-19.2,18.4-22.4,32.3c-1.4,6.3-4.3,12.1-9.2,16.8c-2.5,2.4-5.2,3.9-8.5,4.6
			c-13.8,4.5-25.4-2.2-37.2-7.6c-1.5-0.7-1.8-2.1-1.9-3.6c-0.3-6.5-2.3-12.7-4.1-18.9c-7-11.5-6.5-23.7-4-36.3
			c1.7-8.5,7.3-14.9,11.8-21.9c8-14.9,15.1-30,16.9-47.3c1.1-10.2,1.9-20.3,0-30.5c5.4-4.3,9.2-4,11.4,2.3
			c2.3,6.7,5.6,10.8,12.4,10.3c-3.4-3.1-7.4-6.5-10.3-10.9c-3.4-5.3-7.7-6.8-13.3-3.5c-3.8-3.6-1.2-8.1-1.9-12.2
			c-0.4-2.6,1-5.2,0.7-7.3c-1.3,9.1-0.7,18.4,1.7,27.9c2.6,10.3,0.6,21.3-1.7,31.2c-3.1,13.8-8,27.4-15.8,39.6
			c-13.4,16.2-16.8,34.1-10.9,54.4c1.3,4.4,0.9,9.6,2.8,14.2C60.8,275.1,62.9,278.3,60.2,281.6z"/>
		<path class="st35" d="M174.1,230c-0.2,1.8-0.4,3.6-0.6,5.3c-2.4,11-5.4,21.7-9.7,32.2c-6,14.8-15.4,26.9-29.8,33.5
			c-13.3,6-27.7,7.6-41.9,2.3c-6.4-2.4-12.8-4.9-17.5-10.3c5.2,0.5,10.3,1.5,15,3.7c3.8,1.7,7.3,2.1,10.8-0.6c1.9-1,4.1-1.1,5.6-2.9
			l0,0c7.7-8.6,12.5-18.5,15.4-29.8c1.9-7.3,5.9-14.5,13.5-18.2c7.9,0.7,11.7-5.3,16.2-10c4.5-4.7,9.8-8.7,13.7-14
			c1.7-2.2,3.4-4.2,6.5-3c3,1.1,3.1,3.8,3.1,6.5c0,1-0.1,1.9-0.6,2.7C174,228.3,174,229.2,174.1,230z"/>
		<path class="st41" d="M134.3,247.1c-7.2,5.9-11.6,13.6-13.7,22.7c-2.1,9.6-6.1,18-14.6,23.5c-0.9-0.5-1.9-0.9-2.8-1.4
			c9.1-7.1,13.8-16.4,16.5-27.7c2-8.5,7.5-16,14.5-21.7c8-6.5,16.3-12.6,23.8-19.6c1.4-0.4,2,0.4,2.4,1.5
			C153.7,234.2,146.1,243,134.3,247.1z"/>
		<path class="st7" d="M59.9,271.9c-3.1-4.2-4.3-9.1-4.9-14.1c-1.1-9.2-2.8-18.4-1.3-27.8c1.6-10.7,6.8-19.2,13.6-27.2
			c0.9,0.1,1.5,0.7,1.6,1.6c-7.8,10.2-13.4,21.2-13.1,34.5c0.2,5.7,0.7,11.4,3.1,16.7c0.9,2,0.9,4.1,1,6.3c-2,0.9-1.4,2.6-1.1,4.1
			C59.2,267.8,59.6,269.8,59.9,271.9z"/>
		<path class="st41" d="M106,293.3c-1.3,2-3.1,3.2-5.6,2.9C102,294.7,103.9,293.7,106,293.3z"/>
		<path class="st42" d="M191.2,152.6c-1.9,5.3-3.8,10.7-5.7,16c-0.4,0-0.8-0.1-1.2-0.1c-0.1-1.7-0.4-3.5-0.4-5.2
			c-0.9-21.6,2-42.9,6.1-64.1c0.6-2,0.9-4-0.2-6l0-0.1C178,74.6,161.4,62.8,140.5,57c-1.1-0.3-2.2-0.7-3.3-1.1
			c-14.6-6-29.8-1.9-39,10.7c-1.6,2.1-3.1,4.2-4.8,6.2c-1.4,1.5-3,2.6-5,1.5c-2.4-1.3-2.3-3.3-0.8-5.4c3.6-6.7,9-11.6,15.3-15.5
			c8.7-5.4,17.8-9.9,28-11.8c2.6-0.1,5.3,0,7.9-0.4c15.1-2.4,29.3,0.3,41.4,9.6c13.9,10.7,21.8,24.9,22.6,42.8
			c0.7,16.3-2.6,31.8-7.7,47.1C191,143.8,192.4,148.6,191.2,152.6z"/>
		<path class="st43" d="M87.5,68.9c0.3,1.4,0.2,3,2,3.5c1.3,0.4,2.4-0.3,3.2-1.1c1.3-1.4,2.6-2.8,3.6-4.4
			c6.1-10.3,16.9-12.7,27-16.2c0.8-0.3,1.9-0.2,2.8,0.1c21.3,5.1,41.2,12.9,56.3,29.6c3.3,3.7,7,7.4,7.2,12.9
			c-2.2,2.5-0.6,6.3-2.7,8.9c1.1-8.1-2.7-14.3-8-19.9c-9.4-10-20.7-17-33.5-21.6c-4.1-1.4-8.1-2.9-12.2-4.4
			c-6.9-2.5-13.4-2.1-20.2,1c-7.2,3.4-13,7.9-17.2,14.6c-1.7,2.7-3.8,4.9-7.1,5.7c-1.8,0.5-3.3,0.2-4.5-1.3
			C84.3,73.2,85.4,70.8,87.5,68.9z"/>
		<path class="st44" d="M191.2,152.6c-1.7-8-1.4-8.9,3.9-11.8c-0.5,2.9-1,5.7-1.4,8.6C192.8,150.4,192,151.5,191.2,152.6z"/>
		<path class="st35" d="M183.8,119.1c-6.6,1.7-9.5,4.7-8.2,11c2.5,11.8-1,23.3-0.4,35c0.1,2.5-0.7,4.7-2.4,6.6
			c-3.2,3.6-3.8,7.4-1.7,11.9c2.2,4.6,1.9,8.8-3,11.7c-0.9,0.6-2,1.8-2.1,2.8c-0.4,6.1-6.5,9.5-7,15.5c0,0.2-0.1,0.5-0.3,0.7
			c-6.3,5.9-13.6,10.3-21.6,13.4c-2.5,1-3.6-1.8-4.7-3.5c-0.4-0.3-0.5-0.6-0.4-0.9c0.1-0.3,0.2-0.5,0.3-0.5c2.1-1.6,2.6-3.9,2.9-6.3
			c0.4-3.5,2.5-4.9,5.8-5.1c9.8-0.5,14.8-6.5,18.9-14.9c3.1-6.3,4.2-12.5,4.2-19.2c0-9.4-5.3-16-14.5-17.5
			c-4.2-0.7-7.9-1.3-10.5-5.1c-1.7-2.5-5-2.3-7.7-2.9c0.5-2.7,2.2-1.8,3.5-1.8c4.5-0.1,9-0.7,13.5-1.4c6.4-1.1,10.1-6,14.4-10
			c1.4-1.3,1.8-3.4,1.5-5.4c-1-7.6-2.1-15.1-3.1-22.6c-1.1-0.7-1.1-1.6-0.4-2.7c0.8-1.8,1.8-3.4,2.2-5.3c1.2-5.1,1.5-10-3.7-13.5
			c-1.7-1.2-3-3.1-4.5-4.6c-1.8-1.8-2.6-4-2.5-6.5c0.1-1.8-0.5-4.1,1.8-5c1.8-0.7,3.3,0.6,4.4,1.8c2.2,2.4,4.9,3.7,8.1,4.2
			c1.7,0.3,3.2,1.2,4.3,2.5c5.6,6.8,10.3,14.1,11.6,23.1c0.6,4.5,1.1,9,1.6,13.5C184.1,118.5,184,118.8,183.8,119.1z"/>
		<path class="st44" d="M134.3,247.1c5.8-4.8,11.6-9.6,17.3-14.6c2.8-2.5,5.8-4.9,7.9-8.1c1.2-4.4,5.2-6.7,7.2-10.6
			c4.5-8.9,9-17.8,7.9-28.4c-0.4-3.6-0.2-7.8,4.9-8.7c1.8,2.3,1.6,5,1.1,7.6c-2.9,13.4-3.6,27-5.9,40.5c-0.2,0.9-0.5,1.8-0.8,2.7
			c-0.1-1.2-0.1-2.4-0.5-3.5c-1.4-3.7-3.5-4.4-6.3-1.6c-5.7,5.7-11.5,11.3-16.7,17.5C146,244.9,141.1,247.8,134.3,247.1z"/>
		<path class="st21" d="M179.5,176.6c-3.6,2.8-4.3,6.6-4.3,10.8c0.2,14.6-5.2,26.9-15.8,36.9c-0.5-0.5-1-1-1.5-1.5
			c2.4-4.2,6.4-7.1,8.6-11.5c4.2-8.4,8.1-16.8,7.3-26.6c-0.3-3.6,0.3-7.3,3.8-9.5C178.3,175.7,178.9,176.2,179.5,176.6z"/>
		<path class="st43" d="M189.7,93.2c1.2,1.9,1.2,3.9,0.2,6C189.8,97.2,189.7,95.2,189.7,93.2z"/>
		<path class="st35" d="M88.8,286.1c-6.5,1-12.6-0.1-15.3-6.5c-3.5-8.2-9.9-15.6-7.8-25.8c1.1-5.4-1.3-10.1-5.2-14.2
			c-4.2-4.4-4-7,0.5-10.8c2.7-2.3,4.7-4.6,5.3-8.1c0.2-1.4,1.2-2.9,3-2.2c1.8,0.7,1.6,2.4,0.7,3.5c-2.9,3.6-2.7,8.1-3.6,12.2
			c-1,4.4-0.7,8.6,3.5,11.5c2,1.4,2.5,3.3,2.2,5.6c-0.5,4.9,1.5,8.8,4.9,12.2c3.1,3,6.2,5.8,6.1,10.8c-0.1,3.3,3.2,3.6,5.4,2.6
			c5.4-2.5,11.7-2.7,16.7-6.2c0.8-0.5,1.7-0.9,2.6-1.2c1.2-0.4,2.4,0,3.1,1.1c0.7,1.2,0.5,2.6-0.5,3.3c-4.5,2.9-7.5,7.3-11.2,10.9
			C96.5,287.4,92.2,285.8,88.8,286.1z"/>
		<path class="st35" d="M146.4,186.8c-0.1,6-3.4,8.6-8.4,6.2c-4.5-2.2-9.4-3.6-13.5-6c-4.9-2.9-9.2-7.7-11.9-13.1
			c-1.7-3.4-2.7-7.1-5.7-9.7c-0.9-0.8-1.5-2.1-0.7-3.2c0.9-1.4,2.5-1.5,3.8-0.9c1.3,0.5,2.7,1.2,3.7,2.1c7.1,7,15.9,11.3,24.8,15.3
			c1.5,0.7,2.9,1.7,4.3,2.5C145.6,181.6,146.5,184.1,146.4,186.8z"/>
		<path class="st39" d="M152.9,198.8c-2.2,3.4-4.7,5.2-8.4,5c-3.1-0.2-6.3-0.4-9.1-1.7c-9.4-4.4-17.8-10-24.9-17.8
			c-6.9-7.5-12.9-15.4-16.2-25.1c-0.8-2.4-1.2-4.5-0.2-6.9c1.9-4.4,4.2-5.8,9-5.3c4.1,0.5,7.8,2.1,11.4,4.2
			c9.1,5.3,18.1,10.8,28.9,12.4c3.3,0.5,6.2,2.6,9,4.4c4.4,2.9,6.5,7.1,5.6,12.3c-0.8,4.5-1.2,9.3-5.1,13.9c-0.6-4.1,1-6.7,1.6-9.3
			c2.7-11.2-2.8-15.6-12.5-17.5c-0.6-0.1-1.9,0-1.9,0.2c-1.8,6.7-4.8,1.5-6.4,0.3c-6.5-4.9-14.1-8.2-20-14c-2.3-2.2-5.6-2.7-8.7-3.1
			c-6.9-1-9.6,2.1-7.7,8.6c1.1,3.7,2.8,7.2,4.9,10.4c8.1,11.9,17.9,21.8,31.1,28C140.8,201.3,144.1,201.5,152.9,198.8z"/>
		<path class="st45" d="M132.1,222.8c0,0.5,0.1,1,0.1,1.4c-0.1,2.3-0.3,4.7-0.4,7c-4,0.3-5.3-2.3-5.9-5.6c-1.1-9-4-17.2-10.6-23.7
			c-6.9-6.8-13.3-7-19.8-0.1c-11.6,12.3-17.6,26.7-13.2,43.8c3.1,12.4,10,15.7,21.9,11.1c2.6-1,5.1-3.1,8.1-1
			c0.9,0.8,1.4,1.6,0.9,2.8c-4.4,2.9-9.4,4.8-14.3,6.7c-6.6,2.5-10.4,1.2-14.9-4c-11-12.8-11.7-27-6.2-42.3
			c3.2-9,8.5-16.5,14.8-23.4c7.5-8.2,16.9-8.3,25.2-1c6.8,5.9,10.4,13.6,12.7,22C131.1,218.6,131.6,220.7,132.1,222.8z"/>
		<path class="st35" d="M85.9,123.7c0.2-0.7,0.4-1.4,0.7-2c4.4-7.6,6.1-7.8,11.2-0.6c4.3,6.1,9.3,11.5,14.6,16.6
			c2,2,4.4,3.6,5.9,7.3c-5.7-2.8-11.1-3.6-16.7-3.2c-4.5,0.3-5.7-0.9-6.8-5.5c-0.3-1.2-0.3-2.4-0.5-3.5c-1-4.3-3.2-7.4-8-7.8
			c-0.4-0.2-0.6-0.4-0.6-0.7C85.7,123.9,85.8,123.7,85.9,123.7z"/>
		<path class="st46" d="M160.7,107.9c0.1,0.9,0.3,1.8,0.4,2.7c-0.3,5.8,1.4,11.8-1.9,17.2c-0.7,0.5-1.5,0.6-2.2,0.1
			c-1.4-0.9-2-2.3-2.2-3.9c-0.5-4.2-0.1-8.4-0.5-12.6c-1.8-13.7-9.9-23.8-19.7-32.2c-10.8-9.3-25.1-4.2-29.5,9.6
			c-1.8,5.7-1.3,11.3,0.6,16.9c0.9,2.6,2.7,5.3,0.6,8.1c-0.8,0.8-1.7,1.3-2.8,0.8c-3.5-3.7-3.2-9.1-5.8-13.1
			c-0.5-0.2-0.6-0.4-0.5-0.7c0.1-0.3,0.3-0.4,0.4-0.4c0.4-3.1,0.7-6.1,1.1-9.2c1.1-10.4,6.1-18,16.1-21.5c9.9-3.5,18.8-0.9,26.2,6.4
			C150,85.1,157,95.5,160.7,107.9z"/>
		<path class="st47" d="M85.9,123.7c0,0.4,0.2,0.8,0.3,1.2c3.2,12.4,0.1,24.7-0.4,37.1c-0.1,2.8-1.1,5.6-2.1,8.3
			c-3.3,9-6.8,17.9-10.2,26.8c-1,2.7-2.7,5.1-4.6,7.2c-0.5-0.5-1.1-1.1-1.6-1.6c6.3-11.9,12.1-24.2,14.8-37.2
			c2.6-12.9,4.5-26.3,0.7-39.7c-3-10.5-0.7-21.2,2.2-31.6C85.1,104,83,113.9,85.9,123.7z"/>
		<path class="st35" d="M96.4,181.5c-0.1,2.9-6.3,11.3-9.1,12.2c-1.3,0.4-2.6,0.1-3.1-1.1c-1.3-3.4-2.7-6.9-0.1-10.2
			c2.3-2.9,4.2-5.8,4.9-9.4c0.3-1.5,1.2-2.7,2.9-2.6c1.5,0.1,2.8,0.9,3.1,2.5C95.5,175.7,95.9,178.5,96.4,181.5z"/>
		<path class="st17" d="M157.3,127.8c0.7,0,1.4,0,2,0c-1.9,6.3-5.9,10.8-11.7,13.8c-4.2,2.2-8.5,2.3-13.1,0.9
			c-14.7-4.5-24.3-14.5-31-27.8c0.4-0.5,0.9-0.9,1.3-1.4c3.7-1.7,5.2,1.4,6.9,3.5c4.3,5.2,8.5,10.4,14.1,14.3
			c10,7.2,17.2,6.8,26-1.6C153.4,128,154.8,126.6,157.3,127.8z"/>
		<path class="st48" d="M129.3,224.2c0.9,2.4,1.7,4.7,2.6,7.1c-1,12.7-7.8,21.4-18.7,27.3c-0.5-0.4-0.9-0.9-1.4-1.3
			c-1.5-3.2,0.9-5,2.8-6.6c6.7-5.7,11-12.5,11.3-21.5C126,226.9,126.6,224.8,129.3,224.2z"/>
		<path class="st35" d="M97.6,100.4c0.1,0.4,0.2,0.7,0.1,1.1c-0.6,3.1-3.1,4.6-5.3,6.5c-1.7,1.5-3.4,1.7-4.9-0.2
			c-1.7-2.1-1.3-4.8,1-6.1C91.3,100.1,94.5,100.5,97.6,100.4z"/>
		<path class="st35" d="M135.4,64.1c-0.2,0.1-0.5,0.2-0.6,0.2c-0.2-0.1-0.4-0.4-0.4-0.5c0.1-0.7,0.4-0.8,0.9-0.3
			C135.4,63.6,135.4,63.9,135.4,64.1z"/>
		<path class="st35" d="M129.3,224.2c0.6,8.5-0.4,16.7-6.3,23.3c-3.3,3.7-7.4,6.5-11.2,9.7c-3.3,1.4-6.6,2.8-9.9,4.2
			c-8.4,3.3-14.9,1.2-19.6-6.7c-6.5-10.8-6.6-22.3-2.5-33.9c3.1-8.7,7.7-16.4,14.3-23c6.5-6.5,13-7,20.4-1.4
			C123.6,203.5,128,213,129.3,224.2z"/>
		<path class="st35" d="M157.3,127.8c-0.7,0.9-1.5,1.8-2.1,2.9c-6.2,10.4-14.7,12.4-27.7,5.9c-7.8-3.9-13.4-10.5-18.5-17.5
			c-1.4-1.9-2.8-3.8-4.2-5.8c-4-8.2-5.7-16.7-3-25.6c2.2-7.6,6.7-13,14.3-15.7c8.4-3,15.6-0.4,21.8,5c6.9,6,12.1,13.4,16.5,21.3
			c2.1,3.8,2.6,8.2,3.9,12.2c0.7,4.3,0.6,8.6,0.1,12.9C158,124.9,157.6,126.3,157.3,127.8z"/>
		<path class="st17" d="M158.3,123.4c0-4.3,0-8.6-0.1-12.9C159.8,114.8,159.8,119.1,158.3,123.4z"/>
		<path class="st8" d="M95.6,249.5c0.4-3.9,5.3-5,4.5-8.8c-0.6-3.3-1.7-6.5-2.4-9.7c-0.5-2.3-0.9-4.7-1.1-7.1
			c-0.1-1,0.4-1.9,1.4-2.2c1.1-0.3,1.9,0.3,2.3,1.2c3.1,7.5,4.3,15.2,1.7,23.1C101,248.5,98.9,249.9,95.6,249.5z"/>
		<path class="st49" d="M134.6,122.4c-1.4-1.3-2-1.5-2.1-1.9c-1-8.4-3.9-15.7-11.4-20.5c-0.8-0.5-1.3-1.6-0.8-2.5
			c0.9-1.5,2.2-0.7,3.1,0C131.6,103.3,135.1,111.4,134.6,122.4z"/>
	</g>
</g>
<g id="labels">
	<line class="st50" x1="449.8" y1="214.3" x2="521.7" y2="214.3"/>
	<line class="st51" x1="449.8" y1="213.3" x2="521.7" y2="213.3"/>
	<g>
		<path d="M533.2,217.3v-11.6h3.7c3.4,0,5.4,2.2,5.4,5.8c0,3.6-2,5.8-5.5,5.8H533.2z M536.7,216.1c2.9,0,4.3-1.7,4.3-4.6
			c0-2.8-1.4-4.5-4.1-4.5h-2.2v9.1H536.7z"/>
		<path d="M544.1,213c0-2.7,1.6-4.5,3.9-4.5c1.8,0,3.7,1.1,3.7,4.4v0.6h-6.3c0.1,1.9,1.1,2.9,2.7,2.9c1,0,1.8-0.5,2.2-1.4l1.3,0.4
			c-0.4,1.3-1.7,2.2-3.5,2.2C545.6,217.5,544.1,215.7,544.1,213z M550.4,212.3c0-1.5-0.9-2.6-2.4-2.6c-1.5,0-2.5,1.2-2.6,2.6H550.4z
			"/>
		<path d="M558.8,210.9c-0.2-0.6-0.7-1.2-1.9-1.2c-1.1,0-1.9,0.5-1.9,1.3c0,0.7,0.5,1,1.5,1.3l1.3,0.3c1.6,0.4,2.3,1.1,2.3,2.4
			c0,1.5-1.4,2.6-3.4,2.6c-1.8,0-3-0.8-3.3-2.3l1.3-0.3c0.2,0.9,0.9,1.4,2,1.4c1.2,0,2-0.6,2-1.4c0-0.6-0.4-1-1.3-1.2l-1.5-0.3
			c-1.6-0.4-2.3-1.2-2.3-2.4c0-1.5,1.4-2.5,3.2-2.5c1.7,0,2.7,0.8,3.1,2.1L558.8,210.9z"/>
		<path d="M561.8,213c0-2.7,1.6-4.5,3.9-4.5c1.8,0,3.2,1.1,3.5,2.7h-1.3c-0.2-0.8-0.9-1.5-2.1-1.5c-1.6,0-2.6,1.3-2.6,3.3
			c0,2,1,3.3,2.6,3.3c1,0,1.8-0.6,2.1-1.5h1.3c-0.2,1.5-1.5,2.7-3.4,2.7C563.3,217.5,561.8,215.6,561.8,213z"/>
		<path d="M570.7,213c0-2.7,1.6-4.5,3.9-4.5c1.8,0,3.7,1.1,3.7,4.4v0.6H572c0.1,1.9,1.1,2.9,2.7,2.9c1,0,1.8-0.5,2.2-1.4l1.3,0.4
			c-0.4,1.3-1.7,2.2-3.5,2.2C572.2,217.5,570.7,215.7,570.7,213z M577,212.3c0-1.5-0.9-2.6-2.4-2.6c-1.5,0-2.5,1.2-2.6,2.6H577z"/>
		<path d="M581.8,217.3h-1.3v-8.7h1.3v1.4h0.1c0.4-0.9,1.2-1.5,2.5-1.5c1.8,0,3,1.1,3,3.3v5.5H586v-5.4c0-1.4-0.8-2.2-2-2.2
			c-1.3,0-2.2,0.9-2.2,2.4V217.3z"/>
		<path d="M589.4,213c0-2.7,1.5-4.5,3.7-4.5c1.7,0,2.2,1,2.5,1.5h0.1v-4.3h1.3v11.6h-1.3V216h-0.2c-0.3,0.5-0.9,1.5-2.5,1.5
			C590.9,217.5,589.4,215.8,589.4,213z M595.8,213c0-2-0.9-3.3-2.5-3.3c-1.7,0-2.5,1.4-2.5,3.3c0,1.9,0.9,3.3,2.5,3.3
			C594.9,216.3,595.8,214.9,595.8,213z"/>
		<path d="M599.4,206.2c0-0.5,0.4-0.9,1-0.9c0.5,0,1,0.4,1,0.9s-0.4,0.9-1,0.9C599.9,207.1,599.4,206.7,599.4,206.2z M599.7,208.6
			h1.3v8.7h-1.3V208.6z"/>
		<path d="M604.9,217.3h-1.3v-8.7h1.3v1.4h0.1c0.4-0.9,1.2-1.5,2.5-1.5c1.8,0,3,1.1,3,3.3v5.5h-1.3v-5.4c0-1.4-0.8-2.2-2-2.2
			c-1.3,0-2.2,0.9-2.2,2.4V217.3z"/>
		<path d="M612.8,219l1.1-0.8c0.4,0.5,0.9,1.3,2.5,1.3c1.4,0,2.4-0.7,2.4-2.1v-1.8h-0.1c-0.3,0.5-0.8,1.5-2.5,1.5
			c-2.1,0-3.7-1.5-3.7-4.3c0-2.7,1.5-4.4,3.7-4.4c1.7,0,2.2,1,2.5,1.5h0.1v-1.4h1.3v9c0,2.2-1.7,3.2-3.8,3.2
			C614.4,220.8,613.4,219.9,612.8,219z M618.8,212.9c0-1.9-0.9-3.2-2.5-3.2c-1.7,0-2.5,1.4-2.5,3.2c0,1.8,0.9,3.1,2.5,3.1
			C618,216,618.8,214.8,618.8,212.9z"/>
		<path d="M536.8,228.9h-1.9v5.1c0,1.1,0.6,1.3,1.2,1.3c0.3,0,0.5,0,0.6-0.1l0.3,1.2c-0.2,0.1-0.5,0.2-1,0.2c-1.1,0-2.4-0.7-2.4-2.2
			v-5.4h-1.3v-1.1h1.3v-2.1h1.3v2.1h1.9V228.9z"/>
		<path d="M540.3,236.5H539v-11.6h1.3v4.3h0.1c0.4-0.9,1.2-1.5,2.6-1.5c1.8,0,3,1,3,3.3v5.5h-1.3v-5.4c0-1.4-0.8-2.2-2-2.2
			c-1.3,0-2.3,0.9-2.3,2.4V236.5z"/>
		<path d="M548.2,225.4c0-0.5,0.4-0.9,1-0.9s1,0.4,1,0.9s-0.4,0.9-1,0.9S548.2,225.9,548.2,225.4z M548.4,227.8h1.3v8.7h-1.3V227.8z
			"/>
		<path d="M553.6,236.5h-1.3v-8.7h1.3v1.4h0.1c0.4-0.9,1.2-1.5,2.5-1.5c1.8,0,3,1.1,3,3.3v5.5h-1.3v-5.4c0-1.4-0.8-2.2-2-2.2
			c-1.3,0-2.2,0.9-2.2,2.4V236.5z"/>
		<path d="M567.4,236.5h-1.3v-11.6h1.3V236.5z"/>
		<path d="M569.6,225.4c0-0.5,0.4-0.9,1-0.9s1,0.4,1,0.9s-0.4,0.9-1,0.9S569.6,225.9,569.6,225.4z M569.9,227.8h1.3v8.7h-1.3V227.8z
			"/>
		<path d="M573.7,227.8h1.3v1.4h0.1c0.4-0.9,1.2-1.5,2.3-1.5c1.1,0,1.9,0.5,2.3,1.5h0.1c0.4-0.9,1.4-1.5,2.6-1.5
			c1.6,0,2.7,0.9,2.7,3v5.8h-1.3v-5.8c0-1.3-0.8-1.8-1.8-1.8c-1.2,0-1.9,0.8-1.9,2v5.7h-1.4v-6c0-1-0.7-1.7-1.7-1.7
			c-1,0-2,0.9-2,2.2v5.4h-1.3V227.8z"/>
		<path d="M587.8,224.9h1.3v4.3h0.1c0.3-0.5,0.8-1.5,2.5-1.5c2.2,0,3.7,1.7,3.7,4.5c0,2.8-1.5,4.5-3.7,4.5c-1.7,0-2.2-1-2.5-1.5
			h-0.2v1.3h-1.3V224.9z M591.6,235.5c1.7,0,2.5-1.5,2.5-3.3c0-1.8-0.8-3.3-2.5-3.3c-1.6,0-2.5,1.3-2.5,3.3
			C589.1,234.1,590,235.5,591.6,235.5z"/>
		<path d="M601.6,232.2c0-2.7,1.6-4.5,3.9-4.5c1.8,0,3.2,1.1,3.5,2.7h-1.3c-0.2-0.8-0.9-1.5-2.1-1.5c-1.6,0-2.6,1.3-2.6,3.3
			c0,2,1,3.3,2.6,3.3c1,0,1.8-0.6,2.1-1.5h1.3c-0.2,1.5-1.5,2.7-3.4,2.7C603.1,236.7,601.6,234.8,601.6,232.2z"/>
		<path d="M610.6,232.2c0-2.7,1.6-4.5,3.9-4.5c1.8,0,3.7,1.1,3.7,4.4v0.6h-6.3c0.1,1.9,1.1,2.9,2.7,2.9c1,0,1.8-0.5,2.2-1.4l1.3,0.4
			c-0.4,1.3-1.7,2.2-3.5,2.2C612.1,236.7,610.6,234.9,610.6,232.2z M616.9,231.5c0-1.5-0.9-2.6-2.4-2.6c-1.5,0-2.5,1.2-2.6,2.6
			H616.9z"/>
		<path d="M621.6,236.5h-1.3v-11.6h1.3V236.5z"/>
		<path d="M625.4,236.5h-1.3v-11.6h1.3V236.5z"/>
	</g>
	<line class="st50" x1="175.3" y1="59.3" x2="237.2" y2="59.3"/>
	<line class="st51" x1="175.3" y1="58.3" x2="237.2" y2="58.3"/>
	<g>
		<path d="M248.6,62.4V50.7h3.7c3.4,0,5.4,2.2,5.4,5.8c0,3.6-2,5.8-5.5,5.8H248.6z M252.1,61.1c2.9,0,4.3-1.7,4.3-4.6
			c0-2.8-1.4-4.5-4.1-4.5H250v9.1H252.1z"/>
		<path d="M259.5,58.1c0-2.7,1.6-4.5,3.9-4.5c1.8,0,3.7,1.1,3.7,4.4v0.6h-6.3c0.1,1.9,1.1,2.9,2.7,2.9c1,0,1.8-0.5,2.2-1.4l1.3,0.4
			c-0.4,1.3-1.7,2.2-3.5,2.2C261.1,62.6,259.5,60.8,259.5,58.1z M265.9,57.3c0-1.5-0.9-2.6-2.4-2.6c-1.5,0-2.5,1.2-2.6,2.6H265.9z"
			/>
		<path d="M274.2,55.9c-0.2-0.6-0.7-1.2-1.9-1.2c-1.1,0-1.9,0.5-1.9,1.3c0,0.7,0.5,1,1.5,1.3l1.3,0.3c1.6,0.4,2.3,1.1,2.3,2.4
			c0,1.5-1.4,2.6-3.4,2.6c-1.8,0-3-0.8-3.3-2.3l1.3-0.3c0.2,0.9,0.9,1.4,2,1.4c1.2,0,2-0.6,2-1.4c0-0.6-0.4-1-1.3-1.2l-1.5-0.3
			c-1.6-0.4-2.3-1.2-2.3-2.4c0-1.5,1.4-2.5,3.2-2.5c1.7,0,2.7,0.8,3.1,2.1L274.2,55.9z"/>
		<path d="M277.2,58.1c0-2.7,1.6-4.5,3.9-4.5c1.8,0,3.2,1.1,3.5,2.7h-1.3c-0.2-0.8-0.9-1.5-2.1-1.5c-1.6,0-2.6,1.3-2.6,3.3
			c0,2,1,3.3,2.6,3.3c1,0,1.8-0.6,2.1-1.5h1.3c-0.2,1.5-1.5,2.7-3.4,2.7C278.7,62.6,277.2,60.7,277.2,58.1z"/>
		<path d="M286.2,58.1c0-2.7,1.6-4.5,3.9-4.5c1.8,0,3.7,1.1,3.7,4.4v0.6h-6.3c0.1,1.9,1.1,2.9,2.7,2.9c1.1,0,1.8-0.5,2.2-1.4
			l1.3,0.4c-0.4,1.3-1.7,2.2-3.5,2.2C287.7,62.6,286.2,60.8,286.2,58.1z M292.5,57.3c0-1.5-0.9-2.6-2.4-2.6c-1.5,0-2.5,1.2-2.6,2.6
			H292.5z"/>
		<path d="M297.2,62.4h-1.3v-8.7h1.3V55h0.1c0.4-0.9,1.2-1.5,2.5-1.5c1.8,0,3,1.1,3,3.3v5.5h-1.3v-5.4c0-1.4-0.8-2.2-2-2.2
			c-1.3,0-2.2,0.9-2.2,2.4V62.4z"/>
		<path d="M304.8,58c0-2.7,1.5-4.5,3.7-4.5c1.7,0,2.2,1,2.5,1.5h0.1v-4.3h1.3v11.6h-1.3V61h-0.2c-0.3,0.5-0.9,1.5-2.5,1.5
			C306.4,62.6,304.8,60.8,304.8,58z M311.2,58c0-2-0.9-3.3-2.5-3.3c-1.7,0-2.5,1.4-2.5,3.3c0,1.9,0.9,3.3,2.5,3.3
			C310.3,61.3,311.2,60,311.2,58z"/>
		<path d="M314.9,51.3c0-0.5,0.4-0.9,1-0.9s1,0.4,1,0.9s-0.4,0.9-1,0.9S314.9,51.8,314.9,51.3z M315.2,53.7h1.3v8.7h-1.3V53.7z"/>
		<path d="M320.3,62.4H319v-8.7h1.3V55h0.1c0.4-0.9,1.2-1.5,2.5-1.5c1.8,0,3,1.1,3,3.3v5.5h-1.3v-5.4c0-1.4-0.8-2.2-2-2.2
			c-1.3,0-2.2,0.9-2.2,2.4V62.4z"/>
		<path d="M328.3,64.1l1.1-0.8c0.4,0.5,0.9,1.3,2.5,1.3c1.4,0,2.4-0.7,2.4-2.1v-1.8h-0.1c-0.3,0.5-0.8,1.5-2.5,1.5
			c-2.1,0-3.7-1.5-3.7-4.3c0-2.7,1.5-4.4,3.7-4.4c1.7,0,2.2,1,2.5,1.5h0.1v-1.4h1.3v9c0,2.2-1.7,3.2-3.8,3.2
			C329.9,65.8,328.8,65,328.3,64.1z M334.3,57.9c0-1.9-0.9-3.2-2.5-3.2c-1.7,0-2.5,1.4-2.5,3.2c0,1.8,0.9,3.1,2.5,3.1
			C333.4,61,334.3,59.9,334.3,57.9z"/>
		<path d="M346.5,62.4h-1.4l-3.2-8.7h1.5l2.4,6.9h0.1l2.4-6.9h1.5L346.5,62.4z"/>
		<path d="M350.8,59.9c0-2,1.8-2.4,3.4-2.6c1.6-0.2,2.2-0.1,2.2-0.8v0c0-1.1-0.6-1.8-1.8-1.8c-1.3,0-2,0.7-2.3,1.3l-1.3-0.5
			c0.7-1.6,2.2-2,3.5-2c1.1,0,3.2,0.3,3.2,3.1v5.7h-1.3v-1.2h-0.1c-0.3,0.6-1.1,1.4-2.6,1.4C352.1,62.6,350.8,61.6,350.8,59.9z
			 M356.4,59.2V58c-0.2,0.3-1.7,0.4-2.3,0.5c-1,0.1-2,0.5-2,1.5c0,0.9,0.8,1.4,1.8,1.4C355.6,61.4,356.4,60.3,356.4,59.2z"/>
		<path d="M365.2,55.9c-0.2-0.6-0.7-1.2-1.9-1.2c-1.1,0-1.9,0.5-1.9,1.3c0,0.7,0.5,1,1.5,1.3l1.3,0.3c1.6,0.4,2.3,1.1,2.3,2.4
			c0,1.5-1.4,2.6-3.4,2.6c-1.8,0-3-0.8-3.3-2.3l1.3-0.3c0.2,0.9,0.9,1.4,2,1.4c1.2,0,2-0.6,2-1.4c0-0.6-0.4-1-1.3-1.2l-1.5-0.3
			c-1.6-0.4-2.3-1.2-2.3-2.4c0-1.5,1.4-2.5,3.2-2.5c1.7,0,2.7,0.8,3.1,2.1L365.2,55.9z"/>
		<path d="M368.2,59.9c0-2,1.8-2.4,3.4-2.6c1.6-0.2,2.2-0.1,2.2-0.8v0c0-1.1-0.6-1.8-1.8-1.8c-1.3,0-2,0.7-2.3,1.3l-1.3-0.5
			c0.7-1.6,2.2-2,3.5-2c1.1,0,3.2,0.3,3.2,3.1v5.7h-1.3v-1.2h-0.1c-0.3,0.6-1.1,1.4-2.6,1.4C369.5,62.6,368.2,61.6,368.2,59.9z
			 M373.8,59.2V58c-0.2,0.3-1.7,0.4-2.3,0.5c-1,0.1-2,0.5-2,1.5c0,0.9,0.8,1.4,1.8,1.4C373,61.4,373.8,60.3,373.8,59.2z"/>
		<path d="M382.1,53.7h1.3V55h0.1c0.3-0.9,1.2-1.5,2.3-1.5c0.2,0,0.6,0,0.7,0v1.4c-0.1,0-0.5-0.1-0.8-0.1c-1.3,0-2.2,0.9-2.2,2v5.5
			h-1.3V53.7z"/>
		<path d="M387.4,58.1c0-2.7,1.6-4.5,3.9-4.5c1.8,0,3.7,1.1,3.7,4.4v0.6h-6.3c0.1,1.9,1.1,2.9,2.7,2.9c1,0,1.8-0.5,2.2-1.4l1.3,0.4
			c-0.4,1.3-1.7,2.2-3.5,2.2C388.9,62.6,387.4,60.8,387.4,58.1z M393.7,57.3c0-1.5-0.9-2.6-2.4-2.6c-1.5,0-2.5,1.2-2.6,2.6H393.7z"
			/>
		<path d="M396.7,58.1c0-2.7,1.6-4.5,3.9-4.5c1.8,0,3.2,1.1,3.5,2.7h-1.3c-0.2-0.8-0.9-1.5-2.1-1.5c-1.6,0-2.6,1.3-2.6,3.3
			c0,2,1,3.3,2.6,3.3c1,0,1.8-0.6,2.1-1.5h1.3c-0.2,1.5-1.5,2.7-3.4,2.7C398.2,62.6,396.7,60.7,396.7,58.1z"/>
		<path d="M409.8,54.8H408v5.1c0,1.1,0.6,1.3,1.2,1.3c0.3,0,0.5,0,0.6-0.1l0.3,1.2c-0.2,0.1-0.5,0.2-1,0.2c-1.1,0-2.4-0.7-2.4-2.2
			v-5.4h-1.3v-1.1h1.3v-2.1h1.3v2.1h1.9V54.8z"/>
		<path d="M411.5,59.9c0-2,1.8-2.4,3.4-2.6c1.6-0.2,2.2-0.1,2.2-0.8v0c0-1.1-0.6-1.8-1.8-1.8c-1.3,0-2,0.7-2.3,1.3l-1.3-0.5
			c0.7-1.6,2.2-2,3.5-2c1.1,0,3.2,0.3,3.2,3.1v5.7h-1.3v-1.2H417c-0.3,0.6-1.1,1.4-2.6,1.4C412.8,62.6,411.5,61.6,411.5,59.9z
			 M417.1,59.2V58c-0.2,0.3-1.7,0.4-2.3,0.5c-1,0.1-2,0.5-2,1.5c0,0.9,0.8,1.4,1.8,1.4C416.2,61.4,417.1,60.3,417.1,59.2z"/>
	</g>
	<g>
		<path d="M507.1,385.4h-1.4v-10.1h-0.1l-2.8,1.9v-1.4l2.9-1.9h1.4V385.4z"/>
		<path d="M510.2,379.5c0-3.8,1.5-6,4-6s4,2.2,4,6c0,3.8-1.5,6-4,6C511.6,385.5,510.2,383.3,510.2,379.5z M516.9,379.5
			c0-3-1-4.7-2.7-4.7c-1.7,0-2.7,1.7-2.7,4.7c0,3,1,4.7,2.7,4.7S516.9,382.6,516.9,379.5z"/>
		<path d="M524.9,376.6h1.3v5.2c0,1.4,1,2.4,2.4,2.4s2.4-1,2.4-2.4v-5.2h1.3v8.7h-1.3v-1.3H531c-0.5,0.9-1.4,1.4-2.3,1.4
			c-1,0-1.9-0.5-2.3-1.4h-0.1v4.6h-1.3V376.6z"/>
		<path d="M534.9,376.6h1.3v1.4h0.1c0.4-0.9,1.2-1.5,2.3-1.5c1.1,0,1.9,0.5,2.3,1.5h0.1c0.4-0.9,1.4-1.5,2.6-1.5
			c1.6,0,2.7,0.9,2.7,3v5.8H545v-5.8c0-1.3-0.8-1.8-1.8-1.8c-1.2,0-1.9,0.8-1.9,2v5.7h-1.4v-6c0-1-0.7-1.7-1.7-1.7c-1,0-2,0.9-2,2.2
			v5.4h-1.3V376.6z"/>
	</g>
	<line class="st52" x1="582" y1="347.7" x2="582" y2="368.4"/>
	<g>
		
			<radialGradient id="SVGID_1_" cx="961.6464" cy="456.0855" r="23.6637" gradientTransform="matrix(0.8948 0 0 0.8948 -236.9799 -47.4351)" gradientUnits="userSpaceOnUse">
			<stop  offset="0.2146" style="stop-color:#6D1014"/>
			<stop  offset="0.2917" style="stop-color:#751419"/>
			<stop  offset="0.4087" style="stop-color:#8A1F26"/>
			<stop  offset="0.5502" style="stop-color:#AC323C"/>
			<stop  offset="0.6199" style="stop-color:#BF3C49"/>
			<stop  offset="0.7723" style="stop-color:#B22D3C"/>
			<stop  offset="0.8834" style="stop-color:#A51F30"/>
			<stop  offset="0.9144" style="stop-color:#A82334"/>
			<stop  offset="0.9452" style="stop-color:#B22E40"/>
			<stop  offset="0.9759" style="stop-color:#C34154"/>
			<stop  offset="1" style="stop-color:#D55669"/>
		</radialGradient>
		<path class="st53" d="M615.5,340.8c-7.1,2.2-10.1,6.7-11.6,11.1c-1.5,4.5-2.7,9.4-0.8,15.2c1.9,5.8,4.8,9.5,9.9,12.1
			c5.1,2.6,7.6,2.9,13,1.8c5.4-1.1,14.2-4.9,17-11.1c2.8-6.2,2.8-15.3-2.6-23S622.8,338.6,615.5,340.8z"/>
		<g class="st54">
			<g>
				<g class="st55">
					<g class="st55">
						<path class="st35" d="M641,360.5c0-1.6-0.2-3.2-0.5-4.6c0.2,0.3,0.4,0.6,0.5,0.9C641.6,357.9,641.1,359.2,641,360.5z"/>
						<path class="st35" d="M640.9,365.1L640.9,365.1l0.1-2c0-0.6,0-1.3,0-1.9c0,0.1,0,0.2,0,0.3c0.1,0.6,0.2,1.2,0.2,1.8
							C641.3,363.9,641.2,364.5,640.9,365.1z"/>
						<path class="st35" d="M630.1,381.5c0.6-0.8,1.2-1.5,1.8-2.4c0.5-0.9,0.9-1.8,1.2-2.8c0.3-0.3,0.5-0.7,0.7-0.8
							c0,0,0.4-0.4,0.9-0.8c0.5-0.4,1.1-0.9,1.5-1.3c-0.1,1,0,2,0.1,3c0.5-0.1,1.3-0.6,1.5-0.3c0.5,1.1,0.1,2.3-0.5,3.5
							c-0.2,0.1-1.3,0.5-2.8,0.9c-0.4,0.1-0.7,0.2-1.1,0.3L633,381c-0.3,0.1-0.6,0.2-0.7,0.2C631.4,381.3,630.7,381.4,630.1,381.5z"
							/>
						<path class="st35" d="M624.7,381.7c-1.5,0-3.4-0.3-4.3-0.6c0.5-0.2,1-0.6,1.6-0.9c-0.5-0.1-0.8-0.3-1.2-0.4
							c0.1-0.1,0.2-0.1,0.3-0.2c1-0.1,2.2-0.4,3.4-0.6c1.1-0.3,2.3-0.6,3.4-0.9c0,0.2-0.7,0.9-1.4,1.7
							C625.8,380.6,625,381.3,624.7,381.7z"/>
						<path class="st35" d="M629.1,381.3c-0.5,0.1-1,0.2-1.5,0.3c-0.9,0.1-1.9,0.1-2.8,0c0.6-0.8,1.4-1.7,2.4-2.6
							c-0.2,0-0.3-0.3-0.5-0.2c0.7-0.4,1.2-0.4,1.3-0.8c1-0.3,2.1-0.6,2.9-1c0.1,0,0.2-0.1,0.3-0.1c0.1,0,0.1,0,0.2-0.1l0.6-0.4
							c0.4-0.3,0.8-0.5,1.3-0.8c-0.2,0.5-0.7,0.6-1,0.8c0.3,0.2,0.6,0.1,0.9-0.2c-0.3,0.9-0.7,1.9-1.2,2.8c-0.5,0.9-1.2,1.6-1.8,2.4
							l-0.5,0.1C629.5,381.4,629.3,381.2,629.1,381.3z"/>
						<path class="st35" d="M642.8,363.7c0.8,1.4,1.8,2.4,3,3.3c-0.2,0.4-0.5,1.2-0.4,1.9c-0.1,0.6-0.4,1.5-0.9,2.3
							c-0.4,0.8-1,1.6-0.9,1.8c0,0.1,0,0,0.1-0.3c0-0.3,0.1-0.9,0-1.4c-0.1-1.1-0.7-2.2-1.1-2.8c-0.6-0.3-1-0.8-1.5-1.4
							c0.1-0.2,0.5,0,0.5-0.1c-0.1,0-0.5-0.4-0.5-0.4s0-0.3,0.1-0.8c0-0.4,0.1-1,0.1-1.3c0.7-0.3,0.2-1.3,0.1-1.3l0-0.6l0,0
							c0.2,0.3,0.4,0.6,0.6,0.9C642.3,363.7,642.8,363.7,642.8,363.7z"/>
						<path class="st35" d="M637.9,376.1c0.5,1.1,0.1,2.3-0.5,3.5c0.4-0.2,1.5-0.6,1.6-0.7c-0.3-0.1-0.6-0.3-0.5-0.5
							c0.5-0.5,1.1-1.1,1.5-1.5c0.6-0.3,1.4-0.5,2.1-0.9c0.4-0.5,0.7-1,1-1.5c0,0-0.1-0.6-0.3-0.7c0.3-0.3,0.6-0.5,0.9-0.8
							c0,0,0-0.2,0.1-0.7c0.1-0.4,0.1-1,0.1-1.5c-0.1-1.1-0.7-2-1.2-2.3c-0.6-0.3-1-0.8-1.5-1.4c0,0-0.3,1.5-0.6,2
							c0.1,0,0.5-0.1,0.5-0.2c0,0.1-0.6,0.5-0.8,0.6c0,0.1-0.9,1.1-0.9,1.2c-0.1,0.1,0.3,0.1,0.6,0.3c-0.7,0.2-1.4,0.4-1.9,0.7
							l-0.4,0.3c-0.1-0.1-0.2-0.1-0.2-0.1c0.1-0.1,0.1-0.2,0.2-0.3c-0.2,0.2-1.3,1-1.6,1.3c0.3-0.2,0.7-0.3,1.1-0.4
							c-0.3,0.2-0.6,0.5-0.9,0.7l0,0c-0.1,1,0,1.9,0.1,3C636.8,376.3,637.7,375.8,637.9,376.1z"/>
						<path class="st35" d="M631.5,342.8c-0.7-0.6-1.9-1.2-2.7-1.5c-0.6-0.2-0.8-0.2-0.8-0.2c-0.1,0-0.1,0-0.3,0.1
							c0.4-0.2,1-0.2,1.4-0.3c0.5,0,1,0,1.5,0.1c1,0.1,1.9,0.4,2.8,0.7c0.9,0.3,1.8,0.7,2.7,1.1c0.5,0.2,0.9,0.4,1.4,0.9
							c0.5,0.4,0.8,0.7,1.1,1.1c-0.3-0.1-0.5-0.3-0.8-0.4c-0.1-0.1-0.3-0.2-0.4-0.3c-0.2-0.1-0.3-0.2-0.5-0.3
							c-0.6-0.3-1.2-0.5-1.7-0.4c0,0.1,0.2,0.3,0.3,0.4c-0.9-0.3-2.4-0.9-2.5-0.7c-0.1,0.2,0.1,0.5,0.1,0.8l-0.3-0.2
							C632.6,343.3,632.1,343.1,631.5,342.8z"/>
						<path class="st35" d="M636.1,347c-0.2-0.3-0.4-0.6-0.7-1c0-0.1-0.3-0.4-0.6-0.6c0-0.1,0.1-0.1,0.1-0.2
							c0.2,0.1,0.3,0.3,0.5,0.4c0.2,0.2,0.1,0.2,0.3,0.4c0.3,0.4,0.6,0.7,0.8,1.1C636.3,347.1,636.2,347,636.1,347z"/>
						<path class="st35" d="M635.6,343.7c-0.1-0.1-0.3-0.4-0.3-0.4c0.5,0,1.1,0.1,1.7,0.4c0.2,0.1,0.3,0.2,0.5,0.3
							c0.1,0.1,0.3,0.2,0.4,0.3c0.3,0.2,0.5,0.3,0.8,0.4c1.1,1.1,2,2.4,2.8,3.6c-0.2-0.2-0.5-0.3-0.7-0.5c0.5,0.7-0.2,1.2,0.2,1.9
							c-1-0.7-1.9-1.8-2.9-2.7c-0.5-0.4-0.9-0.8-1.4-1.1c-0.2-0.2-0.5-0.3-0.7-0.4c-0.2-0.1-0.3-0.1-0.6-0.1
							c-0.6-0.5-1.5-1.1-2.3-1.7c0-0.3-0.2-0.6-0.1-0.8C633.2,342.7,634.6,343.4,635.6,343.7z"/>
						<path class="st35" d="M641,349.8c-0.4-0.7,0.3-1.3-0.2-1.9c0.2,0.2,0.5,0.3,0.7,0.5c0.5,0.7,0.9,1.4,1.4,2
							c0.5,0.7,0.9,1.1,1.5,2.2c0.1,0.1,0.1,0.3,0.2,0.4c0.5,1.5,0.9,2.6,1,3.9c-0.8-0.8-1.5-1.5-2.3-2.1c0.2-0.8,0.2-1.8-0.1-2.7
							c-0.2-0.8-0.5-1.6-0.8-2.4c0.2,0.6-0.4,0.8-0.4,1.1c0,1.3-0.7,3.2-1.6,3c-0.7-1.1-1.4-2.3-1.9-3.3c-0.6-1.1-1.1-2.1-1.7-3
							c0-0.2,0.1-0.5,0-0.6c-0.4-0.5-0.9-1.1-1.1-1.3c0.2,0,0.3,0,0.6,0.1c0.2,0.1,0.5,0.2,0.7,0.4c0.5,0.3,0.9,0.7,1.4,1.1
							C639.1,347.9,640,349,641,349.8z"/>
						<path class="st35" d="M643.1,354.7c0.8,0.6,1.5,1.3,2.3,2.1c0,0.3,0,0.7,0,1c0.1,0,0.3,0,0.4-0.2l0.1,0.7
							c-0.1,0.3-0.5,0.6,0.1,1l0.1,1c-0.2,0.4-0.4,0.6-0.8,0.8l0.5,0c0.3,0.3,0,0.7,0,1c0.1,0,0.2,0,0.3,0c-0.2,0.8-0.2,1.7-0.2,2.4
							c0,0.8,0.1,1.5,0.1,1.7c-0.1,0.2-0.2,0.5-0.3,0.7c-1.2-0.9-2.3-1.9-3-3.3c0,0-0.5,0-0.7-0.2c-0.2-0.3-0.4-0.6-0.6-0.9
							c0.4-0.8,0.4-1.8,0.3-2.5c-0.1-0.7-0.4-1.3-0.4-1.3l-0.1-0.7c0-0.6,0.1-1.5,0.1-2.3c-0.1-0.8-0.4-1.6-1-1.8l-0.1-0.1l-0.2-0.2
							c0.9,0.1,1.6-1.7,1.6-3c-0.1-0.3,0-1.6,0.4-1.1c0.2,0.4,0.4,0.9,0.6,1.5c0.1,0.3,0.2,0.5,0.2,0.8c0.1,0.2,0.2,0.6,0.2,0.9
							C643.4,354,643.1,354.8,643.1,354.7z"/>
						<path class="st35" d="M614.8,378.5c-0.4-0.3-0.9-0.7-1.2-1.1c0.3,0.5,0.8,0.9,1.1,1c0.2,0.2,0.5,0.3,0.7,0.4
							C615.2,378.7,615,378.6,614.8,378.5z"/>
						<path class="st35" d="M615.9,378.6c0.1,0.1,0.3,0.1,0.4,0.1c0,0.1-0.4,0-0.6-0.1c0,0.1,0.3,0.1,0.3,0.1c0,0.1-0.2,0-0.4-0.1
							c0.1-0.1,0.3-0.1,0.6-0.1l0.3,0.1C616.3,378.7,616,378.6,615.9,378.6z"/>
						<path class="st35" d="M620.9,379.8c0.4,0.1,0.7,0.2,1.2,0.4c-0.5,0.4-1.1,0.7-1.6,0.9c-1.4-0.5-2.7-1.1-4-1.7
							c0.2,0.1,0.5,0.2,0.7,0.2c-0.3-0.1-0.6-0.2-0.8-0.4c0.1,0,0.1,0,0.2,0l0,0c0.2,0.1,0.4,0.2,0.4,0c0,0-0.3-0.1-0.3-0.1
							c0.3,0.1,0.6,0.2,0.6,0.1l-0.4-0.1c0.1,0,0.4,0,0.6,0c1.3,0.3,2.7,0.6,3.8,0.5C621.1,379.7,621,379.8,620.9,379.8z"/>
					</g>
				</g>
			</g>
		</g>
		<g class="st54">
			<g>
				<g class="st55">
					<g class="st55">
						<path class="st35" d="M611.2,351.1c0.7-1,1.5-1.8,2.3-2.6c-0.1,0.3-0.2,0.5-0.3,0.8C612.8,350,611.8,350.3,611.2,351.1z"/>
						<path class="st35" d="M609.5,353.9L609.5,353.9c0.4-0.9,0.9-1.7,1.4-2.5c0,0.1-0.1,0.1-0.1,0.2
							C610.5,352.5,610.2,353.3,609.5,353.9z"/>
						<path class="st35" d="M614.3,366.4c-1.4,0.1-2.9-0.6-4.2-2c-0.1-0.1-0.3-0.2-0.3-0.3c0,0-0.1-0.1-0.2-0.4
							c-0.1-0.2-0.3-0.6-0.4-0.9c0.8,0.1,1.7,0.2,2.6,0.3c0.1-0.3,0.1-0.9,0.4-1c1.2-0.2,2.1,0.1,2.9,0.8c0,0.1,0,0.3-0.1,0.8
							c0,0.2-0.1,0.5-0.2,0.8c0,0.1-0.1,0.3-0.1,0.5l-0.1,0.1C614.2,365.4,614.2,366,614.3,366.4z"/>
						<path class="st35" d="M615.3,368.5c0.4,0.6,1,1.6,1.3,1.9c-0.4,0.1-0.8,0.2-1.3,0.3c0.1,0.3,0.2,0.5,0.4,0.7l-0.3,0
							c-1.3-0.6-2.7-1.4-3.9-2.6c0.2,0,1,0,1.8,0C614.2,368.8,614.9,368.7,615.3,368.5z"/>
						<path class="st35" d="M614.2,366.9c0.1,0.2,0.3,0.3,0.5,0.5c0.2,0.4,0.4,0.8,0.6,1.2c-0.8,0.3-1.7,0.5-2.7,0.4
							c0.1,0.1-0.1,0.4-0.1,0.4c-0.5-0.2-0.7-0.6-1.1-0.5c-0.3-0.3-0.5-0.6-0.8-1c-0.2-0.4-0.5-0.8-0.6-1.2
							c-0.1-0.4-0.3-0.9-0.4-1.4c-0.1-0.4-0.1-1.2-0.1-1.1c0.1,0,0.1,0,0.2,0.1c0,0,0,0,0,0c0,0.1,0,0.1,0,0.2c0,0.2,0,0.4,0,0.6
							c0.3-0.2,0.3-0.5,0.3-0.8c1.3,1.4,2.8,2.1,4.2,2l0.1,0.2C614.2,366.7,614.1,366.8,614.2,366.9z"/>
						<path class="st35" d="M611.6,353.8c0.3,1.1,1.2,2.1,2.3,2.8c-0.2,0.1-0.5,0.4-0.3,0.7c-0.1,0.3-0.2,0.5-0.3,1.1
							c0,0-0.1,0.3-0.1,0.4c0,0,0,0.1-0.1,0.1l0,0l0,0c0,0,0,0,0,0c0,0,0.1,0.1,0.2,0.1c0.2,0-0.3,0-0.8-0.3c-0.2-0.5-0.5-0.8-0.8-1
							c-0.3-0.3-0.6-0.5-0.8-0.7c-0.6-0.2-1.1-0.7-1.4-1.2c0.1-0.1,0.4,0.1,0.5,0c-0.1,0-0.4-0.4-0.4-0.4s0.4-1,0.6-1.4
							c0.7,0.1,0.5-0.7,0.4-0.8c0.1-0.1,0.1-0.3,0.2-0.4l0,0c0.1,0.3,0.2,0.5,0.3,0.8C611.1,353.6,611.6,353.8,611.6,353.8z"/>
						<path class="st35" d="M612.2,362.1c1.2-0.2,2.1,0.1,2.9,0.8c0-0.3,0.1-1.1,0.1-1.2c-0.2,0.2-0.5,0.4-0.6,0.2
							c-0.2-0.4-0.5-0.8-0.6-1.1c0-0.4,0.3-0.8,0.4-1.2c-0.2-0.2-0.3-0.4-0.4-0.5c0,0-0.5,0-0.7,0c0-0.1,0.1-0.2,0.2-0.2
							c0,0-0.1,0-0.3-0.1c-0.1,0-0.2-0.1-0.3-0.1c0-0.1-0.1,0-0.2-0.2c0-0.1,0-0.3-0.1-0.4c-0.2-0.3-0.5-0.6-0.8-0.8
							c-0.3-0.2-0.6-0.4-0.9-0.5c-0.6-0.2-1.1-0.7-1.4-1.2c0,0,0,0.1-0.1,0.2c0,0.1-0.1,0.3-0.2,0.5c-0.1,0.4-0.2,0.9-0.3,1.1
							c0.1,0,0.4-0.1,0.5-0.2c0,0-0.1,0.2-0.3,0.3l-0.1,0l0,0l0,0c0,0,0,0,0,0l0.2,0c0.1,0,0.1,0,0.1,0c0.2,0,0.5,0.1,0.7,0.1
							c0.2,0.1,0.4,0.1,0.6,0.2l0.1,0.1l0.1,0l0,0l0,0l0,0l-1.9-0.7l0,0l0,0l0,0c0,0.1-0.1,0.1-0.1,0.2c-0.1,0.3-0.2,0.9-0.2,1.3
							c0,0.4,0,0.8,0.1,0.8c0,0.1,0.3-0.2,0.7-0.2c-0.4,0.6-0.6,1.2-0.6,1.7l0.1,0.4c-0.1,0.1-0.2,0.1-0.2,0.1
							c-0.1-0.1-0.1-0.1-0.2-0.2c0.1,0.3,0.3,1.2,0.3,1.4c0-0.2,0.1-0.5,0.2-0.8l0.2,0.7l0,0c0.8,0.1,1.7,0.2,2.6,0.3
							C611.9,362.7,611.9,362.1,612.2,362.1z"/>
						<path class="st35" d="M625.6,347.7c0.3,0.2,0.6,0.4,0.9,0.6c0.3,0.2,0.6,0.4,0.7,0.6c0.2,0.3,0.3,0.4,0.3,0.4
							c0,0,0,0.1,0.2,0.1c-1.1-0.3-2-0.2-3,0c-1,0.2-1.9,0.4-2.9,0.6c0.4-0.6,1.3-0.6,1.7-1.2c0-0.1-0.2-0.1-0.3-0.2
							c0.5-0.3,1.4-0.3,1.5-0.6c0-0.2-0.2-0.4-0.2-0.7l0.2,0.1C624.8,347.5,625.2,347.6,625.6,347.7z"/>
						<path class="st35" d="M621.2,346.6c0.5,0,1.1,0,1.7,0.1c0,0.1,0,0.2,0.1,0.2c-0.6-0.1-1.3-0.1-1.9-0.1
							C621.1,346.7,621.1,346.7,621.2,346.6z"/>
						<path class="st35" d="M623.2,348.6c0.1,0.1,0.3,0.1,0.3,0.2c-0.4,0.6-1.3,0.6-1.7,1.2c-0.7,0.2-1.5,0.4-2.2,0.7
							c0.1-0.1,0.2-0.3,0.3-0.4c-0.4,0.2-0.7-0.7-1.1-0.5c1-1.3,2.8-1.8,3.8-2.7c0.6,0,1.3,0.1,1.9,0.3c0.1,0.3,0.2,0.5,0.2,0.7
							C624.6,348.3,623.7,348.3,623.2,348.6z"/>
						<path class="st35" d="M618.7,349.7c0.4-0.1,0.7,0.7,1.1,0.5c-0.1,0.1-0.2,0.3-0.3,0.4c-0.8,0.3-1.7,0.7-2.4,1
							c-0.1,0-0.1,0-0.2,0c-0.2,0-0.2,0.1-0.3,0.1c0,0-0.1,0,0,0l0,0l0,0l0,0l0-0.1c-0.1-0.1-0.2-0.3-0.3-0.4
							c-0.1-0.1-0.2-0.3-0.3-0.4l-0.2-0.2l0,0l0,0l0,0l0,0l0,0c2.1,2.1,0.6,0.6,1,1.1l0,0l-0.1,0.1c-0.2,0.2-0.4,0.4-0.6,0.6
							c-0.2-0.7-0.4-1.5-0.4-2.2c1.1,0.3,2.1,0.7,3.1,0.6c-0.4,0-0.5-0.7-0.7-0.7c-0.8-0.5-2-1.8-1.9-2.6c1.5-0.5,3-0.8,4.5-0.8
							c0.1,0.1,0.3,0.3,0.4,0.3c0.4-0.1,0.8-0.1,1.3-0.1C621.5,347.9,619.7,348.4,618.7,349.7z"/>
						<path class="st35" d="M615.7,350.3c0,0.7,0.2,1.5,0.4,2.2c-0.1,0.1-0.2,0.2-0.4,0.3c0.1,0.1,0.2,0.2,0.3,0.2l-0.2,0.3
							c-0.1,0.1-0.6-0.2-0.2,0.4c-0.1,0.1-0.2,0.3-0.3,0.4c-0.2,0-0.5,0-0.9-0.1l0.4,0.3c0.2,0.3-0.2,0.3-0.2,0.4
							c0.1,0,0.2,0.1,0.3,0.2c-0.7,0.4-0.7,1.5-0.7,1.6c-0.1,0.1-0.2,0.1-0.3,0.2c-1.1-0.7-2-1.6-2.3-2.8c0,0-0.4-0.2-0.5-0.4
							c-0.1-0.3-0.2-0.5-0.3-0.8c0.7-0.3,1-0.8,1.2-1.3c0.2-0.5,0.3-0.9,0.3-0.9l0.3-0.4c0.3-0.3,0.9-0.6,1.4-0.9l0.2-0.1
							c0.1-0.1,0.3-0.2,0.4-0.3c0.2-0.1,0.2-0.1,0.3-0.2c0.1,0,0.2-0.1,0.2-0.1c0.3-0.2,0.5-0.4,0.7-0.7l0.4-0.1
							c-0.1,0.7,1.1,2.1,1.9,2.6c0.2,0.1,0.9,0.6,0.7,0.7c-0.5,0.1-1.3,0-1.9-0.2C616.2,350.5,615.7,350.3,615.7,350.3z"/>
						<path class="st35" d="M619.3,372.6c0.3,0.1,0.6,0.3,0.9,0.4C619.9,372.9,619.6,372.7,619.3,372.6c-0.1,0-0.2-0.1-0.4-0.1
							C619.1,372.5,619.2,372.6,619.3,372.6z"/>
						<path class="st35" d="M618.6,372.8l-0.3-0.1c0-0.1,0.2-0.1,0.4,0c0-0.1-0.2-0.1-0.2-0.1c0-0.1,0.1,0,0.3,0
							c-0.1,0.1-0.2,0.2-0.4,0.2l-0.2,0C618.4,372.7,618.5,372.8,618.6,372.8z"/>
						<path class="st35" d="M615.7,371.5c-0.2-0.2-0.3-0.4-0.4-0.7c0.5-0.1,0.9-0.2,1.3-0.3c0.5,0.6,1.2,1.2,1.8,1.6
							c-0.1-0.1-0.3-0.1-0.4-0.1c0.2,0.1,0.3,0.2,0.4,0.3c0,0-0.1,0-0.1,0l0,0c-0.1-0.1-0.2-0.1-0.3,0c0,0,0.2,0,0.2,0.1
							c-0.2-0.1-0.4-0.1-0.4,0l0.3,0.1c-0.1,0-0.2,0-0.4,0c-0.8-0.2-1.5-0.5-2.3-0.9L615.7,371.5z"/>
					</g>
				</g>
			</g>
		</g>
		<g class="st56">
			
				<linearGradient id="SVGID_00000059309840783075043130000011706408965543161755_" gradientUnits="userSpaceOnUse" x1="-2066.8557" y1="-3143.9175" x2="-2065.0647" y2="-3169.8699" gradientTransform="matrix(-0.2519 0.9677 -0.9677 -0.2519 -2968.175 1556.915)">
				<stop  offset="3.863114e-02" style="stop-color:#FFFFFF;stop-opacity:0"/>
				<stop  offset="0.2498" style="stop-color:#FFFFFF"/>
				<stop  offset="0.3159" style="stop-color:#E1E0E0;stop-opacity:0.9119"/>
				<stop  offset="0.4518" style="stop-color:#A8A6A6;stop-opacity:0.7307"/>
				<stop  offset="0.5833" style="stop-color:#787676;stop-opacity:0.5554"/>
				<stop  offset="0.7072" style="stop-color:#535051;stop-opacity:0.3904"/>
				<stop  offset="0.8214" style="stop-color:#393536;stop-opacity:0.2381"/>
				<stop  offset="0.9225" style="stop-color:#292526;stop-opacity:0.1033"/>
				<stop  offset="1" style="stop-color:#231F20;stop-opacity:0"/>
			</linearGradient>
			<path style="fill:url(#SVGID_00000059309840783075043130000011706408965543161755_);" d="M617.2,340.6c-1.6,0.3-6.5,2.2-9.2,5
				c-2.9,3-4.9,8.6-5.3,14.1c-0.1,1.1,0.4,6.4,1.4,7.8c2.1,3.2,1.5-4.6,1.7-8.1c0.4-7,2.9-9.7,4.5-11.2
				C613.7,344.9,622.6,339.5,617.2,340.6z"/>
		</g>
		<g class="st56">
			
				<linearGradient id="SVGID_00000162347465272354692220000005397227451456259215_" gradientUnits="userSpaceOnUse" x1="-1438.7238" y1="-3028.4277" x2="-1437.3324" y2="-3048.5874" gradientTransform="matrix(-4.612837e-02 0.9989 -0.9989 -4.612837e-02 -2488.7632 1654.7461)">
				<stop  offset="3.863114e-02" style="stop-color:#FFFFFF;stop-opacity:0"/>
				<stop  offset="0.2413" style="stop-color:#FFFFFF"/>
				<stop  offset="0.2914" style="stop-color:#E1E0E0;stop-opacity:0.9119"/>
				<stop  offset="0.3944" style="stop-color:#A8A6A6;stop-opacity:0.7307"/>
				<stop  offset="0.4941" style="stop-color:#787676;stop-opacity:0.5554"/>
				<stop  offset="0.5879" style="stop-color:#535051;stop-opacity:0.3904"/>
				<stop  offset="0.6744" style="stop-color:#393536;stop-opacity:0.2381"/>
				<stop  offset="0.7511" style="stop-color:#292526;stop-opacity:0.1033"/>
				<stop  offset="0.8098" style="stop-color:#231F20;stop-opacity:0"/>
			</linearGradient>
			<path style="fill:url(#SVGID_00000162347465272354692220000005397227451456259215_);" d="M618.5,349.5c-1.6,0.1-3.2-0.2-5.6,2.8
				c-1.3,1.6-3.2,4.9-2.4,10.3c0.6,4.2,4.9,7.1,4.8,5.4c-0.1-2.1-2.6-3.1-3.1-6.6c-0.5-3.9,0.5-6.9,1.8-8.7
				C616.7,348.6,621.4,349.3,618.5,349.5z"/>
		</g>
		<path class="st59" d="M615.5,340.8c-7.1,2.2-10.1,6.7-11.6,11.1c-1.5,4.5-2.7,9.4-0.8,15.2c1.9,5.8,4.8,9.5,9.9,12.1
			c5.1,2.6,7.6,2.9,13,1.8c5.4-1.1,14.2-4.9,17-11.1c2.8-6.2,2.8-15.3-2.6-23S622.8,338.6,615.5,340.8z"/>
		<g class="st54">
			<g>
				<g class="st55">
					<g class="st55">
						<path class="st35" d="M632.9,367.4c0.3-0.4,0.6-0.8,0.8-1.3c0,0.1,0,0.3,0,0.4C633.7,366.9,633.2,367.1,632.9,367.4z"/>
						<path class="st35" d="M631.9,368.4L631.9,368.4c0.3-0.3,0.6-0.5,0.8-0.8c0,0,0,0,0,0.1C632.6,368,632.3,368.3,631.9,368.4z"/>
						<path class="st35" d="M626.7,374.1c0.4-0.8,0.5-1.6,0.6-2.5c0.1-0.1,0.2-0.3,0.3-0.3c0,0,0.6-0.5,1-0.7c0,0.4,0,0.9,0,1.4
							c0.2,0,0.5-0.1,0.6,0c0.2,0.6,0.1,1.1-0.1,1.5c-0.1,0-0.5,0.1-0.9,0.2C627.8,373.7,627.2,373.9,626.7,374.1z"/>
						<path class="st35" d="M624.8,374.2c-0.5,0-1.2-0.1-1.5-0.1c0.1-0.2,0.3-0.4,0.4-0.6c-0.2,0-0.3-0.1-0.5-0.1l0.1-0.1
							c0.8-0.3,1.5-0.6,2.4-0.9C625.7,372.6,624.9,373.8,624.8,374.2z"/>
						<path class="st35" d="M626.2,374l-0.2,0l-0.1,0l-0.2,0.1c-0.3,0-0.6,0-1,0c0.2-0.4,0.4-0.9,0.7-1.3c-0.1,0-0.1-0.1-0.2-0.1
							c0.2-0.2,0.4-0.2,0.5-0.4c0.3-0.1,0.4-0.2,0.7-0.4c0.3-0.2,0.6-0.5,0.9-0.7c-0.1,0.2-0.2,0.2-0.4,0.3c0.1,0.1,0.3,0.1,0.3,0
							c-0.2,0.9-0.2,1.7-0.6,2.5l-0.2,0C626.4,374.1,626.3,374,626.2,374z"/>
						<path class="st35" d="M632.9,368.8c0,0.6,0.1,1.2,0.2,1.9c-0.2,0-0.5,0.1-0.6,0.3c-0.3,0.2-1.1,0.5-1.1,0.7
							c0,0.3,0.3-1.2,0.2-1.8c-0.2-0.3-0.2-0.6-0.1-0.9c0.1,0,0.1,0.2,0.2,0.2c0,0-0.1-0.3-0.1-0.3s0.4-0.3,0.5-0.4
							c0.3,0.2,0.3-0.2,0.3-0.3l0.1-0.1l0,0c0,0.1,0,0.3,0,0.4C632.7,368.6,632.9,368.8,632.9,368.8z"/>
						<path class="st35" d="M629.2,371.9c0.2,0.6,0.1,1.1-0.1,1.5c0.1,0,0.5-0.1,0.5-0.1c-0.1-0.1-0.2-0.2-0.2-0.3
							c0.2-0.2,0.4-0.4,0.5-0.4c0.2-0.1,0.5,0,0.8,0c0.1-0.1,0.3-0.3,0.4-0.4c0,0,0-0.3-0.1-0.3c0.1-0.1,0.2-0.1,0.4-0.1
							c0,0,0.5-1.3,0.2-1.8c-0.2-0.3-0.2-0.6-0.1-0.9c0,0-0.5,0.3-0.7,0.4c0,0,0.2,0.1,0.2,0.1c0,0-0.4,0-0.5,0
							c-0.2,0.1-0.5,0.3-0.6,0.3c0,0,0.1,0.1,0.2,0.3c-0.3-0.1-0.6-0.1-0.8,0l-0.2,0.1c0,0-0.1-0.1-0.1-0.1c0,0,0.1-0.1,0.1-0.1
							c-0.1,0.1-0.6,0.3-0.7,0.3c0.1,0,0.3,0,0.5,0c-0.1,0.1-0.3,0.1-0.4,0.2l0,0c0,0.4,0,0.9,0,1.4
							C628.8,371.9,629.1,371.8,629.2,371.9z"/>
						<path class="st35" d="M636.4,360.8c0.2-0.3,0.4-0.7,0.5-1c0.2-0.4,0.1-0.2,0.1-0.4c0.3,1.3,0.1,2.6-0.1,3.9
							c-0.2-0.4,0-0.9-0.2-1.2c0,0-0.1,0.1-0.1,0.1c-0.1-0.3,0-0.9-0.1-0.9c-0.1,0-0.2,0.1-0.4,0.1l0-0.1
							C636.3,361.2,636.3,361,636.4,360.8z"/>
						<path class="st35" d="M635.3,362.9c0.1-0.3,0.2-0.5,0.3-0.8c0,0,0.1,0,0.1,0c-0.1,0.3-0.3,0.6-0.4,1
							C635.4,363,635.3,363,635.3,362.9z"/>
						<path class="st35" d="M636.6,362.2c0.1,0,0.1-0.1,0.1-0.1c0.2,0.3,0.1,0.9,0.2,1.2c-0.1,0.5-0.2,1-0.3,1.5
							c0-0.1-0.1-0.2-0.1-0.3c-0.1,0.3-0.5,0.2-0.6,0.5c-0.2-0.9,0-2-0.3-2.6c0.1-0.3,0.2-0.7,0.4-1c0.1,0,0.3-0.1,0.4-0.1
							C636.6,361.3,636.6,361.9,636.6,362.2z"/>
						<path class="st35" d="M636,365c0.1-0.3,0.5-0.2,0.6-0.5c0,0.1,0.1,0.2,0.1,0.3c-0.1,0.6-0.3,1.2-0.5,1.7c0,0,0,0.1-0.1,0.1
							c-0.2,0.4-0.4,0.8-0.6,1.1c-0.1-0.4-0.3-0.8-0.4-1.2c0.6-0.3,1.1-0.7,1.5-1.3c-0.1,0.2-0.4,0-0.5,0.1
							c-0.5,0.3-1.4,0.2-1.6-0.1c0.3-0.7,0.6-1.5,0.9-2.2c0.1,0,0.2-0.1,0.2-0.1c0.1-0.2,0.1-0.5,0.2-0.7
							C636.1,363,635.9,364.1,636,365z"/>
						<path class="st35" d="M635.1,366.6c0.1,0.4,0.3,0.8,0.4,1.2c-0.1,0.1-0.1,0.2-0.2,0.3c0.1,0,0.1,0.1,0.2,0.1l-0.1,0.2
							c-0.1,0.1-0.3,0-0.2,0.3l-0.2,0.3c-0.1,0-0.3,0-0.5,0l0.2,0.2c0,0.2-0.2,0.2-0.2,0.3c0,0,0.1,0.1,0.1,0.1
							c-0.5,0.3-1,1-1.1,1.1c-0.1,0-0.2,0-0.3,0.1c-0.2-0.7-0.3-1.3-0.2-1.9c0,0-0.2-0.2-0.2-0.3c0-0.1,0-0.3,0-0.4
							c0.3-0.1,0.5-0.3,0.6-0.5c0.1-0.2,0.1-0.4,0.1-0.4l0.1-0.2c0.3-0.3,1-0.7,0.8-1.4l0.1-0.2c0.2,0.3,1.1,0.3,1.6,0.1
							c0.1-0.1,0.6-0.3,0.5-0.1c-0.1,0.3-0.5,0.7-0.8,0.9C635.4,366.5,635.1,366.6,635.1,366.6z"/>
						<path class="st35" d="M621.2,374c-0.2,0-0.4,0-0.5-0.1C620.8,374.1,621,374,621.2,374c0,0,0.1,0,0.3,0
							C621.3,374,621.2,374,621.2,374z"/>
						<path class="st35" d="M621.5,373.8l0.2,0C621.7,373.8,621.6,373.9,621.5,373.8C621.5,373.9,621.6,373.8,621.5,373.8
							c0.1,0.1,0,0.1-0.1,0.1C621.4,373.9,621.5,373.8,621.5,373.8l0.2-0.1C621.6,373.8,621.5,373.8,621.5,373.8z"/>
						<path class="st35" d="M623.3,373.4c0.2,0,0.3,0,0.5,0.1c-0.2,0.2-0.3,0.4-0.4,0.6c-0.5,0-1,0-1.5,0c0.1,0,0.2,0,0.2-0.1
							c-0.1,0-0.2,0-0.3,0c0,0,0,0,0,0l0,0c0.1,0,0.1,0,0.1-0.1c0,0-0.1,0-0.1,0c0.1,0,0.2-0.1,0.2-0.1l-0.2,0c0,0,0.1-0.1,0.2-0.1
							c0.5-0.1,0.9-0.3,1.3-0.4L623.3,373.4z"/>
					</g>
				</g>
			</g>
		</g>
		<path class="st60" d="M628.5,353.7v15.4h-4.2v-6.5h-1.3v6.5h-4.2v-15.4h4.2v5.5h1.3v-5.5H628.5z"/>
	</g>
	<line class="st52" x1="468.1" y1="347.7" x2="468.1" y2="368.4"/>
	<line class="st61" x1="467.7" y1="358" x2="581.7" y2="358"/>
</g>
</svg>
