<svg width="24" height="24" viewBox="0 0 24 24" fill="none" xmlns="http://www.w3.org/2000/svg">
<g clip-path="url(#clip0_5470_315)">
<path d="M12.3037 5.00852C12.1415 4.84994 11.982 4.69942 11.8336 4.55966C11.7153 4.44946 11.6054 4.34464 11.5037 4.24519C10.382 3.1647 8.53184 2.92011 7.62462 3.02224C6.14009 3.1862 4.61981 3.47379 3.5449 4.47365C1.52428 6.35242 1.68373 9.48907 2.88785 11.6151C3.8528 13.3192 5.11466 14.4319 6.52496 14.8539C6.52496 14.7168 6.55246 14.5824 6.61019 14.4534C5.31809 14.0529 4.15521 13.0101 3.25074 11.4189C2.12359 9.42725 1.96139 6.50562 3.83356 4.76662C4.81775 3.85008 6.26105 3.5813 7.67136 3.42541C7.78132 3.41197 7.90503 3.4066 8.03699 3.4066C8.96895 3.4066 10.3655 3.72107 11.2095 4.53278C11.3112 4.63223 11.4239 4.73705 11.5421 4.84994C11.6878 4.98971 11.8473 5.14022 12.0095 5.2988C12.0837 5.18591 12.1827 5.08647 12.3009 5.00852H12.3037Z" fill="currentColor"/>
<path d="M10.3189 7.96974C10.4041 7.37305 10.6241 6.77636 10.9567 6.28181C11.0117 6.20117 11.0749 6.13129 11.1409 6.06678C11.1849 6.01034 11.2316 5.95658 11.2866 5.91089C10.8962 5.45665 9.9945 4.57775 8.63643 4.3466C8.5512 4.33316 6.56632 4.34122 6.14846 5.06961C5.93402 5.44322 6.03024 5.4029 6.22268 6.54252C6.35739 7.33005 6.47285 8.0235 6.21718 8.66857C5.78832 9.75175 4.7299 9.6523 4.45498 10.4801C4.12509 11.4639 5.62887 13.0524 6.92371 13.5415C6.9567 13.555 6.99244 13.563 7.02818 13.5738C7.27835 12.3105 8.49347 11.3322 9.76358 10.8484C9.80481 10.8054 9.8433 10.7624 9.88179 10.7194C9.86255 10.636 9.85155 10.5473 9.85155 10.4533C9.85705 9.63886 9.92303 8.71963 10.3134 7.97512L10.3189 7.96974Z" fill="currentColor"/>
<path d="M21.2082 8.08798C21.9065 10.1979 21.6976 13.0228 20.0783 14.7456C20.1333 14.915 20.1498 15.0977 20.1306 15.2778C22.0907 13.4662 22.3766 10.2947 21.6041 7.96434C20.7491 5.38674 19.2426 3.81707 17.3594 3.54292C15.0144 3.20157 11.4488 4.72017 10.5443 6.44036C9.71408 8.01809 9.73882 9.81891 9.90102 10.7919C10.011 10.679 10.1429 10.5849 10.2859 10.5177C10.1869 9.72215 10.1265 8.12292 10.9127 6.62582C11.7182 5.09109 14.6735 3.90308 16.6914 3.90308C16.9031 3.90308 17.1065 3.91652 17.2962 3.9434C19.0144 4.19337 20.4027 5.66628 21.2055 8.08798H21.2082Z" fill="currentColor"/>
<path d="M19.1216 7.11499C18.8825 6.74139 18.0412 5.41899 17.2192 5.54801C16.6502 5.63671 16.6639 6.33822 15.7017 7.30314C15.4268 7.57998 14.6021 8.40513 13.3924 8.70348C12.2735 8.98032 11.7979 8.5664 11.4103 8.95882C11.1189 9.25447 11.0777 9.80547 11.2014 10.386C11.3333 10.3215 11.479 10.2812 11.6385 10.2705C11.7649 10.2463 11.8969 10.2301 12.0289 10.214C13.4447 9.78666 14.9347 10.0366 16.3972 10.3484C16.5952 10.3914 16.7519 10.4667 16.8756 10.5688C17.8103 10.8053 18.7203 11.2488 19.2399 12.0444C19.4433 12.1922 19.5753 12.4073 19.6357 12.6411C19.7897 12.5067 19.9326 12.3508 20.0536 12.168C21.244 10.3565 19.4955 7.70631 19.1189 7.11768L19.1216 7.11499Z" fill="currentColor"/>
<path d="M13.6674 22C12.477 22 11.2756 21.7097 10.2117 21.113C8.43574 20.1159 7.11615 18.264 6.68729 16.1541C6.37938 14.6516 6.59932 13.2889 7.2866 12.4154C8.15258 11.316 9.63437 10.0232 13.4529 9.75982C16.1526 9.57167 17.978 10.636 18.8247 11.2865C19.7237 11.9772 20.3038 13.3131 20.378 14.8586C20.477 16.9335 19.6935 18.9548 18.2804 20.2664C17.0516 21.4087 15.3691 22.0027 13.6674 22.0027V22ZM7.61375 12.6599C6.99794 13.4421 6.80825 14.6839 7.09141 16.0734C7.49829 18.0705 8.7409 19.8202 10.4151 20.7609C12.8454 22.1237 16.0316 21.7904 17.9918 19.9707C19.3168 18.7397 20.0536 16.8341 19.9601 14.8747C19.8914 13.4448 19.3718 12.2218 18.5663 11.6036C17.7691 10.9881 16.0426 9.9829 13.4804 10.163C9.82681 10.4156 8.42475 11.6305 7.61375 12.6626V12.6599Z" fill="currentColor"/>
<path d="M13.0103 11.6789C13.0103 11.6789 12.2296 12.1412 12.2818 12.5658C12.334 12.9905 12.7464 13.4447 13.8323 13.2432C14.9155 13.0416 15.1739 12.4341 14.866 12.031C14.5581 11.6278 13.4997 11.2918 13.0131 11.6789H13.0103Z" fill="currentColor"/>
<path d="M5.26598 7.27092C5.26598 7.27092 5.12853 6.55059 4.77664 6.46458C4.42475 6.37857 3.94639 6.55328 3.78694 7.42681C3.62749 8.30034 3.98488 9.13625 4.3945 9.02336C4.80413 8.91047 5.42818 7.75204 5.26323 7.27361L5.26598 7.27092Z" fill="currentColor"/>
<path d="M10.69 13.52C10.69 13.52 12.2268 14.622 13.8955 14.3989C15.5643 14.1732 15.6962 12.3562 16.8371 12.7244C17.978 13.0927 18.7698 15.208 18.3299 17.0061C17.89 18.8042 16.1636 20.6507 14.3491 20.6507C12.5347 20.6507 9.46666 19.7127 8.94158 17.463C8.41374 15.2133 8.29278 13.7243 9.12577 13.4071C9.95876 13.09 10.0495 13.1491 10.69 13.5173V13.52Z" fill="currentColor"/>
<path d="M12.8069 7.02094C12.7711 7.17684 12.7381 7.34079 12.7656 7.49668C12.7931 7.65257 12.8948 7.81115 13.0516 7.85953C13.244 7.92135 13.4502 7.80847 13.5904 7.66601C13.7306 7.52356 13.8323 7.34617 13.989 7.22253C14.2832 6.98869 14.745 6.94837 14.921 6.62046C15.0529 6.37587 14.9457 6.05065 14.7203 5.8867C14.4948 5.72274 14.1787 5.70661 13.912 5.80069C13.3292 6.00496 12.9416 6.44038 12.8069 7.01826V7.02094Z" fill="currentColor"/>
</g>
<defs>
<clipPath id="clip0_5470_315">
<rect width="20" height="19" fill="currentColor" transform="translate(2 3)"/>
</clipPath>
</defs>
</svg>
