<svg width="55" height="55" viewBox="0 0 55 55" fill="none" xmlns="http://www.w3.org/2000/svg">
<g clip-path="url(#clip0_7904_101005)">
<path d="M26.9204 29.9467C26.9204 29.9467 27.3146 29.8844 27.6467 30.0297C27.9787 30.1749 27.8957 33.8687 27.8542 34.2837C27.8127 34.6987 27.8957 37.0851 27.8957 38.1227C27.8957 39.1603 28.1032 40.0111 28.2069 40.7166C28.3107 41.4222 27.8334 43.0823 27.8542 44.3066C27.8749 45.5309 28.2484 47.44 28.2484 47.44C28.4767 48.8926 28.5805 49.8057 28.2899 51.8393C27.9994 53.8729 28.2692 54.4125 28.539 54.786C28.8087 55.1595 30.7179 54.952 31.1951 54.8483C31.6724 54.7445 31.4026 54.454 31.4026 54.3087C31.4026 54.1635 30.9046 53.9767 30.6971 53.6862C30.4896 53.3957 30.3651 52.8769 30.3651 52.8769C30.3651 52.2336 30.1991 51.5903 30.1783 50.8848C30.1576 49.4737 30.9046 46.8175 31.1951 45.1574C31.4857 43.4973 31.1951 42.1484 31.1536 40.4261C31.1121 38.7037 31.5479 36.0683 31.8177 35.2383C32.0874 34.4082 32.1912 33.7857 32.5232 31.42C32.8552 29.0544 31.9007 24.1778 31.8799 23.6175C31.8592 23.0572 31.9837 23.2647 31.9214 22.2894C31.8592 21.3141 31.6309 20.6086 31.5272 20.2143C31.4234 19.82 31.3819 18.5542 31.3819 18.0354C31.3819 17.5166 31.8177 14.2172 31.8177 14.2172C31.8177 14.2172 32.0667 14.4039 32.1497 14.5284C32.2327 14.6529 32.2327 15.566 32.3572 15.981C32.4817 16.3961 32.8967 17.4129 33.1665 18.0147C33.4363 18.6164 33.5815 19.6125 33.5815 19.6125C33.6645 20.1105 33.7475 21.0236 34.3493 21.9989C35.3662 23.659 36.1755 25.9832 36.3207 26.1077C36.466 26.2322 36.466 27.581 36.466 27.581C36.466 27.581 35.8227 28.6601 35.7604 29.0959C35.6982 29.5316 35.7812 29.5316 36.0094 29.3449C36.1962 29.1996 36.6735 28.7223 36.6735 28.7223C36.6735 28.7223 36.8187 28.9506 36.8602 29.2619C36.9017 29.5731 36.5282 30.0504 36.5075 30.3617C36.3622 31.5445 36.632 31.5238 36.9017 31.3785C37.1715 31.2333 37.2545 30.6107 37.296 30.4862C37.3375 30.3617 37.5865 28.6601 37.5658 28.1206C37.545 27.581 37.5035 26.585 37.3998 26.1284C37.296 25.6719 36.8395 23.161 36.8395 23.161C36.8395 23.161 36.5282 20.6916 36.3415 19.9653C36.1547 19.239 35.1171 17.2884 34.9511 16.8111C34.7851 16.3338 34.3908 14.6529 34.3908 14.6529L34.2871 11.7685C34.2871 11.7685 34.0173 9.56887 33.0628 9.15384C32.1082 8.73881 30.3028 7.82576 29.6803 7.722C29.0577 7.61824 28.954 7.01645 28.954 7.01645C28.9125 6.68443 29.2238 5.56386 29.3068 5.21109C29.3898 4.85832 29.452 4.98282 29.5973 4.94132C29.7425 4.89982 29.867 4.33953 29.9501 3.92451C30.0331 3.50948 29.7633 3.23971 29.7633 3.23971C29.8255 -0.101251 27.5222 0.0855111 27.5222 0.0855111L27.0449 0.00250591C27.0449 0.00250591 24.7622 -0.205008 24.8037 3.15671C24.8037 3.15671 24.5547 3.42647 24.617 3.8415C24.6792 4.25653 24.8037 4.81681 24.9697 4.85832C25.1357 4.89982 25.1565 4.79606 25.2603 5.12808C25.364 5.4601 25.6753 6.60143 25.613 6.93345C25.613 6.93345 25.5093 7.53524 24.8867 7.63899C24.2642 7.74275 22.4588 8.65581 21.5043 9.07084C20.5497 9.48586 20.2799 11.6855 20.2799 11.6855L20.1762 14.5699C20.1762 14.5699 19.7819 16.2715 19.6159 16.7281C19.4499 17.1846 18.4123 19.1145 18.2256 19.8823C18.0388 20.6501 17.7275 23.078 17.7275 23.078C17.7275 23.078 17.271 25.6096 17.1672 26.0454C17.0635 26.4812 17.022 27.4773 17.0012 28.0375C16.9805 28.5978 17.2295 30.2787 17.271 30.4032C17.3125 30.5277 17.3748 31.171 17.6653 31.2955C17.9558 31.42 18.2048 31.4615 18.0595 30.2787C18.018 29.9882 17.6653 29.4901 17.7068 29.1789C17.7483 28.8676 17.8935 28.6393 17.8935 28.6393C17.8935 28.6393 18.3708 29.1166 18.5576 29.2619C18.7858 29.4279 18.8896 29.4486 18.8066 29.0129C18.7236 28.5771 18.101 27.498 18.101 27.498C18.101 27.498 18.101 26.1492 18.2463 26.0247C18.3916 25.9002 19.2216 23.576 20.2177 21.9159C20.8195 20.9406 20.8817 20.0483 20.9855 19.5295C20.9855 19.5295 21.11 18.5542 21.4005 17.9317C21.691 17.3091 22.1061 16.313 22.2098 15.898C22.3136 15.483 22.3343 14.5699 22.4173 14.4454C22.5003 14.3209 22.7493 14.1342 22.7493 14.1342C22.7493 14.1342 23.2059 17.4129 23.1851 17.9524C23.1644 18.4919 23.1436 19.737 23.0399 20.1313C22.9361 20.5256 22.6871 21.2311 22.6456 22.2064C22.6041 23.1817 22.7286 22.9742 22.6871 23.5345C22.6456 24.0948 21.7118 28.9921 22.0438 31.337C22.3758 33.6819 22.4796 34.346 22.7493 35.1553C23.0191 35.9646 23.4964 38.6207 23.4134 40.3431C23.3304 42.0654 23.0814 43.4143 23.3719 45.0744C23.6624 46.7345 24.4095 49.3907 24.3887 50.8018C24.3887 51.5073 24.2227 52.1506 24.2019 52.7939C24.2019 52.7939 24.0774 53.3127 23.8699 53.6032C23.6624 53.8937 23.1644 54.0805 23.1644 54.2257C23.1644 54.371 22.8946 54.6823 23.3719 54.7653C23.8492 54.8483 25.7583 55.0558 26.0281 54.703C26.2978 54.3502 26.5676 53.8107 26.2771 51.7563C25.9866 49.7019 26.0903 48.8096 26.3186 47.357C26.3186 47.357 26.6921 45.4479 26.7128 44.2236C26.7336 42.9993 26.2356 41.3391 26.3601 40.6336C26.4846 39.9281 26.6713 39.0773 26.6713 38.0397C26.6713 37.0021 26.7544 34.6365 26.7128 34.2007C26.6713 33.7649 26.5883 30.0712 26.9204 29.9467C27.2524 29.8222 27.0481 29.6154 27.0481 29.6154L26.9204 29.9467Z" fill="currentColor"/>
</g>
<defs>
<clipPath id="clip0_7904_101005">
<rect width="55" height="55" fill="currentColor"/>
</clipPath>
</defs>
</svg>
