<svg width="24" height="24" viewBox="0 0 24 24" fill="none" xmlns="http://www.w3.org/2000/svg">
<g clip-path="url(#clip0_5471_355)">
<path d="M16.2316 12.3302C16.2316 12.3302 16.2112 12.293 16.1941 12.276C16.1022 12.1677 16.0068 12.0627 15.9149 11.9543C15.8604 11.8933 15.8127 11.8358 15.7888 11.7579C15.7786 11.7105 15.7718 11.6597 15.8536 11.6935C15.8978 11.7139 15.9455 11.7274 15.9966 11.7376C16.0443 11.7477 16.0954 11.7376 16.1226 11.6935C16.1499 11.6461 16.1056 11.6123 16.0681 11.592C15.9046 11.4734 15.7309 11.3921 15.5266 11.3515C15.4381 11.3346 15.3734 11.2872 15.3257 11.2059C15.2439 11.0535 15.1826 10.8909 15.1179 10.7318C14.9544 10.3186 14.7365 9.93257 14.4947 9.55667C14.43 9.45508 14.3755 9.34333 14.3516 9.22141C14.304 8.94372 14.2597 8.66603 14.1814 8.40188C14.1064 8.13097 14.0622 7.8465 13.9634 7.58236C13.8885 7.37578 13.7556 7.23355 13.5411 7.18614C13.4253 7.15905 13.3129 7.13195 13.1971 7.10486C13.0268 7.06084 12.8599 7.02359 12.7067 6.93215C12.642 6.8949 12.5705 6.85765 12.5466 6.77976C12.4717 6.52577 12.5671 6.30227 12.6931 6.08892C12.768 5.96362 12.8123 5.82816 12.7305 5.75366C12.676 5.69947 12.6658 5.64529 12.6692 5.58094C12.6794 5.40146 12.6215 5.24568 12.5432 5.07975C12.39 4.74787 11.9983 4.72078 11.7361 4.82576C11.4568 4.93413 11.4023 5.20166 11.3376 5.45565C11.3103 5.55385 11.3546 5.66899 11.2831 5.75366C11.2116 5.83493 11.2082 5.91621 11.2559 5.99748C11.3751 6.20406 11.4908 6.40386 11.4738 6.66123C11.467 6.78653 11.4193 6.86781 11.3103 6.91183C11.1196 6.99311 10.9289 7.071 10.7246 7.10825C10.3465 7.17259 10.0979 7.36901 9.99234 7.75507C9.89017 8.16144 9.76756 8.57121 9.69604 8.98775C9.65177 9.26544 9.57684 9.51942 9.40656 9.75309C9.29757 9.90548 9.21584 10.0748 9.12729 10.2374C8.97403 10.5252 8.85483 10.8334 8.72882 11.1382C8.68455 11.2465 8.60962 11.3278 8.49383 11.3515C8.28608 11.3888 8.11239 11.487 7.94892 11.6021C7.90464 11.6292 7.85696 11.6563 7.88421 11.7206C7.91826 11.7816 7.97276 11.7816 8.02725 11.7647C8.07493 11.7477 8.11579 11.7173 8.16347 11.7003C8.22478 11.6732 8.24521 11.7003 8.22818 11.7613C8.19413 11.8629 8.13963 11.9509 8.0579 12.022C7.96594 12.1101 7.88421 12.2083 7.80588 12.3099C7.78544 12.3437 7.74117 12.3844 7.77863 12.425C7.8229 12.469 7.86718 12.425 7.89783 12.3979C7.96254 12.3438 8.01703 12.2828 8.07833 12.2252C8.10558 12.1981 8.13964 12.1439 8.18732 12.1812C8.22478 12.2083 8.18731 12.2523 8.1771 12.2896C8.1158 12.4081 8.0579 12.53 7.9966 12.6485C7.97616 12.6858 7.97957 12.7196 8.01703 12.74C8.05449 12.7671 8.07152 12.7298 8.08174 12.7061C8.14645 12.6181 8.21456 12.5198 8.27246 12.4352C8.29289 12.4081 8.2997 12.3539 8.34398 12.3742C8.38825 12.3945 8.35419 12.4386 8.34398 12.4657C8.33717 12.486 8.32354 12.5097 8.31673 12.5368C8.28949 12.6113 8.26224 12.6824 8.25543 12.7637C8.25543 12.7908 8.25543 12.8179 8.28267 12.828C8.30992 12.8382 8.33035 12.8111 8.34398 12.7908C8.37803 12.7264 8.40528 12.6485 8.43593 12.5842C8.46999 12.5198 8.46999 12.4386 8.55513 12.3878C8.58919 12.4623 8.54491 12.5131 8.52789 12.574C8.51767 12.6181 8.5381 12.6485 8.57216 12.6621C8.60962 12.6722 8.63346 12.6451 8.64368 12.6147C8.6539 12.5774 8.66411 12.5402 8.67092 12.4995C8.73563 12.2388 8.86846 12.0051 8.9536 11.7511C9.01831 11.5615 9.12388 11.3921 9.24989 11.2364C9.50192 10.9214 9.76756 10.6234 9.96169 10.2645C10.1626 9.88855 10.3602 9.50926 10.5236 9.11982C10.5338 9.09273 10.5338 9.03177 10.5849 9.04532C10.6224 9.05548 10.619 9.0995 10.6224 9.13675C10.6428 9.34333 10.6939 9.54313 10.7143 9.7497C10.7348 9.94612 10.7246 10.1358 10.6973 10.3254C10.6633 10.5388 10.5815 10.7386 10.5338 10.9485C10.4623 11.2736 10.3976 11.6055 10.292 11.9272C10.2035 12.1947 10.1592 12.469 10.1456 12.7467C10.1286 13.0007 10.1286 13.2581 10.1558 13.5121C10.1899 13.827 10.2444 14.142 10.3193 14.4535C10.384 14.7075 10.4215 14.9649 10.3942 15.2189C10.3738 15.4085 10.3602 15.5982 10.3465 15.7844C10.3023 16.2416 10.3125 16.7022 10.3636 17.1593C10.401 17.5285 10.4657 17.8976 10.4521 18.2735C10.4419 18.5342 10.3499 18.7679 10.2375 18.9948C10.2001 19.0761 10.2171 19.1099 10.275 19.1404C10.3227 19.1675 10.384 19.1844 10.4385 19.1878C10.5202 19.1946 10.602 19.2048 10.6837 19.2319C10.8301 19.2793 10.9527 19.1709 10.9459 19.0185C10.9459 18.9813 10.9357 18.944 10.9255 18.9C10.9187 18.8661 10.9153 18.8356 10.9527 18.8119C11.106 18.7205 11.123 18.585 11.0856 18.4259C11.0754 18.3818 11.0856 18.3378 11.0754 18.2972C11.0481 18.199 11.1196 18.1008 11.0685 18.0161C11.0311 17.9518 11.0311 17.8806 11.0413 17.8163C11.0788 17.5623 11.1162 17.3049 11.1741 17.051C11.2456 16.7089 11.3206 16.3669 11.3069 16.0147C11.3069 15.9063 11.3342 15.8013 11.3614 15.693C11.4261 15.4525 11.4977 15.2155 11.5079 14.9581C11.5079 14.8328 11.5079 14.7075 11.5419 14.5822C11.6577 14.1217 11.811 13.6679 11.8757 13.1971C11.8927 13.082 11.8757 12.9635 11.9302 12.8551C11.9404 12.828 11.9404 12.7942 11.9779 12.7908C12.0221 12.7908 12.0221 12.828 12.0324 12.8551C12.0426 12.8754 12.0426 12.8991 12.0426 12.9195C12.0426 13.2784 12.1345 13.6205 12.1856 13.9726C12.2333 14.2944 12.2844 14.6195 12.3287 14.9412C12.3627 15.1647 12.4104 15.3882 12.4649 15.6049C12.5126 15.7912 12.5636 15.9673 12.5398 16.1603C12.5228 16.3127 12.5568 16.4583 12.5739 16.6107C12.6113 16.9155 12.7339 17.1966 12.7441 17.5081C12.7544 17.8129 12.7986 18.1177 12.7816 18.4259C12.7816 18.5275 12.7918 18.6324 12.8531 18.7137C12.9076 18.7882 12.9178 18.856 12.8906 18.9406C12.8565 19.0591 12.9791 19.2217 13.0983 19.2352C13.2346 19.2454 13.3674 19.2251 13.49 19.1878C13.582 19.1607 13.6092 19.0625 13.5615 18.9813C13.4457 18.7848 13.3912 18.5749 13.381 18.3514C13.381 18.2904 13.4014 18.2328 13.398 18.1651C13.3776 17.8705 13.3912 17.5793 13.4321 17.2914C13.4934 16.8613 13.4968 16.4346 13.507 16.0045C13.5138 15.7776 13.4457 15.5541 13.4355 15.3239C13.4151 14.8938 13.4628 14.4772 13.5615 14.0641C13.6262 13.7864 13.6637 13.4985 13.7148 13.2175C13.7693 12.9296 13.742 12.6485 13.7148 12.3607C13.6943 12.1439 13.6501 11.9374 13.599 11.7308C13.5445 11.5141 13.49 11.2973 13.4457 11.0738C13.3912 10.7927 13.2822 10.5252 13.238 10.2374C13.1767 9.8513 13.2652 9.47201 13.3265 9.09273C13.3265 9.06564 13.3436 9.02161 13.3878 9.02161C13.4219 9.02161 13.4321 9.05886 13.4423 9.08257C13.5309 9.30608 13.6296 9.52958 13.7386 9.73955C13.9259 10.1019 14.1098 10.4676 14.3653 10.7927C14.6003 11.0908 14.8795 11.3617 15.0089 11.7376C15.0975 11.9916 15.2507 12.2252 15.2712 12.5029C15.2712 12.5673 15.2882 12.6722 15.3699 12.6553C15.4312 12.6451 15.404 12.5469 15.387 12.486C15.3802 12.4589 15.3665 12.425 15.3972 12.4115C15.4449 12.3945 15.4449 12.4453 15.4585 12.4657C15.5028 12.5639 15.5402 12.6655 15.5777 12.7637C15.5947 12.8009 15.6049 12.8551 15.6662 12.8348C15.7207 12.8145 15.7037 12.7637 15.6867 12.7197C15.6526 12.6214 15.639 12.5198 15.5947 12.4216C15.5879 12.4047 15.5777 12.3675 15.6049 12.3573C15.6322 12.3471 15.6492 12.3742 15.6662 12.3945C15.7207 12.4826 15.7752 12.574 15.8365 12.6553C15.8638 12.6926 15.8842 12.7704 15.9387 12.7366C15.983 12.7163 15.9591 12.6451 15.9489 12.5943C15.9489 12.5774 15.9387 12.5605 15.9285 12.5469C15.874 12.4555 15.8195 12.3607 15.7684 12.2692C15.7514 12.2422 15.7207 12.2083 15.7616 12.171C15.7991 12.1439 15.8331 12.171 15.8604 12.188C15.9149 12.2354 15.9625 12.2896 16.0136 12.3404C16.0409 12.3675 16.0681 12.3878 16.0954 12.4115C16.1226 12.4352 16.1499 12.4487 16.1839 12.4216C16.2112 12.3945 16.2043 12.3607 16.1941 12.3302L16.2214 12.3471L16.2316 12.3302Z" fill="currentColor"/>
<path d="M12.0698 2.08607C12.6491 2.08607 13.1188 1.61909 13.1188 1.04304C13.1188 0.466983 12.6491 0 12.0698 0C11.4905 0 11.0209 0.466983 11.0209 1.04304C11.0209 1.61909 11.4905 2.08607 12.0698 2.08607Z" fill="currentColor"/>
<path d="M12.0698 24C12.6491 24 13.1188 23.533 13.1188 22.957C13.1188 22.3809 12.6491 21.9139 12.0698 21.9139C11.4905 21.9139 11.0209 22.3809 11.0209 22.957C11.0209 23.533 11.4905 24 12.0698 24Z" fill="currentColor"/>
<path d="M22.951 13.0448C23.5304 13.0448 24 12.5778 24 12.0017C24 11.4257 23.5304 10.9587 22.951 10.9587C22.3717 10.9587 21.9021 11.4257 21.9021 12.0017C21.9021 12.5778 22.3717 13.0448 22.951 13.0448Z" fill="currentColor"/>
<path d="M1.04896 13.0448C1.62828 13.0448 2.09791 12.5778 2.09791 12.0017C2.09791 11.4257 1.62828 10.9587 1.04896 10.9587C0.469634 10.9587 0 11.4257 0 12.0017C0 12.5778 0.469634 13.0448 1.04896 13.0448Z" fill="currentColor"/>
<path d="M19.8621 5.29646C20.4414 5.29646 20.911 4.82948 20.911 4.25342C20.911 3.67737 20.4414 3.21039 19.8621 3.21039C19.2827 3.21039 18.8131 3.67737 18.8131 4.25342C18.8131 4.82948 19.2827 5.29646 19.8621 5.29646Z" fill="currentColor"/>
<path d="M4.27756 20.793C4.85689 20.793 5.32652 20.326 5.32652 19.7499C5.32652 19.1739 4.85689 18.7069 4.27756 18.7069C3.69824 18.7069 3.22861 19.1739 3.22861 19.7499C3.22861 20.326 3.69824 20.793 4.27756 20.793Z" fill="currentColor"/>
<path d="M4.27756 5.29646C4.85689 5.29646 5.32652 4.82948 5.32652 4.25342C5.32652 3.67737 4.85689 3.21039 4.27756 3.21039C3.69824 3.21039 3.22861 3.67737 3.22861 4.25342C3.22861 4.82948 3.69824 5.29646 4.27756 5.29646Z" fill="currentColor"/>
<path d="M19.8621 20.793C20.4414 20.793 20.911 20.326 20.911 19.7499C20.911 19.1739 20.4414 18.7069 19.8621 18.7069C19.2827 18.7069 18.8131 19.1739 18.8131 19.7499C18.8131 20.326 19.2827 20.793 19.8621 20.793Z" fill="currentColor"/>
<path d="M3.19114 18.4292C3.13665 18.4292 3.08556 18.4055 3.0515 18.3581C1.71987 16.4955 1.01489 14.2943 1.01489 12.0017C1.01489 11.9068 1.08982 11.8323 1.18518 11.8323C1.28054 11.8323 1.35546 11.9068 1.35546 12.0017C1.35546 14.2266 2.0366 16.3567 3.32737 18.1617C3.38186 18.2396 3.36483 18.3445 3.2865 18.3987C3.25585 18.419 3.22179 18.4292 3.18773 18.4292H3.19114Z" fill="currentColor"/>
<path d="M10.2852 22.8452C10.2852 22.8452 10.2682 22.8452 10.258 22.8452C8.0681 22.4862 6.05874 21.4872 4.44443 19.9565C4.37632 19.8922 4.37291 19.7838 4.43762 19.7161C4.50233 19.6483 4.61131 19.645 4.67943 19.7093C6.24264 21.1926 8.19071 22.1611 10.3125 22.5099C10.4044 22.5235 10.4691 22.6115 10.4521 22.7029C10.4385 22.7876 10.367 22.8452 10.2852 22.8452Z" fill="currentColor"/>
<path d="M12.0698 22.9908C11.8995 22.9908 11.7326 22.9874 11.5658 22.9806C11.4704 22.9772 11.3989 22.896 11.4023 22.8045C11.4057 22.7097 11.4874 22.6318 11.5794 22.642C12.0051 22.6623 12.4444 22.6555 12.8804 22.6217C13.1494 22.6013 13.4185 22.5709 13.6773 22.5336C15.3223 22.2864 16.9093 21.6497 18.2648 20.688C18.3397 20.6338 18.4487 20.6507 18.5032 20.7286C18.5577 20.8065 18.5406 20.9115 18.4623 20.9657C17.0592 21.9579 15.4244 22.6149 13.725 22.8689C13.4559 22.9095 13.1801 22.94 12.9042 22.9603C12.6249 22.9806 12.3423 22.9908 12.0664 22.9908H12.0698Z" fill="currentColor"/>
<path d="M19.6407 19.943C19.5964 19.943 19.5521 19.9261 19.5181 19.8922C19.4534 19.8245 19.4534 19.7195 19.5215 19.6518C21.163 18.0703 22.2358 16.0553 22.6241 13.8236C22.6411 13.7322 22.7297 13.6678 22.8216 13.6848C22.9136 13.7017 22.9783 13.7898 22.9613 13.8812C22.5628 16.1806 21.4559 18.2599 19.7599 19.8956C19.7258 19.9261 19.685 19.943 19.6407 19.943Z" fill="currentColor"/>
<path d="M22.951 12.171C22.8557 12.171 22.7808 12.0965 22.7808 12.0017C22.7808 11.873 22.7808 11.7477 22.7739 11.619C22.699 9.51259 22.0077 7.49763 20.7748 5.79084C20.7203 5.71634 20.7373 5.60797 20.8123 5.55379C20.8872 5.4996 20.9962 5.51654 21.0507 5.59104C22.3244 7.35201 23.0362 9.43131 23.1145 11.602C23.1179 11.7341 23.1213 11.8628 23.1213 11.9949C23.1213 12.0897 23.0464 12.1642 22.951 12.1642V12.171Z" fill="currentColor"/>
<path d="M19.7326 4.49046C19.6884 4.49046 19.6475 4.47353 19.6134 4.43966C17.9617 2.81077 15.8774 1.77789 13.5819 1.45279C13.49 1.43924 13.4253 1.35458 13.4389 1.25976C13.4525 1.16832 13.5377 1.10398 13.633 1.11752C16 1.4494 18.1524 2.51614 19.8552 4.19922C19.9234 4.26357 19.9234 4.37193 19.8552 4.43966C19.8212 4.47353 19.7769 4.49046 19.736 4.49046H19.7326Z" fill="currentColor"/>
<path d="M5.60919 3.46436C5.55811 3.46436 5.50702 3.44065 5.47296 3.39663C5.41847 3.32212 5.4321 3.21376 5.51043 3.15957C7.3427 1.81175 9.51894 1.07011 11.8042 1.01593C11.9097 1.0227 11.9745 1.08705 11.9779 1.18187C11.9813 1.27669 11.9063 1.35119 11.811 1.35458C9.59727 1.40538 7.48914 2.12331 5.71136 3.43049C5.68071 3.4542 5.64666 3.46436 5.60919 3.46436Z" fill="currentColor"/>
<path d="M1.30097 10.5997C1.30097 10.5997 1.28394 10.5997 1.27713 10.5997C1.18518 10.5861 1.12047 10.5015 1.13409 10.4067C1.44742 8.26302 2.38739 6.27516 3.84844 4.65642C3.90974 4.5853 4.01872 4.58192 4.09024 4.64287C4.16176 4.70383 4.16517 4.8122 4.10387 4.88331C2.68709 6.45125 1.77436 8.37816 1.47126 10.4541C1.45763 10.5387 1.38611 10.5997 1.30438 10.5997H1.30097Z" fill="currentColor"/>
</g>
<defs>
<clipPath id="clip0_5471_355">
<rect width="24" height="24" fill="currentColor"/>
</clipPath>
</defs>
</svg>
