<svg width="54" height="55" viewBox="0 0 54 55" fill="none" xmlns="http://www.w3.org/2000/svg">
<g clip-path="url(#clip0_1116_9720)">
<path d="M29.34 6.36172C15.336 3.66672 3.59998 10.6517 3.59998 20.3317C3.59998 29.2051 8.04598 31.3317 12.6 31.3317C12.6 25.3734 22.662 24.5301 27.342 26.3267C22.986 25.7584 14.274 25.9234 14.274 32.3217C14.274 32.7251 14.274 36.8501 19.872 37.4551C22.1454 37.7283 24.4466 37.6418 26.694 37.1984C26.6329 37.8121 26.7776 38.4287 27.1044 38.948C27.4312 39.4673 27.921 39.8587 28.494 40.0584C28.9636 40.2195 29.4451 40.3422 29.934 40.4251C31.4489 42.7475 33.2654 44.8504 35.334 46.6767C35.8197 46.6467 36.2819 46.4533 36.648 46.1267C36.9504 45.8754 37.1442 45.5134 37.188 45.1184C36.085 43.9293 35.3631 42.4267 35.118 40.8101C35.964 40.8101 36.522 40.8101 36.522 40.8101C36.522 40.8101 44.334 40.3334 43.722 36.2451C43.722 36.1351 43.722 36.0251 43.632 35.9151C44.6831 36.1338 45.7668 36.1338 46.818 35.9151C49.23 35.1817 50.238 32.4684 50.418 28.9117C50.688 22.7701 43.326 9.05672 29.34 6.36172Z" fill="currentColor"/>
</g>
<defs>
<clipPath id="clip0_1116_9720">
<rect width="54" height="55" fill="currentColor"/>
</clipPath>
</defs>
</svg>
