<svg width="55" height="55" viewBox="0 0 55 55" fill="none" xmlns="http://www.w3.org/2000/svg">
<path d="M2.84167 7.095C8.83667 6.06833 9.55167 11.9533 12.705 12.155C14.1379 12.2574 15.5606 11.8481 16.72 11L18.1867 15.3633C18.1867 15.3633 16.3533 17.0317 16.3533 18.205C16.3533 19.3783 17.325 23.4483 15.675 26.5467C14.025 29.645 11.66 31.735 11 34.0083C10.34 36.2817 11 37.1067 9.77167 42.35C9.21307 45.2268 7.98874 47.9329 6.19667 50.2517H2.84167V7.095Z" fill="currentColor"/>
<path d="M38.5 24.7317C36.465 26.565 34.7233 26.565 32.7983 27.4083C33.6539 27.3299 34.5162 27.4439 35.322 27.7421C36.1278 28.0403 36.8566 28.5151 37.455 29.1317C38.6466 30.14 40.755 29.9383 41.3783 31.075C41.2866 28.3617 44.66 26.015 45.9066 24.2C54.2483 11.8617 42.7166 3.66666 29.3333 6.14166C24.3268 7.12232 19.5501 9.03799 15.2533 11.7883L16.5916 17.2883C20.2248 14.3 24.5067 12.203 29.095 11.165C38.2983 8.96499 48.345 16.005 38.5 24.7317Z" fill="currentColor"/>
<path d="M33.33 27.1517C33.22 27.1517 24.6033 28.985 24.6033 28.985C20.3317 30.6167 22.77 31.9367 27.7567 31.2767C31.6433 30.745 34.8883 29.4433 34.815 30.2683C34.7417 31.0933 28.4533 34.4483 29.1683 35.6767C29.8833 36.905 36.8867 31.9 37.5283 33.0917C37.8985 33.6628 38.1942 34.2789 38.4083 34.925C39.4717 37.29 40.4983 40.1317 41.415 38.5917C41.781 37.8997 41.9724 37.1287 41.9724 36.3458C41.9724 35.563 41.781 34.792 41.415 34.1C41.1095 33.1273 41.1095 32.0844 41.415 31.1117L40.3333 28.3983L33.33 27.1517Z" fill="currentColor"/>
</svg>
