<svg width="54" height="55" viewBox="0 0 54 55" fill="none" xmlns="http://www.w3.org/2000/svg">
<g clip-path="url(#clip0_1116_9728)">
<path d="M19.566 21.6883C19.8183 20.3826 19.7814 19.036 19.458 17.7467C19.458 17.7467 22.338 17.7467 23.184 13.6583C24.21 8.92834 21.384 5.13334 16.38 4.01501C7.48799 2.07167 3.16799 13.3467 2.19599 17.875C1.22399 22.4033 1.47599 34.6867 9.39599 36.4467C14.04 37.455 18.288 36.4467 19.332 31.46C19.6819 30.2655 19.6312 28.9862 19.1879 27.8243C18.7446 26.6623 17.934 25.6839 16.884 25.0433C18.1523 24.2986 19.1071 23.1043 19.566 21.6883Z" fill="currentColor"/>
<path d="M34.434 21.6883C34.1817 20.3826 34.2186 19.036 34.542 17.7467C34.542 17.7467 31.662 17.7467 30.816 13.6583C29.79 8.92834 32.616 5.13334 37.62 4.01501C46.512 2.07167 50.832 13.3467 51.804 17.875C52.776 22.4033 52.524 34.6867 44.604 36.4467C39.96 37.455 35.712 36.4467 34.668 31.46C34.3181 30.2655 34.3688 28.9862 34.8121 27.8243C35.2554 26.6623 36.066 25.6839 37.116 25.0433C35.8477 24.2986 34.8929 23.1043 34.434 21.6883Z" fill="currentColor"/>
<path d="M23.256 26.7666V51.04H25.056V26.7666C25.0422 25.4931 24.7029 24.2452 24.0717 23.1458C23.4404 22.0464 22.539 21.1334 21.456 20.4966C21.4423 20.8732 21.3941 21.2476 21.312 21.615C21.2573 21.889 21.1665 22.1541 21.042 22.4033C21.7178 22.9061 22.2695 23.562 22.6538 24.3193C23.038 25.0765 23.2442 25.9143 23.256 26.7666Z" fill="currentColor"/>
<path d="M30.762 26.7666V51.04H28.962V26.7666C28.9758 25.4931 29.3151 24.2452 29.9463 23.1458C30.5776 22.0464 31.479 21.1334 32.562 20.4966C32.562 20.8633 32.562 21.23 32.706 21.615C32.777 21.8841 32.8673 22.1476 32.976 22.4033C32.3002 22.9061 31.7485 23.562 31.3642 24.3193C30.98 25.0765 30.7738 25.9143 30.762 26.7666Z" fill="currentColor"/>
</g>
<defs>
<clipPath id="clip0_1116_9728">
<rect width="54" height="55" fill="currentColor"/>
</clipPath>
</defs>
</svg>
