<svg width="55" height="55" viewBox="0 0 55 55" fill="none" xmlns="http://www.w3.org/2000/svg">
<g clip-path="url(#clip0_1116_9730)">
<path d="M50.4166 23.0817C50.4187 22.7046 50.3376 22.3316 50.1792 21.9894C50.0207 21.6472 49.7888 21.3441 49.5 21.1017C49.753 20.8678 49.9552 20.5843 50.094 20.2689C50.2327 19.9535 50.3051 19.6129 50.3066 19.2683C50.301 18.838 50.1872 18.416 49.9757 18.0412C49.7643 17.6664 49.462 17.3508 49.0966 17.1233C49.4643 16.8985 49.7685 16.5834 49.9803 16.208C50.192 15.8326 50.3044 15.4093 50.3066 14.9783C50.3033 14.6357 50.2319 14.2973 50.0965 13.9825C49.9612 13.6678 49.7646 13.3831 49.5183 13.145L49.7566 12.5767C50.0255 11.915 50.1573 11.2057 50.1441 10.4917C50.1309 9.77767 49.973 9.07373 49.6799 8.42248C49.3869 7.77122 48.9647 7.18619 48.4391 6.70277C47.9134 6.21935 47.2951 5.8476 46.6216 5.60999C45.6493 5.24398 44.5971 5.14277 43.5728 5.31672C42.5485 5.49066 41.5887 5.93351 40.7916 6.59999C40.3141 6.27788 39.7542 6.0997 39.1783 6.08666C38.5004 6.0036 37.8171 6.19221 37.2778 6.6113C36.7385 7.03039 36.3869 7.64588 36.3 8.32333V8.72666C36.0415 8.35183 35.6968 8.0446 35.2947 7.83084C34.8927 7.61707 34.4453 7.50304 33.99 7.49833C33.4454 7.46913 32.9043 7.60146 32.4346 7.8787C31.9649 8.15594 31.5876 8.56574 31.35 9.05666C31.0854 8.69787 30.7401 8.40638 30.342 8.20573C29.9438 8.00509 29.5041 7.90092 29.0583 7.90166C28.5246 7.86957 27.993 7.99273 27.5278 8.25625C27.0625 8.51978 26.6835 8.91239 26.4366 9.38666C26.4272 9.05519 26.3522 8.72886 26.216 8.42653C26.0797 8.12419 25.885 7.85181 25.643 7.62512C25.4009 7.39844 25.1164 7.22192 24.8058 7.10576C24.4952 6.9896 24.1647 6.93609 23.8333 6.94833C23.5364 6.94653 23.2406 6.98351 22.9533 7.05833C22.7736 6.31395 22.3446 5.65346 21.7376 5.18656C21.1307 4.71966 20.3822 4.47445 19.6166 4.49166C19.0271 4.45702 18.4377 4.5618 17.8962 4.79751C17.3547 5.03322 16.8764 5.39322 16.5 5.84833L15.9316 5.16999C15.2403 4.43486 14.3206 3.95509 13.3222 3.80865C12.3237 3.6622 11.305 3.85768 10.4316 4.36333C9.87783 4.6657 9.42884 5.12904 9.14404 5.69209C8.85925 6.25514 8.75206 6.89138 8.83665 7.51666C8.06483 7.51082 7.31085 7.74868 6.68211 8.19637C6.05338 8.64405 5.58195 9.27873 5.33498 10.01C5.22998 10.4577 5.24052 10.9248 5.36559 11.3674C5.49066 11.8099 5.72616 12.2134 6.04998 12.54C5.45246 12.9212 5.01544 13.5082 4.82165 14.19C4.62641 14.8749 4.68378 15.6071 4.98328 16.2532C5.28279 16.8994 5.8045 17.4164 6.45331 17.71C5.98646 17.7901 5.56168 18.0292 5.25094 18.3867C4.9402 18.7442 4.76263 19.1982 4.74831 19.6717C4.68491 20.1797 4.8053 20.6936 5.08773 21.1206C5.37016 21.5476 5.796 21.8595 6.28831 22C5.89527 22.1723 5.5601 22.4541 5.3228 22.8117C5.0855 23.1692 4.95607 23.5875 4.94998 24.0167V24.5117C4.9644 25.0289 5.15343 25.526 5.48631 25.9221C5.81918 26.3182 6.27631 26.59 6.78331 26.6933C6.11888 27.1079 5.56923 27.6827 5.18483 28.365C4.80043 29.0473 4.59359 29.8153 4.58331 30.5983V31.6433C4.61695 32.9174 5.15178 34.1268 6.07167 35.0089C6.99157 35.8911 8.22229 36.3747 9.49665 36.355V38.3167C9.49665 38.5792 9.60095 38.831 9.78661 39.0167C9.97227 39.2024 10.2241 39.3067 10.4866 39.3067C10.7492 39.3067 11.001 39.2024 11.1867 39.0167C11.3723 38.831 11.4766 38.5792 11.4766 38.3167V36.355C12.7306 36.3414 13.9307 35.8434 14.826 34.9652C15.7212 34.0871 16.2422 32.8968 16.28 31.6433V30.5983C16.2689 29.8087 16.0579 29.0347 15.6668 28.3487C15.2757 27.6626 14.7172 27.0868 14.0433 26.675C14.5488 26.5687 15.0041 26.296 15.3365 25.9005C15.6688 25.5051 15.859 25.0096 15.8766 24.4933V23.9983C15.8821 23.6397 15.7997 23.2851 15.6367 22.9656C15.4738 22.646 15.2351 22.3712 14.9416 22.165C15.3506 21.7739 15.599 21.2444 15.6383 20.68C15.6717 20.1483 15.5301 19.6203 15.235 19.1767C15.775 18.8004 16.1697 18.2504 16.3533 17.6183C16.5153 17.064 16.5131 16.4747 16.3472 15.9216C16.1813 15.3685 15.8586 14.8753 15.4183 14.5017C15.7968 14.4309 16.1619 14.301 16.5 14.1167C16.8407 14.4942 17.2563 14.7968 17.7202 15.0051C18.1842 15.2134 18.6864 15.3229 19.195 15.3267C19.7415 15.3444 20.2855 15.2443 20.79 15.0333V15.4183C20.8324 16.0699 21.1251 16.6799 21.6069 17.1207C22.0886 17.5615 22.7222 17.7989 23.375 17.7833C23.9114 17.8167 24.446 17.6943 24.9144 17.4308C25.3828 17.1674 25.765 16.7741 26.015 16.2983C26.0575 16.9646 26.3599 17.5876 26.857 18.0333C27.3541 18.479 28.0063 18.7118 28.6733 18.6817C29.2204 18.7117 29.7639 18.5777 30.2343 18.2968C30.7046 18.0159 31.0804 17.6009 31.3133 17.105C31.5721 17.4668 31.9132 17.7619 32.3084 17.9659C32.7037 18.1699 33.1418 18.277 33.5866 18.2783C34.2529 18.3464 34.9196 18.1531 35.4463 17.7393C35.973 17.3255 36.3184 16.7235 36.41 16.06V15.7117C36.6735 16.0857 37.0218 16.3921 37.4265 16.6056C37.8313 16.8191 38.2808 16.9337 38.7383 16.94C38.9915 16.9377 39.2437 16.907 39.49 16.8483C39.5932 16.9553 39.7103 17.0478 39.8383 17.1233C39.4764 17.3544 39.1768 17.6709 38.9658 18.0449C38.7548 18.4189 38.6389 18.839 38.6283 19.2683C38.6365 19.6484 38.7297 20.0219 38.901 20.3613C39.0723 20.7008 39.3174 20.9976 39.6183 21.23C39.3687 21.4666 39.1687 21.7506 39.0302 22.0654C38.8917 22.3802 38.8174 22.7194 38.8116 23.0633C38.82 23.4102 38.8991 23.7518 39.0441 24.067C39.1891 24.3823 39.397 24.6646 39.655 24.8967C39.3151 25.2393 39.0463 25.6456 38.8638 26.0923C38.6813 26.5391 38.5889 27.0174 38.5916 27.5C38.5927 28.149 38.777 28.7845 39.1233 29.3333C38.3657 29.9273 37.8454 30.7726 37.6566 31.7167C37.6566 31.8267 37.6566 31.955 37.6566 32.065C37.4765 32.1869 37.3158 32.3352 37.18 32.505C36.9185 32.8583 36.7599 33.2771 36.7216 33.715C36.1563 33.941 35.6712 34.3303 35.3283 34.8333C34.8293 34.4078 34.2192 34.1335 33.5698 34.0425C32.9203 33.9516 32.2583 34.0479 31.6616 34.32C31.1169 33.7711 30.4684 33.336 29.754 33.0402C29.0395 32.7443 28.2733 32.5935 27.5 32.5967H27.1333C26.3966 32.5821 25.6642 32.7128 24.9779 32.9813C24.2917 33.2498 23.6651 33.6509 23.1339 34.1617C22.6027 34.6724 22.1774 35.2828 21.8822 35.958C21.5869 36.6332 21.4276 37.3599 21.4133 38.0967V38.445C21.414 39.1595 21.5607 39.8663 21.8445 40.5221C22.1282 41.1778 22.543 41.7687 23.0633 42.2583C22.7552 42.5871 22.579 43.0179 22.5683 43.4683C22.5633 43.9105 22.7183 44.3395 23.0046 44.6764C23.291 45.0133 23.6895 45.2354 24.1266 45.3017C24.1266 45.3017 24.1266 45.4117 24.1266 45.485C24.1325 45.8365 24.2393 46.179 24.4343 46.4716C24.6293 46.7641 24.9044 46.9944 25.2266 47.135V49.5C25.274 49.9899 25.502 50.4446 25.8664 50.7755C26.2308 51.1064 26.7053 51.2897 27.1975 51.2897C27.6897 51.2897 28.1642 51.1064 28.5286 50.7755C28.8929 50.4446 29.121 49.9899 29.1683 49.5V46.8967C29.4248 46.7366 29.6376 46.5155 29.788 46.2532C29.9383 45.9909 30.0214 45.6955 30.03 45.3933C30.03 45.3933 30.03 45.3933 30.03 45.2833H30.5066C31.0754 45.2209 31.6061 44.9676 32.0124 44.5647C32.4186 44.1619 32.6762 43.6332 32.7433 43.065C32.7433 42.3683 32.6516 42.3317 32.6516 42.3317C32.9265 42.6562 33.2738 42.9115 33.6655 43.0771C34.0572 43.2427 34.4824 43.3139 34.9066 43.285C35.4248 43.26 35.9209 43.0679 36.3208 42.7374C36.7207 42.4069 37.0028 41.9558 37.125 41.4517C37.6015 41.9725 38.2183 42.3448 38.9013 42.5236C39.5842 42.7025 40.3043 42.6804 40.975 42.46C41.3858 42.3201 41.7619 42.0939 42.0781 41.7967C42.3943 41.4994 42.6433 41.138 42.8083 40.7367C43.2823 41.06 43.8638 41.1854 44.4289 41.0861C44.994 40.9867 45.498 40.6706 45.8333 40.205C46.0733 39.8626 46.2326 39.4703 46.2993 39.0575C46.366 38.6447 46.3383 38.2222 46.2183 37.8217C46.8061 37.5805 47.3239 37.1956 47.7243 36.7023C48.1247 36.2091 48.3949 35.6231 48.51 34.9983C48.6677 34.2985 48.6568 33.5711 48.4783 32.8763C48.2998 32.1814 47.9588 31.5389 47.4833 31.0017C48.2624 30.8006 48.9537 30.3488 49.4507 29.716C49.9476 29.0832 50.2226 28.3045 50.2333 27.5C50.2196 26.6364 49.9015 25.8053 49.335 25.1533C49.6697 24.9215 49.943 24.6119 50.1314 24.251C50.3199 23.8901 50.4178 23.4888 50.4166 23.0817Z" fill="currentColor"/>
</g>
<defs>
<clipPath id="clip0_1116_9730">
<rect width="55" height="55" fill="currentColor"/>
</clipPath>
</defs>
</svg>
