<svg width="55" height="55" viewBox="0 0 55 55" fill="none" xmlns="http://www.w3.org/2000/svg">
<g clip-path="url(#clip0_1116_9757)">
<path d="M31.2395 41.6369C28.8282 41.6369 26.7495 40.6861 25.6021 39.3016C25.0367 39.9855 24.6875 40.7862 24.6875 41.6369C24.6875 44.2224 27.6143 46.3241 31.2229 46.3241C34.8315 46.3241 37.7583 44.2224 37.7583 41.6369C37.7583 40.7862 37.4091 39.9855 36.8437 39.3016C35.7129 40.7028 33.6342 41.6369 31.2063 41.6369H31.2395Z" fill="currentColor"/>
<path d="M35.7628 47.325V47.3583C35.7628 47.742 33.8005 48.5927 30.5577 48.5927C27.9136 48.5927 26.3338 47.9588 26.3338 47.2749C26.2839 46.7578 26.2007 45.9738 26.1509 45.0898C25.6021 44.6561 25.1531 44.1723 24.8371 43.6219C24.887 45.44 25.0533 47.0414 25.0866 47.3583C25.0866 48.9096 27.132 49.8437 30.5577 49.8437C32.7861 49.8437 36.9934 49.3266 37.01 47.375C37.0599 46.224 37.0931 45.2232 37.1098 44.3391C36.7605 44.7561 36.3282 45.1231 35.8293 45.44C35.8293 46.0739 35.796 46.7078 35.7628 47.3416V47.325Z" fill="currentColor"/>
<path d="M28.2961 17.7168C29.1442 18.1839 30.4746 18.0671 30.4746 18.0671C30.4746 18.0671 31.8049 18.1839 32.653 17.7168C33.9335 17.0162 35.979 14.1805 36.2617 12.0454C36.4778 10.4607 35.6962 8.29223 34.4324 6.87437C33.1852 5.45651 31.9047 5.17294 30.7074 5.17294C29.51 5.17294 27.6641 5.52324 26.4834 6.87437C25.2362 8.29223 24.4546 10.4774 24.6542 12.0454C24.9369 14.1805 26.9823 17.0162 28.2628 17.7168H28.2961Z" fill="currentColor"/>
<path d="M43.6452 17.8669C43.5122 17.0496 43.3625 16.032 43.4789 15.5149C43.745 14.3807 44.0776 11.7785 43.3958 10.9444C43.0299 10.4941 42.5144 10.2939 42.0654 10.4607C41.7328 10.5775 41.5 10.861 41.5 11.1947C41.5 11.3281 41.5 11.5783 41.5166 11.8786C41.5499 12.3957 41.5831 13.163 41.5166 13.4799C41.3503 14.0804 41.2007 15.0312 41.0842 15.7985C41.0676 15.9486 41.0344 16.0821 41.0177 16.2155C39.8038 15.1146 38.1574 14.3139 36.1453 14.8978C35.2805 16.5158 34.0167 18.017 33.0355 18.5508C32.071 19.0846 30.6575 19.0012 30.4746 18.9845C30.4746 18.9845 30.3249 18.9845 30.0921 18.9845C29.5766 18.9845 28.6287 18.9178 27.9302 18.5341C26.9491 18.0004 25.6852 16.5158 24.8205 14.8811C22.8582 14.2973 21.2285 15.0646 20.0145 16.1321C19.9813 15.932 19.948 15.6984 19.8981 15.4482C19.7817 14.6809 19.6321 13.7301 19.4658 13.1296C19.4159 12.9628 19.4658 12.5791 19.5156 12.2622C19.5822 11.6784 19.6653 11.0612 19.4325 10.6609C19.1997 10.2772 18.917 10.077 18.601 10.0437C18.2352 10.0103 17.9192 10.2105 17.6032 10.6108C16.9381 11.4282 17.2041 13.8469 17.5201 15.1813C17.6698 15.8319 17.6199 16.7493 17.57 17.7001C17.5367 18.2172 17.5201 18.7343 17.5201 19.2347V19.6517H17.5367C17.5367 19.6517 17.5367 19.7018 17.5367 19.7185C17.3039 21.9036 19.5988 28.8261 20.5467 30.2106C21.4114 31.4617 22.4092 30.8778 23.2906 30.3774C23.5234 30.244 23.7895 30.0938 24.0555 29.9604C24.1054 29.877 24.122 29.8103 24.1719 29.7102C25.02 27.842 27.8803 29.5267 28.2129 29.6768L28.9779 30.0438C28.9779 30.0438 28.8781 30.1272 28.8282 30.1772L28.7118 30.2273C28.7118 30.2273 28.7284 30.2273 28.7451 30.244C28.2961 30.6777 27.6143 31.5117 26.9325 33.0797C26.6331 32.4125 26.6331 31.7786 26.6664 31.4116C26.7329 30.5776 28.03 30.0438 28.03 30.0438C28.03 30.0438 25.203 28.676 24.5378 29.8937C23.8726 31.1114 24.1553 31.4783 23.5566 31.7285C22.958 31.9788 21.7274 32.4125 21.7274 33.0964C21.7274 33.7803 22.4258 37.2165 24.1553 37.9004C24.5544 38.0672 24.9702 38.0338 25.4192 38.0505C25.4192 38.0839 25.4192 38.1172 25.4025 38.1506C25.2529 38.4675 25.1365 38.8679 25.0533 39.3182C25.1365 39.2015 25.203 39.0847 25.2861 38.9846L25.6021 38.601L25.918 38.9846C26.0345 39.1181 26.1841 39.2182 26.3005 39.3349C26.367 39.0514 26.4336 38.8178 26.5333 38.6343C26.5666 38.5843 26.5832 38.5343 26.5832 38.4842C26.5832 38.4675 26.5832 38.4509 26.5832 38.4342C27.3648 38.9513 27.3316 39.5851 30.4579 39.5851C33.734 39.5851 33.5178 38.9012 34.4324 38.3675C34.6818 38.2173 34.9147 38.1506 35.1475 38.1006C35.2805 38.3675 35.4136 38.6343 35.5798 38.9179C35.6464 39.0347 35.6963 39.3516 35.7295 39.7353C36.0122 39.5017 36.2949 39.2849 36.5111 39.0013L36.7938 38.651C36.7107 38.3675 36.6275 38.2173 36.561 38.1339C36.5277 38.0672 36.5111 38.0172 36.4778 37.9504C36.5776 37.9338 36.6774 37.9171 36.7938 37.8837C38.5067 37.1998 39.2217 33.7636 39.2217 33.0797C39.2217 32.3958 38.0078 31.9788 37.3925 31.7119C36.7772 31.445 37.0599 31.0947 36.4113 29.877C35.7628 28.6593 32.9191 30.0271 32.9191 30.0271C32.9191 30.0271 34.1996 30.5442 34.2827 31.3949C34.316 31.7119 34.3326 32.2123 34.1497 32.7628C33.6176 31.6118 33.0355 30.661 32.1708 29.927L32.7362 29.6435C33.0688 29.4933 35.8293 27.942 36.6441 29.4767C36.694 29.5601 36.8437 29.827 36.877 29.9104C37.1597 30.0438 37.4424 30.1939 37.6918 30.3441C38.5732 30.8612 39.5543 31.4283 40.4191 30.1772C41.1508 29.1264 42.6474 24.8561 43.2128 21.9203C43.4124 21.5367 43.5787 20.8861 43.7616 19.7185L43.7949 19.5683C43.8614 19.168 43.7616 18.5341 43.6452 17.8169V17.8669ZM33.3515 34.0805C32.7861 34.631 31.9047 35.1147 30.4912 35.415H30.4579C29.1941 35.1481 28.3792 34.7311 27.8138 34.2473C28.5788 32.2957 29.3271 31.445 29.693 31.1114C29.8759 31.3115 30.0754 31.4116 30.2417 31.4283C30.2916 31.4283 30.3249 31.4283 30.3748 31.4283C30.7074 31.4283 31.04 31.2448 31.3559 30.9112C32.2207 31.6451 32.7694 32.696 33.3515 34.0805Z" fill="currentColor"/>
</g>
<defs>
<clipPath id="clip0_1116_9757">
<rect width="26.6406" height="44.6875" fill="currentColor" transform="translate(17.1875 5.15625)"/>
</clipPath>
</defs>
</svg>
