<svg width="24" height="24" viewBox="0 0 24 24" fill="none" xmlns="http://www.w3.org/2000/svg">
<path d="M8.55521 1.46092C8.93085 1.06663 8.90832 1.50052 9.48271 1.20496C10.0564 0.909393 10.4765 -0.0565125 10.7415 0.00260048C10.9793 0.0558022 11.5537 0.140334 11.6696 0.156885C11.7862 0.139743 12.3606 0.055211 12.5978 0.00260048C12.8628 -0.0565125 13.2822 0.908802 13.8566 1.20437C14.431 1.49993 14.4084 1.06663 14.7841 1.46033C15.1597 1.85402 15.1816 2.7218 15.0272 3.07647C14.8728 3.43115 15.0491 3.98268 14.6297 4.02228C14.2103 4.06189 13.7466 4.14051 13.5697 4.5543C13.3928 4.96809 13.0993 5.34228 12.8191 5.59882C12.6495 5.7537 12.2573 5.75725 11.9737 5.73597C11.7717 5.7206 11.5683 5.7206 11.3662 5.73597C11.0827 5.75725 10.6905 5.7537 10.5209 5.59882C10.2406 5.34287 9.94647 4.96809 9.77024 4.5543C9.59335 4.14051 9.1296 4.06189 8.71023 4.02228C8.29087 3.98268 8.46709 3.43115 8.31273 3.07647C8.15837 2.7218 8.18023 1.85461 8.55587 1.46092H8.55521Z" fill="white"/>
<path d="M11.6448 6.31836C10.9536 6.32234 10.4677 6.4059 10.4544 6.4082C10.4544 6.4082 9.80557 6.87863 9.83229 7.32715C9.85904 7.77567 9.72413 8.65023 9.2112 8.94141C8.6983 9.23255 9.34639 9.52337 9.2112 10.0391C9.07588 10.5548 8.67381 10.7788 9.01003 11.2158C9.34632 11.6529 9.11498 12.5275 8.87917 12.707C8.6447 12.8861 8.77894 13.3796 8.75222 13.9395C8.72544 14.4995 8.40137 14.9258 8.50905 15.2842H8.50808C8.61584 15.6425 8.8144 16.1359 8.48562 16.5615C8.15662 16.9879 8.11286 17.6611 8.48562 18.0195C8.85898 18.3785 9.04794 18.8487 8.96706 19.207C8.88603 19.5654 9.93978 19.7892 10.1829 19.9688C10.1829 19.9688 10.3719 20.5073 10.1555 20.8213C9.93956 21.1353 10.4533 22.9285 10.9661 23.2646C11.4786 23.6006 11.4735 23.5518 11.6692 23.5518C11.8653 23.5518 11.8604 23.6009 12.3733 23.2646C12.8862 22.9283 13.3992 21.1353 13.1829 20.8213C12.9674 20.5072 13.1565 19.9688 13.1565 19.9688C13.4 19.7899 14.4533 19.566 14.3723 19.207C14.2914 18.848 14.4811 18.3779 14.8538 18.0195C15.2265 17.6604 15.1828 16.9872 14.8538 16.5615C14.5248 16.1359 14.7235 15.6426 14.8313 15.2842C14.9391 14.9258 14.6149 14.4995 14.5882 13.9395C14.5614 13.3795 14.6967 12.8867 14.4612 12.707C14.2262 12.5275 13.9942 11.6529 14.3303 11.2158C14.6666 10.7787 14.2655 10.5548 14.1301 10.0391C13.9949 9.52413 14.6422 9.23248 14.1301 8.94141C13.6164 8.65024 13.4813 7.77567 13.5081 7.32715C13.5345 6.88471 12.9041 6.42071 12.887 6.4082C12.887 6.4082 12.3982 6.32309 11.6966 6.31836H11.6448ZM11.6868 7.11035C12.207 7.11472 12.5696 7.19336 12.5696 7.19336C12.5812 7.20393 13.0501 7.63565 13.0305 8.04688C13.0108 8.46328 13.1098 9.27461 13.4905 9.54492C13.8708 9.81521 13.3902 10.0863 13.4905 10.5645C13.5909 11.0429 13.889 11.2507 13.6399 11.6562C13.3907 12.0619 13.5624 12.8731 13.7366 13.04C13.9114 13.2067 13.8115 13.6646 13.8313 14.1846C13.8511 14.7044 14.0906 15.1 14.011 15.4326C13.9311 15.7653 13.7837 16.224 14.0276 16.6191C14.2714 17.0142 14.3037 17.6383 14.0276 17.9717C13.7513 18.3044 13.6101 18.7419 13.6702 19.0752C13.7297 19.4083 12.9502 19.6163 12.7698 19.7822C12.7681 19.7882 12.6305 20.2835 12.7893 20.5732C12.9493 20.8655 12.5688 22.5285 12.1887 22.8408C11.8087 23.1528 11.8124 23.1084 11.6673 23.1084C11.5219 23.1084 11.5259 23.1528 11.1458 22.8408C10.7655 22.5287 10.3849 20.8644 10.5452 20.5732C10.7039 20.2848 10.5676 19.7927 10.5647 19.7822C10.3846 19.6156 9.60402 19.4077 9.66335 19.0752C9.72342 18.7425 9.58384 18.305 9.3069 17.9717C9.03057 17.639 9.06301 17.0149 9.3069 16.6191C9.55078 16.224 9.40242 15.7653 9.32253 15.4326H9.32448C9.24483 15.1 9.48435 14.7044 9.50417 14.1846C9.52399 13.6646 9.42468 13.2061 9.5989 13.04C9.77362 12.8728 9.94475 12.0618 9.69558 11.6562C9.44644 11.2507 9.7436 11.0429 9.84401 10.5645C9.9443 10.0858 9.46444 9.81512 9.84401 9.54492C10.2242 9.2747 10.3247 8.46333 10.305 8.04688C10.2853 7.63393 10.7581 7.20043 10.7659 7.19336C10.7659 7.19336 11.1291 7.1141 11.6487 7.11035H11.6868Z" fill="white"/>
</svg>
