<svg width="54" height="55" viewBox="0 0 54 55" fill="none" xmlns="http://www.w3.org/2000/svg">
<g clip-path="url(#clip0_1116_9737)">
<path d="M44.712 14.8133C40.968 14.8133 38.088 15.62 34.83 15.5283C31.572 15.4366 30.078 13.0166 27 13.5116C23.922 13.0166 22.356 15.345 19.17 15.5283C15.984 15.7116 13.032 14.8133 9.288 14.8133C4.392 14.8133 2.088 18.48 2.088 20.515C2.088 22.55 2.754 26.015 8.172 27.3533L8.964 27.5C8.68428 27.2855 8.45622 27.0089 8.29715 26.6913C8.13809 26.3736 8.05219 26.0232 8.046 25.6666C8.05241 25.0752 8.28486 24.5097 8.694 24.09C7.97581 23.9751 7.31731 23.615 6.82666 23.0686C6.33601 22.5222 6.04238 21.8221 5.994 21.0833C5.868 18.8283 8.352 18.04 9.414 18.0216C12.1093 18.0762 14.7877 18.4703 17.388 19.195C19.476 20.02 23.958 28.6366 24.012 32.395C24.066 36.1533 24.192 43.8166 24.192 43.8166H29.808C29.808 43.8166 29.916 36.1533 29.988 32.395C30.06 28.6366 34.524 20.02 36.612 19.195C39.2123 18.4703 41.8906 18.0762 44.586 18.0216C45.648 18.0216 48.186 18.8283 48.006 21.0833C47.9599 21.8054 47.6807 22.4918 47.2119 23.0355C46.7432 23.5793 46.1111 23.95 45.414 24.09C45.8281 24.5078 46.0669 25.0731 46.08 25.6666C46.0691 26.0242 45.9792 26.3746 45.8172 26.692C45.6552 27.0094 45.4251 27.2855 45.144 27.5L45.918 27.3533C51.318 26.0333 52.002 22.44 52.002 20.515C52.002 18.59 49.608 14.8133 44.712 14.8133Z" fill="currentColor"/>
<path d="M18 23.9984C17.4993 24.1535 16.9879 24.2699 16.47 24.3467C15.894 24.3467 15.714 24.1817 15.714 24.1817C15.3151 23.7547 14.8304 23.4206 14.2929 23.2022C13.7554 22.9839 13.1779 22.8865 12.6 22.9167C10.62 22.9167 9 24.145 9 25.6667C9 27.1884 10.62 28.4167 12.6 28.4167C13.3994 28.5126 14.2058 28.3087 14.8684 27.843C15.5309 27.3774 16.0043 26.682 16.2 25.8867C16.2 25.8867 16.2 25.52 16.722 25.245C17.1792 25.047 17.6559 24.8995 18.144 24.805L18 23.9984Z" fill="currentColor"/>
<path d="M36.198 23.9983C36.7044 24.1549 37.2219 24.2714 37.746 24.3466C38.322 24.3466 38.484 24.1816 38.484 24.1816C38.8702 23.757 39.3421 23.4225 39.8671 23.201C40.3922 22.9795 40.9581 22.8762 41.526 22.8983C43.506 22.8983 45.126 24.1266 45.126 25.6483C45.126 27.17 43.506 28.3983 41.526 28.3983C40.7278 28.4863 39.9251 28.2792 39.2643 27.8148C38.6035 27.3504 38.1285 26.6596 37.926 25.8683C37.926 25.8683 37.926 25.5016 37.386 25.2266C36.9355 25.0273 36.4646 24.8797 35.982 24.7866L36.198 23.9983Z" fill="currentColor"/>
</g>
<defs>
<clipPath id="clip0_1116_9737">
<rect width="54" height="55" fill="currentColor"/>
</clipPath>
</defs>
</svg>
