<svg width="55" height="55" viewBox="0 0 55 55" fill="none" xmlns="http://www.w3.org/2000/svg">
<path d="M24.805 28.215L35.9883 17.215L36.465 19.4517C36.465 19.4517 27.665 24.5667 25.1533 29.7184C24.365 27.2434 24.805 28.215 24.805 28.215Z" fill="currentColor" stroke="currentColor" stroke-miterlimit="10"/>
<path d="M49.7567 5.15166C43.3033 4.05165 42.5333 10.3767 39.1417 10.6517C37.5862 10.7098 36.0602 10.2163 34.8333 9.25832L33.2383 13.97C33.2383 13.97 35.1633 15.8033 35.2917 17.0317C35.42 18.26 34.2467 22.6783 36.0067 26.015C37.7667 29.3517 40.3333 31.7167 40.8833 34.1733C41.4333 36.63 41.0117 37.51 42.295 43.1567C42.8969 46.265 44.2151 49.1901 46.145 51.7H49.8117L49.7567 5.15166Z" fill="currentColor"/>
<path d="M25.3305 41.0179C28.5719 39.5119 29.5465 34.7329 27.5072 30.3437C25.4679 25.9544 21.187 23.6171 17.9456 25.1231C14.7042 26.6291 13.7296 31.4081 15.7689 35.7974C17.8082 40.1866 22.0891 42.5239 25.3305 41.0179Z" fill="currentColor"/>
<path d="M15.3083 19.1033C17.1417 20.68 18.1867 21.6883 19.3233 22.77C18.5756 22.6991 17.8215 22.7975 17.117 23.0577C16.4124 23.318 15.7755 23.7334 15.2533 24.2733C14.3696 25.0387 13.6574 25.9821 13.1633 27.0417C11.1419 24.8763 9.37072 22.4901 7.88334 19.9283C0.513344 9.16667 10.5783 2.09 22.2017 4.16167C27.0883 5.30167 31.7445 7.26709 35.97 9.97333L33.8067 14.6667C30.5359 11.8093 26.6537 9.73962 22.4583 8.61667C14.4467 6.655 6.63668 11.495 15.3083 19.1033Z" fill="currentColor"/>
</svg>
