<svg width="55" height="55" viewBox="0 0 55 55" fill="none" xmlns="http://www.w3.org/2000/svg">
<g clip-path="url(#clip0_1116_9758)">
<path d="M41.2049 22.3474C41.2049 22.3474 41.1876 22.3474 41.1702 22.33C41.1355 21.948 40.5969 16.1306 39.3288 13.3696C39.3114 13.3175 39.2766 13.2654 39.2245 13.2307C38.1301 12.3103 37.3136 12.6923 36.8619 12.9007C36.7924 12.9354 36.6882 12.9702 36.7229 12.9875C36.0281 12.7792 35.42 12.9528 35.0726 13.4564C34.7252 13.9253 34.7078 14.6372 34.9684 15.245C34.343 15.6444 34.2214 16.1654 34.204 16.4606C34.1866 16.8426 34.3256 17.2246 34.5688 17.5199C34.3256 17.7456 34.1693 18.0755 34.1693 18.4402C34.1693 18.8917 34.4125 19.4648 35.1073 19.7947C35.0031 19.9162 34.9162 20.0899 34.951 20.2809C34.9684 20.4372 35.0552 20.5588 35.1942 20.6803C35.2289 20.9582 35.3506 21.3055 35.6459 21.6007C36.1497 22.0695 36.9488 22.2258 38.0432 22.0695C38.3733 22.5731 39.1029 23.3198 39.7457 23.5282C39.8847 23.5803 40.0236 23.5977 40.1626 23.5977C40.5969 23.5977 40.9965 23.3719 41.3092 22.9204C41.4308 22.7468 41.3787 22.5037 41.2049 22.3821V22.3474Z" fill="currentColor"/>
<path d="M30.6601 24.2055C30.608 24.327 30.5732 24.6743 30.5559 24.7785C30.5385 24.8306 29.8957 26.324 30.608 31.412C30.6427 31.6204 30.4864 31.794 30.2953 31.8288C30.2779 31.8288 30.2605 31.8288 30.2432 31.8288C30.0694 31.8288 29.8957 31.6899 29.8784 31.5162C29.1314 26.0809 29.8784 24.709 29.8957 24.4833C29.8957 24.4138 29.9478 24.3096 30 24.2055C30 24.2055 30.0173 24.1707 30 24.136C29.9826 24.1013 28.089 24.0665 28.089 24.0665C27.6547 24.0665 27.1336 24.0665 26.4734 24.0318C22.4257 23.8061 20.8796 25.612 20.4453 26.2893C20.2368 26.3935 20.2368 26.7234 20.2368 27.4875C20.2368 28.8246 20.3758 32.2803 21.6961 35.3886C23.277 39.1048 26.0565 41.0844 29.7394 41.0844C33.8913 41.0844 39.0334 38.688 39.9368 27.3138C39.9368 27.1228 39.9542 26.9665 39.9715 26.8797C40.0236 26.7755 40.041 26.6539 39.9889 26.5498C39.9889 26.515 39.9542 26.4803 39.9194 26.4456C39.294 25.2821 36.2365 23.8582 33.596 23.8582C32.5189 23.8582 31.5982 24.0318 30.938 24.1707C30.938 24.1707 30.6948 24.1534 30.6601 24.2055Z" fill="currentColor"/>
<path d="M29.4093 43.8281C17.4573 43.8281 16.7451 26.324 16.7451 26.1504C16.7451 25.9246 16.9188 25.7162 17.1446 25.7162C17.4052 25.7162 17.5789 25.8899 17.5789 26.133C17.5789 26.3066 18.2564 42.9946 29.4093 42.9946C40.5622 42.9946 41.7608 31.6899 42.3515 26.2546L42.3862 25.9941C42.4036 25.7683 42.5947 25.5773 42.8553 25.6294C43.0811 25.6468 43.2548 25.8552 43.2201 26.0983L43.1854 26.3587C42.6121 31.5857 41.2918 43.8455 29.4093 43.8455V43.8281Z" fill="currentColor"/>
<path d="M43.1852 24.0665C42.8725 24.0665 42.5945 23.8234 42.5424 23.5109C41.0832 13.1959 38.929 8.17739 35.9584 8.17739C32.9878 8.17739 32.7967 9.44505 32.6925 11.0426C32.5882 12.3277 32.4666 14.0989 30.0345 14.0989C27.9151 14.0989 27.7067 12.4666 27.5503 11.2684C27.3245 9.60134 27.1334 8.17739 23.6763 8.17739C21.2269 8.17739 19.177 13.2133 17.6309 23.1462C17.5787 23.5109 17.2487 23.754 16.8839 23.6845C16.5364 23.6324 16.2932 23.3025 16.3453 22.9378C18.0825 11.8241 20.3409 6.875 23.6937 6.875C28.2973 6.875 28.6274 9.41032 28.8532 11.0947C29.0443 12.4666 29.1659 12.7965 30.0519 12.7965C31.2158 12.7965 31.3027 12.345 31.4069 10.9558C31.5285 9.32349 31.7022 6.875 35.9758 6.875C39.815 6.875 42.2297 11.9456 43.828 23.3198C43.8801 23.6845 43.6369 24.0144 43.272 24.0492C43.2373 24.0492 43.2026 24.0492 43.1852 24.0492V24.0665Z" fill="currentColor"/>
</g>
<defs>
<clipPath id="clip0_1116_9758">
<rect width="27.5" height="36.9531" fill="currentColor" transform="translate(16.3281 6.875)"/>
</clipPath>
</defs>
</svg>
