<svg width="55" height="54" viewBox="0 0 55 54" fill="none" xmlns="http://www.w3.org/2000/svg">
<g clip-path="url(#clip0_1116_9741)">
<g clip-path="url(#clip1_1116_9741)">
<path d="M23.0198 19.1899C23.0198 19.1899 21.4922 19.7637 21.3564 21.2996C21.2207 22.8355 21.7808 26.0928 22.239 27.1393C22.6973 28.1857 22.7652 28.5063 22.4936 28.8777C22.2221 29.249 21.7299 30.1097 21.5771 31.4768C21.4243 32.8439 21.5262 33.7384 22.1712 34.8355C22.8161 35.9325 24.7511 37.5865 25.4809 38.0591C26.2108 38.5317 26.3805 38.7848 27.1443 38.9199C27.9081 39.0549 32.1514 39.7806 32.1514 39.9663C32.1514 40.1519 32.0325 42.2785 32.1514 42.4473C32.2702 42.6161 32.5417 42.3966 32.372 43.1393C32.2023 43.8819 31.3197 44.6076 30.2673 44.7258C29.215 44.8439 29.4187 45.9409 27.8741 46.5317C26.3296 47.1224 24.3607 48.4895 22.6973 47.7975C21.034 47.1055 21.0849 46.4304 20.8982 45.8566C20.7115 45.2827 21.0849 43.6625 20.2871 42.5823C19.4894 41.5021 18.3861 40.135 18.505 39.4768C18.6238 38.8186 18.6407 38.4979 19.3366 39.0042C20.0325 39.5106 22.9689 40.3713 22.9689 40.3713C22.9689 40.3713 22.0693 43.3418 23.8854 44.135C25.7016 44.9283 27.7383 44.2363 28.2475 43.7806C28.7567 43.3249 29.6733 42.5992 29.4187 42.0422C29.1641 41.4853 29.2489 40.962 27.3649 40.5401C25.4809 40.1182 23.2744 40.3545 21.2885 39.4093C19.3027 38.4642 17.232 37.3671 16.7737 36.1688C16.3154 34.9705 16.1627 33.0802 15.8402 32C15.5177 30.9199 14.2787 28.8777 13.5488 28.6414C12.819 28.4051 10.6294 28.3207 10.1202 27.4093C9.61104 26.4979 8.74541 24.2194 9.08487 21.8228C9.42434 19.4262 9.81472 17.1983 11.3253 16.4557C12.8359 15.7131 15.6704 16 17.86 16.3882C20.0495 16.7764 20.8642 17.3165 21.4922 17.7722C22.1202 18.2279 23.0538 18.8355 23.0198 19.1899Z" fill="currentColor"/>
<path d="M42.9802 19.1899C42.9802 19.1899 44.5078 19.7637 44.6435 21.2996C44.7793 22.8354 44.2192 26.0928 43.7609 27.1392C43.3027 28.1857 43.2348 28.5063 43.5063 28.8776C43.7779 29.2489 44.2701 30.1097 44.4229 31.4768C44.5757 32.8439 44.4738 33.7384 43.8288 34.8354C43.1839 35.9325 41.2489 37.5865 40.5191 38.0591C39.7892 38.5316 39.6195 38.7848 38.8557 38.9198C38.0919 39.0549 33.8486 39.7806 33.8486 39.9662C33.8486 40.1519 33.9674 42.2785 33.8486 42.4473C33.7298 42.616 33.4583 42.3966 33.628 43.1392C33.7977 43.8819 34.6803 44.6076 35.7327 44.7257C36.785 44.8439 36.5813 45.9409 38.1259 46.5316C39.6704 47.1224 41.6393 48.4895 43.3027 47.7975C44.966 47.1055 44.9151 46.4304 45.1018 45.8565C45.2885 45.2827 44.9151 43.6624 45.7128 42.5823C46.5106 41.5021 47.6138 40.135 47.495 39.4768C47.3762 38.8186 47.3592 38.4979 46.6633 39.0042C45.9674 39.5106 43.0311 40.3713 43.0311 40.3713C43.0311 40.3713 43.9307 43.3418 42.1145 44.135C40.2984 44.9283 38.2616 44.2363 37.7525 43.7806C37.2433 43.3249 36.3267 42.5992 36.5813 42.0422C36.8359 41.4852 36.751 40.962 38.6351 40.5401C40.5191 40.1181 42.7256 40.3544 44.7114 39.4093C46.6973 38.4641 48.768 37.3671 49.2263 36.1688C49.6846 34.9705 49.8373 33.0802 50.1598 32C50.4823 30.9198 51.7213 28.8776 52.4512 28.6414C53.181 28.4051 55.3706 28.3207 55.8798 27.4093C56.3889 26.4979 57.2376 24.2025 56.8981 21.789C56.5587 19.3755 56.1683 17.1646 54.6407 16.4388C53.1131 15.7131 50.2956 15.9662 48.1061 16.3713C45.9165 16.7764 45.1018 17.2996 44.4738 17.7553C43.8458 18.211 42.9123 18.8186 42.9462 19.173L42.9802 19.1899Z" fill="currentColor"/>
<path d="M24.2249 19.3249C24.2249 19.3249 23.7327 19.2067 23.4271 19.9325C23.1216 20.6582 22.3409 22.1097 22.4766 23.8143C22.6124 25.519 23.3423 26.8354 23.1895 27.8312C23.0368 28.827 22.867 29.3333 22.6803 29.4515C22.4936 29.5696 22.1881 29.9409 23.0537 30.1434C23.9194 30.346 24.4286 29.9747 24.802 29.7553C25.1754 29.5358 26.041 29.6709 26.669 30.7342C27.297 31.7974 28.3833 34.4641 29.3168 34.7173C30.2503 34.9704 31.6591 34.8861 31.7779 35.5612C31.8967 36.2363 31.3706 36.4894 31.3027 36.5232C31.2348 36.5569 30.2164 36.8607 30.3352 37.232C30.454 37.6034 31.4045 37.789 31.6082 38.3797C31.8119 38.9704 32.1853 39.2911 32.4399 39.5949C32.6945 39.8987 32.389 41.9747 32.6266 42.0591C32.8642 42.1434 33.4922 42.2616 33.594 41.8903C33.6959 41.519 33.3394 39.6962 33.594 39.6287C33.8486 39.5612 34.3069 39.1223 34.4597 38.7173C34.6124 38.3122 34.9689 37.8565 35.6478 37.6034C36.3267 37.3502 35.6138 36.9114 34.867 36.4894C34.1202 36.0675 34.2051 35.3924 34.6803 35.2067C35.1556 35.0211 36.785 35.1055 37.4469 34.1772C38.1089 33.2489 39.0424 30.8523 39.7044 30.1941C40.3663 29.5358 41.0622 29.3671 41.6563 29.9409C42.2503 30.5148 43.3706 30.1434 43.3875 29.9409C43.4045 29.7384 42.2673 27.7975 42.4031 27.0886C42.5389 26.3797 43.2857 24.1181 43.2348 23.173C43.1839 22.2278 42.8614 19.8987 42.3691 19.4768C41.8769 19.0548 41.1641 20.135 40.3154 20.7426C39.4667 21.3502 38.9066 21.9578 37.1245 21.4177C35.3423 20.8776 34.1032 21.097 32.6775 21.0464C31.2517 20.9958 28.57 21.5527 27.942 21.519C27.314 21.4852 25.7694 20.692 25.2602 20.2194C24.751 19.7468 24.6492 19.4937 24.2418 19.3249H24.2249Z" fill="currentColor"/>
</g>
</g>
<defs>
<clipPath id="clip0_1116_9741">
<rect width="55" height="54" fill="currentColor"/>
</clipPath>
<clipPath id="clip1_1116_9741">
<rect width="48" height="32" fill="currentColor" transform="translate(9 16)"/>
</clipPath>
</defs>
</svg>
