<svg width="24" height="24" viewBox="0 0 24 24" fill="none" xmlns="http://www.w3.org/2000/svg">
<path d="M14.0322 6.93359C14.0149 7.05686 13.9796 7.17379 13.9346 7.27734C13.8596 7.44949 13.7408 7.62396 13.5781 7.75391L13.5059 7.80664C13.3629 7.90147 13.1857 7.94076 13.0713 7.96094C12.9361 7.98477 12.7876 7.99723 12.6484 8C12.5114 8.00272 12.3647 7.99696 12.2354 7.97559C12.2142 7.97209 12.1916 7.96612 12.168 7.96094C12.2102 7.99701 12.2543 8.03673 12.3057 8.08008C12.3883 8.14977 12.4823 8.23033 12.5732 8.31934C12.7321 8.47489 12.9031 8.67639 13.0117 8.93945L13.0537 9.05566L13.0547 9.05664C13.1124 9.23887 13.095 9.4301 13.0039 9.59766C12.9224 9.74759 12.8007 9.84458 12.7021 9.90527C12.509 10.0242 12.2655 10.0899 12.0605 10.1299C11.9047 10.1603 11.739 10.1784 11.5791 10.1924C11.6415 10.2114 11.7084 10.2353 11.7754 10.2627C11.9946 10.3522 12.3005 10.5293 12.4385 10.8848L12.4873 11.0479C12.5422 11.3122 12.4687 11.5495 12.3633 11.7314C12.2606 11.9088 12.1153 12.0568 11.9717 12.1758C11.6839 12.4141 11.3182 12.6042 11.0156 12.7256C10.7222 12.8433 10.5036 12.9071 10.3213 12.9424C10.3149 12.9436 10.3081 12.9432 10.3018 12.9443L10.3467 12.9492C10.4895 12.9747 10.6217 13.0567 10.707 13.1875C10.7804 13.3 10.7956 13.4127 10.7988 13.4766C10.8004 13.5079 10.8003 13.5388 10.7979 13.5684C11.0479 13.0346 11.6193 12.7522 12.1074 12.627C12.6176 12.4961 13.216 12.4869 13.6768 12.6611C14.0263 12.7934 14.4526 12.9791 14.7783 13.3525C15.0748 13.6925 15.248 14.1385 15.2852 14.7207L15.292 14.9785C15.2827 17.5543 15.3285 18.973 15.374 20.0322C15.3792 19.8235 15.3835 19.6088 15.3896 19.3887L15.4854 16.4551C15.5283 15.2714 15.4135 13.9047 15.2578 12.7686C15.1802 12.2023 15.0931 11.6992 15.0127 11.3115C14.9702 11.1064 14.9313 10.9468 14.9004 10.8311L14.832 10.6143C14.6271 10.1752 14.4269 9.65262 14.3389 9.125L14.3076 8.89844C14.2301 8.13004 14.5045 7.55177 14.7949 7.18262C14.6868 7.20556 14.5749 7.2124 14.4609 7.18945C14.2785 7.15268 14.1465 7.05782 14.0586 6.96777C14.0485 6.95739 14.0415 6.94403 14.0322 6.93359ZM10.3076 14.6455C10.2852 14.6713 10.2632 14.6967 10.2402 14.7207C10.2558 14.7292 10.2719 14.7363 10.2861 14.7461C10.2915 14.7111 10.3001 14.678 10.3076 14.6455Z" fill="white" stroke="white"/>
<path d="M13.3056 13.9422C14.8048 18.2124 11.2398 21.2269 7.15974 18.5334C1.82457 15.0116 6.85073 3.72453 12.2946 2.01494C15.8616 0.89421 19.4991 3.93158 19.0756 7.07533C18.8906 8.4449 17.8701 9.56563 16.5349 9.94554C16.5254 9.94934 16.5139 9.95124 16.5044 9.95504" stroke="white" stroke-linecap="round" stroke-linejoin="round"/>
</svg>
