<svg width="24" height="24" viewBox="0 0 24 24" fill="none" xmlns="http://www.w3.org/2000/svg">
<path d="M9.96777 6.93359C9.98507 7.05686 10.0204 7.17379 10.0654 7.27734C10.151 7.47396 10.294 7.67377 10.4941 7.80664C10.6371 7.90147 10.8143 7.94076 10.9287 7.96094C11.0639 7.98477 11.2124 7.99723 11.3516 8C11.4886 8.00272 11.6353 7.99696 11.7646 7.97559C11.7858 7.97209 11.8084 7.96612 11.832 7.96094C11.7898 7.99701 11.7457 8.03673 11.6943 8.08008C11.6117 8.14977 11.5177 8.23033 11.4268 8.31934C11.2453 8.49702 11.0486 8.73471 10.9463 9.05566L10.9453 9.05664C10.8876 9.23887 10.905 9.4301 10.9961 9.59766C11.0776 9.74759 11.1993 9.84458 11.2979 9.90527C11.491 10.0242 11.7345 10.0899 11.9395 10.1299C12.0953 10.1603 12.261 10.1784 12.4209 10.1924C12.3585 10.2114 12.2916 10.2353 12.2246 10.2627C11.9742 10.365 11.6096 10.5813 11.5127 11.0479C11.4578 11.3122 11.5313 11.5495 11.6367 11.7314C11.7394 11.9088 11.8847 12.0568 12.0283 12.1758C12.3161 12.4141 12.6818 12.6042 12.9844 12.7256C13.2778 12.8433 13.4964 12.9071 13.6787 12.9424C13.6851 12.9436 13.6919 12.9432 13.6982 12.9443L13.6533 12.9492C13.5105 12.9747 13.3783 13.0567 13.293 13.1875C13.2196 13.3 13.2044 13.4127 13.2012 13.4766C13.1996 13.5079 13.1997 13.5388 13.2021 13.5684C12.9521 13.0346 12.3807 12.7522 11.8926 12.627C11.3824 12.4961 10.784 12.4869 10.3232 12.6611C9.97372 12.7934 9.54742 12.9791 9.22168 13.3525C8.92519 13.6925 8.75199 14.1385 8.71484 14.7207L8.70801 14.9785C8.71732 17.5543 8.67148 18.973 8.62598 20.0322C8.59951 18.9739 8.56173 17.7632 8.51465 16.4551C8.47167 15.2714 8.58652 13.9047 8.74219 12.7686C8.81978 12.2023 8.90694 11.6992 8.9873 11.3115C9.07233 10.9014 9.14054 10.6731 9.16797 10.6143C9.37293 10.1752 9.57311 9.65262 9.66113 9.125L9.69238 8.89844C9.76986 8.13004 9.49553 7.55177 9.20508 7.18262C9.31319 7.20556 9.42515 7.2124 9.53906 7.18945C9.72147 7.15268 9.85345 7.05782 9.94141 6.96777C9.95154 6.95739 9.95854 6.94403 9.96777 6.93359ZM13.6924 14.6455C13.7148 14.6713 13.7368 14.6967 13.7598 14.7207C13.7442 14.7292 13.7281 14.7363 13.7139 14.7461C13.7085 14.7111 13.6999 14.678 13.6924 14.6455Z" fill="white" stroke="white"/>
<path d="M10.6944 13.9422C9.19516 18.2124 12.7602 21.2269 16.8403 18.5334C22.1754 15.0116 17.1493 3.72453 11.7054 2.01494C8.13842 0.89421 4.5009 3.93158 4.92435 7.07533C5.10938 8.4449 6.12987 9.56563 7.46509 9.94554C7.47463 9.94934 7.48607 9.95124 7.49561 9.95504" stroke="white" stroke-linecap="round" stroke-linejoin="round"/>
</svg>
