<svg width="24" height="24" viewBox="0 0 24 24" fill="none" xmlns="http://www.w3.org/2000/svg">
<g clip-path="url(#clip0_7168_25955)">
<path d="M9.14609 15.8966C9.04882 15.5454 9.34135 15.1276 9.36549 14.5787C9.38962 14.0299 9.26822 13.5462 9.48031 13.371C9.69312 13.195 9.90155 12.3385 9.59805 11.9102C9.29455 11.4819 9.65729 11.2625 9.77942 10.7571C9.90155 10.2517 9.31649 9.96638 9.77942 9.68107C10.2423 9.39577 10.3645 8.53918 10.3403 8.09969C10.3162 7.6602 10.9013 7.19896 10.9013 7.19896C10.9013 7.19896 11.343 7.11528 11.9756 7.11133C11.9836 7.11133 11.991 7.11133 11.999 7.11133C12.007 7.11133 12.0144 7.11133 12.0224 7.11133C12.6557 7.11594 13.0967 7.19896 13.0967 7.19896C13.0967 7.19896 13.6818 7.6602 13.6576 8.09969C13.6335 8.53918 13.7549 9.39577 14.2186 9.68107C14.6815 9.96638 14.0964 10.2523 14.2186 10.7571C14.3407 11.2625 14.7034 11.4819 14.3999 11.9102C14.0964 12.3385 14.3056 13.195 14.5177 13.371C14.7305 13.5469 14.6084 14.0299 14.6325 14.5787C14.6566 15.1276 14.9492 15.5454 14.8519 15.8966C14.7546 16.2478 14.5747 16.7314 14.8716 17.1485C15.1686 17.5656 15.2081 18.2245 14.8716 18.5763C14.5352 18.9275 14.3641 19.3888 14.4372 19.7406C14.5104 20.0925 13.5596 20.3119 13.3402 20.4872C13.3402 20.4872 13.1698 21.0143 13.3644 21.322C13.5596 21.6297 13.096 23.3864 12.6331 23.7158C12.1701 24.0453 12.1752 23.9978 11.9983 23.9978C11.8213 23.9978 11.8264 24.0453 11.3635 23.7158C10.9005 23.3864 10.4369 21.6291 10.6321 21.322C10.8274 21.0143 10.6563 20.4872 10.6563 20.4872C10.4369 20.3112 9.48616 20.0918 9.55929 19.7406C9.63242 19.3894 9.46202 18.9282 9.12488 18.5763C8.78847 18.2251 8.82796 17.5662 9.12488 17.1485C9.4218 16.7314 9.24189 16.2478 9.14463 15.8966H9.14609Z" fill="white"/>
<path d="M8.78648 2.0275C9.17392 1.60049 9.15069 2.07039 9.74313 1.75029C10.3349 1.43019 10.7681 0.384109 11.0415 0.448129C11.2868 0.505747 11.8792 0.597295 11.9988 0.615221C12.1191 0.596655 12.7115 0.505107 12.9561 0.448129C13.2295 0.384109 13.662 1.42955 14.2544 1.74965C14.8469 2.06975 14.8237 1.60049 15.2111 2.02686C15.5986 2.45323 15.6211 3.39304 15.4619 3.77716C15.3027 4.16128 15.4844 4.75859 15.0519 4.80148C14.6193 4.84438 14.141 4.92952 13.9586 5.37766C13.7761 5.8258 13.4734 6.23105 13.1844 6.50889C13.0094 6.67662 12.6049 6.68047 12.3124 6.65742C12.104 6.64077 11.8942 6.64077 11.6858 6.65742C11.3934 6.68047 10.9888 6.67662 10.8139 6.50889C10.5249 6.23169 10.2215 5.8258 10.0397 5.37766C9.85725 4.92952 9.37892 4.84438 8.94637 4.80148C8.51383 4.75859 8.69559 4.16128 8.53638 3.77716C8.37716 3.39304 8.39971 2.45387 8.78716 2.0275H8.78648Z" fill="white"/>
</g>
<defs>
<clipPath id="clip0_7168_25955">
<rect width="24" height="24" fill="white" transform="matrix(-1 0 0 1 24 0)"/>
</clipPath>
</defs>
</svg>
