<svg width="55" height="54" viewBox="0 0 55 54" fill="none" xmlns="http://www.w3.org/2000/svg">
<g clip-path="url(#clip0_1116_9754)">
<path d="M42.4806 50.7924C43.5546 49.738 43.8448 48.3134 43.1288 47.6104C42.4128 46.9075 40.9618 47.1924 39.8879 48.2468C38.814 49.3012 38.5238 50.7259 39.2397 51.4288C39.9557 52.1317 41.4067 51.8468 42.4806 50.7924Z" fill="currentColor"/>
<path d="M52.0117 36.18C51.6295 35.8877 51.145 35.7558 50.6641 35.8131C50.1831 35.8705 49.7449 36.1124 49.445 36.486C48.7079 37.3451 47.8498 38.0966 46.8967 38.718C46.5514 38.9022 46.1702 39.0126 45.7784 39.042C46.129 38.6089 46.4476 38.1518 46.7317 37.674C48.8075 33.4727 49.6093 28.7741 49.0417 24.138C48.9761 23.6606 48.7199 23.2284 48.3297 22.9364C47.9395 22.6444 47.4471 22.5166 46.9609 22.581C46.4746 22.6455 46.0344 22.8969 45.737 23.28C45.4396 23.6632 45.3094 24.1466 45.375 24.624C45.8001 28.2603 45.2634 31.9427 43.8167 35.316C43.0996 34.4315 42.4848 33.4717 41.9834 32.454C41.5624 30.7773 41.4017 29.0478 41.5067 27.324C41.5067 26.8466 41.3135 26.3888 40.9697 26.0512C40.6259 25.7137 40.1596 25.524 39.6734 25.524C39.2026 25.5234 38.7497 25.7007 38.4084 26.019C38.0671 26.3373 37.8636 26.7724 37.84 27.234C37.7133 29.4547 37.9611 31.6806 38.5734 33.822C39.3423 35.4524 40.3153 36.9822 41.47 38.376C40.5167 39.294 39.4534 40.176 38.5 40.95C38.4017 40.4568 38.2732 39.97 38.115 39.492C38.0105 37.8768 37.79 36.2708 37.455 34.686C36.8185 32.6131 35.737 30.6981 34.2834 29.07C33.3879 28.001 32.6191 26.8355 31.9917 25.596C33.9791 24.9329 35.7984 23.8587 37.3267 22.446C39.2546 20.0497 40.7096 17.3209 41.6167 14.4C41.7626 13.9441 41.718 13.45 41.4928 13.0263C41.2676 12.6027 40.8802 12.2842 40.4159 12.141C39.9515 11.9978 39.4482 12.0415 39.0167 12.2627C38.5853 12.4838 38.2609 12.8641 38.115 13.32C37.4037 15.6472 36.294 17.8386 34.8334 19.8C33.9251 20.6528 32.8532 21.3197 31.68 21.762C32.4844 16.9095 33.7929 12.1507 35.585 7.56001C35.7314 7.22571 35.8074 6.86581 35.8086 6.50193C35.8097 6.13805 35.7359 5.77771 35.5916 5.44254C35.4473 5.10737 35.2355 4.80429 34.9689 4.55151C34.7023 4.29874 34.3864 4.10148 34.0402 3.97158C33.694 3.84169 33.3246 3.78185 32.9543 3.79564C32.5839 3.80944 32.2203 3.89659 31.8851 4.05187C31.5499 4.20714 31.2501 4.42734 31.0038 4.69922C30.7575 4.9711 30.5697 5.28907 30.4517 5.63401C30.25 6.17401 29.4067 8.38801 28.5084 11.232C27.8148 10.1982 27.0426 9.21743 26.1984 8.29801C24.3483 6.50594 22.0645 5.20519 19.5617 4.51801C19.09 4.39866 18.5894 4.46816 18.17 4.7112C17.7505 4.95425 17.4466 5.35094 17.325 5.81401C17.2035 6.27708 17.2742 6.76859 17.5218 7.18042C17.7693 7.59225 18.1734 7.89066 18.645 8.01001C20.4513 8.50388 22.1067 9.42473 23.4667 10.692L24.2367 11.592C22.8557 12.0755 21.4107 12.3604 19.9467 12.438C18.0044 12.1279 16.1387 11.4624 14.4467 10.476C14.2385 10.3563 14.0084 10.278 13.7693 10.2458C13.5303 10.2135 13.2872 10.2279 13.0539 10.2881C12.8205 10.3483 12.6016 10.4531 12.4096 10.5966C12.2176 10.74 12.0563 10.9193 11.935 11.124C11.6945 11.5351 11.6289 12.0229 11.7524 12.4812C11.876 12.9396 12.1788 13.3316 12.595 13.572C14.8237 14.9161 17.3283 15.7584 19.9284 16.038C22.0571 15.9209 24.1542 15.4776 26.1434 14.724H26.2534C26.5368 15.2549 26.7878 15.8018 27.005 16.362C26.3487 18.77 26.0038 21.2495 25.9784 23.742C23.5652 22.6119 21.0639 21.6729 18.4984 20.934C14.6042 19.8154 10.5342 19.4066 6.49002 19.728C6.00379 19.7877 5.56162 20.0346 5.26078 20.4143C4.95994 20.7941 4.82508 21.2756 4.88586 21.753C4.94664 22.2304 5.19808 22.6645 5.58487 22.9599C5.97167 23.2553 6.46213 23.3877 6.94836 23.328C10.5011 23.0583 14.074 23.4305 17.49 24.426C18.1317 24.606 18.7367 24.786 19.3234 24.984C16.2075 25.1181 13.1729 26.002 10.4867 27.558C10.1252 27.8406 9.88568 28.2468 9.81616 28.6954C9.74664 29.1439 9.85221 29.6017 10.1117 29.9771C10.3713 30.3525 10.7656 30.6178 11.2159 30.72C11.6661 30.8221 12.1391 30.7536 12.54 30.528C15.9066 28.7596 19.7619 28.0972 23.54 28.638C26.2913 29.1373 28.7406 30.6588 30.3784 32.886C31.1732 33.7683 31.7948 34.7875 32.2117 35.892C32.4925 37.2937 32.6702 38.7133 32.7434 40.14C32.7583 42.1887 33.1884 44.2141 34.0084 46.098C35.0543 47.7485 36.3886 49.2048 37.95 50.4C37.9612 49.8714 38.0806 49.3504 38.301 48.868C38.5215 48.3856 38.8386 47.9516 39.2334 47.592C39.8606 46.9428 40.6829 46.5076 41.58 46.35C40.9286 45.791 40.3161 45.1896 39.7467 44.55C40.4067 44.064 41.305 43.38 42.2767 42.552C43.0238 42.6556 43.7772 42.7097 44.5317 42.714C46.0851 42.7864 47.6281 42.431 48.9867 41.688C50.2724 40.8481 51.4272 39.8295 52.415 38.664C52.6914 38.2802 52.804 37.8055 52.7286 37.3414C52.6532 36.8772 52.3959 36.4604 52.0117 36.18Z" fill="currentColor"/>
</g>
<defs>
<clipPath id="clip0_1116_9754">
<rect width="55" height="54" fill="currentColor"/>
</clipPath>
</defs>
</svg>
