<?xml version="1.0" encoding="UTF-8" standalone="no"?>
<!DOCTYPE svg PUBLIC "-//W3C//DTD SVG 1.1//EN"
 "http://www.w3.org/Graphics/SVG/1.1/DTD/svg11.dtd">
<!-- Generated by graphviz version 2.47.0 (20210316.0004)
 -->
<!-- Title: dependencies Pages: 1 -->
<svg width="2957pt" height="284pt"
 viewBox="0.00 0.00 2957.00 284.00" xmlns="http://www.w3.org/2000/svg" xmlns:xlink="http://www.w3.org/1999/xlink">
<g id="graph0" class="graph" transform="scale(1 1) rotate(0) translate(4 280)">
<title>dependencies</title>
<polygon fill="white" stroke="transparent" points="-4,4 -4,-280 2953,-280 2953,4 -4,4"/>
<text text-anchor="start" x="1453.51" y="-42.4" font-family="Times-12" font-weight="bold" font-size="14.00">Legend</text>
<polygon fill="#ffffb3" stroke="transparent" points="1240.5,-10 1240.5,-30 1260.5,-30 1260.5,-10 1240.5,-10"/>
<text text-anchor="start" x="1264.13" y="-15.4" font-family="Times-12" font-size="14.00"> &#160;Declarations</text>
<polygon fill="#8dd3c7" stroke="transparent" points="1353.5,-10 1353.5,-30 1373.5,-30 1373.5,-10 1353.5,-10"/>
<text text-anchor="start" x="1377.23" y="-15.4" font-family="Times-12" font-size="14.00"> &#160;Module</text>
<polygon fill="#80b1d3" stroke="transparent" points="1439.5,-10 1439.5,-30 1459.5,-30 1459.5,-10 1439.5,-10"/>
<text text-anchor="start" x="1463.28" y="-15.4" font-family="Times-12" font-size="14.00"> &#160;Bootstrap</text>
<polygon fill="#fdb462" stroke="transparent" points="1536.5,-10 1536.5,-30 1556.5,-30 1556.5,-10 1536.5,-10"/>
<text text-anchor="start" x="1560.17" y="-15.4" font-family="Times-12" font-size="14.00"> &#160;Providers</text>
<polygon fill="#fb8072" stroke="transparent" points="1632.5,-10 1632.5,-30 1652.5,-30 1652.5,-10 1632.5,-10"/>
<text text-anchor="start" x="1656.23" y="-15.4" font-family="Times-12" font-size="14.00"> &#160;Exports</text>
<g id="clust1" class="cluster">
<title>cluster_ButtonsModule</title>
<polygon fill="none" stroke="black" stroke-dasharray="1,5" points="8,-70 8,-268 934,-268 934,-70 8,-70"/>
</g>
<g id="clust3" class="cluster">
<title>cluster_ButtonsModule_imports</title>
<polygon fill="none" stroke="black" points="25,-78 25,-130 917,-130 917,-78 25,-78"/>
</g>
<g id="clust4" class="cluster">
<title>cluster_ButtonsModule_exports</title>
<polygon fill="none" stroke="black" points="16,-208 16,-260 926,-260 926,-208 16,-208"/>
</g>
<g id="clust7" class="cluster">
<title>cluster_ExpansionPanelModule</title>
<polygon fill="none" stroke="black" stroke-dasharray="1,5" points="942,-70 942,-268 1663,-268 1663,-70 942,-70"/>
</g>
<g id="clust9" class="cluster">
<title>cluster_ExpansionPanelModule_imports</title>
<polygon fill="none" stroke="black" points="955,-78 955,-130 1650,-130 1650,-78 955,-78"/>
</g>
<g id="clust10" class="cluster">
<title>cluster_ExpansionPanelModule_exports</title>
<polygon fill="none" stroke="black" points="950,-208 950,-260 1655,-260 1655,-208 950,-208"/>
</g>
<g id="clust13" class="cluster">
<title>cluster_IconButtonModule</title>
<polygon fill="none" stroke="black" stroke-dasharray="1,5" points="1671,-70 1671,-268 2056,-268 2056,-70 1671,-70"/>
</g>
<g id="clust15" class="cluster">
<title>cluster_IconButtonModule_imports</title>
<polygon fill="none" stroke="black" points="1682,-78 1682,-130 2045,-130 2045,-78 1682,-78"/>
</g>
<g id="clust16" class="cluster">
<title>cluster_IconButtonModule_exports</title>
<polygon fill="none" stroke="black" points="1679,-208 1679,-260 2048,-260 2048,-208 1679,-208"/>
</g>
<g id="clust19" class="cluster">
<title>cluster_ScrollingModule</title>
<polygon fill="none" stroke="black" stroke-dasharray="1,5" points="2064,-70 2064,-268 2282,-268 2282,-70 2064,-70"/>
</g>
<g id="clust21" class="cluster">
<title>cluster_ScrollingModule_imports</title>
<polygon fill="none" stroke="black" points="2074,-78 2074,-130 2272,-130 2272,-78 2074,-78"/>
</g>
<g id="clust22" class="cluster">
<title>cluster_ScrollingModule_exports</title>
<polygon fill="none" stroke="black" points="2072,-208 2072,-260 2274,-260 2274,-208 2072,-208"/>
</g>
<g id="clust25" class="cluster">
<title>cluster_WorkflowCardModule</title>
<polygon fill="none" stroke="black" stroke-dasharray="1,5" points="2290,-70 2290,-268 2941,-268 2941,-70 2290,-70"/>
</g>
<g id="clust27" class="cluster">
<title>cluster_WorkflowCardModule_imports</title>
<polygon fill="none" stroke="black" points="2304,-78 2304,-130 2928,-130 2928,-78 2304,-78"/>
</g>
<g id="clust28" class="cluster">
<title>cluster_WorkflowCardModule_exports</title>
<polygon fill="none" stroke="black" points="2298,-208 2298,-260 2933,-260 2933,-208 2298,-208"/>
</g>
<!-- ButtonSizeDirective -->
<g id="node1" class="node">
<title>ButtonSizeDirective</title>
<polygon fill="#8dd3c7" stroke="black" points="909.3,-122 906.3,-126 885.3,-126 882.3,-122 778.7,-122 778.7,-86 909.3,-86 909.3,-122"/>
<text text-anchor="middle" x="844" y="-99.8" font-family="Times,serif" font-size="14.00">ButtonSizeDirective</text>
</g>
<!-- ButtonsModule -->
<g id="node6" class="node">
<title>ButtonsModule</title>
<polygon fill="#8dd3c7" stroke="black" points="583.61,-187 580.61,-191 559.61,-191 556.61,-187 480.39,-187 480.39,-151 583.61,-151 583.61,-187"/>
<text text-anchor="middle" x="532" y="-164.8" font-family="Times,serif" font-size="14.00">ButtonsModule</text>
</g>
<!-- ButtonSizeDirective&#45;&gt;ButtonsModule -->
<g id="edge1" class="edge">
<title>ButtonSizeDirective&#45;&gt;ButtonsModule</title>
<path fill="none" stroke="black" d="M867.47,-122.22C867.47,-142.37 867.47,-172 867.47,-172 867.47,-172 593.68,-172 593.68,-172"/>
<polygon fill="black" stroke="black" points="593.68,-168.5 583.68,-172 593.68,-175.5 593.68,-168.5"/>
</g>
<!-- ButtonVariantDirective -->
<g id="node2" class="node">
<title>ButtonVariantDirective</title>
<polygon fill="#8dd3c7" stroke="black" points="761.18,-122 758.18,-126 737.18,-126 734.18,-122 612.82,-122 612.82,-86 761.18,-86 761.18,-122"/>
<text text-anchor="middle" x="687" y="-99.8" font-family="Times,serif" font-size="14.00">ButtonVariantDirective</text>
</g>
<!-- ButtonVariantDirective&#45;&gt;ButtonsModule -->
<g id="edge2" class="edge">
<title>ButtonVariantDirective&#45;&gt;ButtonsModule</title>
<path fill="none" stroke="black" d="M712.11,-122.22C712.11,-140.83 712.11,-167 712.11,-167 712.11,-167 593.61,-167 593.61,-167"/>
<polygon fill="black" stroke="black" points="593.61,-163.5 583.61,-167 593.61,-170.5 593.61,-163.5"/>
</g>
<!-- CtaButtonDirective -->
<g id="node3" class="node">
<title>CtaButtonDirective</title>
<polygon fill="#8dd3c7" stroke="black" points="594.64,-122 591.64,-126 570.64,-126 567.64,-122 469.36,-122 469.36,-86 594.64,-86 594.64,-122"/>
<text text-anchor="middle" x="532" y="-99.8" font-family="Times,serif" font-size="14.00">CtaButtonDirective</text>
</g>
<!-- CtaButtonDirective&#45;&gt;ButtonsModule -->
<g id="edge3" class="edge">
<title>CtaButtonDirective&#45;&gt;ButtonsModule</title>
<path fill="none" stroke="black" d="M532,-122.11C532,-122.11 532,-140.99 532,-140.99"/>
<polygon fill="black" stroke="black" points="528.5,-140.99 532,-150.99 535.5,-140.99 528.5,-140.99"/>
</g>
<!-- PrimaryButtonVariantDirective -->
<g id="node4" class="node">
<title>PrimaryButtonVariantDirective</title>
<polygon fill="#8dd3c7" stroke="black" points="451.78,-122 448.78,-126 427.78,-126 424.78,-122 258.22,-122 258.22,-86 451.78,-86 451.78,-122"/>
<text text-anchor="middle" x="355" y="-99.8" font-family="Times,serif" font-size="14.00">PrimaryButtonVariantDirective</text>
</g>
<!-- PrimaryButtonVariantDirective&#45;&gt;ButtonsModule -->
<g id="edge4" class="edge">
<title>PrimaryButtonVariantDirective&#45;&gt;ButtonsModule</title>
<path fill="none" stroke="black" d="M385.71,-122.01C385.71,-138.05 385.71,-159 385.71,-159 385.71,-159 470.42,-159 470.42,-159"/>
<polygon fill="black" stroke="black" points="470.42,-162.5 480.42,-159 470.42,-155.5 470.42,-162.5"/>
</g>
<!-- SecondaryButtonVariantDirective -->
<g id="node5" class="node">
<title>SecondaryButtonVariantDirective</title>
<polygon fill="#8dd3c7" stroke="black" points="240.77,-122 237.77,-126 216.77,-126 213.77,-122 33.23,-122 33.23,-86 240.77,-86 240.77,-122"/>
<text text-anchor="middle" x="137" y="-99.8" font-family="Times,serif" font-size="14.00">SecondaryButtonVariantDirective</text>
</g>
<!-- SecondaryButtonVariantDirective&#45;&gt;ButtonsModule -->
<g id="edge5" class="edge">
<title>SecondaryButtonVariantDirective&#45;&gt;ButtonsModule</title>
<path fill="none" stroke="black" d="M167.38,-122.27C167.38,-140.56 167.38,-166 167.38,-166 167.38,-166 470.15,-166 470.15,-166"/>
<polygon fill="black" stroke="black" points="470.15,-169.5 480.15,-166 470.15,-162.5 470.15,-169.5"/>
</g>
<!-- ButtonSizeDirective  -->
<g id="node7" class="node">
<title>ButtonSizeDirective </title>
<polygon fill="#fb8072" stroke="black" points="917.8,-252 784.2,-252 784.2,-216 917.8,-216 917.8,-252"/>
<text text-anchor="middle" x="851" y="-229.8" font-family="Times,serif" font-size="14.00">ButtonSizeDirective </text>
</g>
<!-- ButtonsModule&#45;&gt;ButtonSizeDirective  -->
<g id="edge6" class="edge">
<title>ButtonsModule&#45;&gt;ButtonSizeDirective </title>
<path fill="none" stroke="black" stroke-dasharray="5,2" d="M583.85,-177C668.19,-177 825.78,-177 825.78,-177 825.78,-177 825.78,-205.96 825.78,-205.96"/>
<polygon fill="black" stroke="black" points="822.28,-205.96 825.78,-215.96 829.28,-205.96 822.28,-205.96"/>
</g>
<!-- ButtonVariantDirective  -->
<g id="node8" class="node">
<title>ButtonVariantDirective </title>
<polygon fill="#fb8072" stroke="black" points="765.68,-252 614.32,-252 614.32,-216 765.68,-216 765.68,-252"/>
<text text-anchor="middle" x="690" y="-229.8" font-family="Times,serif" font-size="14.00">ButtonVariantDirective </text>
</g>
<!-- ButtonsModule&#45;&gt;ButtonVariantDirective  -->
<g id="edge7" class="edge">
<title>ButtonsModule&#45;&gt;ButtonVariantDirective </title>
<path fill="none" stroke="black" stroke-dasharray="5,2" d="M583.83,-182C620.48,-182 663.14,-182 663.14,-182 663.14,-182 663.14,-205.81 663.14,-205.81"/>
<polygon fill="black" stroke="black" points="659.64,-205.81 663.14,-215.81 666.64,-205.81 659.64,-205.81"/>
</g>
<!-- CtaButtonDirective  -->
<g id="node9" class="node">
<title>CtaButtonDirective </title>
<polygon fill="#fb8072" stroke="black" points="596.64,-252 467.36,-252 467.36,-216 596.64,-216 596.64,-252"/>
<text text-anchor="middle" x="532" y="-229.8" font-family="Times,serif" font-size="14.00">CtaButtonDirective </text>
</g>
<!-- ButtonsModule&#45;&gt;CtaButtonDirective  -->
<g id="edge8" class="edge">
<title>ButtonsModule&#45;&gt;CtaButtonDirective </title>
<path fill="none" stroke="black" stroke-dasharray="5,2" d="M532,-187.11C532,-187.11 532,-205.99 532,-205.99"/>
<polygon fill="black" stroke="black" points="528.5,-205.99 532,-215.99 535.5,-205.99 528.5,-205.99"/>
</g>
<!-- PrimaryButtonVariantDirective  -->
<g id="node10" class="node">
<title>PrimaryButtonVariantDirective </title>
<polygon fill="#fb8072" stroke="black" points="449.28,-252 252.72,-252 252.72,-216 449.28,-216 449.28,-252"/>
<text text-anchor="middle" x="351" y="-229.8" font-family="Times,serif" font-size="14.00">PrimaryButtonVariantDirective </text>
</g>
<!-- ButtonsModule&#45;&gt;PrimaryButtonVariantDirective  -->
<g id="edge9" class="edge">
<title>ButtonsModule&#45;&gt;PrimaryButtonVariantDirective </title>
<path fill="none" stroke="black" stroke-dasharray="5,2" d="M480.37,-180C418.2,-180 322.04,-180 322.04,-180 322.04,-180 322.04,-205.72 322.04,-205.72"/>
<polygon fill="black" stroke="black" points="318.54,-205.72 322.04,-215.72 325.54,-205.72 318.54,-205.72"/>
</g>
<!-- SecondaryButtonVariantDirective  -->
<g id="node11" class="node">
<title>SecondaryButtonVariantDirective </title>
<polygon fill="#fb8072" stroke="black" points="234.27,-252 23.73,-252 23.73,-216 234.27,-216 234.27,-252"/>
<text text-anchor="middle" x="129" y="-229.8" font-family="Times,serif" font-size="14.00">SecondaryButtonVariantDirective </text>
</g>
<!-- ButtonsModule&#45;&gt;SecondaryButtonVariantDirective  -->
<g id="edge10" class="edge">
<title>ButtonsModule&#45;&gt;SecondaryButtonVariantDirective </title>
<path fill="none" stroke="black" stroke-dasharray="5,2" d="M480.36,-173C365.8,-173 100.37,-173 100.37,-173 100.37,-173 100.37,-205.7 100.37,-205.7"/>
<polygon fill="black" stroke="black" points="96.87,-205.7 100.37,-215.7 103.87,-205.7 96.87,-205.7"/>
</g>
<!-- ExpansionPanelActionsComponent -->
<g id="node12" class="node">
<title>ExpansionPanelActionsComponent</title>
<polygon fill="#8dd3c7" stroke="black" points="1641.58,-122 1638.58,-126 1617.58,-126 1614.58,-122 1426.42,-122 1426.42,-86 1641.58,-86 1641.58,-122"/>
<text text-anchor="middle" x="1534" y="-99.8" font-family="Times,serif" font-size="14.00">ExpansionPanelActionsComponent</text>
</g>
<!-- ExpansionPanelModule -->
<g id="node15" class="node">
<title>ExpansionPanelModule</title>
<polygon fill="#8dd3c7" stroke="black" points="1397.75,-187 1394.75,-191 1373.75,-191 1370.75,-187 1248.25,-187 1248.25,-151 1397.75,-151 1397.75,-187"/>
<text text-anchor="middle" x="1323" y="-164.8" font-family="Times,serif" font-size="14.00">ExpansionPanelModule</text>
</g>
<!-- ExpansionPanelActionsComponent&#45;&gt;ExpansionPanelModule -->
<g id="edge11" class="edge">
<title>ExpansionPanelActionsComponent&#45;&gt;ExpansionPanelModule</title>
<path fill="none" stroke="black" d="M1570.6,-122.02C1570.6,-139.37 1570.6,-163 1570.6,-163 1570.6,-163 1407.96,-163 1407.96,-163"/>
<polygon fill="black" stroke="black" points="1407.96,-159.5 1397.96,-163 1407.96,-166.5 1407.96,-159.5"/>
</g>
<!-- ExpansionPanelComponent -->
<g id="node13" class="node">
<title>ExpansionPanelComponent</title>
<polygon fill="#8dd3c7" stroke="black" points="1408.54,-122 1405.54,-126 1384.54,-126 1381.54,-122 1237.46,-122 1237.46,-86 1408.54,-86 1408.54,-122"/>
<text text-anchor="middle" x="1323" y="-99.8" font-family="Times,serif" font-size="14.00">ExpansionPanelComponent</text>
</g>
<!-- ExpansionPanelComponent&#45;&gt;ExpansionPanelModule -->
<g id="edge12" class="edge">
<title>ExpansionPanelComponent&#45;&gt;ExpansionPanelModule</title>
<path fill="none" stroke="black" d="M1323,-122.11C1323,-122.11 1323,-140.99 1323,-140.99"/>
<polygon fill="black" stroke="black" points="1319.5,-140.99 1323,-150.99 1326.5,-140.99 1319.5,-140.99"/>
</g>
<!-- ExpansionPanelHeaderContentComponent -->
<g id="node14" class="node">
<title>ExpansionPanelHeaderContentComponent</title>
<polygon fill="#8dd3c7" stroke="black" points="1219.28,-122 1216.28,-126 1195.28,-126 1192.28,-122 962.72,-122 962.72,-86 1219.28,-86 1219.28,-122"/>
<text text-anchor="middle" x="1091" y="-99.8" font-family="Times,serif" font-size="14.00">ExpansionPanelHeaderContentComponent</text>
</g>
<!-- ExpansionPanelHeaderContentComponent&#45;&gt;ExpansionPanelModule -->
<g id="edge13" class="edge">
<title>ExpansionPanelHeaderContentComponent&#45;&gt;ExpansionPanelModule</title>
<path fill="none" stroke="black" d="M1132.88,-122.24C1132.88,-137.57 1132.88,-157 1132.88,-157 1132.88,-157 1238.13,-157 1238.13,-157"/>
<polygon fill="black" stroke="black" points="1238.13,-160.5 1248.13,-157 1238.13,-153.5 1238.13,-160.5"/>
</g>
<!-- ExpansionPanelActionsComponent  -->
<g id="node16" class="node">
<title>ExpansionPanelActionsComponent </title>
<polygon fill="#fb8072" stroke="black" points="1647.08,-252 1428.92,-252 1428.92,-216 1647.08,-216 1647.08,-252"/>
<text text-anchor="middle" x="1538" y="-229.8" font-family="Times,serif" font-size="14.00">ExpansionPanelActionsComponent </text>
</g>
<!-- ExpansionPanelModule&#45;&gt;ExpansionPanelActionsComponent  -->
<g id="edge14" class="edge">
<title>ExpansionPanelModule&#45;&gt;ExpansionPanelActionsComponent </title>
<path fill="none" stroke="black" stroke-dasharray="5,2" d="M1397.92,-175C1446.06,-175 1499.65,-175 1499.65,-175 1499.65,-175 1499.65,-205.98 1499.65,-205.98"/>
<polygon fill="black" stroke="black" points="1496.15,-205.98 1499.65,-215.98 1503.15,-205.98 1496.15,-205.98"/>
</g>
<!-- ExpansionPanelComponent  -->
<g id="node17" class="node">
<title>ExpansionPanelComponent </title>
<polygon fill="#fb8072" stroke="black" points="1410.54,-252 1235.46,-252 1235.46,-216 1410.54,-216 1410.54,-252"/>
<text text-anchor="middle" x="1323" y="-229.8" font-family="Times,serif" font-size="14.00">ExpansionPanelComponent </text>
</g>
<!-- ExpansionPanelModule&#45;&gt;ExpansionPanelComponent  -->
<g id="edge15" class="edge">
<title>ExpansionPanelModule&#45;&gt;ExpansionPanelComponent </title>
<path fill="none" stroke="black" stroke-dasharray="5,2" d="M1323,-187.11C1323,-187.11 1323,-205.99 1323,-205.99"/>
<polygon fill="black" stroke="black" points="1319.5,-205.99 1323,-215.99 1326.5,-205.99 1319.5,-205.99"/>
</g>
<!-- ExpansionPanelHeaderContentComponent  -->
<g id="node18" class="node">
<title>ExpansionPanelHeaderContentComponent </title>
<polygon fill="#fb8072" stroke="black" points="1217.78,-252 958.22,-252 958.22,-216 1217.78,-216 1217.78,-252"/>
<text text-anchor="middle" x="1088" y="-229.8" font-family="Times,serif" font-size="14.00">ExpansionPanelHeaderContentComponent </text>
</g>
<!-- ExpansionPanelModule&#45;&gt;ExpansionPanelHeaderContentComponent  -->
<g id="edge16" class="edge">
<title>ExpansionPanelModule&#45;&gt;ExpansionPanelHeaderContentComponent </title>
<path fill="none" stroke="black" stroke-dasharray="5,2" d="M1248.18,-162C1166.71,-162 1047.87,-162 1047.87,-162 1047.87,-162 1047.87,-205.83 1047.87,-205.83"/>
<polygon fill="black" stroke="black" points="1044.37,-205.83 1047.87,-215.83 1051.37,-205.83 1044.37,-205.83"/>
</g>
<!-- IconButtonSizeDirective -->
<g id="node19" class="node">
<title>IconButtonSizeDirective</title>
<polygon fill="#8dd3c7" stroke="black" points="2036.68,-122 2033.68,-126 2012.68,-126 2009.68,-122 1881.32,-122 1881.32,-86 2036.68,-86 2036.68,-122"/>
<text text-anchor="middle" x="1959" y="-99.8" font-family="Times,serif" font-size="14.00">IconButtonSizeDirective</text>
</g>
<!-- IconButtonModule -->
<g id="node21" class="node">
<title>IconButtonModule</title>
<polygon fill="#8dd3c7" stroke="black" points="1838.04,-187 1835.04,-191 1814.04,-191 1811.04,-187 1715.96,-187 1715.96,-151 1838.04,-151 1838.04,-187"/>
<text text-anchor="middle" x="1777" y="-164.8" font-family="Times,serif" font-size="14.00">IconButtonModule</text>
</g>
<!-- IconButtonSizeDirective&#45;&gt;IconButtonModule -->
<g id="edge17" class="edge">
<title>IconButtonSizeDirective&#45;&gt;IconButtonModule</title>
<path fill="none" stroke="black" d="M1984.95,-122.02C1984.95,-139.37 1984.95,-163 1984.95,-163 1984.95,-163 1848.27,-163 1848.27,-163"/>
<polygon fill="black" stroke="black" points="1848.27,-159.5 1838.27,-163 1848.27,-166.5 1848.27,-159.5"/>
</g>
<!-- IconButtonVariantDirective -->
<g id="node20" class="node">
<title>IconButtonVariantDirective</title>
<polygon fill="#8dd3c7" stroke="black" points="1863.55,-122 1860.55,-126 1839.55,-126 1836.55,-122 1690.45,-122 1690.45,-86 1863.55,-86 1863.55,-122"/>
<text text-anchor="middle" x="1777" y="-99.8" font-family="Times,serif" font-size="14.00">IconButtonVariantDirective</text>
</g>
<!-- IconButtonVariantDirective&#45;&gt;IconButtonModule -->
<g id="edge18" class="edge">
<title>IconButtonVariantDirective&#45;&gt;IconButtonModule</title>
<path fill="none" stroke="black" d="M1777,-122.11C1777,-122.11 1777,-140.99 1777,-140.99"/>
<polygon fill="black" stroke="black" points="1773.5,-140.99 1777,-150.99 1780.5,-140.99 1773.5,-140.99"/>
</g>
<!-- IconButtonSizeDirective  -->
<g id="node22" class="node">
<title>IconButtonSizeDirective </title>
<polygon fill="#fb8072" stroke="black" points="2040.18,-252 1881.82,-252 1881.82,-216 2040.18,-216 2040.18,-252"/>
<text text-anchor="middle" x="1961" y="-229.8" font-family="Times,serif" font-size="14.00">IconButtonSizeDirective </text>
</g>
<!-- IconButtonModule&#45;&gt;IconButtonSizeDirective  -->
<g id="edge19" class="edge">
<title>IconButtonModule&#45;&gt;IconButtonSizeDirective </title>
<path fill="none" stroke="black" stroke-dasharray="5,2" d="M1838.33,-175C1882.12,-175 1933.3,-175 1933.3,-175 1933.3,-175 1933.3,-205.98 1933.3,-205.98"/>
<polygon fill="black" stroke="black" points="1929.8,-205.98 1933.3,-215.98 1936.8,-205.98 1929.8,-205.98"/>
</g>
<!-- IconButtonVariantDirective  -->
<g id="node23" class="node">
<title>IconButtonVariantDirective </title>
<polygon fill="#fb8072" stroke="black" points="1863.05,-252 1686.95,-252 1686.95,-216 1863.05,-216 1863.05,-252"/>
<text text-anchor="middle" x="1775" y="-229.8" font-family="Times,serif" font-size="14.00">IconButtonVariantDirective </text>
</g>
<!-- IconButtonModule&#45;&gt;IconButtonVariantDirective  -->
<g id="edge20" class="edge">
<title>IconButtonModule&#45;&gt;IconButtonVariantDirective </title>
<path fill="none" stroke="black" stroke-dasharray="5,2" d="M1777,-187.11C1777,-187.11 1777,-205.99 1777,-205.99"/>
<polygon fill="black" stroke="black" points="1773.5,-205.99 1777,-215.99 1780.5,-205.99 1773.5,-205.99"/>
</g>
<!-- ScrollOverflowFadeDirective -->
<g id="node24" class="node">
<title>ScrollOverflowFadeDirective</title>
<polygon fill="#8dd3c7" stroke="black" points="2264.37,-122 2261.37,-126 2240.37,-126 2237.37,-122 2081.63,-122 2081.63,-86 2264.37,-86 2264.37,-122"/>
<text text-anchor="middle" x="2173" y="-99.8" font-family="Times,serif" font-size="14.00">ScrollOverflowFadeDirective</text>
</g>
<!-- ScrollingModule -->
<g id="node25" class="node">
<title>ScrollingModule</title>
<polygon fill="#8dd3c7" stroke="black" points="2228.38,-187 2225.38,-191 2204.38,-191 2201.38,-187 2117.62,-187 2117.62,-151 2228.38,-151 2228.38,-187"/>
<text text-anchor="middle" x="2173" y="-164.8" font-family="Times,serif" font-size="14.00">ScrollingModule</text>
</g>
<!-- ScrollOverflowFadeDirective&#45;&gt;ScrollingModule -->
<g id="edge21" class="edge">
<title>ScrollOverflowFadeDirective&#45;&gt;ScrollingModule</title>
<path fill="none" stroke="black" d="M2173,-122.11C2173,-122.11 2173,-140.99 2173,-140.99"/>
<polygon fill="black" stroke="black" points="2169.5,-140.99 2173,-150.99 2176.5,-140.99 2169.5,-140.99"/>
</g>
<!-- ScrollOverflowFadeDirective  -->
<g id="node26" class="node">
<title>ScrollOverflowFadeDirective </title>
<polygon fill="#fb8072" stroke="black" points="2265.87,-252 2080.13,-252 2080.13,-216 2265.87,-216 2265.87,-252"/>
<text text-anchor="middle" x="2173" y="-229.8" font-family="Times,serif" font-size="14.00">ScrollOverflowFadeDirective </text>
</g>
<!-- ScrollingModule&#45;&gt;ScrollOverflowFadeDirective  -->
<g id="edge22" class="edge">
<title>ScrollingModule&#45;&gt;ScrollOverflowFadeDirective </title>
<path fill="none" stroke="black" stroke-dasharray="5,2" d="M2173,-187.11C2173,-187.11 2173,-205.99 2173,-205.99"/>
<polygon fill="black" stroke="black" points="2169.5,-205.99 2173,-215.99 2176.5,-205.99 2169.5,-205.99"/>
</g>
<!-- WorkflowCardActionsComponent -->
<g id="node27" class="node">
<title>WorkflowCardActionsComponent</title>
<polygon fill="#8dd3c7" stroke="black" points="2919.62,-122 2916.62,-126 2895.62,-126 2892.62,-122 2710.38,-122 2710.38,-86 2919.62,-86 2919.62,-122"/>
<text text-anchor="middle" x="2815" y="-99.8" font-family="Times,serif" font-size="14.00">WorkflowCardActionsComponent</text>
</g>
<!-- WorkflowCardModule -->
<g id="node30" class="node">
<title>WorkflowCardModule</title>
<polygon fill="#8dd3c7" stroke="black" points="2681.29,-187 2678.29,-191 2657.29,-191 2654.29,-187 2536.71,-187 2536.71,-151 2681.29,-151 2681.29,-187"/>
<text text-anchor="middle" x="2609" y="-164.8" font-family="Times,serif" font-size="14.00">WorkflowCardModule</text>
</g>
<!-- WorkflowCardActionsComponent&#45;&gt;WorkflowCardModule -->
<g id="edge23" class="edge">
<title>WorkflowCardActionsComponent&#45;&gt;WorkflowCardModule</title>
<path fill="none" stroke="black" d="M2850.35,-122.02C2850.35,-139.37 2850.35,-163 2850.35,-163 2850.35,-163 2691.41,-163 2691.41,-163"/>
<polygon fill="black" stroke="black" points="2691.41,-159.5 2681.41,-163 2691.41,-166.5 2691.41,-159.5"/>
</g>
<!-- WorkflowCardComponent -->
<g id="node28" class="node">
<title>WorkflowCardComponent</title>
<polygon fill="#8dd3c7" stroke="black" points="2692.08,-122 2689.08,-126 2668.08,-126 2665.08,-122 2525.92,-122 2525.92,-86 2692.08,-86 2692.08,-122"/>
<text text-anchor="middle" x="2609" y="-99.8" font-family="Times,serif" font-size="14.00">WorkflowCardComponent</text>
</g>
<!-- WorkflowCardComponent&#45;&gt;WorkflowCardModule -->
<g id="edge24" class="edge">
<title>WorkflowCardComponent&#45;&gt;WorkflowCardModule</title>
<path fill="none" stroke="black" d="M2609,-122.11C2609,-122.11 2609,-140.99 2609,-140.99"/>
<polygon fill="black" stroke="black" points="2605.5,-140.99 2609,-150.99 2612.5,-140.99 2605.5,-140.99"/>
</g>
<!-- WorkflowCardExtraComponent -->
<g id="node29" class="node">
<title>WorkflowCardExtraComponent</title>
<polygon fill="#8dd3c7" stroke="black" points="2508.4,-122 2505.4,-126 2484.4,-126 2481.4,-122 2311.6,-122 2311.6,-86 2508.4,-86 2508.4,-122"/>
<text text-anchor="middle" x="2410" y="-99.8" font-family="Times,serif" font-size="14.00">WorkflowCardExtraComponent</text>
</g>
<!-- WorkflowCardExtraComponent&#45;&gt;WorkflowCardModule -->
<g id="edge25" class="edge">
<title>WorkflowCardExtraComponent&#45;&gt;WorkflowCardModule</title>
<path fill="none" stroke="black" d="M2441.23,-122.02C2441.23,-139.37 2441.23,-163 2441.23,-163 2441.23,-163 2526.39,-163 2526.39,-163"/>
<polygon fill="black" stroke="black" points="2526.39,-166.5 2536.39,-163 2526.39,-159.5 2526.39,-166.5"/>
</g>
<!-- WorkflowCardActionsComponent  -->
<g id="node31" class="node">
<title>WorkflowCardActionsComponent </title>
<polygon fill="#fb8072" stroke="black" points="2924.62,-252 2711.38,-252 2711.38,-216 2924.62,-216 2924.62,-252"/>
<text text-anchor="middle" x="2818" y="-229.8" font-family="Times,serif" font-size="14.00">WorkflowCardActionsComponent </text>
</g>
<!-- WorkflowCardModule&#45;&gt;WorkflowCardActionsComponent  -->
<g id="edge26" class="edge">
<title>WorkflowCardModule&#45;&gt;WorkflowCardActionsComponent </title>
<path fill="none" stroke="black" stroke-dasharray="5,2" d="M2681.4,-175C2728.38,-175 2780.9,-175 2780.9,-175 2780.9,-175 2780.9,-205.98 2780.9,-205.98"/>
<polygon fill="black" stroke="black" points="2777.4,-205.98 2780.9,-215.98 2784.4,-205.98 2777.4,-205.98"/>
</g>
<!-- WorkflowCardComponent  -->
<g id="node32" class="node">
<title>WorkflowCardComponent </title>
<polygon fill="#fb8072" stroke="black" points="2693.58,-252 2524.42,-252 2524.42,-216 2693.58,-216 2693.58,-252"/>
<text text-anchor="middle" x="2609" y="-229.8" font-family="Times,serif" font-size="14.00">WorkflowCardComponent </text>
</g>
<!-- WorkflowCardModule&#45;&gt;WorkflowCardComponent  -->
<g id="edge27" class="edge">
<title>WorkflowCardModule&#45;&gt;WorkflowCardComponent </title>
<path fill="none" stroke="black" stroke-dasharray="5,2" d="M2609,-187.11C2609,-187.11 2609,-205.99 2609,-205.99"/>
<polygon fill="black" stroke="black" points="2605.5,-205.99 2609,-215.99 2612.5,-205.99 2605.5,-205.99"/>
</g>
<!-- WorkflowCardExtraComponent  -->
<g id="node33" class="node">
<title>WorkflowCardExtraComponent </title>
<polygon fill="#fb8072" stroke="black" points="2505.9,-252 2306.1,-252 2306.1,-216 2505.9,-216 2505.9,-252"/>
<text text-anchor="middle" x="2406" y="-229.8" font-family="Times,serif" font-size="14.00">WorkflowCardExtraComponent </text>
</g>
<!-- WorkflowCardModule&#45;&gt;WorkflowCardExtraComponent  -->
<g id="edge28" class="edge">
<title>WorkflowCardModule&#45;&gt;WorkflowCardExtraComponent </title>
<path fill="none" stroke="black" stroke-dasharray="5,2" d="M2536.72,-175C2468.47,-175 2376.52,-175 2376.52,-175 2376.52,-175 2376.52,-205.98 2376.52,-205.98"/>
<polygon fill="black" stroke="black" points="2373.02,-205.98 2376.52,-215.98 2380.02,-205.98 2373.02,-205.98"/>
</g>
</g>
</svg>
