<?xml version="1.0" encoding="UTF-8" standalone="no"?>
<!DOCTYPE svg PUBLIC "-//W3C//DTD SVG 1.1//EN"
 "http://www.w3.org/Graphics/SVG/1.1/DTD/svg11.dtd">
<!-- Generated by graphviz version 2.47.0 (20210316.0004)
 -->
<!-- Title: dependencies Pages: 1 -->
<svg width="2514pt" height="284pt"
 viewBox="0.00 0.00 2514.00 284.00" xmlns="http://www.w3.org/2000/svg" xmlns:xlink="http://www.w3.org/1999/xlink">
<g id="graph0" class="graph" transform="scale(1 1) rotate(0) translate(4 280)">
<title>dependencies</title>
<polygon fill="white" stroke="transparent" points="-4,4 -4,-280 2510,-280 2510,4 -4,4"/>
<text text-anchor="start" x="1232.01" y="-42.4" font-family="Times-12" font-weight="bold" font-size="14.00">Legend</text>
<polygon fill="#ffffb3" stroke="transparent" points="1019,-10 1019,-30 1039,-30 1039,-10 1019,-10"/>
<text text-anchor="start" x="1042.63" y="-15.4" font-family="Times-12" font-size="14.00"> &#160;Declarations</text>
<polygon fill="#8dd3c7" stroke="transparent" points="1132,-10 1132,-30 1152,-30 1152,-10 1132,-10"/>
<text text-anchor="start" x="1155.73" y="-15.4" font-family="Times-12" font-size="14.00"> &#160;Module</text>
<polygon fill="#80b1d3" stroke="transparent" points="1218,-10 1218,-30 1238,-30 1238,-10 1218,-10"/>
<text text-anchor="start" x="1241.78" y="-15.4" font-family="Times-12" font-size="14.00"> &#160;Bootstrap</text>
<polygon fill="#fdb462" stroke="transparent" points="1315,-10 1315,-30 1335,-30 1335,-10 1315,-10"/>
<text text-anchor="start" x="1338.67" y="-15.4" font-family="Times-12" font-size="14.00"> &#160;Providers</text>
<polygon fill="#fb8072" stroke="transparent" points="1411,-10 1411,-30 1431,-30 1431,-10 1411,-10"/>
<text text-anchor="start" x="1434.73" y="-15.4" font-family="Times-12" font-size="14.00"> &#160;Exports</text>
<g id="clust1" class="cluster">
<title>cluster_ButtonsModule</title>
<polygon fill="none" stroke="black" stroke-dasharray="1,5" points="8,-70 8,-268 491,-268 491,-70 8,-70"/>
</g>
<g id="clust3" class="cluster">
<title>cluster_ButtonsModule_imports</title>
<polygon fill="none" stroke="black" points="21,-78 21,-130 477,-130 477,-78 21,-78"/>
</g>
<g id="clust4" class="cluster">
<title>cluster_ButtonsModule_exports</title>
<polygon fill="none" stroke="black" points="16,-208 16,-260 483,-260 483,-208 16,-208"/>
</g>
<g id="clust7" class="cluster">
<title>cluster_ExpansionPanelModule</title>
<polygon fill="none" stroke="black" stroke-dasharray="1,5" points="499,-70 499,-268 1220,-268 1220,-70 499,-70"/>
</g>
<g id="clust9" class="cluster">
<title>cluster_ExpansionPanelModule_imports</title>
<polygon fill="none" stroke="black" points="512,-78 512,-130 1207,-130 1207,-78 512,-78"/>
</g>
<g id="clust10" class="cluster">
<title>cluster_ExpansionPanelModule_exports</title>
<polygon fill="none" stroke="black" points="507,-208 507,-260 1212,-260 1212,-208 507,-208"/>
</g>
<g id="clust13" class="cluster">
<title>cluster_IconButtonModule</title>
<polygon fill="none" stroke="black" stroke-dasharray="1,5" points="1228,-70 1228,-268 1613,-268 1613,-70 1228,-70"/>
</g>
<g id="clust15" class="cluster">
<title>cluster_IconButtonModule_imports</title>
<polygon fill="none" stroke="black" points="1239,-78 1239,-130 1602,-130 1602,-78 1239,-78"/>
</g>
<g id="clust16" class="cluster">
<title>cluster_IconButtonModule_exports</title>
<polygon fill="none" stroke="black" points="1236,-208 1236,-260 1605,-260 1605,-208 1236,-208"/>
</g>
<g id="clust19" class="cluster">
<title>cluster_ScrollingModule</title>
<polygon fill="none" stroke="black" stroke-dasharray="1,5" points="1621,-70 1621,-268 1839,-268 1839,-70 1621,-70"/>
</g>
<g id="clust21" class="cluster">
<title>cluster_ScrollingModule_imports</title>
<polygon fill="none" stroke="black" points="1631,-78 1631,-130 1829,-130 1829,-78 1631,-78"/>
</g>
<g id="clust22" class="cluster">
<title>cluster_ScrollingModule_exports</title>
<polygon fill="none" stroke="black" points="1629,-208 1629,-260 1831,-260 1831,-208 1629,-208"/>
</g>
<g id="clust25" class="cluster">
<title>cluster_WorkflowCardModule</title>
<polygon fill="none" stroke="black" stroke-dasharray="1,5" points="1847,-70 1847,-268 2498,-268 2498,-70 1847,-70"/>
</g>
<g id="clust27" class="cluster">
<title>cluster_WorkflowCardModule_imports</title>
<polygon fill="none" stroke="black" points="1861,-78 1861,-130 2485,-130 2485,-78 1861,-78"/>
</g>
<g id="clust28" class="cluster">
<title>cluster_WorkflowCardModule_exports</title>
<polygon fill="none" stroke="black" points="1855,-208 1855,-260 2490,-260 2490,-208 1855,-208"/>
</g>
<!-- ButtonSizeDirective -->
<g id="node1" class="node">
<title>ButtonSizeDirective</title>
<polygon fill="#8dd3c7" stroke="black" points="469.3,-122 466.3,-126 445.3,-126 442.3,-122 338.7,-122 338.7,-86 469.3,-86 469.3,-122"/>
<text text-anchor="middle" x="404" y="-99.8" font-family="Times,serif" font-size="14.00">ButtonSizeDirective</text>
</g>
<!-- ButtonsModule -->
<g id="node4" class="node">
<title>ButtonsModule</title>
<polygon fill="#8dd3c7" stroke="black" points="298.61,-187 295.61,-191 274.61,-191 271.61,-187 195.39,-187 195.39,-151 298.61,-151 298.61,-187"/>
<text text-anchor="middle" x="247" y="-164.8" font-family="Times,serif" font-size="14.00">ButtonsModule</text>
</g>
<!-- ButtonSizeDirective&#45;&gt;ButtonsModule -->
<g id="edge1" class="edge">
<title>ButtonSizeDirective&#45;&gt;ButtonsModule</title>
<path fill="none" stroke="black" d="M426.47,-122.13C426.47,-142.57 426.47,-173 426.47,-173 426.47,-173 308.91,-173 308.91,-173"/>
<polygon fill="black" stroke="black" points="308.91,-169.5 298.91,-173 308.91,-176.5 308.91,-169.5"/>
</g>
<!-- ButtonVariantDirective -->
<g id="node2" class="node">
<title>ButtonVariantDirective</title>
<polygon fill="#8dd3c7" stroke="black" points="321.18,-122 318.18,-126 297.18,-126 294.18,-122 172.82,-122 172.82,-86 321.18,-86 321.18,-122"/>
<text text-anchor="middle" x="247" y="-99.8" font-family="Times,serif" font-size="14.00">ButtonVariantDirective</text>
</g>
<!-- ButtonVariantDirective&#45;&gt;ButtonsModule -->
<g id="edge2" class="edge">
<title>ButtonVariantDirective&#45;&gt;ButtonsModule</title>
<path fill="none" stroke="black" d="M247,-122.11C247,-122.11 247,-140.99 247,-140.99"/>
<polygon fill="black" stroke="black" points="243.5,-140.99 247,-150.99 250.5,-140.99 243.5,-140.99"/>
</g>
<!-- CtaButtonDirective -->
<g id="node3" class="node">
<title>CtaButtonDirective</title>
<polygon fill="#8dd3c7" stroke="black" points="154.64,-122 151.64,-126 130.64,-126 127.64,-122 29.36,-122 29.36,-86 154.64,-86 154.64,-122"/>
<text text-anchor="middle" x="92" y="-99.8" font-family="Times,serif" font-size="14.00">CtaButtonDirective</text>
</g>
<!-- CtaButtonDirective&#45;&gt;ButtonsModule -->
<g id="edge3" class="edge">
<title>CtaButtonDirective&#45;&gt;ButtonsModule</title>
<path fill="none" stroke="black" d="M112.11,-122.02C112.11,-139.37 112.11,-163 112.11,-163 112.11,-163 185.23,-163 185.23,-163"/>
<polygon fill="black" stroke="black" points="185.23,-166.5 195.23,-163 185.23,-159.5 185.23,-166.5"/>
</g>
<!-- ButtonSizeDirective  -->
<g id="node5" class="node">
<title>ButtonSizeDirective </title>
<polygon fill="#fb8072" stroke="black" points="474.8,-252 341.2,-252 341.2,-216 474.8,-216 474.8,-252"/>
<text text-anchor="middle" x="408" y="-229.8" font-family="Times,serif" font-size="14.00">ButtonSizeDirective </text>
</g>
<!-- ButtonsModule&#45;&gt;ButtonSizeDirective  -->
<g id="edge4" class="edge">
<title>ButtonsModule&#45;&gt;ButtonSizeDirective </title>
<path fill="none" stroke="black" stroke-dasharray="5,2" d="M298.71,-180C337.45,-180 383.78,-180 383.78,-180 383.78,-180 383.78,-205.72 383.78,-205.72"/>
<polygon fill="black" stroke="black" points="380.28,-205.72 383.78,-215.72 387.28,-205.72 380.28,-205.72"/>
</g>
<!-- ButtonVariantDirective  -->
<g id="node6" class="node">
<title>ButtonVariantDirective </title>
<polygon fill="#fb8072" stroke="black" points="322.68,-252 171.32,-252 171.32,-216 322.68,-216 322.68,-252"/>
<text text-anchor="middle" x="247" y="-229.8" font-family="Times,serif" font-size="14.00">ButtonVariantDirective </text>
</g>
<!-- ButtonsModule&#45;&gt;ButtonVariantDirective  -->
<g id="edge5" class="edge">
<title>ButtonsModule&#45;&gt;ButtonVariantDirective </title>
<path fill="none" stroke="black" stroke-dasharray="5,2" d="M247,-187.11C247,-187.11 247,-205.99 247,-205.99"/>
<polygon fill="black" stroke="black" points="243.5,-205.99 247,-215.99 250.5,-205.99 243.5,-205.99"/>
</g>
<!-- CtaButtonDirective  -->
<g id="node7" class="node">
<title>CtaButtonDirective </title>
<polygon fill="#fb8072" stroke="black" points="153.64,-252 24.36,-252 24.36,-216 153.64,-216 153.64,-252"/>
<text text-anchor="middle" x="89" y="-229.8" font-family="Times,serif" font-size="14.00">CtaButtonDirective </text>
</g>
<!-- ButtonsModule&#45;&gt;CtaButtonDirective  -->
<g id="edge6" class="edge">
<title>ButtonsModule&#45;&gt;CtaButtonDirective </title>
<path fill="none" stroke="black" stroke-dasharray="5,2" d="M195.04,-175C143.02,-175 70.64,-175 70.64,-175 70.64,-175 70.64,-205.98 70.64,-205.98"/>
<polygon fill="black" stroke="black" points="67.14,-205.98 70.64,-215.98 74.14,-205.98 67.14,-205.98"/>
</g>
<!-- ExpansionPanelActionsComponent -->
<g id="node8" class="node">
<title>ExpansionPanelActionsComponent</title>
<polygon fill="#8dd3c7" stroke="black" points="1198.58,-122 1195.58,-126 1174.58,-126 1171.58,-122 983.42,-122 983.42,-86 1198.58,-86 1198.58,-122"/>
<text text-anchor="middle" x="1091" y="-99.8" font-family="Times,serif" font-size="14.00">ExpansionPanelActionsComponent</text>
</g>
<!-- ExpansionPanelModule -->
<g id="node11" class="node">
<title>ExpansionPanelModule</title>
<polygon fill="#8dd3c7" stroke="black" points="954.75,-187 951.75,-191 930.75,-191 927.75,-187 805.25,-187 805.25,-151 954.75,-151 954.75,-187"/>
<text text-anchor="middle" x="880" y="-164.8" font-family="Times,serif" font-size="14.00">ExpansionPanelModule</text>
</g>
<!-- ExpansionPanelActionsComponent&#45;&gt;ExpansionPanelModule -->
<g id="edge7" class="edge">
<title>ExpansionPanelActionsComponent&#45;&gt;ExpansionPanelModule</title>
<path fill="none" stroke="black" d="M1127.6,-122.02C1127.6,-139.37 1127.6,-163 1127.6,-163 1127.6,-163 964.96,-163 964.96,-163"/>
<polygon fill="black" stroke="black" points="964.96,-159.5 954.96,-163 964.96,-166.5 964.96,-159.5"/>
</g>
<!-- ExpansionPanelComponent -->
<g id="node9" class="node">
<title>ExpansionPanelComponent</title>
<polygon fill="#8dd3c7" stroke="black" points="965.54,-122 962.54,-126 941.54,-126 938.54,-122 794.46,-122 794.46,-86 965.54,-86 965.54,-122"/>
<text text-anchor="middle" x="880" y="-99.8" font-family="Times,serif" font-size="14.00">ExpansionPanelComponent</text>
</g>
<!-- ExpansionPanelComponent&#45;&gt;ExpansionPanelModule -->
<g id="edge8" class="edge">
<title>ExpansionPanelComponent&#45;&gt;ExpansionPanelModule</title>
<path fill="none" stroke="black" d="M880,-122.11C880,-122.11 880,-140.99 880,-140.99"/>
<polygon fill="black" stroke="black" points="876.5,-140.99 880,-150.99 883.5,-140.99 876.5,-140.99"/>
</g>
<!-- ExpansionPanelHeaderContentComponent -->
<g id="node10" class="node">
<title>ExpansionPanelHeaderContentComponent</title>
<polygon fill="#8dd3c7" stroke="black" points="776.28,-122 773.28,-126 752.28,-126 749.28,-122 519.72,-122 519.72,-86 776.28,-86 776.28,-122"/>
<text text-anchor="middle" x="648" y="-99.8" font-family="Times,serif" font-size="14.00">ExpansionPanelHeaderContentComponent</text>
</g>
<!-- ExpansionPanelHeaderContentComponent&#45;&gt;ExpansionPanelModule -->
<g id="edge9" class="edge">
<title>ExpansionPanelHeaderContentComponent&#45;&gt;ExpansionPanelModule</title>
<path fill="none" stroke="black" d="M689.88,-122.01C689.88,-138.05 689.88,-159 689.88,-159 689.88,-159 795.13,-159 795.13,-159"/>
<polygon fill="black" stroke="black" points="795.13,-162.5 805.13,-159 795.13,-155.5 795.13,-162.5"/>
</g>
<!-- ExpansionPanelActionsComponent  -->
<g id="node12" class="node">
<title>ExpansionPanelActionsComponent </title>
<polygon fill="#fb8072" stroke="black" points="1204.08,-252 985.92,-252 985.92,-216 1204.08,-216 1204.08,-252"/>
<text text-anchor="middle" x="1095" y="-229.8" font-family="Times,serif" font-size="14.00">ExpansionPanelActionsComponent </text>
</g>
<!-- ExpansionPanelModule&#45;&gt;ExpansionPanelActionsComponent  -->
<g id="edge10" class="edge">
<title>ExpansionPanelModule&#45;&gt;ExpansionPanelActionsComponent </title>
<path fill="none" stroke="black" stroke-dasharray="5,2" d="M954.92,-175C1003.06,-175 1056.65,-175 1056.65,-175 1056.65,-175 1056.65,-205.98 1056.65,-205.98"/>
<polygon fill="black" stroke="black" points="1053.15,-205.98 1056.65,-215.98 1060.15,-205.98 1053.15,-205.98"/>
</g>
<!-- ExpansionPanelComponent  -->
<g id="node13" class="node">
<title>ExpansionPanelComponent </title>
<polygon fill="#fb8072" stroke="black" points="967.54,-252 792.46,-252 792.46,-216 967.54,-216 967.54,-252"/>
<text text-anchor="middle" x="880" y="-229.8" font-family="Times,serif" font-size="14.00">ExpansionPanelComponent </text>
</g>
<!-- ExpansionPanelModule&#45;&gt;ExpansionPanelComponent  -->
<g id="edge11" class="edge">
<title>ExpansionPanelModule&#45;&gt;ExpansionPanelComponent </title>
<path fill="none" stroke="black" stroke-dasharray="5,2" d="M880,-187.11C880,-187.11 880,-205.99 880,-205.99"/>
<polygon fill="black" stroke="black" points="876.5,-205.99 880,-215.99 883.5,-205.99 876.5,-205.99"/>
</g>
<!-- ExpansionPanelHeaderContentComponent  -->
<g id="node14" class="node">
<title>ExpansionPanelHeaderContentComponent </title>
<polygon fill="#fb8072" stroke="black" points="774.78,-252 515.22,-252 515.22,-216 774.78,-216 774.78,-252"/>
<text text-anchor="middle" x="645" y="-229.8" font-family="Times,serif" font-size="14.00">ExpansionPanelHeaderContentComponent </text>
</g>
<!-- ExpansionPanelModule&#45;&gt;ExpansionPanelHeaderContentComponent  -->
<g id="edge12" class="edge">
<title>ExpansionPanelModule&#45;&gt;ExpansionPanelHeaderContentComponent </title>
<path fill="none" stroke="black" stroke-dasharray="5,2" d="M805.18,-166C723.71,-166 604.87,-166 604.87,-166 604.87,-166 604.87,-205.78 604.87,-205.78"/>
<polygon fill="black" stroke="black" points="601.37,-205.78 604.87,-215.78 608.37,-205.78 601.37,-205.78"/>
</g>
<!-- IconButtonSizeDirective -->
<g id="node15" class="node">
<title>IconButtonSizeDirective</title>
<polygon fill="#8dd3c7" stroke="black" points="1593.68,-122 1590.68,-126 1569.68,-126 1566.68,-122 1438.32,-122 1438.32,-86 1593.68,-86 1593.68,-122"/>
<text text-anchor="middle" x="1516" y="-99.8" font-family="Times,serif" font-size="14.00">IconButtonSizeDirective</text>
</g>
<!-- IconButtonModule -->
<g id="node17" class="node">
<title>IconButtonModule</title>
<polygon fill="#8dd3c7" stroke="black" points="1395.04,-187 1392.04,-191 1371.04,-191 1368.04,-187 1272.96,-187 1272.96,-151 1395.04,-151 1395.04,-187"/>
<text text-anchor="middle" x="1334" y="-164.8" font-family="Times,serif" font-size="14.00">IconButtonModule</text>
</g>
<!-- IconButtonSizeDirective&#45;&gt;IconButtonModule -->
<g id="edge13" class="edge">
<title>IconButtonSizeDirective&#45;&gt;IconButtonModule</title>
<path fill="none" stroke="black" d="M1541.95,-122.02C1541.95,-139.37 1541.95,-163 1541.95,-163 1541.95,-163 1405.27,-163 1405.27,-163"/>
<polygon fill="black" stroke="black" points="1405.27,-159.5 1395.27,-163 1405.27,-166.5 1405.27,-159.5"/>
</g>
<!-- IconButtonVariantDirective -->
<g id="node16" class="node">
<title>IconButtonVariantDirective</title>
<polygon fill="#8dd3c7" stroke="black" points="1420.55,-122 1417.55,-126 1396.55,-126 1393.55,-122 1247.45,-122 1247.45,-86 1420.55,-86 1420.55,-122"/>
<text text-anchor="middle" x="1334" y="-99.8" font-family="Times,serif" font-size="14.00">IconButtonVariantDirective</text>
</g>
<!-- IconButtonVariantDirective&#45;&gt;IconButtonModule -->
<g id="edge14" class="edge">
<title>IconButtonVariantDirective&#45;&gt;IconButtonModule</title>
<path fill="none" stroke="black" d="M1334,-122.11C1334,-122.11 1334,-140.99 1334,-140.99"/>
<polygon fill="black" stroke="black" points="1330.5,-140.99 1334,-150.99 1337.5,-140.99 1330.5,-140.99"/>
</g>
<!-- IconButtonSizeDirective  -->
<g id="node18" class="node">
<title>IconButtonSizeDirective </title>
<polygon fill="#fb8072" stroke="black" points="1597.18,-252 1438.82,-252 1438.82,-216 1597.18,-216 1597.18,-252"/>
<text text-anchor="middle" x="1518" y="-229.8" font-family="Times,serif" font-size="14.00">IconButtonSizeDirective </text>
</g>
<!-- IconButtonModule&#45;&gt;IconButtonSizeDirective  -->
<g id="edge15" class="edge">
<title>IconButtonModule&#45;&gt;IconButtonSizeDirective </title>
<path fill="none" stroke="black" stroke-dasharray="5,2" d="M1395.33,-175C1439.12,-175 1490.3,-175 1490.3,-175 1490.3,-175 1490.3,-205.98 1490.3,-205.98"/>
<polygon fill="black" stroke="black" points="1486.8,-205.98 1490.3,-215.98 1493.8,-205.98 1486.8,-205.98"/>
</g>
<!-- IconButtonVariantDirective  -->
<g id="node19" class="node">
<title>IconButtonVariantDirective </title>
<polygon fill="#fb8072" stroke="black" points="1420.05,-252 1243.95,-252 1243.95,-216 1420.05,-216 1420.05,-252"/>
<text text-anchor="middle" x="1332" y="-229.8" font-family="Times,serif" font-size="14.00">IconButtonVariantDirective </text>
</g>
<!-- IconButtonModule&#45;&gt;IconButtonVariantDirective  -->
<g id="edge16" class="edge">
<title>IconButtonModule&#45;&gt;IconButtonVariantDirective </title>
<path fill="none" stroke="black" stroke-dasharray="5,2" d="M1334,-187.11C1334,-187.11 1334,-205.99 1334,-205.99"/>
<polygon fill="black" stroke="black" points="1330.5,-205.99 1334,-215.99 1337.5,-205.99 1330.5,-205.99"/>
</g>
<!-- ScrollOverflowFadeDirective -->
<g id="node20" class="node">
<title>ScrollOverflowFadeDirective</title>
<polygon fill="#8dd3c7" stroke="black" points="1821.37,-122 1818.37,-126 1797.37,-126 1794.37,-122 1638.63,-122 1638.63,-86 1821.37,-86 1821.37,-122"/>
<text text-anchor="middle" x="1730" y="-99.8" font-family="Times,serif" font-size="14.00">ScrollOverflowFadeDirective</text>
</g>
<!-- ScrollingModule -->
<g id="node21" class="node">
<title>ScrollingModule</title>
<polygon fill="#8dd3c7" stroke="black" points="1785.38,-187 1782.38,-191 1761.38,-191 1758.38,-187 1674.62,-187 1674.62,-151 1785.38,-151 1785.38,-187"/>
<text text-anchor="middle" x="1730" y="-164.8" font-family="Times,serif" font-size="14.00">ScrollingModule</text>
</g>
<!-- ScrollOverflowFadeDirective&#45;&gt;ScrollingModule -->
<g id="edge17" class="edge">
<title>ScrollOverflowFadeDirective&#45;&gt;ScrollingModule</title>
<path fill="none" stroke="black" d="M1730,-122.11C1730,-122.11 1730,-140.99 1730,-140.99"/>
<polygon fill="black" stroke="black" points="1726.5,-140.99 1730,-150.99 1733.5,-140.99 1726.5,-140.99"/>
</g>
<!-- ScrollOverflowFadeDirective  -->
<g id="node22" class="node">
<title>ScrollOverflowFadeDirective </title>
<polygon fill="#fb8072" stroke="black" points="1822.87,-252 1637.13,-252 1637.13,-216 1822.87,-216 1822.87,-252"/>
<text text-anchor="middle" x="1730" y="-229.8" font-family="Times,serif" font-size="14.00">ScrollOverflowFadeDirective </text>
</g>
<!-- ScrollingModule&#45;&gt;ScrollOverflowFadeDirective  -->
<g id="edge18" class="edge">
<title>ScrollingModule&#45;&gt;ScrollOverflowFadeDirective </title>
<path fill="none" stroke="black" stroke-dasharray="5,2" d="M1730,-187.11C1730,-187.11 1730,-205.99 1730,-205.99"/>
<polygon fill="black" stroke="black" points="1726.5,-205.99 1730,-215.99 1733.5,-205.99 1726.5,-205.99"/>
</g>
<!-- WorkflowCardActionsComponent -->
<g id="node23" class="node">
<title>WorkflowCardActionsComponent</title>
<polygon fill="#8dd3c7" stroke="black" points="2476.62,-122 2473.62,-126 2452.62,-126 2449.62,-122 2267.38,-122 2267.38,-86 2476.62,-86 2476.62,-122"/>
<text text-anchor="middle" x="2372" y="-99.8" font-family="Times,serif" font-size="14.00">WorkflowCardActionsComponent</text>
</g>
<!-- WorkflowCardModule -->
<g id="node26" class="node">
<title>WorkflowCardModule</title>
<polygon fill="#8dd3c7" stroke="black" points="2238.29,-187 2235.29,-191 2214.29,-191 2211.29,-187 2093.71,-187 2093.71,-151 2238.29,-151 2238.29,-187"/>
<text text-anchor="middle" x="2166" y="-164.8" font-family="Times,serif" font-size="14.00">WorkflowCardModule</text>
</g>
<!-- WorkflowCardActionsComponent&#45;&gt;WorkflowCardModule -->
<g id="edge19" class="edge">
<title>WorkflowCardActionsComponent&#45;&gt;WorkflowCardModule</title>
<path fill="none" stroke="black" d="M2407.35,-122.02C2407.35,-139.37 2407.35,-163 2407.35,-163 2407.35,-163 2248.41,-163 2248.41,-163"/>
<polygon fill="black" stroke="black" points="2248.41,-159.5 2238.41,-163 2248.41,-166.5 2248.41,-159.5"/>
</g>
<!-- WorkflowCardComponent -->
<g id="node24" class="node">
<title>WorkflowCardComponent</title>
<polygon fill="#8dd3c7" stroke="black" points="2249.08,-122 2246.08,-126 2225.08,-126 2222.08,-122 2082.92,-122 2082.92,-86 2249.08,-86 2249.08,-122"/>
<text text-anchor="middle" x="2166" y="-99.8" font-family="Times,serif" font-size="14.00">WorkflowCardComponent</text>
</g>
<!-- WorkflowCardComponent&#45;&gt;WorkflowCardModule -->
<g id="edge20" class="edge">
<title>WorkflowCardComponent&#45;&gt;WorkflowCardModule</title>
<path fill="none" stroke="black" d="M2166,-122.11C2166,-122.11 2166,-140.99 2166,-140.99"/>
<polygon fill="black" stroke="black" points="2162.5,-140.99 2166,-150.99 2169.5,-140.99 2162.5,-140.99"/>
</g>
<!-- WorkflowCardExtraComponent -->
<g id="node25" class="node">
<title>WorkflowCardExtraComponent</title>
<polygon fill="#8dd3c7" stroke="black" points="2065.4,-122 2062.4,-126 2041.4,-126 2038.4,-122 1868.6,-122 1868.6,-86 2065.4,-86 2065.4,-122"/>
<text text-anchor="middle" x="1967" y="-99.8" font-family="Times,serif" font-size="14.00">WorkflowCardExtraComponent</text>
</g>
<!-- WorkflowCardExtraComponent&#45;&gt;WorkflowCardModule -->
<g id="edge21" class="edge">
<title>WorkflowCardExtraComponent&#45;&gt;WorkflowCardModule</title>
<path fill="none" stroke="black" d="M1998.23,-122.02C1998.23,-139.37 1998.23,-163 1998.23,-163 1998.23,-163 2083.39,-163 2083.39,-163"/>
<polygon fill="black" stroke="black" points="2083.39,-166.5 2093.39,-163 2083.39,-159.5 2083.39,-166.5"/>
</g>
<!-- WorkflowCardActionsComponent  -->
<g id="node27" class="node">
<title>WorkflowCardActionsComponent </title>
<polygon fill="#fb8072" stroke="black" points="2481.62,-252 2268.38,-252 2268.38,-216 2481.62,-216 2481.62,-252"/>
<text text-anchor="middle" x="2375" y="-229.8" font-family="Times,serif" font-size="14.00">WorkflowCardActionsComponent </text>
</g>
<!-- WorkflowCardModule&#45;&gt;WorkflowCardActionsComponent  -->
<g id="edge22" class="edge">
<title>WorkflowCardModule&#45;&gt;WorkflowCardActionsComponent </title>
<path fill="none" stroke="black" stroke-dasharray="5,2" d="M2238.4,-175C2285.38,-175 2337.9,-175 2337.9,-175 2337.9,-175 2337.9,-205.98 2337.9,-205.98"/>
<polygon fill="black" stroke="black" points="2334.4,-205.98 2337.9,-215.98 2341.4,-205.98 2334.4,-205.98"/>
</g>
<!-- WorkflowCardComponent  -->
<g id="node28" class="node">
<title>WorkflowCardComponent </title>
<polygon fill="#fb8072" stroke="black" points="2250.58,-252 2081.42,-252 2081.42,-216 2250.58,-216 2250.58,-252"/>
<text text-anchor="middle" x="2166" y="-229.8" font-family="Times,serif" font-size="14.00">WorkflowCardComponent </text>
</g>
<!-- WorkflowCardModule&#45;&gt;WorkflowCardComponent  -->
<g id="edge23" class="edge">
<title>WorkflowCardModule&#45;&gt;WorkflowCardComponent </title>
<path fill="none" stroke="black" stroke-dasharray="5,2" d="M2166,-187.11C2166,-187.11 2166,-205.99 2166,-205.99"/>
<polygon fill="black" stroke="black" points="2162.5,-205.99 2166,-215.99 2169.5,-205.99 2162.5,-205.99"/>
</g>
<!-- WorkflowCardExtraComponent  -->
<g id="node29" class="node">
<title>WorkflowCardExtraComponent </title>
<polygon fill="#fb8072" stroke="black" points="2062.9,-252 1863.1,-252 1863.1,-216 2062.9,-216 2062.9,-252"/>
<text text-anchor="middle" x="1963" y="-229.8" font-family="Times,serif" font-size="14.00">WorkflowCardExtraComponent </text>
</g>
<!-- WorkflowCardModule&#45;&gt;WorkflowCardExtraComponent  -->
<g id="edge24" class="edge">
<title>WorkflowCardModule&#45;&gt;WorkflowCardExtraComponent </title>
<path fill="none" stroke="black" stroke-dasharray="5,2" d="M2093.72,-175C2025.47,-175 1933.52,-175 1933.52,-175 1933.52,-175 1933.52,-205.98 1933.52,-205.98"/>
<polygon fill="black" stroke="black" points="1930.02,-205.98 1933.52,-215.98 1937.02,-205.98 1930.02,-205.98"/>
</g>
</g>
</svg>
