<?xml version="1.0" encoding="UTF-8" standalone="no"?>
<!DOCTYPE svg PUBLIC "-//W3C//DTD SVG 1.1//EN"
 "http://www.w3.org/Graphics/SVG/1.1/DTD/svg11.dtd">
<!-- Generated by graphviz version 2.47.0 (20210316.0004)
 -->
<!-- Title: dependencies Pages: 1 -->
<svg width="2654pt" height="284pt"
 viewBox="0.00 0.00 2654.00 284.00" xmlns="http://www.w3.org/2000/svg" xmlns:xlink="http://www.w3.org/1999/xlink">
<g id="graph0" class="graph" transform="scale(1 1) rotate(0) translate(4 280)">
<title>dependencies</title>
<polygon fill="white" stroke="transparent" points="-4,4 -4,-280 2650,-280 2650,4 -4,4"/>
<text text-anchor="start" x="1302.01" y="-42.4" font-family="Times-12" font-weight="bold" font-size="14.00">Legend</text>
<polygon fill="#ffffb3" stroke="transparent" points="1089,-10 1089,-30 1109,-30 1109,-10 1089,-10"/>
<text text-anchor="start" x="1112.63" y="-15.4" font-family="Times-12" font-size="14.00"> &#160;Declarations</text>
<polygon fill="#8dd3c7" stroke="transparent" points="1202,-10 1202,-30 1222,-30 1222,-10 1202,-10"/>
<text text-anchor="start" x="1225.73" y="-15.4" font-family="Times-12" font-size="14.00"> &#160;Module</text>
<polygon fill="#80b1d3" stroke="transparent" points="1288,-10 1288,-30 1308,-30 1308,-10 1288,-10"/>
<text text-anchor="start" x="1311.78" y="-15.4" font-family="Times-12" font-size="14.00"> &#160;Bootstrap</text>
<polygon fill="#fdb462" stroke="transparent" points="1385,-10 1385,-30 1405,-30 1405,-10 1385,-10"/>
<text text-anchor="start" x="1408.67" y="-15.4" font-family="Times-12" font-size="14.00"> &#160;Providers</text>
<polygon fill="#fb8072" stroke="transparent" points="1481,-10 1481,-30 1501,-30 1501,-10 1481,-10"/>
<text text-anchor="start" x="1504.73" y="-15.4" font-family="Times-12" font-size="14.00"> &#160;Exports</text>
<g id="clust1" class="cluster">
<title>cluster_BrandModule</title>
<polygon fill="none" stroke="black" stroke-dasharray="1,5" points="8,-70 8,-268 356,-268 356,-70 8,-70"/>
</g>
<g id="clust3" class="cluster">
<title>cluster_BrandModule_imports</title>
<polygon fill="none" stroke="black" points="23,-78 23,-130 348,-130 348,-78 23,-78"/>
</g>
<g id="clust4" class="cluster">
<title>cluster_BrandModule_exports</title>
<polygon fill="none" stroke="black" points="16,-208 16,-260 348,-260 348,-208 16,-208"/>
</g>
<g id="clust7" class="cluster">
<title>cluster_ButtonsModule</title>
<polygon fill="none" stroke="black" stroke-dasharray="1,5" points="364,-143 364,-195 484,-195 484,-143 364,-143"/>
</g>
<g id="clust13" class="cluster">
<title>cluster_ExpansionPanelModule</title>
<polygon fill="none" stroke="black" stroke-dasharray="1,5" points="638,-70 638,-268 1360,-268 1360,-70 638,-70"/>
</g>
<g id="clust15" class="cluster">
<title>cluster_ExpansionPanelModule_imports</title>
<polygon fill="none" stroke="black" points="652,-78 652,-130 1347,-130 1347,-78 652,-78"/>
</g>
<g id="clust16" class="cluster">
<title>cluster_ExpansionPanelModule_exports</title>
<polygon fill="none" stroke="black" points="646,-208 646,-260 1352,-260 1352,-208 646,-208"/>
</g>
<g id="clust19" class="cluster">
<title>cluster_IconButtonModule</title>
<polygon fill="none" stroke="black" stroke-dasharray="1,5" points="1368,-70 1368,-268 1753,-268 1753,-70 1368,-70"/>
</g>
<g id="clust21" class="cluster">
<title>cluster_IconButtonModule_imports</title>
<polygon fill="none" stroke="black" points="1379,-78 1379,-130 1742,-130 1742,-78 1379,-78"/>
</g>
<g id="clust22" class="cluster">
<title>cluster_IconButtonModule_exports</title>
<polygon fill="none" stroke="black" points="1376,-208 1376,-260 1745,-260 1745,-208 1376,-208"/>
</g>
<g id="clust25" class="cluster">
<title>cluster_NavigationModule</title>
<polygon fill="none" stroke="black" stroke-dasharray="1,5" points="492,-143 492,-195 630,-195 630,-143 492,-143"/>
</g>
<g id="clust31" class="cluster">
<title>cluster_ScrollingModule</title>
<polygon fill="none" stroke="black" stroke-dasharray="1,5" points="1761,-70 1761,-268 1979,-268 1979,-70 1761,-70"/>
</g>
<g id="clust33" class="cluster">
<title>cluster_ScrollingModule_imports</title>
<polygon fill="none" stroke="black" points="1771,-78 1771,-130 1969,-130 1969,-78 1771,-78"/>
</g>
<g id="clust34" class="cluster">
<title>cluster_ScrollingModule_exports</title>
<polygon fill="none" stroke="black" points="1769,-208 1769,-260 1971,-260 1971,-208 1769,-208"/>
</g>
<g id="clust37" class="cluster">
<title>cluster_WorkflowCardModule</title>
<polygon fill="none" stroke="black" stroke-dasharray="1,5" points="1987,-70 1987,-268 2638,-268 2638,-70 1987,-70"/>
</g>
<g id="clust39" class="cluster">
<title>cluster_WorkflowCardModule_imports</title>
<polygon fill="none" stroke="black" points="2000,-78 2000,-130 2624,-130 2624,-78 2000,-78"/>
</g>
<g id="clust40" class="cluster">
<title>cluster_WorkflowCardModule_exports</title>
<polygon fill="none" stroke="black" points="1995,-208 1995,-260 2630,-260 2630,-208 1995,-208"/>
</g>
<!-- BrandLogoComponent -->
<g id="node1" class="node">
<title>BrandLogoComponent</title>
<polygon fill="#8dd3c7" stroke="black" points="339.6,-122 336.6,-126 315.6,-126 312.6,-122 194.4,-122 194.4,-86 339.6,-86 339.6,-122"/>
<text text-anchor="middle" x="267" y="-99.8" font-family="Times,serif" font-size="14.00">BrandLogoComponent</text>
</g>
<!-- BrandModule -->
<g id="node3" class="node">
<title>BrandModule</title>
<polygon fill="#8dd3c7" stroke="black" points="231.76,-187 228.76,-191 207.76,-191 204.76,-187 138.24,-187 138.24,-151 231.76,-151 231.76,-187"/>
<text text-anchor="middle" x="185" y="-164.8" font-family="Times,serif" font-size="14.00">BrandModule</text>
</g>
<!-- BrandLogoComponent&#45;&gt;BrandModule -->
<g id="edge1" class="edge">
<title>BrandLogoComponent&#45;&gt;BrandModule</title>
<path fill="none" stroke="black" d="M213.17,-122.11C213.17,-122.11 213.17,-140.99 213.17,-140.99"/>
<polygon fill="black" stroke="black" points="209.67,-140.99 213.17,-150.99 216.67,-140.99 209.67,-140.99"/>
</g>
<!-- ButtonsModule -->
<g id="node6" class="node">
<title>ButtonsModule</title>
<polygon fill="#8dd3c7" stroke="black" points="475.61,-187 472.61,-191 451.61,-191 448.61,-187 372.39,-187 372.39,-151 475.61,-151 475.61,-187"/>
<text text-anchor="middle" x="424" y="-164.8" font-family="Times,serif" font-size="14.00">ButtonsModule</text>
</g>
<!-- BrandLogoComponent&#45;&gt;ButtonsModule -->
<g id="edge5" class="edge">
<title>BrandLogoComponent&#45;&gt;ButtonsModule</title>
<path fill="none" stroke="black" d="M339.61,-110C387.4,-110 441.19,-110 441.19,-110 441.19,-110 441.19,-140.98 441.19,-140.98"/>
<polygon fill="black" stroke="black" points="437.69,-140.98 441.19,-150.98 444.69,-140.98 437.69,-140.98"/>
</g>
<!-- NavigationModule -->
<g id="node19" class="node">
<title>NavigationModule</title>
<polygon fill="#8dd3c7" stroke="black" points="621.76,-187 618.76,-191 597.76,-191 594.76,-187 500.24,-187 500.24,-151 621.76,-151 621.76,-187"/>
<text text-anchor="middle" x="561" y="-164.8" font-family="Times,serif" font-size="14.00">NavigationModule</text>
</g>
<!-- BrandLogoComponent&#45;&gt;NavigationModule -->
<g id="edge19" class="edge">
<title>BrandLogoComponent&#45;&gt;NavigationModule</title>
<path fill="none" stroke="black" d="M339.9,-98C432.74,-98 581.29,-98 581.29,-98 581.29,-98 581.29,-140.72 581.29,-140.72"/>
<polygon fill="black" stroke="black" points="577.79,-140.72 581.29,-150.72 584.79,-140.72 577.79,-140.72"/>
</g>
<!-- BrandMarkComponent -->
<g id="node2" class="node">
<title>BrandMarkComponent</title>
<polygon fill="#8dd3c7" stroke="black" points="176.86,-122 173.86,-126 152.86,-126 149.86,-122 31.14,-122 31.14,-86 176.86,-86 176.86,-122"/>
<text text-anchor="middle" x="104" y="-99.8" font-family="Times,serif" font-size="14.00">BrandMarkComponent</text>
</g>
<!-- BrandMarkComponent&#45;&gt;BrandModule -->
<g id="edge2" class="edge">
<title>BrandMarkComponent&#45;&gt;BrandModule</title>
<path fill="none" stroke="black" d="M147.82,-122.11C147.82,-122.11 147.82,-140.99 147.82,-140.99"/>
<polygon fill="black" stroke="black" points="144.32,-140.99 147.82,-150.99 151.32,-140.99 144.32,-140.99"/>
</g>
<!-- BrandMarkComponent&#45;&gt;ButtonsModule -->
<g id="edge6" class="edge">
<title>BrandMarkComponent&#45;&gt;ButtonsModule</title>
<path fill="none" stroke="black" d="M157.53,-122.11C157.53,-131.9 157.53,-142 157.53,-142 157.53,-142 406.81,-142 406.81,-142 406.81,-142 406.81,-142.88 406.81,-142.88"/>
<polygon fill="black" stroke="black" points="403.31,-140.84 406.81,-150.84 410.31,-140.84 403.31,-140.84"/>
</g>
<!-- BrandMarkComponent&#45;&gt;NavigationModule -->
<g id="edge20" class="edge">
<title>BrandMarkComponent&#45;&gt;NavigationModule</title>
<path fill="none" stroke="black" d="M167.23,-122.21C167.23,-127.55 167.23,-132 167.23,-132 167.23,-132 540.71,-132 540.71,-132 540.71,-132 540.71,-140.93 540.71,-140.93"/>
<polygon fill="black" stroke="black" points="537.21,-140.93 540.71,-150.93 544.21,-140.93 537.21,-140.93"/>
</g>
<!-- BrandLogoComponent  -->
<g id="node4" class="node">
<title>BrandLogoComponent </title>
<polygon fill="#fb8072" stroke="black" points="340.1,-252 191.9,-252 191.9,-216 340.1,-216 340.1,-252"/>
<text text-anchor="middle" x="266" y="-229.8" font-family="Times,serif" font-size="14.00">BrandLogoComponent </text>
</g>
<!-- BrandModule&#45;&gt;BrandLogoComponent  -->
<g id="edge3" class="edge">
<title>BrandModule&#45;&gt;BrandLogoComponent </title>
<path fill="none" stroke="black" stroke-dasharray="5,2" d="M211.79,-187.11C211.79,-187.11 211.79,-205.99 211.79,-205.99"/>
<polygon fill="black" stroke="black" points="208.29,-205.99 211.79,-215.99 215.29,-205.99 208.29,-205.99"/>
</g>
<!-- BrandMarkComponent  -->
<g id="node5" class="node">
<title>BrandMarkComponent </title>
<polygon fill="#fb8072" stroke="black" points="173.86,-252 24.14,-252 24.14,-216 173.86,-216 173.86,-252"/>
<text text-anchor="middle" x="99" y="-229.8" font-family="Times,serif" font-size="14.00">BrandMarkComponent </text>
</g>
<!-- BrandModule&#45;&gt;BrandMarkComponent  -->
<g id="edge4" class="edge">
<title>BrandModule&#45;&gt;BrandMarkComponent </title>
<path fill="none" stroke="black" stroke-dasharray="5,2" d="M147.01,-187.11C147.01,-187.11 147.01,-205.99 147.01,-205.99"/>
<polygon fill="black" stroke="black" points="143.51,-205.99 147.01,-215.99 150.51,-205.99 143.51,-205.99"/>
</g>
<!-- ButtonsModule&#45;&gt;BrandLogoComponent  -->
<g id="edge7" class="edge">
<title>ButtonsModule&#45;&gt;BrandLogoComponent </title>
<path fill="none" stroke="black" stroke-dasharray="5,2" d="M441.19,-187.02C441.19,-204.37 441.19,-228 441.19,-228 441.19,-228 350.29,-228 350.29,-228"/>
<polygon fill="black" stroke="black" points="350.29,-224.5 340.29,-228 350.29,-231.5 350.29,-224.5"/>
</g>
<!-- ButtonsModule&#45;&gt;BrandMarkComponent  -->
<g id="edge8" class="edge">
<title>ButtonsModule&#45;&gt;BrandMarkComponent </title>
<path fill="none" stroke="black" stroke-dasharray="5,2" d="M406.81,-187.21C406.81,-192.55 406.81,-197 406.81,-197 406.81,-197 155.9,-197 155.9,-197 155.9,-197 155.9,-205.93 155.9,-205.93"/>
<polygon fill="black" stroke="black" points="152.4,-205.93 155.9,-215.93 159.4,-205.93 152.4,-205.93"/>
</g>
<!-- ExpansionPanelActionsComponent -->
<g id="node7" class="node">
<title>ExpansionPanelActionsComponent</title>
<polygon fill="#8dd3c7" stroke="black" points="1064.58,-122 1061.58,-126 1040.58,-126 1037.58,-122 849.42,-122 849.42,-86 1064.58,-86 1064.58,-122"/>
<text text-anchor="middle" x="957" y="-99.8" font-family="Times,serif" font-size="14.00">ExpansionPanelActionsComponent</text>
</g>
<!-- ExpansionPanelModule -->
<g id="node10" class="node">
<title>ExpansionPanelModule</title>
<polygon fill="#8dd3c7" stroke="black" points="1031.75,-187 1028.75,-191 1007.75,-191 1004.75,-187 882.25,-187 882.25,-151 1031.75,-151 1031.75,-187"/>
<text text-anchor="middle" x="957" y="-164.8" font-family="Times,serif" font-size="14.00">ExpansionPanelModule</text>
</g>
<!-- ExpansionPanelActionsComponent&#45;&gt;ExpansionPanelModule -->
<g id="edge9" class="edge">
<title>ExpansionPanelActionsComponent&#45;&gt;ExpansionPanelModule</title>
<path fill="none" stroke="black" d="M957,-122.11C957,-122.11 957,-140.99 957,-140.99"/>
<polygon fill="black" stroke="black" points="953.5,-140.99 957,-150.99 960.5,-140.99 953.5,-140.99"/>
</g>
<!-- ExpansionPanelComponent -->
<g id="node8" class="node">
<title>ExpansionPanelComponent</title>
<polygon fill="#8dd3c7" stroke="black" points="831.54,-122 828.54,-126 807.54,-126 804.54,-122 660.46,-122 660.46,-86 831.54,-86 831.54,-122"/>
<text text-anchor="middle" x="746" y="-99.8" font-family="Times,serif" font-size="14.00">ExpansionPanelComponent</text>
</g>
<!-- ExpansionPanelComponent&#45;&gt;ExpansionPanelModule -->
<g id="edge10" class="edge">
<title>ExpansionPanelComponent&#45;&gt;ExpansionPanelModule</title>
<path fill="none" stroke="black" d="M773.09,-122.02C773.09,-139.37 773.09,-163 773.09,-163 773.09,-163 872.2,-163 872.2,-163"/>
<polygon fill="black" stroke="black" points="872.2,-166.5 882.2,-163 872.2,-159.5 872.2,-166.5"/>
</g>
<!-- ExpansionPanelHeaderContentComponent -->
<g id="node9" class="node">
<title>ExpansionPanelHeaderContentComponent</title>
<polygon fill="#8dd3c7" stroke="black" points="1339.28,-122 1336.28,-126 1315.28,-126 1312.28,-122 1082.72,-122 1082.72,-86 1339.28,-86 1339.28,-122"/>
<text text-anchor="middle" x="1211" y="-99.8" font-family="Times,serif" font-size="14.00">ExpansionPanelHeaderContentComponent</text>
</g>
<!-- ExpansionPanelHeaderContentComponent&#45;&gt;ExpansionPanelModule -->
<g id="edge11" class="edge">
<title>ExpansionPanelHeaderContentComponent&#45;&gt;ExpansionPanelModule</title>
<path fill="none" stroke="black" d="M1254.13,-122.02C1254.13,-139.37 1254.13,-163 1254.13,-163 1254.13,-163 1041.98,-163 1041.98,-163"/>
<polygon fill="black" stroke="black" points="1041.98,-159.5 1031.98,-163 1041.98,-166.5 1041.98,-159.5"/>
</g>
<!-- ExpansionPanelActionsComponent  -->
<g id="node11" class="node">
<title>ExpansionPanelActionsComponent </title>
<polygon fill="#fb8072" stroke="black" points="1066.08,-252 847.92,-252 847.92,-216 1066.08,-216 1066.08,-252"/>
<text text-anchor="middle" x="957" y="-229.8" font-family="Times,serif" font-size="14.00">ExpansionPanelActionsComponent </text>
</g>
<!-- ExpansionPanelModule&#45;&gt;ExpansionPanelActionsComponent  -->
<g id="edge12" class="edge">
<title>ExpansionPanelModule&#45;&gt;ExpansionPanelActionsComponent </title>
<path fill="none" stroke="black" stroke-dasharray="5,2" d="M957,-187.11C957,-187.11 957,-205.99 957,-205.99"/>
<polygon fill="black" stroke="black" points="953.5,-205.99 957,-215.99 960.5,-205.99 953.5,-205.99"/>
</g>
<!-- ExpansionPanelComponent  -->
<g id="node12" class="node">
<title>ExpansionPanelComponent </title>
<polygon fill="#fb8072" stroke="black" points="829.54,-252 654.46,-252 654.46,-216 829.54,-216 829.54,-252"/>
<text text-anchor="middle" x="742" y="-229.8" font-family="Times,serif" font-size="14.00">ExpansionPanelComponent </text>
</g>
<!-- ExpansionPanelModule&#45;&gt;ExpansionPanelComponent  -->
<g id="edge13" class="edge">
<title>ExpansionPanelModule&#45;&gt;ExpansionPanelComponent </title>
<path fill="none" stroke="black" stroke-dasharray="5,2" d="M881.94,-175C811.43,-175 716.66,-175 716.66,-175 716.66,-175 716.66,-205.98 716.66,-205.98"/>
<polygon fill="black" stroke="black" points="713.16,-205.98 716.66,-215.98 720.16,-205.98 713.16,-205.98"/>
</g>
<!-- ExpansionPanelHeaderContentComponent  -->
<g id="node13" class="node">
<title>ExpansionPanelHeaderContentComponent </title>
<polygon fill="#fb8072" stroke="black" points="1343.78,-252 1084.22,-252 1084.22,-216 1343.78,-216 1343.78,-252"/>
<text text-anchor="middle" x="1214" y="-229.8" font-family="Times,serif" font-size="14.00">ExpansionPanelHeaderContentComponent </text>
</g>
<!-- ExpansionPanelModule&#45;&gt;ExpansionPanelHeaderContentComponent  -->
<g id="edge14" class="edge">
<title>ExpansionPanelModule&#45;&gt;ExpansionPanelHeaderContentComponent </title>
<path fill="none" stroke="black" stroke-dasharray="5,2" d="M1031.79,-175C1092.86,-175 1169.12,-175 1169.12,-175 1169.12,-175 1169.12,-205.98 1169.12,-205.98"/>
<polygon fill="black" stroke="black" points="1165.62,-205.98 1169.12,-215.98 1172.62,-205.98 1165.62,-205.98"/>
</g>
<!-- IconButtonSizeDirective -->
<g id="node14" class="node">
<title>IconButtonSizeDirective</title>
<polygon fill="#8dd3c7" stroke="black" points="1733.68,-122 1730.68,-126 1709.68,-126 1706.68,-122 1578.32,-122 1578.32,-86 1733.68,-86 1733.68,-122"/>
<text text-anchor="middle" x="1656" y="-99.8" font-family="Times,serif" font-size="14.00">IconButtonSizeDirective</text>
</g>
<!-- IconButtonModule -->
<g id="node16" class="node">
<title>IconButtonModule</title>
<polygon fill="#8dd3c7" stroke="black" points="1535.04,-187 1532.04,-191 1511.04,-191 1508.04,-187 1412.96,-187 1412.96,-151 1535.04,-151 1535.04,-187"/>
<text text-anchor="middle" x="1474" y="-164.8" font-family="Times,serif" font-size="14.00">IconButtonModule</text>
</g>
<!-- IconButtonSizeDirective&#45;&gt;IconButtonModule -->
<g id="edge15" class="edge">
<title>IconButtonSizeDirective&#45;&gt;IconButtonModule</title>
<path fill="none" stroke="black" d="M1681.95,-122.02C1681.95,-139.37 1681.95,-163 1681.95,-163 1681.95,-163 1545.27,-163 1545.27,-163"/>
<polygon fill="black" stroke="black" points="1545.27,-159.5 1535.27,-163 1545.27,-166.5 1545.27,-159.5"/>
</g>
<!-- IconButtonVariantDirective -->
<g id="node15" class="node">
<title>IconButtonVariantDirective</title>
<polygon fill="#8dd3c7" stroke="black" points="1560.55,-122 1557.55,-126 1536.55,-126 1533.55,-122 1387.45,-122 1387.45,-86 1560.55,-86 1560.55,-122"/>
<text text-anchor="middle" x="1474" y="-99.8" font-family="Times,serif" font-size="14.00">IconButtonVariantDirective</text>
</g>
<!-- IconButtonVariantDirective&#45;&gt;IconButtonModule -->
<g id="edge16" class="edge">
<title>IconButtonVariantDirective&#45;&gt;IconButtonModule</title>
<path fill="none" stroke="black" d="M1474,-122.11C1474,-122.11 1474,-140.99 1474,-140.99"/>
<polygon fill="black" stroke="black" points="1470.5,-140.99 1474,-150.99 1477.5,-140.99 1470.5,-140.99"/>
</g>
<!-- IconButtonSizeDirective  -->
<g id="node17" class="node">
<title>IconButtonSizeDirective </title>
<polygon fill="#fb8072" stroke="black" points="1737.18,-252 1578.82,-252 1578.82,-216 1737.18,-216 1737.18,-252"/>
<text text-anchor="middle" x="1658" y="-229.8" font-family="Times,serif" font-size="14.00">IconButtonSizeDirective </text>
</g>
<!-- IconButtonModule&#45;&gt;IconButtonSizeDirective  -->
<g id="edge17" class="edge">
<title>IconButtonModule&#45;&gt;IconButtonSizeDirective </title>
<path fill="none" stroke="black" stroke-dasharray="5,2" d="M1535.33,-175C1579.12,-175 1630.3,-175 1630.3,-175 1630.3,-175 1630.3,-205.98 1630.3,-205.98"/>
<polygon fill="black" stroke="black" points="1626.8,-205.98 1630.3,-215.98 1633.8,-205.98 1626.8,-205.98"/>
</g>
<!-- IconButtonVariantDirective  -->
<g id="node18" class="node">
<title>IconButtonVariantDirective </title>
<polygon fill="#fb8072" stroke="black" points="1560.05,-252 1383.95,-252 1383.95,-216 1560.05,-216 1560.05,-252"/>
<text text-anchor="middle" x="1472" y="-229.8" font-family="Times,serif" font-size="14.00">IconButtonVariantDirective </text>
</g>
<!-- IconButtonModule&#45;&gt;IconButtonVariantDirective  -->
<g id="edge18" class="edge">
<title>IconButtonModule&#45;&gt;IconButtonVariantDirective </title>
<path fill="none" stroke="black" stroke-dasharray="5,2" d="M1474,-187.11C1474,-187.11 1474,-205.99 1474,-205.99"/>
<polygon fill="black" stroke="black" points="1470.5,-205.99 1474,-215.99 1477.5,-205.99 1470.5,-205.99"/>
</g>
<!-- NavigationModule&#45;&gt;BrandLogoComponent  -->
<g id="edge21" class="edge">
<title>NavigationModule&#45;&gt;BrandLogoComponent </title>
<path fill="none" stroke="black" stroke-dasharray="5,2" d="M581.29,-187.28C581.29,-208.32 581.29,-240 581.29,-240 581.29,-240 350.32,-240 350.32,-240"/>
<polygon fill="black" stroke="black" points="350.32,-236.5 340.32,-240 350.32,-243.5 350.32,-236.5"/>
</g>
<!-- NavigationModule&#45;&gt;BrandMarkComponent  -->
<g id="edge22" class="edge">
<title>NavigationModule&#45;&gt;BrandMarkComponent </title>
<path fill="none" stroke="black" stroke-dasharray="5,2" d="M540.71,-187.11C540.71,-196.9 540.71,-207 540.71,-207 540.71,-207 164.79,-207 164.79,-207 164.79,-207 164.79,-207.88 164.79,-207.88"/>
<polygon fill="black" stroke="black" points="161.29,-205.84 164.79,-215.84 168.29,-205.84 161.29,-205.84"/>
</g>
<!-- ScrollOverflowFadeDirective -->
<g id="node20" class="node">
<title>ScrollOverflowFadeDirective</title>
<polygon fill="#8dd3c7" stroke="black" points="1961.37,-122 1958.37,-126 1937.37,-126 1934.37,-122 1778.63,-122 1778.63,-86 1961.37,-86 1961.37,-122"/>
<text text-anchor="middle" x="1870" y="-99.8" font-family="Times,serif" font-size="14.00">ScrollOverflowFadeDirective</text>
</g>
<!-- ScrollingModule -->
<g id="node21" class="node">
<title>ScrollingModule</title>
<polygon fill="#8dd3c7" stroke="black" points="1925.38,-187 1922.38,-191 1901.38,-191 1898.38,-187 1814.62,-187 1814.62,-151 1925.38,-151 1925.38,-187"/>
<text text-anchor="middle" x="1870" y="-164.8" font-family="Times,serif" font-size="14.00">ScrollingModule</text>
</g>
<!-- ScrollOverflowFadeDirective&#45;&gt;ScrollingModule -->
<g id="edge23" class="edge">
<title>ScrollOverflowFadeDirective&#45;&gt;ScrollingModule</title>
<path fill="none" stroke="black" d="M1870,-122.11C1870,-122.11 1870,-140.99 1870,-140.99"/>
<polygon fill="black" stroke="black" points="1866.5,-140.99 1870,-150.99 1873.5,-140.99 1866.5,-140.99"/>
</g>
<!-- ScrollOverflowFadeDirective  -->
<g id="node22" class="node">
<title>ScrollOverflowFadeDirective </title>
<polygon fill="#fb8072" stroke="black" points="1962.87,-252 1777.13,-252 1777.13,-216 1962.87,-216 1962.87,-252"/>
<text text-anchor="middle" x="1870" y="-229.8" font-family="Times,serif" font-size="14.00">ScrollOverflowFadeDirective </text>
</g>
<!-- ScrollingModule&#45;&gt;ScrollOverflowFadeDirective  -->
<g id="edge24" class="edge">
<title>ScrollingModule&#45;&gt;ScrollOverflowFadeDirective </title>
<path fill="none" stroke="black" stroke-dasharray="5,2" d="M1870,-187.11C1870,-187.11 1870,-205.99 1870,-205.99"/>
<polygon fill="black" stroke="black" points="1866.5,-205.99 1870,-215.99 1873.5,-205.99 1866.5,-205.99"/>
</g>
<!-- WorkflowCardActionsComponent -->
<g id="node23" class="node">
<title>WorkflowCardActionsComponent</title>
<polygon fill="#8dd3c7" stroke="black" points="2401.62,-122 2398.62,-126 2377.62,-126 2374.62,-122 2192.38,-122 2192.38,-86 2401.62,-86 2401.62,-122"/>
<text text-anchor="middle" x="2297" y="-99.8" font-family="Times,serif" font-size="14.00">WorkflowCardActionsComponent</text>
</g>
<!-- WorkflowCardModule -->
<g id="node26" class="node">
<title>WorkflowCardModule</title>
<polygon fill="#8dd3c7" stroke="black" points="2369.29,-187 2366.29,-191 2345.29,-191 2342.29,-187 2224.71,-187 2224.71,-151 2369.29,-151 2369.29,-187"/>
<text text-anchor="middle" x="2297" y="-164.8" font-family="Times,serif" font-size="14.00">WorkflowCardModule</text>
</g>
<!-- WorkflowCardActionsComponent&#45;&gt;WorkflowCardModule -->
<g id="edge25" class="edge">
<title>WorkflowCardActionsComponent&#45;&gt;WorkflowCardModule</title>
<path fill="none" stroke="black" d="M2297,-122.11C2297,-122.11 2297,-140.99 2297,-140.99"/>
<polygon fill="black" stroke="black" points="2293.5,-140.99 2297,-150.99 2300.5,-140.99 2293.5,-140.99"/>
</g>
<!-- WorkflowCardComponent -->
<g id="node24" class="node">
<title>WorkflowCardComponent</title>
<polygon fill="#8dd3c7" stroke="black" points="2174.08,-122 2171.08,-126 2150.08,-126 2147.08,-122 2007.92,-122 2007.92,-86 2174.08,-86 2174.08,-122"/>
<text text-anchor="middle" x="2091" y="-99.8" font-family="Times,serif" font-size="14.00">WorkflowCardComponent</text>
</g>
<!-- WorkflowCardComponent&#45;&gt;WorkflowCardModule -->
<g id="edge26" class="edge">
<title>WorkflowCardComponent&#45;&gt;WorkflowCardModule</title>
<path fill="none" stroke="black" d="M2117.85,-122.02C2117.85,-139.37 2117.85,-163 2117.85,-163 2117.85,-163 2214.65,-163 2214.65,-163"/>
<polygon fill="black" stroke="black" points="2214.65,-166.5 2224.65,-163 2214.65,-159.5 2214.65,-166.5"/>
</g>
<!-- WorkflowCardExtraComponent -->
<g id="node25" class="node">
<title>WorkflowCardExtraComponent</title>
<polygon fill="#8dd3c7" stroke="black" points="2616.4,-122 2613.4,-126 2592.4,-126 2589.4,-122 2419.6,-122 2419.6,-86 2616.4,-86 2616.4,-122"/>
<text text-anchor="middle" x="2518" y="-99.8" font-family="Times,serif" font-size="14.00">WorkflowCardExtraComponent</text>
</g>
<!-- WorkflowCardExtraComponent&#45;&gt;WorkflowCardModule -->
<g id="edge27" class="edge">
<title>WorkflowCardExtraComponent&#45;&gt;WorkflowCardModule</title>
<path fill="none" stroke="black" d="M2551.48,-122.02C2551.48,-139.37 2551.48,-163 2551.48,-163 2551.48,-163 2379.24,-163 2379.24,-163"/>
<polygon fill="black" stroke="black" points="2379.24,-159.5 2369.24,-163 2379.24,-166.5 2379.24,-159.5"/>
</g>
<!-- WorkflowCardActionsComponent  -->
<g id="node27" class="node">
<title>WorkflowCardActionsComponent </title>
<polygon fill="#fb8072" stroke="black" points="2403.62,-252 2190.38,-252 2190.38,-216 2403.62,-216 2403.62,-252"/>
<text text-anchor="middle" x="2297" y="-229.8" font-family="Times,serif" font-size="14.00">WorkflowCardActionsComponent </text>
</g>
<!-- WorkflowCardModule&#45;&gt;WorkflowCardActionsComponent  -->
<g id="edge28" class="edge">
<title>WorkflowCardModule&#45;&gt;WorkflowCardActionsComponent </title>
<path fill="none" stroke="black" stroke-dasharray="5,2" d="M2297,-187.11C2297,-187.11 2297,-205.99 2297,-205.99"/>
<polygon fill="black" stroke="black" points="2293.5,-205.99 2297,-215.99 2300.5,-205.99 2293.5,-205.99"/>
</g>
<!-- WorkflowCardComponent  -->
<g id="node28" class="node">
<title>WorkflowCardComponent </title>
<polygon fill="#fb8072" stroke="black" points="2172.58,-252 2003.42,-252 2003.42,-216 2172.58,-216 2172.58,-252"/>
<text text-anchor="middle" x="2088" y="-229.8" font-family="Times,serif" font-size="14.00">WorkflowCardComponent </text>
</g>
<!-- WorkflowCardModule&#45;&gt;WorkflowCardComponent  -->
<g id="edge29" class="edge">
<title>WorkflowCardModule&#45;&gt;WorkflowCardComponent </title>
<path fill="none" stroke="black" stroke-dasharray="5,2" d="M2224.53,-175C2155.78,-175 2062.9,-175 2062.9,-175 2062.9,-175 2062.9,-205.98 2062.9,-205.98"/>
<polygon fill="black" stroke="black" points="2059.4,-205.98 2062.9,-215.98 2066.4,-205.98 2059.4,-205.98"/>
</g>
<!-- WorkflowCardExtraComponent  -->
<g id="node29" class="node">
<title>WorkflowCardExtraComponent </title>
<polygon fill="#fb8072" stroke="black" points="2621.9,-252 2422.1,-252 2422.1,-216 2621.9,-216 2621.9,-252"/>
<text text-anchor="middle" x="2522" y="-229.8" font-family="Times,serif" font-size="14.00">WorkflowCardExtraComponent </text>
</g>
<!-- WorkflowCardModule&#45;&gt;WorkflowCardExtraComponent  -->
<g id="edge30" class="edge">
<title>WorkflowCardModule&#45;&gt;WorkflowCardExtraComponent </title>
<path fill="none" stroke="black" stroke-dasharray="5,2" d="M2369.28,-175C2422.91,-175 2486.77,-175 2486.77,-175 2486.77,-175 2486.77,-205.98 2486.77,-205.98"/>
<polygon fill="black" stroke="black" points="2483.27,-205.98 2486.77,-215.98 2490.27,-205.98 2483.27,-205.98"/>
</g>
</g>
</svg>
