<?xml version="1.0" encoding="UTF-8" standalone="no"?>
<!DOCTYPE svg PUBLIC "-//W3C//DTD SVG 1.1//EN"
 "http://www.w3.org/Graphics/SVG/1.1/DTD/svg11.dtd">
<!-- Generated by graphviz version 2.47.0 (20210316.0004)
 -->
<!-- Title: dependencies Pages: 1 -->
<svg width="1644pt" height="290pt"
 viewBox="0.00 0.00 1644.00 290.00" xmlns="http://www.w3.org/2000/svg" xmlns:xlink="http://www.w3.org/1999/xlink">
<g id="graph0" class="graph" transform="scale(1 1) rotate(0) translate(4 286)">
<title>dependencies</title>
<polygon fill="white" stroke="transparent" points="-4,4 -4,-286 1640,-286 1640,4 -4,4"/>
<text text-anchor="start" x="797.01" y="-42.4" font-family="Times-12" font-weight="bold" font-size="14.00">Legend</text>
<polygon fill="#ffffb3" stroke="transparent" points="584,-10 584,-30 604,-30 604,-10 584,-10"/>
<text text-anchor="start" x="607.63" y="-15.4" font-family="Times-12" font-size="14.00"> &#160;Declarations</text>
<polygon fill="#8dd3c7" stroke="transparent" points="697,-10 697,-30 717,-30 717,-10 697,-10"/>
<text text-anchor="start" x="720.73" y="-15.4" font-family="Times-12" font-size="14.00"> &#160;Module</text>
<polygon fill="#80b1d3" stroke="transparent" points="783,-10 783,-30 803,-30 803,-10 783,-10"/>
<text text-anchor="start" x="806.78" y="-15.4" font-family="Times-12" font-size="14.00"> &#160;Bootstrap</text>
<polygon fill="#fdb462" stroke="transparent" points="880,-10 880,-30 900,-30 900,-10 880,-10"/>
<text text-anchor="start" x="903.67" y="-15.4" font-family="Times-12" font-size="14.00"> &#160;Providers</text>
<polygon fill="#fb8072" stroke="transparent" points="976,-10 976,-30 996,-30 996,-10 976,-10"/>
<text text-anchor="start" x="999.73" y="-15.4" font-family="Times-12" font-size="14.00"> &#160;Exports</text>
<g id="clust1" class="cluster">
<title>cluster_NumbersOnlyModule</title>
<polygon fill="none" stroke="black" stroke-dasharray="1,5" points="8,-70 8,-274 162,-274 162,-70 8,-70"/>
</g>
<g id="clust2" class="cluster">
<title>cluster_NumbersOnlyModule_declarations</title>
<polygon fill="none" stroke="black" points="20,-78 20,-130 150,-130 150,-78 20,-78"/>
</g>
<g id="clust5" class="cluster">
<title>cluster_NumbersOnlyModule_exports</title>
<polygon fill="none" stroke="black" points="18,-214 18,-266 152,-266 152,-214 18,-214"/>
</g>
<g id="clust8" class="cluster">
<title>cluster_SpatialSearchKeyboardUIBehaviorModule</title>
<polygon fill="none" stroke="black" stroke-dasharray="1,5" points="170,-70 170,-274 712,-274 712,-70 170,-70"/>
</g>
<g id="clust9" class="cluster">
<title>cluster_SpatialSearchKeyboardUIBehaviorModule_declarations</title>
<polygon fill="none" stroke="black" points="178,-78 178,-130 474,-130 474,-78 178,-78"/>
</g>
<g id="clust11" class="cluster">
<title>cluster_SpatialSearchKeyboardUIBehaviorModule_imports</title>
<polygon fill="none" stroke="black" points="482,-78 482,-130 704,-130 704,-78 482,-78"/>
</g>
<g id="clust12" class="cluster">
<title>cluster_SpatialSearchKeyboardUIBehaviorModule_exports</title>
<polygon fill="none" stroke="black" points="291,-214 291,-266 591,-266 591,-214 291,-214"/>
</g>
<g id="clust15" class="cluster">
<title>cluster_SpatialSearchKeyboardUIModule</title>
<polygon fill="none" stroke="black" stroke-dasharray="1,5" points="720,-138 720,-206 1236,-206 1236,-138 720,-138"/>
</g>
<g id="clust16" class="cluster">
<title>cluster_SpatialSearchKeyboardUIModule_declarations</title>
<polygon fill="none" stroke="black" points="984,-146 984,-198 1228,-198 1228,-146 984,-146"/>
</g>
<g id="clust19" class="cluster">
<title>cluster_SpatialSearchKeyboardUIModule_exports</title>
<polygon fill="none" stroke="black" points="728,-146 728,-198 976,-198 976,-146 728,-146"/>
</g>
<g id="clust22" class="cluster">
<title>cluster_StoreDebugModule</title>
<polygon fill="none" stroke="black" stroke-dasharray="1,5" points="1244,-70 1244,-274 1428,-274 1428,-70 1244,-70"/>
</g>
<g id="clust23" class="cluster">
<title>cluster_StoreDebugModule_declarations</title>
<polygon fill="none" stroke="black" points="1254,-78 1254,-130 1418,-130 1418,-78 1254,-78"/>
</g>
<g id="clust26" class="cluster">
<title>cluster_StoreDebugModule_exports</title>
<polygon fill="none" stroke="black" points="1252,-214 1252,-266 1420,-266 1420,-214 1252,-214"/>
</g>
<g id="clust29" class="cluster">
<title>cluster_XYZPositionModule</title>
<polygon fill="none" stroke="black" stroke-dasharray="1,5" points="1436,-70 1436,-274 1628,-274 1628,-70 1436,-70"/>
</g>
<g id="clust30" class="cluster">
<title>cluster_XYZPositionModule_declarations</title>
<polygon fill="none" stroke="black" points="1446,-78 1446,-130 1618,-130 1618,-78 1446,-78"/>
</g>
<g id="clust33" class="cluster">
<title>cluster_XYZPositionModule_exports</title>
<polygon fill="none" stroke="black" points="1444,-214 1444,-266 1620,-266 1620,-214 1444,-214"/>
</g>
<!-- NumberDirective -->
<g id="node1" class="node">
<title>NumberDirective</title>
<polygon fill="#ffffb3" stroke="black" points="141.96,-122 28.04,-122 28.04,-86 141.96,-86 141.96,-122"/>
<text text-anchor="middle" x="85" y="-99.8" font-family="Times,serif" font-size="14.00">NumberDirective</text>
</g>
<!-- NumbersOnlyModule -->
<g id="node2" class="node">
<title>NumbersOnlyModule</title>
<polygon fill="#8dd3c7" stroke="black" points="154.36,-190 151.36,-194 130.36,-194 127.36,-190 15.64,-190 15.64,-154 154.36,-154 154.36,-190"/>
<text text-anchor="middle" x="85" y="-167.8" font-family="Times,serif" font-size="14.00">NumbersOnlyModule</text>
</g>
<!-- NumberDirective&#45;&gt;NumbersOnlyModule -->
<g id="edge1" class="edge">
<title>NumberDirective&#45;&gt;NumbersOnlyModule</title>
<path fill="none" stroke="black" d="M85,-122.22C85,-122.22 85,-143.73 85,-143.73"/>
<polygon fill="black" stroke="black" points="81.5,-143.73 85,-153.73 88.5,-143.73 81.5,-143.73"/>
</g>
<!-- NumberDirective  -->
<g id="node3" class="node">
<title>NumberDirective </title>
<polygon fill="#fb8072" stroke="black" points="143.96,-258 26.04,-258 26.04,-222 143.96,-222 143.96,-258"/>
<text text-anchor="middle" x="85" y="-235.8" font-family="Times,serif" font-size="14.00">NumberDirective </text>
</g>
<!-- NumbersOnlyModule&#45;&gt;NumberDirective  -->
<g id="edge2" class="edge">
<title>NumbersOnlyModule&#45;&gt;NumberDirective </title>
<path fill="none" stroke="black" stroke-dasharray="5,2" d="M85,-190.22C85,-190.22 85,-211.73 85,-211.73"/>
<polygon fill="black" stroke="black" points="81.5,-211.73 85,-221.73 88.5,-211.73 81.5,-211.73"/>
</g>
<!-- SpatialSearchKeyboardUIBehaviorComponent -->
<g id="node4" class="node">
<title>SpatialSearchKeyboardUIBehaviorComponent</title>
<polygon fill="#ffffb3" stroke="black" points="465.58,-122 186.42,-122 186.42,-86 465.58,-86 465.58,-122"/>
<text text-anchor="middle" x="326" y="-99.8" font-family="Times,serif" font-size="14.00">SpatialSearchKeyboardUIBehaviorComponent</text>
</g>
<!-- SpatialSearchKeyboardUIBehaviorModule -->
<g id="node5" class="node">
<title>SpatialSearchKeyboardUIBehaviorModule</title>
<polygon fill="#8dd3c7" stroke="black" points="569.8,-190 566.8,-194 545.8,-194 542.8,-190 312.2,-190 312.2,-154 569.8,-154 569.8,-190"/>
<text text-anchor="middle" x="441" y="-167.8" font-family="Times,serif" font-size="14.00">SpatialSearchKeyboardUIBehaviorModule</text>
</g>
<!-- SpatialSearchKeyboardUIBehaviorComponent&#45;&gt;SpatialSearchKeyboardUIBehaviorModule -->
<g id="edge3" class="edge">
<title>SpatialSearchKeyboardUIBehaviorComponent&#45;&gt;SpatialSearchKeyboardUIBehaviorModule</title>
<path fill="none" stroke="black" d="M388.95,-122.22C388.95,-122.22 388.95,-143.73 388.95,-143.73"/>
<polygon fill="black" stroke="black" points="385.45,-143.73 388.95,-153.73 392.45,-143.73 385.45,-143.73"/>
</g>
<!-- SpatialSearchKeyboardUIBehaviorComponent  -->
<g id="node7" class="node">
<title>SpatialSearchKeyboardUIBehaviorComponent </title>
<polygon fill="#fb8072" stroke="black" points="582.58,-258 299.42,-258 299.42,-222 582.58,-222 582.58,-258"/>
<text text-anchor="middle" x="441" y="-235.8" font-family="Times,serif" font-size="14.00">SpatialSearchKeyboardUIBehaviorComponent </text>
</g>
<!-- SpatialSearchKeyboardUIBehaviorModule&#45;&gt;SpatialSearchKeyboardUIBehaviorComponent  -->
<g id="edge5" class="edge">
<title>SpatialSearchKeyboardUIBehaviorModule&#45;&gt;SpatialSearchKeyboardUIBehaviorComponent </title>
<path fill="none" stroke="black" stroke-dasharray="5,2" d="M441,-190.22C441,-190.22 441,-211.73 441,-211.73"/>
<polygon fill="black" stroke="black" points="437.5,-211.73 441,-221.73 444.5,-211.73 437.5,-211.73"/>
</g>
<!-- SpatialSearchKeyboardUIModule -->
<g id="node6" class="node">
<title>SpatialSearchKeyboardUIModule</title>
<polygon fill="#8dd3c7" stroke="black" points="696.48,-122 693.48,-126 672.48,-126 669.48,-122 489.52,-122 489.52,-86 696.48,-86 696.48,-122"/>
<text text-anchor="middle" x="593" y="-99.8" font-family="Times,serif" font-size="14.00">SpatialSearchKeyboardUIModule</text>
</g>
<!-- SpatialSearchKeyboardUIModule&#45;&gt;SpatialSearchKeyboardUIBehaviorModule -->
<g id="edge4" class="edge">
<title>SpatialSearchKeyboardUIModule&#45;&gt;SpatialSearchKeyboardUIBehaviorModule</title>
<path fill="none" stroke="black" d="M529.83,-122.22C529.83,-122.22 529.83,-143.73 529.83,-143.73"/>
<polygon fill="black" stroke="black" points="526.33,-143.73 529.83,-153.73 533.33,-143.73 526.33,-143.73"/>
</g>
<!-- SpatialSearchKeyboardUIComponent  -->
<g id="node9" class="node">
<title>SpatialSearchKeyboardUIComponent </title>
<polygon fill="#fb8072" stroke="black" points="967.77,-190 736.23,-190 736.23,-154 967.77,-154 967.77,-190"/>
<text text-anchor="middle" x="852" y="-167.8" font-family="Times,serif" font-size="14.00">SpatialSearchKeyboardUIComponent </text>
</g>
<!-- SpatialSearchKeyboardUIModule&#45;&gt;SpatialSearchKeyboardUIComponent  -->
<g id="edge7" class="edge">
<title>SpatialSearchKeyboardUIModule&#45;&gt;SpatialSearchKeyboardUIComponent </title>
<path fill="none" stroke="black" stroke-dasharray="5,2" d="M639.39,-122.22C639.39,-142.37 639.39,-172 639.39,-172 639.39,-172 726.05,-172 726.05,-172"/>
<polygon fill="black" stroke="black" points="726.05,-175.5 736.05,-172 726.05,-168.5 726.05,-175.5"/>
</g>
<!-- SpatialSearchKeyboardUIComponent -->
<g id="node8" class="node">
<title>SpatialSearchKeyboardUIComponent</title>
<polygon fill="#ffffb3" stroke="black" points="1220.27,-190 991.73,-190 991.73,-154 1220.27,-154 1220.27,-190"/>
<text text-anchor="middle" x="1106" y="-167.8" font-family="Times,serif" font-size="14.00">SpatialSearchKeyboardUIComponent</text>
</g>
<!-- SpatialSearchKeyboardUIComponent&#45;&gt;SpatialSearchKeyboardUIModule -->
<g id="edge6" class="edge">
<title>SpatialSearchKeyboardUIComponent&#45;&gt;SpatialSearchKeyboardUIModule</title>
<path fill="none" stroke="black" d="M1106,-153.78C1106,-133.63 1106,-104 1106,-104 1106,-104 706.5,-104 706.5,-104"/>
<polygon fill="black" stroke="black" points="706.5,-100.5 696.5,-104 706.5,-107.5 706.5,-100.5"/>
</g>
<!-- StoreDebugComponent -->
<g id="node10" class="node">
<title>StoreDebugComponent</title>
<polygon fill="#ffffb3" stroke="black" points="1410.2,-122 1261.8,-122 1261.8,-86 1410.2,-86 1410.2,-122"/>
<text text-anchor="middle" x="1336" y="-99.8" font-family="Times,serif" font-size="14.00">StoreDebugComponent</text>
</g>
<!-- StoreDebugModule -->
<g id="node11" class="node">
<title>StoreDebugModule</title>
<polygon fill="#8dd3c7" stroke="black" points="1399.42,-190 1396.42,-194 1375.42,-194 1372.42,-190 1272.58,-190 1272.58,-154 1399.42,-154 1399.42,-190"/>
<text text-anchor="middle" x="1336" y="-167.8" font-family="Times,serif" font-size="14.00">StoreDebugModule</text>
</g>
<!-- StoreDebugComponent&#45;&gt;StoreDebugModule -->
<g id="edge8" class="edge">
<title>StoreDebugComponent&#45;&gt;StoreDebugModule</title>
<path fill="none" stroke="black" d="M1336,-122.22C1336,-122.22 1336,-143.73 1336,-143.73"/>
<polygon fill="black" stroke="black" points="1332.5,-143.73 1336,-153.73 1339.5,-143.73 1332.5,-143.73"/>
</g>
<!-- StoreDebugComponent  -->
<g id="node12" class="node">
<title>StoreDebugComponent </title>
<polygon fill="#fb8072" stroke="black" points="1411.7,-258 1260.3,-258 1260.3,-222 1411.7,-222 1411.7,-258"/>
<text text-anchor="middle" x="1336" y="-235.8" font-family="Times,serif" font-size="14.00">StoreDebugComponent </text>
</g>
<!-- StoreDebugModule&#45;&gt;StoreDebugComponent  -->
<g id="edge9" class="edge">
<title>StoreDebugModule&#45;&gt;StoreDebugComponent </title>
<path fill="none" stroke="black" stroke-dasharray="5,2" d="M1336,-190.22C1336,-190.22 1336,-211.73 1336,-211.73"/>
<polygon fill="black" stroke="black" points="1332.5,-211.73 1336,-221.73 1339.5,-211.73 1332.5,-211.73"/>
</g>
<!-- XYZPositionComponent -->
<g id="node13" class="node">
<title>XYZPositionComponent</title>
<polygon fill="#ffffb3" stroke="black" points="1610,-122 1454,-122 1454,-86 1610,-86 1610,-122"/>
<text text-anchor="middle" x="1532" y="-99.8" font-family="Times,serif" font-size="14.00">XYZPositionComponent</text>
</g>
<!-- XYZPositionModule -->
<g id="node14" class="node">
<title>XYZPositionModule</title>
<polygon fill="#8dd3c7" stroke="black" points="1599.21,-190 1596.21,-194 1575.21,-194 1572.21,-190 1464.79,-190 1464.79,-154 1599.21,-154 1599.21,-190"/>
<text text-anchor="middle" x="1532" y="-167.8" font-family="Times,serif" font-size="14.00">XYZPositionModule</text>
</g>
<!-- XYZPositionComponent&#45;&gt;XYZPositionModule -->
<g id="edge10" class="edge">
<title>XYZPositionComponent&#45;&gt;XYZPositionModule</title>
<path fill="none" stroke="black" d="M1532,-122.22C1532,-122.22 1532,-143.73 1532,-143.73"/>
<polygon fill="black" stroke="black" points="1528.5,-143.73 1532,-153.73 1535.5,-143.73 1528.5,-143.73"/>
</g>
<!-- XYZPositionComponent  -->
<g id="node15" class="node">
<title>XYZPositionComponent </title>
<polygon fill="#fb8072" stroke="black" points="1612,-258 1452,-258 1452,-222 1612,-222 1612,-258"/>
<text text-anchor="middle" x="1532" y="-235.8" font-family="Times,serif" font-size="14.00">XYZPositionComponent </text>
</g>
<!-- XYZPositionModule&#45;&gt;XYZPositionComponent  -->
<g id="edge11" class="edge">
<title>XYZPositionModule&#45;&gt;XYZPositionComponent </title>
<path fill="none" stroke="black" stroke-dasharray="5,2" d="M1532,-190.22C1532,-190.22 1532,-211.73 1532,-211.73"/>
<polygon fill="black" stroke="black" points="1528.5,-211.73 1532,-221.73 1535.5,-211.73 1528.5,-211.73"/>
</g>
</g>
</svg>
