<svg width="40" height="40" viewBox="0 0 40 40" fill="none" xmlns="http://www.w3.org/2000/svg">
<g clip-path="url(#clip0_1409_365)">
<g clip-path="url(#clip1_1409_365)">
<rect width="40" height="40" rx="20" fill="#201E3D"/>
</g>
<g clip-path="url(#clip2_1409_365)">
<path d="M26.6437 21.0102C26.6437 21.0102 25.8684 17.7681 23.8302 16.8781C23.2338 16.6832 21.5053 17.1902 22.5519 19.7604C22.296 19.456 21.3351 17.5655 22.1411 16.3468C22.7125 15.5973 23.5907 15.1494 24.5275 15.1281C25.1268 15.1339 25.6164 14.6482 25.6221 14.0441C25.6221 13.9404 25.6096 13.8376 25.5817 13.7378C25.4115 12.5501 23.8687 12.7149 23.8687 12.7149C23.8687 12.7149 19.8779 12.6364 18.9246 15.2929C18.9246 12.0673 23.0164 12.0508 23.0164 12.0508C23.0164 11.0512 19.5835 10.4337 17.3905 12.1449C14.4375 14.4417 14.4616 18.3934 16.8249 21.3931C15.4552 20.4682 14.5953 18.9509 14.5 17.292C14.1124 17.7923 12.9505 19.6354 13.291 22.9938C13.7796 28.0712 24.4814 32.1325 26.2406 29.5633C27.9999 26.9931 26.6437 21.0102 26.6437 21.0102ZM21.337 19.2999C21.8026 19.4822 22.1104 20.2433 22.3075 20.6573C22.3835 20.8172 22.4614 20.982 22.4797 21.1595C22.497 21.3369 22.4441 21.5318 22.3018 21.6365C22.2065 21.7072 22.0825 21.7286 21.9642 21.7228C21.8179 21.715 21.6727 21.6675 21.5515 21.5851C21.5919 21.7809 21.5477 21.9942 21.4322 22.1571C21.3341 22.2967 21.1456 22.4014 20.9965 22.32C20.9542 22.2967 20.9196 22.2608 20.8907 22.2221C20.757 22.0437 20.7253 21.8061 20.7464 21.5841C20.7685 21.3621 20.8378 21.1478 20.8897 20.9307C20.9715 20.5865 21.0061 20.2336 21.0244 19.8807C21.0359 19.6548 20.9763 19.1593 21.338 19.3009L21.337 19.2999ZM18.361 21.0751C18.8506 19.7915 19.0862 18.4254 19.2209 17.0613C19.2498 16.7714 19.2132 16.4049 19.4392 16.1839C19.6143 16.0123 19.8855 16.0036 20.1299 16.0113C20.201 16.0132 20.2732 16.0162 20.3415 16.0355C20.4463 16.0656 20.5377 16.1335 20.6156 16.211C20.7147 16.3099 20.7945 16.4272 20.8522 16.5552C21.0186 16.9275 20.9782 17.3609 20.8734 17.7545C20.7685 18.1481 20.6021 18.5253 20.5223 18.9257C20.4925 19.076 20.4742 19.2282 20.4569 19.3804C20.3588 20.2229 20.2607 21.0654 20.1626 21.9079C20.1481 22.0291 20.102 22.1833 19.9808 22.1872C19.9433 22.1881 19.9067 22.1736 19.8721 22.1581C19.7307 22.0941 19.5912 22.0194 19.4806 21.9089C19.3709 21.7984 19.2921 21.6491 19.2959 21.493C19.2978 21.4271 19.2882 21.3311 19.2228 21.334C19.2026 21.334 19.1853 21.3466 19.169 21.3582C19.0093 21.4658 18.8227 21.5337 18.6322 21.5541C18.538 21.5638 18.4331 21.5589 18.3658 21.492C18.2619 21.3892 18.31 21.2138 18.3619 21.0771L18.361 21.0751ZM16.671 18.4487C16.6402 18.3188 16.6412 18.184 16.645 18.0512C16.6556 17.6411 16.695 17.2213 16.871 16.8519C16.8989 16.7937 16.9307 16.7365 16.9778 16.6929C17.0634 16.6143 17.1846 16.594 17.3 16.5814C17.5549 16.5533 17.8695 16.5581 18.0262 16.8015C18.0715 16.8722 18.0801 16.9479 18.107 17.0254C18.1542 17.1612 18.2436 17.2785 18.2811 17.4181C18.3148 17.5451 18.3033 17.6799 18.2879 17.8098C18.1975 18.5844 18.0089 19.3484 17.729 20.0755C17.3837 19.6965 17.0827 19.2767 16.8335 18.8278C16.7662 18.7075 16.7027 18.5834 16.671 18.4487ZM21.8853 28.1701C21.8699 28.2835 21.7929 28.3853 21.6842 28.4173C21.5544 28.4551 21.4746 28.3698 21.3966 28.2961C20.7166 27.662 19.6566 27.7474 18.7919 27.4119C17.6415 26.9659 16.8653 25.7841 15.6812 25.438C15.4773 25.3788 15.2099 25.279 15.2657 25.0434C15.2878 24.9503 15.3599 24.8776 15.4484 24.8417C15.9226 24.6478 16.2958 24.9047 17.0884 25.2867C17.1692 25.3255 17.25 25.2305 17.1962 25.1578C16.9499 24.8204 16.6104 24.4587 16.1544 24.3123C15.8765 24.2232 15.3715 24.1058 15.1435 24.1126C14.8146 24.1214 14.5308 23.8499 14.4144 23.5396C14.298 23.2294 14.3134 22.8881 14.3298 22.5565C14.3461 22.2366 14.2788 20.2103 14.9637 20.4915C15.2032 20.5904 15.4119 21.2283 15.5581 21.4445C15.7582 21.7421 15.9948 22.0185 16.3276 22.1678C16.5998 22.2909 16.973 22.3869 16.9999 22.6865C17.0096 22.7931 16.998 23.3981 17.0019 23.5057C17.0201 24.0166 17.2491 24.5731 17.3933 24.6255C17.6377 24.7147 17.3991 24.2387 17.3597 23.9982C17.3308 23.8208 17.3356 23.6773 17.3876 23.5057C17.478 23.2022 17.781 23.0219 18.0763 22.9124C18.3744 22.8018 18.7236 22.8939 18.965 23.1034C19.2065 23.3128 19.345 23.622 19.396 23.9371C19.4364 24.1863 19.4258 24.4432 19.4806 24.6905C19.6345 25.3837 20.252 25.8539 20.8012 26.2989C21.387 26.773 21.9911 27.3954 21.8843 28.1701H21.8853ZM25.6693 25.3769C25.551 26.0022 25.2268 26.5868 24.7593 27.0154C24.6054 27.1569 24.3948 27.2888 24.2005 27.2132C24.0928 27.1715 24.0177 27.0735 23.9523 26.9776C23.5407 26.3687 23.33 25.6357 22.8914 25.0463C22.4903 24.5082 21.9026 24.0923 21.6689 23.4621C21.5977 23.2691 21.564 23.051 21.6371 22.859C21.7102 22.6671 21.9151 22.5158 22.1142 22.5585C22.1758 22.5711 22.2325 22.6011 22.295 22.6089C22.4528 22.6293 22.5999 22.5003 22.6567 22.35C22.6692 22.3161 22.6788 22.2822 22.6856 22.2463C22.7394 21.9584 23.0953 21.8391 23.3088 22.0369C23.3108 22.0388 23.3117 22.0398 23.3137 22.0417C23.4791 22.1988 23.5811 22.4111 23.6792 22.6176C23.7984 22.8707 23.9187 23.1227 24.0379 23.3758C23.9552 23.2013 24.061 22.7446 24.0081 22.5197C23.936 22.2095 23.7984 21.9147 23.607 21.6607C23.4608 21.4658 23.2088 21.3223 23.1059 21.1052C22.9751 20.8308 23.0251 20.3557 23.0289 20.0591C23.0347 19.6218 23.1078 19.1312 23.5695 18.9383C23.86 18.8171 24.1928 18.8762 24.4467 19.0643C25.0046 19.4764 25.1056 20.1638 25.1787 20.8066C25.2143 21.1149 25.2384 21.4581 25.0508 21.7053C24.9623 21.8216 24.8344 21.9031 24.743 22.0185C24.6305 22.16 24.5804 22.3491 24.6074 22.5284C24.8969 22.4887 25.046 22.0524 25.3624 22.1464C25.5212 22.193 25.627 22.3462 25.6356 22.5129L25.7097 23.9585C25.7337 24.4316 25.7578 24.9105 25.6702 25.3769H25.6693Z" fill="white"/>
<path d="M14.3452 15.8773C14.3759 14.902 14.6645 13.9528 15.182 13.1278C14.9184 12.6042 12.8571 12.643 12.8571 13.2451V17.6506C13.2217 16.9593 13.7286 16.3543 14.3452 15.8773Z" fill="white"/>
</g>
</g>
<defs>
<clipPath id="clip0_1409_365">
<rect width="40" height="40" fill="white"/>
</clipPath>
<clipPath id="clip1_1409_365">
<rect width="40" height="40" rx="20" fill="white"/>
</clipPath>
<clipPath id="clip2_1409_365">
<rect width="14.2857" height="19.2857" fill="white" transform="translate(12.8571 11.0714)"/>
</clipPath>
</defs>
</svg>
