<svg width="80" height="80" viewBox="0 0 80 80" fill="none" xmlns="http://www.w3.org/2000/svg">
<g clip-path="url(#clip0_1409_364)">
<g clip-path="url(#clip1_1409_364)">
<rect width="80" height="80" rx="40" fill="#201E3D"/>
</g>
<g clip-path="url(#clip2_1409_364)">
<path d="M53.2873 42.0203C53.2873 42.0203 51.7368 35.5362 47.6604 33.7561C46.4676 33.3664 43.0107 34.3805 45.1037 39.5209C44.592 38.912 42.6702 35.1309 44.2823 32.6935C45.425 31.1946 47.1814 30.2988 49.0551 30.2561C50.2536 30.2678 51.2328 29.2963 51.2443 28.0883C51.2443 27.8808 51.2193 27.6753 51.1635 27.4756C50.823 25.1002 47.7373 25.4299 47.7373 25.4299C47.7373 25.4299 39.7557 25.2728 37.8493 30.5858C37.8493 24.1346 46.0329 24.1016 46.0329 24.1016C46.0329 22.1025 39.167 20.8673 34.7809 24.2897C28.875 28.8833 28.9231 36.7868 33.6497 42.7862C30.9103 40.9364 29.1905 37.9018 29.0001 34.5841C28.2248 35.5846 25.9009 39.2708 26.5819 45.9876C27.5592 56.1424 48.9627 64.265 52.4813 59.1265C55.9998 53.9861 53.2873 42.0203 53.2873 42.0203ZM42.674 38.5998C43.6051 38.9644 44.2207 40.4865 44.6151 41.3145C44.7671 41.6344 44.9229 41.9641 44.9594 42.3189C44.9941 42.6738 44.8883 43.0635 44.6035 43.2729C44.4131 43.4145 44.1649 43.4571 43.9283 43.4455C43.6359 43.43 43.3454 43.335 43.103 43.1702C43.1838 43.5619 43.0953 43.9884 42.8645 44.3142C42.6683 44.5934 42.2912 44.8028 41.993 44.64C41.9084 44.5934 41.8391 44.5217 41.7814 44.4441C41.514 44.0873 41.4505 43.6123 41.4928 43.1682C41.5371 42.7242 41.6756 42.2957 41.7795 41.8613C41.943 41.173 42.0123 40.4671 42.0488 39.7613C42.0719 39.3095 41.9526 38.3187 42.6759 38.6018L42.674 38.5998ZM36.722 42.1502C37.7011 39.5829 38.1725 36.8508 38.4418 34.1226C38.4995 33.5428 38.4264 32.8099 38.8785 32.3678C39.2286 32.0246 39.7711 32.0071 40.2597 32.0226C40.4021 32.0265 40.5464 32.0323 40.6829 32.0711C40.8926 32.1312 41.0754 32.2669 41.2312 32.4221C41.4294 32.6198 41.589 32.8545 41.7045 33.1104C42.0373 33.855 41.9565 34.7218 41.7468 35.509C41.5371 36.2963 41.2043 37.0506 41.0446 37.8514C40.985 38.1519 40.9484 38.4564 40.9138 38.7608C40.7176 40.4458 40.5214 42.1308 40.3251 43.8159C40.2963 44.0583 40.2039 44.3666 39.9615 44.3743C39.8865 44.3763 39.8134 44.3472 39.7442 44.3161C39.4614 44.1882 39.1824 44.0389 38.9612 43.8178C38.7419 43.5968 38.5841 43.2981 38.5918 42.986C38.5957 42.8541 38.5764 42.6621 38.4456 42.668C38.4052 42.668 38.3706 42.6932 38.3379 42.7164C38.0186 42.9317 37.6454 43.0674 37.2645 43.1081C37.0759 43.1275 36.8662 43.1178 36.7316 42.984C36.5238 42.7785 36.62 42.4275 36.7239 42.1541L36.722 42.1502ZM33.3419 36.8974C33.2804 36.6375 33.2823 36.368 33.29 36.1024C33.3112 35.2821 33.39 34.4425 33.7421 33.7038C33.7979 33.5874 33.8614 33.473 33.9556 33.3858C34.1268 33.2287 34.3692 33.188 34.6001 33.1628C35.1099 33.1065 35.7389 33.1162 36.0525 33.6029C36.1429 33.7445 36.1602 33.8957 36.2141 34.0509C36.3084 34.3223 36.4873 34.5569 36.5623 34.8362C36.6296 35.0902 36.6065 35.3597 36.5758 35.6195C36.3949 37.1688 36.0179 38.6968 35.4581 40.1511C34.7674 39.3929 34.1653 38.5533 33.6671 37.6555C33.5324 37.4151 33.4054 37.1669 33.3419 36.8974ZM43.7706 56.3401C43.7398 56.567 43.5859 56.7706 43.3685 56.8346C43.1088 56.9102 42.9491 56.7396 42.7933 56.5922C41.4332 55.3241 39.3132 55.4947 37.5838 54.8238C35.283 53.9319 33.7305 51.5682 31.3624 50.8759C30.9546 50.7576 30.4198 50.5579 30.5314 50.0867C30.5756 49.9006 30.7199 49.7552 30.8969 49.6834C31.8453 49.2956 32.5917 49.8095 34.1768 50.5734C34.3384 50.651 34.5 50.461 34.3923 50.3155C33.8998 49.6408 33.2207 48.9175 32.3089 48.6247C31.7529 48.4463 30.743 48.2117 30.287 48.2253C29.6291 48.2427 29.0616 47.6998 28.8288 47.0793C28.5961 46.4588 28.6269 45.7762 28.6596 45.1131C28.6923 44.4732 28.5576 40.4206 29.9273 40.9829C30.4063 41.1807 30.8238 42.4566 31.1162 42.889C31.5163 43.4843 31.9896 44.0369 32.6552 44.3355C33.1996 44.5818 33.946 44.7738 33.9999 45.3729C34.0191 45.5862 33.996 46.7962 34.0037 47.0114C34.0403 48.0333 34.4981 49.1463 34.7867 49.251C35.2753 49.4294 34.7982 48.4773 34.7193 47.9964C34.6616 47.6416 34.6713 47.3546 34.7751 47.0114C34.956 46.4045 35.5619 46.0438 36.1525 45.8247C36.7489 45.6037 37.4472 45.7879 37.9301 46.2067C38.4129 46.6255 38.69 47.2441 38.7919 47.8743C38.8727 48.3726 38.8515 48.8865 38.9612 49.3809C39.269 50.7673 40.504 51.7078 41.6025 52.5978C42.7741 53.546 43.9822 54.7909 43.7686 56.3401H43.7706ZM51.3386 50.7538C51.1019 52.0044 50.4536 53.1737 49.5187 54.0307C49.2109 54.3138 48.7896 54.5776 48.401 54.4263C48.1855 54.3429 48.0355 54.1471 47.9047 53.9551C47.0813 52.7374 46.66 51.2715 45.7828 50.0926C44.9806 49.0164 43.8052 48.1845 43.3377 46.9242C43.1954 46.5383 43.128 46.102 43.2742 45.7181C43.4204 45.3341 43.8302 45.0317 44.2284 45.117C44.3515 45.1422 44.465 45.2023 44.5901 45.2178C44.9056 45.2585 45.1999 45.0006 45.3134 44.7001C45.3384 44.6322 45.3576 44.5643 45.3711 44.4926C45.4788 43.9167 46.1906 43.6782 46.6177 44.0738C46.6215 44.0776 46.6235 44.0796 46.6273 44.0835C46.9582 44.3976 47.1621 44.8222 47.3583 45.2352C47.5969 45.7413 47.8373 46.2455 48.0759 46.7516C47.9104 46.4026 48.1221 45.4893 48.0163 45.0394C47.872 44.4189 47.5969 43.8294 47.2141 43.3214C46.9216 42.9317 46.4176 42.6447 46.2118 42.2103C45.9502 41.6616 46.0502 40.7115 46.0579 40.1181C46.0694 39.2436 46.2156 38.2625 47.139 37.8766C47.72 37.6342 48.3856 37.7525 48.8935 38.1287C50.0093 38.9528 50.2112 40.3275 50.3575 41.6131C50.4286 42.2297 50.4767 42.9162 50.1016 43.4106C49.9246 43.6433 49.6687 43.8062 49.486 44.0369C49.2609 44.32 49.1609 44.6981 49.2147 45.0569C49.7938 44.9774 50.092 44.1048 50.7249 44.2929C51.0423 44.386 51.2539 44.6923 51.2712 45.0258L51.4194 47.9169C51.4674 48.8632 51.5155 49.8211 51.3405 50.7538H51.3386Z" fill="white"/>
<path d="M28.6903 31.7547C28.7519 29.804 29.329 27.9057 30.364 26.2556C29.8369 25.2085 25.7143 25.286 25.7143 26.4902V35.3012C26.4434 33.9186 27.4572 32.7087 28.6903 31.7547Z" fill="white"/>
</g>
</g>
<defs>
<clipPath id="clip0_1409_364">
<rect width="80" height="80" fill="white"/>
</clipPath>
<clipPath id="clip1_1409_364">
<rect width="80" height="80" rx="40" fill="white"/>
</clipPath>
<clipPath id="clip2_1409_364">
<rect width="28.5714" height="38.5714" fill="white" transform="translate(25.7143 22.1429)"/>
</clipPath>
</defs>
</svg>
