<svg width="80" height="80" viewBox="0 0 80 80" fill="none" xmlns="http://www.w3.org/2000/svg">
<g clip-path="url(#clip0_1409_388)">
<path d="M40.0083 80.0165C62.1042 80.0165 80.0165 62.1042 80.0165 40.0083C80.0165 17.9123 62.1042 0 40.0083 0C17.9123 0 0 17.9123 0 40.0083C0 62.1042 17.9123 80.0165 40.0083 80.0165Z" fill="#201E3D"/>
<path d="M41.5642 36.5322C41.2828 36.4494 41.0014 36.6149 40.9187 36.8798L38.8496 44.0968C38.7668 44.3782 38.9323 44.6596 39.1972 44.7424C39.462 44.8252 39.76 44.6596 39.8427 44.3948L41.9118 37.1777C41.9946 36.8963 41.8291 36.6149 41.5642 36.5322ZM42.8553 38.4523C42.6567 38.6509 42.6567 38.982 42.8553 39.1806L44.2954 40.6207L42.8553 42.0608C42.6567 42.2595 42.6567 42.5905 42.8553 42.7892C43.054 42.9878 43.385 42.9878 43.5837 42.7892L45.3879 40.9849C45.5866 40.7863 45.5866 40.4552 45.3879 40.2566L43.5837 38.4523C43.385 38.2537 43.054 38.2537 42.8553 38.4523ZM37.9226 38.4523C37.724 38.2537 37.3929 38.2537 37.1943 38.4523L35.39 40.2566C35.1914 40.4552 35.1914 40.7863 35.39 40.9849L37.1943 42.7892C37.3929 42.9878 37.724 42.9878 37.9226 42.7892C38.1212 42.5905 38.1212 42.2595 37.9226 42.0608L36.4825 40.6207L37.9226 39.1806C38.1212 38.982 38.1212 38.6509 37.9226 38.4523Z" fill="white"/>
<path d="M55.6011 34.9597C55.7997 35.5059 55.6342 36.1184 55.2038 36.5156C55.2038 36.5156 52.7706 38.1378 52.4561 39.0151C52.274 39.5117 52.4229 40.0745 52.4229 40.6207C52.4229 41.167 52.274 41.7298 52.4561 42.2264C52.7706 43.1037 55.2038 44.7258 55.2038 44.7258C55.6342 45.1231 55.8163 45.7356 55.6176 46.2818C55.3362 47.0432 55.0052 47.755 54.6079 48.4502L54.31 48.9634C53.8962 49.6586 53.4161 50.3207 52.9195 50.9332C52.5388 51.3801 51.9264 51.5456 51.3636 51.3635L48.7317 50.5359C48.1689 50.3538 47.5564 50.4697 47.0598 50.8007C46.6957 51.049 46.2984 51.2642 45.9177 51.4629C45.388 51.7277 44.9742 52.2077 44.8583 52.7871L44.2624 55.4852C44.13 56.048 43.683 56.5115 43.1202 56.6108C42.2429 56.7598 41.3491 56.826 40.4221 56.826C39.4952 56.826 38.6013 56.7432 37.724 56.6108C37.1447 56.5115 36.6977 56.048 36.5819 55.4852L35.986 52.7871C35.8535 52.2077 35.4563 51.7277 34.9266 51.4629C34.5293 51.2642 34.1486 51.049 33.7844 50.8007C33.2878 50.4697 32.6754 50.3538 32.096 50.5359L29.4807 51.3801C28.9179 51.5622 28.3054 51.3967 27.9247 50.9497C27.4116 50.3207 26.9481 49.6752 26.5177 48.9799L26.2198 48.4668C25.839 47.7716 25.4914 47.0432 25.21 46.2984C25.0114 45.7521 25.1769 45.1397 25.6239 44.7424C25.6239 44.7424 28.0406 43.1202 28.3716 42.2429C28.5537 41.7463 28.471 41.2001 28.471 40.6538C28.471 40.1076 28.5537 39.5117 28.3716 39.0151C28.0571 38.1378 25.6239 36.5156 25.6239 36.5156C25.1935 36.1184 25.0114 35.5059 25.21 34.9597C25.4914 34.1982 25.8225 33.4864 26.2198 32.7912L26.5177 32.2781C26.9315 31.5829 27.4116 30.9208 27.9082 30.3083C28.2889 29.8614 28.9013 29.6958 29.4641 29.8779L32.096 30.7056C32.6588 30.8876 33.2713 30.7718 33.7679 30.4407C34.132 30.1924 34.5293 29.9772 34.91 29.7786C35.4397 29.5138 35.8535 29.0337 35.9694 28.4544L36.5653 25.7563C36.6812 25.1935 37.1281 24.73 37.7075 24.6307C38.5848 24.4817 39.4952 24.3989 40.4221 24.3989C41.3491 24.3989 42.2429 24.4817 43.1202 24.6141C43.6996 24.7134 44.1465 25.1769 44.2624 25.7397L44.8583 28.4378C44.9907 29.0172 45.388 29.4972 45.9177 29.7621C46.3149 29.9607 46.6957 30.1924 47.0598 30.4242C47.5564 30.7552 48.1689 30.8711 48.7317 30.689L51.3636 29.8614C51.9264 29.6793 52.5388 29.8448 52.9195 30.2917C53.4327 30.9042 53.8962 31.5663 54.31 32.2615L54.6079 32.7747C54.9886 33.4699 55.3363 34.1982 55.6011 34.9431V34.9597ZM40.389 49.5427C45.3218 49.5427 49.311 45.5535 49.311 40.6207C49.311 35.688 45.3218 31.6987 40.389 31.6987C35.4563 31.6987 31.467 35.688 31.467 40.6207C31.467 45.5535 35.4563 49.5427 40.389 49.5427Z" fill="white"/>
</g>
<defs>
<clipPath id="clip0_1409_388">
<rect width="80" height="80" fill="white"/>
</clipPath>
</defs>
</svg>
