<svg width="40" height="40" viewBox="0 0 40 40" fill="none" xmlns="http://www.w3.org/2000/svg">
<g clip-path="url(#clip0_1409_369)">
<path d="M20.0041 40.0083C31.0521 40.0083 40.0083 31.0521 40.0083 20.0041C40.0083 8.95616 31.0521 0 20.0041 0C8.95616 0 0 8.95616 0 20.0041C0 31.0521 8.95616 40.0083 20.0041 40.0083Z" fill="#201E3D"/>
<path d="M22.5289 18.2143H21.7857C21.7857 15.8523 23.116 13.9286 24.751 13.9286H28.2143V14.6713H24.751C23.5471 14.6713 22.5289 16.2905 22.5289 18.2143Z" fill="white"/>
<path d="M26.9607 21.7857C26.051 21.7857 24.9474 21.7642 24.1644 21.6712C22.4121 21.4636 21.8454 18.658 21.7857 18.3431L22.5165 18.2143C22.6507 18.9372 23.2249 20.841 24.2539 20.9626C25.7378 21.1416 28.5192 21.0485 28.5491 21.0485L28.5714 21.7642C28.5118 21.7642 27.8257 21.7857 26.9607 21.7857Z" fill="white"/>
<path d="M16.1003 22.1429H15.3571C15.3571 19.7809 16.6875 17.8571 18.3225 17.8571H21.7857V18.5999H18.3225C17.1185 18.5999 16.1003 20.2191 16.1003 22.1429Z" fill="white"/>
<path d="M20.5322 27.1429C19.6225 27.1429 18.5263 27.1192 17.7359 27.0169C15.9835 26.7886 15.4168 23.7024 15.3571 23.356L16.0879 23.2143C16.2221 24.0094 16.7963 26.1036 17.8254 26.2375C19.3093 26.4343 22.0907 26.3398 22.1205 26.332L22.1429 27.1192C22.0832 27.1192 21.3972 27.1429 20.5247 27.1429H20.5322Z" fill="white"/>
<path d="M21.9643 20.3571C23.0491 20.3571 23.9286 19.4777 23.9286 18.3929C23.9286 17.308 23.0491 16.4286 21.9643 16.4286C20.8794 16.4286 20 17.308 20 18.3929C20 19.4777 20.8794 20.3571 21.9643 20.3571Z" fill="white"/>
<path d="M22.5 28.5714C23.4862 28.5714 24.2857 27.7719 24.2857 26.7857C24.2857 25.7995 23.4862 25 22.5 25C21.5138 25 20.7143 25.7995 20.7143 26.7857C20.7143 27.7719 21.5138 28.5714 22.5 28.5714Z" fill="white"/>
<path d="M28.0357 16.4286C29.1206 16.4286 30 15.5491 30 14.4643C30 13.3794 29.1206 12.5 28.0357 12.5C26.9509 12.5 26.0714 13.3794 26.0714 14.4643C26.0714 15.5491 26.9509 16.4286 28.0357 16.4286Z" fill="white"/>
<path d="M15.3571 21.7857H10V22.5H15.3571V21.7857Z" fill="white"/>
<path d="M10.3571 23.9286C11.3434 23.9286 12.1429 23.1291 12.1429 22.1429C12.1429 21.1566 11.3434 20.3571 10.3571 20.3571C9.37092 20.3571 8.57143 21.1566 8.57143 22.1429C8.57143 23.1291 9.37092 23.9286 10.3571 23.9286Z" fill="white"/>
<path d="M15.8929 23.9286C16.9777 23.9286 17.8571 23.1291 17.8571 22.1429C17.8571 21.1566 16.9777 20.3571 15.8929 20.3571C14.808 20.3571 13.9286 21.1566 13.9286 22.1429C13.9286 23.1291 14.808 23.9286 15.8929 23.9286Z" fill="white"/>
<path d="M30.3982 21.3599L28.8221 19.6579C28.6687 19.4922 28.4099 19.4822 28.2442 19.6357L26.5422 21.2118C26.3765 21.3652 26.3666 21.6239 26.52 21.7896L28.0961 23.4916C28.2495 23.6573 28.5083 23.6673 28.674 23.5138L30.376 21.9377C30.5417 21.7843 30.5516 21.5256 30.3982 21.3599Z" fill="white"/>
</g>
<defs>
<clipPath id="clip0_1409_369">
<rect width="40" height="40" fill="white"/>
</clipPath>
</defs>
</svg>
