<svg width="56" height="56" viewBox="0 0 56 56" fill="none" xmlns="http://www.w3.org/2000/svg">
<g clip-path="url(#clip0_4806_18658)">
<path d="M28.0058 56.0116C43.473 56.0116 56.0116 43.473 56.0116 28.0058C56.0116 12.5386 43.473 0 28.0058 0C12.5386 0 0 12.5386 0 28.0058C0 43.473 12.5386 56.0116 28.0058 56.0116Z" fill="#201E3D"/>
<path d="M31.5405 25.5H30.5C30.5 22.1932 32.3624 19.5 34.6514 19.5H39.5V20.5399H34.6514C32.9659 20.5399 31.5405 22.8068 31.5405 25.5Z" fill="white"/>
<path d="M37.7451 30.5C36.4714 30.5 34.9264 30.4699 33.8302 30.3397C31.3769 30.0491 30.5835 26.1212 30.5 25.6804L31.5231 25.5C31.711 26.512 32.5148 29.1774 33.9555 29.3477C36.033 29.5982 39.9269 29.4679 39.9687 29.4679L40 30.4699C39.9165 30.4699 38.956 30.5 37.7451 30.5Z" fill="white"/>
<path d="M22.5405 31H21.5C21.5 27.6932 23.3624 25 25.6514 25H30.5V26.0399H25.6514C23.9659 26.0399 22.5405 28.3068 22.5405 31Z" fill="white"/>
<path d="M28.7451 38C27.4714 38 25.9368 37.9669 24.8302 37.8236C22.3769 37.504 21.5835 33.1834 21.5 32.6984L22.5231 32.5C22.711 33.6132 23.5148 36.5451 24.9555 36.7325C27.033 37.008 30.9269 36.8758 30.9687 36.8647L31 37.9669C30.9165 37.9669 29.956 38 28.7346 38H28.7451Z" fill="white"/>
<path d="M30.75 28.5C32.2688 28.5 33.5 27.2688 33.5 25.75C33.5 24.2312 32.2688 23 30.75 23C29.2312 23 28 24.2312 28 25.75C28 27.2688 29.2312 28.5 30.75 28.5Z" fill="white"/>
<path d="M31.5 40C32.8807 40 34 38.8807 34 37.5C34 36.1193 32.8807 35 31.5 35C30.1193 35 29 36.1193 29 37.5C29 38.8807 30.1193 40 31.5 40Z" fill="white"/>
<path d="M39.25 23C40.7688 23 42 21.7688 42 20.25C42 18.7312 40.7688 17.5 39.25 17.5C37.7312 17.5 36.5 18.7312 36.5 20.25C36.5 21.7688 37.7312 23 39.25 23Z" fill="white"/>
<path d="M21.5 30.5H14V31.5H21.5V30.5Z" fill="white"/>
<path d="M14.5 33.5C15.8807 33.5 17 32.3807 17 31C17 29.6193 15.8807 28.5 14.5 28.5C13.1193 28.5 12 29.6193 12 31C12 32.3807 13.1193 33.5 14.5 33.5Z" fill="white"/>
<path d="M22.25 33.5C23.7688 33.5 25 32.3807 25 31C25 29.6193 23.7688 28.5 22.25 28.5C20.7312 28.5 19.5 29.6193 19.5 31C19.5 32.3807 20.7312 33.5 22.25 33.5Z" fill="white"/>
<path d="M42.5564 29.9034L40.3499 27.5206C40.1351 27.2886 39.7729 27.2747 39.5409 27.4896L37.1581 29.6961C36.9261 29.9109 36.9122 30.2731 37.127 30.5051L39.3335 32.8879C39.5483 33.1199 39.9105 33.1338 40.1425 32.9189L42.5253 30.7124C42.7573 30.4976 42.7712 30.1354 42.5564 29.9034Z" fill="white"/>
</g>
<defs>
<clipPath id="clip0_4806_18658">
<rect width="56" height="56" fill="white"/>
</clipPath>
</defs>
</svg>
