<svg width="24" height="24" viewBox="0 0 24 24" fill="none" xmlns="http://www.w3.org/2000/svg">
<path d="M15.9753 9.33691C15.8489 9.19248 15.6323 9.15637 15.4337 9.14734C15.2351 9.14734 15.0365 9.17442 14.8469 9.11123C14.4678 8.99388 14.2782 8.57864 14.0526 8.23561C13.5922 7.52248 12.8069 7.01697 11.9583 6.90865C11.7327 6.88157 11.4619 6.84546 11.3716 6.63784C11.3355 6.56562 11.3355 6.47535 11.3355 6.39411C11.3265 6.20454 11.2904 5.99692 11.1459 5.87054C11.0015 5.74417 10.7307 5.76222 10.6675 5.94276C10.6133 6.09622 10.7307 6.24968 10.7939 6.39411C10.9744 6.81838 10.3786 6.89962 10.1078 6.95378C9.6926 7.04405 9.26834 7.08016 8.87116 7.24265C8.35663 7.44124 7.92334 7.83843 7.67058 8.32589C7.52615 8.59669 7.38173 8.94875 7.07481 8.95777C6.93038 8.95777 6.7679 8.89458 6.6686 8.98485C6.55126 9.08415 6.62347 9.27372 6.72277 9.38204C6.82206 9.49037 6.95746 9.59869 6.96649 9.75215C6.96649 9.85145 6.92136 9.94172 6.87622 10.032C6.42488 10.9076 6.44293 11.3319 6.54223 12.3158C6.6325 13.2095 6.9033 13.5796 6.96649 13.715C7.02065 13.8414 6.98454 13.9858 6.93941 14.1212C6.89428 14.2476 6.83109 14.383 6.84914 14.5184C6.86719 14.6538 6.99357 14.7892 7.12897 14.7531C7.25535 14.717 7.30048 14.5455 7.39075 14.4552C7.54421 14.3018 7.80599 14.3559 7.9775 14.4913C8.13998 14.6267 8.23928 14.8253 8.38371 14.9878C8.76284 15.4301 9.37666 15.5926 9.96341 15.6016C10.5411 15.6197 11.1279 15.5114 11.7056 15.5475C11.7236 15.5475 11.7417 15.5475 11.7598 15.5475C11.7598 15.5836 11.7688 15.6197 11.7688 15.6558C11.7688 15.7461 11.7146 15.8183 11.6785 15.8995C11.6424 15.9717 11.6334 16.062 11.6785 16.1342C11.7327 16.2155 11.859 16.2335 11.9403 16.1884C12.0306 16.1433 12.0847 16.053 12.1299 15.9627C12.193 15.8363 12.2201 15.7009 12.2291 15.5655C12.4638 15.5655 12.6985 15.5475 12.8881 15.4211C13.0506 15.3128 13.1679 15.1593 13.3124 15.0329C13.6103 14.7712 14.0074 14.6628 14.3053 14.4101C14.6393 14.1212 14.8018 13.6789 14.9462 13.2546C15.0546 13.2005 15.1809 13.3088 15.2983 13.3178C15.4698 13.3178 15.5781 13.0921 15.5059 12.9296C15.4337 12.7672 15.2622 12.6859 15.0907 12.6408C15.1719 12.0992 15.1719 11.5395 15.0907 10.9979C15.0546 10.7541 15.0004 10.5014 15.0455 10.2577C15.0997 10.0139 15.2983 9.77923 15.542 9.78826C15.6594 9.78826 15.7767 9.84242 15.885 9.80631C16.0746 9.75215 16.1017 9.46329 15.9753 9.31885V9.33691ZM10.6585 13.4713C9.76482 13.4713 9.03364 12.7491 9.03364 11.8464C9.03364 10.9437 9.75579 10.2216 10.6585 10.2216C11.5612 10.2216 12.2833 10.9437 12.2833 11.8464C12.2833 12.7491 11.5612 13.4713 10.6585 13.4713Z" fill="white"/>
<path d="M10.913 19.8263C6.27323 19.8263 2.5 16.053 2.5 11.4132C2.5 6.77328 6.27323 3 10.913 3C15.5528 3 19.3261 6.77328 19.3261 11.4132C19.3261 16.053 15.5528 19.8263 10.913 19.8263ZM10.913 3.9027C6.7697 3.9027 3.40269 7.26976 3.40269 11.4132C3.40269 15.5565 6.7697 18.9236 10.913 18.9236C15.0564 18.9236 18.4234 15.5565 18.4234 11.4132C18.4234 7.26976 15.0564 3.9027 10.913 3.9027Z" fill="white"/>
<path d="M19.5878 20.9911C19.4794 20.9911 19.3621 20.955 19.2808 20.8737L16.0944 17.8948C15.9138 17.7233 15.9048 17.4435 16.0763 17.2539C16.2478 17.0734 16.5367 17.0643 16.7172 17.2359L19.9037 20.2148C20.0842 20.3863 20.0933 20.6661 19.9217 20.8557C19.8315 20.955 19.7141 21.0001 19.5878 21.0001V20.9911Z" fill="white"/>
</svg>
