<svg width="40" height="40" viewBox="0 0 40 40" fill="none" xmlns="http://www.w3.org/2000/svg">
<g clip-path="url(#clip0_1409_395)">
<g clip-path="url(#clip1_1409_395)">
<path d="M20 40C31.0457 40 40 31.0457 40 20C40 8.95431 31.0457 0 20 0C8.95431 0 0 8.95431 0 20C0 31.0457 8.95431 40 20 40Z" fill="#201E3D"/>
<path d="M24.8877 18.419C24.7658 18.2819 24.5601 18.2476 24.3734 18.24C24.1829 18.24 23.9962 18.2667 23.8172 18.2057C23.4553 18.0952 23.2762 17.699 23.0629 17.3752C22.6248 16.6971 21.8782 16.2171 21.0743 16.1143C20.861 16.0876 20.602 16.0533 20.5182 15.8552C20.4839 15.7867 20.4839 15.699 20.4839 15.6229C20.4762 15.4438 20.442 15.2457 20.3048 15.1238C20.1677 15.0019 19.9086 15.021 19.8515 15.1924C19.7982 15.3371 19.9124 15.4857 19.9734 15.6229C20.1448 16.0267 19.5772 16.1029 19.322 16.1562C18.9258 16.2438 18.5258 16.2781 18.1486 16.4305C17.661 16.621 17.2496 16.9981 17.0096 17.4591C16.8724 17.7181 16.7353 18.0495 16.442 18.061C16.3048 18.061 16.1486 18 16.0572 18.0876C15.9467 18.1829 16.0153 18.3619 16.1105 18.4648C16.2058 18.5676 16.3353 18.6705 16.3429 18.8152C16.3429 18.9105 16.301 18.9943 16.2553 19.0819C15.8248 19.9124 15.8439 20.3162 15.9391 21.2533C16.0267 22.1029 16.282 22.4533 16.3429 22.5829C16.3962 22.7048 16.3582 22.8419 16.3162 22.9676C16.2743 23.0895 16.2134 23.2152 16.2286 23.3448C16.2439 23.4743 16.3658 23.6038 16.4953 23.5695C16.6172 23.5352 16.6591 23.3714 16.7429 23.2876C16.8877 23.1429 17.1391 23.1924 17.2991 23.3219C17.4553 23.4514 17.5467 23.6381 17.6839 23.7943C18.0458 24.2133 18.6286 24.3695 19.1848 24.3771C19.7334 24.3924 20.2896 24.2895 20.8382 24.3238H20.8915C20.8915 24.3581 20.8991 24.3924 20.8991 24.4267C20.8991 24.5143 20.8496 24.5829 20.8115 24.6591C20.7772 24.7276 20.7696 24.8152 20.8115 24.8838C20.8648 24.96 20.9829 24.979 21.0591 24.9371C21.1467 24.8952 21.1962 24.8076 21.2382 24.7238C21.2991 24.6019 21.3258 24.4762 21.3334 24.3467C21.5582 24.3467 21.7791 24.3314 21.9582 24.2095C22.1143 24.1067 22.2248 23.9619 22.362 23.84C22.6439 23.5924 23.021 23.4895 23.3067 23.2495C23.6229 22.9752 23.7791 22.5562 23.9162 22.1524C24.0191 22.0991 24.141 22.2057 24.2515 22.2133C24.4153 22.2133 24.5182 22 24.4496 21.8438C24.381 21.6876 24.2172 21.6114 24.0534 21.5695C24.1296 21.0552 24.1296 20.5219 24.0534 20.0076C24.0191 19.7752 23.9658 19.5352 24.0115 19.3029C24.061 19.0705 24.2515 18.8495 24.4839 18.8571C24.5943 18.8571 24.7086 18.9105 24.8115 18.8762C24.9905 18.8229 25.0172 18.5486 24.8991 18.4114V18.4305L24.8877 18.419ZM19.8362 22.3467C18.9867 22.3467 18.2934 21.661 18.2934 20.8038C18.2934 19.9467 18.9791 19.261 19.8362 19.261C20.6934 19.261 21.3791 19.9467 21.3791 20.8038C21.3791 21.661 20.6934 22.3467 19.8362 22.3467Z" fill="white"/>
<path d="M28.8609 18.3695C28.9562 18.899 29.0095 19.4438 29.0095 20C29.0095 24.9752 24.9752 29.0057 20.0038 29.0057C17.3638 29.0057 14.9905 27.8705 13.3409 26.061" stroke="white" stroke-width="2.5" stroke-miterlimit="10" stroke-linecap="round"/>
<path d="M15.5162 26.1067L13.7143 26.4876L12.7391 28.0495L11.8286 23.7905L15.5162 26.1067Z" fill="white"/>
<path d="M10.9943 20C10.9943 15.0248 15.0285 10.9943 20 10.9943C21.9809 10.9943 23.8133 11.6343 25.299 12.7162" stroke="white" stroke-width="2.5" stroke-miterlimit="10" stroke-linecap="round"/>
<path d="M23.4362 13.0895L24.899 12.419L25.4362 10.9029L27.0285 14.3657L23.4362 13.0895Z" fill="white"/>
</g>
</g>
<defs>
<clipPath id="clip0_1409_395">
<rect width="40" height="40" fill="white"/>
</clipPath>
<clipPath id="clip1_1409_395">
<rect width="40" height="40" fill="white"/>
</clipPath>
</defs>
</svg>
