<svg width="24" height="24" viewBox="0 0 24 24" fill="none" xmlns="http://www.w3.org/2000/svg">
<path d="M11.5862 19.9996C11.2133 19.9996 10.9053 19.6753 10.9985 19.3348C11.3025 18.1917 11.9348 17.3039 12.3523 16.1933C12.4455 15.946 12.6401 15.7555 12.8266 15.569C14.6384 13.753 16.4543 11.937 18.254 10.1129C18.4567 9.90617 18.558 9.88995 18.7688 10.1088C19.6564 11.025 20.1064 11.5438 21.0143 12.4396C21.1805 12.6018 21.2413 12.695 21.0386 12.8936C19.1984 14.7178 17.3704 16.554 15.5342 18.3862C15.2505 18.67 14.9181 18.8808 14.533 18.9943C13.5643 19.2821 12.7171 19.6834 11.7484 19.9631C11.6876 19.9793 11.6227 19.9915 11.5903 19.9996H11.5862Z" fill="white"/>
<path d="M21.5162 7.74919C21.5406 7.74919 21.7473 7.76135 21.9256 7.91539C22.7485 8.61666 22.9268 8.79501 23.4294 9.46791C23.7334 9.88137 23.3808 10.4651 23.0322 10.8461C22.6836 11.2231 22.3107 11.5717 21.954 11.9446C21.8365 12.0662 21.7594 12.0744 21.6338 11.9527C20.6691 10.9799 20.1624 10.4813 19.1937 9.51655C19.1086 9.43142 19.0599 9.36657 19.1694 9.26117C19.599 8.85176 20.0084 8.42614 20.4502 8.03294C20.7137 7.79784 21.0542 7.72487 21.5162 7.74919Z" fill="white"/>
<path d="M9.59469 18.5965C7.50317 17.9479 5.79671 16.4197 4.91308 14.4537L6.78167 13.6187C7.0573 14.2308 7.44237 14.7861 7.9085 15.2563L6.61954 16.6183C6.57495 16.667 6.57495 16.744 6.62359 16.7886C6.64386 16.8089 6.67629 16.821 6.70466 16.821C6.73709 16.821 6.76951 16.8089 6.79383 16.7845L8.0828 15.4225C8.67053 15.9617 9.37176 16.3792 10.15 16.6265L10.2513 16.2738C9.52984 16.0427 8.8732 15.6617 8.33005 15.1631L9.542 13.8822C9.96355 14.2632 10.4783 14.5429 11.0498 14.6767L11.0336 14.7496L11.6254 14.1943C11.52 14.1862 11.4146 14.1821 11.3174 14.1619L11.6497 12.5161C11.7024 12.5242 11.7551 12.5283 11.8078 12.5323C12.0794 12.5405 12.3307 12.4513 12.5334 12.3013L12.9468 12.812C12.6185 13.0674 12.205 13.2174 11.7592 13.2093C11.7024 13.2093 11.6578 13.2498 11.6578 13.3066C11.6578 13.3633 11.6984 13.4079 11.7551 13.4079C12.0875 13.416 12.3996 13.339 12.6793 13.2052L13.7332 12.2162L13.6845 12.1878C13.7696 11.9932 13.8264 11.7824 13.8507 11.5635L14.4141 11.5757L15.2126 10.8258C15.1356 10.3434 14.9613 9.89347 14.706 9.50027L16.1854 8.53552C16.3759 8.82738 16.534 9.13545 16.6637 9.46379L16.9434 9.20031C16.8177 8.90034 16.6637 8.61254 16.4894 8.34095L18.0013 7.35188C18.0581 7.3154 18.0743 7.24243 18.0378 7.18568C18.0013 7.12893 17.9284 7.11272 17.8716 7.1492L16.3557 8.13827C15.9382 7.55456 15.4153 7.05597 14.8113 6.67493L15.7477 5.13052C15.7801 5.07377 15.7639 5.00081 15.7071 4.96433C15.6504 4.92784 15.5774 4.94811 15.5409 5.00486L14.6087 6.54927C13.875 6.1277 13.0319 5.86422 12.1321 5.81963L12.1686 4.00363C12.1686 3.91445 12.0997 3.84149 12.0105 3.84149C11.9213 3.84149 11.8483 3.9104 11.8483 3.99958L11.8119 5.81152C10.5715 5.81963 9.4204 6.23715 8.49624 6.94247L7.21133 5.34942C8.54082 4.31981 10.223 3.72393 12.0308 3.76447C14.8357 3.83338 17.2515 5.42643 18.508 7.72481L19.0755 7.19379C17.6689 4.75354 15.0667 3.07536 12.051 3.0024C7.45047 2.89295 3.61601 6.54522 3.50252 11.146C3.40929 14.9645 5.91426 18.2479 9.40013 19.3221L9.60685 18.5965H9.59469ZM6.65602 11.3811L8.42328 11.4257C8.43138 11.8392 8.5165 12.2364 8.66242 12.6013L7.04919 13.3228C6.80194 12.7229 6.66413 12.0662 6.66007 11.3852L6.65602 11.3811ZM8.15576 14.9929C7.72205 14.5551 7.36535 14.0403 7.10999 13.4687L8.72322 12.7472C8.88536 13.1039 9.10424 13.4282 9.37176 13.7079L8.15981 14.9888L8.15576 14.9929ZM9.87032 11.0285C9.92301 11.0406 9.97571 11.0041 9.98787 10.9515C10.0689 10.5704 10.2675 10.2421 10.5351 9.99075L10.9769 10.542C10.8188 10.7082 10.7094 10.9231 10.6688 11.1622L8.98669 11.1217C9.04749 10.3718 9.39608 9.70701 9.91896 9.23274L10.4054 9.83672C10.1014 10.1164 9.88248 10.4853 9.78925 10.9109C9.77709 10.9636 9.81357 11.0163 9.86627 11.0285H9.87032ZM10.6648 11.4784C10.6729 11.5473 10.685 11.6162 10.7053 11.6851L9.16909 12.3702C9.0556 12.0783 8.99074 11.7622 8.97858 11.4379L10.6607 11.4784H10.6648ZM11.1593 14.1213C10.2959 13.9106 9.59064 13.3106 9.22989 12.5202L10.7621 11.8351C10.8999 12.1391 11.1674 12.3743 11.4917 12.4756L11.1593 14.1213ZM11.82 12.0459C11.4349 12.0378 11.1309 11.7176 11.139 11.3325C11.1471 10.9474 11.4673 10.6434 11.8524 10.6515C12.2375 10.6596 12.5415 10.9798 12.5334 11.3649C12.5253 11.75 12.205 12.054 11.82 12.0459ZM13.1819 12.5891L12.7644 12.0743C12.882 11.9203 12.9671 11.7378 12.9995 11.5392L13.648 11.5554C13.6034 11.9527 13.4373 12.3094 13.1819 12.5891ZM13.0076 11.2149C12.9428 10.6393 12.4604 10.1813 11.8646 10.1691C11.6335 10.1651 11.4146 10.2259 11.2282 10.3394L10.7864 9.79213C11.0944 9.59351 11.4592 9.48 11.8443 9.49217C12.813 9.51649 13.5913 10.2826 13.6521 11.2311L13.0076 11.2149ZM14.6127 6.97895C15.1721 7.33566 15.6585 7.79777 16.0436 8.33284L14.5641 9.29759C14.3249 8.98142 14.0331 8.70577 13.7007 8.48688L14.6168 6.9749L14.6127 6.97895ZM12.1118 6.17634C12.9468 6.22093 13.725 6.46009 14.406 6.85329L13.49 8.36527C13.0644 8.13017 12.5861 7.98018 12.0713 7.9437L12.1078 6.17634H12.1118ZM11.9051 8.49499C12.8293 8.51931 13.644 8.98142 14.1466 9.67863C14.1466 9.68674 14.1547 9.6989 14.1588 9.70701C14.1669 9.71917 14.175 9.72727 14.1831 9.73538C14.4871 10.1732 14.6695 10.6961 14.6857 11.2636L13.8507 11.2433C13.794 10.1813 12.9265 9.32597 11.8483 9.29759C11.4146 9.28543 11.0012 9.41515 10.6607 9.64215L10.1703 9.03411C10.6567 8.68145 11.2566 8.48283 11.901 8.49904L11.9051 8.49499ZM11.7916 6.16824L11.7551 7.93559C11.0336 7.95181 10.3648 8.19502 9.81763 8.59633L8.70701 7.22217C9.56632 6.56954 10.6364 6.1804 11.7876 6.17229L11.7916 6.16824ZM9.57037 8.79495C8.92184 9.37056 8.49218 10.1853 8.42733 11.1055L6.66007 11.0609C6.74114 9.60161 7.4221 8.30852 8.45976 7.41674L9.57037 8.7909V8.79495ZM6.95191 5.54804L8.23682 7.14109C7.12215 8.09774 6.38444 9.48811 6.30338 11.0568L4.25644 11.0082C4.35372 8.81522 5.38327 6.8695 6.95191 5.54804ZM4.24833 11.3244L6.29527 11.373C6.29527 12.1148 6.4493 12.8201 6.71682 13.4687L4.84823 14.3038C4.45911 13.3876 4.24428 12.3783 4.24833 11.3244Z" fill="white"/>
</svg>
