<svg width="40" height="40" viewBox="0 0 40 40" fill="none" xmlns="http://www.w3.org/2000/svg">
<g clip-path="url(#clip0_1409_399)">
<g clip-path="url(#clip1_1409_399)">
<path d="M20 40C31.0457 40 40 31.0457 40 20C40 8.95431 31.0457 0 20 0C8.95431 0 0 8.95431 0 20C0 31.0457 8.95431 40 20 40Z" fill="#201E3D"/>
<path d="M19.4591 27.9886C19.1086 27.9886 18.8191 27.6838 18.9067 27.3638C19.1924 26.2895 19.7867 25.4552 20.1791 24.4114C20.2667 24.179 20.4495 24 20.6248 23.8248C22.3276 22.1181 24.0343 20.4114 25.7257 18.6971C25.9162 18.5029 26.0114 18.4876 26.2095 18.6933C27.0438 19.5543 27.4667 20.0419 28.32 20.8838C28.4762 21.0362 28.5333 21.1238 28.3429 21.3105C26.6133 23.0248 24.8952 24.7505 23.1695 26.4724C22.9029 26.739 22.5905 26.9371 22.2286 27.0438C21.3181 27.3143 20.5219 27.6914 19.6114 27.9543C19.5543 27.9695 19.4933 27.981 19.4629 27.9886H19.4591Z" fill="white"/>
<path d="M28.7924 16.4762C28.8153 16.4762 29.0095 16.4876 29.1772 16.6324C29.9505 17.2914 30.1181 17.459 30.5905 18.0914C30.8762 18.48 30.5448 19.0286 30.2172 19.3867C29.8895 19.741 29.5391 20.0686 29.2038 20.419C29.0934 20.5333 29.021 20.541 28.9029 20.4267C27.9962 19.5124 27.52 19.0438 26.6095 18.1371C26.5295 18.0571 26.4838 17.9962 26.5867 17.8971C26.9905 17.5124 27.3753 17.1124 27.7905 16.7429C28.0381 16.5219 28.3581 16.4533 28.7924 16.4762Z" fill="white"/>
<path d="M17.5886 26.6705C15.6228 26.061 14.019 24.6248 13.1886 22.7771L14.9447 21.9924C15.2038 22.5676 15.5657 23.0895 16.0038 23.5314L14.7924 24.8114C14.7505 24.8571 14.7505 24.9295 14.7962 24.9714C14.8152 24.9905 14.8457 25.0019 14.8724 25.0019C14.9028 25.0019 14.9333 24.9905 14.9562 24.9676L16.1676 23.6876C16.72 24.1943 17.379 24.5867 18.1105 24.819L18.2057 24.4876C17.5276 24.2705 16.9105 23.9124 16.4 23.4438L17.539 22.24C17.9352 22.5981 18.419 22.861 18.9562 22.9867L18.9409 23.0552L19.4971 22.5333C19.3981 22.5257 19.299 22.5219 19.2076 22.5029L19.52 20.9562C19.5695 20.9638 19.619 20.9676 19.6686 20.9714C19.9238 20.979 20.16 20.8952 20.3505 20.7543L20.739 21.2343C20.4305 21.4743 20.0419 21.6152 19.6228 21.6076C19.5695 21.6076 19.5276 21.6457 19.5276 21.699C19.5276 21.7524 19.5657 21.7943 19.619 21.7943C19.9314 21.8019 20.2247 21.7295 20.4876 21.6038L21.4781 20.6743L21.4324 20.6476C21.5124 20.4648 21.5657 20.2667 21.5886 20.061L22.1181 20.0724L22.8686 19.3676C22.7962 18.9143 22.6324 18.4914 22.3924 18.1219L23.7828 17.2152C23.9619 17.4895 24.1105 17.779 24.2324 18.0876L24.4952 17.84C24.3771 17.5581 24.2324 17.2876 24.0686 17.0324L25.4895 16.1029C25.5428 16.0686 25.5581 16 25.5238 15.9467C25.4895 15.8933 25.4209 15.8781 25.3676 15.9124L23.9428 16.8419C23.5505 16.2933 23.059 15.8248 22.4914 15.4667L23.3714 14.0152C23.4019 13.9619 23.3867 13.8933 23.3333 13.859C23.28 13.8248 23.2114 13.8438 23.1771 13.8971L22.3009 15.3486C21.6114 14.9524 20.819 14.7048 19.9733 14.6629L20.0076 12.9562C20.0076 12.8724 19.9428 12.8038 19.859 12.8038C19.7752 12.8038 19.7066 12.8686 19.7066 12.9524L19.6724 14.6552C18.5066 14.6629 17.4247 15.0552 16.5562 15.7181L15.3486 14.221C16.5981 13.2533 18.179 12.6933 19.8781 12.7314C22.5143 12.7962 24.7847 14.2933 25.9657 16.4533L26.499 15.9543C25.1771 13.661 22.7314 12.0838 19.8971 12.0152C15.5733 11.9124 11.9695 15.3448 11.8628 19.6686C11.7752 23.2571 14.1295 26.3429 17.4057 27.3524L17.6 26.6705H17.5886ZM14.8266 19.8895L16.4876 19.9314C16.4952 20.32 16.5752 20.6933 16.7124 21.0362L15.1962 21.7143C14.9638 21.1505 14.8343 20.5333 14.8305 19.8933L14.8266 19.8895ZM16.2362 23.2838C15.8286 22.8724 15.4933 22.3886 15.2533 21.8514L16.7695 21.1733C16.9219 21.5086 17.1276 21.8133 17.379 22.0762L16.24 23.28L16.2362 23.2838ZM17.8476 19.5581C17.8971 19.5695 17.9467 19.5352 17.9581 19.4857C18.0343 19.1276 18.2209 18.819 18.4724 18.5829L18.8876 19.101C18.739 19.2571 18.6362 19.459 18.5981 19.6838L17.0171 19.6457C17.0743 18.941 17.4019 18.3162 17.8933 17.8705L18.3505 18.4381C18.0647 18.701 17.859 19.0476 17.7714 19.4476C17.76 19.4971 17.7943 19.5467 17.8438 19.5581H17.8476ZM18.5943 19.981C18.6019 20.0457 18.6133 20.1105 18.6324 20.1752L17.1886 20.819C17.0819 20.5448 17.0209 20.2476 17.0095 19.9429L18.5905 19.981H18.5943ZM19.059 22.4648C18.2476 22.2667 17.5847 21.7029 17.2457 20.96L18.6857 20.3162C18.8152 20.6019 19.0666 20.8229 19.3714 20.9181L19.059 22.4648ZM19.68 20.5143C19.3181 20.5067 19.0324 20.2057 19.04 19.8438C19.0476 19.4819 19.3486 19.1962 19.7105 19.2038C20.0724 19.2114 20.3581 19.5124 20.3505 19.8743C20.3428 20.2362 20.0419 20.5219 19.68 20.5143ZM20.96 21.0248L20.5676 20.541C20.6781 20.3962 20.7581 20.2248 20.7886 20.0381L21.3981 20.0533C21.3562 20.4267 21.2 20.7619 20.96 21.0248ZM20.7962 19.7333C20.7352 19.1924 20.2819 18.7619 19.7219 18.7505C19.5047 18.7467 19.299 18.8038 19.1238 18.9105L18.7086 18.3962C18.9981 18.2095 19.3409 18.1029 19.7028 18.1143C20.6133 18.1371 21.3447 18.8571 21.4019 19.7486L20.7962 19.7333ZM22.3047 15.7524C22.8305 16.0876 23.2876 16.5219 23.6495 17.0248L22.259 17.9314C22.0343 17.6343 21.76 17.3752 21.4476 17.1695L22.3086 15.7486L22.3047 15.7524ZM19.9543 14.9981C20.739 15.04 21.4705 15.2648 22.1105 15.6343L21.2495 17.0552C20.8495 16.8343 20.4 16.6933 19.9162 16.659L19.9505 14.9981H19.9543ZM19.76 17.1771C20.6286 17.2 21.3943 17.6343 21.8667 18.2895C21.8667 18.2971 21.8743 18.3086 21.8781 18.3162C21.8857 18.3276 21.8933 18.3352 21.9009 18.3429C22.1867 18.7543 22.3581 19.2457 22.3733 19.779L21.5886 19.76C21.5352 18.7619 20.72 17.9581 19.7066 17.9314C19.299 17.92 18.9105 18.0419 18.5905 18.2552L18.1295 17.6838C18.5867 17.3524 19.1505 17.1657 19.7562 17.181L19.76 17.1771ZM19.6533 14.9905L19.619 16.6514C18.9409 16.6667 18.3124 16.8952 17.7981 17.2724L16.7543 15.981C17.5619 15.3676 18.5676 15.0019 19.6495 14.9943L19.6533 14.9905ZM17.5657 17.459C16.9562 18 16.5524 18.7657 16.4914 19.6305L14.8305 19.5886C14.9067 18.2171 15.5466 17.0019 16.5219 16.1638L17.5657 17.4552V17.459ZM15.1047 14.4076L16.3124 15.9048C15.2647 16.8038 14.5714 18.1105 14.4952 19.5848L12.5714 19.539C12.6628 17.4781 13.6305 15.6495 15.1047 14.4076ZM12.5638 19.8362L14.4876 19.8819C14.4876 20.579 14.6324 21.2419 14.8838 21.8514L13.1276 22.6362C12.7619 21.7752 12.56 20.8267 12.5638 19.8362Z" fill="white"/>
</g>
</g>
<defs>
<clipPath id="clip0_1409_399">
<rect width="40" height="40" fill="white"/>
</clipPath>
<clipPath id="clip1_1409_399">
<rect width="40" height="40" fill="white"/>
</clipPath>
</defs>
</svg>
