<svg width="40" height="40" viewBox="0 0 40 40" fill="none" xmlns="http://www.w3.org/2000/svg">
<g clip-path="url(#clip0_1409_373)">
<path d="M20.0041 40.0083C31.0521 40.0083 40.0083 31.0521 40.0083 20.0041C40.0083 8.95616 31.0521 0 20.0041 0C8.95616 0 0 8.95616 0 20.0041C0 31.0521 8.95616 40.0083 20.0041 40.0083Z" fill="#201E3D"/>
<path d="M24.3989 21.8912C24.3989 21.8912 23.8858 19.7558 22.5285 19.1682C22.1312 19.0358 20.9808 19.3751 21.676 21.0718C21.5022 20.8732 20.8649 19.6234 21.4029 18.8206C21.7836 18.324 22.3629 18.0343 22.9919 18.0178C23.3892 18.0178 23.712 17.7033 23.7203 17.306C23.7203 17.2398 23.712 17.1736 23.6954 17.1074C23.5796 16.3211 22.5533 16.4287 22.5533 16.4287C22.5533 16.4287 19.8966 16.3791 19.2675 18.1254C19.2675 15.9983 21.9905 15.9901 21.9905 15.9901C21.9905 15.328 19.7062 14.9224 18.2495 16.048C16.288 17.5626 16.3046 20.1697 17.8771 22.1477C16.9667 21.5353 16.3956 20.5338 16.3294 19.4413C16.0728 19.7724 15.3031 20.989 15.5266 23.1988C15.8494 26.5508 22.9671 29.2241 24.1341 27.5274C25.3011 25.8307 24.3989 21.8829 24.3989 21.8829V21.8912Z" fill="white"/>
<path d="M16.7763 16.6936C16.6025 16.346 15.2286 16.3708 15.2286 16.768V19.6731C15.4687 19.2179 15.808 18.8206 16.2218 18.5061C16.2384 17.8605 16.437 17.2398 16.7763 16.6936Z" fill="white"/>
<path d="M18.7544 15.2535L19.2924 15.0217V12.2574L20.2524 12.6712L19.0192 9.74136L17.7861 12.6712L18.7544 12.2574V15.2535Z" fill="white"/>
<path d="M30.598 23.7782L27.6681 22.5367L28.0737 23.5051H24.9866L25.0528 24.043H28.0737L27.6681 25.0114L30.598 23.7782Z" fill="white"/>
<path d="M16.8756 26.3025L16.4867 25.9301L14.1196 28.2971L13.7306 27.3205L12.5305 30.2669L15.4769 29.0668L14.5003 28.6696L16.8756 26.3025Z" fill="white"/>
<path d="M24.0182 23.5051H19.2924V15.9404L18.7544 16.2301V23.6623L17.2564 25.1604L17.7116 25.4666L19.1351 24.043H24.1092L24.0182 23.5051Z" fill="white"/>
</g>
<defs>
<clipPath id="clip0_1409_373">
<rect width="40" height="40" fill="white"/>
</clipPath>
</defs>
</svg>
