<svg width="56" height="56" viewBox="0 0 56 56" fill="none" xmlns="http://www.w3.org/2000/svg">
<g clip-path="url(#clip0_4806_18653)">
<path d="M28.0058 56.0116C43.473 56.0116 56.0116 43.473 56.0116 28.0058C56.0116 12.5386 43.473 0 28.0058 0C12.5386 0 0 12.5386 0 28.0058C0 43.473 12.5386 56.0116 28.0058 56.0116Z" fill="#201E3D"/>
<path d="M34.1572 30.6477C34.1572 30.6477 33.4388 27.6582 31.5386 26.8356C30.9824 26.6502 29.3718 27.1252 30.3451 29.5006C30.1018 29.2225 29.2096 27.4729 29.9627 26.3489C30.4957 25.6537 31.3068 25.2482 32.1874 25.225C32.7436 25.225 33.1955 24.7847 33.2071 24.2285C33.2071 24.1358 33.1955 24.0431 33.1723 23.9504C33.0101 22.8496 31.5733 23.0003 31.5733 23.0003C31.5733 23.0003 27.8539 22.9308 26.9733 25.3756C26.9733 22.3977 30.7854 22.3862 30.7854 22.3862C30.7854 21.4592 27.5874 20.8914 25.5481 22.4673C22.802 24.5877 22.8251 28.2376 25.0267 31.0069C23.7521 30.1495 22.9526 28.7474 22.8599 27.2179C22.5007 27.6814 21.4231 29.3847 21.736 32.4784C22.1878 37.1712 32.1527 40.9138 33.7864 38.5384C35.4202 36.1631 34.1572 30.6361 34.1572 30.6361V30.6477Z" fill="white"/>
<path d="M23.4871 23.3709C23.2438 22.8843 21.3203 22.919 21.3203 23.4752V27.5423C21.6563 26.905 22.1314 26.3488 22.7108 25.9085C22.7339 25.0047 23.012 24.1357 23.4871 23.3709Z" fill="white"/>
<path d="M26.2541 21.3546L27.0073 21.0302V17.1601L28.3514 17.7395L26.6249 13.6377L24.8984 17.7395L26.2541 17.1601V21.3546Z" fill="white"/>
<path d="M42.8326 33.2888L38.7308 31.5508L39.2985 32.9065H34.9766L35.0693 33.6596H39.2985L38.7308 35.0153L42.8326 33.2888Z" fill="white"/>
<path d="M23.6222 36.8232L23.0777 36.3018L19.7638 39.6156L19.2192 38.2484L17.5391 42.3733L21.664 40.6932L20.2968 40.1371L23.6222 36.8232Z" fill="white"/>
<path d="M33.6228 32.9069H27.0067V22.3164L26.2535 22.722V33.1271L24.1562 35.2243L24.7935 35.6531L26.7865 33.6601H33.7503L33.6228 32.9069Z" fill="white"/>
</g>
<defs>
<clipPath id="clip0_4806_18653">
<rect width="56" height="56" fill="white"/>
</clipPath>
</defs>
</svg>
