<svg width="40" height="40" viewBox="0 0 40 40" fill="none" xmlns="http://www.w3.org/2000/svg">
<g clip-path="url(#clip0_1409_383)">
<path d="M20.0041 40.0083C31.0521 40.0083 40.0083 31.0521 40.0083 20.0041C40.0083 8.95616 31.0521 0 20.0041 0C8.95616 0 0 8.95616 0 20.0041C0 31.0521 8.95616 40.0083 20.0041 40.0083Z" fill="#201E3D"/>
<path d="M20.2938 29.9524C19.6648 29.9524 19.0441 29.8862 18.4233 29.7455C15.7749 29.1579 13.6809 27.3867 12.5222 24.7465C10.9001 21.0387 9.49306 17.8357 12.605 14.6079C15.7087 11.3801 17.3888 11.2146 20.7325 10.8752L21.527 10.7925C25.7231 10.3455 27.5191 14.0948 28.8351 18.1999C30.0683 22.0401 28.3302 25.7811 26.0625 27.7757C24.4651 29.1827 22.396 29.9441 20.2938 29.9441V29.9524ZM21.6098 11.6201L20.8069 11.7029C17.4715 12.0422 16.0894 12.1829 13.1926 15.1873C10.6021 17.8771 11.5373 20.4511 13.2754 24.4155C14.3265 26.8074 16.2135 28.413 18.5971 28.9427C21.0056 29.4724 23.6623 28.7937 25.508 27.1633C27.5771 25.3424 29.1579 21.9491 28.0405 18.4647C26.3604 13.2257 24.5479 11.3222 21.6015 11.6284L21.6098 11.6201Z" fill="white"/>
<path d="M20.12 13.6478C21.6263 13.2837 23.0747 13.1016 23.9437 14.31C23.9437 14.31 27.0143 18.175 26.7743 20.3683C26.5342 22.5616 22.9754 20.5173 22.3712 18.3157C21.767 16.1142 21.8663 15.7583 19.9793 15.2452C18.0923 14.732 18.6054 14.012 20.1117 13.6478H20.12ZM23.5796 16.9915C23.8196 17.8771 24.8293 18.5558 25.1521 18.3489C25.4749 18.1419 25.2183 16.9253 24.5314 16.2384C24.432 16.139 24.0265 15.7335 23.7534 15.8494C23.4802 15.9652 23.4637 16.5694 23.5796 16.9915Z" fill="white"/>
<path d="M19.7724 26.0045C20.5172 25.6073 22.0815 25.3342 22.7602 24.821C23.4388 24.3079 24.043 22.6526 24.523 22.305C25.0031 21.9574 25.7811 21.5849 26.3852 21.8498C26.3852 21.8498 26.7825 22.6195 26.3852 23.7699C25.988 24.9121 23.6954 26.9812 22.636 27.2377C21.5766 27.4943 19.2841 28.2144 18.4564 27.4695C17.6288 26.7246 19.0275 26.4101 19.7724 26.0128V26.0045ZM23.025 26.5839C23.2816 26.2446 23.2071 25.6073 22.8843 25.3755C22.305 24.9617 20.9476 25.8638 21.0221 26.3191C21.0966 26.7494 22.5698 27.1964 23.025 26.5839Z" fill="white"/>
<path d="M12.8285 19.2593C13.5237 17.993 13.7968 16.9998 14.6079 16.1556C15.419 15.3114 16.0811 14.4341 17.9185 14.4341C17.9185 14.4341 19.3917 15.2204 19.3007 15.9073C19.2096 16.6025 16.1391 17.2646 15.808 18.5889C15.4769 19.9131 15.3528 21.3035 16.3211 22.6857C17.2895 24.0679 19.0606 25.6073 18.2164 26.0873C17.3722 26.5673 16.2301 26.0873 15.0548 24.3079C13.8796 22.5284 12.1333 20.509 12.8285 19.2427V19.2593ZM13.7141 19.3834C13.8548 19.88 14.3265 20.4014 14.7072 20.3269C15.3031 20.2193 15.7832 18.6302 15.2038 17.8274C15.1376 17.7364 14.9804 17.5212 14.7486 17.5047C14.2272 17.4715 13.4658 18.4895 13.7141 19.3751V19.3834Z" fill="white"/>
</g>
<defs>
<clipPath id="clip0_1409_383">
<rect width="40" height="40" fill="white"/>
</clipPath>
</defs>
</svg>
