<svg width="24" height="24" viewBox="0 0 24 24" fill="none" xmlns="http://www.w3.org/2000/svg">
<path d="M16.5367 12.0033C17.858 12.0033 18.9291 10.9322 18.9291 9.61092C18.9291 8.28963 17.858 7.21851 16.5367 7.21851C15.2154 7.21851 14.1443 8.28963 14.1443 9.61092C14.1443 10.9322 15.2154 12.0033 16.5367 12.0033Z" fill="white"/>
<path d="M11.6631 15.9622C12.6467 15.9622 13.444 15.1649 13.444 14.1813C13.444 13.1977 12.6467 12.4004 11.6631 12.4004C10.6795 12.4004 9.8822 13.1977 9.8822 14.1813C9.8822 15.1649 10.6795 15.9622 11.6631 15.9622Z" fill="white"/>
<path d="M10.1954 10.4263C11.0071 10.4263 11.6651 9.76821 11.6651 8.95647C11.6651 8.14474 11.0071 7.48669 10.1954 7.48669C9.38363 7.48669 8.72559 8.14474 8.72559 8.95647C8.72559 9.76821 9.38363 10.4263 10.1954 10.4263Z" fill="white"/>
<path d="M20.4703 18.73H5.80462C5.36476 18.73 5 18.3652 5 17.9254V4.80462C5 4.36476 5.36476 4 5.80462 4C6.24449 4 6.60925 4.36476 6.60925 4.80462V17.1207H20.4703C20.9101 17.1207 21.2749 17.4855 21.2749 17.9254C21.2749 18.3652 20.9101 18.73 20.4703 18.73Z" fill="white"/>
</svg>
