<svg width="40" height="40" viewBox="0 0 40 40" fill="none" xmlns="http://www.w3.org/2000/svg">
<g clip-path="url(#clip0_1409_391)">
<g clip-path="url(#clip1_1409_391)">
<path d="M20 40C31.0457 40 40 31.0457 40 20C40 8.95431 31.0457 0 20 0C8.95431 0 0 8.95431 0 20C0 31.0457 8.95431 40 20 40Z" fill="#201E3D"/>
<path d="M16.4305 28.2438C15.9162 28.2438 15.4972 27.8248 15.4972 27.3105V14.3352C15.4972 13.8209 15.9162 13.4019 16.4305 13.4019H26.1334C26.6477 13.4019 27.0667 13.8209 27.0667 14.3352" stroke="white" stroke-width="2" stroke-miterlimit="10"/>
<path d="M14.1448 25.8248C13.6305 25.8248 13.2114 25.4057 13.2114 24.8914V11.9162C13.2114 11.4019 13.6305 10.9829 14.1448 10.9829H23.8476C24.3619 10.9829 24.781 11.4019 24.781 11.9162" stroke="white" stroke-width="2" stroke-miterlimit="10"/>
<path d="M27.9504 15.1771H18.7123C18.0685 15.1771 17.5466 15.699 17.5466 16.3429V28.8533C17.5466 29.4971 18.0685 30.019 18.7123 30.019H27.9504C28.5942 30.019 29.1162 29.4971 29.1162 28.8533V16.3429C29.1162 15.699 28.5942 15.1771 27.9504 15.1771ZM23.3295 19.44C24.2019 19.44 24.9066 20.1486 24.9066 21.0171C24.9066 21.8857 24.1981 22.5943 23.3295 22.5943C22.4609 22.5943 21.7523 21.8857 21.7523 21.0171C21.7523 20.1486 22.4609 19.44 23.3295 19.44ZM25.9619 25.3143C25.9619 25.5581 25.7638 25.7524 25.5238 25.7524H21.139C20.899 25.7524 20.7009 25.5581 20.7009 25.3143C20.7009 24.1029 21.6838 23.12 22.8914 23.12H23.7676C24.979 23.12 25.9619 24.099 25.9619 25.3105V25.3143Z" fill="white"/>
</g>
</g>
<defs>
<clipPath id="clip0_1409_391">
<rect width="40" height="40" fill="white"/>
</clipPath>
<clipPath id="clip1_1409_391">
<rect width="40" height="40" fill="white"/>
</clipPath>
</defs>
</svg>
