<svg width="80" height="80" viewBox="0 0 80 80" fill="none" xmlns="http://www.w3.org/2000/svg">
<g clip-path="url(#clip0_1409_376)">
<path d="M40.0083 80.0165C62.1042 80.0165 80.0165 62.1042 80.0165 40.0083C80.0165 17.9123 62.1042 0 40.0083 0C17.9123 0 0 17.9123 0 40.0083C0 62.1042 17.9123 80.0165 40.0083 80.0165Z" fill="#201E3D"/>
<path d="M31.0366 27.5936C30.54 26.6336 26.7163 26.6998 26.7163 27.8088V35.9363C27.395 34.6617 28.3385 33.5361 29.4807 32.6588C29.5303 30.8545 30.0766 29.0999 31.0366 27.5771V27.5936Z" fill="white"/>
<path d="M45.5369 49.8241H36.8963V56.2963C39.7765 57.8026 42.8885 58.8454 45.5369 59.2261V49.8076V49.8241Z" fill="white"/>
<path d="M34.0989 42.8554V38.2371H31.5663C32.096 39.8427 32.9402 41.3987 34.0989 42.8554Z" fill="white"/>
<path d="M48.3509 47.0101H53.1181C52.8533 44.2458 52.3733 42.1436 52.3733 42.1436C52.3733 42.1436 51.9098 40.2069 50.8007 38.2371H48.3509V47.0101Z" fill="white"/>
<path d="M36.9129 38.2371V47.0101H45.5535V38.2371H44.2624C44.3617 38.7172 44.5272 39.2468 44.7589 39.8427C44.5769 39.6441 44.2293 39.0317 43.9313 38.2371H36.9129Z" fill="white"/>
<path d="M34.0989 42.8554C32.4105 41.7132 31.1359 40.091 30.4242 38.2371H28.2557C27.6433 40.0083 27.1798 42.4912 27.5109 45.8018C27.544 46.2156 27.6433 46.6129 27.7426 47.0101H34.0823V42.8554H34.0989Z" fill="white"/>
<path d="M34.0989 49.8241H29.0834C30.2752 51.5953 32.0463 53.234 34.0989 54.6245V49.8241Z" fill="white"/>
<path d="M48.3509 49.8241V59.3751C49.8407 59.2593 51.0159 58.8123 51.6118 57.935C53.0023 55.9156 53.3333 52.7871 53.2837 49.8241H48.3509Z" fill="white"/>
<path d="M34.0989 35.4231V26.6998C31.6491 29.0999 30.6725 32.2284 30.9704 35.4231H34.0989Z" fill="white"/>
<path d="M36.9129 35.4231H43.4182C43.4513 34.761 43.6168 34.0989 43.9975 33.5361C44.4279 32.9733 44.9741 32.5429 45.5535 32.1788V26.9315C43.2526 27.1964 39.2468 28.1564 38.0054 31.5829C38.0054 25.9549 44.8086 25.6238 45.5535 25.6073V25.2597C44.941 23.8692 40.5711 23.0747 36.9129 24.73V35.4231Z" fill="white"/>
<path d="M48.3509 31.3015C48.3509 31.3015 48.4006 31.3015 48.4171 31.3015C49.5262 31.3015 50.4366 30.4076 50.4531 29.2986C50.4531 29.0999 50.4366 28.9179 50.3704 28.7358C50.1883 27.4778 49.1786 27.0474 48.3344 26.915V31.318L48.3509 31.3015Z" fill="white"/>
</g>
<defs>
<clipPath id="clip0_1409_376">
<rect width="80" height="80" fill="white"/>
</clipPath>
</defs>
</svg>
