<svg width="80" height="80" viewBox="0 0 80 80" fill="none" xmlns="http://www.w3.org/2000/svg">
<g clip-path="url(#clip0_1409_386)">
<path d="M40.0083 80.0165C62.1042 80.0165 80.0165 62.1042 80.0165 40.0083C80.0165 17.9123 62.1042 0 40.0083 0C17.9123 0 0 17.9123 0 40.0083C0 62.1042 17.9123 80.0165 40.0083 80.0165Z" fill="#201E3D"/>
<path d="M39.7879 38.5705C39.7804 38.2816 39.6885 37.9919 39.4988 37.7664L32.3395 29.1918C32.1241 28.9272 31.833 28.7821 31.486 28.7436C31.1551 28.7086 30.8297 28.8099 30.5812 29.0287C30.052 29.4596 29.9873 30.2577 30.4181 30.787L37.2782 39.0119L37.2855 54.653C37.2809 55.2438 37.6989 55.7535 38.2823 55.875C38.3634 55.8918 38.4444 55.9087 38.5322 55.8931C38.8698 55.8958 39.1857 55.7587 39.418 55.5365C39.6536 55.2981 39.7859 54.9875 39.7885 54.6499L39.7913 38.5543L39.7879 38.5705Z" fill="white"/>
<path d="M29.5961 32.6276C29.3773 32.3792 29.07 32.2307 28.7358 32.2118C28.4016 32.193 28.0761 32.2943 27.8277 32.5131C27.3112 32.9636 27.2628 33.765 27.7166 34.2653L34.3099 41.7414C34.4868 41.9473 34.7292 42.0823 34.9885 42.1363C35.3774 42.2173 35.7711 42.1132 36.062 41.8525C36.5785 41.4021 36.627 40.6006 36.1731 40.1004L29.5799 32.6242L29.5961 32.6276Z" fill="white"/>
<path d="M44.3435 38.8593L51.2124 30.6349C51.6417 30.1156 51.5862 29.3263 51.0541 28.8773C50.5186 28.4446 49.7455 28.5035 49.2966 29.0356L42.1361 37.6052C41.9525 37.8375 41.8431 38.119 41.8506 38.408L41.8512 54.4874C41.8466 55.0782 42.2646 55.5879 42.848 55.7093C42.9291 55.7262 43.0101 55.7431 43.0945 55.7437C43.7859 55.7524 44.3422 55.1919 44.3346 54.4971L44.3435 38.8593Z" fill="white"/>
<path d="M54.4347 32.9459C54.4178 32.6212 54.2645 32.3018 54.0193 32.0986C53.7776 31.8792 53.444 31.776 53.1192 31.7929C52.7945 31.8098 52.4913 31.9665 52.2719 32.2083L45.6784 39.6785C45.2167 40.1911 45.2722 40.9804 45.7847 41.4421C45.9427 41.5765 46.1399 41.6851 46.3506 41.729C46.7881 41.8201 47.2405 41.6775 47.5321 41.3325L54.1256 33.8623C54.3484 33.6043 54.4645 33.2903 54.4314 32.9622L54.4347 32.9459Z" fill="white"/>
</g>
<defs>
<clipPath id="clip0_1409_386">
<rect width="80" height="80" fill="white"/>
</clipPath>
</defs>
</svg>
