<svg width="40" height="40" viewBox="0 0 40 40" fill="none" xmlns="http://www.w3.org/2000/svg">
<g clip-path="url(#clip0_1409_371)">
<path d="M20.0041 40.0083C31.0521 40.0083 40.0083 31.0521 40.0083 20.0041C40.0083 8.95616 31.0521 0 20.0041 0C8.95616 0 0 8.95616 0 20.0041C0 31.0521 8.95616 40.0083 20.0041 40.0083Z" fill="#201E3D"/>
<path d="M20.0041 40.0083C31.0521 40.0083 40.0083 31.0521 40.0083 20.0041C40.0083 8.95616 31.0521 0 20.0041 0C8.95616 0 0 8.95616 0 20.0041C0 31.0521 8.95616 40.0083 20.0041 40.0083Z" fill="#201E3D"/>
<path d="M15.5085 13.1386C15.2655 12.6526 13.3333 12.689 13.3333 13.248V17.331C13.6736 16.6869 14.1475 16.128 14.7186 15.6905C14.7429 14.7913 15.0224 13.9042 15.4963 13.1386H15.5085Z" fill="white"/>
<path fill-rule="evenodd" clip-rule="evenodd" d="M23.5893 16.6145C25.485 17.4408 26.2141 20.4423 26.2141 20.4423L26.2019 20.4545C26.2019 20.4545 27.4657 25.9957 25.8252 28.3774C24.1848 30.7592 14.196 26.9921 13.7343 22.2894C13.4183 19.1785 14.4998 17.4652 14.8644 17.0034C14.9616 18.5467 15.7636 19.9563 17.0395 20.8069C14.8279 18.0241 14.8036 14.3665 17.5621 12.2399C19.6036 10.6602 22.8116 11.2313 22.8116 12.1548C22.8116 12.1548 18.996 12.167 18.996 15.1563C19.883 12.6895 23.6136 12.7624 23.6136 12.7624C23.6136 12.7624 25.0597 12.6045 25.2177 13.7103C25.2541 13.7953 25.2541 13.8925 25.2541 13.9897V13.9898C25.2541 14.5487 24.7923 14.9983 24.2334 14.9983C23.3584 15.0227 22.5443 15.4358 22.0096 16.1285C21.2683 17.2586 22.1554 19.0084 22.3985 19.2879C21.4142 16.9062 23.0303 16.4323 23.5893 16.6145ZM21.6414 21.565H21.0814L19.8864 24.35L18.6914 21.565H18.1314L19.6064 25H20.1664L21.6414 21.565ZM23.9859 23.755C24.5059 23.62 24.8659 23.215 24.8659 22.685C24.8659 22.03 24.3159 21.565 23.5909 21.565H22.1459V25H22.6509V23.805H23.4409L24.2809 25H24.8609L23.9859 23.755ZM22.6509 23.335V22.035H23.5209C24.0159 22.035 24.3509 22.28 24.3509 22.685C24.3509 23.09 24.0159 23.335 23.5209 23.335H22.6509Z" fill="white"/>
</g>
<defs>
<clipPath id="clip0_1409_371">
<rect width="40" height="40" fill="white"/>
</clipPath>
</defs>
</svg>
