<svg width="80" height="80" viewBox="0 0 80 80" fill="none" xmlns="http://www.w3.org/2000/svg">
<g clip-path="url(#clip0_1409_370)">
<path d="M40.0083 80.0165C62.1042 80.0165 80.0165 62.1042 80.0165 40.0083C80.0165 17.9123 62.1042 0 40.0083 0C17.9123 0 0 17.9123 0 40.0083C0 62.1042 17.9123 80.0165 40.0083 80.0165Z" fill="#201E3D"/>
<path d="M40.0083 80.0165C62.1042 80.0165 80.0165 62.1042 80.0165 40.0083C80.0165 17.9123 62.1042 0 40.0083 0C17.9123 0 0 17.9123 0 40.0083C0 62.1042 17.9123 80.0165 40.0083 80.0165Z" fill="#201E3D"/>
<path d="M31.017 26.2773C30.5309 25.3051 26.6667 25.378 26.6667 26.496V34.6619C27.3472 33.3739 28.295 32.2559 29.4373 31.381C29.4859 29.5825 30.0449 27.8084 30.9927 26.2773H31.017Z" fill="white"/>
<path fill-rule="evenodd" clip-rule="evenodd" d="M47.1786 33.2291C50.97 34.8817 52.4282 40.8847 52.4282 40.8847L52.4039 40.909C52.4039 40.909 54.9315 51.9913 51.6505 56.7548C48.3695 61.5183 28.3921 53.9842 27.4685 44.5788C26.8366 38.3571 28.9997 34.9303 29.7288 34.0068C29.9232 37.0933 31.5272 39.9125 34.0791 41.6138C29.6558 36.0483 29.6072 28.7329 35.1241 24.4798C39.2071 21.3204 45.6232 22.4626 45.6232 24.3097C45.6232 24.3097 37.9919 24.334 37.9919 30.3126C39.7661 25.379 47.2273 25.5249 47.2273 25.5249C47.2273 25.5249 50.1194 25.2089 50.4353 27.4205C50.5082 27.5907 50.5082 27.7851 50.5082 27.9795V27.9795C50.5082 29.0975 49.5847 29.9967 48.4667 29.9967C46.7169 30.0453 45.0885 30.8716 44.0192 32.2569C42.5367 34.5171 44.3108 38.0168 44.7969 38.5758C42.8283 33.8123 46.0607 32.8645 47.1786 33.2291ZM44.0069 43.443H42.7749L40.1459 49.57L37.5169 43.443H36.2849L39.5299 51H40.7619L44.0069 43.443ZM49.1648 48.261C50.3088 47.964 51.1008 47.073 51.1008 45.907C51.1008 44.466 49.8908 43.443 48.2958 43.443H45.1168V51H46.2278V48.371H47.9658L49.8138 51H51.0898L49.1648 48.261ZM46.2278 47.337V44.477H48.1418C49.2308 44.477 49.9678 45.016 49.9678 45.907C49.9678 46.798 49.2308 47.337 48.1418 47.337H46.2278Z" fill="white"/>
</g>
<defs>
<clipPath id="clip0_1409_370">
<rect width="80" height="80" fill="white"/>
</clipPath>
</defs>
</svg>
