<svg width="40" height="40" viewBox="0 0 40 40" fill="none" xmlns="http://www.w3.org/2000/svg">
<g clip-path="url(#clip0_1409_375)">
<path d="M20.0041 40.0083C31.0521 40.0083 40.0083 31.0521 40.0083 20.0041C40.0083 8.95616 31.0521 0 20.0041 0C8.95616 0 0 8.95616 0 20.0041C0 31.0521 8.95616 40.0083 20.0041 40.0083Z" fill="#201E3D"/>
<path d="M15.3942 13.6892C15.1541 13.2175 13.2671 13.2506 13.2671 13.7968V17.8026C13.5982 17.1736 14.0617 16.6274 14.6327 16.1887C14.6576 15.3031 14.9224 14.4424 15.4024 13.6892H15.3942Z" fill="white"/>
<path d="M25.8887 20.8483C25.8887 20.8483 25.1769 17.9019 23.3147 17.0908C22.7685 16.917 21.1877 17.3722 22.1477 19.7062C21.916 19.4331 21.0304 17.7116 21.7753 16.6025C22.2967 15.9239 23.0995 15.5183 23.9603 15.4935C24.5065 15.4935 24.9617 15.0548 24.9617 14.5086C24.9617 14.4176 24.9534 14.3182 24.9203 14.2272C24.7631 13.1513 23.3561 13.3002 23.3561 13.3002C23.3561 13.3002 19.6979 13.2257 18.8289 15.6425C18.8289 12.7126 22.5781 12.6961 22.5781 12.6961C22.5781 11.7856 19.4331 11.2311 17.4302 12.7788C14.7238 14.8645 14.7486 18.4565 16.9088 21.1794C15.659 20.3435 14.8645 18.9613 14.7817 17.455C14.4258 17.9102 13.3664 19.582 13.6727 22.636C14.1196 27.246 23.9189 30.9373 25.5328 28.6034C27.1467 26.2694 25.9052 20.8318 25.9052 20.8318L25.8887 20.8483ZM20.8814 25.268C20.8814 25.6652 20.8814 26.0625 20.8814 26.468C20.8814 26.6998 20.8152 26.7329 20.6166 26.6253C19.9545 26.2446 19.3006 25.8639 18.6385 25.4914C18.4151 25.359 18.3075 25.1769 18.3157 24.9121C18.3157 24.1672 18.3157 23.4223 18.3157 22.6774C18.3157 22.4126 18.3737 22.3795 18.5971 22.5119C19.2758 22.9009 19.9462 23.2982 20.6331 23.6872C20.8152 23.7948 20.8897 23.9354 20.8897 24.1424C20.8897 24.5231 20.8897 24.9121 20.8897 25.2928L20.8814 25.268ZM20.8401 23.3147C20.1531 22.9257 19.4662 22.5285 18.7875 22.1312C18.5723 22.007 18.5806 21.9408 18.7875 21.8084C19.4413 21.4277 20.1035 21.047 20.7656 20.6663C20.9642 20.5504 21.1711 20.5421 21.378 20.6663C22.0401 21.0552 22.7105 21.436 23.3726 21.8167C23.5878 21.9408 23.5878 22.007 23.3726 22.1312C22.6857 22.5285 22.007 22.9257 21.3201 23.3147C21.2539 23.3561 21.1711 23.3809 21.0883 23.414C21.0056 23.3809 20.9145 23.3561 20.8401 23.3147ZM23.563 25.4666C22.8843 25.8556 22.2057 26.2528 21.5187 26.6418C21.3532 26.7412 21.2787 26.6915 21.2787 26.4846C21.2787 26.079 21.2787 25.6652 21.2787 25.2597C21.2787 24.879 21.2787 24.5065 21.2787 24.1258C21.2787 23.9106 21.3532 23.7616 21.5436 23.654C22.2305 23.2651 22.9174 22.8595 23.6044 22.4705C23.7947 22.3629 23.861 22.4043 23.861 22.6195C23.861 23.3975 23.861 24.1755 23.861 24.9535C23.861 25.1852 23.7616 25.3507 23.563 25.4666Z" fill="white"/>
</g>
<defs>
<clipPath id="clip0_1409_375">
<rect width="40" height="40" fill="white"/>
</clipPath>
</defs>
</svg>
