<svg width="24" height="24" viewBox="0 0 24 24" fill="none" xmlns="http://www.w3.org/2000/svg">
<path d="M22.8172 10.0152C22.7487 9.6269 22.3776 9.36997 21.9894 9.43849C21.6011 9.507 21.3442 9.87812 21.4127 10.2664C21.5155 10.8487 21.5726 11.4368 21.5726 12.0021C21.5726 17.2777 17.279 21.5713 12.0033 21.5713C9.69097 21.5713 7.45853 20.7206 5.72854 19.219L6.88187 18.9734L2.66821 16.3299L3.70735 21.1945L4.46101 19.9897C6.49362 21.9082 9.19424 22.9987 12.0033 22.9987C18.0669 22.9987 23 18.0656 23 12.0021C23 11.3512 22.9371 10.6832 22.8172 10.0152Z" fill="white"/>
<path d="M11.9966 2.4331C13.6981 2.4331 15.331 2.87844 16.7812 3.71775L15.9191 4.11171L20.0185 5.56765L18.2029 1.61092L17.8261 2.6729C16.0789 1.57667 14.0806 1 11.9966 1C5.93306 1.00571 1 5.93877 1 12.0023C1 12.3963 1.31974 12.716 1.71369 12.716C2.10765 12.716 2.42739 12.3963 2.42739 12.0023C2.42739 6.72669 6.72098 2.4331 11.9966 2.4331Z" fill="white"/>
<path d="M13.0534 5.63619L12.5053 5.69329C10.1986 5.92738 9.04529 6.04157 6.9042 8.26259C4.75741 10.4836 5.72804 12.6932 6.84711 15.2454C7.64074 17.061 9.08526 18.2829 10.9123 18.6882C11.3405 18.791 11.763 18.831 12.2027 18.831C13.6529 18.831 15.0746 18.3057 16.1765 17.3351C17.7409 15.9591 18.9342 13.3841 18.0835 10.7405C17.1814 7.9143 15.9367 5.32787 13.0477 5.63619H13.0534ZM15.7883 16.9126C14.5208 18.0374 12.688 18.5055 11.0265 18.1401C9.38786 17.7747 8.08608 16.6671 7.36097 15.0227C6.16196 12.2935 5.52249 10.5179 7.30387 8.66797C9.29651 6.5954 10.25 6.50404 12.5452 6.26424L13.0991 6.20715C15.126 6.00731 16.3707 7.32051 17.5297 10.9232C18.3005 13.327 17.21 15.6622 15.7826 16.9126H15.7883Z" fill="white"/>
<path d="M12.0776 7.60011H12.0662C11.0327 7.85133 10.673 8.34806 11.9748 8.70206C13.2766 9.05605 13.2081 9.29585 13.6249 10.8146C14.0417 12.3333 16.4911 13.7379 16.6566 12.2306C16.8222 10.7232 14.7097 8.05688 14.7097 8.05688C14.1159 7.22328 13.111 7.34889 12.0776 7.60011ZM15.5433 10.8374C15.3206 10.9802 14.624 10.512 14.4585 9.90106C14.3785 9.60988 14.3957 9.19308 14.5784 9.11315C14.7668 9.03321 15.0465 9.31298 15.1151 9.38149C15.5832 9.85539 15.766 10.689 15.5433 10.8317V10.8374Z" fill="white"/>
<path d="M15.1082 13.5667C14.7771 13.8065 14.3603 14.9484 13.8921 15.2967C13.4239 15.6507 12.3505 15.8334 11.8367 16.1075V16.1189C11.3171 16.393 10.3579 16.6099 10.9288 17.1238C11.4998 17.6376 13.0756 17.1409 13.8065 16.9639C14.5373 16.7869 16.1188 15.3652 16.3929 14.5773C16.6669 13.7837 16.3929 13.2527 16.3929 13.2527C15.9761 13.07 15.4394 13.3269 15.1082 13.5667ZM14.0805 16.5129C13.7665 16.9354 12.7559 16.627 12.6988 16.3302C12.6474 16.0161 13.5838 15.3938 13.9834 15.6793C14.2061 15.8334 14.2575 16.2731 14.0805 16.5129Z" fill="white"/>
<path d="M9.46833 13.8235C8.80031 12.87 8.89166 11.9165 9.11434 11.003C9.34272 10.0952 11.461 9.63842 11.5181 9.15882C11.5809 8.68493 10.5646 8.14252 10.5646 8.14252C9.29704 8.14252 8.84028 8.74773 8.28645 9.33011C7.72691 9.90677 7.5385 10.5919 7.0646 11.4598V11.4484C6.585 12.3219 7.78401 13.7093 8.59477 14.9369C9.40552 16.1644 10.1877 16.4956 10.7701 16.1644C11.3525 15.8333 10.1306 14.777 9.46262 13.8235H9.46833ZM8.35496 12.1963C8.09232 12.2477 7.76688 11.8937 7.66982 11.5454V11.534C7.49853 10.9231 8.02381 10.2265 8.38351 10.2436C8.54338 10.2551 8.65186 10.4035 8.69754 10.4663C9.0915 11.0201 8.76034 12.1164 8.35496 12.1906V12.1963Z" fill="white"/>
</svg>
