<svg width="80" height="80" viewBox="0 0 80 80" fill="none" xmlns="http://www.w3.org/2000/svg">
<g clip-path="url(#clip0_1409_396)">
<g clip-path="url(#clip1_1409_396)">
<path d="M40 80C62.0914 80 80 62.0914 80 40C80 17.9086 62.0914 0 40 0C17.9086 0 0 17.9086 0 40C0 62.0914 17.9086 80 40 80Z" fill="#201E3D"/>
<path d="M57.7219 36.739C57.9124 37.7981 58.019 38.8876 58.019 40C58.019 49.9505 49.9505 58.0114 40.0076 58.0114C34.7276 58.0114 29.9809 55.7409 26.6819 52.1219" stroke="white" stroke-width="2.5" stroke-miterlimit="10" stroke-linecap="round"/>
<path d="M31.0323 52.2133L27.4285 52.9752L25.4781 56.0991L23.6571 47.581L31.0323 52.2133Z" fill="white"/>
<path d="M21.9885 40C21.9885 30.0495 30.0571 21.9886 40 21.9886C43.9619 21.9886 47.6266 23.2686 50.5981 25.4324" stroke="white" stroke-width="2.5" stroke-miterlimit="10" stroke-linecap="round"/>
<path d="M46.8724 26.179L49.7982 24.8381L50.8724 21.8057L54.0572 28.7314L46.8724 26.179Z" fill="white"/>
<path d="M40.358 51.9543C39.5961 51.9543 38.8495 51.8781 38.1028 51.7029C34.9104 50.9943 32.3809 48.861 30.9866 45.6762C29.0285 41.2038 27.3295 37.341 31.0857 33.4476C34.8266 29.5543 36.8533 29.3562 40.8914 28.9448L41.8514 28.8457C46.9104 28.3048 49.0818 32.8305 50.6666 37.7829C52.1523 42.4152 50.0571 46.9257 47.3218 49.3333C45.3942 51.0324 42.9028 51.9467 40.3657 51.9467L40.358 51.9543ZM41.9428 29.8438L40.9752 29.9429C36.9523 30.3543 35.2838 30.5219 31.7942 34.1486C28.6704 37.3943 29.798 40.4952 31.8933 45.28C33.158 48.1676 35.4361 50.1029 38.3085 50.7429C41.2114 51.3829 44.419 50.56 46.6438 48.5943C49.1428 46.4 51.0476 42.3086 49.699 38.1029C47.6723 31.7867 45.4857 29.4857 41.9352 29.859H41.9428V29.8438Z" fill="white"/>
<path d="M40.1448 32.2895C41.9581 31.8476 43.7105 31.6343 44.7543 33.0895C44.7543 33.0895 48.4572 37.7524 48.1677 40.3962C47.8781 43.04 43.5886 40.579 42.8572 37.92C42.1257 35.261 42.2477 34.8343 39.9696 34.2171C37.6915 33.6 38.3162 32.7314 40.1296 32.2895H40.1372H40.1448ZM44.32 36.32C44.6096 37.3867 45.8286 38.2095 46.2172 37.9581C46.6057 37.7067 46.2934 36.2438 45.4705 35.4133C45.3486 35.2914 44.861 34.8038 44.5334 34.941C44.2057 35.0781 44.1829 35.8095 44.32 36.32Z" fill="white"/>
<path d="M39.7257 47.1924C40.6248 46.7124 42.5143 46.3848 43.3295 45.7676C44.1448 45.1505 44.8762 43.1543 45.4553 42.7352C46.0343 42.3162 46.9714 41.8667 47.7029 42.1867C47.7029 42.1867 48.1829 43.1162 47.7029 44.5028C47.2229 45.8819 44.4572 48.3733 43.1772 48.6857C41.8972 48.9981 39.1314 49.8667 38.1333 48.9676C37.1353 48.0686 38.8191 47.6876 39.7181 47.2076L39.7257 47.1924ZM43.6495 47.8933C43.9619 47.4819 43.8705 46.7124 43.4819 46.4381C42.781 45.9352 41.1429 47.0247 41.2343 47.5733C41.3257 48.0914 43.101 48.6324 43.6495 47.8933Z" fill="white"/>
<path d="M31.3524 39.0552C32.1905 37.5314 32.5181 36.3276 33.501 35.3143C34.4762 34.2933 35.2762 33.2343 37.4933 33.2343C37.4933 33.2343 39.2686 34.179 39.1619 35.0095C39.0552 35.8476 35.3524 36.6476 34.9486 38.24C34.5524 39.84 34.4 41.5162 35.5657 43.1848C36.7314 44.8533 38.8724 46.7048 37.8514 47.2838C36.8305 47.8629 35.4591 47.2838 34.0419 45.1352C32.6248 42.9867 30.5219 40.5562 31.36 39.0248V39.0476L31.3524 39.0552ZM32.4191 39.2076C32.5867 39.8095 33.1581 40.4343 33.6152 40.3429C34.3314 40.2133 34.9105 38.2933 34.2172 37.3257C34.141 37.219 33.9505 36.96 33.6686 36.9371C33.0362 36.899 32.1219 38.1257 32.4191 39.1924V39.2076Z" fill="white"/>
</g>
</g>
<defs>
<clipPath id="clip0_1409_396">
<rect width="80" height="80" fill="white"/>
</clipPath>
<clipPath id="clip1_1409_396">
<rect width="80" height="80" fill="white"/>
</clipPath>
</defs>
</svg>
