<svg width="24" height="24" viewBox="0 0 24 24" fill="none" xmlns="http://www.w3.org/2000/svg">
<path d="M12.2495 7.02809C12.2495 7.12722 12.3128 7.19932 12.3489 7.30747C12.358 7.20833 12.3851 7.14525 12.3941 7.07315C12.4032 6.99204 12.3941 6.90191 12.4122 6.8208C12.358 6.8208 12.3037 6.85685 12.2405 6.82981C12.2224 6.82981 12.2043 6.84784 12.2133 6.85685C12.2857 6.90191 12.2224 6.965 12.2405 7.01907L12.2495 7.02809Z" fill="white"/>
<path d="M13.2424 8.12754C13.2604 8.08248 13.2152 8.08248 13.1881 8.06445C13.1881 8.1005 13.17 8.13655 13.2062 8.15458C13.2243 8.15458 13.2333 8.14557 13.2424 8.12754Z" fill="white"/>
<path d="M12.1594 8.49715C12.1594 8.49715 12.1594 8.43407 12.1865 8.40703C12.2046 8.389 12.1865 8.37098 12.1955 8.35295C12.1955 8.32592 12.1865 8.29888 12.2136 8.27184C12.2136 8.20876 12.1955 8.19073 12.1322 8.19974C12.1142 8.19974 12.078 8.19974 12.069 8.19974C12.0238 8.11863 11.9605 8.15468 11.9062 8.18172C11.9605 8.27184 12.0418 8.33493 12.078 8.43406C12.087 8.4611 12.1051 8.51518 12.1503 8.50616L12.1594 8.49715Z" fill="white"/>
<path d="M12.2939 4.50465C12.2939 4.43255 12.3119 4.36946 12.321 4.29736C12.3119 4.30638 12.3029 4.3244 12.2939 4.33341C12.2577 4.43255 12.2577 4.52267 12.2667 4.62181C12.2848 4.58576 12.2848 4.5407 12.2848 4.49564L12.2939 4.50465Z" fill="white"/>
<path d="M12.2407 8.02858C12.2678 7.85734 12.2859 7.69512 12.313 7.52388L12.2949 7.50586C12.2317 7.52388 12.1684 7.54191 12.1051 7.56895C12.0961 7.57796 12.078 7.58697 12.0599 7.58697C12.0599 7.58697 12.0509 7.58697 12.0418 7.58697C12.0418 7.58697 12.0418 7.59598 12.0418 7.605C12.078 7.65006 12.0418 7.66808 12.0147 7.68611C11.9876 7.70413 11.9605 7.71314 11.9334 7.70413C11.8972 7.80327 11.9334 7.91142 11.9062 8.01956C11.9424 8.09166 12.0147 8.09166 12.087 8.1187C12.1684 8.14574 12.2317 8.1187 12.2497 8.02858H12.2407Z" fill="white"/>
<path d="M12.2671 7.36164C12.2671 7.36164 12.2309 7.31658 12.2309 7.28954C12.2128 7.20843 12.1676 7.14534 12.1224 7.07324C12.023 7.22645 11.9959 7.38867 11.9688 7.5509C12.0863 7.50584 12.2219 7.48781 12.3303 7.41571C12.2942 7.41571 12.2671 7.4067 12.2671 7.36164Z" fill="white"/>
<path d="M12.2952 5.87451C12.2952 5.87451 12.2771 5.87451 12.2681 5.87451C12.2681 5.87451 12.259 5.88352 12.25 5.89254C12.25 5.89254 12.259 5.88352 12.2681 5.87451C12.2771 5.87451 12.2862 5.87451 12.2952 5.87451Z" fill="white"/>
<path d="M11.5963 8.76758H11.524C11.524 8.76758 11.4426 8.83066 11.4336 8.88474C11.4336 8.88474 11.4336 8.89375 11.4336 8.90276C11.5059 8.88474 11.533 8.82165 11.5873 8.77659L11.5963 8.76758Z" fill="white"/>
<path d="M11.4241 9.01971C11.4241 9.01971 11.397 8.99268 11.3789 8.99268C11.397 8.99268 11.4151 8.99268 11.4241 9.01971Z" fill="white"/>
<path d="M13.5133 8.28947C13.5133 8.28947 13.4229 8.26243 13.3867 8.25342C13.4229 8.28947 13.459 8.34354 13.5133 8.28947Z" fill="white"/>
<path d="M11.715 9.02898C11.715 9.02898 11.6698 9.01997 11.6517 9.01095C11.6336 9.01095 11.6246 8.99293 11.6065 8.98392C11.6426 8.96589 11.6878 8.98392 11.7059 8.94787C11.6698 8.89379 11.7059 8.83972 11.6878 8.78564C11.6517 8.78564 11.6246 8.80367 11.6065 8.83071C11.5523 8.9028 11.5342 9.00194 11.4799 9.08305C11.4619 9.11009 11.4799 9.1191 11.5071 9.1191C11.5613 9.1191 11.6155 9.10108 11.6607 9.08305C11.6788 9.08305 11.724 9.08305 11.715 9.03799V9.02898Z" fill="white"/>
<path d="M11.7617 9.78583C11.7617 9.78583 11.7798 9.75879 11.7888 9.75879C11.7888 9.75879 11.7708 9.75879 11.7617 9.78583Z" fill="white"/>
<path d="M11.6133 10.4349C11.6133 10.4349 11.6133 10.4439 11.6133 10.453C11.6133 10.453 11.6133 10.4439 11.6133 10.4349C11.6133 10.4259 11.6223 10.4079 11.6314 10.3989C11.6314 10.3989 11.6314 10.3899 11.6314 10.3809V10.3989C11.6314 10.3989 11.6133 10.4259 11.6133 10.4349Z" fill="white"/>
<path d="M11.7328 9.49734C11.7328 9.40722 11.7057 9.31709 11.7147 9.22697C11.7147 9.19993 11.6966 9.19092 11.6786 9.19092C11.6334 9.19092 11.5882 9.19092 11.543 9.19092C11.5791 9.254 11.5972 9.32611 11.6062 9.3982C11.6153 9.4703 11.6334 9.55141 11.6876 9.6145C11.7238 9.65055 11.7418 9.65055 11.7509 9.59648C11.7147 9.56043 11.7328 9.52438 11.7328 9.48833V9.49734Z" fill="white"/>
<path d="M12.0767 6.64982C12.0767 6.64982 12.0676 6.63179 12.0586 6.62278C12.0586 6.62278 12.0586 6.62278 12.0586 6.61377C12.0586 6.61377 12.0586 6.61377 12.0586 6.62278C12.0586 6.62278 12.0676 6.64081 12.0767 6.64982Z" fill="white"/>
<path d="M12.7265 8.71311C12.7265 8.71311 12.6723 8.71311 12.6723 8.74916C12.6813 8.76719 12.6904 8.79422 12.6904 8.81225C12.7085 8.8483 12.6904 8.89336 12.6904 8.92941C12.6181 9.00151 12.6452 9.04657 12.7265 9.08262C12.7446 9.08262 12.7537 9.10966 12.7717 9.12768C12.835 9.19077 12.8169 9.26287 12.7989 9.33497C12.7808 9.41608 12.7446 9.48818 12.7085 9.56028C12.7085 9.58731 12.6994 9.61435 12.6904 9.64139C12.6904 9.64139 12.6994 9.64139 12.7085 9.6504C12.7898 9.51522 12.8712 9.38904 12.9525 9.25386C12.9706 9.22682 13.0068 9.19978 12.9977 9.15472C12.9435 9.03756 12.8621 8.93842 12.8169 8.81225C12.7989 8.75817 12.7717 8.73114 12.7175 8.7041L12.7265 8.71311Z" fill="white"/>
<path d="M12.7265 9.12778C12.6361 9.08272 12.5367 9.03765 12.4644 8.95654C12.4463 8.97457 12.4463 8.99259 12.4554 9.01963C12.4825 9.24494 12.4463 9.47025 12.4102 9.68655C12.4102 9.70457 12.4102 9.72259 12.4102 9.73161C12.4102 9.77667 12.4282 9.83074 12.4644 9.84877C12.5096 9.86679 12.5548 9.83074 12.5909 9.79469C12.609 9.77667 12.6181 9.75864 12.6271 9.73161C12.6361 9.66852 12.6633 9.61445 12.6723 9.55136C12.6723 9.46124 12.7356 9.38914 12.7627 9.30803C12.7808 9.23593 12.7808 9.17284 12.7265 9.11876V9.12778Z" fill="white"/>
<path d="M12.4824 9.90313C12.4824 10.0563 12.4824 10.2096 12.4734 10.3628C12.4734 10.3898 12.4644 10.4259 12.5096 10.4439C12.5367 10.2997 12.5638 10.1555 12.5819 10.0113C12.5939 9.92716 12.5608 9.89112 12.4824 9.90313Z" fill="white"/>
<path d="M11.9955 8.74037C11.9955 8.74037 11.9955 8.71334 11.9955 8.69531C11.9232 8.72235 11.9142 8.77642 11.9503 8.83951C11.9865 8.82149 12.0046 8.80346 11.9955 8.7584C11.9775 8.7584 11.9775 8.74038 11.9955 8.73136V8.74037Z" fill="white"/>
<path d="M19 12.5436C19 12.5436 18.9638 12.4805 18.9367 12.4535C18.7831 12.2733 18.6294 12.102 18.4757 11.9218C18.3853 11.8226 18.304 11.7235 18.2678 11.5973C18.2497 11.5162 18.2407 11.4351 18.3763 11.4892C18.4486 11.5252 18.53 11.5433 18.6113 11.5613C18.6927 11.5793 18.774 11.5613 18.8192 11.4892C18.8644 11.4081 18.7921 11.354 18.7288 11.3179C18.4576 11.1197 18.1684 10.9845 17.8339 10.9214C17.6893 10.8944 17.5808 10.8133 17.4995 10.6781C17.3639 10.4257 17.2644 10.1553 17.156 9.89399C16.8848 9.20905 16.5232 8.56917 16.1255 7.94731C16.017 7.77608 15.9266 7.59583 15.8904 7.38855C15.8091 6.92891 15.7368 6.46928 15.6102 6.02768C15.4837 5.57706 15.4113 5.10841 15.2486 4.66681C15.1221 4.32434 14.9051 4.09001 14.5526 4.0089C14.3628 3.96384 14.1729 3.91878 13.9831 3.87372C13.7029 3.80162 13.4227 3.73853 13.1696 3.58532C13.0611 3.52223 12.9436 3.45915 12.9074 3.33297C12.7809 2.90939 12.9436 2.53988 13.1515 2.1884C13.278 1.98112 13.3504 1.75581 13.2148 1.62963C13.1244 1.53951 13.1063 1.44939 13.1153 1.34124C13.1334 1.04383 13.034 0.782469 12.9074 0.512097C12.6543 -0.037658 12.0035 -0.0827201 11.5696 0.0885152C11.1086 0.268763 11.0182 0.71037 10.9097 1.13395C10.8645 1.29617 10.9368 1.48543 10.8193 1.62963C10.7018 1.76482 10.6928 1.9 10.7741 2.03519C10.973 2.37766 11.1628 2.71112 11.1357 3.1347C11.1267 3.34199 11.0453 3.47717 10.8645 3.54927C10.5481 3.68446 10.2317 3.81063 9.89729 3.87372C9.27357 3.98187 8.85776 4.30631 8.68601 4.94619C8.51426 5.62212 8.31539 6.29805 8.19788 6.992C8.12556 7.45163 7.99901 7.87522 7.71879 8.26275C7.538 8.5151 7.40241 8.79448 7.25778 9.06485C7.00467 9.54251 6.8058 10.0562 6.5979 10.5609C6.52558 10.7412 6.39903 10.8763 6.2092 10.9124C5.8657 10.9755 5.57644 11.1377 5.30526 11.327C5.23294 11.372 5.15159 11.4171 5.19679 11.5252C5.25102 11.6244 5.34142 11.6244 5.43181 11.5973C5.51317 11.5703 5.57644 11.5162 5.6578 11.4892C5.75723 11.4441 5.79339 11.4892 5.76627 11.5883C5.71203 11.7596 5.62164 11.9038 5.48605 12.0209C5.33238 12.1651 5.19679 12.3273 5.07023 12.4986C5.03408 12.5526 4.96176 12.6247 5.02504 12.6878C5.09735 12.7599 5.16967 12.6878 5.2239 12.6428C5.33238 12.5526 5.42277 12.4535 5.5222 12.3544C5.5674 12.3093 5.62164 12.2192 5.70299 12.2823C5.76627 12.3273 5.70299 12.3994 5.68491 12.4625C5.58548 12.6608 5.48605 12.8591 5.38661 13.0573C5.35046 13.1204 5.3595 13.1745 5.42277 13.2105C5.48605 13.2556 5.51317 13.1925 5.53124 13.1565C5.63972 13.0123 5.74819 12.8501 5.84763 12.7059C5.88378 12.6608 5.89282 12.5707 5.96514 12.6067C6.03745 12.6428 5.98322 12.7149 5.96514 12.7599C5.9561 12.796 5.92898 12.832 5.91994 12.8771C5.87474 13.0033 5.82955 13.1204 5.82051 13.2556C5.82051 13.3007 5.82051 13.3457 5.8657 13.3638C5.9109 13.3818 5.94706 13.3367 5.96514 13.3007C6.01937 13.1925 6.06457 13.0663 6.11881 12.9582C6.17304 12.8501 6.17305 12.7149 6.31768 12.6338C6.37191 12.7599 6.2996 12.841 6.27248 12.9402C6.2544 13.0123 6.29056 13.0663 6.34479 13.0844C6.40807 13.1024 6.44423 13.0573 6.46231 13.0033C6.48039 12.9402 6.49846 12.8771 6.5075 12.814C6.61598 12.3814 6.83292 11.9939 6.97755 11.5703C7.08603 11.2549 7.25778 10.9755 7.46568 10.7141C7.8815 10.1914 8.32443 9.69572 8.64081 9.1009C8.97527 8.47905 9.30069 7.84818 9.57187 7.19929C9.58995 7.15422 9.58995 7.05509 9.6713 7.07311C9.73458 7.09114 9.72554 7.16324 9.73458 7.22632C9.77074 7.5688 9.85209 7.90225 9.88825 8.24472C9.92441 8.56917 9.90633 8.8846 9.86113 9.20004C9.8069 9.55152 9.6713 9.88498 9.58995 10.2365C9.47244 10.7772 9.36397 11.327 9.19222 11.8587C9.04759 12.3003 8.97527 12.7599 8.94815 13.2196C8.92103 13.6431 8.92103 14.0667 8.96623 14.4903C9.02047 15.013 9.11086 15.5357 9.23741 16.0494C9.34589 16.473 9.40916 16.8966 9.36396 17.3202C9.32781 17.6356 9.30973 17.9511 9.28261 18.2575C9.21029 19.0145 9.22837 19.7806 9.30973 20.5376C9.373 21.1505 9.48148 21.7633 9.45436 22.3852C9.43628 22.8177 9.28261 23.2053 9.10182 23.5838C9.03855 23.719 9.06566 23.7731 9.1651 23.8271C9.24645 23.8722 9.34588 23.8992 9.43628 23.9082C9.57187 23.9173 9.70746 23.9353 9.84305 23.9803C10.0871 24.0615 10.286 23.8812 10.2769 23.6289C10.2769 23.5658 10.2589 23.5027 10.2408 23.4306C10.2318 23.3765 10.2227 23.3224 10.286 23.2864C10.5391 23.1332 10.5662 22.9079 10.5029 22.6465C10.4849 22.5744 10.5029 22.5023 10.4849 22.4302C10.4397 22.268 10.5572 22.1058 10.4758 21.9616C10.4125 21.8534 10.4125 21.7363 10.4306 21.6281C10.4939 21.2045 10.5572 20.7809 10.6476 20.3574C10.7651 19.7896 10.8916 19.2218 10.8645 18.636C10.8645 18.4558 10.9097 18.2845 10.9549 18.1043C11.0634 17.7077 11.1809 17.3112 11.199 16.8876C11.199 16.6803 11.199 16.473 11.2532 16.2657C11.443 15.4997 11.6961 14.7517 11.8046 13.9676C11.8317 13.7783 11.8046 13.5801 11.895 13.3998C11.9131 13.3547 11.9131 13.3007 11.9764 13.2917C12.0487 13.2917 12.0487 13.3547 12.0668 13.3998C12.0848 13.4359 12.0848 13.4719 12.0848 13.508C12.0848 14.1028 12.2385 14.6706 12.3199 15.2564C12.4012 15.7881 12.4826 16.3288 12.5549 16.8606C12.6091 17.2301 12.6905 17.5996 12.7809 17.9601C12.8622 18.2665 12.9436 18.5639 12.9074 18.8793C12.8803 19.1317 12.9345 19.375 12.9617 19.6274C13.0249 20.1321 13.2238 20.6007 13.2419 21.1144C13.26 21.6191 13.3323 22.1238 13.3052 22.6375C13.3052 22.8087 13.3232 22.98 13.4227 23.1152C13.5131 23.2413 13.5311 23.3495 13.4859 23.4937C13.4317 23.6919 13.6306 23.9623 13.8294 23.9803C14.0554 23.9984 14.2724 23.9623 14.4803 23.8992C14.634 23.8542 14.6792 23.692 14.5978 23.5568C14.408 23.2323 14.3176 22.8808 14.2995 22.5113C14.2995 22.4122 14.3357 22.3131 14.3266 22.2049C14.2905 21.7182 14.3176 21.2316 14.3809 20.7539C14.4803 20.0419 14.4893 19.33 14.5074 18.618C14.5164 18.2395 14.408 17.8699 14.3899 17.4914C14.3537 16.7795 14.4351 16.0855 14.5978 15.4006C14.7063 14.9409 14.7695 14.4633 14.8509 13.9946C14.9413 13.517 14.8961 13.0483 14.8509 12.5707C14.8147 12.2102 14.7424 11.8677 14.6611 11.5252C14.5707 11.1647 14.4803 10.8042 14.408 10.4347C14.3176 9.96609 14.1368 9.52448 14.0645 9.04683C13.965 8.40695 14.1097 7.77608 14.2091 7.14521C14.2091 7.10015 14.2362 7.02805 14.3085 7.02805C14.3628 7.02805 14.3809 7.09114 14.3989 7.12719C14.5436 7.4967 14.7063 7.8662 14.8871 8.21769C15.1944 8.82152 15.5017 9.42535 15.9266 9.96609C16.3153 10.4618 16.7763 10.9124 16.9932 11.5342C17.1379 11.9578 17.391 12.3454 17.4271 12.805C17.4271 12.9131 17.4543 13.0844 17.5898 13.0573C17.6893 13.0393 17.6441 12.8771 17.617 12.778C17.6079 12.7329 17.5808 12.6788 17.635 12.6518C17.7164 12.6247 17.7164 12.7059 17.7345 12.7419C17.8068 12.9041 17.8701 13.0754 17.9333 13.2376C17.9605 13.3007 17.9785 13.3908 18.078 13.3547C18.1684 13.3187 18.1413 13.2376 18.1141 13.1655C18.0599 13.0033 18.0328 12.832 17.9605 12.6698C17.9514 12.6428 17.9333 12.5797 17.9785 12.5617C18.0237 12.5436 18.0509 12.5887 18.078 12.6247C18.1684 12.7689 18.2588 12.9222 18.3582 13.0573C18.4034 13.1204 18.4396 13.2466 18.53 13.1925C18.6023 13.1565 18.5661 13.0393 18.548 12.9582C18.548 12.9312 18.53 12.9041 18.5119 12.8771C18.4215 12.7239 18.3311 12.5707 18.2497 12.4175C18.2226 12.3724 18.1684 12.3183 18.2407 12.2552C18.304 12.2102 18.3582 12.2552 18.4034 12.2823C18.4938 12.3634 18.5751 12.4535 18.6565 12.5346C18.7017 12.5797 18.7469 12.6157 18.7921 12.6518C18.8373 12.6878 18.8825 12.7149 18.9367 12.6698C18.9819 12.6247 18.9729 12.5707 18.9548 12.5166L19 12.5436ZM13.4859 6.80274C13.4859 6.80274 13.4588 6.80274 13.4588 6.82077C13.2961 7.01904 13.0882 6.94694 12.8803 6.9199C12.8351 6.9199 12.7809 6.90188 12.7357 6.89287C12.6905 6.88385 12.6814 6.89287 12.6724 6.93793C12.6272 7.40657 12.5549 7.87522 12.4916 8.34386C12.5549 8.36189 12.6182 8.37991 12.6724 8.41596C12.7266 8.443 12.7628 8.41596 12.7989 8.38892C12.8441 8.36188 12.8441 8.31682 12.8261 8.28978C12.7989 8.23571 12.8261 8.20867 12.8622 8.18164C12.8893 8.1546 12.9345 8.1546 12.9707 8.18164C13.0521 8.21769 13.1063 8.28979 13.1605 8.35287C13.1786 8.2988 13.1605 8.25373 13.1424 8.21769C13.1063 8.14559 13.0972 8.0825 13.1244 8.0104C13.1515 7.92929 13.0882 7.85719 13.0701 7.77608C13.043 7.68596 13.0701 7.59583 13.0611 7.50571C13.0611 7.47867 13.0792 7.46065 13.0973 7.46065C13.1244 7.46065 13.1424 7.47867 13.1424 7.50571C13.1424 7.57781 13.1424 7.64991 13.1424 7.73102C13.1424 7.76707 13.1424 7.80312 13.1696 7.83015C13.1967 7.83015 13.2238 7.82114 13.2419 7.83015C13.26 7.84818 13.2419 7.85719 13.2238 7.8662C13.2238 7.8662 13.2238 7.87522 13.2238 7.88423C13.26 7.88423 13.26 7.91126 13.269 7.9383C13.2871 7.95633 13.3232 7.94731 13.3323 7.98336C13.3052 8.01941 13.26 8.01941 13.2057 8.01941C13.26 8.06448 13.3052 8.10052 13.3052 8.17262C13.3052 8.19966 13.3413 8.21769 13.3684 8.17262C13.3956 8.13657 13.4227 8.10052 13.4588 8.09151C13.4769 8.10052 13.4679 8.10954 13.4588 8.11855C13.4317 8.14559 13.3684 8.17262 13.3865 8.20867C13.4046 8.25373 13.4769 8.24472 13.5131 8.25374C13.5763 8.26275 13.5311 8.19065 13.5854 8.1546C13.5854 8.25374 13.5944 8.35287 13.6487 8.443C13.5311 8.39793 13.4227 8.35287 13.3142 8.33485C13.2238 8.50608 13.0611 8.56917 12.8984 8.63226C12.808 8.66831 12.817 8.65929 12.8532 8.74942C12.9074 8.8846 12.9797 9.01078 13.043 9.14596C13.0611 9.14596 13.0792 9.11892 13.1063 9.12794C13.1334 9.14596 13.1424 9.173 13.1334 9.20905C13.1424 9.3893 13.1334 9.56053 13.1063 9.74078C13.0973 9.87597 13.1063 10.0112 13.1063 10.1463C13.1063 10.3266 13.1786 10.4978 13.1967 10.6691C13.1967 10.7321 13.2148 10.7862 13.1967 10.8493C13.1876 10.8854 13.1605 10.8763 13.1334 10.8854C13.1334 10.8673 13.1334 10.8493 13.1334 10.8223C13.1876 10.7502 13.1515 10.6691 13.1334 10.606C13.0249 10.2365 13.0792 9.86695 13.0701 9.49744C13.0701 9.47942 13.0701 9.47041 13.0792 9.4614C13.0792 9.39831 13.0792 9.32621 13.0792 9.26312C13.0701 9.26312 13.0521 9.2451 13.043 9.2451C12.9888 9.26312 12.9797 9.3172 12.9526 9.35325C12.8622 9.49744 12.7718 9.65065 12.6634 9.79485C12.6091 9.86695 12.6182 9.9751 12.6001 10.0652C12.582 10.1824 12.5639 10.2995 12.5368 10.4167C12.5187 10.4888 12.5278 10.5519 12.6001 10.5879C12.6453 10.615 12.6905 10.642 12.7266 10.6781C12.7899 10.7321 12.8622 10.7412 12.9436 10.7321C12.9978 10.7321 13.0159 10.7682 12.9978 10.7952C12.9526 10.8673 13.0249 10.8583 13.0521 10.8763C13.0521 10.8763 13.0792 10.8763 13.0882 10.9034C13.043 10.9304 13.0069 10.9034 12.9797 10.8763C12.8984 10.8042 12.7899 10.7862 12.7086 10.7231C12.6905 10.7141 12.6724 10.7051 12.6543 10.7321C12.6724 10.7412 12.6905 10.7592 12.6905 10.7862C12.7538 10.9034 12.808 11.0115 12.8261 11.1467C12.8532 11.1557 12.8622 11.1918 12.8532 11.2098C12.8351 11.327 12.8803 11.4261 12.9255 11.5252C12.9526 11.5973 12.9797 11.6694 12.9707 11.7415C12.9617 11.8587 13.034 11.9578 13.0159 12.066C13.0159 12.2462 13.0159 12.4265 12.9165 12.5887C12.8622 12.6608 12.808 12.6157 12.7538 12.5887C12.6272 12.5076 12.4826 12.4896 12.3379 12.4715C12.2566 12.4625 12.2475 12.5346 12.2023 12.5707C12.1662 12.5346 12.2023 12.5076 12.2023 12.4805C12.2023 12.4355 12.2204 12.3904 12.1933 12.3454C12.1933 12.3363 12.1933 12.3183 12.1933 12.3093H12.2204C12.2566 12.4355 12.3741 12.3904 12.4555 12.4084C12.5368 12.4175 12.6001 12.4445 12.6724 12.4805C12.6905 12.4805 12.7086 12.4986 12.7266 12.5076C12.8532 12.5707 12.8803 12.5526 12.9165 12.4175C12.9436 12.3093 12.9436 12.1921 12.9526 12.075C12.9526 11.9849 12.9526 11.9038 12.9255 11.8136C12.8893 11.6694 12.8893 11.6694 12.7447 11.7055C12.6362 11.7776 12.6362 11.7776 12.7176 11.9128C12.7628 11.9849 12.7899 12.0479 12.7176 12.12C12.6905 12.1471 12.6634 12.1741 12.6362 12.2012C12.573 12.3093 12.4645 12.2913 12.3741 12.2823C12.2837 12.2733 12.1933 12.2372 12.112 12.1921C12.0939 12.1831 12.0668 12.1741 12.0848 12.1471C12.0939 12.12 12.121 12.1381 12.1391 12.1471C12.2475 12.1921 12.356 12.2372 12.4735 12.2372C12.5278 12.2372 12.573 12.2282 12.6091 12.1831C12.6935 12.063 12.6935 11.9398 12.6091 11.8136C12.6091 11.8136 12.573 11.7776 12.5458 11.7776C12.4283 11.7776 12.356 11.6965 12.2747 11.6244C12.2656 11.6154 12.2475 11.5973 12.2566 11.5793C12.2656 11.5613 12.2837 11.5793 12.3018 11.5793C12.3289 11.5973 12.356 11.6063 12.3741 11.6154C12.5097 11.7235 12.6182 11.7415 12.7538 11.5973C12.808 11.5252 12.7989 11.4621 12.7718 11.381C12.7357 11.2819 12.6814 11.2008 12.6634 11.1016C12.6634 11.0656 12.6362 11.0295 12.582 11.0115C12.5368 10.9935 12.5097 10.9394 12.5097 10.8763C12.5097 10.7952 12.4916 10.7231 12.3922 10.7051C12.3741 10.7412 12.356 10.7682 12.3379 10.8042C12.3379 10.8223 12.3379 10.8403 12.3379 10.8583C12.3379 10.8583 12.347 10.8583 12.356 10.8583C12.4193 10.9935 12.4555 11.1377 12.4735 11.2909C12.4193 11.2098 12.4103 11.1016 12.3379 11.0115C12.3199 11.1107 12.3831 11.2008 12.347 11.3089C12.2747 11.2278 12.3289 11.1287 12.2837 11.0566C12.2656 11.0476 12.2475 11.0296 12.2295 11.0566C12.2295 11.0566 12.2114 11.0746 12.2023 11.0746C12.1662 11.1016 12.121 11.1287 12.112 11.1557C12.112 11.1828 12.1481 11.2188 12.1662 11.2549C12.121 11.2368 12.1029 11.1918 12.0668 11.1557C12.0487 11.1557 12.0306 11.1737 12.0125 11.1737C11.9944 11.2549 12.0306 11.327 12.0396 11.4081C12.0577 11.5252 12.0216 11.6244 12.0125 11.7415C12.0125 11.5613 12.0487 11.39 11.9854 11.2188C11.9492 11.2458 11.9312 11.2999 11.8769 11.2729C11.8227 11.2549 11.8046 11.2278 11.8769 11.1918C11.904 11.1377 11.9492 11.1016 11.9854 11.0656C12.0125 10.9304 11.9854 10.7862 11.9673 10.651C11.9673 10.5879 11.9492 10.5339 11.9492 10.4708C11.9492 10.4257 11.9312 10.3897 11.904 10.3536C11.8498 10.2815 11.8227 10.2815 11.7594 10.3536C11.7323 10.3807 11.7052 10.3987 11.6871 10.4257C11.6871 10.4257 11.6871 10.4257 11.6871 10.4347C11.6781 10.4978 11.6419 10.5519 11.6148 10.615C11.5877 10.6871 11.5605 10.7502 11.5425 10.8223C11.5425 10.8403 11.5425 10.8583 11.5334 10.8673C11.4521 10.9394 11.4159 11.0386 11.3617 11.1287C11.3617 11.1557 11.3436 11.1828 11.3436 11.2098C11.2984 11.345 11.2984 11.4802 11.3436 11.6244C11.3617 11.6694 11.3798 11.7055 11.425 11.7325C11.5425 11.7505 11.6148 11.6784 11.6871 11.6154C11.7052 11.5973 11.7233 11.5703 11.7504 11.5973C11.7685 11.6154 11.7504 11.6424 11.7323 11.6604C11.669 11.7415 11.5877 11.8046 11.4792 11.8046C11.4069 11.8497 11.3707 11.7866 11.3255 11.7505C11.2984 11.7235 11.2803 11.6784 11.2261 11.7055C11.199 11.7596 11.199 11.8317 11.1538 11.8857C11.1538 11.8947 11.1447 11.9038 11.1267 11.9038C11.1447 11.9128 11.1267 11.9308 11.1267 11.9398C11.1267 11.9488 11.1267 11.9578 11.1176 11.9578C11.1176 11.9668 11.1176 11.9759 11.1176 11.9849C11.1176 11.9939 11.1176 12.0119 11.1176 12.0209C11.1357 12.0479 11.1538 12.084 11.1628 12.111C11.2532 12.2733 11.3165 12.3003 11.4882 12.2462C11.5063 12.2462 11.5244 12.2372 11.5425 12.2282C11.5696 12.2102 11.6057 12.1831 11.6329 12.1651C11.6509 12.1561 11.66 12.1381 11.6781 12.1651C11.6961 12.1831 11.6871 12.2012 11.6781 12.2102C11.6419 12.2282 11.6148 12.2733 11.5696 12.2733C11.3888 12.3544 11.2894 12.3814 11.1176 12.1741L11.0995 12.2012C11.0995 12.2913 11.1267 12.3814 11.1538 12.4715C11.1809 12.5526 11.2261 12.5617 11.2984 12.5256C11.3526 12.4986 11.4159 12.4625 11.4702 12.4265C11.5334 12.3904 11.5967 12.3724 11.66 12.3814C11.7233 12.3634 11.7865 12.4175 11.8588 12.3724C11.8137 12.4535 11.904 12.5076 11.895 12.5887C11.7865 12.4355 11.7504 12.4175 11.5515 12.4625C11.5153 12.4625 11.5063 12.4896 11.4792 12.5076C11.4792 12.5256 11.4611 12.5346 11.443 12.5346C11.443 12.5346 11.443 12.5346 11.434 12.5346C11.4159 12.5617 11.3888 12.5707 11.3617 12.5797C11.1357 12.6968 11.1628 12.6247 11.0995 12.4445C11.0724 12.3814 11.0724 12.3093 11.0634 12.2372C11.0363 12.1831 11.0363 12.1381 11.0634 12.084C11.0453 12.0119 11.0001 11.9488 11.0634 11.8767C11.0905 11.8046 11.1719 11.7596 11.1899 11.6875C11.2351 11.5162 11.217 11.327 11.2713 11.1557C11.2803 11.0656 11.3255 10.9845 11.3707 10.9034C11.3888 10.8763 11.425 10.8403 11.3707 10.8042C11.3707 10.8042 11.3707 10.7772 11.3707 10.7682C11.4611 10.4978 11.5786 10.2455 11.6961 9.98411C11.7142 9.94806 11.7233 9.89399 11.7233 9.83992C11.6238 9.91201 11.6057 10.0292 11.5244 10.0923C11.4973 10.1283 11.4792 10.1734 11.443 10.2004C11.3888 10.2725 11.3255 10.3266 11.2351 10.3536C11.217 10.3536 11.199 10.3897 11.1719 10.3536C11.1538 10.3176 11.1899 10.3176 11.208 10.3086C11.217 10.2995 11.2351 10.2905 11.2532 10.2815C11.217 10.2725 11.1899 10.2545 11.199 10.2184C11.199 10.1914 11.2351 10.1914 11.2622 10.1914C11.3346 10.1914 11.3798 10.1553 11.4159 10.1013C11.4792 10.0112 11.5063 9.903 11.5696 9.81288C11.5696 9.7588 11.6419 9.74078 11.6419 9.67769C11.5334 9.61461 11.5334 9.49745 11.5153 9.39831C11.5153 9.36226 11.4973 9.32621 11.4973 9.29016C11.4882 9.2451 11.4702 9.18201 11.425 9.173C11.3617 9.173 11.2984 9.20004 11.2532 9.26312C11.1267 9.45238 11.0815 9.65967 11.0272 9.86695C11.0001 9.98411 11.0453 10.0833 11.0815 10.1914C11.0905 10.2274 11.1086 10.2635 11.0905 10.3086C11.0272 10.2725 11.0453 10.2004 11.0182 10.1553C10.9007 9.92103 11.0001 9.71374 11.0815 9.49744C11.0815 9.47041 11.0995 9.45238 11.1086 9.42535C11.1447 9.36226 11.1628 9.30818 11.0453 9.29016C11.1267 9.26312 11.1899 9.23609 11.208 9.16399C11.208 9.14596 11.208 9.13695 11.217 9.11892C11.217 9.11892 11.2261 9.1009 11.217 9.09189C11.217 9.09189 11.208 9.09189 11.199 9.1009C11.1719 9.10991 11.1538 9.15497 11.1086 9.13695C11.1447 9.1009 11.1809 9.05584 11.217 9.01979C11.217 9.00176 11.2713 8.96571 11.199 8.9567C11.1899 8.9567 11.1809 8.94769 11.1899 8.92966C11.1899 8.92966 11.208 8.92065 11.217 8.92065C11.2713 8.92065 11.3255 8.92065 11.3707 8.92065C11.3978 8.92065 11.425 8.92065 11.4069 8.8846C11.4069 8.8846 11.4069 8.8846 11.4069 8.87559C11.3978 8.85757 11.3798 8.84855 11.3707 8.83053C11.3165 8.74942 11.3436 8.65028 11.425 8.60522C11.5877 8.51509 11.6329 8.35287 11.6329 8.18164C11.6057 8.16361 11.6057 8.13658 11.6329 8.11855C11.6329 8.10053 11.6329 8.07349 11.6329 8.05546C11.6329 8.00139 11.6148 7.97435 11.5786 7.9383C11.5696 7.9383 11.5605 7.94731 11.5425 7.95633C11.4882 8.05546 11.443 8.16361 11.4069 8.27176C11.3617 8.41596 11.2622 8.5151 11.1086 8.56917C11.0815 8.57818 11.0634 8.60522 11.0363 8.61423C11.0272 8.63226 11.0091 8.64127 10.9911 8.64127C10.9368 8.66831 10.8826 8.70436 10.8374 8.73139C10.8374 8.73139 10.8374 8.72238 10.8284 8.71337C10.8826 8.65929 10.9368 8.61423 11.0091 8.58719C11.0905 8.54213 11.1719 8.48806 11.2442 8.42497C11.3798 8.30781 11.4159 8.14559 11.4521 7.98336C11.4702 7.89324 11.4159 7.83015 11.3436 7.87522C11.2532 7.92929 11.2351 7.87522 11.208 7.82114C11.208 7.81213 11.199 7.7941 11.1899 7.78509C11.1809 7.75805 11.1719 7.74003 11.1538 7.71299C11.1809 7.69497 11.199 7.70398 11.2261 7.71299C11.2442 7.722 11.2622 7.74003 11.2894 7.73102C11.3888 7.68596 11.4792 7.74003 11.5786 7.74904C11.6148 7.74904 11.6238 7.73102 11.6419 7.69497C11.669 7.60484 11.6419 7.51472 11.669 7.4246C11.6781 7.38855 11.6781 7.34348 11.6871 7.30743C11.669 7.27138 11.6509 7.30743 11.6329 7.30743C11.5877 7.3525 11.5515 7.40657 11.4882 7.44262C11.4882 7.44262 11.4882 7.45163 11.4882 7.46065C11.4882 7.46065 11.4882 7.46065 11.4882 7.46966C11.4882 7.46966 11.4882 7.46966 11.4792 7.46966C11.4792 7.46966 11.4792 7.46966 11.4792 7.46065C11.4792 7.46065 11.4792 7.46065 11.4702 7.46065C11.4521 7.47867 11.434 7.47867 11.4159 7.46065C11.3978 7.43361 11.4159 7.4246 11.434 7.41558C11.5063 7.29842 11.6238 7.23534 11.7052 7.12719C11.7323 7.10015 11.7504 7.07311 11.7685 7.03706C11.7956 6.95595 11.7323 6.93793 11.6871 6.91089C11.6238 6.91089 11.5515 6.90188 11.4882 6.89287H11.208C11.0995 6.89287 11.0272 6.96496 10.9459 7.02805C10.9278 7.04608 10.9187 7.05509 10.9007 7.07311C10.8826 7.09114 10.8645 7.10015 10.8464 7.08212C10.8284 7.0641 10.8284 7.04608 10.8464 7.02805C11.0272 6.85682 11.2261 6.7757 11.4882 6.82077C11.5877 6.83879 11.6871 6.82077 11.7865 6.82077C11.7775 6.80274 11.7594 6.7757 11.7685 6.74867C11.8046 6.65854 11.7413 6.59546 11.6961 6.53237C11.6148 6.41521 11.5605 6.29805 11.6057 6.15385C11.6148 6.10879 11.5696 6.10879 11.5696 6.08175C11.5425 6.00965 11.5605 5.95558 11.6238 5.91052C11.6329 5.87447 11.6057 5.83842 11.5786 5.84743C11.5063 5.86545 11.4792 5.82039 11.443 5.78434C11.3888 5.78434 11.3707 5.75731 11.3978 5.71224C11.425 5.65817 11.4702 5.61311 11.425 5.55002C11.425 5.55002 11.425 5.52298 11.434 5.51397C11.4069 5.48693 11.4159 5.4599 11.434 5.44187C11.5063 5.36977 11.4973 5.27965 11.4882 5.19854C11.4702 5.04533 11.4973 4.90113 11.4792 4.74792C11.4792 4.71187 11.5063 4.70286 11.5244 4.69384C11.6057 4.62174 11.6871 4.62174 11.7233 4.69384C11.7775 4.72989 11.8317 4.76594 11.8317 4.83804C11.8317 4.89212 11.8317 4.94619 11.7504 4.93718C11.669 4.93718 11.6871 4.99125 11.7142 5.0273C11.7594 5.09039 11.7775 5.16249 11.7685 5.23459C11.8046 5.18952 11.7865 5.12644 11.8227 5.08138C11.8227 5.04533 11.8408 5.01829 11.8498 4.98224C11.8498 4.97323 11.8498 4.96422 11.8588 4.96422C11.886 4.8831 11.9492 4.82002 11.9312 4.72989C11.8408 4.59471 11.7504 4.45952 11.6148 4.36039C11.5967 4.34236 11.5786 4.32434 11.5877 4.2973C11.6329 4.16211 11.5605 4.03594 11.5425 3.90075C11.5425 3.84668 11.5425 3.80162 11.5244 3.74754C11.5063 3.70248 11.5605 3.70248 11.5877 3.69347C11.6238 3.67544 11.6329 3.71149 11.6329 3.73853C11.6329 3.8647 11.6871 3.98187 11.6961 4.10804C11.6961 4.17113 11.7413 4.21619 11.7413 4.27026C11.8137 4.41446 11.9402 4.52261 12.0306 4.65779C12.0487 4.68483 12.0848 4.69384 12.121 4.68483C12.1752 4.49557 12.1752 4.28829 12.2295 4.09903C12.2656 3.99989 12.2385 3.89174 12.2385 3.78359C12.2385 3.75656 12.2114 3.71149 12.2656 3.70248C12.3199 3.70248 12.3108 3.74754 12.3108 3.77458C12.3108 3.83767 12.3108 3.90977 12.3108 3.97285C12.4464 4.01792 12.4464 4.01791 12.4374 4.18014C12.4103 4.28829 12.4012 4.39643 12.4012 4.5136C12.4012 4.53162 12.4012 4.55866 12.4012 4.57668C12.4464 4.70286 12.5368 4.82002 12.5549 4.9552C12.5549 5.00027 12.5368 5.05434 12.573 5.0994C12.6362 5.11743 12.6995 5.13545 12.7628 5.15348C12.7899 5.16249 12.808 5.18051 12.817 5.21656C12.8261 5.2436 12.8261 5.27965 12.817 5.3157C12.799 5.3878 12.7447 5.45088 12.7809 5.532C12.8803 5.532 12.9526 5.61311 13.043 5.62212C13.0521 5.62212 13.0611 5.62212 13.0701 5.62212C13.2057 5.64014 13.3052 5.70323 13.3775 5.82039C13.4317 5.89249 13.5131 5.93755 13.5673 6.01866C13.7842 6.24397 13.721 6.64052 13.4317 6.77571L13.4859 6.80274Z" fill="white"/>
<path d="M12.455 8.57838C12.5363 8.63245 12.6177 8.65949 12.7081 8.60542C12.7262 8.5964 12.7533 8.58739 12.7714 8.57838C12.8798 8.54233 12.9883 8.49727 13.0877 8.42517C13.1058 8.40714 13.151 8.38912 13.1239 8.36208C13.0606 8.30801 13.0245 8.23591 12.9431 8.19986C12.916 8.19085 12.8889 8.18183 12.8617 8.19986C12.8346 8.21788 12.8437 8.25393 12.8617 8.27196C12.8889 8.33505 12.8617 8.38011 12.8075 8.40714C12.7894 8.41616 12.7714 8.40714 12.7714 8.44319C12.7985 8.45221 12.7985 8.47023 12.7804 8.49727C12.7623 8.51529 12.7533 8.52431 12.7352 8.49727C12.7081 8.45221 12.6629 8.43418 12.6086 8.41616C12.5634 8.39813 12.5182 8.38912 12.473 8.38011C12.473 8.45221 12.4459 8.51529 12.455 8.58739V8.57838Z" fill="white"/>
<path d="M12.4106 10.0473C12.4106 10.0473 12.4287 9.93919 12.3835 9.93018C12.3383 9.93018 12.3473 10.0023 12.3473 10.0383C12.3383 10.1194 12.3021 10.1645 12.2208 10.1645C12.1936 10.1645 12.1665 10.1735 12.1484 10.2005C12.2388 10.2726 12.3292 10.3447 12.4106 10.4259C12.4106 10.4259 12.4106 10.4259 12.4196 10.4259C12.4196 10.4078 12.4196 10.3808 12.4196 10.3628C12.4015 10.2546 12.4196 10.1555 12.4196 10.0473H12.4106Z" fill="white"/>
<path d="M12.1961 11.0024C12.1961 11.0024 12.1509 11.0295 12.1328 11.0565C12.1599 11.0655 12.178 11.0565 12.187 11.0385C12.187 11.0295 12.2051 11.0115 12.1961 11.0024C12.1961 11.0024 12.1961 11.0024 12.187 11.0024H12.1961Z" fill="white"/>
<path d="M12.0759 9.92122C12.0759 9.92122 12.0759 9.84912 12.0217 9.84912C11.9765 9.88517 11.9946 9.99332 12.0488 10.0294C12.0488 9.99332 12.0488 9.95727 12.0669 9.92122H12.0759Z" fill="white"/>
<path d="M12.0037 9.76792C12.0037 9.76792 12.0941 9.81298 12.1031 9.74989C12.1302 9.64174 12.1574 9.53359 12.1574 9.41643C12.1574 9.39841 12.1574 9.3894 12.1664 9.38038C12.1754 9.3173 12.1664 9.26322 12.1664 9.20014C12.1302 9.16409 12.1483 9.11903 12.1483 9.08298C12.1483 9.06495 12.1483 9.03791 12.1483 9.01989C12.1122 8.96581 12.1483 8.91174 12.1302 8.85767C12.1302 8.83063 12.1302 8.80359 12.0941 8.83964C12.076 8.8847 12.0579 8.93878 12.0489 8.98384C12.0579 9.01989 12.0308 9.04693 12.0308 9.08298C12.0127 9.18211 11.9946 9.28125 11.9766 9.38038C12.0127 9.50656 11.9946 9.63273 12.0037 9.7589V9.76792Z" fill="white"/>
<path d="M12.1926 11.0025C12.2107 10.9935 12.2198 10.9845 12.2288 10.9574C12.2469 10.9574 12.2469 10.9394 12.2288 10.9214L12.2107 10.9394C12.2017 10.9574 12.1836 10.9664 12.1836 10.9935L12.1926 11.0025Z" fill="white"/>
<path d="M12.0668 10.4708C12.0668 10.4708 12.0397 10.5429 12.0487 10.579C12.0849 10.7322 12.0758 10.8944 12.0758 11.0476C12.2024 10.9305 12.2928 10.7863 12.3832 10.6421C12.3018 10.615 12.2566 10.5429 12.1843 10.5069C12.1482 10.4889 12.112 10.4438 12.0668 10.4708Z" fill="white"/>
</svg>
