<svg width="40" height="40" viewBox="0 0 40 40" fill="none" xmlns="http://www.w3.org/2000/svg">
<g clip-path="url(#clip0_1409_367)">
<path d="M20.0041 40.0083C31.0521 40.0083 40.0083 31.0521 40.0083 20.0041C40.0083 8.95616 31.0521 0 20.0041 0C8.95616 0 0 8.95616 0 20.0041C0 31.0521 8.95616 40.0083 20.0041 40.0083Z" fill="#201E3D"/>
<path d="M20.2028 15.4355C20.2028 15.5266 20.2607 15.5928 20.2938 15.6921C20.3021 15.6011 20.3269 15.5431 20.3352 15.4769C20.3435 15.4024 20.3352 15.3197 20.3518 15.2452C20.3021 15.2452 20.2524 15.2783 20.1945 15.2535C20.178 15.2535 20.1614 15.27 20.1697 15.2783C20.2359 15.3197 20.178 15.3776 20.1945 15.4273L20.2028 15.4355Z" fill="white"/>
<path d="M21.1132 16.4453C21.1297 16.4039 21.0884 16.4039 21.0635 16.3873C21.0635 16.4204 21.047 16.4535 21.0801 16.4701C21.0966 16.4701 21.1049 16.4618 21.1132 16.4453Z" fill="white"/>
<path d="M20.12 16.7846C20.12 16.7846 20.12 16.7267 20.1448 16.7018C20.1614 16.6853 20.1448 16.6687 20.1531 16.6522C20.1531 16.6274 20.1448 16.6025 20.1697 16.5777C20.1697 16.5198 20.1531 16.5032 20.0952 16.5115C20.0786 16.5115 20.0455 16.5115 20.0372 16.5115C19.9959 16.437 19.9379 16.4701 19.8883 16.4949C19.9379 16.5777 20.0124 16.6356 20.0455 16.7267C20.0538 16.7515 20.0704 16.8012 20.1117 16.7929L20.12 16.7846Z" fill="white"/>
<path d="M20.2441 13.1181C20.2441 13.0519 20.2607 12.994 20.269 12.9278C20.2607 12.9361 20.2524 12.9526 20.2441 12.9609C20.211 13.0519 20.211 13.1347 20.2193 13.2257C20.2359 13.1926 20.2359 13.1513 20.2359 13.1099L20.2441 13.1181Z" fill="white"/>
<path d="M20.1945 16.3542C20.2193 16.197 20.2359 16.048 20.2607 15.8908L20.2442 15.8742C20.1862 15.8908 20.1283 15.9073 20.0704 15.9321C20.0621 15.9404 20.0455 15.9487 20.029 15.9487C20.029 15.9487 20.0207 15.9487 20.0124 15.9487C20.0124 15.9487 20.0124 15.957 20.0124 15.9652C20.0455 16.0066 20.0124 16.0232 19.9876 16.0397C19.9628 16.0563 19.9379 16.0646 19.9131 16.0563C19.88 16.1473 19.9131 16.2466 19.8883 16.346C19.9214 16.4122 19.9876 16.4122 20.0538 16.437C20.1283 16.4618 20.1862 16.437 20.2028 16.3542H20.1945Z" fill="white"/>
<path d="M20.2193 15.7418C20.2193 15.7418 20.1862 15.7004 20.1862 15.6756C20.1697 15.6011 20.1283 15.5431 20.0869 15.4769C19.9959 15.6176 19.971 15.7666 19.9462 15.9156C20.0538 15.8742 20.1779 15.8576 20.2773 15.7914C20.2441 15.7914 20.2193 15.7832 20.2193 15.7418Z" fill="white"/>
<path d="M20.2441 14.3762C20.2441 14.3762 20.2276 14.3762 20.2193 14.3762C20.2193 14.3762 20.211 14.3844 20.2028 14.3927C20.2028 14.3927 20.211 14.3844 20.2193 14.3762C20.2276 14.3762 20.2359 14.3762 20.2441 14.3762Z" fill="white"/>
<path d="M19.6069 17.0329H19.5407C19.5407 17.0329 19.4662 17.0908 19.4579 17.1405C19.4579 17.1405 19.4579 17.1488 19.4579 17.157C19.5241 17.1405 19.5489 17.0826 19.5986 17.0412L19.6069 17.0329Z" fill="white"/>
<path d="M19.4496 17.2646C19.4496 17.2646 19.4248 17.2398 19.4082 17.2398C19.4248 17.2398 19.4413 17.2398 19.4496 17.2646Z" fill="white"/>
<path d="M21.3615 16.5942C21.3615 16.5942 21.2787 16.5694 21.2456 16.5611C21.2787 16.5942 21.3118 16.6439 21.3615 16.5942Z" fill="white"/>
<path d="M19.7145 17.2729C19.7145 17.2729 19.6731 17.2646 19.6565 17.2564C19.64 17.2564 19.6317 17.2398 19.6151 17.2315C19.6483 17.215 19.6896 17.2315 19.7062 17.1984C19.6731 17.1488 19.7062 17.0991 19.6896 17.0495C19.6565 17.0495 19.6317 17.066 19.6151 17.0908C19.5655 17.157 19.5489 17.2481 19.4993 17.3226C19.4827 17.3474 19.4993 17.3557 19.5241 17.3557C19.5738 17.3557 19.6234 17.3391 19.6648 17.3226C19.6814 17.3226 19.7227 17.3226 19.7145 17.2812V17.2729Z" fill="white"/>
<path d="M19.7559 17.9681C19.7559 17.9681 19.7724 17.9433 19.7807 17.9433C19.7807 17.9433 19.7641 17.9433 19.7559 17.9681Z" fill="white"/>
<path d="M19.6234 18.564C19.6234 18.564 19.6234 18.5723 19.6234 18.5806C19.6234 18.5806 19.6234 18.5723 19.6234 18.564C19.6234 18.5558 19.6317 18.5392 19.64 18.5309C19.64 18.5309 19.64 18.5227 19.64 18.5144V18.5309C19.64 18.5309 19.6234 18.5558 19.6234 18.564Z" fill="white"/>
<path d="M19.731 17.7033C19.731 17.6205 19.7062 17.5378 19.7145 17.455C19.7145 17.4302 19.6979 17.4219 19.6814 17.4219C19.64 17.4219 19.5986 17.4219 19.5572 17.4219C19.5903 17.4798 19.6069 17.546 19.6152 17.6122C19.6234 17.6785 19.64 17.7529 19.6896 17.8109C19.7228 17.844 19.7393 17.844 19.7476 17.7943C19.7145 17.7612 19.731 17.7281 19.731 17.695V17.7033Z" fill="white"/>
<path d="M20.0455 15.0879C20.0455 15.0879 20.0372 15.0714 20.029 15.0631C20.029 15.0631 20.029 15.0631 20.029 15.0548C20.029 15.0548 20.029 15.0548 20.029 15.0631C20.029 15.0631 20.0372 15.0797 20.0455 15.0879Z" fill="white"/>
<path d="M20.6414 16.9832C20.6414 16.9832 20.5918 16.9832 20.5918 17.0163C20.6 17.0329 20.6083 17.0577 20.6083 17.0743C20.6249 17.1074 20.6083 17.1488 20.6083 17.1819C20.5421 17.2481 20.5669 17.2895 20.6414 17.3226C20.658 17.3226 20.6663 17.3474 20.6828 17.364C20.7407 17.4219 20.7242 17.4881 20.7076 17.5543C20.6911 17.6288 20.658 17.695 20.6249 17.7612C20.6249 17.786 20.6166 17.8109 20.6083 17.8357C20.6083 17.8357 20.6166 17.8357 20.6249 17.844C20.6994 17.7198 20.7738 17.604 20.8483 17.4798C20.8649 17.455 20.898 17.4302 20.8897 17.3888C20.8401 17.2812 20.7656 17.1901 20.7242 17.0743C20.7076 17.0246 20.6828 16.9998 20.6331 16.975L20.6414 16.9832Z" fill="white"/>
<path d="M20.6414 17.364C20.5587 17.3226 20.4676 17.2812 20.4014 17.2067C20.3849 17.2233 20.3849 17.2398 20.3931 17.2646C20.418 17.4715 20.3849 17.6785 20.3517 17.8771C20.3517 17.8936 20.3517 17.9102 20.3517 17.9185C20.3517 17.9599 20.3683 18.0095 20.4014 18.0261C20.4428 18.0426 20.4842 18.0095 20.5173 17.9764C20.5338 17.9599 20.5421 17.9433 20.5504 17.9185C20.5587 17.8605 20.5835 17.8109 20.5918 17.7529C20.5918 17.6702 20.6497 17.604 20.6745 17.5295C20.6911 17.4633 20.6911 17.4053 20.6414 17.3557V17.364Z" fill="white"/>
<path d="M20.4179 18.0757C20.4179 18.2164 20.4179 18.3571 20.4097 18.4978C20.4097 18.5227 20.4014 18.5558 20.4428 18.5723C20.4676 18.4399 20.4924 18.3075 20.509 18.175C20.52 18.0978 20.4897 18.0647 20.4179 18.0757Z" fill="white"/>
<path d="M19.971 17.0081C19.971 17.0081 19.971 16.9832 19.971 16.9667C19.9048 16.9915 19.8965 17.0412 19.9297 17.0991C19.9628 17.0826 19.9793 17.066 19.971 17.0246C19.9545 17.0246 19.9545 17.0081 19.971 16.9998V17.0081Z" fill="white"/>
<path d="M26.3853 20.5007C26.3853 20.5007 26.3522 20.4428 26.3273 20.418C26.1866 20.2524 26.0459 20.0952 25.9052 19.9297C25.8225 19.8386 25.748 19.7476 25.7149 19.6317C25.6983 19.5572 25.6901 19.4827 25.8142 19.5324C25.8804 19.5655 25.9549 19.582 26.0294 19.5986C26.1039 19.6151 26.1784 19.5986 26.2197 19.5324C26.2611 19.4579 26.1949 19.4082 26.137 19.3751C25.8887 19.193 25.6238 19.0689 25.3176 19.011C25.1852 18.9861 25.0859 18.9116 25.0114 18.7875C24.8872 18.5558 24.7962 18.3075 24.6969 18.0675C24.4486 17.4384 24.1175 16.8508 23.7534 16.2797C23.6541 16.1225 23.5713 15.957 23.5382 15.7666C23.4637 15.3445 23.3975 14.9224 23.2816 14.5169C23.1657 14.103 23.0995 13.6727 22.9506 13.2671C22.8347 12.9526 22.636 12.7374 22.3133 12.6629C22.1395 12.6216 21.9657 12.5802 21.7919 12.5388C21.5353 12.4726 21.2787 12.4146 21.047 12.274C20.9477 12.216 20.8401 12.1581 20.807 12.0422C20.6911 11.6532 20.8401 11.3139 21.0304 10.9911C21.1463 10.8007 21.2125 10.5938 21.0884 10.478C21.0056 10.3952 20.989 10.3124 20.9973 10.2131C21.0139 9.94 20.9228 9.69998 20.807 9.45169C20.5752 8.94682 19.9793 8.90544 19.582 9.06269C19.1599 9.22822 19.0772 9.63377 18.9779 10.0228C18.9365 10.1717 19.0027 10.3455 18.8951 10.478C18.7875 10.6021 18.7792 10.7263 18.8537 10.8504C19.0358 11.1649 19.2096 11.4711 19.1848 11.8601C19.1765 12.0505 19.102 12.1746 18.9365 12.2408C18.6468 12.365 18.3571 12.4809 18.0509 12.5388C17.4798 12.6381 17.0991 12.9361 16.9419 13.5237C16.7846 14.1444 16.6025 14.7652 16.4949 15.4024C16.4287 15.8245 16.3129 16.2135 16.0563 16.5694C15.8908 16.8012 15.7666 17.0577 15.6342 17.306C15.4024 17.7447 15.2204 18.2164 15.03 18.6799C14.9638 18.8454 14.8479 18.9696 14.6741 19.0027C14.3596 19.0606 14.0948 19.2096 13.8465 19.3834C13.7803 19.4248 13.7058 19.4662 13.7472 19.5655C13.7968 19.6565 13.8796 19.6565 13.9623 19.6317C14.0368 19.6069 14.0948 19.5572 14.1693 19.5324C14.2603 19.491 14.2934 19.5324 14.2686 19.6234C14.2189 19.7807 14.1362 19.9131 14.012 20.0207C13.8713 20.1531 13.7472 20.3021 13.6313 20.4593C13.5982 20.509 13.532 20.5752 13.5899 20.6331C13.6561 20.6994 13.7223 20.6331 13.772 20.5918C13.8713 20.509 13.9541 20.418 14.0451 20.3269C14.0865 20.2855 14.1362 20.2028 14.2106 20.2607C14.2686 20.3021 14.2106 20.3683 14.1941 20.4262C14.103 20.6083 14.012 20.7904 13.921 20.9725C13.8879 21.0304 13.8961 21.0801 13.9541 21.1132C14.012 21.1546 14.0368 21.0966 14.0534 21.0635C14.1527 20.9311 14.252 20.7821 14.3431 20.6497C14.3762 20.6083 14.3844 20.5256 14.4507 20.5587C14.5169 20.5918 14.4672 20.658 14.4507 20.6994C14.4424 20.7325 14.4176 20.7656 14.4093 20.807C14.3679 20.9228 14.3265 21.0304 14.3182 21.1546C14.3182 21.1959 14.3182 21.2373 14.3596 21.2539C14.401 21.2704 14.4341 21.2291 14.4507 21.1959C14.5003 21.0966 14.5417 20.9808 14.5914 20.8814C14.641 20.7821 14.641 20.658 14.7734 20.5835C14.8231 20.6994 14.7569 20.7738 14.7321 20.8649C14.7155 20.9311 14.7486 20.9808 14.7983 20.9973C14.8562 21.0139 14.8893 20.9725 14.9059 20.9228C14.9224 20.8649 14.939 20.807 14.9472 20.749C15.0466 20.3517 15.2452 19.9959 15.3776 19.6069C15.4769 19.3172 15.6342 19.0606 15.8245 18.8206C16.2053 18.3406 16.6108 17.8854 16.9005 17.3391C17.2067 16.7681 17.5047 16.1887 17.753 15.5928C17.7695 15.5514 17.7695 15.4604 17.844 15.4769C17.9019 15.4935 17.8937 15.5597 17.9019 15.6176C17.935 15.9321 18.0095 16.2384 18.0426 16.5529C18.0757 16.8508 18.0592 17.1405 18.0178 17.4302C17.9681 17.7529 17.844 18.0592 17.7695 18.382C17.6619 18.8785 17.5626 19.3834 17.4053 19.8717C17.2729 20.2773 17.2067 20.6994 17.1819 21.1215C17.1571 21.5104 17.1571 21.8994 17.1984 22.2884C17.2481 22.7685 17.3309 23.2485 17.4467 23.7203C17.546 24.1092 17.604 24.4982 17.5626 24.8872C17.5295 25.1769 17.5129 25.4666 17.4881 25.748C17.4219 26.4432 17.4385 27.1467 17.5129 27.8419C17.5709 28.4047 17.6702 28.9675 17.6454 29.5386C17.6288 29.9359 17.4881 30.2917 17.3226 30.6394C17.2646 30.7635 17.2895 30.8132 17.3805 30.8628C17.455 30.9042 17.546 30.929 17.6288 30.9373C17.753 30.9456 17.8771 30.9621 18.0012 31.0035C18.2247 31.078 18.4068 30.9125 18.3985 30.6807C18.3985 30.6228 18.382 30.5649 18.3654 30.4987C18.3571 30.449 18.3489 30.3993 18.4068 30.3662C18.6385 30.2255 18.6634 30.0186 18.6054 29.7786C18.5889 29.7124 18.6054 29.6462 18.5889 29.58C18.5475 29.431 18.6551 29.282 18.5806 29.1496C18.5227 29.0503 18.5227 28.9427 18.5392 28.8434C18.5972 28.4544 18.6551 28.0654 18.7378 27.6764C18.8454 27.155 18.9613 26.6336 18.9365 26.0956C18.9365 25.9301 18.9779 25.7728 19.0192 25.6073C19.1186 25.2431 19.2262 24.879 19.2427 24.49C19.2427 24.2996 19.2427 24.1092 19.2924 23.9189C19.4662 23.2154 19.6979 22.5285 19.7972 21.8084C19.8221 21.6346 19.7972 21.4525 19.88 21.287C19.8966 21.2456 19.8966 21.1959 19.9545 21.1877C20.0207 21.1877 20.0207 21.2456 20.0372 21.287C20.0538 21.3201 20.0538 21.3532 20.0538 21.3863C20.0538 21.9325 20.1945 22.454 20.269 22.9919C20.3435 23.4802 20.418 23.9768 20.4842 24.4651C20.5338 24.8045 20.6083 25.1438 20.6911 25.4749C20.7656 25.7563 20.8401 26.0294 20.807 26.3191C20.7821 26.5508 20.8318 26.7743 20.8566 27.006C20.9146 27.4695 21.0966 27.8999 21.1132 28.3716C21.1297 28.8351 21.196 29.2986 21.1711 29.7703C21.1711 29.9276 21.1877 30.0848 21.2787 30.209C21.3615 30.3249 21.378 30.4242 21.3367 30.5566C21.287 30.7387 21.4691 30.987 21.6512 31.0035C21.8581 31.0201 22.0567 30.987 22.2471 30.929C22.3878 30.8876 22.4291 30.7387 22.3547 30.6145C22.1808 30.3166 22.0981 29.9938 22.0815 29.6545C22.0815 29.5634 22.1146 29.4724 22.1064 29.3731C22.0733 28.9261 22.0981 28.4792 22.156 28.0406C22.2471 27.3867 22.2553 26.7329 22.2719 26.079C22.2802 25.7314 22.1808 25.3921 22.1643 25.0445C22.1312 24.3906 22.2057 23.7534 22.3547 23.1244C22.454 22.7023 22.5119 22.2636 22.5864 21.8332C22.6692 21.3946 22.6278 20.9642 22.5864 20.5256C22.5533 20.1945 22.4871 19.88 22.4126 19.5655C22.3298 19.2344 22.2471 18.9034 22.1808 18.564C22.0981 18.1337 21.9326 17.7281 21.8663 17.2895C21.7753 16.7018 21.9077 16.1225 21.9988 15.5431C21.9988 15.5018 22.0236 15.4355 22.0898 15.4355C22.1395 15.4355 22.156 15.4935 22.1726 15.5266C22.305 15.8659 22.454 16.2053 22.6195 16.528C22.9009 17.0826 23.1823 17.6371 23.5713 18.1337C23.9272 18.5889 24.3493 19.0027 24.5479 19.5738C24.6803 19.9628 24.9121 20.3186 24.9452 20.7407C24.9452 20.8401 24.97 20.9973 25.0942 20.9725C25.1852 20.9559 25.1438 20.807 25.119 20.7159C25.1107 20.6745 25.0859 20.6249 25.1355 20.6C25.21 20.5752 25.21 20.6497 25.2266 20.6828C25.2928 20.8318 25.3507 20.989 25.4087 21.138C25.4335 21.1959 25.45 21.2787 25.5411 21.2456C25.6238 21.2125 25.599 21.138 25.5742 21.0718C25.5245 20.9228 25.4997 20.7656 25.4335 20.6166C25.4252 20.5918 25.4087 20.5338 25.45 20.5173C25.4914 20.5007 25.5162 20.5421 25.5411 20.5752C25.6238 20.7076 25.7066 20.8483 25.7976 20.9725C25.839 21.0304 25.8721 21.1463 25.9549 21.0966C26.0211 21.0635 25.988 20.9559 25.9715 20.8814C25.9715 20.8566 25.9549 20.8318 25.9383 20.807C25.8556 20.6663 25.7728 20.5256 25.6983 20.3849C25.6735 20.3435 25.6238 20.2938 25.6901 20.2359C25.748 20.1945 25.7976 20.2359 25.839 20.2607C25.9218 20.3352 25.9963 20.418 26.0708 20.4924C26.1122 20.5338 26.1535 20.5669 26.1949 20.6C26.2363 20.6331 26.2777 20.658 26.3273 20.6166C26.3687 20.5752 26.3604 20.5256 26.3439 20.4759L26.3853 20.5007ZM21.3367 15.2286C21.3367 15.2286 21.3118 15.2286 21.3118 15.2452C21.1628 15.4273 20.9725 15.3611 20.7821 15.3362C20.7407 15.3362 20.6911 15.3197 20.6497 15.3114C20.6083 15.3031 20.6 15.3114 20.5918 15.3528C20.5504 15.7832 20.4842 16.2135 20.4262 16.6439C20.4842 16.6605 20.5421 16.677 20.5918 16.7101C20.6414 16.7349 20.6745 16.7101 20.7076 16.6853C20.749 16.6605 20.749 16.6191 20.7325 16.5942C20.7076 16.5446 20.7325 16.5198 20.7656 16.4949C20.7904 16.4701 20.8318 16.4701 20.8649 16.4949C20.9394 16.528 20.989 16.5942 21.0387 16.6522C21.0553 16.6025 21.0387 16.5611 21.0221 16.528C20.989 16.4618 20.9808 16.4039 21.0056 16.3377C21.0304 16.2632 20.9725 16.197 20.9559 16.1225C20.9311 16.0397 20.9559 15.957 20.9477 15.8742C20.9477 15.8494 20.9642 15.8328 20.9808 15.8328C21.0056 15.8328 21.0221 15.8494 21.0221 15.8742C21.0221 15.9404 21.0221 16.0066 21.0221 16.0811C21.0221 16.1142 21.0221 16.1473 21.047 16.1722C21.0718 16.1722 21.0966 16.1639 21.1132 16.1722C21.1297 16.1887 21.1132 16.197 21.0966 16.2053C21.0966 16.2053 21.0966 16.2135 21.0966 16.2218C21.1297 16.2218 21.1297 16.2466 21.138 16.2715C21.1546 16.288 21.1877 16.2797 21.196 16.3128C21.1711 16.346 21.1297 16.346 21.0801 16.346C21.1297 16.3873 21.1711 16.4204 21.1711 16.4867C21.1711 16.5115 21.2042 16.528 21.2291 16.4867C21.2539 16.4535 21.2787 16.4204 21.3118 16.4122C21.3284 16.4204 21.3201 16.4287 21.3118 16.437C21.287 16.4618 21.2291 16.4867 21.2456 16.5198C21.2622 16.5611 21.3284 16.5529 21.3615 16.5611C21.4194 16.5694 21.378 16.5032 21.4277 16.4701C21.4277 16.5611 21.436 16.6522 21.4856 16.7349C21.378 16.6936 21.2787 16.6522 21.1794 16.6356C21.0966 16.7929 20.9477 16.8508 20.7987 16.9088C20.7159 16.9419 20.7242 16.9336 20.7573 17.0163C20.807 17.1405 20.8732 17.2564 20.9311 17.3805C20.9477 17.3805 20.9642 17.3557 20.989 17.364C21.0139 17.3805 21.0221 17.4053 21.0139 17.4384C21.0221 17.604 21.0139 17.7612 20.989 17.9268C20.9808 18.0509 20.989 18.175 20.989 18.2992C20.989 18.4647 21.0553 18.622 21.0718 18.7792C21.0718 18.8372 21.0884 18.8868 21.0718 18.9448C21.0635 18.9779 21.0387 18.9696 21.0139 18.9779C21.0139 18.9613 21.0139 18.9448 21.0139 18.9199C21.0635 18.8537 21.0304 18.7792 21.0139 18.7213C20.9146 18.382 20.9642 18.0426 20.9559 17.7033C20.9559 17.6867 20.9559 17.6785 20.9642 17.6702C20.9642 17.6122 20.9642 17.546 20.9642 17.4881C20.9559 17.4881 20.9394 17.4716 20.9311 17.4716C20.8814 17.4881 20.8732 17.5378 20.8483 17.5709C20.7656 17.7033 20.6828 17.844 20.5835 17.9764C20.5338 18.0426 20.5421 18.1419 20.5256 18.2247C20.509 18.3323 20.4925 18.4399 20.4676 18.5475C20.4511 18.6137 20.4593 18.6716 20.5256 18.7047C20.5669 18.7296 20.6083 18.7544 20.6414 18.7875C20.6994 18.8372 20.7656 18.8454 20.8401 18.8372C20.8897 18.8372 20.9063 18.8703 20.8897 18.8951C20.8483 18.9613 20.9146 18.953 20.9394 18.9696C20.9394 18.9696 20.9642 18.9696 20.9725 18.9944C20.9311 19.0192 20.898 18.9944 20.8732 18.9696C20.7987 18.9034 20.6994 18.8868 20.6249 18.8289C20.6083 18.8206 20.5918 18.8123 20.5752 18.8372C20.5918 18.8454 20.6083 18.862 20.6083 18.8868C20.6663 18.9944 20.7159 19.0937 20.7325 19.2179C20.7573 19.2262 20.7656 19.2593 20.7573 19.2758C20.7407 19.3834 20.7821 19.4744 20.8235 19.5655C20.8483 19.6317 20.8732 19.6979 20.8649 19.7641C20.8566 19.8717 20.9228 19.9628 20.9063 20.0621C20.9063 20.2276 20.9063 20.3931 20.8152 20.5421C20.7656 20.6083 20.7159 20.5669 20.6663 20.5421C20.5504 20.4676 20.418 20.4511 20.2855 20.4345C20.2111 20.4262 20.2028 20.4924 20.1614 20.5256C20.1283 20.4924 20.1614 20.4676 20.1614 20.4428C20.1614 20.4014 20.1779 20.36 20.1531 20.3186C20.1531 20.3104 20.1531 20.2938 20.1531 20.2855H20.1779C20.2111 20.4014 20.3186 20.36 20.3931 20.3766C20.4676 20.3849 20.5256 20.4097 20.5918 20.4428C20.6083 20.4428 20.6249 20.4593 20.6414 20.4676C20.7573 20.5256 20.7821 20.509 20.8152 20.3849C20.8401 20.2855 20.8401 20.1779 20.8483 20.0703C20.8483 19.9876 20.8483 19.9131 20.8235 19.8303C20.7904 19.6979 20.7904 19.6979 20.658 19.731C20.5587 19.7972 20.5587 19.7972 20.6332 19.9214C20.6745 19.9876 20.6994 20.0455 20.6332 20.1117C20.6083 20.1366 20.5835 20.1614 20.5587 20.1862C20.5007 20.2855 20.4014 20.269 20.3186 20.2607C20.2359 20.2524 20.1531 20.2193 20.0786 20.1779C20.0621 20.1697 20.0372 20.1614 20.0538 20.1366C20.0621 20.1117 20.0869 20.1283 20.1035 20.1366C20.2028 20.1779 20.3021 20.2193 20.4097 20.2193C20.4593 20.2193 20.5007 20.2111 20.5338 20.1697C20.6111 20.0593 20.6111 19.9462 20.5338 19.8303C20.5338 19.8303 20.5007 19.7972 20.4759 19.7972C20.3683 19.7972 20.3021 19.7227 20.2276 19.6565C20.2193 19.6483 20.2028 19.6317 20.2111 19.6151C20.2193 19.5986 20.2359 19.6151 20.2524 19.6151C20.2773 19.6317 20.3021 19.64 20.3186 19.6483C20.4428 19.7476 20.5421 19.7641 20.6663 19.6317C20.7159 19.5655 20.7076 19.5076 20.6828 19.4331C20.6497 19.342 20.6 19.2675 20.5835 19.1765C20.5835 19.1434 20.5587 19.1103 20.509 19.0937C20.4676 19.0772 20.4428 19.0275 20.4428 18.9696C20.4428 18.8951 20.4262 18.8289 20.3352 18.8123C20.3186 18.8454 20.3021 18.8703 20.2855 18.9034C20.2855 18.9199 20.2855 18.9365 20.2855 18.953C20.2855 18.953 20.2938 18.953 20.3021 18.953C20.36 19.0772 20.3931 19.2096 20.4097 19.3503C20.36 19.2758 20.3518 19.1765 20.2855 19.0937C20.269 19.1848 20.3269 19.2675 20.2938 19.3669C20.2276 19.2924 20.2773 19.2013 20.2359 19.1351C20.2193 19.1268 20.2028 19.1103 20.1862 19.1351C20.1862 19.1351 20.1697 19.1517 20.1614 19.1517C20.1283 19.1765 20.0869 19.2013 20.0786 19.2262C20.0786 19.251 20.1117 19.2841 20.1283 19.3172C20.0869 19.3006 20.0704 19.2593 20.0372 19.2262C20.0207 19.2262 20.0041 19.2427 19.9876 19.2427C19.971 19.3172 20.0041 19.3834 20.0124 19.4579C20.029 19.5655 19.9959 19.6565 19.9876 19.7641C19.9876 19.5986 20.0207 19.4413 19.9628 19.2841C19.9297 19.3089 19.9131 19.3586 19.8634 19.3337C19.8138 19.3172 19.7972 19.2924 19.8634 19.2593C19.8883 19.2096 19.9297 19.1765 19.9628 19.1434C19.9876 19.0192 19.9628 18.8868 19.9462 18.7627C19.9462 18.7047 19.9297 18.6551 19.9297 18.5971C19.9297 18.5558 19.9131 18.5227 19.8883 18.4896C19.8386 18.4233 19.8138 18.4233 19.7559 18.4896C19.731 18.5144 19.7062 18.5309 19.6896 18.5558C19.6896 18.5558 19.6896 18.5558 19.6896 18.564C19.6814 18.622 19.6483 18.6716 19.6234 18.7296C19.5986 18.7958 19.5738 18.8537 19.5572 18.9199C19.5572 18.9365 19.5572 18.953 19.5489 18.9613C19.4745 19.0275 19.4413 19.1186 19.3917 19.2013C19.3917 19.2262 19.3751 19.251 19.3751 19.2758C19.3338 19.4 19.3338 19.5241 19.3751 19.6565C19.3917 19.6979 19.4082 19.731 19.4496 19.7558C19.5572 19.7724 19.6234 19.7062 19.6896 19.6483C19.7062 19.6317 19.7227 19.6069 19.7476 19.6317C19.7641 19.6483 19.7476 19.6731 19.731 19.6896C19.6731 19.7641 19.5986 19.8221 19.4993 19.8221C19.4331 19.8634 19.4 19.8055 19.3586 19.7724C19.3338 19.7476 19.3172 19.7062 19.2675 19.731C19.2427 19.7807 19.2427 19.8469 19.2013 19.8965C19.2013 19.9048 19.1931 19.9131 19.1765 19.9131C19.1931 19.9214 19.1765 19.9379 19.1765 19.9462C19.1765 19.9545 19.1765 19.9628 19.1682 19.9628C19.1682 19.971 19.1682 19.9793 19.1682 19.9876C19.1682 19.9959 19.1682 20.0124 19.1682 20.0207C19.1848 20.0455 19.2013 20.0786 19.2096 20.1035C19.2924 20.2524 19.3503 20.2773 19.5076 20.2276C19.5241 20.2276 19.5407 20.2193 19.5572 20.211C19.582 20.1945 19.6152 20.1697 19.64 20.1531C19.6565 20.1448 19.6648 20.1283 19.6814 20.1531C19.6979 20.1697 19.6896 20.1862 19.6814 20.1945C19.6483 20.211 19.6234 20.2524 19.582 20.2524C19.4165 20.3269 19.3255 20.3517 19.1682 20.1614L19.1517 20.1862C19.1517 20.269 19.1765 20.3517 19.2013 20.4345C19.2262 20.509 19.2675 20.5173 19.3338 20.4842C19.3834 20.4593 19.4413 20.4262 19.491 20.3931C19.5489 20.36 19.6069 20.3435 19.6648 20.3517C19.7227 20.3352 19.7807 20.3849 19.8469 20.3435C19.8055 20.418 19.8883 20.4676 19.88 20.5421C19.7807 20.4014 19.7476 20.3849 19.5655 20.4262C19.5324 20.4262 19.5241 20.4511 19.4993 20.4676C19.4993 20.4842 19.4827 20.4924 19.4662 20.4924C19.4662 20.4924 19.4662 20.4924 19.4579 20.4924C19.4413 20.5173 19.4165 20.5256 19.3917 20.5338C19.1848 20.6414 19.2096 20.5752 19.1517 20.4097C19.1268 20.3517 19.1268 20.2855 19.1186 20.2193C19.0937 20.1697 19.0937 20.1283 19.1186 20.0786C19.102 20.0124 19.0606 19.9545 19.1186 19.8883C19.1434 19.8221 19.2179 19.7807 19.2344 19.7145C19.2758 19.5572 19.2593 19.3834 19.3089 19.2262C19.3172 19.1434 19.3586 19.0689 19.4 18.9944C19.4165 18.9696 19.4496 18.9365 19.4 18.9034C19.4 18.9034 19.4 18.8785 19.4 18.8703C19.4827 18.622 19.5903 18.3902 19.6979 18.1502C19.7145 18.1171 19.7227 18.0675 19.7227 18.0178C19.6317 18.084 19.6152 18.1916 19.5407 18.2495C19.5158 18.2826 19.4993 18.324 19.4662 18.3489C19.4165 18.4151 19.3586 18.4647 19.2758 18.4896C19.2593 18.4896 19.2427 18.5227 19.2179 18.4896C19.2013 18.4564 19.2344 18.4564 19.251 18.4482C19.2593 18.4399 19.2758 18.4316 19.2924 18.4233C19.2593 18.4151 19.2344 18.3985 19.2427 18.3654C19.2427 18.3406 19.2758 18.3406 19.3006 18.3406C19.3669 18.3406 19.4082 18.3075 19.4413 18.2578C19.4993 18.175 19.5241 18.0757 19.582 17.993C19.582 17.9433 19.6483 17.9268 19.6483 17.8688C19.5489 17.8109 19.5489 17.7033 19.5324 17.6123C19.5324 17.5791 19.5158 17.546 19.5158 17.5129C19.5076 17.4715 19.491 17.4136 19.4496 17.4053C19.3917 17.4053 19.3338 17.4302 19.2924 17.4881C19.1765 17.6619 19.1351 17.8523 19.0855 18.0426C19.0606 18.1502 19.102 18.2413 19.1351 18.3406C19.1434 18.3737 19.1599 18.4068 19.1434 18.4482C19.0855 18.4151 19.102 18.3489 19.0772 18.3075C18.9696 18.0923 19.0606 17.9019 19.1351 17.7033C19.1351 17.6785 19.1517 17.6619 19.1599 17.6371C19.1931 17.5791 19.2096 17.5295 19.102 17.5129C19.1765 17.4881 19.2344 17.4633 19.251 17.3971C19.251 17.3805 19.251 17.3722 19.2593 17.3557C19.2593 17.3557 19.2675 17.3391 19.2593 17.3309C19.2593 17.3309 19.251 17.3309 19.2427 17.3391C19.2179 17.3474 19.2013 17.3888 19.1599 17.3722C19.1931 17.3391 19.2262 17.2977 19.2593 17.2646C19.2593 17.2481 19.3089 17.215 19.2427 17.2067C19.2344 17.2067 19.2262 17.1984 19.2344 17.1819C19.2344 17.1819 19.251 17.1736 19.2593 17.1736C19.3089 17.1736 19.3586 17.1736 19.4 17.1736C19.4248 17.1736 19.4496 17.1736 19.4331 17.1405C19.4331 17.1405 19.4331 17.1405 19.4331 17.1322C19.4248 17.1157 19.4082 17.1074 19.4 17.0908C19.3503 17.0163 19.3751 16.9253 19.4496 16.8839C19.5986 16.8012 19.64 16.6522 19.64 16.4949C19.6152 16.4784 19.6152 16.4535 19.64 16.437C19.64 16.4204 19.64 16.3956 19.64 16.3791C19.64 16.3294 19.6234 16.3046 19.5903 16.2715C19.582 16.2715 19.5738 16.2797 19.5572 16.288C19.5076 16.3791 19.4662 16.4784 19.4331 16.5777C19.3917 16.7101 19.3006 16.8012 19.1599 16.8508C19.1351 16.8591 19.1186 16.8839 19.0937 16.8922C19.0855 16.9088 19.0689 16.917 19.0524 16.917C19.0027 16.9419 18.953 16.975 18.9117 16.9998C18.9117 16.9998 18.9117 16.9915 18.9034 16.9832C18.953 16.9336 19.0027 16.8922 19.0689 16.8674C19.1434 16.826 19.2179 16.7763 19.2841 16.7184C19.4082 16.6108 19.4413 16.4618 19.4745 16.3128C19.491 16.2301 19.4413 16.1722 19.3751 16.2135C19.2924 16.2632 19.2758 16.2135 19.251 16.1639C19.251 16.1556 19.2427 16.139 19.2344 16.1308C19.2262 16.1059 19.2179 16.0894 19.2013 16.0646C19.2262 16.048 19.2427 16.0563 19.2675 16.0646C19.2841 16.0728 19.3006 16.0894 19.3255 16.0811C19.4165 16.0397 19.4993 16.0894 19.5903 16.0977C19.6234 16.0977 19.6317 16.0811 19.6483 16.048C19.6731 15.9652 19.6483 15.8825 19.6731 15.7997C19.6814 15.7666 19.6814 15.7252 19.6896 15.6921C19.6731 15.659 19.6565 15.6921 19.64 15.6921C19.5986 15.7335 19.5655 15.7832 19.5076 15.8163C19.5076 15.8163 19.5076 15.8245 19.5076 15.8328C19.5076 15.8328 19.5076 15.8328 19.5076 15.8411C19.5076 15.8411 19.5076 15.8411 19.4993 15.8411C19.4993 15.8411 19.4993 15.8411 19.4993 15.8328C19.4993 15.8328 19.4993 15.8328 19.491 15.8328C19.4745 15.8494 19.4579 15.8494 19.4413 15.8328C19.4248 15.808 19.4413 15.7997 19.4579 15.7914C19.5241 15.6838 19.6317 15.6259 19.7062 15.5266C19.731 15.5018 19.7476 15.4769 19.7641 15.4438C19.789 15.3693 19.731 15.3528 19.6896 15.328C19.6317 15.328 19.5655 15.3197 19.5076 15.3114H19.251C19.1517 15.3114 19.0855 15.3776 19.011 15.4355C18.9944 15.4521 18.9861 15.4604 18.9696 15.4769C18.953 15.4935 18.9365 15.5018 18.9199 15.4852C18.9034 15.4687 18.9034 15.4521 18.9199 15.4355C19.0855 15.2783 19.2675 15.2038 19.5076 15.2452C19.5986 15.2617 19.6896 15.2452 19.7807 15.2452C19.7724 15.2286 19.7559 15.2038 19.7641 15.179C19.7972 15.0962 19.7393 15.0383 19.6979 14.9803C19.6234 14.8728 19.5738 14.7652 19.6152 14.6327C19.6234 14.5914 19.582 14.5914 19.582 14.5665C19.5572 14.5003 19.5738 14.4507 19.6317 14.4093C19.64 14.3762 19.6152 14.3431 19.5903 14.3513C19.5241 14.3679 19.4993 14.3265 19.4662 14.2934C19.4165 14.2934 19.4 14.2686 19.4248 14.2272C19.4496 14.1775 19.491 14.1361 19.4496 14.0782C19.4496 14.0782 19.4496 14.0534 19.4579 14.0451C19.4331 14.0203 19.4413 13.9954 19.4579 13.9789C19.5241 13.9127 19.5158 13.8299 19.5076 13.7554C19.491 13.6147 19.5158 13.4823 19.4993 13.3416C19.4993 13.3085 19.5241 13.3002 19.5407 13.292C19.6152 13.2257 19.6896 13.2257 19.7227 13.292C19.7724 13.3251 19.8221 13.3582 19.8221 13.4244C19.8221 13.474 19.8221 13.5237 19.7476 13.5154C19.6731 13.5154 19.6896 13.5651 19.7145 13.5982C19.7559 13.6561 19.7724 13.7223 19.7641 13.7885C19.7972 13.7472 19.7807 13.6892 19.8138 13.6478C19.8138 13.6147 19.8303 13.5899 19.8386 13.5568C19.8386 13.5485 19.8386 13.5402 19.8469 13.5402C19.8717 13.4658 19.9297 13.4078 19.9131 13.3251C19.8303 13.2009 19.7476 13.0768 19.6234 12.9857C19.6069 12.9692 19.5903 12.9526 19.5986 12.9278C19.64 12.8036 19.5738 12.6878 19.5572 12.5636C19.5572 12.514 19.5572 12.4726 19.5407 12.4229C19.5241 12.3815 19.5738 12.3815 19.5986 12.3733C19.6317 12.3567 19.64 12.3898 19.64 12.4146C19.64 12.5305 19.6896 12.6381 19.6979 12.754C19.6979 12.8119 19.7393 12.8533 19.7393 12.903C19.8055 13.0354 19.9214 13.1347 20.0041 13.2588C20.0207 13.2837 20.0538 13.292 20.0869 13.2837C20.1366 13.1099 20.1366 12.9195 20.1862 12.7457C20.2193 12.6547 20.1945 12.5553 20.1945 12.456C20.1945 12.4312 20.1697 12.3898 20.2193 12.3815C20.269 12.3815 20.2607 12.4229 20.2607 12.4478C20.2607 12.5057 20.2607 12.5719 20.2607 12.6298C20.3849 12.6712 20.3849 12.6712 20.3766 12.8202C20.3518 12.9195 20.3435 13.0188 20.3435 13.1264C20.3435 13.143 20.3435 13.1678 20.3435 13.1844C20.3849 13.3002 20.4676 13.4078 20.4842 13.532C20.4842 13.5734 20.4676 13.623 20.5007 13.6644C20.5587 13.6809 20.6166 13.6975 20.6745 13.714C20.6994 13.7223 20.7159 13.7389 20.7242 13.772C20.7325 13.7968 20.7325 13.8299 20.7242 13.863C20.7076 13.9292 20.658 13.9872 20.6911 14.0617C20.7821 14.0617 20.8483 14.1361 20.9311 14.1444C20.9394 14.1444 20.9477 14.1444 20.9559 14.1444C21.0801 14.161 21.1711 14.2189 21.2373 14.3265C21.287 14.3927 21.3615 14.4341 21.4111 14.5086C21.6098 14.7155 21.5518 15.0797 21.287 15.2038L21.3367 15.2286Z" fill="white"/>
<path d="M20.3931 16.8591C20.4676 16.9087 20.5421 16.9336 20.6249 16.8839C20.6414 16.8756 20.6663 16.8674 20.6828 16.8591C20.7821 16.826 20.8814 16.7846 20.9725 16.7184C20.989 16.7018 21.0304 16.6853 21.0056 16.6605C20.9477 16.6108 20.9146 16.5446 20.8401 16.5115C20.8152 16.5032 20.7904 16.4949 20.7656 16.5115C20.7407 16.528 20.749 16.5611 20.7656 16.5777C20.7904 16.6356 20.7656 16.677 20.7159 16.7018C20.6994 16.7101 20.6828 16.7018 20.6828 16.7349C20.7076 16.7432 20.7076 16.7598 20.6911 16.7846C20.6745 16.8012 20.6663 16.8094 20.6497 16.7846C20.6249 16.7432 20.5835 16.7267 20.5338 16.7101C20.4925 16.6936 20.4511 16.6853 20.4097 16.677C20.4097 16.7432 20.3849 16.8012 20.3931 16.8674V16.8591Z" fill="white"/>
<path d="M20.3517 18.2081C20.3517 18.2081 20.3683 18.1088 20.3269 18.1006C20.2855 18.1006 20.2938 18.1668 20.2938 18.1999C20.2855 18.2744 20.2524 18.3157 20.1779 18.3157C20.1531 18.3157 20.1283 18.324 20.1117 18.3488C20.1945 18.4151 20.2773 18.4813 20.3517 18.5558C20.3517 18.5558 20.3517 18.5558 20.36 18.5558C20.36 18.5392 20.36 18.5144 20.36 18.4978C20.3435 18.3985 20.36 18.3075 20.36 18.2081H20.3517Z" fill="white"/>
<path d="M20.1531 19.0854C20.1531 19.0854 20.1117 19.1103 20.0952 19.1351C20.12 19.1434 20.1366 19.1351 20.1448 19.1186C20.1448 19.1103 20.1614 19.0937 20.1531 19.0854C20.1531 19.0854 20.1531 19.0854 20.1448 19.0854H20.1531Z" fill="white"/>
<path d="M20.0455 18.0923C20.0455 18.0923 20.0455 18.0261 19.9959 18.0261C19.9545 18.0592 19.971 18.1585 20.0207 18.1916C20.0207 18.1585 20.0207 18.1254 20.0372 18.0923H20.0455Z" fill="white"/>
<path d="M19.9793 17.9516C19.9793 17.9516 20.0621 17.993 20.0703 17.935C20.0952 17.8357 20.12 17.7364 20.12 17.6288C20.12 17.6122 20.12 17.604 20.1283 17.5957C20.1365 17.5378 20.1283 17.4881 20.1283 17.4302C20.0952 17.3971 20.1117 17.3557 20.1117 17.3226C20.1117 17.306 20.1117 17.2812 20.1117 17.2646C20.0786 17.215 20.1117 17.1653 20.0952 17.1157C20.0952 17.0908 20.0952 17.066 20.0621 17.0991C20.0455 17.1405 20.029 17.1901 20.0207 17.2315C20.029 17.2646 20.0041 17.2895 20.0041 17.3226C19.9876 17.4136 19.971 17.5047 19.9545 17.5957C19.9876 17.7116 19.971 17.8274 19.9793 17.9433V17.9516Z" fill="white"/>
<path d="M20.1531 19.0855C20.1697 19.0772 20.1779 19.0689 20.1862 19.0441C20.2028 19.0441 20.2028 19.0275 20.1862 19.011L20.1697 19.0275C20.1614 19.0441 20.1448 19.0523 20.1448 19.0772L20.1531 19.0855Z" fill="white"/>
<path d="M20.0373 18.5971C20.0373 18.5971 20.0124 18.6634 20.0207 18.6965C20.0538 18.8372 20.0455 18.9861 20.0455 19.1268C20.1614 19.0192 20.2442 18.8868 20.3269 18.7544C20.2524 18.7296 20.2111 18.6634 20.1448 18.6303C20.1117 18.6137 20.0786 18.5723 20.0373 18.5971Z" fill="white"/>
</g>
<defs>
<clipPath id="clip0_1409_367">
<rect width="40" height="40" fill="white"/>
</clipPath>
</defs>
</svg>
