<svg width="80" height="80" viewBox="0 0 80 80" fill="none" xmlns="http://www.w3.org/2000/svg">
<g clip-path="url(#clip0_1409_366)">
<path d="M40.0083 80.0165C62.1042 80.0165 80.0165 62.1042 80.0165 40.0083C80.0165 17.9123 62.1042 0 40.0083 0C17.9123 0 0 17.9123 0 40.0083C0 62.1042 17.9123 80.0165 40.0083 80.0165Z" fill="#201E3D"/>
<path d="M40.4055 30.8711C40.4055 31.0532 40.5214 31.1856 40.5876 31.3842C40.6042 31.2021 40.6538 31.0863 40.6704 30.9539C40.6869 30.8049 40.6704 30.6393 40.7035 30.4904C40.6042 30.4904 40.5049 30.5566 40.389 30.5069C40.3559 30.5069 40.3228 30.54 40.3393 30.5566C40.4718 30.6393 40.3559 30.7552 40.389 30.8545L40.4055 30.8711Z" fill="white"/>
<path d="M42.2264 32.8905C42.2595 32.8078 42.1767 32.8078 42.1271 32.7747C42.1271 32.8409 42.0939 32.9071 42.1602 32.9402C42.1933 32.9402 42.2098 32.9237 42.2264 32.8905Z" fill="white"/>
<path d="M40.24 33.5692C40.24 33.5692 40.24 33.4533 40.2897 33.4037C40.3228 33.3706 40.2897 33.3375 40.3062 33.3044C40.3062 33.2547 40.2897 33.2051 40.3393 33.1554C40.3393 33.0395 40.3062 33.0064 40.1904 33.023C40.1573 33.023 40.0911 33.023 40.0745 33.023C39.9917 32.874 39.8759 32.9402 39.7766 32.9899C39.8759 33.1554 40.0248 33.2713 40.0911 33.4533C40.1076 33.503 40.1407 33.6023 40.2235 33.5858L40.24 33.5692Z" fill="white"/>
<path d="M40.4883 26.2363C40.4883 26.1039 40.5214 25.988 40.538 25.8556C40.5214 25.8721 40.5048 25.9052 40.4883 25.9218C40.4221 26.1039 40.4221 26.2694 40.4386 26.4515C40.4717 26.3853 40.4717 26.3025 40.4717 26.2197L40.4883 26.2363Z" fill="white"/>
<path d="M40.389 32.7085C40.4387 32.394 40.4718 32.096 40.5214 31.7815L40.4883 31.7484C40.3725 31.7815 40.2566 31.8146 40.1407 31.8643C40.1242 31.8808 40.0911 31.8974 40.0579 31.8974C40.0579 31.8974 40.0414 31.8974 40.0248 31.8974C40.0248 31.8974 40.0248 31.9139 40.0248 31.9305C40.0911 32.0132 40.0248 32.0463 39.9752 32.0795C39.9255 32.1126 39.8759 32.1291 39.8262 32.1126C39.76 32.2946 39.8262 32.4933 39.7766 32.6919C39.8428 32.8243 39.9752 32.8243 40.1076 32.874C40.2566 32.9237 40.3725 32.874 40.4056 32.7085H40.389Z" fill="white"/>
<path d="M40.4386 31.4835C40.4386 31.4835 40.3724 31.4008 40.3724 31.3511C40.3393 31.2022 40.2566 31.0863 40.1738 30.9539C39.9917 31.2353 39.9421 31.5332 39.8924 31.8312C40.1076 31.7484 40.3559 31.7153 40.5545 31.5829C40.4883 31.5829 40.4386 31.5663 40.4386 31.4835Z" fill="white"/>
<path d="M40.4883 28.7523C40.4883 28.7523 40.4552 28.7523 40.4387 28.7523C40.4387 28.7523 40.4221 28.7689 40.4055 28.7854C40.4055 28.7854 40.4221 28.7689 40.4387 28.7523C40.4552 28.7523 40.4718 28.7523 40.4883 28.7523Z" fill="white"/>
<path d="M39.2137 34.0658H39.0813C39.0813 34.0658 38.9323 34.1817 38.9158 34.281C38.9158 34.281 38.9158 34.2975 38.9158 34.3141C39.0482 34.281 39.0979 34.1651 39.1972 34.0823L39.2137 34.0658Z" fill="white"/>
<path d="M38.8992 34.5293C38.8992 34.5293 38.8496 34.4796 38.8165 34.4796C38.8496 34.4796 38.8827 34.4796 38.8992 34.5293Z" fill="white"/>
<path d="M42.723 33.1885C42.723 33.1885 42.5574 33.1388 42.4912 33.1223C42.5574 33.1885 42.6236 33.2878 42.723 33.1885Z" fill="white"/>
<path d="M39.4289 34.5458C39.4289 34.5458 39.3462 34.5293 39.3131 34.5127C39.28 34.5127 39.2634 34.4796 39.2303 34.4631C39.2965 34.43 39.3793 34.4631 39.4124 34.3969C39.3462 34.2975 39.4124 34.1982 39.3793 34.0989C39.3131 34.0989 39.2634 34.132 39.2303 34.1817C39.131 34.3141 39.0979 34.4962 38.9986 34.6452C38.9654 34.6948 38.9986 34.7114 39.0482 34.7114C39.1475 34.7114 39.2468 34.6783 39.3296 34.6452C39.3627 34.6452 39.4455 34.6452 39.4289 34.5624V34.5458Z" fill="white"/>
<path d="M39.5117 35.9363C39.5117 35.9363 39.5448 35.8866 39.5613 35.8866C39.5613 35.8866 39.5282 35.8866 39.5117 35.9363Z" fill="white"/>
<path d="M39.2468 37.1281C39.2468 37.1281 39.2468 37.1446 39.2468 37.1612C39.2468 37.1612 39.2468 37.1446 39.2468 37.1281C39.2468 37.1115 39.2634 37.0784 39.2799 37.0619C39.2799 37.0619 39.2799 37.0453 39.2799 37.0288V37.0619C39.2799 37.0619 39.2468 37.1115 39.2468 37.1281Z" fill="white"/>
<path d="M39.462 35.4066C39.462 35.241 39.4124 35.0755 39.4289 34.91C39.4289 34.8603 39.3958 34.8438 39.3627 34.8438C39.2799 34.8438 39.1972 34.8438 39.1144 34.8438C39.1806 34.9597 39.2137 35.0921 39.2303 35.2245C39.2468 35.3569 39.2799 35.5059 39.3793 35.6218C39.4455 35.688 39.4786 35.688 39.4951 35.5887C39.4289 35.5224 39.462 35.4562 39.462 35.39V35.4066Z" fill="white"/>
<path d="M40.091 30.1759C40.091 30.1759 40.0745 30.1428 40.0579 30.1262C40.0579 30.1262 40.0579 30.1262 40.0579 30.1097C40.0579 30.1097 40.0579 30.1097 40.0579 30.1262C40.0579 30.1262 40.0745 30.1593 40.091 30.1759Z" fill="white"/>
<path d="M41.2828 33.9665C41.2828 33.9665 41.1835 33.9665 41.1835 34.0327C41.2001 34.0658 41.2166 34.1154 41.2166 34.1486C41.2497 34.2148 41.2166 34.2975 41.2166 34.3637C41.0842 34.4962 41.1339 34.5789 41.2828 34.6451C41.316 34.6451 41.3325 34.6948 41.3656 34.7279C41.4815 34.8438 41.4484 34.9762 41.4153 35.1086C41.3822 35.2576 41.316 35.39 41.2497 35.5224C41.2497 35.5721 41.2332 35.6218 41.2166 35.6714C41.2166 35.6714 41.2332 35.6714 41.2497 35.688C41.3987 35.4397 41.5477 35.2079 41.6967 34.9596C41.7298 34.91 41.796 34.8603 41.7794 34.7776C41.6801 34.5624 41.5311 34.3803 41.4484 34.1486C41.4153 34.0492 41.3656 33.9996 41.2663 33.9499L41.2828 33.9665Z" fill="white"/>
<path d="M41.2828 34.7279C41.1173 34.6451 40.9352 34.5624 40.8028 34.4134C40.7697 34.4465 40.7697 34.4796 40.7863 34.5293C40.8359 34.9431 40.7697 35.3569 40.7035 35.7542C40.7035 35.7873 40.7035 35.8204 40.7035 35.837C40.7035 35.9197 40.7366 36.019 40.8028 36.0521C40.8856 36.0852 40.9683 36.019 41.0345 35.9528C41.0677 35.9197 41.0842 35.8866 41.1008 35.837C41.1173 35.7211 41.167 35.6218 41.1835 35.5059C41.1835 35.3404 41.2994 35.2079 41.3491 35.059C41.3822 34.9265 41.3822 34.8107 41.2828 34.7114V34.7279Z" fill="white"/>
<path d="M40.8359 36.1514C40.8359 36.4328 40.8359 36.7142 40.8194 36.9956C40.8194 37.0453 40.8028 37.1115 40.8856 37.1446C40.9352 36.8798 40.9849 36.6149 41.018 36.3501C41.0401 36.1956 40.9794 36.1294 40.8359 36.1514Z" fill="white"/>
<path d="M39.9421 34.0161C39.9421 34.0161 39.9421 33.9665 39.9421 33.9334C39.8096 33.983 39.7931 34.0824 39.8593 34.1982C39.9255 34.1651 39.9586 34.132 39.9421 34.0492C39.909 34.0492 39.909 34.0161 39.9421 33.9996V34.0161Z" fill="white"/>
<path d="M52.7705 41.0014C52.7705 41.0014 52.7043 40.8856 52.6547 40.8359C52.3733 40.5049 52.0919 40.1904 51.8105 39.8593C51.645 39.6772 51.496 39.4951 51.4298 39.2634C51.3967 39.1144 51.3801 38.9654 51.6284 39.0648C51.7608 39.131 51.9098 39.1641 52.0588 39.1972C52.2078 39.2303 52.3567 39.1972 52.4395 39.0648C52.5223 38.9158 52.3898 38.8165 52.274 38.7503C51.7774 38.3861 51.2477 38.1378 50.6352 38.0219C50.3704 37.9723 50.1717 37.8233 50.0228 37.575C49.7745 37.1115 49.5924 36.6149 49.3938 36.1349C48.8972 34.8769 48.2351 33.7016 47.5067 32.5595C47.3081 32.245 47.1426 31.9139 47.0764 31.5332C46.9274 30.689 46.795 29.8448 46.5632 29.0337C46.3315 28.2061 46.1991 27.3453 45.9011 26.5342C45.6694 25.9052 45.2721 25.4749 44.6265 25.3259C44.2789 25.2431 43.9313 25.1604 43.5837 25.0776C43.0706 24.9452 42.5574 24.8293 42.094 24.5479C41.8953 24.432 41.6801 24.3162 41.6139 24.0844C41.3822 23.3064 41.6801 22.6278 42.0608 21.9822C42.2926 21.6015 42.425 21.1877 42.1767 20.9559C42.0112 20.7904 41.9781 20.6249 41.9946 20.4262C42.0277 19.88 41.8457 19.4 41.6139 18.9034C41.1504 17.8936 39.9586 17.8109 39.1641 18.1254C38.3199 18.4564 38.1544 19.2675 37.9557 20.0455C37.873 20.3435 38.0054 20.6911 37.7902 20.9559C37.575 21.2042 37.5585 21.4525 37.7074 21.7008C38.0716 22.3298 38.4192 22.9423 38.3696 23.7203C38.353 24.101 38.204 24.3493 37.873 24.4817C37.2936 24.73 36.7143 24.9617 36.1018 25.0776C34.9597 25.2762 34.1982 25.8721 33.8837 27.0474C33.5692 28.2888 33.2051 29.5303 32.9899 30.8049C32.8575 31.6491 32.6257 32.4271 32.1126 33.1388C31.7815 33.6023 31.5332 34.1155 31.2684 34.612C30.8049 35.4893 30.4407 36.4329 30.06 37.3598C29.9276 37.6909 29.6959 37.9392 29.3482 38.0054C28.7192 38.1212 28.1895 38.4192 27.693 38.7668C27.5605 38.8496 27.4116 38.9323 27.4943 39.131C27.5936 39.3131 27.7592 39.3131 27.9247 39.2634C28.0737 39.2137 28.1895 39.1144 28.3385 39.0648C28.5206 38.982 28.5868 39.0648 28.5372 39.2468C28.4378 39.5613 28.2723 39.8262 28.024 40.0414C27.7426 40.3062 27.4943 40.6042 27.2626 40.9187C27.1964 41.018 27.0639 41.1504 27.1798 41.2663C27.3122 41.3987 27.4447 41.2663 27.544 41.1835C27.7426 41.018 27.9081 40.8359 28.0902 40.6538C28.173 40.5711 28.2723 40.4055 28.4213 40.5214C28.5372 40.6042 28.4213 40.7366 28.3882 40.8525C28.2061 41.2166 28.024 41.5808 27.8419 41.945C27.7757 42.0608 27.7923 42.1602 27.9081 42.2264C28.024 42.3091 28.0737 42.1933 28.1068 42.127C28.3054 41.8622 28.504 41.5642 28.6861 41.2994C28.7523 41.2166 28.7689 41.0511 28.9013 41.1173C29.0337 41.1835 28.9344 41.316 28.9013 41.3987C28.8848 41.4649 28.8351 41.5311 28.8186 41.6139C28.7358 41.8456 28.653 42.0608 28.6365 42.3091C28.6365 42.3919 28.6365 42.4747 28.7192 42.5078C28.802 42.5409 28.8682 42.4581 28.9013 42.3919C29.0006 42.1933 29.0834 41.9615 29.1827 41.7629C29.282 41.5642 29.282 41.316 29.5469 41.167C29.6462 41.3987 29.5138 41.5477 29.4641 41.7298C29.431 41.8622 29.4972 41.9615 29.5965 41.9946C29.7124 42.0277 29.7786 41.945 29.8117 41.8456C29.8448 41.7298 29.8779 41.6139 29.8945 41.498C30.0931 40.7035 30.4904 39.9917 30.7552 39.2137C30.9539 38.6344 31.2684 38.1213 31.6491 37.6412C32.4105 36.6812 33.2216 35.7707 33.801 34.6783C34.4134 33.5361 35.0093 32.3774 35.5059 31.1856C35.539 31.1028 35.539 30.9208 35.688 30.9539C35.8039 30.987 35.7873 31.1194 35.8039 31.2353C35.8701 31.8643 36.019 32.4767 36.0853 33.1057C36.1515 33.7016 36.1184 34.281 36.0356 34.8603C35.9363 35.5059 35.688 36.1184 35.539 36.7639C35.3238 37.7571 35.1252 38.7668 34.8107 39.7434C34.5458 40.5545 34.4134 41.3987 34.3638 42.2429C34.3141 43.0209 34.3141 43.7989 34.3969 44.5769C34.4962 45.5369 34.6617 46.497 34.8935 47.4405C35.0921 48.2185 35.208 48.9965 35.1252 49.7745C35.059 50.3538 35.0259 50.9332 34.9762 51.496C34.8438 52.8864 34.8769 54.2934 35.0259 55.6838C35.1417 56.8094 35.3404 57.935 35.2907 59.0772C35.2576 59.8717 34.9762 60.5835 34.6452 61.2787C34.5293 61.527 34.5789 61.6263 34.761 61.7256C34.91 61.8084 35.0921 61.8581 35.2576 61.8746C35.5059 61.8912 35.7542 61.9243 36.0025 62.007C36.4494 62.156 36.8136 61.825 36.797 61.3615C36.797 61.2456 36.7639 61.1297 36.7308 60.9973C36.7143 60.898 36.6977 60.7987 36.8136 60.7325C37.2771 60.4511 37.3267 60.0372 37.2109 59.5572C37.1777 59.4248 37.2109 59.2924 37.1777 59.1599C37.095 58.862 37.3102 58.564 37.1612 58.2992C37.0453 58.1006 37.0453 57.8854 37.0784 57.6867C37.1943 56.9087 37.3102 56.1308 37.4757 55.3528C37.6909 54.3099 37.9226 53.2671 37.873 52.1912C37.873 51.8601 37.9557 51.5456 38.0385 51.2146C38.2371 50.4862 38.4523 49.7579 38.4854 48.9799C38.4854 48.5992 38.4854 48.2185 38.5847 47.8378C38.9324 46.4308 39.3958 45.0569 39.5945 43.6168C39.6441 43.2692 39.5945 42.905 39.76 42.574C39.7931 42.4912 39.7931 42.3919 39.909 42.3753C40.0414 42.3753 40.0414 42.4912 40.0745 42.574C40.1076 42.6402 40.1076 42.7064 40.1076 42.7726C40.1076 43.8651 40.389 44.9079 40.538 45.9839C40.687 46.9605 40.8359 47.9536 40.9684 48.9303C41.0677 49.6089 41.2166 50.2876 41.3822 50.9497C41.5312 51.5125 41.6801 52.0588 41.6139 52.6381C41.5643 53.1016 41.6636 53.5485 41.7132 54.012C41.8291 54.939 42.1933 55.7997 42.2264 56.7432C42.2595 57.6702 42.3919 58.5971 42.3422 59.5407C42.3422 59.8552 42.3753 60.1697 42.5574 60.418C42.723 60.6497 42.7561 60.8483 42.6733 61.1132C42.574 61.4773 42.9381 61.9739 43.3023 62.007C43.7161 62.0401 44.1134 61.9739 44.4941 61.8581C44.7755 61.7753 44.8583 61.4773 44.7093 61.2291C44.3617 60.6331 44.1962 59.9876 44.1631 59.3089C44.1631 59.1268 44.2293 58.9448 44.2127 58.7461C44.1465 57.8523 44.1962 56.9584 44.312 56.0811C44.4941 54.7734 44.5107 53.4658 44.5438 52.1581C44.5603 51.4629 44.3617 50.7842 44.3286 50.089C44.2624 48.7813 44.4114 47.5067 44.7093 46.2487C44.9079 45.4045 45.0238 44.5272 45.1728 43.6665C45.3383 42.7892 45.2555 41.9284 45.1728 41.0511C45.1066 40.389 44.9741 39.76 44.8252 39.131C44.6596 38.4689 44.4941 37.8067 44.3617 37.1281C44.1962 36.2673 43.8651 35.4562 43.7327 34.5789C43.5506 33.4037 43.8154 32.245 43.9975 31.0863C43.9975 31.0035 44.0472 30.8711 44.1796 30.8711C44.2789 30.8711 44.312 30.987 44.3451 31.0532C44.61 31.7318 44.9079 32.4105 45.239 33.0561C45.8018 34.1651 46.3646 35.2742 47.1426 36.2673C47.8543 37.1777 48.6985 38.0054 49.0958 39.1475C49.3607 39.9255 49.8241 40.6373 49.8903 41.4815C49.8903 41.6801 49.94 41.9946 50.1883 41.945C50.3704 41.9119 50.2876 41.6139 50.238 41.4318C50.2214 41.3491 50.1717 41.2497 50.2711 41.2001C50.42 41.1504 50.42 41.2994 50.4531 41.3656C50.5856 41.6636 50.7014 41.9781 50.8173 42.276C50.867 42.3919 50.9001 42.5574 51.0822 42.4912C51.2477 42.425 51.198 42.276 51.1484 42.1436C51.049 41.8456 50.9994 41.5311 50.867 41.2332C50.8504 41.1835 50.8173 41.0677 50.9001 41.0346C50.9828 41.0014 51.0325 41.0842 51.0822 41.1504C51.2477 41.4153 51.4132 41.6967 51.5953 41.945C51.6781 42.0608 51.7443 42.2926 51.9098 42.1933C52.0422 42.127 51.976 41.9119 51.9429 41.7629C51.9429 41.7132 51.9098 41.6636 51.8767 41.6139C51.7112 41.3325 51.5456 41.0511 51.3967 40.7697C51.347 40.6869 51.2477 40.5876 51.3801 40.4718C51.496 40.389 51.5953 40.4718 51.6781 40.5214C51.8436 40.6704 51.9926 40.8359 52.1415 40.9849C52.2243 41.0677 52.3071 41.1339 52.3898 41.2001C52.4726 41.2663 52.5554 41.316 52.6547 41.2332C52.7374 41.1504 52.7209 41.0511 52.6878 40.9518L52.7705 41.0014ZM42.6733 30.4573C42.6733 30.4573 42.6236 30.4573 42.6236 30.4904C42.3257 30.8545 41.945 30.7221 41.5643 30.6725C41.4815 30.6725 41.3822 30.6394 41.2994 30.6228C41.2167 30.6062 41.2001 30.6228 41.1835 30.7056C41.1008 31.5663 40.9684 32.4271 40.8525 33.2878C40.9684 33.3209 41.0842 33.354 41.1835 33.4202C41.2829 33.4699 41.3491 33.4202 41.4153 33.3706C41.498 33.3209 41.498 33.2382 41.4649 33.1885C41.4153 33.0892 41.4649 33.0395 41.5312 32.9899C41.5808 32.9402 41.6636 32.9402 41.7298 32.9899C41.8788 33.0561 41.9781 33.1885 42.0774 33.3044C42.1105 33.2051 42.0774 33.1223 42.0443 33.0561C41.9781 32.9236 41.9615 32.8078 42.0112 32.6754C42.0608 32.5264 41.945 32.394 41.9119 32.245C41.8622 32.0795 41.9119 31.9139 41.8953 31.7484C41.8953 31.6987 41.9284 31.6656 41.9615 31.6656C42.0112 31.6656 42.0443 31.6987 42.0443 31.7484C42.0443 31.8808 42.0443 32.0132 42.0443 32.1622C42.0443 32.2284 42.0443 32.2946 42.094 32.3443C42.1436 32.3443 42.1933 32.3277 42.2264 32.3443C42.2595 32.3774 42.2264 32.394 42.1933 32.4105C42.1933 32.4105 42.1933 32.4271 42.1933 32.4436C42.2595 32.4436 42.2595 32.4933 42.276 32.5429C42.3091 32.576 42.3753 32.5595 42.3919 32.6257C42.3422 32.6919 42.2595 32.6919 42.1602 32.6919C42.2595 32.7747 42.3422 32.8409 42.3422 32.9733C42.3422 33.023 42.4085 33.0561 42.4581 32.9733C42.5078 32.9071 42.5574 32.8409 42.6236 32.8243C42.6567 32.8409 42.6402 32.8574 42.6236 32.874C42.574 32.9237 42.4581 32.9733 42.4912 33.0395C42.5243 33.1223 42.6567 33.1057 42.723 33.1223C42.8388 33.1388 42.7561 33.0064 42.8554 32.9402C42.8554 33.1223 42.8719 33.3044 42.9713 33.4699C42.7561 33.3871 42.5574 33.3044 42.3588 33.2713C42.1933 33.5858 41.8953 33.7016 41.5974 33.8175C41.4318 33.8837 41.4484 33.8672 41.5146 34.0327C41.6139 34.281 41.7463 34.5127 41.8622 34.761C41.8953 34.761 41.9284 34.7114 41.9781 34.7279C42.0277 34.761 42.0443 34.8107 42.0277 34.8769C42.0443 35.2079 42.0277 35.5224 41.9781 35.8535C41.9615 36.1018 41.9781 36.3501 41.9781 36.5984C41.9781 36.9294 42.1105 37.2439 42.1436 37.5585C42.1436 37.6743 42.1767 37.7736 42.1436 37.8895C42.1271 37.9557 42.0774 37.9392 42.0277 37.9557C42.0277 37.9226 42.0277 37.8895 42.0277 37.8399C42.1271 37.7074 42.0608 37.5585 42.0277 37.4426C41.8291 36.7639 41.9284 36.0852 41.9119 35.4066C41.9119 35.3735 41.9119 35.3569 41.9284 35.3404C41.9284 35.2245 41.9284 35.0921 41.9284 34.9762C41.9119 34.9762 41.8788 34.9431 41.8622 34.9431C41.7629 34.9762 41.7463 35.0755 41.6967 35.1417C41.5312 35.4066 41.3656 35.688 41.167 35.9528C41.0677 36.0852 41.0842 36.2839 41.0511 36.4494C41.018 36.6646 40.9849 36.8798 40.9352 37.095C40.9021 37.2274 40.9187 37.3433 41.0511 37.4095C41.1339 37.4591 41.2166 37.5088 41.2829 37.575C41.3987 37.6743 41.5312 37.6909 41.6801 37.6743C41.7794 37.6743 41.8126 37.7405 41.7794 37.7902C41.6967 37.9226 41.8291 37.9061 41.8788 37.9392C41.8788 37.9392 41.9284 37.9392 41.945 37.9888C41.8622 38.0385 41.796 37.9888 41.7463 37.9392C41.5974 37.8067 41.3987 37.7736 41.2498 37.6578C41.2166 37.6412 41.1835 37.6247 41.1504 37.6743C41.1835 37.6909 41.2166 37.724 41.2166 37.7736C41.3325 37.9888 41.4318 38.1875 41.4649 38.4358C41.5146 38.4523 41.5312 38.5185 41.5146 38.5516C41.4815 38.7668 41.5643 38.9489 41.647 39.131C41.6967 39.2634 41.7463 39.3958 41.7298 39.5282C41.7132 39.7434 41.8457 39.9255 41.8126 40.1241C41.8126 40.4552 41.8126 40.7863 41.6305 41.0842C41.5312 41.2166 41.4318 41.1339 41.3325 41.0842C41.1008 40.9352 40.8359 40.9021 40.5711 40.869C40.4221 40.8525 40.4056 40.9849 40.3228 41.0511C40.2566 40.9849 40.3228 40.9352 40.3228 40.8856C40.3228 40.8028 40.3559 40.72 40.3062 40.6373C40.3062 40.6207 40.3062 40.5876 40.3062 40.5711H40.3559C40.4221 40.8028 40.6373 40.7201 40.7863 40.7532C40.9352 40.7697 41.0511 40.8194 41.1835 40.8856C41.2166 40.8856 41.2498 40.9187 41.2829 40.9352C41.5146 41.0511 41.5643 41.018 41.6305 40.7697C41.6801 40.5711 41.6801 40.3559 41.6967 40.1407C41.6967 39.9752 41.6967 39.8262 41.647 39.6607C41.5808 39.3958 41.5808 39.3958 41.316 39.462C41.1173 39.5945 41.1173 39.5945 41.2663 39.8427C41.3491 39.9752 41.3987 40.091 41.2663 40.2235C41.2166 40.2731 41.167 40.3228 41.1173 40.3724C41.0015 40.5711 40.8028 40.538 40.6373 40.5214C40.4718 40.5049 40.3062 40.4387 40.1573 40.3559C40.1242 40.3393 40.0745 40.3228 40.1076 40.2731C40.1242 40.2235 40.1738 40.2566 40.2069 40.2731C40.4056 40.3559 40.6042 40.4387 40.8194 40.4387C40.9187 40.4387 41.0015 40.4221 41.0677 40.3393C41.2222 40.1186 41.2222 39.8924 41.0677 39.6607C41.0677 39.6607 41.0015 39.5945 40.9518 39.5945C40.7366 39.5945 40.6042 39.4455 40.4552 39.3131C40.4387 39.2965 40.4056 39.2634 40.4221 39.2303C40.4387 39.1972 40.4718 39.2303 40.5049 39.2303C40.5545 39.2634 40.6042 39.28 40.6373 39.2965C40.8856 39.4951 41.0842 39.5282 41.3325 39.2634C41.4318 39.131 41.4153 39.0151 41.3656 38.8661C41.2994 38.684 41.2001 38.5351 41.167 38.353C41.167 38.2868 41.1173 38.2206 41.018 38.1875C40.9353 38.1544 40.8856 38.055 40.8856 37.9392C40.8856 37.7902 40.8525 37.6578 40.6704 37.6247C40.6373 37.6909 40.6042 37.7405 40.5711 37.8067C40.5711 37.8399 40.5711 37.873 40.5711 37.9061C40.5711 37.9061 40.5876 37.9061 40.6042 37.9061C40.7201 38.1544 40.7863 38.4192 40.8194 38.7006C40.7201 38.5516 40.7035 38.353 40.5711 38.1875C40.538 38.3695 40.6539 38.5351 40.5876 38.7337C40.4552 38.5847 40.5545 38.4027 40.4718 38.2702C40.4387 38.2537 40.4056 38.2206 40.3725 38.2702C40.3725 38.2702 40.3393 38.3033 40.3228 38.3033C40.2566 38.353 40.1738 38.4026 40.1573 38.4523C40.1573 38.502 40.2235 38.5682 40.2566 38.6344C40.1738 38.6013 40.1407 38.5185 40.0745 38.4523C40.0414 38.4523 40.0083 38.4854 39.9752 38.4854C39.9421 38.6344 40.0083 38.7668 40.0248 38.9158C40.0579 39.131 39.9917 39.3131 39.9752 39.5282C39.9752 39.1972 40.0414 38.8827 39.9255 38.5682C39.8593 38.6178 39.8262 38.7172 39.7269 38.6675C39.6276 38.6344 39.5945 38.5847 39.7269 38.5185C39.7765 38.4192 39.8593 38.353 39.9255 38.2868C39.9752 38.0385 39.9255 37.7736 39.8924 37.5253C39.8924 37.4095 39.8593 37.3102 39.8593 37.1943C39.8593 37.1115 39.8262 37.0453 39.7765 36.9791C39.6772 36.8467 39.6276 36.8467 39.5117 36.9791C39.462 37.0288 39.4124 37.0619 39.3793 37.1115C39.3793 37.1115 39.3793 37.1115 39.3793 37.1281C39.3627 37.2439 39.2965 37.3433 39.2469 37.4591C39.1972 37.5916 39.1475 37.7074 39.1144 37.8399C39.1144 37.873 39.1144 37.9061 39.0979 37.9226C38.9489 38.055 38.8827 38.2371 38.7834 38.4027C38.7834 38.4523 38.7503 38.502 38.7503 38.5516C38.6675 38.7999 38.6675 39.0482 38.7503 39.3131C38.7834 39.3958 38.8165 39.462 38.8992 39.5117C39.1144 39.5448 39.2469 39.4124 39.3793 39.2965C39.4124 39.2634 39.4455 39.2137 39.4952 39.2634C39.5283 39.2965 39.4951 39.3462 39.462 39.3793C39.3462 39.5282 39.1972 39.6441 38.9986 39.6441C38.8661 39.7269 38.7999 39.611 38.7172 39.5448C38.6675 39.4951 38.6344 39.4124 38.5351 39.462C38.4854 39.5613 38.4854 39.6938 38.4027 39.7931C38.4027 39.8096 38.3861 39.8262 38.353 39.8262C38.3861 39.8427 38.353 39.8759 38.353 39.8924C38.353 39.909 38.353 39.9255 38.3364 39.9255C38.3364 39.9421 38.3364 39.9586 38.3364 39.9752C38.3364 39.9917 38.3364 40.0248 38.3364 40.0414C38.3696 40.091 38.4027 40.1573 38.4192 40.2069C38.5847 40.5049 38.7006 40.5545 39.0151 40.4552C39.0482 40.4552 39.0813 40.4387 39.1144 40.4221C39.1641 40.389 39.2303 40.3393 39.28 40.3062C39.3131 40.2897 39.3296 40.2566 39.3627 40.3062C39.3958 40.3393 39.3793 40.3724 39.3627 40.389C39.2965 40.4221 39.2469 40.5049 39.1641 40.5049C38.833 40.6538 38.651 40.7035 38.3364 40.3228L38.3033 40.3724C38.3033 40.538 38.353 40.7035 38.4027 40.869C38.4523 41.018 38.5351 41.0346 38.6675 40.9683C38.7668 40.9187 38.8827 40.8525 38.982 40.7863C39.0979 40.72 39.2138 40.6869 39.3296 40.7035C39.4455 40.6704 39.5614 40.7697 39.6938 40.6869C39.611 40.8359 39.7765 40.9352 39.76 41.0842C39.5614 40.8028 39.4951 40.7697 39.131 40.8525C39.0648 40.8525 39.0482 40.9021 38.9986 40.9352C38.9986 40.9683 38.9655 40.9849 38.9324 40.9849C38.9324 40.9849 38.9324 40.9849 38.9158 40.9849C38.8827 41.0346 38.833 41.0511 38.7834 41.0677C38.3696 41.2828 38.4192 41.1504 38.3033 40.8194C38.2537 40.7035 38.2537 40.5711 38.2371 40.4387C38.1875 40.3393 38.1875 40.2566 38.2371 40.1573C38.204 40.0248 38.1213 39.909 38.2371 39.7765C38.2868 39.6441 38.4358 39.5613 38.4689 39.4289C38.5516 39.1144 38.5185 38.7668 38.6178 38.4523C38.6344 38.2868 38.7172 38.1378 38.7999 37.9888C38.833 37.9392 38.8992 37.873 38.7999 37.8067C38.7999 37.8067 38.7999 37.7571 38.7999 37.7405C38.9655 37.2439 39.1806 36.7805 39.3958 36.3004C39.4289 36.2342 39.4455 36.1349 39.4455 36.0356C39.2634 36.168 39.2303 36.3832 39.0813 36.4991C39.0317 36.5653 38.9986 36.648 38.9324 36.6977C38.833 36.8301 38.7172 36.9294 38.5516 36.9791C38.5185 36.9791 38.4854 37.0453 38.4358 36.9791C38.4027 36.9129 38.4689 36.9129 38.502 36.8963C38.5185 36.8798 38.5516 36.8632 38.5847 36.8467C38.5185 36.8301 38.4689 36.797 38.4854 36.7308C38.4854 36.6812 38.5516 36.6812 38.6013 36.6812C38.7337 36.6812 38.8165 36.6149 38.8827 36.5156C38.9986 36.3501 39.0482 36.1515 39.1641 35.9859C39.1641 35.8866 39.2965 35.8535 39.2965 35.7376C39.0979 35.6218 39.0979 35.4066 39.0648 35.2245C39.0648 35.1583 39.0317 35.0921 39.0317 35.0259C39.0151 34.9431 38.982 34.8272 38.8992 34.8107C38.7834 34.8107 38.6675 34.8603 38.5847 34.9762C38.353 35.3238 38.2702 35.7045 38.1709 36.0852C38.1213 36.3004 38.204 36.4825 38.2702 36.6812C38.2868 36.7474 38.3199 36.8136 38.2868 36.8963C38.1709 36.8301 38.204 36.6977 38.1544 36.6149C37.9392 36.1846 38.1213 35.8038 38.2702 35.4066C38.2702 35.3569 38.3033 35.3238 38.3199 35.2742C38.3861 35.1583 38.4192 35.059 38.204 35.0259C38.353 34.9762 38.4689 34.9265 38.502 34.7941C38.502 34.761 38.502 34.7445 38.5185 34.7114C38.5185 34.7114 38.5351 34.6783 38.5185 34.6617C38.5185 34.6617 38.502 34.6617 38.4854 34.6783C38.4358 34.6948 38.4027 34.7776 38.3199 34.7445C38.3861 34.6783 38.4523 34.5955 38.5185 34.5293C38.5185 34.4962 38.6178 34.43 38.4854 34.4134C38.4689 34.4134 38.4523 34.3969 38.4689 34.3638C38.4689 34.3638 38.502 34.3472 38.5185 34.3472C38.6178 34.3472 38.7172 34.3472 38.7999 34.3472C38.8496 34.3472 38.8992 34.3472 38.8661 34.281C38.8661 34.281 38.8661 34.281 38.8661 34.2644C38.8496 34.2313 38.8165 34.2148 38.7999 34.1817C38.7006 34.0327 38.7503 33.8506 38.8992 33.7678C39.1972 33.6023 39.28 33.3044 39.28 32.9899C39.2303 32.9568 39.2303 32.9071 39.28 32.874C39.28 32.8409 39.28 32.7912 39.28 32.7581C39.28 32.6588 39.2469 32.6091 39.1806 32.5429C39.1641 32.5429 39.1475 32.5595 39.1144 32.576C39.0151 32.7581 38.9324 32.9568 38.8661 33.1554C38.7834 33.4202 38.6013 33.6023 38.3199 33.7016C38.2702 33.7182 38.2371 33.7678 38.1875 33.7844C38.1709 33.8175 38.1378 33.8341 38.1047 33.8341C38.0054 33.8837 37.9061 33.9499 37.8233 33.9996C37.8233 33.9996 37.8233 33.983 37.8068 33.9665C37.9061 33.8672 38.0054 33.7844 38.1378 33.7347C38.2868 33.652 38.4358 33.5527 38.5682 33.4368C38.8165 33.2216 38.8827 32.9236 38.9489 32.6257C38.982 32.4602 38.8827 32.3443 38.7503 32.4271C38.5847 32.5264 38.5516 32.4271 38.502 32.3277C38.502 32.3112 38.4854 32.2781 38.4689 32.2615C38.4523 32.2119 38.4358 32.1788 38.4027 32.1291C38.4523 32.096 38.4854 32.1126 38.5351 32.1291C38.5682 32.1457 38.6013 32.1788 38.651 32.1622C38.833 32.0795 38.9986 32.1788 39.1806 32.1953C39.2469 32.1953 39.2634 32.1622 39.2965 32.096C39.3462 31.9305 39.2965 31.7649 39.3462 31.5994C39.3627 31.5332 39.3627 31.4504 39.3793 31.3842C39.3462 31.318 39.3131 31.3842 39.28 31.3842C39.1972 31.467 39.131 31.5663 39.0151 31.6325C39.0151 31.6325 39.0151 31.6491 39.0151 31.6656C39.0151 31.6656 39.0151 31.6656 39.0151 31.6822C39.0151 31.6822 39.0151 31.6822 38.9986 31.6822C38.9986 31.6822 38.9986 31.6822 38.9986 31.6656C38.9986 31.6656 38.9986 31.6656 38.982 31.6656C38.9489 31.6987 38.9158 31.6987 38.8827 31.6656C38.8496 31.616 38.8827 31.5994 38.9158 31.5829C39.0482 31.3677 39.2634 31.2518 39.4124 31.0532C39.462 31.0035 39.4951 30.9539 39.5283 30.8876C39.5779 30.7387 39.462 30.7056 39.3793 30.6559C39.2634 30.6559 39.131 30.6394 39.0151 30.6228H38.502C38.3033 30.6228 38.1709 30.7552 38.0219 30.8711C37.9888 30.9042 37.9723 30.9208 37.9392 30.9539C37.9061 30.987 37.873 31.0035 37.8399 30.9704C37.8068 30.9373 37.8068 30.9042 37.8399 30.8711C38.1709 30.5566 38.5351 30.4076 39.0151 30.4904C39.1972 30.5235 39.3793 30.4904 39.5614 30.4904C39.5448 30.4573 39.5117 30.4076 39.5283 30.358C39.5945 30.1924 39.4786 30.0766 39.3958 29.9607C39.2469 29.7455 39.1475 29.5303 39.2303 29.2655C39.2469 29.1827 39.1641 29.1827 39.1641 29.133C39.1144 29.0006 39.1475 28.9013 39.2634 28.8185C39.28 28.7523 39.2303 28.6861 39.1806 28.7027C39.0482 28.7358 38.9986 28.653 38.9324 28.5868C38.833 28.5868 38.7999 28.5371 38.8496 28.4544C38.8992 28.3551 38.982 28.2723 38.8992 28.1564C38.8992 28.1564 38.8992 28.1068 38.9158 28.0902C38.8661 28.0406 38.8827 27.9909 38.9158 27.9578C39.0482 27.8254 39.0317 27.6598 39.0151 27.5109C38.982 27.2295 39.0317 26.9646 38.9986 26.6832C38.9986 26.617 39.0482 26.6005 39.0813 26.5839C39.2303 26.4515 39.3793 26.4515 39.4455 26.5839C39.5448 26.6501 39.6441 26.7163 39.6441 26.8487C39.6441 26.9481 39.6441 27.0474 39.4952 27.0308C39.3462 27.0308 39.3793 27.1301 39.4289 27.1964C39.5117 27.3122 39.5448 27.4447 39.5283 27.5771C39.5945 27.4943 39.5614 27.3784 39.6276 27.2957C39.6276 27.2295 39.6607 27.1798 39.6772 27.1136C39.6772 27.097 39.6772 27.0805 39.6938 27.0805C39.7434 26.9315 39.8593 26.8156 39.8262 26.6501C39.6607 26.4018 39.4951 26.1535 39.2469 25.9714C39.2137 25.9383 39.1806 25.9052 39.1972 25.8556C39.28 25.6073 39.1475 25.3755 39.1144 25.1273C39.1144 25.0279 39.1144 24.9452 39.0813 24.8459C39.0482 24.7631 39.1475 24.7631 39.1972 24.7465C39.2634 24.7134 39.28 24.7796 39.28 24.8293C39.28 25.061 39.3793 25.2762 39.3958 25.508C39.3958 25.6238 39.4786 25.7066 39.4786 25.8059C39.611 26.0708 39.8428 26.2694 40.0083 26.5177C40.0414 26.5674 40.1076 26.5839 40.1738 26.5673C40.2731 26.2197 40.2731 25.839 40.3725 25.4914C40.4387 25.3093 40.389 25.1107 40.389 24.9121C40.389 24.8624 40.3393 24.7796 40.4387 24.7631C40.538 24.7631 40.5214 24.8459 40.5214 24.8955C40.5214 25.0114 40.5214 25.1438 40.5214 25.2597C40.7697 25.3424 40.7697 25.3424 40.7532 25.6404C40.7035 25.839 40.687 26.0377 40.687 26.2528C40.687 26.286 40.687 26.3356 40.687 26.3687C40.7697 26.6005 40.9352 26.8156 40.9684 27.0639C40.9684 27.1467 40.9353 27.246 41.0015 27.3288C41.1173 27.3619 41.2332 27.395 41.3491 27.4281C41.3987 27.4447 41.4318 27.4778 41.4484 27.544C41.4649 27.5936 41.4649 27.6598 41.4484 27.7261C41.4153 27.8585 41.316 27.9743 41.3822 28.1233C41.5643 28.1233 41.6967 28.2723 41.8622 28.2888C41.8788 28.2888 41.8953 28.2888 41.9119 28.2888C42.1602 28.322 42.3422 28.4378 42.4747 28.653C42.574 28.7854 42.723 28.8682 42.8223 29.0172C43.2195 29.431 43.1037 30.1593 42.574 30.4076L42.6733 30.4573Z" fill="white"/>
<path d="M40.7863 33.7182C40.9353 33.8175 41.0842 33.8672 41.2498 33.7678C41.2829 33.7513 41.3325 33.7347 41.3656 33.7182C41.5643 33.652 41.7629 33.5692 41.945 33.4368C41.9781 33.4037 42.0608 33.3706 42.0112 33.3209C41.8953 33.2216 41.8291 33.0892 41.6801 33.023C41.6305 33.0064 41.5808 32.9899 41.5312 33.023C41.4815 33.0561 41.4981 33.1223 41.5312 33.1554C41.5808 33.2713 41.5312 33.354 41.4318 33.4037C41.3987 33.4202 41.3656 33.4037 41.3656 33.4699C41.4153 33.4864 41.4153 33.5195 41.3822 33.5692C41.3491 33.6023 41.3325 33.6189 41.2994 33.5692C41.2498 33.4864 41.167 33.4533 41.0677 33.4202C40.9849 33.3871 40.9021 33.3706 40.8194 33.354C40.8194 33.4864 40.7697 33.6023 40.7863 33.7347V33.7182Z" fill="white"/>
<path d="M40.7035 36.4163C40.7035 36.4163 40.7366 36.2177 40.6538 36.2011C40.5711 36.2011 40.5876 36.3335 40.5876 36.3997C40.5711 36.5487 40.5048 36.6315 40.3559 36.6315C40.3062 36.6315 40.2566 36.648 40.2234 36.6977C40.389 36.8301 40.5545 36.9625 40.7035 37.1115C40.7035 37.1115 40.7035 37.1115 40.72 37.1115C40.72 37.0784 40.72 37.0288 40.72 36.9956C40.6869 36.797 40.72 36.6149 40.72 36.4163H40.7035Z" fill="white"/>
<path d="M40.3062 38.1709C40.3062 38.1709 40.2235 38.2206 40.1904 38.2702C40.24 38.2868 40.2731 38.2702 40.2897 38.2371C40.2897 38.2206 40.3228 38.1875 40.3062 38.1709C40.3062 38.1709 40.3062 38.1709 40.2897 38.1709H40.3062Z" fill="white"/>
<path d="M40.091 36.1846C40.091 36.1846 40.091 36.0521 39.9917 36.0521C39.909 36.1184 39.9421 36.317 40.0414 36.3832C40.0414 36.317 40.0414 36.2508 40.0745 36.1846H40.091Z" fill="white"/>
<path d="M39.9586 35.9032C39.9586 35.9032 40.1242 35.9859 40.1407 35.8701C40.1904 35.6714 40.24 35.4728 40.24 35.2576C40.24 35.2245 40.24 35.2079 40.2566 35.1914C40.2731 35.0755 40.2566 34.9762 40.2566 34.8603C40.1904 34.7941 40.2235 34.7114 40.2235 34.6451C40.2235 34.612 40.2235 34.5624 40.2235 34.5293C40.1573 34.43 40.2235 34.3306 40.1904 34.2313C40.1904 34.1817 40.1904 34.132 40.1242 34.1982C40.091 34.281 40.0579 34.3803 40.0414 34.4631C40.0579 34.5293 40.0083 34.5789 40.0083 34.6451C39.9752 34.8272 39.9421 35.0093 39.909 35.1914C39.9752 35.4231 39.9421 35.6549 39.9586 35.8866V35.9032Z" fill="white"/>
<path d="M40.3062 38.1709C40.3393 38.1544 40.3559 38.1378 40.3724 38.0881C40.4055 38.0881 40.4055 38.055 40.3724 38.0219L40.3393 38.055C40.3228 38.0881 40.2897 38.1047 40.2897 38.1543L40.3062 38.1709Z" fill="white"/>
<path d="M40.0745 37.1943C40.0745 37.1943 40.0248 37.3267 40.0414 37.3929C40.1076 37.6743 40.091 37.9723 40.091 38.2537C40.3228 38.0385 40.4883 37.7736 40.6538 37.5088C40.5049 37.4591 40.4221 37.3267 40.2897 37.2605C40.2235 37.2274 40.1572 37.1446 40.0745 37.1943Z" fill="white"/>
</g>
<defs>
<clipPath id="clip0_1409_366">
<rect width="80" height="80" fill="white"/>
</clipPath>
</defs>
</svg>
