<svg width="40" height="40" viewBox="0 0 40 40" fill="none" xmlns="http://www.w3.org/2000/svg">
<g clip-path="url(#clip0_1409_393)">
<g clip-path="url(#clip1_1409_393)">
<path d="M20 40C31.0457 40 40 31.0457 40 20C40 8.95431 31.0457 0 20 0C8.95431 0 0 8.95431 0 20C0 31.0457 8.95431 40 20 40Z" fill="#201E3D"/>
<path d="M24.1409 11.7829C25.4895 11.7905 26.5714 12.9143 26.5524 14.2857C26.5333 15.6038 25.4133 16.7124 24.099 16.7124C22.7733 16.7124 21.6419 15.5543 21.6571 14.2171C21.6724 12.8533 22.7771 11.7714 24.1448 11.7829H24.1409Z" fill="white"/>
<path d="M14.3771 17.1314C15.7447 17.1238 16.8381 18.2057 16.8419 19.5733C16.8457 20.9067 15.7714 22.0114 14.4381 22.0457C13.1085 22.08 11.9581 20.9562 11.9466 19.6076C11.9352 18.2324 13.0095 17.1391 14.3733 17.1314H14.3771Z" fill="white"/>
<path d="M23.8095 23.3029C25.1924 23.3029 26.24 24.3657 26.24 25.7676C26.24 27.0971 25.1391 28.2133 23.8248 28.221C22.4914 28.2286 21.3524 27.0895 21.3562 25.7524C21.36 24.3771 22.4343 23.3067 23.8134 23.3029H23.8095Z" fill="white"/>
<path d="M27.0895 16.7124C28.4762 18.5143 28.3428 21.68 26.8076 23.421C26.6286 22.96 26.4038 22.5448 26.0381 22.2248C25.9352 22.1333 26.0114 22.0457 26.0571 21.9619C26.7352 20.6857 26.7809 19.3867 26.1905 18.0724C26.1257 17.9276 26.1105 17.84 26.259 17.7333C26.6247 17.4819 26.8762 17.1314 27.0895 16.7162V16.7124Z" fill="white"/>
<path d="M14.0571 22.9752C14.6171 23.0248 15.1352 23.0057 15.6228 22.7924C15.8057 22.7124 15.8476 22.8114 15.9162 22.9295C16.7238 24.2705 17.8971 25.0743 19.4324 25.3676C19.5543 25.3905 19.7257 25.3752 19.7409 25.5962C19.7752 26.1524 19.9886 26.6552 20.2971 27.1314C18.2209 27.3448 15.1086 25.8248 14.0571 22.9752Z" fill="white"/>
<path d="M20.6096 12.7048C20.3162 13.1657 20.0877 13.6 20.0572 14.1105C20.0457 14.2781 19.9353 14.2819 19.8057 14.2895C18.4343 14.3886 17.3296 14.9943 16.4724 16.0571C16.3467 16.2133 16.2591 16.2476 16.0838 16.141C15.6838 15.9048 15.2343 15.8476 14.7657 15.8476C15.5962 14.0419 18.0267 12.4686 20.6134 12.701L20.6096 12.7048Z" fill="white"/>
</g>
</g>
<defs>
<clipPath id="clip0_1409_393">
<rect width="40" height="40" fill="white"/>
</clipPath>
<clipPath id="clip1_1409_393">
<rect width="40" height="40" fill="white"/>
</clipPath>
</defs>
</svg>
