<svg width="80" height="80" viewBox="0 0 80 80" fill="none" xmlns="http://www.w3.org/2000/svg">
<g clip-path="url(#clip0_1409_392)">
<g clip-path="url(#clip1_1409_392)">
<path d="M40 80C62.0914 80 80 62.0914 80 40C80 17.9086 62.0914 0 40 0C17.9086 0 0 17.9086 0 40C0 62.0914 17.9086 80 40 80Z" fill="#201E3D"/>
<path d="M48.2819 23.5657C50.979 23.581 53.1428 25.8286 53.1047 28.5714C53.0666 31.2076 50.8267 33.4248 48.1981 33.4248C45.5467 33.4248 43.2838 31.1086 43.3143 28.4343C43.3447 25.7067 45.5543 23.5429 48.2895 23.5657H48.2819Z" fill="white"/>
<path d="M28.7543 34.2629C31.4896 34.2476 33.6762 36.4114 33.6838 39.1467C33.6915 41.8133 31.5429 44.0229 28.8762 44.0914C26.2172 44.16 23.9162 41.9124 23.8934 39.2152C23.8705 36.4648 26.0191 34.2781 28.7467 34.2629H28.7543Z" fill="white"/>
<path d="M47.6191 46.6057C50.3848 46.6057 52.48 48.7314 52.48 51.5352C52.48 54.1943 50.2781 56.4267 47.6496 56.4419C44.9829 56.4571 42.7048 54.179 42.7124 51.5048C42.72 48.7543 44.8686 46.6133 47.6267 46.6057H47.6191Z" fill="white"/>
<path d="M54.179 33.4248C56.9523 37.0286 56.6857 43.36 53.6152 46.8419C53.2571 45.92 52.8076 45.0895 52.0761 44.4495C51.8704 44.2667 52.0228 44.0914 52.1142 43.9238C53.4704 41.3714 53.5619 38.7733 52.3809 36.1448C52.2514 35.8552 52.2209 35.68 52.5181 35.4667C53.2495 34.9638 53.7523 34.2629 54.179 33.4324V33.4248Z" fill="white"/>
<path d="M28.1143 45.9505C29.2343 46.0495 30.2704 46.0114 31.2457 45.5848C31.6114 45.4248 31.6952 45.6229 31.8324 45.859C33.4476 48.5409 35.7943 50.1486 38.8647 50.7352C39.1085 50.7809 39.4514 50.7505 39.4819 51.1924C39.5504 52.3048 39.9771 53.3105 40.5943 54.2629C36.4419 54.6895 30.2171 51.6495 28.1143 45.9505Z" fill="white"/>
<path d="M41.219 25.4095C40.6323 26.3314 40.1752 27.2 40.1142 28.221C40.0914 28.5562 39.8704 28.5638 39.6114 28.579C36.8685 28.7771 34.659 29.9886 32.9447 32.1143C32.6933 32.4267 32.518 32.4952 32.1676 32.2819C31.3676 31.8095 30.4685 31.6952 29.5314 31.6952C31.1923 28.0838 36.0533 24.9371 41.2266 25.4019L41.219 25.4095Z" fill="white"/>
</g>
</g>
<defs>
<clipPath id="clip0_1409_392">
<rect width="80" height="80" fill="white"/>
</clipPath>
<clipPath id="clip1_1409_392">
<rect width="80" height="80" fill="white"/>
</clipPath>
</defs>
</svg>
