<svg width="24" height="24" viewBox="0 0 24 24" fill="none" xmlns="http://www.w3.org/2000/svg">
<path d="M15.8507 3.0001C17.3272 3.00844 18.5117 4.23902 18.4909 5.74075C18.47 7.18407 17.2438 8.39796 15.8048 8.39796C14.3533 8.39796 13.1146 7.12984 13.1313 5.66566C13.148 4.17228 14.3575 2.98758 15.8549 3.0001H15.8507Z" fill="white"/>
<path d="M5.16113 8.85624C6.65848 8.8479 7.85553 10.0326 7.8597 11.5301C7.86387 12.9902 6.68768 14.1999 5.22786 14.2374C3.77222 14.275 2.51261 13.0444 2.5001 11.5677C2.48759 10.0618 3.66378 8.86459 5.15696 8.85624H5.16113Z" fill="white"/>
<path d="M15.4878 15.6144C17.0019 15.6144 18.1489 16.7783 18.1489 18.3134C18.1489 19.7692 16.9435 20.9914 15.5045 20.9998C14.0447 21.0081 12.7976 19.7609 12.8018 18.2967C12.8059 16.7908 13.9821 15.6186 15.492 15.6144H15.4878Z" fill="white"/>
<path d="M19.082 8.39825C20.6002 10.3714 20.4543 13.8378 18.7734 15.7442C18.5774 15.2394 18.3313 14.7848 17.9309 14.4344C17.8183 14.3342 17.9017 14.2383 17.9517 14.1465C18.6941 12.7491 18.7442 11.3266 18.0977 9.88746C18.0268 9.72895 18.0101 9.63301 18.1728 9.5162C18.5732 9.24089 18.8485 8.85712 19.082 8.40243V8.39825Z" fill="white"/>
<path d="M4.80542 15.2561C5.41854 15.3104 5.98578 15.2895 6.51966 15.0559C6.71986 14.9683 6.76574 15.0768 6.84082 15.2061C7.72505 16.6744 9.00968 17.5546 10.6906 17.8758C10.824 17.9008 11.0117 17.8842 11.0284 18.1261C11.0659 18.7351 11.2995 19.2858 11.6373 19.8072C9.36421 20.0408 5.95659 18.3764 4.80542 15.2561Z" fill="white"/>
<path d="M11.9804 4.01078C11.6593 4.51552 11.409 4.99107 11.3757 5.55005C11.3631 5.73359 11.2422 5.73776 11.1004 5.7461C9.59885 5.85456 8.38929 6.51782 7.45084 7.68166C7.3132 7.85269 7.21727 7.89023 7.02541 7.77343C6.58746 7.5148 6.0953 7.45223 5.58228 7.45223C6.49153 5.47496 9.15256 3.75215 11.9846 4.00661L11.9804 4.01078Z" fill="white"/>
</svg>
