<svg width="55" height="55" viewBox="0 0 55 55" fill="none" xmlns="http://www.w3.org/2000/svg">
<g clip-path="url(#clip0_1116_9717)">
<path d="M41.8917 21.3217C41.9281 20.2067 42.3716 19.1437 43.1383 18.3334L46.4933 14.9784L45.6683 14.1717L43.835 12.3384L40.48 15.5284C40.0205 15.976 39.4698 16.3192 38.8654 16.5343C38.261 16.7495 37.6173 16.8316 36.9783 16.775C34.2307 15.3298 31.1728 14.5747 28.0683 14.5747C24.9638 14.5747 21.9059 15.3298 19.1583 16.775C18.5557 16.7982 17.9545 16.6997 17.3907 16.4856C16.8269 16.2714 16.312 15.9458 15.8767 15.5284L12.5217 12.21L11.715 13.035L9.88167 14.8684L13.1267 18.3334C13.9048 19.1304 14.3561 20.19 14.3917 21.3034C13.533 22.6927 13.0703 24.2902 13.0533 25.9234C13.0533 31.0384 17.6367 35.3467 23.8883 36.7034C24.5725 37.0917 25.1446 37.6502 25.5494 38.3247C25.9541 38.9993 26.1776 39.767 26.1983 40.5534V45.3017H30.0117V40.5167C30.0397 39.7253 30.2723 38.9547 30.6868 38.28C31.1013 37.6053 31.6835 37.0495 32.3767 36.6667C32.9982 36.5278 33.6105 36.3502 34.21 36.135C39.435 34.3017 43.0467 30.4517 43.065 25.905C43.0314 24.3074 42.6299 22.739 41.8917 21.3217Z" fill="currentColor"/>
</g>
<defs>
<clipPath id="clip0_1116_9717">
<rect width="55" height="55" fill="currentColor"/>
</clipPath>
</defs>
</svg>
