<svg width="55" height="55" viewBox="0 0 55 55" fill="none" xmlns="http://www.w3.org/2000/svg">
<g clip-path="url(#clip0_1116_9740)">
<path d="M48.7483 14.3367C48.8336 14.0783 48.8462 13.8013 48.7848 13.5362C48.7233 13.2711 48.5902 13.028 48.4 12.8334C48.5875 12.599 48.6908 12.3085 48.6933 12.0084C48.714 11.6566 48.6089 11.309 48.3969 11.0277C48.1849 10.7463 47.8797 10.5494 47.536 10.4723C47.1922 10.3952 46.8322 10.4428 46.5203 10.6066C46.2084 10.7705 45.9649 11.0399 45.8333 11.3667C45.6448 11.2909 45.4428 11.254 45.2396 11.2585C45.0364 11.2629 44.8363 11.3085 44.6512 11.3924C44.4661 11.4764 44.3 11.597 44.1629 11.747C44.0257 11.897 43.9204 12.0732 43.8533 12.265C43.6772 12.1986 43.4914 12.1614 43.3033 12.155C42.9396 12.1573 42.5894 12.2929 42.3191 12.5362C42.0487 12.7795 41.8771 13.1136 41.8367 13.475H41.5983C41.1979 13.475 40.8136 13.6328 40.5288 13.9142C40.2439 14.1956 40.0815 14.578 40.0767 14.9784C40.0877 15.1225 40.1186 15.2643 40.1683 15.4C39.9628 15.2982 39.7376 15.2419 39.5083 15.235C39.1426 15.2368 38.79 15.3718 38.5167 15.6147C38.2433 15.8577 38.0679 16.192 38.0233 16.555C37.7718 16.3581 37.4628 16.2486 37.1433 16.2434C36.7719 16.2461 36.4147 16.3863 36.1405 16.6368C35.8663 16.8873 35.6946 17.2304 35.6583 17.6C35.5236 17.4203 35.3494 17.274 35.1491 17.1723C34.9489 17.0705 34.7279 17.0162 34.5033 17.0134C34.1977 17.0148 33.8995 17.1083 33.6477 17.2816C33.3959 17.4549 33.2021 17.7 33.0917 17.985C32.8342 17.7711 32.5098 17.6543 32.175 17.655C31.9483 17.6604 31.7256 17.7158 31.5227 17.8172C31.3199 17.9186 31.142 18.0635 31.0017 18.2417C30.8734 18.0304 30.6932 17.8555 30.4782 17.7335C30.2631 17.6116 30.0205 17.5467 29.7733 17.545C29.5456 17.545 29.3211 17.598 29.1174 17.6999C28.9138 17.8017 28.7366 17.9495 28.6 18.1317C28.4753 17.8889 28.2862 17.6852 28.0533 17.5429C27.8205 17.4006 27.5529 17.3252 27.28 17.325C26.9671 17.328 26.6629 17.4285 26.4099 17.6125C26.1568 17.7965 25.9675 18.0549 25.8683 18.3517C25.6615 18.2557 25.4363 18.2056 25.2083 18.205C24.9881 18.2071 24.7713 18.2594 24.5743 18.3579C24.3774 18.4563 24.2055 18.5984 24.0717 18.7734C23.9 18.6001 23.6888 18.4712 23.4562 18.3978C23.2237 18.3244 22.9768 18.3087 22.7368 18.352C22.4968 18.3953 22.2709 18.4963 22.0787 18.6464C21.8864 18.7965 21.7336 18.9911 21.6333 19.2134C21.5254 18.9318 21.3342 18.6897 21.0853 18.5194C20.8364 18.3491 20.5416 18.2587 20.24 18.26C19.8715 18.2623 19.5166 18.3999 19.2428 18.6466C18.969 18.8933 18.7954 19.232 18.755 19.5984C18.6256 19.5487 18.4898 19.5178 18.3517 19.5067C17.953 19.5067 17.5706 19.6651 17.2886 19.947C17.0067 20.2289 16.8483 20.6113 16.8483 21.01C16.8206 21.1677 16.8206 21.329 16.8483 21.4867C16.6738 21.415 16.487 21.3776 16.2983 21.3767C15.8996 21.3767 15.5172 21.5351 15.2353 21.817C14.9534 22.0989 14.795 22.4813 14.795 22.88C14.7988 23.1769 14.8949 23.4652 15.07 23.705C14.6696 23.705 14.2853 23.8628 14.0004 24.1442C13.7156 24.4256 13.5532 24.808 13.5483 25.2084C13.5547 25.3965 13.5919 25.5823 13.6583 25.7584C13.3067 25.7632 12.9682 25.8927 12.7031 26.1238C12.4379 26.3548 12.2634 26.6725 12.2106 27.0202C12.1578 27.3679 12.2301 27.7231 12.4146 28.0224C12.5992 28.3218 12.884 28.546 13.2183 28.655C12.754 29.3085 12.5042 30.0901 12.5033 30.8917C12.5037 31.4858 12.6484 32.0709 12.925 32.5967C14.0197 31.1866 15.2145 29.857 16.5 28.6184C16.5667 27.9162 16.779 27.2356 17.1233 26.62C17.0488 26.134 17.0488 25.6394 17.1233 25.1534C17.1745 24.8176 17.3137 24.5013 17.5267 24.2367C17.7323 24.0292 17.8998 23.7872 18.0217 23.5217C18.1443 23.1209 18.2302 22.7097 18.2783 22.2934C18.2887 22.7413 18.258 23.1893 18.1867 23.6317C18.1031 23.8844 17.9654 24.1159 17.7833 24.31C17.5585 24.5582 17.423 24.8744 17.3983 25.2084C17.3772 25.5013 17.3772 25.7954 17.3983 26.0884C17.6987 25.6177 18.1155 25.2325 18.6083 24.97C19.0587 24.7554 19.4682 24.4638 19.8183 24.1084C20.3867 23.2467 21.285 21.7617 21.285 21.7617C20.9842 22.6823 20.6103 23.5774 20.1667 24.4384C19.8622 24.8403 19.4744 25.1718 19.03 25.41C18.454 25.6958 18.013 26.1961 17.8017 26.8034C17.6352 27.1682 17.5062 27.5491 17.4167 27.94C18.4434 27.0271 19.5476 26.2051 20.7167 25.4834C22.3891 24.4671 24.2689 23.8405 26.2167 23.65H26.785C26.9058 23.3417 27.0467 23.0416 27.2067 22.7517C27.4123 22.3603 27.732 22.0406 28.1233 21.835L28.875 21.34C29.2621 20.8968 29.5776 20.3957 29.81 19.855C29.6797 20.3765 29.4889 20.8811 29.2417 21.3584C29.004 21.6459 28.711 21.8828 28.38 22.055C28.0003 22.2381 27.7052 22.5595 27.555 22.9534C27.555 23.1917 27.4083 23.3934 27.3533 23.595H27.5C29.1307 23.5429 30.7549 23.3651 32.3583 23.0634C33.4326 22.803 34.4637 22.3893 35.42 21.835C35.8122 21.1909 36.2535 20.578 36.74 20.0017C37.2069 19.6283 37.7338 19.337 38.2983 19.14C37.8662 19.3682 37.4656 19.6517 37.1067 19.9834C36.7784 20.4163 36.5357 20.9078 36.3917 21.4317C38.4405 20.4673 40.3771 19.2808 42.1667 17.8934C42.1667 17.8934 35.915 24.2917 28.1967 24.5117H27.4817C27.7417 24.6851 28.011 24.8443 28.2883 24.9884C28.8643 25.2493 29.5149 25.2949 30.1217 25.1167C30.4333 25.0067 31.0017 24.6584 31.4417 24.7867C32.2089 24.8849 32.988 24.7508 33.6783 24.4017C33.6783 24.4017 32.285 25.41 31.405 25.135C31.075 25.0434 30.3967 25.5017 30.1033 25.575C29.4536 25.784 28.7547 25.784 28.105 25.575C27.5351 25.3262 26.9991 25.0058 26.51 24.6217C24.5089 24.7668 22.5954 25.5004 21.01 26.73C19.9283 27.555 18.9933 28.27 18.1683 28.985C18.672 29.128 19.1873 29.2262 19.7083 29.2784C20.3989 29.3394 21.0884 29.1507 21.6517 28.7467C21.89 28.5267 22.22 27.995 22.66 27.94C23.5767 27.8484 24.4933 26.6384 24.4933 26.6384C24.4933 26.6384 23.705 28.1417 22.7883 28.2334C22.44 28.2334 21.9817 29.0767 21.7433 29.26C21.2317 29.611 20.6219 29.7908 20.0017 29.7734C19.2008 29.7901 18.4024 29.6787 17.6367 29.4434C16.1718 30.6357 14.8981 32.0454 13.86 33.6234C14.5154 34.2059 15.3493 34.5486 16.225 34.595C16.225 34.9168 16.2887 35.2354 16.4123 35.5324C16.536 35.8294 16.7173 36.099 16.9456 36.3257C17.174 36.5524 17.445 36.7316 17.7429 36.853C18.0409 36.9745 18.3599 37.0358 18.6817 37.0334C19.0843 37.0294 19.4796 36.9251 19.8318 36.7298C20.1839 36.5346 20.4818 36.2545 20.6983 35.915C21.0165 36.0544 21.3593 36.1292 21.7067 36.135C22.1959 36.1339 22.6736 35.9867 23.0786 35.7123C23.4836 35.4379 23.7975 35.0489 23.98 34.595C24.2376 34.6954 24.5104 34.7512 24.7867 34.76C25.4431 34.76 26.0726 34.4993 26.5367 34.0351C27.0009 33.571 27.2617 32.9414 27.2617 32.285C27.2529 31.9163 27.1654 31.5538 27.005 31.2217C27.2849 31.0824 27.5205 30.868 27.6856 30.6026C27.8507 30.3371 27.9388 30.031 27.94 29.7184C27.9486 29.633 27.9486 29.547 27.94 29.4617C28.0315 29.4703 28.1235 29.4703 28.215 29.4617C28.6482 29.4669 29.0664 29.3033 29.3812 29.0056C29.696 28.708 29.8826 28.2995 29.9017 27.8667C30.1868 28.084 30.5332 28.2059 30.8917 28.215C31.2728 28.2117 31.6415 28.0794 31.9378 27.8397C32.2341 27.6 32.4405 27.267 32.5233 26.895C32.6508 27.1233 32.837 27.3134 33.0627 27.4456C33.2883 27.5778 33.5452 27.6472 33.8067 27.6467C34.1781 27.6439 34.5353 27.5038 34.8095 27.2533C35.0837 27.0028 35.2554 26.6597 35.2917 26.29C35.4378 26.3077 35.5855 26.3077 35.7317 26.29C35.9946 26.2868 36.2519 26.2138 36.4774 26.0785C36.7029 25.9432 36.8884 25.7505 37.015 25.52C37.274 25.7313 37.5974 25.8477 37.9317 25.85C38.2626 25.847 38.583 25.7335 38.8421 25.5276C39.1012 25.3217 39.284 25.0351 39.3617 24.7134C39.5352 24.7885 39.7226 24.826 39.9117 24.8234C40.1091 24.8234 40.3046 24.7845 40.487 24.7089C40.6694 24.6334 40.8351 24.5226 40.9747 24.383C41.1143 24.2434 41.225 24.0777 41.3006 23.8953C41.3761 23.7129 41.415 23.5174 41.415 23.32C41.4342 23.1679 41.4342 23.0139 41.415 22.8617C41.5727 22.8894 41.734 22.8894 41.8917 22.8617C42.275 22.8624 42.6441 22.7167 42.9235 22.4543C43.203 22.1919 43.3716 21.8326 43.395 21.45C43.5109 21.4603 43.6274 21.4603 43.7433 21.45C44.142 21.45 44.5244 21.2916 44.8063 21.0097C45.0883 20.7278 45.2467 20.3454 45.2467 19.9467C45.5966 19.8905 45.9154 19.7126 46.1468 19.4442C46.3783 19.1759 46.5075 18.8344 46.5117 18.48C46.5117 18.48 46.5117 18.37 46.5117 18.315C46.8383 18.244 47.1309 18.0635 47.341 17.8034C47.551 17.5434 47.6659 17.2193 47.6667 16.885C47.7267 16.7589 47.7817 16.6305 47.8317 16.5C48.0013 16.3384 48.1274 16.1366 48.1983 15.9134C48.2529 15.6843 48.2529 15.4457 48.1983 15.2167C48.1983 15.2167 48.1983 15.07 48.1983 14.9967C48.4427 14.8357 48.634 14.6061 48.7483 14.3367Z" fill="currentColor"/>
<path d="M40.7183 29.92C39.6371 28.8535 38.3079 28.0723 36.85 27.6467C36.8197 28.0702 36.6589 28.4739 36.3897 28.8022C36.1204 29.1306 35.756 29.3674 35.3467 29.48C35.1013 29.4985 34.8548 29.4675 34.6217 29.3888C34.3887 29.31 34.1738 29.1852 33.99 29.0217C33.8983 30.2133 32.34 30.415 31.46 30.1217H31.075C31.0854 30.2375 31.0854 30.3541 31.075 30.47C31.0644 30.891 30.9371 31.3007 30.7072 31.6536C30.4774 32.0064 30.1541 32.2885 29.7733 32.4683C30.0018 32.9038 30.1213 33.3882 30.1217 33.88C30.1121 34.3182 30.0164 34.7503 29.8398 35.1514C29.6633 35.5526 29.4094 35.9151 29.0928 36.2181C28.7761 36.5212 28.4028 36.7589 27.9943 36.9176C27.5857 37.0764 27.1499 37.1531 26.7117 37.1433C26.323 37.1357 25.9385 37.0613 25.575 36.9233C25.3128 37.5401 24.8729 38.0648 24.3112 38.4305C23.7496 38.7962 23.0918 38.9864 22.4217 38.9767C21.942 38.9753 21.4678 38.8755 21.0283 38.6833C20.7171 39.142 20.2994 39.5184 19.8108 39.7802C19.3223 40.042 18.7776 40.1815 18.2233 40.1867C17.7851 40.1964 17.3493 40.1197 16.9407 39.961C16.5322 39.8022 16.1589 39.5645 15.8422 39.2615C15.5256 38.9584 15.2717 38.596 15.0952 38.1948C14.9186 37.7936 14.8229 37.3615 14.8133 36.9233C13.4804 36.9045 12.207 36.3678 11.2626 35.4269C10.3183 34.486 9.77701 33.2146 9.75333 31.8817C9.75598 30.8167 10.1033 29.7812 10.7433 28.93C10.3669 28.8632 10.0208 28.6803 9.75339 28.407C9.48601 28.1337 9.31077 27.7837 9.25217 27.4059C9.19358 27.028 9.25458 26.6414 9.42662 26.2999C9.59866 25.9585 9.87315 25.6794 10.2117 25.5017C10.2117 25.355 10.2117 25.2083 10.2117 25.0617C10.1741 24.4833 10.2741 23.9043 10.5035 23.3721C10.733 22.8399 11.0853 22.3697 11.5317 22C11.7272 21.8291 11.9504 21.6927 12.1917 21.5967C11.4033 21.5967 10.3583 20.68 9.845 19.3233C9.54527 18.8487 9.38618 18.2989 9.38618 17.7375C9.38618 17.1762 9.54527 16.6263 9.845 16.1517C8.81106 16.4427 7.86183 16.977 7.07667 17.71C6.16584 18.732 5.46547 19.9235 5.01561 21.2165C4.56576 22.5094 4.37526 23.8784 4.455 25.245C4.38291 27.9944 4.86339 30.7302 5.86797 33.2905C6.87255 35.8507 8.38079 38.1833 10.3033 40.15C12.1085 41.9658 14.529 43.0387 17.0867 43.1567H17.3433C24.1817 43.3033 27.225 39.49 29.425 36.575C31.2583 34.1367 32.1383 33.2567 33.935 33.2567C38.335 33.2567 38.3717 41.195 38.3717 41.5983C38.4126 41.9684 38.5264 42.3266 38.7064 42.6525C38.8864 42.9784 39.1291 43.2655 39.4204 43.4972C39.7118 43.729 40.0461 43.9008 40.4042 44.0028C40.7622 44.1048 41.1369 44.135 41.5067 44.0917C44.165 44.0917 44.6783 42.2583 44.6783 41.69C44.6783 41.1217 44.8617 34.0267 40.7183 29.92Z" fill="currentColor"/>
<path d="M13.1516 21.0417C13.9082 20.725 14.0462 19.3326 13.4598 17.9316C12.8735 16.5305 11.7848 15.6514 11.0283 15.9681C10.2717 16.2847 10.1337 17.6771 10.7201 19.0782C11.3064 20.4792 12.3951 21.3583 13.1516 21.0417Z" fill="currentColor"/>
</g>
<defs>
<clipPath id="clip0_1116_9740">
<rect width="55" height="55" fill="currentColor"/>
</clipPath>
</defs>
</svg>
