<svg width="84" height="28" viewBox="0 0 84 28" fill="none" xmlns="http://www.w3.org/2000/svg">
<g clip-path="url(#clip0_378_55291)">
<path d="M68.4333 26.1743V23.045H76.2193C78.5176 23.045 80.4666 21.0649 80.4666 18.6967C80.4666 16.7117 79.0137 14.9753 77.1761 14.5922L72.5035 13.6519C69.7799 13.0947 67.7246 10.8709 67.7246 7.7415C67.7246 4.43802 70.5545 1.83105 73.8805 1.83105H82.5877V4.96041H74.0931C72.4984 4.96041 71.2632 6.17931 71.2632 7.7415C71.2632 9.09971 72.1846 10.2092 73.3843 10.4529L77.986 11.3932C81.4183 12.0898 84.0001 15.1495 84.0001 18.6967C84.0001 22.8709 80.4615 26.1743 76.5686 26.1743H68.4283H68.4333Z" fill="#202A1F"/>
<path d="M40.6052 26.1744C35.6137 26.1744 31.4019 22.1744 31.4019 17.269V8.43314C31.4019 4.7814 34.4443 1.82617 38.1247 1.82617H46.6193V4.95553H38.1247C36.3883 4.95553 34.9405 6.34856 34.9405 8.08488V17.5774C34.9405 20.5675 37.5577 23.0401 40.6052 23.0401H46.6193V26.1695H40.6052V26.1744Z" fill="#202A1F"/>
<path d="M49.3076 1.82617H52.8462L62.0496 19.0401V1.82617H65.5882V26.1744H62.0496L52.8462 8.9605V26.1744H49.3076V1.82617Z" fill="#202A1F"/>
<g clip-path="url(#clip1_378_55291)">
<path d="M16.9694 3.73134C20.7336 4.69652 23.6934 7.61194 24.68 11.3134C23.3494 11.3184 22.2464 12.2637 22.0086 13.5025H16.9239C16.853 13.1294 16.7063 12.7861 16.4938 12.4826L18.3152 10.6866C18.5125 10.7761 18.725 10.8308 18.9578 10.8308C19.7875 10.8308 20.4604 10.1692 20.4604 9.35323C20.4604 8.53731 19.7875 7.87562 18.9578 7.87562C18.128 7.87562 17.4551 8.53731 17.4551 9.35323C17.4551 9.57711 17.5108 9.79105 17.6018 9.9801L15.7754 11.7761C15.4667 11.5721 15.1176 11.4229 14.7382 11.3532V6.35323C16.003 6.1194 16.9593 5.03483 16.9643 3.72637L16.9694 3.73134ZM6.46597 13.5025H11.5507C11.6216 13.1294 11.7683 12.7861 11.9757 12.4826L10.1543 10.6866C9.96205 10.7761 9.7445 10.8308 9.51176 10.8308C8.68201 10.8308 8.00911 10.1692 8.00911 9.35323C8.00911 9.12438 8.06476 8.91542 8.15583 8.72139C8.30256 8.41294 8.55553 8.16418 8.86921 8.0199C9.06147 7.93035 9.27903 7.87562 9.51176 7.87562C10.3415 7.87562 11.0144 8.53731 11.0144 9.35323C11.0144 9.57711 10.9588 9.79105 10.8677 9.98507L12.6942 11.7811C12.9977 11.5771 13.3519 11.4279 13.7313 11.3582V6.35821C12.4665 6.12438 11.5102 5.0398 11.5052 3.73134C7.74096 4.69652 4.78118 7.61194 3.79459 11.3134C5.12522 11.3184 6.22818 12.2637 6.46597 13.5025ZM13.7313 21.6418V16.6418C13.3519 16.5721 13.0028 16.4279 12.6942 16.2189L10.8677 18.0149C10.9588 18.204 11.0144 18.4179 11.0144 18.6468C11.0144 19.4627 10.3415 20.1244 9.51176 20.1244C8.68201 20.1244 8.00911 19.4627 8.00911 18.6468C8.00911 17.8308 8.68201 17.1692 9.51176 17.1692C9.7445 17.1692 9.95699 17.2239 10.1543 17.3134L11.9808 15.5174C11.7683 15.2139 11.6216 14.8706 11.5507 14.4975H6.46597C6.22818 15.7413 5.12522 16.6816 3.79459 16.6866C4.77612 20.3881 7.74096 23.3035 11.5052 24.2687C11.5102 22.9602 12.4715 21.8756 13.7313 21.6418ZM22.0086 14.4975H16.9239C16.853 14.8706 16.7063 15.2139 16.4938 15.5174L18.3152 17.3134C18.5125 17.2239 18.725 17.1692 18.9578 17.1692C19.7875 17.1692 20.4604 17.8308 20.4604 18.6468C20.4604 18.8756 20.4048 19.0846 20.3137 19.2786C20.167 19.5871 19.914 19.8358 19.6003 19.9801C19.408 20.0697 19.1905 20.1244 18.9578 20.1244C18.128 20.1244 17.4551 19.4627 17.4551 18.6468C17.4551 18.4229 17.5108 18.209 17.6018 18.0149L15.7754 16.2189C15.4667 16.4229 15.1176 16.5721 14.7382 16.6418V21.6418C16.003 21.8756 16.9593 22.9602 16.9643 24.2687C20.7286 23.3035 23.6883 20.3881 24.6749 16.6866C23.3443 16.6816 22.2413 15.7363 22.0035 14.4975H22.0086ZM28.4746 14C28.4746 6.27861 22.0845 0 14.2373 0C6.39008 0 0 6.27861 0 14C0 21.7214 6.38502 28 14.2373 28C22.0896 28 28.4746 21.7214 28.4746 14ZM26.7797 14C26.7797 20.801 21.1536 26.3333 14.2373 26.3333C7.32102 26.3333 1.69492 20.796 1.69492 14C1.69492 7.20398 7.32102 1.66667 14.2373 1.66667C21.1536 1.66667 26.7797 7.19901 26.7797 14Z" fill="#8DC63F"/>
</g>
</g>
<defs>
<clipPath id="clip0_378_55291">
<rect width="84" height="28" fill="white"/>
</clipPath>
<clipPath id="clip1_378_55291">
<rect width="28.4746" height="28" fill="white"/>
</clipPath>
</defs>
</svg>
