<svg width="6" height="4" viewBox="0 0 6 4" fill="none" xmlns="http://www.w3.org/2000/svg">
<path d="M2.71258 3.08268L0.659843 1.02871C0.631532 1.00039 0.60921 0.968735 0.592876 0.933746C0.576532 0.898757 0.568359 0.863618 0.568359 0.828329C0.568359 0.757752 0.592926 0.696502 0.642059 0.64458C0.691182 0.592658 0.755932 0.566696 0.836309 0.566696H5.16191C5.24229 0.566696 5.30704 0.593779 5.35616 0.647946C5.40529 0.702124 5.42986 0.765325 5.42986 0.837547C5.42986 0.846725 5.39932 0.910291 5.33824 1.02825L3.28564 3.0827C3.24846 3.11987 3.2041 3.14957 3.15256 3.1718C3.101 3.19402 3.04985 3.20513 2.99911 3.20513C2.94836 3.20513 2.89722 3.19402 2.84566 3.1718C2.79412 3.14957 2.74975 3.11987 2.71258 3.08268Z" fill="#4C4C58"/>
</svg>
