<?xml version="1.0" encoding="UTF-8" standalone="no"?>
<!DOCTYPE svg PUBLIC "-//W3C//DTD SVG 1.1//EN"
 "http://www.w3.org/Graphics/SVG/1.1/DTD/svg11.dtd">
<!-- Generated by graphviz version 2.47.0 (20210316.0004)
 -->
<!-- Title: dependencies Pages: 1 -->
<svg width="606pt" height="284pt"
 viewBox="0.00 0.00 606.00 284.00" xmlns="http://www.w3.org/2000/svg" xmlns:xlink="http://www.w3.org/1999/xlink">
<g id="graph0" class="graph" transform="scale(1 1) rotate(0) translate(4 280)">
<title>dependencies</title>
<polygon fill="white" stroke="transparent" points="-4,4 -4,-280 602,-280 602,4 -4,4"/>
<text text-anchor="start" x="278.01" y="-42.4" font-family="Times-12" font-weight="bold" font-size="14.00">Legend</text>
<polygon fill="#ffffb3" stroke="transparent" points="65,-10 65,-30 85,-30 85,-10 65,-10"/>
<text text-anchor="start" x="88.63" y="-15.4" font-family="Times-12" font-size="14.00"> &#160;Declarations</text>
<polygon fill="#8dd3c7" stroke="transparent" points="178,-10 178,-30 198,-30 198,-10 178,-10"/>
<text text-anchor="start" x="201.73" y="-15.4" font-family="Times-12" font-size="14.00"> &#160;Module</text>
<polygon fill="#80b1d3" stroke="transparent" points="264,-10 264,-30 284,-30 284,-10 264,-10"/>
<text text-anchor="start" x="287.78" y="-15.4" font-family="Times-12" font-size="14.00"> &#160;Bootstrap</text>
<polygon fill="#fdb462" stroke="transparent" points="361,-10 361,-30 381,-30 381,-10 361,-10"/>
<text text-anchor="start" x="384.67" y="-15.4" font-family="Times-12" font-size="14.00"> &#160;Providers</text>
<polygon fill="#fb8072" stroke="transparent" points="457,-10 457,-30 477,-30 477,-10 457,-10"/>
<text text-anchor="start" x="480.73" y="-15.4" font-family="Times-12" font-size="14.00"> &#160;Exports</text>
<g id="clust1" class="cluster">
<title>cluster_NavbarModule</title>
<polygon fill="none" stroke="black" stroke-dasharray="1,5" points="8,-70 8,-268 590,-268 590,-70 8,-70"/>
</g>
<g id="clust5" class="cluster">
<title>cluster_NavbarModule_exports</title>
<polygon fill="none" stroke="black" points="242,-208 242,-260 384,-260 384,-208 242,-208"/>
</g>
<g id="clust2" class="cluster">
<title>cluster_NavbarModule_declarations</title>
<polygon fill="none" stroke="black" points="444,-78 444,-130 582,-130 582,-78 444,-78"/>
</g>
<g id="clust4" class="cluster">
<title>cluster_NavbarModule_imports</title>
<polygon fill="none" stroke="black" points="16,-78 16,-130 436,-130 436,-78 16,-78"/>
</g>
<!-- NavbarComponent -->
<g id="node1" class="node">
<title>NavbarComponent</title>
<polygon fill="#ffffb3" stroke="black" points="574.03,-122 451.97,-122 451.97,-86 574.03,-86 574.03,-122"/>
<text text-anchor="middle" x="513" y="-99.8" font-family="Times,serif" font-size="14.00">NavbarComponent</text>
</g>
<!-- NavbarModule -->
<g id="node2" class="node">
<title>NavbarModule</title>
<polygon fill="#8dd3c7" stroke="black" points="363.25,-187 360.25,-191 339.25,-191 336.25,-187 262.75,-187 262.75,-151 363.25,-151 363.25,-187"/>
<text text-anchor="middle" x="313" y="-164.8" font-family="Times,serif" font-size="14.00">NavbarModule</text>
</g>
<!-- NavbarComponent&#45;&gt;NavbarModule -->
<g id="edge1" class="edge">
<title>NavbarComponent&#45;&gt;NavbarModule</title>
<path fill="none" stroke="black" d="M513,-122.11C513,-141.34 513,-169 513,-169 513,-169 373.47,-169 373.47,-169"/>
<polygon fill="black" stroke="black" points="373.47,-165.5 363.47,-169 373.47,-172.5 373.47,-165.5"/>
</g>
<!-- NavbarComponent  -->
<g id="node6" class="node">
<title>NavbarComponent </title>
<polygon fill="#fb8072" stroke="black" points="376.03,-252 249.97,-252 249.97,-216 376.03,-216 376.03,-252"/>
<text text-anchor="middle" x="313" y="-229.8" font-family="Times,serif" font-size="14.00">NavbarComponent </text>
</g>
<!-- NavbarModule&#45;&gt;NavbarComponent  -->
<g id="edge5" class="edge">
<title>NavbarModule&#45;&gt;NavbarComponent </title>
<path fill="none" stroke="black" stroke-dasharray="5,2" d="M313,-187.11C313,-187.11 313,-205.99 313,-205.99"/>
<polygon fill="black" stroke="black" points="309.5,-205.99 313,-215.99 316.5,-205.99 309.5,-205.99"/>
</g>
<!-- NavItemModule -->
<g id="node3" class="node">
<title>NavItemModule</title>
<polygon fill="#8dd3c7" stroke="black" points="428.03,-122 425.03,-126 404.03,-126 401.03,-122 319.97,-122 319.97,-86 428.03,-86 428.03,-122"/>
<text text-anchor="middle" x="374" y="-99.8" font-family="Times,serif" font-size="14.00">NavItemModule</text>
</g>
<!-- NavItemModule&#45;&gt;NavbarModule -->
<g id="edge2" class="edge">
<title>NavItemModule&#45;&gt;NavbarModule</title>
<path fill="none" stroke="black" d="M341.55,-122.11C341.55,-122.11 341.55,-140.99 341.55,-140.99"/>
<polygon fill="black" stroke="black" points="338.05,-140.99 341.55,-150.99 345.05,-140.99 338.05,-140.99"/>
</g>
<!-- SearchModule -->
<g id="node4" class="node">
<title>SearchModule</title>
<polygon fill="#8dd3c7" stroke="black" points="301.64,-122 298.64,-126 277.64,-126 274.64,-122 204.36,-122 204.36,-86 301.64,-86 301.64,-122"/>
<text text-anchor="middle" x="253" y="-99.8" font-family="Times,serif" font-size="14.00">SearchModule</text>
</g>
<!-- SearchModule&#45;&gt;NavbarModule -->
<g id="edge3" class="edge">
<title>SearchModule&#45;&gt;NavbarModule</title>
<path fill="none" stroke="black" d="M282.22,-122.11C282.22,-122.11 282.22,-140.99 282.22,-140.99"/>
<polygon fill="black" stroke="black" points="278.72,-140.99 282.22,-150.99 285.72,-140.99 278.72,-140.99"/>
</g>
<!-- TableNestedMenuModule -->
<g id="node5" class="node">
<title>TableNestedMenuModule</title>
<polygon fill="#8dd3c7" stroke="black" points="186.45,-122 183.45,-126 162.45,-126 159.45,-122 23.55,-122 23.55,-86 186.45,-86 186.45,-122"/>
<text text-anchor="middle" x="105" y="-99.8" font-family="Times,serif" font-size="14.00">TableNestedMenuModule</text>
</g>
<!-- TableNestedMenuModule&#45;&gt;NavbarModule -->
<g id="edge4" class="edge">
<title>TableNestedMenuModule&#45;&gt;NavbarModule</title>
<path fill="none" stroke="black" d="M105,-122.11C105,-141.34 105,-169 105,-169 105,-169 252.65,-169 252.65,-169"/>
<polygon fill="black" stroke="black" points="252.65,-172.5 262.65,-169 252.65,-165.5 252.65,-172.5"/>
</g>
</g>
</svg>
