<?xml version="1.0" encoding="UTF-8" standalone="no"?>
<!DOCTYPE svg PUBLIC "-//W3C//DTD SVG 1.1//EN"
 "http://www.w3.org/Graphics/SVG/1.1/DTD/svg11.dtd">
<!-- Generated by graphviz version 2.47.0 (20210316.0004)
 -->
<!-- Title: dependencies Pages: 1 -->
<svg width="1741pt" height="284pt"
 viewBox="0.00 0.00 1741.00 284.00" xmlns="http://www.w3.org/2000/svg" xmlns:xlink="http://www.w3.org/1999/xlink">
<g id="graph0" class="graph" transform="scale(1 1) rotate(0) translate(4 280)">
<title>dependencies</title>
<polygon fill="white" stroke="transparent" points="-4,4 -4,-280 1737,-280 1737,4 -4,4"/>
<text text-anchor="start" x="845.51" y="-42.4" font-family="Times-12" font-weight="bold" font-size="14.00">Legend</text>
<polygon fill="#ffffb3" stroke="transparent" points="632.5,-10 632.5,-30 652.5,-30 652.5,-10 632.5,-10"/>
<text text-anchor="start" x="656.13" y="-15.4" font-family="Times-12" font-size="14.00"> &#160;Declarations</text>
<polygon fill="#8dd3c7" stroke="transparent" points="745.5,-10 745.5,-30 765.5,-30 765.5,-10 745.5,-10"/>
<text text-anchor="start" x="769.23" y="-15.4" font-family="Times-12" font-size="14.00"> &#160;Module</text>
<polygon fill="#80b1d3" stroke="transparent" points="831.5,-10 831.5,-30 851.5,-30 851.5,-10 831.5,-10"/>
<text text-anchor="start" x="855.28" y="-15.4" font-family="Times-12" font-size="14.00"> &#160;Bootstrap</text>
<polygon fill="#fdb462" stroke="transparent" points="928.5,-10 928.5,-30 948.5,-30 948.5,-10 928.5,-10"/>
<text text-anchor="start" x="952.17" y="-15.4" font-family="Times-12" font-size="14.00"> &#160;Providers</text>
<polygon fill="#fb8072" stroke="transparent" points="1024.5,-10 1024.5,-30 1044.5,-30 1044.5,-10 1024.5,-10"/>
<text text-anchor="start" x="1048.23" y="-15.4" font-family="Times-12" font-size="14.00"> &#160;Exports</text>
<g id="clust1" class="cluster">
<title>cluster_AppModule</title>
<polygon fill="none" stroke="black" stroke-dasharray="1,5" points="8,-70 8,-268 1725,-268 1725,-70 8,-70"/>
</g>
<g id="clust2" class="cluster">
<title>cluster_AppModule_declarations</title>
<polygon fill="none" stroke="black" points="1595,-78 1595,-130 1717,-130 1717,-78 1595,-78"/>
</g>
<g id="clust4" class="cluster">
<title>cluster_AppModule_imports</title>
<polygon fill="none" stroke="black" points="174,-78 174,-130 1587,-130 1587,-78 174,-78"/>
</g>
<g id="clust7" class="cluster">
<title>cluster_AppModule_providers</title>
<polygon fill="none" stroke="black" points="16,-78 16,-130 166,-130 166,-78 16,-78"/>
</g>
<g id="clust6" class="cluster">
<title>cluster_AppModule_bootstrap</title>
<polygon fill="none" stroke="black" points="887,-208 887,-260 1011,-260 1011,-208 887,-208"/>
</g>
<!-- AppComponent -->
<g id="node1" class="node">
<title>AppComponent</title>
<polygon fill="#ffffb3" stroke="black" points="1708.94,-122 1603.06,-122 1603.06,-86 1708.94,-86 1708.94,-122"/>
<text text-anchor="middle" x="1656" y="-99.8" font-family="Times,serif" font-size="14.00">AppComponent</text>
</g>
<!-- AppModule -->
<g id="node2" class="node">
<title>AppModule</title>
<polygon fill="#8dd3c7" stroke="black" points="990.66,-187 987.66,-191 966.66,-191 963.66,-187 907.34,-187 907.34,-151 990.66,-151 990.66,-187"/>
<text text-anchor="middle" x="949" y="-164.8" font-family="Times,serif" font-size="14.00">AppModule</text>
</g>
<!-- AppComponent&#45;&gt;AppModule -->
<g id="edge1" class="edge">
<title>AppComponent&#45;&gt;AppModule</title>
<path fill="none" stroke="black" d="M1656,-122.25C1656,-145.02 1656,-181 1656,-181 1656,-181 1000.85,-181 1000.85,-181"/>
<polygon fill="black" stroke="black" points="1000.85,-177.5 990.85,-181 1000.85,-184.5 1000.85,-177.5"/>
</g>
<!-- AppComponent  -->
<g id="node13" class="node">
<title>AppComponent </title>
<polygon fill="#80b1d3" stroke="black" points="1003.44,-252 894.56,-252 894.56,-216 1003.44,-216 1003.44,-252"/>
<text text-anchor="middle" x="949" y="-229.8" font-family="Times,serif" font-size="14.00">AppComponent </text>
</g>
<!-- AppModule&#45;&gt;AppComponent  -->
<g id="edge12" class="edge">
<title>AppModule&#45;&gt;AppComponent </title>
<path fill="none" stroke="black" stroke-dasharray="1,5" d="M949,-187.11C949,-187.11 949,-205.99 949,-205.99"/>
<polygon fill="black" stroke="black" points="945.5,-205.99 949,-215.99 952.5,-205.99 945.5,-205.99"/>
</g>
<!-- AnalyticsModule -->
<g id="node3" class="node">
<title>AnalyticsModule</title>
<polygon fill="#8dd3c7" stroke="black" points="1578.7,-122 1575.7,-126 1554.7,-126 1551.7,-122 1465.3,-122 1465.3,-86 1578.7,-86 1578.7,-122"/>
<text text-anchor="middle" x="1522" y="-99.8" font-family="Times,serif" font-size="14.00">AnalyticsModule</text>
</g>
<!-- AnalyticsModule&#45;&gt;AppModule -->
<g id="edge2" class="edge">
<title>AnalyticsModule&#45;&gt;AppModule</title>
<path fill="none" stroke="black" d="M1522,-122.28C1522,-143.32 1522,-175 1522,-175 1522,-175 1000.67,-175 1000.67,-175"/>
<polygon fill="black" stroke="black" points="1000.67,-171.5 990.67,-175 1000.67,-178.5 1000.67,-171.5"/>
</g>
<!-- AppRoutingModule -->
<g id="node4" class="node">
<title>AppRoutingModule</title>
<polygon fill="#8dd3c7" stroke="black" points="1447.27,-122 1444.27,-126 1423.27,-126 1420.27,-122 1318.73,-122 1318.73,-86 1447.27,-86 1447.27,-122"/>
<text text-anchor="middle" x="1383" y="-99.8" font-family="Times,serif" font-size="14.00">AppRoutingModule</text>
</g>
<!-- AppRoutingModule&#45;&gt;AppModule -->
<g id="edge3" class="edge">
<title>AppRoutingModule&#45;&gt;AppModule</title>
<path fill="none" stroke="black" d="M1383,-122.11C1383,-141.34 1383,-169 1383,-169 1383,-169 1001.01,-169 1001.01,-169"/>
<polygon fill="black" stroke="black" points="1001.01,-165.5 991.01,-169 1001.01,-172.5 1001.01,-165.5"/>
</g>
<!-- DocsModule -->
<g id="node5" class="node">
<title>DocsModule</title>
<polygon fill="#8dd3c7" stroke="black" points="1300.32,-122 1297.32,-126 1276.32,-126 1273.32,-122 1211.68,-122 1211.68,-86 1300.32,-86 1300.32,-122"/>
<text text-anchor="middle" x="1256" y="-99.8" font-family="Times,serif" font-size="14.00">DocsModule</text>
</g>
<!-- DocsModule&#45;&gt;AppModule -->
<g id="edge4" class="edge">
<title>DocsModule&#45;&gt;AppModule</title>
<path fill="none" stroke="black" d="M1256,-122.02C1256,-139.37 1256,-163 1256,-163 1256,-163 1000.72,-163 1000.72,-163"/>
<polygon fill="black" stroke="black" points="1000.72,-159.5 990.72,-163 1000.72,-166.5 1000.72,-159.5"/>
</g>
<!-- FileUploadModule -->
<g id="node6" class="node">
<title>FileUploadModule</title>
<polygon fill="#8dd3c7" stroke="black" points="1194.04,-122 1191.04,-126 1170.04,-126 1167.04,-122 1071.96,-122 1071.96,-86 1194.04,-86 1194.04,-122"/>
<text text-anchor="middle" x="1133" y="-99.8" font-family="Times,serif" font-size="14.00">FileUploadModule</text>
</g>
<!-- FileUploadModule&#45;&gt;AppModule -->
<g id="edge5" class="edge">
<title>FileUploadModule&#45;&gt;AppModule</title>
<path fill="none" stroke="black" d="M1133,-122.24C1133,-137.57 1133,-157 1133,-157 1133,-157 1000.75,-157 1000.75,-157"/>
<polygon fill="black" stroke="black" points="1000.75,-153.5 990.75,-157 1000.75,-160.5 1000.75,-153.5"/>
</g>
<!-- FooterModule -->
<g id="node7" class="node">
<title>FooterModule</title>
<polygon fill="#8dd3c7" stroke="black" points="1054.1,-122 1051.1,-126 1030.1,-126 1027.1,-122 957.9,-122 957.9,-86 1054.1,-86 1054.1,-122"/>
<text text-anchor="middle" x="1006" y="-99.8" font-family="Times,serif" font-size="14.00">FooterModule</text>
</g>
<!-- FooterModule&#45;&gt;AppModule -->
<g id="edge6" class="edge">
<title>FooterModule&#45;&gt;AppModule</title>
<path fill="none" stroke="black" d="M974.39,-122.11C974.39,-122.11 974.39,-140.99 974.39,-140.99"/>
<polygon fill="black" stroke="black" points="970.89,-140.99 974.39,-150.99 977.89,-140.99 970.89,-140.99"/>
</g>
<!-- HomeModule -->
<g id="node8" class="node">
<title>HomeModule</title>
<polygon fill="#8dd3c7" stroke="black" points="939.76,-122 936.76,-126 915.76,-126 912.76,-122 846.24,-122 846.24,-86 939.76,-86 939.76,-122"/>
<text text-anchor="middle" x="893" y="-99.8" font-family="Times,serif" font-size="14.00">HomeModule</text>
</g>
<!-- HomeModule&#45;&gt;AppModule -->
<g id="edge7" class="edge">
<title>HomeModule&#45;&gt;AppModule</title>
<path fill="none" stroke="black" d="M923.53,-122.11C923.53,-122.11 923.53,-140.99 923.53,-140.99"/>
<polygon fill="black" stroke="black" points="920.03,-140.99 923.53,-150.99 927.03,-140.99 920.03,-140.99"/>
</g>
<!-- MousePositionTrackerModule -->
<g id="node9" class="node">
<title>MousePositionTrackerModule</title>
<polygon fill="#8dd3c7" stroke="black" points="828.57,-122 825.57,-126 804.57,-126 801.57,-122 641.43,-122 641.43,-86 828.57,-86 828.57,-122"/>
<text text-anchor="middle" x="735" y="-99.8" font-family="Times,serif" font-size="14.00">MousePositionTrackerModule</text>
</g>
<!-- MousePositionTrackerModule&#45;&gt;AppModule -->
<g id="edge8" class="edge">
<title>MousePositionTrackerModule&#45;&gt;AppModule</title>
<path fill="none" stroke="black" d="M735,-122.24C735,-137.57 735,-157 735,-157 735,-157 897.23,-157 897.23,-157"/>
<polygon fill="black" stroke="black" points="897.23,-160.5 907.23,-157 897.23,-153.5 897.23,-160.5"/>
</g>
<!-- OrganTableSelectorModule -->
<g id="node10" class="node">
<title>OrganTableSelectorModule</title>
<polygon fill="#8dd3c7" stroke="black" points="623.27,-122 620.27,-126 599.27,-126 596.27,-122 450.73,-122 450.73,-86 623.27,-86 623.27,-122"/>
<text text-anchor="middle" x="537" y="-99.8" font-family="Times,serif" font-size="14.00">OrganTableSelectorModule</text>
</g>
<!-- OrganTableSelectorModule&#45;&gt;AppModule -->
<g id="edge9" class="edge">
<title>OrganTableSelectorModule&#45;&gt;AppModule</title>
<path fill="none" stroke="black" d="M537,-122.02C537,-139.37 537,-163 537,-163 537,-163 897.23,-163 897.23,-163"/>
<polygon fill="black" stroke="black" points="897.23,-166.5 907.23,-163 897.23,-159.5 897.23,-166.5"/>
</g>
<!-- RootModule -->
<g id="node11" class="node">
<title>RootModule</title>
<polygon fill="#8dd3c7" stroke="black" points="432.28,-122 429.28,-126 408.28,-126 405.28,-122 345.72,-122 345.72,-86 432.28,-86 432.28,-122"/>
<text text-anchor="middle" x="389" y="-99.8" font-family="Times,serif" font-size="14.00">RootModule</text>
</g>
<!-- RootModule&#45;&gt;AppModule -->
<g id="edge10" class="edge">
<title>RootModule&#45;&gt;AppModule</title>
<path fill="none" stroke="black" d="M389,-122.11C389,-141.34 389,-169 389,-169 389,-169 896.91,-169 896.91,-169"/>
<polygon fill="black" stroke="black" points="896.91,-172.5 906.91,-169 896.91,-165.5 896.91,-172.5"/>
</g>
<!-- TrackingPopupModule -->
<g id="node12" class="node">
<title>TrackingPopupModule</title>
<polygon fill="#8dd3c7" stroke="black" points="327.87,-122 324.87,-126 303.87,-126 300.87,-122 182.13,-122 182.13,-86 327.87,-86 327.87,-122"/>
<text text-anchor="middle" x="255" y="-99.8" font-family="Times,serif" font-size="14.00">TrackingPopupModule</text>
</g>
<!-- TrackingPopupModule&#45;&gt;AppModule -->
<g id="edge11" class="edge">
<title>TrackingPopupModule&#45;&gt;AppModule</title>
<path fill="none" stroke="black" d="M255,-122.28C255,-143.32 255,-175 255,-175 255,-175 897.15,-175 897.15,-175"/>
<polygon fill="black" stroke="black" points="897.15,-178.5 907.15,-175 897.15,-171.5 897.15,-178.5"/>
</g>
<!-- ConfigService -->
<g id="node14" class="node">
<title>ConfigService</title>
<ellipse fill="#fdb462" stroke="black" cx="91" cy="-104" rx="66.63" ry="18"/>
<text text-anchor="middle" x="91" y="-99.8" font-family="Times,serif" font-size="14.00">ConfigService</text>
</g>
<!-- ConfigService&#45;&gt;AppModule -->
<g id="edge13" class="edge">
<title>ConfigService&#45;&gt;AppModule</title>
<path fill="none" stroke="black" d="M91,-122.25C91,-145.02 91,-181 91,-181 91,-181 897.33,-181 897.33,-181"/>
<polygon fill="black" stroke="black" points="897.33,-184.5 907.33,-181 897.33,-177.5 897.33,-184.5"/>
</g>
</g>
</svg>
