<?xml version="1.0" encoding="UTF-8" standalone="no"?>
<!DOCTYPE svg PUBLIC "-//W3C//DTD SVG 1.1//EN"
 "http://www.w3.org/Graphics/SVG/1.1/DTD/svg11.dtd">
<!-- Generated by graphviz version 2.47.0 (20210316.0004)
 -->
<!-- Title: dependencies Pages: 1 -->
<svg width="504pt" height="284pt"
 viewBox="0.00 0.00 504.00 284.00" xmlns="http://www.w3.org/2000/svg" xmlns:xlink="http://www.w3.org/1999/xlink">
<g id="graph0" class="graph" transform="scale(1 1) rotate(0) translate(4 280)">
<title>dependencies</title>
<polygon fill="white" stroke="transparent" points="-4,4 -4,-280 500,-280 500,4 -4,4"/>
<text text-anchor="start" x="227.01" y="-42.4" font-family="Times-12" font-weight="bold" font-size="14.00">Legend</text>
<polygon fill="#ffffb3" stroke="transparent" points="14,-10 14,-30 34,-30 34,-10 14,-10"/>
<text text-anchor="start" x="37.63" y="-15.4" font-family="Times-12" font-size="14.00"> &#160;Declarations</text>
<polygon fill="#8dd3c7" stroke="transparent" points="127,-10 127,-30 147,-30 147,-10 127,-10"/>
<text text-anchor="start" x="150.73" y="-15.4" font-family="Times-12" font-size="14.00"> &#160;Module</text>
<polygon fill="#80b1d3" stroke="transparent" points="213,-10 213,-30 233,-30 233,-10 213,-10"/>
<text text-anchor="start" x="236.78" y="-15.4" font-family="Times-12" font-size="14.00"> &#160;Bootstrap</text>
<polygon fill="#fdb462" stroke="transparent" points="310,-10 310,-30 330,-30 330,-10 310,-10"/>
<text text-anchor="start" x="333.67" y="-15.4" font-family="Times-12" font-size="14.00"> &#160;Providers</text>
<polygon fill="#fb8072" stroke="transparent" points="406,-10 406,-30 426,-30 426,-10 406,-10"/>
<text text-anchor="start" x="429.73" y="-15.4" font-family="Times-12" font-size="14.00"> &#160;Exports</text>
<g id="clust1" class="cluster">
<title>cluster_IconsModule</title>
<polygon fill="none" stroke="black" stroke-dasharray="1,5" points="177,-70 177,-268 319,-268 319,-70 177,-70"/>
</g>
<g id="clust3" class="cluster">
<title>cluster_IconsModule_imports</title>
<polygon fill="none" stroke="black" points="187,-78 187,-130 309,-130 309,-78 187,-78"/>
</g>
<g id="clust4" class="cluster">
<title>cluster_IconsModule_exports</title>
<polygon fill="none" stroke="black" points="185,-208 185,-260 311,-260 311,-208 185,-208"/>
</g>
<!-- IconComponent -->
<g id="node1" class="node">
<title>IconComponent</title>
<polygon fill="#8dd3c7" stroke="black" points="301.21,-122 298.21,-126 277.21,-126 274.21,-122 194.79,-122 194.79,-86 301.21,-86 301.21,-122"/>
<text text-anchor="middle" x="248" y="-99.8" font-family="Times,serif" font-size="14.00">IconComponent</text>
</g>
<!-- IconsModule -->
<g id="node2" class="node">
<title>IconsModule</title>
<polygon fill="#8dd3c7" stroke="black" points="292.87,-187 289.87,-191 268.87,-191 265.87,-187 203.13,-187 203.13,-151 292.87,-151 292.87,-187"/>
<text text-anchor="middle" x="248" y="-164.8" font-family="Times,serif" font-size="14.00">IconsModule</text>
</g>
<!-- IconComponent&#45;&gt;IconsModule -->
<g id="edge1" class="edge">
<title>IconComponent&#45;&gt;IconsModule</title>
<path fill="none" stroke="black" d="M248,-122.11C248,-122.11 248,-140.99 248,-140.99"/>
<polygon fill="black" stroke="black" points="244.5,-140.99 248,-150.99 251.5,-140.99 244.5,-140.99"/>
</g>
<!-- IconComponent  -->
<g id="node3" class="node">
<title>IconComponent </title>
<polygon fill="#fb8072" stroke="black" points="302.71,-252 193.29,-252 193.29,-216 302.71,-216 302.71,-252"/>
<text text-anchor="middle" x="248" y="-229.8" font-family="Times,serif" font-size="14.00">IconComponent </text>
</g>
<!-- IconsModule&#45;&gt;IconComponent  -->
<g id="edge2" class="edge">
<title>IconsModule&#45;&gt;IconComponent </title>
<path fill="none" stroke="black" stroke-dasharray="5,2" d="M248,-187.11C248,-187.11 248,-205.99 248,-205.99"/>
<polygon fill="black" stroke="black" points="244.5,-205.99 248,-215.99 251.5,-205.99 244.5,-205.99"/>
</g>
</g>
</svg>
