<?xml version="1.0" encoding="UTF-8" standalone="no"?>
<!DOCTYPE svg PUBLIC "-//W3C//DTD SVG 1.1//EN"
 "http://www.w3.org/Graphics/SVG/1.1/DTD/svg11.dtd">
<!-- Generated by graphviz version 2.47.0 (20210316.0004)
 -->
<!-- Title: dependencies Pages: 1 -->
<svg width="508pt" height="284pt"
 viewBox="0.00 0.00 508.00 284.00" xmlns="http://www.w3.org/2000/svg" xmlns:xlink="http://www.w3.org/1999/xlink">
<g id="graph0" class="graph" transform="scale(1 1) rotate(0) translate(4 280)">
<title>dependencies</title>
<polygon fill="white" stroke="transparent" points="-4,4 -4,-280 504,-280 504,4 -4,4"/>
<text text-anchor="start" x="229.01" y="-42.4" font-family="Times-12" font-weight="bold" font-size="14.00">Legend</text>
<polygon fill="#ffffb3" stroke="transparent" points="16,-10 16,-30 36,-30 36,-10 16,-10"/>
<text text-anchor="start" x="39.63" y="-15.4" font-family="Times-12" font-size="14.00"> &#160;Declarations</text>
<polygon fill="#8dd3c7" stroke="transparent" points="129,-10 129,-30 149,-30 149,-10 129,-10"/>
<text text-anchor="start" x="152.73" y="-15.4" font-family="Times-12" font-size="14.00"> &#160;Module</text>
<polygon fill="#80b1d3" stroke="transparent" points="215,-10 215,-30 235,-30 235,-10 215,-10"/>
<text text-anchor="start" x="238.78" y="-15.4" font-family="Times-12" font-size="14.00"> &#160;Bootstrap</text>
<polygon fill="#fdb462" stroke="transparent" points="312,-10 312,-30 332,-30 332,-10 312,-10"/>
<text text-anchor="start" x="335.67" y="-15.4" font-family="Times-12" font-size="14.00"> &#160;Providers</text>
<polygon fill="#fb8072" stroke="transparent" points="408,-10 408,-30 428,-30 428,-10 408,-10"/>
<text text-anchor="start" x="431.73" y="-15.4" font-family="Times-12" font-size="14.00"> &#160;Exports</text>
<g id="clust1" class="cluster">
<title>cluster_MessageIndicatorModule</title>
<polygon fill="none" stroke="black" stroke-dasharray="1,5" points="8,-70 8,-268 492,-268 492,-70 8,-70"/>
</g>
<g id="clust4" class="cluster">
<title>cluster_MessageIndicatorModule_exports</title>
<polygon fill="none" stroke="black" points="16,-208 16,-260 484,-260 484,-208 16,-208"/>
</g>
<g id="clust3" class="cluster">
<title>cluster_MessageIndicatorModule_imports</title>
<polygon fill="none" stroke="black" points="20,-78 20,-130 480,-130 480,-78 20,-78"/>
</g>
<!-- DangerMessageIndicatorComponent -->
<g id="node1" class="node">
<title>DangerMessageIndicatorComponent</title>
<polygon fill="#8dd3c7" stroke="black" points="472.04,-122 469.04,-126 448.04,-126 445.04,-122 249.96,-122 249.96,-86 472.04,-86 472.04,-122"/>
<text text-anchor="middle" x="361" y="-99.8" font-family="Times,serif" font-size="14.00">DangerMessageIndicatorComponent</text>
</g>
<!-- MessageIndicatorModule -->
<g id="node3" class="node">
<title>MessageIndicatorModule</title>
<polygon fill="#8dd3c7" stroke="black" points="210.56,-187 207.56,-191 186.56,-191 183.56,-187 51.44,-187 51.44,-151 210.56,-151 210.56,-187"/>
<text text-anchor="middle" x="131" y="-164.8" font-family="Times,serif" font-size="14.00">MessageIndicatorModule</text>
</g>
<!-- DangerMessageIndicatorComponent&#45;&gt;MessageIndicatorModule -->
<g id="edge1" class="edge">
<title>DangerMessageIndicatorComponent&#45;&gt;MessageIndicatorModule</title>
<path fill="none" stroke="black" d="M398.09,-122.02C398.09,-139.37 398.09,-163 398.09,-163 398.09,-163 220.77,-163 220.77,-163"/>
<polygon fill="black" stroke="black" points="220.77,-159.5 210.77,-163 220.77,-166.5 220.77,-159.5"/>
</g>
<!-- InfoMessageIndicatorComponent -->
<g id="node2" class="node">
<title>InfoMessageIndicatorComponent</title>
<polygon fill="#8dd3c7" stroke="black" points="232.16,-122 229.16,-126 208.16,-126 205.16,-122 27.84,-122 27.84,-86 232.16,-86 232.16,-122"/>
<text text-anchor="middle" x="130" y="-99.8" font-family="Times,serif" font-size="14.00">InfoMessageIndicatorComponent</text>
</g>
<!-- InfoMessageIndicatorComponent&#45;&gt;MessageIndicatorModule -->
<g id="edge2" class="edge">
<title>InfoMessageIndicatorComponent&#45;&gt;MessageIndicatorModule</title>
<path fill="none" stroke="black" d="M131,-122.11C131,-122.11 131,-140.99 131,-140.99"/>
<polygon fill="black" stroke="black" points="127.5,-140.99 131,-150.99 134.5,-140.99 127.5,-140.99"/>
</g>
<!-- DangerMessageIndicatorComponent  -->
<g id="node4" class="node">
<title>DangerMessageIndicatorComponent </title>
<polygon fill="#fb8072" stroke="black" points="475.54,-252 250.46,-252 250.46,-216 475.54,-216 475.54,-252"/>
<text text-anchor="middle" x="363" y="-229.8" font-family="Times,serif" font-size="14.00">DangerMessageIndicatorComponent </text>
</g>
<!-- MessageIndicatorModule&#45;&gt;DangerMessageIndicatorComponent  -->
<g id="edge3" class="edge">
<title>MessageIndicatorModule&#45;&gt;DangerMessageIndicatorComponent </title>
<path fill="none" stroke="black" stroke-dasharray="5,2" d="M210.68,-175C263.89,-175 324.16,-175 324.16,-175 324.16,-175 324.16,-205.98 324.16,-205.98"/>
<polygon fill="black" stroke="black" points="320.66,-205.98 324.16,-215.98 327.66,-205.98 320.66,-205.98"/>
</g>
<!-- InfoMessageIndicatorComponent  -->
<g id="node5" class="node">
<title>InfoMessageIndicatorComponent </title>
<polygon fill="#fb8072" stroke="black" points="231.66,-252 24.34,-252 24.34,-216 231.66,-216 231.66,-252"/>
<text text-anchor="middle" x="128" y="-229.8" font-family="Times,serif" font-size="14.00">InfoMessageIndicatorComponent </text>
</g>
<!-- MessageIndicatorModule&#45;&gt;InfoMessageIndicatorComponent  -->
<g id="edge4" class="edge">
<title>MessageIndicatorModule&#45;&gt;InfoMessageIndicatorComponent </title>
<path fill="none" stroke="black" stroke-dasharray="5,2" d="M131,-187.11C131,-187.11 131,-205.99 131,-205.99"/>
<polygon fill="black" stroke="black" points="127.5,-205.99 131,-215.99 134.5,-205.99 127.5,-205.99"/>
</g>
</g>
</svg>
