<svg width="120" height="144" viewBox="0 0 120 144" fill="none" xmlns="http://www.w3.org/2000/svg">
<rect width="120" height="144" rx="4" fill="#FAFAFA"/>
<path d="M64.4598 61.225L64.5553 61.2457C64.7861 61.9875 65.2447 62.6367 65.9899 63.0927C66.8615 63.6261 68.0715 63.8623 69.6521 63.7526C70.5243 63.692 71.1656 63.372 71.601 62.8723C72.0254 62.3852 72.2102 61.7777 72.2795 61.2131C72.3683 60.4896 72.2757 59.7612 72.1822 59.2723C73.4627 59.0549 74.6849 58.5766 75.7709 57.8665C75.798 58.0564 75.7882 58.2504 75.7412 58.4379C75.6756 58.7 75.5397 58.9403 75.3472 59.1333L75.3472 59.1332L75.3404 59.1403C74.5764 59.9371 73.9899 60.8842 73.6191 61.9202C73.4628 62.2635 73.4095 62.6404 73.3927 62.986C73.3778 63.2911 73.3907 63.6073 73.402 63.8861C73.4038 63.9299 73.4056 63.9727 73.4072 64.0145C73.4196 64.3411 73.4224 64.5932 73.3913 64.7848C73.3764 64.8766 73.3568 64.9326 73.3402 64.9646C73.3265 64.9911 73.3179 64.9962 73.3166 64.9969L73.3165 64.997C73.1739 65.0874 73.0494 65.2112 72.9497 65.3161C72.9022 65.3661 72.8532 65.4197 72.8058 65.4715L72.7914 65.4872C72.7383 65.5452 72.6855 65.6027 72.6301 65.6607C72.409 65.8919 72.1617 66.1143 71.8375 66.2726C71.2203 66.5737 70.1619 66.7166 68.1963 65.7778L68.1963 65.7778L68.1908 65.7752C66.8204 65.1411 66.1817 64.7851 65.8307 64.5275C65.5734 64.3387 65.483 64.2171 65.3289 64.0096C65.289 63.9558 65.2448 63.8963 65.1922 63.8283C65.0019 63.582 64.6864 63.3957 64.4103 63.2553C64.1154 63.1054 63.7724 62.9637 63.4585 62.8351C63.442 62.8284 63.4256 62.8216 63.4092 62.8149C63.105 62.6903 62.8333 62.579 62.6199 62.4731C62.5081 62.4176 62.4281 62.3711 62.3758 62.3339C62.3702 62.3299 62.3652 62.3263 62.3609 62.323C62.2753 62.0494 62.2269 61.7662 62.2165 61.4806C62.9122 61.153 63.7013 61.0612 64.4598 61.225Z" fill="#212121" stroke="#212121"/>
<path d="M61.7144 61.4197V58.6357C62.9551 58.3284 66.1005 57.6052 67.4286 57.4064C69.8926 56.0867 73.0031 53.0857 72.8633 50.8621C72.7937 49.962 72.6356 49.0715 72.3915 48.2046L70.3993 44.6974L71.2206 36.5622C71.2206 36.5622 73.4574 32.3319 82.1948 33.0912C87.0179 33.0912 86.2664 43.3235 85.2354 44.9324C84.2044 47.1741 82.0201 46.1437 80.8842 47.1741C77.2844 51.7117 79.5212 53.2845 77.8785 55.0924C77.0988 55.9098 76.2762 56.6823 75.4146 57.4064C73.9216 58.2965 72.2892 58.9084 70.5916 59.2142C66.5724 59.5577 65.2617 59.8831 65.052 61.1305C65.0741 61.5116 65.2293 61.8714 65.4889 62.1429" fill="#212121"/>
<path d="M61.7144 61.4197V58.6357C62.9551 58.3284 66.1005 57.6052 67.4286 57.4064C69.8926 56.0867 73.0031 53.0857 72.8633 50.8621C72.7937 49.962 72.6356 49.0715 72.3915 48.2046L70.3993 44.6974L71.2206 36.5622C71.2206 36.5622 73.4574 32.3319 82.1948 33.0912C87.0179 33.0912 86.2664 43.3235 85.2354 44.9324C84.2044 47.1741 82.0201 46.1437 80.8842 47.1741C77.2844 51.7117 79.5212 53.2845 77.8785 55.0924C77.0988 55.9098 76.2762 56.6823 75.4146 57.4064C73.9216 58.2965 72.2892 58.9084 70.5916 59.2142C66.5724 59.5577 65.2617 59.8831 65.052 61.1305C65.0741 61.5116 65.2293 61.8714 65.4889 62.1429" stroke="white" stroke-width="0.25" stroke-miterlimit="10"/>
<path d="M60.5001 61.1708C59.64 60.6863 58.6289 60.5359 57.6633 60.7489L57.2732 60.4149C57.281 60.5202 57.281 60.626 57.2732 60.7313C56.9718 62.331 55.837 63.4913 52.5923 63.2627C49.3476 63.0342 50.5179 59.3425 50.6597 58.8503C49.1638 58.6922 47.7345 58.1533 46.5108 57.2858C46.3411 57.3224 46.1792 57.3878 46.032 57.4791C45.9157 57.8258 45.8972 58.1973 45.9785 58.5536C46.0597 58.9099 46.2377 59.2374 46.493 59.5008C47.1993 60.2602 47.7476 61.1503 48.1065 62.1201C48.603 63.1748 47.9292 64.9679 48.603 65.4074C49.2767 65.8469 50.0923 68.1849 54.1881 66.2336C56.9008 64.9679 56.9008 64.7394 57.3618 64.1417C57.8228 63.544 60.0037 63.0342 60.2165 62.5771C60.3955 62.1291 60.4916 61.6527 60.5001 61.1708V61.1708Z" fill="#212121"/>
<path d="M60.5 61.4017V58.6359C59.1803 58.3286 55.8995 57.6055 54.4882 57.4067C51.9405 56.087 48.6597 53.0862 48.8246 50.9351C48.9025 50.037 49.062 49.1477 49.3012 48.2777L51.3906 44.6985L50.5292 36.4734C50.5292 36.4734 48.2748 32.3337 39.0005 33.093C33.9234 33.093 34.7299 43.3246 35.7929 44.9335C36.8927 47.175 39.1654 46.1446 40.3568 47.175C44.1325 51.7124 41.7864 53.2851 43.5093 55.0928C44.3322 55.9116 45.2011 56.6841 46.112 57.4067C47.6708 58.2978 49.3773 58.9098 51.1524 59.2144C55.368 59.5398 56.651 59.8832 56.9809 61.1125C56.9432 61.4953 56.7827 61.8562 56.5227 62.1429" fill="#212121"/>
<path d="M60.5 61.4017V58.6359C59.1803 58.3286 55.8995 57.6055 54.4882 57.4067C51.9405 56.087 48.6597 53.0862 48.8246 50.9351C48.9025 50.037 49.062 49.1477 49.3012 48.2777L51.3906 44.6985L50.5292 36.4734C50.5292 36.4734 48.2748 32.3337 39.0005 33.093C33.9234 33.093 34.7299 43.3246 35.7929 44.9335C36.8927 47.175 39.1654 46.1446 40.3568 47.175C44.1325 51.7124 41.7864 53.2851 43.5093 55.0928C44.3322 55.9116 45.2011 56.6841 46.112 57.4067C47.6708 58.2978 49.3773 58.9098 51.1524 59.2144C55.368 59.5398 56.651 59.8832 56.9809 61.1125C56.9432 61.4953 56.7827 61.8562 56.5227 62.1429" stroke="white" stroke-width="0.25" stroke-miterlimit="10"/>
<path d="M61.3132 60.8781C60.9935 60.8774 60.6749 60.842 60.3631 60.7724V58.3583C60.2735 58.1292 60.0225 57.9882 59.6102 57.8825L59.3592 57.0014C59.2338 56.6138 58.929 56.4904 58.6243 56.3495C58.3166 56.247 58.0395 56.0715 57.8176 55.8384C57.7664 55.7995 57.7263 55.7482 57.7012 55.6895C57.6761 55.6309 57.6668 55.5668 57.6742 55.5036C57.6742 55.2217 58.194 54.9221 58.8752 54.693C59.0186 54.693 59.5026 54.464 59.5026 54.0939C59.5026 53.7239 59.2517 53.6534 59.1083 53.6005L58.4091 53.4596C57.9721 53.4164 57.5401 53.3338 57.1184 53.2129C56.7599 53.0543 55.9532 52.7018 55.0748 50.693C54.1964 48.6842 53.569 48.1203 52.8161 47.9088H52.5651C52.4793 47.91 52.3947 47.9295 52.3173 47.966C52.24 48.0026 52.1716 48.0552 52.117 48.1203C52.0094 48.2436 51.866 48.3846 51.3282 48.4375H51.1489C50.6127 48.43 50.0923 48.2575 49.661 47.9441C49.7517 47.5702 49.9367 47.2248 50.1988 46.9397C50.6828 46.411 50.4319 45.4242 50.1092 44.1555C49.7474 43.0147 49.566 41.8261 49.5714 40.6312C49.8204 39.3205 50.2996 38.0623 50.9876 36.9131C51.165 36.7678 51.3846 36.6815 51.615 36.6664C51.7206 36.6379 51.8321 36.6379 51.9377 36.6664L52.1887 36.8779C53.1255 37.8368 54.2989 38.541 55.5947 38.9219C57.8739 38.6636 60.1662 38.5342 62.4605 38.5343C63.7917 38.4454 65.1289 38.5644 66.4222 38.8867C66.5325 38.9449 66.6557 38.9752 66.7808 38.9748C67.5695 38.9748 68.7348 38.0056 69.8641 37.0365L70.2764 36.6664C70.3816 36.635 70.4939 36.635 70.5991 36.6664C70.8534 36.7069 71.0834 36.8388 71.2445 37.0365C71.9113 38.1874 72.3836 39.4372 72.6427 40.7369C72.6397 41.9312 72.4585 43.1186 72.1049 44.2612C71.7822 45.5299 71.5313 46.5167 71.9974 47.0454C72.2654 47.3291 72.4565 47.6745 72.5531 48.0498C72.1191 48.3581 71.6004 48.5301 71.0652 48.5432H70.8321C70.3123 48.5432 70.1689 48.3494 70.0613 48.226C70.0052 48.1626 69.9365 48.1112 69.8594 48.0748C69.7824 48.0384 69.6986 48.0179 69.6132 48.0146H69.3443C68.5913 48.226 68.0177 48.7194 67.1035 50.7987C66.1892 52.8781 65.5439 53.0719 65.1136 53.2833C64.6399 53.4521 64.1457 53.5587 63.6437 53.6005C63.1776 53.6005 63.0879 53.6005 62.9983 53.7415C62.9087 53.8825 62.6577 54.0058 62.7115 54.2878C62.7653 54.5697 62.9445 54.6578 63.3031 54.7988C63.9663 55.0279 64.4324 55.3274 64.4862 55.6094C64.54 55.8913 64.4862 55.768 64.3607 55.9618C64.1334 56.1843 63.8575 56.353 63.554 56.4552C63.2493 56.5962 62.9445 56.7195 62.819 57.1072C62.6936 57.4948 62.6039 57.812 62.5681 57.9882C62.102 58.1116 61.8869 58.2526 61.8689 58.4464V60.9134C61.6833 60.9421 61.4935 60.9301 61.3132 60.8781V60.8781Z" fill="#212121"/>
<path d="M70.2745 37.0778C70.4357 37.1057 70.5833 37.1886 70.6939 37.3134C71.3319 38.4364 71.7866 39.6609 72.0396 40.9376C72.0478 42.1652 71.8769 43.3871 71.5328 44.5618C71.2007 45.9209 70.9386 47.0082 71.5328 47.6243C71.7289 47.8567 71.8775 48.1279 71.9697 48.4216C71.6132 48.6534 71.202 48.7788 70.7813 48.784H70.589C70.1521 48.784 70.0473 48.6391 69.9599 48.5303C69.8861 48.4414 69.795 48.3696 69.6926 48.3196C69.5902 48.2696 69.4788 48.2426 69.3657 48.2404C69.2615 48.2234 69.1553 48.2234 69.0511 48.2404C68.2472 48.476 67.6355 49.0196 66.7093 51.2304C65.9403 53.0425 65.2762 53.4593 64.8043 53.713C64.3898 53.8477 63.9618 53.9328 63.5286 53.9667C63.0218 53.9667 62.8994 53.9667 62.7771 54.1841C62.6546 54.2629 62.5565 54.3765 62.4945 54.5114C62.4325 54.6464 62.4093 54.797 62.4276 54.9452C62.4276 55.3983 62.9868 55.5795 63.1441 55.6338C63.545 55.7329 63.9021 55.9691 64.1577 56.3043C64.1577 56.3043 64.1577 56.4312 64.1577 56.4674C63.9533 56.6747 63.7092 56.8352 63.4412 56.9385C63.2514 56.9951 63.0768 57.0965 62.9313 57.2349C62.7857 57.3732 62.6731 57.5447 62.6023 57.7359C62.6023 57.8446 62.4625 58.2251 62.3926 58.5332C62.3227 58.8413 61.6936 58.805 61.6586 59.2037V61.5594H61.3615C61.1289 61.58 60.895 61.58 60.6624 61.5594V59.2581V59.1493V59.0406C60.5751 58.8594 60.3304 58.7144 59.9284 58.5876L59.7187 57.7902C59.648 57.5991 59.5353 57.4276 59.3898 57.2892C59.2442 57.1509 59.0697 57.0494 58.8799 56.9929C58.6099 56.8937 58.365 56.7327 58.1633 56.5218C58.1177 56.4789 58.0869 56.4215 58.0759 56.3587C58.3405 56.0253 58.7024 55.79 59.1071 55.6882C59.6139 55.507 59.8585 55.2352 59.876 54.8727C59.8653 54.7124 59.8102 54.5586 59.7171 54.43C59.6241 54.3014 59.4972 54.2034 59.3517 54.1479C59.1046 54.0825 58.8535 54.0341 58.6002 54.0029C58.1972 53.958 57.7992 53.8731 57.4118 53.7492C57.0973 53.6043 56.3633 53.26 55.5244 51.2848C54.6855 49.3096 54.004 48.5303 53.2 48.2948C53.0957 48.2789 52.9898 48.2789 52.8855 48.2948C52.7723 48.297 52.6609 48.324 52.5585 48.374C52.4561 48.4239 52.365 48.4957 52.2913 48.5847C52.2039 48.6934 52.099 48.784 51.6621 48.8384H51.3126C50.8927 48.8278 50.4828 48.7028 50.1242 48.476C50.2029 48.1525 50.3662 47.8577 50.5961 47.6243C51.1378 47.0082 50.8757 45.9209 50.5961 44.5618C50.2575 43.4288 50.0808 42.2505 50.0718 41.0644C50.3116 39.7866 50.7609 38.5608 51.4 37.4402C51.453 37.3627 51.5206 37.297 51.5987 37.2472C51.6767 37.1974 51.7637 37.1644 51.8544 37.1503C51.9106 37.128 51.9729 37.128 52.0291 37.1503L52.2738 37.3496C53.2244 38.3894 54.4342 39.1358 55.7691 39.506H55.839C58.0138 39.2367 60.2023 39.1036 62.3926 39.1074C63.6549 38.9892 64.9273 39.1058 66.15 39.4517C66.2906 39.526 66.4466 39.5634 66.6044 39.5604C67.4433 39.5604 68.6142 38.5456 69.7502 37.5127C69.8779 37.3847 70.0121 37.2637 70.1521 37.1503C70.1795 37.1372 70.2093 37.1305 70.2395 37.1305C70.2697 37.1305 70.2995 37.1372 70.3269 37.1503L70.2745 37.0778ZM70.3269 36.6972C70.1597 36.7008 69.9989 36.7649 69.8725 36.8785C69.3133 37.3496 67.5132 39.1798 66.6044 39.1798C66.5239 39.1986 66.4403 39.1986 66.3597 39.1798C65.0524 38.8048 63.694 38.6578 62.3402 38.7449C60.1326 38.7466 57.927 38.8797 55.7341 39.1436V39.1436C54.8079 39.1436 52.9029 37.3315 52.2388 36.8966C52.111 36.7856 51.9511 36.7218 51.7845 36.7154C51.4752 36.7537 51.1928 36.9164 50.998 37.1684C50.3039 38.3812 49.8245 39.7129 49.5824 41.1007C49.4251 43.7101 50.998 46.537 50.2465 47.4068C49.9373 47.7726 49.7264 48.2164 49.6349 48.6934C50.1289 49.1084 50.7467 49.3326 51.3825 49.3277H51.6272C52.5884 49.2189 52.4486 48.784 52.7981 48.784H52.9903C53.602 48.9653 54.1438 49.382 55.0351 51.5203C55.9264 53.6586 56.7827 54.0573 57.1497 54.2204C57.5167 54.3835 58.8973 54.5466 59.0896 54.619C59.2818 54.6915 59.6488 55.0358 58.8624 55.3258C58.0759 55.6157 57.1147 56.1956 57.7614 56.8842C58.408 57.5728 59.0371 57.4097 59.2119 57.9896C59.3867 58.5694 59.4915 59.0225 59.4915 59.0225C60.1207 59.1674 60.1906 59.3124 60.1906 59.3124V61.9762C60.568 62.0748 60.9549 62.1295 61.344 62.1393C61.5987 62.1582 61.8532 62.1017 62.078 61.9762V59.2399C62.078 59.2399 62.078 59.095 62.7247 58.95C62.7247 58.95 62.847 58.4788 63.0043 57.9171C63.1616 57.3553 63.8431 57.5003 64.4548 56.8117C65.0665 56.1231 64.1228 55.5432 63.3363 55.2533C62.5499 54.9633 63.0392 54.619 63.1091 54.5466C63.771 54.4696 64.4257 54.3363 65.0665 54.1479C65.4859 53.9123 66.2724 53.5861 67.1637 51.4478C68.055 49.3096 68.5967 48.8928 69.2084 48.7116H69.4181C69.7676 48.7116 69.6278 49.1465 70.589 49.2552H70.8337C71.4688 49.2557 72.0852 49.032 72.5813 48.6209C72.4818 48.1467 72.2718 47.705 71.9697 47.3343C71.2182 46.5008 72.7736 43.7101 72.6338 41.0282C72.3917 39.6404 71.9123 38.3087 71.2182 37.0959C71.0234 36.8439 70.741 36.6812 70.4317 36.6429L70.3269 36.6972Z" fill="white"/>
<path d="M50.7855 36.6803C49.94 38.5199 49.6009 40.5261 49.7986 42.5179C49.9597 43.5469 50.3021 44.5385 50.5841 45.6237C50.6454 46.1919 50.5804 46.7656 50.3934 47.3095C50.2063 47.8534 49.901 48.3559 49.4965 48.7857H49.3756C49.9461 47.9181 50.1472 46.8839 49.9396 45.8857C49.4644 44.8887 49.0607 43.8637 48.7311 42.8172C48.1268 40.7404 47.9254 37.4661 50.7452 36.6429V36.7739L50.7855 36.6803Z" fill="white"/>
<path d="M71.4287 36.6429C72.8626 37.3827 72.8003 40.3586 72.3846 42.1744C72.0742 42.9726 71.8884 43.8809 71.8432 44.8211C71.7979 45.7613 71.8946 46.7052 72.1249 47.5715H72.0521C71.7188 46.7256 71.5157 45.7628 71.4599 44.7637C71.5373 43.8334 71.6659 42.9162 71.8443 42.0231C72.1457 40.14 71.6469 38.4755 71.4287 36.7269V36.6429Z" fill="white"/>
<path d="M17.6343 104V93.8182H21.0696C21.7325 93.8182 22.2844 93.9342 22.7252 94.1662C23.1693 94.3982 23.5024 94.7147 23.7245 95.1158C23.9465 95.5168 24.0576 95.9725 24.0576 96.483C24.0576 96.9072 23.9863 97.2701 23.8438 97.5717C23.7013 97.8733 23.5074 98.117 23.2621 98.3026C23.0168 98.4882 22.7434 98.6224 22.4418 98.7053V98.7848C22.7699 98.808 23.0881 98.924 23.3963 99.1328C23.7046 99.3383 23.9581 99.6267 24.157 99.9979C24.3559 100.369 24.4553 100.813 24.4553 101.33C24.4553 101.844 24.3409 102.303 24.1122 102.707C23.8836 103.108 23.5322 103.425 23.0583 103.657C22.5876 103.886 21.9877 104 21.2586 104H17.6343ZM18.564 103.165H21.2586C22.0441 103.165 22.6241 102.991 22.9986 102.643C23.3765 102.295 23.5654 101.857 23.5654 101.33C23.5654 100.942 23.4709 100.591 23.282 100.276C23.0964 99.9581 22.8329 99.7062 22.4915 99.5206C22.1534 99.335 21.7557 99.2422 21.2983 99.2422H18.564V103.165ZM18.564 98.4169H21.1542C21.5552 98.4169 21.9065 98.334 22.2081 98.1683C22.5097 98.0026 22.7451 97.7739 22.9141 97.4822C23.0831 97.1906 23.1676 96.8575 23.1676 96.483C23.1676 95.9427 22.992 95.5036 22.6407 95.1655C22.2893 94.8241 21.7657 94.6534 21.0696 94.6534H18.564V98.4169ZM29.5528 104.159C28.8932 104.159 28.3099 103.992 27.8028 103.657C27.299 103.322 26.9046 102.86 26.6196 102.27C26.3345 101.677 26.192 100.992 26.192 100.217C26.192 99.4344 26.3345 98.7467 26.6196 98.1534C26.9046 97.5568 27.299 97.0928 27.8028 96.7614C28.3099 96.4266 28.8932 96.2592 29.5528 96.2592C30.2124 96.2592 30.7941 96.4266 31.2978 96.7614C31.8016 97.0961 32.196 97.5601 32.4811 98.1534C32.7694 98.7467 32.9136 99.4344 32.9136 100.217C32.9136 100.992 32.7711 101.677 32.486 102.27C32.201 102.86 31.8049 103.322 31.2978 103.657C30.7941 103.992 30.2124 104.159 29.5528 104.159ZM29.5528 103.349C30.0831 103.349 30.5322 103.206 30.9001 102.921C31.268 102.636 31.5464 102.257 31.7353 101.783C31.9276 101.309 32.0237 100.787 32.0237 100.217C32.0237 99.6465 31.9276 99.1229 31.7353 98.6456C31.5464 98.1683 31.268 97.7855 30.9001 97.4972C30.5322 97.2088 30.0831 97.0646 29.5528 97.0646C29.0258 97.0646 28.5767 97.2088 28.2055 97.4972C27.8376 97.7855 27.5575 98.1683 27.3653 98.6456C27.1764 99.1229 27.0819 99.6465 27.0819 100.217C27.0819 100.787 27.1764 101.309 27.3653 101.783C27.5575 102.257 27.8376 102.636 28.2055 102.921C28.5734 103.206 29.0225 103.349 29.5528 103.349ZM35.8112 99.2273V104H34.9263V96.3636H35.7863V97.5618H35.8659C36.0449 97.1707 36.3233 96.8575 36.7011 96.6222C37.0823 96.3835 37.5529 96.2642 38.113 96.2642C38.6268 96.2642 39.0775 96.3719 39.4653 96.5874C39.8564 96.7995 40.1597 97.1127 40.3751 97.527C40.5939 97.9413 40.7032 98.45 40.7032 99.0533V104H39.8183V99.108C39.8183 98.4815 39.6426 97.986 39.2913 97.6214C38.9433 97.2569 38.476 97.0746 37.8893 97.0746C37.4883 97.0746 37.132 97.1607 36.8204 97.3331C36.5089 97.5054 36.262 97.754 36.0797 98.0788C35.9007 98.4003 35.8112 98.7831 35.8112 99.2273ZM46.191 104.159C45.4784 104.159 44.862 103.993 44.3416 103.662C43.8212 103.327 43.4185 102.865 43.1335 102.275C42.8518 101.682 42.7109 100.999 42.7109 100.227C42.7109 99.4576 42.8518 98.7749 43.1335 98.1783C43.4185 97.5784 43.8113 97.1094 44.3118 96.7713C44.8156 96.4299 45.3972 96.2592 46.0568 96.2592C46.4711 96.2592 46.8705 96.3355 47.255 96.4879C47.6394 96.6371 47.9841 96.8674 48.289 97.179C48.5973 97.4872 48.8409 97.8767 49.0199 98.3473C49.1988 98.8146 49.2883 99.3681 49.2883 100.008V100.445H43.3224V99.6648H48.3835C48.3835 99.1742 48.2841 98.7334 48.0852 98.3423C47.8897 97.9479 47.6162 97.6364 47.2649 97.4077C46.9169 97.179 46.5142 97.0646 46.0568 97.0646C45.5729 97.0646 45.147 97.1939 44.7791 97.4524C44.4112 97.7109 44.1229 98.0523 43.914 98.4766C43.7086 98.9008 43.6041 99.3648 43.6008 99.8686V100.336C43.6008 100.942 43.7052 101.473 43.914 101.927C44.1262 102.378 44.4261 102.727 44.8139 102.976C45.2017 103.224 45.6607 103.349 46.191 103.349C46.5523 103.349 46.8688 103.292 47.1406 103.18C47.4157 103.067 47.6461 102.916 47.8317 102.727C48.0206 102.535 48.1631 102.325 48.2592 102.096L49.0994 102.369C48.9834 102.691 48.7928 102.987 48.5277 103.259C48.2658 103.531 47.9377 103.75 47.5433 103.915C47.1522 104.078 46.7015 104.159 46.191 104.159ZM55.4999 93.8182H56.5738L60.2676 102.688H60.3571L64.051 93.8182H65.1249V104H64.2499V95.782H64.1703L60.735 104H59.8898L56.4544 95.782H56.3749V104H55.4999V93.8182ZM69.8508 104.174C69.3901 104.174 68.9692 104.085 68.588 103.906C68.2068 103.723 67.9036 103.461 67.6782 103.12C67.4528 102.775 67.3401 102.358 67.3401 101.867C67.3401 101.489 67.4114 101.171 67.5539 100.913C67.6964 100.654 67.8986 100.442 68.1604 100.276C68.4223 100.111 68.7322 99.9796 69.0901 99.8835C69.4481 99.7874 69.8425 99.7128 70.2734 99.6598C70.7009 99.6068 71.0622 99.5604 71.3572 99.5206C71.6555 99.4808 71.8825 99.4179 72.0383 99.3317C72.1941 99.2455 72.2719 99.1063 72.2719 98.9141V98.7351C72.2719 98.2147 72.1162 97.8054 71.8046 97.5071C71.4964 97.2055 71.0523 97.0547 70.4722 97.0547C69.922 97.0547 69.4729 97.1757 69.1249 97.4176C68.7802 97.6596 68.5383 97.9446 68.3991 98.2727L67.5589 97.9695C67.7312 97.5518 67.9699 97.2187 68.2748 96.9702C68.5797 96.7183 68.9211 96.5376 69.2989 96.4283C69.6768 96.3156 70.0596 96.2592 70.4474 96.2592C70.739 96.2592 71.0423 96.2973 71.3572 96.3736C71.6754 96.4498 71.9703 96.5824 72.2421 96.7713C72.5139 96.9569 72.7343 97.2171 72.9033 97.5518C73.0724 97.8833 73.1569 98.3042 73.1569 98.8146V104H72.2719V102.792H72.2173C72.1112 103.017 71.9538 103.236 71.745 103.448C71.5362 103.66 71.2743 103.834 70.9594 103.97C70.6446 104.106 70.275 104.174 69.8508 104.174ZM69.9701 103.364C70.4407 103.364 70.8484 103.259 71.1931 103.05C71.5378 102.842 71.803 102.565 71.9886 102.22C72.1775 101.872 72.2719 101.489 72.2719 101.072V99.968C72.2057 100.031 72.0946 100.087 71.9389 100.137C71.7864 100.187 71.6091 100.232 71.4069 100.271C71.208 100.308 71.0092 100.339 70.8103 100.366C70.6114 100.392 70.4325 100.415 70.2734 100.435C69.8425 100.488 69.4746 100.571 69.1697 100.684C68.8648 100.797 68.6311 100.952 68.4687 101.151C68.3063 101.347 68.2251 101.599 68.2251 101.907C68.2251 102.371 68.3908 102.731 68.7222 102.986C69.0537 103.238 69.4696 103.364 69.9701 103.364ZM75.5809 104V96.3636H76.441V97.5369H76.5057C76.6581 97.1525 76.9233 96.8426 77.3011 96.6072C77.6823 96.3686 78.1131 96.2493 78.5937 96.2493C78.6666 96.2493 78.7478 96.2509 78.8373 96.2543C78.9268 96.2576 79.0014 96.2609 79.0611 96.2642V97.1641C79.0213 97.1574 78.9517 97.1475 78.8523 97.1342C78.7528 97.121 78.6451 97.1143 78.5291 97.1143C78.1314 97.1143 77.7767 97.1989 77.4652 97.3679C77.1569 97.5336 76.9133 97.764 76.7344 98.0589C76.5554 98.3539 76.4659 98.6903 76.4659 99.0682V104H75.5809ZM80.6412 104V96.3636H81.5013V97.5369H81.5659C81.7184 97.1525 81.9835 96.8426 82.3613 96.6072C82.7425 96.3686 83.1734 96.2493 83.654 96.2493C83.7269 96.2493 83.8081 96.2509 83.8976 96.2543C83.9871 96.2576 84.0616 96.2609 84.1213 96.2642V97.1641C84.0815 97.1574 84.0119 97.1475 83.9125 97.1342C83.8131 97.121 83.7053 97.1143 83.5893 97.1143C83.1916 97.1143 82.837 97.1989 82.5254 97.3679C82.2172 97.5336 81.9736 97.764 81.7946 98.0589C81.6156 98.3539 81.5261 98.6903 81.5261 99.0682V104H80.6412ZM88.437 104.159C87.7775 104.159 87.1941 103.992 86.687 103.657C86.1832 103.322 85.7888 102.86 85.5038 102.27C85.2187 101.677 85.0762 100.992 85.0762 100.217C85.0762 99.4344 85.2187 98.7467 85.5038 98.1534C85.7888 97.5568 86.1832 97.0928 86.687 96.7614C87.1941 96.4266 87.7775 96.2592 88.437 96.2592C89.0966 96.2592 89.6783 96.4266 90.1821 96.7614C90.6858 97.0961 91.0803 97.5601 91.3653 98.1534C91.6536 98.7467 91.7978 99.4344 91.7978 100.217C91.7978 100.992 91.6553 101.677 91.3703 102.27C91.0852 102.86 90.6892 103.322 90.1821 103.657C89.6783 103.992 89.0966 104.159 88.437 104.159ZM88.437 103.349C88.9673 103.349 89.4164 103.206 89.7843 102.921C90.1522 102.636 90.4306 102.257 90.6196 101.783C90.8118 101.309 90.9079 100.787 90.9079 100.217C90.9079 99.6465 90.8118 99.1229 90.6196 98.6456C90.4306 98.1683 90.1522 97.7855 89.7843 97.4972C89.4164 97.2088 88.9673 97.0646 88.437 97.0646C87.91 97.0646 87.4609 97.2088 87.0897 97.4972C86.7218 97.7855 86.4418 98.1683 86.2495 98.6456C86.0606 99.1229 85.9661 99.6465 85.9661 100.217C85.9661 100.787 86.0606 101.309 86.2495 101.783C86.4418 102.257 86.7218 102.636 87.0897 102.921C87.4576 103.206 87.9067 103.349 88.437 103.349ZM95.246 104L92.9392 96.3636H93.8739L95.6835 102.663H95.7482L97.5528 96.3636H98.4925L100.282 102.648H100.352L102.162 96.3636H103.096L100.789 104H99.8746L98.0649 97.7408H97.9705L96.1608 104H95.246ZM16.9465 122.139C16.3201 122.139 15.7732 122.018 15.3059 121.776C14.8386 121.531 14.4757 121.198 14.2171 120.777C13.9586 120.356 13.8294 119.88 13.8294 119.35C13.8294 118.966 13.9072 118.619 14.063 118.311C14.2221 118 14.4508 117.705 14.7491 117.426C15.0474 117.144 15.4087 116.853 15.8329 116.551L17.3095 115.452C17.6608 115.201 17.9276 114.954 18.1099 114.712C18.2955 114.466 18.3883 114.166 18.3883 113.812C18.3883 113.47 18.259 113.165 18.0005 112.897C17.7453 112.625 17.4139 112.489 17.0062 112.489C16.7212 112.489 16.466 112.561 16.2406 112.703C16.0185 112.846 15.8412 113.031 15.7086 113.26C15.5794 113.485 15.5147 113.722 15.5147 113.971C15.5147 114.203 15.5744 114.437 15.6937 114.672C15.813 114.904 15.9738 115.149 16.1759 115.408C16.3781 115.663 16.6035 115.945 16.8521 116.253L21.5055 122H20.4316L16.3748 117.023C16.0334 116.606 15.7302 116.233 15.465 115.905C15.1999 115.573 14.9911 115.255 14.8386 114.95C14.6861 114.642 14.6099 114.312 14.6099 113.961C14.6099 113.527 14.711 113.141 14.9132 112.803C15.1153 112.461 15.3937 112.193 15.7484 111.997C16.1063 111.802 16.5157 111.704 16.9764 111.704C17.447 111.704 17.8547 111.8 18.1994 111.992C18.5474 112.184 18.8159 112.44 19.0048 112.758C19.197 113.076 19.2931 113.427 19.2931 113.812C19.2931 114.272 19.1738 114.68 18.9352 115.035C18.6999 115.389 18.3568 115.737 17.9061 116.079L16.0566 117.461C15.5495 117.842 15.2015 118.195 15.0126 118.52C14.8237 118.845 14.7292 119.121 14.7292 119.35C14.7292 119.708 14.822 120.038 15.0076 120.339C15.1932 120.641 15.4501 120.883 15.7782 121.065C16.1097 121.248 16.4892 121.34 16.9167 121.344C17.341 121.34 17.7403 121.256 18.1149 121.09C18.4894 120.921 18.8241 120.681 19.1191 120.369C19.4174 120.058 19.6561 119.685 19.835 119.251C20.0173 118.817 20.1234 118.333 20.1532 117.799L21.0133 117.809C21 118.356 20.9255 118.82 20.7896 119.201C20.657 119.579 20.5045 119.89 20.3322 120.136C20.1598 120.381 20.009 120.578 19.8798 120.727C19.8433 120.777 19.8069 120.827 19.7704 120.876C19.7339 120.926 19.6958 120.976 19.6561 121.026C19.3246 121.39 18.912 121.667 18.4181 121.856C17.9276 122.045 17.4371 122.139 16.9465 122.139ZM27.1789 122V111.818H30.6142C31.2771 111.818 31.829 111.934 32.2698 112.166C32.7139 112.398 33.047 112.715 33.2691 113.116C33.4911 113.517 33.6022 113.973 33.6022 114.483C33.6022 114.907 33.5309 115.27 33.3884 115.572C33.2459 115.873 33.052 116.117 32.8067 116.303C32.5614 116.488 32.288 116.622 31.9864 116.705V116.785C32.3145 116.808 32.6327 116.924 32.9409 117.133C33.2492 117.338 33.5027 117.627 33.7016 117.998C33.9005 118.369 33.9999 118.813 33.9999 119.33C33.9999 119.844 33.8855 120.303 33.6569 120.707C33.4282 121.108 33.0768 121.425 32.6029 121.657C32.1322 121.886 31.5323 122 30.8032 122H27.1789ZM28.1086 121.165H30.8032C31.5887 121.165 32.1687 120.991 32.5432 120.643C32.9211 120.295 33.11 119.857 33.11 119.33C33.11 118.942 33.0155 118.591 32.8266 118.276C32.641 117.958 32.3775 117.706 32.0361 117.521C31.698 117.335 31.3003 117.242 30.8429 117.242H28.1086V121.165ZM28.1086 116.417H30.6988C31.0998 116.417 31.4511 116.334 31.7527 116.168C32.0543 116.003 32.2897 115.774 32.4587 115.482C32.6277 115.191 32.7123 114.857 32.7123 114.483C32.7123 113.943 32.5366 113.504 32.1853 113.165C31.8339 112.824 31.3103 112.653 30.6142 112.653H28.1086V116.417ZM37.0143 111.818V122H36.1294V111.818H37.0143ZM42.394 122.159C41.7344 122.159 41.1511 121.992 40.644 121.657C40.1402 121.322 39.7458 120.86 39.4607 120.27C39.1757 119.677 39.0332 118.992 39.0332 118.217C39.0332 117.434 39.1757 116.747 39.4607 116.153C39.7458 115.557 40.1402 115.093 40.644 114.761C41.1511 114.427 41.7344 114.259 42.394 114.259C43.0535 114.259 43.6352 114.427 44.139 114.761C44.6428 115.096 45.0372 115.56 45.3222 116.153C45.6106 116.747 45.7548 117.434 45.7548 118.217C45.7548 118.992 45.6123 119.677 45.3272 120.27C45.0422 120.86 44.6461 121.322 44.139 121.657C43.6352 121.992 43.0535 122.159 42.394 122.159ZM42.394 121.349C42.9243 121.349 43.3734 121.206 43.7413 120.921C44.1092 120.636 44.3876 120.257 44.5765 119.783C44.7687 119.309 44.8649 118.787 44.8649 118.217C44.8649 117.647 44.7687 117.123 44.5765 116.646C44.3876 116.168 44.1092 115.786 43.7413 115.497C43.3734 115.209 42.9243 115.065 42.394 115.065C41.867 115.065 41.4179 115.209 41.0467 115.497C40.6788 115.786 40.3987 116.168 40.2065 116.646C40.0176 117.123 39.9231 117.647 39.9231 118.217C39.9231 118.787 40.0176 119.309 40.2065 119.783C40.3987 120.257 40.6788 120.636 41.0467 120.921C41.4146 121.206 41.8637 121.349 42.394 121.349ZM50.7355 122.159C50.0759 122.159 49.4926 121.992 48.9855 121.657C48.4817 121.322 48.0873 120.86 47.8022 120.27C47.5172 119.677 47.3747 118.992 47.3747 118.217C47.3747 117.434 47.5172 116.747 47.8022 116.153C48.0873 115.557 48.4817 115.093 48.9855 114.761C49.4926 114.427 50.0759 114.259 50.7355 114.259C51.395 114.259 51.9767 114.427 52.4805 114.761C52.9843 115.096 53.3787 115.56 53.6637 116.153C53.9521 116.747 54.0963 117.434 54.0963 118.217C54.0963 118.992 53.9537 119.677 53.6687 120.27C53.3837 120.86 52.9876 121.322 52.4805 121.657C51.9767 121.992 51.395 122.159 50.7355 122.159ZM50.7355 121.349C51.2658 121.349 51.7149 121.206 52.0828 120.921C52.4507 120.636 52.7291 120.257 52.918 119.783C53.1102 119.309 53.2063 118.787 53.2063 118.217C53.2063 117.647 53.1102 117.123 52.918 116.646C52.7291 116.168 52.4507 115.786 52.0828 115.497C51.7149 115.209 51.2658 115.065 50.7355 115.065C50.2085 115.065 49.7594 115.209 49.3882 115.497C49.0203 115.786 48.7402 116.168 48.548 116.646C48.359 117.123 48.2646 117.647 48.2646 118.217C48.2646 118.787 48.359 119.309 48.548 119.783C48.7402 120.257 49.0203 120.636 49.3882 120.921C49.7561 121.206 50.2052 121.349 50.7355 121.349ZM58.8582 122.159C58.2318 122.159 57.6832 121.993 57.2126 121.662C56.742 121.33 56.3741 120.868 56.1089 120.275C55.8471 119.682 55.7162 118.991 55.7162 118.202C55.7162 117.416 55.8471 116.728 56.1089 116.138C56.3741 115.545 56.7436 115.085 57.2176 114.756C57.6915 114.425 58.2434 114.259 58.8731 114.259C59.3371 114.259 59.7233 114.342 60.0315 114.508C60.3397 114.67 60.5867 114.872 60.7723 115.114C60.9579 115.356 61.102 115.592 61.2048 115.82H61.2843V111.818H62.1742V122H61.3092V120.583H61.2048C61.102 120.815 60.9562 121.054 60.7673 121.299C60.5784 121.541 60.3281 121.745 60.0166 121.911C59.7083 122.076 59.3222 122.159 58.8582 122.159ZM58.9626 121.349C59.4564 121.349 59.8774 121.214 60.2254 120.946C60.5734 120.674 60.8385 120.301 61.0208 119.827C61.2064 119.35 61.2992 118.803 61.2992 118.187C61.2992 117.577 61.2081 117.038 61.0258 116.571C60.8435 116.1 60.5784 115.732 60.2304 115.467C59.8823 115.199 59.4598 115.065 58.9626 115.065C58.4522 115.065 58.0213 115.204 57.67 115.482C57.322 115.757 57.0568 116.13 56.8745 116.601C56.6956 117.071 56.6061 117.6 56.6061 118.187C56.6061 118.78 56.6972 119.315 56.8795 119.793C57.0618 120.27 57.3269 120.649 57.675 120.931C58.0263 121.21 58.4555 121.349 58.9626 121.349ZM68.071 111.341L64.7897 123.531H63.9594L67.2407 111.341H68.071ZM69.8586 122V111.818H73.1449C73.8674 111.818 74.4706 111.957 74.9545 112.236C75.4417 112.511 75.808 112.885 76.0532 113.359C76.3018 113.833 76.4261 114.367 76.4261 114.96C76.4261 115.554 76.3035 116.089 76.0582 116.566C75.8129 117.04 75.4484 117.416 74.9645 117.695C74.4806 117.97 73.879 118.107 73.1598 118.107H70.5745V117.272H73.1349C73.6685 117.272 74.111 117.173 74.4623 116.974C74.8137 116.772 75.0755 116.496 75.2478 116.148C75.4235 115.8 75.5113 115.404 75.5113 114.96C75.5113 114.516 75.4235 114.12 75.2478 113.772C75.0755 113.424 74.812 113.151 74.4574 112.952C74.106 112.753 73.6602 112.653 73.12 112.653H70.7883V122H69.8586ZM81.5 122.159C80.7874 122.159 80.1709 121.993 79.6506 121.662C79.1302 121.327 78.7275 120.865 78.4425 120.275C78.1608 119.682 78.0199 118.999 78.0199 118.227C78.0199 117.458 78.1608 116.775 78.4425 116.178C78.7275 115.578 79.1203 115.109 79.6208 114.771C80.1245 114.43 80.7062 114.259 81.3658 114.259C81.7801 114.259 82.1795 114.335 82.5639 114.488C82.9484 114.637 83.2931 114.867 83.598 115.179C83.9063 115.487 84.1499 115.877 84.3288 116.347C84.5078 116.815 84.5973 117.368 84.5973 118.008V118.445H78.6314V117.665H83.6925C83.6925 117.174 83.5931 116.733 83.3942 116.342C83.1986 115.948 82.9252 115.636 82.5739 115.408C82.2259 115.179 81.8232 115.065 81.3658 115.065C80.8819 115.065 80.456 115.194 80.0881 115.452C79.7202 115.711 79.4318 116.052 79.223 116.477C79.0175 116.901 78.9131 117.365 78.9098 117.869V118.336C78.9098 118.942 79.0142 119.473 79.223 119.927C79.4351 120.378 79.7351 120.727 80.1229 120.976C80.5107 121.224 80.9697 121.349 81.5 121.349C81.8613 121.349 82.1778 121.292 82.4496 121.18C82.7247 121.067 82.955 120.916 83.1406 120.727C83.3296 120.535 83.4721 120.325 83.5682 120.096L84.4084 120.369C84.2924 120.691 84.1018 120.987 83.8367 121.259C83.5748 121.531 83.2467 121.75 82.8523 121.915C82.4612 122.078 82.0104 122.159 81.5 122.159ZM87.5024 111.818V122H86.6174V111.818H87.5024ZM95.8252 114.364L93.0361 122H92.0915L89.3025 114.364H90.262L92.529 120.832H92.5986L94.8657 114.364H95.8252ZM97.6365 122V114.364H98.5264V122H97.6365ZM98.0889 113.051C97.9066 113.051 97.7509 112.99 97.6216 112.867C97.4923 112.741 97.4277 112.59 97.4277 112.415C97.4277 112.239 97.4923 112.09 97.6216 111.967C97.7509 111.841 97.9066 111.778 98.0889 111.778C98.2712 111.778 98.427 111.841 98.5562 111.967C98.6855 112.09 98.7501 112.239 98.7501 112.415C98.7501 112.59 98.6855 112.741 98.5562 112.867C98.427 112.99 98.2712 113.051 98.0889 113.051ZM106.067 116.039L105.257 116.268C105.178 116.039 105.065 115.832 104.919 115.646C104.773 115.461 104.583 115.313 104.347 115.204C104.115 115.094 103.827 115.04 103.482 115.04C102.965 115.04 102.541 115.162 102.21 115.408C101.878 115.653 101.712 115.969 101.712 116.357C101.712 116.685 101.825 116.952 102.05 117.158C102.279 117.36 102.63 117.521 103.104 117.64L104.258 117.923C104.898 118.079 105.376 118.326 105.695 118.664C106.016 119.002 106.177 119.426 106.177 119.937C106.177 120.368 106.058 120.75 105.819 121.085C105.58 121.42 105.247 121.683 104.82 121.876C104.395 122.065 103.903 122.159 103.343 122.159C102.597 122.159 101.982 121.992 101.499 121.657C101.015 121.319 100.705 120.832 100.569 120.195L101.419 119.987C101.528 120.441 101.742 120.784 102.06 121.016C102.382 121.248 102.804 121.364 103.328 121.364C103.915 121.364 104.384 121.233 104.735 120.971C105.086 120.706 105.262 120.374 105.262 119.977C105.262 119.668 105.159 119.41 104.954 119.201C104.748 118.989 104.437 118.833 104.019 118.734L102.771 118.435C102.108 118.276 101.618 118.024 101.3 117.68C100.982 117.335 100.822 116.907 100.822 116.397C100.822 115.976 100.937 115.607 101.165 115.288C101.394 114.967 101.709 114.715 102.11 114.533C102.511 114.35 102.969 114.259 103.482 114.259C104.182 114.259 104.74 114.418 105.158 114.737C105.579 115.051 105.882 115.486 106.067 116.039Z" fill="#212121"/>
</svg>
