<svg width="49" height="48" viewBox="0 0 49 48" fill="none" xmlns="http://www.w3.org/2000/svg">
<path fill-rule="evenodd" clip-rule="evenodd" d="M40.7998 24C40.7998 32.8366 33.6364 40 24.7998 40C15.9632 40 8.7998 32.8366 8.7998 24C8.7998 15.1634 15.9632 8 24.7998 8C33.6364 8 40.7998 15.1634 40.7998 24ZM44.7998 24C44.7998 35.0457 35.8455 44 24.7998 44C13.7541 44 4.7998 35.0457 4.7998 24C4.7998 12.9543 13.7541 4 24.7998 4C35.8455 4 44.7998 12.9543 44.7998 24ZM18.7998 21.4445C21.0089 21.4445 22.7998 19.6536 22.7998 17.4445C22.7998 15.2354 21.0089 13.4445 18.7998 13.4445C16.5907 13.4445 14.7998 15.2354 14.7998 17.4445C14.7998 19.6536 16.5907 21.4445 18.7998 21.4445Z" fill="#444C65"/>
</svg>
