<svg width="160" height="160" viewBox="0 0 160 160" fill="none" xmlns="http://www.w3.org/2000/svg">
<rect width="160" height="160" fill="#444A65"/>
<path d="M61.7273 38H35V57.0909H61.7273V38Z" fill="white"/>
<path d="M61.7273 62.1816H35V90.1816H61.7273V62.1816Z" fill="white"/>
<path d="M61.7273 105.454H35V122H61.7273V105.454Z" fill="white"/>
<path d="M61.7273 94H35V100.364H61.7273V94Z" fill="white"/>
<path d="M93.5454 122H66.8182V103.194H93.5454V122Z" fill="white"/>
<path d="M93.5453 98.1797H66.818V70.5976H93.5453V98.1797Z" fill="white"/>
<path d="M93.5453 54.2988H66.818V38.0003H93.5453V54.2988Z" fill="white"/>
<path d="M93.5453 65.582H66.818V59.3134H93.5453V65.582Z" fill="white"/>
<path d="M125.364 122H98.6364V106.727H125.364V122Z" fill="white"/>
<path d="M125.364 101.637H98.6365V88.9094H125.364V101.637Z" fill="white"/>
<path d="M125.364 43.0908H98.6365V37.9999H125.364V43.0908Z" fill="white"/>
<path d="M125.364 83.8184H98.6365V48.182H125.364V83.8184Z" fill="white"/>
</svg>
