<svg width="128" height="128" viewBox="0 0 128 128" fill="none" xmlns="http://www.w3.org/2000/svg">
<rect width="128" height="128" fill="#444A65"/>
<path d="M85.8752 63.9997C85.8752 63.3288 85.8461 62.6872 85.7877 62.0163L91.2127 57.9038C92.3794 57.0288 92.7002 55.3955 91.9711 54.1122L86.5169 44.6913C85.7877 43.408 84.2127 42.883 82.8711 43.4663L76.6002 46.1205C75.5211 45.3622 74.3836 44.6913 73.1877 44.1372L72.3419 37.3997C72.1669 35.9413 70.9127 34.833 69.4544 34.833H58.5752C57.0877 34.833 55.8336 35.9413 55.6586 37.3997L54.8127 44.1372C53.6169 44.6913 52.4794 45.3622 51.4002 46.1205L45.1294 43.4663C43.7877 42.883 42.2127 43.408 41.4836 44.6913L36.0294 54.1413C35.3002 55.4247 35.6211 57.0288 36.7877 57.933L42.2127 62.0455C42.1544 62.6872 42.1252 63.3288 42.1252 63.9997C42.1252 64.6705 42.1544 65.3122 42.2127 65.983L36.7877 70.0955C35.6211 70.9705 35.3002 72.6038 36.0294 73.8872L41.4836 83.308C42.2127 84.5913 43.7877 85.1163 45.1294 84.533L51.4002 81.8788C52.4794 82.6372 53.6169 83.308 54.8127 83.8622L55.6586 90.5997C55.8336 92.058 57.0877 93.1663 58.5461 93.1663H69.4252C70.8836 93.1663 72.1377 92.058 72.3127 90.5997L73.1586 83.8622C74.3544 83.308 75.4919 82.6372 76.5711 81.8788L82.8419 84.533C84.1836 85.1163 85.7586 84.5913 86.4877 83.308L91.9419 73.8872C92.6711 72.6038 92.3502 70.9997 91.1836 70.0955L85.7586 65.983C85.8461 65.3122 85.8752 64.6705 85.8752 63.9997ZM64.1169 74.208C58.4877 74.208 53.9086 69.6288 53.9086 63.9997C53.9086 58.3705 58.4877 53.7913 64.1169 53.7913C69.7461 53.7913 74.3252 58.3705 74.3252 63.9997C74.3252 69.6288 69.7461 74.208 64.1169 74.208Z" fill="white"/>
</svg>
