<svg width="120" height="144" viewBox="0 0 120 144" fill="none" xmlns="http://www.w3.org/2000/svg">
<rect width="120" height="144" rx="4" fill="#FAFAFA"/>
<g clip-path="url(#clip0_2079_9924)">
<path d="M77.8436 38.9798L77.8435 38.9797L77.834 38.9897C76.8578 40.0214 76.2932 41.3748 76.2468 42.7943L76.7465 42.8107L76.3031 43.0417C77.1256 44.6208 77.5734 46.3682 77.6118 48.1482C77.5884 53.1448 73.6078 57.4831 67.6423 59.5762L67.8079 60.048L67.6389 59.5774C66.961 59.8208 66.2685 60.0216 65.5655 60.1787L65.4956 60.1943L65.4328 60.229C64.5506 60.7161 63.8096 61.4235 63.2821 62.2823C62.7546 63.141 62.4585 64.1218 62.4228 65.129L62.4225 65.1378V65.1467V70.2147H58.9852V65.1893H58.9854L58.985 65.1762C58.9587 64.175 58.6741 63.1976 58.1588 62.3388C57.6435 61.48 56.915 60.7689 56.044 60.2745L55.9777 60.2369L55.9032 60.2207C48.7542 58.6693 43.6907 53.7904 43.6892 48.1679C43.7084 46.3595 44.2211 44.5907 45.1719 43.0522L45.2511 42.924L45.2463 42.7734C45.201 41.3547 44.6265 40.0043 43.636 38.9879L40.1942 35.3127L41.9854 33.5216L41.9854 33.5216L41.9894 33.5176L42.5765 32.9171L46.1229 36.4248L46.1229 36.4249L46.1284 36.4302C46.6834 36.9625 47.3399 37.3775 48.0587 37.6506C48.7775 37.9237 49.544 38.0492 50.3124 38.0196L50.4257 38.0153L50.526 37.9625C53.6514 36.3186 57.1298 35.4596 60.6612 35.4596C64.1926 35.4596 67.671 36.3186 70.7964 37.9625L70.8852 38.0092L70.9851 38.0181C71.8004 38.0902 72.6217 37.9855 73.3928 37.711C74.1628 37.4368 74.8647 36.9998 75.4505 36.4297C75.4512 36.429 75.452 36.4282 75.4528 36.4275L78.9991 33.0556L80.7876 34.8442L80.7876 34.8443L80.7916 34.8482L81.3901 35.4333L77.8436 38.9798Z" fill="#212121" stroke="#212121"/>
</g>
<path d="M44.2215 93.8182H45.1512V100.56C45.1512 101.252 44.9887 101.872 44.6639 102.419C44.3391 102.963 43.8867 103.392 43.3067 103.707C42.73 104.018 42.0588 104.174 41.2932 104.174C40.5309 104.174 39.8597 104.017 39.2797 103.702C38.6997 103.387 38.2473 102.958 37.9225 102.414C37.5976 101.871 37.4352 101.252 37.4352 100.56V93.8182H38.3649V100.495C38.3649 101.035 38.4859 101.518 38.7279 101.942C38.9698 102.363 39.3095 102.694 39.747 102.936C40.1878 103.178 40.7032 103.299 41.2932 103.299C41.8832 103.299 42.3985 103.178 42.8394 102.936C43.2802 102.694 43.6199 102.363 43.8585 101.942C44.1005 101.518 44.2215 101.035 44.2215 100.495V93.8182ZM47.7393 104V96.3636H48.5993V97.5369H48.664C48.8164 97.1525 49.0816 96.8426 49.4594 96.6072C49.8406 96.3686 50.2715 96.2493 50.752 96.2493C50.825 96.2493 50.9062 96.2509 50.9957 96.2543C51.0851 96.2576 51.1597 96.2609 51.2194 96.2642V97.1641C51.1796 97.1574 51.11 97.1475 51.0106 97.1342C50.9111 97.121 50.8034 97.1143 50.6874 97.1143C50.2897 97.1143 49.935 97.1989 49.6235 97.3679C49.3153 97.5336 49.0716 97.764 48.8927 98.0589C48.7137 98.3539 48.6242 98.6903 48.6242 99.0682V104H47.7393ZM52.8094 104V96.3636H53.6994V104H52.8094ZM53.2619 95.0511C53.0796 95.0511 52.9238 94.9898 52.7945 94.8672C52.6653 94.7412 52.6006 94.5904 52.6006 94.4148C52.6006 94.2391 52.6653 94.09 52.7945 93.9673C52.9238 93.8414 53.0796 93.7784 53.2619 93.7784C53.4441 93.7784 53.5999 93.8414 53.7292 93.9673C53.8584 94.09 53.9231 94.2391 53.9231 94.4148C53.9231 94.5904 53.8584 94.7412 53.7292 94.8672C53.5999 94.9898 53.4441 95.0511 53.2619 95.0511ZM56.9947 99.2273V104H56.1097V96.3636H56.9698V97.5618H57.0494C57.2283 97.1707 57.5067 96.8575 57.8846 96.6222C58.2657 96.3835 58.7364 96.2642 59.2965 96.2642C59.8103 96.2642 60.261 96.3719 60.6488 96.5874C61.0399 96.7995 61.3432 97.1127 61.5586 97.527C61.7773 97.9413 61.8867 98.45 61.8867 99.0533V104H61.0018V99.108C61.0018 98.4815 60.8261 97.986 60.4748 97.6214C60.1268 97.2569 59.6594 97.0746 59.0728 97.0746C58.6718 97.0746 58.3155 97.1607 58.0039 97.3331C57.6924 97.5054 57.4454 97.754 57.2631 98.0788C57.0842 98.4003 56.9947 98.7831 56.9947 99.2273ZM66.42 104.174C65.9593 104.174 65.5383 104.085 65.1572 103.906C64.776 103.723 64.4728 103.461 64.2474 103.12C64.022 102.775 63.9093 102.358 63.9093 101.867C63.9093 101.489 63.9806 101.171 64.1231 100.913C64.2656 100.654 64.4678 100.442 64.7296 100.276C64.9915 100.111 65.3014 99.9796 65.6593 99.8835C66.0173 99.7874 66.4117 99.7128 66.8426 99.6598C67.2701 99.6068 67.6314 99.5604 67.9264 99.5206C68.2247 99.4808 68.4517 99.4179 68.6075 99.3317C68.7632 99.2455 68.8411 99.1063 68.8411 98.9141V98.7351C68.8411 98.2147 68.6854 97.8054 68.3738 97.5071C68.0656 97.2055 67.6214 97.0547 67.0414 97.0547C66.4912 97.0547 66.0421 97.1757 65.6941 97.4176C65.3494 97.6596 65.1075 97.9446 64.9683 98.2727L64.1281 97.9695C64.3004 97.5518 64.539 97.2187 64.844 96.9702C65.1489 96.7183 65.4903 96.5376 65.8681 96.4283C66.246 96.3156 66.6288 96.2592 67.0166 96.2592C67.3082 96.2592 67.6115 96.2973 67.9264 96.3736C68.2445 96.4498 68.5395 96.5824 68.8113 96.7713C69.0831 96.9569 69.3035 97.2171 69.4725 97.5518C69.6416 97.8833 69.7261 98.3042 69.7261 98.8146V104H68.8411V102.792H68.7864C68.6804 103.017 68.5229 103.236 68.3141 103.448C68.1053 103.66 67.8435 103.834 67.5286 103.97C67.2138 104.106 66.8442 104.174 66.42 104.174ZM66.5393 103.364C67.0099 103.364 67.4176 103.259 67.7623 103.05C68.107 102.842 68.3721 102.565 68.5578 102.22C68.7467 101.872 68.8411 101.489 68.8411 101.072V99.968C68.7748 100.031 68.6638 100.087 68.508 100.137C68.3556 100.187 68.1783 100.232 67.9761 100.271C67.7772 100.308 67.5783 100.339 67.3795 100.366C67.1806 100.392 67.0016 100.415 66.8426 100.435C66.4117 100.488 66.0438 100.571 65.7389 100.684C65.4339 100.797 65.2003 100.952 65.0379 101.151C64.8755 101.347 64.7943 101.599 64.7943 101.907C64.7943 102.371 64.96 102.731 65.2914 102.986C65.6229 103.238 66.0388 103.364 66.5393 103.364ZM72.1501 104V96.3636H73.0102V97.5369H73.0748C73.2273 97.1525 73.4924 96.8426 73.8703 96.6072C74.2514 96.3686 74.6823 96.2493 75.1629 96.2493C75.2358 96.2493 75.317 96.2509 75.4065 96.2543C75.496 96.2576 75.5706 96.2609 75.6302 96.2642V97.1641C75.5905 97.1574 75.5209 97.1475 75.4214 97.1342C75.322 97.121 75.2143 97.1143 75.0983 97.1143C74.7005 97.1143 74.3459 97.1989 74.0344 97.3679C73.7261 97.5336 73.4825 97.764 73.3035 98.0589C73.1246 98.3539 73.0351 98.6903 73.0351 99.0682V104H72.1501ZM78.0593 106.864C77.8836 106.864 77.7195 106.847 77.5671 106.814C77.4146 106.781 77.2936 106.744 77.2041 106.705L77.4428 105.924C77.7444 106.017 78.0129 106.05 78.2482 106.023C78.4835 106 78.6923 105.894 78.8746 105.705C79.0569 105.52 79.2193 105.235 79.3618 104.85L79.6402 104.075L76.8313 96.3636H77.7908L80.0578 102.832H80.1274L82.3945 96.3636H83.354L80.1225 105.208C79.9866 105.576 79.8192 105.883 79.6203 106.128C79.4215 106.376 79.1911 106.56 78.9293 106.68C78.6708 106.802 78.3807 106.864 78.0593 106.864ZM35.9518 122V111.818H39.3872C40.0501 111.818 40.6019 111.934 41.0428 112.166C41.4869 112.398 41.82 112.715 42.042 113.116C42.2641 113.517 42.3751 113.973 42.3751 114.483C42.3751 114.907 42.3039 115.27 42.1614 115.572C42.0188 115.873 41.825 116.117 41.5797 116.303C41.3344 116.488 41.061 116.622 40.7594 116.705V116.785C41.0875 116.808 41.4057 116.924 41.7139 117.133C42.0222 117.338 42.2757 117.627 42.4746 117.998C42.6734 118.369 42.7729 118.813 42.7729 119.33C42.7729 119.844 42.6585 120.303 42.4298 120.707C42.2011 121.108 41.8498 121.425 41.3758 121.657C40.9052 121.886 40.3053 122 39.5761 122H35.9518ZM36.8815 121.165H39.5761C40.3616 121.165 40.9417 120.991 41.3162 120.643C41.694 120.295 41.883 119.857 41.883 119.33C41.883 118.942 41.7885 118.591 41.5996 118.276C41.414 117.958 41.1505 117.706 40.8091 117.521C40.471 117.335 40.0733 117.242 39.6159 117.242H36.8815V121.165ZM36.8815 116.417H39.4717C39.8728 116.417 40.2241 116.334 40.5257 116.168C40.8273 116.003 41.0626 115.774 41.2317 115.482C41.4007 115.191 41.4852 114.857 41.4852 114.483C41.4852 113.943 41.3096 113.504 40.9582 113.165C40.6069 112.824 40.0832 112.653 39.3872 112.653H36.8815V116.417ZM45.7873 111.818V122H44.9023V111.818H45.7873ZM50.3317 122.174C49.871 122.174 49.4501 122.085 49.0689 121.906C48.6878 121.723 48.3845 121.461 48.1591 121.12C47.9338 120.775 47.8211 120.358 47.8211 119.867C47.8211 119.489 47.8923 119.171 48.0348 118.913C48.1774 118.654 48.3795 118.442 48.6414 118.276C48.9032 118.111 49.2131 117.98 49.5711 117.884C49.929 117.787 50.3234 117.713 50.7543 117.66C51.1819 117.607 51.5431 117.56 51.8381 117.521C52.1364 117.481 52.3634 117.418 52.5192 117.332C52.675 117.246 52.7529 117.106 52.7529 116.914V116.735C52.7529 116.215 52.5971 115.805 52.2856 115.507C51.9773 115.205 51.5332 115.055 50.9532 115.055C50.403 115.055 49.9539 115.176 49.6059 115.418C49.2612 115.66 49.0192 115.945 48.88 116.273L48.0398 115.969C48.2122 115.552 48.4508 115.219 48.7557 114.97C49.0607 114.718 49.402 114.538 49.7799 114.428C50.1577 114.316 50.5405 114.259 50.9283 114.259C51.22 114.259 51.5232 114.297 51.8381 114.374C52.1563 114.45 52.4513 114.582 52.7231 114.771C52.9948 114.957 53.2152 115.217 53.3843 115.552C53.5533 115.883 53.6378 116.304 53.6378 116.815V122H52.7529V120.792H52.6982C52.5921 121.017 52.4347 121.236 52.2259 121.448C52.0171 121.66 51.7553 121.834 51.4404 121.97C51.1255 122.106 50.756 122.174 50.3317 122.174ZM50.451 121.364C50.9217 121.364 51.3294 121.259 51.6741 121.05C52.0188 120.842 52.2839 120.565 52.4695 120.22C52.6584 119.872 52.7529 119.489 52.7529 119.072V117.968C52.6866 118.031 52.5756 118.087 52.4198 118.137C52.2673 118.187 52.09 118.232 51.8878 118.271C51.689 118.308 51.4901 118.339 51.2912 118.366C51.0924 118.392 50.9134 118.415 50.7543 118.435C50.3234 118.488 49.9555 118.571 49.6506 118.684C49.3457 118.797 49.112 118.952 48.9496 119.151C48.7872 119.347 48.706 119.599 48.706 119.907C48.706 120.371 48.8717 120.731 49.2032 120.986C49.5346 121.238 49.9506 121.364 50.451 121.364ZM58.8112 122.159C58.1847 122.159 57.6362 121.993 57.1656 121.662C56.6949 121.33 56.327 120.868 56.0619 120.275C55.8 119.682 55.6691 118.991 55.6691 118.202C55.6691 117.416 55.8 116.728 56.0619 116.138C56.327 115.545 56.6966 115.085 57.1705 114.756C57.6445 114.425 58.1963 114.259 58.8261 114.259C59.2901 114.259 59.6762 114.342 59.9845 114.508C60.2927 114.67 60.5396 114.872 60.7252 115.114C60.9108 115.356 61.055 115.592 61.1578 115.82H61.2373V111.818H62.1272V122H61.2622V120.583H61.1578C61.055 120.815 60.9092 121.054 60.7203 121.299C60.5313 121.541 60.2811 121.745 59.9695 121.911C59.6613 122.076 59.2752 122.159 58.8112 122.159ZM58.9156 121.349C59.4094 121.349 59.8303 121.214 60.1784 120.946C60.5264 120.674 60.7915 120.301 60.9738 119.827C61.1594 119.35 61.2522 118.803 61.2522 118.187C61.2522 117.577 61.1611 117.038 60.9788 116.571C60.7965 116.1 60.5313 115.732 60.1833 115.467C59.8353 115.199 59.4127 115.065 58.9156 115.065C58.4052 115.065 57.9743 115.204 57.623 115.482C57.2749 115.757 57.0098 116.13 56.8275 116.601C56.6485 117.071 56.559 117.6 56.559 118.187C56.559 118.78 56.6502 119.315 56.8325 119.793C57.0148 120.27 57.2799 120.649 57.6279 120.931C57.9793 121.21 58.4085 121.349 58.9156 121.349ZM67.4671 122.159C66.8407 122.159 66.2922 121.993 65.8215 121.662C65.3509 121.33 64.983 120.868 64.7178 120.275C64.456 119.682 64.3251 118.991 64.3251 118.202C64.3251 117.416 64.456 116.728 64.7178 116.138C64.983 115.545 65.3525 115.085 65.8265 114.756C66.3004 114.425 66.8523 114.259 67.482 114.259C67.946 114.259 68.3322 114.342 68.6404 114.508C68.9486 114.67 69.1956 114.872 69.3812 115.114C69.5668 115.356 69.711 115.592 69.8137 115.82H69.8932V111.818H70.7832V122H69.9181V120.583H69.8137C69.711 120.815 69.5651 121.054 69.3762 121.299C69.1873 121.541 68.937 121.745 68.6255 121.911C68.3172 122.076 67.9311 122.159 67.4671 122.159ZM67.5715 121.349C68.0654 121.349 68.4863 121.214 68.8343 120.946C69.1823 120.674 69.4475 120.301 69.6297 119.827C69.8154 119.35 69.9082 118.803 69.9082 118.187C69.9082 117.577 69.817 117.038 69.6347 116.571C69.4524 116.1 69.1873 115.732 68.8393 115.467C68.4913 115.199 68.0687 115.065 67.5715 115.065C67.0611 115.065 66.6302 115.204 66.2789 115.482C65.9309 115.757 65.6657 116.13 65.4834 116.601C65.3045 117.071 65.215 117.6 65.215 118.187C65.215 118.78 65.3061 119.315 65.4884 119.793C65.6707 120.27 65.9359 120.649 66.2839 120.931C66.6352 121.21 67.0644 121.349 67.5715 121.349ZM76.4611 122.159C75.7485 122.159 75.132 121.993 74.6117 121.662C74.0913 121.327 73.6886 120.865 73.4036 120.275C73.1219 119.682 72.981 118.999 72.981 118.227C72.981 117.458 73.1219 116.775 73.4036 116.178C73.6886 115.578 74.0814 115.109 74.5818 114.771C75.0856 114.43 75.6673 114.259 76.3269 114.259C76.7412 114.259 77.1406 114.335 77.525 114.488C77.9095 114.637 78.2542 114.867 78.5591 115.179C78.8674 115.487 79.111 115.877 79.2899 116.347C79.4689 116.815 79.5584 117.368 79.5584 118.008V118.445H73.5925V117.665H78.6536C78.6536 117.174 78.5542 116.733 78.3553 116.342C78.1597 115.948 77.8863 115.636 77.535 115.408C77.187 115.179 76.7843 115.065 76.3269 115.065C75.843 115.065 75.4171 115.194 75.0492 115.452C74.6813 115.711 74.3929 116.052 74.1841 116.477C73.9786 116.901 73.8742 117.365 73.8709 117.869V118.336C73.8709 118.942 73.9753 119.473 74.1841 119.927C74.3962 120.378 74.6962 120.727 75.084 120.976C75.4718 121.224 75.9308 121.349 76.4611 121.349C76.8224 121.349 77.1389 121.292 77.4107 121.18C77.6858 121.067 77.9161 120.916 78.1017 120.727C78.2907 120.535 78.4332 120.325 78.5293 120.096L79.3695 120.369C79.2535 120.691 79.0629 120.987 78.7978 121.259C78.5359 121.531 78.2078 121.75 77.8134 121.915C77.4223 122.078 76.9715 122.159 76.4611 122.159ZM81.5785 122V114.364H82.4386V115.537H82.5032C82.6557 115.152 82.9208 114.843 83.2987 114.607C83.6798 114.369 84.1107 114.249 84.5913 114.249C84.6642 114.249 84.7454 114.251 84.8349 114.254C84.9244 114.258 84.999 114.261 85.0586 114.264V115.164C85.0189 115.157 84.9493 115.147 84.8498 115.134C84.7504 115.121 84.6427 115.114 84.5267 115.114C84.1289 115.114 83.7743 115.199 83.4628 115.368C83.1545 115.534 82.9109 115.764 82.7319 116.059C82.553 116.354 82.4635 116.69 82.4635 117.068V122H81.5785Z" fill="#212121"/>
<defs>
<clipPath id="clip0_2079_9924">
<rect width="64" height="64" fill="white" transform="translate(28 18)"/>
</clipPath>
</defs>
</svg>
