<svg xmlns="http://www.w3.org/2000/svg" fill="none" viewBox="0 0 44 44"><g clip-path="url(#a)"><path fill="#900" d="M20.6596 23.1715 13.3233 9H8.31601l7.33629 14.1715-7.32871 11.8164 5.01491-.0126 7.3211-11.8038Z"/><path fill="#900" d="M8.3471 9H3l.00997.01926.00957.01842c.00838.01633.01954.03768.0335.06448.00518.01005.01077.02135.01715.03266l.04586.08876c.01595.03099.0339.06532.05304.10258.00957.01842.01954.03768.02991.05736.01595.03099.0327.06323.05025.09756.01356.02596.02752.05275.04187.08039.0335.06448.069.13356.10728.20767.02632.05066.05344.10342.08215.15868l.00479.00922c.04387.08456.09013.17416.13878.26796.02273.0435.04586.0883.06939.134.04866.0938.0989.1913.15155.2926.08813.17.18185.3509.27995.541.07777.1503.15873.3065.24207.4677.02872.0552.05743.1114.08694.1679.19103.3688.39481.7628.60777 1.174.04945.0955.0993.1918.14955.2889.08694.1679.17508.3379.26401.5104.01396.0272.02831.0544.04227.082.06461.1248.12961.2508.19541.3777l.0351.0674c2.08253 4.0232 4.58857 8.8637 4.58857 8.8637L3 35h.54117l4.81311-.0121L15.683 23.1715 8.3471 9Z"/><path fill="#DF3603" d="M18.3235 9H13.3011l7.3363 14.1715L13.3011 35h.5308l4.4988-.0113 7.3292-11.8172L18.3235 9Z"/><path fill="#DF3603" d="M23.3492 9.00628H28.6811L28.6779 9H18.3235l7.3363 14.1715-7.3291 11.8172-.0072.0113h.5416l4.4952-.0113 7.3252-11.8109-7.3363-14.17152Z"/><path fill="#FA0" d="M28.4865 9H23.3093l7.3363 14.1715-7.3252 11.8109-.0111.0176h.5415l4.6429-.0117 7.3291-11.8168L28.4865 9Z"/><path fill="#FA0" d="M33.6637 9h-5.1772l7.3363 14.1715-7.3291 11.8168-.0072.0117h.5415l4.8407-.0121L41 23.3474 33.6637 9Z"/></g><defs><clipPath id="a"><path fill="#fff" d="M3 9h38v26H3z"/></clipPath></defs></svg>
