<?xml version="1.0" encoding="UTF-8" standalone="no"?>
<!DOCTYPE svg PUBLIC "-//W3C//DTD SVG 1.1//EN"
 "http://www.w3.org/Graphics/SVG/1.1/DTD/svg11.dtd">
<!-- Generated by graphviz version 2.47.0 (20210316.0004)
 -->
<!-- Title: dependencies Pages: 1 -->
<svg width="1068pt" height="284pt"
 viewBox="0.00 0.00 1068.00 284.00" xmlns="http://www.w3.org/2000/svg" xmlns:xlink="http://www.w3.org/1999/xlink">
<g id="graph0" class="graph" transform="scale(1 1) rotate(0) translate(4 280)">
<title>dependencies</title>
<polygon fill="white" stroke="transparent" points="-4,4 -4,-280 1064,-280 1064,4 -4,4"/>
<text text-anchor="start" x="509.01" y="-42.4" font-family="Times-12" font-weight="bold" font-size="14.00">Legend</text>
<polygon fill="#ffffb3" stroke="transparent" points="296,-10 296,-30 316,-30 316,-10 296,-10"/>
<text text-anchor="start" x="319.63" y="-15.4" font-family="Times-12" font-size="14.00"> &#160;Declarations</text>
<polygon fill="#8dd3c7" stroke="transparent" points="409,-10 409,-30 429,-30 429,-10 409,-10"/>
<text text-anchor="start" x="432.73" y="-15.4" font-family="Times-12" font-size="14.00"> &#160;Module</text>
<polygon fill="#80b1d3" stroke="transparent" points="495,-10 495,-30 515,-30 515,-10 495,-10"/>
<text text-anchor="start" x="518.78" y="-15.4" font-family="Times-12" font-size="14.00"> &#160;Bootstrap</text>
<polygon fill="#fdb462" stroke="transparent" points="592,-10 592,-30 612,-30 612,-10 592,-10"/>
<text text-anchor="start" x="615.67" y="-15.4" font-family="Times-12" font-size="14.00"> &#160;Providers</text>
<polygon fill="#fb8072" stroke="transparent" points="688,-10 688,-30 708,-30 708,-10 688,-10"/>
<text text-anchor="start" x="711.73" y="-15.4" font-family="Times-12" font-size="14.00"> &#160;Exports</text>
<g id="clust1" class="cluster">
<title>cluster_CardsModule</title>
<polygon fill="none" stroke="black" stroke-dasharray="1,5" points="8,-70 8,-268 1052,-268 1052,-70 8,-70"/>
</g>
<g id="clust3" class="cluster">
<title>cluster_CardsModule_imports</title>
<polygon fill="none" stroke="black" points="28,-78 28,-130 1035,-130 1035,-78 28,-78"/>
</g>
<g id="clust4" class="cluster">
<title>cluster_CardsModule_exports</title>
<polygon fill="none" stroke="black" points="16,-208 16,-260 1044,-260 1044,-208 16,-208"/>
</g>
<!-- ActionCardActionComponent -->
<g id="node1" class="node">
<title>ActionCardActionComponent</title>
<polygon fill="#8dd3c7" stroke="black" points="1027.25,-122 1024.25,-126 1003.25,-126 1000.25,-122 842.75,-122 842.75,-86 1027.25,-86 1027.25,-122"/>
<text text-anchor="middle" x="935" y="-99.8" font-family="Times,serif" font-size="14.00">ActionCardActionComponent</text>
</g>
<!-- CardsModule -->
<g id="node7" class="node">
<title>CardsModule</title>
<polygon fill="#8dd3c7" stroke="black" points="474.21,-187 471.21,-191 450.21,-191 447.21,-187 381.79,-187 381.79,-151 474.21,-151 474.21,-187"/>
<text text-anchor="middle" x="428" y="-164.8" font-family="Times,serif" font-size="14.00">CardsModule</text>
</g>
<!-- ActionCardActionComponent&#45;&gt;CardsModule -->
<g id="edge1" class="edge">
<title>ActionCardActionComponent&#45;&gt;CardsModule</title>
<path fill="none" stroke="black" d="M967.54,-122.22C967.54,-140.83 967.54,-167 967.54,-167 967.54,-167 484.47,-167 484.47,-167"/>
<polygon fill="black" stroke="black" points="484.47,-163.5 474.47,-167 484.47,-170.5 484.47,-163.5"/>
</g>
<!-- ActionCardComponent -->
<g id="node2" class="node">
<title>ActionCardComponent</title>
<polygon fill="#8dd3c7" stroke="black" points="824.15,-122 821.15,-126 800.15,-126 797.15,-122 677.85,-122 677.85,-86 824.15,-86 824.15,-122"/>
<text text-anchor="middle" x="751" y="-99.8" font-family="Times,serif" font-size="14.00">ActionCardComponent</text>
</g>
<!-- ActionCardComponent&#45;&gt;CardsModule -->
<g id="edge2" class="edge">
<title>ActionCardComponent&#45;&gt;CardsModule</title>
<path fill="none" stroke="black" d="M776.19,-122.03C776.19,-139.06 776.19,-162 776.19,-162 776.19,-162 484.24,-162 484.24,-162"/>
<polygon fill="black" stroke="black" points="484.24,-158.5 474.24,-162 484.24,-165.5 484.24,-158.5"/>
</g>
<!-- ContentButtonComponent -->
<g id="node3" class="node">
<title>ContentButtonComponent</title>
<polygon fill="#8dd3c7" stroke="black" points="659.78,-122 656.78,-126 635.78,-126 632.78,-122 496.22,-122 496.22,-86 659.78,-86 659.78,-122"/>
<text text-anchor="middle" x="578" y="-99.8" font-family="Times,serif" font-size="14.00">ContentButtonComponent</text>
</g>
<!-- ContentButtonComponent&#45;&gt;CardsModule -->
<g id="edge3" class="edge">
<title>ContentButtonComponent&#45;&gt;CardsModule</title>
<path fill="none" stroke="black" d="M605.3,-122.24C605.3,-137.57 605.3,-157 605.3,-157 605.3,-157 484.12,-157 484.12,-157"/>
<polygon fill="black" stroke="black" points="484.12,-153.5 474.12,-157 484.12,-160.5 484.12,-153.5"/>
</g>
<!-- FlatCardModule -->
<g id="node4" class="node">
<title>FlatCardModule</title>
<polygon fill="#8dd3c7" stroke="black" points="478.04,-122 475.04,-126 454.04,-126 451.04,-122 369.96,-122 369.96,-86 478.04,-86 478.04,-122"/>
<text text-anchor="middle" x="424" y="-99.8" font-family="Times,serif" font-size="14.00">FlatCardModule</text>
</g>
<!-- FlatCardModule&#45;&gt;CardsModule -->
<g id="edge4" class="edge">
<title>FlatCardModule&#45;&gt;CardsModule</title>
<path fill="none" stroke="black" d="M428,-122.11C428,-122.11 428,-140.99 428,-140.99"/>
<polygon fill="black" stroke="black" points="424.5,-140.99 428,-150.99 431.5,-140.99 424.5,-140.99"/>
</g>
<!-- GalleryCardComponent -->
<g id="node5" class="node">
<title>GalleryCardComponent</title>
<polygon fill="#8dd3c7" stroke="black" points="351.02,-122 348.02,-126 327.02,-126 324.02,-122 200.98,-122 200.98,-86 351.02,-86 351.02,-122"/>
<text text-anchor="middle" x="276" y="-99.8" font-family="Times,serif" font-size="14.00">GalleryCardComponent</text>
</g>
<!-- GalleryCardComponent&#45;&gt;CardsModule -->
<g id="edge5" class="edge">
<title>GalleryCardComponent&#45;&gt;CardsModule</title>
<path fill="none" stroke="black" d="M297.59,-122.01C297.59,-138.05 297.59,-159 297.59,-159 297.59,-159 371.65,-159 371.65,-159"/>
<polygon fill="black" stroke="black" points="371.65,-162.5 381.65,-159 371.65,-155.5 371.65,-162.5"/>
</g>
<!-- ProfileCardComponent -->
<g id="node6" class="node">
<title>ProfileCardComponent</title>
<polygon fill="#8dd3c7" stroke="black" points="182.14,-122 179.14,-126 158.14,-126 155.14,-122 35.86,-122 35.86,-86 182.14,-86 182.14,-122"/>
<text text-anchor="middle" x="109" y="-99.8" font-family="Times,serif" font-size="14.00">ProfileCardComponent</text>
</g>
<!-- ProfileCardComponent&#45;&gt;CardsModule -->
<g id="edge6" class="edge">
<title>ProfileCardComponent&#45;&gt;CardsModule</title>
<path fill="none" stroke="black" d="M178.2,-122.27C178.2,-140.56 178.2,-166 178.2,-166 178.2,-166 371.89,-166 371.89,-166"/>
<polygon fill="black" stroke="black" points="371.89,-169.5 381.89,-166 371.89,-162.5 371.89,-169.5"/>
</g>
<!-- ActionCardActionComponent  -->
<g id="node8" class="node">
<title>ActionCardActionComponent </title>
<polygon fill="#fb8072" stroke="black" points="1036.25,-252 847.75,-252 847.75,-216 1036.25,-216 1036.25,-252"/>
<text text-anchor="middle" x="942" y="-229.8" font-family="Times,serif" font-size="14.00">ActionCardActionComponent </text>
</g>
<!-- CardsModule&#45;&gt;ActionCardActionComponent  -->
<g id="edge7" class="edge">
<title>CardsModule&#45;&gt;ActionCardActionComponent </title>
<path fill="none" stroke="black" stroke-dasharray="5,2" d="M474.43,-172C594.82,-172 907.71,-172 907.71,-172 907.71,-172 907.71,-205.73 907.71,-205.73"/>
<polygon fill="black" stroke="black" points="904.21,-205.73 907.71,-215.73 911.21,-205.73 904.21,-205.73"/>
</g>
<!-- ActionCardComponent  -->
<g id="node9" class="node">
<title>ActionCardComponent </title>
<polygon fill="#fb8072" stroke="black" points="830.15,-252 679.85,-252 679.85,-216 830.15,-216 830.15,-252"/>
<text text-anchor="middle" x="755" y="-229.8" font-family="Times,serif" font-size="14.00">ActionCardComponent </text>
</g>
<!-- CardsModule&#45;&gt;ActionCardComponent  -->
<g id="edge8" class="edge">
<title>CardsModule&#45;&gt;ActionCardComponent </title>
<path fill="none" stroke="black" stroke-dasharray="5,2" d="M474.23,-177C558.4,-177 728.06,-177 728.06,-177 728.06,-177 728.06,-205.96 728.06,-205.96"/>
<polygon fill="black" stroke="black" points="724.56,-205.96 728.06,-215.96 731.56,-205.96 724.56,-205.96"/>
</g>
<!-- ContentButtonComponent  -->
<g id="node10" class="node">
<title>ContentButtonComponent </title>
<polygon fill="#fb8072" stroke="black" points="661.78,-252 494.22,-252 494.22,-216 661.78,-216 661.78,-252"/>
<text text-anchor="middle" x="578" y="-229.8" font-family="Times,serif" font-size="14.00">ContentButtonComponent </text>
</g>
<!-- CardsModule&#45;&gt;ContentButtonComponent  -->
<g id="edge9" class="edge">
<title>CardsModule&#45;&gt;ContentButtonComponent </title>
<path fill="none" stroke="black" stroke-dasharray="5,2" d="M474.39,-182C509.14,-182 550.7,-182 550.7,-182 550.7,-182 550.7,-205.81 550.7,-205.81"/>
<polygon fill="black" stroke="black" points="547.2,-205.81 550.7,-215.81 554.2,-205.81 547.2,-205.81"/>
</g>
<!-- FlatCardModule  -->
<g id="node11" class="node">
<title>FlatCardModule </title>
<polygon fill="#fb8072" stroke="black" points="476.04,-252 363.96,-252 363.96,-216 476.04,-216 476.04,-252"/>
<text text-anchor="middle" x="420" y="-229.8" font-family="Times,serif" font-size="14.00">FlatCardModule </text>
</g>
<!-- CardsModule&#45;&gt;FlatCardModule  -->
<g id="edge10" class="edge">
<title>CardsModule&#45;&gt;FlatCardModule </title>
<path fill="none" stroke="black" stroke-dasharray="5,2" d="M428,-187.11C428,-187.11 428,-205.99 428,-205.99"/>
<polygon fill="black" stroke="black" points="424.5,-205.99 428,-215.99 431.5,-205.99 424.5,-205.99"/>
</g>
<!-- GalleryCardComponent  -->
<g id="node12" class="node">
<title>GalleryCardComponent </title>
<polygon fill="#fb8072" stroke="black" points="346.02,-252 191.98,-252 191.98,-216 346.02,-216 346.02,-252"/>
<text text-anchor="middle" x="269" y="-229.8" font-family="Times,serif" font-size="14.00">GalleryCardComponent </text>
</g>
<!-- CardsModule&#45;&gt;GalleryCardComponent  -->
<g id="edge11" class="edge">
<title>CardsModule&#45;&gt;GalleryCardComponent </title>
<path fill="none" stroke="black" stroke-dasharray="5,2" d="M381.48,-180C328.49,-180 249.16,-180 249.16,-180 249.16,-180 249.16,-205.72 249.16,-205.72"/>
<polygon fill="black" stroke="black" points="245.66,-205.72 249.16,-215.72 252.66,-205.72 245.66,-205.72"/>
</g>
<!-- ProfileCardComponent  -->
<g id="node13" class="node">
<title>ProfileCardComponent </title>
<polygon fill="#fb8072" stroke="black" points="174.14,-252 23.86,-252 23.86,-216 174.14,-216 174.14,-252"/>
<text text-anchor="middle" x="99" y="-229.8" font-family="Times,serif" font-size="14.00">ProfileCardComponent </text>
</g>
<!-- CardsModule&#45;&gt;ProfileCardComponent  -->
<g id="edge12" class="edge">
<title>CardsModule&#45;&gt;ProfileCardComponent </title>
<path fill="none" stroke="black" stroke-dasharray="5,2" d="M381.7,-173C292.36,-173 104.88,-173 104.88,-173 104.88,-173 104.88,-205.7 104.88,-205.7"/>
<polygon fill="black" stroke="black" points="101.38,-205.7 104.88,-215.7 108.38,-205.7 101.38,-205.7"/>
</g>
</g>
</svg>
