<svg width="55" height="55" viewBox="0 0 55 55" fill="none" xmlns="http://www.w3.org/2000/svg">
<g clip-path="url(#clip0_1116_9734)">
<path d="M20.0017 13.5483C20.0362 13.2032 19.996 12.8547 19.8841 12.5265C19.7721 12.1982 19.5909 11.8979 19.3527 11.6458C19.1145 11.3937 18.8249 11.1957 18.5035 11.0653C18.1822 10.9349 17.8365 10.8751 17.49 10.89C16.73 10.9058 15.996 11.1697 15.4 11.6416C14.9198 11.9988 14.4719 12.3976 14.0617 12.8333C12.3812 14.5139 10.8706 16.3562 9.55168 18.3333C7.93185 20.7895 6.49785 23.3634 5.26168 26.0333C3.74701 29.3034 2.73342 32.783 2.25501 36.355C1.41168 42.4416 1.83334 45.925 3.66668 46.8233C5.92168 47.9966 14.6667 47.2083 18.8467 44.4766C19.3179 44.1628 19.6674 43.6969 19.8367 43.1566C19.9516 42.7377 20.0193 42.3073 20.0383 41.8733C20.0383 41.8733 20.0383 33.2566 20.0383 26.6383C20.0383 20.02 20.0017 13.805 20.0017 13.5483Z" fill="currentColor"/>
<path d="M35.0167 13.5483C35.0371 13.0103 35.1949 12.4865 35.4751 12.0267C35.6784 11.6656 35.9781 11.3681 36.3407 11.1674C36.7032 10.9667 37.1144 10.8707 37.5284 10.89C38.2884 10.9058 39.0224 11.1698 39.6184 11.6417C40.1002 12.0105 40.5481 12.4216 40.9567 12.87C42.6372 14.5507 44.1478 16.3929 45.4667 18.37C47.085 20.8144 48.5189 23.376 49.7567 26.0333C51.2631 29.3066 52.2764 32.7849 52.7634 36.355C53.6067 42.4417 53.1301 45.925 51.3884 46.8234C49.1334 47.9967 40.2967 47.2084 36.2084 44.4767C35.7371 44.1629 35.3877 43.697 35.2184 43.1567C35.1034 42.7378 35.0358 42.3073 35.0167 41.8734V13.5483Z" fill="currentColor"/>
<path d="M33 19.14C31.9389 18.7878 31.0147 18.1122 30.3571 17.208C29.6995 16.3038 29.3415 15.2164 29.3333 14.0984V5.62836H25.6667V14.0984C25.6623 15.2195 25.3061 16.311 24.6482 17.2189C23.9904 18.1267 23.0641 18.8051 22 19.1584V22.2017H33V19.14Z" fill="currentColor"/>
</g>
<defs>
<clipPath id="clip0_1116_9734">
<rect width="55" height="55" fill="currentColor"/>
</clipPath>
</defs>
</svg>
