<?xml version="1.0" encoding="utf-8"?>
<!-- Generator: Adobe Illustrator 27.0.0, SVG Export Plug-In . SVG Version: 6.00 Build 0)  -->
<svg version="1.1" xmlns="http://www.w3.org/2000/svg" xmlns:xlink="http://www.w3.org/1999/xlink" x="0px" y="0px"
	 viewBox="0 0 841.4 600.6" style="enable-background:new 0 0 841.4 600.6;" xml:space="preserve">
<style type="text/css">
	#sketch { mix-blend-mode: multiply; }
	#nuclei { mix-blend-mode: multiply; }
	#membrane { mix-blend-mode: multiply; }
	.st0{fill:none;}
	.st1{fill:#56ADE2;}
	.st2{fill:none;stroke:#F5A59A;stroke-width:12;stroke-miterlimit:10;}
	.st3{fill:#F4E4EA;stroke:#F4E4EA;stroke-width:1.32;stroke-miterlimit:10;}
	.st4{fill:#CD5257;}
	.st5{fill:#F9C7DC;}
	.st6{fill:#E2A489;}
	.st7{fill:#FFFFFF;}
	.st8{fill:#C8C8C8;}
	.st9{fill:#989898;}
	.st10{fill:#ACACAC;}
	.st11{fill:#A9A9A9;}
	.st12{fill:#C4C4C4;}
	.st13{fill:#B6B6B6;}
	.st14{fill:#A8A8A8;}
	.st15{fill:#B7B7B7;}
	.st16{fill:#E7E7E7;}
	.st17{fill:#B4B4B4;}
	.st18{fill:#C1C1C1;}
	.st19{fill:#BCBCBC;}
	.st20{fill:#C2C2C2;}
	.st21{fill:#B3B3B3;}
	.st22{fill:#DCDCDC;}
	.st23{fill:#9A9A9A;}
	.st24{fill:#9D9D9D;}
	.st25{fill:#848484;}
	.st26{fill:#BFBFBF;}
	.st27{fill:#AAAAAA;}
	.st28{fill:#717171;}
	.st29{fill:#AEAEAE;}
	.st30{fill:#7D7D7D;}
	.st31{fill:#ABABAB;}
	.st32{fill:#C5C5C5;}
	.st33{fill:#7C7C7C;}
	.st34{fill:#F6F6F6;}
	.st35{fill:#878787;}
	.st36{fill:#F0F0F0;}
	.st37{fill:#959595;}
	.st38{fill:#E0E0E0;}
	.st39{fill:#FEFEFE;}
	.st40{fill:#898989;}
	.st41{fill:#D7D7D7;}
	.st42{fill:#F5F5F5;}
	.st43{fill:#A5A5A5;}
	.st44{fill:#DEDEDE;}
	.st45{fill:#D3D3D3;}
	.st46{fill:#8A8A8A;}
	.st47{fill:#B9B9B9;}
	.st48{fill:#F8F8F8;}
	.st49{fill:#CECECE;}
	.st50{fill:#686868;}
	.st51{fill:#666666;}
	.st52{fill:#9F9F9F;}
	.st53{fill:#B1B1B1;}
	.st54{fill:#EFEFEF;}
	.st55{fill:#5D5D5D;}
	.st56{fill:#8C8C8C;}
	.st57{fill:#8B8B8B;}
	.st58{fill:#A7A7A7;}
	.st59{fill:#FAFAFA;}
	.st60{fill:#585858;}
	.st61{fill:#CACACA;}
	.st62{fill:#696969;}
	.st63{fill:#A2A2A2;}
	.st64{fill:#C0C0C0;}
	.st65{fill:#999999;}
	.st66{fill:#5C5C5C;}
	.st67{fill:#777777;}
	.st68{fill:#626262;}
	.st69{fill:#9B9B9B;}
	.st70{fill:#7F7F7F;}
	.st71{fill:#939393;}
	.st72{fill:none;stroke:#FFFFFF;stroke-miterlimit:10;}
	.st73{fill:none;stroke:#000000;stroke-miterlimit:10;}
	.st74{fill:none;stroke:#000000;stroke-width:1.5;stroke-miterlimit:10;}
	.st75{fill:url(#SVGID_1_);stroke:#231F20;stroke-width:0.9396;stroke-miterlimit:10;}
	.st76{opacity:0.1;}
	.st77{opacity:0.9;}
	.st78{opacity:0.3;}
	.st79{fill:url(#SVGID_00000116212485107054669760000000816747870831725239_);}
	.st80{fill:url(#SVGID_00000092448847523940611480000004413620091283394962_);}
	.st81{fill:none;stroke:#231F20;stroke-width:0.9396;stroke-miterlimit:10;}
	.st82{fill:#FFFFFF;stroke:#231F20;stroke-width:0.2349;stroke-miterlimit:10;}
	.st83{fill:none;stroke:#000000;stroke-width:1.4871;stroke-miterlimit:10;}
</style>
<g id="art">
	<g>
		<path class="st1" d="M160.5,219.4c-32.6,18-65,40.4-81.9,73.6c-8.6,16.8-12.7,35.6-15.4,54.3c-3.8,26.6-2.8,54.4,6.1,79.8
			c4.4,12.8,11.3,24.6,19.1,35.6c28.3,39.4,70.1,68.6,118.2,74.7c16,2,32.2-1.4,48.3-2.1c15.5-0.6,31.4-5.5,45.4-12.3
			c9.3-4.5,17.1-6.3,24.8-13.1c16.6-14.7,31.1-27.8,44.3-45.6c13.3-17.8,19.3-38.5,21.6-60.5c2.4-23,4.4-46-1.5-68.3
			c-4.3-16.2-10.7-32.4-17.9-47.5c-23.2-48-74.9-78.3-127.8-84.6c-28-3.3-57.6-0.3-81.7,14.2c7.2,17.6,17.1,34.1,29.3,48.7
			c4.1,4.9,7.8,11.5,14.1,12.6c19.7,3.6,33.8-0.2,43.4,1.3c33.8,5.3,76.8,42.6,76.9,86c0,17-1.5,35.6,8.1,49.7
			c-25.6,9.3-40.1,30.6-56.4,48.1c-16.7-4.7-40.6,4.3-58.9,14.6c-1.6,0.9-3.3,3.8-5.1,3.7c-2.2-0.1-4.1-0.6-5.9-2
			c-14.4-10.8-33.4-15.3-50.9-19.6c-3.2-0.8-6.4-1.7-9-3.8c-2.3-1.9-6.8-4.5-8.2-7.1c-10.4-18.3-18.7-36.7-29.1-55
			c13.3-20.1,18.4-44,22.9-68.1c0.4-2.2,0.1-4.6,1.3-6.4c1.4-2.2,3.9-3.3,6.2-4.3c11.6-5,25.9-19.5,36.3-26.8
			c5.7-4,15.5-6.5,16.8-13.3c1.3-6.4-8.9-6.7-11.8-12.5c-7.3-14.6-14.6-29.1-21.8-43.7c-2.1,0.9-4.2,1.8-6.3,2.8"/>
		<g>
			<path class="st1" d="M158.2,215.5c-29.3,16.2-58.4,35.8-77.1,64.2c-10.1,15.4-16,33-19.6,51c-3.8,19-5.8,38.5-4.4,57.8
				c1.3,18.6,5.5,37,13.8,53.8c7.6,15.6,18.2,29.9,30,42.7c21.7,23.6,49.2,42.1,79.9,51.4c17.8,5.4,35.4,6.8,53.9,5
				c19.5-1.9,38.4-2.5,56.9-9.8c8.1-3.2,16.1-6.8,24-10.4c8-3.7,14.2-9.3,20.7-15.1c13.5-12.1,26.3-24.9,37.1-39.5
				c10.3-14,16.7-30.4,20-47.4c3.6-18.9,5.3-39.1,4.5-58.4c-0.9-19.8-6.7-38.6-14.2-56.9c-6.4-15.7-13.8-30.6-24.4-44
				c-19.4-24.4-46.6-41.9-75.8-52.1c-31.3-10.9-67.4-14.4-99.4-4.8c-8.4,2.5-16.5,6.1-24.1,10.6c-1.5,0.9-2.8,3.3-2.1,5.1
				c8.6,20.8,20.6,38.9,34.8,56.2c12.4,15.1,35.2,8.8,52.3,9.4c16.3,0.6,32.8,10.7,44.8,21c13.8,11.9,25.2,27.5,29.7,45.4
				c5.6,22.5-2.8,46.7,10.6,67.4c0.9-2.2,1.8-4.4,2.7-6.6c-25.2,9.5-40.7,30.2-58.4,49.3c1.5-0.4,2.9-0.8,4.4-1.2
				c-15.5-4-32,1-46.2,7.1c-4,1.7-8,3.6-11.9,5.7c-1.4,0.7-2.9,1.4-4.2,2.3c-1,0.6-2.4,2.6-3.4,2.9c-1.8,0.5-4.4-2.2-5.7-3.1
				c-1.8-1.2-3.7-2.4-5.6-3.4c-3.7-2.1-7.6-3.8-11.6-5.4c-8.3-3.3-17-5.6-25.7-7.8c-7.6-1.9-15.8-3.8-20.9-10.4
				c-3.1-3.9-5.1-9.3-7.5-13.8c-2.4-4.6-4.7-9.2-7.1-13.8c-4.7-9.2-9.5-18.5-14.5-27.5c0,1.5,0,3,0,4.5
				c8.8-13.6,14.3-28.8,18.2-44.5c2-8.1,3.9-16.4,5.2-24.7c0.3-2.2,0.2-4.6,1.9-6.2c1.2-1.1,3.2-1.6,4.7-2.4c2.9-1.4,5.6-3.1,8.3-5
				c11.4-8,21-18.5,33.5-25c4.8-2.5,10.3-5.6,12-11.2c1.7-5.5-1.2-9.5-5.6-12.4c-2.8-1.8-5-2.7-6.7-5.6c-2.6-4.4-4.7-9.4-7-14
				c-4.8-9.6-9.6-19.2-14.4-28.8c-1.2-2.3-4.1-2.5-6.2-1.6c-2.1,0.9-4.2,1.8-6.3,2.8c-5.3,2.3-0.7,10.1,4.5,7.8
				c2.1-0.9,4.2-1.8,6.3-2.8c-2.1-0.5-4.1-1.1-6.2-1.6c3.9,7.9,7.9,15.7,11.8,23.6c1.9,3.8,3.8,7.6,5.7,11.3
				c1.7,3.5,3.2,7.5,5.6,10.6c1.5,1.9,3.4,3.2,5.5,4.5c1.4,0.8,4.3,1.9,4.4,3.4c0.3,3.8-11.1,7.7-13.6,9.3
				c-11.2,7.1-20.2,17.3-31.5,24.3c-5.1,3.2-12.4,4.7-14.5,11c-1.1,3.3-1.2,7.2-1.9,10.6c-0.8,4-1.6,8-2.5,12
				c-3.9,17.5-9.2,34.7-19,49.9c-0.9,1.3-0.8,3.2,0,4.5c8.1,14.4,15.2,29.3,23,43.8c3.4,6.5,6.1,12.6,12.1,17
				c5.7,4.2,10.9,6.4,17.8,8.1c13.9,3.4,28.1,7,40.4,14.5c4.8,2.9,10.7,8.5,16.8,5.5c2.1-1.1,3.6-3.1,5.6-4.3c3-1.8,6.2-3.3,9.4-4.8
				c13.3-6.3,29.8-12.4,44.6-8.6c1.5,0.4,3.3,0,4.4-1.2c16.4-17.7,31-38.2,54.5-47c2.6-1,4.4-4,2.7-6.6c-11.7-18-5.2-39.9-8.6-59.8
				c-3.1-18-13-34.5-25.5-47.6c-11.8-12.3-26.6-22.4-42.9-27.7c-17.1-5.7-34.7-0.6-52.2-3.6c-6-1-8.7-5.1-12.2-9.6
				c-3.7-4.7-7.5-9.4-11-14.3c-7.5-10.8-13.8-22.4-18.9-34.6c-0.7,1.7-1.4,3.4-2.1,5.1c28.6-16.9,64.1-17.8,95.8-10.8
				c28.6,6.3,56.1,19.6,77.7,39.6c24.3,22.4,38.2,53.1,46.9,84.6c5.1,18.5,4.8,37.5,3.1,56.5c-1.5,17.2-3.7,34.5-10.6,50.5
				c-6.6,15.4-17.3,28.3-28.9,40.3c-5.9,6.1-12.1,11.9-18.5,17.6c-6.4,5.7-12.3,10.9-20.2,14.4c-16,7-31.8,14.5-49.4,16.3
				c-9.5,1-19.1,1.5-28.6,2.3c-9.2,0.8-18.5,1.2-27.7-0.2c-30-4.6-58-18.5-80.9-38.3c-24.7-21.4-45.7-49.4-53.4-81.5
				c-4.3-17.8-5-36.3-3.3-54.5c1.6-18,5.1-36.4,11.7-53.2c12-30.6,37.3-52.8,64.5-69.9c6.6-4.1,13.3-8,20.1-11.8
				C167.8,220.5,163.3,212.7,158.2,215.5L158.2,215.5z"/>
		</g>
	</g>
	<path class="st2" d="M115,238.5c-25.9,21.8-34.8,36.1-41.5,44.8c-6.8,8.7-8.6,31.5-13.7,46.5s-8.2,34.7-7.3,55s4.2,39.8,11,54.9
		s22,37,34.5,51.5s18.1,15,38.6,30.4c20.6,15.4,43.1,19.3,58.1,23.1c15.1,3.8,25.9,0.7,49.6,0s38-3,56.6-10s35.1-22.3,51.7-37.4
		c16.7-15.1,28.3-30.6,32.3-41.2s12.9-19.9,14.5-42.1s3.9-51.7,0-69s-19-60.7-29.2-78.4c-10.2-17.7-40-40.7-51-48
		c-11-7.3-49.8-23.5-68.7-25c-19-1.5-73,4.1-87.3,13.2S128.2,227.4,115,238.5z"/>
	<g>
		<path class="st3" d="M615.9,161.8c3-17.1-2.8-34.5-17.4-53.3s-95.5-58-111.3-57.6s-40.6,8.7-52,20.2
			c-11.4,11.5-13.7,14.1-19.8,31.5s-0.6,74.5,3.3,85.9s38.2,40.8,46.9,44.4s34.8,14.7,52.3,9.9c17.5-4.9,43-10.3,57.5-21.2
			C589.8,210.7,613.9,172.9,615.9,161.8z"/>
		<g>
			<path class="st4" d="M536.9,155.8c4.1-5.9,6.4-13,6.5-20.2c0.1-4.7-0.7-9.4-2.8-13.6c-2.4-4.8-6.3-8.6-10.5-11.9
				c-12.6-10.2-28.4-17.2-44.6-16.8c-4.7,0.1-9.5,0.9-13.2,3.7c-3.9,2.9-6.2,7.7-6.8,12.6c-0.6,4.9,0.3,9.8,1.8,14.5
				c4.6,14.3,14.5,26.7,27.4,34.4c11.4,6.7,26.8,9.3,37.4,1.5c1.4-1,2.7-2.8,1.7-4.2"/>
			<g>
				<path class="st4" d="M540.4,157.8c10.3-15.7,9.4-35.7-4.9-48.4c-13.3-11.9-31-20.2-49-20c-7.8,0.1-15.8,2.1-20.6,8.8
					c-5.3,7.4-5.2,16.9-2.8,25.3c4.6,16.4,16.2,31.1,31.1,39.3c7.9,4.4,17.3,6.9,26.4,5.8c6.4-0.8,19.9-4.9,17.2-13.7
					c-1.5-4.9-9.1-2.8-7.6,2.1c0.1,0.3-5.2,2.6-5.6,2.7c-2,0.7-4.1,1.1-6.2,1.2c-3.7,0.3-7.5-0.3-11.1-1.3
					c-7.8-2.2-14.9-6.7-20.7-12.2c-5.7-5.5-10.4-12.1-13.5-19.4c-3.3-7.7-6.4-19,0-26.1c5.7-6.3,17.4-5,24.8-3.4
					c8.5,1.8,16.4,5.4,23.6,10.2c7.2,4.7,15,10.7,17.3,19.4c2.3,8.9-0.2,18.3-5.2,25.9C530.7,158,537.6,162,540.4,157.8L540.4,157.8
					z"/>
			</g>
		</g>
		<g>
			<path class="st5" d="M612.1,135.2c-3.7-7.9-7.4-15.9-11.1-23.8c-4.5-9.6-9-19.3-15.7-27.6c-12.6-15.6-32-23.9-50.2-32.4
				c-6.6-3.1-12.6-7-19.8-8c-7.1-1-15,0.9-22.1,2c-17.4,2.7-33.8,11-47.6,16.4c-1.5,0.6-4.3,1.1-3.8,2.7c0.4,1.3,1.8,1.8,3.1,2.1
				c6.6,1.4,7-2.7,12.9-5.8c4.7-2.5,14.2-4.8,19.5-5.3c6.5-0.6,12.4,0.8,20.2,7.1c12.9,10.5,36.7,18.9,58.6,18.5
				c10.7-0.2,8.6,3.3,17.6,9.3c16.2,10.8,21.3,31.3,34.9,45.3c1.2,1.3,1.7,3.2,2.4,1.6"/>
			<g>
				<path class="st5" d="M615.5,133.2c-7.2-15.5-13.5-32.2-23.1-46.5c-8.4-12.5-20.4-21.3-33.6-28.4c-6.6-3.5-13.4-6.6-20.2-9.7
					c-6.9-3.2-13.7-7.5-21.3-8.9c-7.5-1.4-15.1,0.2-22.6,1.4c-8.6,1.4-16.9,3.6-25.1,6.6c-7.5,2.8-14.7,6-22.1,9
					c-4.2,1.7-12.5,3.9-8.8,10.1c2.8,4.6,10.3,4.7,14.5,2.1c2.5-1.6,4.4-3.8,7.2-5.1c3.2-1.6,6.8-2.5,10.2-3.3
					c6.2-1.5,12.2-2.2,18.1,0.7c6.3,3.1,11.4,8.3,17.7,11.6c13.2,7,28.2,11,43.1,11.9c3.7,0.2,8.3-0.7,11.8,0.6
					c2,0.7,3.3,2.5,4.8,3.9c5.7,5.3,12,9.1,16.7,15.5c4.6,6.2,8.2,13,12.3,19.5c2,3.2,4.1,6.2,6.4,9.2c2,2.5,4.3,6,7,7.8
					c1.3,0.9,3.8,0.7,4.8-0.6c0.2-0.2,0.3-0.4,0.5-0.6c3.1-4-2.5-9.6-5.6-5.6c-0.2,0.2-0.3,0.4-0.5,0.6c1.6-0.2,3.2-0.4,4.8-0.6
					c0.8,0.5-1.3-1.8-1.6-2.1c-1.1-1.3-2.3-2.5-3.3-3.8c-2.3-3-4.4-6.2-6.4-9.4c-3.7-5.9-7-12.1-11.1-17.7c-3.7-5.2-8-9.9-13.2-13.7
					c-4-2.9-7.6-7.5-12.2-9.4c-6.1-2.5-13.7-1.1-20.2-1.8c-8.1-0.9-16.2-3-23.8-5.8c-6.8-2.5-13.4-5.8-19.2-10
					c-5.4-4-10.4-7.9-17.2-9c-6.9-1.1-14.3,0.6-20.9,2.6c-3.3,1-6.7,2.2-9.6,4.2c-1.3,0.9-2.5,2.1-3.8,3c-1.3,0.9-4.2,1.1-4.2,2.1
					c-0.4,0.9-0.8,1.9-1.2,2.8c1-1,3.6-1.5,4.9-2c2-0.8,4-1.6,6-2.5c4.2-1.8,8.5-3.6,12.7-5.2c8.4-3.3,17-6,26-7.5
					c8.8-1.5,17.7-3.5,26.4-0.3c7.7,2.8,15.2,7.1,22.6,10.7c14.4,6.8,29.2,14.4,39.3,27c5.7,7.1,9.7,15.4,13.6,23.6
					c4.2,9,8.4,18,12.6,27C610.8,141.8,617.6,137.8,615.5,133.2L615.5,133.2z"/>
			</g>
		</g>
		<g>
			<path class="st5" d="M589.3,212.5c5.3-10.9,11.3-21.2,16.6-32.2c1.4-2.9,2.8-5.7,3.8-8.7c0.8-2.4,0.4-2.1-0.3-4.6
				c-0.7-2.5-2.7-6.8-5.3-6.4c-1.3,0.2-1.8,0.3-2.8,1.2c-2.3,2.1-2.6,5.9-3.9,8.7c-1.7,3.6-1.7,8.1-3.2,11.7
				c-2.9,7-9,12.1-13.4,18.2c-4.4,6.2-10.9,8.9-9.7,16.4c0.1,0.7,2.7,3.3,3.3,3.7c0.5,0.3,0.4,1,1,1c6.7-0.8,10.8-5.2,14.5-10.8"/>
			<g>
				<path class="st5" d="M592.7,214.5c3.5-7.1,7.3-14.1,11-21.1c3.5-6.6,7.7-13.5,9.8-20.7c2.4-7.9-6.6-21.7-15-13.6
					c-3.7,3.5-5.4,10.8-6.5,15.5c-1.7,7.8-5.4,12.7-10.5,18.7c-3.8,4.4-8.1,8.8-11.5,13.4c-2.7,3.6-4.4,8.9-1.9,13
					c2.7,4.5,6.5,6.6,11.6,4.8c6-2,10.1-6.8,13.5-11.9c2.8-4.3-4-8.2-6.8-4c-3.1,4.7-6.4,8.1-12.1,9c1,0.1,2,0.3,3.1,0.4
					c1.2,0.8-1.7-1.6-2-2.1c-0.7-1.2-0.4-2.3,0.5-3.9c2-3.6,5.9-6.4,8.4-9.7c6.3-8.2,13.1-14.6,15.3-25.1c0.3-1.4,2.9-12.8,4.6-12.8
					c0.3,0,1.9,4,2,4.8c0,2.7-2,5.6-3.2,8c-5.3,11.2-11.6,21.9-17,33C583.6,215.1,590.5,219.1,592.7,214.5L592.7,214.5z"/>
			</g>
		</g>
		<g>
			<path class="st5" d="M532.9,241.2c5.5-0.2,10-3.5,13.3-7.9c0.6-0.8,0.8,0.4,0.9-0.6c0.3-3.2-0.5-3.9-3.6-4.6
				c-5.3-1.2-11.9-3.9-17.2-2.7c-3.3,0.8-6.4,2.3-9.6,3.6c-7.6,3-14.2,5.7-22.4,6.4c-1.9,0.2-4.2-1-5.3,0.6c-1,1.4-0.7,2.1,0.4,3.4
				c1.1,1.3,0.6,1.6,2.2,2.2c12.6,4.8,26.5,3.7,40.1-0.3"/>
			<g>
				<path class="st5" d="M532.9,245.2c3.1-0.3,6.1-1,8.9-2.5c2.7-1.6,4.5-4.6,7-6.2c-1.3,0-2.7,0-4,0c0.1,0,0.2,0.1,0.3,0.1
					c2.4,1.1,5,0.3,5.8-2.4c1.2-3.8-0.4-7.7-4.1-9.3c-4.8-2.1-11.3-3.6-16.6-3.8c-6.2-0.2-12,3.1-17.6,5.3c-6,2.3-12.7,5.1-19.3,4.9
					c-4.2-0.1-8.7,1-8.5,6.3c0.2,4.2,4.1,7.1,7.7,8.3C505.4,250.5,519.8,248.8,532.9,245.2c4.9-1.4,2.8-9-2.1-7.6
					c-6.9,1.9-13.9,3.3-21.1,3.3c-3.6,0-16.5,0.1-17.3-4.6c-0.1,1-0.3,2-0.4,3.1c0,0.1,11-1.2,11.7-1.4c4.8-1.2,9.5-3.1,14.1-5
					c4.6-1.9,9-4.3,14.2-3.6c2.5,0.4,5,1.2,7.5,1.8c1.2,0.3,2.4,0.6,3.6,0.9c0.9,0.2,0.4-0.9,0.1,0.1c1.9-0.8,3.9-1.6,5.8-2.4
					c-2.5-1.1-4.2-0.5-6,1.4c-3,3-5.5,5.7-10.1,6.1C527.9,237.7,527.8,245.6,532.9,245.2L532.9,245.2z"/>
			</g>
		</g>
		<g>
			<path class="st5" d="M435.5,215.2c0.4,1.6,1.1,3.2,2.1,4.5c2,3,5.6,4.3,8.6,6.2c2.3,1.5,5.4,2.2,8.1,2.7c2.7,0.6,4.5,1.8,6.6-0.1
				c0.8-0.7,1.4-1.7,1.6-2.7c0.2-2.1-1.4-4-3.1-5.2c-15.9-11.4-21.6-19-32.4-28.5c-0.5-0.4-1-0.9-1.7-1c-0.6-0.1-1.2,0.1-1.8,0.5
				c-2.7,1.7-1.9,5.3-1,8.2c0.9,3,2.3,4.8,4.4,7.1c4.2,4.6,7.8,10,12,14.6"/>
			<g>
				<path class="st5" d="M431.7,216.3c2.3,7,7.3,10.6,13.7,13.8c4.5,2.2,13,5.3,17.5,2c5.3-3.9,3.8-10.4-0.7-14.2
					c-5.7-4.8-11.7-9-17.1-14.1c-4.4-4.1-8.7-8.5-13.1-12.6c-3.9-3.5-8.9-6.2-12.7-0.7c-3.3,4.7-0.5,12.2,2.5,16.3
					c4.4,6,9.5,12,14.5,17.6c3.4,3.8,9-1.8,5.6-5.6c-3-3.4-5.8-7.1-8.6-10.7c-1.4-1.7-3-3.3-4.3-5c-1.4-1.8-1.8-3.6-2.8-5.6
					c0.1-1.4-0.5-2.2-1.8-2.6c0.7,0.6,1.4,1.2,2.1,1.9c1.3,1.2,2.6,2.4,3.9,3.6c2.3,2.2,4.6,4.5,6.9,6.7
					c5.5,5.3,11.2,10.1,17.3,14.7c1.1,0.8,2.2,1.6,3.2,2.4c-0.4,1.2-1.1,1.4-2.2,0.6c-1.8,0-4.3-0.9-5.9-1.7
					c-4.3-1.9-8.6-4.5-10.1-9.1C437.7,209.3,430.1,211.4,431.7,216.3L431.7,216.3z"/>
			</g>
		</g>
		<g>
			<path class="st5" d="M422.8,180c3.7-7.1,0.1-14-1.6-21.8s-2.3-18.2-1.1-26.1c0.6-4.3,1.5-9,2.5-13.3c2-8.1,2.7-16.1,0.4-24.1
				c-0.4-1.4-0.2-2.3-1.5-2.8c-2.4-1-5.4,8.2-6.3,10.6c-4.8,13.5-5.1,22.2-7.1,36.4c-1,7.5-2.2,13.7-0.5,21
				c1.7,7.3,7.6,17.9,14.8,20.1"/>
			<g>
				<path class="st5" d="M426.3,182c3.1-6.8,2-12.9,0.1-19.9c-2.1-7.7-3.1-15.6-2.8-23.7c0.6-15.3,8.8-31.1,2.9-46.4
					c-1.8-4.8-6.9-5.1-10-1.4c-3,3.7-4.4,9.1-5.9,13.5c-4.6,14-6.4,29.9-7.5,44.5c-1,13.2,4.9,30.2,18.4,35.2
					c4.8,1.8,6.9-5.9,2.1-7.6c-6.2-2.3-10.1-10.2-11.8-16.2c-2.3-8.6,0-17.8,1.1-26.4c1-7.9,1.9-15.7,4.1-23.3
					c0.8-3,1.8-5.9,2.9-8.8c0.5-1.4,1-2.7,1.6-4c0.3-0.6,0.6-1.2,1-1.8c1-1.1,0.3-1-2,0.3c-0.6-0.8-1.2-1.6-1.8-2.4
					c5.3,14.2-2.1,28.8-3,43.1c-0.4,6.5,0.1,13,1.1,19.4c1.2,6.9,5.6,15,2.6,21.8C417.3,182.6,424.2,186.7,426.3,182L426.3,182z"/>
			</g>
		</g>
	</g>
</g>
<g id="nuclei">
	<g>
		<g>
			<path class="st6" d="M367.1,407.8c10.5-1.9,15-12.7,14.2-22.3c-0.7-8.3-2.2-18.3-10.3-22.7c-9.8-5.3-20.7,1.6-23.4,11.6
				c-2.2,8.4-1.5,17.9,1.4,26c2.1,5.8,7.8,9.8,14.1,8c5.6-1.6,10.1-8.3,8-14.1c-0.8-2.2-1.5-4.5-1.8-6.8c-0.2-1.4-0.1-2.8,0-4.2
				c0-0.1,0.2-3.2,0.4-2.7c-0.3-0.8-12.6,1.7-12.3,0.3c-0.1,0.7,0.5,2.2,0.6,3c0.1,1,0,2.5,0.3,3.5c0,0.6,0,1.2,0,1.8
				c0.4-1.5,1.3-2.6,2.6-3.4c-6.1,1.1-9.6,8.5-8,14.1C354.7,406.2,360.9,408.9,367.1,407.8L367.1,407.8z"/>
		</g>
	</g>
	<g>
		<g>
			<path class="st6" d="M323.6,261.1c-0.1,0-0.2-0.1-0.2-0.1c-4.6-1.7-10.7,1.1-13,5.3c-5.4,10.1,4.2,20.5,12,26.1
				c9.1,6.5,21.5,5.7,27.6-4.4c5.6-9.3,3.7-22.2-6.4-27.4c-9.3-4.8-19.9-6.2-29.6-2c-5.7,2.5-7,10.8-4.1,15.7
				c3.4,5.9,10,6.6,15.7,4.1c-1.3,0.6,1.1,0.5,0.8,0.4c0.7,0.2,2.4,0.6,3.4,0.9c0.7,0.2,1.4,0.4,2,0.7c1.3,0.5,1.5,0.5,0.7,0.2
				c-0.7-1.1-1.4-2.1-2.2-3.2c0.1-2.2,0-2.4-0.4-0.6c0.1-0.9,0.7-1.4,1.8-1.7c1.1-1.2,2.4-1.6,4.1-1.3c0.3-0.4-0.5-0.3-0.6-0.4
				c-2.5-2.1-3.6-3.5-5.2-6.3c0.5,1.9,1,3.9,1.6,5.8c0-0.2,0-0.3,0-0.5c-0.5,1.9-1,3.9-1.6,5.8c0.1-0.1,0.1-0.2,0.2-0.4
				c-4.3,1.8-8.7,3.5-13,5.3c0.1,0,0.2,0.1,0.2,0.1c5.8,2.1,12.6-2.4,14.1-8C333.4,268.9,329.5,263.2,323.6,261.1L323.6,261.1z"/>
		</g>
	</g>
	<g>
		<g>
			<path class="st6" d="M223.1,258.8c9.1,2.5,20.2,5,29.5,2.3c10.1-3,17.4-14.9,11.6-24.7c-5.5-9.2-18.6-8.9-28-8.3
				c-11.7,0.8-21.4,5.1-22.7,17.9c-0.6,6.2,5.7,11.5,11.5,11.5c6.8,0,10.9-5.3,11.5-11.5c-4.9,4.7-5.6,6.4-2.2,5.2c0,0,0.1,0,0.1,0
				c1.9,0.3,4.4-0.3,6.4-0.4c1.6,0,3.2-0.1,4.8,0.1c0.7,0,1.4,0.1,2.1,0.3c-0.8-0.6-0.6-0.5,0.5,0.4c-1.4-1.4-2.8-2.8-4.1-4.1
				c-1.7-4.5-0.9-7.4,2.5-8.7c-1.3,0.7-1.7,0.8-1.4,0.3c-1.5-0.3-3.3-0.1-4.8-0.3c-3.8-0.4-7.5-1.3-11.1-2.3
				C214.9,232.8,208.8,254.9,223.1,258.8L223.1,258.8z"/>
		</g>
	</g>
	<g>
		<g>
			<path class="st6" d="M136.9,281.2c9.4-1.9,19-6.4,26-13.1c8.9-8.6,7.8-24.7-5.5-28.1c-5-1.3-10.4,0.2-15.3,1.4
				c-5.2,1.3-10.6,3-14.9,6.2c-10,7.7-14,24.4-1.2,31.5c13,7.2,24.6-12.7,11.6-19.9c0.5,0.4,1,0.9,1.5,1.3c0.5,1.9,1,3.9,1.6,5.8
				c-0.9,2-0.9,1.9,0.2-0.1c0-0.3,0.1-0.5,0.4-0.6c0.6-0.6,2.7-1,3.5-1.2c1.7-0.5,3.5-1,5.2-1.4c1.2-0.3,2.3-0.5,3.5-0.8
				c-0.9,0.2-1.8,0.1-2.8-0.3c-1.4-1.4-2.8-2.8-4.1-4.1c2.4-6.8,2.4-8.9,0.1-6.2c-0.4,0.4-0.7,0.7-1.2,1c-1.4,1.1-3.1,2.1-4.7,2.9
				c-3.1,1.7-6.5,2.6-9.9,3.3c-6.1,1.3-9.6,8.4-8,14.1C124.5,279.5,130.8,282.4,136.9,281.2L136.9,281.2z"/>
		</g>
	</g>
	<g>
		<g>
			<path class="st6" d="M84.4,376c5.8,2.9,12.2,2.9,17.4-1.4c4.7-3.9,6.1-9.4,6.7-15.3c1.1-10.7-1.9-24.8-13.5-28.5
				c-12.2-3.9-20.9,6-23.4,16.9c-2.5,11.1-2.1,21.9,7.7,29.1c5,3.7,12.8,0.8,15.7-4.1c3.4-5.8,0.9-12-4.1-15.7
				c2.1,3.5,2.8,4.3,2.2,2.5c-0.2-0.8-0.2-0.8,0-0.1c0.2-0.8,0-1.9,0.1-2.8c0.1-1.2,1.7-6.2,1.6-6.3c-3.2,0.2-6.4,0.4-9.7,0.6
				c-0.2,0.2-0.2,0.5,0.1,0.8c-0.1,0.6,0.3,2.1,0.4,2.7c0.2,2.6,0.1,4.4-0.8,5.5c1.4-1.4,2.8-2.8,4.1-4.1c0.8-0.2,1.5-0.3,2.3-0.5
				c1.9,0.5,3.9,1,5.8,1.6c-0.4-0.2-0.7-0.4-1.1-0.6c-5.5-2.8-12.5-1.5-15.7,4.1C77.3,365.4,78.8,373.2,84.4,376L84.4,376z"/>
		</g>
	</g>
	<g>
		<g>
			<path class="st6" d="M83.8,427c0,7.8,1.9,15.8,6,22.5c2.4,3.9,5.6,7.4,10.2,8.6c5.6,1.5,11.8-1,14.8-5.9c4.2-6.7,2.2-16-0.2-23
				c-3-8.8-12-16.7-21.8-12.9c-5.8,2.2-9.8,7.7-8,14.1c1.5,5.5,8.3,10.3,14.1,8c-1.9,0.3-3.5-0.2-4.7-1.6c-1.1-0.2-1.7-0.8-1.8-1.7
				c-0.1,0.1,0.9,3,0.9,3.2c0.3,1.2,0.7,2.4,0.8,3.6c0.3,2.4-0.9,1.3,0.8-1.5c1.4-1.4,2.8-2.8,4.1-4.1c-0.3,0.2-0.5,0.4-0.8,0.5
				c1.9-0.5,3.9-1,5.8-1.6c-0.4,0-0.7,0-1.1,0.1c1.9,0.5,3.9,1,5.8,1.6c1.7,2.3,2,2.6,0.8,0.8c-0.2-0.4-0.4-0.8-0.7-1.2
				c-0.7-1.2-0.7-1.3-1.1-2.8c-0.9-2.9-1-3.6-1-6.9c0-6.2-5.3-11.5-11.5-11.5C89,415.5,83.7,420.8,83.8,427L83.8,427z"/>
		</g>
	</g>
	<g>
		<g>
			<path class="st6" d="M159.6,485.3c0.2-0.5-0.1-0.9-0.9-1.2c1,1.7,2,3.4,3,5.1c0,0.2,0,0.3-0.1,0.5c-0.5,1.9-1,3.9-1.6,5.8
				c-7.6,0.9-9.5,2-5.7,3.5c0.5,0.3,1,0.5,1.5,0.8c1.7,0.9,3.3,2,4.9,3.1c1.9,1.4,4.7,3.4,5.8,5.4c-0.4-3-0.8-5.9-1.2-8.9
				c-0.1,0.3-0.2,0.6-0.2,0.9c1-1.7,2-3.4,3-5.1c1.1-0.6,2.1-1.2,3.2-1.8c-0.3,0.2-0.6,0.2-1-0.1c0.4,0.5-4-1.8-2.5-1
				c-2-1.1-3.7-2.6-5.4-4.1c-4.7-4-11.6-4.6-16.3,0c-4.1,4.1-4.7,12.2,0,16.3c8.3,7.1,18.2,14,29.9,11.5c6-1.3,11.1-5.4,11.8-11.9
				c0.7-6.6-3.9-11.5-8.5-15.6c-7.4-6.5-18.6-14.9-29-12.4c-6.3,1.5-11.4,7.1-11.6,13.7c-0.2,7,4.1,11.7,9.4,15.5
				c5,3.7,12.8,0.8,15.7-4.1C167.2,495.2,164.7,489,159.6,485.3L159.6,485.3z"/>
		</g>
	</g>
	<g>
		<g>
			<path class="st6" d="M221.4,529.6c8.8,2.3,18.1,1.2,26.1-3.2c8.7-4.8,17.8-15.7,9.3-25.1c-12.9-14.4-48.6-4.7-42.1,17.8
				c2.3,8.1,13.2,11.5,19.2,5.1c0.2-0.3,0.5-0.5,0.7-0.8c10.1-10.8-6.1-27.1-16.3-16.3c-0.2,0.3-0.5,0.5-0.7,0.8
				c6.4,1.7,12.8,3.4,19.2,5.1c0.3,1.3,0.1,2.5-0.6,3.5c-0.3,1-0.9,1.6-1.9,1.9c0-0.1,1.9-0.4,2-0.4c1.3-0.2,2.6,0,3.9-0.1
				c2.6-0.2,1.5,1.2,0.3-0.3c-1.1-2.7-2.2-5.4-3.4-8.1c0,0.3-0.1,0.7-0.1,1c0.5-1.9,1-3.9,1.6-5.8c0.7-1-1.3,1.1-1.6,1.2
				c-1.2,0.8-2.1,1.1-2.8,1.4c-2.3,0.7-4.6,0.7-6.7,0.2C213.2,503.7,207,525.8,221.4,529.6L221.4,529.6z"/>
		</g>
	</g>
	<g>
		<g>
			<path class="st6" d="M342,485.4c7.6-3.6,12.3-11.2,16.3-18.3c3-5.3,3.6-11.1,0.2-16.4c-3.7-5.7-10.9-7.8-17.3-6.1
				c-8.4,2.2-16.7,9.3-21.1,16.7c-3,5.2-3.6,11.7-0.4,17c3.4,5.6,10.4,8.6,16.8,6.6c5.9-1.9,9.7-8,8-14.1c-1.6-5.8-8.2-9.9-14.1-8
				c0.4-0.1,0.8-0.1,1.2-0.2c1.9,0.5,3.9,1,5.8,1.6c2.5,2.6,3.5,5.4,2.9,8.3c-0.6,0.6-0.4,0.4,0.5-0.7c0.9-1,1.8-1.9,2.8-2.8
				c-0.7,0.5,1.9-1.2,1.9-1.3c0.8-0.4,1.5-0.9,2.3-1.2c-1.5,1-3.2,1-5.1,0c-1.4-1.4-2.8-2.8-4.1-4.1c-0.1-0.3-0.1-0.5-0.2-0.8
				c0-2,0-4.1,0-6.1c0.8-1.1,0.8-1.1,0,0c-0.4,0.7-0.8,1.4-1.3,2c-0.8,1.4-1.7,2.8-2.5,4.1c-0.4,0.7-0.9,1.3-1.4,2
				c0.6-0.8,0.4-0.7-0.5,0.4c-1,0.9-1.1,1.1-0.3,0.4c-0.7,0.4-1.3,0.8-2.1,1.1c-5.6,2.6-7.1,10.7-4.1,15.7
				C329.6,487,336.4,488,342,485.4L342,485.4z"/>
		</g>
	</g>
	<g>
		<g>
			<path class="st6" d="M555.2,65.5c-5.2-9.6-14.7-16.8-25.4-18.8c-9.8-1.9-29.9,1.3-25.2,15.9c3.5,10.9,19.8,12.1,28.8,15.6
				c5.4,2.1,12.8,4.1,18.3,1c6.8-3.9,5.8-12.2,0.1-16.3c-3.7-2.7-9.6-0.6-11.7,3.1c-2.5,4.3-0.7,9,3.1,11.7c0.2,0.1,0.3,0.3,0.5,0.4
				c-1.4-2.5-2.8-4.9-4.2-7.4c0,0.2,0,0.5-0.1,0.7c1.4-2.5,2.8-4.9,4.2-7.4c1.7-1.3,1.1-0.1-0.6-0.7c-1.4-0.5-2.8-0.8-4.2-1.3
				c-2.7-1-5.3-2.1-8-2.9c-3.9-1.1-9.1-1.4-11.8-4.8c0.7,1.3,1.5,2.5,2.2,3.8c-0.1-0.3-0.2-0.6-0.3-0.9c0,1.5,0,3,0,4.6
				c-0.5,2.4-2.2,1.7,1,1.5c0.9-0.1,2,0,2.9,0.1c2.1,0.2,4.2,0.8,6.1,1.7c4.3,2,7.4,5.2,9.7,9.3C545.6,83.9,560.4,75.2,555.2,65.5
				L555.2,65.5z"/>
		</g>
	</g>
</g>
<g id="sketch">
	<g>
		<path class="st7" d="M398.9,355.3c1.3,3.3,2.7,6.4,4.9,9.4c3.9,5.5,5,12,1.6,18.3c-3,5.5-2.8,11-0.8,16.6c1.1,3,1.9,6.3,0.8,9.1
			c-2.5,6.5-3.3,13.5-6.6,19.6c-1.5,2.8-2.7,5.5-2.1,8.9c0.8,5.4-1.2,9.9-5.1,13.5c-3.2,3-5.5,6.4-6.9,10.7
			c-1.1,3.3-3.2,6.5-5.5,9.2c-7.3,8.3-12.9,17.8-19.3,26.7c-2.8,4-5.8,7.6-10.5,9.4c-3,1.1-5.7,2.8-7.5,5.4
			c-3.9,5.9-10.1,8.4-15.7,12.1c-6.2,4-13.5,6.2-19.2,10.9c-0.4,0.3-0.8,0.7-1.2,0.7c-8.9,1.6-16.7,7.2-26.2,6.6
			c-4.8-0.3-9.3,0.2-13.7,3c-3.6,2.3-8.2,2.5-12.5,2.7c-3.4,0.1-6.5,0.7-9.5,2.7c-3.7,2.4-8.1,2.8-11.7,0.5
			c-7.2-4.6-14.8-3-22.3-2.6c-1.9,0.1-3.8,0.7-5.7,0.8c-3.4,0.2-5.8-0.9-7.1-4.6c-1.9-5.4-3.8-5.9-9.3-4.3
			c-9.4,2.7-18.2,2.9-27.6-1.9c-6.5-3.3-13.5-6.6-21-8.5c-7.6-2-15.5-4.7-21.7-10.4c-2.4-2.2-4.8-4.7-8.8-3.3
			c-2.6,0.9-4.1-1.1-4.7-3.3c-0.9-3.1-2.7-5.6-4.9-7.8c-1.8-1.8-2.5-4-2.8-6.5c-1.2-7.5-4.6-13.5-11.5-17.2c-2.5-1.3-4-3.6-4.5-6.2
			c-1.1-5-3.5-9.4-6-13.7c-5.2-8.8-9.2-18.4-16-26.3c-3.4-4-2.5-9.3-1.6-13.8c0.8-3.7,0.5-5.4-3.3-6.8c-7.3-2.8-8.7-6.5-6.3-14.2
			c0.5-1.6,2-3.3,1.2-4.7c-2.8-5,0.6-9.1,1.3-13.6c1.4-9.1,2.8-18.5-1.7-27.4c-2-3.9-2.3-7.8,0.1-11.6c1-1.7,1.8-3.1,1.4-5.3
			c-1-5.6-0.9-5.6,5.4-7.1c-1.6-3.4-0.7-6.3,1.1-9.4c2.9-5,5.1-9.9,2.4-16.1c-1.9-4.2-0.1-6.8,4.4-9.2c3-1.6,5-3.5,5.3-7
			c0.1-2.2,1-4.2,2.5-5.8c1.9-2,3-4.3,3.4-7c0.3-2,1.3-3.8,3.1-4.6C84.1,268.2,87,261,91.1,255c1.5-2.2,2.6-4.7,5.1-5.9
			c6.8-3.5,11.6-9.2,16.9-14.4c4-3.9,8-7.5,13.4-9.4c1.5-0.5,2.9-1.7,4.1-2.8c7.5-6.8,16.8-10.8,25.3-16c7.9-4.8,17-5.7,24.8-10.2
			c0.2-0.1,0.5-0.1,0.7-0.3c6-5,12.2-6.2,19-1.4c1.6,1.1,3.9,0.8,5.5-0.4c5.3-4.2,11.4-3.2,17.3-2.7c6.4,0.6,12.8,1.6,19.3,0.4
			c1.3-0.2,2.9-0.1,4.2,0.5c7.1,2.9,14.4,3.4,21.9,3.1c4.4-0.2,8.6,0.6,12.1,3.5c1.1,0.9,2.5,1.7,3.8,1.8
			c10.1,0.6,18.6,5.7,27.5,9.6c1.7,0.8,3.6,1.9,5.4,1.9c6-0.2,9.4,3.4,13.2,7.2c6.4,6.3,11.7,14,20.6,17.6c1,0.4,1.9,1.5,2.4,2.6
			c2.7,5.7,7.9,9.7,11.1,14.9c4.8,8,9.7,15.9,16.3,22.5c0.3,0.3,0.6,0.8,0.7,1.3c2.8,10.6,9.2,19.8,11.8,30.6
			c1.6,6.6,4.2,13.2,8.9,18.7c4.5,5.2,4.8,10.8,0.9,16.5c-1.8,2.6-1.7,6.1-4.4,8.1c-4.5-0.6-4.8-4.1-4.9-7.6
			c-0.4-5.8-2.2-11-5.2-16.1c-3.2-5.5-3.2-12.3-6.3-18.3c-2.3-4.5-3.8-9.7-5.8-14.5c-1-8.6-6.8-15-10.9-22
			c-7.8-13.5-18-25.4-29.5-35.9c-3.8-4.1-8.3-7.3-13.1-10.1c-2.1-2.8-4.9-4.5-8.4-5c-17.3-9.8-35.5-16.6-55.6-18.1
			c-9.5-0.7-18.9-1.9-28.5-2.2c-8.2-0.3-16.2-0.5-24.2,1.2c-2.1,0.4-4.2,0.6-6.3,1c-1.7,0.1-3.4,0.1-5.1,0.2c-2.6,0-5,0.8-7.4,1.7
			c-1.5,0.7-3,1.2-4.7,1.1c-1.3,0.1-2.5,0.1-3.8,0.3c-2.5,0.4-4.8,1.4-6.8,3.1c-1.9,2.3-4.4,3.4-7.3,4.3c-10.7,3.4-21,7.7-29,16.2
			c-6.8,2.3-11.4,7.7-16.9,11.7c-19.1,15.6-33,35.4-45.7,56.2c-3.3,5.5-4.2,11.6-5.6,17.6c-8.1,22.4-9.9,45.8-9.8,69.3
			c0,4.2-0.3,8.5,0.1,12.8c1,4,5.6,6.7,4.2,11.5c0.3,3.2,0.1,6.3,1.5,9.6c6.6,15.7,15,30.5,24.4,44.7c2.2,7.3,6.9,12.7,12.5,17.6
			c1.2,1.1,2.1,2.5,3,3.9c0.9,1.7,2.1,3.3,3.2,4.9c2.8,5.4,8.4,6.9,13.3,9.1c9.2,4,17.1,10.1,26,14.5c5.2,5.3,11.3,9.2,17.7,12.8
			c7.5,4.3,15.1,8.1,24.3,6.3c3-0.6,6.2-0.7,9.1,0.6c4.3,5.2,10,5.2,15.9,4c11.2-2.3,22.7-0.5,33.9-2.6c10.2,0.1,20.2-1.7,30.1-3.5
			c6.3-1.2,12.6-2.7,17.9-6.5c13.8-3,25.9-9.8,36.3-19c6.1-5.3,13.1-9.6,18.3-16c11.1-13.4,21.9-27,30.4-42.2c1-1.9,1.4-4,2.2-6
			c8.1-8.5,7.7-19.6,9.4-30.1c0.2-4.3-0.2-8.6,0.4-12.8c2.2-12.7,4.9-25.3,4-38.4C396.4,359.2,396.2,356.6,398.9,355.3z"/>
		<path class="st8" d="M398.9,355.3c0.1,13.9-0.1,27.8-3,41.4c-0.3,1.6-0.7,3.2-1.1,4.9c-1.6-0.1-2.4-1.2-3.4-2.3
			c-2.3-2.6-1.9-5.7-1.3-8.8c1.2-6.5,1.4-13.2,2.3-19.8c0.9-6.7,0.5-13.3-4.6-18.7c-1.2-1.3-1.5-2.9-1.4-4.7
			c0.5-2.4,0.3-4.7-0.9-6.9c-0.5-1.4-0.5-2.7-0.2-4.1c0.4-1.1,1.2-2,1.8-2.9c1.1-1.8,2-3.9,4.7-3.2c2.7,0.7,2.5,3.2,2.9,5.1
			c0.6,3.4,0.3,7,2.6,9.9c1.1,2.3-0.1,5.1,1.6,7.3C398.9,353.3,398.9,354.3,398.9,355.3z"/>
		<path class="st9" d="M206,201.4c12.6-2.6,25.1-1.4,37.8-0.6c18.3,1.1,36.1,3.7,53.2,10.5c6.8,2.7,14,5,19.6,10.3
			c0.9,1.5,0.2,2.6-1,3.5c-0.4,0.2-0.9,0.4-1.3,0.4c-0.2,0,0,0.2,0.7,0.1c1.2-0.1,2.3-0.6,3.4-1c2.5-0.6,4.8-0.4,6.9,1.1
			c4.3,3.4,8.5,6.8,12.8,10.2c0.7,3-1.6,3.7-3.6,4.7c-2.3,0.6-4.2-0.1-5.7-1.7c-5.5-5.9-11.8-6-18.6-2.9c-2.7,0.5-4.9-0.7-7.2-1.8
			c-0.4-0.3-0.9-0.7-0.8-1.1c0.7-7.5-4.2-11.4-9.5-15c-8.9-6.5-19.6-5.9-29.6-7c-10.2-1.1-20.4-2.7-30.5-4.1
			c-11.4-1.6-21.8,0.1-31.5,6.5c-4,2.6-6,6-6.1,10.7c-0.1,5.8,0.5,11.4,2.9,16.8c2.7,6.4,5.1,12.8,6,19.8
			c1.1,9.3,6.7,14.8,16.2,16.3c2.4,0.4,4.7,0.9,6.8,2.1c2.1,1.6,3.5,3.5,2.6,6.3c-6.6,5.1-13.5,4.8-20.6,1.1
			c-7.4-2.8-11.7-8.8-16-14.9c-4.2-7.6-4.3-17-10.6-23.8c-1.9-2-1.6-5.4-0.4-8.2c2-3.9,3-8.1,3-12.4c0.2-11.1,3.7-19.9,15.3-23.4
			c0.4-0.5,0.8-1,1.3-1.5C202.8,201.6,204.6,202.5,206,201.4z"/>
		<path class="st10" d="M66.1,316.3c1.8-9.1,3.5-18.4,9.6-25.9c8.1-10,14.9-20.9,23-30.9c5.5-6.8,12.7-12.2,19.1-18.2
			c6.3-0.5,3.4,3.9,3.6,6.7c-5.2,5.8-11.5,10.5-16.6,16.5c-2.6,3.1-4.9,6.3-7,9.6c0.2,0,0.1,0.3,0.3,0.3
			c5.9,5.7,11.4,11.7,16.7,17.8c4.9,5.6,10,10.2,17,13.7c5,2.5,10.1,5.6,15,8.6c0.6,1,0.7,2,0.6,3.1c-3.1,5.6-8.4,10.1-8.2,17.4
			c0.1,1.5-2,2.5-3.8,2.6c-1.1-0.1-2-0.6-2.9-1.2c-2.4-13.2-10.6-21.8-21.3-29.4c-5.7-4.1-11.3-9.4-15.3-15.7c-0.2-2.2,0.9-5-2-6.3
			c-2-0.9-3,0.8-4.2,1.8c-7,7.4-10.3,16.9-14.9,25.7c-1.7,3.3-1.3,8.4-6.6,9.2C64.8,320.9,65.1,318.7,66.1,316.3z"/>
		<path class="st11" d="M247.6,539.5c-6.8,0.3-13.6,0.9-20.5,0.1c-5.5-0.6-10.8,0.9-16.2,1.9c-1.9,0.3-3.8,0.7-5.6,0.8
			c-5.8,0.4-5.8,0.3-7.7-5.2c-0.7-0.3-1.2-0.7-1.6-1.4c1.4-11.4,4.5-22.4,7.3-33.4c4.6-18,5.2-18.5-11.2-26.9
			c-10.7-5.5-22.5-8.9-33.8-13.4c-3.7-1.5-7.6,0.2-11.4-0.7c-0.6-0.2-1.2-0.6-1.7-1c-2-2-4.1-0.4-6.2-0.3c-2.1-0.3-3.1-1.9-4.3-3.4
			c-1.1-3.1-1.4-6.2,0.6-9.2c1.1-1,2.2-2.2,3.9-2.1c2.8,0.6,4.1,5.2,8,3c17.9,3.6,34.6,10.6,50.8,18.8c0.9,0.4-0.2-0.1,0.6,0.4
			c7.5,4.7,14.7,7.8,23.4,1.7c12.3-8.5,27.4-9.2,41.1-13.8c2.8-0.5,5.6-0.1,8.4-0.6c2.3-0.4,4.4,0.2,5,2.6c0.7,2.8-1.6,3.9-3.6,4.4
			c-13.4,3.5-26.1,9-39.1,13.7c-5,1.8-10.8,2.4-14.4,7.2c-1,1.4-0.9,3.1-1.6,4.6c-2.9,13.7-7.5,26.9-9.6,40.8
			c-0.7,4.2,1,5.2,4.5,5.1c8.8-0.2,17.5,1.8,26.4,1.4c3.2-0.1,6.9-0.6,9,3C248.2,538.3,248,539,247.6,539.5z"/>
		<path class="st12" d="M66.1,316.3c0.2,2,0.8,3.6,2.8,4.4c3.9,2.1,2.1,5.4,1.4,8.3c-4.8,19.2-5.9,38.7-4.9,58.4
			c0.1,2.1,0.1,4.2-0.2,6.4c-0.2,0.7-0.5,1.3-0.9,1.9c-2.8,1.6-5,4.4-8.6,4.5c0.4-13.4-0.4-26.8,0.7-40.3
			c1.2-14.4,5.5-27.8,8.6-41.6C65.2,317.5,65.7,316.9,66.1,316.3z"/>
		<path class="st13" d="M382.8,450.2c-7.2,13-17.3,24-25.2,36.6c-1.7,2.7-4.3,4.4-6.5,6.6c-14.2,13.9-29.6,26.3-48.3,33.8
			c-2,0.8-4,1.8-6.2,0.9c-0.5-0.5-0.8-1.1-0.7-1.8c3.4-4.5,7.9-7.5,12.9-9.8c20.4-9.7,36-24.8,49-42.9c5-7,10.6-13.5,14.8-21.1
			c1.3-2.3,2.6-5.3,5.8-6.1c0.7-0.1,1.4,0,2.1,0.3C381.9,447.3,382.3,448.8,382.8,450.2z"/>
		<path class="st13" d="M394,412.9c-0.2,9.2-0.1,18.5-4.4,27.1c-1.1,2.2-2.3,4.1-4.9,4.7c-1.9,0.2-1.8,3.7-4.4,2.9
			c-0.2-0.1-0.5-0.3-0.7-0.4c-3.5-2.1-7.4-3.5-11.4-3.8c-10.6-0.8-15.2-9.4-21.5-15.9c-0.4-0.4-0.2-1.4-0.1-2.1
			c0.6-1.5,1.2-2.9,2.4-3.9c7.5-1.9,12.6,2.1,17.3,7.2c1.8,6.5,6.9,8.7,12.8,5.4c2.9-3.1,3-7.3,4.2-11c0.7-2.4,0.8-5.1,3.2-6.8
			C389.3,415.7,390.7,412.2,394,412.9z"/>
		<path class="st14" d="M397.4,345.1c-3.2,0.4-2.4-2.3-2.7-3.8c-0.7-3.1-0.4-6.5-2.8-9c-2.5,0.9-2.3,3.9-4.7,4.3
			c-6.6-3.2-13.4-1.2-20.2-0.5c-2.8,0.3-5.7,1.2-7.9-1.5c-0.4-0.6-0.6-1.3-0.7-2c0.5-4,3.5-3.7,6.3-3.9c4.1-0.3,8.4-0.3,11.6-3.6
			c0.7-1.1,1.3-2.3,1.9-3.4c1.3-4.4-0.7-8.3-1.9-12.3c-1.4-4.6-2.1-9.1,0.5-13.6c0.5-0.5,1-0.9,1.7-1.1c2.3,2,2.9,4.9,3.7,7.5
			c1.6,5.2,2.8,10.5,6.4,14.8c1,1.2,1.4,3.1,1.5,4.7c0.1,3.4,0.5,6.5,3.8,8.6c1.5,0.9,1.9,2.8,1.8,4.4
			C395.7,338.2,396.9,341.6,397.4,345.1z"/>
		<path class="st15" d="M378.6,294.6c0,0.6-0.1,1.1-0.1,1.7c-4,2.7-6.2,0.4-7.7-3.1c-6.8-16.2-17.4-29.9-29.1-42.8
			c-1.6-1.8-3.4-3.3-5.5-4.5c-2.6-1.6-4.6-3.6-2.7-7c1.5-1,3-2,4.5-3.1c8.5,8.1,16.2,16.8,23.1,26.3c6.3,8.7,11.3,18.2,16.6,27.5
			C378.6,291.2,378.8,292.9,378.6,294.6z"/>
		<path class="st16" d="M201.6,203.8c0.5,1.8-0.7,2.7-2.1,3.2c-10,3.6-12,11.8-12.7,21c-0.3,4.1,0.4,8.6-2.7,12.1
			c-0.2-0.3-0.4-0.5-0.7-0.8c0.1-2-0.5-4.1,0.5-6c1.2-1.3,0.9-3,0.9-4.5c-0.1,1.4,0.3,2.8-0.6,4.1c-1.5,1.7-0.3,4-1.1,5.8
			c-3.3,1.4-4.4-0.9-4.9-3.3c-1.2-6.7-3-13.6,1-20.1c1.2-1.9,1.3-4,1.5-6.2c0.1-0.7,0.4-1.3,0.8-1.8c1.4-1.7,4.9-0.2,5.5-3.3
			c2-2.9,4.7-1.8,7.3-1.2C196.5,205.1,199.3,202.3,201.6,203.8z"/>
		<path class="st17" d="M143.8,518.1c-7.7-4.2-14.4-10-22.3-13.9c-5.4-2.6-10.6-5.3-16.6-5.8c-1.5-0.1-3.2-0.4-3.1-2.2
			c0.1-1.7,1.8-0.9,2.8-1.2c1.7-0.7,0.8-1.9,0.4-2.9c0.3-1.5,0.9-2.8,1.7-4.1c3.6-2,7.2-3.5,11.4-3.5c1.7,0.8,2.9,2.3,4.1,3.8
			c-1.2,7.8,3,12,9.6,15.1c3.8,1.8,6.9,5,10.6,7.2c2.3,1.4,3.4,3.3,2.8,6C144.9,517.2,144.4,517.7,143.8,518.1z"/>
		<path class="st18" d="M86.4,466c-5.1-7.7-10.3-15.4-14.5-23.8c-3.7-7.2-7.6-14.3-10.4-21.9c-1-2.9-2.6-5.8-1-8.9
			c0.9-3,2.2-4.7,5.4-2.3c5.3,18.1,13.5,34.9,23.4,51c1.2,1.9,2.6,3.9,1.2,6.4C89,468.4,87.6,468.2,86.4,466z"/>
		<path class="st19" d="M182.8,207.2c0,0.4,0,0.8,0,1.2c-1.9,3.5-4.6,5.7-8.5,7.1c-10.9,3.8-19.9,11-29.7,16.9
			c-2.6,1.6-5,3.9-8.4,1.6c-1.2-1.1-1.5-2.5-1.1-4.1c1.1-2.2,2.6-3.9,4.7-5.2c8.1-4.7,16-10.2,25.3-12.1c3.1-0.6,3.6-3.6,6.1-4.4
			c2.4-0.9,5.1-1.1,7.3-2.5c1.4,0,2.8,0,4.2,0C183.8,206.2,183.8,206.7,182.8,207.2z"/>
		<path class="st11" d="M143.8,518.1c0-0.5,0-1.1,0.1-1.6c2.4-2,4.8-1.4,7.2,0.1c13.1,8.3,26.5,15.7,42.4,17.1
			c1.5,0.1,2.5,1.3,3.3,2.5c0.2,0.3,0.5,0.6,0.7,1c-6.6,2.4-13.1,1.4-19.5-0.4C165.3,533,154,526.4,143.8,518.1z"/>
		<path class="st20" d="M135.1,229.9c0.5,1,1.1,2,1.6,3c0.2,0.4,0.6,0.9,0.5,1.3c-1.1,6-13,14.1-19.3,13c-0.3-2,3.2-4.1-0.2-5.9
			c3.6-4,8-7,12.2-10.3C131.5,229.7,133.2,229.4,135.1,229.9z"/>
		<path class="st21" d="M247.6,539.5c0-0.5,0-1,0-1.5c-0.4-2.4,1-3.9,2.9-4.1c8.3-0.7,16.2-3.6,24.6-3.8c1,0,1.8,0.6,2.5,1.2
			c1,1.1,1.1,2.3,0.4,3.6C267.9,537.3,257.9,539.5,247.6,539.5z"/>
		<path class="st22" d="M86.4,466c1,0.4,2,0.6,3,0c7.5,0.9,9.7,6.7,12,12.5c-0.2,2.2,0.2,4.6-2,6.1C93.8,479.3,88.7,473.7,86.4,466z
			"/>
		<path class="st23" d="M64.7,410c-1.8-0.7-3.1,0.1-4.2,1.4c0.5-4.7-3.5-7.4-4.9-11.2c1.8-3,3.3-6.4,7.8-5.8
			C64.5,399.5,67.9,404.5,64.7,410z"/>
		<path class="st24" d="M394,412.9c-1.2,2.5-1.6,5.7-5.5,5.7c-4.5-4.8-0.2-9.9-0.3-14.8c0.2-2.4,1.4-4.1,3.5-5.2
			c0.4-0.1,0.7-0.2,1.1-0.3c0.7,1.1,1.3,2.2,2,3.3C395.5,405.4,394.4,409.1,394,412.9z"/>
		<path class="st25" d="M277.9,534.8c0-0.8,0-1.5,0-2.3c2.4-5.8,9.3-5.6,13-9.7c1.3-0.8,2.7-0.9,4.1-0.3c1.4,0.9,1.7,2.3,1.5,3.9
			c0,0.5,0,1,0,1.5C291.4,533.4,284.5,533.6,277.9,534.8z"/>
		<path class="st26" d="M315.3,224.4c0.4-0.9,0.8-1.9,1.2-2.8c3.7-0.3,6.5,1.3,8.8,4.2c-2.5,0.3-5,0.7-7.6,1
			C316.8,226,315.7,225.6,315.3,224.4z"/>
		<path class="st27" d="M99.4,484.6c-0.6-1.9-1-3.8-0.3-5.8c5.1-1.8,6.4-0.2,5.7,7.3c-0.7,1.1-1.8,1.7-3.1,1.8
			C100.9,486.8,100.2,485.7,99.4,484.6z"/>
		<path class="st28" d="M101.7,487.9c0.6-0.5,1.2-1.1,1.7-1.6c3.1-0.4,3.8,1.9,4.5,4.1c-0.8,0.9-1.8,1.4-2.9,1.6
			C103.4,491.1,101.9,490.1,101.7,487.9z"/>
		<path class="st29" d="M201.6,203.8c-2.3,0.5-4.7,1.4-7,1.3c-2.2-0.1-0.9-1.4-0.2-2.3c1.9-0.1,3.8-0.2,5.7-0.3
			c0.8-0.6,1.3-0.4,1.5,0.5C201.6,203.3,201.6,203.6,201.6,203.8z"/>
		<path class="st30" d="M380.3,447.6c1.4-1,1.9-3.5,4.4-2.9c-0.7,1.8-1.3,3.7-2,5.5C381.5,449.7,380.9,448.7,380.3,447.6z"/>
		<path class="st16" d="M178.5,205.7c-1.9,2.3-4.5,2.8-7.3,2.5C173.4,206.6,175.8,205.7,178.5,205.7z"/>
		<path class="st31" d="M182.8,207.2c0-0.5,0-1,0-1.6c1.4-0.5,2.9-1.1,4.3-1.6C188,208.3,184.4,206.4,182.8,207.2z"/>
		<path class="st16" d="M201.6,203c-0.5-0.2-1-0.3-1.5-0.5c1.8-1.1,3.8-1.2,5.9-1.1C204.7,202.6,203.1,202.6,201.6,203z"/>
		<path class="st7" d="M391.6,404.2c-1.2,4.7-1.1,9.8-3.1,14.3c-1.4,1.7-1.7,3.9-1.9,6c-0.3,4.6-2.1,8.6-3.9,12.6
			c-7.7,2.4-12.5-2.5-17.4-7c-5.1-2.7-10-5.7-15.5-7.4c-0.7,0.2-1.6,0.8-2,0.5c-8-4.9-17.1-8.7-21.2-18.1c0.2-0.6,0.6-1.2,1.1-1.6
			c2.9-3.2-0.2-7.5,1.7-10.1c-0.8,2-0.3,4.9-0.5,7.8c-0.1,2-1.1,2.5-2.8,1.4c-3.2-7.8-0.6-16-1.9-23.9c-1.6-10.6-1.2-21.2-0.7-31.8
			c1-1.8,2.3-3.5,3.7-0.6c0.9,1.8,2,3.7,1.6,6.2c0.4-4.8-3.9-7.9-3.9-12.4c2.7-5.2,8.3-3.9,12.6-5.5c0.7-0.1,1.4-0.2,2.1-0.2
			c2.4-0.2,4.7-0.8,7.1-1.3c1.4-0.2,2.7-0.4,4.1-0.6c0.7-0.1,1.4-0.3,2.1-0.4c2.5-0.6,4.9-0.6,6.9,1.4c6.7-0.2,13.2-1.6,19.8-2.8
			c6.8-1.3,6.8-1.3,7.7,6c0.4,1,0.8,2,1.2,3c2.1,2.2,2.1,4.5,0.5,7c0.4,0.9,0.5,2.3,1.1,2.5c7,3.1,5.9,9.5,6.3,15.1
			c0.5,8.9-1.4,17.6-2.6,26.3c-0.4,2.6-1,5.2-0.8,7.8c0,0,0,0.1,0,0.1C391.5,400.1,392.9,402.5,391.6,404.2z"/>
		<path class="st14" d="M388.8,346.6c-0.2-2.3-0.3-4.7-0.5-7c3.9-1.5,3,2.2,3.4,3.6C392.2,344.8,391.9,347.3,388.8,346.6z"/>
		<path class="st7" d="M333.5,239c0.1,0.2,0.1,0.5,0.3,0.6c14.8,9,23.3,23.5,32.4,37.4c2.9,4.4,5.4,8.9,7.1,13.8
			c0.9,2.5,2,5,5.1,5.4c-0.7,7.6,2.3,14.5,4.6,21.5c1.1,3.3,1.1,5.7-3.2,6c-2.7,3.1-6.7,3.1-10.2,4.4c-0.7,0.2-1.4,0.3-2.1,0.3
			c-12.7,0.8-24.9,4.4-37.3,6.4c-3.2,0.5-4.9,2.2-5.4,6.3c-1.7,13.1,0.2,26.1,0.4,39.2c0.9,8.3-1.5,16.9,1.4,25.1
			c0,1.5,0.6,3,0.2,4.6c-7.2,5.7-12.9,12.9-21.8,17c-5.2,2.4-8.9,9.4-12.6,14.8c-4.8,7-10.6,13.4-20.2,13.1
			c-3.8-0.1-5.9,2.4-8.8,3.9c-7.1,2.1-14,4.5-21.4,5.9c-11.1,2.2-20.6,8.2-29.9,15c-19.8-12.9-41.6-22.6-65.1-28.4
			c-2.3-1.3-5-2.2-6.1-5c-9.5-10.6-16-23.2-21.8-36c-2.2-4.8-4.1-9.3-8.4-12.4c-0.8-1.9-0.2-3.5,1.6-4c6.8-1.9,7.3-7.7,7.9-12.9
			c0.9-8.6,2.9-16.8,6.3-24.7c1.8-4.4,4-8.6,4.6-13.4c0.3-2.5,1.5-5.1,4.3-6.1c2-3.5,1.1-7.3,1.3-11c0.3-5.2,0.2-5.1,5.6-6.3
			c1.1-0.2,2-1.1,3-1.7c2.5-3.6,5.9-5.9,10.1-7.6c6-2.5,9.6-8.4,15-12.1c7.7-5.3,15-11,23.5-14.9c4.8-2.2,10-2.3,15-0.1
			c6.4,4,13.2,1.7,19.9,1.5c2.4-3,5.7-2.2,8.6-1.7c9.4,1.8,18.6,3.5,28,0.2c0.9-0.3,1.8,0.3,2.6,0.8c0.8,0.8,1,1.8,0.8,2.9
			c-1.6,3.2,0.1,5.4,2.9,5.9c8.2,1.4,13.2,7.6,19.3,12.2c1.1,0.9,2.4,1.6,3.6,2.3c1.5,0.9,2.5,2.3,3.6,3.5
			c3.6,3.8,7.8,7.1,10.4,11.8c-6-12.8-19.1-17.9-28.7-26.8c-3.3-3-9.7-0.9-11.7-6.6c0.3-6.5,2.5-12.5,5.5-18.2
			c0.3-0.6,0.6-1.3,0.9-1.9c2.1-3.4,4.1-6.9,6-10.5c6.4-11.9,16.7-19.9,28.7-25.8c2.4-0.9,4.5-2.5,7.2-2.8c5.3-0.6,9.8,0.3,13.2,4.9
			C330.8,236.4,332.2,237.6,333.5,239z"/>
		<path class="st7" d="M224.5,281.9c-2.7-1.1-5.6-1.3-8.4-1.6c-3.5-0.4-7.4-0.3-8.8-4.8c-0.4-1.4-1.9-1.1-3-1.5
			c-2.5-0.9-3.6-2.7-3.6-5.5c0.1-9.5-3.3-18.2-6.8-26.9c-3.4-8.4-5-17.4-0.6-26.3c1.2-2.4,2.8-4.5,5.7-5c4.4-0.8,6.8-5.1,11.3-6.1
			c6.2-1.4,12.4-1.9,18.6-1.2c17.4,2,34.7,4.5,52,6.7c5.5,0.7,10.7,2.4,15.6,5.1c1.3,4.8,2.4,9.7,1.5,14.8c-0.7,4.1-4.6,6.7-4.9,11
			c-0.6,2.1-1.2,4.3-2.7,5.8c-6.3,6.1-9.8,14-14.3,21.3c-0.6,1-1.4,2-1.9,3c-7.1,16.6-14.7,17.2-30.9,14.7
			C236.9,284.4,230.6,283.9,224.5,281.9z"/>
		<path class="st7" d="M117.9,247.3c6.3-4.7,13-8.9,18.8-14.3c1.3-0.6,2.7-1,3.8-1.8c12.8-9.9,26.9-17.4,42.2-22.7
			c0.3,2.7,2.6,4.5,3.8,7.2c-4.9,0.7-6.6,4.3-6.2,8.4c0.4,4.9,0.2,10,2.4,14.7c0.9,0.1,0.9,1,1.5,1.5c0,0,0-0.1,0-0.1
			c0.1,2.3-0.1,4.7,0.9,7c1.4-2.6,2.9-3.6,3.8-0.1c1.1,4.4,1.5,8.9,3.3,13.1c1.4,3.3,2.5,6.7,3.8,10c2.8,10.4,2,11.9-8,16
			c-6.2,2.6-10.4,8.3-16.4,11.4c-8.2,4.2-13.4,12.7-22.3,16.2c-1.4,0.5-2.5,1.3-4,0.9c-7.9,2.2-8,2.2-12.5-3.8
			c-0.7-0.9-1.1-2.2-2.6-2.2c-6.2-0.1-9.8-4.5-13.1-8.6c-6.2-7.9-14.2-14.1-19.8-22.4c-0.9-1.3-2.5-2.1-3.8-3.2l0.1,0.1
			C99.1,263.3,108.3,255.1,117.9,247.3z"/>
		<path class="st32" d="M145.3,314.8c10.5-6.5,19-15.8,30-21.6c2.7-1.4,5.2-3.3,6.3-6.5c1.1-3.1,5.2-3,6.9-5.6
			c0.3-0.5,1.3,0,1.7,0.7c1.4,2.4,2.3,0.8,2.8-0.5c1.6-3.5,2.7-7.1,3-11c1.3,3.4,6.4,4.1,6.1,8.7c-0.1,1.2,1.3,0.9,2.2,0.8
			c2.6-0.4,3.9,1,4.5,3.3c-11-0.6-19.5,5.5-28.3,10.8c-6.9,4.2-13.2,9.3-19.1,15c-4.5,4.4-10.8,5.8-16.2,8.9
			C145.3,316.8,145.3,315.8,145.3,314.8z"/>
		<path class="st33" d="M274.7,265.8c3.6-8,10-14.2,14-21.9c0.7-1.2,1.3-2.5,1.9-3.7c1.6-1,3.2-2.1,4.6-3.4c2.5-1.7,3.7-6.4,8.3-3.8
			c1.9-0.2,3.8-1.3,5.8-0.1c-6.2,4-10.2,10.6-16.6,14.5c-4.7,2.9-7.6,7.3-9.7,12.1c-1.8,4-3.9,7.6-6.3,11.2
			C272.5,270.5,275,267.6,274.7,265.8z"/>
		<path class="st34" d="M303.6,232.9c-2.3,2-4.6,4-7,6c-3.3,0.3-4.1-1.4-3.5-4.3c0.4-2,2.1-3.8,0.5-6c1.6-4.5,3-9,2.8-13.9
			c1.7-0.1,0.4,4.1,3.9,2.2c2.6-1.4,4.2,1.5,4.5,4C305.3,225,305.4,229.1,303.6,232.9z"/>
		<path class="st35" d="M274.7,265.8c0.7,1.6,1.3,3.2,2,4.9c0,0.4-0.1,0.8-0.4,1.2c-4.2,3.2-5,8.7-8.4,12.5
			c-9.5,5-19.4,3.6-29.3,1.7c-3.3-0.6-6.6-0.9-9.9-1.4c-1.4-0.9-2.9-1.8-4.3-2.7c5.5-0.5,10.9,0.9,16.3,1.8
			c4.8,0.8,9.5,0.8,14.2,1.1c6,0.4,10-2.3,12.8-7.4C269.9,273.4,271.7,269.3,274.7,265.8z"/>
		<path class="st36" d="M315.3,224.4c1.2,0.4,2.1,1.1,2.4,2.4c-2.6,0.3-5,1.3-7.3,2.6c-1.6,0.9-2.7,0-3.1-1.7
			c-0.6-2.6-0.3-5.1,0.5-7.5C311.4,220.1,312.6,223.4,315.3,224.4z"/>
		<path class="st7" d="M197,263.6c-1.5-5.1-4.7-9.6-4.4-15.2C194.6,253.4,197.6,258,197,263.6z"/>
		<path class="st7" d="M107.9,490.4c-2.2-0.6-3.4-2.2-4.5-4.1c-0.5-1.7-1-3.5-1.5-5.2c-0.4-1.4-1.1-2.5-2.8-2.2
			c-3.3-4.3-6.5-8.6-9.8-12.8c-4.2-7-8.5-13.8-12.5-20.9c-5.1-8.9-9.1-18.4-12.2-28.2c-0.7-2.4-1.2-4.6,0.1-6.9
			c0.1-2.1-1.1-3.6-2.2-5.1c-2.9-3.8-2.7-7.4,0.9-10.6c0,0-0.1-0.1-0.1-0.1c1.9-4.5,5.9-3.3,9.4-3.4c1.6-0.5,3.2-0.2,4.6-0.3
			c-2-0.2-4.1,0.2-6.2,0.4c-2.6-0.8-6,0.9-7.9-2.4c-2.3-2.6-3.3-5-2-8.8c1.7-4.7-0.3-9.9,0-14.9c0.9-15,3.5-29.7,7.5-44.2
			c1.5-7.2,3.6-14.2,7.8-20.4c2.1-3.1,3.4-6.7,5.1-10.1c1.4-2.8,2.9-5.5,6-6.7c5.4-0.5,8.5,2.2,10.1,7.1c5.1,3.6,9.9,7.5,13.9,12.4
			c3.9,4.6,8.8,8.3,14.1,11c6.5,3.3,7.1,9.2,8.2,15c0.4,2.1,0.1,4.3,0.1,6.5c1.5,7.3-2.7,13.3-4.8,19.6c-2.9,8.7-5.3,17.5-7.1,26.5
			c-0.4,2.1-0.2,5-3.1,5.9c-0.5-0.1-1.2-0.3-1.2-0.7c-0.4-9.7-2.4-19.5-0.3-30.5c-2,11.6-0.1,21.9,0.5,32.2c0.2,6.3-5.3,4.3-8.5,5.6
			c-0.7,0.1-1.4,0-2.1-0.2c-2.6-1.4-5.4-1.2-8-1.2c2.5,0.1,4.9-0.3,7.2,0.8c3.2,1.5,4.3,5.3,7.3,6.9c3.4,3.4,4.6,8.1,6.2,12.3
			c4.4,11.3,12.9,20.1,17.8,31.1c0.3,1.7-1.2,3.4-0.1,5.1c-1.1,2.3,0.5,5-0.9,7.3c0.8,5-0.8,9.2-4,12.9c-2.6,2.9-4.5,6.2-6.1,9.7
			c-1.8,3.9-4.6,6.6-9,7.3C114.6,487.6,111.3,489,107.9,490.4z"/>
		<path class="st37" d="M119.3,386.8c3.7-16.8,9-33.1,14.4-49.3c0.2-0.7,0.3-1.4,0.4-2.1c0.4,0.5,0.8,0.9,1.3,1.4
			c0.1,6.9-2.9,13.1-5.1,19.3c-3.1,8.8-5.2,17.8-7.4,26.8c-0.4,1.6-0.7,3.3-1.3,4.8c-2.3,6-4.1,7.8-9.4,9.5c1.1,1.5,1.5,3.1,0.1,4.6
			c-2-2.4-4-4.8-6.1-7.2c0.1-1.1,1.2-1.3,1.7-2.1c1.3-1.3,3-1,4.5-1.1c1.9-0.2,3.6-0.6,4.3-2.7C117.1,387.2,118.7,387.7,119.3,386.8
			z"/>
		<path class="st38" d="M97.8,290.5c-3.9-1.5-6.9-4.5-10.1-7.1c6.2-3.4,6-3.1,10.7,1.4C101.2,287.6,99.3,288.8,97.8,290.5z"/>
		<path class="st7" d="M93.5,274.6c-0.8,1-0.9,2.6-2.8,3.2C90.7,275.7,92.2,275.3,93.5,274.6C93.6,274.7,93.5,274.6,93.5,274.6z"/>
		<path class="st7" d="M196.8,536.1c-10,1.3-19.2-1.6-28.2-5.6c-8.8-3.8-16.2-9.9-24.7-14.1c-6.5-6-14.2-10.4-21.8-14.8
			c-6.6-3.9-6.7-3.7-2.6-10.1c0.5-0.8,0.9-1.7,1.3-2.6c-1.7-5.9,3.1-9.2,5.9-12.8c3.5-4.4,7.1-8.5,9.9-13.6
			c1.9-3.4,5.6-5.7,10.2-3.8c8.2-2.7,15.5-0.1,22.8,3.5c4,2,8.2,3.3,12.5,4.5c9.2,2.6,17.7,7.4,24.9,13.8c2.8,2.5,3.3,6.5,2.5,10.1
			c-2.9,12.8-6.1,25.6-9.2,38.3C199.7,531.7,198.3,534,196.8,536.1z"/>
		<path class="st7" d="M292.2,525c1,1.9,0.3,3.2-1.6,3.8c-4.2,1.3-8.2,3.5-12.7,3.8c-10.1,1.8-20.2,3.6-30.4,5.4
			c-10.8,0.7-21.4-0.7-32.2-1c-2.7-0.1-5.1,0-7.5,1.6c-1.8,1.2-4.3,1.6-6-0.1c-1.6-1.6-0.2-3.7,0.5-5.4c5.2-12.7,6.4-26.4,10.2-39.5
			c0.8-2.7,0.5-5.7,0.8-8.6c1.9-1.9,4.3-3.9,6.8-3.4c7.3,1.7,13.4-2,19.8-3.9c4-0.5,7.7-2.2,11.4-3.6c1.3-0.5,2.4-1.1,3.6-1.8
			c3.1-1.2,6.1-2.8,9.4-3.6c1.5-0.4,3-0.4,4.5-0.2c6,2.2,5.2,8,6.8,12.6c4.9,12.2,8.1,25,14.6,36.5C291.5,520,292.1,522.4,292.2,525
			z"/>
		<path class="st39" d="M256.1,476.2c-0.9,0.5-1.9,0.9-2.8,1.4c-4.7,2.1-9.6,3.3-14.4,5c-6.8,0.4-13.6,1.4-20.4,0
			c-1.1-0.2-2.5,0-2-1.8c12.1-9,26.7-12.2,40.4-17.4c5.5-2,11.2-3.2,17.8-5.1c-4.5-1.7-7.8,0.1-11.2,0.3c2.5-4.5,6.1-7,11.5-7.2
			c6.5-0.2,11-4.9,14.4-9.4c3.7-4.9,7.3-9.9,11.3-14.7c0.9-1.1,1.8-2.8,2.9-3c7.9-1.9,12.4-8.4,18.4-13c0.9-0.7,2.1-1,3.2-1.5
			c4,3.3,0.6,6.1-0.5,9c-3.2,4.7-9.6,5.6-12.7,10.4c-0.8,0.6-1.4,1.5-2.1,2.2c-8.4,3.8-11.9,12.8-19,18c-5.3,9.6-13,16.6-23.2,20.8
			c-0.9,0.5-1.7,0.9-2.6,1.4C262.3,473.7,259.2,474.9,256.1,476.2z"/>
		<path class="st40" d="M146.8,458.9c-1.5,0.6-3.1,1.1-4.6,1.9c-1.8,0.9-4.4,1.4-2.8,4.5c0.4,0.9-0.5,1.7-1.4,2.2
			c-3.3,1.8-5.2,4.8-6.8,8c-0.3,0.6-0.7,1.5-1.2,1.7c-6,1.7-6.9,7.3-9.1,11.9c-0.9-0.9-1.9-1.9-2.8-2.8c6.7-9.8,14.5-18.8,19-30
			c1,0.8,1.9,1.6,2.9,2.5c2.1-1.5,4.1-3.7,6.9-1.1C146.8,458,146.8,458.4,146.8,458.9z"/>
		<path class="st41" d="M142.6,445.9c2,1.3,3.5,3.1,4.4,5.4c-6.3,0.1-6.3,0.1-7.5-5.2c0.2-0.2,0.4-0.4,0.6-0.6
			C140.9,445.3,141.7,445.8,142.6,445.9z"/>
		<path class="st42" d="M146.7,457.5c-2.3,0.4-4.6,0.8-6.9,1.1c2.3-3.9,4.5-5.1,7.6-3.5C148.5,455.8,147.4,456.8,146.7,457.5z"/>
		<path class="st41" d="M137.9,448.9c-0.8-1.3-1.2-2.8-1.2-4.4c1.7-0.9,3-1.2,2.9,1.4c0,0-0.1,0.2-0.1,0.2
			C139,447,138.4,447.9,137.9,448.9z"/>
		<path class="st23" d="M73.5,391.4c-3.2,1.5-6.6,2.4-10.1,2.8c-2-1.9-2.6-3.7-0.1-5.6c2.9-0.3,5.9-0.9,8.6,0.9
			C72.4,390.2,73.3,390.4,73.5,391.4z"/>
		<path class="st7" d="M296.5,526.5c-0.6-0.9-1.1-1.8-1.7-2.7c-4.4-6.3-8.3-12.7-4.9-20.9c5.9,0.7,5.5,6.3,7.3,9.4
			c-1.2-5-4.4-9.2-8.6-12.9c-3.2-2.8-5.6-6.2-6-10.9c-0.4-4.4-2.2-8.6-5.1-12.1c-4.6-5.7-3.5-11.6,2.8-14.4
			c4.7-4.1,10.6-6.7,13.9-12.3c0.4-0.5,0.8-1,1.3-1.5c4.6-5.7,11.3-9.7,14.5-16.6c0.4-0.5,0.8-1.1,1.3-1.6c2.1-1.8,4.6-3.1,6.4-5.3
			c9.4-8.2,23.4-7.7,30.4,1.2c0.7,0.6,1.4,1.3,2.2,1.8c4.1,2.9,7.4,6.8,11.3,9.8c3.7,2.8,9.1,1.9,13.5,3.6c3.1,1.3,5,2.6,4.4,6.1
			c-13.2,22.9-28.7,43.9-49.5,60.5c-4.3,3.4-9.1,6.2-13.9,8.8C309.8,520.1,303.1,523.2,296.5,526.5z"/>
		<path class="st43" d="M348.2,425.9c-6.6-5.1-14.4-3.9-21.8-4c-3.4-0.1-5.6,2.2-7,5.1c-0.4,0.6-0.9,0.9-1.6,1
			c-2.8-0.8-5.9,2.6-8.5-0.6c1.7-3.1,4.6-4.5,7.7-5.8c1.9-0.8,4-1.3,5.6-2.7c2-0.7,3.1-2.5,4.5-3.9c0.7-1.1,0.1-2.2-0.3-3.2
			c-0.7-1.9-1-3.9-0.8-5.9c0.2-1.2,0.7-1.9,2.1-1.6c1.4,6.1,7.3,6.9,11.4,9.9c1.5,1.1,3.5,0.7,3.6,4c0.1,2.7,4.5,2.9,6.7,4.7
			C349.3,423.8,348.7,424.8,348.2,425.9z"/>
		<path class="st44" d="M365.3,430.2c3.6,1.1,7.1,2.4,10.2,4.6c2.1,1.5,4.5,2.5,7.2,2.4c-1.9,2.2-4.3,3.3-7,2.1
			c-5.8-2.7-11.9-4.7-17.8-9.3C361,429.2,363.1,432,365.3,430.2z"/>
		<path class="st45" d="M352.7,335c-0.6,0-1.1,0-1.7,0.1c-2.2-1.4-4.1-0.6-6,0.7c-1.8,0.4-3.8-0.6-5.4,0.9l0.1,0
			c-1.1,0.9-2.6,0.8-3-0.3c-0.6-1.8,0.5-3.5,2.3-3.7c4.3-0.5,7.9-3,12.3-3.3c5.9-0.5,11.9-1,17.1-4.2l-0.1,0c4.5-0.9,9.1-1.9,13,1.7
			c-4.4,3.4-9.8,3.2-14.8,4c-2.3,0.4-4.7,0.1-6.8,1.7C357.7,334,354.1,331.6,352.7,335z"/>
		<path class="st35" d="M381.4,326.7c-4.2-1.4-8.7-1-13-1.7c3.6-2.7,7.6-2.2,11.6-1.3C380.4,324.7,380.9,325.7,381.4,326.7z"/>
		<path class="st46" d="M352.7,335c1.3-3.6,4.4-2.7,7.1-2.7c0,0.4-0.1,0.7-0.1,1.1C357.4,333.8,354.9,333.9,352.7,335z"/>
		<path class="st7" d="M184.2,233c0-3.2,0-6.5,0-9.7C185.7,226.6,186,229.8,184.2,233L184.2,233z"/>
		<path class="st9" d="M184.2,240.2c-0.5-0.5-1-1-1.5-1.5c0.3-2,0.3-4,1.4-5.7c0,0,0,0,0,0C184.2,235.4,184.2,237.8,184.2,240.2z"/>
		<path class="st8" d="M391.6,404.2c-0.1-2.1-0.1-4.1,1.2-5.8C392.7,400.4,392.9,402.5,391.6,404.2z"/>
		<path class="st17" d="M290.7,503.2c-0.9,3.4,0.5,6.5,1.6,9.6c1.2,3.6,2.6,7.1,2.5,11c-0.9,0.4-1.7,0.8-2.6,1.2
			c-3-2.5-4.8-5.8-6.3-9.3c-4.9-11-9.7-22-12.5-33.8c0.5-0.5,1-0.8,1.7-1c4.3,0.6,5,4.3,5.5,7.3c1.2,6.6,4.2,12.6,5.8,19.7
			c-0.3-2.6-1.8-4.3-0.8-6.3C288.3,499.4,290.1,499.4,290.7,503.2z"/>
		<path class="st35" d="M368.5,325c-2.7,3.6-6.8,4-10.7,4.5c-6.1,0.9-12.1,2-17.8,4.3c-1.8,0.7-2.3,1.7-0.2,2.8
			c-1.6,2-3.9,1.4-5.9,1.5c-2.7,0.2-5.1,0.8-7.1,2.8c-1.5,1.3,0.1,3.4-1.3,4.7c0,10.9-0.2,21.9,1.1,32.7c-0.6,1-1.1,2.4-2.7,1.5
			c-0.4-10.5-1-21-1-31.5c0-4.8,1.1-9.5-3.5-14C336.3,331.1,352.4,328,368.5,325z"/>
		<path class="st11" d="M323.8,379.7c0.9-0.5,1.8-1,2.7-1.5c0.1,5.6,0.1,11.3,0.3,16.9c0.1,2.6-0.2,5.2,1.3,7.5
			c0.4,0.3,0.6,0.6,0.5,1c-0.1,0.4-0.2,0.6-0.4,0.6c0,0-0.2-0.1-0.2-0.1c-0.6,0.6-1.1,1.2-1.7,1.8c-0.6,0.3-0.9,0.2-1.1-0.4
			c-1.7-6-1.9-12.1-1.2-18.2C324.4,384.7,324,382.3,323.8,379.7z"/>
		<path class="st40" d="M339.6,336.6c1.6-1.4,3.6-1.6,5.7-1.5c0.6-0.7,1.2-0.7,1.7,0.1C344.8,337.1,342.2,336.8,339.6,336.6z"/>
		<path class="st46" d="M347,335.2c-0.6,0-1.1-0.1-1.7-0.1c1.9-1.3,3.9-1.9,5.8,0C349.7,335.1,348.4,335.1,347,335.2z"/>
		<path class="st7" d="M285.4,439.7c-4.8,4.7-8.9,8.7-15.1,9.1c-1.2,0.1-2.7-0.1-3.5,0.6c-5.1,4.3-11.1,3.7-17.1,3.9
			c-1.4,0-3,0.1-4.2,0.8c-7.5,4.1-16.2,5.4-23.5,9.9c-5.5,3.4-11.3,3.4-17.3,1.6c-2.5-0.8-4-2.6-4.8-5c-1.7-4.5-5.1-6-9.6-6
			c-3.4,0-6.7,0-10.1-0.1c-2.4,0-4.9-0.1-6.8-1.7c-3.9-3.2-8.5-4.4-13.2-5.2c-3.8-0.6-6.7-2.5-9-5.4c-1.5-1.9-2.8-3.9-4.9-5.3
			c-2.6-1.8-3.8-4.2-3.8-7.3c0-4-1.7-7-5.4-8.6c-2.9-1.2-4.2-3.4-5.1-6.4c-2-6.7-2-10.1-1.4-17.7c0.5-6.7,1.5-13.3,1.8-20
			c0.1-3.9,1-7.4,2.8-11c2.5-5,6.1-9.9,4.3-16.2c-0.2-0.8,0.2-2.1,0.8-2.7c3.6-3.6,3.9-8,3.8-12.7c-0.1-2.8,0.9-5.1,3.2-6.8
			c4.6-3.4,8.2-7.6,14-9.7c5.2-1.8,9.8-6,13.2-10.7c2.1-2.8,4.5-4.9,8.1-5.4c2.7-0.4,5.1-0.6,7.1,2c2,2.6,4.9,3,7.7,1.5
			c2.8-1.5,2.6-4.3,2.3-7c-0.1-1-0.4-1.9-0.4-2.8c-0.1-4.6,2.4-6.5,7-5c1.6,0.5,3,1.4,4.5,2.2c2.1,1.2,4.4,2.1,6.8,1.9
			c10.8-0.8,21.4,2.5,32.2,1.6c3.7-0.3,7.1,0.3,10.2,2.6c0.9,0.7,2.2,1.3,3.3,1.3c11.1,0.6,17.5,7.9,23.3,16.1c1.3,1.8,3,3,4.7,4.4
			c3.2,2.5,6.5,4.9,7.8,9.1c0.9,2.7,3.4,3.8,5.7,5.2c8.7,5.2,10.6,10.6,6.7,19.7c-1.9,4.4-1.4,8.2,0.6,12.4c2.4,5,2.2,5.1-2.5,8.1
			c-3.4,2.2-3.9,6.2-0.2,7.9c5.8,2.7,7.1,7.2,7.5,12.8c0.1,1.4,0.2,3.1,1,4.1c3.8,5.3,1,8.9-2.8,12.3c-3.4,3.1-6.7,6.2-11.3,7.4
			c-4.6,1.1-6.8,5.1-9.9,8c-4.3,4.2-4.3,4.2-8.8,0.3c-2-1.7-4-2.6-6.5-1.3c-2.1,1.1-3.1,2.9-3.2,5.3c-0.1,2.6,1,4.7,3.5,5.8
			C280.4,438.6,282.3,438.9,285.4,439.7z"/>
		<path class="st7" d="M360.3,317.2c-5.7-1.7-10.9,0.3-16.4,3.5c-5.4,3.1-12.1,1.6-18.3,2.3c-0.9,0.1-2.3-0.9-3-1.7
			c-6.2-7.9-14.9-13.5-20.3-22.1c-1.9-3.1-5.3-4.9-9-5.5c-5-0.8-8-4.4-10.7-7.9c-3.4-4.3-1.3-9,1.2-12.7c2.6-3.8,5-7.5,6.4-11.9
			c0.9-2.8,3.1-4.8,5.9-6c6.2-2.8,11.3-6.6,15.2-12.5c4.1-6.1,8-5.4,11.7-1.2c3.6,4.2,7.8,7.6,13.1,9.8c3.1,1.3,5.9,3.9,6.9,7
			c1.7,5.4,5.2,9.3,9.3,12.5c7.5,5.7,9.8,14.5,13.8,22.2c1.7,3.3,2.9,7,4.5,10.5C375.1,312.9,371.5,317.8,360.3,317.2z"/>
		<path class="st47" d="M268.9,288.9c1.8,2.3,3.3,5.4,7.1,2.1c1-0.9,2.2,0.7,2.9,1.5c4,4.3,9.1,6.8,14,9.7
			c8.7,4.9,15,12.4,20.1,20.8c1.5,2.5,3.9,4.7,4.2,8.7c-10.1-4.2-15-12.8-21.3-20c0.3-1.6,0.4-3.1-2.1-2.3c-2.5-0.3-4.5-1.8-5.9-3.7
			c-5.1-6.7-11.9-10.7-19.8-13.1c-4.2-1.3-2.3-3.1-0.7-5.1C268.4,287.5,268.7,288.2,268.9,288.9z"/>
		<path class="st47" d="M139.6,445.9c-1-0.5-1.9-1-2.9-1.4c-1.8-5.8-6.7-9.6-9.7-14.6c-2.5-4-4.8-8-6.5-12.5
			c-2.1-5.5-5.4-10.5-8.2-15.6c0-1.5,0-3.1-0.1-4.6c4.2,1,6.3,3.8,7.6,7.7c5,15.1,14,28,22.8,41.1
			C141.6,446.4,140.6,446.2,139.6,445.9z"/>
		<path class="st33" d="M268.9,288.9c-0.5-0.5-0.9-0.9-1.4-1.4c0.1-1.1,0.3-2.2,0.4-3.3c1.6-4.9,2.7-10.3,8.4-12.5
			C273.9,277.5,271.4,283.2,268.9,288.9z"/>
		<path class="st48" d="M293.9,309.4c-0.7-1.7-2.8-2.6-2.9-5.3c4.6,1.1,7,4.5,10,7.5c-2.1,1.7-3.5,0.1-5,0.1
			C295.3,311,294.6,310.2,293.9,309.4z"/>
		<path class="st49" d="M325.3,405.6c0.4,0.1,0.7,0.3,1.1,0.4c0.1,1.9,0.8,3.6,1.8,5.2c0.5,1.9,1.5,3.7,0.1,5.6
			c-1.5,1.7-3.2,3.2-5.7,2.1c0.9-2.9,2.6-5.7,2.6-8.9C325.2,408.5,325.3,407,325.3,405.6z"/>
		<path class="st12" d="M293.6,228.7c1.2,1.4,1.5,3,1,4.7c-0.7,2.4,0.2,4.1,2,5.6c-1.6,2.4-3.4,3.3-5.9,1.2
			C290.7,236,292.9,232.5,293.6,228.7z"/>
		<path class="st7" d="M111.7,482.1c-2.6-2.3-2.6-4.3-3.1-6.1c-1.3-4.6-3.5-8.2-8.4-10c-4.5-1.7-7.5-5-8.3-10
			c-0.8-5.7-5.6-9.3-7.9-14.4c-3.7-8.2-8.8-15.8-10.3-25c-0.5-2.8-2-5.4-3.5-7.9c-2.8-4.8,0.1-10.1,6.1-9.2
			c5.9,0.9,11.8-1.2,17.8,0.3c5.6,1.3,9.3,4.5,10.4,10.4c0.4,1.9,1.4,3.1,2.9,3.8c3.5,1.8,4.5,5.2,6.5,8.1c3.9,5.7,4.8,13,10,17.9
			c0.5,0.5,0.9,1.1,1.2,1.7c1.3,2.6,0,21-2.1,23C118.4,469.7,114.2,475,111.7,482.1z"/>
		<path class="st50" d="M107.9,392.4c-0.6,0.7-1.2,1.4-1.7,2.1c-5.6-0.2-11.1-1.4-18-2.6c4.4-2.8,7.8-1.2,11-0.9
			c2.3,1.5,5.1,0.4,7.4,1.5C107.1,392.5,107.5,392.5,107.9,392.4z"/>
		<path class="st51" d="M73.5,391.4c-0.5-0.6-1-1.3-1.6-1.9c4.3,0.9,8.8-1.6,14.2,0.9C81.3,392.1,77.3,390.7,73.5,391.4z"/>
		<path class="st37" d="M106.7,392.5c-2.6,0.1-5.3,0.4-7.4-1.5C101.9,390.6,104.4,391.1,106.7,392.5z"/>
		<path class="st7" d="M268.5,526.2c-3.8-1.2-7.6,0.2-11.8,1.3c-6.3,1.7-13.2,1.3-19.8,1.6c-1.1,0-2.4-0.5-3.3-1.3
			c-3.7-3.2-7.9-3-12.2-2.3c-2.7,0.5-5.4,0.7-7-2c-1.9-3.1-2.1-6.6,0.2-9.4c4.3-5.4,7.4-11,7.5-18.1c0-3.2,2-5.1,5.7-5
			c3.6,0.1,7.1-0.4,10.7-0.4c3.7,0,7-1,10.1-3c2-1.3,4.2-2.3,6.5-3c6.2-2,7.7-1.2,10.1,4.9c0.6,1.5,1.3,3.1,2.3,4.4
			c5,6.4,7.1,14.4,12.1,20.8c2.3,3,1,7.2-2.2,9.4C275.5,525.4,271.6,526.3,268.5,526.2z"/>
		<path class="st52" d="M275.4,481.9c-0.6,0-1.3,0-1.9,0c-2-3.8-2.7-8.2-5.8-11.5c1.1-2.6,0.5-5-2-6.7c0.9-0.5,1.4-0.9,1.7-0.9
			c6.8,1.9,9.3,0.9,14.3-5.3c2.6-3.3,4-7.5,7.6-10.1c0.6,0.4,1.1,0.9,1.5,1.5c1.5,3.7-1.1,5.5-3.1,7.9c-1.9,2.2-4.3,3.8-5.9,6.2
			c-3.9,2-4.7,5.1-3,9c2.7,6.1,5.8,12,6.9,18.8c0.5,3.2,3.2,5.8,5.5,8.3c3.5,3.7,6.1,8,7.4,13c0.8,3.1,1.3,6.1-1.4,9.6
			c-0.9-7-1.5-13.6-6.5-18.5c-1-1.5-2.4-2-4.1-1.3c-3.4,0-3.1-3-4-4.9C280.3,492,280.4,485.7,275.4,481.9z"/>
		<path class="st7" d="M309.2,427.3c1.7-0.6,3.5-1.2,5.2-1.9c2-0.8,3.1-0.4,3.1,2c-0.6,2.3-2.7,3.6-3.8,5.6l0-0.1
			c-5.2,6.4-11,12.1-17.3,17.3l0,0c-0.8,0.8-1.8,1-2.9,0.6c-2.6-2.3-0.8-4.4,0.7-6.1c5-5.2,9.3-11,13.8-16.6
			C308.5,427.9,308.8,427.6,309.2,427.3z"/>
		<path class="st53" d="M308.1,428.2c-1.7,4.7-4.4,8.7-8.2,12.1c-3,2.7-5.2,6.1-6.8,9.9c-1.8,1.6-2.8,0.3-3.7-1.1
			c-0.1-0.5-0.1-1.1-0.2-1.6c5-4.5,9.2-9.6,13.5-14.7C304.3,430.9,305.6,428.9,308.1,428.2z"/>
		<path class="st42" d="M328.3,416.8c-1.4-1.8-1.5-3.7-0.1-5.6c2.6,1,5.1,2,7.3,4.5C333.1,417.8,330.6,416.6,328.3,416.8z"/>
		<path class="st54" d="M275.4,481.9c0-0.7-0.2-1.6,0.1-2c1-1.1,1.6,0,2,0.8c3.1,7.1,6.1,14.2,9.2,21.3c1.2,4.5,2.5,9,3.7,13.5
			c-5.1-6.5-8.2-13.8-10.6-21.5C278.5,489.8,277.7,485.6,275.4,481.9z"/>
		<path class="st7" d="M326.8,335.1c1.8-1.6,3.4-1.8,5.4-0.7C330.6,336,329,336.3,326.8,335.1z"/>
	</g>
	<g>
		<path class="st55" d="M562.8,59.2c2.5,1.9,5.6,2.7,8.2,4.5c4.3,3.1,8.2,6.5,11.7,10.5c3,3.4,5.9,6.8,9,10c1.2,1.2,2.3,2.3,2.6,4
			c0.7,4.5,3.6,7.9,5.9,11.6c5.5,9.1,10.6,18.4,14.2,28.4c0.7,2,1.1,4.1,1.3,6.2c0.1,2-0.4,3.8-2.2,4.8c-1.8,1-3.6,1.5-5.7,0
			c-6.6-4.8-11.2-11.1-14.8-18.2c-2.9-5.8-6.3-11.2-10.6-16.1c-4.9-5.5-9.7-11.1-15.3-15.9c-2.8-2.4-5.7-3.8-9.3-3.8
			c-1.3-0.5-1.6-1.1-0.2-1.9c6.7,0.1,10.8,4.8,15.3,8.9c0.6,0.5,1,1.2,1.6,1.6c9,6.1,14.1,15.3,18.9,24.6
			c3.7,7.3,8.5,13.6,14.3,19.2c1.5,1.5,3.2,1,4.9,0.4c1.9-0.6,1.7-2.1,1.6-3.5c-0.2-3.4-1.5-6.5-2.7-9.7
			c-4.1-10.8-10.7-20.2-16-30.2c-8.1-15-19.1-26.7-34.2-34.7c-7.9-4.2-15.8-8.4-24-11.8c0.1-0.8,0.7-0.9,1.3-1.1
			c4.3,0.7,7.6,3.6,11.5,5c3.2,1.1,6.2,2.8,9.3,4.2C559.9,58,561.6,58.4,562.8,59.2z"/>
		<path class="st56" d="M432.5,220.1c-6.4-5.5-11-12.3-13.9-20.1c-1.8-4.8,0.4-10.4,4.4-12.5c1.9-1,3.3-0.9,5.3,0.4
			c8.4,5.5,14,13.9,21.5,20.3c2.2,1.9,4.6,3.3,6.9,4.9c3.5,2.4,7.3,4.7,8.1,9.5c-1.3,0.6-2.5,0-3.8-0.4c-2.7-2.8-5.6-5.1-8.8-7.3
			c-5.9-4-10.5-9.5-15.5-14.6c-2.3-2.3-4.9-4.3-7.2-6.7c-1.3-1.4-3-2.4-5-1.4c-2,1-2.6,2.9-2.5,5c0.2,4.3,2.1,8,4.6,11.4
			c3.2,4.3,6.5,8.5,10.3,12.3c0.9,0.9,2.1,1.8,0.9,3.3C435.6,223.5,434,221.8,432.5,220.1z"/>
		<path class="st14" d="M405.1,164c-2.7-4.8-1.5-10.2-2-15.3c-0.6-5.6,1.1-11,1.1-16.5c0-6.4,1.3-12.5,2.4-18.7
			c1.5-8.2,3.8-16.1,10-22.2c2.3-1.7-5.2,11.5-5.1,13.5c0.1,1.1,7.5-9.9,6.9-9.1c-5.5,7.1-7.4,15.7-9.2,24.2
			c-1.4,6.5-1.5,13.2-2.2,19.8c-0.7,6.7-0.6,13.7,0.7,20.5c0.4,1.9,0.5,3.8-1.9,4.5C405.5,164.6,405.2,164.3,405.1,164z"/>
		<path class="st57" d="M410.9,102c-0.9-2.5,5.8-14.6,7-15c4.6-1.7,5.6-1.3,7.6,3c2.4,5,2.2,10.4,2.6,15.8c0.7,8.8-3,16.7-4,25.1
			c-0.6,5-0.8,10-0.5,15c-0.4,1-1.2,1-2.1,0.9c-1.9-1.5-2.6-3.8-2.3-5.8c0.6-4,0.4-8,0.8-12c0.7-6,2.9-11.6,3.6-17.5
			c0.6-5.8,0.7-11.5-0.6-17.2c-0.4-1.9-1.2-3.8-3.7-3.9C418,90.2,412.1,102.8,410.9,102z"/>
		<path class="st24" d="M503.7,231.9c-3.5,0.2-6.6,2.3-10.2,2.1c-1.2-0.1-2.3,0-3.5-0.2c-1.2-0.9-1.2-1.7,0.2-2.4
			c10.3,0.3,19.2-4.5,28.6-7.8c6.6-2.4,13.7-3.8,20.7-1.1c0.9,0.3,1.9,0.5,2.8,0.7c0.5,0.3,1.3,0.6,0.4,1.4c-3.3-0.3-6.6-0.7-10-1
			c-1.1,0.6-2.2,1.2-3.3-0.2c-1.8-0.2-3.3,0.1-4.6,1.4C518.2,228.3,511.3,231.2,503.7,231.9z"/>
		<path class="st43" d="M587.1,183.5c2.8,1.2-1.7,5.1-1.3,6.8c-4.6,6.9-7.8,11.3-13.1,17.6c-2.6,3.2-3.1,6.6-1.5,10.4
			c1.6,4,5.2,5.5,9,3.7c3.3-1.5,6.2-3.7,8.4-6.6c1.4-1.6,2.9-3.2,5.4-2.5c-0.4,2.1-1.9,3.5-2.9,5.3c-1.8,2.9-4.7,4.2-7.6,5.6
			c-1.4,0.6-2.8,1.1-4.2,1.7c-1.7,1.4-3.4,1.6-5.1,0.2c-6.4-2.5-9.2-12.1-5.3-17.8c3.3-4.7,7.6-8.6,11-13.2
			C580.1,192.8,586,186,587.1,183.5z"/>
		<path class="st58" d="M421.8,146.1c0.6-0.1,1.2-0.1,1.9-0.2c0.8,4.8,1.6,9.6,3.7,14.1c3.5,7.5,1.5,14.9-1.4,22.2
			c-0.7,1.7-2.2,1.5-3.6,1.6c-0.3-0.7-1-1.3-0.8-2.2c4.5-7.3,4.9-14.9,1.5-22.7c-1.2-2.7-1.6-5.6-2.4-8.5
			C420.2,148.9,419.8,147.1,421.8,146.1z"/>
		<path class="st57" d="M594,213c-1.9,0.8-2.5,3.2-4.4,4c-0.4-0.4-0.6-1-0.4-1.5c1.7-4.1,3.1-8.5,5.4-12.2c2.5-4,4.3-8.2,6.6-12.3
			c1.2-2.2,1.7-4.7,3-6.9c1.2-2,2.1-4.4,5-4.6c0.5,0.2,0.9,0.6,1,1.2c-0.9,4.5-3.7,8.1-5.9,11.7C600,198.9,597.4,206.1,594,213z"/>
		<path class="st59" d="M503.7,231.9c7-2.4,13.5-6.5,21.2-6.8c0.7,1.4-0.6,2.2-1.3,2.5C517.3,230.3,511.1,234.1,503.7,231.9z"/>
		<path class="st60" d="M529.3,245c7.2-0.1,12.4-4.5,17.6-8.7c1.2-1,3-1.6,2.8-3.6c-0.7-1-0.4-2.1,0-3.1c0.4-1.1,1.1-0.8,1.6,0
			c2.4,2.9,0,5.6-1.6,6.7c-4.7,3.3-8.5,8.1-14.6,9.1c-2.7,0.5-16.8,3.3-19.5,3.8c-0.5-0.4-1-0.9-0.5-1.6
			C515.9,246.6,528.3,244.7,529.3,245z"/>
		<path class="st61" d="M432.5,220.1c2,1,3.2,3.3,5.7,3.5c0.7-0.9,1.8-0.8,2.7-0.7c4.3,0.5,8.1,2.1,11.1,5.4
			c-0.5,1.7,1.8,2.7,1.3,4.4c-6.2-1.4-12-4-16.8-8.2C435.2,223.2,432.9,222.5,432.5,220.1z"/>
		<path class="st62" d="M453.4,232.7c-0.7-0.6-1.3-1.4-2.3-1.6c-0.6-0.2-1.7,0-1.4-1.2c0.2-1,1.1-0.8,1.8-0.8
			c1.9-1.4,3.7,0.2,5.6,0.3c4.5,0.3,5.6-0.7,4.7-5c-0.2-1.1-0.5-2.1,0.5-3c1.3-0.5,1.7,0.7,2.5,1.2c1.5,2.9,2.5,5.6,0,8.6
			c-2.4,2.9-5.5,2.5-8.6,2.2C455.3,233.2,454.3,232.9,453.4,232.7z"/>
		<path class="st63" d="M594,167.4c-0.2-1.3,6.7-12.4,11.1-11.4c7.6,4,9.2,8.8,9.4,10.6c0.2,1.3,0.3,4.7-1,5.6
			c-2.1,0.5-4.5-5.6-4.9-7.1c-0.5-1.9-1.3-3.5-3.4-3.9c-2.3-0.4-3.3,1.2-4.4,2.7c-0.5,0.8-1,1.7-2.1,1.9
			C598.1,166,594.4,168.2,594,167.4z"/>
		<path class="st46" d="M422.1,181.9c0.1,0.6,0.2,1.2,0.3,1.8c-9.8-3-15-10.1-17.2-19.8c0.3,0.2,0.6,0.3,0.9,0.5
			c1.8-0.5,2.6,0.4,3.2,1.9c2.4,5.7,5.8,10.4,11.5,13.2C421.7,180.1,422.3,180.8,422.1,181.9z"/>
		<path class="st37" d="M514,249c-1.9,1.2-3.9,0.1-5.7-0.2c-5.3-0.9-10.8-0.6-15.8-3.2c0.2-0.7,0.7-0.8,1.3-0.5
			c3.3,1.1,6.7,0.2,10,0.9c0.8-0.2,1.5,0.1,1.9,0.7c1.6,0,3.1,0.7,4.7,0.2c1.4-1.3,2.4-0.8,3.4,0.6C514.1,248,514.2,248.5,514,249z"
			/>
		<path class="st47" d="M490.2,231.4c-0.4,0.8-0.5,1.6-0.2,2.4c-1.3,1.8-4.2,4.4-2.1,6.4c0.8,1.6,5.5,4.6,4.6,5.4
			c-0.5,0.4-5.3-2.9-5.9-3C483.1,237.9,484.7,232.8,490.2,231.4z"/>
		<path class="st63" d="M589.7,181.4c2.1-4.5,2.5-9.4,4.3-14c0.5-1.2,0.7-2,2.1-1.8c1,1.4,0.1,3.2,0.9,4.6
			c-1.1,3.7-6.2,11.4-7.2,15.1c-3,3-2.8,4.5-3.9,5.1c-0.7,0.4-2.7,2.1-3.2,1.3C582,190.8,588.9,182,589.7,181.4z"/>
		<path class="st64" d="M610,180.6c-0.3-0.2-0.6-0.5-0.9-0.7c-1.7-0.6-1.1-1.8-0.8-2.9c0.7-2,1.7-3.9,2.2-6c1.1-1.1,0.9-3.2,3-3.4
			c0.7,0.6,1,1.3,0.7,2.3C613.1,173.5,611.8,177.1,610,180.6z"/>
		<path class="st65" d="M551.3,229.6c-2,0.3-0.7,2.2-1.6,3.1c-1.1-0.3-1.6-1.1-1.3-2.2c1.2-3.7-0.7-4.9-4-5c-0.6,0-1.2-0.5-1.8-0.7
			c-0.1-0.5-0.3-0.9-0.4-1.4C546.2,224.1,550.3,224.6,551.3,229.6z"/>
		<path class="st59" d="M514,247.8c-1.2-0.2-2.4-0.5-3.6-0.7c-0.5-0.9-1.5-2.2,0-2.6c1.3-0.4,3-1.4,4.5,0.1c1.4,1.4-0.6,1.9-0.7,2.9
			C514.1,247.6,514.1,247.7,514,247.8z"/>
		<path class="st59" d="M583.5,223.8c2.7-1.7,4.7-4.2,7.6-5.6C590.5,222.8,587,223.3,583.5,223.8z"/>
		<path class="st59" d="M574.2,225.7c1.7,0.2,3.4,0.2,5.1-0.2c0.1,0.7,0.3,1.5,0.3,2.2c0,0.5-0.2,1.2-0.6,1.4
			c-0.7,0.5-1.2-0.1-1.5-0.7C576.8,227.2,574.5,227.6,574.2,225.7z"/>
		<path class="st59" d="M505.7,246.8c-0.6-0.2-1.3-0.5-1.9-0.7c0.1-0.2,0.3-0.3,0.4-0.5c0.8-0.8,0.5-3.5,2.4-2.2
			C508.2,244.4,506.2,245.7,505.7,246.8z"/>
		<path class="st59" d="M419.1,89.2c1.4,0.6,2.1,1.6,1.6,3c-0.5,1.3-1.4,1.9-2.8,1.1c0.3-0.6,0.9-1.1,0.4-1.7"/>
		<path class="st37" d="M487.8,242.2c1.6,1.2,3.2,2.3,4.7,3.5c-2.4-0.2-4.2-1.6-5.9-3C487,242.5,487.4,242.3,487.8,242.2z"/>
		<path class="st59" d="M529.5,223.6c1.1,0.1,2.2,0.1,3.3,0.2c0.1,1.5-0.9,1.5-1.9,1.5C529.8,225.2,529.2,224.7,529.5,223.6z"/>
		<path class="st66" d="M453.9,51.4c7.4-1.9,14.2-5.4,21.5-7.7c12.9-4,26.2-5.6,39.6-5.5c2.3,0,5.6-0.5,7.4,2.4
			c-0.1,0.8-0.7,0.5-1.2,0.7c-9-2.2-17.9-0.7-26.9,0.4c-12.5,1.5-24,6.1-35.5,10.6c-1.4,0.6-3.1,0.4-4.3,1.3
			C452.7,53.2,453.2,52.3,453.9,51.4z"/>
		<path class="st67" d="M481.7,58c-9.3,1.5-18.2,4.2-26.3,9c-3.1,1.8-6.5,2.4-10,2.5c-3.6,0.1-6.3-2.1-7.4-5.6
			c-0.6-1.7,0.2-2.6,1.7-3.4c0,5.6,2.7,7.6,7.6,6.9c3.6-0.6,6.8-2.1,10-3.7c4.3-2.3,8.5-4.6,13.6-4.9c1.1-0.1,8.7-3.7,10.6-2.6
			C481.3,56.8,482,57.3,481.7,58z"/>
		<path class="st68" d="M481.7,58c-0.5-0.5-1.2-1-0.4-1.8c4.4,0.2,13.4,5.3,14.9,6.5c8.2,6.3,13.2,9.5,20.7,12.8
			c1.3,0.6,2.9,0.2,3.8,1.6c0,0.7-0.3,1.1-1,1.3c-7.5-2.8-14.7-6.2-21-11.2c-4.5-3.6-8.8-7.4-14.9-7.9
			C483.2,59.2,482.4,58.5,481.7,58z"/>
		<path class="st69" d="M557.4,83.4c-0.2,0.7-0.3,1.4,0.2,1.9c-5.3-2.1-10.8-2.4-16.4-1.7c-2.1,0.2-4.2-0.7-6.4-1.1
			c-0.8-0.6-1.4-1.3-0.8-2.4c4.7,1.7,9.5,1,14.3,1C551.5,81.2,554.4,82.4,557.4,83.4z"/>
		<path class="st70" d="M534.1,80.1c0.3,0.8,0.5,1.6,0.8,2.4c-5.3-0.3-10.3-1.9-15-4.2c0.3-0.4,0.7-0.9,1-1.3
			C525.2,78,529.4,80.1,534.1,80.1z"/>
		<path class="st65" d="M521.2,41.3c0.4-0.2,0.8-0.4,1.2-0.7c5.2,2.5,11.1,3.5,16.1,6.6c-0.4,0.4-0.9,0.7-1.3,1.1
			C532,45.3,525.9,44.8,521.2,41.3z"/>
		<path class="st71" d="M453.9,51.4c0,0.8,0,1.5,0.5,2.2c-13.7,6.1-14.2,8-16.5,10.3c0.7-2.3-1.1-5.9,12.4-11.2
			C451.5,52.3,452.9,52.4,453.9,51.4z"/>
		<path class="st39" d="M462.3,221.4c0.5,1.8,1.9,3.3,1.7,5.5c-0.3,3.2-2.3,5.1-5.5,4.4c-2.4-0.5-5-0.5-7-2.2
			c-3.5-1.9-6.7-4.4-10.9-4.5c-0.9,0-1.6-0.6-2.4-1c-7-6-12.9-12.9-16.7-21.4c-1.2-2.7-1.7-5.4-0.8-8.3c1.3-4.4,5-5.6,8.6-2.8
			c4.7,3.6,8.7,7.9,12.7,12.2c5.3,5.7,11.5,10.2,17.6,15C460.7,219.1,461.5,220.2,462.3,221.4z"/>
		<path class="st39" d="M418,93.3c2.5-0.8,1.5-2.5,1.1-4.1c2.9-1.3,4.3,0.4,5,2.8c1.9,6.3,2,12.8,1.3,19.3
			c-0.8,6.9-3.6,13.4-3.9,20.4c-0.2,4.8-1.1,9.6,0.2,14.4c0.4,5.6,2.3,10.8,4.2,16c2.3,6.4,0.8,12.3-1.6,18.2
			c-0.4,1-1.3,1.4-2.3,1.6c-7.5-2.8-12.1-8.3-14.7-15.7c-0.2-0.7-0.9-1.2-1.3-1.8c-0.6-7-0.8-14-0.9-21c-0.1-2.5,0-4.9,0.7-7.4
			c1.2-4.4,0.7-9.1,1.4-13.6c0.8-4.9,2.3-9.5,3.3-14.2C411.9,102.6,414.8,97.9,418,93.3z"/>
		<path class="st39" d="M597.5,164.4c0.5-1,1.9-1.3,2.3-2.3c1.1-2.3,2.9-3.3,5.3-3c2.5,0.3,4.1,1.8,4.8,4.3c0.4,1.3,0.2,2.9,1.3,4
			c0,0,0-0.1,0-0.1c0.4,1.2-1.1,2.7,0.5,3.7c0,0,0,0,0,0c-0.1,3.2-2.1,5.8-2.5,8.9c-2.1,2.1-3.6,4.6-4.8,7.3
			c-2.2,5.1-3.8,10.6-6.9,15c-3.2,4.7-4,10.5-7.9,14.7c-2.6,3.4-6.1,5.5-10,7.1c-2.5,1-4.7,0.6-6.8-0.8c-3.8-2.5-5.8-10.1-3-13.7
			c5.5-7.3,11.3-14.2,17-21.3c1.3-0.7,2.7-1.3,4-2c1.9-0.9-0.1-2,0.1-3c1.1-3.3,2.4-6.6,3.2-9.9
			C594.4,171.8,594.4,168.5,597.5,164.4z"/>
	</g>
	<g>
		<path class="st7" d="M498.1,118.2c0.8-1.7,1.7-3.4,2.3-5.2c2.9-8.2,10.4-10.4,16.5-4c4.7,5,8.7,10.8,13.4,15.9
			c1.5,1.6,2.5,4.2,1.6,6.2c-3.2,6.9-2.7,15-7.1,21.5c-1.4,2.1-2.7,5-5.6,4.4c-7.3-1.6-14.8-1.3-21.7-5.7
			c-10.2-6.5-16.1-15.7-20.1-26.5c-1.5-4-1.2-8.7-1.4-13.1c-0.1-2.3,1.3-4.2,3.3-5.4c0.7-0.4,1.9-0.7,2.6-0.5
			c1.5,0.5,1.7,1.9,1.1,3.1c-4.8,8.7-0.1,12.9,6.8,17.6c5.7,3.9,11,8.4,16.8,12.3c5.4,3.6,14.8,2.5,19.1-2.1c2-2.1,1.9-4.6,1.2-7.1
			c-2.3-8.6-12.2-13.9-20.8-11.3c-1.8,0.6-3.6,1.2-5.4,1.8C499.3,120.2,498.4,119.5,498.1,118.2z"/>
		<path class="st9" d="M464.1,112.7c1.2,23.7,15.5,38.6,34.6,49.8c7.3,4.3,15.7,4.6,24,2.9c4.4-0.9,8.1-3.2,11.2-6.7
			c8.1-9.2,10-20.2,9.1-31.9c-0.4-4.7-3.5-8-7.5-12c7,1.8,9.7,5.6,10.8,11.5c1.8,9.8,0.4,19-4.5,27.5c-4.8,8.3-12,13.4-21.9,14.9
			c-16.3,2.4-29.3-4.3-40.2-15.1c-7.6-7.5-14.3-16-17.6-26.7c-1.5-4.7-2.2-9.2-1-13.9C461.9,111.2,462.9,111.4,464.1,112.7z"/>
		<path class="st17" d="M464.1,112.7c-1,0.1-2,0.3-2.9,0.4c-0.8-6.8,3.1-12,6.7-17c2.1-2.9,5.3-4.3,9-4.2c1.3,0,2.6,0.3,3.1,1.6
			c0.4,1.4-0.6,2.8-1.6,3C469.6,98.5,468.1,106.7,464.1,112.7z"/>
		<path class="st63" d="M498.1,118.2c0.9,0.6,1.7,1.3,2.6,1.9c3.1,6.2,10.5,6.2,16,10.9c-11,1.1-18-4.6-24.7-10.7
			c-1.2-1.1-1.7-2.9-0.1-4.1c1.9-1.4,2.6,0.7,3.6,1.8C496.2,118.7,497.1,118.6,498.1,118.2z"/>
		<path class="st45" d="M499.8,93.8c9.1-0.2,15.7,4.9,22.1,10.3C513.3,103.3,507,97.6,499.8,93.8z"/>
	</g>
</g>
<g id="labels">
	<line class="st72" x1="370.3" y1="379" x2="442.2" y2="379"/>
	<line class="st73" x1="370.3" y1="378" x2="442.2" y2="378"/>
	<g>
		<path d="M453,370.4h8.7v1.2h-3.7v10.4h-1.4v-10.4H453V370.4z"/>
		<path d="M465.1,382.1h-1.3v-11.6h1.3v4.3h0.1c0.4-0.9,1.2-1.5,2.6-1.5c1.8,0,3,1,3,3.3v5.5h-1.3v-5.4c0-1.4-0.8-2.2-2-2.2
			c-1.3,0-2.3,0.9-2.3,2.4V382.1z"/>
		<path d="M473,371c0-0.5,0.4-0.9,1-0.9s1,0.4,1,0.9s-0.4,0.9-1,0.9S473,371.5,473,371z M473.2,373.4h1.3v8.7h-1.3V373.4z"/>
		<path d="M476.6,377.8c0-2.7,1.6-4.5,3.9-4.5c1.8,0,3.2,1.1,3.5,2.7h-1.3c-0.2-0.8-0.9-1.5-2.1-1.5c-1.6,0-2.6,1.3-2.6,3.3
			c0,2,1,3.3,2.6,3.3c1,0,1.8-0.6,2.1-1.5h1.3c-0.2,1.5-1.5,2.7-3.4,2.7C478.1,382.3,476.6,380.4,476.6,377.8z"/>
		<path d="M486,370.4h1.3v6.8h0.2l3.8-3.9h1.7l-3.7,3.7l4,5h-1.7l-3.3-4.1l-0.9,0.9v3.3H486V370.4z"/>
		<path d="M498.7,379.6c0-2,1.8-2.4,3.4-2.6c1.6-0.2,2.2-0.1,2.2-0.8v0c0-1.1-0.6-1.8-1.8-1.8c-1.3,0-2,0.7-2.3,1.3l-1.3-0.5
			c0.7-1.6,2.2-2,3.5-2c1.1,0,3.2,0.3,3.2,3.1v5.7h-1.3v-1.2h-0.1c-0.3,0.6-1.1,1.4-2.6,1.4C500.1,382.3,498.7,381.3,498.7,379.6z
			 M504.4,378.9v-1.2c-0.2,0.3-1.7,0.4-2.3,0.5c-1,0.1-2,0.5-2,1.5c0,0.9,0.8,1.4,1.8,1.4C503.5,381.1,504.4,380,504.4,378.9z"/>
		<path d="M513.1,375.6c-0.2-0.6-0.7-1.2-1.9-1.2c-1.1,0-1.9,0.5-1.9,1.3c0,0.7,0.5,1,1.5,1.3l1.3,0.3c1.6,0.4,2.3,1.1,2.3,2.4
			c0,1.5-1.4,2.6-3.4,2.6c-1.8,0-3-0.8-3.3-2.3l1.3-0.3c0.2,0.9,0.9,1.4,2,1.4c1.2,0,2-0.6,2-1.4c0-0.6-0.4-1-1.3-1.2l-1.5-0.3
			c-1.6-0.4-2.3-1.2-2.3-2.4c0-1.5,1.4-2.5,3.2-2.5c1.7,0,2.7,0.8,3.1,2.1L513.1,375.6z"/>
		<path d="M516.1,377.8c0-2.7,1.6-4.5,3.9-4.5c1.8,0,3.2,1.1,3.5,2.7h-1.3c-0.2-0.8-0.9-1.5-2.1-1.5c-1.6,0-2.6,1.3-2.6,3.3
			c0,2,1,3.3,2.6,3.3c1,0,1.8-0.6,2.1-1.5h1.3c-0.2,1.5-1.5,2.7-3.4,2.7C517.6,382.3,516.1,380.4,516.1,377.8z"/>
		<path d="M525.1,377.8c0-2.7,1.6-4.5,3.9-4.5c1.8,0,3.7,1.1,3.7,4.4v0.6h-6.3c0.1,1.9,1.1,2.9,2.7,2.9c1.1,0,1.8-0.5,2.2-1.4
			l1.3,0.4c-0.4,1.3-1.7,2.2-3.5,2.2C526.6,382.3,525.1,380.5,525.1,377.8z M531.4,377c0-1.5-0.9-2.6-2.4-2.6
			c-1.5,0-2.5,1.2-2.6,2.6H531.4z"/>
		<path d="M536.1,382.1h-1.3v-8.7h1.3v1.4h0.1c0.4-0.9,1.2-1.5,2.5-1.5c1.8,0,3,1.1,3,3.3v5.5h-1.3v-5.4c0-1.4-0.8-2.2-2-2.2
			c-1.3,0-2.2,0.9-2.2,2.4V382.1z"/>
		<path d="M543.7,377.7c0-2.7,1.5-4.5,3.7-4.5c1.7,0,2.2,1,2.5,1.5h0.1v-4.3h1.3v11.6h-1.3v-1.3H550c-0.3,0.5-0.9,1.5-2.5,1.5
			C545.3,382.3,543.7,380.5,543.7,377.7z M550.1,377.7c0-2-0.9-3.3-2.5-3.3c-1.7,0-2.5,1.4-2.5,3.3c0,1.9,0.9,3.3,2.5,3.3
			C549.2,381.1,550.1,379.7,550.1,377.7z"/>
		<path d="M553.8,371c0-0.5,0.4-0.9,1-0.9s1,0.4,1,0.9s-0.4,0.9-1,0.9S553.8,371.5,553.8,371z M554.1,373.4h1.3v8.7h-1.3V373.4z"/>
		<path d="M559.2,382.1h-1.3v-8.7h1.3v1.4h0.1c0.4-0.9,1.2-1.5,2.5-1.5c1.8,0,3,1.1,3,3.3v5.5h-1.3v-5.4c0-1.4-0.8-2.2-2-2.2
			c-1.3,0-2.2,0.9-2.2,2.4V382.1z"/>
		<path d="M567.2,383.8l1.1-0.8c0.4,0.5,0.9,1.3,2.5,1.3c1.4,0,2.4-0.7,2.4-2.1v-1.8h-0.1c-0.3,0.5-0.8,1.5-2.5,1.5
			c-2.1,0-3.7-1.5-3.7-4.3c0-2.7,1.5-4.4,3.7-4.4c1.7,0,2.2,1,2.5,1.5h0.1v-1.4h1.3v9c0,2.2-1.7,3.2-3.8,3.2
			C568.8,385.5,567.7,384.7,567.2,383.8z M573.2,377.6c0-1.9-0.9-3.2-2.5-3.2c-1.7,0-2.5,1.4-2.5,3.2c0,1.8,0.9,3.1,2.5,3.1
			C572.3,380.7,573.2,379.6,573.2,377.6z"/>
		<path d="M582.8,382.1h-1.3v-11.6h1.3V382.1z"/>
		<path d="M585,371c0-0.5,0.4-0.9,1-0.9s1,0.4,1,0.9s-0.4,0.9-1,0.9S585,371.5,585,371z M585.3,373.4h1.3v8.7h-1.3V373.4z"/>
		<path d="M589.1,373.4h1.3v1.4h0.1c0.4-0.9,1.2-1.5,2.3-1.5c1.1,0,1.9,0.5,2.3,1.5h0.1c0.4-0.9,1.4-1.5,2.6-1.5
			c1.6,0,2.7,0.9,2.7,3v5.8h-1.3v-5.8c0-1.3-0.8-1.8-1.8-1.8c-1.2,0-1.9,0.8-1.9,2v5.7h-1.4v-6c0-1-0.7-1.7-1.7-1.7
			c-1,0-2,0.9-2,2.2v5.4h-1.3V373.4z"/>
		<path d="M603.2,370.4h1.3v4.3h0.1c0.3-0.5,0.8-1.5,2.5-1.5c2.2,0,3.7,1.7,3.7,4.5c0,2.8-1.5,4.5-3.7,4.5c-1.7,0-2.2-1-2.5-1.5
			h-0.2v1.3h-1.3V370.4z M607,381.1c1.7,0,2.5-1.5,2.5-3.3c0-1.8-0.8-3.3-2.5-3.3c-1.6,0-2.5,1.3-2.5,3.3
			C604.5,379.7,605.4,381.1,607,381.1z"/>
		<path d="M617,377.8c0-2.7,1.6-4.5,3.9-4.5c1.8,0,3.2,1.1,3.5,2.7h-1.3c-0.2-0.8-0.9-1.5-2.1-1.5c-1.6,0-2.6,1.3-2.6,3.3
			c0,2,1,3.3,2.6,3.3c1,0,1.8-0.6,2.1-1.5h1.3c-0.2,1.5-1.5,2.7-3.4,2.7C618.5,382.3,617,380.4,617,377.8z"/>
		<path d="M625.9,377.8c0-2.7,1.6-4.5,3.9-4.5c1.8,0,3.7,1.1,3.7,4.4v0.6h-6.3c0.1,1.9,1.1,2.9,2.7,2.9c1,0,1.8-0.5,2.2-1.4l1.3,0.4
			c-0.4,1.3-1.7,2.2-3.5,2.2C627.5,382.3,625.9,380.5,625.9,377.8z M632.3,377c0-1.5-0.9-2.6-2.4-2.6c-1.5,0-2.5,1.2-2.6,2.6H632.3z
			"/>
		<path d="M637,382.1h-1.3v-11.6h1.3V382.1z"/>
		<path d="M640.8,382.1h-1.3v-11.6h1.3V382.1z"/>
	</g>
	<g>
		<path d="M416.6,557.7h-1.4v-10.1h-0.1l-2.8,1.9V548l2.9-1.9h1.4V557.7z"/>
		<path d="M419.7,551.8c0-3.8,1.5-6,4-6s4,2.2,4,6c0,3.8-1.5,6-4,6S419.7,555.6,419.7,551.8z M426.4,551.8c0-3-1-4.7-2.7-4.7
			c-1.7,0-2.7,1.7-2.7,4.7c0,3,1,4.7,2.7,4.7S426.4,554.9,426.4,551.8z"/>
		<path d="M434.5,548.9h1.3v5.2c0,1.4,1,2.4,2.4,2.4s2.4-1,2.4-2.4v-5.2h1.3v8.7h-1.3v-1.3h-0.1c-0.5,0.9-1.4,1.4-2.3,1.4
			c-1,0-1.9-0.5-2.3-1.4h-0.1v4.6h-1.3V548.9z"/>
		<path d="M444.4,548.9h1.3v1.4h0.1c0.4-0.9,1.2-1.5,2.3-1.5c1.1,0,1.9,0.5,2.3,1.5h0.1c0.4-0.9,1.4-1.5,2.6-1.5
			c1.6,0,2.7,0.9,2.7,3v5.8h-1.3v-5.8c0-1.3-0.8-1.8-1.8-1.8c-1.2,0-1.9,0.8-1.9,2v5.7h-1.4v-6c0-1-0.7-1.7-1.7-1.7
			c-1,0-2,0.9-2,2.2v5.4h-1.3V548.9z"/>
	</g>
	<line class="st74" x1="491.5" y1="520" x2="491.5" y2="540.7"/>
	<g>
		
			<radialGradient id="SVGID_1_" cx="732.6143" cy="632.6871" r="23.6637" gradientTransform="matrix(0.8948 0 0 0.8948 -122.5183 -33.1653)" gradientUnits="userSpaceOnUse">
			<stop  offset="0.2146" style="stop-color:#6D1014"/>
			<stop  offset="0.2917" style="stop-color:#751419"/>
			<stop  offset="0.4087" style="stop-color:#8A1F26"/>
			<stop  offset="0.5502" style="stop-color:#AC323C"/>
			<stop  offset="0.6199" style="stop-color:#BF3C49"/>
			<stop  offset="0.7723" style="stop-color:#B22D3C"/>
			<stop  offset="0.8834" style="stop-color:#A51F30"/>
			<stop  offset="0.9144" style="stop-color:#A82334"/>
			<stop  offset="0.9452" style="stop-color:#B22E40"/>
			<stop  offset="0.9759" style="stop-color:#C34154"/>
			<stop  offset="1" style="stop-color:#D55669"/>
		</radialGradient>
		<path class="st75" d="M525,513.1c-7.1,2.2-10.1,6.7-11.6,11.1c-1.5,4.5-2.7,9.4-0.8,15.2c1.9,5.8,4.8,9.5,9.9,12.1
			c5.1,2.6,7.6,2.9,13,1.8s14.2-4.9,17-11.1s2.8-15.3-2.6-23C544.5,511.5,532.3,510.9,525,513.1z"/>
		<g class="st76">
			<g>
				<g class="st77">
					<g class="st77">
						<path class="st7" d="M550.5,532.8c0-1.6-0.2-3.2-0.5-4.6c0.2,0.3,0.4,0.6,0.5,0.9C551.1,530.2,550.6,531.5,550.5,532.8z"/>
						<path class="st7" d="M550.4,537.4L550.4,537.4l0.1-2c0-0.6,0-1.3,0-1.9c0,0.1,0,0.2,0,0.3c0.1,0.6,0.2,1.2,0.2,1.8
							C550.8,536.2,550.7,536.8,550.4,537.4z"/>
						<path class="st7" d="M539.6,553.8c0.6-0.8,1.2-1.5,1.8-2.4c0.5-0.9,0.9-1.8,1.2-2.8c0.3-0.3,0.5-0.7,0.7-0.8
							c0,0,0.4-0.4,0.9-0.8c0.5-0.4,1.1-0.9,1.5-1.3c-0.1,1,0,2,0.1,3c0.5-0.1,1.3-0.6,1.5-0.3c0.5,1.1,0.1,2.3-0.5,3.5
							c-0.2,0.1-1.3,0.5-2.8,0.9c-0.4,0.1-0.7,0.2-1.1,0.3l-0.6,0.2c-0.3,0.1-0.6,0.2-0.7,0.2C540.9,553.6,540.2,553.6,539.6,553.8z
							"/>
						<path class="st7" d="M534.3,554c-1.5,0-3.4-0.3-4.3-0.6c0.5-0.2,1-0.6,1.6-0.9c-0.5-0.1-0.8-0.3-1.2-0.4
							c0.1-0.1,0.2-0.1,0.3-0.2c1-0.1,2.2-0.4,3.4-0.6c1.1-0.3,2.3-0.6,3.4-0.9c0,0.2-0.7,0.9-1.4,1.7
							C535.4,552.9,534.6,553.6,534.3,554z"/>
						<path class="st7" d="M538.6,553.6c-0.5,0.1-1,0.2-1.5,0.3c-0.9,0.1-1.9,0.1-2.8,0c0.6-0.8,1.4-1.7,2.4-2.6
							c-0.2,0-0.3-0.3-0.5-0.2c0.7-0.4,1.2-0.4,1.3-0.8c1-0.3,2.1-0.6,2.9-1c0.1,0,0.2-0.1,0.3-0.1c0.1,0,0.1,0,0.2-0.1l0.6-0.4
							c0.4-0.3,0.8-0.5,1.3-0.8c-0.2,0.5-0.7,0.6-1,0.8c0.3,0.2,0.6,0.1,0.9-0.2c-0.3,0.9-0.7,1.9-1.2,2.8c-0.5,0.9-1.2,1.6-1.8,2.4
							l-0.5,0.1C539,553.7,538.8,553.5,538.6,553.6z"/>
						<path class="st7" d="M552.3,536c0.8,1.4,1.8,2.4,3,3.3c-0.2,0.4-0.5,1.2-0.4,1.9c-0.1,0.6-0.4,1.5-0.9,2.3
							c-0.4,0.8-1,1.6-0.9,1.8c0,0.1,0,0,0.1-0.3c0-0.3,0.1-0.9,0-1.4c-0.1-1.1-0.7-2.2-1.1-2.8c-0.6-0.3-1-0.8-1.5-1.4
							c0.1-0.2,0.5,0,0.5-0.1c-0.1,0-0.5-0.4-0.5-0.4s0-0.3,0.1-0.8c0-0.4,0.1-1,0.1-1.3c0.7-0.3,0.2-1.3,0.1-1.3l0-0.6l0,0
							c0.2,0.3,0.4,0.6,0.6,0.9C551.8,536,552.3,536,552.3,536z"/>
						<path class="st7" d="M547.4,548.4c0.5,1.1,0.1,2.3-0.5,3.5c0.4-0.2,1.5-0.6,1.6-0.7c-0.3-0.1-0.6-0.3-0.5-0.5
							c0.5-0.5,1.1-1.1,1.5-1.5c0.6-0.3,1.4-0.5,2.1-0.9c0.4-0.5,0.7-1,1-1.5c0,0-0.1-0.6-0.3-0.7c0.3-0.3,0.6-0.5,0.9-0.8
							c0,0,0-0.2,0.1-0.7c0.1-0.4,0.1-1,0.1-1.5c-0.1-1.1-0.7-2-1.2-2.3c-0.6-0.3-1-0.8-1.5-1.4c0,0-0.3,1.5-0.6,2
							c0.1,0,0.5-0.1,0.5-0.2c0,0.1-0.6,0.5-0.8,0.6c0,0.1-0.9,1.1-0.9,1.2c-0.1,0.1,0.3,0.1,0.6,0.3c-0.7,0.2-1.4,0.4-1.9,0.7
							l-0.4,0.3c-0.1-0.1-0.2-0.1-0.2-0.1c0.1-0.1,0.1-0.2,0.2-0.3c-0.2,0.2-1.3,1-1.6,1.3c0.3-0.2,0.7-0.3,1.1-0.4
							c-0.3,0.2-0.6,0.5-0.9,0.7l0,0c-0.1,1,0,1.9,0.1,3C546.3,548.6,547.2,548.1,547.4,548.4z"/>
						<path class="st7" d="M541,515.1c-0.7-0.6-1.9-1.2-2.7-1.5c-0.6-0.2-0.8-0.2-0.8-0.2c-0.1,0-0.1,0-0.3,0.1
							c0.4-0.2,1-0.2,1.4-0.3c0.5,0,1,0,1.5,0.1c1,0.1,1.9,0.4,2.8,0.7c0.9,0.3,1.8,0.7,2.7,1.1c0.5,0.2,0.9,0.4,1.4,0.9
							c0.5,0.4,0.8,0.7,1.1,1.1c-0.3-0.1-0.5-0.3-0.8-0.4c-0.1-0.1-0.3-0.2-0.4-0.3c-0.2-0.1-0.3-0.2-0.5-0.3
							c-0.6-0.3-1.2-0.5-1.7-0.4c0,0.1,0.2,0.3,0.3,0.4c-0.9-0.3-2.4-0.9-2.5-0.7c-0.1,0.2,0.1,0.5,0.1,0.8l-0.3-0.2
							C542.1,515.6,541.6,515.4,541,515.1z"/>
						<path class="st7" d="M545.6,519.3c-0.2-0.3-0.4-0.6-0.7-1c0-0.1-0.3-0.4-0.6-0.6c0-0.1,0.1-0.1,0.1-0.2
							c0.2,0.1,0.3,0.3,0.5,0.4c0.2,0.2,0.1,0.2,0.3,0.4c0.3,0.4,0.6,0.7,0.8,1.1C545.8,519.4,545.7,519.3,545.6,519.3z"/>
						<path class="st7" d="M545.1,516c-0.1-0.1-0.3-0.4-0.3-0.4c0.5,0,1.1,0.1,1.7,0.4c0.2,0.1,0.3,0.2,0.5,0.3
							c0.1,0.1,0.3,0.2,0.4,0.3c0.3,0.2,0.5,0.3,0.8,0.4c1.1,1.1,2,2.4,2.8,3.6c-0.2-0.2-0.5-0.3-0.7-0.5c0.5,0.7-0.2,1.2,0.2,1.9
							c-1-0.7-1.9-1.8-2.9-2.7c-0.5-0.4-0.9-0.8-1.4-1.1c-0.2-0.2-0.5-0.3-0.7-0.4c-0.2-0.1-0.3-0.1-0.6-0.1
							c-0.6-0.5-1.5-1.1-2.3-1.7c0-0.3-0.2-0.6-0.1-0.8C542.7,515,544.1,515.7,545.1,516z"/>
						<path class="st7" d="M550.5,522.1c-0.4-0.7,0.3-1.3-0.2-1.9c0.2,0.2,0.5,0.3,0.7,0.5c0.5,0.7,0.9,1.4,1.4,2
							c0.5,0.7,0.9,1.1,1.5,2.2c0.1,0.1,0.1,0.3,0.2,0.4c0.5,1.5,0.9,2.6,1,3.9c-0.8-0.8-1.5-1.5-2.3-2.1c0.2-0.8,0.2-1.8-0.1-2.7
							c-0.2-0.8-0.5-1.6-0.8-2.4c0.2,0.6-0.4,0.8-0.4,1.1c0,1.3-0.7,3.2-1.6,3c-0.7-1.1-1.4-2.3-1.9-3.3c-0.6-1.1-1.1-2.1-1.7-3
							c0-0.2,0.1-0.5,0-0.6c-0.4-0.5-0.9-1.1-1.1-1.3c0.2,0,0.3,0,0.6,0.1c0.2,0.1,0.5,0.2,0.7,0.4c0.5,0.3,0.9,0.7,1.4,1.1
							C548.6,520.2,549.5,521.3,550.5,522.1z"/>
						<path class="st7" d="M552.7,527c0.8,0.6,1.5,1.3,2.3,2.1c0,0.3,0,0.7,0,1c0.1,0,0.3,0,0.4-0.2l0.1,0.7c-0.1,0.3-0.5,0.6,0.1,1
							l0.1,1c-0.2,0.4-0.4,0.6-0.8,0.8l0.5,0c0.3,0.3,0,0.7,0,1c0.1,0,0.2,0,0.3,0c-0.2,0.8-0.2,1.7-0.2,2.4c0,0.8,0.1,1.5,0.1,1.7
							c-0.1,0.2-0.2,0.5-0.3,0.7c-1.2-0.9-2.3-1.9-3-3.3c0,0-0.5,0-0.7-0.2c-0.2-0.3-0.4-0.6-0.6-0.9c0.4-0.8,0.4-1.8,0.3-2.5
							c-0.1-0.7-0.4-1.3-0.4-1.3l-0.1-0.7c0-0.6,0.1-1.5,0.1-2.3c-0.1-0.8-0.4-1.6-1-1.8l-0.1-0.1l-0.2-0.2c0.9,0.1,1.6-1.7,1.6-3
							c-0.1-0.3,0-1.6,0.4-1.1c0.2,0.4,0.4,0.9,0.6,1.5c0.1,0.3,0.2,0.5,0.2,0.8c0.1,0.2,0.2,0.6,0.2,0.9
							C552.9,526.3,552.6,527.1,552.7,527z"/>
						<path class="st7" d="M524.3,550.8c-0.4-0.3-0.9-0.7-1.2-1.1c0.3,0.5,0.8,0.9,1.1,1c0.2,0.2,0.5,0.3,0.7,0.4
							C524.7,551,524.5,550.9,524.3,550.8z"/>
						<path class="st7" d="M525.4,550.9c0.1,0.1,0.3,0.1,0.4,0.1c0,0.1-0.4,0-0.6-0.1c0,0.1,0.3,0.1,0.3,0.1c0,0.1-0.2,0-0.4-0.1
							c0.1-0.1,0.3-0.1,0.6-0.1l0.3,0.1C525.8,551,525.5,550.9,525.4,550.9z"/>
						<path class="st7" d="M530.4,552.1c0.4,0.1,0.7,0.2,1.2,0.4c-0.5,0.4-1.1,0.7-1.6,0.9c-1.4-0.5-2.7-1.1-4-1.7
							c0.2,0.1,0.5,0.2,0.7,0.2c-0.3-0.1-0.6-0.2-0.8-0.4c0.1,0,0.1,0,0.2,0l0,0c0.2,0.1,0.4,0.2,0.4,0c0,0-0.3-0.1-0.3-0.1
							c0.3,0.1,0.6,0.2,0.6,0.1l-0.4-0.1c0.1,0,0.4,0,0.6,0c1.3,0.3,2.7,0.6,3.8,0.5C530.6,552,530.5,552.1,530.4,552.1z"/>
					</g>
				</g>
			</g>
		</g>
		<g class="st76">
			<g>
				<g class="st77">
					<g class="st77">
						<path class="st7" d="M520.7,523.4c0.7-1,1.5-1.8,2.3-2.6c-0.1,0.3-0.2,0.5-0.3,0.8C522.4,522.3,521.3,522.6,520.7,523.4z"/>
						<path class="st7" d="M519,526.2L519,526.2c0.4-0.9,0.9-1.7,1.4-2.5c0,0.1-0.1,0.1-0.1,0.2C520,524.8,519.8,525.6,519,526.2z"
							/>
						<path class="st7" d="M523.8,538.7c-1.4,0.1-2.9-0.6-4.2-2c-0.1-0.1-0.3-0.2-0.3-0.3c0,0-0.1-0.1-0.2-0.4
							c-0.1-0.2-0.3-0.6-0.4-0.9c0.8,0.1,1.7,0.2,2.6,0.3c0.1-0.3,0.1-0.9,0.4-1c1.2-0.2,2.1,0.1,2.9,0.8c0,0.1,0,0.3-0.1,0.8
							c0,0.2-0.1,0.5-0.2,0.8c0,0.1-0.1,0.3-0.1,0.4l-0.1,0.1C523.7,537.6,523.7,538.3,523.8,538.7z"/>
						<path class="st7" d="M524.8,540.8c0.4,0.6,1,1.6,1.3,1.9c-0.4,0.1-0.8,0.2-1.3,0.3c0.1,0.3,0.2,0.5,0.4,0.7l-0.3,0
							c-1.3-0.6-2.7-1.4-3.9-2.6c0.2,0,1,0,1.8,0C523.7,541.1,524.5,541,524.8,540.8z"/>
						<path class="st7" d="M523.7,539.2c0.1,0.2,0.3,0.3,0.5,0.5c0.2,0.4,0.4,0.8,0.6,1.2c-0.8,0.3-1.7,0.5-2.7,0.4
							c0.1,0.1-0.1,0.4-0.1,0.4c-0.5-0.2-0.7-0.6-1.1-0.5c-0.3-0.3-0.5-0.6-0.8-1c-0.2-0.4-0.5-0.8-0.6-1.2
							c-0.1-0.4-0.3-0.9-0.3-1.4c-0.1-0.4-0.1-1.2-0.1-1.1c0.1,0,0.1,0,0.2,0.1c0,0,0,0,0,0c0,0.1,0,0.1,0,0.2c0,0.2,0,0.4,0,0.6
							c0.3-0.2,0.3-0.5,0.3-0.8c1.3,1.4,2.8,2.1,4.2,2l0.1,0.2C523.8,539,523.6,539.1,523.7,539.2z"/>
						<path class="st7" d="M521.1,526.1c0.3,1.1,1.2,2.1,2.3,2.8c-0.2,0.1-0.5,0.4-0.3,0.7c-0.1,0.3-0.2,0.5-0.3,1.1
							c0,0-0.1,0.3-0.1,0.4c0,0,0,0.1-0.1,0.1l0,0l0,0c0,0,0,0,0,0c0,0,0.1,0.1,0.2,0.1c0.2,0-0.3,0-0.8-0.3c-0.2-0.5-0.5-0.8-0.8-1
							c-0.3-0.3-0.6-0.5-0.8-0.7c-0.6-0.2-1.1-0.7-1.4-1.2c0.1-0.1,0.4,0.1,0.5,0c-0.1,0-0.4-0.4-0.4-0.4s0.4-1,0.6-1.4
							c0.7,0.1,0.5-0.7,0.4-0.8c0.1-0.1,0.1-0.3,0.2-0.4l0,0c0.1,0.3,0.2,0.5,0.3,0.8C520.7,525.9,521.1,526.1,521.1,526.1z"/>
						<path class="st7" d="M521.7,534.4c1.2-0.2,2.1,0.1,2.9,0.8c0-0.3,0.1-1.1,0.1-1.2c-0.2,0.2-0.5,0.4-0.6,0.2
							c-0.2-0.4-0.5-0.8-0.6-1.1c0-0.4,0.3-0.8,0.4-1.2c-0.2-0.2-0.3-0.4-0.4-0.5c0,0-0.5,0-0.7,0c0-0.1,0.1-0.2,0.2-0.2
							c0,0-0.1,0-0.3-0.1c-0.1,0-0.2-0.1-0.3-0.1c0-0.1-0.1,0-0.2-0.2c0-0.1,0-0.3-0.1-0.4c-0.2-0.3-0.5-0.6-0.8-0.8
							c-0.3-0.2-0.6-0.4-0.9-0.5c-0.6-0.2-1.1-0.7-1.4-1.2c0,0,0,0.1-0.1,0.2c0,0.1-0.1,0.3-0.2,0.5c-0.1,0.4-0.2,0.9-0.3,1.1
							c0.1,0,0.4-0.1,0.5-0.2c0,0-0.1,0.2-0.3,0.3l-0.1,0l0,0l0,0c0,0,0,0,0,0l0.2,0c0.1,0,0.1,0,0.1,0c0.2,0,0.5,0.1,0.7,0.1
							c0.2,0.1,0.4,0.1,0.6,0.2l0.1,0.1l0.1,0l0,0l0,0l0,0l-1.9-0.7l0,0l0,0l0,0c0,0.1-0.1,0.1-0.1,0.2c-0.1,0.3-0.2,0.9-0.2,1.3
							c0,0.4,0,0.8,0.1,0.8c0,0.1,0.3-0.2,0.7-0.2c-0.4,0.6-0.6,1.2-0.6,1.7l0.1,0.4c-0.1,0.1-0.2,0.1-0.2,0.1
							c-0.1-0.1-0.1-0.1-0.2-0.2c0.1,0.3,0.3,1.2,0.3,1.4c0-0.2,0.1-0.5,0.2-0.8l0.2,0.7l0,0c0.8,0.1,1.7,0.2,2.6,0.3
							C521.4,535,521.4,534.4,521.7,534.4z"/>
						<path class="st7" d="M535.1,520c0.3,0.2,0.6,0.4,0.9,0.6c0.3,0.2,0.6,0.4,0.7,0.6c0.2,0.3,0.3,0.4,0.3,0.4c0,0,0,0.1,0.2,0.1
							c-1.1-0.3-2-0.2-3,0c-1,0.2-1.9,0.4-2.9,0.6c0.4-0.6,1.3-0.6,1.7-1.2c0-0.1-0.2-0.1-0.3-0.2c0.5-0.3,1.4-0.3,1.5-0.6
							c0-0.2-0.2-0.4-0.2-0.7l0.2,0.1C534.3,519.8,534.7,519.9,535.1,520z"/>
						<path class="st7" d="M530.7,518.8c0.5,0,1.1,0,1.7,0.1c0,0.1,0,0.2,0.1,0.2c-0.6-0.1-1.3-0.1-1.9-0.1
							C530.6,519,530.7,518.9,530.7,518.8z"/>
						<path class="st7" d="M532.7,520.9c0.1,0.1,0.3,0.1,0.3,0.2c-0.4,0.6-1.3,0.6-1.7,1.2c-0.7,0.2-1.5,0.4-2.2,0.7
							c0.1-0.1,0.2-0.3,0.3-0.4c-0.4,0.2-0.7-0.7-1.1-0.5c1-1.3,2.8-1.8,3.8-2.7c0.6,0,1.3,0.1,1.9,0.3c0.1,0.3,0.2,0.5,0.2,0.7
							C534.1,520.6,533.2,520.6,532.7,520.9z"/>
						<path class="st7" d="M528.2,522c0.4-0.1,0.7,0.7,1.1,0.5c-0.1,0.1-0.2,0.3-0.3,0.4c-0.8,0.3-1.7,0.7-2.4,1c-0.1,0-0.1,0-0.2,0
							c-0.2,0-0.2,0.1-0.3,0.1c0,0-0.1,0,0,0l0,0l0,0l0,0l0-0.1c-0.1-0.1-0.2-0.3-0.3-0.4c-0.1-0.1-0.2-0.3-0.3-0.4l-0.2-0.2l0,0
							l0,0l0,0l0,0l0,0c2.1,2.1,0.6,0.6,1,1.1l0,0l-0.1,0.1c-0.2,0.2-0.4,0.4-0.6,0.6c-0.2-0.7-0.4-1.5-0.4-2.2
							c1.1,0.3,2.1,0.7,3.1,0.6c-0.4,0-0.5-0.7-0.7-0.7c-0.8-0.5-2-1.8-1.9-2.6c1.5-0.5,3-0.8,4.5-0.8c0.1,0.1,0.3,0.3,0.4,0.3
							c0.4-0.1,0.8-0.1,1.3-0.1C531,520.2,529.3,520.7,528.2,522z"/>
						<path class="st7" d="M525.2,522.6c0,0.7,0.2,1.5,0.4,2.2c-0.1,0.1-0.2,0.2-0.4,0.3c0.1,0.1,0.2,0.2,0.3,0.2l-0.2,0.3
							c-0.1,0.1-0.6-0.2-0.2,0.4c-0.1,0.1-0.2,0.3-0.3,0.4c-0.2,0-0.5,0-0.9-0.1l0.4,0.3c0.2,0.3-0.2,0.3-0.2,0.4
							c0.1,0,0.2,0.1,0.3,0.2c-0.7,0.4-0.7,1.5-0.7,1.6c-0.1,0.1-0.2,0.1-0.3,0.2c-1.1-0.7-2-1.6-2.3-2.8c0,0-0.4-0.2-0.5-0.4
							c-0.1-0.3-0.2-0.5-0.3-0.8c0.7-0.3,1-0.8,1.2-1.3c0.2-0.5,0.3-0.9,0.3-0.9l0.3-0.4c0.3-0.3,0.9-0.6,1.4-0.9l0.2-0.1
							c0.1-0.1,0.3-0.2,0.4-0.3c0.2-0.1,0.2-0.1,0.3-0.2c0.1,0,0.2-0.1,0.2-0.1c0.3-0.2,0.5-0.4,0.7-0.7l0.4-0.1
							c-0.1,0.7,1.1,2.1,1.9,2.6c0.2,0.1,0.9,0.6,0.7,0.7c-0.5,0.1-1.3,0-1.9-0.2C525.7,522.8,525.2,522.6,525.2,522.6z"/>
						<path class="st7" d="M528.9,544.9c0.3,0.1,0.6,0.3,0.9,0.4C529.4,545.2,529.1,545,528.9,544.9c-0.1,0-0.2-0.1-0.4-0.1
							C528.6,544.8,528.7,544.9,528.9,544.9z"/>
						<path class="st7" d="M528.1,545l-0.3-0.1c0-0.1,0.2-0.1,0.4,0c0-0.1-0.2-0.1-0.2-0.1c0-0.1,0.1,0,0.3,0
							c-0.1,0.1-0.2,0.2-0.4,0.2l-0.2,0C527.9,545,528.1,545.1,528.1,545z"/>
						<path class="st7" d="M525.2,543.8c-0.2-0.2-0.3-0.4-0.4-0.7c0.5-0.1,0.9-0.2,1.3-0.3c0.5,0.6,1.2,1.2,1.8,1.6
							c-0.1-0.1-0.3-0.1-0.4-0.1c0.2,0.1,0.3,0.2,0.4,0.3c0,0-0.1,0-0.1,0l0,0c-0.1-0.1-0.2-0.1-0.3,0c0,0,0.2,0,0.2,0.1
							c-0.2-0.1-0.4-0.1-0.4,0l0.3,0.1c-0.1,0-0.2,0-0.4,0c-0.8-0.2-1.5-0.5-2.3-0.9L525.2,543.8z"/>
					</g>
				</g>
			</g>
		</g>
		<g class="st78">
			
				<linearGradient id="SVGID_00000096050360122391617550000003145566294782855813_" gradientUnits="userSpaceOnUse" x1="-646.138" y1="-1876.7128" x2="-644.3469" y2="-1902.665" gradientTransform="matrix(-0.2519 0.9677 -0.9677 -0.2519 -1474.3926 673.5834)">
				<stop  offset="3.863114e-02" style="stop-color:#FFFFFF;stop-opacity:0"/>
				<stop  offset="0.2498" style="stop-color:#FFFFFF"/>
				<stop  offset="0.3159" style="stop-color:#E1E0E0;stop-opacity:0.9119"/>
				<stop  offset="0.4518" style="stop-color:#A8A6A6;stop-opacity:0.7307"/>
				<stop  offset="0.5833" style="stop-color:#787676;stop-opacity:0.5554"/>
				<stop  offset="0.7072" style="stop-color:#535051;stop-opacity:0.3904"/>
				<stop  offset="0.8214" style="stop-color:#393536;stop-opacity:0.2381"/>
				<stop  offset="0.9225" style="stop-color:#292526;stop-opacity:0.1033"/>
				<stop  offset="1" style="stop-color:#231F20;stop-opacity:0"/>
			</linearGradient>
			<path style="fill:url(#SVGID_00000096050360122391617550000003145566294782855813_);" d="M526.7,512.9c-1.6,0.3-6.5,2.2-9.2,5
				c-2.9,3-4.9,8.6-5.3,14.1c-0.1,1.1,0.4,6.4,1.4,7.8c2.1,3.2,1.5-4.6,1.7-8.1c0.4-7,2.9-9.7,4.5-11.2
				C523.3,517.2,532.1,511.8,526.7,512.9z"/>
		</g>
		<g class="st78">
			
				<linearGradient id="SVGID_00000181045992370620288320000004933172336092881565_" gradientUnits="userSpaceOnUse" x1="-259.4706" y1="-1716.9165" x2="-258.0793" y2="-1737.0762" gradientTransform="matrix(-4.612837e-02 0.9989 -0.9989 -4.612837e-02 -1214.7332 709.5435)">
				<stop  offset="3.863114e-02" style="stop-color:#FFFFFF;stop-opacity:0"/>
				<stop  offset="0.2413" style="stop-color:#FFFFFF"/>
				<stop  offset="0.2914" style="stop-color:#E1E0E0;stop-opacity:0.9119"/>
				<stop  offset="0.3944" style="stop-color:#A8A6A6;stop-opacity:0.7307"/>
				<stop  offset="0.4941" style="stop-color:#787676;stop-opacity:0.5554"/>
				<stop  offset="0.5879" style="stop-color:#535051;stop-opacity:0.3904"/>
				<stop  offset="0.6744" style="stop-color:#393536;stop-opacity:0.2381"/>
				<stop  offset="0.7511" style="stop-color:#292526;stop-opacity:0.1033"/>
				<stop  offset="0.8098" style="stop-color:#231F20;stop-opacity:0"/>
			</linearGradient>
			<path style="fill:url(#SVGID_00000181045992370620288320000004933172336092881565_);" d="M528,521.8c-1.6,0.1-3.2-0.2-5.6,2.8
				c-1.3,1.6-3.2,4.9-2.4,10.3c0.6,4.2,4.9,7.1,4.8,5.4c-0.1-2.1-2.6-3.1-3.1-6.6c-0.5-3.9,0.5-6.9,1.8-8.7
				C526.2,520.9,530.9,521.6,528,521.8z"/>
		</g>
		<path class="st81" d="M525,513.1c-7.1,2.2-10.1,6.7-11.6,11.1c-1.5,4.5-2.7,9.4-0.8,15.2c1.9,5.8,4.8,9.5,9.9,12.1
			c5.1,2.6,7.6,2.9,13,1.8s14.2-4.9,17-11.1s2.8-15.3-2.6-23C544.5,511.5,532.3,510.9,525,513.1z"/>
		<g class="st76">
			<g>
				<g class="st77">
					<g class="st77">
						<path class="st7" d="M542.4,539.7c0.3-0.4,0.6-0.8,0.8-1.3c0,0.1,0,0.3,0,0.4C543.2,539.2,542.7,539.4,542.4,539.7z"/>
						<path class="st7" d="M541.5,540.7L541.5,540.7c0.3-0.3,0.6-0.5,0.8-0.8c0,0,0,0,0,0.1C542.1,540.3,541.9,540.6,541.5,540.7z"
							/>
						<path class="st7" d="M536.2,546.4c0.4-0.8,0.5-1.6,0.6-2.5c0.1-0.1,0.2-0.3,0.3-0.3c0,0,0.6-0.5,1-0.7c0,0.4,0,0.9,0,1.4
							c0.2,0,0.5-0.1,0.6,0c0.2,0.6,0.1,1.1-0.1,1.5c-0.1,0-0.5,0.1-0.9,0.2C537.3,546,536.7,546.2,536.2,546.4z"/>
						<path class="st7" d="M534.3,546.5c-0.5,0-1.2-0.1-1.5-0.1c0.1-0.2,0.3-0.4,0.4-0.6c-0.2,0-0.3-0.1-0.5-0.1l0.1-0.1
							c0.8-0.3,1.5-0.6,2.4-0.9C535.2,544.9,534.5,546.1,534.3,546.5z"/>
						<path class="st7" d="M535.7,546.3l-0.2,0l-0.1,0l-0.2,0.1c-0.3,0-0.6,0-1,0c0.2-0.4,0.4-0.9,0.7-1.3c-0.1,0-0.1-0.1-0.2-0.1
							c0.2-0.2,0.4-0.2,0.5-0.4c0.3-0.1,0.4-0.2,0.7-0.4c0.3-0.2,0.6-0.5,0.9-0.7c-0.1,0.2-0.2,0.2-0.4,0.3c0.1,0.1,0.3,0.1,0.3,0
							c-0.2,0.9-0.2,1.7-0.6,2.5l-0.2,0C535.9,546.3,535.9,546.3,535.7,546.3z"/>
						<path class="st7" d="M542.4,541.1c0,0.6,0.1,1.2,0.2,1.9c-0.2,0-0.5,0.1-0.6,0.3c-0.3,0.2-1.1,0.5-1.1,0.7
							c0,0.3,0.3-1.2,0.2-1.8c-0.2-0.3-0.2-0.6-0.1-0.9c0.1,0,0.1,0.2,0.2,0.2c0,0-0.1-0.3-0.1-0.3s0.4-0.3,0.5-0.4
							c0.3,0.2,0.3-0.2,0.3-0.3l0.1-0.1l0,0c0,0.1,0,0.3,0,0.4C542.2,540.9,542.4,541.1,542.4,541.1z"/>
						<path class="st7" d="M538.7,544.2c0.2,0.6,0.1,1.1-0.1,1.5c0.1,0,0.5-0.1,0.5-0.1c-0.1-0.1-0.2-0.2-0.2-0.3
							c0.2-0.2,0.4-0.4,0.5-0.4c0.2-0.1,0.5,0,0.8,0c0.1-0.1,0.3-0.3,0.4-0.4c0,0,0-0.3-0.1-0.3c0.1-0.1,0.2-0.1,0.4-0.1
							c0,0,0.5-1.3,0.2-1.8c-0.2-0.3-0.2-0.6-0.1-0.9c0,0-0.5,0.3-0.7,0.4c0,0,0.2,0.1,0.2,0.1c0,0-0.4,0-0.5,0
							c-0.2,0.1-0.5,0.3-0.6,0.3c0,0,0.1,0.1,0.2,0.3c-0.3-0.1-0.6-0.1-0.8,0l-0.2,0.1c0,0-0.1-0.1-0.1-0.1c0,0,0.1-0.1,0.1-0.1
							c-0.1,0.1-0.6,0.3-0.7,0.3c0.1,0,0.3,0,0.5,0c-0.1,0.1-0.3,0.1-0.4,0.2l0,0c0,0.4,0,0.9,0,1.4
							C538.3,544.2,538.6,544.1,538.7,544.2z"/>
						<path class="st7" d="M545.9,533.1c0.2-0.3,0.4-0.7,0.5-1c0.2-0.4,0.1-0.2,0.1-0.4c0.3,1.3,0.1,2.6-0.1,3.9
							c-0.2-0.4,0-0.9-0.2-1.2c0,0-0.1,0.1-0.1,0.1c-0.1-0.3,0-0.9-0.1-0.9c-0.1,0-0.2,0.1-0.4,0.1l0-0.1
							C545.8,533.5,545.8,533.3,545.9,533.1z"/>
						<path class="st7" d="M544.8,535.2c0.1-0.3,0.2-0.5,0.3-0.8c0,0,0.1,0,0.1,0c-0.1,0.3-0.3,0.6-0.4,1
							C544.9,535.3,544.9,535.3,544.8,535.2z"/>
						<path class="st7" d="M546.1,534.5c0.1,0,0.1-0.1,0.1-0.1c0.2,0.3,0.1,0.9,0.2,1.2c-0.1,0.5-0.2,1-0.3,1.5
							c0-0.1-0.1-0.2-0.1-0.3c-0.1,0.3-0.5,0.2-0.6,0.5c-0.2-0.9,0-2-0.3-2.6c0.1-0.3,0.2-0.7,0.4-1c0.1,0,0.3-0.1,0.4-0.1
							C546.2,533.6,546.1,534.2,546.1,534.5z"/>
						<path class="st7" d="M545.6,537.3c0.1-0.3,0.5-0.2,0.6-0.5c0,0.1,0.1,0.2,0.1,0.3c-0.1,0.6-0.3,1.2-0.5,1.7c0,0,0,0.1-0.1,0.1
							c-0.2,0.4-0.4,0.8-0.6,1.1c-0.1-0.4-0.3-0.8-0.4-1.2c0.6-0.3,1.1-0.7,1.5-1.3c-0.1,0.2-0.4,0-0.5,0.1
							c-0.5,0.3-1.4,0.2-1.6-0.1c0.3-0.7,0.6-1.5,0.9-2.2c0.1,0,0.2-0.1,0.2-0.1c0.1-0.2,0.1-0.5,0.2-0.7
							C545.6,535.3,545.4,536.4,545.6,537.3z"/>
						<path class="st7" d="M544.6,538.9c0.1,0.4,0.3,0.8,0.4,1.2c-0.1,0.1-0.1,0.2-0.2,0.3c0.1,0,0.1,0.1,0.2,0.1l-0.1,0.2
							c-0.1,0.1-0.3,0-0.2,0.3l-0.2,0.3c-0.1,0-0.3,0-0.5,0l0.2,0.2c0,0.2-0.2,0.2-0.2,0.3c0,0,0.1,0.1,0.1,0.1
							c-0.5,0.3-1,1-1.1,1.1c-0.1,0-0.2,0-0.3,0.1c-0.2-0.7-0.3-1.3-0.2-1.9c0,0-0.2-0.2-0.2-0.3c0-0.1,0-0.3,0-0.4
							c0.3-0.1,0.5-0.3,0.6-0.5c0.1-0.2,0.1-0.4,0.1-0.4l0.1-0.2c0.3-0.3,1-0.7,0.8-1.4l0.1-0.2c0.2,0.3,1.1,0.3,1.6,0.1
							c0.1-0.1,0.6-0.3,0.5-0.1c-0.1,0.3-0.5,0.7-0.8,0.9C544.9,538.8,544.6,538.9,544.6,538.9z"/>
						<path class="st7" d="M530.7,546.3c-0.2,0-0.4,0-0.5-0.1C530.3,546.4,530.5,546.3,530.7,546.3c0,0,0.1,0,0.3,0
							C530.9,546.3,530.8,546.3,530.7,546.3z"/>
						<path class="st7" d="M531,546.1l0.2,0C531.2,546.1,531.1,546.2,531,546.1C531,546.2,531.1,546.1,531,546.1
							c0.1,0.1,0,0.1-0.1,0.1C530.9,546.2,531,546.1,531,546.1l0.2-0.1C531.1,546,531.1,546.1,531,546.1z"/>
						<path class="st7" d="M532.8,545.7c0.2,0,0.3,0,0.5,0.1c-0.2,0.2-0.3,0.4-0.4,0.6c-0.5,0-1,0-1.5,0c0.1,0,0.2,0,0.2-0.1
							c-0.1,0-0.2,0-0.3,0c0,0,0,0,0,0v0c0.1,0,0.1,0,0.1-0.1c0,0-0.1,0-0.1,0c0.1,0,0.2-0.1,0.2-0.1l-0.2,0c0,0,0.1-0.1,0.2-0.1
							c0.5-0.1,0.9-0.3,1.3-0.4L532.8,545.7z"/>
					</g>
				</g>
			</g>
		</g>
		<path class="st82" d="M538,526v15.4h-4.2V535h-1.3v6.5h-4.2V526h4.2v5.5h1.3V526H538z"/>
	</g>
	<line class="st74" x1="377.6" y1="520" x2="377.6" y2="540.7"/>
	<line class="st83" x1="377.2" y1="530.3" x2="491.2" y2="530.3"/>
	<g>
		<path d="M651.6,185.6h7v1.2H653v3.9h5.2v1.2H653v4h5.7v1.2h-7.1V185.6z"/>
		<path d="M662.3,197.2H661v-8.7h1.3v1.4h0.1c0.4-0.9,1.2-1.5,2.5-1.5c1.8,0,3,1.1,3,3.3v5.5h-1.3v-5.4c0-1.4-0.8-2.2-2-2.2
			c-1.3,0-2.2,0.9-2.2,2.4V197.2z"/>
		<path d="M669.9,192.9c0-2.7,1.5-4.5,3.7-4.5c1.7,0,2.2,1,2.5,1.5h0.1v-4.3h1.3v11.6h-1.3v-1.3h-0.2c-0.3,0.5-0.9,1.5-2.5,1.5
			C671.5,197.4,669.9,195.7,669.9,192.9z M676.3,192.9c0-2-0.9-3.3-2.5-3.3c-1.7,0-2.5,1.4-2.5,3.3c0,1.9,0.9,3.3,2.5,3.3
			C675.4,196.2,676.3,194.8,676.3,192.9z"/>
		<path d="M679.9,192.9c0-2.7,1.6-4.5,4-4.5s4,1.8,4,4.5c0,2.7-1.6,4.5-4,4.5S679.9,195.6,679.9,192.9z M686.4,192.9
			c0-1.7-0.8-3.3-2.6-3.3c-1.8,0-2.6,1.6-2.6,3.3c0,1.7,0.8,3.3,2.6,3.3C685.6,196.2,686.4,194.7,686.4,192.9z"/>
		<path d="M693.6,189.6h-1.9v5.1c0,1.1,0.6,1.3,1.2,1.3c0.3,0,0.5,0,0.6-0.1l0.3,1.2c-0.2,0.1-0.5,0.2-1,0.2c-1.1,0-2.4-0.7-2.4-2.2
			v-5.4h-1.3v-1.1h1.3v-2.1h1.3v2.1h1.9V189.6z"/>
		<path d="M697.2,197.2h-1.3v-11.6h1.3v4.3h0.1c0.4-0.9,1.2-1.5,2.6-1.5c1.8,0,3,1,3,3.3v5.5h-1.3v-5.4c0-1.4-0.8-2.2-2-2.2
			c-1.3,0-2.3,0.9-2.3,2.4V197.2z"/>
		<path d="M704.9,192.9c0-2.7,1.6-4.5,3.9-4.5c1.8,0,3.7,1.1,3.7,4.4v0.6h-6.3c0.1,1.9,1.1,2.9,2.7,2.9c1,0,1.8-0.5,2.2-1.4l1.3,0.4
			c-0.4,1.3-1.7,2.2-3.5,2.2C706.4,197.4,704.9,195.6,704.9,192.9z M711.2,192.2c0-1.5-0.9-2.6-2.4-2.6c-1.5,0-2.5,1.2-2.6,2.6
			H711.2z"/>
		<path d="M715.9,197.2h-1.3v-11.6h1.3V197.2z"/>
		<path d="M718.1,186.1c0-0.5,0.4-0.9,1-0.9s1,0.4,1,0.9s-0.4,0.9-1,0.9S718.1,186.6,718.1,186.1z M718.4,188.5h1.3v8.7h-1.3V188.5z
			"/>
		<path d="M727.7,188.5h1.3v8.7h-1.3v-1.5h-0.1c-0.4,0.9-1.3,1.6-2.6,1.6c-1.6,0-2.8-1.1-2.8-3.3v-5.5h1.3v5.4
			c0,1.3,0.8,2.1,1.9,2.1c1,0,2.2-0.7,2.2-2.4V188.5z"/>
		<path d="M731.5,188.5h1.3v1.4h0.1c0.4-0.9,1.2-1.5,2.3-1.5c1.1,0,1.9,0.5,2.3,1.5h0.1c0.4-0.9,1.4-1.5,2.6-1.5
			c1.6,0,2.7,0.9,2.7,3v5.8h-1.3v-5.8c0-1.3-0.8-1.8-1.8-1.8c-1.2,0-1.9,0.8-1.9,2v5.7h-1.4v-6c0-1-0.7-1.7-1.7-1.7
			c-1,0-2,0.9-2,2.2v5.4h-1.3V188.5z"/>
		<path d="M749.5,192.9c0-2.7,1.6-4.5,4-4.5s4,1.8,4,4.5c0,2.7-1.6,4.5-4,4.5S749.5,195.6,749.5,192.9z M756.1,192.9
			c0-1.7-0.8-3.3-2.6-3.3c-1.8,0-2.6,1.6-2.6,3.3c0,1.7,0.8,3.3,2.6,3.3C755.2,196.2,756.1,194.7,756.1,192.9z"/>
		<path d="M763.3,189.6h-2v7.6H760v-7.6h-1.4v-1.1h1.4v-1.2c0-1.5,1.2-2.2,2.5-2.2c0.7,0,1.1,0.1,1.3,0.2l-0.4,1.2
			c-0.1,0-0.4-0.1-0.8-0.1c-0.9,0-1.2,0.5-1.2,1.3v0.9h2V189.6z"/>
		<path d="M651.4,207.7h1.3v1.4h0.2c0.3-0.5,0.8-1.5,2.5-1.5c2.2,0,3.7,1.7,3.7,4.5c0,2.8-1.5,4.5-3.7,4.5c-1.7,0-2.2-1-2.5-1.5
			h-0.1v4.6h-1.3V207.7z M655.2,215.4c1.7,0,2.5-1.5,2.5-3.3c0-1.8-0.8-3.3-2.5-3.3c-1.6,0-2.5,1.3-2.5,3.3
			C652.7,214,653.6,215.4,655.2,215.4z"/>
		<path d="M660.8,212.1c0-2.7,1.6-4.5,3.9-4.5c1.8,0,3.7,1.1,3.7,4.4v0.6h-6.3c0.1,1.9,1.1,2.9,2.7,2.9c1,0,1.8-0.5,2.2-1.4l1.3,0.4
			c-0.4,1.3-1.7,2.2-3.5,2.2C662.3,216.6,660.8,214.8,660.8,212.1z M667.1,211.4c0-1.5-0.9-2.6-2.4-2.6c-1.5,0-2.5,1.2-2.6,2.6
			H667.1z"/>
		<path d="M670.5,207.7h1.3v1.3h0.1c0.3-0.9,1.2-1.5,2.3-1.5c0.2,0,0.6,0,0.7,0v1.4c-0.1,0-0.5-0.1-0.8-0.1c-1.3,0-2.2,0.9-2.2,2
			v5.5h-1.3V207.7z"/>
		<path d="M676.2,205.3c0-0.5,0.4-0.9,1-0.9s1,0.4,1,0.9s-0.4,0.9-1,0.9S676.2,205.8,676.2,205.3z M676.4,207.7h1.3v8.7h-1.3V207.7z
			"/>
		<path d="M684,208.8h-1.9v5.1c0,1.1,0.6,1.3,1.2,1.3c0.3,0,0.5,0,0.6-0.1l0.3,1.2c-0.2,0.1-0.5,0.2-1,0.2c-1.1,0-2.4-0.7-2.4-2.2
			v-5.4h-1.3v-1.1h1.3v-2.1h1.3v2.1h1.9V208.8z"/>
		<path d="M691.6,207.7h1.3v8.7h-1.3v-1.5h-0.1c-0.4,0.9-1.3,1.6-2.6,1.6c-1.6,0-2.8-1.1-2.8-3.3v-5.5h1.3v5.4
			c0,1.3,0.8,2.1,1.9,2.1c1,0,2.2-0.7,2.2-2.4V207.7z"/>
		<path d="M695.5,204.8h1.3v4.3h0.1c0.3-0.5,0.8-1.5,2.5-1.5c2.2,0,3.7,1.7,3.7,4.5c0,2.8-1.5,4.5-3.7,4.5c-1.7,0-2.2-1-2.5-1.5
			h-0.2v1.3h-1.3V204.8z M699.4,215.4c1.7,0,2.5-1.5,2.5-3.3c0-1.8-0.8-3.3-2.5-3.3c-1.6,0-2.5,1.3-2.5,3.3
			C696.9,214,697.7,215.4,699.4,215.4z"/>
		<path d="M710.8,207.7h1.3v8.7h-1.3v-1.5h-0.1c-0.4,0.9-1.3,1.6-2.6,1.6c-1.6,0-2.8-1.1-2.8-3.3v-5.5h1.3v5.4
			c0,1.3,0.8,2.1,1.9,2.1c1,0,2.2-0.7,2.2-2.4V207.7z"/>
		<path d="M715.9,216.4h-1.3v-11.6h1.3V216.4z"/>
		<path d="M718,213.9c0-2,1.8-2.4,3.4-2.6c1.6-0.2,2.2-0.1,2.2-0.8v0c0-1.1-0.6-1.8-1.8-1.8c-1.3,0-2,0.7-2.3,1.3l-1.3-0.5
			c0.7-1.6,2.2-2,3.5-2c1.1,0,3.2,0.3,3.2,3.1v5.7h-1.3v-1.2h-0.1c-0.3,0.6-1.1,1.4-2.6,1.4C719.3,216.6,718,215.7,718,213.9z
			 M723.6,213.3V212c-0.2,0.3-1.7,0.4-2.3,0.5c-1,0.1-2,0.5-2,1.5c0,0.9,0.8,1.4,1.8,1.4C722.7,215.4,723.6,214.4,723.6,213.3z"/>
		<path d="M727.4,207.7h1.3v1.3h0.1c0.3-0.9,1.2-1.5,2.3-1.5c0.2,0,0.5,0,0.7,0v1.4c-0.1,0-0.5-0.1-0.8-0.1c-1.3,0-2.2,0.9-2.2,2
			v5.5h-1.3V207.7z"/>
		<path d="M737.4,212.1c0-2.7,1.6-4.5,3.9-4.5c1.8,0,3.2,1.1,3.5,2.7h-1.3c-0.2-0.8-0.9-1.5-2.1-1.5c-1.6,0-2.6,1.3-2.6,3.3
			c0,2,1,3.3,2.6,3.3c1,0,1.8-0.6,2.1-1.5h1.3c-0.2,1.5-1.5,2.7-3.4,2.7C738.9,216.6,737.4,214.7,737.4,212.1z"/>
		<path d="M746.4,213.9c0-2,1.8-2.4,3.4-2.6c1.6-0.2,2.2-0.1,2.2-0.8v0c0-1.1-0.6-1.8-1.8-1.8c-1.3,0-2,0.7-2.3,1.3l-1.3-0.5
			c0.7-1.6,2.2-2,3.5-2c1.1,0,3.2,0.3,3.2,3.1v5.7H752v-1.2h-0.1c-0.3,0.6-1.1,1.4-2.6,1.4C747.7,216.6,746.4,215.7,746.4,213.9z
			 M752,213.3V212c-0.2,0.3-1.7,0.4-2.3,0.5c-1,0.1-2,0.5-2,1.5c0,0.9,0.8,1.4,1.8,1.4C751.1,215.4,752,214.4,752,213.3z"/>
		<path d="M755.8,207.7h1.3v1.4h0.2c0.3-0.5,0.8-1.5,2.5-1.5c2.2,0,3.7,1.7,3.7,4.5c0,2.8-1.5,4.5-3.7,4.5c-1.7,0-2.2-1-2.5-1.5
			h-0.1v4.6h-1.3V207.7z M759.6,215.4c1.7,0,2.5-1.5,2.5-3.3c0-1.8-0.8-3.3-2.5-3.3c-1.6,0-2.5,1.3-2.5,3.3
			C757.1,214,758,215.4,759.6,215.4z"/>
		<path d="M765.3,205.3c0-0.5,0.4-0.9,1-0.9s1,0.4,1,0.9s-0.4,0.9-1,0.9S765.3,205.8,765.3,205.3z M765.6,207.7h1.3v8.7h-1.3V207.7z
			"/>
		<path d="M770.7,216.4h-1.3v-11.6h1.3V216.4z"/>
		<path d="M774.5,216.4h-1.3v-11.6h1.3V216.4z"/>
		<path d="M776.5,213.9c0-2,1.8-2.4,3.4-2.6c1.6-0.2,2.2-0.1,2.2-0.8v0c0-1.1-0.6-1.8-1.8-1.8c-1.3,0-2,0.7-2.3,1.3l-1.3-0.5
			c0.7-1.6,2.2-2,3.5-2c1.1,0,3.2,0.3,3.2,3.1v5.7h-1.3v-1.2h-0.1c-0.3,0.6-1.1,1.4-2.6,1.4C777.8,216.6,776.5,215.7,776.5,213.9z
			 M782.2,213.3V212c-0.2,0.3-1.7,0.4-2.3,0.5c-1,0.1-2,0.5-2,1.5c0,0.9,0.8,1.4,1.8,1.4C781.3,215.4,782.2,214.4,782.2,213.3z"/>
		<path d="M786,207.7h1.3v1.3h0.1c0.3-0.9,1.2-1.5,2.3-1.5c0.2,0,0.6,0,0.7,0v1.4c-0.1,0-0.5-0.1-0.8-0.1c-1.3,0-2.2,0.9-2.2,2v5.5
			H786V207.7z"/>
		<path d="M792.1,219.5l0.3-1.2c1,0.2,1.6,0.1,2.1-1.2l0.2-0.7l-3.2-8.8h1.5l2.4,6.9h0.1l2.4-6.9h1.5l-3.7,10c-0.5,1.4-1.4,2-2.6,2
			C792.6,219.7,792.2,219.6,792.1,219.5z"/>
	</g>
	<line class="st72" x1="593.3" y1="193" x2="640.2" y2="193"/>
	<line class="st73" x1="593.3" y1="192" x2="640.2" y2="192"/>
</g>
<g id="Crosswalk">
	<g id="Thick_x5F_Ascending_x5F_Loop_x5F_Of_x5F_Henle">
		<g id="Endothelium_x5F_Peritubular_x5F_Capillary_00000079454446666771481730000011325818912624376454_">
			<polyline class="st0" points="449.7,67.3 465.3,62.3 484.7,56.2 496.3,62.7 517,75.5 534.1,80.1 556.1,81 567,89.1 589.1,110.7 
				599.3,131.1 607.8,139.3 613.5,139.3 615.2,131.2 603.4,105.3 590.5,86.8 582.7,74.3 566.6,63.3 543.1,48.8 521.2,41.3 
				503.8,38.5 477.4,43.1 458.7,52.2 443,57.7 437.9,63.9 443,69.2 449.7,67.3 			"/>
			<polyline class="st0" points="420.3,86.2 409.1,103.8 404.2,132.3 403,154 407.4,170.8 414,179.4 422.4,183.8 428.2,173.9 
				428.7,164 424.5,150.8 422.4,137.9 426.7,118.8 427.7,99 420.3,86.2 			"/>
			<polyline class="st0" points="421.7,189.6 418.6,200 424.7,211.6 442.1,227.4 453.4,232.7 464.8,231.1 466.3,226.4 456.7,213.1 
				444.1,202.7 432.5,192.3 428.3,187.9 421.7,189.6 			"/>
			<polyline class="st0" points="499.8,232.5 518.8,223.6 532.7,223.7 544.5,225.5 551.3,229.6 549.8,236.4 535.1,245.5 
				517.8,247.3 505.7,246.8 492.5,245.7 486.6,238 490,233.9 499.8,232.5 			"/>
			<polyline class="st0" points="605.1,155.9 596.9,161.9 594.1,173.3 586.7,188.2 574.3,201.4 567.7,210.5 569.2,221.2 
				579.6,224.1 589.6,216.9 597.4,202.2 608,185.7 612.1,174.1 613.3,163.3 605.1,155.9 			"/>
			<polyline class="st0" points="470.6,95.8 463.6,107.3 463.6,129.9 479.7,153.7 514.4,169.3 533.6,163.4 543.1,147.5 543.5,131.1 
				542.3,118.2 529.4,105.3 512.5,95.8 492.6,90.5 480.9,91.9 470.6,95.8 			"/>
		</g>
		<g id="Thick_x5F_Ascending_x5F_Limb_x5F_Cell">
			<polyline class="st0" points="206.5,203.8 194.8,212.8 189.3,225.1 190.6,241.3 194.8,256 197.9,270.7 206,282 219.7,285.3 
				228.8,284.6 246.7,287.7 264.5,285.8 267.9,284.3 280.6,258.6 292.3,243.8 303.6,232.9 304.8,221 301,214.8 276.7,207 
				250.6,202.7 224.8,201.4 206.5,203.8 			"/>
			<polyline class="st0" points="323.2,227.9 309.3,232.8 292.7,247.3 280.6,263.6 273.5,278.4 268.9,288.9 291,304.2 303.7,316.1 
				317.3,331.7 323.2,336.7 351.4,329.2 376.4,325 386.6,319.1 376.8,295.9 361.1,262.2 343.3,242.2 323.2,227.9 			"/>
			<polygon class="st0" points="390.1,326.7 355.7,331.6 329.5,339 322.5,343 323,365.8 323.8,390.3 328.2,411.2 343.9,421 
				363.9,433.8 383.7,439.5 392.8,421.6 398.9,394.2 400.1,358.2 396.6,341.2 			"/>
			<polyline class="st0" points="332.8,418.6 314.4,425.4 296,437.8 280.6,455.5 274.7,468.4 282.8,492 292.3,512.8 296.5,526.5 
				327.2,513.6 			"/>
			<polygon class="st0" points="268.9,465.5 256.8,463.4 226.6,472.5 213.3,482.5 208.8,501.2 203.6,525 200.2,536.4 200.2,540.7 
				208.8,541.4 213.5,538.6 238.4,540.7 265.7,536.4 284.4,533.7 294.1,530.1 290.4,515.4 280.8,501.2 275.3,483.5 			"/>
			<polyline class="st0" points="145.4,454.5 163.3,457.8 182.3,463.4 197,470.7 206.9,480.7 213.3,485 206.5,512 202.3,533 
				189.3,538 161.8,530.1 139.8,513.4 123.6,505.3 112.2,497.4 123.6,480.9 134.7,466.8 143.3,454.5 			"/>
			<polygon class="st0" points="60.6,391.2 86.1,390.3 102.9,392.5 115.2,404.1 129.3,430.2 139.6,445.9 139.8,456.6 127.4,472.9 
				116.7,490.8 104.6,494.9 87.2,468.4 71.3,447.1 59.8,416.4 55.7,400.1 			"/>
			<polyline class="st0" points="86.4,279.9 73.6,299.6 63.5,329.9 56.9,354.8 55.7,379 60.6,391.2 81.6,391.7 102.9,392.5 
				116.3,392.5 127.5,365.8 135.4,336.7 136.7,325.7 120.8,308.3 106.2,294 96.2,285.8 86.4,279.9 			"/>
			<polyline class="st0" points="187,204.1 157.5,215.1 135.1,229.9 108.8,249.3 93.9,269.7 90.7,277.8 106.2,294 126,309.6 
				138,319.9 157.5,309.6 185.4,289.3 200.1,277.8 197,256 189.3,236.6 188.6,218.3 194.8,209.5 201.6,203 187,204.1 			"/>
		</g>
	</g>
</g>
</svg>
