<?xml version="1.0" encoding="utf-8"?>
<!-- Generator: Adobe Illustrator 27.0.0, SVG Export Plug-In . SVG Version: 6.00 Build 0)  -->
<svg version="1.1" xmlns="http://www.w3.org/2000/svg" xmlns:xlink="http://www.w3.org/1999/xlink" x="0px" y="0px"
	 viewBox="0 0 724.9 431.8" style="enable-background:new 0 0 724.9 431.8;" xml:space="preserve">
<style type="text/css">
	#sketch { mix-blend-mode: multiply; }
	#nuclei { mix-blend-mode: multiply; }
	#membrane { mix-blend-mode: multiply; }
	.st0{fill:none;}
	.st1{fill:#F4E4EA;stroke:#F4E4EA;stroke-width:1.32;stroke-miterlimit:10;}
	.st2{fill:#F9C7DC;}
	.st3{fill:#838BC5;}
	.st4{fill:#CD5257;}
	.st5{fill:none;stroke:#F5A59A;stroke-width:8;stroke-miterlimit:10;}
	.st6{fill:#E2A489;}
	.st7{fill:#5D5D5D;}
	.st8{fill:#8C8C8C;}
	.st9{fill:#A8A8A8;}
	.st10{fill:#8B8B8B;}
	.st11{fill:#9D9D9D;}
	.st12{fill:#A5A5A5;}
	.st13{fill:#A7A7A7;}
	.st14{fill:#FAFAFA;}
	.st15{fill:#585858;}
	.st16{fill:#CACACA;}
	.st17{fill:#696969;}
	.st18{fill:#A2A2A2;}
	.st19{fill:#8A8A8A;}
	.st20{fill:#959595;}
	.st21{fill:#B9B9B9;}
	.st22{fill:#C0C0C0;}
	.st23{fill:#999999;}
	.st24{fill:#5C5C5C;}
	.st25{fill:#777777;}
	.st26{fill:#626262;}
	.st27{fill:#9B9B9B;}
	.st28{fill:#7F7F7F;}
	.st29{fill:#939393;}
	.st30{fill:#FEFEFE;}
	.st31{fill:#ABABAB;}
	.st32{fill:#ACACAC;}
	.st33{fill:#9F9F9F;}
	.st34{fill:#FFFFFF;}
	.st35{fill:#B3B3B3;}
	.st36{fill:#D8D8D8;}
	.st37{fill:#CCCCCC;}
	.st38{fill:#CBCBCB;}
	.st39{fill:#BCBCBC;}
	.st40{fill:#B4B4B4;}
	.st41{fill:#BABABA;}
	.st42{fill:#AEAEAE;}
	.st43{fill:#8E8E8E;}
	.st44{fill:#C7C7C7;}
	.st45{fill:#818181;}
	.st46{fill:#B5B5B5;}
	.st47{fill:#CFCFCF;}
	.st48{fill:#A9A9A9;}
	.st49{fill:#E4E4E4;}
	.st50{fill:#BFBFBF;}
	.st51{fill:#949494;}
	.st52{fill:#B0B0B0;}
	.st53{fill:#9A9A9A;}
	.st54{fill:#D6D6D6;}
	.st55{fill:#9E9E9E;}
	.st56{fill:#C4C4C4;}
	.st57{fill:#CECECE;}
	.st58{fill:#EFEFEF;}
	.st59{fill:none;stroke:#FFFFFF;stroke-miterlimit:10;}
	.st60{fill:none;stroke:#000000;stroke-miterlimit:10;}
	.st61{fill:none;stroke:#000000;stroke-width:1.5;stroke-miterlimit:10;}
	.st62{fill:url(#SVGID_1_);stroke:#231F20;stroke-width:0.9396;stroke-miterlimit:10;}
	.st63{opacity:0.1;}
	.st64{opacity:0.9;}
	.st65{opacity:0.3;}
	.st66{fill:url(#SVGID_00000173162595951874201810000013342356847853853358_);}
	.st67{fill:url(#SVGID_00000010995538967607379000000004097263980228885930_);}
	.st68{fill:none;stroke:#231F20;stroke-width:0.9396;stroke-miterlimit:10;}
	.st69{fill:#FFFFFF;stroke:#231F20;stroke-width:0.2349;stroke-miterlimit:10;}
	.st70{fill:none;stroke:#000000;stroke-width:1.4871;stroke-miterlimit:10;}
</style>
<g id="art">
	<g>
		<path class="st1" d="M243.6,181.1c3-17.1-2.8-34.5-17.4-53.3c-14.5-18.8-95.5-58-111.3-57.6s-40.6,8.7-52,20.2
			s-13.7,14.1-19.8,31.5s-0.6,74.5,3.3,85.9c3.9,11.4,38.2,40.8,46.9,44.4c8.6,3.5,34.8,14.7,52.3,9.9c17.5-4.9,43-10.3,57.5-21.2
			S241.6,192.1,243.6,181.1z"/>
		<g>
			<path class="st2" d="M239.8,154.5c-3.7-7.9-7.4-15.9-11.1-23.8c-4.5-9.6-9-19.3-15.7-27.6c-12.6-15.6-32-23.9-50.2-32.4
				c-6.6-3.1-12.6-7-19.8-8c-7.1-1-15,0.9-22.1,2c-17.4,2.7-33.8,11-47.6,16.4c-1.5,0.6-4.3,1.1-3.8,2.7c0.4,1.3,1.8,1.8,3.1,2.1
				c6.6,1.4,7-2.7,12.9-5.8c4.7-2.5,14.2-4.8,19.5-5.3c6.5-0.6,12.4,0.8,20.2,7.1c12.9,10.5,36.7,18.9,58.6,18.5
				c10.7-0.2,8.6,3.3,17.6,9.3c16.2,10.8,21.3,31.3,34.9,45.3c1.2,1.3,1.7,3.2,2.4,1.6"/>
			<g>
				<path class="st2" d="M243.2,152.5c-7.2-15.5-13.5-32.2-23.1-46.5c-8.4-12.5-20.4-21.3-33.6-28.4c-6.6-3.5-13.4-6.6-20.2-9.7
					c-6.9-3.2-13.7-7.5-21.3-8.9c-7.5-1.4-15.1,0.2-22.6,1.4c-8.6,1.4-16.9,3.6-25.1,6.6c-7.5,2.8-14.7,6-22.1,9
					c-4.2,1.7-12.5,3.9-8.8,10.1c2.8,4.6,10.3,4.7,14.5,2.1c2.5-1.6,4.4-3.8,7.2-5.1c3.2-1.6,6.8-2.5,10.2-3.3
					c6.2-1.5,12.2-2.2,18.1,0.7c6.3,3.1,11.4,8.3,17.7,11.6c13.2,7,28.2,11,43.1,11.9c3.7,0.2,8.3-0.7,11.8,0.6
					c2,0.7,3.3,2.5,4.8,3.9c5.7,5.3,12,9.1,16.7,15.5c4.6,6.2,8.2,13,12.3,19.5c2,3.2,4.1,6.2,6.4,9.2c2,2.5,4.3,6,7,7.8
					c1.3,0.9,3.8,0.7,4.8-0.6c0.2-0.2,0.3-0.4,0.5-0.6c3.1-4-2.5-9.6-5.6-5.6c-0.2,0.2-0.3,0.4-0.5,0.6c1.6-0.2,3.2-0.4,4.8-0.6
					c0.8,0.5-1.3-1.8-1.6-2.1c-1.1-1.3-2.3-2.5-3.3-3.8c-2.3-3-4.4-6.2-6.4-9.4c-3.7-5.9-7-12.1-11.1-17.7c-3.7-5.2-8-9.9-13.2-13.7
					c-4-2.9-7.6-7.5-12.2-9.4c-6.1-2.5-13.7-1.1-20.2-1.8c-8.1-0.9-16.2-3-23.8-5.8c-6.8-2.5-13.4-5.8-19.2-10
					c-5.4-4-10.4-7.9-17.2-9c-6.9-1.1-14.3,0.6-20.9,2.6c-3.3,1-6.7,2.2-9.6,4.2c-1.3,0.9-2.5,2.1-3.8,3c-1.3,0.9-4.2,1.1-4.2,2.1
					c-0.4,0.9-0.8,1.9-1.2,2.8c1-1,3.6-1.5,4.9-2c2-0.8,4-1.6,6-2.5c4.2-1.8,8.5-3.6,12.7-5.2c8.4-3.3,17-6,26-7.5
					c8.8-1.5,17.7-3.5,26.4-0.3c7.7,2.8,15.2,7.1,22.6,10.7c14.4,6.8,29.2,14.4,39.3,27c5.7,7.1,9.7,15.4,13.6,23.6
					c4.2,9,8.4,18,12.6,27C238.5,161.1,245.4,157,243.2,152.5L243.2,152.5z"/>
			</g>
		</g>
		<g>
			<path class="st2" d="M217,231.8c5.3-10.9,11.3-21.2,16.6-32.2c1.4-2.9,2.8-5.7,3.8-8.7c0.8-2.4,0.4-2.1-0.3-4.6s-2.7-6.8-5.3-6.4
				c-1.3,0.2-1.8,0.3-2.8,1.2c-2.3,2.1-2.6,5.9-3.9,8.7c-1.7,3.6-1.7,8.1-3.2,11.7c-2.9,7-9,12.1-13.4,18.2
				c-4.4,6.2-10.9,8.9-9.7,16.4c0.1,0.7,2.7,3.3,3.3,3.7c0.5,0.3,0.4,1,1,1c6.7-0.8,10.8-5.2,14.5-10.8"/>
			<g>
				<path class="st2" d="M220.4,233.8c3.5-7.1,7.3-14.1,11-21.1c3.5-6.6,7.7-13.5,9.8-20.7c2.4-7.9-6.6-21.7-15-13.6
					c-3.7,3.5-5.4,10.8-6.5,15.5c-1.7,7.8-5.4,12.7-10.5,18.7c-3.8,4.4-8.1,8.8-11.5,13.4c-2.7,3.6-4.4,8.9-1.9,13
					c2.7,4.5,6.5,6.6,11.6,4.8c6-2,10.1-6.8,13.5-11.9c2.8-4.3-4-8.2-6.8-4c-3.1,4.7-6.4,8.1-12.1,9c1,0.1,2,0.3,3.1,0.4
					c1.2,0.8-1.7-1.6-2-2.1c-0.7-1.2-0.4-2.3,0.5-3.9c2-3.6,5.9-6.4,8.4-9.7c6.3-8.2,13.1-14.6,15.3-25.1c0.3-1.4,2.9-12.8,4.6-12.8
					c0.3,0,1.9,4,2,4.8c0,2.7-2,5.6-3.2,8c-5.3,11.2-11.6,21.9-17,33C211.4,234.3,218.2,238.4,220.4,233.8L220.4,233.8z"/>
			</g>
		</g>
		<g>
			<path class="st2" d="M160.6,260.5c5.5-0.2,10-3.5,13.3-7.9c0.6-0.8,0.8,0.4,0.9-0.6c0.3-3.2-0.5-3.9-3.6-4.6
				c-5.3-1.2-11.9-3.9-17.2-2.7c-3.3,0.8-6.4,2.3-9.6,3.6c-7.6,3-14.2,5.7-22.4,6.4c-1.9,0.2-4.2-1-5.3,0.6c-1,1.4-0.7,2.1,0.4,3.4
				c1.1,1.3,0.6,1.6,2.2,2.2c12.6,4.8,26.5,3.7,40.1-0.3"/>
			<g>
				<path class="st2" d="M160.6,264.4c3.1-0.3,6.1-1,8.9-2.5c2.7-1.6,4.5-4.6,7-6.2c-1.3,0-2.7,0-4,0c0.1,0,0.2,0.1,0.3,0.1
					c2.4,1.1,5,0.3,5.8-2.4c1.2-3.8-0.4-7.7-4.1-9.3c-4.8-2.1-11.3-3.6-16.6-3.8c-6.2-0.2-12,3.1-17.6,5.3c-6,2.3-12.7,5.1-19.3,4.9
					c-4.2-0.1-8.7,1-8.5,6.3c0.2,4.2,4.1,7.1,7.7,8.3C133.2,269.8,147.5,268.1,160.6,264.4c4.9-1.4,2.8-9-2.1-7.6
					c-6.9,1.9-13.9,3.3-21.1,3.3c-3.6,0-16.5,0.1-17.3-4.6c-0.1,1-0.3,2-0.4,3.1c0,0.1,11-1.2,11.7-1.4c4.8-1.2,9.5-3.1,14.1-5
					c4.6-1.9,9-4.3,14.2-3.6c2.5,0.4,5,1.2,7.5,1.8c1.2,0.3,2.4,0.6,3.6,0.9c0.9,0.2,0.4-0.9,0.1,0.1c1.9-0.8,3.9-1.6,5.8-2.4
					c-2.5-1.1-4.2-0.5-6,1.4c-3,3-5.5,5.7-10.1,6.1C155.6,256.9,155.5,264.9,160.6,264.4L160.6,264.4z"/>
			</g>
		</g>
		<g>
			<path class="st2" d="M63.2,234.5c0.4,1.6,1.1,3.2,2.1,4.5c2,3,5.6,4.3,8.6,6.2c2.3,1.5,5.4,2.2,8.1,2.7c2.7,0.6,4.5,1.8,6.6-0.1
				c0.8-0.7,1.4-1.7,1.6-2.7c0.2-2.1-1.4-4-3.1-5.2c-15.9-11.4-21.6-19-32.4-28.5c-0.5-0.4-1-0.9-1.7-1c-0.6-0.1-1.2,0.1-1.8,0.5
				c-2.7,1.7-1.9,5.3-1,8.2c0.9,3,2.3,4.8,4.4,7.1c4.2,4.6,7.8,10,12,14.6"/>
			<g>
				<path class="st2" d="M59.4,235.5c2.3,7,7.3,10.6,13.7,13.8c4.5,2.2,13,5.3,17.5,2c5.3-3.9,3.8-10.4-0.7-14.2
					c-5.7-4.8-11.7-9-17.1-14.1c-4.4-4.1-8.7-8.5-13.1-12.6c-3.9-3.5-8.9-6.2-12.7-0.7c-3.3,4.7-0.5,12.2,2.5,16.3
					c4.4,6,9.5,12,14.5,17.6c3.4,3.8,9-1.8,5.6-5.6c-3-3.4-5.8-7.1-8.6-10.7c-1.4-1.7-3-3.3-4.3-5c-1.4-1.8-1.8-3.6-2.8-5.6
					c0.1-1.4-0.5-2.2-1.8-2.6c0.7,0.6,1.4,1.2,2.1,1.9c1.3,1.2,2.6,2.4,3.9,3.6c2.3,2.2,4.6,4.5,6.9,6.7
					c5.5,5.3,11.2,10.1,17.3,14.7c1.1,0.8,2.2,1.6,3.2,2.4c-0.4,1.2-1.1,1.4-2.2,0.6c-1.8,0-4.3-0.9-5.9-1.7
					c-4.3-1.9-8.6-4.5-10.1-9.1C65.4,228.6,57.8,230.7,59.4,235.5L59.4,235.5z"/>
			</g>
		</g>
		<g>
			<path class="st2" d="M50.6,199.3c3.7-7.1,0.1-14-1.6-21.8c-1.7-7.8-2.3-18.2-1.1-26.1c0.6-4.3,1.5-9,2.5-13.3
				c2-8.1,2.7-16.1,0.4-24.1c-0.4-1.4-0.2-2.3-1.5-2.8c-2.4-1-5.4,8.2-6.3,10.6C38.3,135.4,38,144,36,158.2c-1,7.5-2.2,13.7-0.5,21
				c1.7,7.3,7.6,17.9,14.8,20.1"/>
			<g>
				<path class="st2" d="M54,201.3c3.1-6.8,2-12.9,0.1-19.9c-2.1-7.7-3.1-15.6-2.8-23.7c0.6-15.3,8.8-31.1,2.9-46.4
					c-1.8-4.8-6.9-5.1-10-1.4c-3,3.7-4.4,9.1-5.9,13.5c-4.6,14-6.4,29.9-7.5,44.5c-1,13.2,4.9,30.2,18.4,35.2
					c4.8,1.8,6.9-5.9,2.1-7.6c-6.2-2.3-10.1-10.2-11.8-16.2c-2.3-8.6,0-17.8,1.1-26.4c1-7.9,1.9-15.7,4.1-23.3
					c0.8-3,1.8-5.9,2.9-8.8c0.5-1.4,1-2.7,1.6-4c0.3-0.6,0.6-1.2,1-1.8c1-1.1,0.3-1-2,0.3c-0.6-0.8-1.2-1.6-1.8-2.4
					c5.3,14.2-2.1,28.8-3,43.1c-0.4,6.5,0.1,13,1.1,19.4c1.2,6.9,5.6,15,2.6,21.8C45.1,201.9,51.9,205.9,54,201.3L54,201.3z"/>
			</g>
		</g>
	</g>
	<g>
		<path class="st3" d="M333.7,199.2c-13.6,47,2.9,107.2,38.3,140.9c10.7,10.2,21.5,15.5,35.8,19.2c8.3,2.2,19,1.6,27.7,1.4
			c34.8-1,67.1-14,93.7-36.4c5.8-4.8,11.3-12.2,14.8-18.8c2.3-4.2,3.7-8.8,4.7-13.4c5.3-23.9,0-48.8-6.7-72.3
			c-2.5-8.8-5.2-17.7-10-25.6c-4-6.7-9.4-12.4-14.8-18c-8.1-8.4-16.5-16.7-26.2-23.3c-19.1-12.9-42.8-18.5-65.9-16.9
			c-23,1.6-45.3,10-64.6,22.8c-12.5,8.3-24.4,19.4-27.3,34.1c-0.2,0.9-0.3,1.9,0.1,2.7c0.4,0.8,1.2,1.2,2,1.5
			c6.7,2.8,14.4,2,21.2-0.7s12.6-7,18.6-11.2c8.6-6,17.4-11.8,27.4-15.1c9.9-3.3,21.1-3.9,30.6,0.4c5.6,2.6,10.4,6.7,15.7,9.9
			c7.9,4.9,17.1,7.8,24.1,14c4,3.5,7,8,10.5,12c4.9,5.7,10.8,10.5,17.2,14.3c1.4,0.8,2.9,1.7,3.4,3.2c0.4,1.1,0.1,2.3-0.1,3.5
			c-2.4,14.4,5,29.3,1.6,43.4c-2.2,9-8.5,16.3-14.5,23.3c-7.4,8.5-14.9,17-24,23.6c-9.1,6.6-20.1,11.1-31.3,10.6
			c-16-0.8-30.2-12.5-36.4-27.3c-2-4.8-3.2-9.9-5.4-14.7c-8.1-17.5-28.1-27.8-34-46.1c-2.6-8.1-2.1-16.7-3.1-25.1
			c-0.7-6-2.3-12.4-7-16.2c-4.7-3.8-13.1-3.2-15.4,2.4"/>
		<g>
			<path class="st3" d="M331.7,198.7c-4.9,17.1-5.8,35.3-3.8,53c2.2,18.3,7.4,36.1,15.6,52.6c4,8,8.6,15.6,14,22.7
				c5.5,7.2,11.6,14,18.7,19.6c7.5,5.9,15.9,10.2,25,13c4.9,1.6,9.8,2.7,14.9,3.1c5.2,0.4,10.5,0.3,15.7,0.2
				c10.2-0.3,20.3-1.2,30.3-3.3c9.9-2.1,19.6-5.2,28.9-9.3c9.3-4,18.1-9,26.4-14.7c4.3-2.9,8.4-6.1,12.4-9.4
				c4-3.3,7.4-7.3,10.5-11.4c3.2-4.4,5.9-9,7.8-14.1c2-5.4,3.1-11.1,3.8-16.9c1.4-11.5,0.6-23.2-1.2-34.6
				c-1.9-11.4-4.8-22.7-8.1-33.8c-1.6-5.4-3.4-10.7-5.7-15.8c-2.3-5.1-5.3-9.7-8.8-14.1c-3.5-4.3-7.3-8.3-11.2-12.3
				c-3.8-3.9-7.7-7.8-11.8-11.5c-8-7.2-16.7-13.5-26.5-18c-19.2-8.9-40.8-11.7-61.7-8.8c-21.3,2.9-41.8,11.3-59.4,23.5
				c-7.9,5.4-15.3,11.9-20.5,20c-2.5,3.9-4.5,8.3-5.5,12.8c-0.6,2.7-0.8,5.5,1.8,7.1c2.1,1.3,4.8,1.9,7.3,2.3
				c11.2,1.5,21.5-4,30.4-10.1c9-6.2,17.8-12.8,28-17c9.8-4,21-5.7,31.1-2c5.1,1.8,9.5,5.2,13.9,8.3c4.3,3,9,5.4,13.7,7.7
				c4.5,2.2,9.2,4.5,13.1,7.8c4.1,3.5,7.2,8,10.7,12c3.4,4,7.3,7.6,11.6,10.8c2.2,1.6,4.5,3.1,6.8,4.5c0.7,0.4,1.7,0.9,2.1,1.7
				c0.5,1.1-0.1,2.7-0.2,3.8c-1.5,10.9,2.1,21.5,2.6,32.4c0.2,5.2-0.5,10.4-2.7,15.2c-2.1,4.6-5.2,8.8-8.4,12.7
				c-6.9,8.3-14.2,16.7-22.4,23.8c-8,6.8-17.6,12.4-28.1,13.9c-18.6,2.6-35.8-10.3-42.2-27.2c-1.9-5.1-3.3-10.5-5.9-15.3
				c-2.1-3.9-4.7-7.5-7.6-10.8c-5.7-6.7-12.3-12.6-17.7-19.4c-2.6-3.3-4.9-6.8-6.6-10.7c-2.1-4.9-2.8-10.2-3.2-15.4
				c-0.7-9.5,0-21.6-7.6-28.9c-5.2-5-16.1-5.5-19.4,2c-0.4,1-0.3,2.1,0.7,2.7c0.8,0.5,2.3,0.3,2.7-0.7c1.4-3.1,4.8-4.2,7.9-3.7
				c4,0.6,6.8,3.7,8.4,7.2c2,4.3,2.4,9.2,2.7,13.9c0.4,5.6,0.5,11.1,1.6,16.6c3.6,18.2,19.8,28.4,30.2,42.4c2.7,3.7,5,7.6,6.6,11.9
				c1.8,4.9,3.2,10,5.6,14.6c4.1,7.9,10.5,14.8,18.2,19.3c8.2,4.8,17.5,6.6,26.9,5.1c10.4-1.6,19.9-6.9,27.9-13.5
				c8.3-6.8,15.4-15.1,22.4-23.3c6.8-7.9,12.8-16.4,13.7-27c0.9-10.6-2.7-21-2.8-31.6c0-2.6,0.3-5.1,0.6-7.7c0.4-2.9-0.7-5.1-3-6.7
				c-2.1-1.4-4.3-2.6-6.3-4c-2.2-1.5-4.2-3.2-6.2-4.9c-3.9-3.5-7.2-7.6-10.5-11.7c-3.3-4.1-7-7.6-11.4-10.4c-4.3-2.7-9-4.8-13.5-7.1
				c-4.7-2.4-9-5.4-13.4-8.4c-4.4-3-9-5.5-14.2-6.7c-5.1-1.2-10.4-1.3-15.7-0.6c-10.9,1.4-20.8,6.4-29.9,12.3
				c-4.5,2.9-8.8,6.1-13.3,9.1c-4.4,3-9,5.9-14.1,7.7c-4.9,1.7-10.3,2.5-15.4,1.3c-1.1-0.3-2.3-0.6-3.3-1.1
				c-1.1-0.6-0.8-1.4-0.6-2.5c0.5-2.2,1.2-4.3,2-6.4c3.7-8.6,10.4-15.5,17.7-21.2c8-6.3,17.1-11.4,26.3-15.7
				c19-8.7,40.2-13.1,61.1-11.2c20.8,1.8,40.4,9.8,56.3,23.2c8.3,7,16.1,14.9,23.3,23.1c3.6,4,6.8,8.3,9.4,13
				c2.6,4.7,4.5,9.8,6.1,14.9c3.5,10.9,6.4,22,8.5,33.3c2.1,11.2,3.2,22.6,2.3,34c-0.5,5.6-1.4,11.3-3,16.7c-1.5,5.1-4,9.7-6.9,14
				c-2.8,4.2-6.1,8.2-9.9,11.6c-3.8,3.3-7.8,6.4-11.9,9.2c-16.3,11.4-34.6,19.7-54,24c-9.8,2.2-19.6,3.1-29.6,3.4
				c-5.1,0.2-10.3,0.3-15.4,0c-5-0.3-9.8-1.4-14.6-2.9c-8.7-2.7-17-6.7-24.1-12.4c-6.9-5.5-13-12.2-18.3-19.2
				c-10.7-14.2-18.4-30.5-23.4-47.5c-5-17.1-7.1-35-5.8-52.8c0.6-8.2,2-16.4,4.3-24.3C336.3,197.2,332.4,196.2,331.7,198.7
				L331.7,198.7z"/>
		</g>
	</g>
	<g>
		<path class="st4" d="M100.8,162.3c-2.9-0.4-6.4,4.2-7.1,7c-0.7,2.8-1,5.7-0.3,8.5c3.2,12.6,8.7,25.2,12.4,37.8
			c1.2,4,2.4,8.1,4.6,11.7c2.2,3.6,5.6,6.6,9.7,7.5c6.7,1.5,13.6-3.4,16.4-9.7c2.8-6.3,2.3-13.5,0.8-20.3
			c-3.8-17.4-14.4-33.8-30.2-41.9c-1.3-0.7-3.7-1.7-3.5-0.2"/>
		<g>
			<path class="st4" d="M100.8,158.3c-5.7,0.3-9.9,5.5-11.2,10.8c-1.9,7.9,1.5,15.9,4.1,23.3c3,8.7,6,17.2,8.7,26
				c2.1,6.6,4.8,13.4,10.7,17.5c12.9,9,27.1-3,29.1-16.3c2-13.7-3.9-29.4-11.5-40.6c-3.1-4.6-26.6-30.7-30.9-17.3
				c-1.6,4.9,6.2,7,7.7,2.1c0.1-0.2,0.1-0.4,0.2-0.6c-0.9,0.9-1.9,1.9-2.8,2.8c-1.3,0.3,0.9,0.7,1.6,1.1c1.3,0.7,2.6,1.5,3.8,2.3
				c2.6,1.7,4.9,3.7,7.1,5.9c4,4,7.2,8.5,9.9,13.4c5.4,10,11.9,27.6,3.8,37.7c-4.5,5.6-11.6,5.9-16.2,0.3
				c-4.5-5.5-5.6-13.7-7.8-20.3c-2.3-6.9-4.9-13.7-7.2-20.7c-1.1-3.6-2.8-7.6-2.9-11.4c0-2,0.8-8,3.8-8.1
				C105.9,166,105.9,158,100.8,158.3L100.8,158.3z"/>
		</g>
	</g>
	<g>
		<path class="st4" d="M145,106c-5.5,0.7-9.9,5-12.2,10c-3,6.4-3.3,13.9-1.8,20.8c1.5,6.9,4.8,13.3,8.4,19.4
			c3,4.9,9.5,8.8,14.5,11.6c9.6,5.4,22.6,1.6,26.7-8.7c2.7-6.7,1.4-14.3-0.1-21.3c-1.2-5.4-4.7-10.9-8.2-15.2
			c-2.1-2.5-4.8-4.5-7.6-6.3c-5-3.3-10.2-6.2-15.6-8.8"/>
		<g>
			<path class="st4" d="M143.9,102.1c-13.1,2.3-18.6,17.1-17.8,29c0.9,12.8,7.2,27.3,17.7,35.1c9.3,6.8,20.6,11.2,31.4,4.8
				c11.6-7,11.9-20.8,9.4-32.7c-3.8-17.6-18.5-26.9-33.6-34.3c-4.6-2.2-8.7,4.7-4,6.9c12.5,6.1,25.8,13.3,29.6,27.9
				c2.9,11.4,1.8,27.6-13.4,27.4c-5.4,0-10.4-3.4-14.6-6.5c-5.5-4-8.6-10-11.2-16.1c-4.3-10.3-6.3-31.1,8.7-33.8
				C151.1,108.9,148.9,101.2,143.9,102.1L143.9,102.1z"/>
		</g>
	</g>
</g>
<g id="membrane">
	<path class="st5" d="M323.9,233.3c1.2,14.6,2,36.6,12,62.3c10,25.7,24.5,41.5,34.5,50.8c20.3,19,45.4,18,66,18.1s31-1.3,53.9-10.6
		c22.9-9.3,39.5-22.9,49.2-36.6s14.9-35.9,15.2-53.2c0.3-17.3-3.9-36.9-11.7-59.1c-6.1-17.4-27.7-36.1-36.3-45.8s-42.1-28-59.4-28.4
		c-17.3-0.3-35.2-2.7-61.9,8.7c-21.6,9.2-27.1,14.3-40.9,27.6c-10.1,9.8-13.7,17.1-15.6,29.3S322.7,219.3,323.9,233.3z"/>
</g>
<g id="nuclei">
	<g>
		<g>
			<path class="st6" d="M353.5,282.4c3.2,6.8,7.8,13.1,13.2,18.4c3.6,3.5,7.9,7.4,13.2,7.4c5.7,0,10.5-3.5,12.6-8.7
				c3.7-9-1.4-18.3-7.8-24.5c-5.7-5.6-15.2-11.4-23.4-9.2c-7,1.9-10.8,10.6-6.9,16.9c0,0.1,0.1,0.1,0.1,0.2
				c3.3,5.3,10.2,7.3,15.7,4.1c0.1,0,0.1-0.1,0.2-0.1c5.4-3,7.2-10.4,4.1-15.7c-3.2-5.4-10.3-7.2-15.7-4.1c-0.1,0-0.1,0.1-0.2,0.1
				c5.2,1.4,10.5,2.8,15.7,4.1c0-0.1-0.1-0.1-0.1-0.2c-2.3,5.6-4.6,11.3-6.9,16.9c0.2,0,0.4-0.1,0.5-0.1c-2,0-4.1,0-6.1,0
				c0.6,0.1,4.1,1.4,3,0.8c0.7,0.4,1.4,0.8,2.1,1.2c-0.6-0.6-0.4-0.5,0.6,0.5c0.4,0.4,3,3.1,2.3,2.3c0.5,0.7,1,1.4,1.4,2.2
				c-1.3-1.9-0.9-4,1.4-6.4c1.7-1,3.4-2,5.1-3c-0.3,0-0.6,0.1-0.9,0.1c3,0.4,5.9,0.8,8.9,1.2c0.9,0.5-0.5-0.2-0.8-0.5
				c-0.9-0.7-1.6-1.5-2.4-2.2c-1.4-1.4-2.8-2.8-4-4.4c0.6,0.8-0.6-0.8-0.6-0.8c-0.5-0.7-1-1.5-1.5-2.2c-1.2-1.9-2.2-3.8-3.1-5.8
				c-2.7-5.6-10.7-7.1-15.7-4.1C351.9,270,350.9,276.8,353.5,282.4L353.5,282.4z"/>
		</g>
	</g>
	<g>
		<g>
			<path class="st6" d="M463.6,185.3c5,4.9,10.4,9.3,16.2,13.3c3.7,2.6,7.9,4.4,12.5,3.2c5.6-1.5,9.3-6.6,9.4-12.4
				c0.4-16.3-16.3-29.1-31.8-24.7c-5.8,1.6-10,8.2-8,14.1c1.9,5.9,7.9,9.8,14.1,8c1.4-0.3,1.5-0.4,0.3-0.2c1.4,0,1.5,0,0.3,0
				c1.3,0.4,1.4,0.4,0.3,0.1c-0.7-0.7-0.8-0.7-0.2-0.2c0.4,0.4,0.8,0.7,1.2,1.2c-0.7-1-0.6-0.8,0.3,0.4c1.3,2,0.1,0.4,0.5-0.8
				c1.8-2.3,3.5-4.6,5.3-6.9c-0.2,0.1-0.4,0.2-0.7,0.3c3-0.4,5.9-0.8,8.9-1.2c1.6,0.8,1.6,0.8,0.1-0.1c-0.7-0.5-1.4-1-2.1-1.5
				c-1.6-1.1-1.7-1.2-2.8-2.1c-2.7-2.2-5.2-4.5-7.7-6.8c-4.5-4.3-11.8-4.4-16.3,0C459.2,173.4,459.1,180.9,463.6,185.3L463.6,185.3z
				"/>
		</g>
	</g>
	<g>
		<g>
			<path class="st6" d="M495.8,328.1c9.7-0.7,19.1-4.3,25.8-11.5c7.3-7.8,11.2-21,2.6-29.6c-9.9-10-21.5-0.9-29.9,5.9
				c-9.1,7.3-14.9,16.9-9.7,28.5c2.5,5.7,10.8,7,15.7,4.1c5.8-3.4,6.7-10,4.1-15.7c3.1,6.9-1.5,5.3,1.3,3.6c1.5-0.9,2.8-2.6,4.2-3.7
				c1-0.8,2.1-1.6,3.1-2.3c0.7-0.5,1.4-1,2.1-1.4c2.1-1.1,1.9-1.3-0.6-0.5c-1.9-0.5-3.9-1-5.8-1.6c-2.1-1.4-2.9-3-2.4-4.8
				c0.4-0.6,0.2-0.3-0.5,0.9c1-1-2.4,2.4-1.9,2c-2.4,1.9-5.4,3-8,3.2c-6.2,0.5-11.5,5-11.5,11.5
				C484.3,322.4,489.6,328.5,495.8,328.1L495.8,328.1z"/>
		</g>
	</g>
	<g>
		<g>
			<path class="st6" d="M182.9,84.8c-5.2-9.6-14.7-16.8-25.4-18.8c-9.8-1.9-29.9,1.3-25.2,15.9c3.5,10.9,19.8,12.1,28.8,15.6
				c5.4,2.1,12.8,4.1,18.3,1c6.8-3.9,5.8-12.2,0.1-16.3c-3.7-2.7-9.6-0.6-11.7,3.1c-2.5,4.3-0.7,9,3.1,11.7c0.2,0.1,0.3,0.3,0.5,0.4
				c-1.4-2.5-2.8-4.9-4.2-7.4c0,0.2,0,0.5-0.1,0.7c1.4-2.5,2.8-4.9,4.2-7.4c1.7-1.3,1.1-0.1-0.6-0.7c-1.4-0.5-2.8-0.8-4.2-1.3
				c-2.7-1-5.3-2.1-8-2.9c-3.9-1.1-9.1-1.4-11.8-4.8c0.7,1.3,1.5,2.5,2.2,3.8c-0.1-0.3-0.2-0.6-0.3-0.9c0,1.5,0,3,0,4.6
				c-0.5,2.4-2.2,1.7,1,1.5c0.9-0.1,2,0,2.9,0.1c2.1,0.2,4.2,0.8,6.1,1.7c4.3,2,7.4,5.2,9.7,9.3C173.4,103.1,188.2,94.5,182.9,84.8
				L182.9,84.8z"/>
		</g>
	</g>
</g>
<g id="sketch">
	<g>
		<path class="st7" d="M190.6,78.5c2.5,1.9,5.6,2.7,8.2,4.5c4.3,3.1,8.2,6.5,11.7,10.5c3,3.4,5.9,6.8,9,10c1.2,1.2,2.3,2.3,2.6,4
			c0.7,4.5,3.6,7.9,5.9,11.6c5.5,9.1,10.6,18.4,14.2,28.4c0.7,2,1.1,4.1,1.3,6.2c0.1,2-0.4,3.8-2.2,4.8c-1.8,1-3.6,1.5-5.7,0
			c-6.6-4.8-11.2-11.1-14.8-18.2c-2.9-5.8-6.3-11.2-10.6-16.1c-4.9-5.5-9.7-11.1-15.3-15.9c-2.8-2.4-5.7-3.8-9.3-3.8
			c-1.3-0.5-1.6-1.1-0.2-1.9c6.7,0.1,10.8,4.8,15.3,8.9c0.6,0.5,1,1.2,1.6,1.6c9,6.1,14.1,15.3,18.9,24.6
			c3.7,7.3,8.5,13.6,14.3,19.2c1.5,1.5,3.2,1,4.9,0.4c1.9-0.6,1.7-2.1,1.6-3.5c-0.2-3.4-1.5-6.5-2.7-9.7
			c-4.1-10.8-10.7-20.2-16-30.2c-8.1-15-19.1-26.7-34.2-34.7c-7.9-4.2-15.8-8.4-24-11.8c0.1-0.8,0.7-0.9,1.3-1.1
			c4.3,0.7,7.6,3.6,11.5,5c3.2,1.1,6.2,2.8,9.3,4.2C187.6,77.3,189.3,77.6,190.6,78.5z"/>
		<path class="st8" d="M60.2,239.4c-6.4-5.5-11-12.3-13.9-20.1c-1.8-4.8,0.4-10.4,4.4-12.5c1.9-1,3.3-0.9,5.3,0.4
			c8.4,5.5,14,13.9,21.5,20.3c2.2,1.9,4.6,3.3,6.9,4.9c3.5,2.4,7.3,4.7,8.1,9.5c-1.3,0.6-2.5,0-3.8-0.4c-2.7-2.8-5.6-5.1-8.8-7.3
			c-5.9-4-10.5-9.5-15.5-14.6c-2.3-2.3-4.9-4.3-7.2-6.7c-1.3-1.4-3-2.4-5-1.4c-2,1-2.6,2.9-2.5,5c0.2,4.3,2.1,8,4.6,11.4
			c3.2,4.3,6.5,8.5,10.3,12.3c0.9,0.9,2.1,1.8,0.9,3.3C63.3,242.7,61.8,241.1,60.2,239.4z"/>
		<path class="st9" d="M32.9,183.3c-2.7-4.8-1.5-10.2-2-15.3c-0.6-5.6,1.1-11,1.1-16.5c0-6.4,1.3-12.5,2.4-18.7
			c1.5-8.2,3.8-16.1,10-22.2c2.3-1.7-5.2,11.5-5.1,13.5c0.1,1.1,7.5-9.9,6.9-9.1c-5.5,7.1-7.4,15.7-9.2,24.2
			c-1.4,6.5-1.5,13.2-2.2,19.8c-0.7,6.7-0.6,13.7,0.7,20.5c0.4,1.9,0.5,3.8-1.9,4.5C33.2,183.8,33,183.6,32.9,183.3z"/>
		<path class="st10" d="M38.7,121.2c-0.9-2.5,5.8-14.6,7-15c4.6-1.7,5.6-1.3,7.6,3c2.4,5,2.2,10.4,2.6,15.8c0.7,8.8-3,16.7-4,25.1
			c-0.6,5-0.8,10-0.5,15c-0.4,1-1.2,1-2.1,0.9c-1.9-1.5-2.6-3.8-2.3-5.8c0.6-4,0.4-8,0.8-12c0.7-6,2.9-11.6,3.6-17.5
			c0.6-5.8,0.7-11.5-0.6-17.2c-0.4-1.9-1.2-3.8-3.7-3.9C45.8,109.4,39.9,122.1,38.7,121.2z"/>
		<path class="st11" d="M131.5,251.1c-3.5,0.2-6.6,2.3-10.2,2.1c-1.2-0.1-2.3,0-3.5-0.2c-1.2-0.9-1.2-1.7,0.2-2.4
			c10.3,0.3,19.2-4.5,28.6-7.8c6.6-2.4,13.7-3.8,20.7-1.1c0.9,0.3,1.9,0.5,2.8,0.7c0.5,0.3,1.3,0.6,0.4,1.4c-3.3-0.3-6.6-0.7-10-1
			c-1.1,0.6-2.2,1.2-3.3-0.2c-1.8-0.2-3.3,0.1-4.6,1.4C145.9,247.5,139,250.4,131.5,251.1z"/>
		<path class="st12" d="M214.8,202.8c2.8,1.2-1.7,5.1-1.3,6.8c-4.6,6.9-7.8,11.3-13.1,17.6c-2.6,3.2-3.1,6.6-1.5,10.4
			c1.6,4,5.2,5.5,9,3.7c3.3-1.5,6.2-3.7,8.4-6.6c1.4-1.6,2.9-3.2,5.4-2.5c-0.4,2.1-1.9,3.5-2.9,5.3c-1.8,2.9-4.7,4.2-7.6,5.6
			c-1.4,0.6-2.8,1.1-4.2,1.7c-1.7,1.4-3.4,1.6-5.1,0.2c-6.4-2.5-9.2-12.1-5.3-17.8c3.3-4.7,7.6-8.6,11-13.2
			C207.8,212,213.7,205.3,214.8,202.8z"/>
		<path class="st13" d="M49.5,165.3c0.6-0.1,1.2-0.1,1.9-0.2c0.8,4.8,1.6,9.6,3.7,14.1c3.5,7.5,1.5,14.9-1.4,22.2
			c-0.7,1.7-2.2,1.5-3.6,1.6c-0.3-0.7-1-1.3-0.8-2.2c4.5-7.3,4.9-14.9,1.5-22.7c-1.2-2.7-1.6-5.6-2.4-8.5
			C48,168.1,47.5,166.3,49.5,165.3z"/>
		<path class="st10" d="M221.7,232.2c-1.9,0.8-2.5,3.2-4.4,4c-0.4-0.4-0.6-1-0.4-1.5c1.7-4.1,3.1-8.5,5.4-12.2
			c2.5-4,4.3-8.2,6.6-12.3c1.2-2.2,1.7-4.7,3-6.9c1.2-2,2.1-4.4,5-4.6c0.5,0.2,0.9,0.6,1,1.2c-0.9,4.5-3.7,8.1-5.9,11.7
			C227.8,218.2,225.2,225.4,221.7,232.2z"/>
		<path class="st14" d="M131.5,251.1c7-2.4,13.5-6.5,21.2-6.8c0.7,1.4-0.6,2.2-1.3,2.5C145,249.5,138.9,253.3,131.5,251.1z"/>
		<path class="st15" d="M157,264.3c7.2-0.1,12.4-4.5,17.6-8.7c1.2-1,3-1.6,2.8-3.6c-0.7-1-0.4-2.1,0-3.1c0.4-1.1,1.1-0.8,1.6,0
			c2.4,2.9,0,5.6-1.6,6.7c-4.7,3.3-8.5,8.1-14.6,9.1c-2.7,0.5-16.8,3.3-19.5,3.8c-0.5-0.4-1-0.9-0.5-1.6
			C143.6,265.9,156,263.9,157,264.3z"/>
		<path class="st16" d="M60.2,239.4c2,1,3.2,3.3,5.7,3.5c0.7-0.9,1.8-0.8,2.7-0.7c4.3,0.5,8.1,2.1,11.1,5.4
			c-0.5,1.7,1.8,2.7,1.3,4.4c-6.2-1.4-12-4-16.8-8.2C62.9,242.5,60.6,241.8,60.2,239.4z"/>
		<path class="st17" d="M81.1,251.9c-0.7-0.6-1.3-1.4-2.3-1.6c-0.6-0.2-1.7,0-1.4-1.2c0.2-1,1.1-0.8,1.8-0.8
			c1.9-1.4,3.7,0.2,5.6,0.3c4.5,0.3,5.6-0.7,4.7-5c-0.2-1.1-0.5-2.1,0.5-3c1.3-0.5,1.7,0.7,2.5,1.2c1.5,2.9,2.5,5.6,0,8.6
			c-2.4,2.9-5.5,2.5-8.6,2.2C83,252.5,82.1,252.2,81.1,251.9z"/>
		<path class="st18" d="M221.7,186.6c-0.2-1.3,6.7-12.4,11.1-11.4c7.6,4,9.2,8.8,9.4,10.6c0.2,1.3,0.3,4.7-1,5.6
			c-2.1,0.5-4.5-5.6-4.9-7.1c-0.5-1.9-1.3-3.5-3.4-3.9c-2.3-0.4-3.3,1.2-4.4,2.7c-0.5,0.8-1,1.7-2.1,1.9
			C225.8,185.2,222.1,187.4,221.7,186.6z"/>
		<path class="st19" d="M49.8,201.2c0.1,0.6,0.2,1.2,0.3,1.8c-9.8-3-15-10.1-17.2-19.8c0.3,0.2,0.6,0.3,0.9,0.5
			c1.8-0.5,2.6,0.4,3.2,1.9c2.4,5.7,5.8,10.4,11.5,13.2C49.5,199.3,50,200,49.8,201.2z"/>
		<path class="st20" d="M141.7,268.3c-1.9,1.2-3.9,0.1-5.7-0.2c-5.3-0.9-10.8-0.6-15.8-3.2c0.2-0.7,0.7-0.8,1.3-0.5
			c3.3,1.1,6.7,0.2,10,0.9c0.8-0.2,1.5,0.1,1.9,0.7c1.6,0,3.1,0.7,4.7,0.2c1.4-1.3,2.4-0.8,3.4,0.6
			C141.9,267.3,142,267.7,141.7,268.3z"/>
		<path class="st21" d="M117.9,250.7c-0.4,0.8-0.5,1.6-0.2,2.4c-1.3,1.8-4.2,4.4-2.1,6.4c0.8,1.6,5.5,4.6,4.6,5.4
			c-0.5,0.4-5.3-2.9-5.9-3C110.8,257.2,112.5,252.1,117.9,250.7z"/>
		<path class="st18" d="M217.4,200.6c2.1-4.5,2.5-9.4,4.3-14c0.5-1.2,0.7-2,2.1-1.8c1,1.4,0.1,3.2,0.9,4.6
			c-1.1,3.7-6.2,11.4-7.2,15.1c-3,3-2.8,4.5-3.9,5.1c-0.7,0.4-2.7,2.1-3.2,1.3C209.7,210,216.7,201.3,217.4,200.6z"/>
		<path class="st22" d="M237.8,199.8c-0.3-0.2-0.6-0.5-0.9-0.7c-1.7-0.6-1.1-1.8-0.8-2.9c0.7-2,1.7-3.9,2.2-6c1.1-1.1,0.9-3.2,3-3.4
			c0.7,0.6,1,1.3,0.7,2.3C240.8,192.8,239.6,196.4,237.8,199.8z"/>
		<path class="st23" d="M179.1,248.9c-2,0.3-0.7,2.2-1.6,3.1c-1.1-0.3-1.6-1.1-1.3-2.2c1.2-3.7-0.7-4.9-4-5c-0.6,0-1.2-0.5-1.8-0.7
			c-0.1-0.5-0.3-0.9-0.4-1.4C173.9,243.4,178.1,243.9,179.1,248.9z"/>
		<path class="st14" d="M141.7,267c-1.2-0.2-2.4-0.5-3.6-0.7c-0.5-0.9-1.5-2.2,0-2.6c1.3-0.4,3-1.4,4.5,0.1c1.4,1.4-0.6,1.9-0.7,2.9
			C141.9,266.8,141.8,266.9,141.7,267z"/>
		<path class="st14" d="M211.2,243.1c2.7-1.7,4.7-4.2,7.6-5.6C218.2,242,214.7,242.5,211.2,243.1z"/>
		<path class="st14" d="M202,245c1.7,0.2,3.4,0.2,5.1-0.2c0.1,0.7,0.3,1.5,0.3,2.2c0,0.5-0.2,1.2-0.6,1.4c-0.7,0.5-1.2-0.1-1.5-0.7
			C204.5,246.4,202.3,246.9,202,245z"/>
		<path class="st14" d="M133.4,266.1c-0.6-0.2-1.3-0.5-1.9-0.7c0.1-0.2,0.3-0.3,0.4-0.5c0.8-0.8,0.5-3.5,2.4-2.2
			C136,263.7,134,265,133.4,266.1z"/>
		<path class="st14" d="M46.9,108.4c1.4,0.6,2.1,1.6,1.6,3c-0.5,1.3-1.4,1.9-2.8,1.1c0.3-0.6,0.9-1.1,0.4-1.7"/>
		<path class="st20" d="M115.5,261.4c1.6,1.2,3.2,2.3,4.7,3.5c-2.4-0.2-4.2-1.6-5.9-3C114.7,261.7,115.1,261.6,115.5,261.4z"/>
		<path class="st14" d="M157.2,242.8c1.1,0.1,2.2,0.1,3.3,0.2c0.1,1.5-0.9,1.5-1.9,1.5C157.5,244.5,156.9,244,157.2,242.8z"/>
		<path class="st24" d="M81.6,70.6c7.4-1.9,14.2-5.4,21.5-7.7c12.9-4,26.2-5.6,39.6-5.5c2.3,0,5.6-0.5,7.4,2.4
			c-0.1,0.8-0.7,0.5-1.2,0.7c-9-2.2-17.9-0.7-26.9,0.4c-12.5,1.5-24,6.1-35.5,10.6c-1.4,0.6-3.1,0.4-4.3,1.3
			C80.5,72.5,80.9,71.6,81.6,70.6z"/>
		<path class="st25" d="M109.4,77.3c-9.3,1.5-18.2,4.2-26.3,9c-3.1,1.8-6.5,2.4-10,2.5c-3.6,0.1-6.3-2.1-7.4-5.6
			c-0.6-1.7,0.2-2.6,1.7-3.4c0,5.6,2.7,7.6,7.6,6.9c3.6-0.6,6.8-2.1,10-3.7c4.3-2.3,8.5-4.6,13.6-4.9c1.1-0.1,8.7-3.7,10.6-2.6
			C109,76.1,109.7,76.6,109.4,77.3z"/>
		<path class="st26" d="M109.4,77.3c-0.5-0.5-1.2-1-0.4-1.8c4.4,0.2,13.4,5.3,14.9,6.5c8.2,6.3,13.2,9.5,20.7,12.8
			c1.3,0.6,2.9,0.2,3.8,1.6c0,0.7-0.3,1.1-1,1.3c-7.5-2.8-14.7-6.2-21-11.2c-4.5-3.6-8.8-7.4-14.9-7.9
			C110.9,78.5,110.2,77.7,109.4,77.3z"/>
		<path class="st27" d="M185.2,102.6c-0.2,0.7-0.3,1.4,0.2,1.9c-5.3-2.1-10.8-2.4-16.4-1.7c-2.1,0.2-4.2-0.7-6.4-1.1
			c-0.8-0.6-1.4-1.3-0.8-2.4c4.7,1.7,9.5,1,14.3,1C179.2,100.4,182.2,101.7,185.2,102.6z"/>
		<path class="st28" d="M161.8,99.4c0.3,0.8,0.5,1.6,0.8,2.4c-5.3-0.3-10.3-1.9-15-4.2c0.3-0.4,0.7-0.9,1-1.3
			C153,97.2,157.1,99.3,161.8,99.4z"/>
		<path class="st23" d="M148.9,60.5c0.4-0.2,0.8-0.4,1.2-0.7c5.2,2.5,11.1,3.5,16.1,6.6c-0.4,0.4-0.9,0.7-1.3,1.1
			C159.7,64.6,153.7,64.1,148.9,60.5z"/>
		<path class="st29" d="M81.6,70.6c0,0.8,0,1.5,0.5,2.2c-13.7,6.1-14.2,8-16.5,10.3c0.7-2.3-1.1-5.9,12.4-11.2
			C79.2,71.5,80.6,71.7,81.6,70.6z"/>
		<path class="st30" d="M90.1,240.6c0.5,1.8,1.9,3.3,1.7,5.5c-0.3,3.2-2.3,5.1-5.5,4.4c-2.4-0.5-5-0.5-7-2.2
			c-3.5-1.9-6.7-4.4-10.9-4.5c-0.9,0-1.6-0.6-2.4-1c-7-6-12.9-12.9-16.7-21.4c-1.2-2.7-1.7-5.4-0.8-8.3c1.3-4.4,5-5.6,8.6-2.8
			c4.7,3.6,8.7,7.9,12.7,12.2c5.3,5.7,11.5,10.2,17.6,15C88.4,238.4,89.3,239.5,90.1,240.6z"/>
		<path class="st30" d="M45.7,112.5c2.5-0.8,1.5-2.5,1.1-4.1c2.9-1.3,4.3,0.4,5,2.8c1.9,6.3,2,12.8,1.3,19.3
			c-0.8,6.9-3.6,13.4-3.9,20.4c-0.2,4.8-1.1,9.6,0.2,14.4c0.4,5.6,2.3,10.8,4.2,16c2.3,6.4,0.8,12.3-1.6,18.2
			c-0.4,1-1.3,1.4-2.3,1.6c-7.5-2.8-12.1-8.3-14.7-15.7c-0.2-0.7-0.9-1.2-1.3-1.8c-0.6-7-0.8-14-0.9-21c-0.1-2.5,0-4.9,0.7-7.4
			c1.2-4.4,0.7-9.1,1.4-13.6c0.8-4.9,2.3-9.5,3.3-14.2C39.6,121.8,42.5,117.2,45.7,112.5z"/>
		<path class="st30" d="M225.3,183.6c0.5-1,1.9-1.3,2.3-2.3c1.1-2.3,2.9-3.3,5.3-3c2.5,0.3,4.1,1.8,4.8,4.3c0.4,1.3,0.2,2.9,1.3,4
			c0,0,0-0.1,0-0.1c0.4,1.2-1.1,2.7,0.5,3.7c0,0,0,0,0,0c-0.1,3.2-2.1,5.8-2.5,8.9c-2.1,2.1-3.6,4.6-4.8,7.3
			c-2.2,5.1-3.8,10.6-6.9,15c-3.2,4.7-4,10.5-7.9,14.7c-2.6,3.4-6.1,5.5-10,7.1c-2.5,1-4.7,0.6-6.8-0.8c-3.8-2.5-5.8-10.1-3-13.7
			c5.5-7.3,11.3-14.2,17-21.3c1.3-0.7,2.7-1.3,4-2c1.9-0.9-0.1-2,0.1-3c1.1-3.3,2.4-6.6,3.2-9.9
			C222.1,191.1,222.2,187.8,225.3,183.6z"/>
	</g>
	<g>
		<path class="st31" d="M125.3,126.8c0-1.5,0-3.1,0-4.6c2.4-2.6,1.5-6.5,3.6-9.2c1.3,0.3,2.3,1.1,3.2,2.2c0.3,7.9,0.8,15.8,2.3,23.6
			c2.9,14.7,13.3,25.8,27.7,28.5c6.8,1.3,11.7-2.1,15.6-7.3c1.4-1.9,1.9-4.9,5.2-4.8c0.6,0.2,1.2,0.5,1.6,0.9
			c-0.9,8.1-7.6,15.5-15.3,16.8c-13.6,2.2-24-3.3-32.3-13.5c-5.3-6.6-8.6-14.2-9.5-22.8C127.2,133.3,126.9,129.9,125.3,126.8z"/>
		<path class="st19" d="M130.3,115.6c-0.4-0.9-0.9-1.8-1.3-2.6c4.5-11,15.3-12.4,24-8.3c7.1,3.3,13.6,7.3,19.2,12.8
			c4.8,4.7,7.8,10.4,10.1,16.4c2.4,6.2,4.2,12.7,3.7,19.6l0,0c-0.4,0.8-0.9,1.6-1.3,2.5c-0.5,0-1,0-1.4,0c-2.5-1.2-2.6-3.5-2.9-5.9
			c-2.5-18.8-12.5-31.9-29.9-39.4c-6.1-2.6-11.4-2.7-15.7,2.9C133.5,115.1,132.2,116,130.3,115.6z"/>
		<path class="st32" d="M122.8,237c-1.5,1.2-3.1,1.2-4.8,0.5c-6.1-2.7-11.3-6.6-13.8-13c-4.2-10.7-7.9-21.6-12.1-32.3
			c-2.8-7.2-4.1-14.5-3.3-22.2c2.8-0.5,4.3,1.2,5.4,3.4c2.5,13.1,7.3,25.4,11.6,37.9c2.9,8.6,6.7,16.3,14.6,21.4
			c0.9,0.6,1.4,1.5,1.8,2.5C122.6,235.8,122.7,236.4,122.8,237z"/>
		<path class="st33" d="M117.6,167.5c16.7,12.5,25,29.5,26.1,50c0.3,5.7-1.8,11.1-7.1,14.6c-1-0.4-1.5-1.2-1.8-2.1
			c-0.2-0.4-0.4-0.9-0.3-1.2c7.3-20.4-1.1-36.2-14.7-50.6c-2.4-2.6-6.5-4.4-5.5-9.2C115,167.6,116.5,167.9,117.6,167.5z"/>
		<path class="st10" d="M117.6,167.5c-0.9,0.5-1.8,0.9-2.8,1.4c-1.8,2.1-3.6,1.1-5.5,0.1c-10.3-5.4-10.4-5.3-16.1,4.5
			c-0.4,0.7-1.2,1.1-1.9,1.6c-1.5-1.3-1.5-3.5-2.5-5c0.1-0.4,0.1-0.8,0.3-1.2c4.4-11.3,13.1-13.7,22.8-6.2
			C113.9,164.2,115.7,165.9,117.6,167.5z"/>
		<path class="st9" d="M136.6,229.3c0,0.9,0,1.9,0.1,2.8c-4,3.5-8.8,4.6-13.8,4.9c-0.5,0-1-0.1-1.4-0.1
			C121.1,229.3,126.6,226.7,136.6,229.3z"/>
		<path class="st34" d="M120.2,95.4c1.1,5.1,1.5,10-0.7,15.1c-1.4,3.1,0.2,7-1.8,10.2C117.6,112.2,118.2,103.7,120.2,95.4z"/>
		<path class="st34" d="M177.1,223.1c1.6-3.6,1.2-7.3,1.3-11.1c0.1-3.1-0.5-6.3,1.3-9.2c0,4.8,0,9.5,0,14.3
			C179.6,219.5,179.5,221.8,177.1,223.1z"/>
		<path class="st34" d="M160.7,245.8c0.2-0.6,0.6-1.1,0.7-1.7c0.7-3.8,2.9-3.8,5.7-2.1C165.1,243.7,163.2,245.2,160.7,245.8z"/>
		<path class="st34" d="M141.7,247.1c3.8-1.8,7.6-1.8,11.4,0C149.3,247.1,145.5,247.1,141.7,247.1z"/>
		<path class="st34" d="M148,211.7c1.7,3.4,1.7,6.7,0,10.1C148,218.4,148,215.1,148,211.7z"/>
		<path class="st34" d="M132.8,91.6c-3.4,0-6.7,0-10.1,0C126.1,89.9,129.5,89.9,132.8,91.6z"/>
		<path class="st34" d="M101.2,115.6c-1.4-2.1-1.4-4.2,0-6.3C101.2,111.4,101.2,113.5,101.2,115.6z"/>
		<path class="st34" d="M107.6,156.1c2.1-1.4,4.2-1.4,6.3,0C111.8,156.1,109.7,156.1,107.6,156.1z"/>
		<path class="st34" d="M91.1,213c0.8-1.1,1.2-2.4,1.3-3.8C93.2,210.8,94.8,212.8,91.1,213z"/>
		<path class="st34" d="M120.2,242c-0.4,1.3-0.8,2.5-1.3,3.8C117.8,244,118.3,242.8,120.2,242z"/>
		<path class="st34" d="M113.9,125.7c0,1.8-0.2,3.5-1.3,5.1C112.6,129,112.8,127.3,113.9,125.7z"/>
		<path class="st34" d="M130.3,115.6c4.6-10.1,10.7-12.5,20.7-7.9c5.7,2.6,11.2,5.4,16,9.7c11.6,10.4,16.6,23.4,16.2,38.7
			c-2.3,5.8-5.3,10.6-11.6,13.4c-3.2,1.4-6,1.7-9.1,1.3c-14.9-2-28-14.7-30.8-29.6c-0.8-4.1-1.5-8.3-2.3-12.4
			C128.7,124.3,129.2,120,130.3,115.6z"/>
		<path class="st34" d="M136.6,229.3c-1.5,1.2-3.1,2-5,2.2c-2.4,0.3-5.8-1.6-6.1,3.3c-0.1,1.1-3.1,0.6-4.2,2.1
			c-9.5-5.2-15.2-13.3-18.1-23.7c-1.8-6.2-4.3-12.2-6.7-18.2c-2.6-6.4-3.3-13.3-5.2-20c0-1.7-0.2-3.4,0-5c0.8-6.6,6.5-9.8,12.8-7.6
			c4.1,1.4,6.7,4.8,10.6,6.5c4.9,4.9,9.7,9.9,14.2,15.1c3.2,3.7,6.2,7.5,7.4,12.3c1.8,7.5,5,14.7,4.3,22.7
			C140.4,222.9,139.3,226.4,136.6,229.3z"/>
		<path class="st35" d="M160.6,138.1c4.6,3.8,6.1,8.8,6.3,14.3c0.1,1.7-0.1,1.7-4.2,4.3C164.1,149.9,162.3,144.1,160.6,138.1z"/>
		<path class="st36" d="M115.6,197.3c2.6,3.1,3.6,6.7,4.3,10.3c0.2,1-0.1,2.2-1.3,2.5c-1.4,0.3-1.8-0.8-2-1.9
			C116.2,204.6,115.9,201,115.6,197.3z"/>
	</g>
	<g>
		<path class="st37" d="M331.1,222.1c0.6,3.9-0.9,7.6-1,11.4c-0.3,12.1,1.8,23.7,4.8,35.4c5.5,21.5,17,39.9,29.1,58
			c4.9,7.4,9.8,14.9,17,20.3c3.4,2.5,7,4.8,10.1,7.6c-8.8-2.7-17.2-5.7-22.2-14.7c-2.8-5.1-6.1-10.3-10.8-14.2
			c-2.8-2.4-4.7-5.5-6.1-8.8c-4-9.4-10.4-17.3-14.6-26.6c-9.4-21.2-14.1-43.2-11.5-66.4c0.2-1.7,0.7-3.3,1.1-4.9
			C329.8,218.3,330,220.8,331.1,222.1z"/>
		<path class="st38" d="M441.9,351.6c0,0.5,0,1,0,1.4c-0.2,5.2,0.2,6,5.4,5.4c7.1-0.9,14.4-1,21.2-3.4c17.7-6.2,34.6-13.8,49.9-24.8
			c6.7-4.8,11.9-11,17-17.4c0.7-0.9,1.3-2,2-3c0.6-0.8,1.3-1.6,2.4-1c1.3,0.6,1.5,1.9,1,3.1c-0.6,1.5-1.4,3.1-2.3,4.4
			c-6.1,8.5-14,15.1-22.7,20.7c-17.5,11.2-36.4,19.4-56.8,23.2c-13.1,2.4-26.6,2.6-40,1.6c-2.8-0.2-4.9-1.5-5.5-5.1
			c3.4,0.3,6.3,1.6,9.3,2c7.1,0.9,12.8-0.4,16.5-6.9C440.1,350.9,441,350.9,441.9,351.6z"/>
		<path class="st39" d="M541.1,218.1c-1.8-4.2-3.7-8.3-5.3-12.6c-3-8.3-7.6-15.2-14.3-21.1c-7.1-6.3-12.3-14.6-19.4-21
			c-2.3-2.1-4.5-4.2-7.4-5.5c-1.7-0.8-3.5-1.7-4.9-3c-7.5-7.2-16.9-10.5-26.6-13.4c-1.5-0.5-3.4-0.4-4-2.4c0.6-1.6,1.8-1.3,3-1.1
			c9.9,2.2,19.2,5.6,27.4,11.9c6.3,4.7,13.5,8.3,19,14c3,3,6.8,5.4,7.7,10c0.1,0.7,0.4,1.6,0.9,1.9c14.5,9.7,19.3,25.6,25.7,40.4
			C542.7,217.3,542.2,218,541.1,218.1z"/>
		<path class="st40" d="M370.3,259.3c5.1,4.3,9.1,9.6,14.7,13.5c4.3,3,5.1,9.1,6.3,14.1c1.5,6.3,4.4,12.1,6.4,18.2
			c1.3,3.9,4.2,6.9,7.5,9.4c0.8,0.6,1.7,0.9,2.4,1.5c10.3,8.9,22.5,11.8,35.7,11.4c1.3,1.3,1.4,2.6-0.1,3.9
			c-0.4,0.1-0.8,0.1-1.1,0.2c-1.8-1.3-4.1,0.1-5.9-1.1c-11.7,2.8-19.9-4.6-28.7-9.9c-8.1-4.9-12.8-12.8-15.2-21.7
			c-2.8-10.4-6.8-19.6-16-26.1c-2.8-2-5.4-4.8-6.4-8.4C368.2,262.4,366,260.7,370.3,259.3z"/>
		<path class="st41" d="M332.6,191.9c0.3-2.2,1.4-4.1,2.7-5.8c5.5-7.2,9.6-15.3,15.8-22c1.3-1.4,2.5-2.8,4.1-4
			c6.8-4.8,13.6-9.6,20.4-14.4c4.4-3.2,9.5-4.3,14.6-5.7c0.6,0.7,1.6,0.8,1.8,1.8c-13.6,5.2-25.4,13.5-36,23.1
			c-7.2,6.5-12.6,14.9-16.2,24.2c-0.7,1.5-0.5,3.2-0.9,4.8c-0.5,1.8-1.5,3.1-3.5,3.4c-1.6,0-2.6-0.9-3.3-2.4
			C331.9,193.9,331.8,192.8,332.6,191.9z"/>
		<path class="st42" d="M545.9,226.3c1.1,6.1,2,12.2,1.8,18.4c0,1.2-0.4,2.5,0,3.5c3.3,8.2,3.2,16.8,3.2,25.3c0,10-1,20-4.4,29.5
			c-0.6,1.8-1.8,3.8-4.2,2.6c-2.4-1.2-1.4-3.5-0.3-5c4.9-7.1,4.9-15,4.6-23.1c-0.1-3.3-0.6-6.8,0.3-10c1.4-5.2,0.4-9.8-1.3-14.6
			c-1.6-4.4-1.7-8.9-0.9-13.4c0.5-2.8,0-5.2-1.6-7.4C544.2,230.3,543.3,227.4,545.9,226.3z"/>
		<path class="st43" d="M505.5,278.4c-6.5,8.5-12.4,17.6-19.7,25.4c-5.9,6.3-12.8,11.9-19.2,18c-1.4,0.3-1.9-0.3-1.5-1.6
			c13.7-13.2,26.4-27.3,38.2-42.2c0.4-0.5,0.6-1.3,0.9-1.9C506.6,275.6,506.4,276.8,505.5,278.4z"/>
		<path class="st44" d="M370.3,259.3c-1.2,1.5-0.9,3.2-0.3,4.8c-2.5-0.4-4.5-1.7-5.4-4c-2-4.9-5.2-9-8.1-13.3c-2-3-2.4-6.5-2.4-10.2
			c2.1,0.6,1.8,4,4.5,2.9l-0.1,0C359.4,247.9,364.4,253.9,370.3,259.3z"/>
		<path class="st45" d="M344.5,196c5.2,0.1,10.3,1,15.5,0.4l-0.1-0.1c-2.5,1.7-5,2.6-3.2,7.2c2.2,5.8,2.2,12.4,3.2,18.6
			c-1.7,1.1-2-0.5-2.7-1.4c-0.6-3.8-1.4-7.5-1.9-11.3c-1.1-8.4-2-9.4-10.5-9.9c-1.2-0.1-2.4-0.1-3.6-0.2
			C340.8,196.6,342,195.7,344.5,196z"/>
		<path class="st46" d="M392,141.9c-0.6-0.6-1.2-1.2-1.8-1.8c11.2-3.7,22.7-6.3,34.6-5.7c1,1.7-0.4,2.1-1.4,2.7
			C412.6,136.4,402.5,140.6,392,141.9z"/>
		<path class="st41" d="M423.4,137.1c0.5-0.9,0.9-1.8,1.4-2.7c9.4-1.4,18.6-0.1,27.8,1.4c1.2,0.2,2.6,0.6,2.5,2
			c-0.2,2-1.9,1.8-3.3,1.5c-4.4-1.1-8.9-1.7-13.5-2.2C433.4,136.5,428.4,136.2,423.4,137.1z"/>
		<path class="st47" d="M506.8,250.9c0,2.8,0,5.6,0,8.4c-4-9.4-2.9-19.1-3.3-28.8c-0.2-5,4.1-5.8,7.8-6.9c1.7,1.3,5-0.3,5.7,2.9
			c-2.1,1.1-4.2-0.1-6.3,0c-3.9,0.3-5.1,1.5-4,5.3c0.8,3.1,0.6,5.6-0.7,8.7C504.6,243.9,505.2,247.7,506.8,250.9L506.8,250.9z"/>
		<path class="st37" d="M332.6,191.9c0,1,0.1,2,0.1,3c0.8,1.3,1.7,1.9,3.5,1.8c2.8-0.1,4,1.2,2.3,4l0-0.1c-3.8,4.1-7.2,8.5-8.2,14.2
			c-0.3,1.5-0.7,3.4-3,3.2C326.1,208.7,330,200.5,332.6,191.9z"/>
		<path class="st48" d="M499.6,219.4c-2.6-2.9-5.5-5.5-8.8-7.4c-3.7-2.1-6.4-5-8.4-8.6l-0.1,0.1c3.9,0.3,7,1.8,9.7,5
			c1.9,2.3,4.9,3.6,7.4,5.4c1.4,1,2.8,1.9,2,3.9C501.5,219.1,501.1,219.8,499.6,219.4z"/>
		<path class="st49" d="M443.3,331.3c0-1.3,0.1-2.6,0.1-3.9c3.4-1.5,6.8-2.9,10.2-4.4c0.5,0.4,1.1,0.7,1.9,0.6
			c1.6-0.2,3.8-0.7,3.9,1.4c0.1,2.3-2.2,2.4-4.1,2.3c-3.4-1.6-4.9,0.3-5.9,3.1c-1,2.9-2.1,5.9-4.2,8.3c-0.7,0.8-1.2,0.7-1.7-0.3
			C444,336.1,445.2,333.6,443.3,331.3z"/>
		<path class="st50" d="M426.1,169.1c-7.9-2.6-15.7,0.8-24.4,1.4c4.5-5.5,9-6.8,14.7-5.3c3.4,0.9,7,1.5,10,3.6L426.1,169.1z"/>
		<path class="st51" d="M327.3,218c0.8-1.7,2.2-3.4,2.3-5c0.1-6.4,4.1-9.6,9-12.4c-0.3,0.9-0.4,2-1,2.6c-5,5.4-6.6,11.8-6.4,18.9
			c-1.4-1-2.7-1.9-4.1-2.9C327.1,218.8,327.2,218.4,327.3,218z"/>
		<path class="st32" d="M482.4,203.5c-4.5-1.2-7.5-4.6-10.9-7.4c-2.7-2.2-5.3-4.6-8-6.9c-0.2-1.3,0.3-2,1.7-1.7
			C470.6,193.1,478.4,196.3,482.4,203.5C482.3,203.5,482.4,203.5,482.4,203.5z"/>
		<path class="st39" d="M455.2,327.4c5.8-3.8-1.6-2.7-1.6-4.4c3.7-1.6,7.9-1,11.5-2.9c0.5,0.5,1,1.1,1.5,1.6
			C463.7,325.3,461.3,330.1,455.2,327.4z"/>
		<path class="st52" d="M433.5,171.5c6.1,1.4,11.6,4.4,17.1,7.3c2.3,1.2,4.8,2.3,7.1,3.4c-0.6,3.1-2.6,1.7-4.3,1.3
			c-6.8-3.8-13.6-7.6-20.4-11.4L433.5,171.5z"/>
		<path class="st53" d="M338.5,200.7c-0.4-1.4-1.2-2.8-2.7-2.4c-3.4,0.9-3.1-1.2-3-3.3c1,0.4,2.1,0.8,3.1,1.1c1.6-1,2.9-2,1.2-4
			c0.7-1.2,1.6-2.3,2.8-3c1.6,2.3,3.1,4.6,4.7,6.9c-1.3,0.8-2.4,1.9-3.2,3.3C340.5,200.1,339.6,200.6,338.5,200.7z"/>
		<path class="st54" d="M453.5,183.5c1.4-0.4,2.8-0.9,4.3-1.3c0.8-1.8,2-2.1,3.2-0.5c1.5,1.9,2.8,3.8,4.2,5.8
			c-0.5,0.6-1.1,1.2-1.7,1.7C459.6,188.3,456.5,185.9,453.5,183.5z"/>
		<path class="st55" d="M517,226.7c-1.9-1-3.8-2-5.7-2.9c5.9-1.2,11.3,1.3,17.1,1.8C524.8,228.3,521,228,517,226.7z"/>
		<path class="st43" d="M545.9,226.3c-0.5,2.2-1.3,4.2-2.9,5.9c-0.5-3.6,0.2-7.4-2.2-10.7c-0.7-1,0.1-2.2,0.3-3.3
			c0.6-0.6,1.3-1.2,1.9-1.8C543.9,219.6,544.9,222.9,545.9,226.3z"/>
		<path class="st56" d="M380.2,181.9c4.3-4.4,9.6-7,15.3-9c-3.8,5.5-10,7.3-15.4,10.4c-0.5-0.3-0.7-0.6-0.5-0.9
			C379.8,182.1,380,181.9,380.2,181.9z"/>
		<path class="st48" d="M360,196.4c3.7-3.9,8.4-6.5,12.7-9.5C370.9,191.8,367.6,194.1,360,196.4C359.9,196.3,360,196.4,360,196.4z"
			/>
		<path class="st44" d="M357.2,220.7c0.9,0.5,1.8,0.9,2.7,1.4c1,5.9,1.4,11.8-1.3,17.4c0,0,0.1,0,0.1,0
			C359.1,233.2,357.8,227,357.2,220.7z"/>
		<path class="st11" d="M443.4,338.5c0.6,0.1,1.1,0.2,1.7,0.3c-1.1,4.3-2.1,8.6-3.2,12.8c-0.9,0-1.8,0.1-2.7,0.1
			C440.6,347.3,442,342.9,443.4,338.5z"/>
		<path class="st37" d="M397.2,356.7c2.8,0.6,5.7,0.4,8.2,2.4C401.2,360,401.2,360,397.2,356.7z"/>
		<path class="st57" d="M506.7,272.5c0-3,0.4-5.9,2.9-9.5c0.9,4.6,0,7.4-2.5,9.8L506.7,272.5z"/>
		<path class="st47" d="M506.9,251c-0.1-1.9-0.5-3.8,0.8-5.5C510,249.1,510,249.1,506.9,251C506.8,250.9,506.9,251,506.9,251z"/>
		<path class="st47" d="M499.6,219.4c0.6-0.5,1.2-1.1,1.8-1.6c1.4,1.2,2.7,2.4,4.6,4.1C502.5,222.6,501.2,220.6,499.6,219.4z"/>
		<path class="st50" d="M433.1,172.1c-2.7-0.2-5-1.1-7-3c0,0,0.2-0.3,0.2-0.3c2.7,0,5.1,0.9,7.2,2.7
			C433.4,171.7,433.3,171.9,433.1,172.1z"/>
		<path class="st57" d="M505.5,278.4c-0.4-0.8-0.9-1.6-1.3-2.5c0.4-1.4,1.3-2.6,2.5-3.4c0,0,0.3,0.3,0.3,0.3
			C507,274.7,506.9,276.7,505.5,278.4z"/>
		<path class="st32" d="M380.2,181.9c0,0.4,0,0.9,0,1.3c-0.9,0.1-2.2,1.7-2.5-0.1C377.4,182,379.1,182,380.2,181.9z"/>
		<path class="st49" d="M436.3,330.3c2.1-0.2,4.1,0,5.9,1.1C440.1,331.6,438.1,331.4,436.3,330.3z"/>
		<path class="st58" d="M337,192.1c1.4,0.7,3.2,1.7,2.6,3.4c-0.5,1.3-2.4,0.6-3.7,0.6C336.2,194.8,336.6,193.4,337,192.1z"/>
	</g>
</g>
<g id="labels">
	<g>
		<path d="M594.6,253.5l4.3-11.6h1.5l4.3,11.6h-1.5l-1.2-3.3h-4.7l-1.2,3.3H594.6z M601.5,248.9l-1.9-5.2h-0.1l-1.9,5.2H601.5z"/>
		<path d="M611.2,247c-0.2-0.6-0.7-1.2-1.9-1.2c-1.1,0-1.9,0.5-1.9,1.3c0,0.7,0.5,1,1.5,1.3l1.3,0.3c1.6,0.4,2.3,1.1,2.3,2.4
			c0,1.5-1.4,2.6-3.4,2.6c-1.8,0-3-0.8-3.3-2.3l1.3-0.3c0.2,0.9,0.9,1.4,2,1.4c1.2,0,2-0.6,2-1.4c0-0.6-0.4-1-1.3-1.2l-1.5-0.3
			c-1.6-0.4-2.3-1.2-2.3-2.4c0-1.5,1.4-2.5,3.2-2.5c1.7,0,2.7,0.8,3.1,2.1L611.2,247z"/>
		<path d="M614.2,249.1c0-2.7,1.6-4.5,3.9-4.5c1.8,0,3.2,1.1,3.5,2.7h-1.3c-0.2-0.8-0.9-1.5-2.1-1.5c-1.6,0-2.6,1.3-2.6,3.3
			c0,2,1,3.3,2.6,3.3c1,0,1.8-0.6,2.1-1.5h1.3c-0.2,1.5-1.5,2.7-3.4,2.7C615.7,253.6,614.2,251.7,614.2,249.1z"/>
		<path d="M623.2,249.2c0-2.7,1.6-4.5,3.9-4.5c1.8,0,3.7,1.1,3.7,4.4v0.6h-6.3c0.1,1.9,1.1,2.9,2.7,2.9c1.1,0,1.8-0.5,2.2-1.4
			l1.3,0.4c-0.4,1.3-1.7,2.2-3.5,2.2C624.7,253.6,623.2,251.8,623.2,249.2z M629.5,248.4c0-1.5-0.9-2.6-2.4-2.6
			c-1.5,0-2.5,1.2-2.6,2.6H629.5z"/>
		<path d="M634.2,253.5h-1.3v-8.7h1.3v1.4h0.1c0.4-0.9,1.2-1.5,2.5-1.5c1.8,0,3,1.1,3,3.3v5.5h-1.3V248c0-1.4-0.8-2.2-2-2.2
			c-1.3,0-2.2,0.9-2.2,2.4V253.5z"/>
		<path d="M641.8,249.1c0-2.7,1.5-4.5,3.7-4.5c1.7,0,2.2,1,2.5,1.5h0.1v-4.3h1.3v11.6h-1.3v-1.3h-0.2c-0.3,0.5-0.9,1.5-2.5,1.5
			C643.4,253.6,641.8,251.9,641.8,249.1z M648.2,249.1c0-2-0.9-3.3-2.5-3.3c-1.7,0-2.5,1.4-2.5,3.3c0,1.9,0.9,3.3,2.5,3.3
			C647.3,252.4,648.2,251.1,648.2,249.1z"/>
		<path d="M651.9,242.4c0-0.5,0.4-0.9,1-0.9s1,0.4,1,0.9s-0.4,0.9-1,0.9S651.9,242.9,651.9,242.4z M652.2,244.7h1.3v8.7h-1.3V244.7z
			"/>
		<path d="M657.3,253.5H656v-8.7h1.3v1.4h0.1c0.4-0.9,1.2-1.5,2.5-1.5c1.8,0,3,1.1,3,3.3v5.5h-1.3V248c0-1.4-0.8-2.2-2-2.2
			c-1.3,0-2.2,0.9-2.2,2.4V253.5z"/>
		<path d="M665.3,255.2l1.1-0.8c0.4,0.5,0.9,1.3,2.5,1.3c1.4,0,2.4-0.7,2.4-2.1v-1.8h-0.1c-0.3,0.5-0.8,1.5-2.5,1.5
			c-2.1,0-3.7-1.5-3.7-4.3c0-2.7,1.5-4.4,3.7-4.4c1.7,0,2.2,1,2.5,1.5h0.1v-1.4h1.3v9c0,2.2-1.7,3.2-3.8,3.2
			C666.9,256.9,665.8,256.1,665.3,255.2z M671.3,249c0-1.9-0.9-3.2-2.5-3.2c-1.7,0-2.5,1.4-2.5,3.2c0,1.8,0.9,3.1,2.5,3.1
			C670.4,252.1,671.3,251,671.3,249z"/>
		<path d="M599.2,265.1h-1.9v5.1c0,1.1,0.6,1.3,1.2,1.3c0.3,0,0.5,0,0.6-0.1l0.3,1.2c-0.2,0.1-0.5,0.2-1,0.2c-1.1,0-2.4-0.7-2.4-2.2
			v-5.4h-1.3v-1.1h1.3v-2.1h1.3v2.1h1.9V265.1z"/>
		<path d="M602.8,272.7h-1.3V261h1.3v4.3h0.1c0.4-0.9,1.2-1.5,2.6-1.5c1.8,0,3,1,3,3.3v5.5h-1.3v-5.4c0-1.4-0.8-2.2-2-2.2
			c-1.3,0-2.3,0.9-2.3,2.4V272.7z"/>
		<path d="M610.6,261.6c0-0.5,0.4-0.9,1-0.9s1,0.4,1,0.9s-0.4,0.9-1,0.9S610.6,262.1,610.6,261.6z M610.9,263.9h1.3v8.7h-1.3V263.9z
			"/>
		<path d="M616,272.7h-1.3v-8.7h1.3v1.4h0.1c0.4-0.9,1.2-1.5,2.5-1.5c1.8,0,3,1.1,3,3.3v5.5h-1.3v-5.4c0-1.4-0.8-2.2-2-2.2
			c-1.3,0-2.2,0.9-2.2,2.4V272.7z"/>
		<path d="M629.9,272.7h-1.3V261h1.3V272.7z"/>
		<path d="M632.1,261.6c0-0.5,0.4-0.9,1-0.9s1,0.4,1,0.9s-0.4,0.9-1,0.9S632.1,262.1,632.1,261.6z M632.4,263.9h1.3v8.7h-1.3V263.9z
			"/>
		<path d="M636.2,263.9h1.3v1.4h0.1c0.4-0.9,1.2-1.5,2.3-1.5c1.1,0,1.9,0.5,2.3,1.5h0.1c0.4-0.9,1.4-1.5,2.6-1.5
			c1.6,0,2.7,0.9,2.7,3v5.8h-1.3v-5.8c0-1.3-0.8-1.8-1.8-1.8c-1.2,0-1.9,0.8-1.9,2v5.7h-1.4v-6c0-1-0.7-1.7-1.7-1.7
			c-1,0-2,0.9-2,2.2v5.4h-1.3V263.9z"/>
		<path d="M650.2,261h1.3v4.3h0.1c0.3-0.5,0.8-1.5,2.5-1.5c2.2,0,3.7,1.7,3.7,4.5c0,2.8-1.5,4.5-3.7,4.5c-1.7,0-2.2-1-2.5-1.5h-0.2
			v1.3h-1.3V261z M654.1,271.6c1.7,0,2.5-1.5,2.5-3.3c0-1.8-0.8-3.3-2.5-3.3c-1.6,0-2.5,1.3-2.5,3.3
			C651.6,270.3,652.4,271.6,654.1,271.6z"/>
		<path d="M664.1,268.3c0-2.7,1.6-4.5,3.9-4.5c1.8,0,3.2,1.1,3.5,2.7h-1.3c-0.2-0.8-0.9-1.5-2.1-1.5c-1.6,0-2.6,1.3-2.6,3.3
			c0,2,1,3.3,2.6,3.3c1,0,1.8-0.6,2.1-1.5h1.3c-0.2,1.5-1.5,2.7-3.4,2.7C665.6,272.8,664.1,270.9,664.1,268.3z"/>
		<path d="M673,268.4c0-2.7,1.6-4.5,3.9-4.5c1.8,0,3.7,1.1,3.7,4.4v0.6h-6.3c0.1,1.9,1.1,2.9,2.7,2.9c1,0,1.8-0.5,2.2-1.4l1.3,0.4
			c-0.4,1.3-1.7,2.2-3.5,2.2C674.6,272.8,673,271,673,268.4z M679.3,267.6c0-1.5-0.9-2.6-2.4-2.6c-1.5,0-2.5,1.2-2.6,2.6H679.3z"/>
		<path d="M684.1,272.7h-1.3V261h1.3V272.7z"/>
		<path d="M687.9,272.7h-1.3V261h1.3V272.7z"/>
	</g>
	<line class="st59" x1="197.7" y1="95.4" x2="259.6" y2="95.4"/>
	<line class="st60" x1="197.7" y1="94.4" x2="259.6" y2="94.4"/>
	<g>
		<path d="M270.1,98.5l4.3-11.6h1.5l4.3,11.6h-1.5l-1.2-3.3h-4.7l-1.2,3.3H270.1z M277,94l-1.9-5.2H275l-1.9,5.2H277z"/>
		<path d="M286.7,92.1c-0.2-0.6-0.7-1.2-1.9-1.2c-1.1,0-1.9,0.5-1.9,1.3c0,0.7,0.5,1,1.5,1.3l1.3,0.3c1.6,0.4,2.3,1.1,2.3,2.4
			c0,1.5-1.4,2.6-3.4,2.6c-1.8,0-3-0.8-3.3-2.3l1.3-0.3c0.2,0.9,0.9,1.4,2,1.4c1.2,0,2-0.6,2-1.4c0-0.6-0.4-1-1.3-1.2l-1.5-0.3
			c-1.6-0.4-2.3-1.2-2.3-2.4c0-1.5,1.4-2.5,3.2-2.5c1.7,0,2.7,0.8,3.1,2.1L286.7,92.1z"/>
		<path d="M289.7,94.2c0-2.7,1.6-4.5,3.9-4.5c1.8,0,3.2,1.1,3.5,2.7h-1.3c-0.2-0.8-0.9-1.5-2.1-1.5c-1.6,0-2.6,1.3-2.6,3.3
			c0,2,1,3.3,2.6,3.3c1,0,1.8-0.6,2.1-1.5h1.3c-0.2,1.5-1.5,2.7-3.4,2.7C291.2,98.7,289.7,96.8,289.7,94.2z"/>
		<path d="M298.6,94.2c0-2.7,1.6-4.5,3.9-4.5c1.8,0,3.7,1.1,3.7,4.4v0.6H300c0.1,1.9,1.1,2.9,2.7,2.9c1,0,1.8-0.5,2.2-1.4l1.3,0.4
			c-0.4,1.3-1.7,2.2-3.5,2.2C300.2,98.7,298.6,96.9,298.6,94.2z M304.9,93.4c0-1.5-0.9-2.6-2.4-2.6c-1.5,0-2.5,1.2-2.6,2.6H304.9z"
			/>
		<path d="M309.7,98.5h-1.3v-8.7h1.3v1.4h0.1c0.4-0.9,1.2-1.5,2.5-1.5c1.8,0,3,1.1,3,3.3v5.5h-1.3v-5.4c0-1.4-0.8-2.2-2-2.2
			c-1.3,0-2.2,0.9-2.2,2.4V98.5z"/>
		<path d="M317.3,94.2c0-2.7,1.5-4.5,3.7-4.5c1.7,0,2.2,1,2.5,1.5h0.1v-4.3h1.3v11.6h-1.3v-1.3h-0.2c-0.3,0.5-0.9,1.5-2.5,1.5
			C318.8,98.7,317.3,96.9,317.3,94.2z M323.7,94.1c0-2-0.9-3.3-2.5-3.3c-1.7,0-2.5,1.4-2.5,3.3c0,1.9,0.9,3.3,2.5,3.3
			C322.8,97.5,323.7,96.1,323.7,94.1z"/>
		<path d="M327.4,87.4c0-0.5,0.4-0.9,1-0.9s1,0.4,1,0.9s-0.4,0.9-1,0.9S327.4,87.9,327.4,87.4z M327.6,89.8h1.3v8.7h-1.3V89.8z"/>
		<path d="M332.8,98.5h-1.3v-8.7h1.3v1.4h0.1c0.4-0.9,1.2-1.5,2.5-1.5c1.8,0,3,1.1,3,3.3v5.5H337v-5.4c0-1.4-0.8-2.2-2-2.2
			c-1.3,0-2.2,0.9-2.2,2.4V98.5z"/>
		<path d="M340.7,100.2l1.1-0.8c0.4,0.5,0.9,1.3,2.5,1.3c1.4,0,2.4-0.7,2.4-2.1v-1.8h-0.1c-0.3,0.5-0.8,1.5-2.5,1.5
			c-2.1,0-3.7-1.5-3.7-4.3c0-2.7,1.5-4.4,3.7-4.4c1.7,0,2.2,1,2.5,1.5h0.1v-1.4h1.3v9c0,2.2-1.7,3.2-3.8,3.2
			C342.4,102,341.3,101.1,340.7,100.2z M346.8,94.1c0-1.9-0.9-3.2-2.5-3.2c-1.7,0-2.5,1.4-2.5,3.2c0,1.8,0.9,3.1,2.5,3.1
			C345.9,97.2,346.8,96,346.8,94.1z"/>
		<path d="M358.9,98.5h-1.4l-3.2-8.7h1.5l2.4,6.9h0.1l2.4-6.9h1.5L358.9,98.5z"/>
		<path d="M363.3,96c0-2,1.8-2.4,3.4-2.6c1.6-0.2,2.2-0.1,2.2-0.8v0c0-1.1-0.6-1.8-1.8-1.8c-1.3,0-2,0.7-2.3,1.3l-1.3-0.5
			c0.7-1.6,2.2-2,3.5-2c1.1,0,3.2,0.3,3.2,3.1v5.7h-1.3v-1.2h-0.1c-0.3,0.6-1.1,1.4-2.6,1.4C364.6,98.7,363.3,97.7,363.3,96z
			 M368.9,95.3v-1.2c-0.2,0.3-1.7,0.4-2.3,0.5c-1,0.1-2,0.5-2,1.5c0,0.9,0.8,1.4,1.8,1.4C368,97.5,368.9,96.4,368.9,95.3z"/>
		<path d="M377.7,92.1c-0.2-0.6-0.7-1.2-1.9-1.2c-1.1,0-1.9,0.5-1.9,1.3c0,0.7,0.5,1,1.5,1.3l1.3,0.3c1.6,0.4,2.3,1.1,2.3,2.4
			c0,1.5-1.4,2.6-3.4,2.6c-1.8,0-3-0.8-3.3-2.3l1.3-0.3c0.2,0.9,0.9,1.4,2,1.4c1.2,0,2-0.6,2-1.4c0-0.6-0.4-1-1.3-1.2l-1.5-0.3
			c-1.6-0.4-2.3-1.2-2.3-2.4c0-1.5,1.4-2.5,3.2-2.5c1.7,0,2.7,0.8,3.1,2.1L377.7,92.1z"/>
		<path d="M380.7,96c0-2,1.8-2.4,3.4-2.6c1.6-0.2,2.2-0.1,2.2-0.8v0c0-1.1-0.6-1.8-1.8-1.8c-1.3,0-2,0.7-2.3,1.3l-1.3-0.5
			c0.7-1.6,2.2-2,3.5-2c1.1,0,3.2,0.3,3.2,3.1v5.7h-1.3v-1.2h-0.1c-0.3,0.6-1.1,1.4-2.6,1.4C382,98.7,380.7,97.7,380.7,96z
			 M386.3,95.3v-1.2c-0.2,0.3-1.7,0.4-2.3,0.5c-1,0.1-2,0.5-2,1.5c0,0.9,0.8,1.4,1.8,1.4C385.4,97.5,386.3,96.4,386.3,95.3z"/>
		<path d="M394.6,89.8h1.3v1.3h0.1c0.3-0.9,1.2-1.5,2.3-1.5c0.2,0,0.6,0,0.7,0V91c-0.1,0-0.5-0.1-0.8-0.1c-1.3,0-2.2,0.9-2.2,2v5.5
			h-1.3V89.8z"/>
		<path d="M399.9,94.2c0-2.7,1.6-4.5,3.9-4.5c1.8,0,3.7,1.1,3.7,4.4v0.6h-6.3c0.1,1.9,1.1,2.9,2.7,2.9c1,0,1.8-0.5,2.2-1.4l1.3,0.4
			c-0.4,1.3-1.7,2.2-3.5,2.2C401.4,98.7,399.9,96.9,399.9,94.2z M406.2,93.4c0-1.5-0.9-2.6-2.4-2.6c-1.5,0-2.5,1.2-2.6,2.6H406.2z"
			/>
		<path d="M409.2,94.2c0-2.7,1.6-4.5,3.9-4.5c1.8,0,3.2,1.1,3.5,2.7h-1.3c-0.2-0.8-0.9-1.5-2.1-1.5c-1.6,0-2.6,1.3-2.6,3.3
			c0,2,1,3.3,2.6,3.3c1,0,1.8-0.6,2.1-1.5h1.3c-0.2,1.5-1.5,2.7-3.4,2.7C410.7,98.7,409.2,96.8,409.2,94.2z"/>
		<path d="M422.3,90.9h-1.9V96c0,1.1,0.6,1.3,1.2,1.3c0.3,0,0.5,0,0.6-0.1l0.3,1.2c-0.2,0.1-0.5,0.2-1,0.2c-1.1,0-2.4-0.7-2.4-2.2
			v-5.4h-1.3v-1.1h1.3v-2.1h1.3v2.1h1.9V90.9z"/>
		<path d="M423.9,96c0-2,1.8-2.4,3.4-2.6c1.6-0.2,2.2-0.1,2.2-0.8v0c0-1.1-0.6-1.8-1.8-1.8c-1.3,0-2,0.7-2.3,1.3l-1.3-0.5
			c0.7-1.6,2.2-2,3.5-2c1.1,0,3.2,0.3,3.2,3.1v5.7h-1.3v-1.2h-0.1c-0.3,0.6-1.1,1.4-2.6,1.4C425.2,98.7,423.9,97.7,423.9,96z
			 M429.6,95.3v-1.2c-0.2,0.3-1.7,0.4-2.3,0.5c-1,0.1-2,0.5-2,1.5c0,0.9,0.8,1.4,1.8,1.4C428.7,97.5,429.6,96.4,429.6,95.3z"/>
	</g>
	<g>
		<path d="M549.3,412.5h-1.4v-10.1h-0.1l-2.8,1.9v-1.4l2.9-1.9h1.4V412.5z"/>
		<path d="M552.4,406.7c0-3.8,1.5-6,4-6s4,2.2,4,6c0,3.8-1.5,6-4,6C553.9,412.7,552.4,410.5,552.4,406.7z M559.1,406.7
			c0-3-1-4.7-2.7-4.7c-1.7,0-2.7,1.7-2.7,4.7c0,3,1,4.7,2.7,4.7S559.1,409.7,559.1,406.7z"/>
		<path d="M567.2,403.8h1.3v5.2c0,1.4,1,2.4,2.4,2.4s2.4-1,2.4-2.4v-5.2h1.3v8.7h-1.3v-1.3h-0.1c-0.5,0.9-1.4,1.4-2.3,1.4
			s-1.9-0.5-2.3-1.4h-0.1v4.6h-1.3V403.8z"/>
		<path d="M577.1,403.8h1.3v1.4h0.1c0.4-0.9,1.2-1.5,2.3-1.5c1.1,0,1.9,0.5,2.3,1.5h0.1c0.4-0.9,1.4-1.5,2.6-1.5
			c1.6,0,2.7,0.9,2.7,3v5.8h-1.3v-5.8c0-1.3-0.8-1.8-1.8-1.8c-1.2,0-1.9,0.8-1.9,2v5.7h-1.4v-6c0-1-0.7-1.7-1.7-1.7
			c-1,0-2,0.9-2,2.2v5.4h-1.3V403.8z"/>
	</g>
	<line class="st61" x1="624.2" y1="374.8" x2="624.2" y2="395.5"/>
	<g>
		
			<radialGradient id="SVGID_1_" cx="1125.0869" cy="485.0042" r="23.6637" gradientTransform="matrix(0.8948 0 0 0.8948 -341.0195 -46.176)" gradientUnits="userSpaceOnUse">
			<stop  offset="0.2146" style="stop-color:#6D1014"/>
			<stop  offset="0.2917" style="stop-color:#751419"/>
			<stop  offset="0.4087" style="stop-color:#8A1F26"/>
			<stop  offset="0.5502" style="stop-color:#AC323C"/>
			<stop  offset="0.6199" style="stop-color:#BF3C49"/>
			<stop  offset="0.7723" style="stop-color:#B22D3C"/>
			<stop  offset="0.8834" style="stop-color:#A51F30"/>
			<stop  offset="0.9144" style="stop-color:#A82334"/>
			<stop  offset="0.9452" style="stop-color:#B22E40"/>
			<stop  offset="0.9759" style="stop-color:#C34154"/>
			<stop  offset="1" style="stop-color:#D55669"/>
		</radialGradient>
		<path class="st62" d="M657.7,368c-7.1,2.2-10.1,6.7-11.6,11.1s-2.7,9.4-0.8,15.2c1.9,5.8,4.8,9.5,9.9,12.1c5.1,2.6,7.6,2.9,13,1.8
			c5.4-1.1,14.2-4.9,17-11.1c2.8-6.2,2.8-15.3-2.6-23C677.2,366.3,665,365.7,657.7,368z"/>
		<g class="st63">
			<g>
				<g class="st64">
					<g class="st64">
						<path class="st34" d="M683.2,387.7c0-1.6-0.2-3.2-0.5-4.6c0.2,0.3,0.4,0.6,0.5,0.9C683.8,385,683.3,386.4,683.2,387.7z"/>
						<path class="st34" d="M683.1,392.2L683.1,392.2l0.1-2c0-0.6,0-1.3,0-1.9c0,0.1,0,0.2,0,0.3c0.1,0.6,0.2,1.2,0.2,1.8
							C683.5,391.1,683.4,391.7,683.1,392.2z"/>
						<path class="st34" d="M672.3,408.6c0.6-0.8,1.2-1.5,1.8-2.4c0.5-0.9,0.9-1.8,1.2-2.8c0.3-0.3,0.5-0.7,0.7-0.8
							c0,0,0.4-0.4,0.9-0.8c0.5-0.4,1.1-0.9,1.5-1.3c-0.1,1,0,2,0.1,3c0.5-0.1,1.3-0.6,1.5-0.3c0.5,1.1,0.1,2.3-0.5,3.5
							c-0.2,0.1-1.3,0.5-2.8,0.9c-0.4,0.1-0.7,0.2-1.1,0.3l-0.6,0.2c-0.3,0.1-0.6,0.2-0.7,0.2C673.6,408.4,672.9,408.5,672.3,408.6z
							"/>
						<path class="st34" d="M667,408.8c-1.5,0-3.4-0.3-4.3-0.6c0.5-0.2,1-0.6,1.6-0.9c-0.5-0.1-0.8-0.3-1.2-0.4
							c0.1-0.1,0.2-0.1,0.3-0.2c1-0.1,2.2-0.4,3.4-0.6c1.1-0.3,2.3-0.6,3.4-0.9c0,0.2-0.7,0.9-1.4,1.7
							C668.1,407.7,667.2,408.4,667,408.8z"/>
						<path class="st34" d="M671.3,408.5c-0.5,0.1-1,0.2-1.5,0.3c-0.9,0.1-1.9,0.1-2.8,0c0.6-0.8,1.4-1.7,2.4-2.6
							c-0.2,0-0.3-0.3-0.5-0.2c0.7-0.4,1.2-0.4,1.3-0.8c1-0.3,2.1-0.6,2.9-1c0.1,0,0.2-0.1,0.3-0.1c0.1,0,0.1,0,0.2-0.1l0.6-0.4
							c0.4-0.3,0.8-0.5,1.3-0.8c-0.2,0.5-0.7,0.6-1,0.8c0.3,0.2,0.6,0.1,0.9-0.2c-0.3,0.9-0.7,1.9-1.2,2.8c-0.5,0.9-1.2,1.6-1.8,2.4
							l-0.5,0.1C671.7,408.5,671.5,408.4,671.3,408.5z"/>
						<path class="st34" d="M685,390.8c0.8,1.4,1.8,2.4,3,3.3c-0.2,0.4-0.5,1.2-0.4,1.9c-0.1,0.6-0.4,1.5-0.9,2.3
							c-0.4,0.8-1,1.6-0.9,1.8c0,0.1,0,0,0.1-0.3c0-0.3,0.1-0.9,0-1.4c-0.1-1.1-0.7-2.2-1.1-2.8c-0.6-0.3-1-0.8-1.5-1.4
							c0.1-0.2,0.5,0,0.5-0.1c-0.1,0-0.5-0.4-0.5-0.4s0-0.3,0.1-0.8c0-0.4,0.1-1,0.1-1.3c0.7-0.3,0.2-1.3,0.1-1.3l0-0.6l0,0
							c0.2,0.3,0.4,0.6,0.6,0.9C684.5,390.8,685,390.8,685,390.8z"/>
						<path class="st34" d="M680.1,403.2c0.5,1.1,0.1,2.3-0.5,3.5c0.4-0.2,1.5-0.6,1.6-0.7c-0.3-0.1-0.6-0.3-0.5-0.5
							c0.5-0.5,1.1-1.1,1.5-1.5c0.6-0.3,1.4-0.5,2.1-0.9c0.4-0.5,0.7-1,1-1.5c0,0-0.1-0.6-0.3-0.7c0.3-0.3,0.6-0.5,0.9-0.8
							c0,0,0-0.2,0.1-0.7c0.1-0.4,0.1-1,0.1-1.5c-0.1-1.1-0.7-2-1.2-2.3c-0.6-0.3-1-0.8-1.5-1.4c0,0-0.3,1.5-0.6,2
							c0.1,0,0.5-0.1,0.5-0.2c0,0.1-0.6,0.5-0.8,0.6c0,0.1-0.9,1.1-0.9,1.2c-0.1,0.1,0.3,0.1,0.6,0.3c-0.7,0.2-1.4,0.4-1.9,0.7
							l-0.4,0.3c-0.1-0.1-0.2-0.1-0.2-0.1c0.1-0.1,0.1-0.2,0.2-0.3c-0.2,0.2-1.3,1-1.6,1.3c0.3-0.2,0.7-0.3,1.1-0.4
							c-0.3,0.2-0.6,0.5-0.9,0.7l0,0c-0.1,1,0,1.9,0.1,3C679,403.4,679.9,403,680.1,403.2z"/>
						<path class="st34" d="M673.7,369.9c-0.7-0.6-1.9-1.2-2.7-1.5c-0.6-0.2-0.8-0.2-0.8-0.2c-0.1,0-0.1,0-0.3,0.1
							c0.4-0.2,1-0.2,1.4-0.3c0.5,0,1,0,1.5,0.1c1,0.1,1.9,0.4,2.8,0.7c0.9,0.3,1.8,0.7,2.7,1.1c0.5,0.2,0.9,0.4,1.4,0.9
							c0.5,0.4,0.8,0.7,1.1,1.1c-0.3-0.1-0.5-0.3-0.8-0.4c-0.1-0.1-0.3-0.2-0.4-0.3c-0.2-0.1-0.3-0.2-0.5-0.3
							c-0.6-0.3-1.2-0.5-1.7-0.4c0,0.1,0.2,0.3,0.3,0.4c-1-0.3-2.4-0.9-2.5-0.7c-0.1,0.2,0.1,0.5,0.1,0.8l-0.3-0.2
							C674.8,370.5,674.3,370.2,673.7,369.9z"/>
						<path class="st34" d="M678.3,374.1c-0.2-0.3-0.4-0.6-0.7-1c0-0.1-0.3-0.4-0.6-0.6c0-0.1,0.1-0.1,0.1-0.2
							c0.2,0.1,0.3,0.3,0.5,0.4c0.2,0.2,0.1,0.2,0.3,0.4c0.3,0.4,0.6,0.7,0.8,1.1C678.5,374.2,678.4,374.2,678.3,374.1z"/>
						<path class="st34" d="M677.8,370.8c-0.1-0.1-0.3-0.4-0.3-0.4c0.5,0,1.1,0.1,1.7,0.4c0.2,0.1,0.3,0.2,0.5,0.3
							c0.1,0.1,0.3,0.2,0.4,0.3c0.3,0.2,0.5,0.3,0.8,0.4c1.1,1.1,2,2.4,2.8,3.6c-0.2-0.2-0.5-0.3-0.7-0.5c0.5,0.7-0.2,1.2,0.2,1.9
							c-1-0.7-1.9-1.8-2.9-2.7c-0.5-0.4-0.9-0.8-1.4-1.1c-0.2-0.2-0.5-0.3-0.7-0.4c-0.2-0.1-0.3-0.1-0.6-0.1
							c-0.6-0.5-1.5-1.1-2.3-1.7c0-0.3-0.2-0.6-0.1-0.8C675.4,369.9,676.8,370.5,677.8,370.8z"/>
						<path class="st34" d="M683.2,376.9c-0.4-0.7,0.3-1.3-0.2-1.9c0.2,0.2,0.5,0.3,0.7,0.5c0.5,0.7,0.9,1.4,1.4,2
							c0.5,0.7,0.9,1.1,1.5,2.2c0.1,0.1,0.1,0.3,0.2,0.4c0.5,1.5,0.9,2.6,1,3.9c-0.8-0.8-1.5-1.5-2.3-2.1c0.2-0.8,0.2-1.8-0.1-2.7
							c-0.2-0.8-0.5-1.6-0.8-2.4c0.2,0.6-0.4,0.8-0.4,1.1c0,1.3-0.7,3.2-1.6,3c-0.7-1.1-1.4-2.3-1.9-3.3c-0.6-1.1-1.1-2.1-1.7-3
							c0-0.2,0.1-0.5,0-0.6c-0.4-0.5-0.9-1.1-1.1-1.3c0.2,0,0.3,0,0.6,0.1c0.2,0.1,0.5,0.2,0.7,0.4c0.5,0.3,0.9,0.7,1.4,1.1
							C681.3,375.1,682.2,376.1,683.2,376.9z"/>
						<path class="st34" d="M685.4,381.9c0.8,0.6,1.5,1.3,2.3,2.1c0,0.3,0,0.7,0,1c0.1,0,0.3,0,0.4-0.2l0.1,0.7
							c-0.1,0.3-0.5,0.6,0.1,1l0.1,1c-0.2,0.4-0.4,0.6-0.8,0.8l0.5,0c0.3,0.3,0,0.7,0,1c0.1,0,0.2,0,0.3,0c-0.2,0.8-0.2,1.7-0.2,2.4
							c0,0.8,0.1,1.5,0.1,1.7c-0.1,0.2-0.2,0.5-0.3,0.7c-1.2-0.9-2.3-1.9-3-3.3c0,0-0.5,0-0.7-0.2c-0.2-0.3-0.4-0.6-0.6-0.9
							c0.4-0.8,0.4-1.8,0.3-2.5c-0.1-0.7-0.4-1.3-0.4-1.3l-0.1-0.7c0-0.6,0.1-1.5,0.1-2.3c-0.1-0.8-0.4-1.6-1-1.8l-0.1-0.1l-0.2-0.2
							c0.9,0.1,1.6-1.7,1.6-3c-0.1-0.3,0-1.6,0.4-1.1c0.2,0.4,0.4,0.9,0.6,1.5c0.1,0.3,0.2,0.5,0.2,0.8c0.1,0.2,0.2,0.6,0.2,0.9
							C685.6,381.1,685.3,381.9,685.4,381.9z"/>
						<path class="st34" d="M657,405.6c-0.4-0.3-0.9-0.7-1.2-1.1c0.3,0.5,0.8,0.9,1.1,1c0.2,0.2,0.5,0.3,0.7,0.4
							C657.4,405.9,657.2,405.8,657,405.6z"/>
						<path class="st34" d="M658.1,405.8c0.1,0.1,0.3,0.1,0.4,0.1c0,0.1-0.4,0-0.6-0.1c0,0.1,0.3,0.1,0.3,0.1c0,0.1-0.2,0-0.4-0.1
							c0.1-0.1,0.3-0.1,0.6-0.1l0.3,0.1C658.5,405.8,658.2,405.8,658.1,405.8z"/>
						<path class="st34" d="M663.1,407c0.4,0.1,0.7,0.2,1.2,0.4c-0.5,0.4-1.1,0.7-1.6,0.9c-1.4-0.5-2.7-1.1-4-1.7
							c0.2,0.1,0.5,0.2,0.7,0.2c-0.3-0.1-0.6-0.2-0.8-0.4c0.1,0,0.1,0,0.2,0l0,0c0.2,0.1,0.4,0.2,0.4,0c0,0-0.3-0.1-0.3-0.1
							c0.3,0.1,0.6,0.2,0.6,0.1l-0.4-0.1c0.1,0,0.4,0,0.6,0c1.3,0.3,2.7,0.6,3.8,0.5C663.3,406.8,663.2,406.9,663.1,407z"/>
					</g>
				</g>
			</g>
		</g>
		<g class="st63">
			<g>
				<g class="st64">
					<g class="st64">
						<path class="st34" d="M653.4,378.2c0.7-1,1.5-1.8,2.3-2.6c-0.1,0.3-0.2,0.5-0.3,0.8C655.1,377.2,654,377.5,653.4,378.2z"/>
						<path class="st34" d="M651.7,381.1L651.7,381.1c0.4-0.9,0.9-1.7,1.4-2.5c0,0.1-0.1,0.1-0.1,0.2
							C652.7,379.7,652.5,380.4,651.7,381.1z"/>
						<path class="st34" d="M656.5,393.5c-1.4,0.1-2.9-0.6-4.2-2c-0.1-0.1-0.3-0.2-0.3-0.3c0,0-0.1-0.1-0.2-0.4
							c-0.1-0.2-0.3-0.6-0.4-0.9c0.8,0.1,1.7,0.2,2.6,0.3c0.1-0.3,0.1-0.9,0.4-1c1.2-0.2,2.1,0.1,2.9,0.8c0,0.1,0,0.3-0.1,0.8
							c0,0.2-0.1,0.5-0.2,0.8c0,0.1-0.1,0.3-0.1,0.5l-0.1,0.1C656.4,392.5,656.4,393.1,656.5,393.5z"/>
						<path class="st34" d="M657.5,395.7c0.4,0.6,1,1.6,1.3,1.9c-0.4,0.1-0.8,0.2-1.3,0.3c0.1,0.3,0.2,0.5,0.4,0.7l-0.3,0
							c-1.3-0.6-2.7-1.4-3.9-2.6c0.2,0,1,0,1.8,0C656.4,396,657.1,395.9,657.5,395.7z"/>
						<path class="st34" d="M656.4,394c0.1,0.2,0.3,0.3,0.5,0.5c0.2,0.4,0.4,0.8,0.6,1.2c-0.8,0.3-1.7,0.5-2.7,0.4
							c0.1,0.1-0.1,0.4-0.1,0.4c-0.5-0.2-0.7-0.6-1.1-0.5c-0.3-0.3-0.5-0.6-0.8-1c-0.2-0.4-0.5-0.8-0.6-1.2
							c-0.1-0.4-0.3-0.9-0.4-1.4c-0.1-0.4-0.1-1.2-0.1-1.1c0.1,0,0.1,0,0.2,0.1c0,0,0,0,0,0c0,0.1,0,0.1,0,0.2c0,0.2,0,0.4,0,0.6
							c0.3-0.2,0.3-0.5,0.3-0.8c1.3,1.4,2.8,2.1,4.2,2l0.1,0.2C656.5,393.8,656.3,393.9,656.4,394z"/>
						<path class="st34" d="M653.8,381c0.3,1.1,1.2,2.1,2.3,2.8c-0.2,0.1-0.5,0.4-0.3,0.7c-0.1,0.3-0.2,0.5-0.3,1.1
							c0,0-0.1,0.3-0.1,0.4c0,0,0,0.1-0.1,0.1l0,0l0,0c0,0,0,0,0,0c0,0,0.1,0.1,0.2,0.1c0.2,0-0.3,0-0.8-0.3c-0.2-0.5-0.5-0.8-0.8-1
							c-0.3-0.3-0.6-0.5-0.8-0.7c-0.6-0.2-1.1-0.7-1.4-1.2c0.1-0.1,0.4,0.1,0.5,0c-0.1,0-0.4-0.4-0.4-0.4s0.4-1,0.6-1.4
							c0.7,0.1,0.5-0.7,0.4-0.8c0.1-0.1,0.1-0.3,0.2-0.4l0,0c0.1,0.3,0.2,0.5,0.3,0.8C653.3,380.7,653.8,381,653.8,381z"/>
						<path class="st34" d="M654.4,389.2c1.2-0.2,2.1,0.1,2.9,0.8c0-0.3,0.1-1.1,0.1-1.2c-0.2,0.2-0.5,0.4-0.6,0.2
							c-0.2-0.4-0.5-0.8-0.6-1.1c0-0.4,0.3-0.8,0.4-1.2c-0.2-0.2-0.3-0.4-0.4-0.5c0,0-0.5,0-0.7,0c0-0.1,0.1-0.2,0.2-0.2
							c0,0-0.1,0-0.3-0.1c-0.1,0-0.2-0.1-0.3-0.1c0-0.1-0.1,0-0.2-0.2c0-0.1,0-0.3-0.1-0.4c-0.2-0.3-0.5-0.6-0.8-0.8
							c-0.3-0.2-0.6-0.4-0.9-0.5c-0.6-0.2-1.1-0.7-1.4-1.2c0,0,0,0.1-0.1,0.2c0,0.1-0.1,0.3-0.2,0.5c-0.1,0.4-0.2,0.9-0.3,1.1
							c0.1,0,0.4-0.1,0.5-0.2c0,0-0.1,0.2-0.3,0.3l-0.1,0l0,0l0,0c0,0,0,0,0,0l0.2,0c0.1,0,0.1,0,0.1,0c0.2,0,0.5,0.1,0.7,0.1
							c0.2,0.1,0.4,0.1,0.6,0.2l0.1,0.1l0.1,0l0,0l0,0l0,0l-1.9-0.7l0,0l0,0l0,0c0,0.1-0.1,0.1-0.1,0.2c-0.1,0.3-0.2,0.9-0.2,1.3
							c0,0.4,0,0.8,0.1,0.8c0,0.1,0.3-0.2,0.7-0.2c-0.4,0.6-0.6,1.2-0.6,1.7l0.1,0.4c-0.1,0.1-0.2,0.1-0.2,0.1
							c-0.1-0.1-0.1-0.1-0.2-0.2c0.1,0.3,0.3,1.2,0.3,1.4c0-0.2,0.1-0.5,0.2-0.8l0.2,0.7l0,0c0.8,0.1,1.7,0.2,2.6,0.3
							C654.1,389.9,654.1,389.3,654.4,389.2z"/>
						<path class="st34" d="M667.8,374.8c0.3,0.2,0.6,0.4,0.9,0.6c0.3,0.2,0.6,0.4,0.7,0.6c0.2,0.3,0.3,0.4,0.3,0.4
							c0,0,0,0.1,0.2,0.1c-1.1-0.3-2-0.2-3,0c-1,0.2-1.9,0.4-2.9,0.6c0.4-0.6,1.3-0.6,1.7-1.2c0-0.1-0.2-0.1-0.3-0.2
							c0.5-0.3,1.4-0.3,1.5-0.6c0-0.2-0.2-0.4-0.2-0.7l0.2,0.1C667,374.6,667.4,374.7,667.8,374.8z"/>
						<path class="st34" d="M663.4,373.7c0.5,0,1.1,0,1.7,0.1c0,0.1,0,0.2,0.1,0.2c-0.6-0.1-1.3-0.1-1.9-0.1
							C663.3,373.9,663.4,373.8,663.4,373.7z"/>
						<path class="st34" d="M665.4,375.7c0.1,0.1,0.3,0.1,0.3,0.2c-0.4,0.6-1.3,0.6-1.7,1.2c-0.7,0.2-1.5,0.4-2.2,0.7
							c0.1-0.1,0.2-0.3,0.3-0.4c-0.4,0.2-0.7-0.7-1.1-0.5c1-1.3,2.8-1.8,3.8-2.7c0.6,0,1.3,0.1,1.9,0.3c0.1,0.3,0.2,0.5,0.2,0.7
							C666.8,375.4,665.9,375.4,665.4,375.7z"/>
						<path class="st34" d="M660.9,376.8c0.4-0.1,0.7,0.7,1.1,0.5c-0.1,0.1-0.2,0.3-0.3,0.4c-0.8,0.3-1.7,0.7-2.4,1
							c-0.1,0-0.1,0-0.2,0c-0.2,0-0.2,0.1-0.3,0.1c0,0-0.1,0,0,0l0,0l0,0l0,0l0-0.1c-0.1-0.1-0.2-0.3-0.3-0.4
							c-0.1-0.1-0.2-0.3-0.3-0.4l-0.2-0.2l0,0l0,0l0,0l0,0l0,0c2.1,2.1,0.6,0.6,1,1.1l0,0l-0.1,0.1c-0.2,0.2-0.4,0.4-0.6,0.6
							c-0.2-0.7-0.4-1.5-0.4-2.2c1.1,0.3,2.1,0.7,3.1,0.6c-0.4,0-0.5-0.7-0.7-0.7c-0.8-0.5-2-1.8-1.9-2.6c1.5-0.5,3-0.8,4.5-0.8
							c0.1,0.1,0.3,0.3,0.4,0.3c0.4-0.1,0.8-0.1,1.3-0.1C663.7,375.1,661.9,375.6,660.9,376.8z"/>
						<path class="st34" d="M657.9,377.4c0,0.7,0.2,1.5,0.4,2.2c-0.1,0.1-0.2,0.2-0.4,0.3c0.1,0.1,0.2,0.2,0.3,0.2l-0.2,0.3
							c-0.1,0.1-0.6-0.2-0.2,0.4c-0.1,0.1-0.2,0.3-0.3,0.4c-0.2,0-0.5,0-0.9-0.1l0.4,0.3c0.2,0.3-0.2,0.3-0.2,0.4
							c0.1,0,0.2,0.1,0.3,0.2c-0.7,0.4-0.7,1.5-0.7,1.6c-0.1,0.1-0.2,0.1-0.3,0.2c-1.1-0.7-2-1.6-2.3-2.8c0,0-0.4-0.2-0.5-0.4
							c-0.1-0.3-0.2-0.5-0.3-0.8c0.7-0.3,1-0.8,1.2-1.3c0.2-0.5,0.3-0.9,0.3-0.9l0.3-0.4c0.3-0.3,0.9-0.6,1.4-0.9l0.2-0.1
							c0.1-0.1,0.3-0.2,0.4-0.3c0.2-0.1,0.2-0.1,0.3-0.2c0.1,0,0.2-0.1,0.2-0.1c0.3-0.2,0.5-0.4,0.7-0.7l0.4-0.1
							c-0.1,0.7,1.1,2.1,1.9,2.6c0.2,0.1,0.9,0.6,0.7,0.7c-0.5,0.1-1.3,0-1.9-0.2C658.4,377.6,657.9,377.4,657.9,377.4z"/>
						<path class="st34" d="M661.6,399.8c0.3,0.1,0.6,0.3,0.9,0.4C662.1,400,661.8,399.9,661.6,399.8c-0.1,0-0.2-0.1-0.4-0.1
							C661.3,399.7,661.4,399.7,661.6,399.8z"/>
						<path class="st34" d="M660.8,399.9l-0.3-0.1c0-0.1,0.2-0.1,0.4,0c0-0.1-0.2-0.1-0.2-0.1c0-0.1,0.1,0,0.3,0
							c-0.1,0.1-0.2,0.2-0.4,0.2l-0.2,0C660.6,399.9,660.8,399.9,660.8,399.9z"/>
						<path class="st34" d="M657.9,398.6c-0.2-0.2-0.3-0.4-0.4-0.7c0.5-0.1,0.9-0.2,1.3-0.3c0.5,0.6,1.2,1.2,1.8,1.6
							c-0.1-0.1-0.3-0.1-0.4-0.1c0.2,0.1,0.3,0.2,0.4,0.3c0,0-0.1,0-0.1,0l0,0c-0.1-0.1-0.2-0.1-0.3,0c0,0,0.2,0,0.2,0.1
							c-0.2-0.1-0.4-0.1-0.4,0l0.3,0.1c-0.1,0-0.2,0-0.4,0c-0.8-0.2-1.5-0.5-2.3-0.9L657.9,398.6z"/>
					</g>
				</g>
			</g>
		</g>
		<g class="st65">
			
				<linearGradient id="SVGID_00000125595394709469209500000016074951344094065082_" gradientUnits="userSpaceOnUse" x1="-3301.2393" y1="-4133.9111" x2="-3299.448" y2="-4159.8633" gradientTransform="matrix(-0.2519 0.9677 -0.9677 -0.2519 -4195.0142 2529.1973)">
				<stop  offset="3.863114e-02" style="stop-color:#FFFFFF;stop-opacity:0"/>
				<stop  offset="0.2498" style="stop-color:#FFFFFF"/>
				<stop  offset="0.3159" style="stop-color:#E1E0E0;stop-opacity:0.9119"/>
				<stop  offset="0.4518" style="stop-color:#A8A6A6;stop-opacity:0.7307"/>
				<stop  offset="0.5833" style="stop-color:#787676;stop-opacity:0.5554"/>
				<stop  offset="0.7072" style="stop-color:#535051;stop-opacity:0.3904"/>
				<stop  offset="0.8214" style="stop-color:#393536;stop-opacity:0.2381"/>
				<stop  offset="0.9225" style="stop-color:#292526;stop-opacity:0.1033"/>
				<stop  offset="1" style="stop-color:#231F20;stop-opacity:0"/>
			</linearGradient>
			<path style="fill:url(#SVGID_00000125595394709469209500000016074951344094065082_);" d="M659.4,367.8c-1.6,0.3-6.5,2.2-9.2,5
				c-2.9,3-4.9,8.6-5.3,14.1c-0.1,1.1,0.4,6.4,1.4,7.8c2.1,3.2,1.5-4.6,1.7-8.1c0.4-7,2.9-9.7,4.5-11.2
				C656,372,664.8,366.6,659.4,367.8z"/>
		</g>
		<g class="st65">
			
				<linearGradient id="SVGID_00000081639192717586424920000003148325792571336584_" gradientUnits="userSpaceOnUse" x1="-2460.3564" y1="-4047.4727" x2="-2458.9651" y2="-4067.6326" gradientTransform="matrix(-4.612837e-02 0.9989 -0.9989 -4.612837e-02 -3511.6387 2655.4207)">
				<stop  offset="3.863114e-02" style="stop-color:#FFFFFF;stop-opacity:0"/>
				<stop  offset="0.2413" style="stop-color:#FFFFFF"/>
				<stop  offset="0.2914" style="stop-color:#E1E0E0;stop-opacity:0.9119"/>
				<stop  offset="0.3944" style="stop-color:#A8A6A6;stop-opacity:0.7307"/>
				<stop  offset="0.4941" style="stop-color:#787676;stop-opacity:0.5554"/>
				<stop  offset="0.5879" style="stop-color:#535051;stop-opacity:0.3904"/>
				<stop  offset="0.6744" style="stop-color:#393536;stop-opacity:0.2381"/>
				<stop  offset="0.7511" style="stop-color:#292526;stop-opacity:0.1033"/>
				<stop  offset="0.8098" style="stop-color:#231F20;stop-opacity:0"/>
			</linearGradient>
			<path style="fill:url(#SVGID_00000081639192717586424920000003148325792571336584_);" d="M660.7,376.6c-1.6,0.1-3.2-0.2-5.6,2.8
				c-1.3,1.6-3.2,4.9-2.4,10.3c0.6,4.2,4.9,7.1,4.8,5.4c-0.1-2.1-2.6-3.1-3.1-6.6c-0.5-3.9,0.5-6.9,1.8-8.7
				C658.9,375.8,663.6,376.5,660.7,376.6z"/>
		</g>
		<path class="st68" d="M657.7,368c-7.1,2.2-10.1,6.7-11.6,11.1s-2.7,9.4-0.8,15.2c1.9,5.8,4.8,9.5,9.9,12.1c5.1,2.6,7.6,2.9,13,1.8
			c5.4-1.1,14.2-4.9,17-11.1c2.8-6.2,2.8-15.3-2.6-23C677.2,366.3,665,365.7,657.7,368z"/>
		<g class="st63">
			<g>
				<g class="st64">
					<g class="st64">
						<path class="st34" d="M675.1,394.6c0.3-0.4,0.6-0.8,0.8-1.3c0,0.1,0,0.3,0,0.4C675.9,394.1,675.4,394.3,675.1,394.6z"/>
						<path class="st34" d="M674.1,395.5L674.1,395.5c0.3-0.3,0.6-0.5,0.8-0.8c0,0,0,0,0,0.1C674.8,395.1,674.6,395.5,674.1,395.5z"
							/>
						<path class="st34" d="M668.9,401.2c0.4-0.8,0.5-1.6,0.6-2.5c0.1-0.1,0.2-0.3,0.3-0.3c0,0,0.6-0.5,1-0.7c0,0.4,0,0.9,0,1.4
							c0.2,0,0.5-0.1,0.6,0c0.2,0.6,0.1,1.1-0.1,1.5c-0.1,0-0.5,0.1-0.9,0.2C670,400.8,669.4,401,668.9,401.2z"/>
						<path class="st34" d="M667,401.3c-0.5,0-1.2-0.1-1.5-0.1c0.1-0.2,0.3-0.4,0.4-0.6c-0.2,0-0.3-0.1-0.5-0.1l0.1-0.1
							c0.8-0.3,1.5-0.6,2.4-0.9C667.9,399.8,667.1,400.9,667,401.3z"/>
						<path class="st34" d="M668.4,401.2l-0.2,0l-0.1,0l-0.2,0.1c-0.3,0-0.6,0-1,0c0.2-0.4,0.4-0.9,0.7-1.3c-0.1,0-0.1-0.1-0.2-0.1
							c0.2-0.2,0.4-0.2,0.5-0.4c0.3-0.1,0.4-0.2,0.7-0.4c0.3-0.2,0.6-0.5,0.9-0.7c-0.1,0.2-0.2,0.2-0.4,0.3c0.1,0.1,0.3,0.1,0.3,0
							c-0.2,0.9-0.2,1.7-0.6,2.5l-0.2,0C668.6,401.2,668.5,401.1,668.4,401.2z"/>
						<path class="st34" d="M675.1,395.9c0,0.6,0.1,1.2,0.2,1.9c-0.2,0-0.5,0.1-0.6,0.3c-0.3,0.2-1.1,0.5-1.1,0.7
							c0,0.3,0.3-1.2,0.2-1.8c-0.2-0.3-0.2-0.6-0.1-0.9c0.1,0,0.1,0.2,0.2,0.2c0,0-0.1-0.3-0.1-0.3s0.4-0.3,0.5-0.4
							c0.3,0.2,0.3-0.2,0.3-0.3l0.1-0.1l0,0c0,0.1,0,0.3,0,0.4C674.9,395.7,675.1,395.9,675.1,395.9z"/>
						<path class="st34" d="M671.4,399.1c0.2,0.6,0.1,1.1-0.1,1.5c0.1,0,0.5-0.1,0.5-0.1c-0.1-0.1-0.2-0.2-0.2-0.3
							c0.2-0.2,0.4-0.4,0.5-0.4c0.2-0.1,0.5,0,0.8,0c0.1-0.1,0.3-0.3,0.4-0.4c0,0,0-0.3-0.1-0.3c0.1-0.1,0.2-0.1,0.4-0.1
							c0,0,0.5-1.3,0.2-1.8c-0.2-0.3-0.2-0.6-0.1-0.9c0,0-0.5,0.3-0.7,0.4c0,0,0.2,0.1,0.2,0.1c0,0-0.4,0-0.5,0
							c-0.2,0.1-0.5,0.3-0.6,0.3c0,0,0.1,0.1,0.2,0.3c-0.3-0.1-0.6-0.1-0.8,0l-0.2,0.1c0,0-0.1-0.1-0.1-0.1c0,0,0.1-0.1,0.1-0.1
							c-0.1,0.1-0.6,0.3-0.7,0.3c0.1,0,0.3,0,0.5,0c-0.1,0.1-0.3,0.1-0.4,0.2l0,0c0,0.4,0,0.9,0,1.4
							C671,399,671.3,398.9,671.4,399.1z"/>
						<path class="st34" d="M678.6,387.9c0.2-0.3,0.4-0.7,0.5-1c0.2-0.4,0.1-0.2,0.1-0.4c0.3,1.3,0.1,2.6-0.1,3.9
							c-0.2-0.4,0-0.9-0.2-1.2c0,0-0.1,0.1-0.1,0.1c-0.1-0.3,0-0.9-0.1-0.9c-0.1,0-0.2,0.1-0.4,0.1l0-0.1
							C678.5,388.3,678.5,388.1,678.6,387.9z"/>
						<path class="st34" d="M677.5,390.1c0.1-0.3,0.2-0.5,0.3-0.8c0,0,0.1,0,0.1,0c-0.1,0.3-0.3,0.6-0.4,1
							C677.6,390.2,677.6,390.1,677.5,390.1z"/>
						<path class="st34" d="M678.8,389.4c0.1,0,0.1-0.1,0.1-0.1c0.2,0.3,0.1,0.9,0.2,1.2c-0.1,0.5-0.2,1-0.3,1.5
							c0-0.1-0.1-0.2-0.1-0.3c-0.1,0.3-0.5,0.2-0.6,0.5c-0.2-0.9,0-1.9-0.3-2.6c0.1-0.3,0.2-0.7,0.4-1c0.1,0,0.3-0.1,0.4-0.1
							C678.9,388.5,678.8,389,678.8,389.4z"/>
						<path class="st34" d="M678.2,392.1c0.1-0.3,0.5-0.2,0.6-0.5c0,0.1,0.1,0.2,0.1,0.3c-0.1,0.6-0.3,1.2-0.5,1.7
							c0,0,0,0.1-0.1,0.1c-0.2,0.4-0.4,0.8-0.6,1.1c-0.1-0.4-0.3-0.8-0.4-1.2c0.6-0.3,1.1-0.7,1.5-1.3c-0.1,0.2-0.4,0-0.5,0.1
							c-0.5,0.3-1.4,0.2-1.6-0.1c0.3-0.7,0.6-1.5,0.9-2.2c0.1,0,0.2-0.1,0.2-0.1c0.1-0.2,0.1-0.5,0.2-0.7
							C678.3,390.2,678.1,391.2,678.2,392.1z"/>
						<path class="st34" d="M677.3,393.8c0.1,0.4,0.3,0.8,0.4,1.2c-0.1,0.1-0.1,0.2-0.2,0.3c0.1,0,0.1,0.1,0.2,0.1l-0.1,0.2
							c-0.1,0.1-0.3,0-0.2,0.3l-0.2,0.3c-0.1,0-0.3,0-0.5,0l0.2,0.2c0,0.2-0.2,0.2-0.2,0.3c0,0,0.1,0.1,0.1,0.1
							c-0.5,0.3-1,1-1.1,1.1c-0.1,0-0.2,0-0.3,0.1c-0.2-0.7-0.3-1.3-0.2-1.9c0,0-0.2-0.2-0.2-0.3c0-0.1,0-0.3,0-0.4
							c0.3-0.1,0.5-0.3,0.6-0.5c0.1-0.2,0.1-0.4,0.1-0.4l0.1-0.2c0.3-0.3,1-0.7,0.8-1.4l0.1-0.2c0.2,0.3,1.1,0.3,1.6,0.1
							c0.1-0.1,0.6-0.3,0.5-0.1c-0.1,0.3-0.5,0.7-0.8,0.9C677.6,393.6,677.3,393.8,677.3,393.8z"/>
						<path class="st34" d="M663.4,401.2c-0.2,0-0.4,0-0.5-0.1C663,401.2,663.2,401.2,663.4,401.2c0,0,0.1,0,0.3,0
							C663.5,401.2,663.5,401.2,663.4,401.2z"/>
						<path class="st34" d="M663.7,400.9l0.2,0C663.9,400.9,663.8,401,663.7,400.9C663.7,401,663.8,401,663.7,400.9
							c0.1,0.1,0,0.1-0.1,0.1C663.6,401,663.7,400.9,663.7,400.9l0.2-0.1C663.8,400.9,663.7,400.9,663.7,400.9z"/>
						<path class="st34" d="M665.5,400.5c0.2,0,0.3,0,0.5,0.1c-0.2,0.2-0.3,0.4-0.4,0.6c-0.5,0-1,0-1.5,0c0.1,0,0.2,0,0.2-0.1
							c-0.1,0-0.2,0-0.3,0c0,0,0,0,0,0l0,0c0.1,0,0.1,0,0.1-0.1c0,0-0.1,0-0.1,0c0.1,0,0.2-0.1,0.2-0.1l-0.2,0c0,0,0.1-0.1,0.2-0.1
							c0.5-0.1,0.9-0.3,1.3-0.4L665.5,400.5z"/>
					</g>
				</g>
			</g>
		</g>
		<path class="st69" d="M670.7,380.9v15.4h-4.2v-6.5h-1.3v6.5h-4.2v-15.4h4.2v5.5h1.3v-5.5H670.7z"/>
	</g>
	<line class="st61" x1="510.3" y1="374.8" x2="510.3" y2="395.5"/>
	<line class="st70" x1="509.9" y1="385.2" x2="623.9" y2="385.2"/>
	<line class="st59" x1="522.7" y1="249.4" x2="584.6" y2="249.4"/>
	<line class="st60" x1="522.7" y1="248.4" x2="584.6" y2="248.4"/>
</g>
<g id="Crosswalk">
	<g id="Ascending_x5F_Thin_x5F_Loop_x5F_Of_x5F_Henle">
		<g id="Ascending_x5F_Vasa_x5F_Recta">
			<polygon class="st0" points="77.4,87.1 91.1,82.3 109.4,77.3 124,81.9 144.7,94.8 162.6,101.8 178.3,102.6 189.7,105.3 
				200.4,111.5 214.2,125.7 222.9,140.1 232,154.6 238.9,159.4 244.4,156.1 234.5,130.8 222,107.5 203.3,86.5 183.2,75.2 
				154.6,61.7 145.4,59.8 119.3,61.3 93,66.4 74.4,73.5 67.3,79.8 67.6,86.5 			"/>
			<polygon class="st0" points="48,105.5 36,125.7 32.1,147.4 32.1,166 32.8,178 36.1,191.9 50.1,203 54.9,195.5 56,184.9 
				52.3,171.5 50.1,162.1 52.5,141.9 55.9,125 54.9,115.6 53.3,109.2 			"/>
			<polygon class="st0" points="52.3,208.8 48.4,213.2 49.2,221.4 56,235.2 68.3,243.8 78.9,250.3 90.2,251 94.1,246.8 89.5,236.2 
				75.5,225.6 66.1,215.9 60.2,211.1 			"/>
			<polygon class="st0" points="131.5,251.1 117.8,253.1 113.9,256.8 120.2,264.9 136,268.1 153.1,266.1 170.8,259.6 177.5,252 
				179.1,248.9 170,242.6 155.1,242.1 145.6,244.8 138.6,247.4 			"/>
			<polygon class="st0" points="232.8,175.2 223.8,184.8 219.4,194.9 214.8,202.8 207.7,213.9 199.6,223.5 196.2,232.1 196.2,241.6 
				204.7,245.1 216.8,238 224.8,225.6 232.8,210 238.9,197.9 242,189.1 239.8,181.9 			"/>
			<polyline class="st0" points="100.2,158.3 88.8,170 90.2,183 96.2,203 103.2,217.4 108.7,231.3 118.1,237.5 136.7,232.1 
				143.1,213 138.6,195.5 127.8,177.8 114.2,166.7 100.2,158.3 			"/>
			<polyline class="st0" points="140.2,104.6 153,104.7 170,115.6 180.1,130.8 184.6,150 180.4,166 169.4,172.8 151.7,171 
				137.1,159.4 129.1,144.4 125.3,126.8 129,113 133.2,106.7 140.2,104.6 			"/>
		</g>
		<g id="Ascending_x5F_Thin_x5F_Limb_x5F_Cell">
			<polyline class="st0" points="344.8,199.5 334.8,205 331.1,222.1 328.9,251 339.7,290.5 358.9,322.9 381.1,347.2 407.7,359.3 
				429.8,361 439.3,356.7 445.1,338.8 445.4,330.3 433.1,326.9 411.5,319 397.2,295.4 392,282.6 372.9,260.2 360.6,244.5 
				358.3,229.9 356.9,215.2 356.7,203.5 344.8,199.5 			"/>
			<polyline class="st0" points="356.9,198.6 377.6,183.2 393.6,175.2 408.4,168.7 423.4,168.4 439.9,175.9 460.1,184.9 
				480.2,202.7 493.7,215.9 504.1,224.1 528.4,225.6 543.9,219.5 532,194.3 510.9,169.9 478.5,147.3 455.1,137.8 427.4,136.6 
				392,141.9 355.2,160.2 341.2,176.3 339.8,189.1 344.8,199.5 356.9,198.6 			"/>
			<polyline class="st0" points="503.5,230.6 506.8,250.9 507.8,266.1 499.6,282.4 487.5,296.7 476.5,308.6 465.1,320.1 
				449.4,326.1 444.4,335.5 441.9,351.6 441.9,359.7 467.8,358.2 504.2,343.8 529.1,324.4 546.5,303 550.9,273.5 547.8,248.2 
				545.9,226.3 526.4,224.4 510.7,226.7 503.5,230.6 			"/>
		</g>
	</g>
</g>
</svg>
