<svg width="40" height="40" viewBox="0 0 40 40" fill="none" xmlns="http://www.w3.org/2000/svg">
<g clip-path="url(#clip0_82_793)">
<path d="M20 40C31.0457 40 40 31.0457 40 20C40 8.9543 31.0457 0 20 0C8.9543 0 0 8.9543 0 20C0 31.0457 8.9543 40 20 40Z" fill="#FF0043"/>
<path d="M20 2.83728C10.536 2.83728 2.83728 10.5369 2.83728 20C2.83728 29.4631 10.5369 37.1627 20 37.1627C29.4631 37.1627 37.1627 29.4631 37.1627 20C37.1627 10.5369 29.4639 2.83728 20 2.83728ZM35.5965 19.6711H31.3853C31.3212 17.4135 30.5961 15.3178 29.3973 13.5715L32.4574 11.4676C32.5701 11.3903 32.598 11.2365 32.5207 11.1247C32.4435 11.0121 32.2897 10.9841 32.1779 11.0614L29.1104 13.1703C28.2274 11.9954 27.1232 10.9965 25.8604 10.2359L27.7045 7.01635C27.7719 6.89796 27.7316 6.7475 27.6132 6.68008C27.4948 6.61184 27.3444 6.65377 27.277 6.77134L25.4337 9.99094C23.9028 9.15727 22.1606 8.66397 20.3099 8.61464L20.2951 4.88447C20.2951 4.7036 20.1472 4.55725 19.9663 4.55725H19.9646C19.7829 4.55725 19.6366 4.70606 19.6374 4.88776L19.6522 8.61711C17.1027 8.69439 14.7611 9.61357 12.8965 11.1058L10.1751 7.89442C12.8595 5.71157 16.2805 4.40104 20.0016 4.40104C28.4938 4.40104 35.4222 11.2217 35.5981 19.6728L35.5965 19.6711ZM27.2942 27.753L24.9445 24.9798C25.4213 24.5071 25.83 23.9661 26.1564 23.3733L29.3825 25.0358C28.835 26.0511 28.1279 26.9678 27.2942 27.7522V27.753ZM10.3922 24.5943L13.6685 23.0346C14.0171 23.7589 14.4857 24.4142 15.0497 24.9749L12.6194 27.6716C11.7052 26.7919 10.9479 25.751 10.3922 24.5951V24.5943ZM4.40351 20.3289H8.61464C8.65821 21.8499 9.00106 23.2969 9.58644 24.6132L5.78392 26.4236C4.93709 24.5581 4.44873 22.4969 4.40351 20.3289ZM12.8718 12.094L15.2191 14.8639C13.9168 16.0766 13.0749 17.7769 12.9869 19.6711H9.35541C9.44667 16.6694 10.7868 13.976 12.8718 12.094ZM20 25.8703C19.6843 25.8703 19.3751 25.8448 19.0726 25.7963L19.6752 22.3999C19.7813 22.4139 19.8898 22.4221 19.9992 22.4221C20.5574 22.4221 21.0713 22.2322 21.4815 21.9132L22.3539 22.9425C21.6945 23.4868 20.8493 23.8148 19.9293 23.8148C19.8158 23.8148 19.7237 23.9069 19.7237 24.0204C19.7237 24.1338 19.8158 24.2259 19.9293 24.2259C20.9504 24.2259 21.8885 23.8617 22.6194 23.2566L23.7112 24.5449C22.6992 25.3737 21.4067 25.8711 19.9992 25.8711L20 25.8703ZM14.7077 22.5397L17.8212 21.0573C18.1222 21.6756 18.6796 22.1467 19.3538 22.3341L18.7503 25.7354C16.9662 25.3465 15.4822 24.1462 14.7085 22.5405L14.7077 22.5397ZM15.964 15.7428L16.9958 16.9596C16.3866 17.5466 15.9492 18.3178 15.7806 19.1959C15.7593 19.3077 15.8324 19.4154 15.9434 19.4368C16.0552 19.4582 16.1629 19.385 16.1843 19.274C16.3348 18.4905 16.722 17.8015 17.2622 17.2737L18.2003 18.3811C17.8829 18.733 17.6683 19.1786 17.6009 19.6711H14.1396C14.2251 18.1279 14.91 16.7434 15.964 15.7428ZM22.825 22.4796L21.9452 21.4421C22.1828 21.1222 22.3432 20.7424 22.3999 20.3289H23.7302C23.6603 21.1461 23.3314 21.891 22.8258 22.4796H22.825ZM18.5645 20C18.5645 19.2082 19.2082 18.5645 20 18.5645C20.7917 18.5645 21.4355 19.2082 21.4355 20C21.4355 20.7917 20.7917 21.4355 20 21.4355C19.2082 21.4355 18.5645 20.7917 18.5645 20ZM22.3991 19.6711C22.2379 18.4905 21.2242 17.5779 20 17.5779C19.5223 17.5779 19.0775 17.7168 18.7018 17.9561L17.7695 16.856C18.3885 16.431 19.1351 16.1851 19.9293 16.1851C21.9214 16.1851 23.5616 17.7209 23.7285 19.6711H22.3982H22.3991ZM17.6009 20.3289C17.6206 20.4744 17.6535 20.6158 17.6979 20.7523L14.5745 22.2396C14.3287 21.6451 14.1766 21.0022 14.1396 20.3297H17.6009V20.3289ZM23.0938 22.797C23.2919 22.5725 23.4671 22.3275 23.6151 22.0644L25.1319 22.8463C24.8763 23.3051 24.5614 23.726 24.1971 24.0985L23.0938 22.797ZM23.8313 21.6213C23.9998 21.2184 24.1059 20.7835 24.1412 20.3289H25.8604C25.8193 21.0655 25.6417 21.7652 25.3523 22.4048L23.8313 21.6205V21.6213ZM24.1412 19.6711C23.9727 17.494 22.1491 15.7741 19.9293 15.7741C19.0348 15.7741 18.1945 16.0561 17.5031 16.5411L16.4647 15.3161C17.4488 14.5712 18.673 14.1289 19.9992 14.1289C21.9025 14.1289 23.5953 15.0399 24.6691 16.4474C24.6756 16.4663 24.6847 16.4852 24.697 16.5025C24.7118 16.5247 24.7307 16.542 24.7505 16.5576C25.3934 17.4422 25.7954 18.5119 25.8596 19.6703H24.1404L24.1412 19.6711ZM23.6882 14.0286L25.4921 10.8781C26.6595 11.5835 27.6807 12.5059 28.4995 13.5904L25.5044 15.6499C24.9979 15.0103 24.3838 14.4602 23.6874 14.0294L23.6882 14.0286ZM23.2599 13.7844C22.3752 13.3191 21.3812 13.0354 20.3256 12.9877L20.3108 9.35541C22.0266 9.40474 23.6422 9.86186 25.0637 10.6339L23.2591 13.7852L23.2599 13.7844ZM19.6678 12.9869C18.1863 13.056 16.8248 13.5879 15.7214 14.4389L13.3742 11.669C15.1097 10.2853 17.2852 9.43269 19.6539 9.35623L19.6687 12.9877L19.6678 12.9869ZM9.35541 20.3289H12.9869C13.0264 21.1782 13.2171 21.9896 13.5328 22.7345L10.2549 24.295C9.7147 23.0749 9.39816 21.7356 9.35459 20.3289H9.35541ZM15.4131 25.3087C16.2953 26.0717 17.3674 26.6201 18.5489 26.8692L17.9142 30.444C16.0503 30.0723 14.3599 29.2124 12.9828 28.0038L15.4131 25.3079V25.3087ZM18.872 26.9292C19.2395 26.9892 19.616 27.0213 20 27.0213C20.3839 27.0213 20.7432 26.9909 21.1025 26.9341L21.7463 30.5064C21.1782 30.601 20.5952 30.6503 20 30.6503C19.4047 30.6503 18.8111 30.5993 18.2373 30.504L18.872 26.93V26.9292ZM21.4256 26.8758C22.5586 26.6414 23.5929 26.1325 24.4553 25.4222L26.8009 28.1896C25.4608 29.3044 23.8436 30.097 22.0694 30.4481L21.4256 26.8758ZM26.3767 22.9327C26.7459 22.1335 26.9695 21.2546 27.0131 20.3289H30.6446C30.5977 21.8532 30.2302 23.2977 29.6062 24.5967L26.3767 22.9327ZM27.0131 19.6711C26.9506 18.331 26.5115 17.0879 25.7987 16.0462L28.7881 13.9908C29.9046 15.6178 30.5804 17.5688 30.6446 19.6711H27.0131ZM9.67194 8.31866L12.3933 11.53C10.148 13.5485 8.70672 16.4441 8.61464 19.6711H4.40351C4.49723 15.1583 6.51729 11.1107 9.67194 8.31866ZM5.92369 26.722L9.72456 24.9124C10.3215 26.1564 11.1387 27.2762 12.1236 28.2208L9.53958 31.0877C9.44831 31.1888 9.45654 31.3451 9.55766 31.4363C9.60453 31.4791 9.66372 31.4996 9.72292 31.4996C9.79034 31.4996 9.85775 31.4725 9.90626 31.4182L12.4879 28.5546C13.9661 29.8545 15.7815 30.7778 17.7851 31.174L17.0492 35.3202C12.1327 34.3747 8.03008 31.1148 5.92369 26.722ZM17.3723 35.3786L18.1082 31.2324C18.724 31.336 19.3554 31.3903 20 31.3903C20.6446 31.3903 21.2661 31.3368 21.877 31.2349L22.6235 35.3786C21.7701 35.5241 20.8937 35.6006 20 35.6006C19.1063 35.6006 18.2266 35.5233 17.3723 35.3778V35.3786ZM22.9475 35.3202L22.2009 31.1765C24.1059 30.8024 25.8423 29.9515 27.2794 28.7536L28.9032 30.6692C28.9682 30.7457 29.0611 30.7852 29.154 30.7852C29.2288 30.7852 29.3044 30.7597 29.3661 30.7071C29.505 30.5895 29.5215 30.3823 29.4047 30.2434L27.7719 28.317C28.6788 27.4694 29.4467 26.4762 30.0386 25.3745L31.1921 25.9689C31.2283 25.9878 31.2669 25.996 31.3048 25.996C31.3944 25.996 31.4807 25.9475 31.5243 25.862C31.5868 25.7412 31.5391 25.5924 31.4182 25.5299L30.2631 24.9346C30.9397 23.5337 31.3368 21.9732 31.3845 20.3272H35.5956C35.4411 27.7752 30.0403 33.9562 22.9466 35.3186L22.9475 35.3202Z" fill="url(#paint0_linear_82_793)"/>
</g>
<defs>
<linearGradient id="paint0_linear_82_793" x1="5.13934" y1="28.5801" x2="34.8606" y2="11.4207" gradientUnits="userSpaceOnUse">
<stop offset="0.12" stop-color="white" stop-opacity="0"/>
<stop offset="0.44" stop-color="white"/>
</linearGradient>
<clipPath id="clip0_82_793">
<rect width="40" height="40" fill="white"/>
</clipPath>
</defs>
</svg>
