<svg width="48" height="48" viewBox="0 0 48 48" fill="none" xmlns="http://www.w3.org/2000/svg">
<g clip-path="url(#clip0_2191_1748)">
<path d="M24 48C37.2548 48 48 37.2548 48 24C48 10.7452 37.2548 0 24 0C10.7452 0 0 10.7452 0 24C0 37.2548 10.7452 48 24 48Z" fill="#FF0043"/>
<path d="M24 3.40479C12.6433 3.40479 3.40479 12.6443 3.40479 24C3.40479 35.3558 12.6443 44.5953 24 44.5953C35.3558 44.5953 44.5953 35.3558 44.5953 24C44.5953 12.6443 35.3568 3.40479 24 3.40479ZM42.7158 23.6054H37.6625C37.5855 20.8962 36.7153 18.3814 35.2769 16.2858L38.949 13.7611C39.0841 13.6684 39.1177 13.4839 39.0249 13.3497C38.9322 13.2145 38.7477 13.181 38.6135 13.2737L34.9325 15.8044C33.8729 14.3945 32.5479 13.1958 31.0325 12.2832L33.2454 8.41967C33.3264 8.2776 33.278 8.09705 33.1359 8.01615C32.9939 7.93426 32.8133 7.98458 32.7324 8.12566L30.5205 11.9892C28.6834 10.9888 26.5928 10.3968 24.372 10.3376L24.3542 5.86142C24.3542 5.64436 24.1766 5.46875 23.9596 5.46875H23.9576C23.7396 5.46875 23.564 5.64732 23.5649 5.86536L23.5827 10.3406C20.5233 10.4333 17.7134 11.5363 15.4758 13.327L12.2102 9.47335C15.4314 6.85393 19.5367 5.2813 24.002 5.2813C34.1926 5.2813 42.5067 13.4661 42.7178 23.6074L42.7158 23.6054ZM32.7531 33.3037L29.9334 29.9759C30.5057 29.4086 30.996 28.7594 31.3877 28.048L35.2591 30.043C34.602 31.2614 33.7535 32.3615 32.7531 33.3027V33.3037ZM12.4706 29.5131L16.4022 27.6416C16.8206 28.5108 17.3829 29.2971 18.0597 29.9699L15.1433 33.206C14.0462 32.1503 13.1376 30.9013 12.4706 29.5141V29.5131ZM5.28426 24.3947H10.3376C10.3899 26.2199 10.8013 27.9563 11.5038 29.5358L6.94076 31.7083C5.92456 29.4697 5.33852 26.9963 5.28426 24.3947ZM15.4462 14.5129L18.263 17.8368C16.7002 19.292 15.6899 21.3323 15.5843 23.6054H11.2265C11.3361 20.0033 12.9442 16.7712 15.4462 14.5129ZM24 31.0443C23.6212 31.0443 23.2502 31.0138 22.8871 30.9556L23.6103 26.8799C23.7376 26.8967 23.8678 26.9066 23.999 26.9066C24.6689 26.9066 25.2856 26.6786 25.7779 26.2958L26.8247 27.5311C26.0334 28.1842 25.0192 28.5779 23.9152 28.5779C23.779 28.5779 23.6685 28.6884 23.6685 28.8245C23.6685 28.9607 23.779 29.0711 23.9152 29.0711C25.1405 29.0711 26.2663 28.6341 27.1433 27.908L28.4535 29.454C27.239 30.4484 25.6881 31.0453 23.999 31.0453L24 31.0443ZM17.6493 27.0476L21.3855 25.2688C21.7466 26.0107 22.4156 26.576 23.2246 26.801L22.5004 30.8825C20.3595 30.4159 18.5787 28.9755 17.6503 27.0486L17.6493 27.0476ZM19.1568 18.8914L20.395 20.3516C19.6639 21.056 19.1391 21.9815 18.9368 23.0351C18.9112 23.1693 18.999 23.2986 19.1322 23.3242C19.2663 23.3499 19.3956 23.2621 19.4212 23.1289C19.6018 22.1886 20.0665 21.3619 20.7147 20.7285L21.8404 22.0574C21.4595 22.4797 21.202 23.0144 21.1211 23.6054H16.9676C17.0702 21.7535 17.892 20.0921 19.1568 18.8914ZM27.39 26.9756L26.3343 25.7305C26.6195 25.3467 26.8118 24.8909 26.8799 24.3947H28.4762C28.3924 25.3754 27.9977 26.2692 27.391 26.9756H27.39ZM22.2774 24C22.2774 23.0499 23.0499 22.2774 24 22.2774C24.9501 22.2774 25.7226 23.0499 25.7226 24C25.7226 24.9501 24.9501 25.7226 24 25.7226C23.0499 25.7226 22.2774 24.9501 22.2774 24ZM26.8789 23.6054C26.6856 22.1886 25.4691 21.0935 24 21.0935C23.4268 21.0935 22.8931 21.2602 22.4422 21.5473L21.3234 20.2273C22.0663 19.7172 22.9621 19.4222 23.9152 19.4222C26.3057 19.4222 28.274 21.2652 28.4743 23.6054H26.8779H26.8789ZM21.1211 24.3947C21.1448 24.5693 21.1843 24.739 21.2376 24.9028L17.4895 26.6875C17.1945 25.9742 17.012 25.2027 16.9676 24.3957H21.1211V24.3947ZM27.7126 27.3564C27.9504 27.0871 28.1605 26.7931 28.3381 26.4774L30.1584 27.4156C29.8515 27.9662 29.4737 28.4713 29.0366 28.9182L27.7126 27.3564ZM28.5976 25.9456C28.7998 25.4622 28.9271 24.9403 28.9695 24.3947H31.0325C30.9832 25.2787 30.7701 26.1183 30.4228 26.8858L28.5976 25.9446V25.9456ZM28.9695 23.6054C28.7673 20.9929 26.579 18.9289 23.9152 18.9289C22.8418 18.9289 21.8335 19.2673 21.0037 19.8494L19.7577 18.3794C20.9386 17.4855 22.4077 16.9547 23.999 16.9547C26.283 16.9547 28.3144 18.0479 29.6029 19.7369C29.6108 19.7596 29.6217 19.7823 29.6365 19.803C29.6542 19.8297 29.6769 19.8504 29.7006 19.8691C30.4721 20.9307 30.9546 22.2143 31.0315 23.6044H28.9685L28.9695 23.6054ZM28.4259 16.8344L30.5905 13.0537C31.9915 13.9002 33.2168 15.0072 34.1995 16.3085L30.6053 18.7799C29.9976 18.0124 29.2606 17.3523 28.4249 16.8354L28.4259 16.8344ZM27.9119 16.5413C26.8503 15.9829 25.6575 15.6426 24.3907 15.5853L24.373 11.2265C26.432 11.2857 28.3707 11.8343 30.0765 12.7607L27.9109 16.5423L27.9119 16.5413ZM23.6014 15.5843C21.8236 15.6672 20.1898 16.3056 18.8658 17.3267L16.049 14.0028C18.1317 12.3424 20.7423 11.3193 23.5847 11.2275L23.6024 15.5853L23.6014 15.5843ZM11.2265 24.3947H15.5843C15.6317 25.4138 15.8606 26.3876 16.2394 27.2815L12.3059 29.154C11.6577 27.6899 11.2778 26.0827 11.2256 24.3947H11.2265ZM18.4958 30.3705C19.5544 31.2861 20.8409 31.9441 22.2587 32.2431L21.497 36.5328C19.2604 36.0869 17.232 35.0549 15.5794 33.6046L18.4958 30.3695V30.3705ZM22.6464 32.3151C23.0874 32.3871 23.5393 32.4256 24 32.4256C24.4608 32.4256 24.8919 32.3891 25.3231 32.321L26.0956 36.6078C25.4138 36.7212 24.7143 36.7804 24 36.7804C23.2857 36.7804 22.5734 36.7193 21.8848 36.6048L22.6464 32.3161V32.3151ZM25.7108 32.251C27.0703 31.9698 28.3115 31.3591 29.3464 30.5067L32.1612 33.8275C30.553 35.1654 28.6124 36.1165 26.4833 36.5377L25.7108 32.251ZM31.6521 27.5192C32.0951 26.5603 32.3634 25.5056 32.4157 24.3947H36.7735C36.7173 26.2238 36.2763 27.9573 35.5275 29.5161L31.6521 27.5192ZM32.4157 23.6054C32.3407 21.9972 31.8139 20.5055 30.9585 19.2555L34.5458 16.789C35.8856 18.7415 36.6966 21.0827 36.7735 23.6054H32.4157ZM11.6064 9.98244L14.872 13.8361C12.1776 16.2582 10.4481 19.733 10.3376 23.6054H5.28426C5.39673 18.19 7.8208 13.3329 11.6064 9.98244ZM7.10848 32.0665L11.6695 29.895C12.3858 31.3877 13.3665 32.7314 14.5484 33.865L11.4475 37.3053C11.338 37.4267 11.3479 37.6141 11.4692 37.7236C11.5255 37.7749 11.5965 37.7996 11.6675 37.7996C11.7485 37.7996 11.8294 37.767 11.8876 37.7019L14.9855 34.2656C16.7594 35.8254 18.9378 36.9334 21.3421 37.4089L20.4591 42.3843C14.5593 41.2497 9.63614 37.3379 7.10848 32.0665ZM20.8469 42.4544L21.7299 37.4789C22.4688 37.6033 23.2265 37.6684 24 37.6684C24.7735 37.6684 25.5194 37.6042 26.2524 37.4819L27.1483 42.4544C26.1242 42.629 25.0725 42.7207 24 42.7207C22.9276 42.7207 21.8719 42.628 20.8469 42.4534V42.4544ZM27.537 42.3843L26.6412 37.4119C28.9271 36.963 31.0108 35.9418 32.7354 34.5044L34.6839 36.8031C34.7619 36.8949 34.8733 36.9422 34.9848 36.9422C35.0746 36.9422 35.1654 36.9116 35.2394 36.8485C35.4061 36.7074 35.4258 36.4588 35.2857 36.2921L33.3264 33.9805C34.4146 32.9633 35.3361 31.7715 36.0464 30.4494L37.4306 31.1627C37.474 31.1854 37.5204 31.1953 37.5658 31.1953C37.6733 31.1953 37.7769 31.1371 37.8292 31.0345C37.9042 30.8895 37.8469 30.7109 37.7019 30.6359L36.3157 29.9216C37.1277 28.2404 37.6042 26.3679 37.6615 24.3927H42.7148C42.5293 33.3303 36.0484 40.7475 27.536 42.3823L27.537 42.3843Z" fill="url(#paint0_linear_2191_1748)"/>
</g>
<defs>
<linearGradient id="paint0_linear_2191_1748" x1="6.16726" y1="34.2962" x2="41.8328" y2="13.7049" gradientUnits="userSpaceOnUse">
<stop offset="0.12" stop-color="white" stop-opacity="0"/>
<stop offset="0.44" stop-color="white"/>
</linearGradient>
<clipPath id="clip0_2191_1748">
<rect width="48" height="48" fill="white"/>
</clipPath>
</defs>
</svg>
