<svg width="24" height="24" viewBox="0 0 24 24" fill="none" xmlns="http://www.w3.org/2000/svg">
<path d="M11.781 5C12.0413 5 12.2983 5.04374 12.5425 5.1281L21.5544 8.2931C21.8596 8.40246 22.062 8.68365 22.062 8.99922C22.062 9.31478 21.8596 9.59597 21.5544 9.70533L19.858 10.3008C19.7742 10.3302 19.7388 10.4267 19.7844 10.5014C20.2551 11.2763 20.5199 12.1761 20.5199 13.1203V13.9982C20.5199 14.8856 20.8668 15.801 21.2363 16.5227C21.4451 16.9289 21.6829 17.3288 21.9592 17.6975C22.062 17.8319 22.0909 18.0068 22.0331 18.1662C21.9753 18.3255 21.8403 18.4442 21.6733 18.4849L19.6171 18.9848C19.4821 19.0191 19.3375 18.9941 19.2187 18.9223C19.0998 18.8504 19.0163 18.7317 18.9906 18.5973C18.7143 17.2601 18.8524 16.0603 19.058 15.2011C19.1586 14.7668 19.2932 14.3235 19.4796 13.9154C19.4876 13.8979 19.4918 13.8792 19.4918 13.8598V13.1203C19.4918 12.1767 19.1641 11.2863 18.5954 10.5739C18.1809 10.0896 17.6444 9.69908 17.0147 9.4585L11.9706 7.53075C11.7071 7.43077 11.4083 7.55575 11.3055 7.81195C11.2027 8.06815 11.3312 8.35872 11.5947 8.4587L16.6388 10.3864C16.961 10.5102 17.2515 10.6873 17.5024 10.9023C17.584 10.9723 17.5599 11.101 17.4577 11.1369L12.5457 12.861C12.3015 12.9453 12.0445 12.9891 11.7842 12.9891C11.524 12.9891 11.267 12.9453 11.0228 12.861L2.00767 9.70533C1.70246 9.5991 1.50005 9.31478 1.50005 8.99922C1.50005 8.68365 1.70246 8.40246 2.00767 8.2931L11.0196 5.1281C11.2638 5.04374 11.5208 5 11.781 5ZM17.9486 16.7386C17.9493 16.7446 17.9496 16.7505 17.9496 16.7564C17.9345 17.8565 15.1773 18.9969 11.781 18.9969C8.38477 18.9969 5.62754 17.8565 5.61244 16.7564C5.61244 16.7505 5.61244 16.7446 5.6134 16.7386L6.08504 12.3801C6.09468 12.2908 6.18785 12.2342 6.2746 12.2645L10.6726 13.8105C11.0292 13.9354 11.4051 13.9979 11.781 13.9979C12.1569 13.9979 12.536 13.9354 12.8894 13.8105L17.2875 12.2645C17.3742 12.2339 17.4674 12.2908 17.477 12.3801L17.9486 16.7386Z" fill="white"/>
</svg>
