<svg width="24" height="24" viewBox="0 0 24 24" fill="none" xmlns="http://www.w3.org/2000/svg">
<path d="M13.7232 7.25131C13.7255 8.27405 14.0847 8.63413 15.1011 8.63413H19.3004V9.26401L19.2994 9.26499C19.2994 12.3226 19.3027 15.3821 19.2994 18.4398C19.2982 20.0822 18.4009 20.9952 16.7886 20.9974C14.0205 21.0008 11.2512 21.0008 8.48298 20.9974C6.90076 20.9952 6.00363 20.0828 6.00251 18.474C5.99916 14.1581 5.99916 9.84339 6.00251 5.52866C6.00363 3.91871 6.90006 3.00567 8.48005 3.00229C10.2038 2.99779 11.9291 3.00131 13.7232 3.00131C13.7232 4.47607 13.721 5.86444 13.7232 7.25131ZM9.05622 15.5101C8.71713 15.5102 8.44294 15.7878 8.44294 16.1302C8.4431 16.4725 8.71723 16.7492 9.05622 16.7494H16.5689C16.908 16.7494 17.183 16.4726 17.1832 16.1302C17.1832 15.7877 16.9081 15.5101 16.5689 15.5101H9.05622ZM9.05622 11.8871C8.71713 11.8872 8.44294 12.1648 8.44294 12.5072C8.44319 12.8494 8.71729 13.1262 9.05622 13.1263H16.5699C16.9089 13.1263 17.1839 12.8495 17.1842 12.5072H17.1832C17.1832 12.1647 16.9081 11.8871 16.5689 11.8871H9.05622ZM14.9517 3.87729C14.9517 3.71399 15.1465 3.63267 15.2603 3.74741C16.3672 4.87291 17.5104 6.03184 18.5972 7.13706C18.711 7.25197 18.629 7.44858 18.4683 7.44858H15.1334C15.0331 7.44852 14.9528 7.36609 14.9527 7.26596L14.9517 7.26499V3.87729Z" fill="white"/>
</svg>
