<svg width="24" height="24" viewBox="0 0 24 24" fill="none" xmlns="http://www.w3.org/2000/svg">
<path fill-rule="evenodd" clip-rule="evenodd" d="M18.2973 15.8956L16.9268 4.45293C16.8884 4.1381 16.533 3.94268 16.1359 4.01506L14.3876 4.33713C14.0066 4.40589 13.7312 4.70263 13.7664 5.00661L15.1401 16.4746L18.2941 15.892L18.2973 15.8956ZM8.77319 16.3376V4.57645C8.77319 4.26524 8.54905 4.01554 8.27688 4.01554H5.93619C5.66081 4.01554 5.43987 4.26886 5.43987 4.57645V16.3376H8.77319ZM20.1341 20.0001H3.3202C3.14409 20.0001 3 19.8373 3 19.6383C3 19.4392 3.14409 19.2764 3.3202 19.2764H20.1341C20.3102 19.2764 20.4543 19.4392 20.4543 19.6383C20.4543 19.8373 20.3102 20.0001 20.1341 20.0001ZM5.43987 17.5064V16.9853H8.77319V17.5064C8.77319 17.814 8.55225 18.0673 8.27688 18.0673H5.93619C5.66401 18.0673 5.43987 17.8176 5.43987 17.5064ZM12.9256 6.26282V4.57645C12.9256 4.26524 12.7015 4.01554 12.4293 4.01554H10.0886C9.81325 4.01554 9.59231 4.26886 9.59231 4.57645V6.26282H12.9256ZM9.59231 17.5069V6.91463H12.9256V17.5069C12.9256 17.8145 12.7047 18.0678 12.4293 18.0678H10.0886C9.81645 18.0678 9.59231 17.8181 9.59231 17.5069ZM15.2982 17.8025L15.2118 17.0679L18.3658 16.4853L18.4587 17.2489C18.4939 17.5528 18.2185 17.8496 17.8375 17.9183L16.0891 18.2404C15.6921 18.3128 15.3367 18.1174 15.2982 17.8025Z" fill="white"/>
</svg>
