<?xml version="1.0" encoding="UTF-8" standalone="no"?>
<!DOCTYPE svg PUBLIC "-//W3C//DTD SVG 1.1//EN"
 "http://www.w3.org/Graphics/SVG/1.1/DTD/svg11.dtd">
<!-- Generated by graphviz version 2.47.0 (20210316.0004)
 -->
<!-- Title: dependencies Pages: 1 -->
<svg width="1024pt" height="284pt"
 viewBox="0.00 0.00 1024.00 284.00" xmlns="http://www.w3.org/2000/svg" xmlns:xlink="http://www.w3.org/1999/xlink">
<g id="graph0" class="graph" transform="scale(1 1) rotate(0) translate(4 280)">
<title>dependencies</title>
<polygon fill="white" stroke="transparent" points="-4,4 -4,-280 1020,-280 1020,4 -4,4"/>
<text text-anchor="start" x="487.01" y="-42.4" font-family="Times-12" font-weight="bold" font-size="14.00">Legend</text>
<polygon fill="#ffffb3" stroke="transparent" points="274,-10 274,-30 294,-30 294,-10 274,-10"/>
<text text-anchor="start" x="297.63" y="-15.4" font-family="Times-12" font-size="14.00"> &#160;Declarations</text>
<polygon fill="#8dd3c7" stroke="transparent" points="387,-10 387,-30 407,-30 407,-10 387,-10"/>
<text text-anchor="start" x="410.73" y="-15.4" font-family="Times-12" font-size="14.00"> &#160;Module</text>
<polygon fill="#80b1d3" stroke="transparent" points="473,-10 473,-30 493,-30 493,-10 473,-10"/>
<text text-anchor="start" x="496.78" y="-15.4" font-family="Times-12" font-size="14.00"> &#160;Bootstrap</text>
<polygon fill="#fdb462" stroke="transparent" points="570,-10 570,-30 590,-30 590,-10 570,-10"/>
<text text-anchor="start" x="593.67" y="-15.4" font-family="Times-12" font-size="14.00"> &#160;Providers</text>
<polygon fill="#fb8072" stroke="transparent" points="666,-10 666,-30 686,-30 686,-10 666,-10"/>
<text text-anchor="start" x="689.73" y="-15.4" font-family="Times-12" font-size="14.00"> &#160;Exports</text>
<g id="clust1" class="cluster">
<title>cluster_AppModule</title>
<polygon fill="none" stroke="black" stroke-dasharray="1,5" points="8,-70 8,-268 1008,-268 1008,-70 8,-70"/>
</g>
<g id="clust2" class="cluster">
<title>cluster_AppModule_declarations</title>
<polygon fill="none" stroke="black" points="878,-78 878,-130 1000,-130 1000,-78 878,-78"/>
</g>
<g id="clust4" class="cluster">
<title>cluster_AppModule_imports</title>
<polygon fill="none" stroke="black" points="16,-78 16,-130 870,-130 870,-78 16,-78"/>
</g>
<g id="clust6" class="cluster">
<title>cluster_AppModule_bootstrap</title>
<polygon fill="none" stroke="black" points="447,-208 447,-260 571,-260 571,-208 447,-208"/>
</g>
<!-- AppComponent -->
<g id="node1" class="node">
<title>AppComponent</title>
<polygon fill="#ffffb3" stroke="black" points="991.94,-122 886.06,-122 886.06,-86 991.94,-86 991.94,-122"/>
<text text-anchor="middle" x="939" y="-99.8" font-family="Times,serif" font-size="14.00">AppComponent</text>
</g>
<!-- AppModule -->
<g id="node2" class="node">
<title>AppModule</title>
<polygon fill="#8dd3c7" stroke="black" points="550.66,-187 547.66,-191 526.66,-191 523.66,-187 467.34,-187 467.34,-151 550.66,-151 550.66,-187"/>
<text text-anchor="middle" x="509" y="-164.8" font-family="Times,serif" font-size="14.00">AppModule</text>
</g>
<!-- AppComponent&#45;&gt;AppModule -->
<g id="edge1" class="edge">
<title>AppComponent&#45;&gt;AppModule</title>
<path fill="none" stroke="black" d="M939,-122.29C939,-144.21 939,-178 939,-178 939,-178 561.01,-178 561.01,-178"/>
<polygon fill="black" stroke="black" points="561.01,-174.5 551.01,-178 561.01,-181.5 561.01,-174.5"/>
</g>
<!-- AppComponent  -->
<g id="node9" class="node">
<title>AppComponent </title>
<polygon fill="#80b1d3" stroke="black" points="563.44,-252 454.56,-252 454.56,-216 563.44,-216 563.44,-252"/>
<text text-anchor="middle" x="509" y="-229.8" font-family="Times,serif" font-size="14.00">AppComponent </text>
</g>
<!-- AppModule&#45;&gt;AppComponent  -->
<g id="edge8" class="edge">
<title>AppModule&#45;&gt;AppComponent </title>
<path fill="none" stroke="black" stroke-dasharray="1,5" d="M509,-187.11C509,-187.11 509,-205.99 509,-205.99"/>
<polygon fill="black" stroke="black" points="505.5,-205.99 509,-215.99 512.5,-205.99 505.5,-205.99"/>
</g>
<!-- AppRoutingModule -->
<g id="node3" class="node">
<title>AppRoutingModule</title>
<polygon fill="#8dd3c7" stroke="black" points="862.27,-122 859.27,-126 838.27,-126 835.27,-122 733.73,-122 733.73,-86 862.27,-86 862.27,-122"/>
<text text-anchor="middle" x="798" y="-99.8" font-family="Times,serif" font-size="14.00">AppRoutingModule</text>
</g>
<!-- AppRoutingModule&#45;&gt;AppModule -->
<g id="edge2" class="edge">
<title>AppRoutingModule&#45;&gt;AppModule</title>
<path fill="none" stroke="black" d="M798,-122.11C798,-141.34 798,-169 798,-169 798,-169 560.71,-169 560.71,-169"/>
<polygon fill="black" stroke="black" points="560.71,-165.5 550.71,-169 560.71,-172.5 560.71,-165.5"/>
</g>
<!-- BottomToolbarModule -->
<g id="node4" class="node">
<title>BottomToolbarModule</title>
<polygon fill="#8dd3c7" stroke="black" points="715.88,-122 712.88,-126 691.88,-126 688.88,-122 570.12,-122 570.12,-86 715.88,-86 715.88,-122"/>
<text text-anchor="middle" x="643" y="-99.8" font-family="Times,serif" font-size="14.00">BottomToolbarModule</text>
</g>
<!-- BottomToolbarModule&#45;&gt;AppModule -->
<g id="edge3" class="edge">
<title>BottomToolbarModule&#45;&gt;AppModule</title>
<path fill="none" stroke="black" d="M643,-122.03C643,-138.4 643,-160 643,-160 643,-160 560.66,-160 560.66,-160"/>
<polygon fill="black" stroke="black" points="560.66,-156.5 550.66,-160 560.66,-163.5 560.66,-156.5"/>
</g>
<!-- PageModule -->
<g id="node5" class="node">
<title>PageModule</title>
<polygon fill="#8dd3c7" stroke="black" points="552.26,-122 549.26,-126 528.26,-126 525.26,-122 465.74,-122 465.74,-86 552.26,-86 552.26,-122"/>
<text text-anchor="middle" x="509" y="-99.8" font-family="Times,serif" font-size="14.00">PageModule</text>
</g>
<!-- PageModule&#45;&gt;AppModule -->
<g id="edge4" class="edge">
<title>PageModule&#45;&gt;AppModule</title>
<path fill="none" stroke="black" d="M509,-122.11C509,-122.11 509,-140.99 509,-140.99"/>
<polygon fill="black" stroke="black" points="505.5,-140.99 509,-150.99 512.5,-140.99 505.5,-140.99"/>
</g>
<!-- PageRendererModule -->
<g id="node6" class="node">
<title>PageRendererModule</title>
<polygon fill="#8dd3c7" stroke="black" points="448.06,-122 445.06,-126 424.06,-126 421.06,-122 309.94,-122 309.94,-86 448.06,-86 448.06,-122"/>
<text text-anchor="middle" x="379" y="-99.8" font-family="Times,serif" font-size="14.00">PageRendererModule</text>
</g>
<!-- PageRendererModule&#45;&gt;AppModule -->
<g id="edge5" class="edge">
<title>PageRendererModule&#45;&gt;AppModule</title>
<path fill="none" stroke="black" d="M379,-122.03C379,-138.4 379,-160 379,-160 379,-160 457.15,-160 457.15,-160"/>
<polygon fill="black" stroke="black" points="457.15,-163.5 467.15,-160 457.15,-156.5 457.15,-163.5"/>
</g>
<!-- TissueInfoPageModule -->
<g id="node7" class="node">
<title>TissueInfoPageModule</title>
<polygon fill="#8dd3c7" stroke="black" points="292.13,-122 289.13,-126 268.13,-126 265.13,-122 145.87,-122 145.87,-86 292.13,-86 292.13,-122"/>
<text text-anchor="middle" x="219" y="-99.8" font-family="Times,serif" font-size="14.00">TissueInfoPageModule</text>
</g>
<!-- TissueInfoPageModule&#45;&gt;AppModule -->
<g id="edge6" class="edge">
<title>TissueInfoPageModule&#45;&gt;AppModule</title>
<path fill="none" stroke="black" d="M219,-122.11C219,-141.34 219,-169 219,-169 219,-169 457.14,-169 457.14,-169"/>
<polygon fill="black" stroke="black" points="457.14,-172.5 467.14,-169 457.14,-165.5 457.14,-172.5"/>
</g>
<!-- ToolbarModule -->
<g id="node8" class="node">
<title>ToolbarModule</title>
<polygon fill="#8dd3c7" stroke="black" points="127.87,-122 124.87,-126 103.87,-126 100.87,-122 24.13,-122 24.13,-86 127.87,-86 127.87,-122"/>
<text text-anchor="middle" x="76" y="-99.8" font-family="Times,serif" font-size="14.00">ToolbarModule</text>
</g>
<!-- ToolbarModule&#45;&gt;AppModule -->
<g id="edge7" class="edge">
<title>ToolbarModule&#45;&gt;AppModule</title>
<path fill="none" stroke="black" d="M76,-122.29C76,-144.21 76,-178 76,-178 76,-178 457.09,-178 457.09,-178"/>
<polygon fill="black" stroke="black" points="457.09,-181.5 467.09,-178 457.09,-174.5 457.09,-181.5"/>
</g>
</g>
</svg>
