<?xml version="1.0" encoding="UTF-8" standalone="no"?>
<!DOCTYPE svg PUBLIC "-//W3C//DTD SVG 1.1//EN"
 "http://www.w3.org/Graphics/SVG/1.1/DTD/svg11.dtd">
<!-- Generated by graphviz version 2.47.0 (20210316.0004)
 -->
<!-- Title: dependencies Pages: 1 -->
<svg width="799pt" height="284pt"
 viewBox="0.00 0.00 799.00 284.00" xmlns="http://www.w3.org/2000/svg" xmlns:xlink="http://www.w3.org/1999/xlink">
<g id="graph0" class="graph" transform="scale(1 1) rotate(0) translate(4 280)">
<title>dependencies</title>
<polygon fill="white" stroke="transparent" points="-4,4 -4,-280 795,-280 795,4 -4,4"/>
<text text-anchor="start" x="374.51" y="-42.4" font-family="Times-12" font-weight="bold" font-size="14.00">Legend</text>
<polygon fill="#ffffb3" stroke="transparent" points="161.5,-10 161.5,-30 181.5,-30 181.5,-10 161.5,-10"/>
<text text-anchor="start" x="185.13" y="-15.4" font-family="Times-12" font-size="14.00"> &#160;Declarations</text>
<polygon fill="#8dd3c7" stroke="transparent" points="274.5,-10 274.5,-30 294.5,-30 294.5,-10 274.5,-10"/>
<text text-anchor="start" x="298.23" y="-15.4" font-family="Times-12" font-size="14.00"> &#160;Module</text>
<polygon fill="#80b1d3" stroke="transparent" points="360.5,-10 360.5,-30 380.5,-30 380.5,-10 360.5,-10"/>
<text text-anchor="start" x="384.28" y="-15.4" font-family="Times-12" font-size="14.00"> &#160;Bootstrap</text>
<polygon fill="#fdb462" stroke="transparent" points="457.5,-10 457.5,-30 477.5,-30 477.5,-10 457.5,-10"/>
<text text-anchor="start" x="481.17" y="-15.4" font-family="Times-12" font-size="14.00"> &#160;Providers</text>
<polygon fill="#fb8072" stroke="transparent" points="553.5,-10 553.5,-30 573.5,-30 573.5,-10 553.5,-10"/>
<text text-anchor="start" x="577.23" y="-15.4" font-family="Times-12" font-size="14.00"> &#160;Exports</text>
<g id="clust1" class="cluster">
<title>cluster_OrganVersionModule</title>
<polygon fill="none" stroke="black" stroke-dasharray="1,5" points="8,-70 8,-268 783,-268 783,-70 8,-70"/>
</g>
<g id="clust5" class="cluster">
<title>cluster_OrganVersionModule_exports</title>
<polygon fill="none" stroke="black" points="268,-208 268,-260 448,-260 448,-208 268,-208"/>
</g>
<g id="clust2" class="cluster">
<title>cluster_OrganVersionModule_declarations</title>
<polygon fill="none" stroke="black" points="599,-78 599,-130 775,-130 775,-78 599,-78"/>
</g>
<g id="clust4" class="cluster">
<title>cluster_OrganVersionModule_imports</title>
<polygon fill="none" stroke="black" points="16,-78 16,-130 591,-130 591,-78 16,-78"/>
</g>
<!-- OrganVersionComponent -->
<g id="node1" class="node">
<title>OrganVersionComponent</title>
<polygon fill="#ffffb3" stroke="black" points="767.13,-122 606.87,-122 606.87,-86 767.13,-86 767.13,-122"/>
<text text-anchor="middle" x="687" y="-99.8" font-family="Times,serif" font-size="14.00">OrganVersionComponent</text>
</g>
<!-- OrganVersionModule -->
<g id="node2" class="node">
<title>OrganVersionModule</title>
<polygon fill="#8dd3c7" stroke="black" points="427.35,-187 424.35,-191 403.35,-191 400.35,-187 288.65,-187 288.65,-151 427.35,-151 427.35,-187"/>
<text text-anchor="middle" x="358" y="-164.8" font-family="Times,serif" font-size="14.00">OrganVersionModule</text>
</g>
<!-- OrganVersionComponent&#45;&gt;OrganVersionModule -->
<g id="edge1" class="edge">
<title>OrganVersionComponent&#45;&gt;OrganVersionModule</title>
<path fill="none" stroke="black" d="M687,-122.11C687,-141.34 687,-169 687,-169 687,-169 437.37,-169 437.37,-169"/>
<polygon fill="black" stroke="black" points="437.37,-165.5 427.37,-169 437.37,-172.5 437.37,-165.5"/>
</g>
<!-- OrganVersionComponent  -->
<g id="node7" class="node">
<title>OrganVersionComponent </title>
<polygon fill="#fb8072" stroke="black" points="440.13,-252 275.87,-252 275.87,-216 440.13,-216 440.13,-252"/>
<text text-anchor="middle" x="358" y="-229.8" font-family="Times,serif" font-size="14.00">OrganVersionComponent </text>
</g>
<!-- OrganVersionModule&#45;&gt;OrganVersionComponent  -->
<g id="edge6" class="edge">
<title>OrganVersionModule&#45;&gt;OrganVersionComponent </title>
<path fill="none" stroke="black" stroke-dasharray="5,2" d="M358,-187.11C358,-187.11 358,-205.99 358,-205.99"/>
<polygon fill="black" stroke="black" points="354.5,-205.99 358,-215.99 361.5,-205.99 354.5,-205.99"/>
</g>
<!-- ChooseVersionModule -->
<g id="node3" class="node">
<title>ChooseVersionModule</title>
<polygon fill="#8dd3c7" stroke="black" points="582.86,-122 579.86,-126 558.86,-126 555.86,-122 437.14,-122 437.14,-86 582.86,-86 582.86,-122"/>
<text text-anchor="middle" x="510" y="-99.8" font-family="Times,serif" font-size="14.00">ChooseVersionModule</text>
</g>
<!-- ChooseVersionModule&#45;&gt;OrganVersionModule -->
<g id="edge2" class="edge">
<title>ChooseVersionModule&#45;&gt;OrganVersionModule</title>
<path fill="none" stroke="black" d="M437.1,-104C428.75,-104 423.15,-104 423.15,-104 423.15,-104 423.15,-140.89 423.15,-140.89"/>
<polygon fill="black" stroke="black" points="419.65,-140.89 423.15,-150.89 426.65,-140.89 419.65,-140.89"/>
</g>
<!-- OrganTabsModule -->
<g id="node4" class="node">
<title>OrganTabsModule</title>
<polygon fill="#8dd3c7" stroke="black" points="418.74,-122 415.74,-126 394.74,-126 391.74,-122 297.26,-122 297.26,-86 418.74,-86 418.74,-122"/>
<text text-anchor="middle" x="358" y="-99.8" font-family="Times,serif" font-size="14.00">OrganTabsModule</text>
</g>
<!-- OrganTabsModule&#45;&gt;OrganVersionModule -->
<g id="edge3" class="edge">
<title>OrganTabsModule&#45;&gt;OrganVersionModule</title>
<path fill="none" stroke="black" d="M358,-122.11C358,-122.11 358,-140.99 358,-140.99"/>
<polygon fill="black" stroke="black" points="354.5,-140.99 358,-150.99 361.5,-140.99 354.5,-140.99"/>
</g>
<!-- TableModule -->
<g id="node5" class="node">
<title>TableModule</title>
<polygon fill="#8dd3c7" stroke="black" points="278.92,-122 275.92,-126 254.92,-126 251.92,-122 187.08,-122 187.08,-86 278.92,-86 278.92,-122"/>
<text text-anchor="middle" x="233" y="-99.8" font-family="Times,serif" font-size="14.00">TableModule</text>
</g>
<!-- TableModule&#45;&gt;OrganVersionModule -->
<g id="edge4" class="edge">
<title>TableModule&#45;&gt;OrganVersionModule</title>
<path fill="none" stroke="black" d="M278.97,-104C287.01,-104 292.85,-104 292.85,-104 292.85,-104 292.85,-140.89 292.85,-140.89"/>
<polygon fill="black" stroke="black" points="289.35,-140.89 292.85,-150.89 296.35,-140.89 289.35,-140.89"/>
</g>
<!-- TwoDimImageModule -->
<g id="node6" class="node">
<title>TwoDimImageModule</title>
<polygon fill="#8dd3c7" stroke="black" points="169.58,-122 166.58,-126 145.58,-126 142.58,-122 24.42,-122 24.42,-86 169.58,-86 169.58,-122"/>
<text text-anchor="middle" x="97" y="-99.8" font-family="Times,serif" font-size="14.00">TwoDimImageModule</text>
</g>
<!-- TwoDimImageModule&#45;&gt;OrganVersionModule -->
<g id="edge5" class="edge">
<title>TwoDimImageModule&#45;&gt;OrganVersionModule</title>
<path fill="none" stroke="black" d="M97,-122.11C97,-141.34 97,-169 97,-169 97,-169 278.4,-169 278.4,-169"/>
<polygon fill="black" stroke="black" points="278.4,-172.5 288.4,-169 278.4,-165.5 278.4,-172.5"/>
</g>
</g>
</svg>
