<svg width="48" height="48" viewBox="0 0 48 48" fill="none" xmlns="http://www.w3.org/2000/svg">
<rect width="48" height="48" rx="24" fill="currentColor"/>
<path d="M12 15.36C12 13.5043 13.5043 12 15.36 12H32.64C34.4957 12 36 13.5043 36 15.36V32.64C36 34.4957 34.4957 36 32.64 36H15.36C13.5043 36 12 34.4957 12 32.64V15.36Z" fill="currentColor"/>
<path d="M20.64 18.48C20.64 19.6729 19.6729 20.64 18.48 20.64C17.2871 20.64 16.32 19.6729 16.32 18.48C16.32 17.2871 17.2871 16.32 18.48 16.32C19.6729 16.32 20.64 17.2871 20.64 18.48Z" fill="white"/>
<path d="M16.8 22.08C16.8 21.8149 17.0149 21.6 17.28 21.6H19.68C19.9451 21.6 20.16 21.8149 20.16 22.08V31.2C20.16 31.4651 19.9451 31.68 19.68 31.68H17.28C17.0149 31.68 16.8 31.4651 16.8 31.2V22.08Z" fill="white"/>
<path d="M22.08 21.6L24.24 21.6C24.5051 21.6 24.72 21.8149 24.72 22.08V22.56C25.68 21.36 27.44 21.28 28.32 21.36C31.0634 21.6094 31.52 24.4 31.44 25.92L31.44 31.2C31.44 31.4651 31.2251 31.68 30.96 31.68L28.8 31.68C28.5349 31.68 28.32 31.4651 28.32 31.2V25.92C28.24 25.28 27.792 24 26.64 24C25.488 24 24.8 25.44 24.72 25.92V31.2C24.72 31.4651 24.5051 31.68 24.24 31.68L22.08 31.68C21.8149 31.68 21.6 31.4651 21.6 31.2V22.08C21.6 21.8149 21.8149 21.6 22.08 21.6Z" fill="white"/>
</svg>
