<svg width="48" height="48" viewBox="0 0 48 48" fill="none" xmlns="http://www.w3.org/2000/svg">
<rect width="48" height="48" rx="24" fill="currentColor"/>
<path d="M21.6 27.4986V20.5011L27.84 23.9998L21.6 27.4986Z" fill="currentColor"/>
<path d="M35.4937 18.3878C35.3571 17.8949 35.0897 17.4455 34.7181 17.0845C34.3466 16.7236 33.884 16.4638 33.3766 16.3311C31.5082 15.8398 24 15.8398 24 15.8398C24 15.8398 16.4918 15.8398 14.6234 16.3311C14.116 16.4638 13.6534 16.7236 13.2819 17.0845C12.9103 17.4455 12.6429 17.8949 12.5063 18.3878C12.1574 20.239 11.9881 22.1179 12.0006 23.9998C11.9881 25.8818 12.1574 27.7607 12.5063 29.6119C12.6429 30.1048 12.9103 30.5542 13.2819 30.9152C13.6534 31.2761 14.116 31.5359 14.6234 31.6686C16.4918 32.1598 24 32.1598 24 32.1598C24 32.1598 31.5082 32.1598 33.3766 31.6686C33.884 31.5359 34.3466 31.2761 34.7181 30.9152C35.0897 30.5542 35.3571 30.1048 35.4937 29.6119C35.8426 27.7607 36.0119 25.8818 35.9994 23.9998C36.0119 22.1179 35.8426 20.239 35.4937 18.3878ZM21.6001 27.497V20.5027L27.8312 23.9998L21.6001 27.497Z" fill="white"/>
</svg>
