<?xml version="1.0" encoding="UTF-8" standalone="no"?>
<!DOCTYPE svg PUBLIC "-//W3C//DTD SVG 1.1//EN"
 "http://www.w3.org/Graphics/SVG/1.1/DTD/svg11.dtd">
<!-- Generated by graphviz version 2.47.0 (20210316.0004)
 -->
<!-- Title: dependencies Pages: 1 -->
<svg width="504pt" height="284pt"
 viewBox="0.00 0.00 504.00 284.00" xmlns="http://www.w3.org/2000/svg" xmlns:xlink="http://www.w3.org/1999/xlink">
<g id="graph0" class="graph" transform="scale(1 1) rotate(0) translate(4 280)">
<title>dependencies</title>
<polygon fill="white" stroke="transparent" points="-4,4 -4,-280 500,-280 500,4 -4,4"/>
<text text-anchor="start" x="227.01" y="-42.4" font-family="Times-12" font-weight="bold" font-size="14.00">Legend</text>
<polygon fill="#ffffb3" stroke="transparent" points="14,-10 14,-30 34,-30 34,-10 14,-10"/>
<text text-anchor="start" x="37.63" y="-15.4" font-family="Times-12" font-size="14.00"> &#160;Declarations</text>
<polygon fill="#8dd3c7" stroke="transparent" points="127,-10 127,-30 147,-30 147,-10 127,-10"/>
<text text-anchor="start" x="150.73" y="-15.4" font-family="Times-12" font-size="14.00"> &#160;Module</text>
<polygon fill="#80b1d3" stroke="transparent" points="213,-10 213,-30 233,-30 233,-10 213,-10"/>
<text text-anchor="start" x="236.78" y="-15.4" font-family="Times-12" font-size="14.00"> &#160;Bootstrap</text>
<polygon fill="#fdb462" stroke="transparent" points="310,-10 310,-30 330,-30 330,-10 310,-10"/>
<text text-anchor="start" x="333.67" y="-15.4" font-family="Times-12" font-size="14.00"> &#160;Providers</text>
<polygon fill="#fb8072" stroke="transparent" points="406,-10 406,-30 426,-30 426,-10 406,-10"/>
<text text-anchor="start" x="429.73" y="-15.4" font-family="Times-12" font-size="14.00"> &#160;Exports</text>
<g id="clust1" class="cluster">
<title>cluster_HraCommonModule</title>
<polygon fill="none" stroke="black" stroke-dasharray="1,5" points="72,-70 72,-268 424,-268 424,-70 72,-70"/>
</g>
<g id="clust3" class="cluster">
<title>cluster_HraCommonModule_imports</title>
<polygon fill="none" stroke="black" points="182,-78 182,-130 280,-130 280,-78 182,-78"/>
</g>
<g id="clust4" class="cluster">
<title>cluster_HraCommonModule_exports</title>
<polygon fill="none" stroke="black" points="80,-208 80,-260 416,-260 416,-208 80,-208"/>
</g>
<!-- SlugifyPipe -->
<g id="node1" class="node">
<title>SlugifyPipe</title>
<polygon fill="#8dd3c7" stroke="black" points="272.11,-122 269.11,-126 248.11,-126 245.11,-122 189.89,-122 189.89,-86 272.11,-86 272.11,-122"/>
<text text-anchor="middle" x="231" y="-99.8" font-family="Times,serif" font-size="14.00">SlugifyPipe</text>
</g>
<!-- HraCommonModule -->
<g id="node2" class="node">
<title>HraCommonModule</title>
<polygon fill="#8dd3c7" stroke="black" points="297.15,-187 294.15,-191 273.15,-191 270.15,-187 164.85,-187 164.85,-151 297.15,-151 297.15,-187"/>
<text text-anchor="middle" x="231" y="-164.8" font-family="Times,serif" font-size="14.00">HraCommonModule</text>
</g>
<!-- SlugifyPipe&#45;&gt;HraCommonModule -->
<g id="edge1" class="edge">
<title>SlugifyPipe&#45;&gt;HraCommonModule</title>
<path fill="none" stroke="black" d="M231,-122.11C231,-122.11 231,-140.99 231,-140.99"/>
<polygon fill="black" stroke="black" points="227.5,-140.99 231,-150.99 234.5,-140.99 227.5,-140.99"/>
</g>
<!-- AnalyticsModule  -->
<g id="node3" class="node">
<title>AnalyticsModule </title>
<polygon fill="#fb8072" stroke="black" points="408.2,-252 291.8,-252 291.8,-216 408.2,-216 408.2,-252"/>
<text text-anchor="middle" x="350" y="-229.8" font-family="Times,serif" font-size="14.00">AnalyticsModule </text>
</g>
<!-- HraCommonModule&#45;&gt;AnalyticsModule  -->
<g id="edge2" class="edge">
<title>HraCommonModule&#45;&gt;AnalyticsModule </title>
<path fill="none" stroke="black" stroke-dasharray="5,2" d="M282.73,-187.11C282.73,-206.34 282.73,-234 282.73,-234 282.73,-234 283.61,-234 283.61,-234"/>
<polygon fill="black" stroke="black" points="281.52,-237.5 291.52,-234 281.52,-230.5 281.52,-237.5"/>
</g>
<!-- SlugifyPipe  -->
<g id="node4" class="node">
<title>SlugifyPipe </title>
<polygon fill="#fb8072" stroke="black" points="273.61,-252 188.39,-252 188.39,-216 273.61,-216 273.61,-252"/>
<text text-anchor="middle" x="231" y="-229.8" font-family="Times,serif" font-size="14.00">SlugifyPipe </text>
</g>
<!-- HraCommonModule&#45;&gt;SlugifyPipe  -->
<g id="edge3" class="edge">
<title>HraCommonModule&#45;&gt;SlugifyPipe </title>
<path fill="none" stroke="black" stroke-dasharray="5,2" d="M231,-187.11C231,-187.11 231,-205.99 231,-205.99"/>
<polygon fill="black" stroke="black" points="227.5,-205.99 231,-215.99 234.5,-205.99 227.5,-205.99"/>
</g>
<!-- UrlModule  -->
<g id="node5" class="node">
<title>UrlModule </title>
<polygon fill="#fb8072" stroke="black" points="169.71,-252 88.29,-252 88.29,-216 169.71,-216 169.71,-252"/>
<text text-anchor="middle" x="129" y="-229.8" font-family="Times,serif" font-size="14.00">UrlModule </text>
</g>
<!-- HraCommonModule&#45;&gt;UrlModule  -->
<g id="edge4" class="edge">
<title>HraCommonModule&#45;&gt;UrlModule </title>
<path fill="none" stroke="black" stroke-dasharray="5,2" d="M179.02,-187.11C179.02,-206.34 179.02,-234 179.02,-234 179.02,-234 178.11,-234 178.11,-234"/>
<polygon fill="black" stroke="black" points="179.85,-230.5 169.85,-234 179.85,-237.5 179.85,-230.5"/>
</g>
</g>
</svg>
