<?xml version="1.0" encoding="UTF-8" standalone="no"?>
<!DOCTYPE svg PUBLIC "-//W3C//DTD SVG 1.1//EN"
 "http://www.w3.org/Graphics/SVG/1.1/DTD/svg11.dtd">
<!-- Generated by graphviz version 2.47.0 (20210316.0004)
 -->
<!-- Title: dependencies Pages: 1 -->
<svg width="504pt" height="284pt"
 viewBox="0.00 0.00 504.00 284.00" xmlns="http://www.w3.org/2000/svg" xmlns:xlink="http://www.w3.org/1999/xlink">
<g id="graph0" class="graph" transform="scale(1 1) rotate(0) translate(4 280)">
<title>dependencies</title>
<polygon fill="white" stroke="transparent" points="-4,4 -4,-280 500,-280 500,4 -4,4"/>
<text text-anchor="start" x="227.01" y="-42.4" font-family="Times-12" font-weight="bold" font-size="14.00">Legend</text>
<polygon fill="#ffffb3" stroke="transparent" points="14,-10 14,-30 34,-30 34,-10 14,-10"/>
<text text-anchor="start" x="37.63" y="-15.4" font-family="Times-12" font-size="14.00"> &#160;Declarations</text>
<polygon fill="#8dd3c7" stroke="transparent" points="127,-10 127,-30 147,-30 147,-10 127,-10"/>
<text text-anchor="start" x="150.73" y="-15.4" font-family="Times-12" font-size="14.00"> &#160;Module</text>
<polygon fill="#80b1d3" stroke="transparent" points="213,-10 213,-30 233,-30 233,-10 213,-10"/>
<text text-anchor="start" x="236.78" y="-15.4" font-family="Times-12" font-size="14.00"> &#160;Bootstrap</text>
<polygon fill="#fdb462" stroke="transparent" points="310,-10 310,-30 330,-30 330,-10 310,-10"/>
<text text-anchor="start" x="333.67" y="-15.4" font-family="Times-12" font-size="14.00"> &#160;Providers</text>
<polygon fill="#fb8072" stroke="transparent" points="406,-10 406,-30 426,-30 426,-10 406,-10"/>
<text text-anchor="start" x="429.73" y="-15.4" font-family="Times-12" font-size="14.00"> &#160;Exports</text>
<g id="clust1" class="cluster">
<title>cluster_DownloadFtuModule</title>
<polygon fill="none" stroke="black" stroke-dasharray="1,5" points="68,-70 68,-268 428,-268 428,-70 68,-70"/>
</g>
<g id="clust5" class="cluster">
<title>cluster_DownloadFtuModule_exports</title>
<polygon fill="none" stroke="black" points="159,-208 159,-260 337,-260 337,-208 159,-208"/>
</g>
<g id="clust4" class="cluster">
<title>cluster_DownloadFtuModule_imports</title>
<polygon fill="none" stroke="black" points="258,-78 258,-130 420,-130 420,-78 258,-78"/>
</g>
<g id="clust2" class="cluster">
<title>cluster_DownloadFtuModule_declarations</title>
<polygon fill="none" stroke="black" points="76,-78 76,-130 250,-130 250,-78 76,-78"/>
</g>
<!-- DownloadFtuComponent -->
<g id="node1" class="node">
<title>DownloadFtuComponent</title>
<polygon fill="#ffffb3" stroke="black" points="242.32,-122 83.68,-122 83.68,-86 242.32,-86 242.32,-122"/>
<text text-anchor="middle" x="163" y="-99.8" font-family="Times,serif" font-size="14.00">DownloadFtuComponent</text>
</g>
<!-- DownloadFtuModule -->
<g id="node2" class="node">
<title>DownloadFtuModule</title>
<polygon fill="#8dd3c7" stroke="black" points="316.04,-187 313.04,-191 292.04,-191 289.04,-187 179.96,-187 179.96,-151 316.04,-151 316.04,-187"/>
<text text-anchor="middle" x="248" y="-164.8" font-family="Times,serif" font-size="14.00">DownloadFtuModule</text>
</g>
<!-- DownloadFtuComponent&#45;&gt;DownloadFtuModule -->
<g id="edge1" class="edge">
<title>DownloadFtuComponent&#45;&gt;DownloadFtuModule</title>
<path fill="none" stroke="black" d="M210.95,-122.11C210.95,-122.11 210.95,-140.99 210.95,-140.99"/>
<polygon fill="black" stroke="black" points="207.45,-140.99 210.95,-150.99 214.45,-140.99 207.45,-140.99"/>
</g>
<!-- DownloadFtuComponent  -->
<g id="node4" class="node">
<title>DownloadFtuComponent </title>
<polygon fill="#fb8072" stroke="black" points="328.82,-252 167.18,-252 167.18,-216 328.82,-216 328.82,-252"/>
<text text-anchor="middle" x="248" y="-229.8" font-family="Times,serif" font-size="14.00">DownloadFtuComponent </text>
</g>
<!-- DownloadFtuModule&#45;&gt;DownloadFtuComponent  -->
<g id="edge3" class="edge">
<title>DownloadFtuModule&#45;&gt;DownloadFtuComponent </title>
<path fill="none" stroke="black" stroke-dasharray="5,2" d="M248,-187.11C248,-187.11 248,-205.99 248,-205.99"/>
<polygon fill="black" stroke="black" points="244.5,-205.99 248,-215.99 251.5,-205.99 244.5,-205.99"/>
</g>
<!-- ChooseVersionModule -->
<g id="node3" class="node">
<title>ChooseVersionModule</title>
<polygon fill="#8dd3c7" stroke="black" points="411.86,-122 408.86,-126 387.86,-126 384.86,-122 266.14,-122 266.14,-86 411.86,-86 411.86,-122"/>
<text text-anchor="middle" x="339" y="-99.8" font-family="Times,serif" font-size="14.00">ChooseVersionModule</text>
</g>
<!-- ChooseVersionModule&#45;&gt;DownloadFtuModule -->
<g id="edge2" class="edge">
<title>ChooseVersionModule&#45;&gt;DownloadFtuModule</title>
<path fill="none" stroke="black" d="M291.17,-122.11C291.17,-122.11 291.17,-140.99 291.17,-140.99"/>
<polygon fill="black" stroke="black" points="287.67,-140.99 291.17,-150.99 294.67,-140.99 287.67,-140.99"/>
</g>
</g>
</svg>
