<svg width="128" height="128" viewBox="0 0 128 128" fill="none" xmlns="http://www.w3.org/2000/svg">
<rect width="128" height="128" fill="#444A65"/>
<mask id="mask0_2805_4775" style="mask-type:alpha" maskUnits="userSpaceOnUse" x="40" y="40" width="48" height="48">
<rect x="40" y="40" width="48" height="48" fill="#D9D9D9"/>
</mask>
<g mask="url(#mask0_2805_4775)">
<path d="M57.75 82C55.5833 82 53.75 81.2417 52.25 79.725C50.75 78.2083 50 76.3833 50 74.25V56.8C48.8333 56.3667 47.875 55.675 47.125 54.725C46.375 53.775 46 52.7 46 51.5C46 49.9667 46.5417 48.6667 47.625 47.6C48.7083 46.5333 50.0167 46 51.55 46C53.05 46 54.3333 46.5333 55.4 47.6C56.4667 48.6667 57 49.9667 57 51.5C57 52.7 56.625 53.775 55.875 54.725C55.125 55.675 54.1667 56.3667 53 56.8V74.25C53 75.55 53.4583 76.6667 54.375 77.6C55.2917 78.5333 56.4333 79 57.8 79C59.1333 79 60.25 78.5333 61.15 77.6C62.05 76.6667 62.5 75.55 62.5 74.25V53.75C62.5 51.5833 63.25 49.75 64.75 48.25C66.25 46.75 68.0833 46 70.25 46C72.4167 46 74.25 46.75 75.75 48.25C77.25 49.75 78 51.5833 78 53.75V71.2C79.1667 71.6333 80.125 72.325 80.875 73.275C81.625 74.225 82 75.3 82 76.5C82 78 81.4667 79.2917 80.4 80.375C79.3333 81.4583 78.0333 82 76.5 82C75 82 73.7083 81.4583 72.625 80.375C71.5417 79.2917 71 78 71 76.5C71 75.3 71.375 74.2167 72.125 73.25C72.875 72.2833 73.8333 71.6 75 71.2V53.75C75 52.4167 74.5417 51.2917 73.625 50.375C72.7083 49.4583 71.5833 49 70.25 49C68.9167 49 67.7917 49.4583 66.875 50.375C65.9583 51.2917 65.5 52.4167 65.5 53.75V74.25C65.5 76.3833 64.75 78.2083 63.25 79.725C61.75 81.2417 59.9167 82 57.75 82ZM51.55 54C52.2167 54 52.7917 53.75 53.275 53.25C53.7583 52.75 54 52.15 54 51.45C54 50.7833 53.7583 50.2083 53.275 49.725C52.7917 49.2417 52.2 49 51.5 49C50.8333 49 50.25 49.2417 49.75 49.725C49.25 50.2083 49 50.8 49 51.5C49 52.1667 49.25 52.75 49.75 53.25C50.25 53.75 50.85 54 51.55 54ZM76.55 79C77.2167 79 77.7917 78.75 78.275 78.25C78.7583 77.75 79 77.15 79 76.45C79 75.7833 78.7583 75.2083 78.275 74.725C77.7917 74.2417 77.2 74 76.5 74C75.8333 74 75.25 74.2417 74.75 74.725C74.25 75.2083 74 75.8 74 76.5C74 77.1667 74.25 77.75 74.75 78.25C75.25 78.75 75.85 79 76.55 79Z" fill="white"/>
</g>
</svg>
