<svg width="128" height="128" viewBox="0 0 128 128" fill="none" xmlns="http://www.w3.org/2000/svg">
<rect width="128" height="128" fill="#444A65"/>
<mask id="mask0_2805_4825" style="mask-type:alpha" maskUnits="userSpaceOnUse" x="40" y="40" width="48" height="48">
<rect x="40" y="40" width="48" height="48" fill="#D9D9D9"/>
</mask>
<g mask="url(#mask0_2805_4825)">
<path d="M54.5 73.5H61.5V66.5H54.5V73.5ZM66.5 73.5H73.5V66.5H66.5V73.5ZM54.5 61.5H61.5V54.5H54.5V61.5ZM66.5 61.5H73.5V54.5H66.5V61.5ZM49 82C48.2 82 47.5 81.7 46.9 81.1C46.3 80.5 46 79.8 46 79V49C46 48.2 46.3 47.5 46.9 46.9C47.5 46.3 48.2 46 49 46H79C79.8 46 80.5 46.3 81.1 46.9C81.7 47.5 82 48.2 82 49V79C82 79.8 81.7 80.5 81.1 81.1C80.5 81.7 79.8 82 79 82H49ZM49 79H79V49H49V79Z" fill="white"/>
</g>
</svg>
