<svg width="120" height="144" viewBox="0 0 120 144" fill="none" xmlns="http://www.w3.org/2000/svg">
<rect width="120" height="144" rx="4" fill="#FAFAFA"/>
<g clip-path="url(#clip0_2079_9428)">
<path d="M77.4321 76.1983C78.6818 74.9487 79.0194 73.2602 78.1863 72.4271C77.3532 71.594 75.6648 71.9317 74.4151 73.1814C73.1654 74.431 72.8277 76.1195 73.6608 76.9526C74.494 77.7857 76.1824 77.448 77.4321 76.1983Z" fill="#212121"/>
<path d="M88.5229 58.88C88.0782 58.5336 87.5144 58.3772 86.9547 58.4452C86.3951 58.5131 85.8851 58.7999 85.5362 59.2427C84.6784 60.2608 83.6799 61.1515 82.5709 61.888C82.169 62.1063 81.7256 62.2372 81.2696 62.272C81.6775 61.7587 82.0483 61.2169 82.3789 60.6507C84.7943 55.6714 85.7274 50.1027 85.0669 44.608C84.9905 44.0422 84.6925 43.5299 84.2384 43.1838C83.7843 42.8378 83.2113 42.6863 82.6456 42.7627C82.0798 42.839 81.5675 43.1371 81.2214 43.5911C80.8753 44.0452 80.7238 44.6182 80.8002 45.184C81.2949 49.4936 80.6704 53.858 78.9869 57.856C78.1525 56.8077 77.437 55.6701 76.8536 54.464C76.3637 52.4768 76.1767 50.427 76.2989 48.384C76.2989 47.8182 76.0741 47.2756 75.674 46.8755C75.274 46.4754 74.7313 46.2507 74.1656 46.2507C73.6178 46.25 73.0907 46.46 72.6936 46.8373C72.2964 47.2146 72.0596 47.7302 72.0322 48.2773C71.8848 50.9092 72.1731 53.5474 72.8856 56.0853C73.7803 58.0176 74.9126 59.8307 76.2562 61.4827C75.1469 62.5707 73.9096 63.616 72.8002 64.5333C72.6858 63.9488 72.5362 63.3718 72.3522 62.8053C72.2306 60.8909 71.974 58.9875 71.5842 57.1093C70.8435 54.6525 69.5851 52.3829 67.8936 50.4533C66.8516 49.1863 65.9569 47.805 65.2269 46.336C67.5395 45.5501 69.6565 44.277 71.4349 42.6027C73.6783 39.7626 75.3713 36.5285 76.4269 33.0667C76.5966 32.5263 76.5448 31.9407 76.2827 31.4386C76.0207 30.9365 75.5699 30.5591 75.0296 30.3893C74.4892 30.2196 73.9036 30.2714 73.4015 30.5335C72.8994 30.7955 72.522 31.2463 72.3522 31.7867C71.5245 34.5449 70.2332 37.142 68.5336 39.4667C67.4767 40.4774 66.2294 41.2678 64.8642 41.792C65.8003 36.0409 67.3229 30.4008 69.4082 24.96C69.5785 24.5638 69.667 24.1372 69.6683 23.706C69.6696 23.2747 69.5838 22.8476 69.4159 22.4504C69.248 22.0532 69.0015 21.6939 68.6913 21.3944C68.3811 21.0948 68.0135 20.861 67.6106 20.707C67.2078 20.5531 66.778 20.4822 66.347 20.4985C65.9161 20.5149 65.4929 20.6182 65.1028 20.8022C64.7128 20.9862 64.364 21.2472 64.0774 21.5694C63.7907 21.8917 63.5722 22.2685 63.4349 22.6773C63.2002 23.3173 62.2189 25.9413 61.1736 29.312C60.3665 28.0868 59.4679 26.9243 58.4856 25.8347C56.3328 23.7107 53.6753 22.1691 50.7629 21.3547C50.2141 21.2132 49.6315 21.2956 49.1434 21.5836C48.6553 21.8717 48.3017 22.3418 48.1602 22.8907C48.0188 23.4395 48.1011 24.022 48.3892 24.5101C48.6772 24.9982 49.1474 25.3519 49.6962 25.4933C51.798 26.0787 53.7244 27.17 55.3069 28.672L56.2029 29.7387C54.5959 30.3116 52.9145 30.6493 51.2109 30.7413C48.9508 30.3738 46.7798 29.585 44.8109 28.416C44.5687 28.2741 44.3008 28.1813 44.0227 28.1431C43.7446 28.1049 43.4617 28.1219 43.1901 28.1933C42.9186 28.2646 42.6638 28.3889 42.4404 28.5589C42.217 28.7289 42.0294 28.9413 41.8882 29.184C41.6083 29.6713 41.532 30.2493 41.6757 30.7925C41.8195 31.3358 42.1719 31.8004 42.6562 32.0853C45.2496 33.6784 48.164 34.6765 51.1896 35.008V35.008C53.6667 34.8692 56.1069 34.3437 58.4216 33.4507H58.5496C58.8794 34.0798 59.1715 34.7281 59.4242 35.392C58.6605 38.2459 58.2592 41.1845 58.2296 44.1387C55.4215 42.7993 52.5109 41.6864 49.5256 40.8107C44.9941 39.4849 40.2582 39.0004 35.5522 39.3813C34.9864 39.452 34.4719 39.7446 34.1218 40.1947C33.7718 40.6448 33.6148 41.2155 33.6856 41.7813C33.7563 42.3471 34.0489 42.8616 34.499 43.2117C34.949 43.5618 35.5198 43.7187 36.0856 43.648C40.2196 43.3284 44.3772 43.7694 48.3522 44.9493C49.0989 45.1627 49.8029 45.376 50.4856 45.6107C46.8598 45.7696 43.3287 46.8172 40.2029 48.6613C39.7822 48.9963 39.5035 49.4777 39.4226 50.0093C39.3417 50.5409 39.4646 51.0835 39.7666 51.5284C40.0686 51.9733 40.5275 52.2878 41.0514 52.4088C41.5753 52.5299 42.1256 52.4486 42.5922 52.1813C46.5097 50.0854 50.9958 49.3003 55.3922 49.9413C58.5937 50.5331 61.4438 52.3364 63.3496 54.976C64.2745 56.0217 64.9978 57.2296 65.4829 58.5387C65.8096 60.1999 66.0164 61.8824 66.1016 63.5733C66.119 66.0014 66.6194 68.4018 67.5736 70.6347C68.7906 72.5908 70.3433 74.3168 72.1602 75.7333C72.1732 75.1068 72.3121 74.4893 72.5687 73.9176C72.8252 73.3458 73.1942 72.8315 73.6536 72.4053C74.3834 71.6359 75.3403 71.1201 76.3842 70.9333C75.6262 70.2708 74.9134 69.5581 74.2509 68.8C75.0189 68.224 76.0642 67.4133 77.1949 66.432C78.0643 66.5547 78.9409 66.6189 79.8189 66.624C81.6265 66.7098 83.422 66.2886 85.0029 65.408C86.499 64.4125 87.8427 63.2053 88.9922 61.824C89.3139 61.3691 89.4448 60.8065 89.3571 60.2564C89.2694 59.7063 88.97 59.2123 88.5229 58.88Z" fill="#212121"/>
</g>
<path d="M42.4673 102V91.8182H45.9027C46.5656 91.8182 47.1174 91.9342 47.5582 92.1662C48.0024 92.3982 48.3354 92.7147 48.5575 93.1158C48.7796 93.5168 48.8906 93.9725 48.8906 94.483C48.8906 94.9072 48.8193 95.2701 48.6768 95.5717C48.5343 95.8733 48.3404 96.117 48.0952 96.3026C47.8499 96.4882 47.5765 96.6224 47.2748 96.7053V96.7848C47.603 96.808 47.9211 96.924 48.2294 97.1328C48.5376 97.3383 48.7912 97.6267 48.99 97.9979C49.1889 98.3691 49.2883 98.8132 49.2883 99.3303C49.2883 99.844 49.174 100.303 48.9453 100.707C48.7166 101.108 48.3653 101.425 47.8913 101.657C47.4207 101.886 46.8208 102 46.0916 102H42.4673ZM43.397 101.165H46.0916C46.8771 101.165 47.4571 100.991 47.8317 100.643C48.2095 100.295 48.3984 99.8572 48.3984 99.3303C48.3984 98.9425 48.304 98.5911 48.115 98.2763C47.9294 97.9581 47.6659 97.7062 47.3246 97.5206C46.9865 97.335 46.5888 97.2422 46.1314 97.2422H43.397V101.165ZM43.397 96.4169H45.9872C46.3882 96.4169 46.7396 96.334 47.0412 96.1683C47.3428 96.0026 47.5781 95.7739 47.7471 95.4822C47.9162 95.1906 48.0007 94.8575 48.0007 94.483C48.0007 93.9427 47.825 93.5036 47.4737 93.1655C47.1224 92.8241 46.5987 92.6534 45.9027 92.6534H43.397V96.4169ZM52.3028 91.8182V102H51.4178V91.8182H52.3028ZM57.6824 102.159C57.0229 102.159 56.4395 101.992 55.9324 101.657C55.4286 101.322 55.0342 100.86 54.7492 100.27C54.4641 99.6766 54.3216 98.9922 54.3216 98.2166C54.3216 97.4344 54.4641 96.7467 54.7492 96.1534C55.0342 95.5568 55.4286 95.0928 55.9324 94.7614C56.4395 94.4266 57.0229 94.2592 57.6824 94.2592C58.342 94.2592 58.9237 94.4266 59.4274 94.7614C59.9312 95.0961 60.3256 95.5601 60.6107 96.1534C60.899 96.7467 61.0432 97.4344 61.0432 98.2166C61.0432 98.9922 60.9007 99.6766 60.6157 100.27C60.3306 100.86 59.9345 101.322 59.4274 101.657C58.9237 101.992 58.342 102.159 57.6824 102.159ZM57.6824 101.349C58.2127 101.349 58.6618 101.206 59.0297 100.921C59.3976 100.636 59.676 100.257 59.8649 99.7827C60.0572 99.3087 60.1533 98.7867 60.1533 98.2166C60.1533 97.6465 60.0572 97.1229 59.8649 96.6456C59.676 96.1683 59.3976 95.7855 59.0297 95.4972C58.6618 95.2088 58.2127 95.0646 57.6824 95.0646C57.1554 95.0646 56.7063 95.2088 56.3351 95.4972C55.9672 95.7855 55.6872 96.1683 55.4949 96.6456C55.306 97.1229 55.2115 97.6465 55.2115 98.2166C55.2115 98.7867 55.306 99.3087 55.4949 99.7827C55.6872 100.257 55.9672 100.636 56.3351 100.921C56.703 101.206 57.1521 101.349 57.6824 101.349ZM66.0239 102.159C65.3643 102.159 64.781 101.992 64.2739 101.657C63.7701 101.322 63.3757 100.86 63.0907 100.27C62.8056 99.6766 62.6631 98.9922 62.6631 98.2166C62.6631 97.4344 62.8056 96.7467 63.0907 96.1534C63.3757 95.5568 63.7701 95.0928 64.2739 94.7614C64.781 94.4266 65.3643 94.2592 66.0239 94.2592C66.6835 94.2592 67.2651 94.4266 67.7689 94.7614C68.2727 95.0961 68.6671 95.5601 68.9522 96.1534C69.2405 96.7467 69.3847 97.4344 69.3847 98.2166C69.3847 98.9922 69.2422 99.6766 68.9571 100.27C68.6721 100.86 68.276 101.322 67.7689 101.657C67.2651 101.992 66.6835 102.159 66.0239 102.159ZM66.0239 101.349C66.5542 101.349 67.0033 101.206 67.3712 100.921C67.7391 100.636 68.0175 100.257 68.2064 99.7827C68.3987 99.3087 68.4948 98.7867 68.4948 98.2166C68.4948 97.6465 68.3987 97.1229 68.2064 96.6456C68.0175 96.1683 67.7391 95.7855 67.3712 95.4972C67.0033 95.2088 66.5542 95.0646 66.0239 95.0646C65.4969 95.0646 65.0478 95.2088 64.6766 95.4972C64.3087 95.7855 64.0286 96.1683 63.8364 96.6456C63.6475 97.1229 63.553 97.6465 63.553 98.2166C63.553 98.7867 63.6475 99.3087 63.8364 99.7827C64.0286 100.257 64.3087 100.636 64.6766 100.921C65.0445 101.206 65.4936 101.349 66.0239 101.349ZM74.1466 102.159C73.5202 102.159 72.9717 101.993 72.501 101.662C72.0304 101.33 71.6625 100.868 71.3974 100.275C71.1355 99.6816 71.0046 98.9905 71.0046 98.2017C71.0046 97.4162 71.1355 96.7285 71.3974 96.1385C71.6625 95.5452 72.0321 95.0845 72.506 94.7564C72.98 94.425 73.5318 94.2592 74.1616 94.2592C74.6256 94.2592 75.0117 94.3421 75.3199 94.5078C75.6282 94.6702 75.8751 94.8724 76.0607 95.1143C76.2463 95.3563 76.3905 95.5916 76.4932 95.8203H76.5728V91.8182H77.4627V102H76.5976V100.583H76.4932C76.3905 100.815 76.2447 101.054 76.0557 101.299C75.8668 101.541 75.6166 101.745 75.305 101.911C74.9968 102.076 74.6107 102.159 74.1466 102.159ZM74.251 101.349C74.7449 101.349 75.1658 101.214 75.5138 100.946C75.8618 100.674 76.127 100.301 76.3093 99.8274C76.4949 99.3501 76.5877 98.8033 76.5877 98.1868C76.5877 97.5769 76.4965 97.0384 76.3143 96.571C76.132 96.1004 75.8668 95.7325 75.5188 95.4673C75.1708 95.1989 74.7482 95.0646 74.251 95.0646C73.7406 95.0646 73.3098 95.2038 72.9584 95.4822C72.6104 95.7573 72.3453 96.1302 72.163 96.6009C71.984 97.0715 71.8945 97.6001 71.8945 98.1868C71.8945 98.7801 71.9857 99.3153 72.1679 99.7926C72.3502 100.27 72.6154 100.649 72.9634 100.931C73.3147 101.21 73.7439 101.349 74.251 101.349ZM22.8521 109.818L26.034 118.792H26.1235L29.3053 109.818H30.2797L26.5759 120H25.5816L21.8777 109.818H22.8521ZM33.3327 120.174C32.872 120.174 32.451 120.085 32.0699 119.906C31.6887 119.723 31.3855 119.461 31.1601 119.12C30.9347 118.775 30.822 118.358 30.822 117.867C30.822 117.489 30.8933 117.171 31.0358 116.913C31.1783 116.654 31.3805 116.442 31.6423 116.276C31.9042 116.111 32.2141 115.98 32.572 115.884C32.93 115.787 33.3244 115.713 33.7552 115.66C34.1828 115.607 34.5441 115.56 34.8391 115.521C35.1373 115.481 35.3644 115.418 35.5202 115.332C35.6759 115.246 35.7538 115.106 35.7538 114.914V114.735C35.7538 114.215 35.598 113.805 35.2865 113.507C34.9783 113.205 34.5341 113.055 33.9541 113.055C33.4039 113.055 32.9548 113.176 32.6068 113.418C32.2621 113.66 32.0202 113.945 31.881 114.273L31.0408 113.969C31.2131 113.552 31.4517 113.219 31.7567 112.97C32.0616 112.718 32.403 112.538 32.7808 112.428C33.1587 112.316 33.5415 112.259 33.9293 112.259C34.2209 112.259 34.5242 112.297 34.8391 112.374C35.1572 112.45 35.4522 112.582 35.724 112.771C35.9958 112.957 36.2162 113.217 36.3852 113.552C36.5543 113.883 36.6388 114.304 36.6388 114.815V120H35.7538V118.792H35.6991C35.5931 119.017 35.4356 119.236 35.2268 119.448C35.018 119.66 34.7562 119.834 34.4413 119.97C34.1265 120.106 33.7569 120.174 33.3327 120.174ZM33.452 119.364C33.9226 119.364 34.3303 119.259 34.675 119.05C35.0197 118.842 35.2848 118.565 35.4704 118.22C35.6594 117.872 35.7538 117.489 35.7538 117.072V115.968C35.6875 116.031 35.5765 116.087 35.4207 116.137C35.2683 116.187 35.0909 116.232 34.8888 116.271C34.6899 116.308 34.491 116.339 34.2922 116.366C34.0933 116.392 33.9143 116.415 33.7552 116.435C33.3244 116.488 32.9565 116.571 32.6516 116.684C32.3466 116.797 32.113 116.952 31.9506 117.151C31.7882 117.347 31.707 117.599 31.707 117.907C31.707 118.371 31.8727 118.731 32.2041 118.986C32.5355 119.238 32.9515 119.364 33.452 119.364ZM44.1935 114.039L43.3831 114.268C43.3036 114.039 43.1909 113.832 43.0451 113.646C42.8992 113.461 42.7087 113.313 42.4733 113.204C42.2413 113.094 41.953 113.04 41.6083 113.04C41.0912 113.04 40.667 113.162 40.3355 113.408C40.0041 113.653 39.8384 113.969 39.8384 114.357C39.8384 114.685 39.9511 114.952 40.1765 115.158C40.4051 115.36 40.7565 115.521 41.2304 115.64L42.3838 115.923C43.0235 116.079 43.5024 116.326 43.8206 116.664C44.1421 117.002 44.3029 117.426 44.3029 117.937C44.3029 118.368 44.1836 118.75 43.9449 119.085C43.7063 119.42 43.3732 119.683 42.9456 119.876C42.5214 120.065 42.0292 120.159 41.4691 120.159C40.7233 120.159 40.1085 119.992 39.6246 119.657C39.1407 119.319 38.8308 118.832 38.6949 118.195L39.5451 117.987C39.6544 118.441 39.8682 118.784 40.1864 119.016C40.5079 119.248 40.9305 119.364 41.4542 119.364C42.0408 119.364 42.5098 119.233 42.8611 118.971C43.2124 118.706 43.3881 118.374 43.3881 117.977C43.3881 117.668 43.2854 117.41 43.0799 117.201C42.8744 116.989 42.5628 116.833 42.1452 116.734L40.8973 116.435C40.2345 116.276 39.7439 116.024 39.4257 115.68C39.1076 115.335 38.9485 114.907 38.9485 114.397C38.9485 113.976 39.0628 113.607 39.2915 113.288C39.5202 112.967 39.8351 112.715 40.2361 112.533C40.6372 112.35 41.0945 112.259 41.6083 112.259C42.3076 112.259 42.8661 112.418 43.2837 112.737C43.7046 113.051 44.0079 113.486 44.1935 114.039ZM49.2935 120.159C48.6107 120.159 48.0158 119.988 47.5087 119.647C47.0049 119.306 46.6138 118.838 46.3354 118.245C46.057 117.652 45.9178 116.976 45.9178 116.217C45.9178 115.451 46.0587 114.77 46.3404 114.173C46.6254 113.577 47.0198 113.109 47.5236 112.771C48.0274 112.43 48.6124 112.259 49.2786 112.259C49.789 112.259 50.2514 112.359 50.6657 112.558C51.08 112.753 51.4213 113.03 51.6898 113.388C51.9616 113.742 52.1323 114.157 52.2019 114.631H51.307C51.2142 114.2 50.9905 113.832 50.6358 113.527C50.2845 113.219 49.8371 113.065 49.2935 113.065C48.8063 113.065 48.3754 113.197 48.0009 113.462C47.6264 113.724 47.333 114.09 47.1209 114.561C46.9121 115.028 46.8077 115.57 46.8077 116.187C46.8077 116.807 46.9105 117.355 47.1159 117.832C47.3214 118.306 47.6098 118.678 47.981 118.946C48.3555 119.214 48.793 119.349 49.2935 119.349C49.6316 119.349 49.9398 119.286 50.2182 119.16C50.4999 119.031 50.7353 118.848 50.9242 118.613C51.1164 118.378 51.2457 118.098 51.312 117.773H52.2069C52.1406 118.233 51.9765 118.644 51.7147 119.006C51.4561 119.364 51.1197 119.645 50.7054 119.851C50.2945 120.056 49.8238 120.159 49.2935 120.159ZM59.0258 117.082V112.364H59.9107V120H59.0258V118.732H58.9562C58.7772 119.123 58.4938 119.45 58.106 119.712C57.7183 119.97 57.2443 120.099 56.6842 120.099C56.197 120.099 55.7644 119.993 55.3866 119.781C55.0087 119.566 54.7121 119.251 54.4967 118.837C54.2812 118.422 54.1735 117.914 54.1735 117.31V112.364H55.0585V117.256C55.0585 117.852 55.2341 118.333 55.5855 118.697C55.9368 119.059 56.3875 119.239 56.9377 119.239C57.2824 119.239 57.6139 119.156 57.932 118.991C58.2502 118.825 58.5121 118.583 58.7176 118.265C58.923 117.943 59.0258 117.549 59.0258 117.082ZM63.2085 109.818V120H62.3236V109.818H63.2085ZM67.753 120.174C67.2923 120.174 66.8713 120.085 66.4902 119.906C66.109 119.723 65.8058 119.461 65.5804 119.12C65.355 118.775 65.2423 118.358 65.2423 117.867C65.2423 117.489 65.3136 117.171 65.4561 116.913C65.5986 116.654 65.8008 116.442 66.0626 116.276C66.3245 116.111 66.6344 115.98 66.9923 115.884C67.3503 115.787 67.7447 115.713 68.1756 115.66C68.6031 115.607 68.9644 115.56 69.2594 115.521C69.5577 115.481 69.7847 115.418 69.9405 115.332C70.0962 115.246 70.1741 115.106 70.1741 114.914V114.735C70.1741 114.215 70.0184 113.805 69.7068 113.507C69.3986 113.205 68.9544 113.055 68.3744 113.055C67.8242 113.055 67.3751 113.176 67.0271 113.418C66.6824 113.66 66.4405 113.945 66.3013 114.273L65.4611 113.969C65.6334 113.552 65.8721 113.219 66.177 112.97C66.4819 112.718 66.8233 112.538 67.2011 112.428C67.579 112.316 67.9618 112.259 68.3496 112.259C68.6412 112.259 68.9445 112.297 69.2594 112.374C69.5775 112.45 69.8725 112.582 70.1443 112.771C70.4161 112.957 70.6365 113.217 70.8055 113.552C70.9746 113.883 71.0591 114.304 71.0591 114.815V120H70.1741V118.792H70.1194C70.0134 119.017 69.856 119.236 69.6471 119.448C69.4383 119.66 69.1765 119.834 68.8616 119.97C68.5468 120.106 68.1772 120.174 67.753 120.174ZM67.8723 119.364C68.3429 119.364 68.7506 119.259 69.0953 119.05C69.44 118.842 69.7052 118.565 69.8908 118.22C70.0797 117.872 70.1741 117.489 70.1741 117.072V115.968C70.1078 116.031 69.9968 116.087 69.841 116.137C69.6886 116.187 69.5113 116.232 69.3091 116.271C69.1102 116.308 68.9114 116.339 68.7125 116.366C68.5136 116.392 68.3346 116.415 68.1756 116.435C67.7447 116.488 67.3768 116.571 67.0719 116.684C66.7669 116.797 66.5333 116.952 66.3709 117.151C66.2085 117.347 66.1273 117.599 66.1273 117.907C66.1273 118.371 66.293 118.731 66.6244 118.986C66.9559 119.238 67.3718 119.364 67.8723 119.364ZM76.4909 112.364V113.134H72.8468V112.364H76.4909ZM73.9853 110.534H74.8752V118.006C74.8752 118.325 74.9299 118.575 75.0392 118.757C75.1486 118.936 75.2911 119.064 75.4668 119.14C75.6425 119.213 75.8297 119.249 76.0286 119.249C76.1446 119.249 76.244 119.243 76.3269 119.229C76.4097 119.213 76.4827 119.196 76.5456 119.18L76.7346 119.98C76.6484 120.013 76.5423 120.043 76.4164 120.07C76.2904 120.099 76.1346 120.114 75.949 120.114C75.6242 120.114 75.311 120.043 75.0094 119.901C74.7111 119.758 74.4658 119.546 74.2736 119.264C74.0814 118.982 73.9853 118.633 73.9853 118.215V110.534ZM83.423 117.082V112.364H84.3079V120H83.423V118.732H83.3534C83.1744 119.123 82.891 119.45 82.5032 119.712C82.1155 119.97 81.6415 120.099 81.0814 120.099C80.5941 120.099 80.1616 119.993 79.7838 119.781C79.4059 119.566 79.1093 119.251 78.8939 118.837C78.6784 118.422 78.5707 117.914 78.5707 117.31V112.364H79.4557V117.256C79.4557 117.852 79.6313 118.333 79.9826 118.697C80.334 119.059 80.7847 119.239 81.3349 119.239C81.6796 119.239 82.0111 119.156 82.3292 118.991C82.6474 118.825 82.9093 118.583 83.1147 118.265C83.3202 117.943 83.423 117.549 83.423 117.082ZM86.7208 120V112.364H87.5809V113.537H87.6455C87.798 113.152 88.0631 112.843 88.441 112.607C88.8221 112.369 89.253 112.249 89.7336 112.249C89.8065 112.249 89.8877 112.251 89.9772 112.254C90.0667 112.258 90.1412 112.261 90.2009 112.264V113.164C90.1611 113.157 90.0915 113.147 89.9921 113.134C89.8927 113.121 89.7849 113.114 89.6689 113.114C89.2712 113.114 88.9166 113.199 88.605 113.368C88.2968 113.534 88.0532 113.764 87.8742 114.059C87.6952 114.354 87.6057 114.69 87.6057 115.068V120H86.7208ZM94.636 120.159C93.9234 120.159 93.3069 119.993 92.7865 119.662C92.2662 119.327 91.8635 118.865 91.5784 118.275C91.2967 117.682 91.1558 116.999 91.1558 116.227C91.1558 115.458 91.2967 114.775 91.5784 114.178C91.8635 113.578 92.2562 113.109 92.7567 112.771C93.2605 112.43 93.8422 112.259 94.5017 112.259C94.916 112.259 95.3154 112.335 95.6999 112.488C96.0843 112.637 96.429 112.867 96.734 113.179C97.0422 113.487 97.2858 113.877 97.4648 114.347C97.6438 114.815 97.7333 115.368 97.7333 116.008V116.445H91.7673V115.665H96.8284C96.8284 115.174 96.729 114.733 96.5301 114.342C96.3346 113.948 96.0611 113.636 95.7098 113.408C95.3618 113.179 94.9591 113.065 94.5017 113.065C94.0178 113.065 93.5919 113.194 93.224 113.452C92.8561 113.711 92.5678 114.052 92.359 114.477C92.1535 114.901 92.0491 115.365 92.0458 115.869V116.336C92.0458 116.942 92.1502 117.473 92.359 117.927C92.5711 118.378 92.871 118.727 93.2588 118.976C93.6466 119.224 94.1057 119.349 94.636 119.349C94.9972 119.349 95.3137 119.292 95.5855 119.18C95.8606 119.067 96.091 118.916 96.2766 118.727C96.4655 118.535 96.608 118.325 96.7041 118.096L97.5443 118.369C97.4283 118.691 97.2378 118.987 96.9726 119.259C96.7108 119.531 96.3826 119.75 95.9882 119.915C95.5971 120.078 95.1464 120.159 94.636 120.159Z" fill="#212121"/>
<defs>
<clipPath id="clip0_2079_9428">
<rect width="64" height="64" fill="white" transform="translate(28 16)"/>
</clipPath>
</defs>
</svg>
