<svg width="128" height="128" viewBox="0 0 128 128" fill="none" xmlns="http://www.w3.org/2000/svg">
<rect width="128" height="128" fill="#444A65"/>
<mask id="mask0_5039_2867" style="mask-type:alpha" maskUnits="userSpaceOnUse" x="40" y="40" width="48" height="48">
<rect x="40" y="40" width="48" height="48" fill="#D9D9D9"/>
</mask>
<g mask="url(#mask0_5039_2867)">
<path d="M50.495 84C48.6983 84 47.1667 83.365 45.9 82.095C44.6333 80.8249 44 79.2916 44 77.4949C44 75.6983 44.6345 74.1667 45.9036 72.9C47.1726 71.6333 48.7048 71 50.5 71C51.1333 71 51.7333 71.0838 52.3 71.2514C52.8667 71.4191 53.4 71.652 53.9 71.95L62.5 63.4V56.85C61.0667 56.4833 59.875 55.7168 58.925 54.5504C57.975 53.384 57.5 52.0339 57.5 50.5C57.5 48.7048 58.135 47.1726 59.4051 45.9035C60.6751 44.6345 62.2084 44 64.0051 44C65.8017 44 67.3333 44.6345 68.6 45.9035C69.8667 47.1726 70.5 48.7048 70.5 50.5C70.5 52.0339 70.025 53.384 69.075 54.5504C68.125 55.7168 66.9333 56.4833 65.5 56.85V63.4L74.1 71.95C74.6152 71.652 75.1561 71.4191 75.7228 71.2514C76.2894 71.0838 76.8818 71 77.5 71C79.2952 71 80.8274 71.635 82.0965 72.9051C83.3655 74.1751 84 75.7084 84 77.5051C84 79.3017 83.365 80.8333 82.095 82.1C80.8249 83.3667 79.2916 84 77.4949 84C75.6983 84 74.1667 83.3655 72.9 82.0965C71.6333 80.8274 71 79.2952 71 77.5C71 76.8667 71.0838 76.2667 71.2514 75.7C71.4191 75.1333 71.652 74.6 71.95 74.1L64 66.1L56.05 74.1C56.348 74.6 56.5809 75.1333 56.7486 75.7C56.9162 76.2667 57 76.8667 57 77.5C57 79.2952 56.365 80.8274 55.0949 82.0965C53.8249 83.3655 52.2916 84 50.495 84ZM77.4941 81C78.4647 81 79.2917 80.6603 79.975 79.9809C80.6583 79.3015 81 78.4765 81 77.5059C81 76.5353 80.6603 75.7083 79.9809 75.025C79.3015 74.3417 78.4765 74 77.5059 74C76.5353 74 75.7083 74.3397 75.025 75.0191C74.3417 75.6985 74 76.5235 74 77.4941C74 78.4647 74.3397 79.2917 75.0191 79.975C75.6985 80.6583 76.5235 81 77.4941 81ZM63.9941 54C64.9647 54 65.7917 53.6603 66.475 52.9809C67.1583 52.3015 67.5 51.4765 67.5 50.5059C67.5 49.5353 67.1603 48.7083 66.4809 48.025C65.8015 47.3417 64.9765 47 64.0059 47C63.0353 47 62.2083 47.3397 61.525 48.0191C60.8417 48.6985 60.5 49.5235 60.5 50.4941C60.5 51.4647 60.8397 52.2917 61.5191 52.975C62.1985 53.6583 63.0235 54 63.9941 54ZM50.4941 81C51.4647 81 52.2917 80.6603 52.975 79.9809C53.6583 79.3015 54 78.4765 54 77.5059C54 76.5353 53.6603 75.7083 52.9809 75.025C52.3015 74.3417 51.4765 74 50.5059 74C49.5353 74 48.7083 74.3397 48.025 75.0191C47.3417 75.6985 47 76.5235 47 77.4941C47 78.4647 47.3397 79.2917 48.0191 79.975C48.6985 80.6583 49.5235 81 50.4941 81Z" fill="white"/>
</g>
</svg>
