<svg width="160" height="160" viewBox="0 0 160 160" fill="none" xmlns="http://www.w3.org/2000/svg">
<rect width="160" height="160" fill="#444A65"/>
<mask id="mask0_6109_26346" style="mask-type:alpha" maskUnits="userSpaceOnUse" x="56" y="56" width="48" height="48">
<rect x="56" y="56" width="48" height="48" fill="#D9D9D9"/>
</mask>
<g mask="url(#mask0_6109_26346)">
<path d="M65 98C64.2 98 63.5 97.7 62.9 97.1C62.3 96.5 62 95.8 62 95V65C62 64.2 62.3 63.5 62.9 62.9C63.5 62.3 64.2 62 65 62H95C95.8 62 96.5 62.3 97.1 62.9C97.7 63.5 98 64.2 98 65V95C98 95.8 97.7 96.5 97.1 97.1C96.5 97.7 95.8 98 95 98H65ZM65 73H95V65H65V73ZM65 84H95V76H65V84ZM65 95H95V87H65V95ZM69.641 70.5C69.2137 70.5 68.8583 70.3553 68.575 70.066C68.2917 69.777 68.15 69.4187 68.15 68.991C68.15 68.5637 68.2947 68.2083 68.584 67.925C68.873 67.6417 69.2313 67.5 69.659 67.5C70.0863 67.5 70.4417 67.6447 70.725 67.934C71.0083 68.223 71.15 68.5813 71.15 69.009C71.15 69.4363 71.0053 69.7917 70.716 70.075C70.427 70.3583 70.0687 70.5 69.641 70.5ZM69.641 81.5C69.2137 81.5 68.8583 81.3553 68.575 81.066C68.2917 80.777 68.15 80.4187 68.15 79.991C68.15 79.5637 68.2947 79.2083 68.584 78.925C68.873 78.6417 69.2313 78.5 69.659 78.5C70.0863 78.5 70.4417 78.6447 70.725 78.934C71.0083 79.223 71.15 79.5813 71.15 80.009C71.15 80.4363 71.0053 80.7917 70.716 81.075C70.427 81.3583 70.0687 81.5 69.641 81.5ZM69.641 92.5C69.2137 92.5 68.8583 92.3553 68.575 92.066C68.2917 91.777 68.15 91.4187 68.15 90.991C68.15 90.5637 68.2947 90.2083 68.584 89.925C68.873 89.6417 69.2313 89.5 69.659 89.5C70.0863 89.5 70.4417 89.6447 70.725 89.934C71.0083 90.223 71.15 90.5813 71.15 91.009C71.15 91.4363 71.0053 91.7917 70.716 92.075C70.427 92.3583 70.0687 92.5 69.641 92.5Z" fill="white"/>
</g>
</svg>
