<svg width="160" height="160" viewBox="0 0 160 160" fill="none" xmlns="http://www.w3.org/2000/svg">
<rect width="160" height="160" fill="#444A65"/>
<mask id="mask0_5784_3108" style="mask-type:alpha" maskUnits="userSpaceOnUse" x="56" y="56" width="48" height="48">
<rect x="56" y="56" width="48" height="48" fill="#D9D9D9"/>
</mask>
<g mask="url(#mask0_5784_3108)">
<path d="M78.492 82.5C79.8973 82.5 81.0833 82.0193 82.05 81.058C83.0167 80.0963 83.5 78.913 83.5 77.508C83.5 76.1027 83.0193 74.9167 82.058 73.95C81.0963 72.9833 79.913 72.5 78.508 72.5C77.1027 72.5 75.9167 72.9807 74.95 73.942C73.9833 74.9037 73.5 76.087 73.5 77.492C73.5 78.8973 73.9807 80.0833 74.942 81.05C75.9037 82.0167 77.087 82.5 78.492 82.5ZM88.15 89.3L82.95 84.1C82.2167 84.5667 81.475 84.9167 80.725 85.15C79.975 85.3833 79.2412 85.5 78.5235 85.5C76.3078 85.5 74.4167 84.7167 72.85 83.15C71.2833 81.5833 70.5 79.7 70.5 77.5C70.5 75.3 71.2833 73.4167 72.85 71.85C74.4167 70.2833 76.3 69.5 78.5 69.5C80.7 69.5 82.5833 70.2833 84.15 71.85C85.7167 73.4167 86.5 75.3078 86.5 77.5235C86.5 78.2412 86.375 78.975 86.125 79.725C85.875 80.475 85.5167 81.2167 85.05 81.95L90.3 87.2L88.15 89.3ZM65 97C64.2 97 63.5 96.7 62.9 96.1C62.3 95.5 62 94.8 62 94V85.4H65V94H73.6V97H65ZM86.4 97V94H95V85.4H98V94C98 94.8 97.7 95.5 97.1 96.1C96.5 96.7 95.8 97 95 97H86.4ZM62 72.6V64C62 63.2 62.3 62.5 62.9 61.9C63.5 61.3 64.2 61 65 61H73.6V64H65V72.6H62ZM95 72.6V64H86.4V61H95C95.8 61 96.5 61.3 97.1 61.9C97.7 62.5 98 63.2 98 64V72.6H95Z" fill="white"/>
</g>
</svg>
