<svg width="160" height="160" viewBox="0 0 160 160" fill="none" xmlns="http://www.w3.org/2000/svg">
<rect width="160" height="160" fill="#444A65"/>
<mask id="mask0_5784_2889" style="mask-type:alpha" maskUnits="userSpaceOnUse" x="56" y="56" width="48" height="48">
<rect x="56" y="56" width="48" height="48" fill="#D9D9D9"/>
</mask>
<g mask="url(#mask0_5784_2889)">
<path d="M76.004 67.3C75.0013 67.3 74.1417 66.943 73.425 66.229C72.7083 65.515 72.35 64.6567 72.35 63.654C72.35 62.6513 72.707 61.7917 73.421 61.075C74.135 60.3583 74.9933 60 75.996 60C76.9987 60 77.8583 60.357 78.575 61.071C79.2917 61.785 79.65 62.6433 79.65 63.646C79.65 64.6487 79.293 65.5083 78.579 66.225C77.865 66.9417 77.0067 67.3 76.004 67.3ZM88.993 92.5C90.531 92.5 91.8333 91.969 92.9 90.907C93.9667 89.845 94.5 88.545 94.5 87.007C94.5 85.469 93.969 84.1667 92.907 83.1C91.845 82.0333 90.545 81.5 89.007 81.5C87.469 81.5 86.1667 82.031 85.1 83.093C84.0333 84.155 83.5 85.455 83.5 86.993C83.5 88.531 84.031 89.8333 85.093 90.9C86.155 91.9667 87.455 92.5 88.993 92.5ZM99.2 99.3L93.85 93.95C93.1167 94.45 92.3447 94.8333 91.534 95.1C90.723 95.3667 89.8783 95.5 89 95.5C86.639 95.5 84.632 94.673 82.979 93.019C81.3263 91.365 80.5 89.3567 80.5 86.994C80.5 84.6313 81.327 82.625 82.981 80.975C84.635 79.325 86.6433 78.5 89.006 78.5C91.3687 78.5 93.375 79.3263 95.025 80.979C96.675 82.632 97.5 84.639 97.5 87C97.5 87.8783 97.3667 88.723 97.1 89.534C96.8333 90.3447 96.45 91.1167 95.95 91.85L101.3 97.2L99.2 99.3ZM78.35 100V91.35C78.6833 92.1833 79.1 92.9583 79.6 93.675C80.1 94.3917 80.6833 95.0333 81.35 95.6V100H78.35ZM70.65 100V73.35C68.5157 73.1973 66.3987 72.9758 64.299 72.6855C62.1997 72.3952 60.1 72 58 71.5L58.75 68.5C61.5923 69.1667 64.443 69.6417 67.302 69.925C70.1613 70.2083 73.0628 70.35 76.0065 70.35C78.9505 70.35 81.852 70.2083 84.711 69.925C87.5703 69.6417 90.4167 69.1667 93.25 68.5L94 71.5C91.9 72 89.8003 72.3952 87.701 72.6855C85.6013 72.9758 83.4843 73.1973 81.35 73.35V78.4C80.1833 79.4667 79.25 80.7417 78.55 82.225C77.85 83.7083 77.5 85.3 77.5 87H73.65V100H70.65Z" fill="white"/>
</g>
</svg>
