<svg width="128" height="128" viewBox="0 0 128 128" fill="none" xmlns="http://www.w3.org/2000/svg">
<rect width="128" height="128" fill="#444A65"/>
<mask id="mask0_5401_1560" style="mask-type:alpha" maskUnits="userSpaceOnUse" x="40" y="40" width="48" height="48">
<rect x="40" y="40" width="48" height="48" fill="#D9D9D9"/>
</mask>
<g mask="url(#mask0_5401_1560)">
<path d="M53.15 74.85L67.65 67.7L74.8 53.2L60.3 60.35L53.15 74.85ZM64 66C63.4333 66 62.9583 65.8083 62.575 65.425C62.1917 65.0417 62 64.5667 62 64C62 63.4333 62.1917 62.9583 62.575 62.575C62.9583 62.1917 63.4333 62 64 62C64.5667 62 65.0417 62.1917 65.425 62.575C65.8083 62.9583 66 63.4333 66 64C66 64.5667 65.8083 65.0417 65.425 65.425C65.0417 65.8083 64.5667 66 64 66ZM64 84C61.2667 84 58.6833 83.475 56.25 82.425C53.8167 81.375 51.6917 79.9417 49.875 78.125C48.0583 76.3083 46.625 74.1833 45.575 71.75C44.525 69.3167 44 66.7333 44 64C44 61.2333 44.525 58.6333 45.575 56.2C46.625 53.7667 48.0583 51.65 49.875 49.85C51.6917 48.05 53.8167 46.625 56.25 45.575C58.6833 44.525 61.2667 44 64 44C66.7667 44 69.3667 44.525 71.8 45.575C74.2333 46.625 76.35 48.05 78.15 49.85C79.95 51.65 81.375 53.7667 82.425 56.2C83.475 58.6333 84 61.2333 84 64C84 66.7333 83.475 69.3167 82.425 71.75C81.375 74.1833 79.95 76.3083 78.15 78.125C76.35 79.9417 74.2333 81.375 71.8 82.425C69.3667 83.475 66.7667 84 64 84ZM64 81C68.7333 81 72.75 79.3417 76.05 76.025C79.35 72.7083 81 68.7 81 64C81 59.2667 79.35 55.25 76.05 51.95C72.75 48.65 68.7333 47 64 47C59.3 47 55.2917 48.65 51.975 51.95C48.6583 55.25 47 59.2667 47 64C47 68.7 48.6583 72.7083 51.975 76.025C55.2917 79.3417 59.3 81 64 81Z" fill="white"/>
</g>
</svg>
