<svg width="56" height="57" viewBox="0 0 56 57" fill="none" xmlns="http://www.w3.org/2000/svg">
<g clip-path="url(#clip0_6199_4301)">
<path d="M28 56.5C43.464 56.5 56 43.964 56 28.5C56 13.036 43.464 0.5 28 0.5C12.536 0.5 0 13.036 0 28.5C0 43.964 12.536 56.5 28 56.5Z" fill="#FF0043"/>
<path d="M28.0004 4.47266C14.7509 4.47266 3.97266 15.2521 3.97266 28.5004C3.97266 41.7488 14.7521 52.5282 28.0004 52.5282C41.2488 52.5282 52.0282 41.7488 52.0282 28.5004C52.0282 15.2521 41.25 4.47266 28.0004 4.47266ZM49.8355 28.04H43.9399C43.8502 24.8793 42.8349 21.9453 41.1567 19.5005L45.4409 16.555C45.5986 16.4468 45.6377 16.2316 45.5295 16.0751C45.4213 15.9174 45.2061 15.8782 45.0495 15.9864L40.755 18.9388C39.5188 17.294 37.973 15.8955 36.205 14.8308L38.7868 10.3234C38.8811 10.1576 38.8247 9.94696 38.659 9.85258C38.4932 9.75704 38.2826 9.81575 38.1882 9.98034L35.6076 14.4878C33.4644 13.3206 31.0254 12.63 28.4344 12.561L28.4137 7.33873C28.4137 7.0855 28.2065 6.88061 27.9533 6.88061H27.951C27.6966 6.88061 27.4917 7.08895 27.4928 7.34333L27.5136 12.5644C23.9442 12.6726 20.6661 13.9595 18.0555 16.0486L14.2456 11.5527C18.0037 8.49666 22.7932 6.66192 28.0027 6.66192C39.8918 6.66192 49.5915 16.2109 49.8378 28.0423L49.8355 28.04ZM38.2124 39.3547L34.9228 35.4722C35.5903 34.8104 36.1624 34.053 36.6194 33.2231L41.136 35.5505C40.3694 36.972 39.3795 38.2554 38.2124 39.3535V39.3547ZM14.5495 34.9324L19.1364 32.7489C19.6244 33.763 20.2805 34.6803 21.0701 35.4653L17.6676 39.2407C16.3877 38.0091 15.3276 36.5519 14.5495 34.9336V34.9324ZM6.16537 28.9609H12.061C12.122 31.0903 12.6019 33.1161 13.4215 34.9589L8.09795 37.4935C6.91239 34.8818 6.22868 31.9961 6.16537 28.9609ZM18.021 17.4321L21.3072 21.3099C19.484 23.0077 18.3053 25.3881 18.1821 28.04H13.098C13.2258 23.8376 15.102 20.0668 18.021 17.4321ZM28.0004 36.7188C27.5585 36.7188 27.1257 36.6831 26.7021 36.6152L27.5458 31.8603C27.6943 31.8799 27.8462 31.8914 27.9993 31.8914C28.7808 31.8914 29.5002 31.6255 30.0746 31.1789L31.2959 32.62C30.3727 33.382 29.1895 33.8412 27.9015 33.8412C27.7426 33.8412 27.6137 33.9701 27.6137 34.129C27.6137 34.2878 27.7426 34.4167 27.9015 34.4167C29.331 34.4167 30.6444 33.9068 31.6676 33.0597L33.1962 34.8633C31.7793 36.0236 29.9699 36.72 27.9993 36.72L28.0004 36.7188ZM20.5913 32.056L24.9502 29.9807C25.3715 30.8462 26.1519 31.5058 27.0957 31.7682L26.2509 36.53C23.7531 35.9856 21.6755 34.3051 20.5924 32.0571L20.5913 32.056ZM22.35 22.5404L23.7946 24.2439C22.9417 25.0658 22.3293 26.1454 22.0934 27.3747C22.0634 27.5313 22.1659 27.6821 22.3213 27.712C22.4778 27.7419 22.6286 27.6395 22.6585 27.4841C22.8691 26.3872 23.4113 25.4226 24.1675 24.6836L25.4808 26.2341C25.0365 26.7267 24.7361 27.3506 24.6417 28.04H19.7959C19.9156 25.8795 20.8744 23.9412 22.35 22.5404ZM31.9554 31.972L30.7238 30.5194C31.0564 30.0716 31.2809 29.5398 31.3603 28.9609H33.2227C33.1248 30.105 32.6644 31.1478 31.9565 31.972H31.9554ZM25.9907 28.5004C25.9907 27.392 26.892 26.4907 28.0004 26.4907C29.1089 26.4907 30.0101 27.392 30.0101 28.5004C30.0101 29.6089 29.1089 30.5101 28.0004 30.5101C26.892 30.5101 25.9907 29.6089 25.9907 28.5004ZM31.3592 28.04C31.1336 26.3872 29.7143 25.1095 28.0004 25.1095C27.3317 25.1095 26.709 25.304 26.183 25.639L24.8777 24.0989C25.7444 23.5038 26.7896 23.1597 27.9015 23.1597C30.6904 23.1597 32.9867 25.3098 33.2204 28.04H31.358H31.3592ZM24.6417 28.9609C24.6694 29.1646 24.7154 29.3626 24.7776 29.5536L20.4048 31.6359C20.0606 30.8037 19.8477 29.9036 19.7959 28.962H24.6417V28.9609ZM32.3318 32.4163C32.6092 32.102 32.8543 31.759 33.0615 31.3907L35.1852 32.4853C34.8272 33.1276 34.3864 33.7169 33.8765 34.2383L32.3318 32.4163ZM33.3643 30.7703C33.6002 30.2063 33.7487 29.5974 33.7982 28.9609H36.205C36.1474 29.9922 35.8988 30.9717 35.4937 31.8672L33.3643 30.7691V30.7703ZM33.7982 28.04C33.5622 24.9921 31.0092 22.5841 27.9015 22.5841C26.6491 22.5841 25.4728 22.9789 24.5048 23.6581L23.051 21.943C24.4288 20.9002 26.1427 20.2809 27.9993 20.2809C30.6639 20.2809 33.0339 21.5563 34.5372 23.5268C34.5464 23.5533 34.559 23.5798 34.5763 23.604C34.597 23.635 34.6235 23.6592 34.6511 23.6811C35.5512 24.9196 36.1141 26.4171 36.2038 28.0389H33.797L33.7982 28.04ZM33.164 20.1405L35.6893 15.7297C37.3238 16.7173 38.7534 18.0088 39.8998 19.527L35.7066 22.4103C34.9976 21.5148 34.1377 20.7448 33.1628 20.1417L33.164 20.1405ZM32.5643 19.7986C31.3258 19.1472 29.9342 18.7501 28.4563 18.6833L28.4355 13.598C30.8377 13.6671 33.0995 14.3071 35.0897 15.3879L32.5631 19.7998L32.5643 19.7986ZM27.5354 18.6821C25.4613 18.7788 23.5552 19.5235 22.0105 20.7149L18.7243 16.837C21.1541 14.8999 24.1997 13.7062 27.5159 13.5992L27.5366 18.6833L27.5354 18.6821ZM13.098 28.9609H18.1821C18.2374 30.1499 18.5044 31.2859 18.9464 32.3288L14.3573 34.5134C13.601 32.8053 13.1579 30.9303 13.0969 28.9609H13.098ZM21.5788 35.9327C22.8139 37.0008 24.3148 37.7686 25.9689 38.1173L25.0803 43.122C22.4709 42.6017 20.1044 41.3978 18.1764 39.7057L21.5788 35.9315V35.9327ZM26.4212 38.2013C26.9357 38.2854 27.4629 38.3303 28.0004 38.3303C28.538 38.3303 29.041 38.2877 29.544 38.2082L30.4452 43.2095C29.6499 43.3418 28.8338 43.4109 28.0004 43.4109C27.1671 43.4109 26.3361 43.3395 25.5326 43.206L26.4212 38.2025V38.2013ZM29.9963 38.1265C31.5825 37.7985 33.0305 37.086 34.2379 36.0915L37.5218 39.9659C35.6456 41.5267 33.3815 42.6363 30.8976 43.1278L29.9963 38.1265ZM36.9278 32.6062C37.4447 31.4874 37.7577 30.2569 37.8187 28.9609H42.9029C42.8372 31.0949 42.3227 33.1172 41.4491 34.9359L36.9278 32.6062ZM37.8187 28.04C37.7313 26.1639 37.1166 24.4235 36.1187 22.9651L40.3038 20.0876C41.8669 22.3654 42.8131 25.0968 42.9029 28.04H37.8187ZM13.5412 12.1466L17.3511 16.6425C14.2076 19.4683 12.1899 23.5222 12.061 28.04H6.16537C6.29659 21.722 9.12468 16.0555 13.5412 12.1466ZM8.29363 37.9113L13.6149 35.3779C14.4505 37.1194 15.5946 38.6871 16.9736 40.0096L13.3559 44.0233C13.2281 44.1648 13.2396 44.3835 13.3812 44.5113C13.4468 44.5712 13.5297 44.5999 13.6125 44.5999C13.7069 44.5999 13.8013 44.5619 13.8692 44.486L17.4835 40.4769C19.553 42.2967 22.0945 43.5893 24.8996 44.1441L23.8694 49.9488C16.9862 48.6251 11.2426 44.0612 8.29363 37.9113ZM24.3217 50.0305L25.3519 44.2258C26.214 44.3709 27.098 44.4468 28.0004 44.4468C28.9029 44.4468 29.773 44.372 30.6283 44.2293L31.6734 50.0305C30.4786 50.2342 29.2516 50.3413 28.0004 50.3413C26.7493 50.3413 25.5177 50.2331 24.3217 50.0293V50.0305ZM32.1269 49.9488L31.0818 44.1476C33.7487 43.6239 36.1797 42.4325 38.1917 40.7555L40.465 43.4374C40.5559 43.5444 40.686 43.5997 40.816 43.5997C40.9208 43.5997 41.0267 43.564 41.113 43.4903C41.3075 43.3257 41.3305 43.0357 41.1671 42.8412L38.8811 40.1443C40.1507 38.9576 41.2258 37.5671 42.0545 36.0247L43.6694 36.8569C43.7201 36.8834 43.7742 36.8949 43.8271 36.8949C43.9526 36.8949 44.0735 36.827 44.1345 36.7073C44.2219 36.5381 44.1552 36.3298 43.986 36.2423L42.3688 35.4089C43.3161 33.4476 43.872 31.2629 43.9388 28.9586H49.8344C49.618 39.3858 42.0568 48.0392 32.1257 49.9465L32.1269 49.9488Z" fill="url(#paint0_linear_6199_4301)"/>
</g>
<defs>
<linearGradient id="paint0_linear_6199_4301" x1="7.19555" y1="40.5126" x2="48.8053" y2="16.4894" gradientUnits="userSpaceOnUse">
<stop offset="0.12" stop-color="white" stop-opacity="0"/>
<stop offset="0.44" stop-color="white"/>
</linearGradient>
<clipPath id="clip0_6199_4301">
<rect width="56" height="56" fill="white" transform="translate(0 0.5)"/>
</clipPath>
</defs>
</svg>
