<svg width="128" height="128" viewBox="0 0 128 128" fill="none" xmlns="http://www.w3.org/2000/svg">
<rect width="128" height="128" fill="#444A65"/>
<mask id="mask0_2805_523" style="mask-type:alpha" maskUnits="userSpaceOnUse" x="40" y="40" width="48" height="48">
<rect x="40" y="40" width="48" height="48" fill="#D9D9D9"/>
</mask>
<g mask="url(#mask0_2805_523)">
<path d="M45.5 80.5004C44.5333 80.5004 43.7083 80.1587 43.025 79.4754C42.3417 78.7921 42 77.9671 42 77.0004C42 76.0337 42.3417 75.2087 43.025 74.5254C43.7083 73.8421 44.5333 73.5004 45.5 73.5004C45.6667 73.5004 45.8333 73.5087 46 73.5254C46.1667 73.5421 46.3833 73.5837 46.65 73.6504L56.65 63.6504C56.5833 63.3837 56.5417 63.1671 56.525 63.0004C56.5083 62.8337 56.5 62.6671 56.5 62.5004C56.5 61.5337 56.8417 60.7087 57.525 60.0254C58.2083 59.3421 59.0333 59.0004 60 59.0004C60.9667 59.0004 61.7917 59.3421 62.475 60.0254C63.1583 60.7087 63.5 61.5337 63.5 62.5004C63.5 62.5671 63.45 62.9504 63.35 63.6504L68.85 69.1504C69.1167 69.0837 69.3333 69.0421 69.5 69.0254C69.6667 69.0087 69.8333 69.0004 70 69.0004C70.1667 69.0004 70.3333 69.0087 70.5 69.0254C70.6667 69.0421 70.8833 69.0837 71.15 69.1504L79.15 61.1504C79.0833 60.8837 79.0417 60.6671 79.025 60.5004C79.0083 60.3337 79 60.1671 79 60.0004C79 59.0337 79.3417 58.2087 80.025 57.5254C80.7083 56.8421 81.5333 56.5004 82.5 56.5004C83.4667 56.5004 84.2917 56.8421 84.975 57.5254C85.6583 58.2087 86 59.0337 86 60.0004C86 60.9671 85.6583 61.7921 84.975 62.4754C84.2917 63.1587 83.4667 63.5004 82.5 63.5004C82.3333 63.5004 82.1667 63.4921 82 63.4754C81.8333 63.4587 81.6167 63.4171 81.35 63.3504L73.35 71.3504C73.4167 71.6171 73.4583 71.8337 73.475 72.0004C73.4917 72.1671 73.5 72.3337 73.5 72.5004C73.5 73.4671 73.1583 74.2921 72.475 74.9754C71.7917 75.6587 70.9667 76.0004 70 76.0004C69.0333 76.0004 68.2083 75.6587 67.525 74.9754C66.8417 74.2921 66.5 73.4671 66.5 72.5004C66.5 72.3337 66.5083 72.1671 66.525 72.0004C66.5417 71.8337 66.5833 71.6171 66.65 71.3504L61.15 65.8504C60.8833 65.9171 60.6667 65.9587 60.5 65.9754C60.3333 65.9921 60.1667 66.0004 60 66.0004C59.9333 66.0004 59.55 65.9504 58.85 65.8504L48.85 75.8504C48.9167 76.1171 48.9583 76.3337 48.975 76.5004C48.9917 76.6671 49 76.8337 49 77.0004C49 77.9671 48.6583 78.7921 47.975 79.4754C47.2917 80.1587 46.4667 80.5004 45.5 80.5004ZM48 58.4004L47 56.2004L44.8 55.2004L47 54.2004L48 52.0004L49 54.2004L51.2 55.2004L49 56.2004L48 58.4004ZM70 55.8504L68.45 52.5504L65.15 51.0004L68.45 49.4504L70 46.1504L71.55 49.4504L74.85 51.0004L71.55 52.5504L70 55.8504Z" fill="white"/>
</g>
</svg>
