<svg width="160" height="160" viewBox="0 0 160 160" fill="none" xmlns="http://www.w3.org/2000/svg">
<rect width="160" height="160" fill="#444A65"/>
<mask id="mask0_5784_2165" style="mask-type:alpha" maskUnits="userSpaceOnUse" x="56" y="56" width="48" height="48">
<rect x="56" y="56" width="48" height="48" fill="#D9D9D9"/>
</mask>
<g mask="url(#mask0_5784_2165)">
<path d="M84.244 98C82.7147 98 81.4167 97.4647 80.35 96.394C79.2833 95.3233 78.75 94.0233 78.75 92.494C78.75 90.9647 79.2853 89.6667 80.356 88.6C81.4267 87.5333 82.7267 87 84.256 87C85.7853 87 87.0833 87.5353 88.15 88.606C89.2167 89.6767 89.75 90.9767 89.75 92.506C89.75 94.0353 89.2147 95.3333 88.144 96.4C87.0733 97.4667 85.7733 98 84.244 98ZM84.241 95C84.947 95 85.5417 94.7613 86.025 94.284C86.5083 93.8063 86.75 93.2147 86.75 92.509C86.75 91.803 86.5113 91.2083 86.034 90.725C85.5563 90.2417 84.9647 90 84.259 90C83.553 90 82.9583 90.2387 82.475 90.716C81.9917 91.1937 81.75 91.7853 81.75 92.491C81.75 93.197 81.9887 93.7917 82.466 94.275C82.9437 94.7583 83.5353 95 84.241 95ZM88.247 83.5C85.249 83.5 82.7083 82.4573 80.625 80.372C78.5417 78.2863 77.5 75.7447 77.5 72.747C77.5 69.749 78.5427 67.2083 80.628 65.125C82.7137 63.0417 85.2553 62 88.253 62C91.251 62 93.7917 63.0427 95.875 65.128C97.9583 67.2137 99 69.7553 99 72.753C99 75.751 97.9573 78.2917 95.872 80.375C93.7863 82.4583 91.2447 83.5 88.247 83.5ZM88.2385 80.5C90.4128 80.5 92.25 79.7538 93.75 78.2615C95.25 76.7688 96 74.9355 96 72.7615C96 70.5872 95.2538 68.75 93.7615 67.25C92.2688 65.75 90.4355 65 88.2615 65C86.0872 65 84.25 65.7462 82.75 67.2385C81.25 68.7312 80.5 70.5645 80.5 72.7385C80.5 74.9128 81.2462 76.75 82.7385 78.25C84.2312 79.75 86.0645 80.5 88.2385 80.5ZM68.75 92.15C66.5833 92.15 64.75 91.4 63.25 89.9C61.75 88.4 61 86.5667 61 84.4C61 82.2333 61.75 80.4 63.25 78.9C64.75 77.4 66.5833 76.65 68.75 76.65C70.9167 76.65 72.75 77.4 74.25 78.9C75.75 80.4 76.5 82.2333 76.5 84.4C76.5 86.5667 75.75 88.4 74.25 89.9C72.75 91.4 70.9167 92.15 68.75 92.15ZM68.7435 89.15C70.0478 89.15 71.1667 88.6855 72.1 87.7565C73.0333 86.8278 73.5 85.7112 73.5 84.4065C73.5 83.1022 73.0355 81.9833 72.1065 81.05C71.1778 80.1167 70.0612 79.65 68.7565 79.65C67.4522 79.65 66.3333 80.1145 65.4 81.0435C64.4667 81.9722 64 83.0888 64 84.3935C64 85.6978 64.4645 86.8167 65.3935 87.75C66.3222 88.6833 67.4388 89.15 68.7435 89.15Z" fill="white"/>
</g>
</svg>
