<svg width="120" height="144" viewBox="0 0 120 144" fill="none" xmlns="http://www.w3.org/2000/svg">
<rect width="120" height="144" rx="4" fill="#FAFAFA"/>
<g clip-path="url(#clip0_2079_9282)">
<path d="M51.2957 62.2427C51.4231 61.7592 51.4228 61.7591 51.4225 61.759L51.4218 61.7589L51.42 61.7584L51.4147 61.757L51.3977 61.7528C51.3834 61.7493 51.3633 61.7444 51.3373 61.7385C51.2854 61.7267 51.2099 61.7104 51.1107 61.6912C50.9123 61.6528 50.6186 61.6029 50.2268 61.5539C49.4432 61.4558 48.2676 61.3612 46.6772 61.3694C43.5951 61.3851 38.9568 61.7863 32.5957 63.2935V47.9003C32.6758 47.9138 32.7636 47.9285 32.8586 47.9446C33.3987 48.0357 34.1736 48.1671 35.1123 48.3278C36.9898 48.6494 39.5224 49.0885 42.1434 49.5588C44.7648 50.0293 47.4724 50.5306 49.7006 50.9766C51.9448 51.4259 53.6578 51.8106 54.3273 52.0468C54.345 52.0534 54.405 52.0846 54.4929 52.233C54.5814 52.3825 54.6672 52.5985 54.7575 52.8897C54.8388 53.1522 54.916 53.449 55.0022 53.7802C55.0107 53.813 55.0194 53.8462 55.0281 53.8797C55.1236 54.2462 55.2294 54.6459 55.3576 55.0519C55.8661 56.6624 56.7758 58.5238 59.069 59.0801C61.6754 59.7362 64.6021 57.4511 65.5232 53.1746C65.9734 51.0844 66.0708 49.6225 65.7108 48.4911C65.3389 47.3221 64.5101 46.5956 63.3753 45.9015C62.1193 45.1333 60.5964 45.1909 59.22 45.3264C58.9585 45.3522 58.7048 45.3805 58.456 45.4084C58.0216 45.457 57.6022 45.5039 57.1827 45.5322C56.5332 45.576 55.9482 45.5687 55.4352 45.4557C54.2556 45.196 48.4275 44.2169 42.9212 43.3067C40.1622 42.8506 37.4758 42.4106 35.4793 42.0846C34.481 41.9215 33.6552 41.787 33.0789 41.6933L32.5957 41.6147V31.8774C37.3701 31.9245 40.177 32.2086 42.78 32.8278C44.8562 33.3216 46.8053 34.0279 49.5316 35.0159C50.3658 35.3182 51.2728 35.6468 52.2784 36.0038C57.652 37.9618 62.7219 40.088 66.6374 42.0166C68.5962 42.9813 70.2578 43.8926 71.5213 44.7049C72.8064 45.5311 73.6138 46.2145 73.9393 46.7094L73.9391 46.7095L73.9463 46.7198C74.5361 47.5696 74.7875 48.8299 74.7787 50.3788C74.77 51.9157 74.5062 53.6641 74.137 55.4283C73.779 57.1385 73.3266 58.8426 72.9233 60.362L72.8868 60.4994C72.4785 62.0375 72.1178 63.4054 71.9846 64.3488L71.9829 64.3611L71.9817 64.3735C71.3127 71.7541 70.0303 79.066 68.148 86.2333H62.1843L62.2018 86.1217L62.4907 84.278C62.7317 82.7386 63.0577 80.6531 63.3977 78.4689C64.0774 74.1029 64.8141 69.3358 65.0387 67.7529C65.2069 66.5681 65.6967 65.0708 66.1772 63.6017C66.3151 63.1804 66.4522 62.7613 66.5807 62.3527C66.8615 61.4595 67.1032 60.6071 67.1906 59.9318C67.2339 59.5965 67.2453 59.2637 67.1819 58.9751C67.1166 58.6775 66.9549 58.3656 66.6107 58.2054C66.0838 57.9601 65.5903 58.1244 65.1938 58.3521C64.9074 58.5165 64.5954 58.7601 64.2858 59.0019C64.1876 59.0786 64.0896 59.1551 63.9928 59.2289C63.1478 59.8723 62.1266 60.5267 60.6397 60.5267C58.6539 60.5267 57.2831 59.8433 56.3555 59.2949C56.2117 59.2099 56.0935 59.1374 55.98 59.0677C55.895 59.0156 55.8127 58.9651 55.7243 58.9122C55.5439 58.8043 55.3548 58.6967 55.1792 58.6318C55.0187 58.5723 54.7353 58.4968 54.459 58.6494C54.1825 58.8022 54.088 59.0862 54.0481 59.286C53.9915 59.5691 54.0503 59.8793 54.1329 60.1573C54.2196 60.449 54.3549 60.7762 54.5157 61.1219C54.7634 61.6544 55.0922 62.2737 55.4401 62.9291C55.5421 63.121 55.6456 63.3161 55.7493 63.5129C56.6862 65.2926 57.6361 67.238 57.7955 68.8415C57.8747 69.6382 57.7719 71.1363 57.557 72.9867C57.3443 74.819 57.0283 76.9461 56.7008 78.9709C56.3735 80.9947 56.0354 82.9121 55.7791 84.3237C55.6509 85.0294 55.5433 85.6085 55.4677 86.011C55.4524 86.0925 55.4384 86.1668 55.4258 86.2333H46.8338C46.3439 83.911 46.2035 81.5277 46.4177 79.1624L46.4178 79.1625L46.4186 79.1499C46.616 76.1271 47.9346 71.9701 49.2278 68.5279C49.871 66.8157 50.5019 65.2959 50.9719 64.2041C51.2069 63.6583 51.4016 63.2199 51.5373 62.9183C51.6051 62.7675 51.6583 62.651 51.6943 62.5723L51.7353 62.4833L51.7456 62.4609L51.7482 62.4555L51.7488 62.4542L51.7489 62.4539L51.2957 62.2427ZM51.2957 62.2427L51.4231 61.7592L52.0016 61.9116L51.7489 62.4539L51.2957 62.2427ZM69.7225 55.9766L69.7289 55.9757C70.8099 55.8335 71.5221 54.9313 71.9483 53.8814C72.3828 52.8111 72.5854 51.4454 72.5744 50.0787L72.5742 50.0658L72.5735 50.053C72.5029 48.8673 71.9921 47.7507 71.1413 46.9218C70.2904 46.093 69.1608 45.6118 67.9736 45.5723L67.9276 45.5708L67.8821 45.5777C67.6397 45.6144 67.4092 45.7007 67.2244 45.8663C67.0355 46.0355 66.936 46.25 66.8939 46.466C66.817 46.8609 66.9224 47.3168 67.0438 47.718C67.1293 48.0011 67.2434 48.3171 67.3571 48.6321C67.4098 48.7781 67.4624 48.9238 67.512 49.0659C67.675 49.5326 67.818 49.9905 67.8907 50.4218C67.9635 50.854 67.9824 51.3892 67.9908 51.9771C67.9924 52.0911 67.9936 52.2072 67.9948 52.3244C67.9998 52.7955 68.0049 53.2849 68.037 53.7293C68.0762 54.2725 68.1593 54.8342 68.3823 55.2577C68.4987 55.4787 68.6658 55.6867 68.9069 55.8255C69.1527 55.9669 69.4312 56.011 69.7225 55.9766Z" fill="#212121" stroke="#212121"/>
</g>
<path d="M44.5744 113V102.818H45.5041V108.302H45.5936L50.5652 102.818H51.7882L47.4381 107.526L51.7683 113H50.6348L46.8614 108.173L45.5041 109.694V113H44.5744ZM54.3142 108.227V113H53.4292V105.364H54.2893V106.562H54.3689C54.5478 106.171 54.8262 105.857 55.2041 105.622C55.5852 105.384 56.0559 105.264 56.616 105.264C57.1297 105.264 57.5805 105.372 57.9683 105.587C58.3594 105.799 58.6627 106.113 58.8781 106.527C59.0968 106.941 59.2062 107.45 59.2062 108.053V113H58.3213V108.108C58.3213 107.482 58.1456 106.986 57.7943 106.621C57.4463 106.257 56.9789 106.075 56.3923 106.075C55.9912 106.075 55.635 106.161 55.3234 106.333C55.0118 106.505 54.7649 106.754 54.5826 107.079C54.4037 107.4 54.3142 107.783 54.3142 108.227ZM64.694 113.159C63.9814 113.159 63.3649 112.993 62.8446 112.662C62.3242 112.327 61.9215 111.865 61.6365 111.275C61.3548 110.682 61.2139 109.999 61.2139 109.227C61.2139 108.458 61.3548 107.775 61.6365 107.178C61.9215 106.578 62.3143 106.109 62.8147 105.771C63.3185 105.43 63.9002 105.259 64.5598 105.259C64.9741 105.259 65.3735 105.335 65.7579 105.488C66.1424 105.637 66.4871 105.867 66.792 106.179C67.1003 106.487 67.3439 106.877 67.5228 107.347C67.7018 107.815 67.7913 108.368 67.7913 109.008V109.445H61.8254V108.665H66.8865C66.8865 108.174 66.787 107.733 66.5882 107.342C66.3926 106.948 66.1192 106.636 65.7679 106.408C65.4199 106.179 65.0172 106.065 64.5598 106.065C64.0759 106.065 63.65 106.194 63.2821 106.452C62.9142 106.711 62.6258 107.052 62.417 107.477C62.2115 107.901 62.1071 108.365 62.1038 108.869V109.336C62.1038 109.942 62.2082 110.473 62.417 110.927C62.6291 111.378 62.9291 111.727 63.3169 111.976C63.7047 112.224 64.1637 112.349 64.694 112.349C65.0553 112.349 65.3718 112.292 65.6436 112.18C65.9187 112.067 66.149 111.916 66.3346 111.727C66.5235 111.535 66.6661 111.325 66.7622 111.096L67.6024 111.369C67.4864 111.691 67.2958 111.987 67.0306 112.259C66.7688 112.531 66.4407 112.75 66.0463 112.915C65.6552 113.078 65.2044 113.159 64.694 113.159ZM72.8988 113.159C72.1862 113.159 71.5697 112.993 71.0493 112.662C70.529 112.327 70.1263 111.865 69.8412 111.275C69.5595 110.682 69.4187 109.999 69.4187 109.227C69.4187 108.458 69.5595 107.775 69.8412 107.178C70.1263 106.578 70.519 106.109 71.0195 105.771C71.5233 105.43 72.105 105.259 72.7645 105.259C73.1788 105.259 73.5782 105.335 73.9627 105.488C74.3472 105.637 74.6919 105.867 74.9968 106.179C75.305 106.487 75.5486 106.877 75.7276 107.347C75.9066 107.815 75.9961 108.368 75.9961 109.008V109.445H70.0302V108.665H75.0912C75.0912 108.174 74.9918 107.733 74.7929 107.342C74.5974 106.948 74.324 106.636 73.9726 106.408C73.6246 106.179 73.2219 106.065 72.7645 106.065C72.2806 106.065 71.8547 106.194 71.4868 106.452C71.1189 106.711 70.8306 107.052 70.6218 107.477C70.4163 107.901 70.3119 108.365 70.3086 108.869V109.336C70.3086 109.942 70.413 110.473 70.6218 110.927C70.8339 111.378 71.1339 111.727 71.5216 111.976C71.9094 112.224 72.3685 112.349 72.8988 112.349C73.26 112.349 73.5766 112.292 73.8483 112.18C74.1234 112.067 74.3538 111.916 74.5394 111.727C74.7283 111.535 74.8708 111.325 74.9669 111.096L75.8071 111.369C75.6911 111.691 75.5006 111.987 75.2354 112.259C74.9736 112.531 74.6455 112.75 74.251 112.915C73.8599 113.078 73.4092 113.159 72.8988 113.159Z" fill="#212121"/>
<defs>
<clipPath id="clip0_2079_9282">
<rect width="64" height="64" fill="white" transform="translate(28 27)"/>
</clipPath>
</defs>
</svg>
