<svg width="120" height="144" viewBox="0 0 120 144" fill="none" xmlns="http://www.w3.org/2000/svg">
<rect width="120" height="144" rx="4" fill="#FAFAFA"/>
<g clip-path="url(#clip0_4334_13662)">
<path d="M67.2751 84.5991C67.2751 84.5991 67.7445 74.0391 66.8698 73.3351C64.0538 68.1084 63.6911 64.5884 61.0245 62.6684C59.9791 61.9004 58.5498 62.9244 58.5498 62.9244C58.5498 62.9244 55.7551 64.3324 53.9418 73.1431C52.5978 75.7884 53.5791 84.5991 53.5791 84.5991C53.5791 88.1618 67.2751 87.3724 67.2751 84.5991Z" fill="white" stroke="#231F20" stroke-width="0.75" stroke-linecap="round" stroke-linejoin="round"/>
<path d="M60.6827 77.2835C57.5893 77.2835 54.9227 76.0675 53.4507 74.2969C52.7253 75.1715 52.2773 76.1955 52.2773 77.2835C52.2773 80.5902 56.032 83.2782 60.6613 83.2782C65.2907 83.2782 69.0453 80.5902 69.0453 77.2835C69.0453 76.1955 68.5973 75.1715 67.872 74.2969C66.4213 76.0889 63.7547 77.2835 60.64 77.2835H60.6827Z" fill="white" stroke="#231F20" stroke-width="0.5" stroke-miterlimit="10"/>
<path d="M59.7225 47.7367C60.6185 47.694 61.4931 47.5874 62.0905 47.5874C63.2638 47.5874 66.7625 43.6834 66.7625 43.6834C71.6265 41.934 74.9545 47.3954 75.7225 48.9527C76.4905 50.51 73.3758 60.4514 72.0318 62.3927C70.6878 64.334 69.2798 61.8167 66.7411 61.4114C64.2025 61.006 61.0238 62.5847 60.5118 63.1607C59.9998 63.7367 59.2958 64.014 58.9118 63.1607C58.5278 62.3074 55.1998 61.006 52.6825 61.4114C50.1652 61.8167 48.7358 64.334 47.3918 62.3927C46.0478 60.4514 42.9332 50.51 43.7012 48.9527C44.4692 47.3954 47.7972 41.934 52.6612 43.6834C52.6612 43.6834 56.1598 47.5874 57.3332 47.5874C57.9092 47.5874 58.8052 47.694 59.7011 47.7367H59.7225Z" fill="black" stroke="black" stroke-width="0.5" stroke-miterlimit="10"/>
<path d="M59.7231 69.3245C64.6938 68.3005 64.6938 65.3351 64.5871 64.2471C64.4805 63.1591 62.8378 62.4978 62.8378 62.4978C62.8378 62.4978 66.4858 60.7485 67.3178 62.3058C68.1498 63.8631 67.7871 64.3111 68.5765 64.6525C69.3658 64.9938 70.9231 65.5271 70.9231 66.4018C70.9231 67.2765 70.0058 71.6711 67.8085 72.5458C66.8911 72.9085 65.9738 72.4605 64.8005 73.1431C63.6271 73.8258 63.9045 74.7005 59.7018 74.7005C55.5205 74.7005 55.7765 73.8258 54.6031 73.1431C53.4298 72.4605 52.5125 72.9085 51.5951 72.5458C49.3765 71.6711 48.4805 67.2765 48.4805 66.4018C48.4805 65.5271 50.0591 64.9725 50.8271 64.6525C51.5951 64.3325 51.2325 63.8631 52.0858 62.3058C52.9391 60.7485 56.5658 62.4978 56.5658 62.4978C56.5658 62.4978 54.9018 63.1805 54.8165 64.2471C54.7311 65.3138 54.7098 68.3005 59.6805 69.3245H59.7231Z" fill="black" stroke="white" stroke-width="0.5" stroke-miterlimit="10"/>
<path d="M43.5949 48.6525C43.5949 46.7965 43.9149 44.7058 43.5949 43.3405C43.1469 41.4631 42.9762 38.7111 43.5949 37.9431C44.2136 37.1751 44.7042 37.3031 45.0882 37.9431C45.4722 38.5831 44.8962 40.2685 45.0882 40.9725C45.3869 42.1031 45.6642 44.2791 45.8349 45.1538C46.0056 46.1565 43.6162 55.6285 43.6162 48.6525H43.5949Z" fill="black" stroke="black" stroke-width="0.5" stroke-miterlimit="10"/>
<path d="M59.7234 47.7573C59.7234 47.7573 61.5581 47.9066 62.7314 47.2666C64.5021 46.3066 67.3181 42.4026 67.7021 39.48C68.0007 37.304 66.9127 34.3173 65.1847 32.376C63.4567 30.4346 61.7074 30.0293 60.0647 30.0293C58.4221 30.0293 55.8834 30.52 54.2407 32.376C52.5127 34.3173 51.4461 37.3253 51.7234 39.48C52.1074 42.4026 54.9234 46.3066 56.6941 47.2666C57.8674 47.9066 59.7021 47.7573 59.7021 47.7573H59.7234Z" fill="black" stroke="white" stroke-width="0.5" stroke-miterlimit="10"/>
<path d="M76.2772 49.0588C76.4266 48.0775 75.5519 45.1121 75.8719 43.7681C76.3199 41.8908 76.4906 39.1388 75.8719 38.3708C75.2532 37.6028 74.3999 37.8375 74.3786 38.3708C74.3572 38.9041 74.5706 40.6961 74.3786 41.4001C74.0799 42.5308 73.8026 44.7068 73.6319 45.5815C73.4612 46.5841 75.0399 57.5495 76.2559 49.0801L76.2772 49.0588Z" fill="black" stroke="black" stroke-width="0.5" stroke-miterlimit="10"/>
</g>
<path d="M39.1724 113V102.818H40.1021V112.165H44.9544V113H39.1724ZM49.0663 113.174C48.6056 113.174 48.1846 113.085 47.8035 112.906C47.4223 112.723 47.119 112.461 46.8937 112.12C46.6683 111.775 46.5556 111.358 46.5556 110.867C46.5556 110.489 46.6269 110.171 46.7694 109.913C46.9119 109.654 47.1141 109.442 47.3759 109.276C47.6378 109.111 47.9476 108.98 48.3056 108.884C48.6636 108.787 49.058 108.713 49.4888 108.66C49.9164 108.607 50.2777 108.56 50.5726 108.521C50.8709 108.481 51.098 108.418 51.2538 108.332C51.4095 108.246 51.4874 108.106 51.4874 107.914V107.735C51.4874 107.215 51.3316 106.805 51.0201 106.507C50.7119 106.205 50.2677 106.055 49.6877 106.055C49.1375 106.055 48.6884 106.176 48.3404 106.418C47.9957 106.66 47.7538 106.945 47.6145 107.273L46.7744 106.969C46.9467 106.552 47.1853 106.219 47.4903 105.97C47.7952 105.718 48.1366 105.538 48.5144 105.428C48.8922 105.316 49.2751 105.259 49.6628 105.259C49.9545 105.259 50.2578 105.297 50.5726 105.374C50.8908 105.45 51.1858 105.582 51.4576 105.771C51.7294 105.957 51.9498 106.217 52.1188 106.552C52.2878 106.883 52.3724 107.304 52.3724 107.815V113H51.4874V111.792H51.4327C51.3267 112.017 51.1692 112.236 50.9604 112.448C50.7516 112.66 50.4898 112.834 50.1749 112.97C49.8601 113.106 49.4905 113.174 49.0663 113.174ZM49.1856 112.364C49.6562 112.364 50.0639 112.259 50.4086 112.05C50.7533 111.842 51.0184 111.565 51.204 111.22C51.393 110.872 51.4874 110.489 51.4874 110.072V108.968C51.4211 109.031 51.3101 109.087 51.1543 109.137C51.0019 109.187 50.8245 109.232 50.6224 109.271C50.4235 109.308 50.2246 109.339 50.0258 109.366C49.8269 109.392 49.6479 109.415 49.4888 109.435C49.058 109.488 48.6901 109.571 48.3851 109.684C48.0802 109.797 47.8466 109.952 47.6842 110.151C47.5217 110.347 47.4405 110.599 47.4405 110.907C47.4405 111.371 47.6063 111.731 47.9377 111.986C48.2691 112.238 48.6851 112.364 49.1856 112.364ZM54.7964 113V105.364H55.6565V106.537H55.7211C55.8736 106.152 56.1387 105.843 56.5166 105.607C56.8977 105.369 57.3286 105.249 57.8092 105.249C57.8821 105.249 57.9633 105.251 58.0528 105.254C58.1423 105.258 58.2169 105.261 58.2765 105.264V106.164C58.2368 106.157 58.1671 106.147 58.0677 106.134C57.9683 106.121 57.8606 106.114 57.7446 106.114C57.3468 106.114 56.9922 106.199 56.6806 106.368C56.3724 106.534 56.1288 106.764 55.9498 107.059C55.7708 107.354 55.6814 107.69 55.6814 108.068V113H54.7964ZM60.7055 115.864C60.5299 115.864 60.3658 115.847 60.2134 115.814C60.0609 115.781 59.9399 115.744 59.8504 115.705L60.0891 114.924C60.3907 115.017 60.6591 115.05 60.8945 115.023C61.1298 115 61.3386 114.894 61.5209 114.705C61.7032 114.52 61.8656 114.235 62.0081 113.85L62.2865 113.075L59.4776 105.364H60.4371L62.7041 111.832H62.7737L65.0408 105.364H66.0003L62.7688 114.208C62.6329 114.576 62.4655 114.883 62.2666 115.128C62.0678 115.376 61.8374 115.56 61.5756 115.68C61.317 115.802 61.027 115.864 60.7055 115.864ZM68.6866 108.227V113H67.8016V105.364H68.6617V106.562H68.7413C68.9203 106.171 69.1987 105.857 69.5765 105.622C69.9577 105.384 70.4283 105.264 70.9884 105.264C71.5022 105.264 71.9529 105.372 72.3407 105.587C72.7318 105.799 73.0351 106.113 73.2505 106.527C73.4693 106.941 73.5786 107.45 73.5786 108.053V113H72.6937V108.108C72.6937 107.482 72.518 106.986 72.1667 106.621C71.8187 106.257 71.3514 106.075 70.7647 106.075C70.3637 106.075 70.0074 106.161 69.6958 106.333C69.3843 106.505 69.1373 106.754 68.9551 107.079C68.7761 107.4 68.6866 107.783 68.6866 108.227ZM76.5259 105.364L78.4947 108.62L80.4634 105.364H81.4926L79.0366 109.182L81.4926 113H80.4634L78.4947 109.848L76.5259 113H75.5018L77.9279 109.182L75.5018 105.364H76.5259Z" fill="#212121"/>
<defs>
<clipPath id="clip0_4334_13662">
<rect width="64" height="64" fill="white" transform="translate(28 27)"/>
</clipPath>
</defs>
</svg>
