<svg width="120" height="144" viewBox="0 0 120 144" fill="none" xmlns="http://www.w3.org/2000/svg">
<rect width="120" height="144" rx="4" fill="#FAFAFA"/>
<g clip-path="url(#clip0_532_9088)">
<path d="M61.2194 45.0478C61.2243 45.0484 61.2291 45.049 61.234 45.0497C59.5016 45.6879 57.9095 46.6769 56.562 47.9646C54.6101 49.8297 53.2607 52.2358 52.687 54.8737C52.0549 57.3194 52.0549 58.9686 52.0549 60.6388V60.6428C52.0549 62.2958 52.0547 63.9778 51.4493 66.5662C51.1669 67.7739 50.6004 68.5153 49.8941 69.014C49.1695 69.5256 48.2665 69.8042 47.2736 70.018C46.9369 70.0905 46.5799 70.1569 46.2182 70.2241C45.5599 70.3466 44.8859 70.4719 44.2898 70.6424C43.341 70.9136 42.4288 71.335 41.8247 72.1679C41.2861 72.9106 40.9144 73.6844 40.6104 74.3925C40.508 74.6311 40.4153 74.8566 40.3276 75.0701C40.1467 75.5104 39.9867 75.8999 39.8048 76.2491C39.5404 76.7566 39.2802 77.0705 38.9624 77.2335C38.6557 77.3908 38.2041 77.4528 37.4544 77.2484C37.1776 77.1729 36.8525 76.9537 36.4947 76.5407C36.1411 76.1326 35.7862 75.5704 35.4427 74.876C34.756 73.4882 34.1449 71.6346 33.6797 69.5955C32.7457 65.5025 32.4274 60.7915 33.1789 57.7549C33.9499 54.6391 34.8887 52.2823 36.3519 50.3707C37.8111 48.4642 39.8214 46.9625 42.799 45.61C44.2312 44.9594 46.2383 44.6044 48.4852 44.4526C50.722 44.3016 53.152 44.3546 55.404 44.4938C57.6544 44.633 59.718 44.8577 61.2194 45.0478Z" fill="#212121" stroke="#212121"/>
<path d="M87.7334 48.3333C87.7334 45.1973 74.5281 44.3013 70.1761 44.3013C65.8241 44.3013 57.8454 45.4533 55.2427 53.5386C52.6401 61.6239 56.1814 68.1306 59.2534 67.5759C62.3254 67.0213 63.6481 63.0533 66.6774 62.8399C70.5535 62.19 74.2139 60.6087 77.3441 58.2319C80.6294 55.9493 87.7334 51.5119 87.7334 48.3333Z" fill="#212121"/>
</g>
<path d="M45.4076 113V102.818H46.3373V112.165H51.1895V113H45.4076ZM53.1786 113V105.364H54.0685V113H53.1786ZM53.631 104.051C53.4487 104.051 53.2929 103.99 53.1637 103.867C53.0344 103.741 52.9698 103.59 52.9698 103.415C52.9698 103.239 53.0344 103.09 53.1637 102.967C53.2929 102.841 53.4487 102.778 53.631 102.778C53.8133 102.778 53.9691 102.841 54.0983 102.967C54.2276 103.09 54.2922 103.239 54.2922 103.415C54.2922 103.59 54.2276 103.741 54.0983 103.867C53.9691 103.99 53.8133 104.051 53.631 104.051ZM62.3901 105.364L59.601 113H58.6564L55.8674 105.364H56.8269L59.0939 111.832H59.1635L61.4306 105.364H62.3901ZM67.0054 113.159C66.2928 113.159 65.6763 112.993 65.1559 112.662C64.6356 112.327 64.2329 111.865 63.9478 111.275C63.6661 110.682 63.5253 109.999 63.5253 109.227C63.5253 108.458 63.6661 107.775 63.9478 107.178C64.2329 106.578 64.6256 106.109 65.1261 105.771C65.6299 105.43 66.2116 105.259 66.8711 105.259C67.2854 105.259 67.6848 105.335 68.0693 105.488C68.4538 105.637 68.7985 105.867 69.1034 106.179C69.4116 106.487 69.6552 106.877 69.8342 107.347C70.0132 107.815 70.1027 108.368 70.1027 109.008V109.445H64.1368V108.665H69.1978C69.1978 108.174 69.0984 107.733 68.8995 107.342C68.704 106.948 68.4306 106.636 68.0792 106.408C67.7312 106.179 67.3285 106.065 66.8711 106.065C66.3872 106.065 65.9613 106.194 65.5934 106.452C65.2255 106.711 64.9372 107.052 64.7284 107.477C64.5229 107.901 64.4185 108.365 64.4152 108.869V109.336C64.4152 109.942 64.5196 110.473 64.7284 110.927C64.9405 111.378 65.2405 111.727 65.6282 111.976C66.016 112.224 66.4751 112.349 67.0054 112.349C67.3666 112.349 67.6832 112.292 67.9549 112.18C68.23 112.067 68.4604 111.916 68.646 111.727C68.8349 111.535 68.9774 111.325 69.0736 111.096L69.9137 111.369C69.7977 111.691 69.6072 111.987 69.342 112.259C69.0802 112.531 68.7521 112.75 68.3576 112.915C67.9665 113.078 67.5158 113.159 67.0054 113.159ZM72.1228 113V105.364H72.9829V106.537H73.0475C73.2 106.152 73.4651 105.843 73.8429 105.607C74.2241 105.369 74.655 105.249 75.1356 105.249C75.2085 105.249 75.2897 105.251 75.3792 105.254C75.4687 105.258 75.5432 105.261 75.6029 105.264V106.164C75.5631 106.157 75.4935 106.147 75.3941 106.134C75.2947 106.121 75.1869 106.114 75.0709 106.114C74.6732 106.114 74.3186 106.199 74.007 106.368C73.6988 106.534 73.4552 106.764 73.2762 107.059C73.0972 107.354 73.0077 107.69 73.0077 108.068V113H72.1228Z" fill="#212121"/>
<defs>
<clipPath id="clip0_532_9088">
<rect width="64" height="64" fill="white" transform="translate(28 27)"/>
</clipPath>
</defs>
</svg>
