<svg width="120" height="144" viewBox="0 0 120 144" fill="none" xmlns="http://www.w3.org/2000/svg">
  <rect width="120" height="144" rx="4" fill="#FAFAFA" />
  <path
    d="M66.4174 65.2668C66.6362 64.4766 65.978 63.5366 65.9237 62.3017C65.8694 61.0667 66.1426 59.9785 65.6654 59.5842C65.1866 59.1883 64.7176 57.261 65.4005 56.2974C66.0834 55.3337 65.2672 54.84 64.9924 53.7029C64.7176 52.5658 66.034 51.9239 64.9924 51.2819C63.9508 50.64 63.676 48.7127 63.7303 47.7238C63.7846 46.735 62.4682 45.6972 62.4682 45.6972C62.4682 45.6972 61.4744 45.5089 60.051 45.5C60.0329 45.5 60.0165 45.5 59.9984 45.5C59.9803 45.5 59.9638 45.5 59.9457 45.5C58.5207 45.5104 57.5285 45.6972 57.5285 45.6972C57.5285 45.6972 56.2121 46.735 56.2664 47.7238C56.3207 48.7127 56.0475 50.64 55.0043 51.2819C53.9627 51.9239 55.2791 52.5673 55.0043 53.7029C54.7295 54.84 53.9134 55.3337 54.5962 56.2974C55.2791 57.261 54.8085 59.1883 54.3313 59.5842C53.8525 59.98 54.1273 61.0667 54.073 62.3017C54.0187 63.5366 53.3605 64.4766 53.5793 65.2668C53.7982 66.057 54.203 67.1452 53.5349 68.0836C52.8668 69.0221 52.778 70.5046 53.5349 71.2963C54.2918 72.0865 54.6769 73.1243 54.5123 73.9159C54.3478 74.7076 56.4869 75.2013 56.9805 75.5957C56.9805 75.5957 57.3639 76.7817 56.9262 77.474C56.4869 78.1664 57.5301 82.1189 58.5717 82.8601C59.6133 83.6014 59.6018 83.4947 60 83.4947C60.3982 83.4947 60.3867 83.6014 61.4283 82.8601C62.4699 82.1189 63.5131 78.1649 63.0738 77.474C62.6344 76.7817 63.0195 75.5957 63.0195 75.5957C63.5131 75.1998 65.6522 74.7061 65.4877 73.9159C65.3231 73.1257 65.7065 72.088 66.4651 71.2963C67.222 70.5061 67.1332 69.0235 66.4651 68.0836C65.797 67.1452 66.2018 66.057 66.4207 65.2668H66.4174Z"
    stroke="#212121" stroke-miterlimit="10" />
  <path
    d="M67.2285 34.0599C66.3567 33.0991 66.409 34.1564 65.076 33.4362C63.7445 32.716 62.7698 30.3623 62.1548 30.5063C61.6028 30.636 60.2698 30.842 60.0008 30.8823C59.7302 30.8405 58.3972 30.6345 57.8468 30.5063C57.2318 30.3623 56.2585 32.7145 54.9255 33.4348C53.5925 34.155 53.6448 33.0991 52.7731 34.0585C51.9013 35.0178 51.8506 37.1324 52.2088 37.9967C52.567 38.8609 52.1581 40.2049 53.1313 40.3014C54.1045 40.3979 55.1808 40.5895 55.5913 41.5978C56.0018 42.6061 56.6829 43.5179 57.3332 44.1431C57.7268 44.5205 58.637 44.5291 59.2951 44.4772C59.764 44.4398 60.236 44.4398 60.7049 44.4772C61.363 44.5291 62.2732 44.5205 62.6668 44.1431C63.3171 43.5193 63.9998 42.6061 64.4087 41.5978C64.8192 40.5895 65.8955 40.3979 66.8687 40.3014C67.8419 40.2049 67.433 38.8609 67.7912 37.9967C68.1494 37.1324 68.0987 35.0193 67.2269 34.0599H67.2285Z"
    fill="#212121" />
  <path
    d="M24.459 103.318H25.5329L29.2267 112.188H29.3162L33.0101 103.318H34.084V113.5H33.209V105.282H33.1294L29.6941 113.5H28.8489L25.4135 105.282H25.334V113.5H24.459V103.318ZM38.8099 113.674C38.3492 113.674 37.9283 113.585 37.5471 113.406C37.1659 113.223 36.8627 112.961 36.6373 112.62C36.4119 112.275 36.2992 111.858 36.2992 111.367C36.2992 110.989 36.3705 110.671 36.513 110.413C36.6555 110.154 36.8577 109.942 37.1195 109.776C37.3814 109.611 37.6913 109.48 38.0492 109.384C38.4072 109.287 38.8016 109.213 39.2325 109.16C39.66 109.107 40.0213 109.06 40.3163 109.021C40.6146 108.981 40.8416 108.918 40.9974 108.832C41.1532 108.746 41.2311 108.606 41.2311 108.414V108.235C41.2311 107.715 41.0753 107.305 40.7637 107.007C40.4555 106.705 40.0114 106.555 39.4313 106.555C38.8811 106.555 38.432 106.676 38.084 106.918C37.7393 107.16 37.4974 107.445 37.3582 107.773L36.518 107.469C36.6903 107.052 36.929 106.719 37.2339 106.47C37.5388 106.218 37.8802 106.038 38.258 105.928C38.6359 105.816 39.0187 105.759 39.4065 105.759C39.6981 105.759 40.0014 105.797 40.3163 105.874C40.6345 105.95 40.9294 106.082 41.2012 106.271C41.473 106.457 41.6934 106.717 41.8624 107.052C42.0315 107.383 42.116 107.804 42.116 108.315V113.5H41.2311V112.292H41.1764C41.0703 112.517 40.9129 112.736 40.7041 112.948C40.4953 113.16 40.2334 113.334 39.9186 113.47C39.6037 113.606 39.2341 113.674 38.8099 113.674ZM38.9292 112.864C39.3998 112.864 39.8075 112.759 40.1522 112.55C40.4969 112.342 40.7621 112.065 40.9477 111.72C41.1366 111.372 41.2311 110.989 41.2311 110.572V109.468C41.1648 109.531 41.0537 109.587 40.898 109.637C40.7455 109.687 40.5682 109.732 40.366 109.771C40.1671 109.808 39.9683 109.839 39.7694 109.866C39.5705 109.892 39.3916 109.915 39.2325 109.935C38.8016 109.988 38.4337 110.071 38.1288 110.184C37.8239 110.297 37.5902 110.452 37.4278 110.651C37.2654 110.847 37.1842 111.099 37.1842 111.407C37.1842 111.871 37.3499 112.231 37.6813 112.486C38.0128 112.738 38.4287 112.864 38.9292 112.864ZM45.425 108.727V113.5H44.54V105.864H45.4001V107.062H45.4797C45.6587 106.671 45.9371 106.357 46.3149 106.122C46.6961 105.884 47.1667 105.764 47.7268 105.764C48.2406 105.764 48.6913 105.872 49.0791 106.087C49.4702 106.299 49.7735 106.613 49.9889 107.027C50.2077 107.441 50.317 107.95 50.317 108.553V113.5H49.4321V108.608C49.4321 107.982 49.2564 107.486 48.9051 107.121C48.5571 106.757 48.0898 106.575 47.5031 106.575C47.1021 106.575 46.7458 106.661 46.4342 106.833C46.1227 107.005 45.8757 107.254 45.6935 107.579C45.5145 107.9 45.425 108.283 45.425 108.727ZM57.5697 110.582V105.864H58.4547V113.5H57.5697V112.232H57.5001C57.3212 112.623 57.0378 112.95 56.65 113.212C56.2622 113.47 55.7883 113.599 55.2281 113.599C54.7409 113.599 54.3084 113.493 53.9305 113.281C53.5527 113.066 53.2561 112.751 53.0406 112.337C52.8252 111.922 52.7175 111.414 52.7175 110.81V105.864H53.6024V110.756C53.6024 111.352 53.7781 111.833 54.1294 112.197C54.4807 112.559 54.9315 112.739 55.4817 112.739C55.8264 112.739 56.1578 112.656 56.476 112.491C56.7942 112.325 57.056 112.083 57.2615 111.765C57.467 111.443 57.5697 111.049 57.5697 110.582ZM61.0515 113.5V103.318H61.9414V107.32H62.021C62.1204 107.092 62.2629 106.856 62.4485 106.614C62.6374 106.372 62.8844 106.17 63.1893 106.008C63.4975 105.842 63.8853 105.759 64.3526 105.759C64.979 105.759 65.5292 105.925 66.0032 106.256C66.4772 106.585 66.8467 107.045 67.1119 107.638C67.377 108.228 67.5096 108.916 67.5096 109.702C67.5096 110.491 67.377 111.182 67.1119 111.775C66.85 112.368 66.4821 112.83 66.0082 113.162C65.5375 113.493 64.9906 113.659 64.3675 113.659C63.9035 113.659 63.5157 113.576 63.2042 113.411C62.896 113.245 62.6474 113.041 62.4585 112.799C62.2695 112.554 62.1237 112.315 62.021 112.083H61.9116V113.5H61.0515ZM61.9265 109.687C61.9265 110.303 62.0176 110.85 62.1999 111.327C62.3855 111.801 62.6507 112.174 62.9954 112.446C63.3434 112.714 63.7643 112.849 64.2582 112.849C64.7653 112.849 65.1945 112.71 65.5458 112.431C65.8971 112.149 66.1639 111.77 66.3462 111.293C66.5285 110.815 66.6197 110.28 66.6197 109.687C66.6197 109.1 66.5285 108.571 66.3462 108.101C66.1673 107.63 65.9021 107.257 65.5508 106.982C65.1995 106.704 64.7686 106.565 64.2582 106.565C63.761 106.565 63.3384 106.699 62.9904 106.967C62.6457 107.232 62.3822 107.6 62.1999 108.071C62.0176 108.538 61.9265 109.077 61.9265 109.687ZM69.5235 113.5V105.864H70.3836V107.037H70.4482C70.6007 106.652 70.8658 106.343 71.2437 106.107C71.6248 105.869 72.0557 105.749 72.5363 105.749C72.6092 105.749 72.6904 105.751 72.7799 105.754C72.8694 105.758 72.9439 105.761 73.0036 105.764V106.664C72.9638 106.657 72.8942 106.647 72.7948 106.634C72.6954 106.621 72.5876 106.614 72.4716 106.614C72.0739 106.614 71.7193 106.699 71.4077 106.868C71.0995 107.034 70.8559 107.264 70.6769 107.559C70.4979 107.854 70.4084 108.19 70.4084 108.568V113.5H69.5235ZM74.5937 113.5V105.864H75.4836V113.5H74.5937ZM75.0461 104.551C74.8638 104.551 74.708 104.49 74.5787 104.367C74.4495 104.241 74.3849 104.09 74.3849 103.915C74.3849 103.739 74.4495 103.59 74.5787 103.467C74.708 103.341 74.8638 103.278 75.0461 103.278C75.2284 103.278 75.3841 103.341 75.5134 103.467C75.6427 103.59 75.7073 103.739 75.7073 103.915C75.7073 104.09 75.6427 104.241 75.5134 104.367C75.3841 104.49 75.2284 104.551 75.0461 104.551ZM82.7462 110.582V105.864H83.6312V113.5H82.7462V112.232H82.6766C82.4976 112.623 82.2143 112.95 81.8265 113.212C81.4387 113.47 80.9647 113.599 80.4046 113.599C79.9174 113.599 79.4849 113.493 79.107 113.281C78.7292 113.066 78.4325 112.751 78.2171 112.337C78.0017 111.922 77.894 111.414 77.894 110.81V105.864H78.7789V110.756C78.7789 111.352 78.9546 111.833 79.3059 112.197C79.6572 112.559 80.108 112.739 80.6582 112.739C81.0029 112.739 81.3343 112.656 81.6525 112.491C81.9707 112.325 82.2325 112.083 82.438 111.765C82.6435 111.443 82.7462 111.049 82.7462 110.582ZM86.044 113.5V105.864H86.9041V107.037H86.9837C87.1361 106.643 87.3897 106.333 87.7443 106.107C88.1023 105.879 88.5315 105.764 89.032 105.764C89.5589 105.764 89.9915 105.888 90.3295 106.137C90.6709 106.382 90.9261 106.72 91.0952 107.151H91.1598C91.3321 106.727 91.6122 106.391 92 106.142C92.3911 105.89 92.8651 105.764 93.4219 105.764C94.1312 105.764 94.6913 105.988 95.1023 106.435C95.5133 106.879 95.7187 107.529 95.7187 108.384V113.5H94.8338V108.384C94.8338 107.781 94.6797 107.329 94.3714 107.027C94.0632 106.725 93.6572 106.575 93.1534 106.575C92.5701 106.575 92.121 106.754 91.8061 107.112C91.4912 107.469 91.3338 107.924 91.3338 108.474V113.5H90.429V108.305C90.429 107.788 90.2848 107.37 89.9964 107.052C89.7081 106.734 89.3021 106.575 88.7784 106.575C88.4271 106.575 88.1106 106.661 87.8288 106.833C87.5504 107.005 87.33 107.246 87.1676 107.554C87.0085 107.859 86.929 108.21 86.929 108.608V113.5H86.044Z"
    fill="#212121" />
</svg>
