<svg width="120" height="144" viewBox="0 0 120 144" fill="none" xmlns="http://www.w3.org/2000/svg">
<rect width="120" height="144" rx="4" fill="#FAFAFA"/>
<g clip-path="url(#clip0_4334_13722)">
<path d="M75.658 51.8991C74.1647 54.0751 71.8607 50.4911 71.8607 50.4484C68.426 51.0884 68.1487 49.3178 68.2127 48.8484C67.1247 48.3151 69.066 47.8671 68.1273 47.5684C66.314 47.0138 66.5487 45.2004 67.7433 44.8804C66.762 44.3258 66.2287 42.7044 68.106 41.8724C67.8927 41.8297 68.298 41.7871 68.106 41.8724C67.1673 40.5497 67.7433 38.5231 69.642 39.0778C70.154 39.2271 71.114 37.8404 72.8847 39.3124C74.634 43.1311 75.3807 51.4938 75.3807 51.4938" fill="black"/>
<path d="M75.658 51.8991C74.1647 54.0751 71.8607 50.4911 71.8607 50.4484C68.426 51.0884 68.1487 49.3178 68.2127 48.8484C67.1247 48.3151 69.066 47.8671 68.1273 47.5684C66.314 47.0138 66.5487 45.2004 67.7433 44.8804C66.762 44.3258 66.2287 42.7044 68.106 41.8724M68.106 41.8724C67.8927 41.8297 68.298 41.7871 68.106 41.8724ZM68.106 41.8724C67.1673 40.5497 67.7433 38.5231 69.642 39.0778C70.154 39.2271 71.114 37.8404 72.8847 39.3124C74.634 43.1311 75.3807 51.4938 75.3807 51.4938" stroke="black" stroke-width="0.5" stroke-linecap="round" stroke-linejoin="round"/>
<path d="M72.9915 52.8577C72.4155 51.4711 68.1915 49.3164 64.3301 49.3164C61.9835 49.3164 59.8928 50.0844 59.5728 49.9777C57.8235 49.4657 56.8635 49.7217 54.0261 49.5724C47.3488 49.1884 45.6848 52.8577 45.6848 52.8577C45.6848 51.2364 44.0635 73.0391 58.7621 73.0391C73.4608 73.0391 72.6715 52.0684 73.0128 52.8577H72.9915Z" fill="white" stroke="black" stroke-width="0.5" stroke-linecap="round" stroke-linejoin="round"/>
<path d="M59.5725 50C59.5725 50 58.4205 51.8773 59.5085 59.728" stroke="black" stroke-width="0.5" stroke-linecap="round" stroke-linejoin="round"/>
<path d="M42.9756 55.1632C42.9756 55.1632 43.6796 77.0085 58.4636 77.0085C73.2476 77.0085 74.6556 61.6912 75.3809 55.0352" stroke="black" stroke-width="0.5" stroke-linecap="round" stroke-linejoin="round"/>
<path d="M43.21 51.6853C44.938 40.6773 47.4126 32.6133 51.4446 32.6133C59.978 32.6133 54.7513 39.8879 59.2526 39.8879C64.3086 39.8879 58.4633 32.6133 66.5273 32.6133C71.0713 32.6133 73.674 39.9946 75.3806 52.1333" stroke="black" stroke-width="0.75" stroke-linecap="round" stroke-linejoin="round"/>
</g>
<path d="M35.041 104V93.8182H38.3272C39.0498 93.8182 39.653 93.9574 40.1369 94.2358C40.6241 94.5109 40.9904 94.8854 41.2356 95.3594C41.4842 95.8333 41.6085 96.367 41.6085 96.9602C41.6085 97.5535 41.4859 98.0888 41.2406 98.5661C40.9953 99.04 40.6307 99.4162 40.1468 99.6946C39.6629 99.9697 39.0614 100.107 38.3422 100.107H35.7569V99.272H38.3173C38.8509 99.272 39.2934 99.1726 39.6447 98.9737C39.996 98.7715 40.2579 98.4964 40.4302 98.1484C40.6059 97.8004 40.6937 97.4044 40.6937 96.9602C40.6937 96.5161 40.6059 96.12 40.4302 95.772C40.2579 95.424 39.9944 95.1506 39.6397 94.9517C39.2884 94.7528 38.8426 94.6534 38.3024 94.6534H35.9707V104H35.041ZM45.8099 104.174C45.3492 104.174 44.9283 104.085 44.5471 103.906C44.1659 103.723 43.8627 103.461 43.6373 103.12C43.4119 102.775 43.2992 102.358 43.2992 101.867C43.2992 101.489 43.3705 101.171 43.513 100.913C43.6555 100.654 43.8577 100.442 44.1195 100.276C44.3814 100.111 44.6913 99.9796 45.0492 99.8835C45.4072 99.7874 45.8016 99.7128 46.2325 99.6598C46.66 99.6068 47.0213 99.5604 47.3163 99.5206C47.6146 99.4808 47.8416 99.4179 47.9974 99.3317C48.1532 99.2455 48.2311 99.1063 48.2311 98.9141V98.7351C48.2311 98.2147 48.0753 97.8054 47.7637 97.5071C47.4555 97.2055 47.0114 97.0547 46.4313 97.0547C45.8811 97.0547 45.432 97.1757 45.084 97.4176C44.7393 97.6596 44.4974 97.9446 44.3582 98.2727L43.518 97.9695C43.6903 97.5518 43.929 97.2187 44.2339 96.9702C44.5388 96.7183 44.8802 96.5376 45.258 96.4283C45.6359 96.3156 46.0187 96.2592 46.4065 96.2592C46.6981 96.2592 47.0014 96.2973 47.3163 96.3736C47.6345 96.4498 47.9294 96.5824 48.2012 96.7713C48.473 96.9569 48.6934 97.2171 48.8624 97.5518C49.0315 97.8833 49.116 98.3042 49.116 98.8146V104H48.2311V102.792H48.1764C48.0703 103.017 47.9129 103.236 47.7041 103.448C47.4953 103.66 47.2334 103.834 46.9186 103.97C46.6037 104.106 46.2341 104.174 45.8099 104.174ZM45.9292 103.364C46.3998 103.364 46.8075 103.259 47.1522 103.05C47.4969 102.842 47.7621 102.565 47.9477 102.22C48.1366 101.872 48.2311 101.489 48.2311 101.072V99.968C48.1648 100.031 48.0537 100.087 47.898 100.137C47.7455 100.187 47.5682 100.232 47.366 100.271C47.1671 100.308 46.9683 100.339 46.7694 100.366C46.5705 100.392 46.3916 100.415 46.2325 100.435C45.8016 100.488 45.4337 100.571 45.1288 100.684C44.8239 100.797 44.5902 100.952 44.4278 101.151C44.2654 101.347 44.1842 101.599 44.1842 101.907C44.1842 102.371 44.3499 102.731 44.6813 102.986C45.0128 103.238 45.4287 103.364 45.9292 103.364ZM52.425 93.8182V104H51.54V93.8182H52.425ZM56.9694 104.174C56.5087 104.174 56.0878 104.085 55.7066 103.906C55.3255 103.723 55.0222 103.461 54.7968 103.12C54.5715 102.775 54.4588 102.358 54.4588 101.867C54.4588 101.489 54.53 101.171 54.6725 100.913C54.8151 100.654 55.0172 100.442 55.2791 100.276C55.5409 100.111 55.8508 99.9796 56.2088 99.8835C56.5667 99.7874 56.9611 99.7128 57.392 99.6598C57.8196 99.6068 58.1808 99.5604 58.4758 99.5206C58.7741 99.4808 59.0011 99.4179 59.1569 99.3317C59.3127 99.2455 59.3906 99.1063 59.3906 98.9141V98.7351C59.3906 98.2147 59.2348 97.8054 58.9233 97.5071C58.615 97.2055 58.1709 97.0547 57.5909 97.0547C57.0407 97.0547 56.5916 97.1757 56.2436 97.4176C55.8989 97.6596 55.6569 97.9446 55.5177 98.2727L54.6775 97.9695C54.8499 97.5518 55.0885 97.2187 55.3934 96.9702C55.6983 96.7183 56.0397 96.5376 56.4176 96.4283C56.7954 96.3156 57.1782 96.2592 57.566 96.2592C57.8577 96.2592 58.1609 96.2973 58.4758 96.3736C58.794 96.4498 59.089 96.5824 59.3608 96.7713C59.6325 96.9569 59.8529 97.2171 60.022 97.5518C60.191 97.8833 60.2755 98.3042 60.2755 98.8146V104H59.3906V102.792H59.3359C59.2298 103.017 59.0724 103.236 58.8636 103.448C58.6548 103.66 58.393 103.834 58.0781 103.97C57.7632 104.106 57.3937 104.174 56.9694 104.174ZM57.0887 103.364C57.5594 103.364 57.9671 103.259 58.3117 103.05C58.6564 102.842 58.9216 102.565 59.1072 102.22C59.2961 101.872 59.3906 101.489 59.3906 101.072V99.968C59.3243 100.031 59.2133 100.087 59.0575 100.137C58.905 100.187 58.7277 100.232 58.5255 100.271C58.3267 100.308 58.1278 100.339 57.9289 100.366C57.7301 100.392 57.5511 100.415 57.392 100.435C56.9611 100.488 56.5932 100.571 56.2883 100.684C55.9834 100.797 55.7497 100.952 55.5873 101.151C55.4249 101.347 55.3437 101.599 55.3437 101.907C55.3437 102.371 55.5094 102.731 55.8409 102.986C56.1723 103.238 56.5883 103.364 57.0887 103.364ZM65.7074 96.3636V97.1342H62.0632V96.3636H65.7074ZM63.2017 94.5341H64.0916V102.006C64.0916 102.325 64.1463 102.575 64.2557 102.757C64.3651 102.936 64.5076 103.064 64.6832 103.14C64.8589 103.213 65.0462 103.249 65.245 103.249C65.361 103.249 65.4605 103.243 65.5433 103.229C65.6262 103.213 65.6991 103.196 65.7621 103.18L65.951 103.98C65.8648 104.013 65.7588 104.043 65.6328 104.07C65.5069 104.099 65.3511 104.114 65.1655 104.114C64.8407 104.114 64.5275 104.043 64.2259 103.901C63.9276 103.758 63.6823 103.546 63.4901 103.264C63.2978 102.982 63.2017 102.633 63.2017 102.215V94.5341ZM67.7971 104V96.3636H68.687V104H67.7971ZM68.2495 95.0511C68.0672 95.0511 67.9114 94.9898 67.7822 94.8672C67.6529 94.7412 67.5883 94.5904 67.5883 94.4148C67.5883 94.2391 67.6529 94.09 67.7822 93.9673C67.9114 93.8414 68.0672 93.7784 68.2495 93.7784C68.4318 93.7784 68.5876 93.8414 68.7168 93.9673C68.8461 94.09 68.9107 94.2391 68.9107 94.4148C68.9107 94.5904 68.8461 94.7412 68.7168 94.8672C68.5876 94.9898 68.4318 95.0511 68.2495 95.0511ZM71.9823 99.2273V104H71.0974V96.3636H71.9575V97.5618H72.037C72.216 97.1707 72.4944 96.8575 72.8722 96.6222C73.2534 96.3835 73.724 96.2642 74.2842 96.2642C74.7979 96.2642 75.2487 96.3719 75.6364 96.5874C76.0275 96.7995 76.3308 97.1127 76.5462 97.527C76.765 97.9413 76.8744 98.45 76.8744 99.0533V104H75.9894V99.108C75.9894 98.4815 75.8138 97.986 75.4624 97.6214C75.1144 97.2569 74.6471 97.0746 74.0605 97.0746C73.6594 97.0746 73.3031 97.1607 72.9916 97.3331C72.68 97.5054 72.4331 97.754 72.2508 98.0788C72.0718 98.4003 71.9823 98.7831 71.9823 99.2273ZM82.3622 104.159C81.6496 104.159 81.0331 103.993 80.5127 103.662C79.9924 103.327 79.5897 102.865 79.3046 102.275C79.0229 101.682 78.8821 100.999 78.8821 100.227C78.8821 99.4576 79.0229 98.7749 79.3046 98.1783C79.5897 97.5784 79.9824 97.1094 80.4829 96.7713C80.9867 96.4299 81.5684 96.2592 82.2279 96.2592C82.6422 96.2592 83.0416 96.3355 83.4261 96.4879C83.8106 96.6371 84.1553 96.8674 84.4602 97.179C84.7684 97.4872 85.012 97.8767 85.191 98.3473C85.37 98.8146 85.4595 99.3681 85.4595 100.008V100.445H79.4936V99.6648H84.5546C84.5546 99.1742 84.4552 98.7334 84.2563 98.3423C84.0608 97.9479 83.7874 97.6364 83.436 97.4077C83.088 97.179 82.6853 97.0646 82.2279 97.0646C81.744 97.0646 81.3181 97.1939 80.9502 97.4524C80.5823 97.7109 80.294 98.0523 80.0852 98.4766C79.8797 98.9008 79.7753 99.3648 79.772 99.8686V100.336C79.772 100.942 79.8764 101.473 80.0852 101.927C80.2973 102.378 80.5973 102.727 80.985 102.976C81.3728 103.224 81.8319 103.349 82.3622 103.349C82.7234 103.349 83.04 103.292 83.3117 103.18C83.5868 103.067 83.8172 102.916 84.0028 102.727C84.1917 102.535 84.3342 102.325 84.4303 102.096L85.2705 102.369C85.1545 102.691 84.964 102.987 84.6988 103.259C84.437 103.531 84.1089 103.75 83.7144 103.915C83.3233 104.078 82.8726 104.159 82.3622 104.159ZM41.6731 112.653V111.818H49.0559V112.653H45.8294V122H44.8997V112.653H41.6731ZM52.8956 122.159C52.2361 122.159 51.6527 121.992 51.1456 121.657C50.6418 121.322 50.2474 120.86 49.9624 120.27C49.6773 119.677 49.5348 118.992 49.5348 118.217C49.5348 117.434 49.6773 116.747 49.9624 116.153C50.2474 115.557 50.6418 115.093 51.1456 114.761C51.6527 114.427 52.2361 114.259 52.8956 114.259C53.5552 114.259 54.1369 114.427 54.6407 114.761C55.1444 115.096 55.5389 115.56 55.8239 116.153C56.1122 116.747 56.2564 117.434 56.2564 118.217C56.2564 118.992 56.1139 119.677 55.8289 120.27C55.5438 120.86 55.1478 121.322 54.6407 121.657C54.1369 121.992 53.5552 122.159 52.8956 122.159ZM52.8956 121.349C53.4259 121.349 53.875 121.206 54.2429 120.921C54.6108 120.636 54.8892 120.257 55.0782 119.783C55.2704 119.309 55.3665 118.787 55.3665 118.217C55.3665 117.647 55.2704 117.123 55.0782 116.646C54.8892 116.168 54.6108 115.786 54.2429 115.497C53.875 115.209 53.4259 115.065 52.8956 115.065C52.3686 115.065 51.9195 115.209 51.5483 115.497C51.1804 115.786 50.9004 116.168 50.7081 116.646C50.5192 117.123 50.4247 117.647 50.4247 118.217C50.4247 118.787 50.5192 119.309 50.7081 119.783C50.9004 120.257 51.1804 120.636 51.5483 120.921C51.9162 121.206 52.3653 121.349 52.8956 121.349ZM59.154 117.227V122H58.2691V114.364H59.1292V115.562H59.2087C59.3877 115.171 59.6661 114.857 60.0439 114.622C60.4251 114.384 60.8957 114.264 61.4559 114.264C61.9696 114.264 62.4203 114.372 62.8081 114.587C63.1992 114.799 63.5025 115.113 63.7179 115.527C63.9367 115.941 64.0461 116.45 64.0461 117.053V122H63.1611V117.108C63.1611 116.482 62.9854 115.986 62.6341 115.621C62.2861 115.257 61.8188 115.075 61.2321 115.075C60.8311 115.075 60.4748 115.161 60.1632 115.333C59.8517 115.505 59.6048 115.754 59.4225 116.079C59.2435 116.4 59.154 116.783 59.154 117.227ZM71.5772 116.039L70.7668 116.268C70.6873 116.039 70.5746 115.832 70.4287 115.646C70.2829 115.461 70.0923 115.313 69.857 115.204C69.625 115.094 69.3366 115.04 68.9919 115.04C68.4749 115.04 68.0507 115.162 67.7192 115.408C67.3878 115.653 67.2221 115.969 67.2221 116.357C67.2221 116.685 67.3347 116.952 67.5601 117.158C67.7888 117.36 68.1401 117.521 68.6141 117.64L69.7675 117.923C70.4072 118.079 70.8861 118.326 71.2043 118.664C71.5258 119.002 71.6865 119.426 71.6865 119.937C71.6865 120.368 71.5672 120.75 71.3286 121.085C71.09 121.42 70.7569 121.683 70.3293 121.876C69.9051 122.065 69.4129 122.159 68.8527 122.159C68.107 122.159 67.4922 121.992 67.0083 121.657C66.5244 121.319 66.2145 120.832 66.0786 120.195L66.9287 119.987C67.0381 120.441 67.2519 120.784 67.5701 121.016C67.8916 121.248 68.3141 121.364 68.8378 121.364C69.4245 121.364 69.8935 121.233 70.2448 120.971C70.5961 120.706 70.7718 120.374 70.7718 119.977C70.7718 119.668 70.669 119.41 70.4635 119.201C70.258 118.989 69.9465 118.833 69.5289 118.734L68.281 118.435C67.6181 118.276 67.1276 118.024 66.8094 117.68C66.4912 117.335 66.3321 116.907 66.3321 116.397C66.3321 115.976 66.4465 115.607 66.6752 115.288C66.9039 114.967 67.2187 114.715 67.6198 114.533C68.0208 114.35 68.4782 114.259 68.9919 114.259C69.6913 114.259 70.2498 114.418 70.6674 114.737C71.0883 115.051 71.3916 115.486 71.5772 116.039ZM73.7042 122V114.364H74.5941V122H73.7042ZM74.1566 113.051C73.9743 113.051 73.8185 112.99 73.6893 112.867C73.56 112.741 73.4954 112.59 73.4954 112.415C73.4954 112.239 73.56 112.09 73.6893 111.967C73.8185 111.841 73.9743 111.778 74.1566 111.778C74.3389 111.778 74.4947 111.841 74.6239 111.967C74.7532 112.09 74.8178 112.239 74.8178 112.415C74.8178 112.59 74.7532 112.741 74.6239 112.867C74.4947 112.99 74.3389 113.051 74.1566 113.051ZM77.8894 111.818V122H77.0045V111.818H77.8894Z" fill="#212121"/>
<defs>
<clipPath id="clip0_4334_13722">
<rect width="64" height="64" fill="white" transform="translate(28 18)"/>
</clipPath>
</defs>
</svg>
