<svg width="128" height="128" viewBox="0 0 128 128" fill="none" xmlns="http://www.w3.org/2000/svg">
<rect width="128" height="128" fill="#444A65"/>
<mask id="mask0_3982_12959" style="mask-type:alpha" maskUnits="userSpaceOnUse" x="40" y="40" width="48" height="48">
<rect x="40" y="40" width="48" height="48" fill="#D9D9D9"/>
</mask>
<g mask="url(#mask0_3982_12959)">
<path d="M49 82C48.1667 82 47.4583 81.7083 46.875 81.125C46.2917 80.5417 46 79.8333 46 79V49C46 48.1667 46.2917 47.4583 46.875 46.875C47.4583 46.2917 48.1667 46 49 46H79C79.8333 46 80.5417 46.2917 81.125 46.875C81.7083 47.4583 82 48.1667 82 49V79C82 79.8333 81.7083 80.5417 81.125 81.125C80.5417 81.7083 79.8333 82 79 82H49ZM49 79H79V53H49V79ZM64 73.75C61.3333 73.75 58.95 73.0333 56.85 71.6C54.75 70.1667 53.2167 68.3 52.25 66C53.2167 63.7 54.75 61.8333 56.85 60.4C58.95 58.9667 61.3333 58.25 64 58.25C66.6667 58.25 69.05 58.9667 71.15 60.4C73.25 61.8333 74.7833 63.7 75.75 66C74.7833 68.3 73.25 70.1667 71.15 71.6C69.05 73.0333 66.6667 73.75 64 73.75ZM64 71.25C65.9 71.25 67.65 70.7833 69.25 69.85C70.85 68.9167 72.1 67.6333 73 66C72.1 64.3667 70.85 63.0833 69.25 62.15C67.65 61.2167 65.9 60.75 64 60.75C62.1 60.75 60.35 61.2167 58.75 62.15C57.15 63.0833 55.9 64.3667 55 66C55.9 67.6333 57.15 68.9167 58.75 69.85C60.35 70.7833 62.1 71.25 64 71.25ZM64 68.5C64.7 68.5 65.2917 68.2583 65.775 67.775C66.2583 67.2917 66.5 66.7 66.5 66C66.5 65.3 66.2583 64.7083 65.775 64.225C65.2917 63.7417 64.7 63.5 64 63.5C63.3 63.5 62.7083 63.7417 62.225 64.225C61.7417 64.7083 61.5 65.3 61.5 66C61.5 66.7 61.7417 67.2917 62.225 67.775C62.7083 68.2583 63.3 68.5 64 68.5Z" fill="white"/>
</g>
</svg>
