<svg width="120" height="144" viewBox="0 0 120 144" fill="none" xmlns="http://www.w3.org/2000/svg">
  <rect width="120" height="144" rx="4" fill="#FAFAFA" />
  <path
    d="M67.8218 46.7154C67.2988 47.071 66.1041 48.3454 66.3124 50.4115C66.4315 51.5843 66.8864 52.8248 67.3924 53.9086C67.8983 54.9925 69.1654 62.063 68.9655 67.567C68.7955 72.2919 68.6722 76.4411 68.6381 79.5106C68.6339 79.9763 68.3065 80.3743 67.8516 80.4759C67.2351 80.6114 66.6483 80.1584 66.6313 79.5318C66.525 76.2167 66.2486 73.6087 66.2826 64.2011C66.2912 61.3941 64.8966 60.6193 63.3744 60.0435C61.8523 59.4677 58.978 60.0138 58.2978 61.538C57.6175 63.0622 57.2603 63.312 57.2305 64.1079C57.2008 64.9039 57.9363 66.5932 57.9363 66.5932C57.7918 66.699 57.5834 66.6652 57.4857 66.5128C57.3156 66.2545 57.0265 65.9073 56.6948 65.8819C56.1506 65.8396 55.7382 65.9327 55.5808 66.2799C55.4235 66.6271 55.3045 66.699 55.3045 66.699C55.3045 66.699 55.7254 64.9293 55.5298 64.6329C55.3342 64.3366 54.3606 66.1825 54.3606 66.1825C54.3606 66.1825 54.6327 65.1029 54.2245 64.8616C53.8163 64.6202 53 64.6456 53 64.6456C53 64.6456 53.4762 64.0571 54.0842 63.7269C54.6922 63.3967 55.4746 62.7489 55.7637 62.0884C56.0528 61.4279 56.3207 60.7886 56.0826 60.7463C55.8445 60.7039 55.1684 60.7082 54.6625 60.9199C54.1565 61.1316 53.4549 61.4703 53.4549 61.4703C53.4549 61.4703 54.6327 60.5346 54.7177 59.8021C54.8028 59.0697 54.4286 58.4939 53.9354 58.2568C53.4422 58.0197 53.9099 57.99 54.0544 58.0917C54.199 58.1933 54.8113 58.6378 55.245 58.604C55.6786 58.5701 56.1421 58.5828 57.3666 58.0917C58.5911 57.6005 60.2026 56.5929 59.9942 55.5895C59.7859 54.586 58.4466 54.4887 57.8598 54.2685C57.2731 54.0484 56.3504 54.078 55.853 54.2346C55.3555 54.3913 54.3096 54.8062 54.165 54.8189C54.0204 54.8316 53.6463 54.6157 53.6463 54.6157C53.6463 54.6157 55.1769 54.3574 55.3725 53.8028C55.5681 53.2482 55.5171 52.4607 55.1684 51.8637C54.8198 51.2667 54.7007 50.8899 54.7985 50.8137C54.8963 50.7375 55.0876 51.1397 55.3895 51.4276C55.6914 51.7155 56.563 52.2871 57.5579 52.3548C58.5529 52.4226 61.6184 52.2278 61.2995 51.2202C60.9977 50.2718 60.1005 49.696 59.4287 49.0863C58.7569 48.4766 57.0817 48.5655 56.7969 48.4428C56.512 48.32 56.5928 47.9559 56.9159 48.0575C57.2391 48.1591 58.8802 47.4478 59.1566 46.9779C59.433 46.5079 59.6201 45.767 59.5733 45.496C59.5265 45.225 59.518 44.9456 59.6116 44.9456C59.7051 44.9456 59.8539 45.2547 59.8709 45.6357C59.8879 46.0168 60.1473 46.8805 60.3216 47.1768C60.4959 47.4732 62.3072 47.4351 62.7664 47.1303C63.2256 46.8254 63.5572 46.1014 63.4552 45.5087C63.3532 44.916 62.9875 43.6585 62.8897 43.3368C62.7919 43.015 62.6133 42.8626 62.7196 42.8372C62.8259 42.8118 62.8472 43.0023 63.1151 43.1293C63.3829 43.2563 63.9356 43.4849 64.195 43.3537C64.4544 43.2224 64.7392 42.8245 64.837 42.6466C64.9348 42.4688 65.1559 42.4646 65.1857 42.5704C65.2154 42.6763 64.9391 43.4807 64.8881 43.8702C64.837 44.2597 64.9773 44.8609 65.1219 44.9541C65.2665 45.0472 65.4323 45.8517 66.2741 45.5002C66.6696 45.3351 67.082 44.4757 67.201 44.0819C67.3201 43.6882 67.5157 43.5019 67.6135 43.5146C67.7113 43.5273 67.5837 43.8109 67.5199 44.12C67.4561 44.4291 67.4732 45.0091 67.8048 45.2716C68.1364 45.5341 68.7317 45.7331 68.8507 45.8262C68.9698 45.9194 69.1186 46.0379 68.8465 46.1057C68.6934 46.1438 68.264 46.4021 67.8346 46.6984L67.8218 46.7154Z"
    fill="#212121" />
  <path
    d="M62.9415 61.8709C66.3148 71.4788 58.2935 78.2616 49.1133 72.2011C37.1092 64.2771 48.4181 38.8812 60.6668 35.0346C68.6925 32.5129 76.8769 39.347 75.9241 46.4205C75.5078 49.502 73.2117 52.0237 70.2075 52.8784C70.186 52.887 70.1602 52.8913 70.1388 52.8998"
    stroke="#212121" stroke-linecap="round" stroke-linejoin="round" />
  <path
    d="M22.0845 108.5V98.3182H25.3707C26.0932 98.3182 26.6964 98.4491 27.1803 98.7109C27.6676 98.9695 28.0338 99.3291 28.2791 99.7898C28.5276 100.247 28.6519 100.772 28.6519 101.366C28.6519 101.959 28.5276 102.483 28.2791 102.937C28.0338 103.391 27.6692 103.746 27.1853 104.001C26.7014 104.256 26.1015 104.384 25.3856 104.384H22.5866V103.533H25.3607C25.891 103.533 26.3319 103.446 26.6832 103.27C27.0378 103.094 27.3013 102.844 27.4737 102.519C27.6493 102.194 27.7372 101.81 27.7372 101.366C27.7372 100.922 27.6493 100.534 27.4737 100.202C27.298 99.8677 27.0329 99.6091 26.6782 99.4268C26.3269 99.2446 25.8828 99.1534 25.3458 99.1534H23.0141V108.5H22.0845ZM26.5738 103.906L29.0795 108.5H28.0056L25.5248 103.906H26.5738ZM33.8079 108.659C33.0953 108.659 32.4788 108.493 31.9584 108.162C31.4381 107.827 31.0354 107.365 30.7503 106.775C30.4686 106.182 30.3278 105.499 30.3278 104.727C30.3278 103.958 30.4686 103.275 30.7503 102.678C31.0354 102.078 31.4281 101.609 31.9286 101.271C32.4324 100.93 33.0141 100.759 33.6736 100.759C34.0879 100.759 34.4873 100.835 34.8718 100.988C35.2563 101.137 35.601 101.367 35.9059 101.679C36.2141 101.987 36.4577 102.377 36.6367 102.847C36.8157 103.315 36.9052 103.868 36.9052 104.508V104.945H30.9393V104.165H36.0003C36.0003 103.674 35.9009 103.233 35.702 102.842C35.5065 102.448 35.2331 102.136 34.8817 101.908C34.5337 101.679 34.131 101.565 33.6736 101.565C33.1897 101.565 32.7638 101.694 32.3959 101.952C32.028 102.211 31.7397 102.552 31.5309 102.977C31.3254 103.401 31.221 103.865 31.2177 104.369V104.836C31.2177 105.442 31.3221 105.973 31.5309 106.427C31.743 106.878 32.043 107.227 32.4307 107.476C32.8185 107.724 33.2776 107.849 33.8079 107.849C34.1691 107.849 34.4857 107.792 34.7574 107.68C35.0325 107.567 35.2629 107.416 35.4485 107.227C35.6374 107.035 35.7799 106.825 35.8761 106.596L36.7163 106.869C36.6002 107.191 36.4097 107.487 36.1445 107.759C35.8827 108.031 35.5546 108.25 35.1601 108.415C34.769 108.578 34.3183 108.659 33.8079 108.659ZM39.8102 103.727V108.5H38.9253V100.864H39.7854V102.062H39.8649C40.0439 101.671 40.3223 101.357 40.7001 101.122C41.0813 100.884 41.5519 100.764 42.1121 100.764C42.6258 100.764 43.0766 100.872 43.4643 101.087C43.8554 101.299 44.1587 101.613 44.3741 102.027C44.5929 102.441 44.7023 102.95 44.7023 103.553V108.5H43.8173V103.608C43.8173 102.982 43.6417 102.486 43.2903 102.121C42.9423 101.757 42.475 101.575 41.8883 101.575C41.4873 101.575 41.131 101.661 40.8195 101.833C40.5079 102.005 40.261 102.254 40.0787 102.579C39.8997 102.9 39.8102 103.283 39.8102 103.727ZM49.2355 108.674C48.7748 108.674 48.3539 108.585 47.9727 108.406C47.5916 108.223 47.2883 107.961 47.0629 107.62C46.8375 107.275 46.7249 106.858 46.7249 106.367C46.7249 105.989 46.7961 105.671 46.9386 105.413C47.0812 105.154 47.2833 104.942 47.5452 104.776C47.807 104.611 48.1169 104.48 48.4749 104.384C48.8328 104.287 49.2272 104.213 49.6581 104.16C50.0857 104.107 50.4469 104.06 50.7419 104.021C51.0402 103.981 51.2672 103.918 51.423 103.832C51.5788 103.746 51.6567 103.606 51.6567 103.414V103.235C51.6567 102.715 51.5009 102.305 51.1893 102.007C50.8811 101.705 50.437 101.555 49.857 101.555C49.3068 101.555 48.8577 101.676 48.5097 101.918C48.165 102.16 47.923 102.445 47.7838 102.773L46.9436 102.469C47.116 102.052 47.3546 101.719 47.6595 101.47C47.9644 101.218 48.3058 101.038 48.6837 100.928C49.0615 100.816 49.4443 100.759 49.8321 100.759C50.1238 100.759 50.427 100.797 50.7419 100.874C51.0601 100.95 51.3551 101.082 51.6268 101.271C51.8986 101.457 52.119 101.717 52.2881 102.052C52.4571 102.383 52.5416 102.804 52.5416 103.315V108.5H51.6567V107.292H51.602C51.4959 107.517 51.3385 107.736 51.1297 107.948C50.9209 108.16 50.659 108.334 50.3442 108.47C50.0293 108.606 49.6598 108.674 49.2355 108.674ZM49.3548 107.864C49.8255 107.864 50.2331 107.759 50.5778 107.55C50.9225 107.342 51.1877 107.065 51.3733 106.72C51.5622 106.372 51.6567 105.989 51.6567 105.572V104.468C51.5904 104.531 51.4794 104.587 51.3236 104.637C51.1711 104.687 50.9938 104.732 50.7916 104.771C50.5928 104.808 50.3939 104.839 50.195 104.866C49.9962 104.892 49.8172 104.915 49.6581 104.935C49.2272 104.988 48.8593 105.071 48.5544 105.184C48.2495 105.297 48.0158 105.452 47.8534 105.651C47.691 105.847 47.6098 106.099 47.6098 106.407C47.6098 106.871 47.7755 107.231 48.107 107.486C48.4384 107.738 48.8544 107.864 49.3548 107.864ZM55.8506 98.3182V108.5H54.9657V98.3182H55.8506ZM62.2697 111.364V100.864H63.1298V102.32H63.2342C63.3403 102.092 63.4861 101.858 63.6717 101.619C63.8573 101.377 64.1026 101.174 64.4075 101.008C64.7158 100.842 65.1035 100.759 65.5709 100.759C66.2006 100.759 66.7508 100.925 67.2214 101.256C67.6954 101.585 68.0633 102.045 68.3251 102.638C68.5903 103.228 68.7229 103.916 68.7229 104.702C68.7229 105.491 68.5903 106.182 68.3251 106.775C68.0633 107.368 67.6954 107.83 67.2214 108.162C66.7508 108.493 66.2039 108.659 65.5808 108.659C65.1201 108.659 64.734 108.576 64.4224 108.411C64.1142 108.245 63.864 108.041 63.6717 107.799C63.4828 107.554 63.337 107.315 63.2342 107.083H63.1547V111.364H62.2697ZM63.1447 104.687C63.1447 105.303 63.2359 105.85 63.4182 106.327C63.6038 106.801 63.8689 107.174 64.2136 107.446C64.5616 107.714 64.9826 107.849 65.4764 107.849C65.9835 107.849 66.4111 107.71 66.7591 107.431C67.1104 107.149 67.3772 106.77 67.5595 106.293C67.7451 105.815 67.8379 105.28 67.8379 104.687C67.8379 104.1 67.7468 103.571 67.5645 103.101C67.3855 102.63 67.1203 102.257 66.769 101.982C66.4177 101.704 65.9868 101.565 65.4764 101.565C64.9792 101.565 64.5567 101.699 64.2087 101.967C63.8606 102.232 63.5955 102.6 63.4132 103.071C63.2342 103.538 63.1447 104.077 63.1447 104.687ZM73.8216 108.659C73.109 108.659 72.4926 108.493 71.9722 108.162C71.4518 107.827 71.0491 107.365 70.7641 106.775C70.4824 106.182 70.3415 105.499 70.3415 104.727C70.3415 103.958 70.4824 103.275 70.7641 102.678C71.0491 102.078 71.4419 101.609 71.9424 101.271C72.4461 100.93 73.0278 100.759 73.6874 100.759C74.1017 100.759 74.5011 100.835 74.8855 100.988C75.27 101.137 75.6147 101.367 75.9196 101.679C76.2279 101.987 76.4715 102.377 76.6505 102.847C76.8294 103.315 76.9189 103.868 76.9189 104.508V104.945H70.953V104.165H76.0141C76.0141 103.674 75.9147 103.233 75.7158 102.842C75.5202 102.448 75.2468 102.136 74.8955 101.908C74.5475 101.679 74.1448 101.565 73.6874 101.565C73.2035 101.565 72.7776 101.694 72.4097 101.952C72.0418 102.211 71.7534 102.552 71.5446 102.977C71.3391 103.401 71.2347 103.865 71.2314 104.369V104.836C71.2314 105.442 71.3358 105.973 71.5446 106.427C71.7568 106.878 72.0567 107.227 72.4445 107.476C72.8323 107.724 73.2913 107.849 73.8216 107.849C74.1829 107.849 74.4994 107.792 74.7712 107.68C75.0463 107.567 75.2766 107.416 75.4622 107.227C75.6512 107.035 75.7937 106.825 75.8898 106.596L76.73 106.869C76.614 107.191 76.4234 107.487 76.1583 107.759C75.8964 108.031 75.5683 108.25 75.1739 108.415C74.7828 108.578 74.332 108.659 73.8216 108.659ZM79.824 98.3182V108.5H78.939V98.3182H79.824ZM88.1468 100.864L85.3578 108.5H84.4131L81.6241 100.864H82.5836L84.8506 107.332H84.9203L87.1873 100.864H88.1468ZM89.9581 108.5V100.864H90.848V108.5H89.9581ZM90.4105 99.5511C90.2282 99.5511 90.0725 99.4898 89.9432 99.3672C89.8139 99.2412 89.7493 99.0904 89.7493 98.9148C89.7493 98.7391 89.8139 98.59 89.9432 98.4673C90.0725 98.3414 90.2282 98.2784 90.4105 98.2784C90.5928 98.2784 90.7486 98.3414 90.8779 98.4673C91.0071 98.59 91.0717 98.7391 91.0717 98.9148C91.0717 99.0904 91.0071 99.2412 90.8779 99.3672C90.7486 99.4898 90.5928 99.5511 90.4105 99.5511ZM98.3891 102.539L97.5787 102.768C97.4992 102.539 97.3865 102.332 97.2406 102.146C97.0948 101.961 96.9042 101.813 96.6689 101.704C96.4369 101.594 96.1485 101.54 95.8039 101.54C95.2868 101.54 94.8626 101.662 94.5311 101.908C94.1997 102.153 94.034 102.469 94.034 102.857C94.034 103.185 94.1467 103.452 94.372 103.658C94.6007 103.86 94.9521 104.021 95.426 104.14L96.5794 104.423C97.2191 104.579 97.698 104.826 98.0162 105.164C98.3377 105.502 98.4985 105.926 98.4985 106.437C98.4985 106.868 98.3791 107.25 98.1405 107.585C97.9019 107.92 97.5688 108.183 97.1412 108.376C96.717 108.565 96.2248 108.659 95.6646 108.659C94.9189 108.659 94.3041 108.492 93.8202 108.157C93.3363 107.819 93.0264 107.332 92.8905 106.695L93.7406 106.487C93.85 106.941 94.0638 107.284 94.382 107.516C94.7035 107.748 95.1261 107.864 95.6497 107.864C96.2364 107.864 96.7054 107.733 97.0567 107.471C97.408 107.206 97.5837 106.874 97.5837 106.477C97.5837 106.168 97.4809 105.91 97.2754 105.701C97.0699 105.489 96.7584 105.333 96.3408 105.234L95.0929 104.935C94.43 104.776 93.9395 104.524 93.6213 104.18C93.3031 103.835 93.144 103.407 93.144 102.897C93.144 102.476 93.2584 102.107 93.4871 101.788C93.7158 101.467 94.0307 101.215 94.4317 101.033C94.8327 100.85 95.2901 100.759 95.8039 100.759C96.5032 100.759 97.0617 100.918 97.4793 101.237C97.9002 101.551 98.2035 101.986 98.3891 102.539Z"
    fill="#212121" />
</svg>
