<svg width="128" height="128" viewBox="0 0 128 128" fill="none" xmlns="http://www.w3.org/2000/svg">
<rect width="128" height="128" fill="#444A65"/>
<mask id="mask0_2805_4782" style="mask-type:alpha" maskUnits="userSpaceOnUse" x="40" y="40" width="48" height="48">
<rect x="40" y="40" width="48" height="48" fill="#D9D9D9"/>
</mask>
<g mask="url(#mask0_2805_4782)">
<path d="M63.1 61.0504H65.9L78.4 48.5504L75.6 45.7504L63.1 58.2504V61.0504ZM80 46.9504L81.5 45.4504C81.8333 45.0837 82 44.7587 82 44.4754C82 44.1921 81.8333 43.8837 81.5 43.5504L80.6 42.6504C80.2667 42.3171 79.95 42.1504 79.65 42.1504C79.35 42.1504 79.0333 42.3171 78.7 42.6504L77.2 44.1504L80 46.9504ZM64 84.0004C58.6333 79.4337 54.625 75.1921 51.975 71.2754C49.325 67.3587 48 63.7337 48 60.4004C48 55.4004 49.6083 51.4171 52.825 48.4504C56.0417 45.4837 59.7667 44.0004 64 44.0004C65.3 44.0004 66.5667 44.1504 67.8 44.4504C69.0333 44.7504 70.2167 45.1837 71.35 45.7504L69.1 48.0004C68.3333 47.6671 67.5167 47.4171 66.65 47.2504C65.7833 47.0837 64.9 47.0004 64 47.0004C60.3667 47.0004 57.2917 48.2504 54.775 50.7504C52.2583 53.2504 51 56.4671 51 60.4004C51 62.9004 52.0833 65.7921 54.25 69.0754C56.4167 72.3587 59.6667 76.0171 64 80.0504C68.4333 76.0171 71.7083 72.3587 73.825 69.0754C75.9417 65.7921 77 62.9004 77 60.4004C77 59.4337 76.9167 58.5087 76.75 57.6254C76.5833 56.7421 76.35 55.9004 76.05 55.1004L78.3 52.8504C78.8667 53.9504 79.2917 55.1254 79.575 56.3754C79.8583 57.6254 80 58.9671 80 60.4004C80 63.7337 78.675 67.3587 76.025 71.2754C73.375 75.1921 69.3667 79.4337 64 84.0004Z" fill="white"/>
</g>
</svg>
