<svg width="120" height="144" viewBox="0 0 120 144" fill="none" xmlns="http://www.w3.org/2000/svg">
<rect width="120" height="144" rx="4" fill="#FAFAFA"/>
<g clip-path="url(#clip0_2079_9759)">
<path d="M50.0069 74.2319C50.0069 74.5449 49.7532 74.7986 49.4402 74.7986C49.1272 74.7986 48.8735 74.5449 48.8735 74.2319C48.8735 73.919 49.1272 73.6653 49.4402 73.6653C49.7532 73.6653 50.0069 73.919 50.0069 74.2319Z" fill="#212121" stroke="#212121"/>
<path d="M39.7027 74.2319C39.7027 74.5449 39.449 74.7986 39.136 74.7986C38.823 74.7986 38.5693 74.5449 38.5693 74.2319C38.5693 73.919 38.823 73.6653 39.136 73.6653C39.449 73.6653 39.7027 73.919 39.7027 74.2319Z" fill="#212121" stroke="white"/>
<path d="M70.0266 75.2986C70.6157 75.2986 71.0933 74.8211 71.0933 74.2319C71.0933 73.6428 70.6157 73.1653 70.0266 73.1653C69.4375 73.1653 68.96 73.6428 68.96 74.2319C68.96 74.8211 69.4375 75.2986 70.0266 75.2986Z" fill="#212121"/>
<path d="M80.3303 75.2986C80.9194 75.2986 81.397 74.8211 81.397 74.2319C81.397 73.6428 80.9194 73.1653 80.3303 73.1653C79.7412 73.1653 79.2637 73.6428 79.2637 74.2319C79.2637 74.8211 79.7412 75.2986 80.3303 75.2986Z" fill="#212121"/>
<path d="M59.7439 75.2986C60.333 75.2986 60.8106 74.8211 60.8106 74.2319C60.8106 73.6428 60.333 73.1653 59.7439 73.1653C59.1548 73.1653 58.6772 73.6428 58.6772 74.2319C58.6772 74.8211 59.1548 75.2986 59.7439 75.2986Z" fill="#212121"/>
<path d="M49.4402 81.6986C50.0293 81.6986 50.5069 81.2211 50.5069 80.632C50.5069 80.0429 50.0293 79.5653 49.4402 79.5653C48.8511 79.5653 48.3735 80.0429 48.3735 80.632C48.3735 81.2211 48.8511 81.6986 49.4402 81.6986Z" fill="#212121"/>
<path d="M39.136 81.6986C39.7251 81.6986 40.2027 81.2211 40.2027 80.632C40.2027 80.0429 39.7251 79.5653 39.136 79.5653C38.5469 79.5653 38.0693 80.0429 38.0693 80.632C38.0693 81.2211 38.5469 81.6986 39.136 81.6986Z" fill="#212121"/>
<path d="M70.0266 81.6986C70.6157 81.6986 71.0933 81.2211 71.0933 80.632C71.0933 80.0429 70.6157 79.5653 70.0266 79.5653C69.4375 79.5653 68.96 80.0429 68.96 80.632C68.96 81.2211 69.4375 81.6986 70.0266 81.6986Z" fill="#212121"/>
<path d="M80.3303 81.6986C80.9194 81.6986 81.397 81.2211 81.397 80.632C81.397 80.0429 80.9194 79.5653 80.3303 79.5653C79.7412 79.5653 79.2637 80.0429 79.2637 80.632C79.2637 81.2211 79.7412 81.6986 80.3303 81.6986Z" fill="#212121"/>
<path d="M59.7439 81.6986C60.333 81.6986 60.8106 81.2211 60.8106 80.632C60.8106 80.0429 60.333 79.5653 59.7439 79.5653C59.1548 79.5653 58.6772 80.0429 58.6772 80.632C58.6772 81.2211 59.1548 81.6986 59.7439 81.6986Z" fill="#212121"/>
<path d="M85.3656 67.6614C84.8024 66.9945 84.1088 66.4499 83.3273 66.061C82.5459 65.6721 81.6931 65.4472 80.8216 65.4C79.7179 65.4459 78.6449 65.7766 77.7069 66.36C76.9975 66.8171 76.1815 67.0818 75.3389 67.128C74.5289 67.0846 73.7465 66.8189 73.0776 66.36C72.1085 65.7587 70.9964 65.4273 69.8562 65.4C68.5549 65.4 65.9096 67.1494 65.0989 67.1494C64.3336 67.0968 63.5966 66.8388 62.9656 66.4027L62.6882 66.2534C61.8524 65.7184 60.8857 65.4232 59.8936 65.4C58.7899 65.4459 57.7169 65.7766 56.7789 66.36C56.0617 66.8171 55.2388 67.0816 54.3896 67.128C53.5808 67.0782 52.8001 66.8131 52.1282 66.36C51.1468 65.7514 50.0189 65.4197 48.8642 65.4C47.5629 65.4 44.8962 67.1494 44.0856 67.1494C43.3203 67.0968 42.5833 66.8388 41.9522 66.4027C41.054 65.796 40.0057 65.449 38.9229 65.4C38.0861 65.4669 37.2731 65.7107 36.5376 66.1153C35.8021 66.5198 35.1608 67.0759 34.6562 67.7467C34.4796 67.9934 34.4075 68.2997 34.4554 68.5993C34.5033 68.8989 34.6675 69.1674 34.9122 69.3467C35.1027 69.4896 35.3355 69.5647 35.5736 69.56C35.7612 69.5609 35.9462 69.5169 36.1133 69.4315C36.2803 69.3461 36.4244 69.2219 36.5336 69.0694C36.8218 68.6747 37.1885 68.344 37.6107 68.0981C38.0329 67.8521 38.5015 67.6961 38.9869 67.64C39.6548 67.7007 40.2949 67.9361 40.8429 68.3227C41.8279 68.9688 42.9721 69.3305 44.1496 69.368C45.5647 69.0888 46.9259 68.5846 48.1816 67.8747C48.4548 67.7682 48.7424 67.7035 49.0349 67.6827C49.3548 67.6661 49.6746 67.7169 49.9736 67.832L50.2936 67.9814L50.9976 68.344C52.0109 68.997 53.1844 69.3587 54.3896 69.3894C54.8791 69.3836 55.3661 69.3191 55.8402 69.1974C55.8402 69.1974 58.1869 68.216 59.1042 67.832C59.3601 67.7495 59.6253 67.6993 59.8936 67.6827C61.4082 67.6827 63.2856 69.368 65.1629 69.368C66.5769 69.0849 67.9376 68.581 69.1949 67.8747C69.4674 67.766 69.7554 67.7012 70.0482 67.6827C70.3679 67.6697 70.687 67.7204 70.9869 67.832L71.2856 67.9814L71.9896 68.344C73.0109 68.9968 74.1912 69.3582 75.4029 69.3894C76.6314 69.3564 77.83 69.0035 78.8802 68.3654C79.4807 67.9728 80.1704 67.7381 80.8856 67.6827C81.4031 67.7303 81.9058 67.8814 82.3638 68.1269C82.8219 68.3724 83.226 68.7074 83.5522 69.112C83.6637 69.2538 83.8064 69.368 83.9692 69.4457C84.132 69.5234 84.3105 69.5625 84.4909 69.56C84.7549 69.5603 85.0109 69.4699 85.2162 69.304C85.4523 69.1049 85.6003 68.8209 85.6282 68.5134C85.6562 68.2059 85.5618 67.8997 85.3656 67.6614V67.6614Z" fill="#212121"/>
<path d="M53.5999 49.784C53.5673 49.4291 53.5673 49.0721 53.5999 48.7173H34.3999V50.8506H53.5999C53.5673 50.4958 53.5673 50.1388 53.5999 49.784V49.784Z" fill="#212121"/>
<path d="M66.2725 48.7173C66.2947 49.0725 66.2947 49.4287 66.2725 49.784C66.2947 50.1392 66.2947 50.4954 66.2725 50.8506H85.4725V48.7173H66.2725Z" fill="#212121"/>
<path d="M64.0962 48.7173C64.1891 49.0655 64.2392 49.4237 64.2455 49.784C64.2455 50.9155 63.796 52.0008 62.9958 52.8009C62.1957 53.6011 61.1104 54.0506 59.9788 54.0506C58.8472 54.0506 57.762 53.6011 56.9618 52.8009C56.1617 52.0008 55.7122 50.9155 55.7122 49.784C55.7184 49.4237 55.7686 49.0655 55.8615 48.7173H53.6002C53.5675 49.0721 53.5675 49.4291 53.6002 49.784C53.6002 51.4813 54.2744 53.1092 55.4747 54.3094C56.6749 55.5097 58.3028 56.184 60.0002 56.184C61.6975 56.184 63.3254 55.5097 64.5256 54.3094C65.7259 53.1092 66.4002 51.4813 66.4002 49.784C66.4224 49.4287 66.4224 49.0725 66.4002 48.7173H64.0962Z" fill="#212121"/>
<path d="M85.5789 59.576H34.3789V61.7094H85.5789V59.576Z" fill="#212121"/>
<path d="M66.272 32.696C65.5894 32.696 62.4747 36.8134 60.2987 41.6987C58.8831 44.3349 58.0535 47.2457 57.8667 50.232V50.232C57.8667 50.7978 58.0915 51.3405 58.4915 51.7405C58.8916 52.1406 59.4342 52.3654 60 52.3654C60.5658 52.3654 61.1084 52.1406 61.5085 51.7405C61.9086 51.3405 62.1334 50.7978 62.1334 50.232C61.528 47.6715 61.4554 45.0138 61.92 42.424C62.8254 38.9639 64.2958 35.6771 66.272 32.696V32.696Z" fill="#212121"/>
</g>
<path d="M53.0218 105.364C52.9654 104.797 52.7152 104.346 52.2711 104.011C51.8269 103.677 51.2685 103.509 50.5956 103.509C50.1217 103.509 49.7041 103.59 49.3428 103.753C48.9848 103.915 48.7031 104.141 48.4976 104.429C48.2955 104.714 48.1944 105.039 48.1944 105.403C48.1944 105.672 48.2524 105.907 48.3684 106.109C48.4844 106.312 48.6401 106.486 48.8357 106.631C49.0346 106.774 49.2533 106.897 49.4919 106.999C49.7339 107.102 49.9775 107.188 50.2228 107.258L51.2966 107.566C51.6214 107.656 51.9463 107.77 52.2711 107.909C52.5959 108.048 52.8925 108.224 53.161 108.436C53.4328 108.645 53.6499 108.902 53.8123 109.207C53.978 109.508 54.0608 109.871 54.0608 110.295C54.0608 110.839 53.92 111.328 53.6383 111.762C53.3565 112.196 52.9522 112.541 52.4252 112.796C51.8982 113.048 51.2668 113.174 50.531 113.174C49.8383 113.174 49.2367 113.06 48.7263 112.831C48.2159 112.599 47.8149 112.279 47.5232 111.871C47.2315 111.464 47.0675 110.991 47.031 110.455H47.9856C48.0187 110.856 48.1513 111.195 48.3833 111.474C48.6153 111.752 48.9169 111.964 49.2881 112.11C49.6593 112.253 50.0736 112.324 50.531 112.324C51.0381 112.324 51.4889 112.239 51.8833 112.07C52.281 111.898 52.5926 111.659 52.8179 111.354C53.0466 111.046 53.161 110.688 53.161 110.281C53.161 109.936 53.0715 109.647 52.8925 109.415C52.7135 109.18 52.4633 108.983 52.1418 108.824C51.8236 108.665 51.4541 108.524 51.0331 108.401L49.8151 108.043C49.0163 107.805 48.3965 107.475 47.9557 107.054C47.5149 106.633 47.2945 106.096 47.2945 105.443C47.2945 104.896 47.4403 104.416 47.732 104.001C48.027 103.584 48.4247 103.259 48.9252 103.027C49.429 102.792 49.9941 102.674 50.6205 102.674C51.2535 102.674 51.8137 102.79 52.3009 103.022C52.7881 103.254 53.1742 103.574 53.4593 103.982C53.7476 104.386 53.9017 104.847 53.9216 105.364H53.0218ZM56.9895 110.116L56.9796 108.958H57.1784L60.758 105.364H61.8766L58.3418 108.903L58.2622 108.918L56.9895 110.116ZM56.1841 113V102.818H57.069V113H56.1841ZM60.9419 113L57.8396 109.077L58.476 108.466L62.0754 113H60.9419ZM63.6195 113V105.364H64.5094V113H63.6195ZM64.0719 104.051C63.8896 104.051 63.7339 103.99 63.6046 103.867C63.4753 103.741 63.4107 103.59 63.4107 103.415C63.4107 103.239 63.4753 103.09 63.6046 102.967C63.7339 102.841 63.8896 102.778 64.0719 102.778C64.2542 102.778 64.41 102.841 64.5393 102.967C64.6685 103.09 64.7332 103.239 64.7332 103.415C64.7332 103.59 64.6685 103.741 64.5393 103.867C64.41 103.99 64.2542 104.051 64.0719 104.051ZM67.8048 108.227V113H66.9198V105.364H67.7799V106.562H67.8594C68.0384 106.171 68.3168 105.857 68.6947 105.622C69.0758 105.384 69.5465 105.264 70.1066 105.264C70.6203 105.264 71.0711 105.372 71.4589 105.587C71.85 105.799 72.1532 106.113 72.3687 106.527C72.5874 106.941 72.6968 107.45 72.6968 108.053V113H71.8119V108.108C71.8119 107.482 71.6362 106.986 71.2849 106.621C70.9369 106.257 70.4695 106.075 69.8829 106.075C69.4818 106.075 69.1255 106.161 68.814 106.333C68.5024 106.505 68.2555 106.754 68.0732 107.079C67.8942 107.4 67.8048 107.783 67.8048 108.227Z" fill="#212121"/>
<defs>
<clipPath id="clip0_2079_9759">
<rect width="64" height="64" fill="white" transform="translate(28 27)"/>
</clipPath>
</defs>
</svg>
