<svg width="120" height="144" viewBox="0 0 120 144" fill="none" xmlns="http://www.w3.org/2000/svg">
<rect width="120" height="144" rx="4" fill="#FAFAFA"/>
<path d="M44.7461 71.3094V56.8668L72.7994 50.6161V64.5681C72.7994 67.5548 68.9594 75.7681 64.5008 73.9121C64.5008 78.0508 57.1834 78.7761 52.1914 77.8161C44.7888 76.3868 44.7888 70.9468 44.7888 70.9468" fill="#212121"/>
<path d="M62.9317 62.5886C69.6971 59.3123 73.3123 52.7965 71.0066 48.0353C68.7008 43.2741 61.3472 42.0704 54.5818 45.3467C47.8165 48.6231 44.2012 55.1388 46.507 59.9C48.8127 64.6612 56.1664 65.8649 62.9317 62.5886Z" fill="white" stroke="#212121" stroke-miterlimit="10"/>
<path d="M67.0609 49.4213C65.8449 47.8213 63.3489 50.5307 61.8769 49.4213C61.0449 48.7387 63.1356 45.8587 60.9596 46.264C58.7836 46.6693 58.8263 47.8427 59.1249 50.3813C59.0168 50.7581 58.8268 51.1063 58.5687 51.4013C58.3106 51.6963 57.9907 51.9308 57.6316 52.088C56.9187 52.5355 56.0819 52.7447 55.2423 52.6853C53.1089 51.2347 52.1063 50.6587 50.7409 52.3867C49.3756 54.1147 52.8743 53.624 53.1089 54.6907C53.4716 56.5253 49.9089 57.4853 50.7409 59.2987C51.0556 59.8063 51.4832 60.2345 51.9904 60.5499C52.4976 60.8653 53.0707 61.0595 53.6652 61.1173C54.2596 61.1751 54.8594 61.0949 55.4179 60.8831C55.9763 60.6713 56.4783 60.3335 56.8849 59.896C59.0183 57.9333 56.5009 56.2267 57.2903 54.8187C57.8449 53.8373 58.0583 53.944 58.7623 53.56C59.3943 53.1524 60.149 52.9789 60.8956 53.0693C62.4956 53.0693 63.2423 56.0133 66.0156 54.9893C68.7889 53.9653 68.5329 51.3627 67.0609 49.4213Z" fill="#212121"/>
<path d="M46.709 50.6587C44.2515 51.7095 42.2476 53.5998 41.0556 55.992C38.9223 59.6827 40.4583 59.64 39.413 60.5147C38.8369 60.9956 38.3822 61.6055 38.0857 62.2949C37.7892 62.9842 37.6592 63.7337 37.7063 64.4827C37.8014 65.6279 38.0526 66.7548 38.453 67.832C38.453 68.408 34.3143 73.4214 33.8663 75.192C33.78 75.476 33.7789 75.7791 33.8634 76.0636C33.9478 76.3481 34.114 76.6016 34.3412 76.7925C34.5685 76.9834 34.8468 77.1033 35.1417 77.1374C35.4365 77.1714 35.7348 77.1181 35.9996 76.984C36.9596 76.3867 38.325 71.0107 40.2663 69.9227C41.3543 68.664 44.533 70.4347 48.5436 70.3707C51.2103 70.3707 56.1383 69.6454 56.885 68.2374C57.3126 66.9936 57.3719 65.6527 57.0556 64.376C57.0556 64.376 53.0663 64.952 52.021 64.12C52.021 65.784 52.1916 66.104 50.037 66.8507C46.9956 67.4577 43.8757 67.5658 40.7996 67.1707C41.9383 65.0308 42.2351 62.5423 41.6316 60.1947C41.4881 58.8083 41.7863 57.4121 42.4836 56.2053C43.1808 54.9984 44.2416 54.0428 45.5143 53.4747C46.2396 53.3254 46.0903 52.7494 46.0903 52.7494L46.709 50.6587Z" fill="#212121"/>
<path d="M35.104 76.0667C35.0246 75.9941 34.9624 75.9047 34.9218 75.8051C34.8812 75.7055 34.8633 75.5981 34.8693 75.4907C34.8693 75.1493 35.0613 74.8933 35.2106 74.8933C35.5653 74.8853 35.9172 74.8278 36.256 74.7227C35.9482 75.2308 35.5591 75.6848 35.104 76.0667V76.0667Z" fill="white"/>
<path d="M37.2584 73.464C36.6824 73.464 35.7224 73.8693 35.1251 73.8693C34.7295 73.9329 34.3695 74.1353 34.1096 74.4402C33.8498 74.7451 33.707 75.1327 33.707 75.5333C33.707 75.934 33.8498 76.3215 34.1096 76.6264C34.3695 76.9314 34.7295 77.1338 35.1251 77.1973C35.8931 77.1973 37.6637 74.7867 37.6637 73.8693C37.6637 73.5707 37.4717 73.464 37.1731 73.464H37.2584Z" fill="#212121"/>
<path d="M63.0293 43.6827C64.9399 42.2179 67.3007 41.4637 69.7066 41.5494C73.568 41.4 72.8 42.6587 73.9733 42.2107C74.5969 41.9654 75.2695 41.8703 75.9366 41.9334C76.6038 41.9964 77.2467 42.2156 77.8133 42.5734C79.3066 43.4054 79.6266 44.344 80.096 44.7067C80.5653 45.0694 84.3626 44.024 86.0693 44.4507C86.3459 44.5026 86.5997 44.6387 86.7959 44.8404C86.9922 45.0421 87.1213 45.2995 87.1657 45.5773C87.2101 45.8552 87.1675 46.14 87.0438 46.3928C86.9201 46.6456 86.7213 46.8539 86.4746 46.9894C85.5786 47.5014 82.592 46.072 80.9066 46.9894C79.4346 47.3094 78.7733 51.512 76.9173 54.648C75.7013 56.7814 73.184 60.0454 71.6906 59.9814C70.1973 59.9174 69.8133 56.8667 69.8133 56.8667C69.8133 56.8667 71.328 54.9254 71.136 53.7307C72.416 54.52 72.608 54.7334 74.144 53.3254C75.9825 51.2021 77.4665 48.796 78.5386 46.2C76.3875 46.1419 74.3378 45.2733 72.8 43.768C71.7729 43.0541 70.5452 42.6858 69.2947 42.7164C68.0443 42.7471 66.8361 43.1752 65.8453 43.9387C65.4186 44.472 65.0346 44.088 65.0346 44.088L63.0293 43.6827Z" fill="#212121"/>
<path d="M60.6401 55.608C62.3837 57.1799 64.0027 58.8845 65.4828 60.7067C65.8902 61.4968 66.0885 62.3782 66.0588 63.2667L65.8668 63.3947C65.0937 63.1309 64.3926 62.691 63.8187 62.1097C63.2448 61.5285 62.814 60.8217 62.5601 60.0454C61.8134 58.68 61.1308 57.272 60.4268 55.7787L60.5974 55.6507L60.6401 55.608Z" fill="#212121"/>
<path d="M52.6393 64.312C52.81 67 48.65 67.6827 46.602 67.8107C43.4446 68.024 35.5086 66.744 42.8473 67.256C45.8766 67.256 49.2473 67.5973 51.85 65.912C52.0973 65.7255 52.2976 65.4836 52.4346 65.2057C52.5717 64.9279 52.6418 64.6218 52.6393 64.312V64.312Z" fill="white"/>
<path d="M68.8535 59.9387C70.6882 60.6213 71.3922 59.9387 73.1202 59.448C72.8764 59.7661 72.5711 60.0318 72.2225 60.2294C71.8739 60.427 71.489 60.5525 71.0909 60.5983C70.6928 60.644 70.2895 60.6092 69.9052 60.4959C69.5208 60.3826 69.1631 60.1931 68.8535 59.9387V59.9387Z" fill="white"/>
<path d="M28.892 105.364C28.8357 104.797 28.5854 104.346 28.1413 104.011C27.6972 103.677 27.1387 103.509 26.4659 103.509C25.9919 103.509 25.5743 103.59 25.213 103.753C24.8551 103.915 24.5734 104.141 24.3679 104.429C24.1657 104.714 24.0646 105.039 24.0646 105.403C24.0646 105.672 24.1226 105.907 24.2386 106.109C24.3546 106.312 24.5104 106.486 24.7059 106.631C24.9048 106.774 25.1235 106.897 25.3622 106.999C25.6041 107.102 25.8477 107.188 26.093 107.258L27.1669 107.566C27.4917 107.656 27.8165 107.77 28.1413 107.909C28.4661 108.048 28.7628 108.224 29.0312 108.436C29.303 108.645 29.5201 108.902 29.6825 109.207C29.8482 109.508 29.9311 109.871 29.9311 110.295C29.9311 110.839 29.7902 111.328 29.5085 111.762C29.2268 112.196 28.8224 112.541 28.2954 112.796C27.7684 113.048 27.137 113.174 26.4012 113.174C25.7085 113.174 25.107 113.06 24.5966 112.831C24.0861 112.599 23.6851 112.279 23.3934 111.871C23.1018 111.464 22.9377 110.991 22.9012 110.455H23.8558C23.8889 110.856 24.0215 111.195 24.2535 111.474C24.4855 111.752 24.7871 111.964 25.1583 112.11C25.5296 112.253 25.9439 112.324 26.4012 112.324C26.9083 112.324 27.3591 112.239 27.7535 112.07C28.1512 111.898 28.4628 111.659 28.6882 111.354C28.9169 111.046 29.0312 110.688 29.0312 110.281C29.0312 109.936 28.9417 109.647 28.7628 109.415C28.5838 109.18 28.3335 108.983 28.012 108.824C27.6939 108.665 27.3243 108.524 26.9034 108.401L25.6853 108.043C24.8866 107.805 24.2668 107.475 23.826 107.054C23.3851 106.633 23.1647 106.096 23.1647 105.443C23.1647 104.896 23.3106 104.416 23.6022 104.001C23.8972 103.584 24.2949 103.259 24.7954 103.027C25.2992 102.792 25.8643 102.674 26.4907 102.674C27.1238 102.674 27.6839 102.79 28.1711 103.022C28.6583 103.254 29.0445 103.574 29.3295 103.982C29.6179 104.386 29.772 104.847 29.7919 105.364H28.892ZM32.0543 115.864V105.364H32.9144V106.82H33.0188C33.1249 106.592 33.2707 106.358 33.4563 106.119C33.6419 105.877 33.8872 105.674 34.1921 105.508C34.5004 105.342 34.8881 105.259 35.3555 105.259C35.9852 105.259 36.5354 105.425 37.006 105.756C37.48 106.085 37.8479 106.545 38.1097 107.138C38.3749 107.728 38.5075 108.416 38.5075 109.202C38.5075 109.991 38.3749 110.682 38.1097 111.275C37.8479 111.868 37.48 112.33 37.006 112.662C36.5354 112.993 35.9885 113.159 35.3654 113.159C34.9047 113.159 34.5186 113.076 34.207 112.911C33.8988 112.745 33.6486 112.541 33.4563 112.299C33.2674 112.054 33.1216 111.815 33.0188 111.583H32.9393V115.864H32.0543ZM32.9293 109.187C32.9293 109.803 33.0205 110.35 33.2028 110.827C33.3884 111.301 33.6535 111.674 33.9982 111.946C34.3462 112.214 34.7672 112.349 35.261 112.349C35.7681 112.349 36.1957 112.21 36.5437 111.931C36.895 111.649 37.1618 111.27 37.3441 110.793C37.5297 110.315 37.6225 109.78 37.6225 109.187C37.6225 108.6 37.5314 108.071 37.3491 107.601C37.1701 107.13 36.905 106.757 36.5536 106.482C36.2023 106.204 35.7714 106.065 35.261 106.065C34.7639 106.065 34.3413 106.199 33.9933 106.467C33.6452 106.732 33.3801 107.1 33.1978 107.571C33.0188 108.038 32.9293 108.577 32.9293 109.187ZM40.5288 113V105.364H41.4187V113H40.5288ZM40.9812 104.051C40.7989 104.051 40.6432 103.99 40.5139 103.867C40.3846 103.741 40.32 103.59 40.32 103.415C40.32 103.239 40.3846 103.09 40.5139 102.967C40.6432 102.841 40.7989 102.778 40.9812 102.778C41.1635 102.778 41.3193 102.841 41.4486 102.967C41.5778 103.09 41.6425 103.239 41.6425 103.415C41.6425 103.59 41.5778 103.741 41.4486 103.867C41.3193 103.99 41.1635 104.051 40.9812 104.051ZM44.714 108.227V113H43.8291V105.364H44.6892V106.562H44.7687C44.9477 106.171 45.2261 105.857 45.604 105.622C45.9851 105.384 46.4558 105.264 47.0159 105.264C47.5296 105.264 47.9804 105.372 48.3682 105.587C48.7593 105.799 49.0625 106.113 49.278 106.527C49.4967 106.941 49.6061 107.45 49.6061 108.053V113H48.7212V108.108C48.7212 107.482 48.5455 106.986 48.1942 106.621C47.8462 106.257 47.3788 106.075 46.7922 106.075C46.3911 106.075 46.0348 106.161 45.7233 106.333C45.4117 106.505 45.1648 106.754 44.9825 107.079C44.8035 107.4 44.714 107.783 44.714 108.227ZM54.1393 113.174C53.6786 113.174 53.2577 113.085 52.8766 112.906C52.4954 112.723 52.1921 112.461 51.9668 112.12C51.7414 111.775 51.6287 111.358 51.6287 110.867C51.6287 110.489 51.6999 110.171 51.8425 109.913C51.985 109.654 52.1872 109.442 52.449 109.276C52.7108 109.111 53.0207 108.98 53.3787 108.884C53.7366 108.787 54.1311 108.713 54.5619 108.66C54.9895 108.607 55.3508 108.56 55.6457 108.521C55.944 108.481 56.1711 108.418 56.3268 108.332C56.4826 108.246 56.5605 108.106 56.5605 107.914V107.735C56.5605 107.215 56.4047 106.805 56.0932 106.507C55.7849 106.205 55.3408 106.055 54.7608 106.055C54.2106 106.055 53.7615 106.176 53.4135 106.418C53.0688 106.66 52.8268 106.945 52.6876 107.273L51.8474 106.969C52.0198 106.552 52.2584 106.219 52.5633 105.97C52.8683 105.718 53.2097 105.538 53.5875 105.428C53.9653 105.316 54.3481 105.259 54.7359 105.259C55.0276 105.259 55.3309 105.297 55.6457 105.374C55.9639 105.45 56.2589 105.582 56.5307 105.771C56.8025 105.957 57.0229 106.217 57.1919 106.552C57.3609 106.883 57.4454 107.304 57.4454 107.815V113H56.5605V111.792H56.5058C56.3998 112.017 56.2423 112.236 56.0335 112.448C55.8247 112.66 55.5629 112.834 55.248 112.97C54.9331 113.106 54.5636 113.174 54.1393 113.174ZM54.2587 112.364C54.7293 112.364 55.137 112.259 55.4817 112.05C55.8264 111.842 56.0915 111.565 56.2771 111.22C56.466 110.872 56.5605 110.489 56.5605 110.072V108.968C56.4942 109.031 56.3832 109.087 56.2274 109.137C56.0749 109.187 55.8976 109.232 55.6954 109.271C55.4966 109.308 55.2977 109.339 55.0989 109.366C54.9 109.392 54.721 109.415 54.5619 109.435C54.1311 109.488 53.7632 109.571 53.4582 109.684C53.1533 109.797 52.9196 109.952 52.7572 110.151C52.5948 110.347 52.5136 110.599 52.5136 110.907C52.5136 111.371 52.6794 111.731 53.0108 111.986C53.3422 112.238 53.7582 112.364 54.2587 112.364ZM60.7544 102.818V113H59.8695V102.818H60.7544ZM75.3319 106H74.3973C74.3277 105.652 74.2017 105.33 74.0194 105.036C73.8405 104.737 73.6151 104.477 73.3433 104.255C73.0715 104.033 72.7633 103.861 72.4186 103.738C72.0739 103.615 71.701 103.554 71.3 103.554C70.657 103.554 70.0703 103.721 69.54 104.056C69.0131 104.391 68.5905 104.883 68.2723 105.533C67.9574 106.179 67.8 106.971 67.8 107.909C67.8 108.854 67.9574 109.649 68.2723 110.295C68.5905 110.942 69.0131 111.432 69.54 111.767C70.0703 112.098 70.657 112.264 71.3 112.264C71.701 112.264 72.0739 112.203 72.4186 112.08C72.7633 111.958 73.0715 111.787 73.3433 111.568C73.6151 111.346 73.8405 111.086 74.0194 110.788C74.2017 110.489 74.3277 110.166 74.3973 109.818H75.3319C75.2491 110.286 75.0933 110.721 74.8646 111.126C74.6392 111.527 74.3509 111.878 73.9996 112.18C73.6515 112.481 73.2505 112.717 72.7964 112.886C72.3424 113.055 71.8435 113.139 71.3 113.139C70.4449 113.139 69.6859 112.925 69.023 112.498C68.3601 112.067 67.8398 111.46 67.4619 110.678C67.0874 109.896 66.9001 108.973 66.9001 107.909C66.9001 106.845 67.0874 105.922 67.4619 105.14C67.8398 104.358 68.3601 103.753 69.023 103.325C69.6859 102.894 70.4449 102.679 71.3 102.679C71.8435 102.679 72.3424 102.763 72.7964 102.933C73.2505 103.098 73.6515 103.334 73.9996 103.638C74.3509 103.94 74.6392 104.291 74.8646 104.692C75.0933 105.094 75.2491 105.529 75.3319 106ZM80.3698 113.159C79.7102 113.159 79.1269 112.992 78.6198 112.657C78.116 112.322 77.7216 111.86 77.4366 111.27C77.1515 110.677 77.009 109.992 77.009 109.217C77.009 108.434 77.1515 107.747 77.4366 107.153C77.7216 106.557 78.116 106.093 78.6198 105.761C79.1269 105.427 79.7102 105.259 80.3698 105.259C81.0294 105.259 81.611 105.427 82.1148 105.761C82.6186 106.096 83.013 106.56 83.2981 107.153C83.5864 107.747 83.7306 108.434 83.7306 109.217C83.7306 109.992 83.5881 110.677 83.303 111.27C83.018 111.86 82.6219 112.322 82.1148 112.657C81.611 112.992 81.0294 113.159 80.3698 113.159ZM80.3698 112.349C80.9001 112.349 81.3492 112.206 81.7171 111.921C82.085 111.636 82.3634 111.257 82.5523 110.783C82.7446 110.309 82.8407 109.787 82.8407 109.217C82.8407 108.647 82.7446 108.123 82.5523 107.646C82.3634 107.168 82.085 106.786 81.7171 106.497C81.3492 106.209 80.9001 106.065 80.3698 106.065C79.8428 106.065 79.3937 106.209 79.0225 106.497C78.6546 106.786 78.3745 107.168 78.1823 107.646C77.9934 108.123 77.8989 108.647 77.8989 109.217C77.8989 109.787 77.9934 110.309 78.1823 110.783C78.3745 111.257 78.6546 111.636 79.0225 111.921C79.3904 112.206 79.8395 112.349 80.3698 112.349ZM85.7432 113V105.364H86.6033V106.537H86.668C86.8204 106.152 87.0856 105.843 87.4634 105.607C87.8446 105.369 88.2754 105.249 88.756 105.249C88.8289 105.249 88.9102 105.251 88.9996 105.254C89.0891 105.258 89.1637 105.261 89.2234 105.264V106.164C89.1836 106.157 89.114 106.147 89.0146 106.134C88.9151 106.121 88.8074 106.114 88.6914 106.114C88.2937 106.114 87.939 106.199 87.6275 106.368C87.3192 106.534 87.0756 106.764 86.8967 107.059C86.7177 107.354 86.6282 107.69 86.6282 108.068V113H85.7432ZM93.3203 113.159C92.6939 113.159 92.1454 112.993 91.6747 112.662C91.2041 112.33 90.8362 111.868 90.5711 111.275C90.3092 110.682 90.1783 109.991 90.1783 109.202C90.1783 108.416 90.3092 107.728 90.5711 107.138C90.8362 106.545 91.2058 106.085 91.6797 105.756C92.1537 105.425 92.7055 105.259 93.3353 105.259C93.7993 105.259 94.1854 105.342 94.4936 105.508C94.8019 105.67 95.0488 105.872 95.2344 106.114C95.42 106.356 95.5642 106.592 95.6669 106.82H95.7465V102.818H96.6364V113H95.7713V111.583H95.6669C95.5642 111.815 95.4184 112.054 95.2294 112.299C95.0405 112.541 94.7903 112.745 94.4787 112.911C94.1705 113.076 93.7844 113.159 93.3203 113.159ZM93.4247 112.349C93.9186 112.349 94.3395 112.214 94.6875 111.946C95.0355 111.674 95.3007 111.301 95.483 110.827C95.6686 110.35 95.7614 109.803 95.7614 109.187C95.7614 108.577 95.6703 108.038 95.488 107.571C95.3057 107.1 95.0405 106.732 94.6925 106.467C94.3445 106.199 93.9219 106.065 93.4247 106.065C92.9143 106.065 92.4835 106.204 92.1321 106.482C91.7841 106.757 91.519 107.13 91.3367 107.601C91.1577 108.071 91.0682 108.6 91.0682 109.187C91.0682 109.78 91.1594 110.315 91.3417 110.793C91.5239 111.27 91.7891 111.649 92.1371 111.931C92.4884 112.21 92.9176 112.349 93.4247 112.349Z" fill="#212121"/>
</svg>
