<svg width="120" height="144" viewBox="0 0 120 144" fill="none" xmlns="http://www.w3.org/2000/svg">
<rect width="120" height="144" rx="4" fill="#FAFAFA"/>
<g clip-path="url(#clip0_532_9121)">
<path d="M75.5008 67.5079L75.5002 67.5206V67.5333C75.5002 68.6938 75.2469 69.7089 74.8393 70.4317C74.4302 71.1572 73.9034 71.5334 73.356 71.5791L72.8056 71.6249L72.9058 72.168C72.9763 72.5504 73.0164 72.9378 73.0256 73.3265L73.0259 73.3395L73.0269 73.3525C73.0812 74.0682 72.974 74.787 72.7132 75.4557C72.4524 76.1244 72.0447 76.726 71.5202 77.2159L71.3796 77.3472L71.3633 77.5388C71.1401 80.1564 69.5568 81.953 67.8069 81.9666C67.1272 81.9075 66.4781 81.6563 65.9356 81.2421C65.3878 80.8237 64.9717 80.2566 64.737 79.6084L64.6775 79.4442L64.5287 79.3527C63.9492 78.9964 63.4707 78.4974 63.1389 77.9035C62.8071 77.3096 62.6331 76.6406 62.6335 75.9603L62.1696 75.96L62.1844 75.4609C61.8211 75.4393 61.4703 75.3199 61.1694 75.1153C60.8684 74.9106 60.6284 74.6283 60.4748 74.2983L59.8282 72.909L59.531 74.4124C59.3622 75.2661 59.034 75.9796 58.6306 76.4684C58.229 76.9548 57.7856 77.185 57.363 77.188C57.0698 77.1766 56.785 77.0865 56.5386 76.9269L56.0167 76.5891L55.7986 77.1712C55.5629 77.8005 55.1504 78.3483 54.6109 78.7488C54.0786 79.1439 53.445 79.3791 52.7842 79.4272C52.2624 79.4002 51.7549 79.2472 51.305 78.981C50.8473 78.7103 50.4635 78.3309 50.1875 77.8765L50.0781 77.6962L49.8726 77.6488C49.3694 77.5327 48.86 77.1058 48.4651 76.367C48.0746 75.6362 47.8282 74.6526 47.8282 73.5493V73.526L47.826 73.5028C47.8183 73.4202 47.8183 73.3371 47.826 73.2545L47.8757 72.7228L47.3419 72.7082C46.7957 72.6932 46.2289 72.3227 45.7749 71.5709C45.3256 70.8269 45.0338 69.7735 45.0335 68.5804C45.038 67.9672 45.1185 67.3569 45.2733 66.7635L45.319 66.5882L45.2419 66.4243C44.8436 65.5786 44.6411 64.6539 44.6495 63.7191H44.6496L44.6495 63.7085C44.6373 62.7224 44.8673 61.7483 45.3192 60.8718L45.4471 60.6237L45.3031 60.3846C44.735 59.4416 44.4421 58.3585 44.4575 57.2576L44.4577 57.2408L44.4568 57.224C44.4205 56.5456 44.5239 55.8671 44.7606 55.2303C44.9973 54.5936 45.3622 54.0123 45.8328 53.5223L45.9834 53.3655L45.9714 53.1484C45.9618 52.9749 45.9618 52.801 45.9714 52.6275L45.9731 52.5971L45.971 52.5666C45.9223 51.8372 46.0505 51.1068 46.345 50.4377C46.6394 49.7685 47.0912 49.1805 47.6619 48.7237L47.9528 48.4909L47.8129 48.1456C47.4818 47.328 47.32 46.4518 47.3374 45.5699L47.3378 45.5508L47.3367 45.5318C47.2987 44.8603 47.3959 44.188 47.6226 43.5547C47.8492 42.9215 48.2007 42.3402 48.6561 41.8452L48.8003 41.6885L48.7872 41.4759C48.7771 41.3117 48.7771 41.147 48.7872 40.9828L48.7882 40.9674V40.952C48.7882 39.7418 49.0712 38.9928 49.4587 38.5511C49.8374 38.1194 50.3784 37.9107 51.0615 37.9107C51.7466 37.9107 52.3198 38.121 52.7264 38.5608C53.137 39.0049 53.4415 39.7521 53.4415 40.952V40.9527V40.9535V40.9542V40.955V40.9557V40.9565V40.9572V40.958V40.9587V40.9595V40.9602V40.961V40.9617V40.9625V40.9632V40.964V40.9647V40.9655V40.9662V40.967V40.9677V40.9685V40.9692V40.97V40.9707V40.9715V40.9722V40.973V40.9737V40.9745V40.9752V40.976V40.9767V40.9775V40.9782V40.979V40.9797V40.9805V40.9812V40.982V40.9827V40.9835V40.9842V40.985V40.9857V40.9865V40.9872V40.988V40.9887V40.9895V40.9902V40.991V40.9917V40.9925V40.9932V40.994V40.9947V40.9955V40.9962V40.997V40.9977V40.9985V40.9992V41V41.0007V41.0015V41.0022V41.003V41.0037V41.0045V41.0052V41.006V41.0067V41.0075V41.0082V41.009V41.0097V41.0105V41.0112V41.012V41.0127V41.0135V41.0142V41.015V41.0157V41.0165V41.0172V41.018V41.0187V41.0195V41.0202V41.021V41.0217V41.0225V41.0232V41.024V41.0247V41.0255V41.0262V41.027V41.0277V41.0285V41.0292V41.03V41.0307V41.0315V41.0322V41.033V41.0337V41.0345V41.0352V41.036V41.0367V41.0375V41.0382V41.039V41.0397V41.0405V41.0412V41.042V41.0427V41.0435V41.0442V41.045V41.0457V41.0465V41.0472V41.048V41.0487V41.0495V41.0502V41.051V41.0517V41.0525V41.0532V41.054V41.0547V41.0555V41.0562V41.057V41.0577V41.0585V41.0592V41.06V41.0607V41.0615V41.0622V41.063V41.0637V41.0645V41.0652V41.066V41.0667V41.0675V41.0682V41.069V41.0697V41.0705V41.0712V41.072V41.0727V41.0735V41.0742V41.075V41.0757V41.0765V41.0772V41.078V41.0787V41.0795V41.0802V41.081V41.0817V41.0825V41.0832V41.084V41.0847V41.0855V41.0862V41.087V41.0877V41.0885V41.0892V41.09V41.0907V41.0915V41.0922V41.093V41.0937V41.0945V41.0952V41.096V41.0967V41.0975V41.0982V41.099V41.0997V41.1005V41.1012V41.102V41.1027V41.1035V41.1042V41.105V41.1057V41.1065V41.1072V41.108V41.1087V41.1095V41.1102V41.111V41.1117V41.1125V41.1132V41.114V41.1147V41.1155V41.1162V41.117V41.1177V41.1185V41.1192V41.12V41.1207V41.1215V41.1222V41.123V41.1237V41.1245V41.1252V41.126V41.1267V41.1275V41.1282V41.129V41.1297V41.1305V41.1312V41.132V41.1327V41.1335V41.1342V41.135V41.1357V41.1365V41.1372V41.138V41.1387V41.1395V41.1402V41.141V41.1417V41.1425V41.1432V41.144V41.1447V41.1455V41.1462V41.147V41.1477V41.1485V41.1492V41.15V41.1507V41.1515V41.1522V41.153V41.1537V41.1545V41.1552V41.156V41.1567V41.1575V41.1582V41.159V41.1597V41.1605V41.1612V41.162V41.1627V41.1635V41.1642V41.165V41.1657V41.1665V41.1672V41.168V41.1687V41.1695V41.1702V41.171V41.1717V41.1725V41.1732V41.174V41.1747V41.1755V41.1762V41.177V41.1777V41.1785V41.1792V41.18V41.1807V41.1815V41.1822V41.183V41.1837V41.1845V41.1852V41.186V41.1867V41.1875V41.1882V41.189V41.1897V41.1905V41.1912V41.192V41.1927V41.1935V41.1942V41.195V41.1957V41.1965V41.1972V41.198V41.1987V41.1995V41.2002V41.201V41.2017V41.2025V41.2032V41.204V41.2047V41.2055V41.2062V41.207V41.2077V41.2085V41.2092V41.21V41.2107V41.2115V41.2122V41.213V41.2137V41.2145V41.2152V41.216V41.2167V41.2175V41.2182V41.219V41.2197V41.2205V41.2212V41.222V41.2227V41.2235V41.2242V41.225V41.2257V41.2265V41.2272V41.228V41.2287V41.2295V41.2302V41.231V41.2317V41.2325V41.2332V41.234V41.2347V41.2355V41.2362V41.237V41.2377V41.2385V41.2392V41.24V41.2407V41.2415V41.2422V41.243V41.2437V41.2445V41.2452V41.246V41.2467V41.2475V41.2482V41.249V41.2497V41.2505V41.2512V41.252V41.2527V41.2535V41.2542V41.255V41.2557V41.2565V41.2572V41.258V41.2587V41.2595V41.2602V41.261V41.2617V41.2625V41.2632V41.264V41.2647V41.2655V41.2662V41.267V41.2677V41.2685V41.2692V41.27V41.2707V41.2715V41.2722V41.273V41.2737V41.2745V41.2752V41.276V41.2767V41.2775V41.2782V41.279V41.2797V41.2805V41.2812V41.282V41.2827V41.2835V41.2842V41.285V41.2857V41.2865V41.2872V41.288V41.2887V41.2895V41.2902V41.291V41.2917V41.2925V41.2932V41.294V41.2947V41.2955V41.2962V41.297V41.2977V41.2985V41.2992V41.3V41.3007V41.3015V41.3022V41.303V41.3037V41.3045V41.3052V41.306V41.3067V41.3075V41.3082V41.309V41.3097V41.3105V41.3112V41.312V41.3127V41.3135V41.3142V41.315V41.3157V41.3165V41.3172V41.318V41.3187V41.3195V41.3202V41.321V41.3217V41.3225V41.3232V41.324V41.3247V41.3255V41.3262V41.327V41.3277V41.3285V41.3292V41.33V41.3307V41.3315V41.3322V41.333V41.3337V41.3345V41.3352V41.336V41.836H53.9415C54.4806 41.836 55.0536 42.1967 55.5182 42.9525C55.9768 43.6986 56.2782 44.7609 56.2788 45.9618C56.2716 46.4565 56.2116 46.949 56.0998 47.431L56.0231 47.7615L56.3019 47.9548C56.3905 48.0163 56.4695 48.0904 56.5365 48.1748L57.1038 48.8895L57.4009 48.0268C57.5661 47.5472 57.8178 47.1019 58.1435 46.713L58.2602 46.5737V46.392V46.3914V46.3907V46.3901V46.3895V46.3889V46.3882V46.3876V46.387V46.3864V46.3857V46.3851V46.3845V46.3839V46.3832V46.3826V46.382V46.3814V46.3807V46.3801V46.3795V46.3789V46.3782V46.3776V46.377V46.3764V46.3757V46.3751V46.3745V46.3739V46.3732V46.3726V46.372V46.3714V46.3707V46.3701V46.3695V46.3689V46.3682V46.3676V46.367V46.3664V46.3657V46.3651V46.3645V46.3639V46.3632V46.3626V46.362V46.3614V46.3607V46.3601V46.3595V46.3589V46.3582V46.3576V46.357V46.3564V46.3557V46.3551V46.3545V46.3539V46.3532V46.3526V46.352V46.3514V46.3507V46.3501V46.3495V46.3489V46.3482V46.3476V46.347V46.3464V46.3457V46.3451V46.3445V46.3439V46.3432V46.3426V46.342V46.3414V46.3407V46.3401V46.3395V46.3389V46.3382V46.3376V46.337V46.3364V46.3357V46.3351V46.3345V46.3339V46.3332V46.3326V46.332V46.3314V46.3307V46.3301V46.3295V46.3289V46.3282V46.3276V46.327V46.3264V46.3257V46.3251V46.3245V46.3239V46.3232V46.3226V46.322V46.3214V46.3207V46.3201V46.3195V46.3189V46.3182V46.3176V46.317V46.3164V46.3157V46.3151V46.3145V46.3139V46.3132V46.3126V46.312V46.3114V46.3107V46.3101V46.3095V46.3089V46.3082V46.3076V46.307V46.3064V46.3057V46.3051V46.3045V46.3039V46.3032V46.3026V46.302V46.3014V46.3007V46.3001V46.2995V46.2989V46.2982V46.2976V46.297V46.2964V46.2957V46.2951V46.2945V46.2939V46.2932V46.2926V46.292V46.2914V46.2907V46.2901V46.2895V46.2889V46.2882V46.2876V46.287V46.2864V46.2857V46.2851V46.2845V46.2839V46.2832V46.2826V46.282V46.2814V46.2807V46.2801V46.2795V46.2789V46.2782V46.2776V46.277V46.2764V46.2757V46.2751V46.2745V46.2739V46.2732V46.2726V46.272V46.2714V46.2707V46.2701V46.2695V46.2689V46.2682V46.2676V46.267V46.2664V46.2657V46.2651V46.2645V46.2639V46.2632V46.2626V46.262V46.2614V46.2607V46.2601V46.2595V46.2589V46.2582V46.2576V46.257V46.2564V46.2557V46.2551V46.2545V46.2539V46.2532V46.2526V46.252V46.2514V46.2507V46.2501V46.2495V46.2489V46.2482V46.2476V46.247V46.2464V46.2457V46.2451V46.2445V46.2439V46.2432V46.2426V46.242V46.2414V46.2407V46.2401V46.2395V46.2389V46.2382V46.2376V46.237V46.2364V46.2357V46.2351V46.2345V46.2339V46.2332V46.2326V46.232V46.2314V46.2307V46.2301V46.2295V46.2289V46.2282V46.2276V46.227V46.2264V46.2257V46.2251V46.2245V46.2239V46.2232V46.2226V46.222V46.2214V46.2207V46.2201V46.2195V46.2189V46.2182V46.2176V46.217V46.2164V46.2157V46.2151V46.2145V46.2139V46.2132V46.2126V46.212V46.2114V46.2107V46.2101V46.2095V46.2089V46.2082V46.2076V46.207V46.2064V46.2057V46.2051V46.2045V46.2039V46.2032V46.2026V46.202V46.2014V46.2007V46.2001V46.1995V46.1989V46.1982V46.1976V46.197V46.1964V46.1957V46.1951V46.1945V46.1939V46.1932V46.1926V46.192V46.1914V46.1907V46.1901V46.1895V46.1889V46.1882V46.1876V46.187V46.1864V46.1857V46.1851V46.1845V46.1839V46.1832V46.1826V46.182V46.1814V46.1807V46.1801V46.1795V46.1789V46.1782V46.1776V46.177V46.1764V46.1757V46.1751V46.1745V46.1739V46.1732V46.1726V46.172V46.1714V46.1707V46.1701V46.1695V46.1689V46.1682V46.1676V46.167V46.1664V46.1657V46.1651V46.1645V46.1639V46.1632V46.1626V46.162V46.1614V46.1607V46.1601V46.1595V46.1589V46.1582V46.1576V46.157V46.1564V46.1557V46.1551V46.1545V46.1539V46.1532V46.1526V46.152V46.1514V46.1507V46.1501V46.1495V46.1489V46.1482V46.1476V46.147V46.1464V46.1457V46.1451V46.1445V46.1439V46.1432V46.1426V46.142V46.1414V46.1407V46.1401V46.1395V46.1389V46.1382V46.1376V46.137V46.1364V46.1357V46.1351V46.1345V46.1339V46.1332V46.1326V46.132V46.1314V46.1307V46.1301V46.1295V46.1289V46.1282V46.1276V46.127V46.1264V46.1257V46.1251V46.1245V46.1239V46.1232V46.1226V46.122V46.1214V46.1207V46.1201V46.1195V46.1189V46.1182V46.1176V46.117V46.1164V46.1157V46.1151V46.1145V46.1139V46.1132V46.1126V46.112V46.1114V46.1107V46.1101V46.1095V46.1089V46.1082V46.1076V46.107V46.1064V46.1057V46.1051V46.1045V46.1039V46.1032V46.1026V46.102V46.1014V46.1007V46.1001V46.0995V46.0989V46.0982V46.0976V46.097V46.0964V46.0957V46.0951V46.0945V46.0939V46.0932V46.0926V46.092V46.0914V46.0907V46.0901V46.0895V46.0889V46.0882V46.0876V46.087V46.0864V46.0857V46.0851V46.0845V46.0839V46.0832V46.0826V46.082V46.0814V46.0807V46.0801V46.0795V46.0789V46.0782V46.0776V46.077V46.0764V46.0757V46.0751V46.0745V46.0739V46.0732V46.0726V46.072C58.2602 44.8904 58.5567 43.8199 59.0149 43.0611C59.4791 42.2921 60.0527 41.9213 60.5975 41.9213H60.8322H61.4221L61.3254 41.3394C61.2607 40.9501 61.2273 40.5563 61.2255 40.1617C61.2257 38.9952 61.531 37.9302 61.9926 37.172C62.4634 36.3987 63.033 36.0333 63.5415 36.0333C64.0696 36.0333 64.6476 36.3794 65.113 37.1026C65.573 37.8173 65.8775 38.8429 65.8576 40.0263L65.8534 40.2754L66.0497 40.4287C66.6269 40.8795 67.0845 41.4653 67.3823 42.1344C67.6801 42.8036 67.8089 43.5356 67.7574 44.2662L67.755 44.3002L67.7573 44.3343C67.7783 44.6533 67.7783 44.9734 67.7573 45.2924L67.7292 45.7169L68.1437 45.8125C68.6502 45.9294 69.1645 46.3543 69.5634 47.0892C69.9582 47.8166 70.2095 48.7992 70.2095 49.912L70.2095 49.9144C70.2113 50.2866 70.1722 50.6579 70.093 51.0216L70.0168 51.3713L70.3233 51.5562C71.0103 51.9705 71.564 52.5733 71.9188 53.2929C72.2735 54.0125 72.4144 54.8188 72.3246 55.6161L72.3215 55.6439V55.672V55.673V55.674V55.675V55.676V55.677V55.678V55.679V55.68V55.681V55.682V55.683V55.684V55.685V55.686V55.687V55.688V55.689V55.69V55.691V55.692V55.693V55.694V55.695V55.696V55.697V55.698V55.699V55.7V55.701V55.702V55.703V55.704V55.705V55.706V55.707V55.708V55.709V55.71V55.711V55.712V55.713V55.714V55.715V55.716V55.717V55.718V55.719V55.72V55.721V55.722V55.723V55.724V55.725V55.726V55.727V55.728V55.729V55.73V55.731V55.732V55.733V55.734V55.735V55.736V55.737V55.738V55.739V55.74V55.741V55.742V55.743V55.744V55.745V55.746V55.747V55.748V55.749V55.75V55.751V55.752V55.753V55.754V55.755V55.756V55.757V55.758V55.759V55.76V55.761V55.762V55.763V55.764V55.765V55.766V55.767V55.768V55.769V55.77V55.771V55.772V55.773V55.774V55.775V55.776V55.777V55.778V55.779V55.78V55.781V55.782V55.783V55.784V55.785V55.786V55.787V55.788V55.789V55.79V55.791V55.792V55.793V55.794V55.795V55.796V55.797V55.798V55.799V55.8V55.801V55.802V55.803V55.804V55.805V55.806V55.807V55.808V55.809V55.81V55.811V55.812V55.813V55.814V55.815V55.816V55.817V55.818V55.819V55.82V55.821V55.822V55.823V55.824V55.825V55.826V55.827V55.828V55.829V55.83V55.831V55.832V55.833V55.834V55.835V55.836V55.837V55.838V55.839V55.84V55.841V55.842V55.843V55.844V55.845V55.846V55.847V55.848V55.849V55.85V55.851V55.852V55.853V55.854V55.855V55.856V55.857V55.858V55.859V55.86V55.861V55.862V55.863V55.864V55.865V55.866V55.867V55.868V55.869V55.87V55.871V55.872V55.873V55.874V55.875V55.876V55.877V55.878V55.879V55.88V55.881V55.882V55.883V55.884V55.885V55.886V55.887V55.888V55.889V55.89V55.891V55.892V55.893V55.894V55.895V55.896V55.897V55.898V55.899V55.9V55.901V55.902V55.903V55.904V55.905V55.906V55.907V55.908V55.909V55.91V55.911V55.912V55.913V55.914V55.915V55.916V55.917V55.918V55.919V55.92V55.921V55.922V55.923V55.924V55.925V55.926V55.927V55.928V55.929V55.93V55.931V55.932V55.933V55.934V55.935V55.936V55.937V55.938V55.939V55.94V55.941V55.942V55.943V55.944V55.945V55.946V55.947V55.948V55.949V55.95V55.951V55.952V55.953V55.954V55.955V55.956V55.957V55.958V55.959V55.96V55.961V55.962V55.963V55.964V55.965V55.966V55.967V55.968V55.969V55.97V55.971V55.972V55.973V55.974V55.975V55.976V55.977V55.978V55.979V55.98V55.981V55.982V55.983V55.984V55.985V55.986V55.987V55.988V55.989V55.99V55.991V55.992V55.993V55.994V55.995V55.996V55.997V55.998V55.999V56V56.001V56.002V56.003V56.004V56.005V56.006V56.007V56.008V56.009V56.01V56.011V56.012V56.013V56.014V56.015V56.016V56.017V56.018V56.019V56.02V56.021V56.022V56.023V56.024V56.025V56.026V56.027V56.028V56.029V56.03V56.031V56.032V56.033V56.034V56.035V56.036V56.037V56.038V56.039V56.04V56.041V56.042V56.043V56.044V56.045V56.046V56.047V56.048V56.049V56.05V56.051V56.052V56.053V56.054V56.055V56.056V56.057V56.058V56.059V56.06V56.061V56.062V56.063V56.064V56.065V56.066V56.067V56.068V56.069V56.07V56.071V56.072V56.073V56.074V56.075V56.076V56.077V56.078V56.079V56.08V56.081V56.082V56.083V56.084V56.085V56.086V56.087V56.088V56.089V56.09V56.091V56.092V56.093V56.094V56.095V56.096V56.097V56.098V56.099V56.1V56.101V56.102V56.103V56.104V56.105V56.106V56.107V56.108V56.109V56.11V56.111V56.112V56.113V56.114V56.115V56.116V56.117V56.118V56.119V56.12V56.121V56.122V56.123V56.124V56.125V56.126V56.127V56.128V56.129V56.13V56.131V56.132V56.133V56.134V56.135V56.136V56.137V56.138V56.139V56.14V56.141V56.142V56.143V56.144V56.145V56.146V56.147V56.148V56.149V56.15V56.151V56.152V56.153V56.154V56.155V56.156V56.157V56.158V56.159V56.16V56.161V56.162V56.163V56.164V56.165V56.166V56.167V56.168V56.169V56.17V56.171V56.172V56.173V56.174V56.175V56.176V56.177V56.178V56.179V56.18V56.181V56.182V56.183V56.184V56.6772L72.8147 56.6839C73.356 56.6914 73.9261 57.0582 74.386 57.8166C74.8406 58.5663 75.1375 59.6308 75.1375 60.8347L75.1375 60.8391C75.1462 61.8037 74.9232 62.7562 74.4874 63.6168L74.3517 63.8849L74.5247 64.1306C75.2185 65.1156 75.5622 66.3046 75.5008 67.5079Z" fill="#212121" stroke="#212121"/>
</g>
<path d="M34.7278 103.653V102.818H42.1106V103.653H38.884V113H37.9544V103.653H34.7278ZM44.9746 108.227V113H44.0897V102.818H44.9746V106.562H45.0542C45.2332 106.167 45.5099 105.853 45.8844 105.617C46.2623 105.382 46.7395 105.264 47.3163 105.264C47.8333 105.264 48.2874 105.37 48.6785 105.582C49.0696 105.795 49.3745 106.108 49.5932 106.522C49.812 106.936 49.9214 107.447 49.9214 108.053V113H49.0315V108.108C49.0315 107.478 48.8558 106.983 48.5045 106.621C48.1565 106.257 47.6858 106.075 47.0925 106.075C46.6849 106.075 46.3219 106.161 46.0038 106.333C45.6856 106.505 45.4337 106.754 45.2481 107.079C45.0658 107.4 44.9746 107.783 44.9746 108.227ZM52.6648 115.864C52.4892 115.864 52.3251 115.847 52.1727 115.814C52.0202 115.781 51.8992 115.744 51.8097 115.705L52.0484 114.924C52.35 115.017 52.6184 115.05 52.8538 115.023C53.0891 115 53.2979 114.894 53.4802 114.705C53.6625 114.52 53.8249 114.235 53.9674 113.85L54.2458 113.075L51.4369 105.364H52.3964L54.6634 111.832H54.733L57.0001 105.364H57.9596L54.7281 114.208C54.5922 114.576 54.4248 114.883 54.2259 115.128C54.0271 115.376 53.7967 115.56 53.5349 115.68C53.2763 115.802 52.9863 115.864 52.6648 115.864ZM59.7609 113V105.364H60.621V106.537H60.7006C60.853 106.143 61.1066 105.833 61.4612 105.607C61.8192 105.379 62.2484 105.264 62.7489 105.264C63.2759 105.264 63.7084 105.388 64.0465 105.637C64.3878 105.882 64.643 106.22 64.8121 106.651H64.8767C65.0491 106.227 65.3291 105.891 65.7169 105.642C66.108 105.39 66.582 105.264 67.1388 105.264C67.8481 105.264 68.4082 105.488 68.8192 105.935C69.2302 106.379 69.4357 107.029 69.4357 107.884V113H68.5507V107.884C68.5507 107.281 68.3966 106.829 68.0884 106.527C67.7801 106.225 67.3741 106.075 66.8703 106.075C66.287 106.075 65.8379 106.254 65.523 106.612C65.2081 106.969 65.0507 107.424 65.0507 107.974V113H64.1459V107.805C64.1459 107.288 64.0017 106.87 63.7134 106.552C63.425 106.234 63.019 106.075 62.4953 106.075C62.144 106.075 61.8275 106.161 61.5457 106.333C61.2673 106.505 61.0469 106.746 60.8845 107.054C60.7254 107.359 60.6459 107.71 60.6459 108.108V113H59.7609ZM76.7008 110.082V105.364H77.5857V113H76.7008V111.732H76.6312C76.4522 112.123 76.1688 112.45 75.781 112.712C75.3933 112.97 74.9193 113.099 74.3592 113.099C73.872 113.099 73.4394 112.993 73.0616 112.781C72.6837 112.566 72.3871 112.251 72.1717 111.837C71.9562 111.422 71.8485 110.914 71.8485 110.31V105.364H72.7335V110.256C72.7335 110.852 72.9091 111.333 73.2605 111.697C73.6118 112.059 74.0625 112.239 74.6127 112.239C74.9574 112.239 75.2889 112.156 75.607 111.991C75.9252 111.825 76.1871 111.583 76.3926 111.265C76.598 110.943 76.7008 110.549 76.7008 110.082ZM85.1293 107.039L84.3189 107.268C84.2394 107.039 84.1267 106.832 83.9808 106.646C83.835 106.461 83.6444 106.313 83.4091 106.204C83.1771 106.094 82.8887 106.04 82.5441 106.04C82.027 106.04 81.6028 106.162 81.2713 106.408C80.9399 106.653 80.7742 106.969 80.7742 107.357C80.7742 107.685 80.8869 107.952 81.1122 108.158C81.3409 108.36 81.6923 108.521 82.1662 108.64L83.3196 108.923C83.9593 109.079 84.4382 109.326 84.7564 109.664C85.0779 110.002 85.2387 110.426 85.2387 110.937C85.2387 111.368 85.1193 111.75 84.8807 112.085C84.6421 112.42 84.309 112.683 83.8814 112.876C83.4572 113.065 82.965 113.159 82.4048 113.159C81.6591 113.159 81.0443 112.992 80.5604 112.657C80.0765 112.319 79.7666 111.832 79.6307 111.195L80.4808 110.987C80.5902 111.441 80.804 111.784 81.1222 112.016C81.4437 112.248 81.8663 112.364 82.3899 112.364C82.9766 112.364 83.4456 112.233 83.7969 111.971C84.1482 111.706 84.3239 111.374 84.3239 110.977C84.3239 110.668 84.2211 110.41 84.0156 110.201C83.8101 109.989 83.4986 109.833 83.081 109.734L81.8331 109.435C81.1702 109.276 80.6797 109.024 80.3615 108.68C80.0433 108.335 79.8842 107.907 79.8842 107.397C79.8842 106.976 79.9986 106.607 80.2273 106.288C80.456 105.967 80.7709 105.715 81.1719 105.533C81.5729 105.35 82.0303 105.259 82.5441 105.259C83.2434 105.259 83.8019 105.418 84.2195 105.737C84.6404 106.051 84.9437 106.486 85.1293 107.039Z" fill="#212121"/>
<defs>
<clipPath id="clip0_532_9121">
<rect width="64" height="64" fill="white" transform="translate(28 27)"/>
</clipPath>
</defs>
</svg>
