<svg width="120" height="144" viewBox="0 0 120 144" fill="none" xmlns="http://www.w3.org/2000/svg">
<rect width="120" height="144" rx="4" fill="#FAFAFA"/>
<g clip-path="url(#clip0_4334_13811)">
<path d="M67.2531 72.6755C65.7598 70.2861 65.0131 67.6621 65.0131 65.0168L64.6931 32.3555C64.6931 32.3555 62.7731 32.5688 61.5571 32.8248C59.4238 33.0595 57.4824 32.8888 57.4824 32.8888L54.1331 32.3981L54.3678 65.0381C54.3678 67.5981 53.5144 70.2008 52.1064 72.5688C53.3651 74.9581 53.7491 76.2168 59.8078 76.0461C65.8664 75.8755 65.4398 74.7448 67.2531 72.6968V72.6755Z" fill="#231F20" stroke="#231F20" stroke-linecap="round" stroke-linejoin="round"/>
<path d="M67.4454 72.5469C69.9201 76.9202 75.4668 79.9069 79.4774 81.2722C79.4774 81.2722 80.2881 83.5122 78.8161 85.8375C77.9841 87.1389 75.9148 87.8855 75.9148 87.8855C75.9148 87.8855 66.0161 82.9149 59.9574 83.0855C53.8988 83.2562 45.2374 88.6962 45.2374 88.6962C45.2374 88.6962 42.7201 87.7362 41.8454 85.2829C40.9708 82.8295 41.9734 80.9309 41.9734 80.9309C45.8348 79.6509 50.0588 76.8135 52.4054 72.8882L60.1068 77.9015L67.4454 72.5682V72.5469Z" fill="white" stroke="#231F20" stroke-width="0.5" stroke-linecap="round" stroke-linejoin="round"/>
<path d="M58.6774 64.3113C56.0534 64.3113 54.6454 63.906 53.4081 62.3913C52.7894 63.138 52.4268 64.0126 52.4268 64.93C52.4268 67.746 55.6054 70.0286 59.5521 70.0286C63.4988 70.0286 67.5094 69.346 67.2108 67.6606C66.9121 65.9753 61.4294 67.9166 61.2588 67.234C61.0028 66.2953 67.7868 65.826 66.6774 62.9246C65.9948 61.154 61.3228 64.29 58.6988 64.29L58.6774 64.3113Z" fill="white" stroke="#231F20" stroke-width="0.5" stroke-miterlimit="10"/>
<path d="M59.5729 57.7413C56.9702 57.7413 54.7089 56.8027 53.4716 55.416C52.8742 56.0987 52.4902 56.888 52.4902 57.7413C52.4902 60.3013 55.6476 62.392 59.5729 62.392C63.4982 62.392 66.6556 60.3013 66.6556 57.7413C66.6556 56.888 66.2716 56.0987 65.6742 55.416C64.4582 56.8027 62.1969 57.7413 59.5729 57.7413Z" fill="white" stroke="#231F20" stroke-width="0.5" stroke-miterlimit="10"/>
<path d="M59.5729 35.6398C56.9702 35.6398 54.7089 34.7011 53.4716 33.3145C52.8742 33.9971 52.4902 34.7865 52.4902 35.6398C52.4902 38.1998 55.6476 40.2905 59.5729 40.2905C63.4982 40.2905 66.6556 38.1998 66.6556 35.6398C66.6556 34.7865 66.2716 33.9971 65.6742 33.3145C64.4582 34.7011 62.1969 35.6398 59.5729 35.6398Z" fill="white" stroke="#231F20" stroke-width="0.5" stroke-miterlimit="10"/>
<path d="M59.4028 50.8506C56.7788 50.8506 54.4962 49.7839 53.2802 48.2266C52.6615 48.9946 52.2988 49.8906 52.2988 50.8506C52.2988 53.7519 54.9228 56.1199 59.4242 56.1199C63.9255 56.1199 66.5495 53.7732 66.5495 50.8506C66.5495 49.8906 66.1655 48.9946 65.5682 48.2266C64.3308 49.7839 62.0695 50.8506 59.4455 50.8506H59.4028Z" fill="white" stroke="#231F20" stroke-width="0.5" stroke-miterlimit="10"/>
<path d="M59.2959 76.0666C56.1385 76.0666 53.0665 70.4132 51.9572 70.8612C51.2959 71.1172 50.5492 71.7146 50.3145 73.1866C50.0159 75.0426 53.5785 75.0426 55.2852 78.2639C56.5012 80.5892 57.8879 84.3652 60.1279 84.3866C62.4959 84.4079 63.1359 81.3572 64.7359 78.2639C66.6985 74.5092 68.7465 74.6159 68.5332 72.8879C68.3839 71.7146 67.5305 70.6906 66.6345 70.8612C65.1839 71.6719 62.4319 76.0666 59.2959 76.0666Z" fill="white" stroke="#231F20" stroke-width="0.5" stroke-miterlimit="10"/>
<path d="M60.5329 42.3601C63.1569 42.3601 64.5649 41.9548 65.8022 40.4401C66.4209 41.1868 66.7836 42.0615 66.7836 42.9788C66.7836 46.8188 63.6049 48.0775 59.6582 48.0775C55.7116 48.0775 51.8289 47.4161 51.9996 45.7095C52.2556 43.2348 57.8022 46.7335 57.9516 45.2828C58.0582 44.3015 51.4236 43.8748 52.5329 40.9735C53.2156 39.2028 57.8876 42.3388 60.5116 42.3388L60.5329 42.3601Z" fill="white" stroke="#231F20" stroke-width="0.5" stroke-miterlimit="10"/>
</g>
<path d="M34.1596 103.653V102.818H41.5424V103.653H38.3158V113H37.3861V103.653H34.1596ZM42.7285 113V105.364H43.5886V106.537H43.6532C43.8057 106.152 44.0708 105.843 44.4487 105.607C44.8298 105.369 45.2607 105.249 45.7413 105.249C45.8142 105.249 45.8954 105.251 45.9849 105.254C46.0744 105.258 46.149 105.261 46.2086 105.264V106.164C46.1689 106.157 46.0993 106.147 45.9998 106.134C45.9004 106.121 45.7927 106.114 45.6767 106.114C45.2789 106.114 44.9243 106.199 44.6128 106.368C44.3045 106.534 44.0609 106.764 43.8819 107.059C43.703 107.354 43.6135 107.69 43.6135 108.068V113H42.7285ZM49.9216 113.174C49.4609 113.174 49.0399 113.085 48.6588 112.906C48.2776 112.723 47.9744 112.461 47.749 112.12C47.5236 111.775 47.4109 111.358 47.4109 110.867C47.4109 110.489 47.4822 110.171 47.6247 109.913C47.7672 109.654 47.9694 109.442 48.2312 109.276C48.4931 109.111 48.803 108.98 49.1609 108.884C49.5189 108.787 49.9133 108.713 50.3442 108.66C50.7717 108.607 51.133 108.56 51.428 108.521C51.7263 108.481 51.9533 108.418 52.1091 108.332C52.2648 108.246 52.3427 108.106 52.3427 107.914V107.735C52.3427 107.215 52.187 106.805 51.8754 106.507C51.5672 106.205 51.123 106.055 50.543 106.055C49.9928 106.055 49.5437 106.176 49.1957 106.418C48.851 106.66 48.6091 106.945 48.4699 107.273L47.6297 106.969C47.802 106.552 48.0406 106.219 48.3456 105.97C48.6505 105.718 48.9919 105.538 49.3697 105.428C49.7476 105.316 50.1304 105.259 50.5182 105.259C50.8098 105.259 51.1131 105.297 51.428 105.374C51.7461 105.45 52.0411 105.582 52.3129 105.771C52.5847 105.957 52.8051 106.217 52.9741 106.552C53.1432 106.883 53.2277 107.304 53.2277 107.815V113H52.3427V111.792H52.288C52.182 112.017 52.0245 112.236 51.8157 112.448C51.6069 112.66 51.3451 112.834 51.0302 112.97C50.7154 113.106 50.3458 113.174 49.9216 113.174ZM50.0409 112.364C50.5115 112.364 50.9192 112.259 51.2639 112.05C51.6086 111.842 51.8737 111.565 52.0594 111.22C52.2483 110.872 52.3427 110.489 52.3427 110.072V108.968C52.2764 109.031 52.1654 109.087 52.0096 109.137C51.8572 109.187 51.6799 109.232 51.4777 109.271C51.2788 109.308 51.0799 109.339 50.8811 109.366C50.6822 109.392 50.5032 109.415 50.3442 109.435C49.9133 109.488 49.5454 109.571 49.2405 109.684C48.9355 109.797 48.7019 109.952 48.5395 110.151C48.3771 110.347 48.2959 110.599 48.2959 110.907C48.2959 111.371 48.4616 111.731 48.793 111.986C49.1245 112.238 49.5404 112.364 50.0409 112.364ZM58.6347 113.159C57.9519 113.159 57.357 112.988 56.8499 112.647C56.3461 112.306 55.955 111.838 55.6766 111.245C55.3982 110.652 55.259 109.976 55.259 109.217C55.259 108.451 55.3998 107.77 55.6816 107.173C55.9666 106.577 56.361 106.109 56.8648 105.771C57.3686 105.43 57.9536 105.259 58.6198 105.259C59.1302 105.259 59.5925 105.359 60.0068 105.558C60.4211 105.753 60.7625 106.03 61.031 106.388C61.3028 106.742 61.4735 107.157 61.5431 107.631H60.6482C60.5554 107.2 60.3316 106.832 59.977 106.527C59.6257 106.219 59.1782 106.065 58.6347 106.065C58.1475 106.065 57.7166 106.197 57.3421 106.462C56.9675 106.724 56.6742 107.09 56.4621 107.561C56.2533 108.028 56.1489 108.57 56.1489 109.187C56.1489 109.807 56.2516 110.355 56.4571 110.832C56.6626 111.306 56.951 111.678 57.3222 111.946C57.6967 112.214 58.1342 112.349 58.6347 112.349C58.9727 112.349 59.281 112.286 59.5594 112.16C59.8411 112.031 60.0764 111.848 60.2654 111.613C60.4576 111.378 60.5869 111.098 60.6531 110.773H61.548C61.4817 111.233 61.3177 111.644 61.0558 112.006C60.7973 112.364 60.4609 112.645 60.0466 112.851C59.6356 113.056 59.165 113.159 58.6347 113.159ZM64.3996 108.227V113H63.5147V102.818H64.3996V106.562H64.4792C64.6582 106.167 64.9349 105.853 65.3094 105.617C65.6873 105.382 66.1645 105.264 66.7413 105.264C67.2583 105.264 67.7124 105.37 68.1035 105.582C68.4946 105.795 68.7995 106.108 69.0182 106.522C69.237 106.936 69.3464 107.447 69.3464 108.053V113H68.4565V108.108C68.4565 107.478 68.2808 106.983 67.9295 106.621C67.5815 106.257 67.1108 106.075 66.5175 106.075C66.1099 106.075 65.7469 106.161 65.4288 106.333C65.1106 106.505 64.8587 106.754 64.6731 107.079C64.4908 107.4 64.3996 107.783 64.3996 108.227ZM74.8342 113.159C74.1216 113.159 73.5051 112.993 72.9847 112.662C72.4644 112.327 72.0617 111.865 71.7766 111.275C71.4949 110.682 71.354 109.999 71.354 109.227C71.354 108.458 71.4949 107.775 71.7766 107.178C72.0617 106.578 72.4544 106.109 72.9549 105.771C73.4587 105.43 74.0404 105.259 74.6999 105.259C75.1142 105.259 75.5136 105.335 75.8981 105.488C76.2825 105.637 76.6272 105.867 76.9322 106.179C77.2404 106.487 77.484 106.877 77.663 107.347C77.842 107.815 77.9315 108.368 77.9315 109.008V109.445H71.9655V108.665H77.0266C77.0266 108.174 76.9272 107.733 76.7283 107.342C76.5328 106.948 76.2593 106.636 75.908 106.408C75.56 106.179 75.1573 106.065 74.6999 106.065C74.216 106.065 73.7901 106.194 73.4222 106.452C73.0543 106.711 72.766 107.052 72.5572 107.477C72.3517 107.901 72.2473 108.365 72.244 108.869V109.336C72.244 109.942 72.3484 110.473 72.5572 110.927C72.7693 111.378 73.0692 111.727 73.457 111.976C73.8448 112.224 74.3039 112.349 74.8342 112.349C75.1954 112.349 75.512 112.292 75.7837 112.18C76.0588 112.067 76.2892 111.916 76.4748 111.727C76.6637 111.535 76.8062 111.325 76.9023 111.096L77.7425 111.369C77.6265 111.691 77.436 111.987 77.1708 112.259C76.909 112.531 76.5808 112.75 76.1864 112.915C75.7953 113.078 75.3446 113.159 74.8342 113.159ZM82.0844 113.174C81.6237 113.174 81.2027 113.085 80.8216 112.906C80.4404 112.723 80.1372 112.461 79.9118 112.12C79.6864 111.775 79.5737 111.358 79.5737 110.867C79.5737 110.489 79.645 110.171 79.7875 109.913C79.93 109.654 80.1322 109.442 80.394 109.276C80.6559 109.111 80.9658 108.98 81.3237 108.884C81.6817 108.787 82.0761 108.713 82.507 108.66C82.9345 108.607 83.2958 108.56 83.5908 108.521C83.8891 108.481 84.1161 108.418 84.2719 108.332C84.4277 108.246 84.5055 108.106 84.5055 107.914V107.735C84.5055 107.215 84.3498 106.805 84.0382 106.507C83.73 106.205 83.2858 106.055 82.7058 106.055C82.1556 106.055 81.7065 106.176 81.3585 106.418C81.0138 106.66 80.7719 106.945 80.6327 107.273L79.7925 106.969C79.9648 106.552 80.2035 106.219 80.5084 105.97C80.8133 105.718 81.1547 105.538 81.5325 105.428C81.9104 105.316 82.2932 105.259 82.681 105.259C82.9726 105.259 83.2759 105.297 83.5908 105.374C83.909 105.45 84.2039 105.582 84.4757 105.771C84.7475 105.957 84.9679 106.217 85.1369 106.552C85.306 106.883 85.3905 107.304 85.3905 107.815V113H84.5055V111.792H84.4509C84.3448 112.017 84.1874 112.236 83.9786 112.448C83.7697 112.66 83.5079 112.834 83.193 112.97C82.8782 113.106 82.5086 113.174 82.0844 113.174ZM82.2037 112.364C82.6743 112.364 83.082 112.259 83.4267 112.05C83.7714 111.842 84.0366 111.565 84.2222 111.22C84.4111 110.872 84.5055 110.489 84.5055 110.072V108.968C84.4393 109.031 84.3282 109.087 84.1724 109.137C84.02 109.187 83.8427 109.232 83.6405 109.271C83.4416 109.308 83.2428 109.339 83.0439 109.366C82.845 109.392 82.6661 109.415 82.507 109.435C82.0761 109.488 81.7082 109.571 81.4033 109.684C81.0983 109.797 80.8647 109.952 80.7023 110.151C80.5399 110.347 80.4587 110.599 80.4587 110.907C80.4587 111.371 80.6244 111.731 80.9558 111.986C81.2873 112.238 81.7032 112.364 82.2037 112.364Z" fill="#212121"/>
<defs>
<clipPath id="clip0_4334_13811">
<rect width="64" height="64" fill="white" transform="translate(28 27)"/>
</clipPath>
</defs>
</svg>
