<?xml version="1.0" encoding="UTF-8" standalone="no"?>
<!DOCTYPE svg PUBLIC "-//W3C//DTD SVG 1.1//EN"
 "http://www.w3.org/Graphics/SVG/1.1/DTD/svg11.dtd">
<!-- Generated by graphviz version 2.47.0 (20210316.0004)
 -->
<!-- Title: dependencies Pages: 1 -->
<svg width="504pt" height="284pt"
 viewBox="0.00 0.00 504.00 284.00" xmlns="http://www.w3.org/2000/svg" xmlns:xlink="http://www.w3.org/1999/xlink">
<g id="graph0" class="graph" transform="scale(1 1) rotate(0) translate(4 280)">
<title>dependencies</title>
<polygon fill="white" stroke="transparent" points="-4,4 -4,-280 500,-280 500,4 -4,4"/>
<text text-anchor="start" x="227.01" y="-42.4" font-family="Times-12" font-weight="bold" font-size="14.00">Legend</text>
<polygon fill="#ffffb3" stroke="transparent" points="14,-10 14,-30 34,-30 34,-10 14,-10"/>
<text text-anchor="start" x="37.63" y="-15.4" font-family="Times-12" font-size="14.00"> &#160;Declarations</text>
<polygon fill="#8dd3c7" stroke="transparent" points="127,-10 127,-30 147,-30 147,-10 127,-10"/>
<text text-anchor="start" x="150.73" y="-15.4" font-family="Times-12" font-size="14.00"> &#160;Module</text>
<polygon fill="#80b1d3" stroke="transparent" points="213,-10 213,-30 233,-30 233,-10 213,-10"/>
<text text-anchor="start" x="236.78" y="-15.4" font-family="Times-12" font-size="14.00"> &#160;Bootstrap</text>
<polygon fill="#fdb462" stroke="transparent" points="310,-10 310,-30 330,-30 330,-10 310,-10"/>
<text text-anchor="start" x="333.67" y="-15.4" font-family="Times-12" font-size="14.00"> &#160;Providers</text>
<polygon fill="#fb8072" stroke="transparent" points="406,-10 406,-30 426,-30 426,-10 406,-10"/>
<text text-anchor="start" x="429.73" y="-15.4" font-family="Times-12" font-size="14.00"> &#160;Exports</text>
<g id="clust1" class="cluster">
<title>cluster_IndentedListModule</title>
<polygon fill="none" stroke="black" stroke-dasharray="1,5" points="10,-70 10,-268 486,-268 486,-70 10,-70"/>
</g>
<g id="clust4" class="cluster">
<title>cluster_IndentedListModule_imports</title>
<polygon fill="none" stroke="black" points="194,-78 194,-130 478,-130 478,-78 194,-78"/>
</g>
<g id="clust5" class="cluster">
<title>cluster_IndentedListModule_exports</title>
<polygon fill="none" stroke="black" points="168,-208 168,-260 340,-260 340,-208 168,-208"/>
</g>
<g id="clust2" class="cluster">
<title>cluster_IndentedListModule_declarations</title>
<polygon fill="none" stroke="black" points="18,-78 18,-130 186,-130 186,-78 18,-78"/>
</g>
<!-- IndentedListComponent -->
<g id="node1" class="node">
<title>IndentedListComponent</title>
<polygon fill="#ffffb3" stroke="black" points="178.09,-122 25.91,-122 25.91,-86 178.09,-86 178.09,-122"/>
<text text-anchor="middle" x="102" y="-99.8" font-family="Times,serif" font-size="14.00">IndentedListComponent</text>
</g>
<!-- IndentedListModule -->
<g id="node2" class="node">
<title>IndentedListModule</title>
<polygon fill="#8dd3c7" stroke="black" points="319.31,-187 316.31,-191 295.31,-191 292.31,-187 188.69,-187 188.69,-151 319.31,-151 319.31,-187"/>
<text text-anchor="middle" x="254" y="-164.8" font-family="Times,serif" font-size="14.00">IndentedListModule</text>
</g>
<!-- IndentedListComponent&#45;&gt;IndentedListModule -->
<g id="edge1" class="edge">
<title>IndentedListComponent&#45;&gt;IndentedListModule</title>
<path fill="none" stroke="black" d="M178.15,-104C188.29,-104 195.26,-104 195.26,-104 195.26,-104 195.26,-140.89 195.26,-140.89"/>
<polygon fill="black" stroke="black" points="191.76,-140.89 195.26,-150.89 198.76,-140.89 191.76,-140.89"/>
</g>
<!-- IndentedListComponent  -->
<g id="node5" class="node">
<title>IndentedListComponent </title>
<polygon fill="#fb8072" stroke="black" points="331.59,-252 176.41,-252 176.41,-216 331.59,-216 331.59,-252"/>
<text text-anchor="middle" x="254" y="-229.8" font-family="Times,serif" font-size="14.00">IndentedListComponent </text>
</g>
<!-- IndentedListModule&#45;&gt;IndentedListComponent  -->
<g id="edge4" class="edge">
<title>IndentedListModule&#45;&gt;IndentedListComponent </title>
<path fill="none" stroke="black" stroke-dasharray="5,2" d="M254,-187.11C254,-187.11 254,-205.99 254,-205.99"/>
<polygon fill="black" stroke="black" points="250.5,-205.99 254,-215.99 257.5,-205.99 250.5,-205.99"/>
</g>
<!-- SidenavHeaderModule -->
<g id="node3" class="node">
<title>SidenavHeaderModule</title>
<polygon fill="#8dd3c7" stroke="black" points="469.56,-122 466.56,-126 445.56,-126 442.56,-122 324.44,-122 324.44,-86 469.56,-86 469.56,-122"/>
<text text-anchor="middle" x="397" y="-99.8" font-family="Times,serif" font-size="14.00">SidenavHeaderModule</text>
</g>
<!-- SidenavHeaderModule&#45;&gt;IndentedListModule -->
<g id="edge2" class="edge">
<title>SidenavHeaderModule&#45;&gt;IndentedListModule</title>
<path fill="none" stroke="black" d="M328.13,-122.11C328.13,-141.34 328.13,-169 328.13,-169 328.13,-169 327.25,-169 327.25,-169"/>
<polygon fill="black" stroke="black" points="329.34,-165.5 319.34,-169 329.34,-172.5 329.34,-165.5"/>
</g>
<!-- SidenavModule -->
<g id="node4" class="node">
<title>SidenavModule</title>
<polygon fill="#8dd3c7" stroke="black" points="306.15,-122 303.15,-126 282.15,-126 279.15,-122 201.85,-122 201.85,-86 306.15,-86 306.15,-122"/>
<text text-anchor="middle" x="254" y="-99.8" font-family="Times,serif" font-size="14.00">SidenavModule</text>
</g>
<!-- SidenavModule&#45;&gt;IndentedListModule -->
<g id="edge3" class="edge">
<title>SidenavModule&#45;&gt;IndentedListModule</title>
<path fill="none" stroke="black" d="M254,-122.11C254,-122.11 254,-140.99 254,-140.99"/>
<polygon fill="black" stroke="black" points="250.5,-140.99 254,-150.99 257.5,-140.99 250.5,-140.99"/>
</g>
</g>
</svg>
