<?xml version="1.0" encoding="UTF-8" standalone="no"?>
<!DOCTYPE svg PUBLIC "-//W3C//DTD SVG 1.1//EN"
 "http://www.w3.org/Graphics/SVG/1.1/DTD/svg11.dtd">
<!-- Generated by graphviz version 2.47.0 (20210316.0004)
 -->
<!-- Title: dependencies Pages: 1 -->
<svg width="504pt" height="284pt"
 viewBox="0.00 0.00 504.00 284.00" xmlns="http://www.w3.org/2000/svg" xmlns:xlink="http://www.w3.org/1999/xlink">
<g id="graph0" class="graph" transform="scale(1 1) rotate(0) translate(4 280)">
<title>dependencies</title>
<polygon fill="white" stroke="transparent" points="-4,4 -4,-280 500,-280 500,4 -4,4"/>
<text text-anchor="start" x="227.01" y="-42.4" font-family="Times-12" font-weight="bold" font-size="14.00">Legend</text>
<polygon fill="#ffffb3" stroke="transparent" points="14,-10 14,-30 34,-30 34,-10 14,-10"/>
<text text-anchor="start" x="37.63" y="-15.4" font-family="Times-12" font-size="14.00"> &#160;Declarations</text>
<polygon fill="#8dd3c7" stroke="transparent" points="127,-10 127,-30 147,-30 147,-10 127,-10"/>
<text text-anchor="start" x="150.73" y="-15.4" font-family="Times-12" font-size="14.00"> &#160;Module</text>
<polygon fill="#80b1d3" stroke="transparent" points="213,-10 213,-30 233,-30 233,-10 213,-10"/>
<text text-anchor="start" x="236.78" y="-15.4" font-family="Times-12" font-size="14.00"> &#160;Bootstrap</text>
<polygon fill="#fdb462" stroke="transparent" points="310,-10 310,-30 330,-30 330,-10 310,-10"/>
<text text-anchor="start" x="333.67" y="-15.4" font-family="Times-12" font-size="14.00"> &#160;Providers</text>
<polygon fill="#fb8072" stroke="transparent" points="406,-10 406,-30 426,-30 426,-10 406,-10"/>
<text text-anchor="start" x="429.73" y="-15.4" font-family="Times-12" font-size="14.00"> &#160;Exports</text>
<g id="clust1" class="cluster">
<title>cluster_IndentedListModule</title>
<polygon fill="none" stroke="black" stroke-dasharray="1,5" points="10,-70 10,-268 486,-268 486,-70 10,-70"/>
</g>
<g id="clust2" class="cluster">
<title>cluster_IndentedListModule_declarations</title>
<polygon fill="none" stroke="black" points="310,-78 310,-130 478,-130 478,-78 310,-78"/>
</g>
<g id="clust5" class="cluster">
<title>cluster_IndentedListModule_exports</title>
<polygon fill="none" stroke="black" points="135,-208 135,-260 307,-260 307,-208 135,-208"/>
</g>
<g id="clust4" class="cluster">
<title>cluster_IndentedListModule_imports</title>
<polygon fill="none" stroke="black" points="18,-78 18,-130 302,-130 302,-78 18,-78"/>
</g>
<!-- IndentedListComponent -->
<g id="node1" class="node">
<title>IndentedListComponent</title>
<polygon fill="#ffffb3" stroke="black" points="470.09,-122 317.91,-122 317.91,-86 470.09,-86 470.09,-122"/>
<text text-anchor="middle" x="394" y="-99.8" font-family="Times,serif" font-size="14.00">IndentedListComponent</text>
</g>
<!-- IndentedListModule -->
<g id="node2" class="node">
<title>IndentedListModule</title>
<polygon fill="#8dd3c7" stroke="black" points="286.31,-187 283.31,-191 262.31,-191 259.31,-187 155.69,-187 155.69,-151 286.31,-151 286.31,-187"/>
<text text-anchor="middle" x="221" y="-164.8" font-family="Times,serif" font-size="14.00">IndentedListModule</text>
</g>
<!-- IndentedListComponent&#45;&gt;IndentedListModule -->
<g id="edge1" class="edge">
<title>IndentedListComponent&#45;&gt;IndentedListModule</title>
<path fill="none" stroke="black" d="M394,-122.11C394,-141.34 394,-169 394,-169 394,-169 296.4,-169 296.4,-169"/>
<polygon fill="black" stroke="black" points="296.4,-165.5 286.4,-169 296.4,-172.5 296.4,-165.5"/>
</g>
<!-- IndentedListComponent  -->
<g id="node5" class="node">
<title>IndentedListComponent </title>
<polygon fill="#fb8072" stroke="black" points="298.59,-252 143.41,-252 143.41,-216 298.59,-216 298.59,-252"/>
<text text-anchor="middle" x="221" y="-229.8" font-family="Times,serif" font-size="14.00">IndentedListComponent </text>
</g>
<!-- IndentedListModule&#45;&gt;IndentedListComponent  -->
<g id="edge4" class="edge">
<title>IndentedListModule&#45;&gt;IndentedListComponent </title>
<path fill="none" stroke="black" stroke-dasharray="5,2" d="M221,-187.11C221,-187.11 221,-205.99 221,-205.99"/>
<polygon fill="black" stroke="black" points="217.5,-205.99 221,-215.99 224.5,-205.99 217.5,-205.99"/>
</g>
<!-- SidenavHeaderModule -->
<g id="node3" class="node">
<title>SidenavHeaderModule</title>
<polygon fill="#8dd3c7" stroke="black" points="293.56,-122 290.56,-126 269.56,-126 266.56,-122 148.44,-122 148.44,-86 293.56,-86 293.56,-122"/>
<text text-anchor="middle" x="221" y="-99.8" font-family="Times,serif" font-size="14.00">SidenavHeaderModule</text>
</g>
<!-- SidenavHeaderModule&#45;&gt;IndentedListModule -->
<g id="edge2" class="edge">
<title>SidenavHeaderModule&#45;&gt;IndentedListModule</title>
<path fill="none" stroke="black" d="M221,-122.11C221,-122.11 221,-140.99 221,-140.99"/>
<polygon fill="black" stroke="black" points="217.5,-140.99 221,-150.99 224.5,-140.99 217.5,-140.99"/>
</g>
<!-- SidenavModule -->
<g id="node4" class="node">
<title>SidenavModule</title>
<polygon fill="#8dd3c7" stroke="black" points="130.15,-122 127.15,-126 106.15,-126 103.15,-122 25.85,-122 25.85,-86 130.15,-86 130.15,-122"/>
<text text-anchor="middle" x="78" y="-99.8" font-family="Times,serif" font-size="14.00">SidenavModule</text>
</g>
<!-- SidenavModule&#45;&gt;IndentedListModule -->
<g id="edge3" class="edge">
<title>SidenavModule&#45;&gt;IndentedListModule</title>
<path fill="none" stroke="black" d="M78,-122.11C78,-141.34 78,-169 78,-169 78,-169 145.78,-169 145.78,-169"/>
<polygon fill="black" stroke="black" points="145.78,-172.5 155.78,-169 145.78,-165.5 145.78,-172.5"/>
</g>
</g>
</svg>
