<svg width="55" height="54" viewBox="0 0 55 54" fill="none" xmlns="http://www.w3.org/2000/svg">
<g clip-path="url(#clip0_1116_9746)">
<path d="M19.6533 10.206C19.6533 11.736 20.6066 16.488 23.7783 18.162C26.2533 19.476 32.0466 19.35 34.2466 19.962C35.2226 20.391 36.0929 21.0214 36.7984 21.8104C37.5039 22.5994 38.028 23.5283 38.335 24.534C38.4816 25.362 39.71 23.94 41.525 24.21C43.34 24.48 44.605 27.702 44.0733 29.97C43.6324 31.2339 42.7788 32.3195 41.645 33.0584C40.5113 33.7972 39.1608 34.1479 37.8033 34.056C36.0984 33.7702 34.5627 32.8719 33.495 31.536C31.9366 28.8 33 27.324 31.1666 28.134C29.3333 28.944 31.79 31.5 32.5416 33.534C32.8215 34.1052 32.9066 34.7497 32.7844 35.3721C32.6623 35.9945 32.3393 36.5618 31.8633 36.99C31.3225 37.5298 30.6052 37.8654 29.8375 37.9378C29.0698 38.0103 28.3006 37.8149 27.665 37.386C26.8392 36.8736 25.9526 36.4625 25.025 36.162C22.6783 35.442 19.9283 35.46 19.745 33.354C19.5616 31.248 21.4683 31.086 21.4683 30.78C21.4683 30.474 16.7566 30.024 17.0316 27.666C17.2516 25.866 20.6983 25.578 20.6983 25.578C20.6983 25.578 23.98 25.578 23.98 25.2C23.98 24.822 16.6466 23.976 16.17 27.396C15.84 29.88 19.14 30.15 19.3233 32.796C19.5066 35.442 17.49 36.54 19.0116 37.224C21.0283 38.106 22.935 36.522 24.97 36.72C27.005 36.918 28.985 38.88 30.1766 38.844C31.8816 38.844 32.7616 35.514 36.0066 35.028C36.9815 34.8396 37.9923 34.9635 38.89 35.3815C39.7877 35.7996 40.525 36.4896 40.9933 37.35C41.4239 38.4963 41.4344 39.754 41.0229 40.9071C40.6113 42.0601 39.8035 43.0363 38.7383 43.668C36.9057 44.9072 34.7658 45.6367 32.5453 45.7793C30.3248 45.9219 28.1064 45.4722 26.125 44.478C26.675 47.052 24.75 47.592 23.98 47.628C21.7616 47.772 20.7533 44.82 19.195 44.028C17.1438 42.9999 14.824 42.6046 12.54 42.894C10.56 43.326 9.89997 40.518 12.1366 39.996C14.7413 39.6217 17.4006 40.0099 19.7816 41.112C20.8612 41.5978 21.8188 42.3106 22.5866 43.2C22.5731 42.6166 22.7604 42.0458 23.1183 41.58C23.432 41.1451 23.7949 40.7466 24.2 40.392L26.8766 39.708L30.1766 42.156L32.01 42.3C32.01 42.3 29.205 42.3 32.175 42.21C34.033 42.2613 35.8416 41.6179 37.235 40.41C37.4401 40.2299 37.5717 39.9829 37.6054 39.7148C37.6392 39.4466 37.5727 39.1756 37.4183 38.952C37.1433 38.628 36.7766 38.502 36.0433 38.952C34.8883 39.636 33.385 42.192 32.0466 42.246C31.2033 42.246 24.97 40.248 23.98 40.446C22 40.914 19.9466 41.724 17.82 40.752C17.005 40.456 16.2842 39.9538 15.7304 39.2964C15.1767 38.6389 14.8097 37.8495 14.6666 37.008C14.5566 35.514 15.6383 34.236 15.565 33.408C15.4916 32.58 11.715 30.6 12.65 26.406C13.585 22.212 19.4333 21.006 21.8166 21.258C24.2 21.51 27.6466 22.428 27.7383 24.858C27.83 27.288 25.5016 28.224 25.4283 28.458C25.355 28.692 26.125 29.106 26.3816 30.258C26.451 31.1268 26.2598 31.9966 25.8316 32.76C26.3615 32.8219 26.8837 32.9365 27.39 33.102C28.0683 33.372 28.655 33.912 28.7283 33.876C27.9628 32.3589 27.3842 30.7576 27.005 29.106C26.8955 28.127 27.1404 27.1413 27.6969 26.3219C28.2533 25.5024 29.0858 24.9013 30.0483 24.624C32.395 23.94 35.1083 25.11 35.5483 26.424C35.9883 27.738 35.9333 28.962 37.1616 30.024C37.3799 30.2047 37.6329 30.3404 37.9057 30.4231C38.1785 30.5057 38.4654 30.5336 38.7494 30.505C39.0334 30.4765 39.3087 30.3921 39.5587 30.2569C39.8088 30.1216 40.0286 29.9384 40.205 29.718C40.59 29.16 40.8283 27.324 40.0766 27.702C39.1749 28.1659 38.1307 28.2877 37.1433 28.044C35.0533 27.504 34.705 24.12 33.4766 23.49C32.2483 22.86 27.6833 23.094 26.6933 22.878C25.7033 22.662 19.8733 21.186 17.9666 17.19C16.7619 15.0134 16.1316 12.5752 16.1333 10.098C15.895 8.62197 19.635 8.69397 19.6533 10.206Z" fill="currentColor"/>
</g>
<defs>
<clipPath id="clip0_1116_9746">
<rect width="55" height="54" fill="currentColor"/>
</clipPath>
</defs>
</svg>
