<?xml version="1.0" encoding="UTF-8" standalone="no"?>
<!DOCTYPE svg PUBLIC "-//W3C//DTD SVG 1.1//EN"
 "http://www.w3.org/Graphics/SVG/1.1/DTD/svg11.dtd">
<!-- Generated by graphviz version 2.47.0 (20210316.0004)
 -->
<!-- Title: dependencies Pages: 1 -->
<svg width="1824pt" height="284pt"
 viewBox="0.00 0.00 1824.00 284.00" xmlns="http://www.w3.org/2000/svg" xmlns:xlink="http://www.w3.org/1999/xlink">
<g id="graph0" class="graph" transform="scale(1 1) rotate(0) translate(4 280)">
<title>dependencies</title>
<polygon fill="white" stroke="transparent" points="-4,4 -4,-280 1820,-280 1820,4 -4,4"/>
<text text-anchor="start" x="887.01" y="-42.4" font-family="Times-12" font-weight="bold" font-size="14.00">Legend</text>
<polygon fill="#ffffb3" stroke="transparent" points="674,-10 674,-30 694,-30 694,-10 674,-10"/>
<text text-anchor="start" x="697.63" y="-15.4" font-family="Times-12" font-size="14.00"> &#160;Declarations</text>
<polygon fill="#8dd3c7" stroke="transparent" points="787,-10 787,-30 807,-30 807,-10 787,-10"/>
<text text-anchor="start" x="810.73" y="-15.4" font-family="Times-12" font-size="14.00"> &#160;Module</text>
<polygon fill="#80b1d3" stroke="transparent" points="873,-10 873,-30 893,-30 893,-10 873,-10"/>
<text text-anchor="start" x="896.78" y="-15.4" font-family="Times-12" font-size="14.00"> &#160;Bootstrap</text>
<polygon fill="#fdb462" stroke="transparent" points="970,-10 970,-30 990,-30 990,-10 970,-10"/>
<text text-anchor="start" x="993.67" y="-15.4" font-family="Times-12" font-size="14.00"> &#160;Providers</text>
<polygon fill="#fb8072" stroke="transparent" points="1066,-10 1066,-30 1086,-30 1086,-10 1066,-10"/>
<text text-anchor="start" x="1089.73" y="-15.4" font-family="Times-12" font-size="14.00"> &#160;Exports</text>
<g id="clust1" class="cluster">
<title>cluster_RootModule</title>
<polygon fill="none" stroke="black" stroke-dasharray="1,5" points="8,-70 8,-268 1808,-268 1808,-70 8,-70"/>
</g>
<g id="clust4" class="cluster">
<title>cluster_RootModule_imports</title>
<polygon fill="none" stroke="black" points="148,-78 148,-130 1800,-130 1800,-78 148,-78"/>
</g>
<g id="clust5" class="cluster">
<title>cluster_RootModule_exports</title>
<polygon fill="none" stroke="black" points="858,-208 858,-260 986,-260 986,-208 858,-208"/>
</g>
<g id="clust2" class="cluster">
<title>cluster_RootModule_declarations</title>
<polygon fill="none" stroke="black" points="16,-78 16,-130 140,-130 140,-78 16,-78"/>
</g>
<!-- RootComponent -->
<g id="node1" class="node">
<title>RootComponent</title>
<polygon fill="#ffffb3" stroke="black" points="132.06,-122 23.94,-122 23.94,-86 132.06,-86 132.06,-122"/>
<text text-anchor="middle" x="78" y="-99.8" font-family="Times,serif" font-size="14.00">RootComponent</text>
</g>
<!-- RootModule -->
<g id="node2" class="node">
<title>RootModule</title>
<polygon fill="#8dd3c7" stroke="black" points="965.28,-187 962.28,-191 941.28,-191 938.28,-187 878.72,-187 878.72,-151 965.28,-151 965.28,-187"/>
<text text-anchor="middle" x="922" y="-164.8" font-family="Times,serif" font-size="14.00">RootModule</text>
</g>
<!-- RootComponent&#45;&gt;RootModule -->
<g id="edge1" class="edge">
<title>RootComponent&#45;&gt;RootModule</title>
<path fill="none" stroke="black" d="M78,-122.09C78,-145.13 78,-182 78,-182 78,-182 868.69,-182 868.69,-182"/>
<polygon fill="black" stroke="black" points="868.69,-185.5 878.69,-182 868.69,-178.5 868.69,-185.5"/>
</g>
<!-- RootComponent  -->
<g id="node16" class="node">
<title>RootComponent </title>
<polygon fill="#fb8072" stroke="black" points="978.06,-252 865.94,-252 865.94,-216 978.06,-216 978.06,-252"/>
<text text-anchor="middle" x="922" y="-229.8" font-family="Times,serif" font-size="14.00">RootComponent </text>
</g>
<!-- RootModule&#45;&gt;RootComponent  -->
<g id="edge15" class="edge">
<title>RootModule&#45;&gt;RootComponent </title>
<path fill="none" stroke="black" stroke-dasharray="5,2" d="M922,-187.11C922,-187.11 922,-205.99 922,-205.99"/>
<polygon fill="black" stroke="black" points="918.5,-205.99 922,-215.99 925.5,-205.99 918.5,-205.99"/>
</g>
<!-- CompareModule -->
<g id="node3" class="node">
<title>CompareModule</title>
<polygon fill="#8dd3c7" stroke="black" points="1792.37,-122 1789.37,-126 1768.37,-126 1765.37,-122 1681.63,-122 1681.63,-86 1792.37,-86 1792.37,-122"/>
<text text-anchor="middle" x="1737" y="-99.8" font-family="Times,serif" font-size="14.00">CompareModule</text>
</g>
<!-- CompareModule&#45;&gt;RootModule -->
<g id="edge2" class="edge">
<title>CompareModule&#45;&gt;RootModule</title>
<path fill="none" stroke="black" d="M1737,-122.09C1737,-145.13 1737,-182 1737,-182 1737,-182 975.53,-182 975.53,-182"/>
<polygon fill="black" stroke="black" points="975.53,-178.5 965.53,-182 975.53,-185.5 975.53,-178.5"/>
</g>
<!-- ControlPaneModule -->
<g id="node4" class="node">
<title>ControlPaneModule</title>
<polygon fill="#8dd3c7" stroke="black" points="1663.54,-122 1660.54,-126 1639.54,-126 1636.54,-122 1534.46,-122 1534.46,-86 1663.54,-86 1663.54,-122"/>
<text text-anchor="middle" x="1599" y="-99.8" font-family="Times,serif" font-size="14.00">ControlPaneModule</text>
</g>
<!-- ControlPaneModule&#45;&gt;RootModule -->
<g id="edge3" class="edge">
<title>ControlPaneModule&#45;&gt;RootModule</title>
<path fill="none" stroke="black" d="M1599,-122.04C1599,-143.66 1599,-177 1599,-177 1599,-177 975.38,-177 975.38,-177"/>
<polygon fill="black" stroke="black" points="975.38,-173.5 965.38,-177 975.38,-180.5 975.38,-173.5"/>
</g>
<!-- DebugLogsModule -->
<g id="node5" class="node">
<title>DebugLogsModule</title>
<polygon fill="#8dd3c7" stroke="black" points="1516.37,-122 1513.37,-126 1492.37,-126 1489.37,-122 1391.63,-122 1391.63,-86 1516.37,-86 1516.37,-122"/>
<text text-anchor="middle" x="1454" y="-99.8" font-family="Times,serif" font-size="14.00">DebugLogsModule</text>
</g>
<!-- DebugLogsModule&#45;&gt;RootModule -->
<g id="edge4" class="edge">
<title>DebugLogsModule&#45;&gt;RootModule</title>
<path fill="none" stroke="black" d="M1454,-122.22C1454,-142.37 1454,-172 1454,-172 1454,-172 975.54,-172 975.54,-172"/>
<polygon fill="black" stroke="black" points="975.54,-168.5 965.54,-172 975.54,-175.5 975.54,-168.5"/>
</g>
<!-- DoiModule -->
<g id="node6" class="node">
<title>DoiModule</title>
<polygon fill="#8dd3c7" stroke="black" points="1373.05,-122 1370.05,-126 1349.05,-126 1346.05,-122 1292.95,-122 1292.95,-86 1373.05,-86 1373.05,-122"/>
<text text-anchor="middle" x="1333" y="-99.8" font-family="Times,serif" font-size="14.00">DoiModule</text>
</g>
<!-- DoiModule&#45;&gt;RootModule -->
<g id="edge5" class="edge">
<title>DoiModule&#45;&gt;RootModule</title>
<path fill="none" stroke="black" d="M1333,-122.22C1333,-140.83 1333,-167 1333,-167 1333,-167 975.6,-167 975.6,-167"/>
<polygon fill="black" stroke="black" points="975.6,-163.5 965.6,-167 975.6,-170.5 975.6,-163.5"/>
</g>
<!-- ErrorModule -->
<g id="node7" class="node">
<title>ErrorModule</title>
<polygon fill="#8dd3c7" stroke="black" points="1274.58,-122 1271.58,-126 1250.58,-126 1247.58,-122 1185.42,-122 1185.42,-86 1274.58,-86 1274.58,-122"/>
<text text-anchor="middle" x="1230" y="-99.8" font-family="Times,serif" font-size="14.00">ErrorModule</text>
</g>
<!-- ErrorModule&#45;&gt;RootModule -->
<g id="edge6" class="edge">
<title>ErrorModule&#45;&gt;RootModule</title>
<path fill="none" stroke="black" d="M1230,-122.03C1230,-139.06 1230,-162 1230,-162 1230,-162 975.48,-162 975.48,-162"/>
<polygon fill="black" stroke="black" points="975.48,-158.5 965.48,-162 975.48,-165.5 975.48,-158.5"/>
</g>
<!-- IndentedListModule -->
<g id="node8" class="node">
<title>IndentedListModule</title>
<polygon fill="#8dd3c7" stroke="black" points="1167.31,-122 1164.31,-126 1143.31,-126 1140.31,-122 1036.69,-122 1036.69,-86 1167.31,-86 1167.31,-122"/>
<text text-anchor="middle" x="1102" y="-99.8" font-family="Times,serif" font-size="14.00">IndentedListModule</text>
</g>
<!-- IndentedListModule&#45;&gt;RootModule -->
<g id="edge7" class="edge">
<title>IndentedListModule&#45;&gt;RootModule</title>
<path fill="none" stroke="black" d="M1102,-122.24C1102,-137.57 1102,-157 1102,-157 1102,-157 975.57,-157 975.57,-157"/>
<polygon fill="black" stroke="black" points="975.57,-153.5 965.57,-157 975.57,-160.5 975.57,-153.5"/>
</g>
<!-- InfoModule -->
<g id="node9" class="node">
<title>InfoModule</title>
<polygon fill="#8dd3c7" stroke="black" points="1018.37,-122 1015.37,-126 994.37,-126 991.37,-122 935.63,-122 935.63,-86 1018.37,-86 1018.37,-122"/>
<text text-anchor="middle" x="977" y="-99.8" font-family="Times,serif" font-size="14.00">InfoModule</text>
</g>
<!-- InfoModule&#45;&gt;RootModule -->
<g id="edge8" class="edge">
<title>InfoModule&#45;&gt;RootModule</title>
<path fill="none" stroke="black" d="M950.48,-122.11C950.48,-122.11 950.48,-140.99 950.48,-140.99"/>
<polygon fill="black" stroke="black" points="946.98,-140.99 950.48,-150.99 953.98,-140.99 946.98,-140.99"/>
</g>
<!-- LegendModule -->
<g id="node10" class="node">
<title>LegendModule</title>
<polygon fill="#8dd3c7" stroke="black" points="917.53,-122 914.53,-126 893.53,-126 890.53,-122 816.47,-122 816.47,-86 917.53,-86 917.53,-122"/>
<text text-anchor="middle" x="867" y="-99.8" font-family="Times,serif" font-size="14.00">LegendModule</text>
</g>
<!-- LegendModule&#45;&gt;RootModule -->
<g id="edge9" class="edge">
<title>LegendModule&#45;&gt;RootModule</title>
<path fill="none" stroke="black" d="M898.19,-122.11C898.19,-122.11 898.19,-140.99 898.19,-140.99"/>
<polygon fill="black" stroke="black" points="894.69,-140.99 898.19,-150.99 901.69,-140.99 894.69,-140.99"/>
</g>
<!-- NavbarModule -->
<g id="node11" class="node">
<title>NavbarModule</title>
<polygon fill="#8dd3c7" stroke="black" points="798.25,-122 795.25,-126 774.25,-126 771.25,-122 697.75,-122 697.75,-86 798.25,-86 798.25,-122"/>
<text text-anchor="middle" x="748" y="-99.8" font-family="Times,serif" font-size="14.00">NavbarModule</text>
</g>
<!-- NavbarModule&#45;&gt;RootModule -->
<g id="edge10" class="edge">
<title>NavbarModule&#45;&gt;RootModule</title>
<path fill="none" stroke="black" d="M748,-122.24C748,-137.57 748,-157 748,-157 748,-157 868.54,-157 868.54,-157"/>
<polygon fill="black" stroke="black" points="868.54,-160.5 878.54,-157 868.54,-153.5 868.54,-160.5"/>
</g>
<!-- PlaygroundModule -->
<g id="node12" class="node">
<title>PlaygroundModule</title>
<polygon fill="#8dd3c7" stroke="black" points="680.1,-122 677.1,-126 656.1,-126 653.1,-122 555.9,-122 555.9,-86 680.1,-86 680.1,-122"/>
<text text-anchor="middle" x="618" y="-99.8" font-family="Times,serif" font-size="14.00">PlaygroundModule</text>
</g>
<!-- PlaygroundModule&#45;&gt;RootModule -->
<g id="edge11" class="edge">
<title>PlaygroundModule&#45;&gt;RootModule</title>
<path fill="none" stroke="black" d="M618,-122.03C618,-139.06 618,-162 618,-162 618,-162 868.44,-162 868.44,-162"/>
<polygon fill="black" stroke="black" points="868.44,-165.5 878.44,-162 868.44,-158.5 868.44,-165.5"/>
</g>
<!-- ReportModule -->
<g id="node13" class="node">
<title>ReportModule</title>
<polygon fill="#8dd3c7" stroke="black" points="537.65,-122 534.65,-126 513.65,-126 510.65,-122 440.35,-122 440.35,-86 537.65,-86 537.65,-122"/>
<text text-anchor="middle" x="489" y="-99.8" font-family="Times,serif" font-size="14.00">ReportModule</text>
</g>
<!-- ReportModule&#45;&gt;RootModule -->
<g id="edge12" class="edge">
<title>ReportModule&#45;&gt;RootModule</title>
<path fill="none" stroke="black" d="M489,-122.22C489,-140.83 489,-167 489,-167 489,-167 868.5,-167 868.5,-167"/>
<polygon fill="black" stroke="black" points="868.5,-170.5 878.5,-167 868.5,-163.5 868.5,-170.5"/>
</g>
<!-- TableNestedMenuModule -->
<g id="node14" class="node">
<title>TableNestedMenuModule</title>
<polygon fill="#8dd3c7" stroke="black" points="422.45,-122 419.45,-126 398.45,-126 395.45,-122 259.55,-122 259.55,-86 422.45,-86 422.45,-122"/>
<text text-anchor="middle" x="341" y="-99.8" font-family="Times,serif" font-size="14.00">TableNestedMenuModule</text>
</g>
<!-- TableNestedMenuModule&#45;&gt;RootModule -->
<g id="edge13" class="edge">
<title>TableNestedMenuModule&#45;&gt;RootModule</title>
<path fill="none" stroke="black" d="M341,-122.22C341,-142.37 341,-172 341,-172 341,-172 868.33,-172 868.33,-172"/>
<polygon fill="black" stroke="black" points="868.33,-175.5 878.33,-172 868.33,-168.5 868.33,-175.5"/>
</g>
<!-- TreeModule -->
<g id="node15" class="node">
<title>TreeModule</title>
<polygon fill="#8dd3c7" stroke="black" points="241.69,-122 238.69,-126 217.69,-126 214.69,-122 156.31,-122 156.31,-86 241.69,-86 241.69,-122"/>
<text text-anchor="middle" x="199" y="-99.8" font-family="Times,serif" font-size="14.00">TreeModule</text>
</g>
<!-- TreeModule&#45;&gt;RootModule -->
<g id="edge14" class="edge">
<title>TreeModule&#45;&gt;RootModule</title>
<path fill="none" stroke="black" d="M199,-122.04C199,-143.66 199,-177 199,-177 199,-177 868.67,-177 868.67,-177"/>
<polygon fill="black" stroke="black" points="868.67,-180.5 878.67,-177 868.67,-173.5 868.67,-180.5"/>
</g>
</g>
</svg>
