<?xml version="1.0" encoding="UTF-8" standalone="no"?>
<!DOCTYPE svg PUBLIC "-//W3C//DTD SVG 1.1//EN"
 "http://www.w3.org/Graphics/SVG/1.1/DTD/svg11.dtd">
<!-- Generated by graphviz version 2.47.0 (20210316.0004)
 -->
<!-- Title: dependencies Pages: 1 -->
<svg width="1824pt" height="284pt"
 viewBox="0.00 0.00 1824.00 284.00" xmlns="http://www.w3.org/2000/svg" xmlns:xlink="http://www.w3.org/1999/xlink">
<g id="graph0" class="graph" transform="scale(1 1) rotate(0) translate(4 280)">
<title>dependencies</title>
<polygon fill="white" stroke="transparent" points="-4,4 -4,-280 1820,-280 1820,4 -4,4"/>
<text text-anchor="start" x="887.01" y="-42.4" font-family="Times-12" font-weight="bold" font-size="14.00">Legend</text>
<polygon fill="#ffffb3" stroke="transparent" points="674,-10 674,-30 694,-30 694,-10 674,-10"/>
<text text-anchor="start" x="697.63" y="-15.4" font-family="Times-12" font-size="14.00"> &#160;Declarations</text>
<polygon fill="#8dd3c7" stroke="transparent" points="787,-10 787,-30 807,-30 807,-10 787,-10"/>
<text text-anchor="start" x="810.73" y="-15.4" font-family="Times-12" font-size="14.00"> &#160;Module</text>
<polygon fill="#80b1d3" stroke="transparent" points="873,-10 873,-30 893,-30 893,-10 873,-10"/>
<text text-anchor="start" x="896.78" y="-15.4" font-family="Times-12" font-size="14.00"> &#160;Bootstrap</text>
<polygon fill="#fdb462" stroke="transparent" points="970,-10 970,-30 990,-30 990,-10 970,-10"/>
<text text-anchor="start" x="993.67" y="-15.4" font-family="Times-12" font-size="14.00"> &#160;Providers</text>
<polygon fill="#fb8072" stroke="transparent" points="1066,-10 1066,-30 1086,-30 1086,-10 1066,-10"/>
<text text-anchor="start" x="1089.73" y="-15.4" font-family="Times-12" font-size="14.00"> &#160;Exports</text>
<g id="clust1" class="cluster">
<title>cluster_RootModule</title>
<polygon fill="none" stroke="black" stroke-dasharray="1,5" points="8,-70 8,-268 1808,-268 1808,-70 8,-70"/>
</g>
<g id="clust2" class="cluster">
<title>cluster_RootModule_declarations</title>
<polygon fill="none" stroke="black" points="1676,-78 1676,-130 1800,-130 1800,-78 1676,-78"/>
</g>
<g id="clust4" class="cluster">
<title>cluster_RootModule_imports</title>
<polygon fill="none" stroke="black" points="16,-78 16,-130 1668,-130 1668,-78 16,-78"/>
</g>
<g id="clust5" class="cluster">
<title>cluster_RootModule_exports</title>
<polygon fill="none" stroke="black" points="843,-208 843,-260 971,-260 971,-208 843,-208"/>
</g>
<!-- RootComponent -->
<g id="node1" class="node">
<title>RootComponent</title>
<polygon fill="#ffffb3" stroke="black" points="1792.06,-122 1683.94,-122 1683.94,-86 1792.06,-86 1792.06,-122"/>
<text text-anchor="middle" x="1738" y="-99.8" font-family="Times,serif" font-size="14.00">RootComponent</text>
</g>
<!-- RootModule -->
<g id="node2" class="node">
<title>RootModule</title>
<polygon fill="#8dd3c7" stroke="black" points="950.28,-187 947.28,-191 926.28,-191 923.28,-187 863.72,-187 863.72,-151 950.28,-151 950.28,-187"/>
<text text-anchor="middle" x="907" y="-164.8" font-family="Times,serif" font-size="14.00">RootModule</text>
</g>
<!-- RootComponent&#45;&gt;RootModule -->
<g id="edge1" class="edge">
<title>RootComponent&#45;&gt;RootModule</title>
<path fill="none" stroke="black" d="M1738,-122.09C1738,-145.13 1738,-182 1738,-182 1738,-182 960.51,-182 960.51,-182"/>
<polygon fill="black" stroke="black" points="960.51,-178.5 950.51,-182 960.51,-185.5 960.51,-178.5"/>
</g>
<!-- RootComponent  -->
<g id="node16" class="node">
<title>RootComponent </title>
<polygon fill="#fb8072" stroke="black" points="963.06,-252 850.94,-252 850.94,-216 963.06,-216 963.06,-252"/>
<text text-anchor="middle" x="907" y="-229.8" font-family="Times,serif" font-size="14.00">RootComponent </text>
</g>
<!-- RootModule&#45;&gt;RootComponent  -->
<g id="edge15" class="edge">
<title>RootModule&#45;&gt;RootComponent </title>
<path fill="none" stroke="black" stroke-dasharray="5,2" d="M907,-187.11C907,-187.11 907,-205.99 907,-205.99"/>
<polygon fill="black" stroke="black" points="903.5,-205.99 907,-215.99 910.5,-205.99 903.5,-205.99"/>
</g>
<!-- CompareModule -->
<g id="node3" class="node">
<title>CompareModule</title>
<polygon fill="#8dd3c7" stroke="black" points="1660.37,-122 1657.37,-126 1636.37,-126 1633.37,-122 1549.63,-122 1549.63,-86 1660.37,-86 1660.37,-122"/>
<text text-anchor="middle" x="1605" y="-99.8" font-family="Times,serif" font-size="14.00">CompareModule</text>
</g>
<!-- CompareModule&#45;&gt;RootModule -->
<g id="edge2" class="edge">
<title>CompareModule&#45;&gt;RootModule</title>
<path fill="none" stroke="black" d="M1605,-122.04C1605,-143.66 1605,-177 1605,-177 1605,-177 960.4,-177 960.4,-177"/>
<polygon fill="black" stroke="black" points="960.4,-173.5 950.4,-177 960.4,-180.5 960.4,-173.5"/>
</g>
<!-- ControlPaneModule -->
<g id="node4" class="node">
<title>ControlPaneModule</title>
<polygon fill="#8dd3c7" stroke="black" points="1531.54,-122 1528.54,-126 1507.54,-126 1504.54,-122 1402.46,-122 1402.46,-86 1531.54,-86 1531.54,-122"/>
<text text-anchor="middle" x="1467" y="-99.8" font-family="Times,serif" font-size="14.00">ControlPaneModule</text>
</g>
<!-- ControlPaneModule&#45;&gt;RootModule -->
<g id="edge3" class="edge">
<title>ControlPaneModule&#45;&gt;RootModule</title>
<path fill="none" stroke="black" d="M1467,-122.22C1467,-142.37 1467,-172 1467,-172 1467,-172 960.48,-172 960.48,-172"/>
<polygon fill="black" stroke="black" points="960.48,-168.5 950.48,-172 960.48,-175.5 960.48,-168.5"/>
</g>
<!-- DebugLogsModule -->
<g id="node5" class="node">
<title>DebugLogsModule</title>
<polygon fill="#8dd3c7" stroke="black" points="1384.37,-122 1381.37,-126 1360.37,-126 1357.37,-122 1259.63,-122 1259.63,-86 1384.37,-86 1384.37,-122"/>
<text text-anchor="middle" x="1322" y="-99.8" font-family="Times,serif" font-size="14.00">DebugLogsModule</text>
</g>
<!-- DebugLogsModule&#45;&gt;RootModule -->
<g id="edge4" class="edge">
<title>DebugLogsModule&#45;&gt;RootModule</title>
<path fill="none" stroke="black" d="M1322,-122.22C1322,-140.83 1322,-167 1322,-167 1322,-167 960.63,-167 960.63,-167"/>
<polygon fill="black" stroke="black" points="960.63,-163.5 950.63,-167 960.63,-170.5 960.63,-163.5"/>
</g>
<!-- DoiModule -->
<g id="node6" class="node">
<title>DoiModule</title>
<polygon fill="#8dd3c7" stroke="black" points="1241.05,-122 1238.05,-126 1217.05,-126 1214.05,-122 1160.95,-122 1160.95,-86 1241.05,-86 1241.05,-122"/>
<text text-anchor="middle" x="1201" y="-99.8" font-family="Times,serif" font-size="14.00">DoiModule</text>
</g>
<!-- DoiModule&#45;&gt;RootModule -->
<g id="edge5" class="edge">
<title>DoiModule&#45;&gt;RootModule</title>
<path fill="none" stroke="black" d="M1201,-122.03C1201,-139.06 1201,-162 1201,-162 1201,-162 960.38,-162 960.38,-162"/>
<polygon fill="black" stroke="black" points="960.38,-158.5 950.38,-162 960.38,-165.5 960.38,-158.5"/>
</g>
<!-- ErrorModule -->
<g id="node7" class="node">
<title>ErrorModule</title>
<polygon fill="#8dd3c7" stroke="black" points="1142.58,-122 1139.58,-126 1118.58,-126 1115.58,-122 1053.42,-122 1053.42,-86 1142.58,-86 1142.58,-122"/>
<text text-anchor="middle" x="1098" y="-99.8" font-family="Times,serif" font-size="14.00">ErrorModule</text>
</g>
<!-- ErrorModule&#45;&gt;RootModule -->
<g id="edge6" class="edge">
<title>ErrorModule&#45;&gt;RootModule</title>
<path fill="none" stroke="black" d="M1098,-122.24C1098,-137.57 1098,-157 1098,-157 1098,-157 960.34,-157 960.34,-157"/>
<polygon fill="black" stroke="black" points="960.34,-153.5 950.34,-157 960.34,-160.5 960.34,-153.5"/>
</g>
<!-- IndentedListModule -->
<g id="node8" class="node">
<title>IndentedListModule</title>
<polygon fill="#8dd3c7" stroke="black" points="1035.31,-122 1032.31,-126 1011.31,-126 1008.31,-122 904.69,-122 904.69,-86 1035.31,-86 1035.31,-122"/>
<text text-anchor="middle" x="970" y="-99.8" font-family="Times,serif" font-size="14.00">IndentedListModule</text>
</g>
<!-- IndentedListModule&#45;&gt;RootModule -->
<g id="edge7" class="edge">
<title>IndentedListModule&#45;&gt;RootModule</title>
<path fill="none" stroke="black" d="M927.62,-122.11C927.62,-122.11 927.62,-140.99 927.62,-140.99"/>
<polygon fill="black" stroke="black" points="924.12,-140.99 927.62,-150.99 931.12,-140.99 924.12,-140.99"/>
</g>
<!-- InfoModule -->
<g id="node9" class="node">
<title>InfoModule</title>
<polygon fill="#8dd3c7" stroke="black" points="886.37,-122 883.37,-126 862.37,-126 859.37,-122 803.63,-122 803.63,-86 886.37,-86 886.37,-122"/>
<text text-anchor="middle" x="845" y="-99.8" font-family="Times,serif" font-size="14.00">InfoModule</text>
</g>
<!-- InfoModule&#45;&gt;RootModule -->
<g id="edge8" class="edge">
<title>InfoModule&#45;&gt;RootModule</title>
<path fill="none" stroke="black" d="M875.02,-122.11C875.02,-122.11 875.02,-140.99 875.02,-140.99"/>
<polygon fill="black" stroke="black" points="871.52,-140.99 875.02,-150.99 878.52,-140.99 871.52,-140.99"/>
</g>
<!-- LegendModule -->
<g id="node10" class="node">
<title>LegendModule</title>
<polygon fill="#8dd3c7" stroke="black" points="785.53,-122 782.53,-126 761.53,-126 758.53,-122 684.47,-122 684.47,-86 785.53,-86 785.53,-122"/>
<text text-anchor="middle" x="735" y="-99.8" font-family="Times,serif" font-size="14.00">LegendModule</text>
</g>
<!-- LegendModule&#45;&gt;RootModule -->
<g id="edge9" class="edge">
<title>LegendModule&#45;&gt;RootModule</title>
<path fill="none" stroke="black" d="M735,-122.24C735,-137.57 735,-157 735,-157 735,-157 853.6,-157 853.6,-157"/>
<polygon fill="black" stroke="black" points="853.6,-160.5 863.6,-157 853.6,-153.5 853.6,-160.5"/>
</g>
<!-- NavbarModule -->
<g id="node11" class="node">
<title>NavbarModule</title>
<polygon fill="#8dd3c7" stroke="black" points="666.25,-122 663.25,-126 642.25,-126 639.25,-122 565.75,-122 565.75,-86 666.25,-86 666.25,-122"/>
<text text-anchor="middle" x="616" y="-99.8" font-family="Times,serif" font-size="14.00">NavbarModule</text>
</g>
<!-- NavbarModule&#45;&gt;RootModule -->
<g id="edge10" class="edge">
<title>NavbarModule&#45;&gt;RootModule</title>
<path fill="none" stroke="black" d="M616,-122.03C616,-139.06 616,-162 616,-162 616,-162 853.43,-162 853.43,-162"/>
<polygon fill="black" stroke="black" points="853.43,-165.5 863.43,-162 853.43,-158.5 853.43,-165.5"/>
</g>
<!-- PlaygroundModule -->
<g id="node12" class="node">
<title>PlaygroundModule</title>
<polygon fill="#8dd3c7" stroke="black" points="548.1,-122 545.1,-126 524.1,-126 521.1,-122 423.9,-122 423.9,-86 548.1,-86 548.1,-122"/>
<text text-anchor="middle" x="486" y="-99.8" font-family="Times,serif" font-size="14.00">PlaygroundModule</text>
</g>
<!-- PlaygroundModule&#45;&gt;RootModule -->
<g id="edge11" class="edge">
<title>PlaygroundModule&#45;&gt;RootModule</title>
<path fill="none" stroke="black" d="M486,-122.22C486,-140.83 486,-167 486,-167 486,-167 853.53,-167 853.53,-167"/>
<polygon fill="black" stroke="black" points="853.53,-170.5 863.53,-167 853.53,-163.5 853.53,-170.5"/>
</g>
<!-- ReportModule -->
<g id="node13" class="node">
<title>ReportModule</title>
<polygon fill="#8dd3c7" stroke="black" points="405.65,-122 402.65,-126 381.65,-126 378.65,-122 308.35,-122 308.35,-86 405.65,-86 405.65,-122"/>
<text text-anchor="middle" x="357" y="-99.8" font-family="Times,serif" font-size="14.00">ReportModule</text>
</g>
<!-- ReportModule&#45;&gt;RootModule -->
<g id="edge12" class="edge">
<title>ReportModule&#45;&gt;RootModule</title>
<path fill="none" stroke="black" d="M357,-122.22C357,-142.37 357,-172 357,-172 357,-172 853.38,-172 853.38,-172"/>
<polygon fill="black" stroke="black" points="853.38,-175.5 863.38,-172 853.38,-168.5 853.38,-175.5"/>
</g>
<!-- TableNestedMenuModule -->
<g id="node14" class="node">
<title>TableNestedMenuModule</title>
<polygon fill="#8dd3c7" stroke="black" points="290.45,-122 287.45,-126 266.45,-126 263.45,-122 127.55,-122 127.55,-86 290.45,-86 290.45,-122"/>
<text text-anchor="middle" x="209" y="-99.8" font-family="Times,serif" font-size="14.00">TableNestedMenuModule</text>
</g>
<!-- TableNestedMenuModule&#45;&gt;RootModule -->
<g id="edge13" class="edge">
<title>TableNestedMenuModule&#45;&gt;RootModule</title>
<path fill="none" stroke="black" d="M209,-122.04C209,-143.66 209,-177 209,-177 209,-177 853.6,-177 853.6,-177"/>
<polygon fill="black" stroke="black" points="853.6,-180.5 863.6,-177 853.6,-173.5 853.6,-180.5"/>
</g>
<!-- TreeModule -->
<g id="node15" class="node">
<title>TreeModule</title>
<polygon fill="#8dd3c7" stroke="black" points="109.69,-122 106.69,-126 85.69,-126 82.69,-122 24.31,-122 24.31,-86 109.69,-86 109.69,-122"/>
<text text-anchor="middle" x="67" y="-99.8" font-family="Times,serif" font-size="14.00">TreeModule</text>
</g>
<!-- TreeModule&#45;&gt;RootModule -->
<g id="edge14" class="edge">
<title>TreeModule&#45;&gt;RootModule</title>
<path fill="none" stroke="black" d="M67,-122.09C67,-145.13 67,-182 67,-182 67,-182 853.61,-182 853.61,-182"/>
<polygon fill="black" stroke="black" points="853.61,-185.5 863.61,-182 853.61,-178.5 853.61,-185.5"/>
</g>
</g>
</svg>
