<svg width="24" height="24" viewBox="0 0 24 24" fill="none" xmlns="http://www.w3.org/2000/svg">
<path d="M12.4573 22.0382C11.8007 22.0382 11.1527 21.9691 10.5047 21.8223C7.74012 21.2089 5.55433 19.36 4.34481 16.604C2.65148 12.7335 1.18277 9.39007 4.4312 6.02069C7.671 2.6513 9.42481 2.47851 12.9152 2.12429L13.7445 2.0379C18.1247 1.57137 19.9995 5.48504 21.3732 9.77021C22.6605 13.7789 20.8462 17.684 18.479 19.7661C16.8115 21.2348 14.6517 22.0296 12.4573 22.0296V22.0382ZM13.8309 2.90184L12.9929 2.98824C9.51121 3.34245 8.06842 3.48933 5.04461 6.62545C2.34046 9.43327 3.31672 12.1201 5.131 16.2584C6.22821 18.7552 8.19801 20.4313 10.6862 20.9842C13.2003 21.5372 15.9735 20.8287 17.9001 19.1267C20.06 17.2261 21.7101 13.6839 20.5438 10.0467C18.79 4.5779 16.8979 2.59082 13.8223 2.91048L13.8309 2.90184Z" fill="white"/>
<path d="M12.2727 5.01834C13.8451 4.6382 15.357 4.44813 16.2641 5.7095C16.2641 5.7095 19.4693 9.74412 19.2188 12.0336C18.9683 14.323 15.2533 12.1891 14.6226 9.89099C13.9919 7.5929 14.0956 7.2214 12.1258 6.68575C10.156 6.15011 10.6917 5.39847 12.264 5.01834H12.2727ZM15.884 8.50868C16.1345 9.4331 17.1885 10.1415 17.5255 9.92555C17.8624 9.70956 17.5946 8.43956 16.8775 7.72249C16.7738 7.61882 16.3505 7.19548 16.0654 7.31643C15.7803 7.43739 15.763 8.06807 15.884 8.50868Z" fill="white"/>
<path d="M11.9124 17.9174C12.69 17.5027 14.3229 17.2176 15.0313 16.682C15.7397 16.1463 16.3704 14.4185 16.8715 14.0556C17.3726 13.6927 18.1847 13.304 18.8154 13.5804C18.8154 13.5804 19.2301 14.3839 18.8154 15.5848C18.4007 16.777 16.0076 18.9369 14.9017 19.2047C13.7959 19.4725 11.4027 20.2242 10.5388 19.4466C9.67483 18.6691 11.1349 18.3408 11.9124 17.9261V17.9174ZM15.3078 18.5222C15.5756 18.168 15.4978 17.5027 15.1609 17.2608C14.5561 16.8289 13.1393 17.7706 13.217 18.2457C13.2948 18.695 14.8326 19.1615 15.3078 18.5222Z" fill="white"/>
<path d="M4.66357 10.8754C5.38928 9.55353 5.67438 8.51679 6.52105 7.63557C7.36772 6.75434 8.05887 5.83856 9.97683 5.83856C9.97683 5.83856 11.5147 6.65931 11.4196 7.37638C11.3246 8.1021 8.11935 8.79326 7.77377 10.1756C7.42819 11.5579 7.2986 13.0093 8.30942 14.4521C9.32023 15.8949 11.1691 17.5018 10.2879 18.0029C9.40663 18.504 8.21438 18.0029 6.98758 16.1454C5.76078 14.288 3.93785 12.1799 4.66357 10.8581V10.8754ZM5.58799 11.005C5.73486 11.5233 6.22731 12.0676 6.62472 11.9899C7.24677 11.8775 7.74785 10.2188 7.14309 9.38074C7.07398 9.28571 6.90983 9.06108 6.66792 9.0438C6.12364 9.00924 5.32881 10.0719 5.58799 10.9963V11.005Z" fill="white"/>
</svg>
