<svg width="48" height="48" viewBox="0 0 48 48" fill="none" xmlns="http://www.w3.org/2000/svg">
<g clip-path="url(#clip0_2041_708)">
<mask id="mask0_2041_708" style="mask-type:luminance" maskUnits="userSpaceOnUse" x="1" y="16" width="15" height="16">
<path d="M1 16.1447H15.122V31.508H1V16.1447Z" fill="white"/>
</mask>
<g mask="url(#mask0_2041_708)">
<path fill-rule="evenodd" clip-rule="evenodd" d="M15.122 31.508H12.0751L11.0825 28.3453H5.03892L4.06626 31.508H1L6.35053 16.1447H8.56095C9.31087 16.1447 9.79266 16.3987 9.98876 16.9893C10.1843 17.578 12.6217 24.412 12.6217 24.412H9.77147L8.04103 19.2213L5.84997 25.76H11.9698C12.7905 25.76 13.2414 26.052 13.4587 26.7867L15.122 31.508Z" fill="#E00D3A"/>
</g>
<path fill-rule="evenodd" clip-rule="evenodd" d="M41.8454 31.5087H38.7979L37.8052 28.346H31.7623L30.789 31.5087H27.7234L33.0739 16.1447H35.2843C36.0342 16.1447 36.516 16.3993 36.7115 16.99C36.907 17.5787 39.3444 24.4127 39.3444 24.4127H36.4948L34.7644 19.222L32.5733 25.7607H38.6931C39.5139 25.7607 39.9642 26.0527 40.1821 26.7873L41.9694 31.644M21.2761 28.73C23.9695 28.73 25.1092 27.298 25.1092 23.8367C25.1092 20.418 24.0288 18.8367 21.6308 18.8367H18.9374V28.73H21.2761ZM16.089 16.1447H21.6314C25.956 16.1447 28.0786 18.6447 28.0786 23.8367C28.0786 26.7007 27.2531 28.8593 25.7786 30.1407C24.4029 31.3373 22.8691 31.508 20.8457 31.508H16.0884L16.089 16.1447Z" fill="#E00D3A"/>
<mask id="mask1_2041_708" style="mask-type:luminance" maskUnits="userSpaceOnUse" x="42" y="27" width="5" height="5">
<path d="M42.0264 27.0179H46.4575V31.7213H42.0264V27.0179Z" fill="white"/>
</mask>
<g mask="url(#mask1_2041_708)">
<path fill-rule="evenodd" clip-rule="evenodd" d="M43.9196 29.2626H44.1563C44.4329 29.2626 44.6562 29.1626 44.6562 28.9193C44.6562 28.7046 44.511 28.5619 44.1962 28.5619C44.0643 28.5619 43.9723 28.5766 43.9196 28.5906V29.2626ZM43.9063 30.5773H43.407V28.2473C43.6043 28.2046 43.8803 28.1619 44.2356 28.1619C44.6429 28.1619 44.8269 28.2333 44.9849 28.3473C45.1029 28.4473 45.1949 28.6339 45.1949 28.8473C45.1949 29.1193 45.0109 29.3193 44.7482 29.4053V29.4339C44.9583 29.5053 45.0769 29.6913 45.1429 30.0059C45.2082 30.3633 45.2476 30.5059 45.3002 30.5773H44.7616C44.695 30.4919 44.6562 30.2913 44.5903 30.0199C44.5509 29.7626 44.4196 29.6486 44.143 29.6486H43.9069L43.9063 30.5773ZM44.2356 27.4899C43.2883 27.4899 42.579 28.3333 42.579 29.3626C42.579 30.4059 43.2883 31.2353 44.2616 31.2353C45.2082 31.2493 45.9049 30.4059 45.9049 29.3619C45.9049 28.3333 45.2088 27.4899 44.2483 27.4899H44.2356ZM44.2616 27.0179C45.4976 27.0179 46.4575 28.0619 46.4575 29.3626C46.4575 30.6919 45.4976 31.7213 44.2483 31.7213C43.0123 31.7213 42.0264 30.6919 42.0264 29.3626C42.0264 28.0619 43.0129 27.0179 44.2483 27.0179H44.2616Z" fill="#E00D3A"/>
</g>
</g>
<defs>
<clipPath id="clip0_2041_708">
<rect width="46" height="16" fill="white" transform="translate(1 16)"/>
</clipPath>
</defs>
</svg>
