<svg width="58" height="22" viewBox="0 0 58 22" fill="none" xmlns="http://www.w3.org/2000/svg">
<g clip-path="url(#clip0_771_2849)">
<mask id="mask0_771_2849" style="mask-type:luminance" maskUnits="userSpaceOnUse" x="0" y="0" width="58" height="22">
<path d="M58 0H0V22H58V0Z" fill="white"/>
</mask>
<g mask="url(#mask0_771_2849)">
<path d="M57.9999 15.4533H57.8271C56.843 15.4533 55.8588 15.451 54.8747 15.4564C54.8249 15.4618 54.7747 15.4502 54.7317 15.4232C54.6886 15.3963 54.6549 15.3556 54.6356 15.307C53.7627 13.6337 52.8881 11.9616 52.0118 10.2906C51.9919 10.242 51.9577 10.2015 51.9142 10.1749C51.8707 10.1483 51.8203 10.137 51.7703 10.1427C50.9975 10.1481 50.2246 10.1497 49.4518 10.142C49.2988 10.1405 49.2509 10.1795 49.2515 10.3481C49.2579 11.9715 49.2553 13.5949 49.2553 15.2183V15.4439C49.1949 15.4474 49.1452 15.4528 49.0954 15.453C48.1783 15.453 47.2612 15.4504 46.3441 15.4564C46.2095 15.4574 46.1705 15.4217 46.1707 15.2763C46.1744 10.352 46.1754 5.42763 46.1737 0.503113V0.343379C46.24 0.339088 46.2945 0.332468 46.3486 0.332346C48.471 0.332346 50.5943 0.327197 52.7171 0.333326C54.7495 0.339211 56.5615 1.65056 57.2044 3.58196C57.9436 5.80292 57.2522 8.37989 55.0262 9.66537C54.9952 9.68339 54.9658 9.7046 54.9204 9.73414C55.9423 11.6315 56.9618 13.5246 58.0001 15.4525M49.2549 5.22369C49.2549 5.8131 49.2539 6.40251 49.2549 6.99192C49.2549 7.26297 49.2187 7.24838 49.4916 7.2485C50.3257 7.2485 51.1592 7.25034 51.9939 7.24765C52.2302 7.24691 52.4673 7.24372 52.7029 7.2246C52.9626 7.20221 53.2149 7.12271 53.4435 6.99123C53.6721 6.85976 53.8719 6.67925 54.0298 6.46142C54.1878 6.24358 54.3005 5.99328 54.3606 5.72673C54.4206 5.46018 54.4267 5.18334 54.3785 4.91415C54.1896 3.88439 53.4555 3.23981 52.44 3.23123C51.431 3.22265 50.4217 3.23123 49.4126 3.22645C49.2778 3.22584 49.251 3.27892 49.2521 3.40678C49.2573 4.01237 49.2544 4.61809 49.2544 5.22369" fill="#E00D3A"/>
<path d="M45.3526 15.4531H45.1777C44.1988 15.4531 43.2199 15.45 42.2411 15.4568C42.1889 15.4641 42.1361 15.45 42.0935 15.4174C42.051 15.3849 42.022 15.3363 42.0125 15.2819C41.6445 14.2038 41.2684 13.1287 40.8997 12.0508C40.8907 11.9992 40.8631 11.9533 40.8228 11.9224C40.7824 11.8916 40.7323 11.8783 40.6829 11.8852C38.9313 11.8908 37.1797 11.8911 35.4281 11.886C35.3808 11.8791 35.3329 11.8913 35.2939 11.9202C35.2549 11.949 35.2278 11.9924 35.2182 12.0415C34.8476 13.125 34.4705 14.2062 34.1006 15.2901C34.0917 15.342 34.064 15.3883 34.0235 15.4193C33.9829 15.4503 33.9325 15.4638 33.8828 15.4568C32.9041 15.4503 31.9251 15.4533 30.9462 15.4533H30.7654C30.8636 15.1854 30.952 14.9406 31.0429 14.697C32.0558 11.9882 33.0686 9.27947 34.0814 6.57088C34.8397 4.54202 35.5972 2.51283 36.354 0.48331C36.3654 0.434564 36.3935 0.391929 36.4328 0.363499C36.4722 0.335069 36.5201 0.322825 36.5675 0.329091C37.5566 0.33424 38.5457 0.33424 39.5348 0.329091C39.5868 0.321825 39.6395 0.335093 39.6827 0.366324C39.7259 0.397555 39.7565 0.444528 39.7687 0.498143C41.031 3.88351 42.2957 7.26785 43.5628 10.6512C44.1417 12.1997 44.7202 13.7484 45.2981 15.2973C45.313 15.3373 45.3263 15.3776 45.3526 15.4531ZM38.078 4.14434L38.0389 4.14569L36.309 9.06473H39.8083L38.078 4.14434Z" fill="#E00D3A"/>
<path d="M13.8822 12.7537C13.4244 13.3597 12.8815 13.8888 12.272 14.3229C11.2415 15.0891 10.0426 15.5673 8.78796 15.7127C6.36438 15.9824 4.20166 15.3255 2.38762 13.5836C1.06618 12.3371 0.232611 10.6188 0.0488179 8.76242C-0.116738 7.19168 0.175289 5.60511 0.886256 4.21266C1.59722 2.82021 2.69362 1.68752 4.03036 0.964471C5.35992 0.229117 6.85977 -0.0972402 8.35777 0.0228568C10.5134 0.18394 12.296 1.13904 13.6832 2.88962C13.7127 2.9264 13.7387 2.9671 13.7562 2.99162L11.8079 5.03335C11.44 4.51672 10.9858 4.0747 10.4674 3.72887C9.74108 3.22569 8.89544 2.94588 8.02589 2.92101C6.14561 2.87553 4.66194 3.65115 3.71037 5.37281C2.33736 7.85574 3.19529 11.3974 6.07833 12.5267C7.83593 13.2153 9.49429 12.8882 11.0026 11.7452C11.3827 11.4571 11.7077 11.0887 12.071 10.7451L13.8822 12.7537Z" fill="#E00D3A"/>
<path d="M24.8317 15.4409H21.78V0.33241H21.9654C25.3605 0.33241 28.7556 0.331389 32.1507 0.329346C32.3001 0.329346 32.3542 0.359993 32.3523 0.531864C32.3431 1.35971 32.3483 2.18756 32.3481 3.01542C32.3481 3.22872 32.3481 3.22921 32.149 3.22921H25.0548C24.8319 3.22921 24.8317 3.22921 24.8317 3.4701C24.8317 4.66045 24.8344 5.8508 24.8284 7.04115C24.8277 7.2015 24.8643 7.25298 25.0249 7.25237C26.8441 7.24636 28.6621 7.24857 30.4807 7.24857C30.694 7.24857 30.6941 7.24857 30.6941 7.47965C30.6941 8.3075 30.6906 9.13535 30.6974 9.96308C30.6986 10.1166 30.6614 10.1644 30.5101 10.164C28.6863 10.1586 26.8626 10.1575 25.0388 10.1606C24.8322 10.1606 24.8318 10.1606 24.8318 10.3834C24.8318 11.9958 24.8318 13.6083 24.8318 15.2207L24.8317 15.4409Z" fill="#E00D3A"/>
<path d="M18.9512 7.88508V15.2395C18.9512 15.4529 18.9512 15.4532 18.7517 15.4532C17.8603 15.4532 16.9688 15.4501 16.0775 15.4564C15.935 15.4573 15.8822 15.426 15.8823 15.2625C15.8863 10.3487 15.8866 5.43499 15.8831 0.521342C15.8831 0.375705 15.9192 0.327773 16.0639 0.328876C16.9707 0.335741 17.8775 0.335741 18.7845 0.328876C18.9256 0.327895 18.9542 0.376563 18.9539 0.514477C18.9502 2.97126 18.9493 5.42813 18.9512 7.88508Z" fill="#E00D3A"/>
<path d="M57.9583 18.7971H46.1814V22H57.9583V18.7971Z" fill="#E00D3A"/>
</g>
</g>
<defs>
<clipPath id="clip0_771_2849">
<rect width="58" height="22" fill="white"/>
</clipPath>
</defs>
</svg>
