<svg width="24" height="24" viewBox="0 0 24 24" fill="none" xmlns="http://www.w3.org/2000/svg">
<path d="M17.7461 8.61359H6.25385C5.00908 8.61359 4 9.62267 4 10.8674V17.3942C4 18.639 5.00908 19.6481 6.25385 19.6481H17.7461C18.9909 19.6481 20 18.639 20 17.3942V10.8674C20 9.62267 18.9909 8.61359 17.7461 8.61359Z" fill="white"/>
<path d="M17.4161 6.24231H6.56948C6.20643 6.24231 5.91211 6.53663 5.91211 6.89968V6.91142C5.91211 7.27448 6.20643 7.5688 6.56948 7.5688H17.4161C17.7792 7.5688 18.0735 7.27448 18.0735 6.91142V6.89968C18.0735 6.53663 17.7792 6.24231 17.4161 6.24231Z" fill="white"/>
<path d="M16.0098 4H7.87478C7.55062 4 7.28784 4.26278 7.28784 4.58694C7.28784 4.9111 7.55062 5.17388 7.87478 5.17388H16.0098C16.3339 5.17388 16.5967 4.9111 16.5967 4.58694C16.5967 4.26278 16.3339 4 16.0098 4Z" fill="white"/>
</svg>
