<svg width="24" height="24" viewBox="0 0 24 24" fill="none" xmlns="http://www.w3.org/2000/svg">
<path d="M19.6996 14.643C19.2304 14.643 18.8406 14.9079 18.659 15.2977L17.0698 14.8285C17.0471 13.9733 16.4 13.33 15.5487 13.3338C15.1741 13.3338 14.8411 13.4663 14.5762 13.6782L12.3853 11.4646C12.6161 11.09 12.7524 10.651 12.7486 10.1818C12.7486 9.14505 12.1129 8.27476 11.2085 7.92286L11.7988 6.0574C11.8896 6.07253 11.9804 6.08389 12.075 6.08389C12.8999 6.0801 13.5924 5.38008 13.5924 4.54384C13.5924 3.66598 12.934 2.99623 12.0675 3.00002C11.201 3.00002 10.5274 3.67355 10.5274 4.53627C10.5274 5.10764 10.8604 5.61468 11.3372 5.88334L10.7355 7.79042C10.5955 7.76772 10.448 7.75258 10.3004 7.75258C8.94199 7.76015 7.87493 8.84613 7.88628 10.2159C7.88628 10.3294 7.89763 10.4429 7.91655 10.5527L5.35486 10.7948C5.13161 10.1478 4.54511 9.70507 3.81481 9.70885C2.88398 9.70885 2.16125 10.4316 2.15747 11.3624C2.15747 12.263 2.92182 13.0311 3.82238 13.0273C4.7116 13.0235 5.45324 12.2705 5.45324 11.3738C5.45324 11.3435 5.44567 11.3132 5.44567 11.2867L8.04142 11.0446C8.39711 11.9905 9.32416 12.6792 10.3647 12.6489C11.0458 12.63 11.655 12.3311 12.0902 11.8657L14.2508 14.049C14.1032 14.2874 14.0124 14.5674 14.0124 14.8739C14.0124 15.4679 14.3719 15.9977 14.8827 16.255L14.387 18.6956C13.7513 18.7069 13.2594 19.2026 13.2556 19.8421C13.2556 20.4665 13.7891 21.0038 14.4135 21C15.0303 21 15.5449 20.474 15.5449 19.8497C15.5449 19.3616 15.2724 18.9605 14.8676 18.7902L15.3519 16.4063C15.42 16.4177 15.4881 16.429 15.56 16.429C16.2335 16.429 16.8087 15.9561 17.0017 15.3317L18.5531 15.7896C18.5531 15.7896 18.5531 15.7971 18.5531 15.8009C18.5531 16.4253 19.0866 16.9626 19.7109 16.9588C20.3277 16.9588 20.8423 16.4328 20.8423 15.8085C20.8423 15.1501 20.3504 14.6544 19.7034 14.6544L19.6996 14.643Z" fill="white"/>
</svg>
