<svg width="48" height="48" viewBox="0 0 48 48" fill="none" xmlns="http://www.w3.org/2000/svg">
<g clip-path="url(#clip0_2191_1748)">
<path d="M24 48C37.2548 48 48 37.2548 48 24C48 10.7452 37.2548 0 24 0C10.7452 0 0 10.7452 0 24C0 37.2548 10.7452 48 24 48Z" fill="#FF0043"/>
<path d="M24.0015 3.40625C12.6448 3.40625 3.40625 12.6457 3.40625 24.0015C3.40625 35.3573 12.6457 44.5967 24.0015 44.5967C35.3573 44.5967 44.5967 35.3573 44.5967 24.0015C44.5967 12.6457 35.3582 3.40625 24.0015 3.40625ZM42.7173 23.6069H37.6639C37.587 20.8977 36.7168 18.3828 35.2783 16.2873L38.9504 13.7626C39.0856 13.6698 39.1191 13.4853 39.0264 13.3512C38.9337 13.216 38.7492 13.1825 38.615 13.2752L34.934 15.8058C33.8744 14.396 32.5494 13.1973 31.034 12.2847L33.2469 8.42113C33.3278 8.27906 33.2795 8.09851 33.1374 8.01761C32.9953 7.93572 32.8148 7.98604 32.7339 8.12713L30.5219 11.9906C28.6849 10.9902 26.5943 10.3983 24.3734 10.3391L24.3557 5.86288C24.3557 5.64583 24.1781 5.47021 23.9611 5.47021H23.9591C23.741 5.47021 23.5654 5.64879 23.5664 5.86683L23.5842 10.342C20.5247 10.4348 17.7149 11.5378 15.4773 13.3285L12.2116 9.47482C15.4329 6.8554 19.5381 5.28276 24.0035 5.28276C34.194 5.28276 42.5081 13.4676 42.7192 23.6088L42.7173 23.6069ZM32.7546 33.3051L29.9349 29.9773C30.5071 29.41 30.9975 28.7609 31.3892 28.0495L35.2606 30.0444C34.6035 31.2629 33.755 32.3629 32.7546 33.3041V33.3051ZM12.4721 29.5146L16.4037 27.643C16.822 28.5122 17.3844 29.2985 18.0612 29.9714L15.1448 33.2075C14.0477 32.1518 13.139 30.9028 12.4721 29.5156V29.5146ZM5.28572 24.3961H10.3391C10.3914 26.2213 10.8028 27.9578 11.5052 29.5373L6.94222 31.7098C5.92602 29.4712 5.33998 26.9978 5.28572 24.3961ZM15.4477 14.5144L18.2644 17.8382C16.7017 19.2934 15.6914 21.3337 15.5858 23.6069H11.228C11.3375 20.0048 12.9457 16.7727 15.4477 14.5144ZM24.0015 31.0458C23.6226 31.0458 23.2517 31.0152 22.8886 30.957L23.6118 26.8814C23.7391 26.8982 23.8693 26.908 24.0005 26.908C24.6704 26.908 25.287 26.6801 25.7794 26.2973L26.8261 27.5325C26.0349 28.1857 25.0207 28.5793 23.9167 28.5793C23.7805 28.5793 23.67 28.6898 23.67 28.826C23.67 28.9621 23.7805 29.0726 23.9167 29.0726C25.142 29.0726 26.2677 28.6356 27.1448 27.9094L28.455 29.4554C27.2405 30.4499 25.6896 31.0468 24.0005 31.0468L24.0015 31.0458ZM17.6508 27.0491L21.387 25.2703C21.7481 26.0122 22.417 26.5775 23.226 26.8025L22.5019 30.884C20.3609 30.4173 18.5801 28.9769 17.6517 27.0501L17.6508 27.0491ZM19.1583 18.8929L20.3965 20.3531C19.6654 21.0575 19.1405 21.9829 18.9383 23.0366C18.9126 23.1708 19.0004 23.3 19.1336 23.3257C19.2678 23.3513 19.397 23.2635 19.4227 23.1303C19.6032 22.1901 20.0679 21.3633 20.7161 20.7299L21.8418 22.0589C21.461 22.4812 21.2035 23.0159 21.1226 23.6069H16.969C17.0716 21.755 17.8935 20.0936 19.1583 18.8929ZM27.3915 26.9771L26.3358 25.732C26.6209 25.3482 26.8133 24.8924 26.8814 24.3961H28.4777C28.3938 25.3768 27.9992 26.2707 27.3924 26.9771H27.3915ZM22.2789 24.0015C22.2789 23.0514 23.0514 22.2789 24.0015 22.2789C24.9516 22.2789 25.7241 23.0514 25.7241 24.0015C25.7241 24.9516 24.9516 25.7241 24.0015 25.7241C23.0514 25.7241 22.2789 24.9516 22.2789 24.0015ZM26.8804 23.6069C26.687 22.1901 25.4705 21.095 24.0015 21.095C23.4283 21.095 22.8945 21.2617 22.4437 21.5488L21.3249 20.2287C22.0678 19.7187 22.9636 19.4237 23.9167 19.4237C26.3072 19.4237 28.2754 21.2666 28.4757 23.6069H26.8794H26.8804ZM21.1226 24.3961C21.1463 24.5708 21.1857 24.7405 21.239 24.9042L17.4909 26.689C17.1959 25.9757 17.0134 25.2042 16.969 24.3971H21.1226V24.3961ZM27.7141 27.3579C27.9518 27.0886 28.162 26.7946 28.3396 26.4788L30.1598 27.4171C29.853 27.9676 29.4751 28.4728 29.0381 28.9197L27.7141 27.3579ZM28.599 25.9471C28.8013 25.4636 28.9286 24.9417 28.971 24.3961H31.034C30.9846 25.2801 30.7715 26.1197 30.4243 26.8873L28.599 25.9461V25.9471ZM28.971 23.6069C28.7687 20.9943 26.5805 18.9304 23.9167 18.9304C22.8432 18.9304 21.8349 19.2688 21.0052 19.8509L19.7591 18.3808C20.9401 17.487 22.4091 16.9562 24.0005 16.9562C26.2845 16.9562 28.3159 18.0493 29.6044 19.7384C29.6123 19.7611 29.6231 19.7838 29.6379 19.8045C29.6557 19.8311 29.6784 19.8519 29.7021 19.8706C30.4736 20.9322 30.956 22.2158 31.033 23.6059H28.97L28.971 23.6069ZM28.4274 16.8358L30.592 13.0552C31.9929 13.9017 33.2183 15.0087 34.201 16.31L30.6068 18.7814C29.999 18.0138 29.262 17.3538 28.4264 16.8368L28.4274 16.8358ZM27.9134 16.5428C26.8518 15.9844 25.659 15.644 24.3922 15.5868L24.3744 11.228C26.4335 11.2872 28.3721 11.8357 30.078 12.7622L27.9124 16.5438L27.9134 16.5428ZM23.6029 15.5858C21.8251 15.6687 20.1913 16.307 18.8672 17.3281L16.0505 14.0043C18.1332 12.3438 20.7437 11.3207 23.5861 11.229L23.6039 15.5868L23.6029 15.5858ZM11.228 24.3961H15.5858C15.6332 25.4153 15.8621 26.3891 16.2409 27.2829L12.3073 29.1555C11.6591 27.6914 11.2793 26.0842 11.227 24.3961H11.228ZM18.4973 30.372C19.5559 31.2875 20.8424 31.9456 22.2602 32.2445L21.4985 36.5343C19.2619 36.0883 17.2334 35.0563 15.5809 33.606L18.4973 30.371V30.372ZM22.6479 32.3166C23.0889 32.3886 23.5408 32.4271 24.0015 32.4271C24.4622 32.4271 24.8934 32.3905 25.3245 32.3225L26.097 36.6092C25.4153 36.7227 24.7158 36.7819 24.0015 36.7819C23.2872 36.7819 22.5749 36.7207 21.8862 36.6063L22.6479 32.3175V32.3166ZM25.7123 32.2524C27.0718 31.9712 28.3129 31.3605 29.3479 30.5081L32.1626 33.829C30.5545 35.1668 28.6138 36.1179 26.4848 36.5392L25.7123 32.2524ZM31.6536 27.5207C32.0965 26.5617 32.3649 25.507 32.4172 24.3961H36.775C36.7188 26.2253 36.2777 27.9587 35.5289 29.5176L31.6536 27.5207ZM32.4172 23.6069C32.3422 21.9987 31.8154 20.507 30.96 19.2569L34.5473 16.7904C35.8871 18.7429 36.698 21.0841 36.775 23.6069H32.4172ZM11.6078 9.9839L14.8735 13.8376C12.1791 16.2597 10.4496 19.7345 10.3391 23.6069H5.28572C5.39819 18.1914 7.82227 13.3344 11.6078 9.9839ZM7.10994 32.0679L11.671 29.8964C12.3873 31.3892 13.3679 32.7329 14.5499 33.8665L11.449 37.3068C11.3395 37.4281 11.3494 37.6156 11.4707 37.7251C11.5269 37.7764 11.598 37.8011 11.669 37.8011C11.7499 37.8011 11.8308 37.7685 11.889 37.7034L14.9869 34.2671C16.7609 35.8269 18.9393 36.9348 21.3436 37.4104L20.4606 42.3858C14.5607 41.2512 9.63761 37.3393 7.10994 32.0679ZM20.8483 42.4558L21.7313 37.4804C22.4703 37.6047 23.228 37.6698 24.0015 37.6698C24.775 37.6698 25.5209 37.6057 26.2539 37.4834L27.1497 42.4558C26.1256 42.6305 25.0739 42.7222 24.0015 42.7222C22.9291 42.7222 21.8734 42.6295 20.8483 42.4548V42.4558ZM27.5385 42.3858L26.6426 37.4133C28.9286 36.9644 31.0123 35.9433 32.7368 34.5058L34.6854 36.8046C34.7633 36.8963 34.8748 36.9437 34.9863 36.9437C35.0761 36.9437 35.1668 36.9131 35.2408 36.85C35.4076 36.7089 35.4273 36.4603 35.2872 36.2935L33.3278 33.9819C34.416 32.9647 35.3375 31.7729 36.0479 30.4509L37.4321 31.1642C37.4755 31.1869 37.5218 31.1968 37.5672 31.1968C37.6748 31.1968 37.7784 31.1386 37.8307 31.0359C37.9056 30.8909 37.8484 30.7123 37.7034 30.6374L36.3172 29.9231C37.1292 28.2419 37.6057 26.3693 37.6629 24.3942H42.7163C42.5308 33.3318 36.0498 40.749 27.5375 42.3838L27.5385 42.3858Z" fill="url(#paint0_linear_2191_1748)"/>
</g>
<defs>
<linearGradient id="paint0_linear_2191_1748" x1="6.16873" y1="34.2976" x2="41.8343" y2="13.7063" gradientUnits="userSpaceOnUse">
<stop offset="0.12" stop-color="white" stop-opacity="0"/>
<stop offset="0.44" stop-color="white"/>
</linearGradient>
<clipPath id="clip0_2191_1748">
<rect width="48" height="48" fill="white"/>
</clipPath>
</defs>
</svg>
