<svg width="11" height="20" viewBox="0 0 11 20" fill="none" xmlns="http://www.w3.org/2000/svg">
<path d="M2.1841 10L9.7168 17.5327C9.91552 17.7314 10.0123 17.9654 10.0072 18.2346C10.002 18.5038 9.90012 18.7378 9.7014 18.9365C9.5027 19.1352 9.26873 19.2346 8.9995 19.2346C8.73027 19.2346 8.4963 19.1352 8.2976 18.9365L0.62645 11.2808C0.445667 11.1 0.311692 10.8974 0.224525 10.6731C0.137342 10.4487 0.09375 10.2244 0.09375 10C0.09375 9.77565 0.137342 9.55129 0.224525 9.32693C0.311692 9.10258 0.445667 8.90002 0.62645 8.71925L8.2976 1.0481C8.4963 0.849384 8.73283 0.752583 9.0072 0.7577C9.28155 0.762833 9.51808 0.864759 9.7168 1.06348C9.91552 1.26219 10.0149 1.49616 10.0149 1.76538C10.0149 2.03461 9.91552 2.26858 9.7168 2.4673L2.1841 10Z" fill="white"/>
</svg>
