<?xml version="1.0" encoding="UTF-8" standalone="no"?>
<!DOCTYPE svg PUBLIC "-//W3C//DTD SVG 1.1//EN"
 "http://www.w3.org/Graphics/SVG/1.1/DTD/svg11.dtd">
<!-- Generated by graphviz version 2.47.0 (20210316.0004)
 -->
<!-- Title: dependencies Pages: 1 -->
<svg width="3672pt" height="284pt"
 viewBox="0.00 0.00 3672.00 284.00" xmlns="http://www.w3.org/2000/svg" xmlns:xlink="http://www.w3.org/1999/xlink">
<g id="graph0" class="graph" transform="scale(1 1) rotate(0) translate(4 280)">
<title>dependencies</title>
<polygon fill="white" stroke="transparent" points="-4,4 -4,-280 3668,-280 3668,4 -4,4"/>
<text text-anchor="start" x="1811.01" y="-42.4" font-family="Times-12" font-weight="bold" font-size="14.00">Legend</text>
<polygon fill="#ffffb3" stroke="transparent" points="1598,-10 1598,-30 1618,-30 1618,-10 1598,-10"/>
<text text-anchor="start" x="1621.63" y="-15.4" font-family="Times-12" font-size="14.00"> &#160;Declarations</text>
<polygon fill="#8dd3c7" stroke="transparent" points="1711,-10 1711,-30 1731,-30 1731,-10 1711,-10"/>
<text text-anchor="start" x="1734.73" y="-15.4" font-family="Times-12" font-size="14.00"> &#160;Module</text>
<polygon fill="#80b1d3" stroke="transparent" points="1797,-10 1797,-30 1817,-30 1817,-10 1797,-10"/>
<text text-anchor="start" x="1820.78" y="-15.4" font-family="Times-12" font-size="14.00"> &#160;Bootstrap</text>
<polygon fill="#fdb462" stroke="transparent" points="1894,-10 1894,-30 1914,-30 1914,-10 1894,-10"/>
<text text-anchor="start" x="1917.67" y="-15.4" font-family="Times-12" font-size="14.00"> &#160;Providers</text>
<polygon fill="#fb8072" stroke="transparent" points="1990,-10 1990,-30 2010,-30 2010,-10 1990,-10"/>
<text text-anchor="start" x="2013.73" y="-15.4" font-family="Times-12" font-size="14.00"> &#160;Exports</text>
<g id="clust1" class="cluster">
<title>cluster_PageElementModule</title>
<polygon fill="none" stroke="black" stroke-dasharray="1,5" points="8,-70 8,-268 3656,-268 3656,-70 8,-70"/>
</g>
<g id="clust5" class="cluster">
<title>cluster_PageElementModule_exports</title>
<polygon fill="none" stroke="black" points="1694,-208 1694,-260 1868,-260 1868,-208 1694,-208"/>
</g>
<g id="clust2" class="cluster">
<title>cluster_PageElementModule_declarations</title>
<polygon fill="none" stroke="black" points="3476,-78 3476,-130 3648,-130 3648,-78 3476,-78"/>
</g>
<g id="clust4" class="cluster">
<title>cluster_PageElementModule_imports</title>
<polygon fill="none" stroke="black" points="16,-78 16,-130 3468,-130 3468,-78 16,-78"/>
</g>
<!-- PageElementComponent -->
<g id="node1" class="node">
<title>PageElementComponent</title>
<polygon fill="#ffffb3" stroke="black" points="3639.7,-122 3484.3,-122 3484.3,-86 3639.7,-86 3639.7,-122"/>
<text text-anchor="middle" x="3562" y="-99.8" font-family="Times,serif" font-size="14.00">PageElementComponent</text>
</g>
<!-- PageElementModule -->
<g id="node2" class="node">
<title>PageElementModule</title>
<polygon fill="#8dd3c7" stroke="black" points="1847.92,-187 1844.92,-191 1823.92,-191 1820.92,-187 1714.08,-187 1714.08,-151 1847.92,-151 1847.92,-187"/>
<text text-anchor="middle" x="1781" y="-164.8" font-family="Times,serif" font-size="14.00">PageElementModule</text>
</g>
<!-- PageElementComponent&#45;&gt;PageElementModule -->
<g id="edge1" class="edge">
<title>PageElementComponent&#45;&gt;PageElementModule</title>
<path fill="none" stroke="black" d="M3562,-122.15C3562,-145.76 3562,-184 3562,-184 3562,-184 1857.84,-184 1857.84,-184"/>
<polygon fill="black" stroke="black" points="1857.84,-180.5 1847.84,-184 1857.83,-187.5 1857.84,-180.5"/>
</g>
<!-- PageElementComponent  -->
<g id="node26" class="node">
<title>PageElementComponent </title>
<polygon fill="#fb8072" stroke="black" points="1860.2,-252 1701.8,-252 1701.8,-216 1860.2,-216 1860.2,-252"/>
<text text-anchor="middle" x="1781" y="-229.8" font-family="Times,serif" font-size="14.00">PageElementComponent </text>
</g>
<!-- PageElementModule&#45;&gt;PageElementComponent  -->
<g id="edge26" class="edge">
<title>PageElementModule&#45;&gt;PageElementComponent </title>
<path fill="none" stroke="black" stroke-dasharray="5,2" d="M1781,-187.11C1781,-187.11 1781,-205.99 1781,-205.99"/>
<polygon fill="black" stroke="black" points="1777.5,-205.99 1781,-215.99 1784.5,-205.99 1777.5,-205.99"/>
</g>
<!-- AnnouncementCardModule -->
<g id="node3" class="node">
<title>AnnouncementCardModule</title>
<polygon fill="#8dd3c7" stroke="black" points="3460.29,-122 3457.29,-126 3436.29,-126 3433.29,-122 3287.71,-122 3287.71,-86 3460.29,-86 3460.29,-122"/>
<text text-anchor="middle" x="3374" y="-99.8" font-family="Times,serif" font-size="14.00">AnnouncementCardModule</text>
</g>
<!-- AnnouncementCardModule&#45;&gt;PageElementModule -->
<g id="edge2" class="edge">
<title>AnnouncementCardModule&#45;&gt;PageElementModule</title>
<path fill="none" stroke="black" d="M3374,-122.25C3374,-145.02 3374,-181 3374,-181 3374,-181 1857.93,-181 1857.93,-181"/>
<polygon fill="black" stroke="black" points="1857.93,-177.5 1847.93,-181 1857.93,-184.5 1857.93,-177.5"/>
</g>
<!-- BoardMembersModule -->
<g id="node4" class="node">
<title>BoardMembersModule</title>
<polygon fill="#8dd3c7" stroke="black" points="3270.13,-122 3267.13,-126 3246.13,-126 3243.13,-122 3123.87,-122 3123.87,-86 3270.13,-86 3270.13,-122"/>
<text text-anchor="middle" x="3197" y="-99.8" font-family="Times,serif" font-size="14.00">BoardMembersModule</text>
</g>
<!-- BoardMembersModule&#45;&gt;PageElementModule -->
<g id="edge3" class="edge">
<title>BoardMembersModule&#45;&gt;PageElementModule</title>
<path fill="none" stroke="black" d="M3197,-122.29C3197,-144.21 3197,-178 3197,-178 3197,-178 1857.87,-178 1857.87,-178"/>
<polygon fill="black" stroke="black" points="1857.87,-174.5 1847.87,-178 1857.87,-181.5 1857.87,-174.5"/>
</g>
<!-- CardButtonLongModule -->
<g id="node5" class="node">
<title>CardButtonLongModule</title>
<polygon fill="#8dd3c7" stroke="black" points="3105.43,-122 3102.43,-126 3081.43,-126 3078.43,-122 2950.57,-122 2950.57,-86 3105.43,-86 3105.43,-122"/>
<text text-anchor="middle" x="3028" y="-99.8" font-family="Times,serif" font-size="14.00">CardButtonLongModule</text>
</g>
<!-- CardButtonLongModule&#45;&gt;PageElementModule -->
<g id="edge4" class="edge">
<title>CardButtonLongModule&#45;&gt;PageElementModule</title>
<path fill="none" stroke="black" d="M3028,-122.28C3028,-143.32 3028,-175 3028,-175 3028,-175 1858.04,-175 1858.04,-175"/>
<polygon fill="black" stroke="black" points="1858.04,-171.5 1848.04,-175 1858.04,-178.5 1858.04,-171.5"/>
</g>
<!-- CardWithHeaderModule -->
<g id="node6" class="node">
<title>CardWithHeaderModule</title>
<polygon fill="#8dd3c7" stroke="black" points="2932.67,-122 2929.67,-126 2908.67,-126 2905.67,-122 2777.33,-122 2777.33,-86 2932.67,-86 2932.67,-122"/>
<text text-anchor="middle" x="2855" y="-99.8" font-family="Times,serif" font-size="14.00">CardWithHeaderModule</text>
</g>
<!-- CardWithHeaderModule&#45;&gt;PageElementModule -->
<g id="edge5" class="edge">
<title>CardWithHeaderModule&#45;&gt;PageElementModule</title>
<path fill="none" stroke="black" d="M2855,-122.22C2855,-142.37 2855,-172 2855,-172 2855,-172 1857.78,-172 1857.78,-172"/>
<polygon fill="black" stroke="black" points="1857.78,-168.5 1847.78,-172 1857.78,-175.5 1857.78,-168.5"/>
</g>
<!-- CarouselModule -->
<g id="node7" class="node">
<title>CarouselModule</title>
<polygon fill="#8dd3c7" stroke="black" points="2759.81,-122 2756.81,-126 2735.81,-126 2732.81,-122 2650.19,-122 2650.19,-86 2759.81,-86 2759.81,-122"/>
<text text-anchor="middle" x="2705" y="-99.8" font-family="Times,serif" font-size="14.00">CarouselModule</text>
</g>
<!-- CarouselModule&#45;&gt;PageElementModule -->
<g id="edge6" class="edge">
<title>CarouselModule&#45;&gt;PageElementModule</title>
<path fill="none" stroke="black" d="M2686.78,-122.27C2686.78,-140.56 2686.78,-166 2686.78,-166 2686.78,-166 1857.97,-166 1857.97,-166"/>
<polygon fill="black" stroke="black" points="1857.97,-162.5 1847.97,-166 1857.97,-169.5 1857.97,-162.5"/>
</g>
<!-- CarouselModule&#45;&gt;PageElementModule -->
<g id="edge7" class="edge">
<title>CarouselModule&#45;&gt;PageElementModule</title>
<path fill="none" stroke="black" d="M2723.22,-122.11C2723.22,-141.34 2723.22,-169 2723.22,-169 2723.22,-169 1858.01,-169 1858.01,-169"/>
<polygon fill="black" stroke="black" points="1858.01,-165.5 1848.01,-169 1858.01,-172.5 1858.01,-165.5"/>
</g>
<!-- ChooseVersionModule -->
<g id="node8" class="node">
<title>ChooseVersionModule</title>
<polygon fill="#8dd3c7" stroke="black" points="2631.86,-122 2628.86,-126 2607.86,-126 2604.86,-122 2486.14,-122 2486.14,-86 2631.86,-86 2631.86,-122"/>
<text text-anchor="middle" x="2559" y="-99.8" font-family="Times,serif" font-size="14.00">ChooseVersionModule</text>
</g>
<!-- ChooseVersionModule&#45;&gt;PageElementModule -->
<g id="edge8" class="edge">
<title>ChooseVersionModule&#45;&gt;PageElementModule</title>
<path fill="none" stroke="black" d="M2559,-122.02C2559,-139.37 2559,-163 2559,-163 2559,-163 1858.01,-163 1858.01,-163"/>
<polygon fill="black" stroke="black" points="1858.01,-159.5 1848.01,-163 1858.01,-166.5 1858.01,-159.5"/>
</g>
<!-- ContactCardModule -->
<g id="node9" class="node">
<title>ContactCardModule</title>
<polygon fill="#8dd3c7" stroke="black" points="2468.31,-122 2465.31,-126 2444.31,-126 2441.31,-122 2337.69,-122 2337.69,-86 2468.31,-86 2468.31,-122"/>
<text text-anchor="middle" x="2403" y="-99.8" font-family="Times,serif" font-size="14.00">ContactCardModule</text>
</g>
<!-- ContactCardModule&#45;&gt;PageElementModule -->
<g id="edge9" class="edge">
<title>ContactCardModule&#45;&gt;PageElementModule</title>
<path fill="none" stroke="black" d="M2403,-122.03C2403,-138.4 2403,-160 2403,-160 2403,-160 1857.86,-160 1857.86,-160"/>
<polygon fill="black" stroke="black" points="1857.86,-156.5 1847.86,-160 1857.86,-163.5 1857.86,-156.5"/>
</g>
<!-- CopyClipboardModule -->
<g id="node10" class="node">
<title>CopyClipboardModule</title>
<polygon fill="#8dd3c7" stroke="black" points="2319.88,-122 2316.88,-126 2295.88,-126 2292.88,-122 2174.12,-122 2174.12,-86 2319.88,-86 2319.88,-122"/>
<text text-anchor="middle" x="2247" y="-99.8" font-family="Times,serif" font-size="14.00">CopyClipboardModule</text>
</g>
<!-- CopyClipboardModule&#45;&gt;PageElementModule -->
<g id="edge10" class="edge">
<title>CopyClipboardModule&#45;&gt;PageElementModule</title>
<path fill="none" stroke="black" d="M2247,-122.24C2247,-137.57 2247,-157 2247,-157 2247,-157 1857.77,-157 1857.77,-157"/>
<polygon fill="black" stroke="black" points="1857.77,-153.5 1847.77,-157 1857.77,-160.5 1857.77,-153.5"/>
</g>
<!-- CountInfoCardModule -->
<g id="node11" class="node">
<title>CountInfoCardModule</title>
<polygon fill="#8dd3c7" stroke="black" points="2156.31,-122 2153.31,-126 2132.31,-126 2129.31,-122 2011.69,-122 2011.69,-86 2156.31,-86 2156.31,-122"/>
<text text-anchor="middle" x="2084" y="-99.8" font-family="Times,serif" font-size="14.00">CountInfoCardModule</text>
</g>
<!-- CountInfoCardModule&#45;&gt;PageElementModule -->
<g id="edge11" class="edge">
<title>CountInfoCardModule&#45;&gt;PageElementModule</title>
<path fill="none" stroke="black" d="M2084,-122.05C2084,-136.37 2084,-154 2084,-154 2084,-154 1857.87,-154 1857.87,-154"/>
<polygon fill="black" stroke="black" points="1857.87,-150.5 1847.87,-154 1857.87,-157.5 1857.87,-150.5"/>
</g>
<!-- DownloadFtuModule -->
<g id="node12" class="node">
<title>DownloadFtuModule</title>
<polygon fill="#8dd3c7" stroke="black" points="1994.04,-122 1991.04,-126 1970.04,-126 1967.04,-122 1857.96,-122 1857.96,-86 1994.04,-86 1994.04,-122"/>
<text text-anchor="middle" x="1926" y="-99.8" font-family="Times,serif" font-size="14.00">DownloadFtuModule</text>
</g>
<!-- DownloadFtuModule&#45;&gt;PageElementModule -->
<g id="edge12" class="edge">
<title>DownloadFtuModule&#45;&gt;PageElementModule</title>
<path fill="none" stroke="black" d="M1857.76,-104C1849.45,-104 1843.82,-104 1843.82,-104 1843.82,-104 1843.82,-140.89 1843.82,-140.89"/>
<polygon fill="black" stroke="black" points="1840.32,-140.89 1843.82,-150.89 1847.32,-140.89 1840.32,-140.89"/>
</g>
<!-- MenuTreeModule -->
<g id="node13" class="node">
<title>MenuTreeModule</title>
<polygon fill="#8dd3c7" stroke="black" points="1839.85,-122 1836.85,-126 1815.85,-126 1812.85,-122 1722.15,-122 1722.15,-86 1839.85,-86 1839.85,-122"/>
<text text-anchor="middle" x="1781" y="-99.8" font-family="Times,serif" font-size="14.00">MenuTreeModule</text>
</g>
<!-- MenuTreeModule&#45;&gt;PageElementModule -->
<g id="edge13" class="edge">
<title>MenuTreeModule&#45;&gt;PageElementModule</title>
<path fill="none" stroke="black" d="M1781,-122.11C1781,-122.11 1781,-140.99 1781,-140.99"/>
<polygon fill="black" stroke="black" points="1777.5,-140.99 1781,-150.99 1784.5,-140.99 1777.5,-140.99"/>
</g>
<!-- OrganVersionModule -->
<g id="node14" class="node">
<title>OrganVersionModule</title>
<polygon fill="#8dd3c7" stroke="black" points="1704.35,-122 1701.35,-126 1680.35,-126 1677.35,-122 1565.65,-122 1565.65,-86 1704.35,-86 1704.35,-122"/>
<text text-anchor="middle" x="1635" y="-99.8" font-family="Times,serif" font-size="14.00">OrganVersionModule</text>
</g>
<!-- OrganVersionModule&#45;&gt;PageElementModule -->
<g id="edge14" class="edge">
<title>OrganVersionModule&#45;&gt;PageElementModule</title>
<path fill="none" stroke="black" d="M1704.45,-104C1712.65,-104 1718.18,-104 1718.18,-104 1718.18,-104 1718.18,-140.89 1718.18,-140.89"/>
<polygon fill="black" stroke="black" points="1714.68,-140.89 1718.18,-150.89 1721.68,-140.89 1714.68,-140.89"/>
</g>
<!-- PageDataModule -->
<g id="node15" class="node">
<title>PageDataModule</title>
<polygon fill="#8dd3c7" stroke="black" points="1547.69,-122 1544.69,-126 1523.69,-126 1520.69,-122 1434.31,-122 1434.31,-86 1547.69,-86 1547.69,-122"/>
<text text-anchor="middle" x="1491" y="-99.8" font-family="Times,serif" font-size="14.00">PageDataModule</text>
</g>
<!-- PageDataModule&#45;&gt;PageElementModule -->
<g id="edge15" class="edge">
<title>PageDataModule&#45;&gt;PageElementModule</title>
<path fill="none" stroke="black" d="M1491,-122.05C1491,-136.37 1491,-154 1491,-154 1491,-154 1704.1,-154 1704.1,-154"/>
<polygon fill="black" stroke="black" points="1704.1,-157.5 1714.1,-154 1704.1,-150.5 1704.1,-157.5"/>
</g>
<!-- PageHeaderModule -->
<g id="node16" class="node">
<title>PageHeaderModule</title>
<polygon fill="#8dd3c7" stroke="black" points="1416.67,-122 1413.67,-126 1392.67,-126 1389.67,-122 1289.33,-122 1289.33,-86 1416.67,-86 1416.67,-122"/>
<text text-anchor="middle" x="1353" y="-99.8" font-family="Times,serif" font-size="14.00">PageHeaderModule</text>
</g>
<!-- PageHeaderModule&#45;&gt;PageElementModule -->
<g id="edge16" class="edge">
<title>PageHeaderModule&#45;&gt;PageElementModule</title>
<path fill="none" stroke="black" d="M1353,-122.24C1353,-137.57 1353,-157 1353,-157 1353,-157 1704.12,-157 1704.12,-157"/>
<polygon fill="black" stroke="black" points="1704.13,-160.5 1714.12,-157 1704.12,-153.5 1704.13,-160.5"/>
</g>
<!-- PrizeCardModule -->
<g id="node17" class="node">
<title>PrizeCardModule</title>
<polygon fill="#8dd3c7" stroke="black" points="1271.53,-122 1268.53,-126 1247.53,-126 1244.53,-122 1156.47,-122 1156.47,-86 1271.53,-86 1271.53,-122"/>
<text text-anchor="middle" x="1214" y="-99.8" font-family="Times,serif" font-size="14.00">PrizeCardModule</text>
</g>
<!-- PrizeCardModule&#45;&gt;PageElementModule -->
<g id="edge17" class="edge">
<title>PrizeCardModule&#45;&gt;PageElementModule</title>
<path fill="none" stroke="black" d="M1214,-122.03C1214,-138.4 1214,-160 1214,-160 1214,-160 1704.29,-160 1704.29,-160"/>
<polygon fill="black" stroke="black" points="1704.29,-163.5 1714.29,-160 1704.29,-156.5 1704.29,-163.5"/>
</g>
<!-- SectionCardModule -->
<g id="node18" class="node">
<title>SectionCardModule</title>
<polygon fill="#8dd3c7" stroke="black" points="1138.25,-122 1135.25,-126 1114.25,-126 1111.25,-122 1009.75,-122 1009.75,-86 1138.25,-86 1138.25,-122"/>
<text text-anchor="middle" x="1074" y="-99.8" font-family="Times,serif" font-size="14.00">SectionCardModule</text>
</g>
<!-- SectionCardModule&#45;&gt;PageElementModule -->
<g id="edge18" class="edge">
<title>SectionCardModule&#45;&gt;PageElementModule</title>
<path fill="none" stroke="black" d="M1074,-122.02C1074,-139.37 1074,-163 1074,-163 1074,-163 1704.17,-163 1704.17,-163"/>
<polygon fill="black" stroke="black" points="1704.17,-166.5 1714.17,-163 1704.17,-159.5 1704.17,-166.5"/>
</g>
<!-- SimpleImageModule -->
<g id="node19" class="node">
<title>SimpleImageModule</title>
<polygon fill="#8dd3c7" stroke="black" points="992.2,-122 989.2,-126 968.2,-126 965.2,-122 857.8,-122 857.8,-86 992.2,-86 992.2,-122"/>
<text text-anchor="middle" x="925" y="-99.8" font-family="Times,serif" font-size="14.00">SimpleImageModule</text>
</g>
<!-- SimpleImageModule&#45;&gt;PageElementModule -->
<g id="edge19" class="edge">
<title>SimpleImageModule&#45;&gt;PageElementModule</title>
<path fill="none" stroke="black" d="M925,-122.27C925,-140.56 925,-166 925,-166 925,-166 1704.19,-166 1704.19,-166"/>
<polygon fill="black" stroke="black" points="1704.19,-169.5 1714.19,-166 1704.19,-162.5 1704.19,-169.5"/>
</g>
<!-- SimpleTileModule -->
<g id="node20" class="node">
<title>SimpleTileModule</title>
<polygon fill="#8dd3c7" stroke="black" points="839.77,-122 836.77,-126 815.77,-126 812.77,-122 718.23,-122 718.23,-86 839.77,-86 839.77,-122"/>
<text text-anchor="middle" x="779" y="-99.8" font-family="Times,serif" font-size="14.00">SimpleTileModule</text>
</g>
<!-- SimpleTileModule&#45;&gt;PageElementModule -->
<g id="edge20" class="edge">
<title>SimpleTileModule&#45;&gt;PageElementModule</title>
<path fill="none" stroke="black" d="M779,-122.11C779,-141.34 779,-169 779,-169 779,-169 1704.09,-169 1704.09,-169"/>
<polygon fill="black" stroke="black" points="1704.09,-172.5 1714.09,-169 1704.09,-165.5 1704.09,-172.5"/>
</g>
<!-- SopLinksModule -->
<g id="node21" class="node">
<title>SopLinksModule</title>
<polygon fill="#8dd3c7" stroke="black" points="700.72,-122 697.72,-126 676.72,-126 673.72,-122 587.28,-122 587.28,-86 700.72,-86 700.72,-122"/>
<text text-anchor="middle" x="644" y="-99.8" font-family="Times,serif" font-size="14.00">SopLinksModule</text>
</g>
<!-- SopLinksModule&#45;&gt;PageElementModule -->
<g id="edge21" class="edge">
<title>SopLinksModule&#45;&gt;PageElementModule</title>
<path fill="none" stroke="black" d="M644,-122.22C644,-142.37 644,-172 644,-172 644,-172 1704.12,-172 1704.12,-172"/>
<polygon fill="black" stroke="black" points="1704.12,-175.5 1714.12,-172 1704.12,-168.5 1704.12,-175.5"/>
</g>
<!-- TableModule -->
<g id="node22" class="node">
<title>TableModule</title>
<polygon fill="#8dd3c7" stroke="black" points="569.92,-122 566.92,-126 545.92,-126 542.92,-122 478.08,-122 478.08,-86 569.92,-86 569.92,-122"/>
<text text-anchor="middle" x="524" y="-99.8" font-family="Times,serif" font-size="14.00">TableModule</text>
</g>
<!-- TableModule&#45;&gt;PageElementModule -->
<g id="edge22" class="edge">
<title>TableModule&#45;&gt;PageElementModule</title>
<path fill="none" stroke="black" d="M524,-122.28C524,-143.32 524,-175 524,-175 524,-175 1703.86,-175 1703.86,-175"/>
<polygon fill="black" stroke="black" points="1703.86,-178.5 1713.86,-175 1703.86,-171.5 1703.86,-178.5"/>
</g>
<!-- TableVersionModule -->
<g id="node23" class="node">
<title>TableVersionModule</title>
<polygon fill="#8dd3c7" stroke="black" points="459.74,-122 456.74,-126 435.74,-126 432.74,-122 324.26,-122 324.26,-86 459.74,-86 459.74,-122"/>
<text text-anchor="middle" x="392" y="-99.8" font-family="Times,serif" font-size="14.00">TableVersionModule</text>
</g>
<!-- TableVersionModule&#45;&gt;PageElementModule -->
<g id="edge23" class="edge">
<title>TableVersionModule&#45;&gt;PageElementModule</title>
<path fill="none" stroke="black" d="M392,-122.29C392,-144.21 392,-178 392,-178 392,-178 1704.01,-178 1704.01,-178"/>
<polygon fill="black" stroke="black" points="1704.01,-181.5 1714.01,-178 1704.01,-174.5 1704.01,-181.5"/>
</g>
<!-- UseButtonModule -->
<g id="node24" class="node">
<title>UseButtonModule</title>
<polygon fill="#8dd3c7" stroke="black" points="305.93,-122 302.93,-126 281.93,-126 278.93,-122 186.07,-122 186.07,-86 305.93,-86 305.93,-122"/>
<text text-anchor="middle" x="246" y="-99.8" font-family="Times,serif" font-size="14.00">UseButtonModule</text>
</g>
<!-- UseButtonModule&#45;&gt;PageElementModule -->
<g id="edge24" class="edge">
<title>UseButtonModule&#45;&gt;PageElementModule</title>
<path fill="none" stroke="black" d="M246,-122.25C246,-145.02 246,-181 246,-181 246,-181 1704.06,-181 1704.06,-181"/>
<polygon fill="black" stroke="black" points="1704.06,-184.5 1714.06,-181 1704.06,-177.5 1704.06,-184.5"/>
</g>
<!-- YoutubeModelModule -->
<g id="node25" class="node">
<title>YoutubeModelModule</title>
<polygon fill="#8dd3c7" stroke="black" points="168.31,-122 165.31,-126 144.31,-126 141.31,-122 23.69,-122 23.69,-86 168.31,-86 168.31,-122"/>
<text text-anchor="middle" x="96" y="-99.8" font-family="Times,serif" font-size="14.00">YoutubeModelModule</text>
</g>
<!-- YoutubeModelModule&#45;&gt;PageElementModule -->
<g id="edge25" class="edge">
<title>YoutubeModelModule&#45;&gt;PageElementModule</title>
<path fill="none" stroke="black" d="M96,-122.15C96,-145.76 96,-184 96,-184 96,-184 1704.17,-184 1704.17,-184"/>
<polygon fill="black" stroke="black" points="1704.17,-187.5 1714.17,-184 1704.17,-180.5 1704.17,-187.5"/>
</g>
</g>
</svg>
