<svg width="48" height="48" viewBox="0 0 48 48" fill="none" xmlns="http://www.w3.org/2000/svg">
  <rect width="48" height="48" rx="24" fill="currentColor"/>
  <g clip-path="url(#clip0_771_2829)">
    <path fill-rule="evenodd" clip-rule="evenodd" d="M19.053 12.072C20.333 12.013 20.74 12 24 12s3.668.014 4.946.072c1.279.058 2.151.262 2.915.558.8.302 1.525.774 2.125 1.385a5.862 5.862 0 0 1 1.384 2.124c.296.764.5 1.636.558 2.913.059 1.282.072 1.69.072 4.948 0 3.26-.014 3.668-.072 4.947-.058 1.277-.262 2.15-.558 2.913a5.887 5.887 0 0 1-1.384 2.126 5.885 5.885 0 0 1-2.125 1.384c-.764.296-1.636.5-2.913.558-1.28.059-1.688.072-4.948.072-3.26 0-3.668-.014-4.947-.072-1.277-.058-2.15-.262-2.913-.558a5.889 5.889 0 0 1-2.126-1.384 5.882 5.882 0 0 1-1.384-2.125c-.296-.764-.5-1.636-.558-2.913C12.013 27.666 12 27.258 12 24c0-3.26.014-3.668.072-4.946.058-1.279.262-2.151.558-2.915.301-.8.774-1.526 1.385-2.125a5.882 5.882 0 0 1 2.124-1.384c.764-.296 1.636-.5 2.913-.558Zm9.796 2.16c-1.265-.058-1.645-.07-4.849-.07s-3.584.012-4.85.07c-1.17.054-1.804.249-2.228.414-.56.218-.96.476-1.38.896a3.72 3.72 0 0 0-.896 1.38c-.165.424-.36 1.058-.414 2.229-.058 1.265-.07 1.645-.07 4.849s.012 3.584.07 4.85c.054 1.17.249 1.804.414 2.228.191.52.498.993.896 1.38.388.398.86.705 1.38.897.424.164 1.058.36 2.229.413 1.265.058 1.644.07 4.849.07s3.584-.012 4.85-.07c1.17-.053 1.804-.249 2.228-.413.56-.219.96-.477 1.38-.897.398-.387.705-.86.897-1.38.164-.424.36-1.058.413-2.229.058-1.265.07-1.645.07-4.849s-.012-3.584-.07-4.85c-.053-1.17-.249-1.804-.413-2.228a3.725 3.725 0 0 0-.897-1.38 3.723 3.723 0 0 0-1.38-.896c-.424-.165-1.058-.36-2.229-.414Zm-6.382 13.467a4.002 4.002 0 0 0 4.364-6.53 4.002 4.002 0 0 0-5.797 5.52c.397.439.887.784 1.433 1.01Zm-2.828-8.06a6.17 6.17 0 0 1 10.06 2 6.167 6.167 0 1 1-10.06-2Zm11.897-.889a1.456 1.456 0 0 0 .03-2.092 1.46 1.46 0 0 0-2.092.03 1.458 1.458 0 0 0 2.062 2.063Z" fill="#fff" class="label"/>
  </g>
</svg>
