<svg width="4" height="6" viewBox="0 0 4 6" fill="none" xmlns="http://www.w3.org/2000/svg">
<path d="M3.32007 5.16281C3.32007 5.24318 3.29299 5.30793 3.23882 5.35706C3.18465 5.40619 3.12145 5.43076 3.04922 5.43076C3.04005 5.43076 2.97648 5.40022 2.85852 5.33914L0.804074 3.28654C0.766896 3.24936 0.737196 3.205 0.714974 3.15346C0.692752 3.1019 0.681641 3.05075 0.681641 3.00001C0.681641 2.94926 0.692752 2.89811 0.714974 2.84656C0.737196 2.79501 0.766902 2.75065 0.80409 2.71347L2.85804 0.660738C2.88637 0.632427 2.91804 0.610105 2.95302 0.593771C2.98801 0.577427 3.02315 0.569256 3.05844 0.569256C3.12902 0.569256 3.19027 0.593823 3.24219 0.642956C3.29411 0.692078 3.32007 0.756828 3.32007 0.837205L3.32007 5.16281Z" fill="#4C4C58"/>
</svg>
