<svg width="24" height="24" viewBox="0 0 24 24" fill="none" xmlns="http://www.w3.org/2000/svg">
<path d="M6.80735 4.02542C6.54214 3.51266 4.5 3.54803 4.5 4.14035V8.48113C4.86246 7.8004 5.36636 7.19923 5.97635 6.73068C6.00287 5.76704 6.29461 4.82993 6.80735 4.01658V4.02542Z" fill="white"/>
<path d="M14.5527 15.8986H9.93799V19.3553C11.4762 20.1598 13.1382 20.7168 14.5527 20.9201V15.8898V15.8986Z" fill="white"/>
<path d="M8.44341 12.1768V9.71027H7.09082C7.37371 10.5678 7.82458 11.3988 8.44341 12.1768Z" fill="white"/>
<path d="M16.0575 14.3958H18.6035C18.4621 12.9194 18.2057 11.7967 18.2057 11.7967C18.2057 11.7967 17.9582 10.7623 17.3659 9.71027H16.0575V14.3958Z" fill="white"/>
<path d="M9.94482 9.71027V14.3958H14.5595V9.71027H13.87C13.923 9.96665 14.0114 10.2495 14.1352 10.5678C14.0379 10.4617 13.8523 10.1346 13.6932 9.71027H9.94482Z" fill="white"/>
<path d="M8.44502 12.1768C7.54329 11.5668 6.86258 10.7004 6.48244 9.71027H5.32434C4.99725 10.6562 4.74972 11.9823 4.92653 13.7505C4.94421 13.9715 4.99725 14.1837 5.05029 14.3958H8.43618V12.1768H8.44502Z" fill="white"/>
<path d="M8.44367 15.899H5.76501C6.40153 16.845 7.34745 17.7202 8.44367 18.4628V15.899Z" fill="white"/>
<path d="M16.0575 15.899V21.0001C16.8531 20.9382 17.4808 20.6995 17.7991 20.231C18.5417 19.1524 18.7185 17.4815 18.6919 15.899H16.0575Z" fill="white"/>
<path d="M8.44528 8.20751V3.54846C7.13689 4.83036 6.61531 6.50125 6.77444 8.20751H8.44528Z" fill="white"/>
<path d="M9.94482 8.20731H13.4191C13.4368 7.85368 13.5252 7.50006 13.7285 7.19947C13.9584 6.89889 14.2501 6.66903 14.5595 6.47454V3.67204C13.3307 3.81349 11.1913 4.32625 10.5283 6.15627C10.5283 3.15044 14.1617 2.97362 14.5595 2.96478V2.77913C14.2324 2.03651 11.8986 1.61216 9.94482 2.49622V8.20731Z" fill="white"/>
<path d="M16.0562 6.00593C16.0562 6.00593 16.0827 6.00593 16.0916 6.00593C16.6839 6.00593 17.1701 5.52853 17.1789 4.93621C17.1789 4.83012 17.1701 4.73287 17.1347 4.63562C17.0375 3.96373 16.4982 3.73387 16.0474 3.66315V6.01477L16.0562 6.00593Z" fill="white"/>
</svg>
