<?xml version="1.0" encoding="UTF-8" standalone="no"?>
<!DOCTYPE svg PUBLIC "-//W3C//DTD SVG 1.1//EN"
 "http://www.w3.org/Graphics/SVG/1.1/DTD/svg11.dtd">
<!-- Generated by graphviz version 2.47.0 (20210316.0004)
 -->
<!-- Title: dependencies Pages: 1 -->
<svg width="504pt" height="284pt"
 viewBox="0.00 0.00 504.00 284.00" xmlns="http://www.w3.org/2000/svg" xmlns:xlink="http://www.w3.org/1999/xlink">
<g id="graph0" class="graph" transform="scale(1 1) rotate(0) translate(4 280)">
<title>dependencies</title>
<polygon fill="white" stroke="transparent" points="-4,4 -4,-280 500,-280 500,4 -4,4"/>
<text text-anchor="start" x="227.01" y="-42.4" font-family="Times-12" font-weight="bold" font-size="14.00">Legend</text>
<polygon fill="#ffffb3" stroke="transparent" points="14,-10 14,-30 34,-30 34,-10 14,-10"/>
<text text-anchor="start" x="37.63" y="-15.4" font-family="Times-12" font-size="14.00"> &#160;Declarations</text>
<polygon fill="#8dd3c7" stroke="transparent" points="127,-10 127,-30 147,-30 147,-10 127,-10"/>
<text text-anchor="start" x="150.73" y="-15.4" font-family="Times-12" font-size="14.00"> &#160;Module</text>
<polygon fill="#80b1d3" stroke="transparent" points="213,-10 213,-30 233,-30 233,-10 213,-10"/>
<text text-anchor="start" x="236.78" y="-15.4" font-family="Times-12" font-size="14.00"> &#160;Bootstrap</text>
<polygon fill="#fdb462" stroke="transparent" points="310,-10 310,-30 330,-30 330,-10 310,-10"/>
<text text-anchor="start" x="333.67" y="-15.4" font-family="Times-12" font-size="14.00"> &#160;Providers</text>
<polygon fill="#fb8072" stroke="transparent" points="406,-10 406,-30 426,-30 426,-10 406,-10"/>
<text text-anchor="start" x="429.73" y="-15.4" font-family="Times-12" font-size="14.00"> &#160;Exports</text>
<g id="clust1" class="cluster">
<title>cluster_BrandModule</title>
<polygon fill="none" stroke="black" stroke-dasharray="1,5" points="74,-70 74,-268 422,-268 422,-70 74,-70"/>
</g>
<g id="clust3" class="cluster">
<title>cluster_BrandModule_imports</title>
<polygon fill="none" stroke="black" points="86,-78 86,-130 411,-130 411,-78 86,-78"/>
</g>
<g id="clust4" class="cluster">
<title>cluster_BrandModule_exports</title>
<polygon fill="none" stroke="black" points="82,-208 82,-260 414,-260 414,-208 82,-208"/>
</g>
<!-- BrandLogoComponent -->
<g id="node1" class="node">
<title>BrandLogoComponent</title>
<polygon fill="#8dd3c7" stroke="black" points="402.6,-122 399.6,-126 378.6,-126 375.6,-122 257.4,-122 257.4,-86 402.6,-86 402.6,-122"/>
<text text-anchor="middle" x="330" y="-99.8" font-family="Times,serif" font-size="14.00">BrandLogoComponent</text>
</g>
<!-- BrandModule -->
<g id="node3" class="node">
<title>BrandModule</title>
<polygon fill="#8dd3c7" stroke="black" points="214.76,-187 211.76,-191 190.76,-191 187.76,-187 121.24,-187 121.24,-151 214.76,-151 214.76,-187"/>
<text text-anchor="middle" x="168" y="-164.8" font-family="Times,serif" font-size="14.00">BrandModule</text>
</g>
<!-- BrandLogoComponent&#45;&gt;BrandModule -->
<g id="edge1" class="edge">
<title>BrandLogoComponent&#45;&gt;BrandModule</title>
<path fill="none" stroke="black" d="M354.27,-122.02C354.27,-139.37 354.27,-163 354.27,-163 354.27,-163 225,-163 225,-163"/>
<polygon fill="black" stroke="black" points="225,-159.5 215,-163 225,-166.5 225,-159.5"/>
</g>
<!-- BrandMarkComponent -->
<g id="node2" class="node">
<title>BrandMarkComponent</title>
<polygon fill="#8dd3c7" stroke="black" points="239.86,-122 236.86,-126 215.86,-126 212.86,-122 94.14,-122 94.14,-86 239.86,-86 239.86,-122"/>
<text text-anchor="middle" x="167" y="-99.8" font-family="Times,serif" font-size="14.00">BrandMarkComponent</text>
</g>
<!-- BrandMarkComponent&#45;&gt;BrandModule -->
<g id="edge2" class="edge">
<title>BrandMarkComponent&#45;&gt;BrandModule</title>
<path fill="none" stroke="black" d="M168,-122.11C168,-122.11 168,-140.99 168,-140.99"/>
<polygon fill="black" stroke="black" points="164.5,-140.99 168,-150.99 171.5,-140.99 164.5,-140.99"/>
</g>
<!-- BrandLogoComponent  -->
<g id="node4" class="node">
<title>BrandLogoComponent </title>
<polygon fill="#fb8072" stroke="black" points="406.1,-252 257.9,-252 257.9,-216 406.1,-216 406.1,-252"/>
<text text-anchor="middle" x="332" y="-229.8" font-family="Times,serif" font-size="14.00">BrandLogoComponent </text>
</g>
<!-- BrandModule&#45;&gt;BrandLogoComponent  -->
<g id="edge3" class="edge">
<title>BrandModule&#45;&gt;BrandLogoComponent </title>
<path fill="none" stroke="black" stroke-dasharray="5,2" d="M215.1,-175C255.07,-175 305.98,-175 305.98,-175 305.98,-175 305.98,-205.98 305.98,-205.98"/>
<polygon fill="black" stroke="black" points="302.48,-205.98 305.98,-215.98 309.48,-205.98 302.48,-205.98"/>
</g>
<!-- BrandMarkComponent  -->
<g id="node5" class="node">
<title>BrandMarkComponent </title>
<polygon fill="#fb8072" stroke="black" points="239.86,-252 90.14,-252 90.14,-216 239.86,-216 239.86,-252"/>
<text text-anchor="middle" x="165" y="-229.8" font-family="Times,serif" font-size="14.00">BrandMarkComponent </text>
</g>
<!-- BrandModule&#45;&gt;BrandMarkComponent  -->
<g id="edge4" class="edge">
<title>BrandModule&#45;&gt;BrandMarkComponent </title>
<path fill="none" stroke="black" stroke-dasharray="5,2" d="M168,-187.11C168,-187.11 168,-205.99 168,-205.99"/>
<polygon fill="black" stroke="black" points="164.5,-205.99 168,-215.99 171.5,-205.99 164.5,-205.99"/>
</g>
</g>
</svg>
