<?xml version="1.0" encoding="UTF-8" standalone="no"?>
<!DOCTYPE svg PUBLIC "-//W3C//DTD SVG 1.1//EN"
 "http://www.w3.org/Graphics/SVG/1.1/DTD/svg11.dtd">
<!-- Generated by graphviz version 2.47.0 (20210316.0004)
 -->
<!-- Title: dependencies Pages: 1 -->
<svg width="570pt" height="284pt"
 viewBox="0.00 0.00 570.00 284.00" xmlns="http://www.w3.org/2000/svg" xmlns:xlink="http://www.w3.org/1999/xlink">
<g id="graph0" class="graph" transform="scale(1 1) rotate(0) translate(4 280)">
<title>dependencies</title>
<polygon fill="white" stroke="transparent" points="-4,4 -4,-280 566,-280 566,4 -4,4"/>
<text text-anchor="start" x="260.01" y="-42.4" font-family="Times-12" font-weight="bold" font-size="14.00">Legend</text>
<polygon fill="#ffffb3" stroke="transparent" points="47,-10 47,-30 67,-30 67,-10 47,-10"/>
<text text-anchor="start" x="70.63" y="-15.4" font-family="Times-12" font-size="14.00"> &#160;Declarations</text>
<polygon fill="#8dd3c7" stroke="transparent" points="160,-10 160,-30 180,-30 180,-10 160,-10"/>
<text text-anchor="start" x="183.73" y="-15.4" font-family="Times-12" font-size="14.00"> &#160;Module</text>
<polygon fill="#80b1d3" stroke="transparent" points="246,-10 246,-30 266,-30 266,-10 246,-10"/>
<text text-anchor="start" x="269.78" y="-15.4" font-family="Times-12" font-size="14.00"> &#160;Bootstrap</text>
<polygon fill="#fdb462" stroke="transparent" points="343,-10 343,-30 363,-30 363,-10 343,-10"/>
<text text-anchor="start" x="366.67" y="-15.4" font-family="Times-12" font-size="14.00"> &#160;Providers</text>
<polygon fill="#fb8072" stroke="transparent" points="439,-10 439,-30 459,-30 459,-10 439,-10"/>
<text text-anchor="start" x="462.73" y="-15.4" font-family="Times-12" font-size="14.00"> &#160;Exports</text>
<g id="clust1" class="cluster">
<title>cluster_PlaygroundModule</title>
<polygon fill="none" stroke="black" stroke-dasharray="1,5" points="8,-70 8,-268 554,-268 554,-70 8,-70"/>
</g>
<g id="clust4" class="cluster">
<title>cluster_PlaygroundModule_imports</title>
<polygon fill="none" stroke="black" points="186,-78 186,-130 546,-130 546,-78 186,-78"/>
</g>
<g id="clust5" class="cluster">
<title>cluster_PlaygroundModule_exports</title>
<polygon fill="none" stroke="black" points="216,-208 216,-260 382,-260 382,-208 216,-208"/>
</g>
<g id="clust2" class="cluster">
<title>cluster_PlaygroundModule_declarations</title>
<polygon fill="none" stroke="black" points="16,-78 16,-130 178,-130 178,-78 16,-78"/>
</g>
<!-- PlaygroundComponent -->
<g id="node1" class="node">
<title>PlaygroundComponent</title>
<polygon fill="#ffffb3" stroke="black" points="169.88,-122 24.12,-122 24.12,-86 169.88,-86 169.88,-122"/>
<text text-anchor="middle" x="97" y="-99.8" font-family="Times,serif" font-size="14.00">PlaygroundComponent</text>
</g>
<!-- PlaygroundModule -->
<g id="node2" class="node">
<title>PlaygroundModule</title>
<polygon fill="#8dd3c7" stroke="black" points="361.1,-187 358.1,-191 337.1,-191 334.1,-187 236.9,-187 236.9,-151 361.1,-151 361.1,-187"/>
<text text-anchor="middle" x="299" y="-164.8" font-family="Times,serif" font-size="14.00">PlaygroundModule</text>
</g>
<!-- PlaygroundComponent&#45;&gt;PlaygroundModule -->
<g id="edge1" class="edge">
<title>PlaygroundComponent&#45;&gt;PlaygroundModule</title>
<path fill="none" stroke="black" d="M97,-122.11C97,-141.34 97,-169 97,-169 97,-169 226.75,-169 226.75,-169"/>
<polygon fill="black" stroke="black" points="226.75,-172.5 236.75,-169 226.75,-165.5 226.75,-172.5"/>
</g>
<!-- PlaygroundComponent  -->
<g id="node6" class="node">
<title>PlaygroundComponent </title>
<polygon fill="#fb8072" stroke="black" points="373.88,-252 224.12,-252 224.12,-216 373.88,-216 373.88,-252"/>
<text text-anchor="middle" x="299" y="-229.8" font-family="Times,serif" font-size="14.00">PlaygroundComponent </text>
</g>
<!-- PlaygroundModule&#45;&gt;PlaygroundComponent  -->
<g id="edge5" class="edge">
<title>PlaygroundModule&#45;&gt;PlaygroundComponent </title>
<path fill="none" stroke="black" stroke-dasharray="5,2" d="M299,-187.11C299,-187.11 299,-205.99 299,-205.99"/>
<polygon fill="black" stroke="black" points="295.5,-205.99 299,-215.99 302.5,-205.99 295.5,-205.99"/>
</g>
<!-- FileUploadModule -->
<g id="node3" class="node">
<title>FileUploadModule</title>
<polygon fill="#8dd3c7" stroke="black" points="538.04,-122 535.04,-126 514.04,-126 511.04,-122 415.96,-122 415.96,-86 538.04,-86 538.04,-122"/>
<text text-anchor="middle" x="477" y="-99.8" font-family="Times,serif" font-size="14.00">FileUploadModule</text>
</g>
<!-- FileUploadModule&#45;&gt;PlaygroundModule -->
<g id="edge2" class="edge">
<title>FileUploadModule&#45;&gt;PlaygroundModule</title>
<path fill="none" stroke="black" d="M477,-122.11C477,-141.34 477,-169 477,-169 477,-169 371.26,-169 371.26,-169"/>
<polygon fill="black" stroke="black" points="371.26,-165.5 361.26,-169 371.26,-172.5 371.26,-165.5"/>
</g>
<!-- TreeModule -->
<g id="node4" class="node">
<title>TreeModule</title>
<polygon fill="#8dd3c7" stroke="black" points="397.69,-122 394.69,-126 373.69,-126 370.69,-122 312.31,-122 312.31,-86 397.69,-86 397.69,-122"/>
<text text-anchor="middle" x="355" y="-99.8" font-family="Times,serif" font-size="14.00">TreeModule</text>
</g>
<!-- TreeModule&#45;&gt;PlaygroundModule -->
<g id="edge3" class="edge">
<title>TreeModule&#45;&gt;PlaygroundModule</title>
<path fill="none" stroke="black" d="M336.73,-122.11C336.73,-122.11 336.73,-140.99 336.73,-140.99"/>
<polygon fill="black" stroke="black" points="333.23,-140.99 336.73,-150.99 340.23,-140.99 333.23,-140.99"/>
</g>
<!-- UploadModule -->
<g id="node5" class="node">
<title>UploadModule</title>
<polygon fill="#8dd3c7" stroke="black" points="294.26,-122 291.26,-126 270.26,-126 267.26,-122 193.74,-122 193.74,-86 294.26,-86 294.26,-122"/>
<text text-anchor="middle" x="244" y="-99.8" font-family="Times,serif" font-size="14.00">UploadModule</text>
</g>
<!-- UploadModule&#45;&gt;PlaygroundModule -->
<g id="edge4" class="edge">
<title>UploadModule&#45;&gt;PlaygroundModule</title>
<path fill="none" stroke="black" d="M265.67,-122.11C265.67,-122.11 265.67,-140.99 265.67,-140.99"/>
<polygon fill="black" stroke="black" points="262.17,-140.99 265.67,-150.99 269.17,-140.99 262.17,-140.99"/>
</g>
</g>
</svg>
