<?xml version="1.0" encoding="UTF-8" standalone="no"?>
<!DOCTYPE svg PUBLIC "-//W3C//DTD SVG 1.1//EN"
 "http://www.w3.org/Graphics/SVG/1.1/DTD/svg11.dtd">
<!-- Generated by graphviz version 2.47.0 (20210316.0004)
 -->
<!-- Title: dependencies Pages: 1 -->
<svg width="570pt" height="284pt"
 viewBox="0.00 0.00 570.00 284.00" xmlns="http://www.w3.org/2000/svg" xmlns:xlink="http://www.w3.org/1999/xlink">
<g id="graph0" class="graph" transform="scale(1 1) rotate(0) translate(4 280)">
<title>dependencies</title>
<polygon fill="white" stroke="transparent" points="-4,4 -4,-280 566,-280 566,4 -4,4"/>
<text text-anchor="start" x="260.01" y="-42.4" font-family="Times-12" font-weight="bold" font-size="14.00">Legend</text>
<polygon fill="#ffffb3" stroke="transparent" points="47,-10 47,-30 67,-30 67,-10 47,-10"/>
<text text-anchor="start" x="70.63" y="-15.4" font-family="Times-12" font-size="14.00"> &#160;Declarations</text>
<polygon fill="#8dd3c7" stroke="transparent" points="160,-10 160,-30 180,-30 180,-10 160,-10"/>
<text text-anchor="start" x="183.73" y="-15.4" font-family="Times-12" font-size="14.00"> &#160;Module</text>
<polygon fill="#80b1d3" stroke="transparent" points="246,-10 246,-30 266,-30 266,-10 246,-10"/>
<text text-anchor="start" x="269.78" y="-15.4" font-family="Times-12" font-size="14.00"> &#160;Bootstrap</text>
<polygon fill="#fdb462" stroke="transparent" points="343,-10 343,-30 363,-30 363,-10 343,-10"/>
<text text-anchor="start" x="366.67" y="-15.4" font-family="Times-12" font-size="14.00"> &#160;Providers</text>
<polygon fill="#fb8072" stroke="transparent" points="439,-10 439,-30 459,-30 459,-10 439,-10"/>
<text text-anchor="start" x="462.73" y="-15.4" font-family="Times-12" font-size="14.00"> &#160;Exports</text>
<g id="clust1" class="cluster">
<title>cluster_PlaygroundModule</title>
<polygon fill="none" stroke="black" stroke-dasharray="1,5" points="8,-70 8,-268 554,-268 554,-70 8,-70"/>
</g>
<g id="clust2" class="cluster">
<title>cluster_PlaygroundModule_declarations</title>
<polygon fill="none" stroke="black" points="384,-78 384,-130 546,-130 546,-78 384,-78"/>
</g>
<g id="clust5" class="cluster">
<title>cluster_PlaygroundModule_exports</title>
<polygon fill="none" stroke="black" points="163,-208 163,-260 329,-260 329,-208 163,-208"/>
</g>
<g id="clust4" class="cluster">
<title>cluster_PlaygroundModule_imports</title>
<polygon fill="none" stroke="black" points="16,-78 16,-130 376,-130 376,-78 16,-78"/>
</g>
<!-- PlaygroundComponent -->
<g id="node1" class="node">
<title>PlaygroundComponent</title>
<polygon fill="#ffffb3" stroke="black" points="537.88,-122 392.12,-122 392.12,-86 537.88,-86 537.88,-122"/>
<text text-anchor="middle" x="465" y="-99.8" font-family="Times,serif" font-size="14.00">PlaygroundComponent</text>
</g>
<!-- PlaygroundModule -->
<g id="node2" class="node">
<title>PlaygroundModule</title>
<polygon fill="#8dd3c7" stroke="black" points="308.1,-187 305.1,-191 284.1,-191 281.1,-187 183.9,-187 183.9,-151 308.1,-151 308.1,-187"/>
<text text-anchor="middle" x="246" y="-164.8" font-family="Times,serif" font-size="14.00">PlaygroundModule</text>
</g>
<!-- PlaygroundComponent&#45;&gt;PlaygroundModule -->
<g id="edge1" class="edge">
<title>PlaygroundComponent&#45;&gt;PlaygroundModule</title>
<path fill="none" stroke="black" d="M465,-122.11C465,-141.34 465,-169 465,-169 465,-169 318.17,-169 318.17,-169"/>
<polygon fill="black" stroke="black" points="318.17,-165.5 308.17,-169 318.17,-172.5 318.17,-165.5"/>
</g>
<!-- PlaygroundComponent  -->
<g id="node6" class="node">
<title>PlaygroundComponent </title>
<polygon fill="#fb8072" stroke="black" points="320.88,-252 171.12,-252 171.12,-216 320.88,-216 320.88,-252"/>
<text text-anchor="middle" x="246" y="-229.8" font-family="Times,serif" font-size="14.00">PlaygroundComponent </text>
</g>
<!-- PlaygroundModule&#45;&gt;PlaygroundComponent  -->
<g id="edge5" class="edge">
<title>PlaygroundModule&#45;&gt;PlaygroundComponent </title>
<path fill="none" stroke="black" stroke-dasharray="5,2" d="M246,-187.11C246,-187.11 246,-205.99 246,-205.99"/>
<polygon fill="black" stroke="black" points="242.5,-205.99 246,-215.99 249.5,-205.99 242.5,-205.99"/>
</g>
<!-- FileUploadModule -->
<g id="node3" class="node">
<title>FileUploadModule</title>
<polygon fill="#8dd3c7" stroke="black" points="368.04,-122 365.04,-126 344.04,-126 341.04,-122 245.96,-122 245.96,-86 368.04,-86 368.04,-122"/>
<text text-anchor="middle" x="307" y="-99.8" font-family="Times,serif" font-size="14.00">FileUploadModule</text>
</g>
<!-- FileUploadModule&#45;&gt;PlaygroundModule -->
<g id="edge2" class="edge">
<title>FileUploadModule&#45;&gt;PlaygroundModule</title>
<path fill="none" stroke="black" d="M276.89,-122.11C276.89,-122.11 276.89,-140.99 276.89,-140.99"/>
<polygon fill="black" stroke="black" points="273.39,-140.99 276.89,-150.99 280.39,-140.99 273.39,-140.99"/>
</g>
<!-- TreeModule -->
<g id="node4" class="node">
<title>TreeModule</title>
<polygon fill="#8dd3c7" stroke="black" points="227.69,-122 224.69,-126 203.69,-126 200.69,-122 142.31,-122 142.31,-86 227.69,-86 227.69,-122"/>
<text text-anchor="middle" x="185" y="-99.8" font-family="Times,serif" font-size="14.00">TreeModule</text>
</g>
<!-- TreeModule&#45;&gt;PlaygroundModule -->
<g id="edge3" class="edge">
<title>TreeModule&#45;&gt;PlaygroundModule</title>
<path fill="none" stroke="black" d="M205.77,-122.11C205.77,-122.11 205.77,-140.99 205.77,-140.99"/>
<polygon fill="black" stroke="black" points="202.27,-140.99 205.77,-150.99 209.27,-140.99 202.27,-140.99"/>
</g>
<!-- UploadModule -->
<g id="node5" class="node">
<title>UploadModule</title>
<polygon fill="#8dd3c7" stroke="black" points="124.26,-122 121.26,-126 100.26,-126 97.26,-122 23.74,-122 23.74,-86 124.26,-86 124.26,-122"/>
<text text-anchor="middle" x="74" y="-99.8" font-family="Times,serif" font-size="14.00">UploadModule</text>
</g>
<!-- UploadModule&#45;&gt;PlaygroundModule -->
<g id="edge4" class="edge">
<title>UploadModule&#45;&gt;PlaygroundModule</title>
<path fill="none" stroke="black" d="M74,-122.11C74,-141.34 74,-169 74,-169 74,-169 173.9,-169 173.9,-169"/>
<polygon fill="black" stroke="black" points="173.9,-172.5 183.9,-169 173.9,-165.5 173.9,-172.5"/>
</g>
</g>
</svg>
