<svg width="24" height="24" viewBox="0 0 24 24" fill="none" xmlns="http://www.w3.org/2000/svg">
<path d="M18.5291 12.4344C18.5291 12.4344 17.7965 9.03043 15.8704 8.09597C15.3068 7.89136 13.6733 8.42374 14.6623 11.1223C14.4205 10.8027 13.5125 8.81768 14.2742 7.53814C14.8141 6.75127 15.644 6.28099 16.5294 6.25859C17.0957 6.2647 17.5583 5.75472 17.5638 5.12054C17.5638 5.01162 17.552 4.90372 17.5256 4.79887C17.3647 3.5519 15.9067 3.72495 15.9067 3.72495C15.9067 3.72495 12.1353 3.6425 11.2345 6.43164C11.2345 3.04497 15.1014 3.02767 15.1014 3.02767C15.1014 1.97818 11.8572 1.32975 9.7847 3.12641C6.99412 5.5379 7.01685 9.687 9.25022 12.8365C7.95583 11.8654 7.14319 10.2723 7.0532 8.53062C6.68688 9.05588 5.58883 10.991 5.91061 14.5171C6.37237 19.848 16.4857 24.1121 18.1483 21.4146C19.8108 18.7161 18.5291 12.4344 18.5291 12.4344ZM13.5143 10.6388C13.9542 10.8301 14.2451 11.6292 14.4314 12.0639C14.5032 12.2318 14.5769 12.4049 14.5941 12.5912C14.6105 12.7774 14.5605 12.9821 14.426 13.092C14.336 13.1663 14.2187 13.1887 14.1069 13.1826C13.9688 13.1744 13.8315 13.1246 13.717 13.038C13.7552 13.2437 13.7133 13.4676 13.6043 13.6386C13.5115 13.7852 13.3334 13.8951 13.1925 13.8096C13.1525 13.7852 13.1198 13.7475 13.0925 13.7068C12.9662 13.5195 12.9362 13.2701 12.9562 13.037C12.9771 12.8039 13.0425 12.5789 13.0916 12.3509C13.1689 11.9896 13.2016 11.619 13.2189 11.2485C13.2298 11.0113 13.1734 10.4912 13.5152 10.6398L13.5143 10.6388ZM10.7019 12.5026C11.1645 11.1549 11.3872 9.72059 11.5145 8.28835C11.5418 7.98399 11.5072 7.59921 11.7208 7.36712C11.8863 7.18695 12.1426 7.17779 12.3735 7.18593C12.4408 7.18797 12.5089 7.19102 12.5735 7.21138C12.6726 7.24294 12.7589 7.31419 12.8325 7.39563C12.9262 7.49946 13.0016 7.62263 13.0561 7.75699C13.2134 8.14788 13.1752 8.6029 13.0761 9.01618C12.9771 9.42946 12.8198 9.82544 12.7444 10.2458C12.7162 10.4036 12.6989 10.5634 12.6825 10.7233C12.5898 11.6078 12.4971 12.4924 12.4044 13.377C12.3908 13.5043 12.3471 13.6661 12.2326 13.6702C12.1972 13.6712 12.1626 13.6559 12.1299 13.6396C11.9963 13.5725 11.8645 13.4941 11.7599 13.378C11.6563 13.262 11.5818 13.1052 11.5854 12.9413C11.5872 12.8721 11.5781 12.7713 11.5163 12.7744C11.4972 12.7744 11.4809 12.7876 11.4654 12.7998C11.3145 12.9128 11.1382 12.9841 10.9582 13.0055C10.8691 13.0156 10.77 13.0106 10.7064 12.9403C10.6082 12.8324 10.6537 12.6482 10.7028 12.5046L10.7019 12.5026ZM9.10478 9.74502C9.0757 9.60862 9.07661 9.46712 9.08024 9.32767C9.09024 8.89708 9.12751 8.45631 9.29385 8.06848C9.32021 8.0074 9.35021 7.94735 9.39475 7.90154C9.47565 7.81909 9.59018 7.79771 9.69926 7.78448C9.94014 7.75496 10.2374 7.76005 10.3855 8.01555C10.4283 8.08986 10.4364 8.16926 10.4619 8.25069C10.5064 8.3932 10.591 8.51637 10.6264 8.66295C10.6582 8.7963 10.6473 8.9378 10.6328 9.0742C10.5473 9.88753 10.3692 10.6897 10.1047 11.4531C9.77834 11.0551 9.49383 10.6143 9.2584 10.143C9.19477 10.0168 9.13478 9.88651 9.10478 9.74502ZM14.0324 19.9519C14.0178 20.0709 13.9451 20.1778 13.8424 20.2114C13.7197 20.2511 13.6443 20.1615 13.5706 20.0842C12.928 19.4185 11.9263 19.508 11.1091 19.1558C10.0219 18.6876 9.2884 17.4467 8.16944 17.0833C7.97673 17.0212 7.72404 16.9164 7.77676 16.669C7.79766 16.5713 7.86584 16.4949 7.94946 16.4573C8.39759 16.2537 8.75028 16.5234 9.49928 16.9245C9.57564 16.9652 9.65199 16.8655 9.60109 16.7891C9.36839 16.4349 9.04752 16.0552 8.61666 15.9015C8.35396 15.8078 7.87674 15.6847 7.66132 15.6918C7.35044 15.701 7.08229 15.4159 6.9723 15.0902C6.86232 14.7645 6.87686 14.4061 6.89231 14.058C6.90777 13.7221 6.84414 11.5946 7.49134 11.8898C7.71767 11.9936 7.91492 12.6634 8.05309 12.8904C8.24216 13.2029 8.46577 13.4931 8.78028 13.6498C9.03752 13.7791 9.39021 13.8799 9.41566 14.1944C9.42475 14.3064 9.41384 14.9416 9.41747 15.0546C9.43475 15.591 9.65108 16.1753 9.78743 16.2303C10.0183 16.3239 9.79289 15.8241 9.75562 15.5717C9.72835 15.3854 9.73289 15.2347 9.78198 15.0546C9.86742 14.736 10.1538 14.5466 10.4328 14.4316C10.7146 14.3155 11.0446 14.4122 11.2727 14.6321C11.5009 14.852 11.6318 15.1767 11.6799 15.5075C11.7181 15.7692 11.7081 16.0389 11.7599 16.2985C11.9054 17.0263 12.4889 17.52 13.008 17.9872C13.5615 18.485 14.1324 19.1385 14.0315 19.9519H14.0324ZM17.6083 17.0192C17.4965 17.6757 17.1902 18.2896 16.7484 18.7395C16.603 18.8881 16.4039 19.0265 16.2203 18.9471C16.1185 18.9034 16.0476 18.8006 15.9858 18.6998C15.5968 18.0605 15.3977 17.291 14.9832 16.6721C14.6041 16.1071 14.0488 15.6704 13.8279 15.0088C13.7606 14.8062 13.7288 14.5772 13.7979 14.3756C13.867 14.1741 14.0606 14.0153 14.2487 14.06C14.3069 14.0733 14.3605 14.1048 14.4196 14.113C14.5687 14.1344 14.7078 13.999 14.7614 13.8412C14.7732 13.8056 14.7823 13.7699 14.7887 13.7323C14.8396 13.4299 15.1759 13.3047 15.3777 13.5124C15.3795 13.5144 15.3804 13.5154 15.3822 13.5175C15.5386 13.6824 15.6349 13.9053 15.7276 14.1221C15.8404 14.3878 15.954 14.6525 16.0667 14.9182C15.9885 14.7349 16.0885 14.2555 16.0385 14.0193C15.9703 13.6936 15.8404 13.3841 15.6595 13.1174C15.5213 12.9128 15.2832 12.7622 15.1859 12.5342C15.0623 12.2461 15.1095 11.7473 15.1132 11.4358C15.1186 10.9767 15.1877 10.4616 15.624 10.2591C15.8985 10.1318 16.213 10.1939 16.453 10.3914C16.9802 10.824 17.0757 11.5457 17.1448 12.2206C17.1784 12.5443 17.2011 12.9047 17.0239 13.1643C16.9402 13.2864 16.8193 13.3719 16.733 13.4931C16.6266 13.6417 16.5794 13.8402 16.6048 14.0285C16.8784 13.9868 17.0193 13.5287 17.3184 13.6274C17.4684 13.6763 17.5683 13.8371 17.5765 14.0122L17.6465 15.5299C17.6692 16.0267 17.692 16.5296 17.6092 17.0192H17.6083Z" fill="white"/>
<path d="M6.9062 7.04476C6.93529 6.02072 7.20798 5.02416 7.69702 4.1579C7.44796 3.60821 5.5 3.64893 5.5 4.28107V8.90656C5.84451 8.18078 6.32354 7.54558 6.9062 7.04476Z" fill="white"/>
</svg>
