<svg width="120" height="144" viewBox="0 0 120 144" fill="none" xmlns="http://www.w3.org/2000/svg">
<rect width="120" height="144" rx="4" fill="#FAFAFA"/>
<path d="M87.6053 56.0774C89.248 65.2081 89.5893 72.6961 83.3386 78.5841C78.24 83.3627 75.0826 86.5201 69.472 88.7174C63.072 91.2561 52.4053 87.2027 46.2826 85.7094C37.9413 83.5761 35.04 78.8187 31.8613 70.7761C29.0026 63.3734 29.4933 49.3147 37.1946 54.1574C50.208 62.3494 51.5306 63.8001 58.784 62.2641C77.6213 58.2534 85.408 43.7894 87.6053 56.0774Z" fill="black"/>
<path d="M58.3148 72.0773C58.2657 72.873 58.2657 73.6709 58.3148 74.4666C58.214 77.7479 58.4643 81.0306 59.0615 84.2586C59.0803 84.3413 59.0825 84.4269 59.0679 84.5104C59.0534 84.594 59.0224 84.6738 58.9767 84.7453C58.9311 84.8167 58.8717 84.8784 58.802 84.9267C58.7323 84.975 58.6537 85.009 58.5708 85.0266C58.4211 85.0594 58.2646 85.0333 58.1336 84.9539C58.0025 84.8745 57.907 84.7478 57.8668 84.6C57.8668 84.6 57.8668 84.4293 57.8668 84.2373C57.2649 81.8953 56.8793 79.5031 56.7148 77.0906C56.4588 77.4533 56.1815 77.7946 55.9041 78.1573C55.6268 78.52 55.3921 78.9253 55.1788 79.2666C54.6028 80.2266 54.4535 82.9573 52.9388 83.1706C52.5975 83.1706 51.9788 83.1706 51.9361 82.808C51.8935 82.4453 52.4695 82.104 52.7041 81.848C53.3228 81.208 53.5575 79.544 54.1121 78.6053L54.2401 78.4133C52.8839 78.2632 51.5124 78.4844 50.2721 79.0533C50.198 79.0892 50.1175 79.1099 50.0353 79.1143C49.9531 79.1187 49.8708 79.1066 49.7934 79.0788C49.7159 79.051 49.6447 79.008 49.5841 78.9523C49.5234 78.8967 49.4745 78.8295 49.4401 78.7546C49.3658 78.5987 49.3555 78.4199 49.4113 78.2565C49.4671 78.093 49.5847 77.9579 49.7388 77.88C51.228 77.2058 52.872 76.9477 54.4961 77.1333H55.0508C55.6695 76.3226 56.2455 75.5333 56.6508 75C56.6508 74.7013 56.6508 74.3813 56.6508 74.0826V73.464C56.639 72.4438 56.7902 71.4284 57.0988 70.456C57.5238 69.2773 58.0595 68.1416 58.6988 67.064C57.7556 67.5945 56.8815 68.2394 56.0961 68.984C54.9681 70.1706 53.5704 71.0675 52.0217 71.5986C50.473 72.1297 48.819 72.2793 47.2001 72.0346C46.0055 72.0346 44.6828 72.0346 42.9335 72.0346C42.7637 72.0346 42.6009 71.9672 42.4809 71.8472C42.3609 71.7272 42.2935 71.5644 42.2935 71.3946C42.2935 71.2249 42.3609 71.0621 42.4809 70.9421C42.6009 70.8221 42.7637 70.7546 42.9335 70.7546C44.3547 70.6812 45.7789 70.6812 47.2001 70.7546C48.2241 70.7546 50.8908 70.4346 50.8908 70.4346C52 70.133 53.0573 69.6655 54.0268 69.048C51.2844 68.6814 48.7256 67.4654 46.7095 65.5706C46.5955 65.445 46.5324 65.2815 46.5324 65.112C46.5324 64.9424 46.5955 64.7789 46.7095 64.6533C46.8291 64.536 46.9899 64.4703 47.1575 64.4703C47.325 64.4703 47.4858 64.536 47.6055 64.6533C49.7337 66.7065 52.5632 67.8734 55.5201 67.9173C56.9661 66.596 58.6251 65.5285 60.4268 64.76C60.6188 64.504 60.6828 64.1626 60.9175 63.992C61.1521 63.8213 62.4748 62.4346 62.9015 62.904C63.1771 63.4593 63.3022 64.0772 63.2641 64.696C62.9441 65.336 61.9415 65.2293 61.4295 65.7626C60.2142 66.7952 59.3125 68.1477 58.8268 69.6666" fill="white"/>
<path d="M66.9762 71.4587C67.0838 72.2796 67.1479 73.1056 67.1682 73.9333C67.1682 75.0213 67.1682 76.2373 67.4242 77.752C67.4504 77.9046 67.5328 78.0419 67.6552 78.1367C67.7777 78.2315 67.9312 78.2769 68.0855 78.264C68.1613 78.2586 68.2352 78.2383 68.303 78.2042C68.3708 78.1702 68.4313 78.1231 68.4808 78.0656C68.5304 78.0081 68.5681 77.9413 68.5918 77.8692C68.6155 77.7971 68.6247 77.721 68.6189 77.6453C68.4482 76.152 68.3842 74.9573 68.3415 73.8907C68.4851 72.3939 68.2542 70.8849 67.6695 69.4995C67.0848 68.1142 66.1648 66.896 64.9922 65.9547C64.293 65.263 63.6707 64.4976 63.1362 63.672C64.145 64.205 65.2022 64.6407 66.2935 64.9733C67.208 65.1921 68.1492 65.2783 69.0882 65.2293H69.6642C70.2086 65.2199 70.7511 65.1628 71.2855 65.0587C72.1389 64.9093 74.3362 64.2693 75.5522 64.0347C76.3103 63.9418 77.0768 63.9418 77.8349 64.0347C77.9091 64.0175 77.9791 63.9853 78.0403 63.9399C78.1016 63.8945 78.1528 63.837 78.1909 63.771C78.2289 63.7049 78.2529 63.6317 78.2614 63.556C78.2699 63.4802 78.2627 63.4035 78.2402 63.3307C78.2183 63.2575 78.1821 63.1894 78.1336 63.1304C78.0851 63.0714 78.0254 63.0226 77.9579 62.9869C77.8904 62.9511 77.8165 62.9292 77.7404 62.9223C77.6644 62.9154 77.5877 62.9237 77.5149 62.9467C75.0343 63.4919 72.5026 63.7708 69.9629 63.7787C69.2982 63.7708 68.6351 63.7137 67.9789 63.608C68.7301 62.4119 69.7498 61.4074 70.9571 60.6742C72.1643 59.941 73.5258 59.4992 74.9335 59.384C75.017 59.4003 75.1029 59.3979 75.1853 59.377C75.2677 59.3562 75.3445 59.3173 75.4101 59.2633C75.4757 59.2092 75.5285 59.1413 75.5648 59.0645C75.6011 58.9876 75.6199 58.9037 75.6199 58.8187C75.6199 58.7337 75.6011 58.6497 75.5648 58.5729C75.5285 58.496 75.4757 58.4281 75.4101 58.3741C75.3445 58.32 75.2677 58.2812 75.1853 58.2603C75.1029 58.2394 75.017 58.2371 74.9335 58.2533C73.2682 58.3679 71.6554 58.8837 70.2326 59.7567C68.8098 60.6297 67.6194 61.8339 66.7629 63.2667C64.3309 62.52 63.6482 61.5387 63.6269 62.6907C63.6269 64.248 61.7709 63.992 62.0055 64.1413C62.4813 65.1603 63.2171 66.0359 64.1389 66.68C64.2187 69.3435 63.2803 71.9374 61.5149 73.9333C61.4332 74.0199 61.3874 74.1343 61.3869 74.2533C61.3799 74.3432 61.3958 74.4334 61.4331 74.5155C61.4704 74.5976 61.5279 74.6689 61.6002 74.7227C61.7141 74.8261 61.8624 74.8834 62.0162 74.8834C62.17 74.8834 62.3183 74.8261 62.4322 74.7227C64.0654 72.8082 65.0511 70.4261 65.2482 67.9173C65.7979 68.511 66.2385 69.1971 66.5495 69.944" fill="white"/>
<path d="M64.2667 59.2346C64.7157 59.9736 65.2071 60.6859 65.7387 61.368C67.2107 62.84 64.8427 64.9093 63.7547 65.6346C62.9967 66.0035 62.1464 66.1396 61.3111 66.0257C60.4758 65.9118 59.6929 65.553 59.0614 64.9946C58.9334 64.7813 59.0614 63.864 58.7627 62.328L64.2667 59.2346Z" fill="white"/>
<path d="M87.2424 37.7733C86.522 36.152 86.2001 34.3818 86.3038 32.6107C86.3165 32.1659 86.2358 31.7234 86.0667 31.3118C85.8977 30.9003 85.6441 30.5287 85.3224 30.2213C83.388 28.9332 81.0619 28.3668 78.7518 28.6213C78.5548 28.6213 78.3599 28.6607 78.1784 28.7373C77.997 28.814 77.8328 28.9262 77.6955 29.0675C77.5583 29.2087 77.4507 29.376 77.3793 29.5596C77.3079 29.7431 77.2741 29.9391 77.2798 30.136C77.2848 30.3342 77.3304 30.5292 77.4138 30.709C77.4971 30.8889 77.6165 31.0497 77.7644 31.1817C77.9123 31.3136 78.0857 31.4138 78.2739 31.4762C78.4621 31.5385 78.661 31.5616 78.8584 31.544C80.3253 31.3724 81.8101 31.6397 83.1251 32.312C83.1251 32.312 83.1251 32.312 83.1251 32.504C82.9972 34.6985 83.392 36.8919 84.2771 38.904C84.6079 39.5679 84.7899 40.2959 84.8104 41.0373C84.7678 42.9147 81.6958 44.0667 79.7544 44.0667C78.7518 44.0667 78.2184 43.192 77.2158 41.3147C76.8305 40.534 76.3959 39.7787 75.9144 39.0533C75.1903 38.2842 74.2608 37.7387 73.2362 37.4816C72.2115 37.2245 71.1346 37.2665 70.1331 37.6027C67.1678 38.2213 63.9251 40.248 63.3704 43.384C63.1571 44.5147 62.7944 44.6213 62.6664 44.664C61.9534 44.7495 61.2308 44.7061 60.5331 44.536C59.6603 44.3246 58.7644 44.2243 57.8664 44.2373C57.6104 44.2373 57.5891 44.2373 57.5038 44.0667C57.172 42.8262 57.3009 41.5075 57.8664 40.3547C59.6798 39.1813 59.2958 37.7947 59.1251 37.4107C58.2078 35.1493 53.4291 34.5733 50.4424 35.0213C47.7436 35.5283 45.3442 37.0566 43.7438 39.288C43.3652 39.7394 42.9591 40.1668 42.5278 40.568C41.459 41.3156 40.7173 42.4444 40.4554 43.7222C40.1935 45 40.4313 46.3295 41.1198 47.4373C41.762 49.0123 42.1716 50.6724 42.3358 52.3653C42.3599 52.9162 42.5065 53.4547 42.7648 53.9418C43.0231 54.4289 43.3867 54.8523 43.8291 55.1813C45.6638 56.5253 48.4158 56.0347 50.6131 55.6507C51.163 55.5466 51.7187 55.4754 52.2771 55.4373V55.4373C53.2158 55.4373 53.2584 55.544 53.6424 56.504C53.7948 57.309 54.1888 58.0484 54.7719 58.6239C55.355 59.1994 56.0995 59.5836 56.9064 59.7253C57.9592 59.9572 58.8945 60.5575 59.5438 61.418C60.1931 62.2786 60.5137 63.3427 60.4478 64.4187C60.5758 65.1653 62.0051 64.9093 62.8158 64.7387C63.6264 64.568 64.9491 63.5013 64.9491 62.7547C64.9491 62.584 64.2878 59.32 58.4211 57.1867H58.1011C57.0131 56.9093 56.8638 56.3973 56.5224 55.5227C56.26 54.6209 55.6942 53.8374 54.9206 53.3048C54.147 52.7723 53.2132 52.5233 52.2771 52.6C51.51 52.6312 50.7467 52.7239 49.9944 52.8773C48.6291 53.112 46.3678 53.5173 45.5998 52.8773C45.5998 52.8773 45.3438 52.7067 45.3011 52.152C45.1188 50.2075 44.6441 48.3016 43.8931 46.4987C43.1464 44.4933 42.9331 44.0667 44.5331 42.7867C45.0504 42.2934 45.5417 41.7736 46.0051 41.2293C47.1395 39.5509 48.8715 38.3683 50.8478 37.9227C52.4832 37.6858 54.1506 37.8096 55.7331 38.2853C55.0698 39.2327 54.631 40.3186 54.4499 41.4607C54.2687 42.6029 54.3501 43.7713 54.6878 44.8773C54.9302 45.6217 55.4258 46.2576 56.0883 46.6746C56.7508 47.0916 57.5385 47.2633 58.3144 47.16C58.9092 47.1505 59.5031 47.2078 60.0851 47.3307C61.2636 47.6086 62.4906 47.6086 63.6691 47.3307C64.42 47.0709 65.0785 46.5973 65.5637 45.9681C66.0488 45.3389 66.3394 44.5816 66.3998 43.7893C66.6984 42.0827 68.8318 40.8027 70.7944 40.3973C72.2451 40.0987 73.2051 40.3973 73.3971 40.6107C73.8089 41.2254 74.1795 41.8668 74.5064 42.5307C75.4878 44.408 76.6398 46.7973 79.5838 46.9253C83.3598 47.16 87.7331 44.792 87.9891 41.2293C88.0164 40.0346 87.7605 38.8503 87.2424 37.7733V37.7733Z" fill="#212121"/>
<path d="M32.7997 113V102.818H36.0859C36.8084 102.818 37.4116 102.957 37.8955 103.236C38.3828 103.511 38.749 103.885 38.9943 104.359C39.2428 104.833 39.3671 105.367 39.3671 105.96C39.3671 106.554 39.2445 107.089 38.9992 107.566C38.754 108.04 38.3894 108.416 37.9055 108.695C37.4216 108.97 36.82 109.107 36.1008 109.107H33.5156V108.272H36.0759C36.6096 108.272 37.052 108.173 37.4033 107.974C37.7547 107.772 38.0165 107.496 38.1889 107.148C38.3645 106.8 38.4524 106.404 38.4524 105.96C38.4524 105.516 38.3645 105.12 38.1889 104.772C38.0165 104.424 37.753 104.151 37.3984 103.952C37.0471 103.753 36.6013 103.653 36.061 103.653H33.7293V113H32.7997ZM42.3206 102.818V113H41.4357V102.818H42.3206ZM46.8651 113.174C46.4044 113.174 45.9835 113.085 45.6023 112.906C45.2211 112.723 44.9179 112.461 44.6925 112.12C44.4671 111.775 44.3544 111.358 44.3544 110.867C44.3544 110.489 44.4257 110.171 44.5682 109.913C44.7107 109.654 44.9129 109.442 45.1747 109.276C45.4366 109.111 45.7465 108.98 46.1044 108.884C46.4624 108.787 46.8568 108.713 47.2877 108.66C47.7152 108.607 48.0765 108.56 48.3715 108.521C48.6698 108.481 48.8968 108.418 49.0526 108.332C49.2084 108.246 49.2862 108.106 49.2862 107.914V107.735C49.2862 107.215 49.1305 106.805 48.8189 106.507C48.5107 106.205 48.0665 106.055 47.4865 106.055C46.9363 106.055 46.4872 106.176 46.1392 106.418C45.7945 106.66 45.5526 106.945 45.4134 107.273L44.5732 106.969C44.7455 106.552 44.9842 106.219 45.2891 105.97C45.594 105.718 45.9354 105.538 46.3132 105.428C46.6911 105.316 47.0739 105.259 47.4617 105.259C47.7533 105.259 48.0566 105.297 48.3715 105.374C48.6897 105.45 48.9846 105.582 49.2564 105.771C49.5282 105.957 49.7486 106.217 49.9176 106.552C50.0867 106.883 50.1712 107.304 50.1712 107.815V113H49.2862V111.792H49.2316C49.1255 112.017 48.9681 112.236 48.7593 112.448C48.5505 112.66 48.2886 112.834 47.9737 112.97C47.6589 113.106 47.2893 113.174 46.8651 113.174ZM46.9844 112.364C47.455 112.364 47.8627 112.259 48.2074 112.05C48.5521 111.842 48.8173 111.565 49.0029 111.22C49.1918 110.872 49.2862 110.489 49.2862 110.072V108.968C49.22 109.031 49.1089 109.087 48.9531 109.137C48.8007 109.187 48.6234 109.232 48.4212 109.271C48.2223 109.308 48.0235 109.339 47.8246 109.366C47.6257 109.392 47.4468 109.415 47.2877 109.435C46.8568 109.488 46.4889 109.571 46.184 109.684C45.879 109.797 45.6454 109.952 45.483 110.151C45.3206 110.347 45.2394 110.599 45.2394 110.907C45.2394 111.371 45.4051 111.731 45.7365 111.986C46.068 112.238 46.4839 112.364 46.9844 112.364ZM55.5782 113.159C54.8954 113.159 54.3005 112.988 53.7934 112.647C53.2896 112.306 52.8985 111.838 52.6201 111.245C52.3417 110.652 52.2025 109.976 52.2025 109.217C52.2025 108.451 52.3433 107.77 52.6251 107.173C52.9101 106.577 53.3045 106.109 53.8083 105.771C54.3121 105.43 54.8971 105.259 55.5633 105.259C56.0737 105.259 56.5361 105.359 56.9503 105.558C57.3646 105.753 57.706 106.03 57.9745 106.388C58.2463 106.742 58.417 107.157 58.4866 107.631H57.5917C57.4989 107.2 57.2752 106.832 56.9205 106.527C56.5692 106.219 56.1218 106.065 55.5782 106.065C55.091 106.065 54.6601 106.197 54.2856 106.462C53.9111 106.724 53.6177 107.09 53.4056 107.561C53.1968 108.028 53.0924 108.57 53.0924 109.187C53.0924 109.807 53.1951 110.355 53.4006 110.832C53.6061 111.306 53.8945 111.678 54.2657 111.946C54.6402 112.214 55.0777 112.349 55.5782 112.349C55.9163 112.349 56.2245 112.286 56.5029 112.16C56.7846 112.031 57.02 111.848 57.2089 111.613C57.4011 111.378 57.5304 111.098 57.5967 110.773H58.4915C58.4253 111.233 58.2612 111.644 57.9994 112.006C57.7408 112.364 57.4044 112.645 56.9901 112.851C56.5791 113.056 56.1085 113.159 55.5782 113.159ZM63.5456 113.159C62.833 113.159 62.2165 112.993 61.6961 112.662C61.1758 112.327 60.7731 111.865 60.488 111.275C60.2063 110.682 60.0655 109.999 60.0655 109.227C60.0655 108.458 60.2063 107.775 60.488 107.178C60.7731 106.578 61.1658 106.109 61.6663 105.771C62.1701 105.43 62.7518 105.259 63.4113 105.259C63.8256 105.259 64.225 105.335 64.6095 105.488C64.994 105.637 65.3387 105.867 65.6436 106.179C65.9518 106.487 66.1954 106.877 66.3744 107.347C66.5534 107.815 66.6429 108.368 66.6429 109.008V109.445H60.677V108.665H65.738C65.738 108.174 65.6386 107.733 65.4397 107.342C65.2442 106.948 64.9708 106.636 64.6194 106.408C64.2714 106.179 63.8687 106.065 63.4113 106.065C62.9274 106.065 62.5015 106.194 62.1336 106.452C61.7657 106.711 61.4774 107.052 61.2686 107.477C61.0631 107.901 60.9587 108.365 60.9554 108.869V109.336C60.9554 109.942 61.0598 110.473 61.2686 110.927C61.4807 111.378 61.7806 111.727 62.1684 111.976C62.5562 112.224 63.0153 112.349 63.5456 112.349C63.9068 112.349 64.2234 112.292 64.4951 112.18C64.7702 112.067 65.0006 111.916 65.1862 111.727C65.3751 111.535 65.5176 111.325 65.6137 111.096L66.4539 111.369C66.3379 111.691 66.1474 111.987 65.8822 112.259C65.6204 112.531 65.2923 112.75 64.8978 112.915C64.5067 113.078 64.056 113.159 63.5456 113.159ZM69.5479 108.227V113H68.663V105.364H69.5231V106.562H69.6026C69.7816 106.171 70.06 105.857 70.4378 105.622C70.819 105.384 71.2896 105.264 71.8498 105.264C72.3635 105.264 72.8142 105.372 73.202 105.587C73.5931 105.799 73.8964 106.113 74.1118 106.527C74.3306 106.941 74.44 107.45 74.44 108.053V113H73.555V108.108C73.555 107.482 73.3794 106.986 73.028 106.621C72.68 106.257 72.2127 106.075 71.626 106.075C71.225 106.075 70.8687 106.161 70.5571 106.333C70.2456 106.505 69.9987 106.754 69.8164 107.079C69.6374 107.4 69.5479 107.783 69.5479 108.227ZM79.8482 105.364V106.134H76.204V105.364H79.8482ZM77.3425 103.534H78.2324V111.006C78.2324 111.325 78.2871 111.575 78.3965 111.757C78.5059 111.936 78.6484 112.064 78.8241 112.14C78.9997 112.213 79.187 112.249 79.3858 112.249C79.5018 112.249 79.6013 112.243 79.6841 112.229C79.767 112.213 79.8399 112.196 79.9029 112.18L80.0918 112.98C80.0056 113.013 79.8996 113.043 79.7736 113.07C79.6477 113.099 79.4919 113.114 79.3063 113.114C78.9815 113.114 78.6683 113.043 78.3667 112.901C78.0684 112.758 77.8231 112.546 77.6309 112.264C77.4386 111.982 77.3425 111.633 77.3425 111.215V103.534ZM84.0608 113.174C83.6001 113.174 83.1792 113.085 82.798 112.906C82.4168 112.723 82.1136 112.461 81.8882 112.12C81.6628 111.775 81.5501 111.358 81.5501 110.867C81.5501 110.489 81.6214 110.171 81.7639 109.913C81.9064 109.654 82.1086 109.442 82.3704 109.276C82.6323 109.111 82.9422 108.98 83.3001 108.884C83.6581 108.787 84.0525 108.713 84.4834 108.66C84.9109 108.607 85.2722 108.56 85.5672 108.521C85.8655 108.481 86.0925 108.418 86.2483 108.332C86.4041 108.246 86.482 108.106 86.482 107.914V107.735C86.482 107.215 86.3262 106.805 86.0146 106.507C85.7064 106.205 85.2623 106.055 84.6822 106.055C84.132 106.055 83.6829 106.176 83.3349 106.418C82.9902 106.66 82.7483 106.945 82.6091 107.273L81.7689 106.969C81.9412 106.552 82.1799 106.219 82.4848 105.97C82.7897 105.718 83.1311 105.538 83.5089 105.428C83.8868 105.316 84.2696 105.259 84.6574 105.259C84.949 105.259 85.2523 105.297 85.5672 105.374C85.8854 105.45 86.1803 105.582 86.4521 105.771C86.7239 105.957 86.9443 106.217 87.1133 106.552C87.2824 106.883 87.3669 107.304 87.3669 107.815V113H86.482V111.792H86.4273C86.3212 112.017 86.1638 112.236 85.955 112.448C85.7462 112.66 85.4843 112.834 85.1695 112.97C84.8546 113.106 84.485 113.174 84.0608 113.174ZM84.1801 112.364C84.6507 112.364 85.0584 112.259 85.4031 112.05C85.7478 111.842 86.013 111.565 86.1986 111.22C86.3875 110.872 86.482 110.489 86.482 110.072V108.968C86.4157 109.031 86.3046 109.087 86.1489 109.137C85.9964 109.187 85.8191 109.232 85.6169 109.271C85.418 109.308 85.2192 109.339 85.0203 109.366C84.8214 109.392 84.6425 109.415 84.4834 109.435C84.0525 109.488 83.6846 109.571 83.3797 109.684C83.0748 109.797 82.8411 109.952 82.6787 110.151C82.5163 110.347 82.4351 110.599 82.4351 110.907C82.4351 111.371 82.6008 111.731 82.9322 111.986C83.2637 112.238 83.6796 112.364 84.1801 112.364Z" fill="#212121"/>
</svg>
