<svg width="120" height="144" viewBox="0 0 120 144" fill="none" xmlns="http://www.w3.org/2000/svg">
<rect width="120" height="144" rx="4" fill="#FAFAFA"/>
<path d="M34.6547 57.5748L37.6931 60.6324L37.693 60.6325L37.7017 60.6408C38.2259 61.1436 38.8506 61.5299 39.5347 61.7742C40.2188 62.0185 40.9468 62.1154 41.671 62.0584L41.7723 62.0505L41.8625 62.0036C44.5862 60.5874 47.6204 59.8735 50.6898 59.9266L50.6898 59.9267L50.7036 59.9266C53.8048 59.8951 56.8632 60.6526 59.5913 62.1278L59.6974 62.1851L59.8179 62.1878C61.1031 62.2167 62.3539 61.7717 63.3322 60.9378L63.3452 60.9267L63.3575 60.9147L64.3388 59.9547L64.3388 59.9547L64.3427 59.9508L65.3454 58.9482L65.3455 58.9483L65.3531 58.9402C65.8273 58.4445 66.2866 57.9419 66.7262 57.3923L66.7357 57.3805L66.7444 57.3682C69.0187 54.1442 70.4298 50.3917 70.8435 46.4681C71.1822 43.4962 72.2452 40.6529 73.9393 38.1878C75.6305 35.7269 77.899 33.718 80.5461 32.3367C80.9084 32.1811 81.3151 32.1617 81.6908 32.2825C82.0714 32.4049 82.3939 32.6626 82.5972 33.0068C82.8005 33.351 82.8705 33.7578 82.794 34.1502C82.7203 34.5276 82.5161 34.8664 82.2178 35.1075C79.7788 36.3111 77.8101 38.2933 76.6233 40.7413C74.981 43.6542 73.9138 46.8555 73.4796 50.1711C72.7674 53.6741 71.2166 56.9523 68.96 59.7247C67.6672 61.233 66.2603 62.6397 64.7518 63.9323L64.6708 64.0017L64.6252 64.098C64.3252 64.7318 64.1499 65.4173 64.1087 66.1173L64.0994 66.2753L64.1828 66.4099C65.0157 67.7546 65.4622 69.3026 65.4731 70.8843C65.4721 75.7609 61.0693 80.0426 54.7953 81.402L54.6749 81.4281L54.5803 81.5071C53.8027 82.1576 53.1744 82.9682 52.7385 83.8835C52.3735 84.6502 52.1505 85.4752 52.079 86.3186H49.1289C49.0608 85.4547 48.8333 84.6093 48.4565 83.8257C48.0078 82.8926 47.3586 82.0702 46.5552 81.4173L46.4621 81.3416L46.3448 81.3164C45.6995 81.1778 45.0621 81.0047 44.4354 80.7977C39.2266 79.0471 35.7376 75.205 35.7318 70.8507C35.7998 69.3159 36.2238 67.8178 36.9702 66.4749L37.0325 66.3627L37.0331 66.2343C37.0392 64.941 36.5584 63.6927 35.6864 62.7375L35.6793 62.7297L35.6718 62.7222L32.6054 59.6366L33.0916 59.1379L34.6547 57.5748Z" fill="#212121" stroke="#212121"/>
<path d="M47.2779 102.818H48.2076V109.56C48.2076 110.252 48.0452 110.872 47.7204 111.419C47.3956 111.963 46.9432 112.392 46.3632 112.707C45.7865 113.018 45.1153 113.174 44.3497 113.174C43.5874 113.174 42.9162 113.017 42.3362 112.702C41.7562 112.387 41.3038 111.958 40.9789 111.414C40.6541 110.871 40.4917 110.252 40.4917 109.56V102.818H41.4214V109.495C41.4214 110.035 41.5424 110.518 41.7843 110.942C42.0263 111.363 42.366 111.694 42.8035 111.936C43.2443 112.178 43.7597 112.299 44.3497 112.299C44.9396 112.299 45.455 112.178 45.8958 111.936C46.3367 111.694 46.6764 111.363 46.915 110.942C47.157 110.518 47.2779 110.035 47.2779 109.495V102.818ZM50.7957 113V105.364H51.6558V106.537H51.7205C51.8729 106.152 52.1381 105.843 52.5159 105.607C52.8971 105.369 53.3279 105.249 53.8085 105.249C53.8814 105.249 53.9626 105.251 54.0521 105.254C54.1416 105.258 54.2162 105.261 54.2759 105.264V106.164C54.2361 106.157 54.1665 106.147 54.0671 106.134C53.9676 106.121 53.8599 106.114 53.7439 106.114C53.3462 106.114 52.9915 106.199 52.68 106.368C52.3717 106.534 52.1281 106.764 51.9492 107.059C51.7702 107.354 51.6807 107.69 51.6807 108.068V113H50.7957ZM58.7109 113.159C57.9983 113.159 57.3818 112.993 56.8615 112.662C56.3411 112.327 55.9384 111.865 55.6534 111.275C55.3717 110.682 55.2308 109.999 55.2308 109.227C55.2308 108.458 55.3717 107.775 55.6534 107.178C55.9384 106.578 56.3312 106.109 56.8317 105.771C57.3354 105.43 57.9171 105.259 58.5767 105.259C58.991 105.259 59.3904 105.335 59.7748 105.488C60.1593 105.637 60.504 105.867 60.8089 106.179C61.1172 106.487 61.3608 106.877 61.5398 107.347C61.7187 107.815 61.8082 108.368 61.8082 109.008V109.445H55.8423V108.665H60.9034C60.9034 108.174 60.804 107.733 60.6051 107.342C60.4095 106.948 60.1361 106.636 59.7848 106.408C59.4368 106.179 59.0341 106.065 58.5767 106.065C58.0928 106.065 57.6669 106.194 57.299 106.452C56.9311 106.711 56.6427 107.052 56.4339 107.477C56.2284 107.901 56.124 108.365 56.1207 108.869V109.336C56.1207 109.942 56.2251 110.473 56.4339 110.927C56.646 111.378 56.946 111.727 57.3338 111.976C57.7216 112.224 58.1806 112.349 58.7109 112.349C59.0722 112.349 59.3887 112.292 59.6605 112.18C59.9356 112.067 60.1659 111.916 60.3515 111.727C60.5405 111.535 60.683 111.325 60.7791 111.096L61.6193 111.369C61.5033 111.691 61.3127 111.987 61.0476 112.259C60.7857 112.531 60.4576 112.75 60.0632 112.915C59.6721 113.078 59.2213 113.159 58.7109 113.159ZM66.8361 105.364V106.134H63.192V105.364H66.8361ZM64.3305 103.534H65.2204V111.006C65.2204 111.325 65.2751 111.575 65.3844 111.757C65.4938 111.936 65.6363 112.064 65.812 112.14C65.9877 112.213 66.1749 112.249 66.3738 112.249C66.4898 112.249 66.5892 112.243 66.6721 112.229C66.7549 112.213 66.8279 112.196 66.8908 112.18L67.0797 112.98C66.9936 113.013 66.8875 113.043 66.7616 113.07C66.6356 113.099 66.4798 113.114 66.2942 113.114C65.9694 113.114 65.6562 113.043 65.3546 112.901C65.0563 112.758 64.811 112.546 64.6188 112.264C64.4266 111.982 64.3305 111.633 64.3305 111.215V103.534ZM71.9212 113.159C71.2086 113.159 70.5922 112.993 70.0718 112.662C69.5514 112.327 69.1487 111.865 68.8637 111.275C68.582 110.682 68.4411 109.999 68.4411 109.227C68.4411 108.458 68.582 107.775 68.8637 107.178C69.1487 106.578 69.5415 106.109 70.042 105.771C70.5458 105.43 71.1274 105.259 71.787 105.259C72.2013 105.259 72.6007 105.335 72.9852 105.488C73.3696 105.637 73.7143 105.867 74.0192 106.179C74.3275 106.487 74.5711 106.877 74.7501 107.347C74.929 107.815 75.0185 108.368 75.0185 109.008V109.445H69.0526V108.665H74.1137C74.1137 108.174 74.0143 107.733 73.8154 107.342C73.6199 106.948 73.3464 106.636 72.9951 106.408C72.6471 106.179 72.2444 106.065 71.787 106.065C71.3031 106.065 70.8772 106.194 70.5093 106.452C70.1414 106.711 69.853 107.052 69.6442 107.477C69.4387 107.901 69.3343 108.365 69.331 108.869V109.336C69.331 109.942 69.4354 110.473 69.6442 110.927C69.8564 111.378 70.1563 111.727 70.5441 111.976C70.9319 112.224 71.3909 112.349 71.9212 112.349C72.2825 112.349 72.599 112.292 72.8708 112.18C73.1459 112.067 73.3762 111.916 73.5619 111.727C73.7508 111.535 73.8933 111.325 73.9894 111.096L74.8296 111.369C74.7136 111.691 74.523 111.987 74.2579 112.259C73.996 112.531 73.6679 112.75 73.2735 112.915C72.8824 113.078 72.4316 113.159 71.9212 113.159ZM77.0386 113V105.364H77.8987V106.537H77.9634C78.1158 106.152 78.381 105.843 78.7588 105.607C79.14 105.369 79.5708 105.249 80.0514 105.249C80.1243 105.249 80.2055 105.251 80.295 105.254C80.3845 105.258 80.4591 105.261 80.5187 105.264V106.164C80.479 106.157 80.4094 106.147 80.3099 106.134C80.2105 106.121 80.1028 106.114 79.9868 106.114C79.5891 106.114 79.2344 106.199 78.9229 106.368C78.6146 106.534 78.371 106.764 78.192 107.059C78.0131 107.354 77.9236 107.69 77.9236 108.068V113H77.0386Z" fill="#212121"/>
</svg>
