<svg width="37" height="36" viewBox="0 0 37 36" fill="none" xmlns="http://www.w3.org/2000/svg">
<rect x="0.800781" width="36" height="36" rx="18" fill="currentColor"/>
<path d="M6.80078 9.36C6.80078 7.50432 8.3051 6 10.1608 6H27.4408C29.2965 6 30.8008 7.50432 30.8008 9.36V26.64C30.8008 28.4957 29.2965 30 27.4408 30H10.1608C8.3051 30 6.80078 28.4957 6.80078 26.64V9.36Z" fill="currentColor"/>
<path d="M15.4408 12.48C15.4408 13.6729 14.4737 14.64 13.2808 14.64C12.0878 14.64 11.1208 13.6729 11.1208 12.48C11.1208 11.2871 12.0878 10.32 13.2808 10.32C14.4737 10.32 15.4408 11.2871 15.4408 12.48Z" fill="white"/>
<path d="M11.6008 16.08C11.6008 15.8149 11.8157 15.6 12.0808 15.6H14.4808C14.7459 15.6 14.9608 15.8149 14.9608 16.08V25.2C14.9608 25.4651 14.7459 25.68 14.4808 25.68H12.0808C11.8157 25.68 11.6008 25.4651 11.6008 25.2V16.08Z" fill="white"/>
<path d="M16.8808 15.6L19.0408 15.6C19.3059 15.6 19.5208 15.8149 19.5208 16.08V16.56C20.4808 15.36 22.2408 15.28 23.1208 15.36C25.8642 15.6094 26.3208 18.4 26.2408 19.92L26.2408 25.2C26.2408 25.4651 26.0259 25.68 25.7608 25.68L23.6008 25.68C23.3357 25.68 23.1208 25.4651 23.1208 25.2V19.92C23.0408 19.28 22.5928 18 21.4408 18C20.2888 18 19.6008 19.44 19.5208 19.92V25.2C19.5208 25.4651 19.3059 25.68 19.0408 25.68L16.8808 25.68C16.6157 25.68 16.4008 25.4651 16.4008 25.2V16.08C16.4008 15.8149 16.6157 15.6 16.8808 15.6Z" fill="white"/>
</svg>
