<svg width="37" height="36" viewBox="0 0 37 36" fill="none" xmlns="http://www.w3.org/2000/svg">
<rect x="0.601562" width="36" height="36" rx="18" fill="currentColor"/>
<g clip-path="url(#clip0_2183_9265)">
<path d="M16.2016 21.4987V14.5012L22.4416 18L16.2016 21.4987Z" fill="currentColor"/>
<path d="M30.0952 12.3879C29.9587 11.895 29.6912 11.4456 29.3197 11.0846C28.9482 10.7237 28.4856 10.4639 27.9782 10.3312C26.1097 9.83997 18.6016 9.83997 18.6016 9.83997C18.6016 9.83997 11.0934 9.83997 9.22492 10.3312C8.71756 10.4639 8.25496 10.7237 7.88343 11.0846C7.51189 11.4456 7.24446 11.895 7.10789 12.3879C6.75901 14.2391 6.58971 16.118 6.60221 18C6.58971 19.8819 6.75901 21.7608 7.10789 23.612C7.24446 24.1049 7.51189 24.5543 7.88343 24.9153C8.25496 25.2762 8.71756 25.536 9.22492 25.6687C11.0934 26.16 18.6016 26.16 18.6016 26.16C18.6016 26.16 26.1097 26.16 27.9782 25.6687C28.4856 25.536 28.9482 25.2762 29.3197 24.9153C29.6912 24.5543 29.9587 24.1049 30.0952 23.612C30.4441 21.7608 30.6134 19.8819 30.6009 18C30.6134 16.118 30.4441 14.2391 30.0952 12.3879ZM16.2017 21.4971V14.5028L22.4328 18L16.2017 21.4971Z" fill="white"/>
</g>
<defs>
<clipPath id="clip0_2183_9265">
<rect width="24" height="24" fill="white" transform="translate(6.60156 6)"/>
</clipPath>
</defs>
</svg>
