<?xml version="1.0" encoding="UTF-8" standalone="no"?>
<!DOCTYPE svg PUBLIC "-//W3C//DTD SVG 1.1//EN"
 "http://www.w3.org/Graphics/SVG/1.1/DTD/svg11.dtd">
<!-- Generated by graphviz version 2.47.0 (20210316.0004)
 -->
<!-- Title: dependencies Pages: 1 -->
<svg width="1173pt" height="284pt"
 viewBox="0.00 0.00 1173.00 284.00" xmlns="http://www.w3.org/2000/svg" xmlns:xlink="http://www.w3.org/1999/xlink">
<g id="graph0" class="graph" transform="scale(1 1) rotate(0) translate(4 280)">
<title>dependencies</title>
<polygon fill="white" stroke="transparent" points="-4,4 -4,-280 1169,-280 1169,4 -4,4"/>
<text text-anchor="start" x="561.51" y="-42.4" font-family="Times-12" font-weight="bold" font-size="14.00">Legend</text>
<polygon fill="#ffffb3" stroke="transparent" points="348.5,-10 348.5,-30 368.5,-30 368.5,-10 348.5,-10"/>
<text text-anchor="start" x="372.13" y="-15.4" font-family="Times-12" font-size="14.00"> &#160;Declarations</text>
<polygon fill="#8dd3c7" stroke="transparent" points="461.5,-10 461.5,-30 481.5,-30 481.5,-10 461.5,-10"/>
<text text-anchor="start" x="485.23" y="-15.4" font-family="Times-12" font-size="14.00"> &#160;Module</text>
<polygon fill="#80b1d3" stroke="transparent" points="547.5,-10 547.5,-30 567.5,-30 567.5,-10 547.5,-10"/>
<text text-anchor="start" x="571.28" y="-15.4" font-family="Times-12" font-size="14.00"> &#160;Bootstrap</text>
<polygon fill="#fdb462" stroke="transparent" points="644.5,-10 644.5,-30 664.5,-30 664.5,-10 644.5,-10"/>
<text text-anchor="start" x="668.17" y="-15.4" font-family="Times-12" font-size="14.00"> &#160;Providers</text>
<polygon fill="#fb8072" stroke="transparent" points="740.5,-10 740.5,-30 760.5,-30 760.5,-10 740.5,-10"/>
<text text-anchor="start" x="764.23" y="-15.4" font-family="Times-12" font-size="14.00"> &#160;Exports</text>
<g id="clust1" class="cluster">
<title>cluster_AnalyticsModule</title>
<polygon fill="none" stroke="black" stroke-dasharray="1,5" points="8,-70 8,-268 1157,-268 1157,-70 8,-70"/>
</g>
<g id="clust4" class="cluster">
<title>cluster_AnalyticsModule_exports</title>
<polygon fill="none" stroke="black" points="16,-208 16,-260 1149,-260 1149,-208 16,-208"/>
</g>
<g id="clust3" class="cluster">
<title>cluster_AnalyticsModule_imports</title>
<polygon fill="none" stroke="black" points="27,-78 27,-130 1138,-130 1138,-78 27,-78"/>
</g>
<!-- ClickEventDirective -->
<g id="node1" class="node">
<title>ClickEventDirective</title>
<polygon fill="#8dd3c7" stroke="black" points="1129.57,-122 1126.57,-126 1105.57,-126 1102.57,-122 998.43,-122 998.43,-86 1129.57,-86 1129.57,-122"/>
<text text-anchor="middle" x="1064" y="-99.8" font-family="Times,serif" font-size="14.00">ClickEventDirective</text>
</g>
<!-- AnalyticsModule -->
<g id="node8" class="node">
<title>AnalyticsModule</title>
<polygon fill="#8dd3c7" stroke="black" points="672.7,-187 669.7,-191 648.7,-191 645.7,-187 559.3,-187 559.3,-151 672.7,-151 672.7,-187"/>
<text text-anchor="middle" x="616" y="-164.8" font-family="Times,serif" font-size="14.00">AnalyticsModule</text>
</g>
<!-- ClickEventDirective&#45;&gt;AnalyticsModule -->
<g id="edge1" class="edge">
<title>ClickEventDirective&#45;&gt;AnalyticsModule</title>
<path fill="none" stroke="black" d="M1002.59,-122.22C1002.59,-140.83 1002.59,-167 1002.59,-167 1002.59,-167 682.63,-167 682.63,-167"/>
<polygon fill="black" stroke="black" points="682.63,-163.5 672.63,-167 682.63,-170.5 682.63,-163.5"/>
</g>
<!-- DoubleClickEventDirective -->
<g id="node2" class="node">
<title>DoubleClickEventDirective</title>
<polygon fill="#8dd3c7" stroke="black" points="980.29,-122 977.29,-126 956.29,-126 953.29,-122 807.71,-122 807.71,-86 980.29,-86 980.29,-122"/>
<text text-anchor="middle" x="894" y="-99.8" font-family="Times,serif" font-size="14.00">DoubleClickEventDirective</text>
</g>
<!-- DoubleClickEventDirective&#45;&gt;AnalyticsModule -->
<g id="edge2" class="edge">
<title>DoubleClickEventDirective&#45;&gt;AnalyticsModule</title>
<path fill="none" stroke="black" d="M924.46,-122.03C924.46,-139.06 924.46,-162 924.46,-162 924.46,-162 682.94,-162 682.94,-162"/>
<polygon fill="black" stroke="black" points="682.94,-158.5 672.94,-162 682.94,-165.5 682.94,-158.5"/>
</g>
<!-- EventDirective -->
<g id="node3" class="node">
<title>EventDirective</title>
<polygon fill="#8dd3c7" stroke="black" points="789.24,-122 786.24,-126 765.24,-126 762.24,-122 688.76,-122 688.76,-86 789.24,-86 789.24,-122"/>
<text text-anchor="middle" x="739" y="-99.8" font-family="Times,serif" font-size="14.00">EventDirective</text>
</g>
<!-- EventDirective&#45;&gt;AnalyticsModule -->
<g id="edge3" class="edge">
<title>EventDirective&#45;&gt;AnalyticsModule</title>
<path fill="none" stroke="black" d="M756.54,-122.24C756.54,-137.57 756.54,-157 756.54,-157 756.54,-157 682.76,-157 682.76,-157"/>
<polygon fill="black" stroke="black" points="682.76,-153.5 672.76,-157 682.76,-160.5 682.76,-153.5"/>
</g>
<!-- FeatureDirective -->
<g id="node4" class="node">
<title>FeatureDirective</title>
<polygon fill="#8dd3c7" stroke="black" points="671.06,-122 668.06,-126 647.06,-126 644.06,-122 560.94,-122 560.94,-86 671.06,-86 671.06,-122"/>
<text text-anchor="middle" x="616" y="-99.8" font-family="Times,serif" font-size="14.00">FeatureDirective</text>
</g>
<!-- FeatureDirective&#45;&gt;AnalyticsModule -->
<g id="edge4" class="edge">
<title>FeatureDirective&#45;&gt;AnalyticsModule</title>
<path fill="none" stroke="black" d="M616,-122.11C616,-122.11 616,-140.99 616,-140.99"/>
<polygon fill="black" stroke="black" points="612.5,-140.99 616,-150.99 619.5,-140.99 612.5,-140.99"/>
</g>
<!-- HoverEventDirective -->
<g id="node5" class="node">
<title>HoverEventDirective</title>
<polygon fill="#8dd3c7" stroke="black" points="542.72,-122 539.72,-126 518.72,-126 515.72,-122 407.28,-122 407.28,-86 542.72,-86 542.72,-122"/>
<text text-anchor="middle" x="475" y="-99.8" font-family="Times,serif" font-size="14.00">HoverEventDirective</text>
</g>
<!-- HoverEventDirective&#45;&gt;AnalyticsModule -->
<g id="edge5" class="edge">
<title>HoverEventDirective&#45;&gt;AnalyticsModule</title>
<path fill="none" stroke="black" d="M496.79,-122.24C496.79,-137.57 496.79,-157 496.79,-157 496.79,-157 549.19,-157 549.19,-157"/>
<polygon fill="black" stroke="black" points="549.19,-160.5 559.19,-157 549.19,-153.5 549.19,-160.5"/>
</g>
<!-- KeyboardEventDirective -->
<g id="node6" class="node">
<title>KeyboardEventDirective</title>
<polygon fill="#8dd3c7" stroke="black" points="388.94,-122 385.94,-126 364.94,-126 361.94,-122 233.06,-122 233.06,-86 388.94,-86 388.94,-122"/>
<text text-anchor="middle" x="311" y="-99.8" font-family="Times,serif" font-size="14.00">KeyboardEventDirective</text>
</g>
<!-- KeyboardEventDirective&#45;&gt;AnalyticsModule -->
<g id="edge6" class="edge">
<title>KeyboardEventDirective&#45;&gt;AnalyticsModule</title>
<path fill="none" stroke="black" d="M334.16,-122.03C334.16,-139.06 334.16,-162 334.16,-162 334.16,-162 549.3,-162 549.3,-162"/>
<polygon fill="black" stroke="black" points="549.3,-165.5 559.3,-162 549.3,-158.5 549.3,-165.5"/>
</g>
<!-- ModelChangeEventDirective -->
<g id="node7" class="node">
<title>ModelChangeEventDirective</title>
<polygon fill="#8dd3c7" stroke="black" points="215.06,-122 212.06,-126 191.06,-126 188.06,-122 34.94,-122 34.94,-86 215.06,-86 215.06,-122"/>
<text text-anchor="middle" x="125" y="-99.8" font-family="Times,serif" font-size="14.00">ModelChangeEventDirective</text>
</g>
<!-- ModelChangeEventDirective&#45;&gt;AnalyticsModule -->
<g id="edge7" class="edge">
<title>ModelChangeEventDirective&#45;&gt;AnalyticsModule</title>
<path fill="none" stroke="black" d="M211.4,-122.22C211.4,-140.83 211.4,-167 211.4,-167 211.4,-167 549.32,-167 549.32,-167"/>
<polygon fill="black" stroke="black" points="549.32,-170.5 559.32,-167 549.32,-163.5 549.32,-170.5"/>
</g>
<!-- ClickEventDirective  -->
<g id="node9" class="node">
<title>ClickEventDirective </title>
<polygon fill="#fb8072" stroke="black" points="1141.07,-252 1006.93,-252 1006.93,-216 1141.07,-216 1141.07,-252"/>
<text text-anchor="middle" x="1074" y="-229.8" font-family="Times,serif" font-size="14.00">ClickEventDirective </text>
</g>
<!-- AnalyticsModule&#45;&gt;ClickEventDirective  -->
<g id="edge8" class="edge">
<title>AnalyticsModule&#45;&gt;ClickEventDirective </title>
<path fill="none" stroke="black" stroke-dasharray="5,2" d="M672.8,-172C794.24,-172 1068.12,-172 1068.12,-172 1068.12,-172 1068.12,-205.73 1068.12,-205.73"/>
<polygon fill="black" stroke="black" points="1064.63,-205.73 1068.12,-215.73 1071.63,-205.73 1064.63,-205.73"/>
</g>
<!-- DoubleClickEventDirective  -->
<g id="node10" class="node">
<title>DoubleClickEventDirective </title>
<polygon fill="#fb8072" stroke="black" points="988.78,-252 813.22,-252 813.22,-216 988.78,-216 988.78,-252"/>
<text text-anchor="middle" x="901" y="-229.8" font-family="Times,serif" font-size="14.00">DoubleClickEventDirective </text>
</g>
<!-- AnalyticsModule&#45;&gt;DoubleClickEventDirective  -->
<g id="edge9" class="edge">
<title>AnalyticsModule&#45;&gt;DoubleClickEventDirective </title>
<path fill="none" stroke="black" stroke-dasharray="5,2" d="M672.73,-177C747.26,-177 868.79,-177 868.79,-177 868.79,-177 868.79,-205.96 868.79,-205.96"/>
<polygon fill="black" stroke="black" points="865.29,-205.96 868.79,-215.96 872.29,-205.96 865.29,-205.96"/>
</g>
<!-- EventDirective  -->
<g id="node11" class="node">
<title>EventDirective </title>
<polygon fill="#fb8072" stroke="black" points="795.24,-252 690.76,-252 690.76,-216 795.24,-216 795.24,-252"/>
<text text-anchor="middle" x="743" y="-229.8" font-family="Times,serif" font-size="14.00">EventDirective </text>
</g>
<!-- AnalyticsModule&#45;&gt;EventDirective  -->
<g id="edge10" class="edge">
<title>AnalyticsModule&#45;&gt;EventDirective </title>
<path fill="none" stroke="black" stroke-dasharray="5,2" d="M672.69,-182C698.64,-182 723.71,-182 723.71,-182 723.71,-182 723.71,-205.81 723.71,-205.81"/>
<polygon fill="black" stroke="black" points="720.21,-205.81 723.71,-215.81 727.21,-205.81 720.21,-205.81"/>
</g>
<!-- FeatureDirective  -->
<g id="node12" class="node">
<title>FeatureDirective </title>
<polygon fill="#fb8072" stroke="black" points="672.56,-252 559.44,-252 559.44,-216 672.56,-216 672.56,-252"/>
<text text-anchor="middle" x="616" y="-229.8" font-family="Times,serif" font-size="14.00">FeatureDirective </text>
</g>
<!-- AnalyticsModule&#45;&gt;FeatureDirective  -->
<g id="edge11" class="edge">
<title>AnalyticsModule&#45;&gt;FeatureDirective </title>
<path fill="none" stroke="black" stroke-dasharray="5,2" d="M616,-187.11C616,-187.11 616,-205.99 616,-205.99"/>
<polygon fill="black" stroke="black" points="612.5,-205.99 616,-215.99 619.5,-205.99 612.5,-205.99"/>
</g>
<!-- HoverEventDirective  -->
<g id="node13" class="node">
<title>HoverEventDirective </title>
<polygon fill="#fb8072" stroke="black" points="541.72,-252 402.28,-252 402.28,-216 541.72,-216 541.72,-252"/>
<text text-anchor="middle" x="472" y="-229.8" font-family="Times,serif" font-size="14.00">HoverEventDirective </text>
</g>
<!-- AnalyticsModule&#45;&gt;HoverEventDirective  -->
<g id="edge12" class="edge">
<title>AnalyticsModule&#45;&gt;HoverEventDirective </title>
<path fill="none" stroke="black" stroke-dasharray="5,2" d="M559.09,-182C511.71,-182 451.96,-182 451.96,-182 451.96,-182 451.96,-205.81 451.96,-205.81"/>
<polygon fill="black" stroke="black" points="448.46,-205.81 451.96,-215.81 455.46,-205.81 448.46,-205.81"/>
</g>
<!-- KeyboardEventDirective  -->
<g id="node14" class="node">
<title>KeyboardEventDirective </title>
<polygon fill="#fb8072" stroke="black" points="384.94,-252 225.06,-252 225.06,-216 384.94,-216 384.94,-252"/>
<text text-anchor="middle" x="305" y="-229.8" font-family="Times,serif" font-size="14.00">KeyboardEventDirective </text>
</g>
<!-- AnalyticsModule&#45;&gt;KeyboardEventDirective  -->
<g id="edge13" class="edge">
<title>AnalyticsModule&#45;&gt;KeyboardEventDirective </title>
<path fill="none" stroke="black" stroke-dasharray="5,2" d="M559.24,-177C464.3,-177 283.59,-177 283.59,-177 283.59,-177 283.59,-205.96 283.59,-205.96"/>
<polygon fill="black" stroke="black" points="280.09,-205.96 283.59,-215.96 287.09,-205.96 280.09,-205.96"/>
</g>
<!-- ModelChangeEventDirective  -->
<g id="node15" class="node">
<title>ModelChangeEventDirective </title>
<polygon fill="#fb8072" stroke="black" points="207.56,-252 24.44,-252 24.44,-216 207.56,-216 207.56,-252"/>
<text text-anchor="middle" x="116" y="-229.8" font-family="Times,serif" font-size="14.00">ModelChangeEventDirective </text>
</g>
<!-- AnalyticsModule&#45;&gt;ModelChangeEventDirective  -->
<g id="edge14" class="edge">
<title>AnalyticsModule&#45;&gt;ModelChangeEventDirective </title>
<path fill="none" stroke="black" stroke-dasharray="5,2" d="M559.26,-172C429.34,-172 121.38,-172 121.38,-172 121.38,-172 121.38,-205.73 121.38,-205.73"/>
<polygon fill="black" stroke="black" points="117.88,-205.73 121.37,-215.73 124.88,-205.73 117.88,-205.73"/>
</g>
</g>
</svg>
