<?xml version="1.0" encoding="UTF-8" standalone="no"?>
<!DOCTYPE svg PUBLIC "-//W3C//DTD SVG 1.1//EN"
 "http://www.w3.org/Graphics/SVG/1.1/DTD/svg11.dtd">
<!-- Generated by graphviz version 2.47.0 (20210316.0004)
 -->
<!-- Title: dependencies Pages: 1 -->
<svg width="575pt" height="284pt"
 viewBox="0.00 0.00 575.00 284.00" xmlns="http://www.w3.org/2000/svg" xmlns:xlink="http://www.w3.org/1999/xlink">
<g id="graph0" class="graph" transform="scale(1 1) rotate(0) translate(4 280)">
<title>dependencies</title>
<polygon fill="white" stroke="transparent" points="-4,4 -4,-280 571,-280 571,4 -4,4"/>
<text text-anchor="start" x="262.51" y="-42.4" font-family="Times-12" font-weight="bold" font-size="14.00">Legend</text>
<polygon fill="#ffffb3" stroke="transparent" points="49.5,-10 49.5,-30 69.5,-30 69.5,-10 49.5,-10"/>
<text text-anchor="start" x="73.13" y="-15.4" font-family="Times-12" font-size="14.00"> &#160;Declarations</text>
<polygon fill="#8dd3c7" stroke="transparent" points="162.5,-10 162.5,-30 182.5,-30 182.5,-10 162.5,-10"/>
<text text-anchor="start" x="186.23" y="-15.4" font-family="Times-12" font-size="14.00"> &#160;Module</text>
<polygon fill="#80b1d3" stroke="transparent" points="248.5,-10 248.5,-30 268.5,-30 268.5,-10 248.5,-10"/>
<text text-anchor="start" x="272.28" y="-15.4" font-family="Times-12" font-size="14.00"> &#160;Bootstrap</text>
<polygon fill="#fdb462" stroke="transparent" points="345.5,-10 345.5,-30 365.5,-30 365.5,-10 345.5,-10"/>
<text text-anchor="start" x="369.17" y="-15.4" font-family="Times-12" font-size="14.00"> &#160;Providers</text>
<polygon fill="#fb8072" stroke="transparent" points="441.5,-10 441.5,-30 461.5,-30 461.5,-10 441.5,-10"/>
<text text-anchor="start" x="465.23" y="-15.4" font-family="Times-12" font-size="14.00"> &#160;Exports</text>
<g id="clust1" class="cluster">
<title>cluster_ReportModule</title>
<polygon fill="none" stroke="black" stroke-dasharray="1,5" points="8,-70 8,-268 559,-268 559,-70 8,-70"/>
</g>
<g id="clust2" class="cluster">
<title>cluster_ReportModule_declarations</title>
<polygon fill="none" stroke="black" points="415,-78 415,-130 551,-130 551,-78 415,-78"/>
</g>
<g id="clust5" class="cluster">
<title>cluster_ReportModule_exports</title>
<polygon fill="none" stroke="black" points="217,-208 217,-260 355,-260 355,-208 217,-208"/>
</g>
<g id="clust4" class="cluster">
<title>cluster_ReportModule_imports</title>
<polygon fill="none" stroke="black" points="16,-78 16,-130 407,-130 407,-78 16,-78"/>
</g>
<!-- ReportComponent -->
<g id="node1" class="node">
<title>ReportComponent</title>
<polygon fill="#ffffb3" stroke="black" points="542.94,-122 423.06,-122 423.06,-86 542.94,-86 542.94,-122"/>
<text text-anchor="middle" x="483" y="-99.8" font-family="Times,serif" font-size="14.00">ReportComponent</text>
</g>
<!-- ReportModule -->
<g id="node2" class="node">
<title>ReportModule</title>
<polygon fill="#8dd3c7" stroke="black" points="334.65,-187 331.65,-191 310.65,-191 307.65,-187 237.35,-187 237.35,-151 334.65,-151 334.65,-187"/>
<text text-anchor="middle" x="286" y="-164.8" font-family="Times,serif" font-size="14.00">ReportModule</text>
</g>
<!-- ReportComponent&#45;&gt;ReportModule -->
<g id="edge1" class="edge">
<title>ReportComponent&#45;&gt;ReportModule</title>
<path fill="none" stroke="black" d="M483,-122.11C483,-141.34 483,-169 483,-169 483,-169 344.7,-169 344.7,-169"/>
<polygon fill="black" stroke="black" points="344.7,-165.5 334.7,-169 344.7,-172.5 344.7,-165.5"/>
</g>
<!-- ReportComponent  -->
<g id="node6" class="node">
<title>ReportComponent </title>
<polygon fill="#fb8072" stroke="black" points="347.43,-252 224.57,-252 224.57,-216 347.43,-216 347.43,-252"/>
<text text-anchor="middle" x="286" y="-229.8" font-family="Times,serif" font-size="14.00">ReportComponent </text>
</g>
<!-- ReportModule&#45;&gt;ReportComponent  -->
<g id="edge5" class="edge">
<title>ReportModule&#45;&gt;ReportComponent </title>
<path fill="none" stroke="black" stroke-dasharray="5,2" d="M286,-187.11C286,-187.11 286,-205.99 286,-205.99"/>
<polygon fill="black" stroke="black" points="282.5,-205.99 286,-215.99 289.5,-205.99 282.5,-205.99"/>
</g>
<!-- OrderByPipe -->
<g id="node3" class="node">
<title>OrderByPipe</title>
<polygon fill="#8dd3c7" stroke="black" points="398.87,-122 395.87,-126 374.87,-126 371.87,-122 309.13,-122 309.13,-86 398.87,-86 398.87,-122"/>
<text text-anchor="middle" x="354" y="-99.8" font-family="Times,serif" font-size="14.00">OrderByPipe</text>
</g>
<!-- OrderByPipe&#45;&gt;ReportModule -->
<g id="edge2" class="edge">
<title>OrderByPipe&#45;&gt;ReportModule</title>
<path fill="none" stroke="black" d="M321.95,-122.11C321.95,-122.11 321.95,-140.99 321.95,-140.99"/>
<polygon fill="black" stroke="black" points="318.45,-140.99 321.95,-150.99 325.45,-140.99 318.45,-140.99"/>
</g>
<!-- SidenavHeaderModule -->
<g id="node4" class="node">
<title>SidenavHeaderModule</title>
<polygon fill="#8dd3c7" stroke="black" points="291.56,-122 288.56,-126 267.56,-126 264.56,-122 146.44,-122 146.44,-86 291.56,-86 291.56,-122"/>
<text text-anchor="middle" x="219" y="-99.8" font-family="Times,serif" font-size="14.00">SidenavHeaderModule</text>
</g>
<!-- SidenavHeaderModule&#45;&gt;ReportModule -->
<g id="edge3" class="edge">
<title>SidenavHeaderModule&#45;&gt;ReportModule</title>
<path fill="none" stroke="black" d="M264.35,-122.11C264.35,-122.11 264.35,-140.99 264.35,-140.99"/>
<polygon fill="black" stroke="black" points="260.85,-140.99 264.35,-150.99 267.85,-140.99 260.85,-140.99"/>
</g>
<!-- SidenavModule -->
<g id="node5" class="node">
<title>SidenavModule</title>
<polygon fill="#8dd3c7" stroke="black" points="128.15,-122 125.15,-126 104.15,-126 101.15,-122 23.85,-122 23.85,-86 128.15,-86 128.15,-122"/>
<text text-anchor="middle" x="76" y="-99.8" font-family="Times,serif" font-size="14.00">SidenavModule</text>
</g>
<!-- SidenavModule&#45;&gt;ReportModule -->
<g id="edge4" class="edge">
<title>SidenavModule&#45;&gt;ReportModule</title>
<path fill="none" stroke="black" d="M76,-122.11C76,-141.34 76,-169 76,-169 76,-169 227.29,-169 227.29,-169"/>
<polygon fill="black" stroke="black" points="227.29,-172.5 237.29,-169 227.29,-165.5 227.29,-172.5"/>
</g>
</g>
</svg>
