<svg width="128" height="128" viewBox="0 0 128 128" fill="none" xmlns="http://www.w3.org/2000/svg">
<rect width="128" height="128" fill="#444A65"/>
<path d="M45.2188 57.3516V70H41.9297V64.6875H40.9453V70H37.6562V57.3516H40.9453V61.875H41.9297V57.3516H45.2188ZM53.6797 59.6328V70H50.4688L50.5234 69.1406C50.3047 69.4896 50.0339 69.7526 49.7109 69.9297C49.3932 70.1016 49.026 70.1875 48.6094 70.1875C48.1354 70.1875 47.7422 70.1042 47.4297 69.9375C47.1172 69.7708 46.8854 69.5495 46.7344 69.2734C46.5885 68.9974 46.4974 68.7109 46.4609 68.4141C46.4245 68.112 46.4062 67.5156 46.4062 66.625V59.6328H49.5625V66.6875C49.5625 67.4948 49.5859 67.974 49.6328 68.125C49.6849 68.276 49.8203 68.3516 50.0391 68.3516C50.2734 68.3516 50.4115 68.2734 50.4531 68.1172C50.5 67.9609 50.5234 67.4583 50.5234 66.6094V59.6328H53.6797ZM54.9062 57.3516H58.1875C59.224 57.3516 60.0078 57.4323 60.5391 57.5938C61.0755 57.7552 61.5078 58.0833 61.8359 58.5781C62.1641 59.0677 62.3281 59.8594 62.3281 60.9531C62.3281 61.6927 62.2109 62.2083 61.9766 62.5C61.7474 62.7917 61.2917 63.0156 60.6094 63.1719C61.3698 63.3438 61.8854 63.6302 62.1562 64.0312C62.4271 64.4271 62.5625 65.0365 62.5625 65.8594V67.0312C62.5625 67.8854 62.4635 68.5182 62.2656 68.9297C62.0729 69.3411 61.763 69.6224 61.3359 69.7734C60.9089 69.9245 60.0339 70 58.7109 70H54.9062V57.3516ZM58.1953 59.5156V62.3281C58.3359 62.3229 58.4453 62.3203 58.5234 62.3203C58.8464 62.3203 59.0521 62.2422 59.1406 62.0859C59.2292 61.9245 59.2734 61.4688 59.2734 60.7188C59.2734 60.3229 59.237 60.0469 59.1641 59.8906C59.0911 59.7292 58.9948 59.6276 58.875 59.5859C58.7604 59.5443 58.5339 59.5208 58.1953 59.5156ZM58.1953 64.2969V67.8359C58.6589 67.8203 58.9531 67.7474 59.0781 67.6172C59.2083 67.487 59.2734 67.1667 59.2734 66.6562V65.4766C59.2734 64.9349 59.2161 64.6068 59.1016 64.4922C58.987 64.3776 58.6849 64.3125 58.1953 64.2969ZM73.8984 57.3516V70H71.0234V61.4609L69.875 70H67.8359L66.625 61.6562V70H63.75V57.3516H68.0078C68.1328 58.112 68.2656 59.0078 68.4062 60.0391L68.8594 63.2578L69.6094 57.3516H73.8984ZM80.8984 57.3516L82.7812 70H79.4141L79.25 67.7266H78.0703L77.875 70H74.4688L76.1406 57.3516H80.8984ZM79.1562 65.4844C78.9896 64.0521 78.8229 62.2839 78.6562 60.1797C78.3229 62.5964 78.1146 64.3646 78.0312 65.4844H79.1562ZM83.3438 57.3516H86.6562C87.5521 57.3516 88.2396 57.4219 88.7188 57.5625C89.2031 57.7031 89.5651 57.9062 89.8047 58.1719C90.0495 58.4375 90.2135 58.7604 90.2969 59.1406C90.3854 59.5156 90.4297 60.099 90.4297 60.8906V61.9922C90.4297 62.7995 90.3464 63.388 90.1797 63.7578C90.013 64.1276 89.7057 64.4115 89.2578 64.6094C88.8151 64.8073 88.2344 64.9062 87.5156 64.9062H86.6328V70H83.3438V57.3516ZM86.6328 59.5156V62.7344C86.7266 62.7396 86.8073 62.7422 86.875 62.7422C87.1771 62.7422 87.3854 62.6693 87.5 62.5234C87.6198 62.3724 87.6797 62.0625 87.6797 61.5938V60.5547C87.6797 60.1224 87.612 59.8411 87.4766 59.7109C87.3411 59.5807 87.0599 59.5156 86.6328 59.5156Z" fill="white"/>
</svg>
