<svg width="41" height="38" viewBox="0 0 41 38" fill="none" xmlns="http://www.w3.org/2000/svg">
<path d="M29.5996 0.649902C26.1196 0.649902 22.7796 2.2699 20.5996 4.8299C18.4196 2.2699 15.0796 0.649902 11.5996 0.649902C5.43961 0.649902 0.599609 5.4899 0.599609 11.6499C0.599609 19.2099 7.39961 25.3699 17.6996 34.7299L20.5996 37.3499L23.4996 34.7099C33.7996 25.3699 40.5996 19.2099 40.5996 11.6499C40.5996 5.4899 35.7596 0.649902 29.5996 0.649902ZM20.7996 31.7499L20.5996 31.9499L20.3996 31.7499C10.8796 23.1299 4.59961 17.4299 4.59961 11.6499C4.59961 7.6499 7.59961 4.6499 11.5996 4.6499C14.6796 4.6499 17.6796 6.6299 18.7396 9.3699H22.4796C23.5196 6.6299 26.5196 4.6499 29.5996 4.6499C33.5996 4.6499 36.5996 7.6499 36.5996 11.6499C36.5996 17.4299 30.3196 23.1299 20.7996 31.7499Z" fill="#444C65"/>
</svg>
