<svg width="120" height="144" viewBox="0 0 120 144" fill="none" xmlns="http://www.w3.org/2000/svg">
<rect width="120" height="144" rx="4" fill="#FAFAFA"/>
<path d="M75.7697 64.388L75.7763 64.4047L75.784 64.4208C76.2522 65.3986 76.9291 66.2618 77.767 66.9496C78.5809 67.6176 79.5276 68.1043 80.5437 68.3777C80.9549 68.677 81.2704 69.0902 81.4507 69.5671C81.6407 70.0697 81.6712 70.6186 81.5381 71.1392C81.4051 71.6598 81.1148 72.1267 80.7069 72.4765C80.2991 72.8262 79.7933 73.0418 79.2585 73.094L79.2351 73.0962L79.212 73.1007C78.7779 73.1847 78.3631 73.4135 77.9916 73.6966C77.6162 73.9827 77.258 74.345 76.9356 74.7337C76.3033 75.4957 75.7705 76.405 75.4987 77.1454C73.399 81.2096 71.0075 83.8498 68.0953 85.3839C65.1777 86.9208 61.6745 87.3807 57.2906 86.9621C55.0794 86.6068 52.8951 86.101 50.7527 85.4484L50.7441 85.4452L50.6769 85.4198C50.6175 85.3972 50.5299 85.3636 50.4181 85.3198C50.1943 85.2322 49.8738 85.1039 49.4888 84.942C48.7178 84.6179 47.6924 84.161 46.6685 83.6281C45.6403 83.0929 44.634 82.4914 43.8891 81.8814C43.5167 81.5764 43.2252 81.2819 43.0292 81.0061C42.832 80.7287 42.7542 80.5029 42.751 80.3252C42.751 80.3249 42.751 80.3247 42.751 80.3245L42.0752 30.8916H47.0424C47.5689 34.4422 48.8714 37.8351 50.8595 40.828C52.9281 43.9423 55.6837 46.5404 58.9143 48.4222C62.7064 50.6874 66.6839 54.0594 69.8455 57.1972C71.4249 58.7647 72.7941 60.2671 73.829 61.5348C74.878 62.8196 75.5454 63.8179 75.7697 64.388Z" fill="#212121" stroke="#212121"/>
<path d="M79.4566 69.9228C78.1425 69.9251 76.8472 69.6105 75.6806 69.0055C74.0593 68.0241 75.4673 67.6828 73.0139 65.0161C71.5672 64.0982 70.0028 63.3806 68.3633 62.8828" stroke="#FAFAFA" stroke-width="0.5" stroke-miterlimit="10"/>
<path d="M65.6326 57.8052C66.4859 59.1065 68.4059 59.9385 68.7686 61.0265C68.8757 61.4523 68.8833 61.897 68.7908 62.3261C68.6983 62.7553 68.5082 63.1574 68.2352 63.5012C67.2966 64.5892 65.1419 63.2452 62.9659 61.3679C62.1795 60.4825 61.6162 59.4219 61.3232 58.2745C61.101 57.873 60.9844 57.4215 60.9844 56.9625C60.9844 56.5036 61.101 56.0521 61.3232 55.6505C62.2406 54.5839 64.2672 55.7785 65.6326 57.8052Z" fill="#FAFAFA" stroke="#212121" stroke-width="0.25" stroke-miterlimit="10"/>
<path d="M79.1999 70.9899C77.7945 70.7191 76.3572 70.6544 74.9332 70.7979C72.6292 70.6485 71.6052 71.9499 68.5332 69.5605" stroke="#FAFAFA" stroke-width="0.5" stroke-miterlimit="10"/>
<path d="M64.0751 67.7037C65.3551 68.1944 66.8484 67.405 67.6377 67.981C67.9379 68.2511 68.1798 68.5796 68.3486 68.9464C68.5173 69.3133 68.6094 69.7107 68.6191 70.1144C68.6191 71.5224 66.3577 71.7997 63.8831 71.7144C62.8472 71.5335 61.8848 71.0597 61.1097 70.349C60.791 70.1952 60.5323 69.9401 60.374 69.6236C60.2157 69.307 60.1669 68.947 60.2351 68.5997C60.2777 67.277 62.1337 66.9784 64.0751 67.7037Z" fill="#FAFAFA" stroke="#212121" stroke-width="0.25" stroke-miterlimit="10"/>
<path d="M79.4563 70.5414C79.4563 70.5414 73.8456 70.8827 72.011 68.0454C70.987 66.4667 70.347 66.296 66.7416 65.7414C64.9796 65.5894 63.288 64.979 61.835 63.9707" stroke="#FAFAFA" stroke-width="0.5" stroke-miterlimit="10"/>
<path d="M55.3072 60.8974C57.1205 61.6441 59.7445 61.4521 60.8538 62.1987C61.2652 62.4682 61.5995 62.8399 61.8239 63.2775C62.0483 63.7151 62.1551 64.2034 62.1338 64.6947C61.8992 66.1454 58.6992 66.0601 55.1152 65.5054C53.6947 65.1496 52.3694 64.4869 51.2325 63.5641C50.0805 62.9027 49.0992 62.4547 49.3765 61.2174C49.6538 59.9801 52.5338 59.7667 55.3072 60.8974Z" fill="#FAFAFA" stroke="#212121" stroke-width="0.25" stroke-miterlimit="10"/>
<path d="M78.9657 71.1602C77.4914 71.2389 76.0275 71.4531 74.5924 71.8002C72.7791 72.3335 72.0751 75.4908 68.4271 75.4695C64.9492 76.033 61.6817 77.5049 58.9551 79.7362" stroke="#FAFAFA" stroke-width="0.5" stroke-miterlimit="10"/>
<path d="M79.4562 69.9232C77.9183 69.7596 76.3645 69.8316 74.8482 70.1365C73.0349 70.6485 71.5202 73.8059 67.8722 73.7845C63.4562 74.6805 62.0482 75.4699 58.3789 74.7019" stroke="#FAFAFA" stroke-width="0.5" stroke-miterlimit="10"/>
<path d="M53.835 77.4534C55.3497 77.8588 57.2057 76.9201 58.2083 77.4534C58.6476 77.7779 58.9839 78.2222 59.1769 78.733C59.3699 79.2439 59.4114 79.7996 59.2963 80.3334C59.0403 81.3148 54.4537 83.9814 51.4457 81.8694C50.4857 81.2081 49.5897 80.4614 49.483 79.5228C49.3337 77.6668 51.467 76.8561 53.835 77.4534Z" fill="#FAFAFA" stroke="#212121" stroke-width="0.25" stroke-miterlimit="10"/>
<path d="M79.4566 71.1604C78.1684 71.1103 76.8788 71.2178 75.6166 71.4804C73.8033 72.0137 73.9953 78.2857 70.4326 79.8004" stroke="#FAFAFA" stroke-width="0.5" stroke-miterlimit="10"/>
<path d="M67.7653 82.8078C69.5146 83.5118 71.4133 81.0371 69.8986 79.0958C68.8746 77.7944 68.4053 77.1118 64.3733 79.4158C63.3493 79.9918 61.1306 80.4824 62.5386 83.2344C63.2213 84.5998 65.6533 81.9758 67.7653 82.8078Z" fill="#FAFAFA" stroke="#212121" stroke-width="0.25" stroke-miterlimit="10"/>
<path d="M56.3098 77.3037C55.7932 77.3008 55.2783 77.2436 54.7738 77.133C53.6353 76.9014 52.5263 76.5436 51.4671 76.0663L51.0191 75.8743C50.3606 75.7219 49.7805 75.3343 49.3877 74.7844C48.9948 74.2344 48.8164 73.5599 48.8858 72.8877C48.8858 71.4797 50.5711 70.7543 52.1924 70.7543C52.6027 70.7487 53.0117 70.799 53.4084 70.9037H53.8138C55.0298 71.181 55.7978 71.3517 57.5684 71.821C58.17 72.0137 58.7212 72.3376 59.1824 72.7692C59.6435 73.2009 60.0031 73.7295 60.2351 74.317C60.3424 74.6055 60.3771 74.9159 60.3362 75.221C60.2952 75.526 60.1799 75.8163 60.0004 76.0663C59.5096 76.5246 58.9261 76.8722 58.2894 77.0857C57.6527 77.2991 56.9776 77.3735 56.3098 77.3037Z" fill="#FAFAFA"/>
<path d="M52.2354 70.9454C52.63 70.9447 53.0235 70.9877 53.4087 71.0734H53.8354C55.03 71.3508 55.7767 71.5214 57.5474 71.9908C58.1088 72.1806 58.6205 72.4937 59.0451 72.9072C59.4696 73.3206 59.7961 73.8239 60.0007 74.3801C60.0586 74.6251 60.0578 74.8803 59.9985 75.125C59.9392 75.3696 59.823 75.5968 59.6594 75.7881C59.2173 76.2227 58.6888 76.5594 58.108 76.7763C57.5273 76.9932 56.9074 77.0853 56.2887 77.0468C55.7863 77.0427 55.2857 76.9855 54.7954 76.8761C53.7099 76.6082 52.6526 76.2367 51.638 75.7668L51.19 75.5748C50.5719 75.4506 50.0228 75.0989 49.6515 74.5893C49.2801 74.0797 49.1136 73.4493 49.1847 72.8228C49.1847 71.6068 50.7634 70.9454 52.214 70.9454H52.2354ZM52.214 70.4121C50.358 70.4121 48.6514 71.2868 48.6514 72.8228C48.6514 75.4681 50.422 75.7881 51.4247 76.2361C52.4669 76.7394 53.5615 77.1257 54.6887 77.3881C55.2126 77.5151 55.7497 77.5795 56.2887 77.5801C58.7847 77.5801 60.9394 76.2574 60.5554 74.2734C60.3232 73.6338 59.9463 73.0564 59.4541 72.5864C58.9619 72.1164 58.3678 71.7666 57.718 71.5641C55.734 71.0308 55.0087 70.8814 53.4514 70.5401C53.0301 70.4546 52.6012 70.4117 52.1714 70.4121H52.214Z" fill="#212121"/>
<path d="M40.2046 113V102.818H43.64C44.3029 102.818 44.8547 102.934 45.2955 103.166C45.7397 103.398 46.0728 103.715 46.2948 104.116C46.5169 104.517 46.6279 104.973 46.6279 105.483C46.6279 105.907 46.5567 106.27 46.4141 106.572C46.2716 106.873 46.0777 107.117 45.8325 107.303C45.5872 107.488 45.3138 107.622 45.0121 107.705V107.785C45.3403 107.808 45.6585 107.924 45.9667 108.133C46.2749 108.338 46.5285 108.627 46.7273 108.998C46.9262 109.369 47.0256 109.813 47.0256 110.33C47.0256 110.844 46.9113 111.303 46.6826 111.707C46.4539 112.108 46.1026 112.425 45.6286 112.657C45.158 112.886 44.5581 113 43.8289 113H40.2046ZM41.1343 112.165H43.8289C44.6144 112.165 45.1944 111.991 45.569 111.643C45.9468 111.295 46.1357 110.857 46.1357 110.33C46.1357 109.942 46.0413 109.591 45.8523 109.276C45.6667 108.958 45.4032 108.706 45.0619 108.521C44.7238 108.335 44.3261 108.242 43.8687 108.242H41.1343V112.165ZM41.1343 107.417H43.7245C44.1255 107.417 44.4769 107.334 44.7785 107.168C45.0801 107.003 45.3154 106.774 45.4844 106.482C45.6535 106.191 45.738 105.857 45.738 105.483C45.738 104.943 45.5623 104.504 45.211 104.165C44.8597 103.824 44.336 103.653 43.64 103.653H41.1343V107.417ZM49.1551 113V105.364H50.0152V106.537H50.0798C50.2323 106.152 50.4975 105.843 50.8753 105.607C51.2564 105.369 51.6873 105.249 52.1679 105.249C52.2408 105.249 52.322 105.251 52.4115 105.254C52.501 105.258 52.5756 105.261 52.6352 105.264V106.164C52.5955 106.157 52.5259 106.147 52.4264 106.134C52.327 106.121 52.2193 106.114 52.1033 106.114C51.7055 106.114 51.3509 106.199 51.0394 106.368C50.7311 106.534 50.4875 106.764 50.3085 107.059C50.1296 107.354 50.0401 107.69 50.0401 108.068V113H49.1551ZM57.0703 113.159C56.3577 113.159 55.7412 112.993 55.2209 112.662C54.7005 112.327 54.2978 111.865 54.0128 111.275C53.731 110.682 53.5902 109.999 53.5902 109.227C53.5902 108.458 53.731 107.775 54.0128 107.178C54.2978 106.578 54.6906 106.109 55.191 105.771C55.6948 105.43 56.2765 105.259 56.9361 105.259C57.3504 105.259 57.7497 105.335 58.1342 105.488C58.5187 105.637 58.8634 105.867 59.1683 106.179C59.4765 106.487 59.7202 106.877 59.8991 107.347C60.0781 107.815 60.1676 108.368 60.1676 109.008V109.445H54.2017V108.665H59.2628C59.2628 108.174 59.1633 107.733 58.9645 107.342C58.7689 106.948 58.4955 106.636 58.1442 106.408C57.7961 106.179 57.3934 106.065 56.9361 106.065C56.4522 106.065 56.0263 106.194 55.6584 106.452C55.2905 106.711 55.0021 107.052 54.7933 107.477C54.5878 107.901 54.4834 108.365 54.4801 108.869V109.336C54.4801 109.942 54.5845 110.473 54.7933 110.927C55.0054 111.378 55.3054 111.727 55.6932 111.976C56.0809 112.224 56.54 112.349 57.0703 112.349C57.4316 112.349 57.7481 112.292 58.0199 112.18C58.295 112.067 58.5253 111.916 58.7109 111.727C58.8998 111.535 59.0424 111.325 59.1385 111.096L59.9787 111.369C59.8627 111.691 59.6721 111.987 59.4069 112.259C59.1451 112.531 58.817 112.75 58.4226 112.915C58.0315 113.078 57.5807 113.159 57.0703 113.159ZM64.3205 113.174C63.8598 113.174 63.4389 113.085 63.0577 112.906C62.6766 112.723 62.3733 112.461 62.1479 112.12C61.9225 111.775 61.8099 111.358 61.8099 110.867C61.8099 110.489 61.8811 110.171 62.0236 109.913C62.1662 109.654 62.3683 109.442 62.6302 109.276C62.892 109.111 63.2019 108.98 63.5599 108.884C63.9178 108.787 64.3122 108.713 64.7431 108.66C65.1707 108.607 65.5319 108.56 65.8269 108.521C66.1252 108.481 66.3522 108.418 66.508 108.332C66.6638 108.246 66.7417 108.106 66.7417 107.914V107.735C66.7417 107.215 66.5859 106.805 66.2743 106.507C65.9661 106.205 65.522 106.055 64.942 106.055C64.3918 106.055 63.9427 106.176 63.5947 106.418C63.25 106.66 63.008 106.945 62.8688 107.273L62.0286 106.969C62.201 106.552 62.4396 106.219 62.7445 105.97C63.0494 105.718 63.3908 105.538 63.7687 105.428C64.1465 105.316 64.5293 105.259 64.9171 105.259C65.2088 105.259 65.512 105.297 65.8269 105.374C66.1451 105.45 66.4401 105.582 66.7118 105.771C66.9836 105.957 67.204 106.217 67.3731 106.552C67.5421 106.883 67.6266 107.304 67.6266 107.815V113H66.7417V111.792H66.687C66.5809 112.017 66.4235 112.236 66.2147 112.448C66.0059 112.66 65.744 112.834 65.4292 112.97C65.1143 113.106 64.7448 113.174 64.3205 113.174ZM64.4398 112.364C64.9105 112.364 65.3181 112.259 65.6628 112.05C66.0075 111.842 66.2727 111.565 66.4583 111.22C66.6472 110.872 66.7417 110.489 66.7417 110.072V108.968C66.6754 109.031 66.5644 109.087 66.4086 109.137C66.2561 109.187 66.0788 109.232 65.8766 109.271C65.6778 109.308 65.4789 109.339 65.28 109.366C65.0812 109.392 64.9022 109.415 64.7431 109.435C64.3122 109.488 63.9443 109.571 63.6394 109.684C63.3345 109.797 63.1008 109.952 62.9384 110.151C62.776 110.347 62.6948 110.599 62.6948 110.907C62.6948 111.371 62.8605 111.731 63.192 111.986C63.5234 112.238 63.9394 112.364 64.4398 112.364ZM75.1814 107.039L74.371 107.268C74.2914 107.039 74.1787 106.832 74.0329 106.646C73.8871 106.461 73.6965 106.313 73.4612 106.204C73.2292 106.094 72.9408 106.04 72.5961 106.04C72.0791 106.04 71.6548 106.162 71.3234 106.408C70.992 106.653 70.8262 106.969 70.8262 107.357C70.8262 107.685 70.9389 107.952 71.1643 108.158C71.393 108.36 71.7443 108.521 72.2183 108.64L73.3717 108.923C74.0114 109.079 74.4903 109.326 74.8085 109.664C75.13 110.002 75.2907 110.426 75.2907 110.937C75.2907 111.368 75.1714 111.75 74.9328 112.085C74.6941 112.42 74.361 112.683 73.9335 112.876C73.5092 113.065 73.0171 113.159 72.4569 113.159C71.7112 113.159 71.0964 112.992 70.6125 112.657C70.1286 112.319 69.8187 111.832 69.6828 111.195L70.5329 110.987C70.6423 111.441 70.8561 111.784 71.1742 112.016C71.4957 112.248 71.9183 112.364 72.442 112.364C73.0287 112.364 73.4976 112.233 73.849 111.971C74.2003 111.706 74.376 111.374 74.376 110.977C74.376 110.668 74.2732 110.41 74.0677 110.201C73.8622 109.989 73.5507 109.833 73.1331 109.734L71.8852 109.435C71.2223 109.276 70.7318 109.024 70.4136 108.68C70.0954 108.335 69.9363 107.907 69.9363 107.397C69.9363 106.976 70.0507 106.607 70.2794 106.288C70.5081 105.967 70.8229 105.715 71.224 105.533C71.625 105.35 72.0824 105.259 72.5961 105.259C73.2955 105.259 73.8539 105.418 74.2715 105.737C74.6925 106.051 74.9957 106.486 75.1814 107.039ZM80.3062 105.364V106.134H76.662V105.364H80.3062ZM77.8005 103.534H78.6904V111.006C78.6904 111.325 78.7451 111.575 78.8545 111.757C78.9639 111.936 79.1064 112.064 79.2821 112.14C79.4577 112.213 79.645 112.249 79.8439 112.249C79.9599 112.249 80.0593 112.243 80.1422 112.229C80.225 112.213 80.2979 112.196 80.3609 112.18L80.5498 112.98C80.4636 113.013 80.3576 113.043 80.2316 113.07C80.1057 113.099 79.9499 113.114 79.7643 113.114C79.4395 113.114 79.1263 113.043 78.8247 112.901C78.5264 112.758 78.2811 112.546 78.0889 112.264C77.8966 111.982 77.8005 111.633 77.8005 111.215V103.534Z" fill="#212121"/>
</svg>
