<svg width="48" height="49" viewBox="0 0 48 49" fill="none" xmlns="http://www.w3.org/2000/svg">
<path fill-rule="evenodd" clip-rule="evenodd" d="M42 24.9375C42 34.8786 33.9411 42.9375 24 42.9375C14.0589 42.9375 6 34.8786 6 24.9375C6 14.9964 14.0589 6.9375 24 6.9375C33.9411 6.9375 42 14.9964 42 24.9375ZM44 24.9375C44 35.9832 35.0457 44.9375 24 44.9375C12.9543 44.9375 4 35.9832 4 24.9375C4 13.8918 12.9543 4.9375 24 4.9375C35.0457 4.9375 44 13.8918 44 24.9375ZM16 19.9375C17.1046 19.9375 18 19.0421 18 17.9375C18 16.8329 17.1046 15.9375 16 15.9375C14.8954 15.9375 14 16.8329 14 17.9375C14 19.0421 14.8954 19.9375 16 19.9375Z" fill="#E00D3A"/>
</svg>
