<svg width="56" height="57" viewBox="0 0 56 57" fill="none" xmlns="http://www.w3.org/2000/svg">
<g clip-path="url(#clip0_6199_4309)">
<path d="M28.0058 56.5116C43.473 56.5116 56.0116 43.973 56.0116 28.5058C56.0116 13.0386 43.473 0.5 28.0058 0.5C12.5386 0.5 0 13.0386 0 28.5058C0 43.973 12.5386 56.5116 28.0058 56.5116Z" fill="#201E3D"/>
<path d="M34.1572 31.1487C34.1572 31.1487 33.4388 28.1592 31.5386 27.3365C30.9824 27.1512 29.3718 27.6262 30.3451 30.0016C30.1018 29.7235 29.2096 27.9738 29.9627 26.8499C30.4957 26.1547 31.3068 25.7491 32.1874 25.726C32.7436 25.726 33.1955 25.2856 33.2071 24.7295C33.2071 24.6368 33.1955 24.5441 33.1723 24.4514C33.0101 23.3506 31.5733 23.5013 31.5733 23.5013C31.5733 23.5013 27.8539 23.4317 26.9733 25.8766C26.9733 22.8987 30.7854 22.8871 30.7854 22.8871C30.7854 21.9602 27.5874 21.3924 25.5481 22.9682C22.802 25.0887 22.8251 28.7386 25.0267 31.5079C23.7521 30.6504 22.9526 29.2484 22.8599 27.7189C22.5007 28.1824 21.4231 29.8857 21.736 32.9794C22.1878 37.6722 32.1527 41.4148 33.7864 39.0394C35.4202 36.6641 34.1572 31.1371 34.1572 31.1371V31.1487Z" fill="white"/>
<path d="M23.4871 23.8719C23.2438 23.3853 21.3203 23.42 21.3203 23.9762V28.0432C21.6563 27.4059 22.1314 26.8498 22.7108 26.4095C22.7339 25.5057 23.012 24.6367 23.4871 23.8719Z" fill="white"/>
<path d="M26.258 21.8556L27.0112 21.5312V17.6611L28.3553 18.2405L26.6288 14.1387L24.9023 18.2405L26.258 17.6611V21.8556Z" fill="white"/>
<path d="M42.8365 33.7908L38.7347 32.0527L39.3024 33.4084H34.9805L35.0732 34.1616H39.3024L38.7347 35.5172L42.8365 33.7908Z" fill="white"/>
<path d="M23.6261 37.3242L23.0816 36.8027L19.7677 40.1166L19.2231 38.7493L17.543 42.8743L21.6679 41.1942L20.3007 40.638L23.6261 37.3242Z" fill="white"/>
<path d="M33.6267 33.4069H27.0106V22.8164L26.2574 23.222V33.6271L24.1602 35.7243L24.7974 36.1531L26.7904 34.1601H33.7542L33.6267 33.4069Z" fill="white"/>
</g>
<defs>
<clipPath id="clip0_6199_4309">
<rect width="56" height="56" fill="white" transform="translate(0 0.5)"/>
</clipPath>
</defs>
</svg>
