<svg width="128" height="128" viewBox="0 0 128 128" fill="none" xmlns="http://www.w3.org/2000/svg">
<rect width="128" height="128" fill="#444A65"/>
<mask id="mask0_5049_8526" style="mask-type:alpha" maskUnits="userSpaceOnUse" x="40" y="40" width="48" height="48">
<rect x="40" y="40" width="48" height="48" fill="#D9D9D9"/>
</mask>
<g mask="url(#mask0_5049_8526)">
<path d="M78.4 82.0002L65.85 69.4502L68.7 66.6002L81.25 79.1502L78.4 82.0002ZM49.35 82.0002L46.5 79.1502L61 64.6502L55.65 59.3002L54.5 60.4502L52.3 58.2502V62.5002L51.1 63.7002L45 57.6002L46.2 56.4002H50.5L48.1 54.0002L54.65 47.4502C55.2167 46.8835 55.8333 46.5002 56.5 46.3002C57.1667 46.1002 57.9 46.0002 58.7 46.0002C59.5 46.0002 60.2333 46.1419 60.9 46.4252C61.5667 46.7085 62.1833 47.1335 62.75 47.7002L57.4 53.0502L59.8 55.4502L58.6 56.6502L63.8 61.8502L69.9 55.7502C69.6333 55.3169 69.425 54.8169 69.275 54.2502C69.125 53.6835 69.05 53.0835 69.05 52.4502C69.05 50.6835 69.6917 49.1585 70.975 47.8752C72.2583 46.5919 73.7833 45.9502 75.55 45.9502C76.05 45.9502 76.475 46.0002 76.825 46.1002C77.175 46.2002 77.4667 46.3335 77.7 46.5002L73.45 50.7502L77.2 54.5002L81.45 50.2502C81.6167 50.5169 81.7583 50.8419 81.875 51.2252C81.9917 51.6085 82.05 52.0502 82.05 52.5502C82.05 54.3169 81.4083 55.8419 80.125 57.1252C78.8417 58.4085 77.3167 59.0502 75.55 59.0502C74.95 59.0502 74.4333 59.0085 74 58.9252C73.5667 58.8419 73.1667 58.7169 72.8 58.5502L49.35 82.0002Z" fill="white"/>
</g>
</svg>
