<svg width="56" height="57" viewBox="0 0 56 57" fill="none" xmlns="http://www.w3.org/2000/svg">
<g clip-path="url(#clip0_6199_4324)">
<path d="M28.0058 56.5116C43.473 56.5116 56.0116 43.973 56.0116 28.5058C56.0116 13.0386 43.473 0.5 28.0058 0.5C12.5386 0.5 0 13.0386 0 28.5058C0 43.973 12.5386 56.5116 28.0058 56.5116Z" fill="#201E3D"/>
<path d="M31.5405 26H30.5C30.5 22.6932 32.3624 20 34.6514 20H39.5V21.0399H34.6514C32.9659 21.0399 31.5405 23.3068 31.5405 26Z" fill="white"/>
<path d="M37.7451 31C36.4714 31 34.9264 30.9699 33.8302 30.8397C31.3769 30.5491 30.5835 26.6212 30.5 26.1804L31.5231 26C31.711 27.012 32.5148 29.6774 33.9555 29.8477C36.033 30.0982 39.9269 29.9679 39.9687 29.9679L40 30.9699C39.9165 30.9699 38.956 31 37.7451 31Z" fill="white"/>
<path d="M22.5405 31.5H21.5C21.5 28.1932 23.3624 25.5 25.6514 25.5H30.5V26.5399H25.6514C23.9659 26.5399 22.5405 28.8068 22.5405 31.5Z" fill="white"/>
<path d="M28.7451 38.5C27.4714 38.5 25.9368 38.4669 24.8302 38.3236C22.3769 38.004 21.5835 33.6834 21.5 33.1984L22.5231 33C22.711 34.1132 23.5148 37.0451 24.9555 37.2325C27.033 37.508 30.9269 37.3758 30.9687 37.3647L31 38.4669C30.9165 38.4669 29.956 38.5 28.7346 38.5H28.7451Z" fill="white"/>
<path d="M30.75 29C32.2688 29 33.5 27.7688 33.5 26.25C33.5 24.7312 32.2688 23.5 30.75 23.5C29.2312 23.5 28 24.7312 28 26.25C28 27.7688 29.2312 29 30.75 29Z" fill="white"/>
<path d="M31.5 40.5C32.8807 40.5 34 39.3807 34 38C34 36.6193 32.8807 35.5 31.5 35.5C30.1193 35.5 29 36.6193 29 38C29 39.3807 30.1193 40.5 31.5 40.5Z" fill="white"/>
<path d="M39.25 23.5C40.7688 23.5 42 22.2688 42 20.75C42 19.2312 40.7688 18 39.25 18C37.7312 18 36.5 19.2312 36.5 20.75C36.5 22.2688 37.7312 23.5 39.25 23.5Z" fill="white"/>
<path d="M21.5 31H14V32H21.5V31Z" fill="white"/>
<path d="M14.5 34C15.8807 34 17 32.8807 17 31.5C17 30.1193 15.8807 29 14.5 29C13.1193 29 12 30.1193 12 31.5C12 32.8807 13.1193 34 14.5 34Z" fill="white"/>
<path d="M22.25 34C23.7688 34 25 32.8807 25 31.5C25 30.1193 23.7688 29 22.25 29C20.7312 29 19.5 30.1193 19.5 31.5C19.5 32.8807 20.7312 34 22.25 34Z" fill="white"/>
<path d="M42.5564 30.4044L40.3499 28.0216C40.1351 27.7896 39.7729 27.7757 39.5409 27.9905L37.1581 30.197C36.9261 30.4119 36.9122 30.7741 37.127 31.006L39.3335 33.3888C39.5483 33.6208 39.9105 33.6347 40.1425 33.4199L42.5253 31.2134C42.7573 30.9986 42.7712 30.6364 42.5564 30.4044Z" fill="white"/>
</g>
<defs>
<clipPath id="clip0_6199_4324">
<rect width="56" height="56" fill="white" transform="translate(0 0.5)"/>
</clipPath>
</defs>
</svg>
