<svg width="120" height="144" viewBox="0 0 120 144" fill="none" xmlns="http://www.w3.org/2000/svg">
<rect width="120" height="144" rx="4" fill="#FAFAFA"/>
<g clip-path="url(#clip0_2079_9787)">
<mask id="path-2-inside-1_2079_9787" fill="white">
<path d="M50.8691 30.096C50.8691 31.9093 51.9784 37.5413 55.6691 39.5253C58.5491 41.0826 65.2904 40.9333 67.8504 41.6586C68.9861 42.1671 69.9988 42.9143 70.8198 43.8494C71.6407 44.7844 72.2505 45.8854 72.6078 47.0773C72.7784 48.0586 74.2078 46.3733 76.3198 46.6933C78.4318 47.0133 79.9038 50.832 79.2851 53.52C78.772 55.0179 77.7787 56.3046 76.4595 57.1803C75.1402 58.0559 73.5688 58.4716 71.9891 58.3626C70.0052 58.0239 68.2182 56.9593 66.9758 55.376C65.1624 52.1333 66.3998 50.384 64.2664 51.344C62.1331 52.304 64.9918 55.3333 65.8664 57.744C66.192 58.421 66.2911 59.1848 66.1489 59.9225C66.0068 60.6601 65.631 61.3324 65.0771 61.84C64.4478 62.4798 63.6132 62.8775 62.7198 62.9634C61.8264 63.0492 60.9314 62.8176 60.1918 62.3093C59.2309 61.702 58.1992 61.2148 57.1198 60.8586C54.3891 60.0053 51.1891 60.0266 50.9758 57.5306C50.7624 55.0346 52.9811 54.8426 52.9811 54.48C52.9811 54.1173 47.4984 53.584 47.8184 50.7893C48.0744 48.656 52.0851 48.3146 52.0851 48.3146C52.0851 48.3146 55.9038 48.3146 55.9038 47.8666C55.9038 47.4186 47.3704 46.416 46.8158 50.4693C46.4318 53.4133 50.2718 53.7333 50.4851 56.8693C50.6984 60.0053 48.3518 61.3066 50.1224 62.1173C52.4691 63.1626 54.6878 61.2853 57.0558 61.52C59.4238 61.7546 61.7278 64.08 63.1144 64.0373C65.0984 64.0373 66.1224 60.0906 69.8984 59.5146C71.0328 59.2913 72.209 59.4382 73.2536 59.9337C74.2982 60.4291 75.1562 61.2469 75.7011 62.2666C76.2022 63.6252 76.2143 65.1159 75.7355 66.4824C75.2566 67.849 74.3166 69.006 73.0771 69.7546C70.9445 71.2233 68.4545 72.0879 65.8707 72.2569C63.2869 72.4259 60.7054 71.893 58.3998 70.7146C59.0398 73.7653 56.7998 74.4053 55.9038 74.448C53.3224 74.6186 52.1491 71.12 50.3358 70.1813C47.949 68.9628 45.2496 68.4943 42.5918 68.8373C40.2878 69.3493 39.5198 66.0213 42.1224 65.4026C45.1533 64.959 48.2477 65.4191 51.0184 66.7253C52.2746 67.3011 53.3889 68.1459 54.2824 69.2C54.2666 68.5086 54.4846 67.8321 54.9011 67.28C55.2661 66.7646 55.6884 66.2923 56.1598 65.872L59.2744 65.0613L63.1144 67.9626L65.2478 68.1333C65.2478 68.1333 61.9838 68.1333 65.4398 68.0266C67.6019 68.0874 69.7064 67.3249 71.3278 65.8933C71.5664 65.6799 71.7196 65.3871 71.7588 65.0693C71.7981 64.7516 71.7207 64.4304 71.5411 64.1653C71.2211 63.7813 70.7944 63.632 69.9411 64.1653C68.5971 64.976 66.8478 68.0053 65.2904 68.0693C64.3091 68.0693 57.0558 65.7013 55.9038 65.936C53.5998 66.4906 51.2104 67.4506 48.7358 66.2986C47.7874 65.9478 46.9486 65.3527 46.3043 64.5735C45.6599 63.7943 45.2329 62.8586 45.0664 61.8613C44.9384 60.0906 46.1971 58.576 46.1118 57.5946C46.0264 56.6133 41.6318 54.2666 42.7198 49.296C43.8078 44.3253 50.6131 42.896 53.3864 43.1946C56.1598 43.4933 60.1704 44.5813 60.2771 47.4613C60.3838 50.3413 57.6744 51.4506 57.5891 51.728C57.5038 52.0053 58.3998 52.496 58.6984 53.8613C58.7791 54.891 58.5566 55.9218 58.0584 56.8266C58.675 56.9 59.2826 57.0358 59.8718 57.232C60.6611 57.552 61.3438 58.192 61.4291 58.1493C60.5383 56.3513 59.8651 54.4534 59.4238 52.496C59.2964 51.3356 59.5814 50.1675 60.2289 49.1963C60.8764 48.225 61.845 47.5126 62.9651 47.184C65.6958 46.3733 68.8531 47.76 69.3651 49.3173C69.8771 50.8746 69.8131 52.3253 71.2424 53.584C71.4964 53.7981 71.7908 53.959 72.1082 54.057C72.4257 54.1549 72.7596 54.188 73.09 54.1541C73.4205 54.1203 73.7408 54.0202 74.0318 53.86C74.3228 53.6997 74.5785 53.4825 74.7838 53.2213C75.2318 52.56 75.5091 50.384 74.6344 50.832C73.5851 51.3818 72.37 51.5261 71.2211 51.2373C68.7891 50.5973 68.3838 46.5866 66.9544 45.84C65.5251 45.0933 60.2131 45.3706 59.0611 45.1146C57.9091 44.8586 51.1251 43.1093 48.9064 38.3733C47.5045 35.7936 46.7711 32.9039 46.7731 29.968C46.4958 28.2186 50.8478 28.304 50.8691 30.096Z"/>
</mask>
<path d="M50.8691 30.096C50.8691 31.9093 51.9784 37.5413 55.6691 39.5253C58.5491 41.0826 65.2904 40.9333 67.8504 41.6586C68.9861 42.1671 69.9988 42.9143 70.8198 43.8494C71.6407 44.7844 72.2505 45.8854 72.6078 47.0773C72.7784 48.0586 74.2078 46.3733 76.3198 46.6933C78.4318 47.0133 79.9038 50.832 79.2851 53.52C78.772 55.0179 77.7787 56.3046 76.4595 57.1803C75.1402 58.0559 73.5688 58.4716 71.9891 58.3626C70.0052 58.0239 68.2182 56.9593 66.9758 55.376C65.1624 52.1333 66.3998 50.384 64.2664 51.344C62.1331 52.304 64.9918 55.3333 65.8664 57.744C66.192 58.421 66.2911 59.1848 66.1489 59.9225C66.0068 60.6601 65.631 61.3324 65.0771 61.84C64.4478 62.4798 63.6132 62.8775 62.7198 62.9634C61.8264 63.0492 60.9314 62.8176 60.1918 62.3093C59.2309 61.702 58.1992 61.2148 57.1198 60.8586C54.3891 60.0053 51.1891 60.0266 50.9758 57.5306C50.7624 55.0346 52.9811 54.8426 52.9811 54.48C52.9811 54.1173 47.4984 53.584 47.8184 50.7893C48.0744 48.656 52.0851 48.3146 52.0851 48.3146C52.0851 48.3146 55.9038 48.3146 55.9038 47.8666C55.9038 47.4186 47.3704 46.416 46.8158 50.4693C46.4318 53.4133 50.2718 53.7333 50.4851 56.8693C50.6984 60.0053 48.3518 61.3066 50.1224 62.1173C52.4691 63.1626 54.6878 61.2853 57.0558 61.52C59.4238 61.7546 61.7278 64.08 63.1144 64.0373C65.0984 64.0373 66.1224 60.0906 69.8984 59.5146C71.0328 59.2913 72.209 59.4382 73.2536 59.9337C74.2982 60.4291 75.1562 61.2469 75.7011 62.2666C76.2022 63.6252 76.2143 65.1159 75.7355 66.4824C75.2566 67.849 74.3166 69.006 73.0771 69.7546C70.9445 71.2233 68.4545 72.0879 65.8707 72.2569C63.2869 72.4259 60.7054 71.893 58.3998 70.7146C59.0398 73.7653 56.7998 74.4053 55.9038 74.448C53.3224 74.6186 52.1491 71.12 50.3358 70.1813C47.949 68.9628 45.2496 68.4943 42.5918 68.8373C40.2878 69.3493 39.5198 66.0213 42.1224 65.4026C45.1533 64.959 48.2477 65.4191 51.0184 66.7253C52.2746 67.3011 53.3889 68.1459 54.2824 69.2C54.2666 68.5086 54.4846 67.8321 54.9011 67.28C55.2661 66.7646 55.6884 66.2923 56.1598 65.872L59.2744 65.0613L63.1144 67.9626L65.2478 68.1333C65.2478 68.1333 61.9838 68.1333 65.4398 68.0266C67.6019 68.0874 69.7064 67.3249 71.3278 65.8933C71.5664 65.6799 71.7196 65.3871 71.7588 65.0693C71.7981 64.7516 71.7207 64.4304 71.5411 64.1653C71.2211 63.7813 70.7944 63.632 69.9411 64.1653C68.5971 64.976 66.8478 68.0053 65.2904 68.0693C64.3091 68.0693 57.0558 65.7013 55.9038 65.936C53.5998 66.4906 51.2104 67.4506 48.7358 66.2986C47.7874 65.9478 46.9486 65.3527 46.3043 64.5735C45.6599 63.7943 45.2329 62.8586 45.0664 61.8613C44.9384 60.0906 46.1971 58.576 46.1118 57.5946C46.0264 56.6133 41.6318 54.2666 42.7198 49.296C43.8078 44.3253 50.6131 42.896 53.3864 43.1946C56.1598 43.4933 60.1704 44.5813 60.2771 47.4613C60.3838 50.3413 57.6744 51.4506 57.5891 51.728C57.5038 52.0053 58.3998 52.496 58.6984 53.8613C58.7791 54.891 58.5566 55.9218 58.0584 56.8266C58.675 56.9 59.2826 57.0358 59.8718 57.232C60.6611 57.552 61.3438 58.192 61.4291 58.1493C60.5383 56.3513 59.8651 54.4534 59.4238 52.496C59.2964 51.3356 59.5814 50.1675 60.2289 49.1963C60.8764 48.225 61.845 47.5126 62.9651 47.184C65.6958 46.3733 68.8531 47.76 69.3651 49.3173C69.8771 50.8746 69.8131 52.3253 71.2424 53.584C71.4964 53.7981 71.7908 53.959 72.1082 54.057C72.4257 54.1549 72.7596 54.188 73.09 54.1541C73.4205 54.1203 73.7408 54.0202 74.0318 53.86C74.3228 53.6997 74.5785 53.4825 74.7838 53.2213C75.2318 52.56 75.5091 50.384 74.6344 50.832C73.5851 51.3818 72.37 51.5261 71.2211 51.2373C68.7891 50.5973 68.3838 46.5866 66.9544 45.84C65.5251 45.0933 60.2131 45.3706 59.0611 45.1146C57.9091 44.8586 51.1251 43.1093 48.9064 38.3733C47.5045 35.7936 46.7711 32.9039 46.7731 29.968C46.4958 28.2186 50.8478 28.304 50.8691 30.096Z" fill="#212121"/>
<path d="M50.8691 30.096H51.8692L51.869 30.0841L50.8691 30.096ZM55.6691 39.5253L56.1447 38.6457L56.1426 38.6445L55.6691 39.5253ZM67.8504 41.6586L68.2591 40.7459L68.1928 40.7163L68.123 40.6965L67.8504 41.6586ZM72.6078 47.0773L73.593 46.906L73.5828 46.8473L73.5657 46.7902L72.6078 47.0773ZM79.2851 53.52L80.2311 53.844L80.248 53.7949L80.2596 53.7443L79.2851 53.52ZM71.9891 58.3626L71.8208 59.3484L71.8702 59.3568L71.9203 59.3603L71.9891 58.3626ZM66.9758 55.376L66.103 55.864L66.141 55.932L66.189 55.9933L66.9758 55.376ZM65.8664 57.744L64.9264 58.085L64.9435 58.1322L64.9652 58.1774L65.8664 57.744ZM65.0771 61.84L64.4015 61.1027L64.3824 61.1202L64.3642 61.1387L65.0771 61.84ZM60.1918 62.3093L60.7581 61.4852L60.7423 61.4743L60.726 61.464L60.1918 62.3093ZM57.1198 60.8586L57.4331 59.909L57.4256 59.9065L57.418 59.9041L57.1198 60.8586ZM47.8184 50.7893L46.8255 50.6701L46.8249 50.6755L47.8184 50.7893ZM52.0851 48.3146V47.3146H52.0426L52.0003 47.3182L52.0851 48.3146ZM46.8158 50.4693L45.825 50.3337L45.8242 50.34L46.8158 50.4693ZM50.1224 62.1173L49.7061 63.0266L49.7155 63.0308L50.1224 62.1173ZM63.1144 64.0373V63.0373H63.099L63.0837 63.0378L63.1144 64.0373ZM69.8984 59.5146L70.0492 60.5032L70.0705 60.5L70.0915 60.4958L69.8984 59.5146ZM75.7011 62.2666L76.6393 61.9206L76.6155 61.856L76.5831 61.7953L75.7011 62.2666ZM73.0771 69.7546L72.5601 68.8986L72.5345 68.9141L72.5099 68.931L73.0771 69.7546ZM58.3998 70.7146L58.8548 69.8242L56.9914 68.8718L57.4211 70.9199L58.3998 70.7146ZM55.9038 74.448L55.8562 73.4491L55.847 73.4495L55.8378 73.4501L55.9038 74.448ZM50.3358 70.1813L50.7955 69.2932L50.7904 69.2906L50.3358 70.1813ZM42.5918 68.8373L42.4638 67.8455L42.4189 67.8513L42.3748 67.8611L42.5918 68.8373ZM42.1224 65.4026L41.9776 64.4132L41.934 64.4195L41.8912 64.4297L42.1224 65.4026ZM51.0184 66.7253L50.592 67.6299L50.6018 67.6344L51.0184 66.7253ZM54.2824 69.2L53.5196 69.8466L55.3466 72.0019L55.2822 69.1772L54.2824 69.2ZM54.9011 67.28L55.6994 67.8822L55.7085 67.8702L55.7171 67.858L54.9011 67.28ZM56.1598 65.872L55.9079 64.9042L55.6743 64.965L55.4942 65.1256L56.1598 65.872ZM59.2744 65.0613L59.8773 64.2634L59.491 63.9716L59.0225 64.0935L59.2744 65.0613ZM63.1144 67.9626L62.5116 68.7605L62.7441 68.9362L63.0347 68.9594L63.1144 67.9626ZM65.2478 68.1333V69.1333L65.3275 67.1365L65.2478 68.1333ZM65.4398 68.0266L65.4679 67.027L65.4384 67.0262L65.4089 67.0271L65.4398 68.0266ZM71.3278 65.8933L71.9897 66.6429L71.9943 66.6388L71.3278 65.8933ZM71.5411 64.1653L72.3689 63.6043L72.3411 63.5632L72.3093 63.5251L71.5411 64.1653ZM69.9411 64.1653L70.4576 65.0216L70.4644 65.0175L70.4711 65.0133L69.9411 64.1653ZM65.2904 68.0693V69.0693H65.311L65.3315 69.0685L65.2904 68.0693ZM55.9038 65.936L55.7042 64.9561L55.6869 64.9596L55.6697 64.9637L55.9038 65.936ZM48.7358 66.2986L49.1578 65.392L49.1209 65.3749L49.0827 65.3607L48.7358 66.2986ZM45.0664 61.8613L44.069 61.9334L44.0724 61.9799L44.0801 62.0259L45.0664 61.8613ZM58.6984 53.8613L59.6954 53.7832L59.69 53.7147L59.6753 53.6476L58.6984 53.8613ZM58.0584 56.8266L57.1824 56.3443L56.4666 57.6442L57.9402 57.8196L58.0584 56.8266ZM59.8718 57.232L60.2475 56.3052L60.2179 56.2932L60.1876 56.2832L59.8718 57.232ZM61.4291 58.1493L61.8763 59.0437L62.7675 58.5981L62.3251 57.7054L61.4291 58.1493ZM59.4238 52.496L58.4297 52.6051L58.4359 52.661L58.4482 52.7159L59.4238 52.496ZM62.9651 47.184L63.2467 48.1435L63.2497 48.1426L62.9651 47.184ZM71.2424 53.584L70.5815 54.3345L70.5895 54.3415L70.5977 54.3484L71.2424 53.584ZM74.7838 53.2213L75.57 53.8391L75.5919 53.8114L75.6117 53.7821L74.7838 53.2213ZM74.6344 50.832L74.1785 49.9419L74.1703 49.9462L74.6344 50.832ZM71.2211 51.2373L70.9666 52.2044L70.9773 52.2071L71.2211 51.2373ZM48.9064 38.3733L49.812 37.9491L49.7993 37.922L49.7851 37.8958L48.9064 38.3733ZM46.7731 29.968L47.7731 29.9686L47.7731 29.8895L47.7608 29.8114L46.7731 29.968ZM49.8691 30.096C49.8691 31.1397 50.1745 33.1246 50.9542 35.1119C51.7303 37.0901 53.0477 39.2514 55.1956 40.4061L56.1426 38.6445C54.5998 37.8151 53.5172 36.1685 52.816 34.3814C52.1184 32.6033 51.8691 30.8656 51.8691 30.096H49.8691ZM55.1934 40.4049C56.0436 40.8647 57.1193 41.1709 58.2305 41.394C59.354 41.6197 60.5837 41.7736 61.7755 41.8985C63.0259 42.0296 64.0908 42.1162 65.1644 42.2325C66.2039 42.3451 67.0283 42.4651 67.5778 42.6208L68.123 40.6965C67.3926 40.4895 66.4143 40.3562 65.3798 40.2441C64.3794 40.1357 63.0989 40.0263 61.984 39.9094C60.8105 39.7864 59.6548 39.6402 58.6244 39.4332C57.5815 39.2237 56.7346 38.9646 56.1447 38.6457L55.1934 40.4049ZM67.4418 42.5713C68.4463 43.0211 69.3422 43.682 70.0683 44.5091L71.5713 43.1896C70.6555 42.1466 69.5258 41.3131 68.2591 40.7459L67.4418 42.5713ZM70.0683 44.5091C70.7945 45.3362 71.3339 46.3101 71.6498 47.3644L73.5657 46.7902C73.1672 45.4607 72.487 44.2326 71.5713 43.1896L70.0683 44.5091ZM71.6225 47.2486C71.665 47.4929 71.7773 47.8437 72.0984 48.105C72.4307 48.3755 72.8027 48.4019 73.041 48.3832C73.2692 48.3653 73.4811 48.2989 73.6306 48.2466C73.7874 48.1917 73.9603 48.1209 74.1091 48.061C74.7469 47.8043 75.4066 47.5664 76.1699 47.682L76.4696 45.7046C75.1209 45.5002 74.0099 45.945 73.3624 46.2056C73.1899 46.2751 73.0718 46.3232 72.9701 46.3588C72.8612 46.3969 72.8473 46.3923 72.8845 46.3894C72.9318 46.3856 73.1476 46.3803 73.3609 46.5538C73.4596 46.6342 73.5193 46.7235 73.5527 46.7919C73.5841 46.8562 73.5921 46.9007 73.593 46.906L71.6225 47.2486ZM76.1699 47.682C76.6901 47.7608 77.3873 48.3652 77.9034 49.6034C78.3938 50.7799 78.5645 52.1923 78.3106 53.2957L80.2596 53.7443C80.6243 52.1597 80.3684 50.3187 79.7494 48.8339C79.1562 47.4108 78.0614 45.9458 76.4696 45.7046L76.1699 47.682ZM78.339 53.1959C77.8973 54.4855 77.0422 55.5933 75.9064 56.3471L77.0125 58.0135C78.5152 57.016 79.6467 55.5503 80.2311 53.844L78.339 53.1959ZM75.9064 56.3471C74.7707 57.101 73.4178 57.4588 72.0579 57.365L71.9203 59.3603C73.7197 59.4843 75.5097 59.0109 77.0125 58.0135L75.9064 56.3471ZM72.1574 57.3769C70.4182 57.08 68.8516 56.1467 67.7625 54.7586L66.189 55.9933C67.5847 57.772 69.5921 58.9679 71.8208 59.3484L72.1574 57.3769ZM67.8486 54.8879C67.0252 53.4154 66.9197 52.3602 66.7102 51.5372C66.6595 51.3382 66.5852 51.0841 66.454 50.8515C66.3094 50.5952 66.0701 50.3208 65.686 50.1767C65.3293 50.0428 64.98 50.0725 64.709 50.1313C64.4354 50.1906 64.148 50.3006 63.8561 50.432L64.6768 52.2559C64.9181 52.1473 65.0588 52.1019 65.1329 52.0859C65.2097 52.0692 65.1279 52.1034 64.9835 52.0492C64.8117 51.9848 64.7296 51.8653 64.7121 51.8342C64.7079 51.8268 64.7307 51.8684 64.772 52.0307C64.9305 52.653 65.113 54.0938 66.103 55.864L67.8486 54.8879ZM63.8561 50.432C63.4601 50.6102 63.1133 50.8676 62.8648 51.2263C62.6144 51.5876 62.5096 51.986 62.4942 52.3698C62.4655 53.0851 62.7461 53.8177 63.0344 54.4274C63.3326 55.058 63.7332 55.741 64.0751 56.351C64.4332 56.9897 64.7386 57.5674 64.9264 58.085L66.8065 57.4029C66.5569 56.7152 66.1769 56.0102 65.8197 55.373C65.4463 54.7069 65.1016 54.1206 64.8425 53.5725C64.5734 53.0035 64.4847 52.6482 64.4926 52.4501C64.4942 52.4111 64.4994 52.3892 64.5025 52.3794C64.5051 52.3707 64.5072 52.3674 64.5088 52.3652C64.5089 52.365 64.5394 52.3177 64.6768 52.2559L63.8561 50.432ZM64.9652 58.1774C65.1978 58.6609 65.2685 59.2064 65.167 59.7332L67.1309 60.1117C67.3137 59.1632 67.1863 58.181 66.7676 57.3105L64.9652 58.1774ZM65.167 59.7332C65.0655 60.2601 64.7971 60.7402 64.4015 61.1027L65.7527 62.5773C66.4649 61.9247 66.9481 61.0602 67.1309 60.1117L65.167 59.7332ZM64.3642 61.1387C63.8996 61.611 63.2836 61.9046 62.6242 61.9679L62.8154 63.9588C63.9427 63.8505 64.9959 63.3486 65.79 62.5412L64.3642 61.1387ZM62.6242 61.9679C61.9648 62.0313 61.3041 61.8604 60.7581 61.4852L59.6254 63.1334C60.5587 63.7749 61.6881 64.0671 62.8154 63.9588L62.6242 61.9679ZM60.726 61.464C59.696 60.813 58.5902 60.2908 57.4331 59.909L56.8064 61.8083C57.8082 62.1389 58.7657 62.591 59.6575 63.1546L60.726 61.464ZM57.418 59.9041C56.6901 59.6767 55.9358 59.509 55.2604 59.3547C54.5649 59.1959 53.9581 59.0522 53.4374 58.8679C52.915 58.6831 52.5634 58.485 52.3389 58.2667C52.1401 58.0734 52.0051 57.8317 51.9721 57.4455L49.9794 57.6158C50.053 58.4776 50.398 59.1691 50.9447 59.7006C51.4654 60.2069 52.1245 60.5249 52.7701 60.7533C53.4174 60.9824 54.136 61.1494 54.8151 61.3045C55.5144 61.4643 56.1841 61.6139 56.8215 61.8131L57.418 59.9041ZM51.9721 57.4455C51.9319 56.9752 52.0097 56.676 52.1023 56.4811C52.1965 56.283 52.3356 56.1304 52.5074 55.9985C52.6906 55.8578 52.8789 55.7621 53.1045 55.643C53.1938 55.5959 53.3502 55.514 53.4831 55.4151C53.5593 55.3584 53.9811 55.0515 53.9811 54.48H51.9811C51.9811 54.2315 52.0799 54.0499 52.1518 53.9526C52.2176 53.8634 52.28 53.8174 52.2892 53.8105C52.3017 53.8013 52.2863 53.8134 52.1711 53.8742C51.9873 53.9712 51.6342 54.1474 51.2895 54.4121C50.9332 54.6856 50.5577 55.0716 50.2958 55.6228C50.0325 56.1772 49.9129 56.8381 49.9794 57.6158L51.9721 57.4455ZM53.9811 54.48C53.9811 54.1375 53.8176 53.8996 53.7148 53.7833C53.6119 53.6669 53.5036 53.5944 53.4413 53.5563C53.3146 53.4788 53.1806 53.4261 53.0904 53.393C52.8987 53.3227 52.6458 53.2505 52.4028 53.1814C51.8841 53.034 51.2587 52.8592 50.6486 52.6171C50.0275 52.3707 49.5125 52.0881 49.1814 51.7714C48.879 51.4821 48.7759 51.2176 48.8119 50.9031L46.8249 50.6755C46.7009 51.7584 47.1632 52.6085 47.7988 53.2166C48.4057 53.7971 49.2013 54.1946 49.9109 54.4761C50.6315 54.762 51.3567 54.9633 51.856 55.1052C52.122 55.1808 52.295 55.2316 52.4018 55.2707C52.461 55.2924 52.4444 55.291 52.3979 55.2626C52.3757 55.249 52.2981 55.2005 52.216 55.1075C52.1339 55.0146 51.9811 54.7998 51.9811 54.48H53.9811ZM48.8113 50.9084C48.8354 50.7076 48.9459 50.5026 49.2205 50.2813C49.5055 50.0516 49.9092 49.8554 50.3698 49.6987C50.8218 49.5449 51.2764 49.4466 51.6239 49.3868C51.7958 49.3573 51.9374 49.3379 52.0339 49.326C52.082 49.3201 52.1187 49.3162 52.1421 49.3138C52.1537 49.3126 52.162 49.3118 52.1668 49.3113C52.1691 49.3111 52.1706 49.311 52.1711 49.3109C52.1714 49.3109 52.1714 49.3109 52.1712 49.3109C52.1711 49.3109 52.1709 49.3109 52.1707 49.311C52.1706 49.311 52.1704 49.311 52.1704 49.311C52.1701 49.311 52.1699 49.311 52.0851 48.3146C52.0003 47.3182 52 47.3183 51.9997 47.3183C51.9996 47.3183 51.9993 47.3183 51.9991 47.3183C51.9986 47.3184 51.9981 47.3184 51.9975 47.3185C51.9963 47.3186 51.9949 47.3187 51.9933 47.3188C51.9899 47.3191 51.9856 47.3195 51.9804 47.32C51.9699 47.321 51.9557 47.3224 51.9379 47.3242C51.9024 47.3279 51.8526 47.3333 51.7906 47.3409C51.6668 47.3561 51.493 47.38 51.285 47.4158C50.8724 47.4867 50.3084 47.607 49.7257 47.8052C49.1516 48.0006 48.5046 48.2896 47.9656 48.724C47.4163 49.1666 46.9294 49.8044 46.8255 50.6702L48.8113 50.9084ZM52.0851 48.3146C52.0851 49.3146 52.0852 49.3146 52.0852 49.3146C52.0853 49.3146 52.0854 49.3146 52.0855 49.3146C52.0857 49.3146 52.0859 49.3146 52.0862 49.3146C52.0869 49.3146 52.0877 49.3146 52.0888 49.3146C52.0909 49.3146 52.094 49.3146 52.0979 49.3146C52.1058 49.3146 52.1172 49.3146 52.1319 49.3145C52.1612 49.3144 52.2038 49.3142 52.2576 49.3137C52.3651 49.3128 52.518 49.311 52.7013 49.3074C53.0666 49.3003 53.558 49.2859 54.053 49.2569C54.5394 49.2284 55.0636 49.1838 55.4804 49.1105C55.68 49.0754 55.9139 49.024 56.1195 48.9396C56.2187 48.8988 56.3746 48.8254 56.5215 48.6962C56.672 48.5638 56.9038 48.2864 56.9038 47.8666H54.9038C54.9038 47.5028 55.1057 47.2779 55.2003 47.1947C55.2503 47.1507 55.2931 47.1243 55.3161 47.1113C55.3402 47.0976 55.3563 47.0909 55.3598 47.0895C55.3651 47.0873 55.3499 47.0937 55.305 47.1052C55.2625 47.116 55.2058 47.1281 55.1338 47.1408C54.8346 47.1934 54.4041 47.2329 53.9359 47.2603C53.4762 47.2873 53.0129 47.301 52.6622 47.3078C52.4875 47.3112 52.3421 47.3129 52.2408 47.3138C52.1902 47.3142 52.1506 47.3144 52.1241 47.3145C52.1108 47.3146 52.1007 47.3146 52.0942 47.3146C52.0909 47.3146 52.0884 47.3146 52.0869 47.3146C52.0862 47.3146 52.0856 47.3146 52.0853 47.3146C52.0852 47.3146 52.0851 47.3146 52.085 47.3146C52.085 47.3146 52.085 47.3146 52.085 47.3146C52.085 47.3146 52.0851 47.3146 52.0851 48.3146ZM56.9038 47.8666C56.9038 47.4422 56.6567 47.1799 56.5574 47.0882C56.4414 46.9812 56.3222 46.9163 56.2509 46.8811C56.1008 46.8068 55.935 46.755 55.7931 46.7172C55.4954 46.638 55.1082 46.5709 54.6768 46.5209C53.8082 46.4203 52.6548 46.3771 51.4773 46.4841C50.3129 46.5898 49.044 46.8492 47.9986 47.4076C46.9282 47.9794 46.0194 48.9131 45.825 50.3337L47.8065 50.6049C47.8895 49.9988 48.2554 49.5379 48.9409 49.1717C49.6516 48.7921 50.62 48.5701 51.6582 48.4759C52.6833 48.3828 53.698 48.4209 54.4467 48.5077C54.824 48.5514 55.1078 48.6044 55.2789 48.65C55.3714 48.6746 55.3895 48.6862 55.3646 48.6739C55.356 48.6697 55.2848 48.6353 55.2012 48.5581C55.1341 48.4963 54.9038 48.2631 54.9038 47.8666H56.9038ZM45.8242 50.34C45.5575 52.3839 46.8479 53.5267 47.7596 54.3425C48.7453 55.2246 49.4123 55.833 49.4874 56.9372L51.4828 56.8014C51.3446 54.7696 49.9849 53.65 49.0933 52.8521C48.1276 51.9879 47.69 51.4987 47.8074 50.5986L45.8242 50.34ZM49.4874 56.9372C49.5757 58.2348 49.1485 59.1302 48.7957 59.983C48.6473 60.3418 48.402 60.923 48.4685 61.509C48.5557 62.2782 49.0926 62.7456 49.7061 63.0265L50.5387 61.2081C50.2669 61.0836 50.4331 61.0844 50.4557 61.2836C50.4575 61.2996 50.4536 61.2075 50.6438 60.7476C50.9683 59.9631 51.6078 58.6398 51.4828 56.8014L49.4874 56.9372ZM49.7155 63.0308C51.2288 63.7049 52.6701 63.4049 53.8421 63.088C55.106 62.7462 56.0078 62.421 56.9571 62.5151L57.1544 60.5248C55.7357 60.3842 54.3442 60.8804 53.3201 61.1573C52.2041 61.459 51.3627 61.5751 50.5293 61.2038L49.7155 63.0308ZM56.9571 62.5151C57.894 62.6079 58.8822 63.1285 59.952 63.748C60.4519 64.0375 60.9897 64.359 61.482 64.596C61.9566 64.8245 62.5446 65.0553 63.1452 65.0368L63.0837 63.0378C62.9909 63.0406 62.7709 62.9968 62.3495 62.7939C61.9458 62.5996 61.4996 62.3331 60.9542 62.0173C59.9333 61.4261 58.5856 60.6667 57.1544 60.5248L56.9571 62.5151ZM63.1144 65.0373C63.967 65.0373 64.6325 64.6064 65.1382 64.1648C65.6265 63.7384 66.1277 63.1492 66.5696 62.6698C67.5161 61.6431 68.517 60.7369 70.0492 60.5032L69.7476 58.5261C67.5039 58.8683 66.1047 60.2235 65.0992 61.3141C64.5652 61.8934 64.2023 62.3269 63.8227 62.6584C63.4603 62.9748 63.2538 63.0373 63.1144 63.0373V65.0373ZM70.0915 60.4958C71.0158 60.3139 71.974 60.4336 72.8251 60.8372L73.6821 59.0301C72.4439 58.4429 71.0499 58.2688 69.7053 58.5335L70.0915 60.4958ZM72.8251 60.8372C73.6762 61.2409 74.3752 61.9071 74.8191 62.7379L76.5831 61.7953C75.9372 60.5867 74.9203 59.6174 73.6821 59.0301L72.8251 60.8372ZM74.7629 62.6127C75.1835 63.7532 75.1937 65.0045 74.7917 66.1517L76.6792 66.8131C77.235 65.2272 77.2208 63.4972 76.6393 61.9206L74.7629 62.6127ZM74.7917 66.1517C74.3897 67.2989 73.6006 68.2702 72.5601 68.8986L73.5941 70.6106C75.0326 69.7418 76.1234 68.3991 76.6792 66.8131L74.7917 66.1517ZM72.5099 68.931C70.5259 70.2974 68.2093 71.1018 65.8054 71.2591L65.936 73.2548C68.6998 73.074 71.3632 72.1492 73.6443 70.5782L72.5099 68.931ZM65.8054 71.2591C63.4016 71.4163 60.9999 70.9205 58.8548 69.8242L57.9447 71.6051C60.4109 72.8655 63.1722 73.4356 65.936 73.2548L65.8054 71.2591ZM57.4211 70.9199C57.6826 72.1664 57.3372 72.7088 57.0493 72.9746C56.6883 73.308 56.1632 73.4345 55.8562 73.4491L55.9513 75.4468C56.5403 75.4188 57.5832 75.204 58.4062 74.444C59.3023 73.6165 59.757 72.3135 59.3785 70.5093L57.4211 70.9199ZM55.8378 73.4501C55.0687 73.501 54.4196 73.0342 53.5869 72.0751C53.3879 71.8459 53.1935 71.6072 52.9879 71.3558C52.7863 71.1093 52.5738 70.8503 52.3561 70.6047C51.9312 70.1252 51.4181 69.6155 50.7955 69.2932L49.876 71.0694C50.16 71.2164 50.4737 71.496 50.8594 71.9312C51.047 72.143 51.2358 72.3726 51.4396 72.6218C51.6394 72.8661 51.8543 73.1301 52.0766 73.3862C52.9293 74.3684 54.1575 75.5656 55.9697 75.4458L55.8378 73.4501ZM50.7904 69.2906C48.2241 67.9805 45.3215 67.4767 42.4638 67.8455L42.7197 69.8291C45.1776 69.5119 47.6739 69.9451 49.8811 71.0719L50.7904 69.2906ZM42.3748 67.8611C42.0499 67.9333 41.8618 67.8602 41.7553 67.7854C41.6334 67.6998 41.5351 67.5519 41.5008 67.364C41.4669 67.179 41.5012 66.9856 41.6084 66.823C41.7094 66.67 41.919 66.4788 42.3537 66.3755L41.8912 64.4297C41.0245 64.6357 40.3541 65.0926 39.9391 65.7215C39.5304 66.341 39.4126 67.0636 39.5334 67.7239C39.6537 68.3813 40.0167 69.0082 40.6055 69.4218C41.2098 69.8464 41.9817 69.9973 42.8087 69.8135L42.3748 67.8611ZM42.2672 66.3921C45.1035 65.977 47.9992 66.4075 50.592 67.6298L51.4448 65.8208C48.4962 64.4307 45.2031 63.9411 41.9776 64.4132L42.2672 66.3921ZM50.6018 67.6344C51.7247 68.1491 52.7208 68.9043 53.5196 69.8466L55.0452 68.5533C54.0569 67.3875 52.8245 66.453 51.4351 65.8162L50.6018 67.6344ZM55.2822 69.1772C55.2715 68.7108 55.4185 68.2545 55.6994 67.8822L54.1027 66.6778C53.5507 67.4096 53.2618 68.3063 53.2827 69.2228L55.2822 69.1772ZM55.7171 67.858C56.0385 67.4043 56.4103 66.9884 56.8253 66.6183L55.4942 65.1256C54.9665 65.5961 54.4938 66.125 54.0851 66.7019L55.7171 67.858ZM56.4116 66.8397L59.5263 66.0291L59.0225 64.0935L55.9079 64.9042L56.4116 66.8397ZM58.6716 65.8592L62.5116 68.7605L63.7173 67.1648L59.8773 64.2634L58.6716 65.8592ZM63.0347 68.9594L65.168 69.1301L65.3275 67.1365L63.1942 66.9658L63.0347 68.9594ZM65.2478 68.1333C65.2478 67.1333 65.2478 67.1333 65.2477 67.1333C65.2477 67.1333 65.2477 67.1333 65.2477 67.1333C65.2476 67.1333 65.2475 67.1333 65.2473 67.1333C65.2469 67.1333 65.2464 67.1333 65.2457 67.1333C65.2442 67.1333 65.242 67.1333 65.239 67.1333C65.2331 67.1333 65.2244 67.1333 65.2131 67.1333C65.1904 67.1332 65.1575 67.1332 65.1168 67.1331C65.0352 67.1329 64.9227 67.1325 64.7984 67.1316C64.5455 67.13 64.2586 67.1267 64.0825 67.1206C64.0389 67.119 64.0093 67.1176 63.9921 67.1165C63.9833 67.1159 63.9837 67.1158 63.9905 67.1165C63.9941 67.1169 64.003 67.1179 64.0157 67.1197C64.0262 67.1213 64.0521 67.1252 64.0858 67.133C64.1009 67.1365 64.1995 67.158 64.3138 67.2172C64.3641 67.2432 64.5114 67.323 64.6409 67.4888C64.7124 67.5804 64.7916 67.7154 64.8299 67.893C64.8698 68.0779 64.8549 68.2626 64.7983 68.4275C64.6965 68.7245 64.4908 68.8769 64.4238 68.9234C64.3372 68.9836 64.2606 69.016 64.2255 69.03C64.152 69.0593 64.0927 69.0722 64.077 69.0756C64.0174 69.0886 63.9821 69.0892 64.0348 69.0848C64.1834 69.0725 64.5988 69.0531 65.4706 69.0262L65.4089 67.0271C64.5527 67.0535 64.0802 67.0741 63.8687 67.0918C63.8314 67.0949 63.7391 67.1023 63.6506 67.1216C63.6277 67.1266 63.5629 67.1411 63.4857 67.1719C63.4487 67.1866 63.3706 67.2198 63.283 67.2807C63.2149 67.3279 63.0085 67.4811 62.9065 67.7788C62.775 68.1621 62.9009 68.5101 63.0644 68.7196C63.1944 68.8861 63.3427 68.9666 63.3943 68.9933C63.5112 69.0538 63.614 69.0767 63.6347 69.0815C63.7387 69.1056 63.8443 69.1111 63.8608 69.1122C63.9077 69.1152 63.9606 69.1175 64.0131 69.1194C64.2209 69.1266 64.534 69.1299 64.7851 69.1316C64.9128 69.1325 65.0283 69.1329 65.1117 69.1331C65.1535 69.1332 65.1873 69.1332 65.2108 69.1333C65.2225 69.1333 65.2317 69.1333 65.238 69.1333C65.2411 69.1333 65.2435 69.1333 65.2451 69.1333C65.246 69.1333 65.2466 69.1333 65.247 69.1333C65.2472 69.1333 65.2474 69.1333 65.2475 69.1333C65.2476 69.1333 65.2477 69.1333 65.2477 69.1333C65.2477 69.1333 65.2478 69.1333 65.2478 68.1333ZM65.4116 69.0262C67.8271 69.0942 70.1783 68.2423 71.9896 66.6429L70.6659 65.1437C69.2345 66.4076 67.3766 67.0807 65.4679 67.027L65.4116 69.0262ZM71.9943 66.6388C72.4134 66.264 72.6824 65.7499 72.7513 65.1919L70.7664 64.9468C70.7568 65.0243 70.7194 65.0958 70.6612 65.1478L71.9943 66.6388ZM72.7513 65.1919C72.8202 64.6338 72.6843 64.0698 72.3689 63.6043L70.7133 64.7263C70.7571 64.7909 70.776 64.8693 70.7664 64.9468L72.7513 65.1919ZM72.3093 63.5251C72.0466 63.2098 71.6317 62.8695 71.0146 62.824C70.452 62.7825 69.9124 63.004 69.4111 63.3173L70.4711 65.0133C70.638 64.909 70.7523 64.8583 70.8223 64.835C70.89 64.8124 70.8994 64.8209 70.8676 64.8186C70.8292 64.8158 70.7875 64.8015 70.7573 64.7832C70.7345 64.7694 70.7404 64.7665 70.7729 64.8055L72.3093 63.5251ZM69.4246 63.309C68.963 63.5874 68.5224 64.0167 68.1399 64.4212C67.7737 64.8083 67.3121 65.3386 66.961 65.719C66.5687 66.1439 66.2115 66.4993 65.8817 66.7488C65.5375 67.0093 65.3361 67.0666 65.2494 67.0701L65.3315 69.0685C66.0234 69.04 66.6247 68.6946 67.0884 68.3438C67.5667 67.9819 68.0228 67.5173 68.4306 67.0756C68.8794 66.5893 69.2044 66.2063 69.593 65.7954C69.9651 65.4019 70.2471 65.1485 70.4576 65.0216L69.4246 63.309ZM65.2904 67.0693C65.2925 67.0693 65.1753 67.0586 64.8659 66.991C64.5913 66.9311 64.2384 66.8435 63.8244 66.7354C62.9933 66.5183 61.9745 66.234 60.9222 65.9493C59.8816 65.6678 58.8162 65.3883 57.9337 65.1937C57.4934 65.0967 57.0818 65.017 56.7325 64.9694C56.4256 64.9276 56.0326 64.8892 55.7042 64.9561L56.1034 66.9158C56.0629 66.9241 56.1486 66.9083 56.4626 66.9511C56.7344 66.9881 57.0861 67.0549 57.5031 67.1468C58.3353 67.3303 59.3606 67.5988 60.4 67.8799C61.4276 68.1579 62.4782 68.4509 63.3191 68.6705C63.7411 68.7807 64.1249 68.8763 64.4393 68.945C64.7189 69.006 65.043 69.0693 65.2904 69.0693V67.0693ZM55.6697 64.9637C54.4146 65.2659 53.3787 65.6101 52.2467 65.7667C51.1754 65.915 50.168 65.8623 49.1578 65.392L48.3137 67.2052C49.7781 67.8869 51.2027 67.9303 52.5208 67.7479C53.7781 67.5739 55.0889 67.1607 56.1378 66.9082L55.6697 64.9637ZM49.0827 65.3607C48.2996 65.0711 47.607 64.5796 47.0749 63.9362L45.5336 65.2107C46.2903 66.1257 47.2752 66.8246 48.3888 67.2365L49.0827 65.3607ZM47.0749 63.9362C46.5429 63.2928 46.1902 62.5202 46.0528 61.6966L44.0801 62.0259C44.2756 63.1971 44.777 64.2957 45.5336 65.2107L47.0749 63.9362ZM46.0638 61.7892C46.0175 61.1487 46.2192 60.5118 46.502 59.8022C46.6305 59.4799 46.7984 59.0877 46.9138 58.7465C47.0289 58.4059 47.1478 57.9659 47.108 57.508L45.1155 57.6813C45.1184 57.7141 45.1119 57.8314 45.0191 58.1061C44.9264 58.3802 44.8037 58.6614 44.6441 59.0618C44.3509 59.7975 43.9873 60.8032 44.069 61.9334L46.0638 61.7892ZM47.108 57.508C47.071 57.0824 46.8338 56.7422 46.696 56.5591C46.5331 56.3425 46.3231 56.114 46.1235 55.9003C45.7021 55.4493 45.2263 54.9571 44.7829 54.3509C43.9199 53.1711 43.2324 51.6306 43.6966 49.5098L41.7429 49.0821C41.1191 51.932 42.0849 54.0501 43.1686 55.5317C43.6985 56.2561 44.2694 56.8453 44.662 57.2656C44.8694 57.4876 45.0082 57.6423 45.0977 57.7613C45.2123 57.9137 45.1312 57.8615 45.1155 57.6813L47.108 57.508ZM43.6966 49.5098C44.143 47.4703 45.779 46.066 47.8169 45.1876C49.857 44.3083 52.079 44.0596 53.2793 44.1889L53.4935 42.2004C51.9205 42.031 49.3532 42.3476 47.0253 43.351C44.6951 44.3553 42.3845 46.1509 41.7429 49.0821L43.6966 49.5098ZM53.2793 44.1889C54.6108 44.3323 56.1766 44.6611 57.3909 45.2575C58.6206 45.8616 59.2446 46.6032 59.2778 47.4983L61.2764 47.4243C61.2029 45.4394 59.7682 44.197 58.2726 43.4624C56.7616 42.7202 54.9354 42.3557 53.4935 42.2004L53.2793 44.1889ZM59.2778 47.4983C59.3177 48.5752 58.8458 49.3179 58.2994 49.8621C58.0211 50.1393 57.731 50.3562 57.4805 50.5344C57.3698 50.6131 57.2268 50.712 57.1275 50.7877C57.0759 50.827 57.0033 50.8843 56.9339 50.9525C56.8945 50.9911 56.7174 51.1607 56.6333 51.4339L58.5449 52.022C58.5025 52.1598 58.4393 52.2527 58.4089 52.2938C58.3751 52.3395 58.3462 52.3687 58.3351 52.3795C58.3148 52.3995 58.309 52.4018 58.3395 52.3786C58.4042 52.3293 58.486 52.2735 58.6397 52.1642C58.9178 51.9664 59.3144 51.6739 59.7108 51.2791C60.5137 50.4794 61.3432 49.2274 61.2764 47.4243L59.2778 47.4983ZM56.6333 51.4339C56.5323 51.762 56.6046 52.046 56.6705 52.2121C56.7334 52.3706 56.82 52.4973 56.8733 52.5711C56.9306 52.6507 56.9961 52.7315 57.0461 52.7935C57.1017 52.8622 57.1524 52.9247 57.2052 52.9938C57.4044 53.2544 57.6144 53.5851 57.7215 54.075L59.6753 53.6476C59.4838 52.7722 59.0965 52.1748 58.7943 51.7794C58.7218 51.6846 58.6532 51.6001 58.6015 51.5362C58.5444 51.4655 58.5149 51.4283 58.4956 51.4015C58.4721 51.369 58.5004 51.4012 58.5295 51.4744C58.5616 51.5553 58.6245 51.7632 58.5449 52.022L56.6333 51.4339ZM57.7015 53.9394C57.7669 54.7745 57.5865 55.6105 57.1824 56.3443L58.9344 57.309C59.5268 56.2332 59.7913 55.0075 59.6954 53.7832L57.7015 53.9394ZM57.9402 57.8196C58.4896 57.885 59.031 58.006 59.5559 58.1808L60.1876 56.2832C59.5342 56.0656 58.8604 55.915 58.1766 55.8336L57.9402 57.8196ZM59.496 58.1587C59.7828 58.275 60.0756 58.4614 60.3436 58.6477C60.4522 58.7232 60.6104 58.8371 60.7053 58.9005C60.7548 58.9336 60.8366 58.987 60.9265 59.0315C60.9691 59.0526 61.0559 59.0933 61.1681 59.1208C61.2455 59.1397 61.546 59.2089 61.8763 59.0437L60.9819 57.2549C61.3015 57.0951 61.5867 57.1642 61.6443 57.1783C61.7367 57.201 61.7994 57.232 61.8136 57.239C61.8467 57.2554 61.8551 57.2634 61.8162 57.2374C61.7344 57.1828 61.6566 57.1247 61.4853 57.0056C61.1932 56.8025 60.75 56.509 60.2475 56.3052L59.496 58.1587ZM62.3251 57.7054C61.4696 55.9786 60.8231 54.1559 60.3993 52.276L58.4482 52.7159C58.907 54.7509 59.6069 56.724 60.533 58.5932L62.3251 57.7054ZM60.4178 52.3868C60.316 51.4599 60.5437 50.5268 61.0609 49.751L59.3968 48.6416C58.6191 49.8082 58.2767 51.2113 58.4297 52.6051L60.4178 52.3868ZM61.0609 49.751C61.5782 48.9751 62.3519 48.4061 63.2467 48.1435L62.6835 46.2244C61.3381 46.6192 60.1746 47.4749 59.3968 48.6416L61.0609 49.751ZM63.2497 48.1426C64.3741 47.8088 65.623 47.9222 66.6515 48.301C67.1619 48.489 67.5883 48.7318 67.8995 48.9866C68.2188 49.2481 68.3656 49.4791 68.4151 49.6296L70.3151 49.005C70.1085 48.3768 69.6687 47.8505 69.1667 47.4393C68.6565 47.0215 68.027 46.6763 67.3427 46.4243C65.9818 45.923 64.2867 45.7485 62.6805 46.2253L63.2497 48.1426ZM68.4151 49.6296C68.5281 49.9732 68.6115 50.3174 68.7001 50.6934C68.7858 51.0571 68.8794 51.4641 69.0065 51.865C69.272 52.7019 69.6954 53.5541 70.5815 54.3345L71.9033 52.8335C71.3601 52.3552 71.1009 51.8527 70.913 51.2603C70.8134 50.9465 70.7377 50.6202 70.6467 50.2345C70.5587 49.8612 70.4581 49.44 70.3151 49.005L68.4151 49.6296ZM70.5977 54.3484C70.9542 54.6491 71.3677 54.875 71.8134 55.0125L72.4031 53.1014C72.2139 53.0431 72.0385 52.9472 71.8872 52.8196L70.5977 54.3484ZM71.8134 55.0125C72.2591 55.15 72.7279 55.1964 73.1919 55.1489L72.9882 53.1593C72.7912 53.1795 72.5923 53.1598 72.4031 53.1014L71.8134 55.0125ZM73.1919 55.1489C73.6559 55.1014 74.1056 54.9609 74.5142 54.7359L73.5494 52.984C73.3759 53.0795 73.1851 53.1391 72.9882 53.1593L73.1919 55.1489ZM74.5142 54.7359C74.9228 54.5109 75.2819 54.2059 75.57 53.8391L73.9975 52.6034C73.8752 52.7591 73.7228 52.8885 73.5494 52.984L74.5142 54.7359ZM75.6117 53.7821C75.817 53.4791 75.9533 53.0922 76.0403 52.7574C76.132 52.4045 76.1943 52.0092 76.2047 51.6387C76.2136 51.321 76.1933 50.8226 75.9492 50.4121C75.8067 50.1724 75.5488 49.9029 75.142 49.8061C74.7548 49.7139 74.4127 49.822 74.1785 49.9419L75.0903 51.722C75.0748 51.7299 74.9154 51.808 74.6787 51.7517C74.4224 51.6906 74.2828 51.5228 74.2303 51.4344C74.1861 51.3602 74.1886 51.3237 74.1965 51.3733C74.2029 51.4135 74.2083 51.4831 74.2055 51.5826C74.1999 51.7827 74.1635 52.0274 74.1045 52.2545C74.0756 52.366 74.0439 52.4626 74.0133 52.5391C73.9982 52.5769 73.9846 52.6066 73.9735 52.6286C73.9621 52.6511 73.9557 52.6607 73.9558 52.6604L75.6117 53.7821ZM74.1703 49.9462C73.3386 50.382 72.3755 50.4964 71.4649 50.2675L70.9773 52.2071C72.3645 52.5559 73.8316 52.3816 75.0986 51.7177L74.1703 49.9462ZM71.4756 50.2702C70.7477 50.0787 70.2093 49.3459 69.6074 48.1339C69.3465 47.6084 69.0456 46.9355 68.753 46.4169C68.4651 45.9066 68.0521 45.2851 67.4174 44.9536L66.4914 46.7263C66.5714 46.7681 66.745 46.928 67.0111 47.3997C67.2726 47.8631 67.4931 48.3729 67.8161 49.0234C68.3822 50.1633 69.2625 51.7559 70.9666 52.2044L71.4756 50.2702ZM67.4174 44.9536C66.8794 44.6725 66.1111 44.5371 65.3951 44.4543C64.6366 44.3665 63.7698 44.3221 62.9377 44.2939C62.1489 44.2671 61.233 44.2512 60.6112 44.2315C59.8977 44.2088 59.4548 44.1777 59.278 44.1384L58.8442 46.0908C59.2434 46.1795 59.8965 46.2098 60.5477 46.2305C61.2905 46.254 62.0079 46.2635 62.8698 46.2927C63.6883 46.3205 64.4896 46.3628 65.1651 46.441C65.8831 46.5241 66.3148 46.6341 66.4914 46.7263L67.4174 44.9536ZM59.278 44.1384C58.748 44.0207 56.85 43.5416 54.8319 42.53C52.7929 41.5079 50.7807 40.0169 49.812 37.9491L48.0009 38.7975C49.2508 41.4657 51.7399 43.2173 53.9356 44.3179C56.1522 45.429 58.2222 45.9526 58.8442 46.0908L59.278 44.1384ZM49.7851 37.8958C48.4629 35.4629 47.7712 32.7376 47.7731 29.9686L45.7731 29.9673C45.771 33.0703 46.5462 36.1244 48.0278 38.8508L49.7851 37.8958ZM47.7608 29.8114C47.76 29.8066 47.7627 29.8487 47.7364 29.8945C47.7183 29.9263 47.7153 29.9083 47.7874 29.8673C47.9476 29.7762 48.2683 29.6932 48.6838 29.7036C49.0921 29.714 49.4567 29.8116 49.6845 29.9419C49.7936 30.0044 49.8419 30.0572 49.8591 30.0816C49.8699 30.0968 49.8691 30.0989 49.8692 30.1079L51.869 30.0841C51.858 29.1623 51.272 28.546 50.6777 28.206C50.0921 27.871 49.3821 27.7206 48.7343 27.7043C48.0939 27.6881 47.3773 27.7997 46.7988 28.1287C46.5016 28.2977 46.2039 28.546 46.0007 28.9009C45.7895 29.2699 45.7169 29.692 45.7854 30.1245L47.7608 29.8114Z" fill="#212121" mask="url(#path-2-inside-1_2079_9787)"/>
</g>
<path d="M49.2065 96.3636C49.1502 95.7969 48.8999 95.3461 48.4558 95.0114C48.0117 94.6766 47.4532 94.5092 46.7804 94.5092C46.3064 94.5092 45.8888 94.5904 45.5275 94.7528C45.1696 94.9152 44.8878 95.1406 44.6824 95.429C44.4802 95.714 44.3791 96.0388 44.3791 96.4034C44.3791 96.6719 44.4371 96.9072 44.5531 97.1094C44.6691 97.3116 44.8249 97.4856 45.0204 97.6314C45.2193 97.7739 45.438 97.8965 45.6767 97.9993C45.9186 98.102 46.1622 98.1882 46.4075 98.2578L47.4814 98.5661C47.8062 98.6555 48.131 98.7699 48.4558 98.9091C48.7806 99.0483 49.0772 99.224 49.3457 99.4361C49.6175 99.6449 49.8346 99.9018 49.997 100.207C50.1627 100.508 50.2456 100.871 50.2456 101.295C50.2456 101.839 50.1047 102.328 49.823 102.762C49.5413 103.196 49.1369 103.541 48.6099 103.796C48.0829 104.048 47.4515 104.174 46.7157 104.174C46.023 104.174 45.4215 104.06 44.911 103.831C44.4006 103.599 43.9996 103.279 43.7079 102.871C43.4163 102.464 43.2522 101.991 43.2157 101.455H44.1703C44.2034 101.856 44.336 102.195 44.568 102.474C44.8 102.752 45.1016 102.964 45.4728 103.11C45.8441 103.253 46.2583 103.324 46.7157 103.324C47.2228 103.324 47.6736 103.239 48.068 103.07C48.4657 102.898 48.7773 102.659 49.0027 102.354C49.2314 102.046 49.3457 101.688 49.3457 101.281C49.3457 100.936 49.2562 100.647 49.0772 100.415C48.8983 100.18 48.648 99.983 48.3265 99.8239C48.0083 99.6648 47.6388 99.5239 47.2179 99.4013L45.9998 99.0433C45.2011 98.8047 44.5813 98.4749 44.1405 98.054C43.6996 97.633 43.4792 97.0961 43.4792 96.4432C43.4792 95.8963 43.6251 95.4157 43.9167 95.0014C44.2117 94.5838 44.6094 94.259 45.1099 94.027C45.6137 93.7917 46.1788 93.674 46.8052 93.674C47.4383 93.674 47.9984 93.79 48.4856 94.022C48.9728 94.254 49.359 94.5739 49.644 94.9815C49.9324 95.3859 50.0865 95.8466 50.1064 96.3636H49.2065ZM52.3688 104V96.3636H53.2289V97.5369H53.3085C53.4609 97.1425 53.7145 96.8326 54.0691 96.6072C54.4271 96.3786 54.8563 96.2642 55.3568 96.2642C55.8837 96.2642 56.3163 96.3885 56.6543 96.6371C56.9957 96.8823 57.2509 97.2204 57.42 97.6513H57.4846C57.6569 97.227 57.937 96.8906 58.3248 96.642C58.7159 96.3902 59.1899 96.2642 59.7467 96.2642C60.456 96.2642 61.0161 96.4879 61.4271 96.9354C61.8381 97.3795 62.0435 98.0291 62.0435 98.8842V104H61.1586V98.8842C61.1586 98.281 61.0045 97.8286 60.6962 97.527C60.388 97.2254 59.982 97.0746 59.4782 97.0746C58.8949 97.0746 58.4458 97.2536 58.1309 97.6115C57.816 97.9695 57.6586 98.4235 57.6586 98.9737V104H56.7538V98.8047C56.7538 98.2876 56.6096 97.87 56.3212 97.5518C56.0329 97.2337 55.6269 97.0746 55.1032 97.0746C54.7519 97.0746 54.4354 97.1607 54.1536 97.3331C53.8752 97.5054 53.6548 97.7457 53.4924 98.054C53.3333 98.3589 53.2538 98.7102 53.2538 99.108V104H52.3688ZM66.5892 104.174C66.1285 104.174 65.7076 104.085 65.3264 103.906C64.9453 103.723 64.642 103.461 64.4166 103.12C64.1913 102.775 64.0786 102.358 64.0786 101.867C64.0786 101.489 64.1498 101.171 64.2923 100.913C64.4349 100.654 64.637 100.442 64.8989 100.276C65.1607 100.111 65.4706 99.9796 65.8286 99.8835C66.1865 99.7874 66.5809 99.7128 67.0118 99.6598C67.4394 99.6068 67.8006 99.5604 68.0956 99.5206C68.3939 99.4808 68.6209 99.4179 68.7767 99.3317C68.9325 99.2455 69.0104 99.1063 69.0104 98.9141V98.7351C69.0104 98.2147 68.8546 97.8054 68.5431 97.5071C68.2348 97.2055 67.7907 97.0547 67.2107 97.0547C66.6605 97.0547 66.2114 97.1757 65.8634 97.4176C65.5187 97.6596 65.2767 97.9446 65.1375 98.2727L64.2973 97.9695C64.4697 97.5518 64.7083 97.2187 65.0132 96.9702C65.3182 96.7183 65.6595 96.5376 66.0374 96.4283C66.4152 96.3156 66.798 96.2592 67.1858 96.2592C67.4775 96.2592 67.7807 96.2973 68.0956 96.3736C68.4138 96.4498 68.7088 96.5824 68.9806 96.7713C69.2523 96.9569 69.4727 97.2171 69.6418 97.5518C69.8108 97.8833 69.8953 98.3042 69.8953 98.8146V104H69.0104V102.792H68.9557C68.8496 103.017 68.6922 103.236 68.4834 103.448C68.2746 103.66 68.0128 103.834 67.6979 103.97C67.383 104.106 67.0135 104.174 66.5892 104.174ZM66.7085 103.364C67.1792 103.364 67.5869 103.259 67.9316 103.05C68.2762 102.842 68.5414 102.565 68.727 102.22C68.9159 101.872 69.0104 101.489 69.0104 101.072V99.968C68.9441 100.031 68.8331 100.087 68.6773 100.137C68.5248 100.187 68.3475 100.232 68.1453 100.271C67.9465 100.308 67.7476 100.339 67.5487 100.366C67.3499 100.392 67.1709 100.415 67.0118 100.435C66.5809 100.488 66.213 100.571 65.9081 100.684C65.6032 100.797 65.3695 100.952 65.2071 101.151C65.0447 101.347 64.9635 101.599 64.9635 101.907C64.9635 102.371 65.1292 102.731 65.4607 102.986C65.7921 103.238 66.2081 103.364 66.7085 103.364ZM73.2043 93.8182V104H72.3194V93.8182H73.2043ZM76.5009 93.8182V104H75.6159V93.8182H76.5009ZM33.7559 111.818V122H32.8262V111.818H33.7559ZM37.2339 117.227V122H36.3489V114.364H37.209V115.562H37.2886C37.4676 115.171 37.746 114.857 38.1238 114.622C38.505 114.384 38.9756 114.264 39.5357 114.264C40.0495 114.264 40.5002 114.372 40.888 114.587C41.2791 114.799 41.5824 115.113 41.7978 115.527C42.0166 115.941 42.1259 116.45 42.1259 117.053V122H41.241V117.108C41.241 116.482 41.0653 115.986 40.714 115.621C40.366 115.257 39.8987 115.075 39.312 115.075C38.911 115.075 38.5547 115.161 38.2431 115.333C37.9316 115.505 37.6846 115.754 37.5024 116.079C37.3234 116.4 37.2339 116.783 37.2339 117.227ZM47.5342 114.364V115.134H43.89V114.364H47.5342ZM45.0285 112.534H45.9184V120.006C45.9184 120.325 45.9731 120.575 46.0825 120.757C46.1919 120.936 46.3344 121.064 46.51 121.14C46.6857 121.213 46.873 121.249 47.0718 121.249C47.1878 121.249 47.2873 121.243 47.3701 121.229C47.453 121.213 47.5259 121.196 47.5889 121.18L47.7778 121.98C47.6916 122.013 47.5856 122.043 47.4596 122.07C47.3337 122.099 47.1779 122.114 46.9923 122.114C46.6675 122.114 46.3543 122.043 46.0526 121.901C45.7544 121.758 45.5091 121.546 45.3169 121.264C45.1246 120.982 45.0285 120.633 45.0285 120.215V112.534ZM52.6193 122.159C51.9067 122.159 51.2902 121.993 50.7698 121.662C50.2495 121.327 49.8468 120.865 49.5617 120.275C49.28 119.682 49.1392 118.999 49.1392 118.227C49.1392 117.458 49.28 116.775 49.5617 116.178C49.8468 115.578 50.2395 115.109 50.74 114.771C51.2438 114.43 51.8255 114.259 52.485 114.259C52.8993 114.259 53.2987 114.335 53.6832 114.488C54.0677 114.637 54.4124 114.867 54.7173 115.179C55.0255 115.487 55.2691 115.877 55.4481 116.347C55.6271 116.815 55.7166 117.368 55.7166 118.008V118.445H49.7507V117.665H54.8117C54.8117 117.174 54.7123 116.733 54.5135 116.342C54.3179 115.948 54.0445 115.636 53.6931 115.408C53.3451 115.179 52.9424 115.065 52.485 115.065C52.0011 115.065 51.5752 115.194 51.2073 115.452C50.8394 115.711 50.5511 116.052 50.3423 116.477C50.1368 116.901 50.0324 117.365 50.0291 117.869V118.336C50.0291 118.942 50.1335 119.473 50.3423 119.927C50.5544 120.378 50.8544 120.727 51.2421 120.976C51.6299 121.224 52.089 121.349 52.6193 121.349C52.9805 121.349 53.2971 121.292 53.5688 121.18C53.8439 121.067 54.0743 120.916 54.2599 120.727C54.4488 120.535 54.5913 120.325 54.6875 120.096L55.5277 120.369C55.4117 120.691 55.2211 120.987 54.9559 121.259C54.6941 121.531 54.366 121.75 53.9715 121.915C53.5804 122.078 53.1297 122.159 52.6193 122.159ZM62.8674 116.039L62.057 116.268C61.9775 116.039 61.8648 115.832 61.7189 115.646C61.5731 115.461 61.3825 115.313 61.1472 115.204C60.9152 115.094 60.6268 115.04 60.2821 115.04C59.7651 115.04 59.3409 115.162 59.0094 115.408C58.678 115.653 58.5123 115.969 58.5123 116.357C58.5123 116.685 58.6249 116.952 58.8503 117.158C59.079 117.36 59.4303 117.521 59.9043 117.64L61.0577 117.923C61.6974 118.079 62.1763 118.326 62.4945 118.664C62.816 119.002 62.9767 119.426 62.9767 119.937C62.9767 120.368 62.8574 120.75 62.6188 121.085C62.3801 121.42 62.0471 121.683 61.6195 121.876C61.1953 122.065 60.7031 122.159 60.1429 122.159C59.3972 122.159 58.7824 121.992 58.2985 121.657C57.8146 121.319 57.5047 120.832 57.3688 120.195L58.2189 119.987C58.3283 120.441 58.5421 120.784 58.8603 121.016C59.1818 121.248 59.6043 121.364 60.128 121.364C60.7147 121.364 61.1837 121.233 61.535 120.971C61.8863 120.706 62.062 120.374 62.062 119.977C62.062 119.668 61.9592 119.41 61.7537 119.201C61.5482 118.989 61.2367 118.833 60.8191 118.734L59.5712 118.435C58.9083 118.276 58.4178 118.024 58.0996 117.68C57.7814 117.335 57.6223 116.907 57.6223 116.397C57.6223 115.976 57.7367 115.607 57.9654 115.288C58.1941 114.967 58.5089 114.715 58.91 114.533C59.311 114.35 59.7684 114.259 60.2821 114.259C60.9815 114.259 61.54 114.418 61.9576 114.737C62.3785 115.051 62.6818 115.486 62.8674 116.039ZM67.9922 114.364V115.134H64.3481V114.364H67.9922ZM65.4865 112.534H66.3765V120.006C66.3765 120.325 66.4312 120.575 66.5405 120.757C66.6499 120.936 66.7924 121.064 66.9681 121.14C67.1437 121.213 67.331 121.249 67.5299 121.249C67.6459 121.249 67.7453 121.243 67.8282 121.229C67.911 121.213 67.9839 121.196 68.0469 121.18L68.2358 121.98C68.1497 122.013 68.0436 122.043 67.9177 122.07C67.7917 122.099 67.6359 122.114 67.4503 122.114C67.1255 122.114 66.8123 122.043 66.5107 121.901C66.2124 121.758 65.9671 121.546 65.7749 121.264C65.5827 120.982 65.4865 120.633 65.4865 120.215V112.534ZM70.0819 122V114.364H70.9719V122H70.0819ZM70.5344 113.051C70.3521 113.051 70.1963 112.99 70.067 112.867C69.9378 112.741 69.8731 112.59 69.8731 112.415C69.8731 112.239 69.9378 112.09 70.067 111.967C70.1963 111.841 70.3521 111.778 70.5344 111.778C70.7166 111.778 70.8724 111.841 71.0017 111.967C71.1309 112.09 71.1956 112.239 71.1956 112.415C71.1956 112.59 71.1309 112.741 71.0017 112.867C70.8724 112.99 70.7166 113.051 70.5344 113.051ZM74.2672 117.227V122H73.3822V114.364H74.2423V115.562H74.3219C74.5008 115.171 74.7792 114.857 75.1571 114.622C75.5382 114.384 76.0089 114.264 76.569 114.264C77.0828 114.264 77.5335 114.372 77.9213 114.587C78.3124 114.799 78.6157 115.113 78.8311 115.527C79.0498 115.941 79.1592 116.45 79.1592 117.053V122H78.2743V117.108C78.2743 116.482 78.0986 115.986 77.7473 115.621C77.3993 115.257 76.9319 115.075 76.3453 115.075C75.9443 115.075 75.588 115.161 75.2764 115.333C74.9649 115.505 74.7179 115.754 74.5356 116.079C74.3567 116.4 74.2672 116.783 74.2672 117.227ZM84.647 122.159C83.9344 122.159 83.3179 121.993 82.7976 121.662C82.2772 121.327 81.8745 120.865 81.5895 120.275C81.3078 119.682 81.1669 118.999 81.1669 118.227C81.1669 117.458 81.3078 116.775 81.5895 116.178C81.8745 115.578 82.2673 115.109 82.7677 114.771C83.2715 114.43 83.8532 114.259 84.5128 114.259C84.9271 114.259 85.3265 114.335 85.7109 114.488C86.0954 114.637 86.4401 114.867 86.745 115.179C87.0533 115.487 87.2969 115.877 87.4758 116.347C87.6548 116.815 87.7443 117.368 87.7443 118.008V118.445H81.7784V117.665H86.8395C86.8395 117.174 86.74 116.733 86.5412 116.342C86.3456 115.948 86.0722 115.636 85.7209 115.408C85.3729 115.179 84.9702 115.065 84.5128 115.065C84.0289 115.065 83.603 115.194 83.2351 115.452C82.8672 115.711 82.5788 116.052 82.37 116.477C82.1645 116.901 82.0601 117.365 82.0568 117.869V118.336C82.0568 118.942 82.1612 119.473 82.37 119.927C82.5821 120.378 82.8821 120.727 83.2699 120.976C83.6577 121.224 84.1167 121.349 84.647 121.349C85.0083 121.349 85.3248 121.292 85.5966 121.18C85.8717 121.067 86.102 120.916 86.2876 120.727C86.4766 120.535 86.6191 120.325 86.7152 120.096L87.5554 120.369C87.4394 120.691 87.2488 120.987 86.9837 121.259C86.7218 121.531 86.3937 121.75 85.9993 121.915C85.6082 122.078 85.1574 122.159 84.647 122.159Z" fill="#212121"/>
<defs>
<clipPath id="clip0_2079_9787">
<rect width="64" height="64" fill="white" transform="translate(28 18)"/>
</clipPath>
</defs>
</svg>
