<svg width="120" height="144" viewBox="0 0 120 144" fill="none" xmlns="http://www.w3.org/2000/svg">
  <rect width="120" height="144" rx="4" fill="#FAFAFA" />
  <g clip-path="url(#clip0_6379_16516)">
    <path
      d="M66.4174 65.2668C66.6362 64.4766 65.978 63.5366 65.9237 62.3017C65.8694 61.0667 66.1426 59.9785 65.6654 59.5842C65.1866 59.1883 64.7176 57.261 65.4005 56.2974C66.0834 55.3337 65.2672 54.84 64.9924 53.7029C64.7176 52.5658 66.034 51.9239 64.9924 51.2819C63.9508 50.64 63.676 48.7127 63.7303 47.7238C63.7846 46.735 62.4682 45.6972 62.4682 45.6972C62.4682 45.6972 61.4744 45.5089 60.051 45.5C60.0329 45.5 60.0165 45.5 59.9984 45.5C59.9803 45.5 59.9638 45.5 59.9457 45.5C58.5207 45.5104 57.5285 45.6972 57.5285 45.6972C57.5285 45.6972 56.2121 46.735 56.2664 47.7238C56.3207 48.7127 56.0475 50.64 55.0043 51.2819C53.9627 51.9239 55.2791 52.5673 55.0043 53.7029C54.7295 54.84 53.9134 55.3337 54.5962 56.2974C55.2791 57.261 54.8085 59.1883 54.3313 59.5842C53.8525 59.98 54.1273 61.0667 54.073 62.3017C54.0187 63.5366 53.3605 64.4766 53.5793 65.2668C53.7982 66.057 54.203 67.1452 53.5349 68.0836C52.8668 69.0221 52.778 70.5046 53.5349 71.2963C54.2918 72.0865 54.6769 73.1243 54.5123 73.9159C54.3478 74.7076 56.4869 75.2013 56.9805 75.5957C56.9805 75.5957 57.3639 76.7817 56.9262 77.474C56.4869 78.1664 57.5301 82.1189 58.5717 82.8601C59.6133 83.6014 59.6018 83.4947 60 83.4947C60.3982 83.4947 60.3867 83.6014 61.4283 82.8601C62.4699 82.1189 63.5131 78.1649 63.0738 77.474C62.6344 76.7817 63.0195 75.5957 63.0195 75.5957C63.5131 75.1998 65.6522 74.7061 65.4877 73.9159C65.3231 73.1257 65.7065 72.088 66.4651 71.2963C67.222 70.5061 67.1332 69.0235 66.4651 68.0836C65.797 67.1452 66.2018 66.057 66.4207 65.2668H66.4174Z"
      fill="#212121" />
    <path
      d="M60.0749 31.3768C60.3238 31.3395 61.563 31.1485 62.1794 31.0134C62.2111 31.0376 62.2572 31.0786 62.3189 31.1443C62.4861 31.3225 62.6785 31.5834 62.9181 31.9084L62.9443 31.9439C63.1866 32.2725 63.466 32.6487 63.773 32.9891C64.0782 33.3276 64.4332 33.657 64.8381 33.876L64.8383 33.8761C65.2155 34.0799 65.5282 34.176 65.8085 34.2005C66.0675 34.2232 66.2712 34.1802 66.3972 34.1536C66.4074 34.1515 66.4171 34.1494 66.4263 34.1475C66.5438 34.1233 66.5495 34.1305 66.5503 34.1315C66.5504 34.1316 66.5504 34.1316 66.5504 34.1317C66.5676 34.1375 66.6427 34.1703 66.8008 34.3344L66.8569 34.3962C67.1871 34.7596 67.4003 35.4007 67.4729 36.1145C67.5452 36.8263 67.4648 37.4784 67.3293 37.8052C67.2118 38.0886 67.1643 38.3921 67.1358 38.6534C67.1215 38.784 67.1124 38.8929 67.104 38.9931C67.0932 39.1229 67.0836 39.2382 67.0655 39.3672C67.0358 39.5782 66.9965 39.6866 66.9596 39.7409L66.9592 39.7416C66.9437 39.7642 66.9239 39.7935 66.8194 39.8038C66.3287 39.8525 65.7507 39.9293 65.2338 40.1468C64.6998 40.3715 64.2121 40.7548 63.9456 41.4092L63.9454 41.4099C63.5667 42.3434 62.9282 43.1996 62.3207 43.7822C62.2465 43.8533 62.0602 43.9347 61.7258 43.9746C61.4131 44.012 61.0578 44.0035 60.7442 43.9788C60.2491 43.9393 59.7509 43.9393 59.2558 43.9788C58.9422 44.0035 58.5869 44.012 58.2742 43.9746C57.9397 43.9347 57.7534 43.8532 57.6793 43.7822L57.3334 44.1429L57.6797 43.7826C57.072 43.1984 56.4346 42.3433 56.0544 41.4092C55.7879 40.7548 55.3002 40.3715 54.7662 40.1468C54.2493 39.9293 53.6713 39.8525 53.1806 39.8038C53.0761 39.7935 53.0562 39.7642 53.0408 39.7416L53.0404 39.7409C53.0035 39.6866 52.9642 39.5782 52.9345 39.3672C52.9164 39.2382 52.9068 39.1229 52.896 38.9931C52.8876 38.8929 52.8785 38.784 52.8642 38.6534C52.8357 38.3921 52.7882 38.0886 52.6707 37.8052C52.5352 37.4784 52.4548 36.826 52.5271 36.1138C52.5997 35.3995 52.8129 34.7581 53.1431 34.3947C53.3406 34.1774 53.4316 34.1374 53.4509 34.1309C53.4509 34.1309 53.451 34.1308 53.4511 34.1308C53.4521 34.1296 53.4587 34.1226 53.5756 34.1467C53.5847 34.1486 53.5944 34.1506 53.6045 34.1527C53.7306 34.1793 53.9343 34.2221 54.1933 34.1992C54.4735 34.1745 54.7861 34.0784 55.1632 33.8747C55.5685 33.6557 55.9238 33.3264 56.2291 32.988C56.5362 32.6477 56.8156 32.2717 57.0578 31.9432C57.0669 31.9309 57.0759 31.9187 57.0848 31.9066C57.324 31.5822 57.5159 31.3219 57.6829 31.1441C57.7445 31.0784 57.7906 31.0374 57.8223 31.0133C58.4339 31.1463 59.6667 31.3366 59.9214 31.376L59.9245 31.3764L59.9997 31.388L60.0749 31.3768Z"
      stroke="#212121" />
  </g>
  <path
    d="M39.1355 100.864C39.0792 100.297 38.8289 99.8461 38.3848 99.5114C37.9407 99.1766 37.3822 99.0092 36.7094 99.0092C36.2354 99.0092 35.8178 99.0904 35.4565 99.2528C35.0986 99.4152 34.8169 99.6406 34.6114 99.929C34.4092 100.214 34.3081 100.539 34.3081 100.903C34.3081 101.172 34.3661 101.407 34.4821 101.609C34.5981 101.812 34.7539 101.986 34.9494 102.131C35.1483 102.274 35.3671 102.397 35.6057 102.499C35.8476 102.602 36.0913 102.688 36.3365 102.758L37.4104 103.066C37.7352 103.156 38.06 103.27 38.3848 103.409C38.7096 103.548 39.0063 103.724 39.2747 103.936C39.5465 104.145 39.7636 104.402 39.926 104.707C40.0917 105.008 40.1746 105.371 40.1746 105.795C40.1746 106.339 40.0337 106.828 39.752 107.262C39.4703 107.696 39.0659 108.041 38.5389 108.296C38.0119 108.548 37.3806 108.674 36.6448 108.674C35.9521 108.674 35.3505 108.56 34.8401 108.331C34.3297 108.099 33.9286 107.779 33.6369 107.371C33.3453 106.964 33.1812 106.491 33.1448 105.955H34.0993C34.1324 106.356 34.265 106.695 34.497 106.974C34.729 107.252 35.0306 107.464 35.4019 107.61C35.7731 107.753 36.1874 107.824 36.6448 107.824C37.1519 107.824 37.6026 107.739 37.997 107.57C38.3948 107.398 38.7063 107.159 38.9317 106.854C39.1604 106.546 39.2747 106.188 39.2747 105.781C39.2747 105.436 39.1852 105.147 39.0063 104.915C38.8273 104.68 38.5771 104.483 38.2556 104.324C37.9374 104.165 37.5678 104.024 37.1469 103.901L35.9289 103.543C35.1301 103.305 34.5103 102.975 34.0695 102.554C33.6287 102.133 33.4083 101.596 33.4083 100.943C33.4083 100.396 33.5541 99.9157 33.8458 99.5014C34.1407 99.0838 34.5385 98.759 35.0389 98.527C35.5427 98.2917 36.1078 98.174 36.7342 98.174C37.3673 98.174 37.9274 98.29 38.4146 98.522C38.9019 98.754 39.288 99.0739 39.573 99.4815C39.8614 99.8859 40.0155 100.347 40.0354 100.864H39.1355ZM45.3057 100.864V101.634H41.6615V100.864H45.3057ZM42.8 99.0341H43.6899V106.506C43.6899 106.825 43.7446 107.075 43.854 107.257C43.9633 107.436 44.1059 107.564 44.2815 107.64C44.4572 107.713 44.6444 107.749 44.8433 107.749C44.9593 107.749 45.0587 107.743 45.1416 107.729C45.2245 107.713 45.2974 107.696 45.3604 107.68L45.5493 108.48C45.4631 108.513 45.357 108.543 45.2311 108.57C45.1051 108.599 44.9494 108.614 44.7638 108.614C44.439 108.614 44.1257 108.543 43.8241 108.401C43.5258 108.258 43.2806 108.046 43.0883 107.764C42.8961 107.482 42.8 107.133 42.8 106.715V99.0341ZM50.3908 108.659C49.6782 108.659 49.0617 108.493 48.5413 108.162C48.021 107.827 47.6183 107.365 47.3332 106.775C47.0515 106.182 46.9106 105.499 46.9106 104.727C46.9106 103.958 47.0515 103.275 47.3332 102.678C47.6183 102.078 48.011 101.609 48.5115 101.271C49.0153 100.93 49.597 100.759 50.2565 100.759C50.6708 100.759 51.0702 100.835 51.4547 100.988C51.8392 101.137 52.1838 101.367 52.4888 101.679C52.797 101.987 53.0406 102.377 53.2196 102.847C53.3986 103.315 53.4881 103.868 53.4881 104.508V104.945H47.5222V104.165H52.5832C52.5832 103.674 52.4838 103.233 52.2849 102.842C52.0894 102.448 51.8159 102.136 51.4646 101.908C51.1166 101.679 50.7139 101.565 50.2565 101.565C49.7726 101.565 49.3467 101.694 48.9788 101.952C48.6109 102.211 48.3226 102.552 48.1138 102.977C47.9083 103.401 47.8039 103.865 47.8006 104.369V104.836C47.8006 105.442 47.905 105.973 48.1138 106.427C48.3259 106.878 48.6258 107.227 49.0136 107.476C49.4014 107.724 49.8605 107.849 50.3908 107.849C50.752 107.849 51.0686 107.792 51.3403 107.68C51.6154 107.567 51.8458 107.416 52.0314 107.227C52.2203 107.035 52.3628 106.825 52.4589 106.596L53.2991 106.869C53.1831 107.191 52.9926 107.487 52.7274 107.759C52.4656 108.031 52.1374 108.25 51.743 108.415C51.3519 108.578 50.9012 108.659 50.3908 108.659ZM55.5082 108.5V100.864H56.3683V102.037H56.4329C56.5853 101.652 56.8505 101.343 57.2283 101.107C57.6095 100.869 58.0404 100.749 58.521 100.749C58.5939 100.749 58.6751 100.751 58.7646 100.754C58.854 100.758 58.9286 100.761 58.9883 100.764V101.664C58.9485 101.657 58.8789 101.647 58.7795 101.634C58.68 101.621 58.5723 101.614 58.4563 101.614C58.0586 101.614 57.704 101.699 57.3924 101.868C57.0842 102.034 56.8406 102.264 56.6616 102.559C56.4826 102.854 56.3931 103.19 56.3931 103.568V108.5H55.5082ZM61.4533 103.727V108.5H60.5684V100.864H61.4285V102.062H61.508C61.687 101.671 61.9654 101.357 62.3433 101.122C62.7244 100.884 63.1951 100.764 63.7552 100.764C64.2689 100.764 64.7197 100.872 65.1075 101.087C65.4986 101.299 65.8018 101.613 66.0173 102.027C66.236 102.441 66.3454 102.95 66.3454 103.553V108.5H65.4604V103.608C65.4604 102.982 65.2848 102.486 64.9335 102.121C64.5854 101.757 64.1181 101.575 63.5315 101.575C63.1304 101.575 62.7741 101.661 62.4626 101.833C62.151 102.005 61.9041 102.254 61.7218 102.579C61.5428 102.9 61.4533 103.283 61.4533 103.727ZM73.5981 105.582V100.864H74.483V108.5H73.5981V107.232H73.5285C73.3495 107.623 73.0661 107.95 72.6784 108.212C72.2906 108.47 71.8166 108.599 71.2565 108.599C70.7693 108.599 70.3367 108.493 69.9589 108.281C69.5811 108.066 69.2844 107.751 69.069 107.337C68.8535 106.922 68.7458 106.414 68.7458 105.81V100.864H69.6308V105.756C69.6308 106.352 69.8064 106.833 70.1578 107.197C70.5091 107.559 70.9598 107.739 71.51 107.739C71.8547 107.739 72.1862 107.656 72.5043 107.491C72.8225 107.325 73.0844 107.083 73.2899 106.765C73.4953 106.443 73.5981 106.049 73.5981 105.582ZM76.8959 108.5V100.864H77.756V102.037H77.8355C77.988 101.643 78.2415 101.333 78.5962 101.107C78.9541 100.879 79.3834 100.764 79.8838 100.764C80.4108 100.764 80.8433 100.888 81.1814 101.137C81.5228 101.382 81.778 101.72 81.947 102.151H82.0117C82.184 101.727 82.4641 101.391 82.8519 101.142C83.243 100.89 83.7169 100.764 84.2737 100.764C84.983 100.764 85.5432 100.988 85.9541 101.435C86.3651 101.879 86.5706 102.529 86.5706 103.384V108.5H85.6857V103.384C85.6857 102.781 85.5316 102.329 85.2233 102.027C84.9151 101.725 84.5091 101.575 84.0053 101.575C83.4219 101.575 82.9728 101.754 82.658 102.112C82.3431 102.469 82.1857 102.924 82.1857 103.474V108.5H81.2808V103.305C81.2808 102.788 81.1367 102.37 80.8483 102.052C80.56 101.734 80.154 101.575 79.6303 101.575C79.279 101.575 78.9624 101.661 78.6807 101.833C78.4023 102.005 78.1819 102.246 78.0195 102.554C77.8604 102.859 77.7808 103.21 77.7808 103.608V108.5H76.8959Z"
    fill="#212121" />
  <defs>
    <clipPath id="clip0_6379_16516">
      <rect width="54" height="54" fill="white" transform="translate(33 30.5)" />
    </clipPath>
  </defs>
</svg>
