<svg width="128" height="128" viewBox="0 0 128 128" fill="none" xmlns="http://www.w3.org/2000/svg">
<rect width="128" height="128" fill="#444A65"/>
<mask id="mask0_2805_720" style="mask-type:alpha" maskUnits="userSpaceOnUse" x="40" y="40" width="48" height="48">
<rect x="40" y="40" width="48" height="48" fill="#D9D9D9"/>
</mask>
<g mask="url(#mask0_2805_720)">
<path d="M64 84C61.2667 84 58.6833 83.475 56.25 82.425C53.8167 81.375 51.6917 79.9417 49.875 78.125C48.0583 76.3083 46.625 74.1833 45.575 71.75C44.525 69.3167 44 66.7333 44 64H47C47 68.2333 48.4 71.9583 51.2 75.175C54 78.3917 57.5333 80.2833 61.8 80.85L58.75 77.8L60.75 75.8L68.45 83.5C67.7167 83.7333 66.9833 83.875 66.25 83.925C65.5167 83.975 64.7667 84 64 84ZM65.45 70.4V57.55H71.75C72.3833 57.55 72.9083 57.7583 73.325 58.175C73.7417 58.5917 73.95 59.1167 73.95 59.75V68.2C73.95 68.8333 73.7417 69.3583 73.325 69.775C72.9083 70.1917 72.3833 70.4 71.75 70.4H65.45ZM54.1 70.4V67.95H60.1V64.95H56.25V63H60.1V60.05H54.1V57.55H60.4C61.0333 57.55 61.5583 57.7583 61.975 58.175C62.3917 58.5917 62.6 59.1167 62.6 59.75V68.2C62.6 68.8333 62.3917 69.3583 61.975 69.775C61.5583 70.1917 61.0333 70.4 60.4 70.4H54.1ZM67.9 67.95H71.45V60.05H67.9V67.95ZM81 64C81 59.7333 79.6083 56 76.825 52.8C74.0417 49.6 70.5167 47.7167 66.25 47.15L69.25 50.15L67.25 52.15L59.55 44.45C60.2833 44.2167 61.0167 44.0833 61.75 44.05C62.4833 44.0167 63.2333 44 64 44C66.7667 44 69.3583 44.525 71.775 45.575C74.1917 46.625 76.3083 48.0583 78.125 49.875C79.9417 51.6917 81.375 53.8083 82.425 56.225C83.475 58.6417 84 61.2333 84 64H81Z" fill="white"/>
</g>
</svg>
