<?xml version="1.0" encoding="UTF-8"?>
<svg xmlns="http://www.w3.org/2000/svg" xmlns:xlink="http://www.w3.org/1999/xlink" viewBox="0 0 673.3 419.79">
  <defs>
    <style>
	#sketch { mix-blend-mode: multiply; }
	#nuclei { mix-blend-mode: multiply; }
	#membrane { mix-blend-mode: multiply; }
      .cls-1 {
        fill: #b7b7b7;
      }

      .cls-2 {
        fill: #9d9d9d;
      }

      .cls-3 {
        fill: #a7a7a7;
      }

      .cls-4 {
        fill: #939393;
      }

      .cls-5 {
        stroke-width: 1.5px;
      }

      .cls-5, .cls-6, .cls-7, .cls-8, .cls-9, .cls-10, .cls-11, .cls-12 {
        stroke-miterlimit: 10;
      }

      .cls-5, .cls-8, .cls-9, .cls-10, .cls-11, .cls-13, .cls-12 {
        fill: none;
      }

      .cls-5, .cls-8, .cls-11 {
        stroke: #000;
      }

      .cls-14 {
        letter-spacing: .01em;
      }

      .cls-15 {
        fill: url(#linear-gradient-2);
      }

      .cls-16 {
        fill: #6c6c6c;
      }

      .cls-6 {
        stroke-width: .23px;
      }

      .cls-6, .cls-17 {
        fill: #fff;
      }

      .cls-6, .cls-7, .cls-10 {
        stroke: #231f20;
      }

      .cls-7 {
        fill: url(#radial-gradient);
      }

      .cls-7, .cls-10 {
        stroke-width: .94px;
      }

      .cls-18 {
        fill: #8b8b8b;
      }

      .cls-19 {
        fill: #cbcbcb;
      }

      .cls-20 {
        fill: #848484;
      }

      .cls-21 {
        fill: #aeaeae;
      }

      .cls-22 {
        fill: #cd5257;
      }

      .cls-23 {
        letter-spacing: 0em;
      }

      .cls-9 {
        stroke: #fff;
      }

      .cls-24 {
        opacity: .9;
      }

      .cls-25 {
        fill: #777;
      }

      .cls-26 {
        fill: #5f5f5f;
      }

      .cls-27 {
        fill: #a9a9a9;
      }

      .cls-28 {
        fill: #9f9f9f;
      }

      .cls-29 {
        fill: #a0a0a0;
      }

      .cls-30 {
        fill: #f4e4ea;
      }

      .cls-31 {
        fill: #e2a489;
      }

      .cls-32 {
        fill: #b2b2b2;
      }

      .cls-33 {
        fill: #a6a6a6;
      }

      .cls-34 {
        isolation: isolate;
      }

      .cls-35 {
        fill: #c9c9c9;
      }

      .cls-36 {
        fill: #a4a4a4;
      }

      .cls-37 {
        fill: #dedede;
      }

      .cls-38 {
        letter-spacing: 0em;
      }

      .cls-39 {
        fill: #bdbdbd;
      }

      .cls-40 {
        fill: #8f8f8f;
      }

      .cls-41 {
        opacity: .3;
      }

      .cls-42 {
        letter-spacing: 0em;
      }

      .cls-43 {
        fill: #8e8e8e;
      }

      .cls-44 {
        fill: #b8b8b8;
      }

      .cls-45 {
        fill: #a1a1a1;
      }

      .cls-46 {
        fill: #ba9bc9;
      }

      .cls-47 {
        fill: #c8c8c8;
      }

      .cls-48 {
        fill: #fdfdfd;
      }

      .cls-49 {
        fill: #a3a3a3;
      }

      .cls-50 {
        fill: #b6b6b6;
      }

      .cls-51 {
        fill: #f9c7dc;
      }

      .cls-52 {
        opacity: .1;
      }

      .cls-53 {
        fill: #858585;
      }

      .cls-54 {
        fill: #d3d3d3;
      }

      .cls-55 {
        fill: #bebebe;
      }

      .cls-11 {
        stroke-width: 1.49px;
      }

      .cls-56 {
        fill: #c1c1c1;
      }

      .cls-57 {
        fill: #ccc;
      }

      .cls-58 {
        fill: #ababab;
      }

      .cls-59 {
        fill: #bbb;
      }

      .cls-60 {
        fill: #7e7e7e;
      }

      .cls-12 {
        stroke: #f5a59a;
        stroke-width: 8px;
      }

      .cls-61 {
        fill: #c2c2c2;
      }

      .cls-62 {
        fill: #a8a8a8;
      }

      .cls-63 {
        fill: url(#linear-gradient);
      }

      .cls-64 {
        fill: #b5b5b5;
      }

      .cls-65 {
        letter-spacing: -.01em;
      }

      .cls-66 {
        fill: #eee;
      }

      .cls-67 {
        letter-spacing: 0em;
      }

      .cls-68 {
        mix-blend-mode: multiply;
      }

      .cls-69 {
        fill: #666;
      }

      .cls-70 {
        font-family: InterV, InterV;
        font-size: 16px;
        font-variation-settings: ';
      }

      .cls-71 {
        fill: #fefefe;
      }
    </style>
    <radialGradient id="radial-gradient" cx="961.65" cy="456.09" fx="961.65" fy="456.09" r="23.66" gradientTransform="translate(-236.98 -47.44) scale(.89)" gradientUnits="userSpaceOnUse">
      <stop offset=".21" stop-color="#6d1014"/>
      <stop offset=".29" stop-color="#741418"/>
      <stop offset=".41" stop-color="#891f26"/>
      <stop offset=".55" stop-color="#ab313c"/>
      <stop offset=".62" stop-color="#bf3c49"/>
      <stop offset=".77" stop-color="#b12c3c"/>
      <stop offset=".88" stop-color="#a51f30"/>
      <stop offset=".91" stop-color="#a82233"/>
      <stop offset=".95" stop-color="#b22e3f"/>
      <stop offset=".98" stop-color="#c34153"/>
      <stop offset="1" stop-color="#d55669"/>
    </radialGradient>
    <linearGradient id="linear-gradient" x1="-2066.86" y1="-3143.92" x2="-2065.06" y2="-3169.87" gradientTransform="translate(-2968.18 1556.92) rotate(104.59)" gradientUnits="userSpaceOnUse">
      <stop offset=".04" stop-color="#fff" stop-opacity="0"/>
      <stop offset=".25" stop-color="#fff"/>
      <stop offset=".37" stop-color="#c9c8c8" stop-opacity=".76"/>
      <stop offset=".49" stop-color="#979596" stop-opacity=".53"/>
      <stop offset=".62" stop-color="#6d6b6b" stop-opacity=".34"/>
      <stop offset=".73" stop-color="#4d4a4a" stop-opacity=".19"/>
      <stop offset=".84" stop-color="#363233" stop-opacity=".09"/>
      <stop offset=".93" stop-color="#272425" stop-opacity=".02"/>
      <stop offset="1" stop-color="#231f20" stop-opacity="0"/>
    </linearGradient>
    <linearGradient id="linear-gradient-2" x1="-1438.72" y1="-3028.43" x2="-1437.33" y2="-3048.59" gradientTransform="translate(-2488.76 1654.75) rotate(92.64)" gradientUnits="userSpaceOnUse">
      <stop offset=".04" stop-color="#fff" stop-opacity="0"/>
      <stop offset=".24" stop-color="#fff"/>
      <stop offset=".33" stop-color="#c9c8c8" stop-opacity=".76"/>
      <stop offset=".43" stop-color="#979596" stop-opacity=".53"/>
      <stop offset=".52" stop-color="#6d6b6b" stop-opacity=".34"/>
      <stop offset=".6" stop-color="#4d4a4a" stop-opacity=".19"/>
      <stop offset=".68" stop-color="#363233" stop-opacity=".09"/>
      <stop offset=".76" stop-color="#272425" stop-opacity=".02"/>
      <stop offset=".81" stop-color="#231f20" stop-opacity="0"/>
    </linearGradient>
  </defs>
  <g class="cls-34">
    <g id="Crosswalk">
      <g id="Descending_Thin_Loop_Of_Henle">
        <g id="Descending_Vasa_recta">
          <polyline class="cls-13" points="90.76 74.11 105.17 59.3 118.24 53.68 132.94 53.68 156.15 64.59 175 75.85 182.74 86.53 187.71 99.13 184.02 123.43 183.03 139.04 182.17 152.17 183.81 163.26 184.02 172.69 195.03 140.74 202.69 115.83 205.41 94.18 199.7 70.74 186.51 52.04 170.93 41.51 146.06 37.23 121.4 40.05 101.96 51.01 89.7 60.9 82.68 72.18 90.76 74.11"/>
          <polyline class="cls-13" points="79.14 76.15 67.81 100.43 61.8 128.18 57.17 159.28 49.41 201.86 44.88 238 42.83 256.67 48.08 271.85 60.99 284.64 63.4 274.57 55.16 245.65 59.21 220.66 73.48 197.03 85.67 167.27 86.13 136.08 83.86 119.72 85.67 98.16 88.91 77.49 79.14 76.15"/>
          <polyline class="cls-13" points="68.08 288.91 82.68 303.21 105.11 309.55 130.11 305.41 152.71 290.95 163.49 273.95 171.19 253.15 174.85 237.05 176.8 224.5 180.4 200.89 181.92 188.17 181.9 178.77 177.66 175.23 173.88 184.76 172.47 199.81 165.04 215.98 146.37 232.76 129.87 248.65 121.75 258.03 120.65 269.73 113.04 284.64 101.23 294.73 82.68 291.4 68.08 288.91"/>
        </g>
        <g id="Descending_Thin_Limb_Cell">
          <polyline class="cls-13" points="322.98 134.98 296.06 152.58 275.75 178.27 262.81 199.81 254.35 227.78 251.42 252.28 253.87 282.46 259.26 307.08 270.13 322.01 277.61 325.17 288.48 312.53 291.94 303.08 281.55 273.42 281.58 257.63 294.53 236.23 302.19 215.6 307.55 194.65 316.33 176.99 325.12 165.98 327.89 157.32 329.23 141.78 322.98 134.98"/>
          <polyline class="cls-13" points="304.61 311.6 291.72 311.6 283.21 319.86 280.54 331.12 293.81 341.06 330.62 352.53 372.29 354.03 398.47 347.25 431.52 333.72 451.94 319.08 463.59 306.25 469.96 287.97 472.78 282.85 445.07 279.47 433.68 275.72 429.07 284.64 411.02 296.18 392.61 300.27 372.29 305.27 356.26 312.15 342.96 319.21 319.66 316.25 304.61 311.6"/>
          <polyline class="cls-13" points="331.87 160.34 343.88 164.2 355.88 162.81 366.16 162.27 385.22 177.74 398.7 194.92 414.92 205.06 426.9 211.92 440.16 234.62 442.68 245.65 438.66 263.69 439.16 270.94 451.94 276.72 468.09 280.54 476.49 275.72 480.77 249.56 480.77 227.96 469.96 193.86 451.94 167.86 423.87 145.72 389.4 134.98 360.5 130.12 336.85 130.12 331.87 137.93 329.24 149.06 331.87 160.34"/>
        </g>
      </g>
    </g>
    <g id="labels">
      <g>
        <path class="cls-30" d="m104.53,56.28c-17,18.49-28.69,41.81-33.31,66.5-2.13,11.39-2.79,23.04-5.49,34.31-2.12,8.84-5.46,17.33-7.94,26.08-6.28,22.09-7,45.51-4.4,68.33.6,5.24,1.38,10.52,3.44,15.38,1.94,4.58,4.94,8.62,7.91,12.61,4.46,5.98,9.04,12.08,15.22,16.27,5.7,3.86,12.43,5.85,19.06,7.72,3.45.97,6.97,1.93,10.54,1.8,4.45-.17,8.69-2.03,12.4-4.5,11.65-7.76,18.28-20.94,24.4-33.53,10.95-22.52,21.96-45.2,28.47-69.38,6.54-24.29,8.43-49.67,15.35-73.85,2.8-9.77,6.45-19.72,5.21-29.8-1.51-12.3-10.06-22.59-19.48-30.63-7.46-6.37-16.04-11.97-25.73-13.51-8.23-1.31-16.6.39-24.76,2.1-7.3,1.54-14.59,3.1-21.88,4.68"/>
        <path class="cls-30" d="m103.11,54.87c-13.39,14.6-23.54,32.05-29.63,50.9-3.25,10.06-4.97,20.36-6.35,30.82-.73,5.56-1.46,11.13-2.59,16.63-1.15,5.58-2.81,11.01-4.57,16.42s-3.52,10.61-4.93,16.02c-1.39,5.35-2.47,10.79-3.26,16.26-1.6,11.08-2.09,22.28-1.64,33.46.22,5.54.66,11.07,1.31,16.57.63,5.44,1.49,10.86,3.66,15.92,2.08,4.86,5.29,9.09,8.43,13.3,2.98,3.99,6,7.99,9.57,11.48s7.85,6.39,12.54,8.41c4.9,2.12,10.06,3.62,15.21,4.97s10.69,1.74,15.93-.32c4.57-1.79,8.66-4.67,12.22-8.03,6.86-6.46,11.7-14.75,15.94-23.08,4.84-9.51,9.43-19.17,13.89-28.85,4.64-10.07,9.02-20.29,12.73-30.74,3.74-10.54,6.63-21.32,8.86-32.28,2.23-10.98,3.94-22.06,5.99-33.08,1.04-5.58,2.17-11.15,3.5-16.67,1.3-5.41,2.91-10.72,4.46-16.06,2.95-10.18,4.89-20.78,1.06-31.01-3.34-8.9-9.66-16.35-16.7-22.58-7.34-6.51-15.79-12.46-25.48-14.73-11.08-2.6-22.44.36-33.3,2.66-5.64,1.2-11.27,2.41-16.91,3.63-2.51.55-1.45,4.4,1.06,3.86,5.63-1.22,11.27-2.43,16.91-3.63,5.4-1.15,10.82-2.44,16.31-3.11,5.23-.64,10.55-.68,15.69.65,4.65,1.21,8.98,3.33,13.01,5.92,7.64,4.9,14.89,11.32,20.21,18.7,2.59,3.59,4.75,7.52,6.06,11.76,1.45,4.73,1.68,9.66,1.04,14.55-.7,5.36-2.29,10.56-3.83,15.73s-2.96,10.4-4.16,15.68c-2.43,10.69-4.19,21.51-6.09,32.3-1.88,10.69-3.9,21.38-6.83,31.85-2.87,10.28-6.56,20.32-10.67,30.16-4.15,9.93-8.76,19.67-13.44,29.36-4.16,8.6-8.12,17.41-13.34,25.44-4.8,7.38-11.35,14.9-19.86,17.98-5.21,1.89-10.12.96-15.31-.5-4.81-1.35-9.67-2.72-14.17-4.92-8.98-4.38-14.87-12.36-20.64-20.22-2.99-4.08-5.82-8.31-7.35-13.18-1.59-5.06-2.15-10.38-2.66-15.63-2.08-21.37-1.16-43.23,4.74-63.96,3-10.56,7.08-20.75,9.11-31.58,2-10.66,2.73-21.53,5-32.14,3.97-18.58,11.97-36.23,23.24-51.52,2.76-3.75,5.74-7.33,8.88-10.76,1.74-1.89-1.08-4.73-2.83-2.83h0Z"/>
      </g>
      <g>
        <path class="cls-22" d="m98.41,196.23c-15.38,11.68-24.47,32.76-18.33,51.06.84,2.51,1.96,4.96,3.58,7.06,5.06,6.57,10.65,8.69,18.51,6.04,7.85-2.65,17.89-9.41,20.98-17.1s4.51-16.23,3.66-24.48c-.69-6.73-3.36-13.7-7.9-18.72-4.54-5.02-12.62-7.32-18.28-3.61"/>
        <path class="cls-22" d="m95.58,193.4c-10.39,8.13-18.2,20.04-20.59,33.11-2.27,12.4-.03,28.05,11.08,35.76,10.83,7.51,25,.05,33.55-7.68,10.8-9.78,13.53-27.83,10.25-41.51-3.21-13.42-16.43-28.51-31.26-20.05-4.47,2.55-.45,9.46,4.04,6.91,6.35-3.62,12.81,1.18,16.06,6.62,3.81,6.38,4.79,13.84,4.17,21.16-.58,6.89-2.41,14.53-7.28,19.66-4.26,4.5-10.54,8.44-16.64,9.77-14.04,3.07-17.79-16.7-16.53-26.74,1.58-12.56,9-23.66,18.81-31.34,4.05-3.17-1.65-8.8-5.66-5.66h0Z"/>
      </g>
      <g>
        <path class="cls-22" d="m125.93,162.14c-4.61-5.5-10.82-9.64-17.66-11.78-2.02-.63-4.19-1.1-6.25-.59-2.06.51-3.95,2.23-4.01,4.34-.04,1.28-.33,2.44.16,3.62,7.83,18.92,18.11,26.51,29.67,37.16,2.47,2.28,6.1,3.51,9.24,4.69,3.14,1.19,5.94,2.16,8.62.14,2.3-1.73,3.42-4.57,4.44-7.26,2.32-6.12,4.39-13.76,0-18.61-1.34-1.48-3.13-2.47-4.89-3.41-5.67-3.02-11.45-5.84-17.33-8.43"/>
        <path class="cls-22" d="m128.76,159.31c-6.15-7.04-21.92-19.1-31.44-11.55-9.71,7.71,3.2,24.25,8.43,30.87,3.41,4.31,7.29,8.17,11.32,11.89,4.28,3.94,8.44,8.46,13.8,10.89,5.14,2.32,11.58,5.27,16.84,1.77,4.54-3.03,6.51-9.46,7.87-14.46,1.6-5.93,1.88-12.91-2.62-17.7-2.69-2.86-6.54-4.51-9.97-6.26-4.3-2.19-8.65-4.24-13.06-6.2-4.66-2.08-8.74,4.81-4.04,6.91,5.86,2.61,11.7,5.34,17.33,8.43,6.11,3.35,6.14,7.92,4.23,14.1-.68,2.21-1.45,5.43-3.02,7.19-2.42,2.71-5.57.87-8.37-.24-4.96-1.98-8.49-5.66-12.37-9.2-6.85-6.25-13.13-12.86-17.71-21-1.3-2.32-2.87-4.84-3.67-7.4-1.7-5.42,4.45-3.42,7.29-2.27,5.31,2.14,9.75,5.6,13.5,9.89,3.4,3.88,9.04-1.79,5.66-5.66h0Z"/>
      </g>
      <g>
        <path class="cls-22" d="m120.59,72.18c-9.84,2.1-16.51,12.3-16.97,22.35s4.15,19.73,10.18,27.79c3.75,5.01,8.15,9.62,13.45,12.96,2.45,1.54,5.13,2.81,7.99,3.26,7.13,1.11,14.4-3.34,17.9-9.65,3.5-6.31,3.68-14.06,1.92-21.06-1.76-7-5.3-13.41-8.97-19.63-2.45-4.16-5.05-8.36-8.8-11.42-3.74-3.05-8.89-4.8-13.49-3.35"/>
        <path class="cls-22" d="m119.52,68.33c-11.82,3.01-19.31,14.36-19.9,26.21-.72,14.35,8.03,28.74,18.11,38.32,9.78,9.29,23.08,13.89,34.16,3.93,11-9.89,9.32-26.33,3.96-38.62-5.67-13-15.92-32.67-33.12-28.59-5.01,1.19-2.89,8.9,2.13,7.71,7.69-1.83,12.99,5.1,16.53,10.85,3.52,5.73,7.02,11.71,9.06,18.15,2.08,6.58,2.74,14.32-.77,20.57-2.93,5.22-9,9.03-15.08,7.45-11.92-3.1-22.21-18.24-25.58-29.36-3.39-11.18-.11-25.68,12.62-28.92,4.99-1.27,2.87-8.99-2.13-7.71h0Z"/>
      </g>
      <g>
        <path class="cls-51" d="m82.71,76.67c-11.01,17.32-15.02,38.05-18.81,58.23-1.01,5.37-2.02,10.74-3.03,16.1-3.46,18.4-6.92,36.83-8.96,55.44-.54,4.91-.98,9.85-2.29,14.61-.85,3.11-2.07,6.12-2.84,9.25-2.22,9.08-2.55,18.61-.72,27.77,1.89,9.5,6.76,20.12,15.26,24.76,1.99-16.34-11.82-31.49-9.95-47.84.62-5.48,2.99-10.59,5.45-15.53,6.68-13.36,14.37-26.23,20.27-39.95,5.9-13.72,10.02-28.55,9.03-43.46-.44-6.66-1.89-13.22-2.5-19.88-1.21-13.34,1-26.73,3.2-39.95-1.02-.95-2.93-.56-3.51.7"/>
        <path class="cls-51" d="m80.98,75.66c-7.42,11.73-11.76,25.06-14.9,38.49-3.36,14.4-5.79,29.05-8.5,43.58-2.86,15.35-5.59,30.74-7.39,46.26-.44,3.8-.75,7.63-1.38,11.4s-1.76,7.25-2.92,10.84c-2.26,7.03-3.22,14.58-2.96,21.96.46,13.23,5,29.46,17.4,36.38,1.43.8,2.84-.25,3.01-1.73,1.41-12.34-5.4-23.42-8.61-34.91-1.68-6.03-2.07-12.01-.19-18.05,2.13-6.81,5.9-13.18,9.23-19.45,6.83-12.86,13.97-25.65,18.81-39.43,2.41-6.87,4.2-13.93,5.1-21.15.93-7.41.57-14.7-.49-22.07-.6-4.18-1.31-8.34-1.64-12.55-.33-4.22-.33-8.47-.1-12.7.47-8.65,1.89-17.21,3.31-25.74.11-.66.07-1.48-.51-1.95-2.11-1.68-5.27-1.39-6.65,1.11-1.24,2.26,2.21,4.28,3.45,2.02.16-.28.54-.16.36-.3l-.51-1.95c-1.27,7.6-2.53,15.22-3.18,22.9-.65,7.69-.5,15.32.55,22.97,1.02,7.45,2.28,14.76,1.92,22.31-.34,7.2-1.79,14.31-3.89,21.2-4.28,14.08-11.32,27.06-18.22,39.99-3.43,6.42-7.04,12.83-9.85,19.55-2.6,6.21-3.59,12.51-2.53,19.18,2.12,13.22,11.2,25.25,9.62,39.04l3.01-1.73c-10.27-5.73-14.37-19.1-15.25-30.09-.58-7.19.02-14.58,1.98-21.53.99-3.51,2.34-6.89,3.1-10.47.79-3.68,1.18-7.43,1.59-11.17,1.62-15,4.13-29.88,6.87-44.71,2.66-14.42,5.18-28.89,8.26-43.23,3.17-14.73,7.44-29.42,15.55-42.25,1.38-2.18-2.08-4.19-3.45-2.02h0Z"/>
      </g>
      <g>
        <path class="cls-51" d="m90.98,63.37c-1.39,1.97-2.63,4.05-3.72,6.2-.56,1.11-1.08,2.42-.56,3.54.65,1.41,2.67,1.69,4.06.99s2.31-2.04,3.22-3.3c5.36-7.43,12.54-13.68,21.02-17.11s18.32-3.88,26.78-.39c4.45,1.84,8.4,4.67,12.3,7.48,6.97,5.02,13.95,10.04,20.92,15.05,2.77,1.99,5.12,4.42,7.21,7.13,13.44,17.46,3.76,43.94.93,61.36-1.32,8.1-2,16.68,1.06,24.29.23.58-.47.19.08.5,1.43.8.89,0,1.54-1.5,4.82-11.32,7.73-23.34,10.63-35.29,4.33-17.85,8.67-36.47,4.67-54.4-1.01-4.55-2.58-9.03-5.11-12.94-2.94-4.55-7.09-8.2-11.53-11.3-12.62-8.8-28.08-13.46-43.46-13.11s-30.61,5.73-42.81,15.11c-2.92,2.25-5.7,4.74-7.83,7.75"/>
        <path class="cls-51" d="m89.26,62.36c-1.12,1.61-2.16,3.27-3.09,5s-1.95,3.54-1.59,5.51c.63,3.54,4.96,4.47,7.69,2.67,1.51-.99,2.51-2.46,3.56-3.89s2.09-2.72,3.24-4.01c2.26-2.53,4.75-4.89,7.49-6.9,5.81-4.27,12.65-7.19,19.89-7.74,3.66-.28,7.34-.02,10.9.92,3.74.99,7.13,2.76,10.36,4.86,6.95,4.51,13.55,9.62,20.27,14.45,3.23,2.33,6.66,4.5,9.49,7.33,2.32,2.32,4.33,4.93,5.86,7.84,5.81,11.03,4.05,24.49,1.79,36.23-2.47,12.81-6.92,26.3-4.33,39.42.36,1.83,1.15,3.53,1.55,5.33l.2-1.54-.05.1,1.2-.92s-.09.04-.14.04c-1.55.28-1.84,2.33-.88,3.34s2.91,1.46,4,.4c.46-.44.62-1.02.77-1.61.23-.89.61-1.72.96-2.57,1.55-3.79,2.9-7.66,4.11-11.57,2.49-8,4.43-16.15,6.39-24.29,3.93-16.32,7.62-33.27,4.81-50.08-1.28-7.66-3.97-15.02-9.16-20.91-4.88-5.54-11.37-9.81-17.93-13.1-13.67-6.86-29.19-9.47-44.34-7.35-7.38,1.03-14.56,3.21-21.32,6.34-6.74,3.12-13.36,7.26-18.66,12.5-1.33,1.32-2.53,2.75-3.62,4.27-.63.88-.15,2.23.72,2.74,1.01.59,2.1.16,2.74-.72,3.96-5.5,10.09-9.58,15.95-12.84,6.02-3.36,12.51-5.81,19.23-7.33,13.66-3.08,28.01-1.9,41.07,3.1,6.44,2.46,12.68,5.9,18.06,10.23,5.38,4.33,9.38,9.61,11.53,16.22,4.82,14.8,2.64,30.89-.57,45.77-1.84,8.55-3.93,17.08-6.18,25.53-1.1,4.11-2.28,8.21-3.63,12.24-.7,2.09-1.44,4.17-2.24,6.22-.39,1.01-.8,2.02-1.22,3.03-.16.37-.31.73-.43,1.12-.05.17-.09.35-.13.52-.15.51.05.33.59-.55l1.01-.27c.49.17.59.18.3.04-.22-.13-.2-.1.05.1-.29,1.11-.59,2.23-.88,3.34.59-.11,1.1-.56,1.38-1.06.57-1.05.03-2.01-.31-3.01-.62-1.81-1.07-3.7-1.33-5.6-.51-3.82-.34-7.73.07-11.55.66-6.08,2.06-12.04,3.33-18,2.6-12.19,5.18-25.26,2-37.59-1.66-6.44-5.12-12.2-9.9-16.81-2.91-2.8-6.38-5.01-9.65-7.36-3.49-2.51-6.97-5.02-10.46-7.53-6.41-4.61-12.78-9.83-20.48-12.09-7.23-2.12-15.17-1.77-22.31.57-6.79,2.23-12.92,6.2-18.03,11.17-2.54,2.47-4.79,5.2-6.87,8.07-.71.97-1.71,2.54-3.11,2.35-.48-.06-.45-.14-.39-.66.09-.83.71-1.71,1.09-2.43.93-1.73,1.97-3.39,3.09-5,1.47-2.12-1.99-4.12-3.45-2.02h0Z"/>
      </g>
      <g>
        <path class="cls-51" d="m80.65,293.32c-4.5-2.93-9.39-5.26-14.5-6.9,7.09,9.75,17.17,17.41,28.67,21.05,11.5,3.63,24.37,3.09,35.28-2.05,13.6-6.42,23.07-19.11,30.97-31.91,3.99-6.46,7.75-13.14,10.12-20.35,7.34-22.26.91-47.54,9.49-69.36.64-1.62,1.36-3.29,1.21-5.02-.15-1.73-1.57-3.49-3.3-3.32-1.81.18-2.78,2.2-3.17,3.98-1.04,4.83-.29,9.87-.72,14.8-1.16,13.32-10.74,24.31-20.76,33.17-10.02,8.86-21.25,16.96-27.8,28.62-3.87,6.89-5.87,14.66-9.16,21.85-3.29,7.19-8.34,14.16-15.77,16.85-6.34,2.29-13.34,1.12-19.97-.09"/>
        <path class="cls-51" d="m81.66,291.59c-4.66-3.02-9.7-5.39-14.98-7.1-1.57-.51-3.3,1.52-2.26,2.94,7.37,10.06,17.57,17.98,29.49,21.84,12.73,4.13,27.09,3.23,38.98-3.02,10.97-5.77,19.2-15.52,26-25.66,7.63-11.37,14.39-23.4,16.69-37.05,2.25-13.35,1.4-26.93,2.75-40.36.68-6.78,2.14-13.32,4.6-19.68,1.14-2.96,1.65-6.57-1.06-8.87-2.5-2.13-5.85-1.09-7.38,1.62-1.63,2.87-1.63,6.62-1.65,9.83-.02,3.45.18,6.94-.42,10.36-1.06,6-3.85,11.46-7.42,16.35-7.42,10.18-17.93,17.42-27.07,25.9-4.59,4.27-8.9,8.91-12.25,14.23-3.73,5.91-5.88,12.58-8.38,19.06-2.16,5.59-4.75,11.19-8.94,15.58-1.94,2.03-4.19,3.76-6.76,4.89-3.01,1.32-6.32,1.68-9.58,1.58-3.45-.1-6.85-.69-10.24-1.31-1.06-.19-2.16.29-2.46,1.4-.27.97.33,2.27,1.4,2.46,6.6,1.19,13.62,2.42,20.19.37,5.64-1.76,10.09-5.74,13.48-10.47,3.65-5.08,5.86-10.98,8.03-16.8,2.28-6.12,4.68-12.11,8.53-17.44,7.13-9.85,17.32-16.9,26.19-25.03,8.67-7.94,17.03-17.78,19.14-29.71.58-3.31.58-6.63.56-9.98-.01-1.75,0-3.51.16-5.26.13-1.36.28-3.11,1.11-4.27.52-.72,1.06-.65,1.51.12.7,1.19.04,2.74-.39,3.92-1.17,3.13-2.27,6.24-3.04,9.5-2.98,12.73-2.44,25.91-3.21,38.87-.39,6.5-1.11,12.99-2.85,19.28s-4.81,12.64-8.22,18.5c-6.09,10.45-12.97,20.91-22.32,28.73-9.61,8.05-21.76,11.81-34.24,10.66-12.1-1.11-23.38-7.06-31.88-15.62-2.03-2.04-3.91-4.23-5.61-6.56-.75.98-1.51,1.96-2.26,2.94,4.96,1.61,9.64,3.87,14.02,6.7,2.17,1.4,4.17-2.06,2.02-3.45h0Z"/>
      </g>
      <g>
        <path class="cls-46" d="m317.93,137.61c-15.83,6.47-23.54,20.9-33.26,34.97-9.72,14.07-17.96,25.21-23.78,41.28-2.18,6.03-8,14.7-8.73,21.07-.75,6.58-.03,13.23.41,19.84,1.1,16.66.48,33.9,6.8,49.36,7.78,19.04,25.42,32.8,44.71,39.96,19.29,7.16,40.23,8.46,60.8,8.43,11.28-.01,22.67-2.42,33.57-5.28,10.52-2.76,20.34-7.73,29.51-13.58,18.65-11.88,35.13-25.77,45.37-45.38,10.24-19.6,13.83-43.11,7.39-64.27-3.47-11.42-9.69-21.88-13.05-33.33-1.19-4.04-2.04-8.25-4.17-11.88-3.78-6.42-10.88-9.97-16.58-14.78-4.39-3.7-8.03-8.25-12.56-11.77-6.92-5.38-15.49-8.07-23.86-10.67-15.09-4.67-30.29-9.37-45.99-11.12-15.7-1.75-32.11-.39-46.28,6.58,8.76,4.25,6.21,18.84,13.93,24.77,6.43,4.94,15.58,1.02,23.69.98,10.53-.05,19.84,6.84,27.04,14.53,7.2,7.69,13.3,16.59,21.89,22.69,4.88,3.47,10.45,5.93,15.11,9.69,5.18,4.18,12.03,9.8,15.25,15.63,4.66,8.43,5.21,17.71,5.48,27.34.4,14.28-6.99,30.55-18.89,38.46-13,8.65-29.57,7.47-44.15,13.06-14.98,5.74-28.98,16.75-44.97,15.49-6.01-.48-11.72-1.7-17.33-3.9-8.49-3.33-17.31-5.89-23.36-12.71-7.24-8.17-9.28-21.56-11.03-32.33-.48-2.93-.95-5.91-.53-8.85.55-3.86,2.6-7.32,4.54-10.7,10.6-18.5,16.45-42.61,22.63-63.02,2.22-7.35,6.92-10.63,11.83-16.53,2.72-3.26,6.41-6.24,6.84-10.46.21-2.09-.44-4.15-1.09-6.15-1.26-3.91-2.52-7.81-3.79-11.72-.66-2.03-1.42-4.22-3.19-5.41s-4.81-.6-5.18,1.5"/>
        <path class="cls-46" d="m317.4,135.68c-10.1,4.18-17.57,11.76-23.92,20.46-3.2,4.39-6.14,8.97-9.19,13.46-3.28,4.83-6.67,9.58-9.92,14.43-3.19,4.77-6.25,9.63-8.93,14.71-1.38,2.6-2.66,5.25-3.83,7.96-1.13,2.62-2.05,5.32-3.16,7.95-2.09,4.93-4.91,9.52-6.82,14.54-2.1,5.53-1.95,11.54-1.62,17.35.37,6.52.85,13.03,1.15,19.55s.61,12.68,1.44,18.97c1.52,11.56,4.96,22.66,11.78,32.22,13.15,18.42,34.33,29.02,56.07,33.55,12.77,2.66,25.85,3.51,38.87,3.67,6.7.08,13.3-.16,19.94-1.12s12.92-2.41,19.28-4.07c12.09-3.16,23.13-9.05,33.51-15.88,9.23-6.08,18.09-12.84,25.84-20.75,16.36-16.71,26.81-38.86,27.97-62.35.61-12.37-1.74-24.34-6.43-35.76-2.41-5.88-5.17-11.61-7.46-17.54-1.11-2.87-2.06-5.78-2.88-8.74s-1.58-5.8-2.84-8.54c-2.35-5.14-6.69-8.76-11.15-12.04-2.16-1.59-4.38-3.11-6.45-4.82-2.37-1.96-4.51-4.18-6.68-6.36-4.37-4.4-9.01-8.17-14.62-10.87-5.37-2.58-11.07-4.36-16.75-6.12-24.61-7.62-50.51-15.27-76.41-9.95-5.87,1.21-11.56,3.13-16.94,5.75-1.32.64-1.29,2.8,0,3.45,2.65,1.33,4.14,3.79,5.14,6.5,1.17,3.15,1.86,6.45,3,9.6,1.17,3.24,2.8,6.36,5.58,8.5,3.57,2.74,8.08,3.18,12.43,2.79s8.94-1.53,13.47-1.36c4.4.16,8.63,1.69,12.42,3.87,8.22,4.73,14.19,12.2,20.27,19.29,3.1,3.62,6.28,7.19,9.88,10.33s7.92,5.78,12.18,8.29c4.12,2.43,7.84,5.21,11.47,8.32,3.5,3,7.05,6.23,9.57,10.14,5.27,8.18,5.82,18.54,5.99,27.98.15,8.28-2.25,16.6-6.41,23.74-4.35,7.46-10.69,13.27-18.79,16.42-8.68,3.38-18.05,4.24-27.07,6.32-9.34,2.15-17.7,6.43-26.24,10.64-8.19,4.04-16.93,7.98-26.28,7.6-5.08-.2-10.18-1.23-15-2.81-4.43-1.45-8.87-3.18-13.14-5.03-4.08-1.77-8.07-3.92-11.25-7.08-2.92-2.9-4.99-6.57-6.47-10.38-1.59-4.09-2.64-8.37-3.49-12.66s-1.77-8.82-2.18-13.24c-.24-2.57-.05-5.02.82-7.47.82-2.29,2.07-4.41,3.28-6.52,2.32-4.06,4.39-8.25,6.25-12.54,3.91-9.03,7.01-18.37,9.86-27.77,1.4-4.62,2.74-9.26,4.09-13.9.65-2.25,1.31-4.5,1.98-6.75.64-2.14,1.21-4.31,2.23-6.31,1.91-3.7,4.88-6.59,7.66-9.63,1.51-1.65,2.94-3.38,4.45-5.03,1.49-1.64,3.05-3.34,4.05-5.33,1.1-2.19,1.45-4.47,1.09-6.89-.39-2.62-1.42-5.16-2.23-7.67-.86-2.66-1.71-5.31-2.57-7.97-.68-2.09-1.47-4.3-3.12-5.83-2.71-2.52-8.13-2.2-9.11,1.92-.6,2.5,3.26,3.57,3.86,1.06.24-1.03,1.81-.67,2.42-.16,1.67,1.39,2.14,4.23,2.77,6.18.86,2.66,1.72,5.31,2.57,7.97.75,2.33,1.93,4.96,1.51,7.46-.34,1.98-1.63,3.67-2.91,5.15-1.45,1.67-2.94,3.31-4.4,4.97-2.85,3.24-6.04,6.22-8.39,9.87-2.51,3.91-3.56,8.52-4.85,12.93-1.35,4.6-2.67,9.21-4.04,13.81-2.82,9.47-5.81,18.92-9.6,28.06-1.78,4.3-3.77,8.53-6.02,12.61-2.39,4.33-5.13,8.55-5.66,13.58-.51,4.8.78,9.84,1.6,14.55.76,4.38,1.65,8.75,2.97,13,1.26,4.07,2.92,8.12,5.35,11.64,2.59,3.77,6.01,6.77,9.95,9.08,4.02,2.35,8.42,3.99,12.77,5.64,4.72,1.78,9.35,3.54,14.33,4.47,4.92.92,9.89,1.38,14.86.71,4.64-.63,9.1-2.06,13.42-3.86,8.78-3.66,16.94-8.77,25.93-11.94,8.9-3.14,18.37-3.96,27.49-6.23,8.78-2.19,16.95-6.04,23.07-12.86,5.74-6.4,9.7-14.46,11.5-22.86.92-4.3,1.17-8.61,1.02-13-.17-5.01-.5-10.05-1.54-14.97-.98-4.65-2.65-9.38-5.35-13.32-2.73-3.98-6.28-7.33-9.93-10.44-3.72-3.18-7.53-6.1-11.74-8.59-4.2-2.49-8.39-4.9-12.06-8.16-13.61-12.08-23.25-32.05-43.31-34.25-4.6-.5-9.13.52-13.67,1.07-3.96.48-8.54.77-11.81-1.96-2.39-2-3.57-5.02-4.48-7.91-1.04-3.3-1.82-6.67-3.22-9.84-1.29-2.92-3.3-5.52-6.2-6.97v3.45c22.62-11.02,48.79-7.22,72.13-.8,6.24,1.72,12.42,3.63,18.6,5.54,5.53,1.71,11.11,3.43,16.3,6.04,2.59,1.31,5.11,2.82,7.37,4.66,2.28,1.86,4.35,3.97,6.42,6.05,2.04,2.05,4.09,4.09,6.34,5.9,2.11,1.69,4.32,3.25,6.5,4.84,4.2,3.08,8.17,6.5,10.18,11.44,1.09,2.7,1.74,5.55,2.54,8.34.88,3.04,1.95,6.02,3.13,8.96,4.51,11.23,10.17,21.92,12.19,33.99,3.78,22.54-3.03,46.41-16.3,64.77-6.22,8.61-13.96,16.07-22.3,22.62-8.86,6.97-18.49,13.35-28.64,18.26-5.44,2.64-11.09,4.7-16.94,6.21-6.28,1.62-12.63,3.06-19.06,3.96-6.35.89-12.7.99-19.1.9-6.28-.09-12.57-.34-18.83-.89-22.4-1.96-45.19-8.21-62.23-23.57-7.59-6.84-13.76-15.29-17.21-24.95-4.11-11.5-4.67-23.81-5.22-35.89-.29-6.38-.8-12.75-1.14-19.13-.17-3.22-.22-6.46.04-9.68.2-2.38.85-4.61,1.74-6.82,1.92-4.79,4.65-9.21,6.6-13.98,2.13-5.22,4.15-10.38,6.82-15.36,5.35-9.98,12.1-19.08,18.45-28.42,5.73-8.43,11.06-17.36,18.62-24.33,3.58-3.3,7.7-6.06,12.21-7.93,1-.41,1.71-1.33,1.4-2.46-.26-.94-1.46-1.81-2.46-1.4h0Z"/>
      </g>
      <path class="cls-12" d="m288.97,154.06c-13.49,18.27-34.36,46.69-36.4,60.59-2.04,13.9-7.13,28.31-3.92,55.25s3.21,40.55,21.83,59.92c16.65,17.32,34.93,16.9,56.11,23.28,21.18,6.38,36.11,6.15,64.49-.07,28.38-6.22,47.62-21.18,63.47-32.78,15.85-11.59,19.7-31.05,25.91-52.06,6.21-21.01,6.23-50.81-3.97-68.91-10.2-18.1-16.2-29.42-42.11-47.02-19.47-13.23-53.94-30.3-101.02-23.84-20.7,2.84-35.93,14.16-44.4,25.63Z"/>
      <g class="cls-68">
        <path class="cls-31" d="m286.06,245.07c5.12-9.07,9.6-18.41,13.6-28.02,1.75-4.19,3.74-8.26,3.51-12.92-.29-5.8-3.88-10.99-9.61-12.53-10.8-2.91-18.34,8.92-22.53,17.1-4.49,8.74-6.84,18.07-7.26,27.87-.27,6.21,5.48,11.5,11.5,11.5,6.45,0,11.23-5.27,11.5-11.5.39-9.06,3.8-19.1,10.52-25.47-1.69.99-3.38,1.97-5.07,2.96l.96-.37h-6.11l.77.18c-1.69-.99-3.38-1.97-5.07-2.96l.51.55-2.96-5.07c-.44-1.3.7-2.95-.37-1.55-.86,1.12-1.18,3.03-1.74,4.37-1.06,2.55-2.2,5.08-3.37,7.58-2.65,5.68-5.56,11.23-8.64,16.69-7.29,12.91,12.57,24.51,19.86,11.61h0Z"/>
      </g>
      <g class="cls-68">
        <path class="cls-31" d="m390.19,181.69c6.68,9.63,15.37,17.9,26.09,22.89,6.09,2.83,12.59,5.04,19.16,2.23,7.51-3.21,10.7-11.08,9.28-18.84-1.94-10.64-10.93-20.28-20.5-24.83-5.67-2.69-12.09-4.64-18.4-3.59-7.7,1.28-14.31,8.05-13.56,16.22.57,6.19,4.88,11.5,11.5,11.5,5.78,0,12.07-5.28,11.5-11.5l-.1.45-2.96,5.07c-2.86,3.7-4.49-.02-2.22.95.16.07,2.04.57,2.68.82,1.46.57,3.57,1.73,4.97,2.88.91.75,2.2,2.17,2.93,3.2,2.48,3.51.4,4.92,5.62-.09,7.45-7.15,4.56-2.59,2.42-4.03-.84-.57-1.94-.91-2.85-1.38-2.32-1.21-4.64-2.56-6.72-4.15-3.43-2.63-6.53-5.89-8.99-9.44-3.53-5.1-10.08-7.43-15.73-4.13-5.05,2.95-7.68,10.6-4.13,15.73h0Z"/>
      </g>
      <g class="cls-68">
        <path class="cls-31" d="m359.58,340.8c13.39,3.27,27.11,1.77,39.46-4.36,6.64-3.29,13.88-8.33,14.17-16.5.27-7.62-5.54-13.46-12.48-15.58-11.58-3.54-25.8-.53-35.89,5.72-5.34,3.3-12.11,8.4-14.05,14.68-2.95,9.56,5.77,19.45,15.71,16.31,14.06-4.44,8.06-26.65-6.11-22.18l-.73.23,8.86,1.16-.74-.4c1.38,1.38,2.75,2.75,4.13,4.13l-.38-.77,1.16,8.86c-1.26,2-1.2,2.2.18.6l1.1-1.01c.74-.61,1.63-1.23,2.48-1.75,2.2-1.35,4.37-2.32,6.84-3.01,2.53-.7,4.55-.96,7.31-.91.88.02,2.27.26,2.94.21-.4.16-.05.26,1.07.31-2.16-1.65-2.62-1.8-1.39-.45-.99-1.69-1.97-3.38-2.96-5.07l-.07-1.08c.52-1.93,1.05-3.87,1.57-5.8.06-.14,3.08-1.76-.83.5-1.16.67-2.31,1.37-3.52,1.95-2.26,1.07-4.67,1.79-7.1,2.34-4.84,1.09-9.84.87-14.64-.3-14.38-3.51-20.51,18.66-6.11,22.18h0Z"/>
      </g>
      <g class="cls-68">
        <path class="cls-31" d="m133.58,295.93c15.38-6.11,26.04-20.41,25.54-37.33-.13-4.31-3.01-8.57-7.34-9.64-19.08-4.71-27.37,20.48-27.9,35.03-.47,12.87,19.53,12.85,20,0,.12-3.4.69-6.58,1.91-9.79.5-1.31,1.12-2.54,1.81-3.76.41-.74.85-1.47,1.32-2.17,1.25-1.02.43-1.03-2.46-.02-2.45-3.21-4.89-6.43-7.34-9.64.22,7.32-3.68,15.19-10.85,18.04-5.02,1.99-8.53,6.69-6.98,12.3,1.31,4.77,7.25,8.99,12.3,6.98h0Z"/>
      </g>
      <g class="cls-68">
        <path class="cls-31" d="m149.92,60.82c8.86.63,16.91,4.61,23.17,10.83,9.13,9.09,23.28-5.05,14.14-14.14-10.14-10.09-23.11-15.68-37.31-16.69-5.39-.39-10,4.87-10,10,0,5.73,4.59,9.61,10,10h0Z"/>
      </g>
      <g class="cls-68">
        <path class="cls-31" d="m62.05,143.71c.62,11.35-.53,22.3-3.61,33.24-3.5,12.41,15.8,17.71,19.29,5.32,3.53-12.52,5.03-25.57,4.32-38.56-.7-12.8-20.7-12.88-20,0h0Z"/>
      </g>
      <g class="cls-68">
        <path class="cls-27" d="m320.51,138.64c-12.08,5.82-22.07,14.1-29.64,25.19-6.61,9.67-13.98,18.78-19.78,29.05-7.24,12.81-13.35,25.91-15.47,40.61-1.87,1.05-3.07.85-3.04-1.63,2.08-20.31,12.4-37.07,23.18-53.59,8.08-12.39,17.32-23.88,27.64-34.49,2.54-2.61,5.75-4.28,8.79-6.19,10.88-6.84,22.41-10.92,35.63-10.73,12.74.18,25.21,1.32,37.48,4.68.32.36.42.72.29,1.07-.13.34-.25.51-.36.51-4.58.21-8.98-1.01-13.42-1.81-11.6-2.09-23.29-1.11-34.94-1.2-.88,1-1.01,2.49-2.13,3.33-2.51,1.55-5.54,1.62-8.15,2.92-2.13.48-4.35.71-6.06,2.28Z"/>
        <path class="cls-3" d="m421.08,143.24c3.98,1.22,7.29,3.65,10.53,6.07,14.2,10.58,27.58,21.79,37.18,37.23,4.59,7.39,8.06,15.17,11.48,22.97,2.97,6.77,3.07,14.44,3.96,21.78.16,1.34.11,3.24-1.83,3.32-1.84.08-1.99-1.67-2.22-3.09-.58-3.54-1.15-7.09-1.76-10.62-2.91-16.91-10.87-31.29-21.55-44.52-7.11-8.81-16.55-15.04-24.19-23.24-3.55-3.81-9.42-4.67-13.09-8.63.05-.94.73-1.16,1.49-1.28Z"/>
        <path class="cls-61" d="m340.64,318.47c7.34-.24,13.93-2.09,19.71-7.14,5.71-4.99,13.36-5.12,20.4-5.65,6.07-.46,11.82-1.4,17.32-3.88,2.47-1.11,5.06-1.25,7.73-1.54-4.73,5.72-11.87,8.93-21.18,8.36-7.36-.46-13.57,2.04-19.58,5.58-2.66,1.57-5.02,3.5-8.26,4-3.5.54-5.11,3.89-7.69,5.83-2.79-.74-5.64.06-8.43-.32-1.82-.25-4.25-.32-4.34-2.74-.11-2.89,3.2-1.03,4.32-2.49Z"/>
        <path class="cls-27" d="m340.64,318.47c-.75.82-2.03,1.59-2.13,2.49-.15,1.38,1.4,1.53,2.51,1.66,2.72.3,5.55-.05,8.07,1.42-3.46,1.28-6.99,1.27-10.53.47-8.12-1.82-16.22-3.71-24.34-5.52-4.04-.9-7.29-3.44-10.92-5.17-5.38-2.58-10.03-2.4-14.33,1.89-1.41.27-2.13-.15-1.73-1.71.41-.49.83-.97,1.24-1.46,2.58-3.84,5.68-6.42,10.67-4.34,2.99.05,5.48,1.55,7.95,2.92,10.46,5.81,21.71,7.88,33.55,7.37Z"/>
        <path class="cls-39" d="m441.37,268.2c5.05,7.82,13,9.5,21.41,9.69,3.56.08,7.06-.4,10.26,1.61,1.17,3.21.1,4.15-3.04,3.02-5.02-.3-10.15,2.09-15.05-.53-4.77-2.56-9.92-2.67-15.12-2.6-1.84-.24-3.97-.01-4.23-2.71,1.27-2.81,2.24-5.86,5.74-6.78-.41-.39-.54-.77-.39-1.14.14-.37.29-.56.43-.56Z"/>
        <path class="cls-44" d="m252.57,231.87c1.02.54,2.03,1.09,3.05,1.63-4.01,15.27-2.77,30.66-1.01,46.06.42,1.16.7,2.62-.74,2.9-1.97.39-1.45-2.02-2.45-2.86-.34-.89-1.02-1.79-.97-2.65.49-9.33-3.7-18.48-.72-27.97.88-2.81-.13-6.15.24-9.19.33-2.74.28-5.77,2.6-7.92Z"/>
        <path class="cls-54" d="m331.87,160.34c8.49-.02,16.71,3.17,25.58-.49,5.1-2.1,10.75,1.86,14.84,6.12-.22.64-.64,1.08-1.28,1.3-11.47-1.81-23.03-2.48-34.63-2.81-2.03-.06-4.34.97-5.79-1.43-.83-1.5.07-2.17,1.28-2.69Z"/>
        <path class="cls-55" d="m287.24,313.99c.58.57,1.15,1.14,1.73,1.71-.16,2.73-1.3,5.17-2.98,7.14-3.27,3.86-3.72,7.97-2.22,12.61.34,1.05,1.13,2.14.55,3.38-1.12.51-2.17-.17-2.37-.92-1.45-5.28-5.77-7.58-10.03-9.95-2.11-1.17-4.05-2.5-5.32-4.58-.51-.83-.49-1.88.19-2.66.82-.94,1.67-.58,2.4.23.32.35.59.76.95,1.07,5.77,4.93,8.82,4.42,13.08-2.15,1.29-1.99,2.68-3.92,4.02-5.87Z"/>
        <path class="cls-2" d="m444.12,324.05c-6.96,6.2-14.37,11.54-23.14,15.19-6.16,2.56-12.34,5.16-18.45,7.89-.82-.68-2.17-1.08-1.34-2.6,14.82-5.51,28.87-12.45,41.47-22.11,1.39-.26,1.79.36,1.44,1.63Z"/>
        <path class="cls-47" d="m291.72,338.61c1.86.4,3.77.63,5.56,1.23,7.24,2.45,14.32,5.34,21.73,7.34,7.1,1.92,14.19,3.82,21.49,5.05-4.69,1.5-9.38,1.24-13.91-.13-9.82-2.96-19.55-6.2-29.33-9.28-2.38-.75-4.33-1.98-5.51-4.24,0,0-.02.03-.02.03Z"/>
        <path class="cls-59" d="m320.51,138.64c1.12-1.87,2.58-3.37,4.61-4.25,3.6,1.4,6.26.16,8.24-2.95,1.16-.44,2.32-.89,3.49-1.33,1.85,2.99,2.37,5.9-1.17,7.99-2.99,1.76-3.66,4.89-5.06,7.62-2.78,3.43,2.07,8.65-2.73,11.6-.15-3.79-.14-7.6-.49-11.37-.44-4.87-1.59-5.95-6.89-7.31Z"/>
        <path class="cls-49" d="m470,282.52c1.57-.45,2.63-1.41,3.04-3.02,1.87-6.3,2.81-12.87,5.48-18.94,1.91-.11,1.58-4.23,4.51-2.51-.89,8.32-4.38,15.91-6.67,23.84-.46,1.59-1.28,3.07-.65,4.78-3.3,1.72-6.16,2.59-5.7-2.95-.03-.4-.03-.8,0-1.2Z"/>
        <path class="cls-33" d="m401.2,344.53c.45.87.89,1.73,1.34,2.6-13.28,4.95-27,7.35-41.25,6.83,13.32-3.13,27.15-4.1,39.92-9.43Z"/>
        <path class="cls-37" d="m251.42,279.6c1.07.76,2.15,1.98,3.19-.04,3.76,8.97,5.64,20.11,4.65,27.52-2.82-3.92-7.48-20.26-7.84-27.48Z"/>
        <path class="cls-55" d="m299.14,308.19c-3.56,1.45-7.11,2.9-10.67,4.34,2.38-7.29.1-13.48-4.29-19.32-2.62-3.48-2.45-3.61-2.64-10.04,3.57,5.86,7.1,10.77,9.66,16.15,1.86,3.91,4.5,6.62,7.93,8.87Z"/>
        <path class="cls-19" d="m398.7,188.82c1.35-.8,2.93-1.07,3.77.35,4.08,6.88,11.18,10.7,16.35,16.47.16.4.31.8.47,1.2-.43-.07-.85-.13-1.28-.2-7.51-3.76-14.69-8.06-21.27-13.31.07-4.08.08-4.1,1.95-4.52Z"/>
        <path class="cls-45" d="m398.7,188.82c-1.39,1.19-.41,3.4-1.95,4.52-4.1-3.65-6.89-8.36-10.35-12.53-4.4-5.29-9.66-9.7-15.38-13.54.43-.43.86-.86,1.28-1.3,7.25,2.15,11.6,7.88,16.21,13.25,3.06,3.57,5.67,7.59,10.2,9.59Z"/>
        <path class="cls-39" d="m470,283.72c1.09,2.56,3.21,3.12,5.7,2.95-3.29,6.42-6.25,13.04-12.11,19.58-.8-5.45,1.36-8.62,2.82-11.82,1.59-3.47,1.29-7.52,3.59-10.71Z"/>
        <path class="cls-59" d="m331.87,160.34c-.43.9-.85,1.8-1.28,2.69-3.99,3.21-5.56,8.32-9.24,11.78-.86.81-1.5,1.88-2.43,2.57-.82.62-1.87.36-2.59-.4-.57-.6-.36-1.41.07-1.97,1-1.33,2.17-2.53,3.17-3.87,3-4.02,6.27-7.86,8.29-12.53.8-.7,1.62-.71,2.46-.07.52.6,1.04,1.2,1.56,1.8Z"/>
        <path class="cls-58" d="m439.77,253.41c-.04-.48-.28-1.05-.1-1.42,4.27-8.89.44-16.64-3.36-24.41-.42-.86-.73-1.77-1.09-2.66.19-.14.39-.29.58-.43,5.03,5.07,6.56,11.86,8.78,18.27,1.49,4.3-.71,8.3-1.91,12.34-1.83.91-3.1.88-2.9-1.69Z"/>
        <path class="cls-19" d="m435.22,224.93c-5.33-6.47-11.27-12.38-17.21-18.28.27-.33.54-.66.8-1,2.39-.03,4.87-.09,6.33,2.26,3.47,5.58,8.42,10.22,10.65,16.59-.15.2-.34.34-.58.43Z"/>
        <path class="cls-57" d="m304.7,201.94c1.41,4.97-1.27,9.16-2.51,13.66-1.56,5.7-3.14,11.35-6.18,16.48l.05.04c1.7-10.41,4.1-20.62,8.55-30.25l.09.08Z"/>
        <path class="cls-50" d="m290.62,243.7c-1.14,3.42-2.5,6.79-4.62,9.69-2.74,3.74-4.85,7.61-4.5,12.54-4.34-.97-3.75-3.47-2.26-5.86,3.51-5.66,7.23-11.2,10.87-16.78l.51.42Z"/>
        <path class="cls-28" d="m483.02,258.05c-1.59.68-2.2,3.11-4.51,2.51.9-4.64-.73-9.79,3.07-14.91,1.24,4.68,1.44,8.53,1.44,12.41Z"/>
        <path class="cls-56" d="m444.12,324.05c-.48-.54-.96-1.09-1.44-1.63,2.74-3.13,5.37-6.45,11.19-5.91-2.76,4.15-5.67,6.57-9.75,7.54Z"/>
        <path class="cls-62" d="m385.22,133.12c.02-.53.04-1.05.07-1.58,5.95,1.16,11.82,2.57,17.36,5.11,1.14.6,1.13,1.19-.03,1.75-5.89-1.44-11.95-2.37-17.39-5.29Z"/>
        <path class="cls-32" d="m435.6,276.68c1.41.9,2.82,1.8,4.23,2.71-2.51,1.72-4.29,4.59-8.3,5.01-.15-3.53,1.88-5.66,4.07-7.72Z"/>
        <path class="cls-59" d="m310.41,184.61c-1.55,5.89-2.77,11.89-5.71,17.33,0,0-.09-.08-.09-.08.43-6.25,1-12.45,5.88-17.18l-.09-.07Z"/>
        <path class="cls-4" d="m421.08,143.24c-.5.43-.99.85-1.49,1.28-3.11-1.88-7.2-1.17-10.03-3.78-1.14-.67-1.08-1.24.15-1.7,3.93,1,7.86,2.03,11.36,4.2Z"/>
        <path class="cls-21" d="m441.37,268.2c-.01.57-.02,1.13-.03,1.7-4.18-.65-3.04-3.6-2.68-6.21,1.05-.86-.09-2.9,1.79-3.31,1.03,2.52.79,5.19.93,7.82Z"/>
        <path class="cls-53" d="m330.31,158.54c-.82.02-1.64.05-2.46.07-.03-.43-.02-.86.04-1.29,2.55-3.48-.15-8.2,2.73-11.6-.1,4.27-.2,8.54-.31,12.82Z"/>
        <path class="cls-21" d="m439.77,253.41c.97.56,1.93,1.13,2.9,1.69-.34,1.06-.68,2.12-1.02,3.18-1.4.03-2.22,1.31-3.48,1.64-.52-2.43-1.34-4.94,1.61-6.52Z"/>
        <path class="cls-35" d="m290.11,243.29c.68-2.85,2.06-5.26,4.42-7.06.77.54.81,1.13.13,1.77-.5,2.5-1.99,4.3-4.04,5.7,0,0-.51-.41-.51-.41Z"/>
        <path class="cls-43" d="m409.72,139.04c-.05.57-.1,1.13-.15,1.7-2.32-.77-4.64-1.55-6.95-2.33,0-.58.02-1.17.03-1.75,2.49.41,4.99.78,7.08,2.38Z"/>
        <path class="cls-58" d="m438.16,259.93c.85-1.2,1.68-2.44,3.48-1.64-.4.7-.8,1.39-1.2,2.09-.59,1.1-1.19,2.21-1.78,3.31-.16-1.25-.33-2.5-.49-3.75Z"/>
        <path class="cls-59" d="m310.49,184.68c.1-1.46-.55-3.22,1.67-3.98.72,1.95-.84,2.79-1.75,3.91,0,0,.09.07.09.07Z"/>
        <path class="cls-47" d="m291.74,338.58c-.93-.1-1.88-.12-2.79-.34-.65-.16-1.35-.61-.79-1.44.11-.17.93-.05,1.28.16.8.47,1.52,1.09,2.27,1.65,0,0,.02-.03.02-.03Z"/>
        <path class="cls-57" d="m294.66,238c-.04-.59-.09-1.18-.13-1.77.09-1.53.58-2.91,1.53-4.12,0,0-.05-.04-.05-.04.1,2.1-.12,4.13-1.35,5.92Z"/>
        <path class="cls-66" d="m333.36,131.45c-.42,2.77-2.29,4.58-4.28,6.48-2.03-.37-2.76-2.24-3.97-3.53,2.75-.98,5.5-1.97,8.24-2.95Z"/>
        <path class="cls-17" d="m441.36,274.84c-.27.7-.8,1.07-1.49.79-.7-.29-.88-1-.53-1.63.17-.31.72-.61,1.06-.57.74.09,1.03.67.97,1.41Z"/>
      </g>
      <g class="cls-68">
        <path class="cls-25" d="m174.85,237.05c-1.52,16.05-7.93,30.47-15.18,44.54-3.1,6.01-8,10.71-13.21,14.97-14.95,12.2-32.16,15.47-50.56,11.22-9.25-2.13-18.12-5.98-25.24-12.91-3.75-3.65-7.97-6.84-11.97-10.23-1.24-1.11-.67-2.52-.63-3.84,2.17-3.89-1.27-6.38-2.4-9.46-.32-4.35-2.27-9.4,4.43-10.9,4.77,1.79,3.67,6.73,5.13,10.17,6.46,15.31,15.4,20.81,32.15,19.01,1.89-.2,3.7-1.04,5.66-.75,1.53.45,2.75,1.33,3.59,2.71.32.72.39,1.48.26,2.26-.83,2.67-2.54,4.55-5.11,5.63q-7.26,2.52-17.72-2.39c24.26,12.08,53.11,4.3,67.14-14.52,8.12-10.89,12.83-23.41,16.4-36.45,1.05-3.84-.24-9.07,5.13-10.98,1.27.02,1.8.85,2.1,1.92Z"/>
        <path class="cls-16" d="m45.75,270.21c-3.25-9.86-3.41-19.85-2.31-30.15,3.06-28.84,10.41-56.94,14.44-85.6,1.93-13.74,3.9-27.45,6.55-41.09,3.84-19.8,13.12-36.87,25.28-52.48,5.64-7.25,13.76-11.78,22-15.67,4.25-2,7.98-5.53,13.18-5.15,1.97.69,4.33-.38,6.07,1.37.24,4.6-3.52,4.22-6.3,5.13-13.74,4.46-26.9,9.78-34.43,23.38-1.97,2.88-1.98,6.96-5.43,8.95-11.52,16.72-15.3,36.08-18.07,55.53-3.69,25.85-8.21,51.53-13.2,77.16-3.44,17.67-6.48,35.53-2.95,53.65.28,1.44.29,2.86-.55,4.16-1.2,1.41-2.52,2.2-4.25.8Z"/>
        <path class="cls-26" d="m130.88,41.56c-2.07-.23-4.17-.29-6-1.49,6.94-1.84,14.11-2.44,21.19-2.85,39.64-2.27,60.62,34.82,59.3,60.34-.93,17.98-5.92,34.7-10.23,51.76-.76.44-1.48.37-2.14-.21-2.32-2.85-.61-6.01-.7-9.03,1.59-8.46,4.42-16.68,5.58-25.2,2.37-17.32,2.7-34.25-8.54-49.48-11.95-16.2-28.02-22.26-47.45-21.22-3.95.21-8.2,1.84-11.01-2.63Z"/>
        <path class="cls-25" d="m193.58,149.34c.52,0,1.04,0,1.56,0-2.13,5.83-4.36,11.63-6.35,17.51-.71,2.09-7.77,29.02-9.07,37.9-1.24,8.48-1.42,17.17-4.68,25.28-.83.41-1.62.33-2.36-.23-1.01-.86-1.59-1.96-1.75-3.28,1.53-14.02,5.75-27.6,6.88-41.71.2-2.48.8-4.78-.55-7.06-.59-1.13-1.16-2.27-1.06-3.61,1.19-2.99,1.67-5.97,1.69-9.32.06-12.1,2.56-24.12,1.28-36.29-.31-2.95,1.73-5.43,1.79-8.31-.02-.83-.03-1.67-.06-2.49-1.33-5.89,3.45-10.39,3.63-15.94.02-3.64-.42-7.49,4.09-9.12.86-.06,1.62.18,2.3.7,1.43,1.43,2.83,2.89,2.87,5.09-2.07,10.05-3.06,20.31-5.15,30.36-2.04,9.85-1.22,19.87-2.23,29.77.42-2.51.52-5.16,2.16-7.32,1.47-1.16,2.82-2.61,4.99-1.94Z"/>
        <path class="cls-1" d="m45.75,270.21c.97-.47,1.94-.94,2.91-1.41,8.27.29,9.6,6.81,11.5,12.81-.49,1.01-.98,2.02-1.47,3.03-1.58-2.03-3.1-4.11-4.76-6.08-1.47-1.75-2.54-3.97-5.34-4.18-2.49-.19-2.59-2.3-2.85-4.17Z"/>
        <path class="cls-69" d="m174.14,230.03c.3.02.6.01.9-.01.31,2.35.33,4.7-.19,7.03-.44-.56-.88-1.13-1.31-1.69-1.45-1.96-1.58-3.78.6-5.33Z"/>
        <path class="cls-17" d="m60.16,281.61c-4.5-3.67-7.31-8.87-11.5-12.81-3.87-6.81-3.71-14.35-3.22-21.69.99-14.8,3.16-29.47,6.11-44.02,4.51-22.25,8.45-44.6,11.3-67.14,1.35-10.69,3.8-21.19,6.3-31.66,1.96-8.2,5.64-15.74,9.74-23.06,1.26-2.24,2.35-4.86,5.55-5.04,5.01.23,7.43-3.17,9.98-6.73,8.54-11.88,20.16-19.98,34.77-16.67,13.65,3.09,27.36,7.93,38.85,16.86,3.75,2.92,7.5,5.82,10.94,9.17,6.65,6.48,11.13,13.42,8.01,23.16-1,5.39-1.99,10.77-2.99,16.16-5.21-2.74-4.55-7.97-5.1-12.54-1.47-12.22-9.05-21.76-20.21-24.44.54,3.57,3.24,5.13,5.27,7.22,5.7,5.89,3.96,16.82-3.16,20.48-4.73-1.48-5.98-6.12-7.44-9.72-3.41-8.37-8.99-15.05-14.88-21.5-5.02-5.51-17.67-8.3-23.88-4.43-6.17,3.85-13.39,7.86-12.21,17.46.46,3.71-2.09,6.71-3.7,9.85-1.08.77-2.35,1.24-3.37,2.12.86-.59,1.74-1.15,2.78-1.38,6.05,1.67,4.59,8.05,7.39,11.75,3.54,6.23,7.53,11.98,12.5,17.35,5.46,5.89,12.87,7.08,19.23,10.62,4.25,2.36,14.12-3.78,17.31-9.33,1.11-1.93,1.27-4.1,2.07-6.1,3.13-4.53.7-10.3,3.3-14.93,4.05-1.52,5.21,1.15,5.49,4.2.52,5.73,1.33,11.41,2.58,16.99,1.76,7.83-9.46,16.84-16.33,19.5-2.65,1.03-5.51,1.6-9.47,1.22,2.26,1.95,4.09,2.61,6,3.16,15.9,4.61,18.48,8.86,18.66,25.19.13,11.97-4.96,20.96-12.68,29.18-2.03,2.17-4.4,3.83-7.27,4.3-4.33.7-7.61,2.48-9.44,6.68-.85,1.95-2.73,2.54-4.81,2.4-4-.74-3.95-4.32-4.93-7.14-2.37-6.8-4.63-13.64-10.31-18.62-9-7.9-17.13-7.07-24.64,2.19-7.19,8.86-12.47,18.6-15.08,29.74-2.03,8.68-.48,16.62,4.97,23.74.58.76-.18-.15.47.54,2.74,2.87,2.46,8.3,7.07,9.37,5.22,1.22,9.69-2.05,14.29-3.78,2.4-.9,5.03-1.56,7.22-3.07,10.53-5.63,15.7-14.9,17.91-26.22.42-2.07-.11-4.41,1.73-6.07,15.95-1.88,24.48-12.07,31.3-25.7,3.83-7.65,3.42-15.16,4.74-22.85,1.22-7.11,4.35-13.76,4.66-21.37.32-7.87,1.27-15.64-.09-23.5-.49-2.84.16-5.7,1.31-8.4,2.31-5.43,4.83-6.19,10.5-3.12-2.07,16.49-2.74,33.06-2.6,49.66.03,3.09-1.33,4.83-3.5,6.43,2.01,19.03-4.68,34.94-17.46,48.66-4.83,5.71-11.15,9.67-16.97,14.21-10.85,8.46-19.19,18.44-22.36,32.31-1.44,6.28-4.27,12.12-9.15,16.81-2.51,2.41-5.23,3.94-8.53,4.64-13.83,4.48-25.38-2.23-37.17-7.63-1.46-.67-1.81-2.11-1.89-3.63-.32-6.53-2.28-12.71-4.12-18.91-6.98-11.46-6.49-23.73-4.02-36.25,1.68-8.52,7.25-14.91,11.82-21.85,7.96-14.92,15.11-30.03,16.89-47.28,1.06-10.23,1.94-20.3.04-30.46,5.4-4.27,9.2-3.99,11.41,2.31,2.35,6.68,5.61,10.82,12.44,10.28-3.38-3.06-7.42-6.49-10.31-10.95-3.42-5.28-7.69-6.76-13.29-3.55-3.8-3.56-1.16-8.12-1.85-12.17-.45-2.62.97-5.16.72-7.31-1.26,9.08-.69,18.39,1.72,27.93,2.6,10.28.57,21.28-1.67,31.19-3.11,13.76-8.01,27.44-15.82,39.64-13.41,16.19-16.79,34.15-10.94,54.45,1.28,4.43.86,9.62,2.81,14.18.82,3.23,2.97,6.44.23,9.75Z"/>
        <path class="cls-17" d="m174.14,230.03c-.2,1.78-.4,3.55-.6,5.33-2.4,10.97-5.4,21.72-9.66,32.18-6.04,14.81-15.36,26.91-29.84,33.46-13.29,6.02-27.68,7.65-41.93,2.29-6.36-2.39-12.77-4.89-17.54-10.25,5.22.55,10.28,1.53,15.01,3.68,3.77,1.72,7.32,2.07,10.79-.58,1.87-.96,4.15-1.14,5.63-2.87l.02-.02c7.71-8.62,12.54-18.47,15.44-29.82,1.86-7.29,5.91-14.46,13.51-18.23,7.92.74,11.73-5.33,16.19-10.03,4.5-4.73,9.76-8.71,13.72-13.96,1.65-2.19,3.42-4.18,6.47-3.02,2.97,1.13,3.14,3.84,3.14,6.53,0,.96-.09,1.89-.62,2.72.09.86.18,1.72.27,2.59Z"/>
        <path class="cls-18" d="m134.31,247.07c-7.22,5.94-11.64,13.6-13.66,22.66-2.14,9.56-6.09,17.96-14.63,23.52-.94-.46-1.89-.92-2.83-1.38,9.1-7.08,13.84-16.35,16.45-27.66,1.97-8.54,7.51-15.98,14.54-21.74,7.95-6.52,16.3-12.57,23.84-19.6,1.35-.38,1.96.41,2.39,1.51-6.71,9.86-14.32,18.67-26.1,22.7Z"/>
        <path class="cls-27" d="m59.94,271.85c-3.1-4.2-4.28-9.15-4.89-14.12-1.14-9.23-2.78-18.36-1.33-27.85,1.63-10.69,6.84-19.23,13.58-27.18.92.13,1.46.66,1.61,1.58-7.77,10.21-13.41,21.2-13.06,34.5.15,5.73.72,11.38,3.12,16.66.93,2.04.87,4.15,1.05,6.26-1.99.93-1.42,2.57-1.14,4.13.36,2.01.71,4.02,1.07,6.02Z"/>
        <path class="cls-18" d="m106,293.27c-1.35,1.99-3.12,3.16-5.63,2.87,1.61-1.48,3.49-2.42,5.63-2.87Z"/>
        <path class="cls-71" d="m191.17,152.58c-1.91,5.33-3.81,10.66-5.72,15.99-.4-.03-.81-.05-1.21-.08-.15-1.74-.36-3.48-.43-5.23-.87-21.65,2.05-42.94,6.05-64.13.61-2,.86-4-.17-5.95l-.02-.07c-11.68-18.47-28.24-30.31-49.19-36.12-1.12-.31-2.23-.66-3.27-1.09-14.58-6.02-29.78-1.89-39,10.69-1.55,2.12-3.11,4.24-4.85,6.21-1.35,1.53-3.05,2.61-5.04,1.47-2.35-1.35-2.28-3.34-.79-5.41,3.57-6.7,9.03-11.55,15.34-15.51,8.69-5.45,17.8-9.94,28.01-11.79,2.62-.12,5.28.02,7.85-.39,15.13-2.41,29.31.3,41.41,9.61,13.86,10.66,21.79,24.87,22.58,42.85.72,16.31-2.61,31.82-7.69,47.1-4.02,3.06-2.61,7.88-3.86,11.84Z"/>
        <path class="cls-64" d="m87.53,68.86c.26,1.39.24,2.99,1.98,3.48,1.29.37,2.39-.26,3.21-1.15,1.29-1.4,2.64-2.82,3.6-4.45,6.08-10.3,16.86-12.75,26.99-16.25.84-.29,1.93-.16,2.84.05,21.3,5.07,41.2,12.9,56.31,29.64,3.32,3.68,6.96,7.42,7.21,12.92-2.22,2.55-.57,6.27-2.67,8.85,1.14-8.15-2.71-14.27-7.96-19.89-9.37-10.04-20.67-17.01-33.54-21.59-4.06-1.44-8.1-2.92-12.15-4.37-6.87-2.45-13.36-2.12-20.17,1.04-7.23,3.35-13.03,7.85-17.17,14.61-1.66,2.71-3.81,4.89-7.09,5.71-1.83.46-3.3.25-4.47-1.31-.18-2.95.95-5.35,3.08-7.33Z"/>
        <path class="cls-48" d="m191.17,152.58c-1.73-8.01-1.45-8.89,3.86-11.84-.48,2.87-.96,5.73-1.44,8.6-.8,1.08-1.61,2.16-2.41,3.24Z"/>
        <path class="cls-17" d="m183.77,119.15c-6.59,1.69-9.55,4.65-8.18,11,2.54,11.82-1.04,23.35-.44,35.01.13,2.48-.71,4.67-2.42,6.55-3.22,3.56-3.81,7.45-1.72,11.91,2.16,4.61,1.93,8.79-3.05,11.75-.94.56-2.01,1.79-2.08,2.78-.42,6.06-6.53,9.51-6.97,15.5-.02.23-.11.51-.27.66-6.34,5.88-13.62,10.32-21.63,13.45-2.53.99-3.56-1.77-4.74-3.52-.37-.29-.52-.6-.43-.93.09-.34.19-.51.3-.51,2.06-1.61,2.6-3.9,2.87-6.33.38-3.46,2.54-4.93,5.83-5.1,9.84-.49,14.84-6.47,18.95-14.86,3.09-6.3,4.24-12.53,4.24-19.23,0-9.38-5.28-15.99-14.5-17.47-4.18-.67-7.86-1.33-10.47-5.09-1.74-2.52-5.04-2.28-7.74-2.89.54-2.7,2.23-1.81,3.48-1.85,4.54-.14,9.03-.67,13.51-1.44,6.39-1.11,10.14-5.98,14.43-10.01,1.38-1.29,1.8-3.44,1.55-5.38-.97-7.55-2.07-15.09-3.12-22.64-1.09-.73-1.14-1.63-.44-2.66.76-1.76,1.79-3.45,2.23-5.28,1.24-5.09,1.48-9.95-3.68-13.46-1.74-1.18-2.97-3.1-4.51-4.61-1.83-1.8-2.61-3.99-2.53-6.49.06-1.85-.46-4.12,1.83-4.98,1.79-.67,3.25.58,4.38,1.82,2.21,2.43,4.92,3.7,8.11,4.18,1.71.26,3.18,1.16,4.26,2.49,5.56,6.83,10.34,14.07,11.57,23.06.62,4.5,1.08,9.02,1.61,13.53.04.37-.04.71-.25,1.03Z"/>
        <path class="cls-48" d="m134.31,247.07c5.78-4.85,11.64-9.6,17.31-14.58,2.83-2.48,5.78-4.9,7.9-8.1,1.17-4.36,5.23-6.75,7.18-10.57,4.54-8.94,9.03-17.83,7.9-28.45-.39-3.63-.23-7.83,4.95-8.72,1.8,2.33,1.61,5.05,1.05,7.59-2.92,13.36-3.65,27.02-5.92,40.46-.16.93-.54,1.83-.81,2.74-.14-1.18-.07-2.44-.46-3.53-1.35-3.74-3.53-4.38-6.3-1.61-5.71,5.7-11.53,11.32-16.72,17.47-4.36,5.16-9.25,8.07-16.07,7.31Z"/>
        <path class="cls-45" d="m179.54,176.65c-3.59,2.76-4.33,6.6-4.26,10.83.24,14.64-5.21,26.87-15.76,36.91-.5-.51-1-1.01-1.5-1.52,2.4-4.17,6.42-7.08,8.6-11.46,4.19-8.42,8.11-16.8,7.26-26.65-.31-3.58.25-7.26,3.78-9.53.63.47,1.25.94,1.88,1.41Z"/>
        <path class="cls-64" d="m189.69,93.18c1.24,1.95,1.2,3.94.17,5.95-.06-1.98-.11-3.97-.17-5.95Z"/>
        <path class="cls-17" d="m88.76,286.05c-6.47.96-12.62-.14-15.3-6.5-3.47-8.23-9.86-15.62-7.78-25.77,1.11-5.43-1.28-10.11-5.23-14.21-4.21-4.36-4.02-6.95.49-10.83,2.66-2.28,4.73-4.58,5.3-8.14.23-1.44,1.24-2.86,2.99-2.23,1.82.66,1.62,2.36.67,3.53-2.92,3.61-2.68,8.09-3.59,12.24-.97,4.42-.72,8.62,3.52,11.54,2.01,1.38,2.45,3.29,2.2,5.64-.52,4.88,1.51,8.8,4.93,12.16,3.06,3,6.16,5.78,6.07,10.84-.06,3.27,3.23,3.62,5.41,2.59,5.42-2.54,11.7-2.66,16.73-6.19.76-.54,1.68-.92,2.58-1.18,1.25-.36,2.39,0,3.1,1.15.73,1.18.48,2.64-.49,3.25-4.54,2.85-7.49,7.26-11.22,10.88-2.67,2.59-6.89,1.03-10.37,1.24Z"/>
        <path class="cls-17" d="m146.35,186.75c-.11,6.04-3.44,8.6-8.44,6.2-4.49-2.15-9.44-3.6-13.5-6.01-4.89-2.9-9.19-7.69-11.85-13.06-1.69-3.41-2.71-7.07-5.68-9.74-.87-.78-1.47-2.06-.71-3.24.91-1.41,2.46-1.45,3.84-.93,1.31.5,2.68,1.17,3.66,2.13,7.1,7,15.86,11.26,24.76,15.33,1.51.69,2.87,1.71,4.33,2.52,2.86,1.6,3.77,4.15,3.6,6.79Z"/>
        <path class="cls-1" d="m152.86,198.76c-2.2,3.42-4.66,5.18-8.4,5-3.13-.15-6.25-.42-9.12-1.74-9.42-4.36-17.81-10.05-24.91-17.81-6.87-7.51-12.9-15.37-16.22-25.12-.81-2.38-1.18-4.55-.16-6.94,1.87-4.39,4.2-5.83,8.97-5.29,4.14.47,7.84,2.14,11.39,4.19,9.14,5.27,18.14,10.76,28.86,12.42,3.33.52,6.19,2.57,8.97,4.42,4.35,2.89,6.49,7.07,5.57,12.34-.79,4.54-1.19,9.3-5.08,13.91-.58-4.1.97-6.66,1.62-9.35,2.73-11.24-2.84-15.56-12.5-17.5-.64-.13-1.89-.04-1.95.19-1.79,6.66-4.81,1.47-6.39.29-6.52-4.86-14.06-8.23-19.99-13.97-2.26-2.18-5.56-2.69-8.68-3.12-6.89-.95-9.56,2.05-7.67,8.64,1.07,3.72,2.78,7.19,4.93,10.36,8.06,11.89,17.93,21.81,31.13,28.02,7.56,3.56,10.89,3.8,19.63,1.06Z"/>
        <path class="cls-20" d="m132.15,222.8c.04.48.09.96.13,1.44-.14,2.35-.28,4.69-.42,7.04-4.03.29-5.3-2.34-5.94-5.61-1.14-8.97-4.01-17.22-10.58-23.74-6.86-6.81-13.28-7.02-19.85-.07-11.63,12.33-17.55,26.7-13.22,43.85,3.15,12.44,9.99,15.7,21.88,11.07,2.58-1,5.07-3.06,8.06-1.02.86.76,1.4,1.63.91,2.82-4.43,2.91-9.36,4.82-14.26,6.66-6.65,2.5-10.41,1.15-14.87-4.02-11.04-12.83-11.75-26.96-6.21-42.29,3.24-8.97,8.47-16.52,14.79-23.42,7.46-8.16,16.88-8.28,25.25-.95,6.79,5.95,10.36,13.57,12.69,22,.57,2.07,1.09,4.16,1.63,6.24Z"/>
        <path class="cls-17" d="m85.88,123.7c.23-.68.35-1.41.7-2.02,4.41-7.61,6.15-7.75,11.19-.63,4.29,6.06,9.3,11.45,14.58,16.63,2,1.96,4.44,3.61,5.89,7.27-5.69-2.81-11.05-3.63-16.7-3.2-4.51.34-5.71-.87-6.75-5.49-.26-1.16-.27-2.38-.54-3.53-1.02-4.28-3.18-7.44-8.02-7.83-.4-.18-.58-.41-.55-.71.03-.33.1-.49.21-.49Z"/>
        <path class="cls-60" d="m160.73,107.85c.15.89.29,1.77.44,2.66-.33,5.78,1.35,11.78-1.86,17.24-.71.51-1.45.56-2.23.15-1.41-.92-1.99-2.31-2.2-3.9-.46-4.17-.11-8.38-.53-12.56-1.77-13.69-9.9-23.79-19.74-32.24-10.83-9.3-25.14-4.23-29.52,9.59-1.81,5.72-1.28,11.31.61,16.9.89,2.63,2.71,5.27.56,8.14-.79.83-1.67,1.33-2.84.82-3.49-3.69-3.16-9.05-5.78-13.12-.48-.21-.65-.44-.51-.7.14-.26.28-.4.44-.4.36-3.07.75-6.14,1.07-9.21,1.1-10.37,6.07-18.03,16.08-21.54,9.94-3.49,18.85-.94,26.19,6.39,9.04,9.02,16.08,19.39,19.81,31.78Z"/>
        <path class="cls-40" d="m85.88,123.7c.05.42.16.82.35,1.2,3.19,12.38.13,24.71-.4,37.06-.12,2.79-1.12,5.62-2.11,8.29-3.31,8.96-6.76,17.88-10.23,26.78-1.05,2.69-2.69,5.05-4.58,7.24-.54-.53-1.08-1.05-1.61-1.58,6.29-11.86,12.14-24.22,14.76-37.19,2.6-12.87,4.53-26.25.72-39.73-2.96-10.51-.65-21.19,2.19-31.59.14,9.86-1.98,19.76.91,29.51Z"/>
        <path class="cls-17" d="m96.35,181.49c-.08,2.85-6.27,11.27-9.08,12.19-1.29.43-2.59.12-3.05-1.09-1.28-3.36-2.66-6.95-.07-10.21,2.28-2.87,4.2-5.78,4.87-9.44.28-1.53,1.22-2.68,2.92-2.58,1.54.09,2.78.92,3.08,2.53.51,2.82.88,5.66,1.33,8.6Z"/>
        <path class="cls-49" d="m157.28,127.78c.68,0,1.35-.02,2.03-.02-1.85,6.33-5.91,10.81-11.7,13.78-4.23,2.17-8.46,2.35-13.14.91-14.69-4.52-24.29-14.5-31.03-27.79.44-.45.88-.9,1.32-1.35,3.74-1.69,5.16,1.41,6.9,3.51,4.29,5.17,8.53,10.39,14.05,14.35,10.04,7.2,17.16,6.81,25.98-1.59,1.68-1.6,3.17-2.95,5.61-1.79Z"/>
        <path class="cls-36" d="m129.26,224.19c.87,2.36,1.74,4.72,2.61,7.08-1.02,12.68-7.78,21.44-18.73,27.31-.46-.44-.91-.88-1.37-1.32-1.52-3.24.92-5,2.82-6.62,6.68-5.7,10.95-12.53,11.32-21.55.09-2.16.71-4.32,3.36-4.91Z"/>
        <path class="cls-17" d="m97.57,100.43c.13.36.16.72.08,1.09-.65,3.07-3.15,4.63-5.26,6.53-1.72,1.54-3.36,1.73-4.9-.16-1.68-2.05-1.26-4.78,1.02-6.15,2.8-1.69,5.99-1.21,9.06-1.31Z"/>
        <path class="cls-17" d="m135.4,64.09c-.21.06-.46.22-.62.16-.18-.07-.42-.35-.4-.52.06-.67.43-.79.91-.3.13.13.07.44.1.67Z"/>
        <path class="cls-17" d="m129.26,224.19c.56,8.5-.37,16.74-6.29,23.33-3.28,3.66-7.44,6.52-11.21,9.75-3.3,1.39-6.58,2.84-9.92,4.16-8.36,3.3-14.93,1.18-19.64-6.65-6.51-10.82-6.57-22.25-2.48-33.88,3.06-8.7,7.71-16.42,14.27-22.99,6.5-6.51,13.04-6.99,20.45-1.36,9.17,6.97,13.55,16.47,14.81,27.66Z"/>
        <path class="cls-17" d="m157.28,127.78c-.71.95-1.52,1.84-2.12,2.85-6.17,10.41-14.7,12.36-27.72,5.89-7.81-3.88-13.41-10.5-18.51-17.46-1.4-1.91-2.79-3.84-4.18-5.76-3.95-8.2-5.65-16.66-3.04-25.64,2.21-7.58,6.72-12.98,14.34-15.67,8.38-2.96,15.56-.41,21.78,5.01,6.86,5.97,12.05,13.42,16.52,21.33,2.13,3.77,2.55,8.16,3.9,12.21.68,4.29.57,8.59.06,12.89-.34,1.45-.69,2.9-1.03,4.35Z"/>
        <path class="cls-49" d="m158.31,123.43c-.02-4.3-.04-8.59-.06-12.89,1.56,4.29,1.58,8.59.06,12.89Z"/>
        <path class="cls-3" d="m95.56,249.49c.43-3.85,5.29-5.02,4.54-8.81-.65-3.27-1.66-6.47-2.37-9.74-.51-2.33-.86-4.71-1.15-7.08-.12-.99.41-1.91,1.42-2.24,1.07-.35,1.9.27,2.28,1.19,3.11,7.5,4.35,15.19,1.65,23.07-.91,2.66-3.02,3.99-6.37,3.61Z"/>
        <path class="cls-29" d="m134.61,122.43c-1.41-1.27-2.01-1.55-2.05-1.89-.98-8.43-3.92-15.72-11.42-20.54-.81-.52-1.34-1.61-.82-2.51.86-1.49,2.16-.69,3.06-.05,8.27,5.88,11.68,13.99,11.23,24.99Z"/>
      </g>
      <line class="cls-9" x1="449.81" y1="214.25" x2="521.72" y2="214.25"/>
      <line class="cls-8" x1="449.81" y1="213.25" x2="521.72" y2="213.25"/>
      <text class="cls-70" transform="translate(531.77 217.32)"><tspan class="cls-67" x="0" y="0">D</tspan><tspan class="cls-23" x="10.72" y="0">es</tspan><tspan class="cls-42" x="25.07" y="0">c</tspan><tspan class="cls-23" x="32.14" y="0">ending</tspan><tspan x="0" y="19.2">thin limb </tspan><tspan class="cls-42" x="63.55" y="19.2">c</tspan><tspan class="cls-23" x="70.62" y="19.2">ell</tspan></text>
      <line class="cls-9" x1="175.27" y1="59.3" x2="237.18" y2="59.3"/>
      <line class="cls-8" x1="175.27" y1="58.3" x2="237.18" y2="58.3"/>
      <text class="cls-70" transform="translate(247.22 62.37)"><tspan class="cls-67" x="0" y="0">D</tspan><tspan class="cls-23" x="10.72" y="0">es</tspan><tspan class="cls-42" x="25.07" y="0">c</tspan><tspan class="cls-23" x="32.14" y="0">ending </tspan><tspan class="cls-38" x="83.02" y="0">v</tspan><tspan x="90.65" y="0">asa </tspan><tspan class="cls-65" x="115.81" y="0">r</tspan><tspan x="120.88" y="0">e</tspan><tspan class="cls-14" x="128.89" y="0">c</tspan><tspan x="136.27" y="0">ta</tspan></text>
      <text class="cls-70" transform="translate(501.78 385.36)"><tspan x="0" y="0">10 m</tspan></text>
      <line class="cls-5" x1="582" y1="347.67" x2="582" y2="368.36"/>
      <g>
        <path class="cls-7" d="m615.52,340.85c-7.07,2.22-10.1,6.67-11.56,11.14s-2.71,9.37-.83,15.21c1.87,5.83,4.79,9.48,9.89,12.08,5.1,2.6,7.6,2.92,13.02,1.77s14.16-4.89,16.98-11.14c2.81-6.25,2.81-15.31-2.6-23.02-5.42-7.71-17.6-8.33-24.89-6.04Z"/>
        <g class="cls-52">
          <g class="cls-24">
            <g class="cls-24">
              <path class="cls-17" d="m641.01,360.54c-.03-1.61-.16-3.21-.46-4.56.19.26.36.56.53.86.5,1.07.01,2.4-.08,3.7Z"/>
              <path class="cls-17" d="m640.92,365.11h0s.08-1.96.08-1.96c.02-.65.03-1.28.03-1.91,0,.09.02.17.03.26.12.59.21,1.19.21,1.8,0,.63-.09,1.24-.34,1.82Z"/>
              <path class="cls-17" d="m630.12,381.47c.57-.77,1.24-1.53,1.78-2.39.46-.87.87-1.81,1.16-2.76.27-.26.49-.65.74-.82-.02-.02.4-.36.92-.79.52-.43,1.13-.94,1.55-1.29-.05.96-.05,1.95.07,2.98.48-.13,1.34-.57,1.53-.31.54,1.11.14,2.33-.46,3.46-.16.07-1.34.49-2.76.92-.36.11-.73.22-1.1.33l-.58.17c-.26.07-.56.16-.74.18-.85.15-1.53.22-2.1.33Z"/>
              <path class="cls-17" d="m624.74,381.7c-1.46-.04-3.45-.3-4.32-.61.55-.22,1.05-.56,1.6-.92-.48-.14-.76-.27-1.16-.36.11-.06.23-.1.33-.17,1.02-.11,2.24-.38,3.36-.63,1.14-.27,2.28-.57,3.4-.89-.05.18-.68.94-1.4,1.69-.72.76-1.53,1.48-1.82,1.89Z"/>
              <path class="cls-17" d="m629.07,381.33c-.54.12-1.03.24-1.5.35-.94.05-1.88.06-2.83.02.58-.84,1.39-1.73,2.38-2.57-.16.03-.34-.28-.49-.25.71-.36,1.23-.41,1.33-.77,1.02-.3,2.1-.62,2.93-.97.09-.04.21-.09.27-.12.06-.04.06-.04.17-.11l.65-.39c.43-.27.85-.54,1.26-.83-.22.49-.67.59-1.04.8.34.21.62.07.86-.17-.3.95-.7,1.89-1.16,2.76-.54.86-1.21,1.63-1.78,2.39l-.48.05c-.16-.14-.31-.29-.57-.19Z"/>
              <path class="cls-17" d="m642.8,363.69c.75,1.4,1.83,2.36,3.01,3.3-.15.43-.53,1.23-.37,1.93-.13.58-.44,1.49-.86,2.33-.39.83-.98,1.63-.89,1.84.02.14.05.02.06-.26.03-.32.1-.88.02-1.42-.13-1.12-.71-2.21-1.11-2.78-.62-.26-1.05-.83-1.45-1.44.07-.17.46.03.54-.14-.06,0-.48-.39-.48-.39,0,0,.04-.34.09-.76.04-.43.08-.95.1-1.32.68-.32.2-1.25.06-1.28l.03-.63v-.02c.21.28.4.56.59.85.16.17.66.18.66.18Z"/>
              <path class="cls-17" d="m637.88,376.08c.54,1.11.14,2.33-.46,3.46.42-.16,1.46-.62,1.57-.68-.27-.15-.62-.26-.47-.5.49-.51,1.08-1.14,1.49-1.47.58-.33,1.38-.51,2.06-.86.37-.48.72-.98,1.02-1.49.03-.03-.11-.57-.26-.71.27-.29.56-.52.86-.75,0-.04,0-.21.11-.67.09-.43.13-.98.05-1.51-.13-1.07-.65-2.01-1.19-2.28-.62-.26-1.05-.83-1.45-1.44,0,.04-.33,1.55-.6,2.02.12.03.46-.09.53-.15-.03.11-.62.53-.78.6-.03.1-.87,1.08-.91,1.17-.09.11.34.11.6.33-.74.17-1.38.41-1.94.74l-.39.34c-.12-.06-.21-.09-.16-.14.05-.1.11-.2.18-.29-.23.22-1.31,1.05-1.6,1.25.34-.16.69-.29,1.08-.39-.29.24-.58.49-.88.72l-.03.04c-.05.95-.04,1.94.07,2.97.48-.13,1.34-.57,1.53-.31Z"/>
              <path class="cls-17" d="m631.52,342.76c-.69-.59-1.93-1.23-2.66-1.49-.56-.22-.75-.19-.84-.22-.09,0-.1-.02-.32.06.44-.23.95-.24,1.44-.25.49,0,.98.04,1.45.12.96.15,1.89.39,2.8.69.92.3,1.81.65,2.71,1.1.46.24.89.44,1.41.87.46.39.76.69,1.13,1.07-.27-.1-.52-.27-.78-.44-.13-.09-.26-.18-.39-.28-.17-.11-.35-.24-.5-.32-.64-.34-1.23-.49-1.71-.44-.04.07.21.29.31.43-.95-.28-2.39-.91-2.51-.65-.07.16.09.48.09.78l-.29-.19c-.27-.27-.78-.52-1.34-.85Z"/>
              <path class="cls-17" d="m636.06,347c-.22-.32-.45-.63-.68-.95-.04-.11-.33-.39-.6-.63.03-.07.06-.15.08-.23.17.15.35.3.47.43.19.18.13.16.31.38.29.37.57.73.83,1.11-.14-.05-.27-.08-.41-.11Z"/>
              <path class="cls-17" d="m635.56,343.66c-.1-.15-.35-.37-.31-.43.48-.05,1.08.1,1.71.44.16.08.34.21.5.32.13.09.26.18.39.28.27.17.52.34.78.44,1.08,1.11,1.99,2.39,2.79,3.6-.23-.16-.45-.31-.68-.47.47.67-.2,1.24.21,1.92-1.01-.75-1.91-1.81-2.86-2.67-.47-.43-.95-.82-1.42-1.12-.23-.16-.47-.29-.7-.4-.23-.1-.33-.07-.56-.11-.62-.55-1.49-1.1-2.29-1.65,0-.3-.16-.62-.09-.78.12-.26,1.56.37,2.51.65Z"/>
              <path class="cls-17" d="m640.97,349.76c-.41-.68.25-1.25-.21-1.92.23.16.45.32.68.47.47.7.91,1.38,1.37,2.03.46.69.9,1.11,1.53,2.2.05.14.11.27.16.4.54,1.47.85,2.62.95,3.91-.76-.76-1.53-1.47-2.3-2.1.18-.83.22-1.78-.11-2.75-.22-.82-.47-1.62-.81-2.43.24.58-.41.79-.36,1.12,0,1.32-.74,3.16-1.63,3.03-.73-1.1-1.36-2.26-1.94-3.33-.57-1.09-1.11-2.07-1.72-3,.03-.21.06-.53,0-.63-.39-.46-.87-1.07-1.14-1.3.23.04.34.01.56.11.22.12.47.25.7.4.48.3.95.69,1.42,1.12.95.85,1.85,1.92,2.86,2.67Z"/>
              <path class="cls-17" d="m643.15,354.74c.77.62,1.54,1.33,2.3,2.1.01.32.02.66,0,1.01.14-.01.28-.03.4-.15l.09.72c-.06.3-.53.59.1.96l.07,1c-.17.35-.42.63-.77.81h.49c.34.33,0,.66.01.99.09,0,.23,0,.33.03-.2.78-.21,1.66-.18,2.44.04.78.11,1.46.09,1.66-.1.23-.2.45-.29.69-1.17-.94-2.25-1.9-3.01-3.3,0,0-.5-.02-.66-.18-.19-.29-.39-.57-.59-.85.44-.82.44-1.78.32-2.51-.12-.74-.36-1.26-.36-1.3l-.05-.68c0-.64.14-1.47.06-2.28-.06-.79-.4-1.59-1.03-1.78l-.08-.15-.16-.24c.89.13,1.63-1.71,1.63-3.03-.05-.34.02-1.56.36-1.12.25.41.45.93.62,1.46.08.27.16.54.23.82.06.25.17.65.21.93.14,1.22-.16,2.03-.13,1.98Z"/>
              <path class="cls-17" d="m614.78,378.49c-.44-.3-.89-.65-1.17-1.14.3.52.8.89,1.09,1.02.21.16.48.3.74.44-.22-.08-.44-.19-.67-.32Z"/>
              <path class="cls-17" d="m615.9,378.62c.14.05.3.09.45.14-.03.07-.36.04-.63-.11-.03.05.29.11.28.14-.04.08-.2.01-.39-.08.06-.11.34-.15.56-.09l.3.08c-.18-.02-.46-.07-.55-.08Z"/>
              <path class="cls-17" d="m620.87,379.81c.4.1.68.22,1.16.36-.55.36-1.05.7-1.6.92-1.44-.48-2.74-1.06-4.05-1.7.25.08.49.16.72.19-.28-.11-.56-.22-.79-.35.06.01.12.01.17,0h0c.2.09.37.15.41.04.02-.04-.31-.07-.28-.14.28.14.61.16.64.07l-.45-.13c.1-.02.37.05.56.05,1.28.31,2.69.58,3.84.52-.1.07-.22.12-.33.17Z"/>
            </g>
          </g>
        </g>
        <g class="cls-52">
          <g class="cls-24">
            <g class="cls-24">
              <path class="cls-17" d="m611.16,351.05c.7-.95,1.47-1.82,2.29-2.59-.09.26-.18.52-.27.77-.33.81-1.35,1.1-2.02,1.82Z"/>
              <path class="cls-17" d="m609.49,353.95h0c.39-.9.87-1.71,1.38-2.48-.03.06-.06.11-.08.17-.26.87-.54,1.66-1.3,2.31Z"/>
              <path class="cls-17" d="m614.31,366.36c-1.35.09-2.91-.56-4.16-2-.11-.1-.32-.18-.35-.27-.02,0-.11-.13-.24-.4-.12-.25-.3-.64-.4-.94.8.14,1.66.2,2.61.26.09-.29.1-.86.4-.95,1.2-.2,2.08.13,2.86.84,0,.07-.04.34-.11.77-.05.23-.08.45-.16.76-.04.15-.08.3-.13.45l-.09.13c-.34.35-.37.96-.22,1.35Z"/>
              <path class="cls-17" d="m615.33,368.54c.37.64.95,1.6,1.26,1.94-.38.12-.8.23-1.29.31.13.29.21.51.42.71l-.29.04c-1.33-.63-2.68-1.37-3.89-2.64.18-.05,1.03.04,1.83-.01.82-.05,1.57-.17,1.97-.34Z"/>
              <path class="cls-17" d="m614.22,366.85c.13.19.32.34.46.49.18.38.39.79.65,1.2-.78.35-1.69.54-2.68.4.06.08-.14.36-.07.43-.52-.25-.7-.57-1.06-.48-.27-.31-.52-.65-.77-.99-.21-.39-.45-.77-.61-1.21-.13-.45-.33-.9-.35-1.39-.05-.42-.07-1.18-.12-1.08.08.02.13.04.16.06.02.01.03.02.04.04,0,.06,0,.1,0,.16,0,.21-.03.41-.02.62.34-.19.35-.47.26-.75,1.26,1.44,2.81,2.1,4.16,2l.06.18c-.13.12-.24.25-.14.32Z"/>
              <path class="cls-17" d="m611.58,353.82c.3,1.13,1.17,2.05,2.26,2.76-.17.13-.52.41-.29.72-.07.25-.19.49-.31,1.06,0,.03-.06.26-.1.39-.02.03,0,.09-.07.09h.03s0,.02,0,.02c0,0,0,0,.02.02.03.04.09.07.19.08.23.02-.25,0-.83-.32-.17-.55-.55-.76-.85-1.04-.32-.27-.61-.53-.83-.73-.64-.2-1.1-.66-1.43-1.23.08-.13.44.11.54-.01-.06-.02-.42-.4-.42-.4,0,0,.38-.99.63-1.44.7.05.53-.69.42-.78.07-.13.14-.26.22-.38h.01c.07.26.17.53.25.79.1.17.54.4.54.4Z"/>
              <path class="cls-17" d="m612.17,362.06c1.2-.2,2.08.13,2.86.84.03-.34.06-1.13.06-1.2-.25.16-.5.37-.65.24-.24-.38-.52-.81-.59-1.07,0-.37.27-.82.41-1.15-.15-.2-.29-.37-.43-.5,0,0-.46-.02-.67,0-.02-.13.07-.19.16-.25-.02,0-.13-.02-.31-.09-.09-.04-.18-.06-.29-.13-.05-.05-.13-.01-.15-.16-.02-.14-.05-.33-.11-.38-.22-.34-.51-.55-.79-.8-.28-.23-.57-.43-.85-.54-.64-.2-1.1-.66-1.43-1.23,0,0-.03.09-.08.21-.05.13-.1.3-.15.49-.11.38-.22.86-.26,1.07.12,0,.42-.13.48-.19,0,.04-.13.17-.26.29l-.09.04h-.02s-.01.01-.01.01c0,0-.02,0,.02,0l.21.04c.11.02.08.01.13.02.23.02.45.06.67.11.21.05.42.11.62.18l.14.06.07.03h.02s0,.01,0,.01h0s-1.91-.7-1.91-.7h0s0,0,0,0l-.03.05c-.04.07-.07.12-.1.16-.13.34-.23.9-.24,1.34,0,.44.04.77.07.82.02.14.32-.18.65-.2-.4.61-.55,1.2-.57,1.72l.09.39c-.11.07-.18.12-.2.07-.06-.07-.11-.14-.16-.22.05.28.27,1.18.32,1.35.02-.22.06-.49.16-.76l.21.68.02.02c.8.14,1.65.2,2.6.26.09-.29.1-.86.4-.95Z"/>
              <path class="cls-17" d="m625.59,347.71c.25.18.58.4.88.58.3.21.55.45.73.6.23.3.3.37.33.41.04.04.02.06.17.09-1.12-.3-2.04-.17-3.02-.04-.97.15-1.95.36-2.91.62.42-.58,1.28-.59,1.67-1.19,0-.07-.18-.13-.28-.2.52-.31,1.45-.3,1.46-.59.01-.18-.15-.41-.23-.68l.22.05c.22.13.59.21.99.36Z"/>
              <path class="cls-17" d="m621.21,346.55c.55,0,1.11.04,1.66.12.01.08.03.15.06.23-.64-.09-1.29-.11-1.92-.07.07-.09.14-.18.2-.28Z"/>
              <path class="cls-17" d="m623.15,348.56c.09.07.28.13.28.2-.39.61-1.25.62-1.67,1.19-.75.19-1.48.44-2.21.7.1-.14.2-.28.31-.42-.41.15-.7-.67-1.13-.53,1.01-1.27,2.77-1.76,3.75-2.66.63.02,1.27.08,1.91.25.08.27.24.5.23.68-.02.28-.94.28-1.46.59Z"/>
              <path class="cls-17" d="m618.72,349.71c.43-.13.73.68,1.13.53-.1.14-.21.28-.31.42-.83.31-1.68.65-2.39,1.03-.05,0-.11.02-.16.03-.16.04-.23.09-.33.13-.02.01-.06.03-.01,0h.02s0-.02,0-.02h0s-.03-.06-.03-.06c-.09-.15-.18-.29-.29-.43-.1-.14-.22-.27-.34-.4l-.18-.18-.05-.04-.02-.02h-.01s0-.02,0-.02h0c2.05,2.12.57.59,1.03,1.06h0s-.08.09-.08.09c-.2.22-.4.43-.64.62-.18-.72-.36-1.52-.37-2.19,1.12.33,2.11.65,3.1.62-.35,0-.46-.66-.67-.73-.8-.48-1.98-1.82-1.86-2.56,1.51-.49,2.99-.76,4.54-.83.13.13.31.34.39.34.42-.06.85-.07,1.28-.07-.98.9-2.74,1.39-3.75,2.66Z"/>
              <path class="cls-17" d="m615.68,350.29c.01.67.19,1.47.37,2.19-.12.1-.25.2-.4.28.1.09.21.18.35.23l-.2.27c-.14.05-.6-.15-.25.38-.08.13-.18.26-.25.39-.24.02-.52-.01-.86-.14l.41.28c.18.31-.17.26-.24.4.08.05.19.12.28.19-.72.4-.7,1.5-.74,1.64-.12.06-.21.12-.31.19-1.09-.71-1.96-1.63-2.26-2.76,0,0-.45-.23-.54-.4-.08-.26-.18-.53-.25-.79.66-.29,1.01-.79,1.23-1.26.23-.45.31-.87.33-.9l.32-.36c.34-.31.91-.55,1.39-.88l.19-.14c.14-.11.28-.21.43-.3.18-.12.23-.13.31-.18.08-.04.16-.09.23-.14.3-.2.5-.4.69-.71l.36-.12c-.12.75,1.06,2.08,1.86,2.56.21.07.94.58.67.73-.51.15-1.26-.02-1.92-.23-.65-.21-1.22-.41-1.19-.39Z"/>
              <path class="cls-17" d="m619.34,372.63c.27.14.56.28.85.39-.32-.12-.63-.28-.81-.31-.13-.07-.29-.14-.45-.21.13.03.27.07.41.13Z"/>
              <path class="cls-17" d="m618.61,372.75l-.28-.07c.03-.07.24-.07.41.01.03-.05-.18-.05-.16-.08.04-.08.14-.04.25,0-.05.11-.25.19-.39.17l-.19-.04c.12,0,.29.02.36,0Z"/>
              <path class="cls-17" d="m615.72,371.5c-.21-.2-.28-.43-.42-.71.48-.07.9-.19,1.29-.31.54.63,1.16,1.17,1.85,1.63-.14-.05-.28-.1-.41-.12.15.08.3.17.43.26-.04,0-.08,0-.11.02h0c-.11-.06-.2-.1-.25,0-.02.04.19.04.15.11-.15-.11-.36-.1-.4-.02l.26.1c-.07.02-.24-.01-.36,0-.78-.24-1.55-.55-2.31-.89l.29-.04Z"/>
            </g>
          </g>
        </g>
        <g class="cls-41">
          <path class="cls-63" d="m617.18,340.64c-1.57.33-6.5,2.23-9.17,5-2.86,2.97-4.86,8.65-5.31,14.11-.09,1.13.41,6.37,1.35,7.81,2.08,3.16,1.53-4.58,1.72-8.12.36-7.01,2.87-9.69,4.49-11.25,3.47-3.33,12.33-8.7,6.91-7.55Z"/>
        </g>
        <g class="cls-41">
          <path class="cls-15" d="m618.51,349.51c-1.6.1-3.24-.24-5.63,2.77-1.27,1.61-3.23,4.86-2.42,10.28.62,4.17,4.91,7.11,4.82,5.4-.11-2.07-2.59-3.1-3.08-6.61-.55-3.9.51-6.89,1.77-8.75,2.71-3.97,7.4-3.27,4.53-3.08Z"/>
        </g>
        <path class="cls-10" d="m615.52,340.85c-7.07,2.22-10.1,6.67-11.56,11.14s-2.71,9.37-.83,15.21c1.87,5.83,4.79,9.48,9.89,12.08,5.1,2.6,7.6,2.92,13.02,1.77s14.16-4.89,16.98-11.14c2.81-6.25,2.81-15.31-2.6-23.02-5.42-7.71-17.6-8.33-24.89-6.04Z"/>
        <g class="cls-52">
          <g class="cls-24">
            <g class="cls-24">
              <path class="cls-17" d="m632.88,367.41c.31-.4.59-.83.85-1.28,0,.13-.01.26-.02.39-.06.42-.54.62-.83.9Z"/>
              <path class="cls-17" d="m631.94,368.4h0c.29-.26.56-.53.81-.82-.01.02-.02.04-.04.07-.13.36-.36.68-.77.76Z"/>
              <path class="cls-17" d="m626.7,374.07c.38-.81.46-1.61.62-2.48.09-.11.17-.28.26-.34-.02-.02.63-.52.99-.73-.04.43-.03.89.05,1.37.18-.01.51-.1.58.04.22.57.1,1.05-.05,1.5-.05.01-.46.07-.93.18-.45.1-1.04.3-1.52.46Z"/>
              <path class="cls-17" d="m624.76,374.19c-.5,0-1.19-.1-1.47-.12.13-.18.27-.37.44-.58-.17-.05-.29-.1-.46-.09l.11-.12c.8-.27,1.5-.57,2.39-.87-.1.22-.84,1.4-1.01,1.78Z"/>
              <path class="cls-17" d="m626.22,374.03l-.18.04-.1.03-.22.07c-.31.02-.63.02-.96.02.15-.42.38-.87.7-1.28-.05.01-.13-.14-.19-.12.24-.18.43-.19.49-.37.28-.1.42-.23.7-.43.25-.2.58-.45.89-.67-.07.22-.24.24-.38.33.15.11.25.06.34-.05-.16.87-.24,1.67-.62,2.48l-.21.04c-.08-.07-.15-.13-.26-.08Z"/>
              <path class="cls-17" d="m632.89,368.76c-.04.6.06,1.24.21,1.92-.16.05-.47.11-.56.35-.33.22-1.08.48-1.08.72,0,.25.25-1.2.22-1.82-.15-.3-.16-.62-.14-.93.06-.02.14.18.21.17-.02-.02-.07-.28-.07-.28,0,0,.37-.26.53-.41.3.17.33-.21.28-.26l.14-.13h0c.02.13.03.26.03.39.02.09.2.27.2.27Z"/>
              <path class="cls-17" d="m629.2,371.93c.22.57.1,1.05-.05,1.5.14-.03.5-.1.53-.11-.1-.1-.24-.2-.19-.29.16-.16.37-.36.51-.43.21-.05.5.01.75,0,.14-.13.28-.26.41-.4,0,0-.01-.26-.06-.35.11-.06.23-.09.36-.1,0-.04.49-1.27.22-1.82-.15-.3-.16-.62-.14-.93,0,0-.49.29-.74.42.04.05.2.11.24.11-.03.02-.37,0-.49.01-.16.08-.55.3-.57.33-.05.03.13.12.21.27-.31-.08-.58-.1-.84-.04l-.18.09s-.08-.07-.06-.09c.03-.04.06-.07.09-.1-.11.05-.59.28-.72.34.14-.03.3-.05.46-.04-.13.07-.25.14-.38.21h-.01c-.04.44-.02.9.05,1.38.18-.01.51-.1.58.04Z"/>
              <path class="cls-17" d="m636.42,360.76c.2-.27.37-.73.5-.98.15-.39.12-.23.12-.4.27,1.33.14,2.62-.05,3.94-.16-.38,0-.91-.24-1.23-.04,0-.09.09-.14.14-.06-.35.04-.89-.11-.91-.09-.02-.21.06-.35.08l.05-.11c.09-.11.13-.31.23-.52Z"/>
              <path class="cls-17" d="m635.32,362.92c.12-.26.22-.54.35-.81.04,0,.08,0,.12,0-.15.32-.26.64-.38.96-.03-.05-.06-.11-.09-.15Z"/>
              <path class="cls-17" d="m636.61,362.23c.05-.05.1-.15.14-.14.24.32.08.85.24,1.23-.08.5-.18,1.01-.31,1.51-.03-.1-.05-.2-.08-.3-.07.28-.48.2-.57.46-.17-.92.02-1.95-.26-2.61.12-.32.24-.65.37-.98.14-.02.27-.1.35-.08.14.03.05.56.11.91Z"/>
              <path class="cls-17" d="m636.04,364.99c.09-.26.51-.18.57-.46.03.1.05.2.08.3-.14.58-.32,1.16-.53,1.74-.02.04-.05.07-.07.1-.23.41-.37.79-.64,1.15-.13-.41-.26-.81-.38-1.2.6-.28,1.12-.71,1.46-1.28-.12.2-.42.03-.51.11-.47.27-1.38.24-1.6-.06.33-.71.62-1.46.92-2.23.09-.04.22-.08.23-.13.07-.24.14-.46.21-.67.28.66.09,1.7.26,2.61Z"/>
              <path class="cls-17" d="m635.07,366.62c.12.39.25.79.38,1.2-.07.09-.15.18-.24.26.06.04.12.08.19.08l-.13.22c-.09.07-.34,0-.19.29l-.2.3c-.15.05-.31.04-.49-.02l.19.16c.05.2-.16.19-.24.28.03.03.08.08.12.12-.52.3-.98,1-1.1,1.1-.09.02-.18.04-.27.06-.16-.68-.25-1.32-.21-1.92,0,0-.17-.18-.2-.27,0-.13-.02-.26-.03-.39.32-.05.54-.28.63-.5.1-.22.13-.42.13-.43l.12-.19c.29-.3.98-.74.79-1.41l.08-.17c.23.3,1.13.34,1.6.06.1-.08.55-.31.51-.11-.12.34-.48.69-.82.93-.35.23-.66.36-.64.35Z"/>
              <path class="cls-17" d="m621.16,374.04c-.18-.02-.39,0-.54-.12.16.14.39.1.5.1.09,0,.19,0,.3,0-.08.02-.16.03-.25.04Z"/>
              <path class="cls-17" d="m621.51,373.81l.16-.04s-.1.09-.21.1c0,.03.11-.02.11,0,0,.04-.06.06-.13.06,0-.06.07-.15.15-.17l.1-.03c-.06.04-.15.07-.18.1Z"/>
              <path class="cls-17" d="m623.28,373.4c.16,0,.28.04.46.09-.17.2-.3.4-.44.58-.51-.03-1-.03-1.51-.03.09-.01.17-.04.25-.07-.1.01-.21.02-.3.02.02-.01.04-.02.05-.04h0c.07,0,.14-.02.13-.07,0-.02-.11.04-.11,0,.11,0,.21-.06.21-.11l-.16.04s.12-.07.18-.1c.45-.13.9-.26,1.35-.42l-.11.12Z"/>
            </g>
          </g>
        </g>
        <path class="cls-6" d="m628.52,353.75v15.41h-4.16v-6.47h-1.25v6.47h-4.16v-15.41h4.16v5.51h1.25v-5.51h4.16Z"/>
      </g>
      <line class="cls-5" x1="468.09" y1="347.67" x2="468.09" y2="368.36"/>
      <line class="cls-11" x1="467.68" y1="358.02" x2="581.68" y2="358.02"/>
    </g>
  </g>
</svg>