<?xml version="1.0" encoding="UTF-8" standalone="no"?>
<!DOCTYPE svg PUBLIC "-//W3C//DTD SVG 1.1//EN"
 "http://www.w3.org/Graphics/SVG/1.1/DTD/svg11.dtd">
<!-- Generated by graphviz version 2.47.0 (20210316.0004)
 -->
<!-- Title: dependencies Pages: 1 -->
<svg width="504pt" height="284pt"
 viewBox="0.00 0.00 504.00 284.00" xmlns="http://www.w3.org/2000/svg" xmlns:xlink="http://www.w3.org/1999/xlink">
<g id="graph0" class="graph" transform="scale(1 1) rotate(0) translate(4 280)">
<title>dependencies</title>
<polygon fill="white" stroke="transparent" points="-4,4 -4,-280 500,-280 500,4 -4,4"/>
<text text-anchor="start" x="227.01" y="-42.4" font-family="Times-12" font-weight="bold" font-size="14.00">Legend</text>
<polygon fill="#ffffb3" stroke="transparent" points="14,-10 14,-30 34,-30 34,-10 14,-10"/>
<text text-anchor="start" x="37.63" y="-15.4" font-family="Times-12" font-size="14.00"> &#160;Declarations</text>
<polygon fill="#8dd3c7" stroke="transparent" points="127,-10 127,-30 147,-30 147,-10 127,-10"/>
<text text-anchor="start" x="150.73" y="-15.4" font-family="Times-12" font-size="14.00"> &#160;Module</text>
<polygon fill="#80b1d3" stroke="transparent" points="213,-10 213,-30 233,-30 233,-10 213,-10"/>
<text text-anchor="start" x="236.78" y="-15.4" font-family="Times-12" font-size="14.00"> &#160;Bootstrap</text>
<polygon fill="#fdb462" stroke="transparent" points="310,-10 310,-30 330,-30 330,-10 310,-10"/>
<text text-anchor="start" x="333.67" y="-15.4" font-family="Times-12" font-size="14.00"> &#160;Providers</text>
<polygon fill="#fb8072" stroke="transparent" points="406,-10 406,-30 426,-30 426,-10 406,-10"/>
<text text-anchor="start" x="429.73" y="-15.4" font-family="Times-12" font-size="14.00"> &#160;Exports</text>
<g id="clust1" class="cluster">
<title>cluster_CardWithHeaderModule</title>
<polygon fill="none" stroke="black" stroke-dasharray="1,5" points="55,-70 55,-268 441,-268 441,-70 55,-70"/>
</g>
<g id="clust5" class="cluster">
<title>cluster_CardWithHeaderModule_exports</title>
<polygon fill="none" stroke="black" points="150,-208 150,-260 346,-260 346,-208 150,-208"/>
</g>
<g id="clust4" class="cluster">
<title>cluster_CardWithHeaderModule_imports</title>
<polygon fill="none" stroke="black" points="263,-78 263,-130 433,-130 433,-78 263,-78"/>
</g>
<g id="clust2" class="cluster">
<title>cluster_CardWithHeaderModule_declarations</title>
<polygon fill="none" stroke="black" points="63,-78 63,-130 255,-130 255,-78 63,-78"/>
</g>
<!-- CardWithHeaderComponent -->
<g id="node1" class="node">
<title>CardWithHeaderComponent</title>
<polygon fill="#ffffb3" stroke="black" points="247.45,-122 70.55,-122 70.55,-86 247.45,-86 247.45,-122"/>
<text text-anchor="middle" x="159" y="-99.8" font-family="Times,serif" font-size="14.00">CardWithHeaderComponent</text>
</g>
<!-- CardWithHeaderModule -->
<g id="node2" class="node">
<title>CardWithHeaderModule</title>
<polygon fill="#8dd3c7" stroke="black" points="325.67,-187 322.67,-191 301.67,-191 298.67,-187 170.33,-187 170.33,-151 325.67,-151 325.67,-187"/>
<text text-anchor="middle" x="248" y="-164.8" font-family="Times,serif" font-size="14.00">CardWithHeaderModule</text>
</g>
<!-- CardWithHeaderComponent&#45;&gt;CardWithHeaderModule -->
<g id="edge1" class="edge">
<title>CardWithHeaderComponent&#45;&gt;CardWithHeaderModule</title>
<path fill="none" stroke="black" d="M208.95,-122.11C208.95,-122.11 208.95,-140.99 208.95,-140.99"/>
<polygon fill="black" stroke="black" points="205.45,-140.99 208.95,-150.99 212.45,-140.99 205.45,-140.99"/>
</g>
<!-- CardWithHeaderComponent  -->
<g id="node4" class="node">
<title>CardWithHeaderComponent </title>
<polygon fill="#fb8072" stroke="black" points="338.45,-252 157.55,-252 157.55,-216 338.45,-216 338.45,-252"/>
<text text-anchor="middle" x="248" y="-229.8" font-family="Times,serif" font-size="14.00">CardWithHeaderComponent </text>
</g>
<!-- CardWithHeaderModule&#45;&gt;CardWithHeaderComponent  -->
<g id="edge3" class="edge">
<title>CardWithHeaderModule&#45;&gt;CardWithHeaderComponent </title>
<path fill="none" stroke="black" stroke-dasharray="5,2" d="M248,-187.11C248,-187.11 248,-205.99 248,-205.99"/>
<polygon fill="black" stroke="black" points="244.5,-205.99 248,-215.99 251.5,-205.99 244.5,-205.99"/>
</g>
<!-- CardButtonLongModule -->
<g id="node3" class="node">
<title>CardButtonLongModule</title>
<polygon fill="#8dd3c7" stroke="black" points="425.43,-122 422.43,-126 401.43,-126 398.43,-122 270.57,-122 270.57,-86 425.43,-86 425.43,-122"/>
<text text-anchor="middle" x="348" y="-99.8" font-family="Times,serif" font-size="14.00">CardButtonLongModule</text>
</g>
<!-- CardButtonLongModule&#45;&gt;CardWithHeaderModule -->
<g id="edge2" class="edge">
<title>CardButtonLongModule&#45;&gt;CardWithHeaderModule</title>
<path fill="none" stroke="black" d="M298.18,-122.11C298.18,-122.11 298.18,-140.99 298.18,-140.99"/>
<polygon fill="black" stroke="black" points="294.68,-140.99 298.18,-150.99 301.68,-140.99 294.68,-140.99"/>
</g>
</g>
</svg>
