<svg width="48" height="48" viewBox="0 0 48 48" fill="none" xmlns="http://www.w3.org/2000/svg">
<g clip-path="url(#clip0_2342_11295)">
<path d="M24.005 48.0099C37.2625 48.0099 48.0099 37.2625 48.0099 24.005C48.0099 10.7474 37.2625 0 24.005 0C10.7474 0 0 10.7474 0 24.005C0 37.2625 10.7474 48.0099 24.005 48.0099Z" fill="#201E3D"/>
<path d="M30.6966 21.9174C30.5314 21.729 30.2482 21.6819 29.9886 21.6701C29.7289 21.6701 29.4693 21.7054 29.2215 21.623C28.7259 21.4699 28.478 20.9283 28.183 20.4808C27.5812 19.5506 26.5545 18.8912 25.4452 18.7499C25.1502 18.7146 24.7962 18.6675 24.6782 18.3967C24.631 18.3025 24.631 18.1848 24.631 18.0788C24.6192 17.8315 24.572 17.5607 24.3831 17.3958C24.1943 17.231 23.8403 17.2545 23.7577 17.49C23.6869 17.6902 23.8403 17.8904 23.9229 18.0788C24.1589 18.6322 23.3801 18.7382 23.026 18.8088C22.4832 18.9266 21.9286 18.9737 21.4093 19.1856C20.7367 19.4447 20.1702 19.9628 19.8398 20.5986C19.651 20.9518 19.4622 21.4111 19.0609 21.4228C18.8721 21.4228 18.6597 21.3404 18.5299 21.4582C18.3765 21.5877 18.4709 21.835 18.6007 21.9763C18.7305 22.1176 18.9075 22.2589 18.9193 22.459C18.9193 22.5885 18.8603 22.7063 18.8013 22.824C18.2113 23.9662 18.2349 24.5196 18.3647 25.8031C18.4827 26.9688 18.8367 27.4516 18.9193 27.6282C18.9901 27.793 18.9429 27.9814 18.8839 28.1581C18.8249 28.3229 18.7423 28.4995 18.7659 28.6762C18.7895 28.8528 18.9547 29.0294 19.1318 28.9823C19.297 28.9352 19.356 28.7115 19.474 28.5937C19.6746 28.3936 20.0168 28.4642 20.241 28.6408C20.4534 28.8174 20.5833 29.0765 20.7721 29.2884C21.2677 29.8654 22.0702 30.0774 22.8372 30.0891C23.5925 30.1127 24.3595 29.9714 25.1148 30.0185C25.1384 30.0185 25.162 30.0185 25.1856 30.0185C25.1856 30.0656 25.1974 30.1127 25.1974 30.1598C25.1974 30.2775 25.1266 30.3717 25.0794 30.4777C25.0322 30.5719 25.0204 30.6897 25.0794 30.7838C25.1502 30.8898 25.3154 30.9134 25.4216 30.8545C25.5396 30.7956 25.6104 30.6779 25.6694 30.5601C25.752 30.3953 25.7874 30.2187 25.7992 30.042C26.1061 30.042 26.4129 30.0185 26.6607 29.8536C26.8731 29.7123 27.0265 29.5122 27.2153 29.3473C27.6048 29.0058 28.124 28.8645 28.5134 28.5349C28.9501 28.1581 29.1625 27.5811 29.3513 27.0277C29.4929 26.957 29.6581 27.0983 29.8115 27.1101C30.0358 27.1101 30.1774 26.8157 30.083 26.6038C29.9886 26.3918 29.7643 26.2859 29.5401 26.227C29.6463 25.5205 29.6463 24.7904 29.5401 24.084C29.4929 23.766 29.4221 23.4363 29.4811 23.1184C29.5519 22.8005 29.8115 22.4944 30.1302 22.5061C30.2836 22.5061 30.437 22.5768 30.5786 22.5297C30.8264 22.459 30.8618 22.0822 30.6966 21.8938V21.9174ZM23.7459 27.3103C22.5776 27.3103 21.6217 26.3683 21.6217 25.1908C21.6217 24.0133 22.5658 23.0713 23.7459 23.0713C24.926 23.0713 25.87 24.0133 25.87 25.1908C25.87 26.3683 24.926 27.3103 23.7459 27.3103Z" fill="#FCFCFC"/>
<path d="M10.9375 24.2915H15.4583" stroke="white" stroke-width="0.7" stroke-linecap="round" stroke-linejoin="round"/>
<path d="M10.2891 25.5835V23.0002" stroke="white" stroke-width="0.7" stroke-linecap="round" stroke-linejoin="round"/>
<path d="M37.4609 24.292L32.9401 24.292" stroke="white" stroke-width="0.7" stroke-linecap="round" stroke-linejoin="round"/>
<path d="M38.1094 23L38.1094 25.5833" stroke="white" stroke-width="0.7" stroke-linecap="round" stroke-linejoin="round"/>
</g>
<defs>
<clipPath id="clip0_2342_11295">
<rect width="48" height="48" fill="white"/>
</clipPath>
</defs>
</svg>
