<svg width="32" height="32" viewBox="0 0 32 32" fill="none" xmlns="http://www.w3.org/2000/svg">
<path d="M16 20.5924C16.2838 20.5924 16.5214 20.498 16.7128 20.3092C16.9044 20.1202 17.0002 19.8856 17.0002 19.6056C17.0002 19.3258 16.9044 19.0913 16.7128 18.9023C16.5214 18.7135 16.2838 18.6191 16 18.6191C15.7162 18.6191 15.4786 18.7135 15.2872 18.9023C15.0956 19.0913 14.9998 19.3258 14.9998 19.6056C14.9998 19.8856 15.0956 20.1202 15.2872 20.3092C15.4786 20.498 15.7162 20.5924 16 20.5924ZM16 17.3158C16.2838 17.3158 16.5214 17.2213 16.7128 17.0322C16.9044 16.8434 17.0002 16.609 17.0002 16.3289V12.0526C17.0002 11.7726 16.9044 11.5382 16.7128 11.3493C16.5214 11.1603 16.2838 11.0658 16 11.0658C15.7162 11.0658 15.4786 11.1603 15.2872 11.3493C15.0956 11.5382 14.9998 11.7726 14.9998 12.0526V16.3289C14.9998 16.609 15.0956 16.8434 15.2872 17.0322C15.4786 17.2213 15.7162 17.3158 16 17.3158ZM14.5228 28.5C14.068 28.5 13.6753 28.3511 13.3446 28.0533C13.0136 27.7557 12.8123 27.3893 12.7405 26.9539L12.4147 24.4918C12.0576 24.3738 11.6913 24.2086 11.3159 23.9961C10.9407 23.7833 10.6052 23.5556 10.3094 23.3128L7.99869 24.2819C7.57974 24.4641 7.15878 24.4818 6.73582 24.3349C6.31264 24.1882 5.98392 23.9217 5.74966 23.5355L4.24675 20.9645C4.01249 20.5783 3.94503 20.1696 4.04438 19.7385C4.14351 19.3076 4.37088 18.9521 4.72649 18.672L6.72415 17.1918C6.69348 16.9962 6.6717 16.7997 6.65881 16.6023C6.64592 16.4049 6.63947 16.2083 6.63947 16.0125C6.63947 15.8254 6.64592 15.6353 6.65881 15.4421C6.6717 15.2489 6.69348 15.0376 6.72415 14.8082L4.72649 13.328C4.37088 13.0479 4.14562 12.6902 4.05071 12.2549C3.95581 11.8198 4.02549 11.4091 4.25975 11.0227L5.74966 8.4898C5.98392 8.11195 6.31264 7.84759 6.73582 7.69671C7.15878 7.54561 7.57974 7.56118 7.99869 7.74342L10.2964 8.7C10.618 8.44868 10.9613 8.21886 11.3262 8.01053C11.6912 7.80219 12.0498 7.63476 12.4021 7.50822L12.7405 5.04605C12.8123 4.61075 13.0136 4.2443 13.3446 3.94671C13.6753 3.6489 14.068 3.5 14.5228 3.5H17.4772C17.932 3.5 18.3247 3.6489 18.6554 3.94671C18.9864 4.2443 19.1877 4.61075 19.2595 5.04605L19.5853 7.52072C19.9853 7.66414 20.3473 7.83158 20.6711 8.02303C20.9951 8.21447 21.3222 8.44013 21.6523 8.7L24.0143 7.74342C24.433 7.56118 24.854 7.54561 25.2772 7.69671C25.7004 7.84759 26.029 8.11195 26.263 8.4898L27.7533 11.0355C27.9875 11.4217 28.055 11.8304 27.9556 12.2615C27.8565 12.6924 27.6291 13.0479 27.2735 13.328L25.2245 14.8461C25.2723 15.0586 25.2984 15.2572 25.3029 15.4421C25.3071 15.6268 25.3092 15.8127 25.3092 16C25.3092 16.1787 25.3049 16.3605 25.2962 16.5454C25.2877 16.73 25.2571 16.9413 25.2042 17.1793L27.2145 18.672C27.5701 18.9521 27.7997 19.3076 27.9033 19.7385C28.0066 20.1696 27.9412 20.5783 27.7069 20.9645L26.1963 23.5227C25.9623 23.9091 25.6316 24.1757 25.2042 24.3224C24.7768 24.4691 24.3536 24.4513 23.9346 24.2691L21.6523 23.3C21.3222 23.5599 20.9854 23.7897 20.6418 23.9895C20.2981 24.1895 19.946 24.3527 19.5853 24.4793L19.2595 26.9539C19.1877 27.3893 18.9864 27.7557 18.6554 28.0533C18.3247 28.3511 17.932 28.5 17.4772 28.5H14.5228ZM14.6664 26.5263H17.2875L17.767 23.0016C18.4475 22.8262 19.0694 22.577 19.6326 22.2539C20.196 21.9307 20.7393 21.5152 21.2625 21.0076L24.5757 22.3816L25.889 20.1447L22.9961 17.9941C23.1073 17.6533 23.1828 17.3192 23.2228 16.9918C23.2631 16.6646 23.2832 16.334 23.2832 16C23.2832 15.6575 23.2631 15.3269 23.2228 15.0082C23.1828 14.6894 23.1073 14.3637 22.9961 14.0313L25.9143 11.8553L24.6014 9.61842L21.2495 11.0125C20.8032 10.5419 20.2686 10.1261 19.6456 9.76513C19.0224 9.40417 18.3919 9.14858 17.7543 8.99836L17.3336 5.47368H14.6871L14.2457 8.98586C13.5654 9.14441 12.9372 9.38728 12.3611 9.71447C11.7848 10.0419 11.235 10.4636 10.7118 10.9796L7.39859 9.61842L6.08571 11.8553L8.96552 13.973C8.85439 14.2853 8.7766 14.6101 8.73215 14.9474C8.68769 15.2846 8.66547 15.6397 8.66547 16.0125C8.66547 16.355 8.68769 16.6908 8.73215 17.0197C8.7766 17.3487 8.85016 17.6735 8.95285 17.9941L6.08571 20.1447L7.39859 22.3816L10.6991 21C11.2052 21.5127 11.7463 21.9328 12.3224 22.2602C12.8987 22.5874 13.5356 22.8387 14.233 23.0141L14.6664 26.5263Z" fill="#E00D3A"/>
</svg>
