<?xml version="1.0" encoding="UTF-8" standalone="no"?>
<!DOCTYPE svg PUBLIC "-//W3C//DTD SVG 1.1//EN"
 "http://www.w3.org/Graphics/SVG/1.1/DTD/svg11.dtd">
<!-- Generated by graphviz version 2.47.0 (20210316.0004)
 -->
<!-- Title: dependencies Pages: 1 -->
<svg width="504pt" height="284pt"
 viewBox="0.00 0.00 504.00 284.00" xmlns="http://www.w3.org/2000/svg" xmlns:xlink="http://www.w3.org/1999/xlink">
<g id="graph0" class="graph" transform="scale(1 1) rotate(0) translate(4 280)">
<title>dependencies</title>
<polygon fill="white" stroke="transparent" points="-4,4 -4,-280 500,-280 500,4 -4,4"/>
<text text-anchor="start" x="227.01" y="-42.4" font-family="Times-12" font-weight="bold" font-size="14.00">Legend</text>
<polygon fill="#ffffb3" stroke="transparent" points="14,-10 14,-30 34,-30 34,-10 14,-10"/>
<text text-anchor="start" x="37.63" y="-15.4" font-family="Times-12" font-size="14.00"> &#160;Declarations</text>
<polygon fill="#8dd3c7" stroke="transparent" points="127,-10 127,-30 147,-30 147,-10 127,-10"/>
<text text-anchor="start" x="150.73" y="-15.4" font-family="Times-12" font-size="14.00"> &#160;Module</text>
<polygon fill="#80b1d3" stroke="transparent" points="213,-10 213,-30 233,-30 233,-10 213,-10"/>
<text text-anchor="start" x="236.78" y="-15.4" font-family="Times-12" font-size="14.00"> &#160;Bootstrap</text>
<polygon fill="#fdb462" stroke="transparent" points="310,-10 310,-30 330,-30 330,-10 310,-10"/>
<text text-anchor="start" x="333.67" y="-15.4" font-family="Times-12" font-size="14.00"> &#160;Providers</text>
<polygon fill="#fb8072" stroke="transparent" points="406,-10 406,-30 426,-30 426,-10 406,-10"/>
<text text-anchor="start" x="429.73" y="-15.4" font-family="Times-12" font-size="14.00"> &#160;Exports</text>
<g id="clust1" class="cluster">
<title>cluster_RouterExtModule</title>
<polygon fill="none" stroke="black" stroke-dasharray="1,5" points="98,-70 98,-268 398,-268 398,-70 98,-70"/>
</g>
<g id="clust4" class="cluster">
<title>cluster_RouterExtModule_exports</title>
<polygon fill="none" stroke="black" points="106,-208 106,-260 390,-260 390,-208 106,-208"/>
</g>
<g id="clust3" class="cluster">
<title>cluster_RouterExtModule_imports</title>
<polygon fill="none" stroke="black" points="110,-78 110,-130 386,-130 386,-78 110,-78"/>
</g>
<!-- FragmentLinkDirective -->
<g id="node1" class="node">
<title>FragmentLinkDirective</title>
<polygon fill="#8dd3c7" stroke="black" points="378.18,-122 375.18,-126 354.18,-126 351.18,-122 229.82,-122 229.82,-86 378.18,-86 378.18,-122"/>
<text text-anchor="middle" x="304" y="-99.8" font-family="Times,serif" font-size="14.00">FragmentLinkDirective</text>
</g>
<!-- RouterExtModule -->
<g id="node3" class="node">
<title>RouterExtModule</title>
<polygon fill="#8dd3c7" stroke="black" points="290.6,-187 287.6,-191 266.6,-191 263.6,-187 173.4,-187 173.4,-151 290.6,-151 290.6,-187"/>
<text text-anchor="middle" x="232" y="-164.8" font-family="Times,serif" font-size="14.00">RouterExtModule</text>
</g>
<!-- FragmentLinkDirective&#45;&gt;RouterExtModule -->
<g id="edge1" class="edge">
<title>FragmentLinkDirective&#45;&gt;RouterExtModule</title>
<path fill="none" stroke="black" d="M260.23,-122.11C260.23,-122.11 260.23,-140.99 260.23,-140.99"/>
<polygon fill="black" stroke="black" points="256.73,-140.99 260.23,-150.99 263.73,-140.99 256.73,-140.99"/>
</g>
<!-- LinkDirective -->
<g id="node2" class="node">
<title>LinkDirective</title>
<polygon fill="#8dd3c7" stroke="black" points="212.03,-122 209.03,-126 188.03,-126 185.03,-122 117.97,-122 117.97,-86 212.03,-86 212.03,-122"/>
<text text-anchor="middle" x="165" y="-99.8" font-family="Times,serif" font-size="14.00">LinkDirective</text>
</g>
<!-- LinkDirective&#45;&gt;RouterExtModule -->
<g id="edge2" class="edge">
<title>LinkDirective&#45;&gt;RouterExtModule</title>
<path fill="none" stroke="black" d="M192.86,-122.11C192.86,-122.11 192.86,-140.99 192.86,-140.99"/>
<polygon fill="black" stroke="black" points="189.36,-140.99 192.86,-150.99 196.36,-140.99 189.36,-140.99"/>
</g>
<!-- FragmentLinkDirective  -->
<g id="node4" class="node">
<title>FragmentLinkDirective </title>
<polygon fill="#fb8072" stroke="black" points="381.68,-252 230.32,-252 230.32,-216 381.68,-216 381.68,-252"/>
<text text-anchor="middle" x="306" y="-229.8" font-family="Times,serif" font-size="14.00">FragmentLinkDirective </text>
</g>
<!-- RouterExtModule&#45;&gt;FragmentLinkDirective  -->
<g id="edge3" class="edge">
<title>RouterExtModule&#45;&gt;FragmentLinkDirective </title>
<path fill="none" stroke="black" stroke-dasharray="5,2" d="M260.35,-187.11C260.35,-187.11 260.35,-205.99 260.35,-205.99"/>
<polygon fill="black" stroke="black" points="256.85,-205.99 260.35,-215.99 263.85,-205.99 256.85,-205.99"/>
</g>
<!-- LinkDirective  -->
<g id="node5" class="node">
<title>LinkDirective </title>
<polygon fill="#fb8072" stroke="black" points="212.03,-252 113.97,-252 113.97,-216 212.03,-216 212.03,-252"/>
<text text-anchor="middle" x="163" y="-229.8" font-family="Times,serif" font-size="14.00">LinkDirective </text>
</g>
<!-- RouterExtModule&#45;&gt;LinkDirective  -->
<g id="edge4" class="edge">
<title>RouterExtModule&#45;&gt;LinkDirective </title>
<path fill="none" stroke="black" stroke-dasharray="5,2" d="M192.73,-187.11C192.73,-187.11 192.73,-205.99 192.73,-205.99"/>
<polygon fill="black" stroke="black" points="189.23,-205.99 192.73,-215.99 196.23,-205.99 189.23,-205.99"/>
</g>
</g>
</svg>
