<?xml version="1.0" encoding="UTF-8" standalone="no"?>
<!DOCTYPE svg PUBLIC "-//W3C//DTD SVG 1.1//EN"
 "http://www.w3.org/Graphics/SVG/1.1/DTD/svg11.dtd">
<!-- Generated by graphviz version 2.47.0 (20210316.0004)
 -->
<!-- Title: dependencies Pages: 1 -->
<svg width="556pt" height="284pt"
 viewBox="0.00 0.00 556.00 284.00" xmlns="http://www.w3.org/2000/svg" xmlns:xlink="http://www.w3.org/1999/xlink">
<g id="graph0" class="graph" transform="scale(1 1) rotate(0) translate(4 280)">
<title>dependencies</title>
<polygon fill="white" stroke="transparent" points="-4,4 -4,-280 552,-280 552,4 -4,4"/>
<text text-anchor="start" x="253.01" y="-42.4" font-family="Times-12" font-weight="bold" font-size="14.00">Legend</text>
<polygon fill="#ffffb3" stroke="transparent" points="40,-10 40,-30 60,-30 60,-10 40,-10"/>
<text text-anchor="start" x="63.63" y="-15.4" font-family="Times-12" font-size="14.00"> &#160;Declarations</text>
<polygon fill="#8dd3c7" stroke="transparent" points="153,-10 153,-30 173,-30 173,-10 153,-10"/>
<text text-anchor="start" x="176.73" y="-15.4" font-family="Times-12" font-size="14.00"> &#160;Module</text>
<polygon fill="#80b1d3" stroke="transparent" points="239,-10 239,-30 259,-30 259,-10 239,-10"/>
<text text-anchor="start" x="262.78" y="-15.4" font-family="Times-12" font-size="14.00"> &#160;Bootstrap</text>
<polygon fill="#fdb462" stroke="transparent" points="336,-10 336,-30 356,-30 356,-10 336,-10"/>
<text text-anchor="start" x="359.67" y="-15.4" font-family="Times-12" font-size="14.00"> &#160;Providers</text>
<polygon fill="#fb8072" stroke="transparent" points="432,-10 432,-30 452,-30 452,-10 432,-10"/>
<text text-anchor="start" x="455.73" y="-15.4" font-family="Times-12" font-size="14.00"> &#160;Exports</text>
<g id="clust1" class="cluster">
<title>cluster_TableOfContentsLayoutModule</title>
<polygon fill="none" stroke="black" stroke-dasharray="1,5" points="8,-70 8,-268 540,-268 540,-70 8,-70"/>
</g>
<g id="clust3" class="cluster">
<title>cluster_TableOfContentsLayoutModule_imports</title>
<polygon fill="none" stroke="black" points="19,-78 19,-130 529,-130 529,-78 19,-78"/>
</g>
<g id="clust4" class="cluster">
<title>cluster_TableOfContentsLayoutModule_exports</title>
<polygon fill="none" stroke="black" points="16,-208 16,-260 532,-260 532,-208 16,-208"/>
</g>
<!-- TableOfContentsLayoutComponent -->
<g id="node1" class="node">
<title>TableOfContentsLayoutComponent</title>
<polygon fill="#8dd3c7" stroke="black" points="520.91,-122 517.91,-126 496.91,-126 493.91,-122 303.09,-122 303.09,-86 520.91,-86 520.91,-122"/>
<text text-anchor="middle" x="412" y="-99.8" font-family="Times,serif" font-size="14.00">TableOfContentsLayoutComponent</text>
</g>
<!-- TableOfContentsLayoutModule -->
<g id="node3" class="node">
<title>TableOfContentsLayoutModule</title>
<polygon fill="#8dd3c7" stroke="black" points="254.62,-187 251.62,-191 230.62,-191 227.62,-187 59.38,-187 59.38,-151 254.62,-151 254.62,-187"/>
<text text-anchor="middle" x="157" y="-164.8" font-family="Times,serif" font-size="14.00">TableOfContentsLayoutModule</text>
</g>
<!-- TableOfContentsLayoutComponent&#45;&gt;TableOfContentsLayoutModule -->
<g id="edge1" class="edge">
<title>TableOfContentsLayoutComponent&#45;&gt;TableOfContentsLayoutModule</title>
<path fill="none" stroke="black" d="M448.32,-122.02C448.32,-139.37 448.32,-163 448.32,-163 448.32,-163 264.82,-163 264.82,-163"/>
<polygon fill="black" stroke="black" points="264.82,-159.5 254.82,-163 264.81,-166.5 264.82,-159.5"/>
</g>
<!-- TableOfContentsLayoutHeaderComponent -->
<g id="node2" class="node">
<title>TableOfContentsLayoutHeaderComponent</title>
<polygon fill="#8dd3c7" stroke="black" points="284.82,-122 281.82,-126 260.82,-126 257.82,-122 27.18,-122 27.18,-86 284.82,-86 284.82,-122"/>
<text text-anchor="middle" x="156" y="-99.8" font-family="Times,serif" font-size="14.00">TableOfContentsLayoutHeaderComponent</text>
</g>
<!-- TableOfContentsLayoutHeaderComponent&#45;&gt;TableOfContentsLayoutModule -->
<g id="edge2" class="edge">
<title>TableOfContentsLayoutHeaderComponent&#45;&gt;TableOfContentsLayoutModule</title>
<path fill="none" stroke="black" d="M157,-122.11C157,-122.11 157,-140.99 157,-140.99"/>
<polygon fill="black" stroke="black" points="153.5,-140.99 157,-150.99 160.5,-140.99 153.5,-140.99"/>
</g>
<!-- TableOfContentsLayoutComponent  -->
<g id="node4" class="node">
<title>TableOfContentsLayoutComponent </title>
<polygon fill="#fb8072" stroke="black" points="524.41,-252 303.59,-252 303.59,-216 524.41,-216 524.41,-252"/>
<text text-anchor="middle" x="414" y="-229.8" font-family="Times,serif" font-size="14.00">TableOfContentsLayoutComponent </text>
</g>
<!-- TableOfContentsLayoutModule&#45;&gt;TableOfContentsLayoutComponent  -->
<g id="edge3" class="edge">
<title>TableOfContentsLayoutModule&#45;&gt;TableOfContentsLayoutComponent </title>
<path fill="none" stroke="black" stroke-dasharray="5,2" d="M254.94,-175C313.23,-175 375.93,-175 375.93,-175 375.93,-175 375.93,-205.98 375.93,-205.98"/>
<polygon fill="black" stroke="black" points="372.43,-205.98 375.93,-215.98 379.43,-205.98 372.43,-205.98"/>
</g>
<!-- TableOfContentsLayoutHeaderComponent  -->
<g id="node5" class="node">
<title>TableOfContentsLayoutHeaderComponent </title>
<polygon fill="#fb8072" stroke="black" points="285.82,-252 24.18,-252 24.18,-216 285.82,-216 285.82,-252"/>
<text text-anchor="middle" x="155" y="-229.8" font-family="Times,serif" font-size="14.00">TableOfContentsLayoutHeaderComponent </text>
</g>
<!-- TableOfContentsLayoutModule&#45;&gt;TableOfContentsLayoutHeaderComponent  -->
<g id="edge4" class="edge">
<title>TableOfContentsLayoutModule&#45;&gt;TableOfContentsLayoutHeaderComponent </title>
<path fill="none" stroke="black" stroke-dasharray="5,2" d="M157,-187.11C157,-187.11 157,-205.99 157,-205.99"/>
<polygon fill="black" stroke="black" points="153.5,-205.99 157,-215.99 160.5,-205.99 153.5,-205.99"/>
</g>
</g>
</svg>
