<svg width="80" height="80" viewBox="0 0 80 80" fill="none" xmlns="http://www.w3.org/2000/svg">
<g clip-path="url(#clip0_1409_389)">
<g clip-path="url(#clip1_1409_389)">
<path d="M40 80C62.0914 80 80 62.0914 80 40C80 17.9086 62.0914 0 40 0C17.9086 0 0 17.9086 0 40C0 62.0914 17.9086 80 40 80Z" fill="#201E3D"/>
<path d="M21.8133 26.8343C21.8133 26.0495 21.7829 25.2571 21.8133 24.4724C21.8743 22.9943 22.8191 22.0419 24.3048 22.0038C25.8819 21.9657 27.4591 21.9657 29.0286 22.0038C30.5067 22.0419 31.4743 23.0171 31.5124 24.4876C31.5505 26.0876 31.5505 27.6952 31.5124 29.2952C31.4743 30.7657 30.4991 31.7333 29.021 31.7638C27.4438 31.8019 25.8667 31.8019 24.2972 31.7638C22.8114 31.7257 21.8743 30.7657 21.8133 29.28C21.7829 28.4648 21.8133 27.6495 21.8133 26.8343Z" fill="white"/>
<path d="M44.5638 26.9257C44.5638 27.6876 44.579 28.4495 44.5638 29.2038C44.5181 30.7276 43.5733 31.7181 42.0648 31.7562C40.4876 31.7943 38.9105 31.7943 37.3409 31.7562C35.8552 31.7181 34.9028 30.7581 34.8648 29.2724C34.8267 27.6724 34.8267 26.0648 34.8648 24.4648C34.9028 22.9867 35.8705 22.0343 37.3562 21.9962C38.9333 21.9581 40.5105 21.9581 42.08 21.9962C43.5581 22.0343 44.5105 23.0095 44.5638 24.48C44.5943 25.2952 44.5638 26.1105 44.5638 26.9257Z" fill="white"/>
<path d="M31.5276 39.9467C31.5276 40.7314 31.5505 41.5238 31.5276 42.3086C31.4743 43.7791 30.5219 44.7543 29.0438 44.7924C27.4666 44.8305 25.8971 44.8305 24.32 44.7924C22.8343 44.7543 21.8666 43.8019 21.8286 42.3238C21.7828 40.7238 21.7905 39.1162 21.8286 37.5162C21.8666 36 22.8495 35.0552 24.3886 35.0324C25.9124 35.0019 27.4286 35.0095 28.9524 35.0324C30.5143 35.0552 31.4895 36.0305 31.5352 37.5848C31.5581 38.3695 31.5352 39.1619 31.5352 39.9467H31.5276Z" fill="white"/>
<path d="M44.5638 39.9543C44.5638 40.739 44.5867 41.5314 44.5638 42.3162C44.5105 43.7867 43.5505 44.7619 42.08 44.7924C40.5029 44.8305 38.9257 44.8305 37.3562 44.7924C35.8705 44.7543 34.9105 43.8019 34.8724 42.3238C34.8343 40.7238 34.8343 39.1162 34.8724 37.5162C34.9105 36.0305 35.8705 35.0781 37.3486 35.04C38.9257 35.0019 40.4952 35.0019 42.0724 35.04C43.581 35.0781 44.5257 36.0686 44.5714 37.5924C44.5943 38.3771 44.5714 39.1695 44.5714 39.9543H44.5638Z" fill="white"/>
<path d="M48.48 26.8343C48.48 26.0495 48.4495 25.2571 48.48 24.4724C48.5409 22.9943 49.4857 22.0419 50.9714 22.0038C52.5485 21.9657 54.1257 21.9657 55.6952 22.0038C57.1733 22.0419 58.1409 23.0171 58.179 24.4876C58.2171 26.0876 58.2171 27.6952 58.179 29.2952C58.1409 30.7657 57.1657 31.7333 55.6876 31.7638C54.1104 31.8019 52.5333 31.8019 50.9638 31.7638C49.4781 31.7257 48.5409 30.7657 48.48 29.28C48.4495 28.4648 48.48 27.6495 48.48 26.8343Z" fill="white"/>
<path d="M58.1867 39.9467C58.1867 40.7314 58.2095 41.5238 58.1867 42.3086C58.1333 43.7791 57.1809 44.7543 55.7028 44.7924C54.1257 44.8305 52.5562 44.8305 50.979 44.7924C49.4933 44.7543 48.5257 43.8019 48.4876 42.3238C48.4419 40.7238 48.4495 39.1162 48.4876 37.5162C48.5257 36 49.5086 35.0552 51.0476 35.0324C52.5714 35.0019 54.0876 35.0095 55.6114 35.0324C57.1733 35.0552 58.1486 36.0305 58.1943 37.5848C58.2171 38.3695 58.1943 39.1619 58.1943 39.9467H58.1867Z" fill="white"/>
<path d="M31.5276 53.1505C31.5276 53.9352 31.5505 54.7276 31.5276 55.5124C31.4743 56.9829 30.5219 57.9581 29.0438 57.9962C27.4666 58.0343 25.8971 58.0343 24.32 57.9962C22.8343 57.9581 21.8666 57.0057 21.8286 55.5276C21.7828 53.9276 21.7905 52.32 21.8286 50.72C21.8666 49.2038 22.8495 48.2591 24.3886 48.2362C25.9124 48.2057 27.4286 48.2133 28.9524 48.2362C30.5143 48.2591 31.4895 49.2343 31.5352 50.7886C31.5581 51.5733 31.5352 52.3657 31.5352 53.1505H31.5276Z" fill="white"/>
<path d="M44.5638 53.1581C44.5638 53.9429 44.5867 54.7352 44.5638 55.52C44.5105 56.9905 43.5505 57.9657 42.08 57.9962C40.5029 58.0343 38.9257 58.0343 37.3562 57.9962C35.8705 57.9581 34.9105 57.0057 34.8724 55.5276C34.8343 53.9276 34.8343 52.32 34.8724 50.72C34.9105 49.2343 35.8705 48.2819 37.3486 48.2438C38.9257 48.2057 40.4952 48.2057 42.0724 48.2438C43.581 48.2819 44.5257 49.2724 44.5714 50.7962C44.5943 51.581 44.5714 52.3733 44.5714 53.1581H44.5638Z" fill="white"/>
<path d="M58.1867 53.1505C58.1867 53.9352 58.2095 54.7276 58.1867 55.5124C58.1333 56.9829 57.1809 57.9581 55.7028 57.9962C54.1257 58.0343 52.5562 58.0343 50.979 57.9962C49.4933 57.9581 48.5257 57.0057 48.4876 55.5276C48.4419 53.9276 48.4495 52.32 48.4876 50.72C48.5257 49.2038 49.5086 48.2591 51.0476 48.2362C52.5714 48.2057 54.0876 48.2133 55.6114 48.2362C57.1733 48.2591 58.1486 49.2343 58.1943 50.7886C58.2171 51.5733 58.1943 52.3657 58.1943 53.1505H58.1867Z" fill="white"/>
</g>
</g>
<defs>
<clipPath id="clip0_1409_389">
<rect width="80" height="80" fill="white"/>
</clipPath>
<clipPath id="clip1_1409_389">
<rect width="80" height="80" fill="white"/>
</clipPath>
</defs>
</svg>
