<svg width="40" height="40" viewBox="0 0 40 40" fill="none" xmlns="http://www.w3.org/2000/svg">
<g clip-path="url(#clip0_1409_377)">
<path d="M20.0041 40.0083C31.0521 40.0083 40.0083 31.0521 40.0083 20.0041C40.0083 8.95616 31.0521 0 20.0041 0C8.95616 0 0 8.95616 0 20.0041C0 31.0521 8.95616 40.0083 20.0041 40.0083Z" fill="#201E3D"/>
<path d="M15.5183 13.7968C15.27 13.3168 13.3582 13.3499 13.3582 13.9044V17.9681C13.6975 17.3309 14.1692 16.7681 14.7403 16.3294C14.7651 15.4273 15.0383 14.55 15.5183 13.7885V13.7968Z" fill="white"/>
<path d="M22.7685 24.9121H18.4482V28.1481C19.8883 28.9013 21.4442 29.4227 22.7685 29.6131V24.9038V24.9121Z" fill="white"/>
<path d="M17.0495 21.4277V19.1186H15.7832C16.048 19.9214 16.4701 20.6994 17.0495 21.4277Z" fill="white"/>
<path d="M24.1755 23.5051H26.5591C26.4267 22.1229 26.1866 21.0718 26.1866 21.0718C26.1866 21.0718 25.9549 20.1035 25.4004 19.1186H24.1755V23.5051Z" fill="white"/>
<path d="M18.4565 19.1186V23.5051H22.7768V19.1186H22.1312C22.1808 19.3586 22.2636 19.6234 22.3795 19.9214C22.2884 19.8221 22.1146 19.5158 21.9657 19.1186H18.4565Z" fill="white"/>
<path d="M17.0494 21.4277C16.2053 20.8566 15.568 20.0455 15.2121 19.1186H14.1279C13.8216 20.0041 13.5899 21.2456 13.7554 22.9009C13.772 23.1078 13.8216 23.3064 13.8713 23.5051H17.0412V21.4277H17.0494Z" fill="white"/>
<path d="M17.0494 24.9121H14.5417C15.1376 25.7976 16.0232 26.617 17.0494 27.3122V24.9121Z" fill="white"/>
<path d="M24.1755 24.9121V29.6876C24.9203 29.6296 25.508 29.4062 25.8059 28.9675C26.5011 27.9578 26.6667 26.3935 26.6418 24.9121H24.1755Z" fill="white"/>
<path d="M17.0495 17.7116V13.3499C15.8245 14.55 15.3362 16.1142 15.4852 17.7116H17.0495Z" fill="white"/>
<path d="M18.4565 17.7116H21.7091C21.7256 17.3805 21.8084 17.0495 21.9988 16.7681C22.214 16.4867 22.4871 16.2715 22.7768 16.0894V13.4658C21.6263 13.5982 19.6234 14.0782 19.0027 15.7914C19.0027 12.9774 22.4043 12.8119 22.7768 12.8036V12.6298C22.4705 11.9346 20.2855 11.5373 18.4565 12.365V17.7116Z" fill="white"/>
<path d="M24.1755 15.6507C24.1755 15.6507 24.2003 15.6507 24.2086 15.6507C24.7631 15.6507 25.2183 15.2038 25.2266 14.6493C25.2266 14.55 25.2183 14.4589 25.1852 14.3679C25.0941 13.7389 24.5893 13.5237 24.1672 13.4575V15.659L24.1755 15.6507Z" fill="white"/>
</g>
<defs>
<clipPath id="clip0_1409_377">
<rect width="40" height="40" fill="white"/>
</clipPath>
</defs>
</svg>
