<svg width="55" height="55" viewBox="0 0 55 55" fill="none" xmlns="http://www.w3.org/2000/svg">
<g clip-path="url(#clip0_1116_9731)">
<path d="M30.7084 15.3816C28.5027 15.7556 26.4596 16.7814 24.8422 18.327C23.2247 19.8725 22.1071 21.8669 21.6334 24.0533C20.57 28.16 21.6334 29.5533 20.57 34.1C19.5067 38.6466 13.97 36.6666 12.2284 39.0683C10.4867 41.47 10.835 44.3666 8.01169 43.5966C5.18835 42.8266 2.69502 31.735 4.03335 26.3266C5.37169 20.9183 7.33335 17.9666 12.54 15.6016C17.7467 13.2366 30.7084 15.3816 30.7084 15.3816Z" fill="currentColor"/>
<path d="M51.3333 18.3333C51.3333 15.6383 39.985 14.8683 36.245 14.8683C32.505 14.8683 25.6483 15.8583 23.4116 22.8067C21.175 29.755 24.2183 35.3467 26.8583 34.87C29.4983 34.3933 30.635 30.9833 33.2383 30.8C36.5694 30.2415 39.715 28.8825 42.405 26.84C45.2283 24.8783 51.3333 21.065 51.3333 18.3333Z" fill="currentColor"/>
</g>
<defs>
<clipPath id="clip0_1116_9731">
<rect width="55" height="55" fill="currentColor"/>
</clipPath>
</defs>
</svg>
