<svg width="40" height="16" viewBox="0 0 40 16" fill="none" xmlns="http://www.w3.org/2000/svg">
<mask id="mask0_2348_1105" style="mask-type:luminance" maskUnits="userSpaceOnUse" x="0" y="0" width="40" height="16">
<path d="M40 0.5H0V15.5H40V0.5Z" fill="white"/>
</mask>
<g mask="url(#mask0_2348_1105)">
<path d="M40 11.0362H39.8808C39.2021 11.0362 38.5234 11.0347 37.8447 11.0383C37.8103 11.042 37.7757 11.0341 37.746 11.0157C37.7163 10.9974 37.6931 10.9696 37.6798 10.9364C37.0778 9.79557 36.4746 8.65549 35.8703 7.51618C35.8565 7.48309 35.8329 7.45546 35.8029 7.43732C35.773 7.41918 35.7382 7.41149 35.7037 7.41538C35.1708 7.41906 34.6377 7.42014 34.1047 7.41488C33.9992 7.41387 33.9662 7.44045 33.9666 7.55538C33.971 8.66229 33.9692 9.76911 33.9692 10.876V11.0298C33.9276 11.0322 33.8933 11.0359 33.859 11.036C33.2264 11.036 32.594 11.0342 31.9615 11.0383C31.8687 11.039 31.8418 11.0147 31.8419 10.9155C31.8444 7.55808 31.8451 4.20054 31.844 0.84291V0.734C31.8897 0.731074 31.9273 0.726561 31.9646 0.726477C33.4283 0.726477 34.8926 0.722967 36.3567 0.727146C37.7583 0.731158 39.008 1.62526 39.4514 2.94212C39.9612 4.45642 39.4843 6.21344 37.9491 7.0899C37.9277 7.10219 37.9075 7.11665 37.8762 7.13679C38.5809 8.43042 39.2841 9.72121 40.0001 11.0357M33.9689 4.06148C33.9689 4.46335 33.9683 4.86523 33.9689 5.2671C33.9689 5.4519 33.944 5.44196 34.1322 5.44204C34.7074 5.44204 35.2822 5.44329 35.8579 5.44146C36.0209 5.44095 36.1844 5.43878 36.3469 5.42574C36.526 5.41048 36.7 5.35627 36.8576 5.26663C37.0153 5.17699 37.1531 5.05392 37.262 4.90539C37.371 4.75687 37.4487 4.5862 37.4901 4.40447C37.5315 4.22273 37.5357 4.03397 37.5025 3.85043C37.3722 3.14833 36.8659 2.70884 36.1656 2.70299C35.4697 2.69714 34.7736 2.70299 34.0777 2.69973C33.9848 2.69931 33.9663 2.7355 33.967 2.82268C33.9706 3.23559 33.9686 3.64858 33.9686 4.06148" fill="#E00D3A"/>
<path d="M31.2776 11.0363H31.157C30.4819 11.0363 29.8069 11.0341 29.1318 11.0388C29.0958 11.0438 29.0594 11.0342 29.03 11.012C29.0007 10.9898 28.9807 10.9567 28.9742 10.9196C28.7203 10.1845 28.461 9.45148 28.2067 8.71653C28.2005 8.68137 28.1815 8.65003 28.1536 8.62901C28.1258 8.608 28.0913 8.5989 28.0572 8.60361C26.8492 8.60745 25.6412 8.60765 24.4331 8.60419C24.4006 8.59947 24.3675 8.60779 24.3406 8.62747C24.3137 8.64715 24.2951 8.67672 24.2884 8.71018C24.0328 9.44898 23.7728 10.1861 23.5177 10.9252C23.5115 10.9605 23.4924 10.9921 23.4645 11.0133C23.4365 11.0344 23.4018 11.0436 23.3675 11.0388C22.6925 11.0344 22.0173 11.0364 21.3422 11.0364H21.2175C21.2852 10.8538 21.3462 10.6869 21.4089 10.5208C22.1074 8.67385 22.8059 6.827 23.5044 4.98024C24.0274 3.59692 24.5498 2.21338 25.0717 0.829618C25.0796 0.796383 25.0989 0.767313 25.1261 0.747929C25.1532 0.728545 25.1863 0.720197 25.219 0.724469C25.9011 0.72798 26.5833 0.72798 27.2654 0.724469C27.3012 0.719515 27.3376 0.728561 27.3674 0.749855C27.3972 0.771149 27.4183 0.803176 27.4267 0.839732C28.2973 3.14793 29.1695 5.45544 30.0433 7.76225C30.4426 8.81808 30.8415 9.87403 31.2401 10.9301C31.2504 10.9573 31.2595 10.9848 31.2776 11.0363ZM26.2607 3.32577L26.2337 3.32669L25.0407 6.68059H27.454L26.2607 3.32577Z" fill="#E00D3A"/>
<path d="M9.57396 9.19573C9.25825 9.60892 8.88379 9.96969 8.46347 10.2656C7.75277 10.788 6.92594 11.1141 6.06067 11.2132C4.38923 11.3971 2.89771 10.9492 1.64664 9.76159C0.735304 8.91171 0.160429 7.74012 0.0336749 6.4744C-0.0805017 5.40344 0.120896 4.32169 0.611218 3.37229C1.10154 2.4229 1.85767 1.65061 2.77956 1.15762C3.6965 0.656238 4.73089 0.433722 5.76399 0.515606C7.25061 0.625436 8.48004 1.27664 9.43667 2.47022C9.45702 2.4953 9.47495 2.52305 9.48702 2.53976L8.14339 3.93185C7.88964 3.5796 7.5764 3.27823 7.21892 3.04244C6.718 2.69936 6.13479 2.50858 5.5351 2.49162C4.23836 2.46061 3.21514 2.98944 2.55888 4.1633C1.61198 5.85621 2.20365 8.27096 4.19196 9.04093C5.40409 9.51042 6.54779 9.28742 7.58799 8.50808C7.85016 8.31166 8.0743 8.06049 8.32482 7.8262L9.57396 9.19573Z" fill="#E00D3A"/>
<path d="M17.1253 11.0279H15.0207V0.726699H15.1486C17.49 0.726699 19.8315 0.726002 22.1729 0.724609C22.2759 0.724609 22.3133 0.745505 22.312 0.86269C22.3056 1.42713 22.3092 1.99158 22.3091 2.55602C22.3091 2.70146 22.3091 2.70179 22.1717 2.70179H17.2792C17.1255 2.70179 17.1253 2.70179 17.1253 2.86603C17.1253 3.67764 17.1272 4.48924 17.1231 5.30084C17.1226 5.41017 17.1478 5.44527 17.2586 5.44485C18.5132 5.44076 19.767 5.44226 21.0212 5.44226C21.1683 5.44226 21.1684 5.44226 21.1684 5.59982C21.1684 6.16426 21.1659 6.72871 21.1706 7.29307C21.1715 7.39771 21.1458 7.43031 21.0414 7.43006C19.7837 7.42638 18.5259 7.4256 17.2681 7.42772C17.1256 7.42772 17.1254 7.42772 17.1254 7.57968C17.1254 8.67903 17.1254 9.77841 17.1254 10.8778L17.1253 11.0279Z" fill="#E00D3A"/>
<path d="M13.0699 5.87609V10.8905C13.0699 11.036 13.0699 11.0362 12.9323 11.0362C12.3175 11.0362 11.7027 11.0341 11.088 11.0383C10.9898 11.039 10.9533 11.0176 10.9534 10.9062C10.9561 7.55585 10.9563 4.20558 10.954 0.855361C10.954 0.756063 10.9788 0.723381 11.0786 0.724134C11.704 0.728814 12.3294 0.728814 12.9549 0.724134C13.0522 0.723465 13.0719 0.756648 13.0717 0.85068C13.0692 2.52576 13.0686 4.2009 13.0699 5.87609Z" fill="#E00D3A"/>
<path d="M39.9713 13.3162H31.8493V15.5H39.9713V13.3162Z" fill="#E00D3A"/>
</g>
</svg>
