<svg width="40" height="40" viewBox="0 0 40 40" fill="none" xmlns="http://www.w3.org/2000/svg">
<mask id="mask0_737_19745" style="mask-type:luminance" maskUnits="userSpaceOnUse" x="1" y="13" width="38" height="14">
<path d="M38.6697 13H1.3302V27H38.6697V13Z" fill="white"/>
</mask>
<g mask="url(#mask0_737_19745)">
<mask id="mask1_737_19745" style="mask-type:luminance" maskUnits="userSpaceOnUse" x="1" y="13" width="38" height="14">
<path d="M38.6697 13H1.3302V27H38.6697V13Z" fill="white"/>
</mask>
<g mask="url(#mask1_737_19745)">
<path d="M38.6644 22.8351H38.5533C37.9194 22.8351 37.2856 22.8337 36.6527 22.8371C36.62 22.8405 36.5883 22.8332 36.5603 22.816C36.5323 22.7989 36.5108 22.773 36.4987 22.742C35.9367 21.6772 35.3738 20.6131 34.809 19.5498C34.796 19.5189 34.7745 19.4931 34.7465 19.4761C34.7185 19.4592 34.6858 19.4521 34.6541 19.4557C34.1565 19.4592 33.659 19.4601 33.1614 19.4552C33.0625 19.4543 33.0317 19.4791 33.0317 19.5864C33.0364 20.6195 33.0345 21.6525 33.0345 22.6856V22.8291C32.9953 22.8314 32.9635 22.8348 32.9318 22.8349C32.3409 22.8349 31.7509 22.8332 31.16 22.8371C31.0742 22.8377 31.049 22.815 31.049 22.7225C31.0508 19.5889 31.0517 16.4551 31.0508 13.3214V13.2197C31.0938 13.217 31.1283 13.2128 31.1628 13.2127C32.5295 13.2127 33.897 13.2095 35.2636 13.2133C36.5715 13.2171 37.7383 14.0516 38.1519 15.2806C38.628 16.694 38.1827 18.3338 36.7498 19.1519C36.7302 19.1634 36.7106 19.1768 36.6816 19.1957C37.3397 20.403 37.996 21.6082 38.6644 22.8351ZM33.0345 16.3254C33.0345 16.7005 33.0335 17.0755 33.0345 17.4506C33.0345 17.6231 33.0112 17.6139 33.1866 17.6139C33.7234 17.6139 34.2602 17.6151 34.7978 17.6134C34.95 17.6129 35.1022 17.6109 35.2543 17.5986C35.4214 17.5845 35.5838 17.5339 35.7313 17.4502C35.8779 17.3665 36.0067 17.2516 36.1085 17.113C36.2102 16.9744 36.283 16.8151 36.3213 16.6455C36.3596 16.4758 36.3642 16.2997 36.3325 16.1284C36.2111 15.4731 35.7388 15.0629 35.0844 15.0575C34.4357 15.052 33.785 15.0575 33.1362 15.0544C33.0494 15.054 33.0317 15.0878 33.0326 15.1692C33.0354 15.5546 33.0345 15.94 33.0345 16.3254Z" fill="#DA291C"/>
<path d="M30.5203 22.8317H30.4073C29.7772 22.8317 29.1471 22.8296 28.517 22.834C28.4834 22.8387 28.4498 22.8297 28.4218 22.809C28.3947 22.7883 28.3761 22.7574 28.3695 22.7227C28.1334 22.0366 27.8907 21.3525 27.6535 20.6665C27.6479 20.6337 27.6302 20.6044 27.6041 20.5848C27.5779 20.5652 27.5462 20.5567 27.5135 20.5611C26.3859 20.5648 25.2582 20.5649 24.1306 20.5617C24.1007 20.5573 24.0699 20.5651 24.0447 20.5834C24.0195 20.6018 24.0017 20.6294 23.9961 20.6606C23.7572 21.3502 23.5145 22.0381 23.2764 22.728C23.2708 22.7609 23.2531 22.7904 23.227 22.8102C23.2008 22.8299 23.1681 22.8385 23.1364 22.834C22.5063 22.8299 21.8762 22.8317 21.2452 22.8317H21.1294C21.1919 22.6613 21.2489 22.5055 21.3077 22.3505C21.9602 20.6267 22.6118 18.903 23.2643 17.1793C23.7525 15.8882 24.2398 14.5969 24.7271 13.3054C24.7345 13.2744 24.7523 13.2473 24.7775 13.2291C24.8027 13.211 24.8344 13.2033 24.8643 13.2073C25.5009 13.2106 26.1385 13.2106 26.7751 13.2073C26.8078 13.2026 26.8424 13.2111 26.8704 13.231C26.8974 13.2508 26.918 13.2808 26.9254 13.3148C27.7385 15.4691 28.5525 17.6228 29.3684 19.7758C29.7408 20.7613 30.1133 21.7468 30.4848 22.7325C30.4951 22.7579 30.5035 22.7836 30.5203 22.8317ZM25.837 15.6352L25.8118 15.636L24.6981 18.7663H26.9506L25.837 15.6352Z" fill="#DA291C"/>
<path d="M10.3007 21.1159C10.0067 21.5016 9.6566 21.8383 9.26454 22.1145C8.60083 22.6021 7.82883 22.9064 7.02136 22.9989C5.4615 23.1706 4.06874 22.7525 2.90094 21.6441C2.05054 20.8509 1.51379 19.7574 1.39524 18.5761C1.28882 17.5765 1.47645 16.5669 1.93479 15.6808C2.3922 14.7947 3.09792 14.0738 3.9586 13.6137C4.81461 13.1457 5.77983 12.9381 6.74412 13.0145C8.13222 13.117 9.27948 13.7248 10.1728 14.8388C10.1915 14.8622 10.2083 14.8881 10.2195 14.9038L8.96583 16.2031C8.72872 15.8742 8.43654 15.5929 8.10235 15.3729C7.63467 15.0527 7.09044 14.8746 6.53035 14.8588C5.32055 14.8298 4.36559 15.3234 3.75229 16.419C2.86827 17.9991 3.4209 20.2529 5.27667 20.9715C6.40806 21.4097 7.47598 21.2015 8.44681 20.4742C8.69232 20.2909 8.90142 20.0564 9.13479 19.8377L10.3007 21.1159Z" fill="#DA291C"/>
<path d="M17.3565 22.8264H15.3915V13.2119H15.511C17.6972 13.2119 19.8825 13.2113 22.0687 13.21C22.1649 13.21 22.1994 13.2295 22.1985 13.3389C22.192 13.8656 22.1957 14.3925 22.1957 14.9193C22.1957 15.0551 22.1957 15.0553 22.0669 15.0553H17.5002C17.3565 15.0553 17.3565 15.0553 17.3565 15.2086C17.3565 15.9661 17.3584 16.7236 17.3546 17.4811C17.3537 17.5832 17.3779 17.6159 17.4806 17.6156C18.6522 17.6117 19.8228 17.6131 20.9934 17.6131C21.1306 17.6131 21.1306 17.6131 21.1306 17.7601C21.1306 18.287 21.1287 18.8138 21.1324 19.3406C21.1334 19.4382 21.11 19.4686 21.012 19.4684C19.8377 19.465 18.6643 19.4642 17.49 19.4662C17.3565 19.4662 17.3565 19.4662 17.3565 19.6081C17.3565 20.6341 17.3565 21.6602 17.3565 22.6863V22.8264Z" fill="#DA291C"/>
<path d="M13.5564 18.017V22.6971C13.5564 22.8329 13.5564 22.8331 13.4276 22.8331C12.8535 22.8331 12.2794 22.8312 11.7062 22.8351C11.6138 22.8357 11.5802 22.8158 11.5802 22.7118C11.583 19.5849 11.583 16.4579 11.5811 13.3311C11.5811 13.2384 11.6045 13.2079 11.6969 13.2085C12.2812 13.2129 12.8647 13.2129 13.449 13.2085C13.5396 13.2079 13.5583 13.2388 13.5573 13.3267C13.5555 14.8901 13.5545 16.4535 13.5564 18.017Z" fill="#DA291C"/>
<path d="M38.6307 24.9634H31.049V27.0016H38.6307V24.9634Z" fill="#DA291C"/>
</g>
</g>
</svg>
