<svg width="100%" height="100%" viewBox="0 0 246 102" fill="none" xmlns="http://www.w3.org/2000/svg">
<path d="M104 49.7314C104 22.2655 81.1665 0 53 0C24.8335 0 2 22.2655 2 49.7314V52.2687C2 79.7345 24.8335 102 53 102C81.1665 102 104 79.7345 104 52.2687V49.7314Z" fill="#FF0043"/>
<path d="M95.4027 33.9415C93.0846 28.5981 89.7668 23.7994 85.5415 19.6782C81.3162 15.557 76.3939 12.3218 70.9142 10.0624C65.2396 7.72233 59.2128 6.53491 53.0006 6.53491C46.7883 6.53491 40.7616 7.7213 35.087 10.0624C29.6072 12.3228 24.6861 15.558 20.4597 19.6782C16.2333 23.7984 12.9155 28.5981 10.5985 33.9415C8.19868 39.4749 6.98096 45.3517 6.98096 51.4093C6.98096 57.467 8.19763 63.3437 10.5985 68.8772C12.9165 74.2205 16.2343 79.0192 20.4597 83.1404C24.685 87.2606 29.6072 90.4969 35.087 92.7562C40.7616 95.0963 46.7883 96.2837 53.0006 96.2837C59.2128 96.2837 65.2396 95.0973 70.9142 92.7562C76.3939 90.4958 81.3162 87.2606 85.5415 83.1404C89.7668 79.0192 93.0857 74.2205 95.4027 68.8772C97.8025 63.3437 99.0202 57.467 99.0202 51.4093C99.0202 45.3517 97.8036 39.4749 95.4027 33.9415ZM95.8732 51.0006H85.311C85.3005 50.2066 85.2606 49.4177 85.1904 48.6339L93.4734 47.8164C93.6463 47.799 93.7721 47.6488 93.7543 47.4802C93.7364 47.3116 93.5824 47.188 93.4095 47.2064L85.1297 48.0239C84.6528 43.6411 83.2517 39.4565 81.0186 35.6868L90.1514 30.5581C93.7249 36.5891 95.7988 43.5654 95.8722 51.0006H95.8732ZM10.128 51.0006C10.151 48.685 10.3679 46.4144 10.763 44.2031L21.1503 46.0373C20.8652 47.6631 20.7112 49.3216 20.6902 51.0006H10.128ZM22.1877 46.2203L31.634 47.889C31.4589 48.9037 31.3573 49.9429 31.3374 51.0006H21.7392C21.7612 49.3737 21.9142 47.7776 22.1888 46.2203H22.1877ZM66.8189 65.7645L63.4717 61.9131C64.0774 61.3388 64.6339 60.7155 65.1337 60.0492L69.4827 62.7868C68.6978 63.8649 67.8039 64.8612 66.8189 65.7645ZM37.1954 63.6646L41.2489 60.5387C41.6576 61.0374 42.0988 61.5105 42.5693 61.953L39.0964 65.6879C38.4163 65.0574 37.7812 64.3809 37.1954 63.6646ZM39.6329 36.6525L42.9749 40.4978C40.6254 42.5528 38.9403 45.3159 38.278 48.4398L33.1891 47.5405C34.0704 43.2446 36.3885 39.4493 39.6319 36.6525H39.6329ZM62.822 56.489L63.9695 57.0654C63.3868 58.1353 62.6449 59.1111 61.774 59.9603L59.9935 57.9125C61.534 56.299 62.5097 54.1663 62.6113 51.817H65.4031C65.3454 53.4909 64.9378 55.0799 64.2493 56.5166L63.1091 55.9433C62.955 55.8657 62.7654 55.925 62.6857 56.0752C62.6061 56.2254 62.6669 56.4103 62.8209 56.488L62.822 56.489ZM41.7152 56.4461L47.5837 53.7218C48.3152 55.3456 49.7928 56.579 51.5911 57.0102L50.4541 63.2559C46.563 62.4619 43.3364 59.8857 41.7152 56.4461ZM44.6683 42.4465L46.278 44.2981C44.7962 45.5928 43.7147 47.328 43.2599 49.3196L40.8591 48.8955C41.4092 46.3654 42.7726 44.1244 44.6694 42.4465H44.6683ZM43.2589 49.9429C43.2777 49.946 43.2966 49.948 43.3154 49.948C43.3804 49.948 43.4412 49.9276 43.4925 49.8929C43.6005 49.8785 43.6927 49.7999 43.7137 49.6895C44.1066 47.7009 45.1556 45.9689 46.6165 44.6875L48.8727 47.284C47.8646 48.2425 47.2065 49.5485 47.1017 51.0006H40.596C40.6138 50.4917 40.6631 49.9899 40.7438 49.4984L43.2589 49.9429ZM57.8191 55.411C57.708 55.2832 57.533 55.2383 57.3779 55.2842C58.2445 54.3543 58.802 53.1475 58.8984 51.8191H62.0884C61.9878 54.012 61.0824 56.0047 59.654 57.5221L57.8201 55.412L57.8191 55.411ZM48.4483 51.4103C48.4483 48.963 50.4907 46.9713 53.0006 46.9713C55.5104 46.9713 57.5529 48.963 57.5529 51.4103C57.5529 53.8577 55.5104 55.8493 53.0006 55.8493C50.4907 55.8493 48.4483 53.8577 48.4483 51.4103ZM58.8984 51.0016C58.8345 50.1115 58.562 49.2777 58.1292 48.544L60.9084 46.9836C61.6011 48.1812 62.0213 49.5475 62.0884 51.0016H58.8984ZM57.9092 48.1965C56.8455 46.6576 55.043 45.6429 53.0006 45.6429C51.6969 45.6429 50.4918 46.0568 49.513 46.7557L47.2652 44.1704C48.8266 43.032 50.758 42.3658 52.8214 42.3658C56.1381 42.3658 59.0535 44.0723 60.6936 46.6321L57.9081 48.1965H57.9092ZM47.1027 51.8191C47.1415 52.3494 47.2526 52.8604 47.4286 53.3427L41.5476 56.0731C40.9817 54.7559 40.6484 53.3223 40.5971 51.8191H47.1027ZM52.0019 57.094C52.3268 57.1481 52.66 57.1778 53.0006 57.1778C54.5893 57.1778 56.0323 56.5626 57.096 55.5653C57.0603 55.6909 57.0865 55.832 57.1798 55.9403L59.0577 58.1015C57.861 59.1622 56.3802 59.9235 54.7412 60.2607C54.7245 60.2597 54.7077 60.2607 54.6909 60.2628C54.671 60.2659 54.6521 60.273 54.6343 60.2822C54.0485 60.3956 53.4418 60.4559 52.8224 60.4559C52.6778 60.4559 52.5605 60.5704 52.5605 60.7114C52.5605 60.8524 52.6778 60.9669 52.8224 60.9669C53.4219 60.9669 54.0087 60.9137 54.5798 60.8126L55.0483 63.3478C54.3818 63.4561 53.6985 63.5134 53.0006 63.5134C52.3027 63.5134 51.5597 63.451 50.8659 63.3335L52.0019 57.094ZM54.9896 60.7308C56.66 60.3619 58.1691 59.5761 59.3962 58.4909L61.161 60.5213C59.566 61.8814 57.6126 62.8502 55.4591 63.2742L54.9885 60.7298L54.9896 60.7308ZM62.6124 51.0026C62.5453 49.4555 62.0989 48.0024 61.3622 46.7291L63.7599 45.3823C64.745 47.048 65.335 48.9619 65.4041 51.0026H62.6124ZM61.1484 46.3776C59.4172 43.6646 56.3331 41.8548 52.8224 41.8548C50.6312 41.8548 48.5803 42.566 46.9267 43.78L45.3086 41.9192C47.4244 40.2852 50.0978 39.3083 53.0006 39.3083C57.4449 39.3083 61.3517 41.5983 63.544 45.0328L61.1484 46.3776ZM65.2197 42.8849L69.4796 40.0287C69.7657 40.4222 70.0381 40.8258 70.2949 41.2397L65.8139 43.7565C65.6263 43.4592 65.4282 43.1679 65.2197 42.8849ZM64.8424 42.3933C63.6907 40.9586 62.2707 39.7375 60.6569 38.8025L63.2359 34.434C65.5173 35.7471 67.5126 37.4843 69.1065 39.5352L64.8424 42.3944V42.3933ZM60.1099 38.5C58.1051 37.4465 55.829 36.8231 53.4114 36.7588L53.3936 31.7158C56.7554 31.7792 59.9191 32.6468 62.6899 34.1295L60.1099 38.499V38.5ZM52.573 36.7598C50.0936 36.8272 47.7629 37.4843 45.7215 38.59L43.1258 34.2307C45.9259 32.6948 49.1368 31.7894 52.5552 31.7179L52.573 36.7608V36.7598ZM45.1787 38.8986C44.6338 39.2235 44.1108 39.5822 43.6141 39.9705L40.2722 36.1252C41.0026 35.5458 41.7739 35.0154 42.5829 34.5382L45.1787 38.8975V38.8986ZM38.1648 49.0447C38.0579 49.6844 37.9929 50.3384 37.974 51.0026H32.8024C32.8223 50.0318 32.9156 49.0784 33.0759 48.1465L38.1637 49.0447H38.1648ZM37.974 51.8201C38.0275 53.7157 38.4519 55.5213 39.1792 57.1727L34.5095 59.3411C33.4637 57.0316 32.8601 54.4902 32.8035 51.8201H37.9751H37.974ZM39.35 57.5456C39.7713 58.4326 40.2806 59.2726 40.8674 60.0533L36.8108 63.1813C35.985 62.1042 35.2714 60.9423 34.6824 59.712L39.35 57.5456ZM43.0314 62.3709C44.9722 64.0509 47.3595 65.2505 49.9961 65.7737L49.0928 70.738C45.4784 70.0441 42.2078 68.4081 39.5606 66.1038L43.0325 62.3709H43.0314ZM50.408 65.8494C51.2505 65.9924 52.1161 66.068 53.0006 66.068C53.8851 66.068 54.6951 65.9965 55.5125 65.8626L56.4295 70.8248C55.3145 71.0118 54.169 71.1099 53.0006 71.1099C51.8321 71.1099 50.6406 71.0078 49.5046 70.8136L50.408 65.8494ZM55.9244 65.7891C58.5411 65.2843 60.9157 64.1152 62.8545 62.47L66.1964 66.3143C63.5765 68.5226 60.3708 70.086 56.8413 70.7513L55.9244 65.7891ZM65.4953 59.5495C65.7856 59.1275 66.0538 58.6891 66.298 58.2374L70.8933 60.5469C70.5715 61.1447 70.2184 61.7241 69.838 62.283L65.4953 59.5495ZM66.581 57.6897C67.4539 55.9015 67.9663 53.9149 68.0261 51.8191H73.1977C73.1359 54.7457 72.417 57.518 71.1794 60.0002L66.582 57.6897H66.581ZM68.0261 51.0016C68.0198 50.7768 68.0083 50.554 67.9915 50.3323L73.1369 49.8244C73.1684 50.2137 73.1893 50.6061 73.1977 51.0016H68.0261ZM67.9318 49.7222C67.6928 47.6969 67.0295 45.7962 66.0297 44.107L70.5087 41.5912C71.8658 43.8822 72.7618 46.4645 73.0761 49.2143L67.9318 49.7222ZM71.7798 40.8769L80.0953 36.207C82.2164 39.7876 83.6112 43.825 84.0859 48.1281L74.5359 49.0703C74.2006 46.114 73.2386 43.3396 71.7798 40.8769ZM71.566 40.5254C71.2894 40.0788 70.997 39.6425 70.6879 39.2174L78.5946 33.9169C79.0484 34.5454 79.477 35.1922 79.8815 35.8544L71.566 40.5244V40.5254ZM70.3169 38.7228C68.5983 36.4982 66.4395 34.6139 63.9674 33.1935L68.7544 25.0839C72.4662 27.2043 75.6929 30.0502 78.2268 33.4193L70.3158 38.7228H70.3169ZM63.4214 32.89C60.4337 31.2846 57.0184 30.3475 53.3883 30.2852L53.3558 20.9249C58.7402 20.9842 63.8018 22.3759 68.2095 24.7794L63.4214 32.89ZM52.55 30.2862C48.8654 30.3598 45.4051 31.3347 42.3891 32.9932L37.5706 24.9C41.995 22.4424 47.0902 21.0077 52.5175 20.9269L52.55 30.2862ZM41.8462 33.3018C40.9628 33.8209 40.1202 34.4003 39.3238 35.0338L33.1189 27.8951C34.3471 26.9069 35.6539 26.0087 37.0277 25.2096L41.8462 33.3018ZM38.6846 35.5632C35.1865 38.5705 32.6892 42.659 31.7461 47.2881L22.3009 45.6194C23.6486 38.8148 27.3216 32.8092 32.4807 28.4244L38.6846 35.5632ZM31.3363 51.8201C31.3929 54.7099 32.0469 57.4598 33.1839 59.9562L24.5142 63.9804C22.7819 60.2628 21.7958 56.1487 21.7371 51.8201H31.3353H31.3363ZM33.3578 60.3282C33.9939 61.6556 34.7673 62.9094 35.6602 64.0693L28.1338 69.8735C26.7966 68.1649 25.6397 66.3143 24.6913 64.3503L33.3568 60.3272L33.3578 60.3282ZM36.0458 64.5546C36.6819 65.3333 37.3725 66.067 38.1124 66.7506L31.6675 73.681C30.5368 72.6509 29.4846 71.5402 28.5205 70.3578L36.0458 64.5546ZM38.5756 67.1645C41.4228 69.6466 44.945 71.4073 48.836 72.1482L47.1583 81.3654C41.4522 80.3098 36.29 77.7368 32.1307 74.0948L38.5756 67.1645ZM49.2489 72.2238C50.4677 72.4322 51.7221 72.5416 53.0016 72.5416C54.2812 72.5416 55.4916 72.4353 56.6904 72.234L58.3923 81.4462C56.6401 81.7445 54.8387 81.9009 53.0006 81.9009C51.1625 81.9009 49.3349 81.7425 47.5701 81.44L49.2479 72.2238H49.2489ZM57.1023 72.1604C60.8916 71.4492 64.3331 69.7744 67.1447 67.4067L73.3475 74.5434C69.2721 77.9565 64.2891 80.365 58.8041 81.3726L57.1023 72.1604ZM67.7683 66.86C68.8623 65.8647 69.8516 64.7621 70.7162 63.5665L73.4041 65.2587C73.4565 65.2924 73.5163 65.3078 73.5739 65.3078C73.6766 65.3078 73.7783 65.2587 73.838 65.1678C73.9323 65.0257 73.8904 64.8357 73.7447 64.7437L71.0704 63.0607C71.477 62.4619 71.8542 61.8426 72.198 61.2039L80.7293 65.4907C79.0054 68.7065 76.7115 71.5872 73.9774 74.0039L67.7693 66.86H67.7683ZM72.483 60.6572C73.8254 57.9789 74.603 54.9838 74.6648 51.8211H84.263C84.1991 56.5279 83.0369 60.9791 81.0144 64.944L72.483 60.6562V60.6572ZM74.6648 51.0036C74.6564 50.5601 74.6334 50.1197 74.5967 49.6824L84.1467 48.7402C84.2137 49.4872 84.2525 50.2423 84.263 51.0036H74.6648ZM53.0006 9.60359C68.7104 9.60359 82.4742 17.8858 89.9418 30.2076L80.809 35.3363C80.3919 34.6527 79.9475 33.9834 79.476 33.3283L86.5999 28.5531C86.7435 28.4571 86.7791 28.266 86.6806 28.127C86.5821 27.987 86.3861 27.9523 86.2436 28.0483L79.1081 32.8317C78.1304 31.5309 77.0437 30.2924 75.8522 29.1305C73.8621 27.19 71.6562 25.5345 69.2888 24.1836L73.5938 16.8895C73.6808 16.7424 73.6284 16.5554 73.4785 16.4706C73.3276 16.3857 73.1359 16.4368 73.0489 16.583L68.7429 23.8771C64.0847 21.3357 58.8272 19.9602 53.3527 19.904L53.3233 11.4205C53.3233 11.1957 53.1347 11.0127 52.9042 11.0127H52.9031C52.6715 11.0127 52.485 11.1967 52.485 11.4225L52.5143 19.9051C47 19.9837 41.71 21.4001 37.0351 23.9987L32.619 16.5809C32.532 16.4348 32.3392 16.3847 32.1894 16.4695C32.0395 16.5543 31.9882 16.7424 32.0751 16.8885L36.4922 24.3073C35.0765 25.1309 33.7194 26.0649 32.4325 27.1031L25.6187 19.2623C33.0508 13.2322 42.5997 9.60154 53.0016 9.60154L53.0006 9.60359ZM24.9784 19.7937L31.7932 27.6355C31.2305 28.1137 30.6824 28.6114 30.149 29.1305C25.516 33.6482 22.4644 39.2971 21.2624 45.4375L10.8751 43.6022C12.7111 34.1663 17.8084 25.8431 24.9784 19.7937ZM10.128 51.8211H20.6902C20.7479 56.2397 21.7319 60.5131 23.5532 64.4279L14.0337 68.8465C11.5804 63.6534 10.1877 57.89 10.128 51.8211ZM14.2108 69.2174L23.7282 64.7999C24.6986 66.814 25.8943 68.73 27.2986 70.5193L20.4492 75.8013C20.313 75.9066 20.2899 76.0997 20.3979 76.2316C20.4597 76.3082 20.5519 76.348 20.6441 76.348C20.7122 76.348 20.7814 76.3266 20.839 76.2816L27.6853 71.0016C28.4492 71.9366 29.2698 72.8359 30.149 73.6943C30.4131 73.9518 30.6814 74.2011 30.9528 74.4484L24.882 80.9761C24.7657 81.1018 24.7751 81.2949 24.904 81.4094C24.9638 81.4625 25.0403 81.4891 25.1147 81.4891C25.2006 81.4891 25.2855 81.4554 25.3473 81.3889L31.4149 74.8643C35.8446 78.7505 41.1986 81.3215 46.9728 82.3781L45.1273 92.514C31.4286 90.0258 19.9996 81.1651 14.2087 69.2174H14.2108ZM45.5413 92.5876L47.3857 82.4527C49.2217 82.7644 51.0975 82.9238 52.9995 82.9238C54.9016 82.9238 56.7533 82.7664 58.5778 82.4588L60.4494 92.5886C58.0297 93.0035 55.5398 93.2212 52.9995 93.2212C50.4593 93.2212 47.9641 93.0035 45.5402 92.5876H45.5413ZM60.8623 92.5161L58.9907 82.3853C64.5427 81.3756 69.7059 78.9671 74.035 75.3364L77.5173 79.3431C77.6001 79.4382 77.7186 79.4872 77.837 79.4872C77.9323 79.4872 78.0288 79.4556 78.1074 79.3902C78.2845 79.244 78.3054 78.9865 78.1566 78.8138L74.6638 74.7948C75.0672 74.4382 75.4623 74.0723 75.8501 73.6943C78.2174 71.3858 80.1707 68.7811 81.6767 65.9679L83.5315 66.8998C83.5777 66.9233 83.6269 66.9336 83.6751 66.9336C83.7893 66.9336 83.8993 66.8733 83.9549 66.767C84.0345 66.6168 83.9738 66.4318 83.8197 66.3542L81.9638 65.4212C84.0953 61.2407 85.2491 56.6168 85.311 51.8211H95.8732C95.6731 72.0746 80.6298 88.9283 60.8623 92.5151V92.5161Z" fill="url(#paint0_linear_190_18)"/>
<path d="M130.05 10.325H132V27.5H130.05V19.675H119.925V27.5H117.975V10.325H119.925V17.825H130.05V10.325ZM145.069 14.575H146.944V27.5H145.069V25.425C144.319 26.8 142.644 27.8 140.819 27.8C137.969 27.8 135.969 25.725 135.969 22.8V14.575H137.844V22.55C137.844 24.65 139.169 26.125 141.069 26.125C143.244 26.125 145.069 24.6 145.069 22.8V14.575ZM164.839 14.275C167.539 14.275 169.439 16.35 169.439 19.275V27.5H167.564V19.525C167.564 17.425 166.339 15.95 164.589 15.95C162.539 15.95 161.089 17.325 161.089 19.275V27.5H159.214V19.525C159.214 17.425 157.989 15.95 156.239 15.95C154.189 15.95 152.739 17.325 152.739 19.275V27.5H150.864V14.575H152.739V16.475C153.389 15.125 154.789 14.275 156.489 14.275C158.439 14.275 159.964 15.35 160.664 17.025C161.189 15.35 162.889 14.275 164.839 14.275ZM178.577 14.275C182.102 14.275 183.827 16.5 183.827 19.625V27.5H181.952V25.475C181.027 27 179.102 27.8 177.402 27.8C174.677 27.8 172.677 26.225 172.677 23.675C172.677 21.1 174.977 19.375 177.752 19.375C179.152 19.375 180.627 19.675 181.952 20.1V19.625C181.952 17.875 181.252 15.875 178.452 15.875C177.152 15.875 175.852 16.45 174.677 17.05L173.927 15.525C175.777 14.6 177.327 14.275 178.577 14.275ZM177.727 26.15C179.427 26.15 181.452 25.275 181.952 23.45V21.475C180.777 21.15 179.452 20.95 178.052 20.95C176.127 20.95 174.502 22.05 174.502 23.6C174.502 25.2 175.902 26.15 177.727 26.15ZM193.908 14.275C196.758 14.275 198.758 16.35 198.758 19.275V27.5H196.883V19.525C196.883 17.425 195.558 15.95 193.658 15.95C191.483 15.95 189.658 17.475 189.658 19.275V27.5H187.783V14.575H189.658V16.65C190.408 15.275 192.083 14.275 193.908 14.275Z" fill="currentColor"/>
<path d="M131.275 46.325C131.275 49.025 129.325 51.075 126.6 51.65L131.05 58H128.825L124.475 51.825H119.925V58H117.975V40.825H124.95C128.5 40.825 131.275 43.1 131.275 46.325ZM119.925 42.675V49.975H124.6C127.4 49.975 129.3 48.625 129.3 46.325C129.3 44.025 127.4 42.675 124.6 42.675H119.925ZM140.085 56.625C141.61 56.625 143.36 55.95 144.16 55.075L145.31 56.3C144.185 57.525 141.91 58.3 140.11 58.3C136.66 58.3 133.56 55.475 133.56 51.5C133.56 47.65 136.46 44.775 139.935 44.775C143.835 44.775 146.06 47.725 146.06 52.25H135.485C135.76 54.775 137.535 56.625 140.085 56.625ZM140.01 46.45C137.71 46.45 135.86 48.075 135.51 50.575H144.21C143.96 48.25 142.585 46.45 140.01 46.45ZM152.153 43.3V45.075H155.328V46.75H152.153V58H150.278V46.75H148.253V45.075H150.278V43.3C150.278 41.375 151.578 40 153.428 40C154.303 40 155.153 40.3 155.828 40.825L154.903 42.2C154.628 41.9 154.128 41.675 153.553 41.675C152.803 41.675 152.153 42.35 152.153 43.3ZM163.918 56.625C165.443 56.625 167.193 55.95 167.993 55.075L169.143 56.3C168.018 57.525 165.743 58.3 163.943 58.3C160.493 58.3 157.393 55.475 157.393 51.5C157.393 47.65 160.293 44.775 163.768 44.775C167.668 44.775 169.893 47.725 169.893 52.25H159.318C159.593 54.775 161.368 56.625 163.918 56.625ZM163.843 46.45C161.543 46.45 159.693 48.075 159.343 50.575H168.043C167.793 48.25 166.418 46.45 163.843 46.45ZM175.111 47.6C175.886 45.875 177.736 44.775 180.111 44.775V46.45C177.186 46.45 175.111 48.25 175.111 50.775V58H173.236V45.075H175.111V47.6ZM188.629 56.625C190.154 56.625 191.904 55.95 192.704 55.075L193.854 56.3C192.729 57.525 190.454 58.3 188.654 58.3C185.204 58.3 182.104 55.475 182.104 51.5C182.104 47.65 185.004 44.775 188.479 44.775C192.379 44.775 194.604 47.725 194.604 52.25H184.029C184.304 54.775 186.079 56.625 188.629 56.625ZM188.554 46.45C186.254 46.45 184.404 48.075 184.054 50.575H192.754C192.504 48.25 191.129 46.45 188.554 46.45ZM203.922 44.775C206.772 44.775 208.772 46.85 208.772 49.775V58H206.897V50.025C206.897 47.925 205.572 46.45 203.672 46.45C201.497 46.45 199.672 47.975 199.672 49.775V58H197.797V45.075H199.672V47.15C200.422 45.775 202.097 44.775 203.922 44.775ZM218.667 58.3C215.042 58.3 211.967 55.2 211.967 51.525C211.967 47.85 215.042 44.775 218.667 44.775C220.417 44.775 222.042 45.5 223.267 46.675L221.967 47.95C221.117 47.025 219.942 46.45 218.667 46.45C216.092 46.45 213.942 48.775 213.942 51.525C213.942 54.3 216.092 56.625 218.667 56.625C219.967 56.625 221.167 56.025 222.042 55.05L223.342 56.325C222.117 57.55 220.467 58.3 218.667 58.3ZM232.142 56.625C233.667 56.625 235.417 55.95 236.217 55.075L237.367 56.3C236.242 57.525 233.967 58.3 232.167 58.3C228.717 58.3 225.617 55.475 225.617 51.5C225.617 47.65 228.517 44.775 231.992 44.775C235.892 44.775 238.117 47.725 238.117 52.25H227.542C227.817 54.775 229.592 56.625 232.142 56.625ZM232.067 46.45C229.767 46.45 227.917 48.075 227.567 50.575H236.267C236.017 48.25 234.642 46.45 232.067 46.45Z" fill="currentColor"/>
<path d="M131.95 88.5L130.225 84.6H120.65L118.925 88.5H116.8L124.375 71.325H126.5L134.075 88.5H131.95ZM121.45 82.75H129.425L125.45 73.725L121.45 82.75ZM142.547 86.6L143.472 87.975C142.797 88.5 141.947 88.8 141.072 88.8C139.222 88.8 137.922 87.425 137.922 85.5V77.25H135.897V75.575H137.922V72.025H139.797V75.575H142.972V77.25H139.797V85.5C139.797 86.45 140.447 87.125 141.197 87.125C141.772 87.125 142.272 86.9 142.547 86.6ZM146.225 88.5V71.025H148.1V88.5H146.225ZM157.239 75.275C160.764 75.275 162.489 77.5 162.489 80.625V88.5H160.614V86.475C159.689 88 157.764 88.8 156.064 88.8C153.339 88.8 151.339 87.225 151.339 84.675C151.339 82.1 153.639 80.375 156.414 80.375C157.814 80.375 159.289 80.675 160.614 81.1V80.625C160.614 78.875 159.914 76.875 157.114 76.875C155.814 76.875 154.514 77.45 153.339 78.05L152.589 76.525C154.439 75.6 155.989 75.275 157.239 75.275ZM156.389 87.15C158.089 87.15 160.114 86.275 160.614 84.45V82.475C159.439 82.15 158.114 81.95 156.714 81.95C154.789 81.95 153.164 83.05 153.164 84.6C153.164 86.2 154.564 87.15 156.389 87.15ZM170.995 88.8C169.195 88.8 167.195 88.125 165.645 86.875L166.62 85.5C168.095 86.575 169.57 87.125 170.995 87.125C172.695 87.125 173.845 86.325 173.845 85.1C173.845 83.7 172.345 83.25 170.595 82.75C167.47 81.85 166.27 80.925 166.27 79.075C166.27 76.725 168.22 75.275 170.795 75.275C172.395 75.275 174.045 75.825 175.42 76.725L174.52 78.175C173.22 77.35 171.945 76.95 170.795 76.95C169.345 76.95 168.145 77.6 168.145 78.85C168.145 79.975 169.095 80.325 171.495 81.1C173.57 81.75 175.72 82.45 175.72 84.9C175.72 87.275 173.67 88.8 170.995 88.8Z" fill="currentColor"/>
<defs>
<linearGradient id="paint0_linear_190_18" x1="13.1366" y1="73.8506" x2="91.8463" y2="27.248" gradientUnits="userSpaceOnUse">
<stop offset="0.12" stop-color="white" stop-opacity="0"/>
<stop offset="0.44" stop-color="white"/>
</linearGradient>
</defs>
</svg>
