<svg width="221" height="220" viewBox="0 0 221 220" fill="none" xmlns="http://www.w3.org/2000/svg">
<path d="M220.805 107.264C220.805 48.0236 171.556 0 110.805 0C50.0534 0 0.804688 48.0236 0.804688 107.264V112.736C0.804688 171.976 50.0534 220 110.805 220C171.556 220 220.805 171.976 220.805 112.736V107.264Z" fill="#FF0043"/>
<path d="M202.261 73.207C197.262 61.6821 190.106 51.3319 180.992 42.4431C171.879 33.5542 161.262 26.5762 149.443 21.7031C137.204 16.6559 124.205 14.0948 110.806 14.0948C97.4069 14.0948 84.4081 16.6537 72.1686 21.7031C60.3496 26.5784 49.7353 33.5564 40.6196 42.4431C31.5039 51.3297 24.3478 61.6821 19.3503 73.207C14.1743 85.1418 11.5479 97.8172 11.5479 110.883C11.5479 123.948 14.172 136.624 19.3503 148.558C24.3501 160.083 31.5061 170.433 40.6196 179.322C49.7331 188.209 60.3496 195.189 72.1686 200.062C84.4081 205.11 97.4069 207.671 110.806 207.671C124.205 207.671 137.204 205.112 149.443 200.062C161.262 195.187 171.879 188.209 180.992 179.322C190.106 170.433 197.264 160.083 202.261 148.558C207.437 136.624 210.064 123.948 210.064 110.883C210.064 97.8172 207.44 85.1418 202.261 73.207ZM203.276 110.001H180.495C180.472 108.289 180.386 106.587 180.235 104.897L198.1 103.133C198.473 103.096 198.744 102.772 198.706 102.408C198.668 102.045 198.335 101.778 197.962 101.818L180.104 103.581C179.075 94.1276 176.053 85.1021 171.237 76.9715L190.935 65.9094C198.643 78.9176 203.116 93.9645 203.274 110.001H203.276ZM18.3355 110.001C18.3852 105.007 18.8531 100.109 19.7052 95.3399L42.1091 99.2961C41.4943 102.803 41.1621 106.38 41.1169 110.001H18.3355ZM44.3468 99.6906L64.721 103.29C64.3435 105.478 64.1243 107.72 64.0813 110.001H43.3794C43.4269 106.492 43.7569 103.05 44.3491 99.6906H44.3468ZM140.61 141.845L133.391 133.538C134.697 132.299 135.897 130.955 136.975 129.518L146.356 135.422C144.663 137.748 142.735 139.897 140.61 141.845ZM76.7163 137.316L85.4591 130.574C86.3406 131.649 87.2921 132.67 88.307 133.624L80.8164 141.68C79.3495 140.32 77.9798 138.861 76.7163 137.316ZM81.9737 79.0543L89.1817 87.348C84.1142 91.7803 80.4797 97.7401 79.0512 104.478L68.0752 102.538C69.9761 93.2725 74.9759 85.0867 81.9715 79.0543H81.9737ZM131.989 121.839L134.464 123.082C133.208 125.39 131.607 127.495 129.729 129.326L125.889 124.909C129.211 121.429 131.316 116.829 131.535 111.762H137.556C137.432 115.372 136.553 118.8 135.068 121.898L132.609 120.662C132.276 120.495 131.867 120.622 131.695 120.946C131.524 121.27 131.655 121.669 131.987 121.837L131.989 121.839ZM86.4649 121.746L99.1225 115.87C100.7 119.373 103.887 122.033 107.766 122.963L105.313 136.434C96.9209 134.722 89.9616 129.165 86.4649 121.746ZM92.8344 91.5511L96.3062 95.5448C93.1101 98.3373 90.7775 102.08 89.7966 106.375L84.6182 105.461C85.8049 100.004 88.7455 95.1702 92.8366 91.5511H92.8344ZM89.7943 107.72C89.835 107.727 89.8756 107.731 89.9163 107.731C90.0565 107.731 90.1876 107.687 90.2983 107.612C90.5311 107.581 90.73 107.411 90.7753 107.173C91.6229 102.884 93.8854 99.1484 97.0362 96.3846L101.903 101.985C99.7282 104.052 98.3088 106.869 98.0827 110.001H84.0509C84.0893 108.903 84.1956 107.821 84.3696 106.761L89.7943 107.72ZM121.199 119.514C120.959 119.238 120.582 119.141 120.247 119.24C122.116 117.235 123.319 114.632 123.527 111.767H130.407C130.19 116.496 128.237 120.794 125.156 124.067L121.201 119.516L121.199 119.514ZM100.987 110.885C100.987 105.606 105.392 101.311 110.806 101.311C116.219 101.311 120.625 105.606 120.625 110.885C120.625 116.164 116.219 120.459 110.806 120.459C105.392 120.459 100.987 116.164 100.987 110.885ZM123.527 110.003C123.389 108.084 122.801 106.285 121.868 104.703L127.862 101.337C129.356 103.92 130.262 106.867 130.407 110.003H123.527ZM121.393 103.953C119.099 100.634 115.211 98.4454 110.806 98.4454C107.994 98.4454 105.395 99.338 103.284 100.846L98.4353 95.2693C101.803 92.814 105.969 91.377 110.419 91.377C117.573 91.377 123.861 95.0577 127.399 100.579L121.391 103.953H121.393ZM98.085 111.767C98.1686 112.91 98.4082 114.012 98.7879 115.053L86.1032 120.942C84.8827 118.101 84.1639 115.009 84.0532 111.767H98.085ZM108.652 123.144C109.353 123.261 110.071 123.324 110.806 123.324C114.232 123.324 117.345 121.998 119.639 119.847C119.562 120.118 119.619 120.422 119.82 120.655L123.87 125.317C121.289 127.605 118.095 129.247 114.56 129.974C114.524 129.972 114.488 129.974 114.452 129.978C114.409 129.985 114.368 130 114.33 130.02C113.066 130.265 111.757 130.395 110.422 130.395C110.11 130.395 109.857 130.642 109.857 130.946C109.857 131.25 110.11 131.497 110.422 131.497C111.715 131.497 112.98 131.382 114.212 131.164L115.222 136.632C113.785 136.866 112.311 136.989 110.806 136.989C109.301 136.989 107.698 136.855 106.202 136.602L108.652 123.144ZM115.096 130.988C118.699 130.192 121.954 128.497 124.6 126.157L128.407 130.536C124.967 133.47 120.753 135.559 116.108 136.474L115.094 130.986L115.096 130.988ZM131.537 110.006C131.393 106.669 130.43 103.534 128.841 100.788L134.012 97.8833C136.137 101.476 137.409 105.604 137.559 110.006H131.537ZM128.38 100.03C124.646 94.1783 117.994 90.275 110.422 90.275C105.695 90.275 101.272 91.809 97.7053 94.4274L94.2154 90.4138C98.7789 86.8896 104.545 84.7825 110.806 84.7825C120.392 84.7825 128.818 89.7218 133.547 97.1295L128.38 100.03ZM137.161 92.4967L146.349 86.3364C146.966 87.1849 147.554 88.0555 148.107 88.9482L138.442 94.3767C138.038 93.7353 137.611 93.1072 137.161 92.4967ZM136.347 91.4365C133.863 88.3421 130.8 85.7082 127.319 83.6916L132.882 74.2693C137.803 77.1015 142.106 80.8484 145.544 85.2718L136.347 91.4387V91.4365ZM126.14 83.0392C121.816 80.7668 116.906 79.4223 111.692 79.2835L111.653 68.4066C118.904 68.5432 125.728 70.4144 131.704 73.6125L126.14 83.0369V83.0392ZM109.884 79.2857C104.536 79.4312 99.509 80.8484 95.106 83.2331L89.5072 73.8307C95.5467 70.518 102.472 68.5653 109.845 68.411L109.884 79.2879V79.2857ZM93.9351 83.8987C92.7598 84.5996 91.6319 85.3732 90.5605 86.2108L83.3525 77.917C84.9279 76.6673 86.5915 75.5234 88.3364 74.4941L93.9351 83.8965V83.8987ZM78.8071 105.783C78.5765 107.162 78.4364 108.573 78.3957 110.006H67.2412C67.2841 107.912 67.4853 105.855 67.8311 103.845L78.8048 105.783H78.8071ZM78.3957 111.769C78.511 115.857 79.4264 119.752 80.995 123.313L70.9232 127.99C68.6674 123.009 67.3655 117.528 67.2435 111.769H78.3979H78.3957ZM81.3634 124.118C82.2721 126.031 83.3706 127.843 84.6363 129.527L75.8868 136.273C74.1057 133.95 72.5664 131.444 71.2961 128.79L81.3634 124.118ZM89.3038 134.525C93.4898 138.149 98.6388 140.736 104.326 141.865L102.377 152.572C94.5816 151.075 87.5272 147.547 81.8178 142.577L89.3061 134.525H89.3038ZM105.214 142.028C107.031 142.336 108.898 142.5 110.806 142.5C112.714 142.5 114.461 142.345 116.224 142.057L118.201 152.759C115.797 153.163 113.326 153.374 110.806 153.374C108.286 153.374 105.716 153.154 103.266 152.735L105.214 142.028ZM117.112 141.898C122.756 140.809 127.878 138.288 132.059 134.739L139.267 143.031C133.617 147.794 126.702 151.166 119.09 152.601L117.112 141.898ZM137.755 128.44C138.381 127.53 138.96 126.584 139.487 125.61L149.398 130.591C148.704 131.881 147.942 133.13 147.122 134.336L137.755 128.44ZM140.097 124.429C141.98 120.572 143.085 116.287 143.214 111.767H154.368C154.235 118.079 152.684 124.058 150.015 129.412L140.099 124.429H140.097ZM143.214 110.003C143.2 109.518 143.175 109.038 143.139 108.56L154.237 107.464C154.305 108.304 154.35 109.15 154.368 110.003H143.214ZM143.01 107.244C142.495 102.875 141.064 98.776 138.908 95.1327L148.568 89.7064C151.495 94.6478 153.428 100.217 154.106 106.148L143.01 107.244ZM151.31 88.1657L169.245 78.0933C173.82 85.8162 176.829 94.5244 177.853 103.806L157.255 105.838C156.531 99.4614 154.456 93.4775 151.31 88.1657ZM150.849 87.4075C150.252 86.4444 149.622 85.5033 148.955 84.5864L166.009 73.1541C166.987 74.5095 167.912 75.9047 168.784 77.3329L150.849 87.4053V87.4075ZM148.155 83.5196C144.448 78.7215 139.792 74.6572 134.46 71.5936L144.785 54.1024C152.791 58.6758 159.75 64.814 165.215 72.0807L148.152 83.5196H148.155ZM133.282 70.939C126.838 67.4765 119.472 65.4554 111.642 65.3209L111.572 45.132C123.185 45.2598 134.103 48.2617 143.609 53.4456L133.282 70.939ZM109.834 65.3231C101.887 65.4818 94.4233 67.5845 87.9183 71.1616L77.5255 53.7057C87.0684 48.405 98.0579 45.3105 109.764 45.1364L109.834 65.3231ZM86.7474 71.8272C84.842 72.9469 83.0247 74.1966 81.3069 75.5631L67.9238 60.1657C70.5729 58.0344 73.3914 56.0971 76.3546 54.3735L86.7474 71.8272ZM79.9282 76.7048C72.3833 83.1912 66.9971 92.0096 64.9628 101.994L44.5909 98.3947C47.4976 83.718 55.4199 70.7649 66.5473 61.3074L79.9282 76.7048ZM64.0791 111.769C64.2011 118.002 65.6115 123.933 68.0639 129.317L49.3646 137.997C45.6284 129.978 43.5015 121.105 43.3749 111.769H64.0768H64.0791ZM68.4392 130.12C69.8111 132.983 71.4792 135.687 73.405 138.188L57.1716 150.707C54.2875 147.022 51.7922 143.031 49.7466 138.795L68.4369 130.117L68.4392 130.12ZM74.2368 139.235C75.6087 140.915 77.0983 142.497 78.6941 143.972L64.7933 158.92C62.3545 156.698 60.0852 154.302 58.0057 151.752L74.2368 139.235ZM79.6931 144.865C85.8343 150.218 93.4311 154.016 101.824 155.614L98.2048 175.494C85.8976 173.217 74.7634 167.667 65.7924 159.812L79.6931 144.865ZM102.714 155.777C105.343 156.226 108.048 156.462 110.808 156.462C113.568 156.462 116.179 156.233 118.764 155.799L122.435 175.668C118.656 176.312 114.77 176.649 110.806 176.649C106.841 176.649 102.899 176.307 99.0931 175.655L102.712 155.777H102.714ZM119.653 155.64C127.826 154.106 135.249 150.494 141.313 145.387L154.691 160.78C145.901 168.141 135.154 173.336 123.323 175.509L119.653 155.64ZM142.658 144.208C145.017 142.061 147.151 139.683 149.016 137.104L154.814 140.754C154.927 140.827 155.055 140.86 155.18 140.86C155.401 140.86 155.62 140.754 155.749 140.558C155.953 140.251 155.862 139.842 155.548 139.643L149.78 136.013C150.657 134.722 151.471 133.386 152.212 132.008L170.613 141.254C166.895 148.19 161.947 154.404 156.05 159.616L142.66 144.208H142.658ZM152.827 130.829C155.722 125.052 157.399 118.592 157.533 111.771H178.235C178.097 121.923 175.59 131.523 171.228 140.075L152.827 130.827V130.829ZM157.533 110.008C157.515 109.051 157.465 108.101 157.386 107.158L177.984 105.126C178.128 106.737 178.212 108.366 178.235 110.008H157.533ZM110.806 20.7135C144.69 20.7135 174.376 38.5772 190.483 65.1534L170.785 76.2155C169.885 74.741 168.927 73.2973 167.91 71.8845L183.275 61.5851C183.585 61.3779 183.661 60.9658 183.449 60.666C183.237 60.3641 182.814 60.2891 182.507 60.4963L167.116 70.8134C165.007 68.0076 162.664 65.3364 160.094 62.8304C155.801 58.6449 151.043 55.0744 145.937 52.1607L155.223 36.4283C155.41 36.1109 155.297 35.7075 154.974 35.5246C154.649 35.3417 154.235 35.4519 154.047 35.767L144.76 51.4994C134.713 46.018 123.373 43.0514 111.565 42.9302L111.502 24.6323C111.502 24.1474 111.095 23.7529 110.598 23.7529H110.596C110.096 23.7529 109.694 24.1496 109.694 24.6367L109.757 42.9324C97.8635 43.1021 86.4536 46.1569 76.3705 51.7617L66.8456 35.7626C66.658 35.4475 66.2422 35.3395 65.9189 35.5224C65.5957 35.7053 65.4849 36.1109 65.6726 36.4261L75.1996 52.4273C72.146 54.2038 69.2189 56.2183 66.4433 58.4576L51.747 41.546C67.7769 28.54 88.3726 20.7091 110.808 20.7091L110.806 20.7135ZM50.3659 42.6921L65.0645 59.6059C63.8508 60.6374 62.6686 61.7107 61.5182 62.8304C51.5254 72.5744 44.9435 84.7583 42.351 98.0023L19.9471 94.0439C23.9071 73.6918 34.9011 55.74 50.3659 42.6921ZM18.3355 111.771H41.1169C41.2412 121.301 43.3636 130.518 47.292 138.962L26.7596 148.492C21.4682 137.291 18.4643 124.861 18.3355 111.771ZM27.1415 149.292L47.6694 139.764C49.7624 144.109 52.3414 148.241 55.3702 152.1L40.597 163.493C40.3032 163.72 40.2534 164.137 40.4862 164.421C40.6196 164.586 40.8185 164.672 41.0174 164.672C41.1643 164.672 41.3135 164.626 41.4378 164.529L56.2043 153.141C57.852 155.157 59.6218 157.097 61.5182 158.948C62.0877 159.504 62.6664 160.041 63.2518 160.575L50.158 174.654C49.9071 174.925 49.9274 175.342 50.2055 175.589C50.3343 175.703 50.4993 175.761 50.6598 175.761C50.8451 175.761 51.0282 175.688 51.1616 175.545L64.2486 161.472C73.8028 169.854 85.3506 175.399 97.8047 177.678L93.8244 199.54C64.278 194.173 39.6273 175.062 27.137 149.292H27.1415ZM94.7172 199.699L98.6953 177.839C102.655 178.511 106.701 178.855 110.804 178.855C114.906 178.855 118.9 178.516 122.835 177.852L126.872 199.701C121.653 200.596 116.283 201.065 110.804 201.065C105.325 201.065 99.943 200.596 94.7149 199.699H94.7172ZM127.763 199.544L123.726 177.694C135.701 175.516 146.837 170.321 156.174 162.49L163.685 171.132C163.864 171.337 164.119 171.443 164.375 171.443C164.58 171.443 164.788 171.375 164.958 171.234C165.34 170.918 165.385 170.363 165.064 169.99L157.53 161.322C158.401 160.553 159.253 159.764 160.089 158.948C165.195 153.969 169.408 148.351 172.656 142.284L176.657 144.294C176.756 144.344 176.863 144.366 176.967 144.366C177.213 144.366 177.45 144.236 177.57 144.007C177.742 143.683 177.611 143.284 177.279 143.117L173.276 141.104C177.873 132.088 180.362 122.114 180.495 111.771H203.276C202.845 155.455 170.398 191.806 127.763 199.542V199.544Z" fill="url(#paint0_linear_163_342)"/>
<defs>
<linearGradient id="paint0_linear_163_342" x1="24.8247" y1="159.285" x2="194.591" y2="58.7701" gradientUnits="userSpaceOnUse">
<stop offset="0.12" stop-color="white" stop-opacity="0"/>
<stop offset="0.44" stop-color="white"/>
</linearGradient>
</defs>
</svg>
