<svg width="241" height="40" viewBox="0 0 241 40" fill="none" xmlns="http://www.w3.org/2000/svg">
<g clip-path="url(#clip0_325_5855)">
<path d="M20 40C31.0457 40 40 31.0457 40 20C40 8.9543 31.0457 0 20 0C8.9543 0 0 8.9543 0 20C0 31.0457 8.9543 40 20 40Z" fill="#FF0043"/>
<path d="M19.9986 2.83728C10.5347 2.83728 2.83594 10.5369 2.83594 20C2.83594 29.4631 10.5355 37.1627 19.9986 37.1627C29.4618 37.1627 37.1614 29.4631 37.1614 20C37.1614 10.5369 29.4626 2.83728 19.9986 2.83728ZM35.5951 19.6711H31.384C31.3199 17.4135 30.5947 15.3178 29.396 13.5715L32.4561 11.4676C32.5687 11.3903 32.5967 11.2365 32.5194 11.1247C32.4421 11.0121 32.2884 10.9841 32.1766 11.0614L29.1091 13.1703C28.2261 11.9954 27.1219 10.9965 25.859 10.2359L27.7032 7.01635C27.7706 6.89796 27.7303 6.7475 27.6119 6.68008C27.4935 6.61184 27.3431 6.65377 27.2756 6.77134L25.4323 9.99094C23.9015 9.15727 22.1593 8.66397 20.3086 8.61464L20.2938 4.88447C20.2938 4.7036 20.1458 4.55725 19.9649 4.55725H19.9633C19.7816 4.55725 19.6353 4.70606 19.6361 4.88776L19.6509 8.61711C17.1013 8.69439 14.7598 9.61357 12.8951 11.1058L10.1738 7.89442C12.8581 5.71157 16.2792 4.40104 20.0003 4.40104C28.4924 4.40104 35.4208 11.2217 35.5968 19.6728L35.5951 19.6711ZM27.2929 27.753L24.9431 24.9798C25.42 24.5071 25.8286 23.9661 26.155 23.3733L29.3812 25.0358C28.8336 26.0511 28.1266 26.9678 27.2929 27.7522V27.753ZM10.3908 24.5943L13.6671 23.0346C14.0157 23.7589 14.4844 24.4142 15.0484 24.9749L12.6181 27.6716C11.7038 26.7919 10.9466 25.751 10.3908 24.5951V24.5943ZM4.40216 20.3289H8.6133C8.65687 21.8499 8.99971 23.2969 9.5851 24.6132L5.78258 26.4236C4.93575 24.5581 4.44738 22.4969 4.40216 20.3289ZM12.8705 12.094L15.2178 14.8639C13.9154 16.0766 13.0735 17.7769 12.9856 19.6711H9.35407C9.44533 16.6694 10.7855 13.976 12.8705 12.094ZM19.9986 25.8703C19.6829 25.8703 19.3738 25.8448 19.0712 25.7963L19.6739 22.3999C19.78 22.4139 19.8885 22.4221 19.9978 22.4221C20.5561 22.4221 21.0699 22.2322 21.4802 21.9132L22.3525 22.9425C21.6931 23.4868 20.8479 23.8148 19.9279 23.8148C19.8145 23.8148 19.7224 23.9069 19.7224 24.0204C19.7224 24.1338 19.8145 24.2259 19.9279 24.2259C20.9491 24.2259 21.8872 23.8617 22.6181 23.2566L23.7099 24.5449C22.6978 25.3737 21.4054 25.8711 19.9978 25.8711L19.9986 25.8703ZM14.7064 22.5397L17.8199 21.0573C18.1208 21.6756 18.6782 22.1467 19.3524 22.3341L18.749 25.7354C16.9649 25.3465 15.4808 24.1462 14.7072 22.5405L14.7064 22.5397ZM15.9626 15.7428L16.9945 16.9596C16.3852 17.5466 15.9478 18.3178 15.7793 19.1959C15.7579 19.3077 15.8311 19.4154 15.9421 19.4368C16.0539 19.4582 16.1616 19.385 16.183 19.274C16.3334 18.4905 16.7207 17.8015 17.2608 17.2737L18.1989 18.3811C17.8816 18.733 17.667 19.1786 17.5996 19.6711H14.1382C14.2238 18.1279 14.9086 16.7434 15.9626 15.7428ZM22.8236 22.4796L21.9439 21.4421C22.1815 21.1222 22.3418 20.7424 22.3986 20.3289H23.7288C23.6589 21.1461 23.3301 21.891 22.8244 22.4796H22.8236ZM18.5631 20C18.5631 19.2082 19.2069 18.5645 19.9986 18.5645C20.7904 18.5645 21.4341 19.2082 21.4341 20C21.4341 20.7917 20.7904 21.4355 19.9986 21.4355C19.2069 21.4355 18.5631 20.7917 18.5631 20ZM22.3977 19.6711C22.2366 18.4905 21.2229 17.5779 19.9986 17.5779C19.521 17.5779 19.0762 17.7168 18.7004 17.9561L17.7681 16.856C18.3872 16.431 19.1337 16.1851 19.9279 16.1851C21.92 16.1851 23.5603 17.7209 23.7272 19.6711H22.3969H22.3977ZM17.5996 20.3289C17.6193 20.4744 17.6522 20.6158 17.6966 20.7523L14.5732 22.2396C14.3273 21.6451 14.1752 21.0022 14.1382 20.3297H17.5996V20.3289ZM23.0925 22.797C23.2906 22.5725 23.4657 22.3275 23.6137 22.0644L25.1306 22.8463C24.8749 23.3051 24.56 23.726 24.1958 24.0985L23.0925 22.797ZM23.8299 21.6213C23.9985 21.2184 24.1045 20.7835 24.1399 20.3289H25.859C25.8179 21.0655 25.6403 21.7652 25.3509 22.4048L23.8299 21.6205V21.6213ZM24.1399 19.6711C23.9713 17.494 22.1478 15.7741 19.9279 15.7741C19.0334 15.7741 18.1932 16.0561 17.5017 16.5411L16.4633 15.3161C17.4475 14.5712 18.6717 14.1289 19.9978 14.1289C21.9011 14.1289 23.594 15.0399 24.6677 16.4474C24.6743 16.4663 24.6833 16.4852 24.6957 16.5025C24.7105 16.5247 24.7294 16.542 24.7491 16.5576C25.3921 17.4422 25.7941 18.5119 25.8582 19.6703H24.1391L24.1399 19.6711ZM23.6869 14.0286L25.4907 10.8781C26.6582 11.5835 27.6793 12.5059 28.4982 13.5904L25.503 15.6499C24.9966 15.0103 24.3824 14.4602 23.6861 14.0294L23.6869 14.0286ZM23.2585 13.7844C22.3739 13.3191 21.3799 13.0354 20.3242 12.9877L20.3094 9.35541C22.0253 9.40474 23.6408 9.86186 25.0624 10.6339L23.2577 13.7852L23.2585 13.7844ZM19.6665 12.9869C18.1849 13.056 16.8234 13.5879 15.7201 14.4389L13.3728 11.669C15.1084 10.2853 17.2839 9.43269 19.6525 9.35623L19.6673 12.9877L19.6665 12.9869ZM9.35407 20.3289H12.9856C13.025 21.1782 13.2158 21.9896 13.5315 22.7345L10.2535 24.295C9.71335 23.0749 9.39682 21.7356 9.35325 20.3289H9.35407ZM15.4118 25.3087C16.294 26.0717 17.3661 26.6201 18.5475 26.8692L17.9128 30.444C16.049 30.0723 14.3586 29.2124 12.9815 28.0038L15.4118 25.3079V25.3087ZM18.8706 26.9292C19.2381 26.9892 19.6147 27.0213 19.9986 27.0213C20.3826 27.0213 20.7419 26.9909 21.1012 26.9341L21.7449 30.5064C21.1768 30.601 20.5939 30.6503 19.9986 30.6503C19.4034 30.6503 18.8098 30.5993 18.2359 30.504L18.8706 26.93V26.9292ZM21.4243 26.8758C22.5572 26.6414 23.5915 26.1325 24.454 25.4222L26.7996 28.1896C25.4595 29.3044 23.8423 30.097 22.068 30.4481L21.4243 26.8758ZM26.3754 22.9327C26.7445 22.1335 26.9681 21.2546 27.0117 20.3289H30.6432C30.5964 21.8532 30.2289 23.2977 29.6048 24.5967L26.3754 22.9327ZM27.0117 19.6711C26.9492 18.331 26.5102 17.0879 25.7974 16.0462L28.7868 13.9908C29.9033 15.6178 30.5791 17.5688 30.6432 19.6711H27.0117ZM9.6706 8.31866L12.392 11.53C10.1466 13.5485 8.70538 16.4441 8.6133 19.6711H4.40216C4.49589 15.1583 6.51595 11.1107 9.6706 8.31866ZM5.92235 26.722L9.72322 24.9124C10.3201 26.1564 11.1373 27.2762 12.1223 28.2208L9.53823 31.0877C9.44697 31.1888 9.45519 31.3451 9.55632 31.4363C9.60318 31.4791 9.66238 31.4996 9.72158 31.4996C9.78899 31.4996 9.85641 31.4725 9.90492 31.4182L12.4865 28.5546C13.9648 29.8545 15.7801 30.7778 17.7837 31.174L17.0479 35.3202C12.1313 34.3747 8.02874 31.1148 5.92235 26.722ZM17.371 35.3786L18.1068 31.2324C18.7226 31.336 19.3541 31.3903 19.9986 31.3903C20.6432 31.3903 21.2648 31.3368 21.8757 31.2349L22.6222 35.3786C21.7688 35.5241 20.8923 35.6006 19.9986 35.6006C19.105 35.6006 18.2252 35.5233 17.371 35.3778V35.3786ZM22.9461 35.3202L22.1996 31.1765C24.1045 30.8024 25.841 29.9515 27.2781 28.7536L28.9019 30.6692C28.9668 30.7457 29.0597 30.7852 29.1526 30.7852C29.2275 30.7852 29.3031 30.7597 29.3648 30.7071C29.5037 30.5895 29.5201 30.3823 29.4034 30.2434L27.7706 28.317C28.6774 27.4694 29.4453 26.4762 30.0373 25.3745L31.1908 25.9689C31.227 25.9878 31.2656 25.996 31.3034 25.996C31.393 25.996 31.4794 25.9475 31.5229 25.862C31.5854 25.7412 31.5377 25.5924 31.4169 25.5299L30.2617 24.9346C30.9384 23.5337 31.3355 21.9732 31.3832 20.3272H35.5943C35.4397 27.7752 30.0389 33.9562 22.9453 35.3186L22.9461 35.3202Z" fill="url(#paint0_linear_325_5855)"/>
</g>
<path d="M59.02 12.26H61.04V26H59.02V19.94H51.52V26H49.5V12.26H51.52V18.06H59.02V12.26ZM74.9113 16.74C74.9113 18.86 73.4713 20.48 71.3913 21.02L74.8913 26H72.5713L69.2113 21.22H66.0513V26H64.0313V12.26H69.8113C72.7113 12.26 74.9113 14.12 74.9113 16.74ZM66.0513 14.14V19.34H69.5313C71.5113 19.34 72.8513 18.36 72.8513 16.74C72.8513 15.12 71.5113 14.14 69.5313 14.14H66.0513ZM88.0348 26L86.8348 23.2H79.6748L78.4748 26H76.2348L82.1348 12.26H84.3748L90.2748 26H88.0348ZM80.4548 21.38H86.0548L83.2548 14.86L80.4548 21.38ZM98.2556 26V12.26H102.996C107.436 12.26 110.596 15.1 110.596 19.12C110.596 23.14 107.436 26 102.996 26H98.2556ZM100.276 24.16H103.116C106.296 24.16 108.516 22.08 108.516 19.12C108.516 16.18 106.296 14.1 103.116 14.1H100.276V24.16ZM117.93 24.48C119.01 24.48 120.27 24 120.89 23.36L122.13 24.64C121.21 25.62 119.41 26.24 117.95 26.24C115.07 26.24 112.63 23.98 112.63 20.8C112.63 17.7 114.93 15.42 117.79 15.42C120.95 15.42 122.77 17.82 122.77 21.52H114.63C114.89 23.24 116.15 24.48 117.93 24.48ZM117.87 17.18C116.27 17.18 114.97 18.26 114.65 19.94H120.85C120.63 18.34 119.65 17.18 117.87 17.18ZM128.805 26.24C127.285 26.24 125.625 25.7 124.385 24.7L125.325 23.28C126.425 24.08 127.605 24.54 128.825 24.54C129.985 24.54 130.785 24 130.785 23.2C130.785 22.24 129.725 21.94 128.445 21.58C126.065 20.92 124.885 20.24 124.885 18.56C124.865 16.66 126.445 15.42 128.645 15.42C129.985 15.42 131.345 15.88 132.465 16.62L131.585 18.08C130.585 17.46 129.545 17.12 128.645 17.12C127.625 17.12 126.825 17.56 126.825 18.34C126.825 19.14 127.465 19.38 129.205 19.92C130.905 20.42 132.725 20.98 132.725 23.04C132.725 25 131.065 26.24 128.805 26.24ZM136.006 13.94C135.326 13.94 134.806 13.38 134.806 12.74C134.806 12.12 135.326 11.56 136.006 11.56C136.646 11.56 137.186 12.12 137.186 12.74C137.186 13.38 136.646 13.94 136.006 13.94ZM135.006 26V15.66H136.986V26H135.006ZM147.71 15.66H149.69V24.9C149.69 27.56 147.51 29.44 144.45 29.44C142.71 29.44 141.11 28.86 140.13 28.06L140.91 26.58C141.67 27.3 142.91 27.72 144.15 27.72C146.37 27.72 147.71 26.66 147.71 24.86V23.36C146.89 24.54 145.61 25.24 144.05 25.24C141.33 25.24 139.35 23.2 139.35 20.32C139.35 17.44 141.33 15.42 144.05 15.42C145.61 15.42 146.93 16.16 147.71 17.32V15.66ZM144.55 23.52C146.39 23.52 147.71 22.2 147.71 20.32C147.71 18.46 146.39 17.14 144.55 17.14C142.71 17.14 141.41 18.46 141.41 20.32C141.41 22.2 142.71 23.52 144.55 23.52ZM157.903 15.42C160.183 15.42 161.783 17.08 161.783 19.42V26H159.843V19.76C159.843 18.22 158.863 17.14 157.463 17.14C156.023 17.14 154.783 18.08 154.623 19.3V26H152.643V15.66H154.623V17.16C155.243 16.14 156.503 15.42 157.903 15.42ZM175.318 26.22C173.018 26.22 171.118 25.42 169.658 24.02L170.878 22.52C172.098 23.68 173.538 24.44 175.398 24.44C177.298 24.44 178.278 23.44 178.278 22.34C178.278 21.04 177.138 20.54 174.838 20.02C172.038 19.36 170.178 18.52 170.178 16.04C170.178 13.74 172.178 12 174.938 12C177.058 12 178.638 12.78 179.958 13.94L178.798 15.46C177.638 14.4 176.258 13.78 174.858 13.78C173.318 13.78 172.238 14.76 172.238 15.86C172.238 17.14 173.418 17.58 175.678 18.12C178.418 18.76 180.318 19.68 180.318 22.14C180.318 24.46 178.558 26.22 175.318 26.22ZM184.561 29.6C183.861 29.6 183.141 29.44 182.601 29.16L183.041 27.64C183.441 27.86 183.901 27.96 184.301 27.96C184.941 27.96 185.381 27.76 185.721 27.16L186.241 26.06L181.801 15.66H183.921L187.241 23.82L190.381 15.66H192.441L187.881 26.94C187.141 28.8 186.041 29.58 184.561 29.6ZM198.395 26.24C196.875 26.24 195.215 25.7 193.975 24.7L194.915 23.28C196.015 24.08 197.195 24.54 198.415 24.54C199.575 24.54 200.375 24 200.375 23.2C200.375 22.24 199.315 21.94 198.035 21.58C195.655 20.92 194.475 20.24 194.475 18.56C194.455 16.66 196.035 15.42 198.235 15.42C199.575 15.42 200.935 15.88 202.055 16.62L201.175 18.08C200.175 17.46 199.135 17.12 198.235 17.12C197.215 17.12 196.415 17.56 196.415 18.34C196.415 19.14 197.055 19.38 198.795 19.92C200.495 20.42 202.315 20.98 202.315 23.04C202.315 25 200.655 26.24 198.395 26.24ZM209.456 24.14L210.176 25.5C209.616 25.96 208.856 26.24 208.116 26.24C206.516 26.24 205.396 25.08 205.396 23.42V17.34H203.836V15.66H205.396V12.82H207.336V15.66H209.776V17.34H207.336V23.28C207.336 24 207.816 24.52 208.396 24.52C208.836 24.52 209.236 24.36 209.456 24.14ZM216.934 24.48C218.014 24.48 219.274 24 219.894 23.36L221.134 24.64C220.214 25.62 218.414 26.24 216.954 26.24C214.074 26.24 211.634 23.98 211.634 20.8C211.634 17.7 213.934 15.42 216.794 15.42C219.954 15.42 221.774 17.82 221.774 21.52H213.634C213.894 23.24 215.154 24.48 216.934 24.48ZM216.874 17.18C215.274 17.18 213.974 18.26 213.654 19.94H219.854C219.634 18.34 218.654 17.18 216.874 17.18ZM235.629 15.42C237.789 15.42 239.349 17.08 239.349 19.42V26H237.409V19.72C237.409 18.2 236.509 17.14 235.209 17.14C233.729 17.14 232.689 18.12 232.689 19.54V26H230.749V19.72C230.749 18.2 229.849 17.14 228.549 17.14C227.069 17.14 226.029 18.12 226.029 19.54V26H224.049V15.66H226.029V17.1C226.549 16.08 227.629 15.42 228.949 15.42C230.449 15.42 231.669 16.22 232.269 17.5C232.749 16.22 234.069 15.42 235.629 15.42Z" fill="#201E3D"/>
<defs>
<linearGradient id="paint0_linear_325_5855" x1="5.138" y1="28.5801" x2="34.8593" y2="11.4207" gradientUnits="userSpaceOnUse">
<stop offset="0.12" stop-color="white" stop-opacity="0"/>
<stop offset="0.44" stop-color="white"/>
</linearGradient>
<clipPath id="clip0_325_5855">
<rect width="40" height="40" fill="white"/>
</clipPath>
</defs>
</svg>
