<?xml version="1.0" encoding="UTF-8" standalone="no"?>
<!DOCTYPE svg PUBLIC "-//W3C//DTD SVG 1.1//EN"
 "http://www.w3.org/Graphics/SVG/1.1/DTD/svg11.dtd">
<!-- Generated by graphviz version 2.47.0 (20210316.0004)
 -->
<!-- Title: dependencies Pages: 1 -->
<svg width="745pt" height="284pt"
 viewBox="0.00 0.00 745.00 284.00" xmlns="http://www.w3.org/2000/svg" xmlns:xlink="http://www.w3.org/1999/xlink">
<g id="graph0" class="graph" transform="scale(1 1) rotate(0) translate(4 280)">
<title>dependencies</title>
<polygon fill="white" stroke="transparent" points="-4,4 -4,-280 741,-280 741,4 -4,4"/>
<text text-anchor="start" x="347.51" y="-42.4" font-family="Times-12" font-weight="bold" font-size="14.00">Legend</text>
<polygon fill="#ffffb3" stroke="transparent" points="134.5,-10 134.5,-30 154.5,-30 154.5,-10 134.5,-10"/>
<text text-anchor="start" x="158.13" y="-15.4" font-family="Times-12" font-size="14.00"> &#160;Declarations</text>
<polygon fill="#8dd3c7" stroke="transparent" points="247.5,-10 247.5,-30 267.5,-30 267.5,-10 247.5,-10"/>
<text text-anchor="start" x="271.23" y="-15.4" font-family="Times-12" font-size="14.00"> &#160;Module</text>
<polygon fill="#80b1d3" stroke="transparent" points="333.5,-10 333.5,-30 353.5,-30 353.5,-10 333.5,-10"/>
<text text-anchor="start" x="357.28" y="-15.4" font-family="Times-12" font-size="14.00"> &#160;Bootstrap</text>
<polygon fill="#fdb462" stroke="transparent" points="430.5,-10 430.5,-30 450.5,-30 450.5,-10 430.5,-10"/>
<text text-anchor="start" x="454.17" y="-15.4" font-family="Times-12" font-size="14.00"> &#160;Providers</text>
<polygon fill="#fb8072" stroke="transparent" points="526.5,-10 526.5,-30 546.5,-30 546.5,-10 526.5,-10"/>
<text text-anchor="start" x="550.23" y="-15.4" font-family="Times-12" font-size="14.00"> &#160;Exports</text>
<g id="clust1" class="cluster">
<title>cluster_ExpansionPanelModule</title>
<polygon fill="none" stroke="black" stroke-dasharray="1,5" points="8,-70 8,-268 729,-268 729,-70 8,-70"/>
</g>
<g id="clust3" class="cluster">
<title>cluster_ExpansionPanelModule_imports</title>
<polygon fill="none" stroke="black" points="21,-78 21,-130 716,-130 716,-78 21,-78"/>
</g>
<g id="clust4" class="cluster">
<title>cluster_ExpansionPanelModule_exports</title>
<polygon fill="none" stroke="black" points="16,-208 16,-260 721,-260 721,-208 16,-208"/>
</g>
<!-- ExpansionPanelActionsComponent -->
<g id="node1" class="node">
<title>ExpansionPanelActionsComponent</title>
<polygon fill="#8dd3c7" stroke="black" points="707.58,-122 704.58,-126 683.58,-126 680.58,-122 492.42,-122 492.42,-86 707.58,-86 707.58,-122"/>
<text text-anchor="middle" x="600" y="-99.8" font-family="Times,serif" font-size="14.00">ExpansionPanelActionsComponent</text>
</g>
<!-- ExpansionPanelModule -->
<g id="node4" class="node">
<title>ExpansionPanelModule</title>
<polygon fill="#8dd3c7" stroke="black" points="463.75,-187 460.75,-191 439.75,-191 436.75,-187 314.25,-187 314.25,-151 463.75,-151 463.75,-187"/>
<text text-anchor="middle" x="389" y="-164.8" font-family="Times,serif" font-size="14.00">ExpansionPanelModule</text>
</g>
<!-- ExpansionPanelActionsComponent&#45;&gt;ExpansionPanelModule -->
<g id="edge1" class="edge">
<title>ExpansionPanelActionsComponent&#45;&gt;ExpansionPanelModule</title>
<path fill="none" stroke="black" d="M636.6,-122.02C636.6,-139.37 636.6,-163 636.6,-163 636.6,-163 473.96,-163 473.96,-163"/>
<polygon fill="black" stroke="black" points="473.96,-159.5 463.96,-163 473.96,-166.5 473.96,-159.5"/>
</g>
<!-- ExpansionPanelComponent -->
<g id="node2" class="node">
<title>ExpansionPanelComponent</title>
<polygon fill="#8dd3c7" stroke="black" points="474.54,-122 471.54,-126 450.54,-126 447.54,-122 303.46,-122 303.46,-86 474.54,-86 474.54,-122"/>
<text text-anchor="middle" x="389" y="-99.8" font-family="Times,serif" font-size="14.00">ExpansionPanelComponent</text>
</g>
<!-- ExpansionPanelComponent&#45;&gt;ExpansionPanelModule -->
<g id="edge2" class="edge">
<title>ExpansionPanelComponent&#45;&gt;ExpansionPanelModule</title>
<path fill="none" stroke="black" d="M389,-122.11C389,-122.11 389,-140.99 389,-140.99"/>
<polygon fill="black" stroke="black" points="385.5,-140.99 389,-150.99 392.5,-140.99 385.5,-140.99"/>
</g>
<!-- ExpansionPanelHeaderContentComponent -->
<g id="node3" class="node">
<title>ExpansionPanelHeaderContentComponent</title>
<polygon fill="#8dd3c7" stroke="black" points="285.28,-122 282.28,-126 261.28,-126 258.28,-122 28.72,-122 28.72,-86 285.28,-86 285.28,-122"/>
<text text-anchor="middle" x="157" y="-99.8" font-family="Times,serif" font-size="14.00">ExpansionPanelHeaderContentComponent</text>
</g>
<!-- ExpansionPanelHeaderContentComponent&#45;&gt;ExpansionPanelModule -->
<g id="edge3" class="edge">
<title>ExpansionPanelHeaderContentComponent&#45;&gt;ExpansionPanelModule</title>
<path fill="none" stroke="black" d="M198.88,-122.02C198.88,-139.37 198.88,-163 198.88,-163 198.88,-163 304.13,-163 304.13,-163"/>
<polygon fill="black" stroke="black" points="304.13,-166.5 314.13,-163 304.13,-159.5 304.13,-166.5"/>
</g>
<!-- ExpansionPanelActionsComponent  -->
<g id="node5" class="node">
<title>ExpansionPanelActionsComponent </title>
<polygon fill="#fb8072" stroke="black" points="713.08,-252 494.92,-252 494.92,-216 713.08,-216 713.08,-252"/>
<text text-anchor="middle" x="604" y="-229.8" font-family="Times,serif" font-size="14.00">ExpansionPanelActionsComponent </text>
</g>
<!-- ExpansionPanelModule&#45;&gt;ExpansionPanelActionsComponent  -->
<g id="edge4" class="edge">
<title>ExpansionPanelModule&#45;&gt;ExpansionPanelActionsComponent </title>
<path fill="none" stroke="black" stroke-dasharray="5,2" d="M463.92,-175C512.06,-175 565.65,-175 565.65,-175 565.65,-175 565.65,-205.98 565.65,-205.98"/>
<polygon fill="black" stroke="black" points="562.15,-205.98 565.65,-215.98 569.15,-205.98 562.15,-205.98"/>
</g>
<!-- ExpansionPanelComponent  -->
<g id="node6" class="node">
<title>ExpansionPanelComponent </title>
<polygon fill="#fb8072" stroke="black" points="476.54,-252 301.46,-252 301.46,-216 476.54,-216 476.54,-252"/>
<text text-anchor="middle" x="389" y="-229.8" font-family="Times,serif" font-size="14.00">ExpansionPanelComponent </text>
</g>
<!-- ExpansionPanelModule&#45;&gt;ExpansionPanelComponent  -->
<g id="edge5" class="edge">
<title>ExpansionPanelModule&#45;&gt;ExpansionPanelComponent </title>
<path fill="none" stroke="black" stroke-dasharray="5,2" d="M389,-187.11C389,-187.11 389,-205.99 389,-205.99"/>
<polygon fill="black" stroke="black" points="385.5,-205.99 389,-215.99 392.5,-205.99 385.5,-205.99"/>
</g>
<!-- ExpansionPanelHeaderContentComponent  -->
<g id="node7" class="node">
<title>ExpansionPanelHeaderContentComponent </title>
<polygon fill="#fb8072" stroke="black" points="283.78,-252 24.22,-252 24.22,-216 283.78,-216 283.78,-252"/>
<text text-anchor="middle" x="154" y="-229.8" font-family="Times,serif" font-size="14.00">ExpansionPanelHeaderContentComponent </text>
</g>
<!-- ExpansionPanelModule&#45;&gt;ExpansionPanelHeaderContentComponent  -->
<g id="edge6" class="edge">
<title>ExpansionPanelModule&#45;&gt;ExpansionPanelHeaderContentComponent </title>
<path fill="none" stroke="black" stroke-dasharray="5,2" d="M314.18,-175C232.71,-175 113.87,-175 113.87,-175 113.87,-175 113.87,-205.98 113.87,-205.98"/>
<polygon fill="black" stroke="black" points="110.37,-205.98 113.87,-215.98 117.37,-205.98 110.37,-205.98"/>
</g>
</g>
</svg>
