<svg width="55" height="55" viewBox="0 0 55 55" fill="none" xmlns="http://www.w3.org/2000/svg">
<g clip-path="url(#clip0_1116_9733)">
<path d="M23.6683 13.5483C23.7028 13.2032 23.6627 12.8547 23.5507 12.5265C23.4387 12.1982 23.2575 11.8979 23.0193 11.6458C22.7812 11.3937 22.4916 11.1957 22.1702 11.0653C21.8488 10.9349 21.5032 10.8751 21.1567 10.89C20.3966 10.9058 19.6626 11.1697 19.0667 11.6416C18.5864 11.9988 18.1386 12.3976 17.7283 12.8333C16.0479 14.5139 14.5372 16.3562 13.2183 18.3333C11.5985 20.7895 10.1645 23.3634 8.92832 26.0333C7.41366 29.3034 6.40007 32.783 5.92166 36.355C5.07832 42.4416 5.55499 45.925 7.29666 46.8233C9.55165 47.9966 18.2967 47.2083 22.4767 44.4766C22.9479 44.1628 23.2974 43.6969 23.4667 43.1566C23.5816 42.7377 23.6493 42.3073 23.6683 41.8733C23.6683 41.8733 23.6683 33.2566 23.6683 26.6383C23.6683 20.02 23.6683 13.805 23.6683 13.5483Z" fill="currentColor"/>
<path d="M36.6666 19.14C35.6055 18.7878 34.6813 18.1122 34.0237 17.208C33.3661 16.3038 33.0081 15.2164 33 14.0984V5.62836H29.3333V14.0984C29.329 15.2195 28.9727 16.311 28.3149 17.2189C27.657 18.1267 26.7307 18.8051 25.6666 19.1584V22.2017H36.6666V19.14Z" fill="currentColor"/>
</g>
<defs>
<clipPath id="clip0_1116_9733">
<rect width="55" height="55" fill="currentColor"/>
</clipPath>
</defs>
</svg>
