<svg width="55" height="55" viewBox="0 0 55 55" fill="none" xmlns="http://www.w3.org/2000/svg">
<path d="M30.69 28.8383L19.5066 17.8383L19.03 20.0567C19.03 20.0567 27.83 25.1717 30.3416 30.3233C31.1666 27.8667 30.69 28.8383 30.69 28.8383Z" fill="currentColor" stroke="currentColor" stroke-miterlimit="10"/>
<path d="M6.34331 5.49998C12.815 4.39998 13.6766 10.725 16.9766 11C18.5347 11.0794 20.0696 10.5981 21.3033 9.64332L22.9166 14.355C22.9166 14.355 20.9916 16.1883 20.8633 17.4166C20.735 18.645 21.9083 23.0633 20.13 26.4C18.3516 29.7366 15.8583 32.1017 15.235 34.5583C14.6116 37.015 15.1066 37.895 13.8233 43.5416C13.2214 46.6499 11.9032 49.5751 9.97331 52.085H6.30664L6.34331 5.49998Z" fill="currentColor"/>
<path d="M39.7068 36.4293C41.7461 32.04 40.7716 27.261 37.5302 25.755C34.2887 24.249 30.0079 26.5863 27.9686 30.9756C25.9293 35.3648 26.9038 40.1439 30.1453 41.6499C33.3867 43.1559 37.6676 40.8186 39.7068 36.4293Z" fill="currentColor"/>
<path d="M40.81 19.3783C38.9766 20.955 37.9133 21.9633 36.795 23.045C37.5399 22.9743 38.2912 23.0728 38.9928 23.3331C39.6944 23.5934 40.3281 24.0088 40.8466 24.5483C41.7354 25.3134 42.4537 26.2565 42.955 27.3167C44.9731 25.1396 46.7382 22.741 48.2166 20.1667C55.55 9.40501 45.54 2.32834 33.9166 4.40001C29.221 5.44047 24.7461 7.30243 20.6983 9.90001L22.385 14.74C25.634 11.9219 29.4843 9.88388 33.6416 8.78167C41.6716 6.93001 49.5 11.77 40.81 19.3783Z" fill="currentColor"/>
</svg>
