<svg width="55" height="55" viewBox="0 0 55 55" fill="none" xmlns="http://www.w3.org/2000/svg">
<path d="M17.4716 33C18.4842 33 19.305 30.5376 19.305 27.5C19.305 24.4624 18.4842 22 17.4716 22C16.4591 22 15.6383 24.4624 15.6383 27.5C15.6383 30.5376 16.4591 33 17.4716 33Z" stroke="currentColor" stroke-miterlimit="10"/>
<path d="M42.7533 26.51C42.017 26.452 41.3 26.2462 40.645 25.905C40.314 22.6917 38.9892 19.6616 36.855 17.2366C34.7208 14.8117 31.8835 13.1128 28.7382 12.3764C25.5929 11.64 22.2963 11.9029 19.3074 13.1283C16.3186 14.3538 13.7863 16.4809 12.0633 19.2134C11.6634 19.8 11.2222 20.3575 10.7433 20.8817C9.84394 21.7373 9.12321 22.7628 8.62285 23.8989C8.12249 25.0349 7.85243 26.2589 7.82831 27.5C7.84688 28.7492 8.11608 29.9819 8.61996 31.1251C9.12383 32.2682 9.85212 33.2986 10.7616 34.155C11.2454 34.6863 11.6926 35.2498 12.1 35.8417C13.6943 38.3427 15.9716 40.3347 18.6624 41.5822C21.3532 42.8298 24.3449 43.2806 27.2839 42.8814C30.2228 42.4822 32.986 41.2497 35.2465 39.3297C37.5071 37.4096 39.1705 34.8823 40.04 32.0467C40.9845 32.385 41.972 32.5887 42.9733 32.6517C44.4256 32.5962 45.8525 32.2535 47.1716 31.6434V25.0067C46.5822 25.5538 45.8841 25.9704 45.1228 26.2295C44.3615 26.4885 43.5541 26.5841 42.7533 26.51ZM25.19 41.305H24.7133C23.5935 41.0837 22.5618 40.5424 21.7433 39.7467C20.7533 38.39 20.4783 34.5217 18.7733 34.6134C17.5266 34.6134 18.37 35.6034 17.2516 35.6584C14.63 35.7684 14.74 30.1584 13.09 30.1584C12.0816 30.1584 12.265 31.9917 12.65 33.6967L12.0633 33C11.2927 32.3022 10.6725 31.4546 10.2406 30.5089C9.80878 29.5632 9.57434 28.5394 9.55164 27.5C9.57306 26.4622 9.80512 25.4395 10.2337 24.4941C10.6623 23.5486 11.2785 22.7001 12.045 22L12.7233 21.1934C12.3383 22.88 12.155 24.695 13.1633 24.7317C14.8133 24.7317 14.685 19.2317 17.325 19.2317C18.425 19.2317 17.6 20.2034 18.8283 20.2584C20.5333 20.35 20.8083 16.5917 21.7983 15.125C22.5407 14.3885 23.4741 13.8742 24.4933 13.64H25.19C28.8513 13.64 32.3626 15.0945 34.9516 17.6834C37.5405 20.2724 38.995 23.7837 38.995 27.445C38.995 31.1063 37.5405 34.6177 34.9516 37.2066C32.3626 39.7956 28.8513 41.25 25.19 41.25V41.305Z" fill="currentColor"/>
</svg>
