<svg width="24" height="24" viewBox="0 0 24 24" fill="none" xmlns="http://www.w3.org/2000/svg">
<path d="M14.3955 9.6886H13.6556C13.6556 7.33713 14.98 5.42194 16.6078 5.42194H20.0556V6.16139H16.6078C15.4092 6.16139 14.3955 7.77341 14.3955 9.6886Z" fill="white"/>
<path d="M18.8077 13.2442C17.902 13.2442 16.8033 13.2228 16.0238 13.1302C14.2792 12.9236 13.715 10.1304 13.6556 9.81692L14.3832 9.68866C14.5168 10.4083 15.0884 12.3037 16.1129 12.4248C17.5902 12.6029 20.3592 12.5103 20.3889 12.5103L20.4112 13.2228C20.3518 13.2228 19.6688 13.2442 18.8077 13.2442Z" fill="white"/>
<path d="M7.99501 13.5999H7.25513C7.25513 11.2484 8.57952 9.33319 10.2073 9.33319H13.6551V10.0726H10.2073C9.00865 10.0726 7.99501 11.6847 7.99501 13.5999Z" fill="white"/>
<path d="M12.4072 18.5775C11.5015 18.5775 10.4102 18.554 9.62328 18.4521C7.87872 18.2248 7.31452 15.1523 7.25513 14.8075L7.98265 14.6664C8.11627 15.458 8.6879 17.5429 9.71237 17.6761C11.1897 17.8721 13.9587 17.778 13.9884 17.7702L14.0107 18.554C13.9513 18.554 13.2683 18.5775 12.3997 18.5775H12.4072Z" fill="white"/>
<path d="M13.8312 11.8224C14.9112 11.8224 15.7867 10.9468 15.7867 9.86681C15.7867 8.78679 14.9112 7.91125 13.8312 7.91125C12.7511 7.91125 11.8756 8.78679 11.8756 9.86681C11.8756 10.9468 12.7511 11.8224 13.8312 11.8224Z" fill="white"/>
<path d="M14.3662 20.0003C15.348 20.0003 16.1439 19.2043 16.1439 18.2225C16.1439 17.2406 15.348 16.4447 14.3662 16.4447C13.3843 16.4447 12.5884 17.2406 12.5884 18.2225C12.5884 19.2043 13.3843 20.0003 14.3662 20.0003Z" fill="white"/>
<path d="M19.8771 7.91111C20.9571 7.91111 21.8326 7.03558 21.8326 5.95556C21.8326 4.87553 20.9571 4 19.8771 4C18.797 4 17.9215 4.87553 17.9215 5.95556C17.9215 7.03558 18.797 7.91111 19.8771 7.91111Z" fill="white"/>
<path d="M7.25533 13.2444H1.922V13.9556H7.25533V13.2444Z" fill="white"/>
<path d="M2.27778 15.3781C3.25962 15.3781 4.05556 14.5821 4.05556 13.6003C4.05556 12.6184 3.25962 11.8225 2.27778 11.8225C1.29594 11.8225 0.5 12.6184 0.5 13.6003C0.5 14.5821 1.29594 15.3781 2.27778 15.3781Z" fill="white"/>
<path d="M7.78881 15.3781C8.86883 15.3781 9.74436 14.5821 9.74436 13.6003C9.74436 12.6184 8.86883 11.8225 7.78881 11.8225C6.70878 11.8225 5.83325 12.6184 5.83325 13.6003C5.83325 14.5821 6.70878 15.3781 7.78881 15.3781Z" fill="white"/>
<path d="M22.2279 12.8208L20.6588 11.1264C20.506 10.9614 20.2485 10.9515 20.0835 11.1043L18.3891 12.6734C18.2241 12.8261 18.2142 13.0837 18.367 13.2487L19.936 14.9431C20.0888 15.1081 20.3464 15.118 20.5113 14.9652L22.2058 13.3961C22.3707 13.2434 22.3806 12.9858 22.2279 12.8208Z" fill="white"/>
</svg>
