<svg width="24" height="24" viewBox="0 0 24 24" fill="none" xmlns="http://www.w3.org/2000/svg">
<path d="M21.8462 8.08293C21.5953 7.79458 21.1651 7.7225 20.7707 7.70447C20.3764 7.70447 19.9821 7.75854 19.6056 7.63239C18.8528 7.39811 18.4764 6.56912 18.0283 5.8843C17.1141 4.4606 15.5546 3.4514 13.8697 3.23514C13.4216 3.18108 12.8839 3.10899 12.7046 2.6945C12.6329 2.55033 12.6329 2.37011 12.6329 2.20792C12.615 1.82947 12.5433 1.41497 12.2565 1.16267C11.9697 0.910371 11.432 0.946414 11.3065 1.30684C11.1989 1.61321 11.432 1.91957 11.5574 2.20792C11.9159 3.05493 10.7329 3.21712 10.1952 3.32525C9.37061 3.50546 8.52815 3.57755 7.73946 3.90194C6.71775 4.29841 5.85736 5.09136 5.35547 6.06452C5.06868 6.60516 4.78188 7.308 4.17244 7.32603C3.88564 7.32603 3.563 7.19987 3.36583 7.38009C3.13281 7.57832 3.2762 7.95678 3.47338 8.17303C3.67055 8.38929 3.93942 8.60555 3.95734 8.91192C3.95734 9.11015 3.86772 9.29037 3.7781 9.47058C2.88186 11.2187 2.91771 12.0657 3.11488 14.03C3.29413 15.8142 3.83187 16.553 3.95734 16.8234C4.06489 17.0757 3.99319 17.364 3.90357 17.6343C3.81394 17.8866 3.68847 18.1569 3.72432 18.4273C3.76017 18.6976 4.01112 18.9679 4.27999 18.8958C4.53094 18.8237 4.62056 18.4813 4.79981 18.3011C5.10453 17.9948 5.62434 18.1029 5.96491 18.3732C6.28756 18.6435 6.48473 19.04 6.77153 19.3644C7.52437 20.2474 8.74325 20.5718 9.90836 20.5898C11.0555 20.6259 12.2206 20.4096 13.3678 20.4817C13.4037 20.4817 13.4395 20.4817 13.4754 20.4817C13.4754 20.5538 13.4933 20.6259 13.4933 20.698C13.4933 20.8782 13.3858 21.0224 13.3141 21.1846C13.2424 21.3287 13.2244 21.5089 13.3141 21.6531C13.4216 21.8153 13.6726 21.8514 13.8339 21.7612C14.0131 21.6711 14.1207 21.4909 14.2103 21.3107C14.3358 21.0584 14.3895 20.7881 14.4075 20.5178C14.8735 20.5178 15.3396 20.4817 15.716 20.2294C16.0386 20.0132 16.2716 19.7068 16.5584 19.4545C17.1499 18.9319 17.9386 18.7156 18.5302 18.211C19.1934 17.6343 19.516 16.7513 19.8028 15.9043C20.0179 15.7961 20.2689 16.0124 20.5019 16.0304C20.8424 16.0304 21.0575 15.5799 20.9141 15.2555C20.7707 14.9311 20.4302 14.7689 20.0896 14.6788C20.2509 13.5975 20.2509 12.4802 20.0896 11.3989C20.0179 10.9123 19.9104 10.4077 20 9.92112C20.1075 9.43454 20.5019 8.96598 20.9858 8.984C21.2189 8.984 21.4519 9.09213 21.667 9.02004C22.0434 8.91191 22.0972 8.33523 21.8462 8.04688V8.08293ZM11.2886 16.3368C9.51401 16.3368 8.06211 14.8951 8.06211 13.0929C8.06211 11.2908 9.49609 9.84903 11.2886 9.84903C13.081 9.84903 14.515 11.2908 14.515 13.0929C14.515 14.8951 13.081 16.3368 11.2886 16.3368Z" fill="white"/>
</svg>
