<svg width="24" height="24" viewBox="0 0 24 24" fill="none" xmlns="http://www.w3.org/2000/svg">
<path d="M13.7231 7.25125C13.7254 8.27405 14.0846 8.63407 15.101 8.63407H19.3012V9.26395L19.2993 9.2659C19.2993 12.3234 19.3026 15.3822 19.2993 18.4397C19.2981 20.0821 18.4015 20.9949 16.7895 20.9973C14.0212 21.0007 11.2512 21.0007 8.48286 20.9973C6.90084 20.9951 6.00366 20.0834 6.00239 18.4749C5.99904 14.1588 5.99904 9.84351 6.00239 5.5286C6.0035 3.91865 6.89994 3.00561 8.47993 3.00223C10.2038 2.99772 11.929 3.00125 13.7231 3.00125C13.7231 4.47601 13.7209 5.86438 13.7231 7.25125ZM9.0561 15.51C8.71707 15.5103 8.44282 15.7878 8.44282 16.1302C8.44293 16.4724 8.71714 16.7491 9.0561 16.7493H16.5688C16.9079 16.7493 17.1829 16.4726 17.1831 16.1302C17.1831 15.7877 16.908 15.51 16.5688 15.51H9.0561ZM9.0561 11.887C8.71707 11.8872 8.44282 12.1648 8.44282 12.5071C8.44303 12.8493 8.7172 13.126 9.0561 13.1263H16.5707C16.9097 13.126 17.1838 12.8493 17.184 12.5071H17.1831C17.1831 12.1646 16.908 11.887 16.5688 11.887H9.0561ZM14.9516 3.87723C14.9516 3.71387 15.1474 3.63243 15.2612 3.74735C16.368 4.87273 17.5104 6.03189 18.5971 7.137C18.7109 7.25191 18.6289 7.44852 18.4682 7.44852H15.1332C15.033 7.44838 14.9527 7.36602 14.9526 7.2659L14.9516 7.26493V3.87723Z" fill="white"/>
</svg>
