<?xml version="1.0" encoding="UTF-8" standalone="no"?>
<!DOCTYPE svg PUBLIC "-//W3C//DTD SVG 1.1//EN"
 "http://www.w3.org/Graphics/SVG/1.1/DTD/svg11.dtd">
<!-- Generated by graphviz version 2.47.0 (20210316.0004)
 -->
<!-- Title: dependencies Pages: 1 -->
<svg width="504pt" height="284pt"
 viewBox="0.00 0.00 504.00 284.00" xmlns="http://www.w3.org/2000/svg" xmlns:xlink="http://www.w3.org/1999/xlink">
<g id="graph0" class="graph" transform="scale(1 1) rotate(0) translate(4 280)">
<title>dependencies</title>
<polygon fill="white" stroke="transparent" points="-4,4 -4,-280 500,-280 500,4 -4,4"/>
<text text-anchor="start" x="227.01" y="-42.4" font-family="Times-12" font-weight="bold" font-size="14.00">Legend</text>
<polygon fill="#ffffb3" stroke="transparent" points="14,-10 14,-30 34,-30 34,-10 14,-10"/>
<text text-anchor="start" x="37.63" y="-15.4" font-family="Times-12" font-size="14.00"> &#160;Declarations</text>
<polygon fill="#8dd3c7" stroke="transparent" points="127,-10 127,-30 147,-30 147,-10 127,-10"/>
<text text-anchor="start" x="150.73" y="-15.4" font-family="Times-12" font-size="14.00"> &#160;Module</text>
<polygon fill="#80b1d3" stroke="transparent" points="213,-10 213,-30 233,-30 233,-10 213,-10"/>
<text text-anchor="start" x="236.78" y="-15.4" font-family="Times-12" font-size="14.00"> &#160;Bootstrap</text>
<polygon fill="#fdb462" stroke="transparent" points="310,-10 310,-30 330,-30 330,-10 310,-10"/>
<text text-anchor="start" x="333.67" y="-15.4" font-family="Times-12" font-size="14.00"> &#160;Providers</text>
<polygon fill="#fb8072" stroke="transparent" points="406,-10 406,-30 426,-30 426,-10 406,-10"/>
<text text-anchor="start" x="429.73" y="-15.4" font-family="Times-12" font-size="14.00"> &#160;Exports</text>
<g id="clust1" class="cluster">
<title>cluster_MenuTreeModule</title>
<polygon fill="none" stroke="black" stroke-dasharray="1,5" points="160,-70 160,-268 336,-268 336,-70 160,-70"/>
</g>
<g id="clust5" class="cluster">
<title>cluster_MenuTreeModule_exports</title>
<polygon fill="none" stroke="black" points="168,-208 168,-260 328,-260 328,-208 168,-208"/>
</g>
<g id="clust2" class="cluster">
<title>cluster_MenuTreeModule_declarations</title>
<polygon fill="none" stroke="black" points="170,-78 170,-130 326,-130 326,-78 170,-78"/>
</g>
<!-- MenuTreeComponent -->
<g id="node1" class="node">
<title>MenuTreeComponent</title>
<polygon fill="#ffffb3" stroke="black" points="317.63,-122 178.37,-122 178.37,-86 317.63,-86 317.63,-122"/>
<text text-anchor="middle" x="248" y="-99.8" font-family="Times,serif" font-size="14.00">MenuTreeComponent</text>
</g>
<!-- MenuTreeModule -->
<g id="node2" class="node">
<title>MenuTreeModule</title>
<polygon fill="#8dd3c7" stroke="black" points="306.85,-187 303.85,-191 282.85,-191 279.85,-187 189.15,-187 189.15,-151 306.85,-151 306.85,-187"/>
<text text-anchor="middle" x="248" y="-164.8" font-family="Times,serif" font-size="14.00">MenuTreeModule</text>
</g>
<!-- MenuTreeComponent&#45;&gt;MenuTreeModule -->
<g id="edge1" class="edge">
<title>MenuTreeComponent&#45;&gt;MenuTreeModule</title>
<path fill="none" stroke="black" d="M248,-122.11C248,-122.11 248,-140.99 248,-140.99"/>
<polygon fill="black" stroke="black" points="244.5,-140.99 248,-150.99 251.5,-140.99 244.5,-140.99"/>
</g>
<!-- MenuTreeComponent  -->
<g id="node3" class="node">
<title>MenuTreeComponent </title>
<polygon fill="#fb8072" stroke="black" points="319.63,-252 176.37,-252 176.37,-216 319.63,-216 319.63,-252"/>
<text text-anchor="middle" x="248" y="-229.8" font-family="Times,serif" font-size="14.00">MenuTreeComponent </text>
</g>
<!-- MenuTreeModule&#45;&gt;MenuTreeComponent  -->
<g id="edge2" class="edge">
<title>MenuTreeModule&#45;&gt;MenuTreeComponent </title>
<path fill="none" stroke="black" stroke-dasharray="5,2" d="M248,-187.11C248,-187.11 248,-205.99 248,-205.99"/>
<polygon fill="black" stroke="black" points="244.5,-205.99 248,-215.99 251.5,-205.99 244.5,-205.99"/>
</g>
</g>
</svg>
