<svg width="24" height="24" viewBox="0 0 24 24" fill="none" xmlns="http://www.w3.org/2000/svg">
<mask id="mask0_5559_21335" style="mask-type:alpha" maskUnits="userSpaceOnUse" x="0" y="0" width="24" height="24">
<rect width="24" height="24" fill="#D9D9D9"/>
</mask>
<g mask="url(#mask0_5559_21335)">
<mask id="mask1_5559_21335" style="mask-type:alpha" maskUnits="userSpaceOnUse" x="0" y="0" width="24" height="24">
<rect width="24" height="24" fill="#D9D9D9"/>
</mask>
<g mask="url(#mask1_5559_21335)">
<path d="M12.0017 21.5C10.6877 21.5 9.45267 21.2507 8.2965 20.752C7.14033 20.2533 6.13467 19.5766 5.2795 18.7218C4.42433 17.8669 3.74725 16.8617 3.24825 15.706C2.74942 14.5503 2.5 13.3156 2.5 12.0017C2.5 10.6877 2.74933 9.45267 3.248 8.2965C3.74667 7.14033 4.42342 6.13467 5.27825 5.2795C6.13308 4.42433 7.13833 3.74725 8.294 3.24825C9.44967 2.74942 10.6844 2.5 11.9983 2.5C13.3123 2.5 14.5473 2.74933 15.7035 3.248C16.8597 3.74667 17.8653 4.42342 18.7205 5.27825C19.5757 6.13308 20.2528 7.13833 20.7518 8.294C21.2506 9.44967 21.5 10.6844 21.5 11.9983C21.5 13.3123 21.2507 14.5473 20.752 15.7035C20.2533 16.8597 19.5766 17.8653 18.7218 18.7205C17.8669 19.5757 16.8617 20.2528 15.706 20.7518C14.5503 21.2506 13.3156 21.5 12.0017 21.5ZM12 20C14.2333 20 16.125 19.225 17.675 17.675C19.225 16.125 20 14.2333 20 12C20 9.76667 19.225 7.875 17.675 6.325C16.125 4.775 14.2333 4 12 4C9.76667 4 7.875 4.775 6.325 6.325C4.775 7.875 4 9.76667 4 12C4 14.2333 4.775 16.125 6.325 17.675C7.875 19.225 9.76667 20 12 20ZM10 15.75H14C14.2125 15.75 14.3906 15.6781 14.5343 15.5343C14.6781 15.3906 14.75 15.2125 14.75 15V14C14.75 13.7875 14.6781 13.6094 14.5343 13.4658C14.3904 13.3219 14.2122 13.25 13.9998 13.25C13.7871 13.25 13.609 13.3219 13.4655 13.4658C13.3218 13.6094 13.25 13.7875 13.25 14V14.25H10.75V9.75H13.25V10C13.25 10.2125 13.3219 10.3906 13.4658 10.5343C13.6096 10.6781 13.7878 10.75 14.0003 10.75C14.2129 10.75 14.391 10.6781 14.5345 10.5343C14.6782 10.3906 14.75 10.2125 14.75 10V9C14.75 8.7875 14.6781 8.60942 14.5343 8.46575C14.3906 8.32192 14.2125 8.25 14 8.25H10C9.7875 8.25 9.60942 8.32192 9.46575 8.46575C9.32192 8.60942 9.25 8.7875 9.25 9V15C9.25 15.2125 9.32192 15.3906 9.46575 15.5343C9.60942 15.6781 9.7875 15.75 10 15.75Z" fill="white"/>
</g>
</g>
</svg>
