<svg width="246" height="102" viewBox="0 0 246 102" fill="none" xmlns="http://www.w3.org/2000/svg">
<path d="M131.357 9.98828V27.3038H129.376V19.4183H119.071V27.3038H117.09V9.98828H119.071V17.5486H129.376V9.98828H131.357Z" fill="white"/>
<path d="M146.469 14.2733V27.3035H144.558V25.2131C143.796 26.5951 142.096 27.6055 140.232 27.6055C137.337 27.6055 135.297 25.515 135.297 22.5653V14.2733H137.208V22.3098C137.208 24.4234 138.556 25.9099 140.49 25.9099C142.706 25.9099 144.558 24.3769 144.558 22.5536V14.2617H146.469V14.2733Z" fill="white"/>
<path d="M169.257 19.0128V27.3048H167.346V19.2683C167.346 17.1547 166.104 15.6682 164.322 15.6682C162.235 15.6682 160.758 17.0502 160.758 19.0245V27.3164H158.847V19.28C158.847 17.1663 157.604 15.6798 155.822 15.6798C153.736 15.6798 152.259 17.0618 152.259 19.0361V27.328H150.359V14.2746H152.27V16.1908C152.927 14.832 154.357 13.9727 156.08 13.9727C158.062 13.9727 159.621 15.0527 160.324 16.7482C160.863 15.0643 162.587 13.9727 164.568 13.9727C167.323 13.9727 169.257 16.0631 169.257 19.0128Z" fill="white"/>
<path d="M183.807 19.3614V27.2933H181.896V25.2494C180.958 26.7823 179.001 27.5953 177.266 27.5953C174.499 27.5953 172.459 26.0042 172.459 23.4377C172.459 20.8479 174.804 19.1059 177.617 19.1059C179.047 19.1059 180.548 19.4079 181.896 19.8375V19.3614C181.896 17.5962 181.181 15.5871 178.332 15.5871C177.008 15.5871 175.683 16.1677 174.487 16.7716L173.725 15.2387C175.613 14.3096 177.183 13.9844 178.461 13.9844C182.049 13.9728 183.807 16.2142 183.807 19.3614ZM181.896 23.217V21.2311C180.7 20.906 179.352 20.6969 177.934 20.6969C175.976 20.6969 174.323 21.8002 174.323 23.368C174.323 24.9823 175.741 25.9346 177.605 25.9346C179.329 25.9462 181.392 25.0635 181.896 23.217Z" fill="white"/>
<path d="M198.895 19.0128V27.3048H196.984V19.2683C196.984 17.1547 195.636 15.6682 193.701 15.6682C191.486 15.6682 189.634 17.2012 189.634 19.0245V27.3164H187.723V14.2746H189.634V16.365C190.396 14.983 192.095 13.9727 193.959 13.9727C196.855 13.9727 198.895 16.0631 198.895 19.0128Z" fill="white"/>
<path d="M125.859 51.1354L130.384 57.5344H128.121L123.69 51.3096H119.059V57.5344H117.078V40.2305H124.171C127.781 40.2305 130.607 42.5183 130.607 45.77C130.618 48.4992 128.637 50.5663 125.859 51.1354ZM119.071 49.4515H123.831C126.679 49.4515 128.614 48.0927 128.614 45.77C128.614 43.4474 126.679 42.0886 123.831 42.0886H119.071V49.4515Z" fill="white"/>
<path d="M143.619 54.5972L144.792 55.8282C143.643 57.0592 141.333 57.8489 139.504 57.8489C135.999 57.8489 132.846 55.0036 132.846 50.997C132.846 47.1182 135.8 44.2148 139.329 44.2148C143.291 44.2148 145.565 47.1879 145.565 51.7519H134.803C135.085 54.2952 136.89 56.165 139.481 56.165C141.029 56.1534 142.799 55.4798 143.619 54.5972ZM134.815 50.0564H143.666C143.408 47.7105 142.013 45.8988 139.387 45.8988C137.054 45.8988 135.179 47.5363 134.815 50.0564Z" fill="white"/>
<path d="M151.65 44.5161H154.886V46.2001H151.65V57.5347H149.739V46.2001H147.676V44.5161H149.739V42.7277C149.739 40.7882 151.064 39.4062 152.94 39.4062C153.83 39.4062 154.698 39.7082 155.378 40.2424L154.44 41.6244C154.159 41.3225 153.655 41.0902 153.068 41.0902C152.306 41.0902 151.638 41.7754 151.638 42.7277V44.5161H151.65Z" fill="white"/>
<path d="M167.676 54.5972L168.848 55.8282C167.699 57.0592 165.39 57.8489 163.561 57.8489C160.056 57.8489 156.902 55.0036 156.902 50.997C156.902 47.1182 159.857 44.2148 163.385 44.2148C167.348 44.2148 169.622 47.1879 169.622 51.7519H158.86C159.141 54.2952 160.947 56.165 163.538 56.165C165.085 56.1534 166.867 55.4798 167.676 54.5972ZM158.884 50.0564H167.735C167.477 47.7105 166.082 45.8988 163.456 45.8988C161.123 45.8988 159.235 47.5363 158.884 50.0564Z" fill="white"/>
<path d="M179.915 44.2148V45.8988C176.937 45.8988 174.827 47.7105 174.827 50.2538V57.5353H172.916V44.5168H174.827V47.0601C175.612 45.3181 177.5 44.2148 179.915 44.2148Z" fill="white"/>
<path d="M192.635 54.5972L193.807 55.8282C192.658 57.0592 190.349 57.8489 188.52 57.8489C185.015 57.8489 181.861 55.0036 181.861 50.997C181.861 47.1182 184.816 44.2148 188.344 44.2148C192.307 44.2148 194.581 47.1879 194.581 51.7519H183.819C184.1 54.2952 185.906 56.165 188.497 56.165C190.032 56.1534 191.814 55.4798 192.635 54.5972ZM183.831 50.0564H192.682C192.424 47.7105 191.029 45.8988 188.415 45.8988C186.07 45.8988 184.183 47.5363 183.831 50.0564Z" fill="white"/>
<path d="M208.883 49.255V57.547H206.972V49.5105C206.972 47.3969 205.624 45.9104 203.69 45.9104C201.474 45.9104 199.622 47.4434 199.622 49.2666V57.5586H197.723V44.5168H199.634V46.6072C200.396 45.2252 202.095 44.2148 203.959 44.2148C206.855 44.2148 208.883 46.3052 208.883 49.255Z" fill="white"/>
<path d="M212.037 51.0203C212.037 47.3156 215.167 44.2148 218.848 44.2148C220.63 44.2148 222.283 44.9465 223.526 46.131L222.201 47.4201C221.334 46.4911 220.138 45.9104 218.848 45.9104C216.234 45.9104 214.042 48.2563 214.042 51.0203C214.042 53.8191 216.234 56.165 218.848 56.165C220.173 56.165 221.392 55.5611 222.283 54.5739L223.608 55.863C222.365 57.094 220.677 57.8489 218.848 57.8489C215.167 57.8489 212.037 54.7249 212.037 51.0203Z" fill="white"/>
<path d="M236.608 54.5972L237.78 55.8282C236.631 57.0592 234.322 57.8489 232.493 57.8489C228.988 57.8489 225.834 55.0036 225.834 50.997C225.834 47.1182 228.788 44.2148 232.317 44.2148C236.279 44.2148 238.554 47.1879 238.554 51.7519H227.792C228.073 54.2952 229.878 56.165 232.469 56.165C234.017 56.1534 235.799 55.4798 236.608 54.5972ZM227.803 50.0564H236.655C236.397 47.7105 235.002 45.8988 232.387 45.8988C230.043 45.8988 228.167 47.5363 227.803 50.0564Z" fill="white"/>
<path d="M129.552 83.8472H119.81L118.052 87.7725H115.895L123.597 70.457H125.754L133.456 87.7725H131.299L129.552 83.8472ZM128.743 81.9775L124.699 72.8842L120.631 81.9775H128.743Z" fill="white"/>
<path d="M142.929 87.2527C142.237 87.7869 141.381 88.0888 140.49 88.0888C138.603 88.0888 137.29 86.7068 137.29 84.7674V76.4523H135.227V74.7683H137.29V71.1914H139.201V74.7683H142.436V76.4523H139.201V84.7674C139.201 85.7197 139.857 86.4049 140.631 86.4049C141.217 86.4049 141.721 86.1726 142.003 85.8707L142.929 87.2527Z" fill="white"/>
<path d="M145.625 70.168H147.536V87.7854H145.625V70.168Z" fill="white"/>
<path d="M162.084 79.842V87.7739H160.174V85.73C159.236 87.2629 157.278 88.0759 155.543 88.0759C152.776 88.0759 150.736 86.4848 150.736 83.9183C150.736 81.3285 153.081 79.5865 155.895 79.5865C157.313 79.5865 158.825 79.8884 160.174 80.3181V79.842C160.174 78.0768 159.458 76.0677 156.61 76.0677C155.285 76.0677 153.96 76.6483 152.764 77.2522L152.002 75.7193C153.89 74.7902 155.461 74.465 156.739 74.465C160.326 74.4418 162.084 76.6948 162.084 79.842ZM160.174 83.6976V81.7117C158.978 81.3866 157.63 81.1775 156.211 81.1775C154.253 81.1775 152.6 82.2808 152.6 83.8486C152.6 85.4629 154.031 86.4151 155.883 86.4151C157.606 86.4151 159.669 85.5325 160.174 83.6976Z" fill="white"/>
<path d="M165.191 86.136L166.188 84.7541C167.688 85.8341 169.189 86.3915 170.643 86.3915C172.378 86.3915 173.538 85.5902 173.538 84.3476C173.538 82.9308 172.014 82.4778 170.232 81.9785C167.055 81.0726 165.836 80.1436 165.836 78.2738C165.836 75.9047 167.817 74.4414 170.443 74.4414C172.073 74.4414 173.749 74.9988 175.144 75.9047L174.23 77.368C172.905 76.5318 171.616 76.137 170.443 76.137C168.966 76.137 167.747 76.7873 167.747 78.0532C167.747 79.1913 168.708 79.5397 171.159 80.3178C173.269 80.9681 175.461 81.6765 175.461 84.1502C175.461 86.5425 173.374 88.0755 170.654 88.0755C168.802 88.0755 166.762 87.4019 165.191 86.136Z" fill="white"/>
<path d="M103.5 49.7314C103.5 22.2655 80.6665 0 52.5 0C24.3335 0 1.5 22.2655 1.5 49.7314V52.2687C1.5 79.7345 24.3335 102 52.5 102C80.6665 102 103.5 79.7345 103.5 52.2687V49.7314Z" fill="#FF0043"/>
<path d="M94.9022 33.9417C92.5842 28.5983 89.2663 23.7997 85.041 19.6784C80.8157 15.5572 75.8935 12.322 70.4137 10.0627C64.7391 7.72257 58.7123 6.53516 52.5001 6.53516C46.2879 6.53516 40.2611 7.72155 34.5865 10.0627C29.1067 12.323 24.1856 15.5583 19.9592 19.6784C15.7328 23.7986 12.415 28.5983 10.098 33.9417C7.69819 39.4751 6.48047 45.3519 6.48047 51.4096C6.48047 57.4672 7.69714 63.344 10.098 68.8774C12.4161 74.2208 15.7339 79.0195 19.9592 83.1407C24.1845 87.2608 29.1067 90.4971 34.5865 92.7565C40.2611 95.0965 46.2879 96.284 52.5001 96.284C58.7123 96.284 64.7391 95.0976 70.4137 92.7565C75.8935 90.4961 80.8157 87.2608 85.041 83.1407C89.2663 79.0195 92.5852 74.2208 94.9022 68.8774C97.302 63.344 98.5197 57.4672 98.5197 51.4096C98.5197 45.3519 97.3031 39.4751 94.9022 33.9417ZM95.3727 51.0008H84.8105C84.8 50.2068 84.7601 49.4179 84.6899 48.6342L92.9729 47.8167C93.1458 47.7993 93.2716 47.6491 93.2538 47.4805C93.236 47.3119 93.0819 47.1882 92.909 47.2066L84.6292 48.0241C84.1524 43.6413 82.7513 39.4567 80.5181 35.6871L89.6509 30.5583C93.2244 36.5894 95.2983 43.5657 95.3717 51.0008H95.3727ZM9.62746 51.0008C9.65052 48.6852 9.86744 46.4147 10.2625 44.2033L20.6498 46.0376C20.3647 47.6634 20.2107 49.3219 20.1897 51.0008H9.62746ZM21.6873 46.2205L31.1335 47.8892C30.9585 48.9039 30.8568 49.9432 30.8369 51.0008H21.2387C21.2607 49.374 21.4137 47.7778 21.6883 46.2205H21.6873ZM66.3184 65.7648L62.9712 61.9134C63.5769 61.3391 64.1334 60.7157 64.6333 60.0495L68.9822 62.7871C68.1973 63.8651 67.3034 64.8615 66.3184 65.7648ZM36.6949 63.6648L40.7484 60.5389C41.1571 61.0376 41.5983 61.5107 42.0688 61.9532L38.5959 65.6881C37.9158 65.0577 37.2807 64.3812 36.6949 63.6648ZM39.1325 36.6527L42.4744 40.498C40.1249 42.553 38.4398 45.3161 37.7775 48.44L32.6886 47.5408C33.5699 43.2448 35.888 39.4496 39.1314 36.6527H39.1325ZM62.3215 56.4893L63.469 57.0656C62.8863 58.1355 62.1444 59.1114 61.2735 59.9606L59.4931 57.9127C61.0335 56.2992 62.0092 54.1666 62.1108 51.8173H64.9026C64.8449 53.4911 64.4373 55.0801 63.7488 56.5169L62.6086 55.9436C62.4546 55.8659 62.2649 55.9252 62.1852 56.0754C62.1056 56.2256 62.1664 56.4106 62.3204 56.4882L62.3215 56.4893ZM41.2147 56.4464L47.0833 53.722C47.8147 55.3458 49.2923 56.5792 51.0906 57.0104L49.9536 63.2561C46.0625 62.4621 42.8359 59.886 41.2147 56.4464ZM44.1679 42.4467L45.7775 44.2984C44.2957 45.5931 43.2142 47.3282 42.7594 49.3198L40.3586 48.8958C40.9087 46.3656 42.2721 44.1246 44.1689 42.4467H44.1679ZM42.7584 49.9432C42.7772 49.9462 42.7961 49.9483 42.8149 49.9483C42.8799 49.9483 42.9407 49.9278 42.9921 49.8931C43.1 49.8788 43.1922 49.8001 43.2132 49.6897C43.6062 47.7012 44.6551 45.9691 46.116 44.6877L48.3722 47.2843C47.3641 48.2428 46.706 49.5487 46.6012 51.0008H40.0955C40.1133 50.4919 40.1626 49.9902 40.2433 49.4987L42.7584 49.9432ZM57.3186 55.4112C57.2075 55.2835 57.0325 55.2385 56.8774 55.2845C57.744 54.3546 58.3015 53.1478 58.398 51.8193H61.5879C61.4873 54.0123 60.5819 56.0049 59.1535 57.5224L57.3196 55.4122L57.3186 55.4112ZM47.9478 51.4106C47.9478 48.9632 49.9903 46.9716 52.5001 46.9716C55.0099 46.9716 57.0524 48.9632 57.0524 51.4106C57.0524 53.858 55.0099 55.8496 52.5001 55.8496C49.9903 55.8496 47.9478 53.858 47.9478 51.4106ZM58.398 51.0018C58.334 50.1118 58.0616 49.2779 57.6288 48.5442L60.4079 46.9838C61.1006 48.1815 61.5208 49.5477 61.5879 51.0018H58.398ZM57.4087 48.1968C56.345 46.6579 54.5425 45.6431 52.5001 45.6431C51.1964 45.6431 49.9913 46.057 49.0125 46.756L46.7647 44.1706C48.3261 43.0323 50.2575 42.366 52.3209 42.366C55.6377 42.366 58.5531 44.0725 60.1931 46.6323L57.4076 48.1968H57.4087ZM46.6022 51.8193C46.641 52.3497 46.7521 52.8606 46.9282 53.3429L41.0471 56.0734C40.4812 54.7562 40.1479 53.3225 40.0966 51.8193H46.6022ZM51.5014 57.0942C51.8263 57.1484 52.1595 57.178 52.5001 57.178C54.0888 57.178 55.5318 56.5628 56.5955 55.5655C56.5598 55.6912 56.5861 55.8322 56.6793 55.9405L58.5572 58.1018C57.3605 59.1625 55.8797 59.9238 54.2407 60.261C54.224 60.26 54.2072 60.261 54.1904 60.263C54.1705 60.2661 54.1517 60.2733 54.1338 60.2825C53.548 60.3959 52.9413 60.4562 52.322 60.4562C52.1773 60.4562 52.06 60.5706 52.06 60.7116C52.06 60.8527 52.1773 60.9671 52.322 60.9671C52.9214 60.9671 53.5082 60.914 54.0794 60.8128L54.5478 63.3481C53.8813 63.4564 53.198 63.5136 52.5001 63.5136C51.8022 63.5136 51.0592 63.4513 50.3654 63.3338L51.5014 57.0942ZM54.4891 60.7311C56.1595 60.3622 57.6686 59.5763 58.8957 58.4911L60.6605 60.5216C59.0655 61.8817 57.1121 62.8504 54.9586 63.2745L54.4881 60.73L54.4891 60.7311ZM62.1119 51.0028C62.0448 49.4557 61.5984 48.0026 60.8617 46.7294L63.2594 45.3826C64.2445 47.0482 64.8345 48.9622 64.9036 51.0028H62.1119ZM60.6479 46.3779C58.9167 43.6648 55.8326 41.8551 52.322 41.8551C50.1307 41.8551 48.0799 42.5663 46.4262 43.7803L44.8082 41.9194C46.924 40.2855 49.5973 39.3086 52.5001 39.3086C56.9445 39.3086 60.8512 41.5986 63.0435 45.0331L60.6479 46.3779ZM64.7192 42.8851L68.9791 40.029C69.2652 40.4224 69.5377 40.826 69.7944 41.2399L65.3134 43.7568C65.1258 43.4594 64.9277 43.1682 64.7192 42.8851ZM64.3419 42.3936C63.1902 40.9589 61.7703 39.7378 60.1564 38.8027L62.7354 34.4342C65.0168 35.7474 67.0121 37.4845 68.606 39.5354L64.3419 42.3946V42.3936ZM59.6094 38.5003C57.6047 37.4467 55.3285 36.8234 52.9109 36.759L52.8931 31.7161C56.2549 31.7794 59.4187 32.647 62.1894 34.1297L59.6094 38.4992V38.5003ZM52.0725 36.76C49.5931 36.8275 47.2625 37.4845 45.2211 38.5902L42.6253 34.2309C45.4254 32.695 48.6363 31.7897 52.0547 31.7181L52.0725 36.761V36.76ZM44.6782 38.8988C44.1333 39.2238 43.6104 39.5824 43.1136 39.9707L39.7717 36.1254C40.5021 35.546 41.2734 35.0157 42.0824 34.5385L44.6782 38.8978V38.8988ZM37.6643 49.0449C37.5574 49.6846 37.4924 50.3386 37.4736 51.0028H32.3019C32.3218 50.0321 32.4151 49.0787 32.5754 48.1467L37.6632 49.0449H37.6643ZM37.4736 51.8203C37.527 53.7159 37.9514 55.5216 38.6787 57.1729L34.009 59.3413C32.9632 57.0319 32.3596 54.4905 32.303 51.8203H37.4746H37.4736ZM38.8495 57.5459C39.2708 58.4329 39.7801 59.2728 40.3669 60.0536L36.3103 63.1815C35.4846 62.1044 34.7709 60.9426 34.1819 59.7122L38.8495 57.5459ZM42.531 62.3712C44.4718 64.0511 46.859 65.2508 49.4956 65.774L48.5923 70.7382C44.9779 70.0444 41.7073 68.4084 39.0602 66.104L42.532 62.3712H42.531ZM49.9075 65.8496C50.75 65.9927 51.6156 66.0683 52.5001 66.0683C53.3846 66.0683 54.1946 65.9967 55.012 65.8629L55.929 70.8251C54.814 71.0121 53.6686 71.1102 52.5001 71.1102C51.3316 71.1102 50.1401 71.008 49.0041 70.8138L49.9075 65.8496ZM55.4239 65.7893C58.0406 65.2845 60.4153 64.1155 62.354 62.4703L65.6959 66.3146C63.076 68.5228 59.8703 70.0863 56.3408 70.7515L55.4239 65.7893ZM64.9948 59.5498C65.2851 59.1277 65.5533 58.6894 65.7975 58.2377L70.3928 60.5471C70.0711 61.1449 69.7179 61.7243 69.3375 62.2833L64.9948 59.5498ZM66.0805 57.69C66.9534 55.9017 67.4658 53.9152 67.5256 51.8193H72.6972C72.6354 54.746 71.9165 57.5183 70.6789 60.0004L66.0815 57.69H66.0805ZM67.5256 51.0018C67.5193 50.777 67.5078 50.5542 67.491 50.3325L72.6364 49.8246C72.6679 50.214 72.6888 50.6064 72.6972 51.0018H67.5256ZM67.4313 49.7224C67.1923 47.6971 66.529 45.7964 65.5293 44.1073L70.0082 41.5914C71.3653 43.8825 72.2613 46.4647 72.5757 49.2146L67.4313 49.7224ZM71.2793 40.8771L79.5948 36.2072C81.7159 39.7878 83.1107 43.8252 83.5854 48.1283L74.0354 49.0705C73.7001 46.1142 72.7381 43.3398 71.2793 40.8771ZM71.0656 40.5256C70.7889 40.0791 70.4965 39.6427 70.1874 39.2176L78.0942 33.9172C78.5479 34.5456 78.9765 35.1925 79.381 35.8546L71.0656 40.5246V40.5256ZM69.8164 38.723C68.0978 36.4984 65.939 34.6141 63.4669 33.1937L68.2539 25.0841C71.9658 27.2045 75.1924 30.0504 77.7263 33.4195L69.8154 38.723H69.8164ZM62.9209 32.8902C59.9332 31.2848 56.5179 30.3478 52.8878 30.2855L52.8554 20.9251C58.2397 20.9844 63.3013 22.3762 67.709 24.7796L62.9209 32.8902ZM52.0495 30.2865C48.3649 30.3601 44.9046 31.3349 41.8886 32.9934L37.0701 24.9002C41.4945 22.4426 46.5897 21.0079 52.017 20.9272L52.0495 30.2865ZM41.3457 33.302C40.4623 33.8211 39.6198 34.4005 38.8233 35.0341L32.6184 27.8953C33.8466 26.9072 35.1534 26.0089 36.5273 25.2098L41.3457 33.302ZM38.1841 35.5634C34.686 38.5708 32.1888 42.6593 31.2456 47.2884L21.8004 45.6196C23.1481 38.815 26.8212 32.8095 31.9802 28.4246L38.1841 35.5634ZM30.8359 51.8203C30.8924 54.7102 31.5464 57.46 32.6834 59.9565L24.0137 63.9806C22.2814 60.263 21.2953 56.149 21.2366 51.8203H30.8348H30.8359ZM32.8573 60.3284C33.4935 61.6558 34.2668 62.9097 35.1597 64.0695L27.6333 69.8737C26.2961 68.1652 25.1392 66.3145 24.1908 64.3505L32.8563 60.3274L32.8573 60.3284ZM35.5453 64.5549C36.1814 65.3336 36.872 66.0673 37.6119 66.7509L31.167 73.6812C30.0363 72.6512 28.9841 71.5404 28.02 70.3581L35.5453 64.5549ZM38.0751 67.1647C40.9224 69.6469 44.4445 71.4075 48.3355 72.1484L46.6578 81.3657C40.9517 80.3101 35.7895 77.737 31.6302 74.0951L38.0751 67.1647ZM48.7484 72.224C49.9672 72.4325 51.2216 72.5418 52.5011 72.5418C53.7807 72.5418 54.9911 72.4356 56.1899 72.2342L57.8918 81.4464C56.1396 81.7448 54.3382 81.9011 52.5001 81.9011C50.662 81.9011 48.8344 81.7427 47.0696 81.4403L48.7474 72.224H48.7484ZM56.6018 72.1607C60.3912 71.4494 63.8326 69.7746 66.6443 67.4069L72.8471 74.5437C68.7716 77.9567 63.7886 80.3653 58.3036 81.3728L56.6018 72.1607ZM67.2678 66.8602C68.3618 65.8649 69.3511 64.7623 70.2157 63.5667L72.9037 65.259C72.9561 65.2927 73.0158 65.308 73.0734 65.308C73.1761 65.308 73.2778 65.259 73.3375 65.168C73.4318 65.026 73.3899 64.8359 73.2442 64.7439L70.5699 63.0609C70.9765 62.4621 71.3537 61.8428 71.6975 61.2042L80.2288 65.4909C78.505 68.7067 76.211 71.5874 73.4769 74.0041L67.2688 66.8602H67.2678ZM71.9825 60.6575C73.3249 57.9792 74.1025 54.9841 74.1643 51.8214H83.7625C83.6986 56.5281 82.5364 60.9794 80.5139 64.9442L71.9825 60.6565V60.6575ZM74.1643 51.0039C74.156 50.5604 74.1329 50.12 74.0962 49.6826L83.6462 48.7404C83.7132 49.4874 83.752 50.2426 83.7625 51.0039H74.1643ZM52.5001 9.60383C68.2099 9.60383 81.9737 17.8861 89.4413 30.2078L80.3085 35.3366C79.8914 34.6529 79.447 33.9836 78.9755 33.3286L86.0994 28.5534C86.243 28.4573 86.2786 28.2662 86.1801 28.1273C86.0816 27.9873 85.8857 27.9525 85.7431 28.0486L78.6076 32.832C77.6299 31.5311 76.5432 30.2926 75.3517 29.1307C73.3616 27.1902 71.1557 25.5348 68.7884 24.1839L73.0933 16.8898C73.1803 16.7426 73.1279 16.5556 72.9781 16.4708C72.8272 16.386 72.6354 16.4371 72.5484 16.5832L68.2424 23.8773C63.5843 21.3359 58.3267 19.9605 52.8522 19.9043L52.8229 11.4207C52.8229 11.1959 52.6342 11.013 52.4037 11.013H52.4026C52.171 11.013 51.9845 11.1969 51.9845 11.4228L52.0138 19.9053C46.4995 19.984 41.2095 21.4003 36.5346 23.9989L32.1185 16.5812C32.0316 16.435 31.8387 16.385 31.6889 16.4698C31.539 16.5546 31.4877 16.7426 31.5746 16.8887L35.9918 24.3075C34.576 25.1311 33.2189 26.0651 31.932 27.1034L25.1182 19.2625C32.5503 13.2325 42.0992 9.60179 52.5011 9.60179L52.5001 9.60383ZM24.4779 19.7939L31.2928 27.6357C30.73 28.114 30.1819 28.6116 29.6485 29.1307C25.0155 33.6484 21.9639 39.2973 20.7619 45.4377L10.3747 43.6025C12.2107 34.1665 17.3079 25.8434 24.4779 19.7939ZM9.62746 51.8214H20.1897C20.2474 56.2399 21.2314 60.5134 23.0527 64.4282L13.5332 68.8467C11.0799 63.6536 9.6872 57.8903 9.62746 51.8214ZM13.7103 69.2177L23.2277 64.8001C24.1981 66.8142 25.3939 68.7302 26.7981 70.5195L19.9487 75.8016C19.8125 75.9068 19.7894 76.1 19.8974 76.2318C19.9592 76.3084 20.0514 76.3483 20.1436 76.3483C20.2117 76.3483 20.2809 76.3268 20.3385 76.2819L27.1848 71.0019C27.9488 71.9369 28.7693 72.8361 29.6485 73.6945C29.9126 73.952 30.1809 74.2013 30.4523 74.4486L24.3815 80.9763C24.2652 81.102 24.2746 81.2952 24.4035 81.4096C24.4633 81.4627 24.5398 81.4893 24.6142 81.4893C24.7001 81.4893 24.785 81.4556 24.8468 81.3892L30.9144 74.8645C35.3441 78.7507 40.6981 81.3217 46.4723 82.3783L44.6269 92.5143C30.9281 90.026 19.4991 81.1654 13.7082 69.2177H13.7103ZM45.0408 92.5879L46.8852 82.4529C48.7212 82.7646 50.597 82.924 52.4991 82.924C54.4011 82.924 56.2528 82.7667 58.0773 82.4591L59.9489 92.5889C57.5292 93.0038 55.0393 93.2214 52.4991 93.2214C49.9588 93.2214 47.4637 93.0038 45.0398 92.5879H45.0408ZM60.3618 92.5163L58.4902 82.3855C64.0422 81.3759 69.2054 78.9673 73.5345 75.3366L77.0169 79.3434C77.0996 79.4384 77.2181 79.4875 77.3365 79.4875C77.4318 79.4875 77.5283 79.4558 77.6069 79.3904C77.784 79.2443 77.8049 78.9868 77.6561 78.8141L74.1633 74.7951C74.5668 74.4384 74.9618 74.0726 75.3496 73.6945C77.7169 71.3861 79.6703 68.7813 81.1762 65.9681L83.0311 66.9001C83.0772 66.9236 83.1264 66.9338 83.1746 66.9338C83.2888 66.9338 83.3989 66.8735 83.4544 66.7672C83.534 66.617 83.4733 66.4321 83.3192 66.3544L81.4633 65.4214C83.5948 61.241 84.7486 56.617 84.8105 51.8214H95.3727C95.1726 72.0748 80.1293 88.9285 60.3618 92.5153V92.5163Z" fill="url(#paint0_linear_5559_21333)"/>
<defs>
<linearGradient id="paint0_linear_5559_21333" x1="12.6361" y1="73.8508" x2="91.3458" y2="27.2483" gradientUnits="userSpaceOnUse">
<stop offset="0.12" stop-color="white" stop-opacity="0"/>
<stop offset="0.44" stop-color="white"/>
</linearGradient>
</defs>
</svg>
