<svg width="49" height="48" viewBox="0 0 49 48" fill="none" xmlns="http://www.w3.org/2000/svg">
<rect x="0.800781" width="48" height="48" rx="24" fill="#E00D3A"/>
<g clip-path="url(#clip0_4619_18741)">
<path d="M22.4008 27.4986V20.5011L28.6408 23.9998L22.4008 27.4986Z" fill="#E00D3A"/>
<path d="M36.2944 18.3878C36.1579 17.8949 35.8904 17.4455 35.5189 17.0845C35.1474 16.7236 34.6848 16.4638 34.1774 16.3311C32.3089 15.8398 24.8008 15.8398 24.8008 15.8398C24.8008 15.8398 17.2926 15.8398 15.4241 16.3311C14.9168 16.4638 14.4542 16.7236 14.0826 17.0845C13.7111 17.4455 13.4437 17.8949 13.3071 18.3878C12.9582 20.239 12.7889 22.1179 12.8014 23.9998C12.7889 25.8818 12.9582 27.7607 13.3071 29.6119C13.4437 30.1048 13.7111 30.5542 14.0826 30.9152C14.4542 31.2761 14.9168 31.5359 15.4241 31.6686C17.2926 32.1598 24.8008 32.1598 24.8008 32.1598C24.8008 32.1598 32.3089 32.1598 34.1774 31.6686C34.6848 31.5359 35.1474 31.2761 35.5189 30.9152C35.8904 30.5542 36.1579 30.1048 36.2944 29.6119C36.6433 27.7607 36.8126 25.8818 36.8001 23.9998C36.8126 22.1179 36.6433 20.239 36.2944 18.3878ZM22.4009 27.497V20.5027L28.632 23.9998L22.4009 27.497Z" fill="white"/>
</g>
<defs>
<clipPath id="clip0_4619_18741">
<rect width="24" height="24" fill="white" transform="translate(12.8008 12)"/>
</clipPath>
</defs>
</svg>
