<svg width="49" height="48" viewBox="0 0 49 48" fill="none" xmlns="http://www.w3.org/2000/svg">
<rect x="0.400391" width="48" height="48" rx="24" fill="#E00D3A"/>
<path d="M12.4004 15.36C12.4004 13.5043 13.9047 12 15.7604 12H33.0404C34.8961 12 36.4004 13.5043 36.4004 15.36V32.64C36.4004 34.4957 34.8961 36 33.0404 36H15.7604C13.9047 36 12.4004 34.4957 12.4004 32.64V15.36Z" fill="#E00D3A"/>
<path d="M21.0404 18.48C21.0404 19.6729 20.0733 20.64 18.8804 20.64C17.6875 20.64 16.7204 19.6729 16.7204 18.48C16.7204 17.2871 17.6875 16.32 18.8804 16.32C20.0733 16.32 21.0404 17.2871 21.0404 18.48Z" fill="white"/>
<path d="M17.2004 22.08C17.2004 21.8149 17.4153 21.6 17.6804 21.6H20.0804C20.3455 21.6 20.5604 21.8149 20.5604 22.08V31.2C20.5604 31.4651 20.3455 31.68 20.0804 31.68H17.6804C17.4153 31.68 17.2004 31.4651 17.2004 31.2V22.08Z" fill="white"/>
<path d="M22.4804 21.6L24.6404 21.6C24.9055 21.6 25.1204 21.8149 25.1204 22.08V22.56C26.0804 21.36 27.8404 21.28 28.7204 21.36C31.4638 21.6094 31.9204 24.4 31.8404 25.92L31.8404 31.2C31.8404 31.4651 31.6255 31.68 31.3604 31.68L29.2004 31.68C28.9353 31.68 28.7204 31.4651 28.7204 31.2V25.92C28.6404 25.28 28.1924 24 27.0404 24C25.8884 24 25.2004 25.44 25.1204 25.92V31.2C25.1204 31.4651 24.9055 31.68 24.6404 31.68L22.4804 31.68C22.2153 31.68 22.0004 31.4651 22.0004 31.2V22.08C22.0004 21.8149 22.2153 21.6 22.4804 21.6Z" fill="white"/>
</svg>
