<svg width="25" height="24" viewBox="0 0 25 24" fill="none" xmlns="http://www.w3.org/2000/svg">
<path fill-rule="evenodd" clip-rule="evenodd" d="M22.2695 12C22.2695 17.1122 18.4329 21.3283 13.4812 21.9278L13.4811 21.9276C13.4814 21.9276 13.4816 21.9276 13.4818 21.9276V15.0553H16.1857L16.7457 11.9998H13.4773V10.9192C13.4773 9.30313 14.1096 8.68313 15.7496 8.68313C16.2573 8.68313 16.6696 8.69535 16.9057 8.71924V5.9509C16.4573 5.82701 15.3657 5.70312 14.7334 5.70312C11.3934 5.70312 9.85344 7.27924 9.85344 10.6831V11.9998H7.78955V15.0559H9.85344V21.7059H9.854L9.85398 21.7061C5.49786 20.6256 2.26953 16.69 2.26953 12C2.26953 6.47722 6.74675 2 12.2695 2C17.7923 2 22.2695 6.47722 22.2695 12Z" fill="currentColor"/>
</svg>
