<svg width="25" height="24" viewBox="0 0 25 24" fill="none" xmlns="http://www.w3.org/2000/svg">
<path fill-rule="evenodd" clip-rule="evenodd" d="M21.1773 6.04286C21.4878 6.35336 21.7115 6.73978 21.8262 7.16363C22.4866 9.82202 22.3341 14.0207 21.839 16.7817C21.7243 17.2055 21.5006 17.592 21.1901 17.9025C20.8796 18.213 20.4932 18.4367 20.0693 18.5514C18.5176 18.9746 12.2724 18.9746 12.2724 18.9746C12.2724 18.9746 6.02703 18.9746 4.4753 18.5514C4.05144 18.4367 3.66504 18.213 3.35455 17.9025C3.04407 17.592 2.82034 17.2055 2.70564 16.7817C2.04132 14.1349 2.22339 9.93364 2.69276 7.17652C2.80744 6.75265 3.03116 6.36622 3.34165 6.0557C3.65213 5.74519 4.03855 5.52143 4.46241 5.40671C6.01414 4.98351 12.2596 4.9707 12.2596 4.9707C12.2596 4.9707 18.5048 4.9707 20.0566 5.3939C20.4804 5.50861 20.8668 5.73236 21.1773 6.04286ZM15.4523 11.9725L10.2715 14.9733V8.97168L15.4523 11.9725Z" fill="currentColor"/>
</svg>
