<?xml version="1.0" encoding="UTF-8" standalone="no"?>
<!DOCTYPE svg PUBLIC "-//W3C//DTD SVG 1.1//EN"
 "http://www.w3.org/Graphics/SVG/1.1/DTD/svg11.dtd">
<!-- Generated by graphviz version 2.47.0 (20210316.0004)
 -->
<!-- Title: dependencies Pages: 1 -->
<svg width="504pt" height="284pt"
 viewBox="0.00 0.00 504.00 284.00" xmlns="http://www.w3.org/2000/svg" xmlns:xlink="http://www.w3.org/1999/xlink">
<g id="graph0" class="graph" transform="scale(1 1) rotate(0) translate(4 280)">
<title>dependencies</title>
<polygon fill="white" stroke="transparent" points="-4,4 -4,-280 500,-280 500,4 -4,4"/>
<text text-anchor="start" x="227.01" y="-42.4" font-family="Times-12" font-weight="bold" font-size="14.00">Legend</text>
<polygon fill="#ffffb3" stroke="transparent" points="14,-10 14,-30 34,-30 34,-10 14,-10"/>
<text text-anchor="start" x="37.63" y="-15.4" font-family="Times-12" font-size="14.00"> &#160;Declarations</text>
<polygon fill="#8dd3c7" stroke="transparent" points="127,-10 127,-30 147,-30 147,-10 127,-10"/>
<text text-anchor="start" x="150.73" y="-15.4" font-family="Times-12" font-size="14.00"> &#160;Module</text>
<polygon fill="#80b1d3" stroke="transparent" points="213,-10 213,-30 233,-30 233,-10 213,-10"/>
<text text-anchor="start" x="236.78" y="-15.4" font-family="Times-12" font-size="14.00"> &#160;Bootstrap</text>
<polygon fill="#fdb462" stroke="transparent" points="310,-10 310,-30 330,-30 330,-10 310,-10"/>
<text text-anchor="start" x="333.67" y="-15.4" font-family="Times-12" font-size="14.00"> &#160;Providers</text>
<polygon fill="#fb8072" stroke="transparent" points="406,-10 406,-30 426,-30 426,-10 406,-10"/>
<text text-anchor="start" x="429.73" y="-15.4" font-family="Times-12" font-size="14.00"> &#160;Exports</text>
<g id="clust1" class="cluster">
<title>cluster_UrlModule</title>
<polygon fill="none" stroke="black" stroke-dasharray="1,5" points="27,-70 27,-268 469,-268 469,-70 27,-70"/>
</g>
<g id="clust4" class="cluster">
<title>cluster_UrlModule_exports</title>
<polygon fill="none" stroke="black" points="35,-208 35,-260 461,-260 461,-208 35,-208"/>
</g>
<g id="clust3" class="cluster">
<title>cluster_UrlModule_imports</title>
<polygon fill="none" stroke="black" points="44,-78 44,-130 454,-130 454,-78 44,-78"/>
</g>
<!-- AppUrlPipe -->
<g id="node1" class="node">
<title>AppUrlPipe</title>
<polygon fill="#8dd3c7" stroke="black" points="445.65,-122 442.65,-126 421.65,-126 418.65,-122 362.35,-122 362.35,-86 445.65,-86 445.65,-122"/>
<text text-anchor="middle" x="404" y="-99.8" font-family="Times,serif" font-size="14.00">AppUrlPipe</text>
</g>
<!-- UrlModule -->
<g id="node5" class="node">
<title>UrlModule</title>
<polygon fill="#8dd3c7" stroke="black" points="238.21,-187 235.21,-191 214.21,-191 211.21,-187 159.79,-187 159.79,-151 238.21,-151 238.21,-187"/>
<text text-anchor="middle" x="199" y="-164.8" font-family="Times,serif" font-size="14.00">UrlModule</text>
</g>
<!-- AppUrlPipe&#45;&gt;UrlModule -->
<g id="edge1" class="edge">
<title>AppUrlPipe&#45;&gt;UrlModule</title>
<path fill="none" stroke="black" d="M419.03,-122.27C419.03,-140.56 419.03,-166 419.03,-166 419.03,-166 248.34,-166 248.34,-166"/>
<polygon fill="black" stroke="black" points="248.34,-162.5 238.34,-166 248.34,-169.5 248.34,-162.5"/>
</g>
<!-- AssetUrlPipe -->
<g id="node2" class="node">
<title>AssetUrlPipe</title>
<polygon fill="#8dd3c7" stroke="black" points="344.15,-122 341.15,-126 320.15,-126 317.15,-122 253.85,-122 253.85,-86 344.15,-86 344.15,-122"/>
<text text-anchor="middle" x="299" y="-99.8" font-family="Times,serif" font-size="14.00">AssetUrlPipe</text>
</g>
<!-- AssetUrlPipe&#45;&gt;UrlModule -->
<g id="edge2" class="edge">
<title>AssetUrlPipe&#45;&gt;UrlModule</title>
<path fill="none" stroke="black" d="M314.11,-122.01C314.11,-138.05 314.11,-159 314.11,-159 314.11,-159 248.29,-159 248.29,-159"/>
<polygon fill="black" stroke="black" points="248.29,-155.5 238.29,-159 248.29,-162.5 248.29,-155.5"/>
</g>
<!-- CssUrlPipe -->
<g id="node3" class="node">
<title>CssUrlPipe</title>
<polygon fill="#8dd3c7" stroke="black" points="235.77,-122 232.77,-126 211.77,-126 208.77,-122 156.23,-122 156.23,-86 235.77,-86 235.77,-122"/>
<text text-anchor="middle" x="196" y="-99.8" font-family="Times,serif" font-size="14.00">CssUrlPipe</text>
</g>
<!-- CssUrlPipe&#45;&gt;UrlModule -->
<g id="edge3" class="edge">
<title>CssUrlPipe&#45;&gt;UrlModule</title>
<path fill="none" stroke="black" d="M197.89,-122.11C197.89,-122.11 197.89,-140.99 197.89,-140.99"/>
<polygon fill="black" stroke="black" points="194.39,-140.99 197.89,-150.99 201.39,-140.99 194.39,-140.99"/>
</g>
<!-- PageUrlPipe -->
<g id="node4" class="node">
<title>PageUrlPipe</title>
<polygon fill="#8dd3c7" stroke="black" points="138.26,-122 135.26,-126 114.26,-126 111.26,-122 51.74,-122 51.74,-86 138.26,-86 138.26,-122"/>
<text text-anchor="middle" x="95" y="-99.8" font-family="Times,serif" font-size="14.00">PageUrlPipe</text>
</g>
<!-- PageUrlPipe&#45;&gt;UrlModule -->
<g id="edge4" class="edge">
<title>PageUrlPipe&#45;&gt;UrlModule</title>
<path fill="none" stroke="black" d="M105.96,-122.02C105.96,-139.37 105.96,-163 105.96,-163 105.96,-163 149.81,-163 149.81,-163"/>
<polygon fill="black" stroke="black" points="149.81,-166.5 159.81,-163 149.81,-159.5 149.81,-166.5"/>
</g>
<!-- AppUrlPipe  -->
<g id="node6" class="node">
<title>AppUrlPipe </title>
<polygon fill="#fb8072" stroke="black" points="452.65,-252 365.35,-252 365.35,-216 452.65,-216 452.65,-252"/>
<text text-anchor="middle" x="409" y="-229.8" font-family="Times,serif" font-size="14.00">AppUrlPipe </text>
</g>
<!-- UrlModule&#45;&gt;AppUrlPipe  -->
<g id="edge5" class="edge">
<title>UrlModule&#45;&gt;AppUrlPipe </title>
<path fill="none" stroke="black" stroke-dasharray="5,2" d="M238.57,-173C295.1,-173 392.22,-173 392.22,-173 392.22,-173 392.22,-205.7 392.22,-205.7"/>
<polygon fill="black" stroke="black" points="388.72,-205.7 392.22,-215.7 395.72,-205.7 388.72,-205.7"/>
</g>
<!-- AssetUrlPipe  -->
<g id="node7" class="node">
<title>AssetUrlPipe </title>
<polygon fill="#fb8072" stroke="black" points="347.15,-252 252.85,-252 252.85,-216 347.15,-216 347.15,-252"/>
<text text-anchor="middle" x="300" y="-229.8" font-family="Times,serif" font-size="14.00">AssetUrlPipe </text>
</g>
<!-- UrlModule&#45;&gt;AssetUrlPipe  -->
<g id="edge6" class="edge">
<title>UrlModule&#45;&gt;AssetUrlPipe </title>
<path fill="none" stroke="black" stroke-dasharray="5,2" d="M238.46,-180C260.63,-180 283.89,-180 283.89,-180 283.89,-180 283.89,-205.72 283.89,-205.72"/>
<polygon fill="black" stroke="black" points="280.39,-205.72 283.89,-215.72 287.39,-205.72 280.39,-205.72"/>
</g>
<!-- CssUrlPipe  -->
<g id="node8" class="node">
<title>CssUrlPipe </title>
<polygon fill="#fb8072" stroke="black" points="234.77,-252 151.23,-252 151.23,-216 234.77,-216 234.77,-252"/>
<text text-anchor="middle" x="193" y="-229.8" font-family="Times,serif" font-size="14.00">CssUrlPipe </text>
</g>
<!-- UrlModule&#45;&gt;CssUrlPipe  -->
<g id="edge7" class="edge">
<title>UrlModule&#45;&gt;CssUrlPipe </title>
<path fill="none" stroke="black" stroke-dasharray="5,2" d="M197.27,-187.11C197.27,-187.11 197.27,-205.99 197.27,-205.99"/>
<polygon fill="black" stroke="black" points="193.77,-205.99 197.27,-215.99 200.77,-205.99 193.77,-205.99"/>
</g>
<!-- PageUrlPipe  -->
<g id="node9" class="node">
<title>PageUrlPipe </title>
<polygon fill="#fb8072" stroke="black" points="133.26,-252 42.74,-252 42.74,-216 133.26,-216 133.26,-252"/>
<text text-anchor="middle" x="88" y="-229.8" font-family="Times,serif" font-size="14.00">PageUrlPipe </text>
</g>
<!-- UrlModule&#45;&gt;PageUrlPipe  -->
<g id="edge8" class="edge">
<title>UrlModule&#45;&gt;PageUrlPipe </title>
<path fill="none" stroke="black" stroke-dasharray="5,2" d="M159.64,-175C124.58,-175 78.79,-175 78.79,-175 78.79,-175 78.79,-205.98 78.79,-205.98"/>
<polygon fill="black" stroke="black" points="75.29,-205.98 78.79,-215.98 82.29,-205.98 75.29,-205.98"/>
</g>
</g>
</svg>
