<?xml version="1.0" encoding="UTF-8" standalone="no"?>
<!DOCTYPE svg PUBLIC "-//W3C//DTD SVG 1.1//EN"
 "http://www.w3.org/Graphics/SVG/1.1/DTD/svg11.dtd">
<!-- Generated by graphviz version 2.47.0 (20210316.0004)
 -->
<!-- Title: dependencies Pages: 1 -->
<svg width="620pt" height="284pt"
 viewBox="0.00 0.00 620.00 284.00" xmlns="http://www.w3.org/2000/svg" xmlns:xlink="http://www.w3.org/1999/xlink">
<g id="graph0" class="graph" transform="scale(1 1) rotate(0) translate(4 280)">
<title>dependencies</title>
<polygon fill="white" stroke="transparent" points="-4,4 -4,-280 616,-280 616,4 -4,4"/>
<text text-anchor="start" x="285.01" y="-42.4" font-family="Times-12" font-weight="bold" font-size="14.00">Legend</text>
<polygon fill="#ffffb3" stroke="transparent" points="72,-10 72,-30 92,-30 92,-10 72,-10"/>
<text text-anchor="start" x="95.63" y="-15.4" font-family="Times-12" font-size="14.00"> &#160;Declarations</text>
<polygon fill="#8dd3c7" stroke="transparent" points="185,-10 185,-30 205,-30 205,-10 185,-10"/>
<text text-anchor="start" x="208.73" y="-15.4" font-family="Times-12" font-size="14.00"> &#160;Module</text>
<polygon fill="#80b1d3" stroke="transparent" points="271,-10 271,-30 291,-30 291,-10 271,-10"/>
<text text-anchor="start" x="294.78" y="-15.4" font-family="Times-12" font-size="14.00"> &#160;Bootstrap</text>
<polygon fill="#fdb462" stroke="transparent" points="368,-10 368,-30 388,-30 388,-10 368,-10"/>
<text text-anchor="start" x="391.67" y="-15.4" font-family="Times-12" font-size="14.00"> &#160;Providers</text>
<polygon fill="#fb8072" stroke="transparent" points="464,-10 464,-30 484,-30 484,-10 464,-10"/>
<text text-anchor="start" x="487.73" y="-15.4" font-family="Times-12" font-size="14.00"> &#160;Exports</text>
<g id="clust1" class="cluster">
<title>cluster_CompareModule</title>
<polygon fill="none" stroke="black" stroke-dasharray="1,5" points="8,-70 8,-268 604,-268 604,-70 8,-70"/>
</g>
<g id="clust5" class="cluster">
<title>cluster_CompareModule_exports</title>
<polygon fill="none" stroke="black" points="219,-208 219,-260 371,-260 371,-208 219,-208"/>
</g>
<g id="clust2" class="cluster">
<title>cluster_CompareModule_declarations</title>
<polygon fill="none" stroke="black" points="448,-78 448,-130 596,-130 596,-78 448,-78"/>
</g>
<g id="clust4" class="cluster">
<title>cluster_CompareModule_imports</title>
<polygon fill="none" stroke="black" points="16,-78 16,-130 440,-130 440,-78 16,-78"/>
</g>
<!-- CompareComponent -->
<g id="node1" class="node">
<title>CompareComponent</title>
<polygon fill="#ffffb3" stroke="black" points="588.15,-122 455.85,-122 455.85,-86 588.15,-86 588.15,-122"/>
<text text-anchor="middle" x="522" y="-99.8" font-family="Times,serif" font-size="14.00">CompareComponent</text>
</g>
<!-- CompareModule -->
<g id="node2" class="node">
<title>CompareModule</title>
<polygon fill="#8dd3c7" stroke="black" points="350.37,-187 347.37,-191 326.37,-191 323.37,-187 239.63,-187 239.63,-151 350.37,-151 350.37,-187"/>
<text text-anchor="middle" x="295" y="-164.8" font-family="Times,serif" font-size="14.00">CompareModule</text>
</g>
<!-- CompareComponent&#45;&gt;CompareModule -->
<g id="edge1" class="edge">
<title>CompareComponent&#45;&gt;CompareModule</title>
<path fill="none" stroke="black" d="M522,-122.11C522,-141.34 522,-169 522,-169 522,-169 360.53,-169 360.53,-169"/>
<polygon fill="black" stroke="black" points="360.53,-165.5 350.53,-169 360.53,-172.5 360.53,-165.5"/>
</g>
<!-- CompareComponent  -->
<g id="node6" class="node">
<title>CompareComponent </title>
<polygon fill="#fb8072" stroke="black" points="363.15,-252 226.85,-252 226.85,-216 363.15,-216 363.15,-252"/>
<text text-anchor="middle" x="295" y="-229.8" font-family="Times,serif" font-size="14.00">CompareComponent </text>
</g>
<!-- CompareModule&#45;&gt;CompareComponent  -->
<g id="edge5" class="edge">
<title>CompareModule&#45;&gt;CompareComponent </title>
<path fill="none" stroke="black" stroke-dasharray="5,2" d="M295,-187.11C295,-187.11 295,-205.99 295,-205.99"/>
<polygon fill="black" stroke="black" points="291.5,-205.99 295,-215.99 298.5,-205.99 291.5,-205.99"/>
</g>
<!-- FileUploadModule -->
<g id="node3" class="node">
<title>FileUploadModule</title>
<polygon fill="#8dd3c7" stroke="black" points="432.04,-122 429.04,-126 408.04,-126 405.04,-122 309.96,-122 309.96,-86 432.04,-86 432.04,-122"/>
<text text-anchor="middle" x="371" y="-99.8" font-family="Times,serif" font-size="14.00">FileUploadModule</text>
</g>
<!-- FileUploadModule&#45;&gt;CompareModule -->
<g id="edge2" class="edge">
<title>FileUploadModule&#45;&gt;CompareModule</title>
<path fill="none" stroke="black" d="M330.08,-122.11C330.08,-122.11 330.08,-140.99 330.08,-140.99"/>
<polygon fill="black" stroke="black" points="326.58,-140.99 330.08,-150.99 333.58,-140.99 326.58,-140.99"/>
</g>
<!-- SidenavHeaderModule -->
<g id="node4" class="node">
<title>SidenavHeaderModule</title>
<polygon fill="#8dd3c7" stroke="black" points="291.56,-122 288.56,-126 267.56,-126 264.56,-122 146.44,-122 146.44,-86 291.56,-86 291.56,-122"/>
<text text-anchor="middle" x="219" y="-99.8" font-family="Times,serif" font-size="14.00">SidenavHeaderModule</text>
</g>
<!-- SidenavHeaderModule&#45;&gt;CompareModule -->
<g id="edge3" class="edge">
<title>SidenavHeaderModule&#45;&gt;CompareModule</title>
<path fill="none" stroke="black" d="M265.55,-122.11C265.55,-122.11 265.55,-140.99 265.55,-140.99"/>
<polygon fill="black" stroke="black" points="262.05,-140.99 265.55,-150.99 269.05,-140.99 262.05,-140.99"/>
</g>
<!-- SidenavModule -->
<g id="node5" class="node">
<title>SidenavModule</title>
<polygon fill="#8dd3c7" stroke="black" points="128.15,-122 125.15,-126 104.15,-126 101.15,-122 23.85,-122 23.85,-86 128.15,-86 128.15,-122"/>
<text text-anchor="middle" x="76" y="-99.8" font-family="Times,serif" font-size="14.00">SidenavModule</text>
</g>
<!-- SidenavModule&#45;&gt;CompareModule -->
<g id="edge4" class="edge">
<title>SidenavModule&#45;&gt;CompareModule</title>
<path fill="none" stroke="black" d="M76,-122.11C76,-141.34 76,-169 76,-169 76,-169 229.45,-169 229.45,-169"/>
<polygon fill="black" stroke="black" points="229.45,-172.5 239.45,-169 229.45,-165.5 229.45,-172.5"/>
</g>
</g>
</svg>
