<?xml version="1.0" encoding="UTF-8" standalone="no"?>
<!DOCTYPE svg PUBLIC "-//W3C//DTD SVG 1.1//EN"
 "http://www.w3.org/Graphics/SVG/1.1/DTD/svg11.dtd">
<!-- Generated by graphviz version 2.47.0 (20210316.0004)
 -->
<!-- Title: dependencies Pages: 1 -->
<svg width="620pt" height="284pt"
 viewBox="0.00 0.00 620.00 284.00" xmlns="http://www.w3.org/2000/svg" xmlns:xlink="http://www.w3.org/1999/xlink">
<g id="graph0" class="graph" transform="scale(1 1) rotate(0) translate(4 280)">
<title>dependencies</title>
<polygon fill="white" stroke="transparent" points="-4,4 -4,-280 616,-280 616,4 -4,4"/>
<text text-anchor="start" x="285.01" y="-42.4" font-family="Times-12" font-weight="bold" font-size="14.00">Legend</text>
<polygon fill="#ffffb3" stroke="transparent" points="72,-10 72,-30 92,-30 92,-10 72,-10"/>
<text text-anchor="start" x="95.63" y="-15.4" font-family="Times-12" font-size="14.00"> &#160;Declarations</text>
<polygon fill="#8dd3c7" stroke="transparent" points="185,-10 185,-30 205,-30 205,-10 185,-10"/>
<text text-anchor="start" x="208.73" y="-15.4" font-family="Times-12" font-size="14.00"> &#160;Module</text>
<polygon fill="#80b1d3" stroke="transparent" points="271,-10 271,-30 291,-30 291,-10 271,-10"/>
<text text-anchor="start" x="294.78" y="-15.4" font-family="Times-12" font-size="14.00"> &#160;Bootstrap</text>
<polygon fill="#fdb462" stroke="transparent" points="368,-10 368,-30 388,-30 388,-10 368,-10"/>
<text text-anchor="start" x="391.67" y="-15.4" font-family="Times-12" font-size="14.00"> &#160;Providers</text>
<polygon fill="#fb8072" stroke="transparent" points="464,-10 464,-30 484,-30 484,-10 464,-10"/>
<text text-anchor="start" x="487.73" y="-15.4" font-family="Times-12" font-size="14.00"> &#160;Exports</text>
<g id="clust1" class="cluster">
<title>cluster_CompareModule</title>
<polygon fill="none" stroke="black" stroke-dasharray="1,5" points="8,-70 8,-268 604,-268 604,-70 8,-70"/>
</g>
<g id="clust5" class="cluster">
<title>cluster_CompareModule_exports</title>
<polygon fill="none" stroke="black" points="227,-208 227,-260 379,-260 379,-208 227,-208"/>
</g>
<g id="clust4" class="cluster">
<title>cluster_CompareModule_imports</title>
<polygon fill="none" stroke="black" points="172,-78 172,-130 596,-130 596,-78 172,-78"/>
</g>
<g id="clust2" class="cluster">
<title>cluster_CompareModule_declarations</title>
<polygon fill="none" stroke="black" points="16,-78 16,-130 164,-130 164,-78 16,-78"/>
</g>
<!-- CompareComponent -->
<g id="node1" class="node">
<title>CompareComponent</title>
<polygon fill="#ffffb3" stroke="black" points="156.15,-122 23.85,-122 23.85,-86 156.15,-86 156.15,-122"/>
<text text-anchor="middle" x="90" y="-99.8" font-family="Times,serif" font-size="14.00">CompareComponent</text>
</g>
<!-- CompareModule -->
<g id="node2" class="node">
<title>CompareModule</title>
<polygon fill="#8dd3c7" stroke="black" points="358.37,-187 355.37,-191 334.37,-191 331.37,-187 247.63,-187 247.63,-151 358.37,-151 358.37,-187"/>
<text text-anchor="middle" x="303" y="-164.8" font-family="Times,serif" font-size="14.00">CompareModule</text>
</g>
<!-- CompareComponent&#45;&gt;CompareModule -->
<g id="edge1" class="edge">
<title>CompareComponent&#45;&gt;CompareModule</title>
<path fill="none" stroke="black" d="M90,-122.11C90,-141.34 90,-169 90,-169 90,-169 237.59,-169 237.59,-169"/>
<polygon fill="black" stroke="black" points="237.59,-172.5 247.59,-169 237.59,-165.5 237.59,-172.5"/>
</g>
<!-- CompareComponent  -->
<g id="node6" class="node">
<title>CompareComponent </title>
<polygon fill="#fb8072" stroke="black" points="371.15,-252 234.85,-252 234.85,-216 371.15,-216 371.15,-252"/>
<text text-anchor="middle" x="303" y="-229.8" font-family="Times,serif" font-size="14.00">CompareComponent </text>
</g>
<!-- CompareModule&#45;&gt;CompareComponent  -->
<g id="edge5" class="edge">
<title>CompareModule&#45;&gt;CompareComponent </title>
<path fill="none" stroke="black" stroke-dasharray="5,2" d="M303,-187.11C303,-187.11 303,-205.99 303,-205.99"/>
<polygon fill="black" stroke="black" points="299.5,-205.99 303,-215.99 306.5,-205.99 299.5,-205.99"/>
</g>
<!-- FileUploadModule -->
<g id="node3" class="node">
<title>FileUploadModule</title>
<polygon fill="#8dd3c7" stroke="black" points="588.04,-122 585.04,-126 564.04,-126 561.04,-122 465.96,-122 465.96,-86 588.04,-86 588.04,-122"/>
<text text-anchor="middle" x="527" y="-99.8" font-family="Times,serif" font-size="14.00">FileUploadModule</text>
</g>
<!-- FileUploadModule&#45;&gt;CompareModule -->
<g id="edge2" class="edge">
<title>FileUploadModule&#45;&gt;CompareModule</title>
<path fill="none" stroke="black" d="M527,-122.11C527,-141.34 527,-169 527,-169 527,-169 368.37,-169 368.37,-169"/>
<polygon fill="black" stroke="black" points="368.37,-165.5 358.37,-169 368.37,-172.5 368.37,-165.5"/>
</g>
<!-- SidenavHeaderModule -->
<g id="node4" class="node">
<title>SidenavHeaderModule</title>
<polygon fill="#8dd3c7" stroke="black" points="447.56,-122 444.56,-126 423.56,-126 420.56,-122 302.44,-122 302.44,-86 447.56,-86 447.56,-122"/>
<text text-anchor="middle" x="375" y="-99.8" font-family="Times,serif" font-size="14.00">SidenavHeaderModule</text>
</g>
<!-- SidenavHeaderModule&#45;&gt;CompareModule -->
<g id="edge3" class="edge">
<title>SidenavHeaderModule&#45;&gt;CompareModule</title>
<path fill="none" stroke="black" d="M330.45,-122.11C330.45,-122.11 330.45,-140.99 330.45,-140.99"/>
<polygon fill="black" stroke="black" points="326.95,-140.99 330.45,-150.99 333.95,-140.99 326.95,-140.99"/>
</g>
<!-- SidenavModule -->
<g id="node5" class="node">
<title>SidenavModule</title>
<polygon fill="#8dd3c7" stroke="black" points="284.15,-122 281.15,-126 260.15,-126 257.15,-122 179.85,-122 179.85,-86 284.15,-86 284.15,-122"/>
<text text-anchor="middle" x="232" y="-99.8" font-family="Times,serif" font-size="14.00">SidenavModule</text>
</g>
<!-- SidenavModule&#45;&gt;CompareModule -->
<g id="edge4" class="edge">
<title>SidenavModule&#45;&gt;CompareModule</title>
<path fill="none" stroke="black" d="M265.95,-122.11C265.95,-122.11 265.95,-140.99 265.95,-140.99"/>
<polygon fill="black" stroke="black" points="262.45,-140.99 265.95,-150.99 269.45,-140.99 262.45,-140.99"/>
</g>
</g>
</svg>
