<?xml version="1.0" encoding="UTF-8" standalone="no"?>
<!DOCTYPE svg PUBLIC "-//W3C//DTD SVG 1.1//EN"
 "http://www.w3.org/Graphics/SVG/1.1/DTD/svg11.dtd">
<!-- Generated by graphviz version 2.47.0 (20210316.0004)
 -->
<!-- Title: dependencies Pages: 1 -->
<svg width="531pt" height="211pt"
 viewBox="0.00 0.00 531.00 211.00" xmlns="http://www.w3.org/2000/svg" xmlns:xlink="http://www.w3.org/1999/xlink">
<g id="graph0" class="graph" transform="scale(1 1) rotate(0) translate(4 207)">
<title>dependencies</title>
<polygon fill="white" stroke="transparent" points="-4,4 -4,-207 527,-207 527,4 -4,4"/>
<text text-anchor="start" x="240.51" y="-42.4" font-family="Times-12" font-weight="bold" font-size="14.00">Legend</text>
<polygon fill="#ffffb3" stroke="transparent" points="27.5,-10 27.5,-30 47.5,-30 47.5,-10 27.5,-10"/>
<text text-anchor="start" x="51.13" y="-15.4" font-family="Times-12" font-size="14.00"> &#160;Declarations</text>
<polygon fill="#8dd3c7" stroke="transparent" points="140.5,-10 140.5,-30 160.5,-30 160.5,-10 140.5,-10"/>
<text text-anchor="start" x="164.23" y="-15.4" font-family="Times-12" font-size="14.00"> &#160;Module</text>
<polygon fill="#80b1d3" stroke="transparent" points="226.5,-10 226.5,-30 246.5,-30 246.5,-10 226.5,-10"/>
<text text-anchor="start" x="250.28" y="-15.4" font-family="Times-12" font-size="14.00"> &#160;Bootstrap</text>
<polygon fill="#fdb462" stroke="transparent" points="323.5,-10 323.5,-30 343.5,-30 343.5,-10 323.5,-10"/>
<text text-anchor="start" x="347.17" y="-15.4" font-family="Times-12" font-size="14.00"> &#160;Providers</text>
<polygon fill="#fb8072" stroke="transparent" points="419.5,-10 419.5,-30 439.5,-30 439.5,-10 419.5,-10"/>
<text text-anchor="start" x="443.23" y="-15.4" font-family="Times-12" font-size="14.00"> &#160;Exports</text>
<g id="clust1" class="cluster">
<title>cluster_TissueInfoPageModule</title>
<polygon fill="none" stroke="black" stroke-dasharray="1,5" points="8,-70 8,-195 515,-195 515,-70 8,-70"/>
</g>
<g id="clust2" class="cluster">
<title>cluster_TissueInfoPageModule_declarations</title>
<polygon fill="none" stroke="black" points="323,-78 323,-130 507,-130 507,-78 323,-78"/>
</g>
<g id="clust4" class="cluster">
<title>cluster_TissueInfoPageModule_imports</title>
<polygon fill="none" stroke="black" points="16,-78 16,-130 315,-130 315,-78 16,-78"/>
</g>
<!-- TissueInfoPageComponent -->
<g id="node1" class="node">
<title>TissueInfoPageComponent</title>
<polygon fill="#ffffb3" stroke="black" points="499.41,-122 330.59,-122 330.59,-86 499.41,-86 499.41,-122"/>
<text text-anchor="middle" x="415" y="-99.8" font-family="Times,serif" font-size="14.00">TissueInfoPageComponent</text>
</g>
<!-- TissueInfoPageModule -->
<g id="node2" class="node">
<title>TissueInfoPageModule</title>
<polygon fill="#8dd3c7" stroke="black" points="323.13,-187 320.13,-191 299.13,-191 296.13,-187 176.87,-187 176.87,-151 323.13,-151 323.13,-187"/>
<text text-anchor="middle" x="250" y="-164.8" font-family="Times,serif" font-size="14.00">TissueInfoPageModule</text>
</g>
<!-- TissueInfoPageComponent&#45;&gt;TissueInfoPageModule -->
<g id="edge1" class="edge">
<title>TissueInfoPageComponent&#45;&gt;TissueInfoPageModule</title>
<path fill="none" stroke="black" d="M330.59,-104C321.21,-104 314.95,-104 314.95,-104 314.95,-104 314.95,-140.89 314.95,-140.89"/>
<polygon fill="black" stroke="black" points="311.45,-140.89 314.95,-150.89 318.45,-140.89 311.45,-140.89"/>
</g>
<!-- PageDataModule -->
<g id="node3" class="node">
<title>PageDataModule</title>
<polygon fill="#8dd3c7" stroke="black" points="306.69,-122 303.69,-126 282.69,-126 279.69,-122 193.31,-122 193.31,-86 306.69,-86 306.69,-122"/>
<text text-anchor="middle" x="250" y="-99.8" font-family="Times,serif" font-size="14.00">PageDataModule</text>
</g>
<!-- PageDataModule&#45;&gt;TissueInfoPageModule -->
<g id="edge2" class="edge">
<title>PageDataModule&#45;&gt;TissueInfoPageModule</title>
<path fill="none" stroke="black" d="M250,-122.11C250,-122.11 250,-140.99 250,-140.99"/>
<polygon fill="black" stroke="black" points="246.5,-140.99 250,-150.99 253.5,-140.99 246.5,-140.99"/>
</g>
<!-- TissueInfoTableModule -->
<g id="node4" class="node">
<title>TissueInfoTableModule</title>
<polygon fill="#8dd3c7" stroke="black" points="175.79,-122 172.79,-126 151.79,-126 148.79,-122 24.21,-122 24.21,-86 175.79,-86 175.79,-122"/>
<text text-anchor="middle" x="100" y="-99.8" font-family="Times,serif" font-size="14.00">TissueInfoTableModule</text>
</g>
<!-- TissueInfoTableModule&#45;&gt;TissueInfoPageModule -->
<g id="edge3" class="edge">
<title>TissueInfoTableModule&#45;&gt;TissueInfoPageModule</title>
<path fill="none" stroke="black" d="M175.94,-104C181.54,-104 185.05,-104 185.05,-104 185.05,-104 185.05,-140.89 185.05,-140.89"/>
<polygon fill="black" stroke="black" points="181.55,-140.89 185.05,-150.89 188.55,-140.89 181.55,-140.89"/>
</g>
</g>
</svg>
