<?xml version="1.0" encoding="UTF-8" standalone="no"?>
<!DOCTYPE svg PUBLIC "-//W3C//DTD SVG 1.1//EN"
 "http://www.w3.org/Graphics/SVG/1.1/DTD/svg11.dtd">
<!-- Generated by graphviz version 2.47.0 (20210316.0004)
 -->
<!-- Title: dependencies Pages: 1 -->
<svg width="531pt" height="211pt"
 viewBox="0.00 0.00 531.00 211.00" xmlns="http://www.w3.org/2000/svg" xmlns:xlink="http://www.w3.org/1999/xlink">
<g id="graph0" class="graph" transform="scale(1 1) rotate(0) translate(4 207)">
<title>dependencies</title>
<polygon fill="white" stroke="transparent" points="-4,4 -4,-207 527,-207 527,4 -4,4"/>
<text text-anchor="start" x="240.51" y="-42.4" font-family="Times-12" font-weight="bold" font-size="14.00">Legend</text>
<polygon fill="#ffffb3" stroke="transparent" points="27.5,-10 27.5,-30 47.5,-30 47.5,-10 27.5,-10"/>
<text text-anchor="start" x="51.13" y="-15.4" font-family="Times-12" font-size="14.00"> &#160;Declarations</text>
<polygon fill="#8dd3c7" stroke="transparent" points="140.5,-10 140.5,-30 160.5,-30 160.5,-10 140.5,-10"/>
<text text-anchor="start" x="164.23" y="-15.4" font-family="Times-12" font-size="14.00"> &#160;Module</text>
<polygon fill="#80b1d3" stroke="transparent" points="226.5,-10 226.5,-30 246.5,-30 246.5,-10 226.5,-10"/>
<text text-anchor="start" x="250.28" y="-15.4" font-family="Times-12" font-size="14.00"> &#160;Bootstrap</text>
<polygon fill="#fdb462" stroke="transparent" points="323.5,-10 323.5,-30 343.5,-30 343.5,-10 323.5,-10"/>
<text text-anchor="start" x="347.17" y="-15.4" font-family="Times-12" font-size="14.00"> &#160;Providers</text>
<polygon fill="#fb8072" stroke="transparent" points="419.5,-10 419.5,-30 439.5,-30 439.5,-10 419.5,-10"/>
<text text-anchor="start" x="443.23" y="-15.4" font-family="Times-12" font-size="14.00"> &#160;Exports</text>
<g id="clust1" class="cluster">
<title>cluster_TissueInfoPageModule</title>
<polygon fill="none" stroke="black" stroke-dasharray="1,5" points="8,-70 8,-195 515,-195 515,-70 8,-70"/>
</g>
<g id="clust4" class="cluster">
<title>cluster_TissueInfoPageModule_imports</title>
<polygon fill="none" stroke="black" points="208,-78 208,-130 507,-130 507,-78 208,-78"/>
</g>
<g id="clust2" class="cluster">
<title>cluster_TissueInfoPageModule_declarations</title>
<polygon fill="none" stroke="black" points="16,-78 16,-130 200,-130 200,-78 16,-78"/>
</g>
<!-- TissueInfoPageComponent -->
<g id="node1" class="node">
<title>TissueInfoPageComponent</title>
<polygon fill="#ffffb3" stroke="black" points="192.41,-122 23.59,-122 23.59,-86 192.41,-86 192.41,-122"/>
<text text-anchor="middle" x="108" y="-99.8" font-family="Times,serif" font-size="14.00">TissueInfoPageComponent</text>
</g>
<!-- TissueInfoPageModule -->
<g id="node2" class="node">
<title>TissueInfoPageModule</title>
<polygon fill="#8dd3c7" stroke="black" points="365.13,-187 362.13,-191 341.13,-191 338.13,-187 218.87,-187 218.87,-151 365.13,-151 365.13,-187"/>
<text text-anchor="middle" x="292" y="-164.8" font-family="Times,serif" font-size="14.00">TissueInfoPageModule</text>
</g>
<!-- TissueInfoPageComponent&#45;&gt;TissueInfoPageModule -->
<g id="edge1" class="edge">
<title>TissueInfoPageComponent&#45;&gt;TissueInfoPageModule</title>
<path fill="none" stroke="black" d="M108,-122.11C108,-141.34 108,-169 108,-169 108,-169 208.75,-169 208.75,-169"/>
<polygon fill="black" stroke="black" points="208.75,-172.5 218.75,-169 208.75,-165.5 208.75,-172.5"/>
</g>
<!-- PageDataModule -->
<g id="node3" class="node">
<title>PageDataModule</title>
<polygon fill="#8dd3c7" stroke="black" points="498.69,-122 495.69,-126 474.69,-126 471.69,-122 385.31,-122 385.31,-86 498.69,-86 498.69,-122"/>
<text text-anchor="middle" x="442" y="-99.8" font-family="Times,serif" font-size="14.00">PageDataModule</text>
</g>
<!-- PageDataModule&#45;&gt;TissueInfoPageModule -->
<g id="edge2" class="edge">
<title>PageDataModule&#45;&gt;TissueInfoPageModule</title>
<path fill="none" stroke="black" d="M442,-122.11C442,-141.34 442,-169 442,-169 442,-169 375.24,-169 375.24,-169"/>
<polygon fill="black" stroke="black" points="375.24,-165.5 365.24,-169 375.24,-172.5 375.24,-165.5"/>
</g>
<!-- TissueInfoTableModule -->
<g id="node4" class="node">
<title>TissueInfoTableModule</title>
<polygon fill="#8dd3c7" stroke="black" points="367.79,-122 364.79,-126 343.79,-126 340.79,-122 216.21,-122 216.21,-86 367.79,-86 367.79,-122"/>
<text text-anchor="middle" x="292" y="-99.8" font-family="Times,serif" font-size="14.00">TissueInfoTableModule</text>
</g>
<!-- TissueInfoTableModule&#45;&gt;TissueInfoPageModule -->
<g id="edge3" class="edge">
<title>TissueInfoTableModule&#45;&gt;TissueInfoPageModule</title>
<path fill="none" stroke="black" d="M292,-122.11C292,-122.11 292,-140.99 292,-140.99"/>
<polygon fill="black" stroke="black" points="288.5,-140.99 292,-150.99 295.5,-140.99 288.5,-140.99"/>
</g>
</g>
</svg>
