<?xml version="1.0" encoding="UTF-8" standalone="no"?>
<!DOCTYPE svg PUBLIC "-//W3C//DTD SVG 1.1//EN"
 "http://www.w3.org/Graphics/SVG/1.1/DTD/svg11.dtd">
<!-- Generated by graphviz version 2.47.0 (20210316.0004)
 -->
<!-- Title: dependencies Pages: 1 -->
<svg width="504pt" height="284pt"
 viewBox="0.00 0.00 504.00 284.00" xmlns="http://www.w3.org/2000/svg" xmlns:xlink="http://www.w3.org/1999/xlink">
<g id="graph0" class="graph" transform="scale(1 1) rotate(0) translate(4 280)">
<title>dependencies</title>
<polygon fill="white" stroke="transparent" points="-4,4 -4,-280 500,-280 500,4 -4,4"/>
<text text-anchor="start" x="227.01" y="-42.4" font-family="Times-12" font-weight="bold" font-size="14.00">Legend</text>
<polygon fill="#ffffb3" stroke="transparent" points="14,-10 14,-30 34,-30 34,-10 14,-10"/>
<text text-anchor="start" x="37.63" y="-15.4" font-family="Times-12" font-size="14.00"> &#160;Declarations</text>
<polygon fill="#8dd3c7" stroke="transparent" points="127,-10 127,-30 147,-30 147,-10 127,-10"/>
<text text-anchor="start" x="150.73" y="-15.4" font-family="Times-12" font-size="14.00"> &#160;Module</text>
<polygon fill="#80b1d3" stroke="transparent" points="213,-10 213,-30 233,-30 233,-10 213,-10"/>
<text text-anchor="start" x="236.78" y="-15.4" font-family="Times-12" font-size="14.00"> &#160;Bootstrap</text>
<polygon fill="#fdb462" stroke="transparent" points="310,-10 310,-30 330,-30 330,-10 310,-10"/>
<text text-anchor="start" x="333.67" y="-15.4" font-family="Times-12" font-size="14.00"> &#160;Providers</text>
<polygon fill="#fb8072" stroke="transparent" points="406,-10 406,-30 426,-30 426,-10 406,-10"/>
<text text-anchor="start" x="429.73" y="-15.4" font-family="Times-12" font-size="14.00"> &#160;Exports</text>
<g id="clust1" class="cluster">
<title>cluster_TableVersionModule</title>
<polygon fill="none" stroke="black" stroke-dasharray="1,5" points="13,-70 13,-268 483,-268 483,-70 13,-70"/>
</g>
<g id="clust4" class="cluster">
<title>cluster_TableVersionModule_imports</title>
<polygon fill="none" stroke="black" points="203,-78 203,-130 475,-130 475,-78 203,-78"/>
</g>
<g id="clust2" class="cluster">
<title>cluster_TableVersionModule_declarations</title>
<polygon fill="none" stroke="black" points="21,-78 21,-130 195,-130 195,-78 21,-78"/>
</g>
<g id="clust5" class="cluster">
<title>cluster_TableVersionModule_exports</title>
<polygon fill="none" stroke="black" points="168,-208 168,-260 346,-260 346,-208 168,-208"/>
</g>
<!-- TableVersionComponent -->
<g id="node1" class="node">
<title>TableVersionComponent</title>
<polygon fill="#ffffb3" stroke="black" points="186.52,-122 29.48,-122 29.48,-86 186.52,-86 186.52,-122"/>
<text text-anchor="middle" x="108" y="-99.8" font-family="Times,serif" font-size="14.00">TableVersionComponent</text>
</g>
<!-- TableVersionModule -->
<g id="node2" class="node">
<title>TableVersionModule</title>
<polygon fill="#8dd3c7" stroke="black" points="324.74,-187 321.74,-191 300.74,-191 297.74,-187 189.26,-187 189.26,-151 324.74,-151 324.74,-187"/>
<text text-anchor="middle" x="257" y="-164.8" font-family="Times,serif" font-size="14.00">TableVersionModule</text>
</g>
<!-- TableVersionComponent&#45;&gt;TableVersionModule -->
<g id="edge1" class="edge">
<title>TableVersionComponent&#45;&gt;TableVersionModule</title>
<path fill="none" stroke="black" d="M181.62,-122.11C181.62,-141.34 181.62,-169 181.62,-169 181.62,-169 182.38,-169 182.38,-169"/>
<polygon fill="black" stroke="black" points="179.13,-172.5 189.13,-169 179.13,-165.5 179.13,-172.5"/>
</g>
<!-- TableVersionComponent  -->
<g id="node5" class="node">
<title>TableVersionComponent </title>
<polygon fill="#fb8072" stroke="black" points="337.52,-252 176.48,-252 176.48,-216 337.52,-216 337.52,-252"/>
<text text-anchor="middle" x="257" y="-229.8" font-family="Times,serif" font-size="14.00">TableVersionComponent </text>
</g>
<!-- TableVersionModule&#45;&gt;TableVersionComponent  -->
<g id="edge4" class="edge">
<title>TableVersionModule&#45;&gt;TableVersionComponent </title>
<path fill="none" stroke="black" stroke-dasharray="5,2" d="M257,-187.11C257,-187.11 257,-205.99 257,-205.99"/>
<polygon fill="black" stroke="black" points="253.5,-205.99 257,-215.99 260.5,-205.99 253.5,-205.99"/>
</g>
<!-- ChooseVersionModule -->
<g id="node3" class="node">
<title>ChooseVersionModule</title>
<polygon fill="#8dd3c7" stroke="black" points="466.86,-122 463.86,-126 442.86,-126 439.86,-122 321.14,-122 321.14,-86 466.86,-86 466.86,-122"/>
<text text-anchor="middle" x="394" y="-99.8" font-family="Times,serif" font-size="14.00">ChooseVersionModule</text>
</g>
<!-- ChooseVersionModule&#45;&gt;TableVersionModule -->
<g id="edge2" class="edge">
<title>ChooseVersionModule&#45;&gt;TableVersionModule</title>
<path fill="none" stroke="black" d="M331.19,-122.11C331.19,-141.34 331.19,-169 331.19,-169 331.19,-169 330.56,-169 330.56,-169"/>
<polygon fill="black" stroke="black" points="334.86,-165.5 324.86,-169 334.86,-172.5 334.86,-165.5"/>
</g>
<!-- TableModule -->
<g id="node4" class="node">
<title>TableModule</title>
<polygon fill="#8dd3c7" stroke="black" points="302.92,-122 299.92,-126 278.92,-126 275.92,-122 211.08,-122 211.08,-86 302.92,-86 302.92,-122"/>
<text text-anchor="middle" x="257" y="-99.8" font-family="Times,serif" font-size="14.00">TableModule</text>
</g>
<!-- TableModule&#45;&gt;TableVersionModule -->
<g id="edge3" class="edge">
<title>TableModule&#45;&gt;TableVersionModule</title>
<path fill="none" stroke="black" d="M257,-122.11C257,-122.11 257,-140.99 257,-140.99"/>
<polygon fill="black" stroke="black" points="253.5,-140.99 257,-150.99 260.5,-140.99 253.5,-140.99"/>
</g>
</g>
</svg>
