<svg width="55" height="55" viewBox="0 0 55 55" fill="none" xmlns="http://www.w3.org/2000/svg">
<g clip-path="url(#clip0_1116_9732)">
<path d="M31.35 13.5483C31.3703 13.0103 31.5281 12.4865 31.8083 12.0267C32.0117 11.6656 32.3113 11.3681 32.6739 11.1674C33.0365 10.9667 33.4477 10.8707 33.8616 10.89C34.6217 10.9058 35.3557 11.1698 35.9516 11.6417C36.4334 12.0105 36.8813 12.4216 37.29 12.87C38.9704 14.5507 40.4811 16.3929 41.8 18.37C43.4182 20.8144 44.8522 23.376 46.09 26.0333C47.5964 29.3066 48.6096 32.7849 49.0966 36.355C49.94 42.4417 49.4633 45.925 47.7216 46.8234C45.4666 47.9967 36.63 47.2084 32.5416 44.4767C32.0704 44.1629 31.7209 43.697 31.5516 43.1567C31.4367 42.7378 31.369 42.3073 31.35 41.8734V13.5483Z" fill="currentColor"/>
<path d="M29.3333 19.14C28.2722 18.7878 27.348 18.1122 26.6904 17.208C26.0328 16.3038 25.6748 15.2164 25.6666 14.0984V5.62836H22V14.0984C21.9956 15.2195 21.6394 16.311 20.9815 17.2189C20.3237 18.1267 19.3974 18.8051 18.3333 19.1584V22.2017H29.3333V19.14Z" fill="currentColor"/>
</g>
<defs>
<clipPath id="clip0_1116_9732">
<rect width="55" height="55" fill="currentColor"/>
</clipPath>
</defs>
</svg>
