<?xml version="1.0" encoding="UTF-8" standalone="no"?>
<!DOCTYPE svg PUBLIC "-//W3C//DTD SVG 1.1//EN"
 "http://www.w3.org/Graphics/SVG/1.1/DTD/svg11.dtd">
<!-- Generated by graphviz version 2.47.0 (20210316.0004)
 -->
<!-- Title: dependencies Pages: 1 -->
<svg width="874pt" height="284pt"
 viewBox="0.00 0.00 874.00 284.00" xmlns="http://www.w3.org/2000/svg" xmlns:xlink="http://www.w3.org/1999/xlink">
<g id="graph0" class="graph" transform="scale(1 1) rotate(0) translate(4 280)">
<title>dependencies</title>
<polygon fill="white" stroke="transparent" points="-4,4 -4,-280 870,-280 870,4 -4,4"/>
<text text-anchor="start" x="412.01" y="-42.4" font-family="Times-12" font-weight="bold" font-size="14.00">Legend</text>
<polygon fill="#ffffb3" stroke="transparent" points="199,-10 199,-30 219,-30 219,-10 199,-10"/>
<text text-anchor="start" x="222.63" y="-15.4" font-family="Times-12" font-size="14.00"> &#160;Declarations</text>
<polygon fill="#8dd3c7" stroke="transparent" points="312,-10 312,-30 332,-30 332,-10 312,-10"/>
<text text-anchor="start" x="335.73" y="-15.4" font-family="Times-12" font-size="14.00"> &#160;Module</text>
<polygon fill="#80b1d3" stroke="transparent" points="398,-10 398,-30 418,-30 418,-10 398,-10"/>
<text text-anchor="start" x="421.78" y="-15.4" font-family="Times-12" font-size="14.00"> &#160;Bootstrap</text>
<polygon fill="#fdb462" stroke="transparent" points="495,-10 495,-30 515,-30 515,-10 495,-10"/>
<text text-anchor="start" x="518.67" y="-15.4" font-family="Times-12" font-size="14.00"> &#160;Providers</text>
<polygon fill="#fb8072" stroke="transparent" points="591,-10 591,-30 611,-30 611,-10 591,-10"/>
<text text-anchor="start" x="614.73" y="-15.4" font-family="Times-12" font-size="14.00"> &#160;Exports</text>
<g id="clust1" class="cluster">
<title>cluster_ControlPaneModule</title>
<polygon fill="none" stroke="black" stroke-dasharray="1,5" points="8,-70 8,-268 858,-268 858,-70 8,-70"/>
</g>
<g id="clust5" class="cluster">
<title>cluster_ControlPaneModule_exports</title>
<polygon fill="none" stroke="black" points="335,-208 335,-260 505,-260 505,-208 335,-208"/>
</g>
<g id="clust2" class="cluster">
<title>cluster_ControlPaneModule_declarations</title>
<polygon fill="none" stroke="black" points="682,-78 682,-130 850,-130 850,-78 682,-78"/>
</g>
<g id="clust4" class="cluster">
<title>cluster_ControlPaneModule_imports</title>
<polygon fill="none" stroke="black" points="16,-78 16,-130 674,-130 674,-78 16,-78"/>
</g>
<!-- ControlPaneComponent -->
<g id="node1" class="node">
<title>ControlPaneComponent</title>
<polygon fill="#ffffb3" stroke="black" points="841.82,-122 690.18,-122 690.18,-86 841.82,-86 841.82,-122"/>
<text text-anchor="middle" x="766" y="-99.8" font-family="Times,serif" font-size="14.00">ControlPaneComponent</text>
</g>
<!-- ControlPaneModule -->
<g id="node2" class="node">
<title>ControlPaneModule</title>
<polygon fill="#8dd3c7" stroke="black" points="484.54,-187 481.54,-191 460.54,-191 457.54,-187 355.46,-187 355.46,-151 484.54,-151 484.54,-187"/>
<text text-anchor="middle" x="420" y="-164.8" font-family="Times,serif" font-size="14.00">ControlPaneModule</text>
</g>
<!-- ControlPaneComponent&#45;&gt;ControlPaneModule -->
<g id="edge1" class="edge">
<title>ControlPaneComponent&#45;&gt;ControlPaneModule</title>
<path fill="none" stroke="black" d="M766,-122.28C766,-143.32 766,-175 766,-175 766,-175 494.67,-175 494.67,-175"/>
<polygon fill="black" stroke="black" points="494.67,-171.5 484.67,-175 494.67,-178.5 494.67,-171.5"/>
</g>
<!-- ControlPaneComponent  -->
<g id="node8" class="node">
<title>ControlPaneComponent </title>
<polygon fill="#fb8072" stroke="black" points="497.32,-252 342.68,-252 342.68,-216 497.32,-216 497.32,-252"/>
<text text-anchor="middle" x="420" y="-229.8" font-family="Times,serif" font-size="14.00">ControlPaneComponent </text>
</g>
<!-- ControlPaneModule&#45;&gt;ControlPaneComponent  -->
<g id="edge7" class="edge">
<title>ControlPaneModule&#45;&gt;ControlPaneComponent </title>
<path fill="none" stroke="black" stroke-dasharray="5,2" d="M420,-187.11C420,-187.11 420,-205.99 420,-205.99"/>
<polygon fill="black" stroke="black" points="416.5,-205.99 420,-215.99 423.5,-205.99 416.5,-205.99"/>
</g>
<!-- ControlsModule -->
<g id="node3" class="node">
<title>ControlsModule</title>
<polygon fill="#8dd3c7" stroke="black" points="665.77,-122 662.77,-126 641.77,-126 638.77,-122 558.23,-122 558.23,-86 665.77,-86 665.77,-122"/>
<text text-anchor="middle" x="612" y="-99.8" font-family="Times,serif" font-size="14.00">ControlsModule</text>
</g>
<!-- ControlsModule&#45;&gt;ControlPaneModule -->
<g id="edge2" class="edge">
<title>ControlsModule&#45;&gt;ControlPaneModule</title>
<path fill="none" stroke="black" d="M612,-122.02C612,-139.37 612,-163 612,-163 612,-163 494.73,-163 494.73,-163"/>
<polygon fill="black" stroke="black" points="494.73,-159.5 484.73,-163 494.73,-166.5 494.73,-159.5"/>
</g>
<!-- FunctionsModule -->
<g id="node4" class="node">
<title>FunctionsModule</title>
<polygon fill="#8dd3c7" stroke="black" points="540.27,-122 537.27,-126 516.27,-126 513.27,-122 425.73,-122 425.73,-86 540.27,-86 540.27,-122"/>
<text text-anchor="middle" x="483" y="-99.8" font-family="Times,serif" font-size="14.00">FunctionsModule</text>
</g>
<!-- FunctionsModule&#45;&gt;ControlPaneModule -->
<g id="edge3" class="edge">
<title>FunctionsModule&#45;&gt;ControlPaneModule</title>
<path fill="none" stroke="black" d="M455.19,-122.11C455.19,-122.11 455.19,-140.99 455.19,-140.99"/>
<polygon fill="black" stroke="black" points="451.69,-140.99 455.19,-150.99 458.69,-140.99 451.69,-140.99"/>
</g>
<!-- LegendModule -->
<g id="node5" class="node">
<title>LegendModule</title>
<polygon fill="#8dd3c7" stroke="black" points="407.53,-122 404.53,-126 383.53,-126 380.53,-122 306.47,-122 306.47,-86 407.53,-86 407.53,-122"/>
<text text-anchor="middle" x="357" y="-99.8" font-family="Times,serif" font-size="14.00">LegendModule</text>
</g>
<!-- LegendModule&#45;&gt;ControlPaneModule -->
<g id="edge4" class="edge">
<title>LegendModule&#45;&gt;ControlPaneModule</title>
<path fill="none" stroke="black" d="M381.5,-122.11C381.5,-122.11 381.5,-140.99 381.5,-140.99"/>
<polygon fill="black" stroke="black" points="378,-140.99 381.5,-150.99 385,-140.99 378,-140.99"/>
</g>
<!-- OmapControlsModule -->
<g id="node6" class="node">
<title>OmapControlsModule</title>
<polygon fill="#8dd3c7" stroke="black" points="287.98,-122 284.98,-126 263.98,-126 260.98,-122 146.02,-122 146.02,-86 287.98,-86 287.98,-122"/>
<text text-anchor="middle" x="217" y="-99.8" font-family="Times,serif" font-size="14.00">OmapControlsModule</text>
</g>
<!-- OmapControlsModule&#45;&gt;ControlPaneModule -->
<g id="edge5" class="edge">
<title>OmapControlsModule&#45;&gt;ControlPaneModule</title>
<path fill="none" stroke="black" d="M217,-122.02C217,-139.37 217,-163 217,-163 217,-163 345.21,-163 345.21,-163"/>
<polygon fill="black" stroke="black" points="345.21,-166.5 355.21,-163 345.21,-159.5 345.21,-166.5"/>
</g>
<!-- SidenavModule -->
<g id="node7" class="node">
<title>SidenavModule</title>
<polygon fill="#8dd3c7" stroke="black" points="128.15,-122 125.15,-126 104.15,-126 101.15,-122 23.85,-122 23.85,-86 128.15,-86 128.15,-122"/>
<text text-anchor="middle" x="76" y="-99.8" font-family="Times,serif" font-size="14.00">SidenavModule</text>
</g>
<!-- SidenavModule&#45;&gt;ControlPaneModule -->
<g id="edge6" class="edge">
<title>SidenavModule&#45;&gt;ControlPaneModule</title>
<path fill="none" stroke="black" d="M76,-122.28C76,-143.32 76,-175 76,-175 76,-175 345.3,-175 345.3,-175"/>
<polygon fill="black" stroke="black" points="345.3,-178.5 355.3,-175 345.3,-171.5 345.3,-178.5"/>
</g>
</g>
</svg>
