<?xml version="1.0" encoding="UTF-8" standalone="no"?>
<!DOCTYPE svg PUBLIC "-//W3C//DTD SVG 1.1//EN"
 "http://www.w3.org/Graphics/SVG/1.1/DTD/svg11.dtd">
<!-- Generated by graphviz version 2.47.0 (20210316.0004)
 -->
<!-- Title: dependencies Pages: 1 -->
<svg width="874pt" height="284pt"
 viewBox="0.00 0.00 874.00 284.00" xmlns="http://www.w3.org/2000/svg" xmlns:xlink="http://www.w3.org/1999/xlink">
<g id="graph0" class="graph" transform="scale(1 1) rotate(0) translate(4 280)">
<title>dependencies</title>
<polygon fill="white" stroke="transparent" points="-4,4 -4,-280 870,-280 870,4 -4,4"/>
<text text-anchor="start" x="412.01" y="-42.4" font-family="Times-12" font-weight="bold" font-size="14.00">Legend</text>
<polygon fill="#ffffb3" stroke="transparent" points="199,-10 199,-30 219,-30 219,-10 199,-10"/>
<text text-anchor="start" x="222.63" y="-15.4" font-family="Times-12" font-size="14.00"> &#160;Declarations</text>
<polygon fill="#8dd3c7" stroke="transparent" points="312,-10 312,-30 332,-30 332,-10 312,-10"/>
<text text-anchor="start" x="335.73" y="-15.4" font-family="Times-12" font-size="14.00"> &#160;Module</text>
<polygon fill="#80b1d3" stroke="transparent" points="398,-10 398,-30 418,-30 418,-10 398,-10"/>
<text text-anchor="start" x="421.78" y="-15.4" font-family="Times-12" font-size="14.00"> &#160;Bootstrap</text>
<polygon fill="#fdb462" stroke="transparent" points="495,-10 495,-30 515,-30 515,-10 495,-10"/>
<text text-anchor="start" x="518.67" y="-15.4" font-family="Times-12" font-size="14.00"> &#160;Providers</text>
<polygon fill="#fb8072" stroke="transparent" points="591,-10 591,-30 611,-30 611,-10 591,-10"/>
<text text-anchor="start" x="614.73" y="-15.4" font-family="Times-12" font-size="14.00"> &#160;Exports</text>
<g id="clust1" class="cluster">
<title>cluster_ControlPaneModule</title>
<polygon fill="none" stroke="black" stroke-dasharray="1,5" points="8,-70 8,-268 858,-268 858,-70 8,-70"/>
</g>
<g id="clust4" class="cluster">
<title>cluster_ControlPaneModule_imports</title>
<polygon fill="none" stroke="black" points="192,-78 192,-130 850,-130 850,-78 192,-78"/>
</g>
<g id="clust2" class="cluster">
<title>cluster_ControlPaneModule_declarations</title>
<polygon fill="none" stroke="black" points="16,-78 16,-130 184,-130 184,-78 16,-78"/>
</g>
<g id="clust5" class="cluster">
<title>cluster_ControlPaneModule_exports</title>
<polygon fill="none" stroke="black" points="378,-208 378,-260 548,-260 548,-208 378,-208"/>
</g>
<!-- ControlPaneComponent -->
<g id="node1" class="node">
<title>ControlPaneComponent</title>
<polygon fill="#ffffb3" stroke="black" points="175.82,-122 24.18,-122 24.18,-86 175.82,-86 175.82,-122"/>
<text text-anchor="middle" x="100" y="-99.8" font-family="Times,serif" font-size="14.00">ControlPaneComponent</text>
</g>
<!-- ControlPaneModule -->
<g id="node2" class="node">
<title>ControlPaneModule</title>
<polygon fill="#8dd3c7" stroke="black" points="527.54,-187 524.54,-191 503.54,-191 500.54,-187 398.46,-187 398.46,-151 527.54,-151 527.54,-187"/>
<text text-anchor="middle" x="463" y="-164.8" font-family="Times,serif" font-size="14.00">ControlPaneModule</text>
</g>
<!-- ControlPaneComponent&#45;&gt;ControlPaneModule -->
<g id="edge1" class="edge">
<title>ControlPaneComponent&#45;&gt;ControlPaneModule</title>
<path fill="none" stroke="black" d="M100,-122.28C100,-143.32 100,-175 100,-175 100,-175 388.1,-175 388.1,-175"/>
<polygon fill="black" stroke="black" points="388.1,-178.5 398.1,-175 388.1,-171.5 388.1,-178.5"/>
</g>
<!-- ControlPaneComponent  -->
<g id="node8" class="node">
<title>ControlPaneComponent </title>
<polygon fill="#fb8072" stroke="black" points="540.32,-252 385.68,-252 385.68,-216 540.32,-216 540.32,-252"/>
<text text-anchor="middle" x="463" y="-229.8" font-family="Times,serif" font-size="14.00">ControlPaneComponent </text>
</g>
<!-- ControlPaneModule&#45;&gt;ControlPaneComponent  -->
<g id="edge7" class="edge">
<title>ControlPaneModule&#45;&gt;ControlPaneComponent </title>
<path fill="none" stroke="black" stroke-dasharray="5,2" d="M463,-187.11C463,-187.11 463,-205.99 463,-205.99"/>
<polygon fill="black" stroke="black" points="459.5,-205.99 463,-215.99 466.5,-205.99 459.5,-205.99"/>
</g>
<!-- ControlsModule -->
<g id="node3" class="node">
<title>ControlsModule</title>
<polygon fill="#8dd3c7" stroke="black" points="841.77,-122 838.77,-126 817.77,-126 814.77,-122 734.23,-122 734.23,-86 841.77,-86 841.77,-122"/>
<text text-anchor="middle" x="788" y="-99.8" font-family="Times,serif" font-size="14.00">ControlsModule</text>
</g>
<!-- ControlsModule&#45;&gt;ControlPaneModule -->
<g id="edge2" class="edge">
<title>ControlsModule&#45;&gt;ControlPaneModule</title>
<path fill="none" stroke="black" d="M788,-122.28C788,-143.32 788,-175 788,-175 788,-175 537.6,-175 537.6,-175"/>
<polygon fill="black" stroke="black" points="537.6,-171.5 527.6,-175 537.6,-178.5 537.6,-171.5"/>
</g>
<!-- FunctionsModule -->
<g id="node4" class="node">
<title>FunctionsModule</title>
<polygon fill="#8dd3c7" stroke="black" points="716.27,-122 713.27,-126 692.27,-126 689.27,-122 601.73,-122 601.73,-86 716.27,-86 716.27,-122"/>
<text text-anchor="middle" x="659" y="-99.8" font-family="Times,serif" font-size="14.00">FunctionsModule</text>
</g>
<!-- FunctionsModule&#45;&gt;ControlPaneModule -->
<g id="edge3" class="edge">
<title>FunctionsModule&#45;&gt;ControlPaneModule</title>
<path fill="none" stroke="black" d="M659,-122.02C659,-139.37 659,-163 659,-163 659,-163 537.72,-163 537.72,-163"/>
<polygon fill="black" stroke="black" points="537.72,-159.5 527.72,-163 537.72,-166.5 537.72,-159.5"/>
</g>
<!-- LegendModule -->
<g id="node5" class="node">
<title>LegendModule</title>
<polygon fill="#8dd3c7" stroke="black" points="583.53,-122 580.53,-126 559.53,-126 556.53,-122 482.47,-122 482.47,-86 583.53,-86 583.53,-122"/>
<text text-anchor="middle" x="533" y="-99.8" font-family="Times,serif" font-size="14.00">LegendModule</text>
</g>
<!-- LegendModule&#45;&gt;ControlPaneModule -->
<g id="edge4" class="edge">
<title>LegendModule&#45;&gt;ControlPaneModule</title>
<path fill="none" stroke="black" d="M505,-122.11C505,-122.11 505,-140.99 505,-140.99"/>
<polygon fill="black" stroke="black" points="501.5,-140.99 505,-150.99 508.5,-140.99 501.5,-140.99"/>
</g>
<!-- OmapControlsModule -->
<g id="node6" class="node">
<title>OmapControlsModule</title>
<polygon fill="#8dd3c7" stroke="black" points="463.98,-122 460.98,-126 439.98,-126 436.98,-122 322.02,-122 322.02,-86 463.98,-86 463.98,-122"/>
<text text-anchor="middle" x="393" y="-99.8" font-family="Times,serif" font-size="14.00">OmapControlsModule</text>
</g>
<!-- OmapControlsModule&#45;&gt;ControlPaneModule -->
<g id="edge5" class="edge">
<title>OmapControlsModule&#45;&gt;ControlPaneModule</title>
<path fill="none" stroke="black" d="M431.11,-122.11C431.11,-122.11 431.11,-140.99 431.11,-140.99"/>
<polygon fill="black" stroke="black" points="427.61,-140.99 431.11,-150.99 434.61,-140.99 427.61,-140.99"/>
</g>
<!-- SidenavModule -->
<g id="node7" class="node">
<title>SidenavModule</title>
<polygon fill="#8dd3c7" stroke="black" points="304.15,-122 301.15,-126 280.15,-126 277.15,-122 199.85,-122 199.85,-86 304.15,-86 304.15,-122"/>
<text text-anchor="middle" x="252" y="-99.8" font-family="Times,serif" font-size="14.00">SidenavModule</text>
</g>
<!-- SidenavModule&#45;&gt;ControlPaneModule -->
<g id="edge6" class="edge">
<title>SidenavModule&#45;&gt;ControlPaneModule</title>
<path fill="none" stroke="black" d="M252,-122.02C252,-139.37 252,-163 252,-163 252,-163 388.26,-163 388.26,-163"/>
<polygon fill="black" stroke="black" points="388.26,-166.5 398.26,-163 388.26,-159.5 388.26,-166.5"/>
</g>
</g>
</svg>
