<svg width="37" height="36" viewBox="0 0 37 36" fill="none" xmlns="http://www.w3.org/2000/svg">
<g clip-path="url(#clip0_2183_9258)">
<rect x="0.199219" width="36" height="36" rx="18" fill="white"/>
<g clip-path="url(#clip1_2183_9258)">
<path d="M42.1992 18C42.1992 31.2548 31.454 42 18.1992 42C4.94442 42 -5.80078 31.2548 -5.80078 18C-5.80078 4.7452 4.94442 -6 18.1992 -6C31.454 -6 42.1992 4.7452 42.1992 18Z" fill="currentColor"/>
<path d="M14.3577 25.2V41.52C14.3577 41.7851 14.5726 42 14.8377 42H21.5577C21.8228 42 22.0377 41.7851 22.0377 41.52V25.2C22.0377 24.9349 22.2526 24.72 22.5177 24.72H27.3177C27.5828 24.72 27.7977 24.5051 27.7977 24.24V18.48C27.7977 18.2149 27.5828 18 27.3177 18H22.5177C22.2526 18 22.0377 17.7854 22.0377 17.5203V13.2C22.0377 11.28 24.4377 10.32 25.3977 10.32H28.2777C28.5428 10.32 28.7577 10.1051 28.7577 9.83998V4.07998C28.7577 3.81488 28.5429 3.59998 28.2778 3.59998H22.0377C17.4297 3.59998 14.3577 8.39998 14.3577 11.28V17.52C14.3577 17.7851 14.1428 18 13.8777 18H9.07766C8.81256 18 8.59766 18.2149 8.59766 18.48V24.24C8.59766 24.5051 8.81256 24.72 9.07766 24.72H13.8777C14.1428 24.72 14.3577 24.9349 14.3577 25.2Z" fill="white"/>
</g>
</g>
<defs>
<clipPath id="clip0_2183_9258">
<rect x="0.199219" width="36" height="36" rx="18" fill="white"/>
</clipPath>
<clipPath id="clip1_2183_9258">
<rect width="48" height="48" fill="white" transform="translate(-5.80078 -6)"/>
</clipPath>
</defs>
</svg>
