<svg width="36" height="36" viewBox="0 0 36 36" fill="none" xmlns="http://www.w3.org/2000/svg">
<g clip-path="url(#clip0_2183_9284)">
<mask id="mask0_2183_9284" style="mask-type:luminance" maskUnits="userSpaceOnUse" x="0" y="11" width="36" height="14">
<path d="M36 11.5H0V24.5H36V11.5Z" fill="white"/>
</mask>
<g mask="url(#mask0_2183_9284)">
<path d="M36.0025 20.6314H35.8952C35.2844 20.6314 34.6735 20.63 34.0627 20.6332C34.0317 20.6364 34.0006 20.6295 33.9739 20.6136C33.9472 20.5977 33.9263 20.5736 33.9143 20.5449C33.3725 19.5561 32.8296 18.5681 32.2857 17.5807C32.2733 17.552 32.2521 17.528 32.2251 17.5123C32.1981 17.4966 32.1668 17.4899 32.1358 17.4933C31.6561 17.4965 31.1764 17.4974 30.6967 17.4929C30.6018 17.492 30.572 17.515 30.5724 17.6146C30.5764 18.574 30.5748 19.5332 30.5748 20.4925V20.6258C30.5373 20.6279 30.5064 20.6311 30.4755 20.6312C29.9063 20.6312 29.3371 20.6297 28.7678 20.6332C28.6843 20.6338 28.6601 20.6127 28.6602 20.5268C28.6625 17.617 28.6631 14.7071 28.662 11.7972V11.7028C28.7032 11.7002 28.737 11.6963 28.7706 11.6963C30.0879 11.6963 31.4059 11.6932 32.7235 11.6968C33.9849 11.7003 35.1097 12.4752 35.5087 13.6165C35.9675 14.9289 35.5384 16.4516 34.1567 17.2112C34.1374 17.2219 34.1192 17.2344 34.091 17.2519C34.7253 18.373 35.3581 19.4917 36.0025 20.6309M30.5745 14.5866C30.5745 14.9349 30.5739 15.2832 30.5745 15.6315C30.5745 15.7916 30.552 15.783 30.7214 15.7831C31.2392 15.7831 31.7565 15.7842 32.2746 15.7826C32.4213 15.7821 32.5684 15.7803 32.7146 15.769C32.8758 15.7557 33.0325 15.7087 33.1743 15.6311C33.3162 15.5534 33.4402 15.4467 33.5383 15.318C33.6363 15.1893 33.7063 15.0414 33.7436 14.8839C33.7808 14.7263 33.7846 14.5628 33.7547 14.4037C33.6374 13.7952 33.1818 13.4143 32.5515 13.4092C31.9252 13.4042 31.2987 13.4092 30.6724 13.4064C30.5887 13.4061 30.5721 13.4374 30.5727 13.513C30.576 13.8708 30.5742 14.2287 30.5742 14.5866" fill="#E00D3A"/>
<path d="M28.1518 20.6313H28.0432C27.4356 20.6313 26.8281 20.6294 26.2205 20.6335C26.1881 20.6378 26.1553 20.6295 26.1289 20.6102C26.1025 20.591 26.0845 20.5623 26.0786 20.5301C25.8502 19.8931 25.6168 19.2578 25.3879 18.6208C25.3823 18.5904 25.3652 18.5632 25.3402 18.545C25.3151 18.5268 25.2841 18.5189 25.2534 18.523C24.1662 18.5263 23.0789 18.5265 21.9917 18.5235C21.9624 18.5194 21.9327 18.5266 21.9085 18.5437C21.8843 18.5607 21.8675 18.5863 21.8614 18.6153C21.6314 19.2556 21.3974 19.8945 21.1678 20.535C21.1623 20.5656 21.1451 20.593 21.1199 20.6113C21.0947 20.6297 21.0635 20.6376 21.0326 20.6335C20.4251 20.6297 19.8175 20.6314 19.2099 20.6314H19.0977C19.1586 20.4731 19.2135 20.3285 19.2699 20.1845C19.8986 18.5838 20.5272 16.9832 21.1559 15.3827C21.6265 14.1838 22.0967 12.9848 22.5664 11.7855C22.5735 11.7567 22.5909 11.7315 22.6154 11.7147C22.6398 11.6979 22.6696 11.6907 22.699 11.6944C23.3129 11.6974 23.9268 11.6974 24.5408 11.6944C24.573 11.6901 24.6057 11.6979 24.6325 11.7164C24.6593 11.7348 24.6784 11.7626 24.6859 11.7943C25.4694 13.7947 26.2544 15.7946 27.0409 17.7938C27.4002 18.7089 27.7593 19.624 28.118 20.5393C28.1272 20.5629 28.1355 20.5867 28.1518 20.6313ZM23.6365 13.9488L23.6123 13.9496L22.5385 16.8564H24.7105L23.6365 13.9488Z" fill="#E00D3A"/>
<path d="M8.61819 19.0362C8.33405 19.3943 7.99703 19.7069 7.61875 19.9634C6.97912 20.4162 6.23497 20.6988 5.45623 20.7846C3.95194 20.944 2.60956 20.5559 1.4836 19.5266C0.6634 18.79 0.146012 17.7746 0.031934 16.6777C-0.070825 15.7495 0.110433 14.812 0.551723 13.9892C0.993013 13.1664 1.67353 12.4971 2.50323 12.0698C3.32848 11.6353 4.25942 11.4424 5.18922 11.5134C6.52718 11.6086 7.63366 12.173 8.49463 13.2074C8.51295 13.2291 8.52909 13.2532 8.53994 13.2677L7.33068 14.4741C7.10231 14.1689 6.82038 13.9077 6.49866 13.7033C6.04782 13.406 5.52294 13.2406 4.98322 13.2259C3.81615 13.1991 2.89525 13.6574 2.30462 14.6747C1.45241 16.1419 1.98491 18.2347 3.77439 18.902C4.86531 19.3089 5.89464 19.1156 6.83081 18.4402C7.06678 18.27 7.2685 18.0523 7.49397 17.8492L8.61819 19.0362Z" fill="#E00D3A"/>
<path d="M15.4137 20.624H13.5195V11.6963H13.6346C15.7419 11.6963 17.8492 11.6957 19.9565 11.6945C20.0492 11.6945 20.0828 11.7126 20.0817 11.8141C20.0759 12.3033 20.0791 12.7925 20.079 13.2817C20.079 13.4077 20.079 13.408 19.9554 13.408H15.5521C15.4138 13.408 15.4137 13.408 15.4137 13.5504C15.4137 14.2537 15.4153 14.9571 15.4116 15.6605C15.4112 15.7553 15.4339 15.7857 15.5336 15.7853C16.6627 15.7818 17.7912 15.7831 18.9199 15.7831C19.0523 15.7831 19.0524 15.7831 19.0524 15.9196C19.0524 16.4088 19.0502 16.898 19.0544 17.3871C19.0552 17.4778 19.0321 17.5061 18.9382 17.5058C17.8062 17.5027 16.6742 17.502 15.5422 17.5038C15.414 17.5038 15.4137 17.5038 15.4137 17.6355C15.4137 18.5883 15.4137 19.5411 15.4137 20.4939L15.4137 20.624Z" fill="#E00D3A"/>
<path d="M11.7642 16.1593V20.505C11.7642 20.6312 11.7642 20.6313 11.6404 20.6313C11.0871 20.6313 10.5337 20.6295 9.98054 20.6332C9.89209 20.6338 9.8593 20.6152 9.85938 20.5187C9.86184 17.615 9.862 14.7115 9.85988 11.808C9.85988 11.7219 9.88225 11.6936 9.97207 11.6942C10.5349 11.6983 11.0978 11.6983 11.6607 11.6942C11.7483 11.6936 11.766 11.7224 11.7659 11.8039C11.7636 13.2556 11.763 14.7074 11.7642 16.1593Z" fill="#E00D3A"/>
<path d="M35.9739 22.6073H28.6641V24.4999H35.9739V22.6073Z" fill="#E00D3A"/>
</g>
</g>
<defs>
<clipPath id="clip0_2183_9284">
<rect width="36" height="13" fill="white" transform="translate(0 11.5)"/>
</clipPath>
</defs>
</svg>
