<svg width="116" height="48" viewBox="0 0 116 48" fill="none" xmlns="http://www.w3.org/2000/svg">
<path d="M61.9385 4.7002V12.8487H61.0043V9.13786H56.1452V12.8487H55.2109V4.7002H56.1452V8.25798H61.0043V4.7002H61.9385Z" fill="#201E3D"/>
<path d="M69.0651 6.7164V12.8482H68.164V11.8645C67.8047 12.5149 67.0031 12.9903 66.1242 12.9903C64.7587 12.9903 63.7969 12.0066 63.7969 10.6185V6.7164H64.6979V10.4983C64.6979 11.4929 65.3337 12.1924 66.2458 12.1924C67.2906 12.1924 68.164 11.471 68.164 10.613V6.71094H69.0651V6.7164Z" fill="#201E3D"/>
<path d="M79.8096 8.94705V12.8491H78.9085V9.06728C78.9085 8.07263 78.3226 7.3731 77.4823 7.3731C76.4983 7.3731 75.8018 8.02345 75.8018 8.95252V12.8546H74.9007V9.07275C74.9007 8.0781 74.3148 7.37857 73.4745 7.37857C72.4905 7.37857 71.794 8.02891 71.794 8.95798V12.8601H70.8984V6.71729H71.7995V7.61903C72.1091 6.97961 72.7835 6.5752 73.5961 6.5752C74.5304 6.5752 75.2656 7.08345 75.5973 7.88135C75.8515 7.08891 76.6642 6.5752 77.5984 6.5752C78.8975 6.5752 79.8096 7.55891 79.8096 8.94705Z" fill="#201E3D"/>
<path d="M86.6714 9.11044V12.8431H85.7704V11.8812C85.3281 12.6026 84.4049 12.9852 83.5868 12.9852C82.2822 12.9852 81.3203 12.2365 81.3203 11.0287C81.3203 9.80998 82.4259 8.99021 83.7526 8.99021C84.4271 8.99021 85.1346 9.1323 85.7704 9.33451V9.11044C85.7704 8.27975 85.4332 7.33428 84.0898 7.33428C83.4652 7.33428 82.8405 7.60754 82.2767 7.89172L81.9173 7.17033C82.8074 6.73312 83.5481 6.5801 84.1507 6.5801C85.8422 6.57463 86.6714 7.6294 86.6714 9.11044ZM85.7704 10.9249V9.99032C85.2065 9.8373 84.5708 9.73893 83.9019 9.73893C82.9787 9.73893 82.1993 10.2581 82.1993 10.9959C82.1993 11.7556 82.8682 12.2037 83.7471 12.2037C84.5597 12.2092 85.5327 11.7938 85.7704 10.9249Z" fill="#201E3D"/>
<path d="M93.7838 8.94705V12.8491H92.8828V9.06728C92.8828 8.07263 92.247 7.3731 91.3349 7.3731C90.2901 7.3731 89.4167 8.09449 89.4167 8.95252V12.8546H88.5156V6.71729H89.4167V7.70101C89.776 7.05066 90.5776 6.5752 91.4565 6.5752C92.822 6.5752 93.7838 7.55891 93.7838 8.94705Z" fill="#201E3D"/>
<path d="M59.3475 24.0624L61.4813 27.0737H60.4144L58.3248 24.1444H56.1413V27.0737H55.207V18.9307H58.5515C60.2541 18.9307 61.5864 20.0073 61.5864 21.5375C61.5919 22.8218 60.6577 23.7946 59.3475 24.0624ZM56.1468 23.27H58.3912C59.7345 23.27 60.6466 22.6305 60.6466 21.5375C60.6466 20.4445 59.7345 19.8051 58.3912 19.8051H56.1468V23.27Z" fill="#201E3D"/>
<path d="M67.7209 25.6915L68.2737 26.2708C67.7319 26.8501 66.6429 27.2217 65.7805 27.2217C64.1277 27.2217 62.6406 25.8827 62.6406 23.9973C62.6406 22.1719 64.0337 20.8057 65.6976 20.8057C67.5661 20.8057 68.6385 22.2047 68.6385 24.3525H63.5638C63.6965 25.5494 64.5478 26.4293 65.7695 26.4293C66.4992 26.4238 67.3339 26.1068 67.7209 25.6915ZM63.5693 23.5546H67.743C67.6214 22.4507 66.9635 21.5981 65.7253 21.5981C64.6252 21.5981 63.7407 22.3687 63.5693 23.5546Z" fill="#201E3D"/>
<path d="M71.5107 20.9476H73.0365V21.7401H71.5107V27.074H70.6096V21.7401H69.6367V20.9476H70.6096V20.106C70.6096 19.1933 71.2343 18.543 72.1188 18.543C72.5389 18.543 72.948 18.6851 73.2686 18.9365L72.8264 19.5868C72.6937 19.4447 72.456 19.3354 72.1796 19.3354C71.8203 19.3354 71.5052 19.6579 71.5052 20.106V20.9476H71.5107Z" fill="#201E3D"/>
<path d="M79.0646 25.6915L79.6174 26.2708C79.0757 26.8501 77.9867 27.2217 77.1243 27.2217C75.4714 27.2217 73.9844 25.8827 73.9844 23.9973C73.9844 22.1719 75.3774 20.8057 77.0414 20.8057C78.9098 20.8057 79.9823 22.2047 79.9823 24.3525H74.9076C75.0402 25.5494 75.8915 26.4293 77.1132 26.4293C77.8429 26.4238 78.6832 26.1068 79.0646 25.6915ZM74.9186 23.5546H79.0923C78.9706 22.4507 78.3128 21.5981 77.0745 21.5981C75.9745 21.5981 75.0844 22.3687 74.9186 23.5546Z" fill="#201E3D"/>
<path d="M84.8354 20.8057V21.5981C83.4313 21.5981 82.4362 22.4507 82.4362 23.6475V27.0741H81.5352V20.9478H82.4362V22.1446C82.8066 21.3248 83.6966 20.8057 84.8354 20.8057Z" fill="#201E3D"/>
<path d="M90.8342 25.6915L91.387 26.2708C90.8452 26.8501 89.7562 27.2217 88.8938 27.2217C87.2409 27.2217 85.7539 25.8827 85.7539 23.9973C85.7539 22.1719 87.147 20.8057 88.8109 20.8057C90.6794 20.8057 91.7518 22.2047 91.7518 24.3525H86.6771C86.8098 25.5494 87.6611 26.4293 88.8828 26.4293C89.6069 26.4238 90.4472 26.1068 90.8342 25.6915ZM86.6826 23.5546H90.8563C90.7347 22.4507 90.0768 21.5981 88.8441 21.5981C87.7385 21.5981 86.8485 22.3687 86.6826 23.5546Z" fill="#201E3D"/>
<path d="M98.497 23.1775V27.0796H97.596V23.2977C97.596 22.3031 96.9603 21.6036 96.0481 21.6036C95.0033 21.6036 94.1299 22.325 94.1299 23.183V27.0851H93.2344V20.9478H94.1354V21.9315C94.4948 21.2811 95.2963 20.8057 96.1753 20.8057C97.5407 20.8057 98.497 21.7894 98.497 23.1775Z" fill="#201E3D"/>
<path d="M99.9844 24.0082C99.9844 22.2648 101.46 20.8057 103.196 20.8057C104.036 20.8057 104.816 21.15 105.402 21.7074L104.777 22.314C104.368 21.8768 103.804 21.6036 103.196 21.6036C101.963 21.6036 100.93 22.7075 100.93 24.0082C100.93 25.3253 101.963 26.4293 103.196 26.4293C103.821 26.4293 104.396 26.1451 104.816 25.6805L105.441 26.2872C104.855 26.8665 104.059 27.2217 103.196 27.2217C101.46 27.2217 99.9844 25.7516 99.9844 24.0082Z" fill="#201E3D"/>
<path d="M111.572 25.6915L112.125 26.2708C111.583 26.8501 110.494 27.2217 109.632 27.2217C107.979 27.2217 106.492 25.8827 106.492 23.9973C106.492 22.1719 107.885 20.8057 109.549 20.8057C111.418 20.8057 112.49 22.2047 112.49 24.3525H107.415C107.548 25.5494 108.399 26.4293 109.621 26.4293C110.351 26.4238 111.191 26.1068 111.572 25.6915ZM107.421 23.5546H111.595C111.473 22.4507 110.815 21.5981 109.582 21.5981C108.477 21.5981 107.592 22.3687 107.421 23.5546Z" fill="#201E3D"/>
<path d="M61.0886 39.4585H56.4948L55.6656 41.3057H54.6484L58.2803 33.1572H59.2975L62.9294 41.3057H61.9123L61.0886 39.4585ZM60.7071 38.5786L58.8 34.2994L56.8818 38.5786H60.7071Z" fill="#201E3D"/>
<path d="M67.3975 41.0592C67.0714 41.3106 66.6678 41.4527 66.2477 41.4527C65.3577 41.4527 64.7386 40.8024 64.7386 39.8897V35.9767H63.7656V35.1842H64.7386V33.501H65.6396V35.1842H67.1654V35.9767H65.6396V39.8897C65.6396 40.3378 65.9492 40.6603 66.314 40.6603C66.5904 40.6603 66.8281 40.551 66.9608 40.4089L67.3975 41.0592Z" fill="#201E3D"/>
<path d="M68.668 33.0205H69.569V41.3111H68.668V33.0205Z" fill="#201E3D"/>
<path d="M76.4293 37.5734V41.3061H75.5282V40.3442C75.0859 41.0656 74.1628 41.4482 73.3446 41.4482C72.04 41.4482 71.0781 40.6994 71.0781 39.4916C71.0781 38.2729 72.1837 37.4532 73.5105 37.4532C74.1793 37.4532 74.8925 37.5953 75.5282 37.7975V37.5734C75.5282 36.7427 75.191 35.7972 73.8477 35.7972C73.223 35.7972 72.5983 36.0705 72.0345 36.3547L71.6752 35.6333C72.5652 35.1961 73.3059 35.0431 73.9085 35.0431C75.6001 35.0321 76.4293 36.0924 76.4293 37.5734ZM75.5282 39.3878V38.4533C74.9643 38.3003 74.3286 38.2019 73.6597 38.2019C72.7365 38.2019 71.9571 38.7211 71.9571 39.4589C71.9571 40.2185 72.6315 40.6666 73.5049 40.6666C74.3175 40.6666 75.2905 40.2513 75.5282 39.3878Z" fill="#201E3D"/>
<path d="M77.8945 40.5346L78.3644 39.8843C79.072 40.3925 79.7796 40.6548 80.4651 40.6548C81.2832 40.6548 81.8305 40.2777 81.8305 39.693C81.8305 39.0262 81.1118 38.8131 80.2716 38.5781C78.7735 38.1518 78.1986 37.7146 78.1986 36.8347C78.1986 35.7199 79.1328 35.0312 80.3711 35.0312C81.1395 35.0312 81.93 35.2936 82.5878 35.7199L82.1566 36.4085C81.532 36.015 80.9239 35.8292 80.3711 35.8292C79.6746 35.8292 79.0996 36.1352 79.0996 36.7309C79.0996 37.2665 79.5529 37.4304 80.7083 37.7966C81.7033 38.1026 82.7371 38.436 82.7371 39.6001C82.7371 40.7259 81.7531 41.4473 80.4706 41.4473C79.5972 41.4473 78.6353 41.1303 77.8945 40.5346Z" fill="#201E3D"/>
<g clip-path="url(#clip0_4526_5698)">
<path d="M25 48C38.2548 48 49 37.2548 49 24C49 10.7452 38.2548 0 25 0C11.7452 0 1 10.7452 1 24C1 37.2548 11.7452 48 25 48Z" fill="#FF0043"/>
<path d="M25.0015 3.4043C13.6448 3.4043 4.40625 12.6438 4.40625 23.9995C4.40625 35.3553 13.6457 44.5948 25.0015 44.5948C36.3573 44.5948 45.5967 35.3553 45.5967 23.9995C45.5967 12.6438 36.3582 3.4043 25.0015 3.4043ZM43.7173 23.6049H38.6639C38.587 20.8957 37.7168 18.3809 36.2783 16.2853L39.9504 13.7606C40.0856 13.6679 40.1191 13.4834 40.0264 13.3492C39.9337 13.214 39.7492 13.1805 39.615 13.2732L35.934 15.8039C34.8744 14.394 33.5494 13.1953 32.034 12.2827L34.2469 8.41918C34.3278 8.27711 34.2795 8.09656 34.1374 8.01566C33.9953 7.93377 33.8148 7.98409 33.7339 8.12517L31.5219 11.9887C29.6849 10.9883 27.5943 10.3963 25.3734 10.3371L25.3557 5.86093C25.3557 5.64388 25.1781 5.46826 24.9611 5.46826H24.9591C24.741 5.46826 24.5654 5.64684 24.5664 5.86487L24.5842 10.3401C21.5247 10.4328 18.7149 11.5358 16.4773 13.3265L13.2116 9.47287C16.4329 6.85345 20.5381 5.28081 25.0035 5.28081C35.194 5.28081 43.5081 13.4656 43.7192 23.6069L43.7173 23.6049ZM33.7546 33.3032L30.9349 29.9754C31.5071 29.4081 31.9975 28.7589 32.3892 28.0476L36.2606 30.0425C35.6035 31.2609 34.755 32.361 33.7546 33.3022V33.3032ZM13.4721 29.5127L17.4037 27.6411C17.822 28.5103 18.3844 29.2966 19.0612 29.9695L16.1448 33.2055C15.0477 32.1498 14.139 30.9008 13.4721 29.5136V29.5127ZM6.28572 24.3942H11.3391C11.3914 26.2194 11.8028 27.9558 12.5052 29.5353L7.94222 31.7078C6.92602 29.4692 6.33998 26.9958 6.28572 24.3942ZM16.4477 14.5124L19.2644 17.8363C17.7017 19.2915 16.6914 21.3318 16.5858 23.6049H12.228C12.3375 20.0028 13.9457 16.7707 16.4477 14.5124ZM25.0015 31.0439C24.6226 31.0439 24.2517 31.0133 23.8886 30.9551L24.6118 26.8794C24.7391 26.8962 24.8693 26.9061 25.0005 26.9061C25.6704 26.9061 26.287 26.6782 26.7794 26.2954L27.8261 27.5306C27.0349 28.1837 26.0207 28.5774 24.9167 28.5774C24.7805 28.5774 24.67 28.6879 24.67 28.824C24.67 28.9602 24.7805 29.0707 24.9167 29.0707C26.142 29.0707 27.2677 28.6336 28.1448 27.9075L29.455 29.4535C28.2405 30.448 26.6896 31.0448 25.0005 31.0448L25.0015 31.0439ZM18.6508 27.0471L22.387 25.2683C22.7481 26.0102 23.417 26.5756 24.226 26.8005L23.5019 30.8821C21.3609 30.4154 19.5801 28.975 18.6517 27.0481L18.6508 27.0471ZM20.1583 18.8909L21.3965 20.3511C20.6654 21.0555 20.1405 21.981 19.9383 23.0347C19.9126 23.1688 20.0004 23.2981 20.1336 23.3237C20.2678 23.3494 20.397 23.2616 20.4227 23.1284C20.6032 22.1882 21.0679 21.3614 21.7161 20.728L22.8418 22.0569C22.461 22.4792 22.2035 23.0139 22.1226 23.6049H17.969C18.0716 21.7531 18.8935 20.0916 20.1583 18.8909ZM28.3915 26.9751L27.3358 25.73C27.6209 25.3463 27.8133 24.8904 27.8814 24.3942H29.4777C29.3938 25.3749 28.9992 26.2687 28.3924 26.9751H28.3915ZM23.2789 23.9995C23.2789 23.0494 24.0514 22.2769 25.0015 22.2769C25.9516 22.2769 26.7241 23.0494 26.7241 23.9995C26.7241 24.9496 25.9516 25.7221 25.0015 25.7221C24.0514 25.7221 23.2789 24.9496 23.2789 23.9995ZM27.8804 23.6049C27.687 22.1882 26.4705 21.093 25.0015 21.093C24.4283 21.093 23.8945 21.2598 23.4437 21.5469L22.3249 20.2268C23.0678 19.7167 23.9636 19.4217 24.9167 19.4217C27.3072 19.4217 29.2754 21.2647 29.4757 23.6049H27.8794H27.8804ZM22.1226 24.3942C22.1463 24.5688 22.1857 24.7385 22.239 24.9023L18.4909 26.687C18.1959 25.9737 18.0134 25.2022 17.969 24.3952H22.1226V24.3942ZM28.7141 27.356C28.9518 27.0866 29.162 26.7926 29.3396 26.4769L31.1598 27.4152C30.853 27.9657 30.4751 28.4708 30.0381 28.9177L28.7141 27.356ZM29.599 25.9451C29.8013 25.4617 29.9286 24.9398 29.971 24.3942H32.034C31.9846 25.2782 31.7715 26.1178 31.4243 26.8853L29.599 25.9441V25.9451ZM29.971 23.6049C29.7687 20.9924 27.5805 18.9284 24.9167 18.9284C23.8432 18.9284 22.8349 19.2668 22.0052 19.8489L20.7591 18.3789C21.9401 17.485 23.4091 16.9542 25.0005 16.9542C27.2845 16.9542 29.3159 18.0474 30.6044 19.7365C30.6123 19.7591 30.6231 19.7818 30.6379 19.8026C30.6557 19.8292 30.6784 19.8499 30.7021 19.8687C31.4736 20.9302 31.956 22.2138 32.033 23.6039H29.97L29.971 23.6049ZM29.4274 16.8339L31.592 13.0532C32.9929 13.8997 34.2183 15.0067 35.201 16.308L31.6068 18.7795C30.999 18.0119 30.262 17.3518 29.4264 16.8349L29.4274 16.8339ZM28.9134 16.5409C27.8518 15.9824 26.659 15.6421 25.3922 15.5848L25.3744 11.2261C27.4335 11.2852 29.3721 11.8338 31.078 12.7602L28.9124 16.5418L28.9134 16.5409ZM24.6029 15.5839C22.8251 15.6667 21.1913 16.3051 19.8672 17.3262L17.0505 14.0023C19.1332 12.3419 21.7437 11.3188 24.5861 11.227L24.6039 15.5848L24.6029 15.5839ZM12.228 24.3942H16.5858C16.6332 25.4133 16.8621 26.3871 17.2409 27.281L13.3073 29.1535C12.6591 27.6894 12.2793 26.0823 12.227 24.3942H12.228ZM19.4973 30.37C20.5559 31.2856 21.8424 31.9436 23.2602 32.2426L22.4985 36.5323C20.2619 36.0864 18.2334 35.0544 16.5809 33.6041L19.4973 30.369V30.37ZM23.6479 32.3146C24.0889 32.3866 24.5408 32.4251 25.0015 32.4251C25.4622 32.4251 25.8934 32.3886 26.3245 32.3205L27.097 36.6073C26.4153 36.7207 25.7158 36.7799 25.0015 36.7799C24.2872 36.7799 23.5749 36.7188 22.8862 36.6043L23.6479 32.3156V32.3146ZM26.7123 32.2505C28.0718 31.9693 29.3129 31.3586 30.3479 30.5062L33.1626 33.8271C31.5545 35.1649 29.6138 36.116 27.4848 36.5372L26.7123 32.2505ZM32.6536 27.5187C33.0965 26.5598 33.3649 25.5051 33.4172 24.3942H37.775C37.7188 26.2233 37.2777 27.9568 36.5289 29.5156L32.6536 27.5187ZM33.4172 23.6049C33.3422 21.9967 32.8154 20.505 31.96 19.255L35.5473 16.7885C36.8871 18.741 37.698 21.0822 37.775 23.6049H33.4172ZM12.6078 9.98195L15.8735 13.8356C13.1791 16.2577 11.4496 19.7325 11.3391 23.6049H6.28572C6.39819 18.1895 8.82227 13.3324 12.6078 9.98195ZM8.10994 32.066L12.671 29.8945C13.3873 31.3872 14.3679 32.7309 15.5499 33.8645L12.449 37.3048C12.3395 37.4262 12.3494 37.6136 12.4707 37.7231C12.5269 37.7744 12.598 37.7991 12.669 37.7991C12.7499 37.7991 12.8308 37.7665 12.889 37.7014L15.9869 34.2651C17.7609 35.8249 19.9393 36.9329 22.3436 37.4084L21.4606 42.3838C15.5607 41.2492 10.6376 37.3374 8.10994 32.066ZM21.8483 42.4539L22.7313 37.4785C23.4703 37.6028 24.228 37.6679 25.0015 37.6679C25.775 37.6679 26.5209 37.6038 27.2539 37.4814L28.1497 42.4539C27.1256 42.6285 26.0739 42.7203 25.0015 42.7203C23.9291 42.7203 22.8734 42.6275 21.8483 42.4529V42.4539ZM28.5385 42.3838L27.6426 37.4114C29.9286 36.9625 32.0123 35.9413 33.7368 34.5039L35.6854 36.8026C35.7633 36.8944 35.8748 36.9417 35.9863 36.9417C36.0761 36.9417 36.1668 36.9112 36.2408 36.848C36.4076 36.7069 36.4273 36.4583 36.2872 36.2916L34.3278 33.98C35.416 32.9628 36.3375 31.771 37.0479 30.4489L38.4321 31.1623C38.4755 31.1849 38.5218 31.1948 38.5672 31.1948C38.6748 31.1948 38.7784 31.1366 38.8307 31.034C38.9056 30.889 38.8484 30.7104 38.7034 30.6354L37.3172 29.9211C38.1292 28.2399 38.6057 26.3674 38.6629 24.3922H43.7163C43.5308 33.3298 37.0498 40.7471 28.5375 42.3819L28.5385 42.3838Z" fill="url(#paint0_linear_4526_5698)"/>
</g>
<defs>
<linearGradient id="paint0_linear_4526_5698" x1="7.16873" y1="34.2957" x2="42.8343" y2="13.7044" gradientUnits="userSpaceOnUse">
<stop offset="0.12" stop-color="white" stop-opacity="0"/>
<stop offset="0.44" stop-color="white"/>
</linearGradient>
<clipPath id="clip0_4526_5698">
<rect width="48" height="48" fill="white" transform="translate(1)"/>
</clipPath>
</defs>
</svg>
