<?xml version="1.0" encoding="UTF-8" standalone="no"?>
<!DOCTYPE svg PUBLIC "-//W3C//DTD SVG 1.1//EN"
 "http://www.w3.org/Graphics/SVG/1.1/DTD/svg11.dtd">
<!-- Generated by graphviz version 2.47.0 (20210316.0004)
 -->
<!-- Title: dependencies Pages: 1 -->
<svg width="3672pt" height="284pt"
 viewBox="0.00 0.00 3672.00 284.00" xmlns="http://www.w3.org/2000/svg" xmlns:xlink="http://www.w3.org/1999/xlink">
<g id="graph0" class="graph" transform="scale(1 1) rotate(0) translate(4 280)">
<title>dependencies</title>
<polygon fill="white" stroke="transparent" points="-4,4 -4,-280 3668,-280 3668,4 -4,4"/>
<text text-anchor="start" x="1811.01" y="-42.4" font-family="Times-12" font-weight="bold" font-size="14.00">Legend</text>
<polygon fill="#ffffb3" stroke="transparent" points="1598,-10 1598,-30 1618,-30 1618,-10 1598,-10"/>
<text text-anchor="start" x="1621.63" y="-15.4" font-family="Times-12" font-size="14.00"> &#160;Declarations</text>
<polygon fill="#8dd3c7" stroke="transparent" points="1711,-10 1711,-30 1731,-30 1731,-10 1711,-10"/>
<text text-anchor="start" x="1734.73" y="-15.4" font-family="Times-12" font-size="14.00"> &#160;Module</text>
<polygon fill="#80b1d3" stroke="transparent" points="1797,-10 1797,-30 1817,-30 1817,-10 1797,-10"/>
<text text-anchor="start" x="1820.78" y="-15.4" font-family="Times-12" font-size="14.00"> &#160;Bootstrap</text>
<polygon fill="#fdb462" stroke="transparent" points="1894,-10 1894,-30 1914,-30 1914,-10 1894,-10"/>
<text text-anchor="start" x="1917.67" y="-15.4" font-family="Times-12" font-size="14.00"> &#160;Providers</text>
<polygon fill="#fb8072" stroke="transparent" points="1990,-10 1990,-30 2010,-30 2010,-10 1990,-10"/>
<text text-anchor="start" x="2013.73" y="-15.4" font-family="Times-12" font-size="14.00"> &#160;Exports</text>
<g id="clust1" class="cluster">
<title>cluster_PageElementModule</title>
<polygon fill="none" stroke="black" stroke-dasharray="1,5" points="8,-70 8,-268 3656,-268 3656,-70 8,-70"/>
</g>
<g id="clust4" class="cluster">
<title>cluster_PageElementModule_imports</title>
<polygon fill="none" stroke="black" points="196,-78 196,-130 3648,-130 3648,-78 196,-78"/>
</g>
<g id="clust2" class="cluster">
<title>cluster_PageElementModule_declarations</title>
<polygon fill="none" stroke="black" points="16,-78 16,-130 188,-130 188,-78 16,-78"/>
</g>
<g id="clust5" class="cluster">
<title>cluster_PageElementModule_exports</title>
<polygon fill="none" stroke="black" points="1728,-208 1728,-260 1902,-260 1902,-208 1728,-208"/>
</g>
<!-- PageElementComponent -->
<g id="node1" class="node">
<title>PageElementComponent</title>
<polygon fill="#ffffb3" stroke="black" points="179.7,-122 24.3,-122 24.3,-86 179.7,-86 179.7,-122"/>
<text text-anchor="middle" x="102" y="-99.8" font-family="Times,serif" font-size="14.00">PageElementComponent</text>
</g>
<!-- PageElementModule -->
<g id="node2" class="node">
<title>PageElementModule</title>
<polygon fill="#8dd3c7" stroke="black" points="1881.92,-187 1878.92,-191 1857.92,-191 1854.92,-187 1748.08,-187 1748.08,-151 1881.92,-151 1881.92,-187"/>
<text text-anchor="middle" x="1815" y="-164.8" font-family="Times,serif" font-size="14.00">PageElementModule</text>
</g>
<!-- PageElementComponent&#45;&gt;PageElementModule -->
<g id="edge1" class="edge">
<title>PageElementComponent&#45;&gt;PageElementModule</title>
<path fill="none" stroke="black" d="M102,-122.38C102,-146.28 102,-185 102,-185 102,-185 1738.11,-185 1738.11,-185"/>
<polygon fill="black" stroke="black" points="1738.11,-188.5 1748.11,-185 1738.11,-181.5 1738.11,-188.5"/>
</g>
<!-- PageElementComponent  -->
<g id="node26" class="node">
<title>PageElementComponent </title>
<polygon fill="#fb8072" stroke="black" points="1894.2,-252 1735.8,-252 1735.8,-216 1894.2,-216 1894.2,-252"/>
<text text-anchor="middle" x="1815" y="-229.8" font-family="Times,serif" font-size="14.00">PageElementComponent </text>
</g>
<!-- PageElementModule&#45;&gt;PageElementComponent  -->
<g id="edge26" class="edge">
<title>PageElementModule&#45;&gt;PageElementComponent </title>
<path fill="none" stroke="black" stroke-dasharray="5,2" d="M1815,-187.11C1815,-187.11 1815,-205.99 1815,-205.99"/>
<polygon fill="black" stroke="black" points="1811.5,-205.99 1815,-215.99 1818.5,-205.99 1811.5,-205.99"/>
</g>
<!-- AnnouncementCardModule -->
<g id="node3" class="node">
<title>AnnouncementCardModule</title>
<polygon fill="#8dd3c7" stroke="black" points="3640.29,-122 3637.29,-126 3616.29,-126 3613.29,-122 3467.71,-122 3467.71,-86 3640.29,-86 3640.29,-122"/>
<text text-anchor="middle" x="3554" y="-99.8" font-family="Times,serif" font-size="14.00">AnnouncementCardModule</text>
</g>
<!-- AnnouncementCardModule&#45;&gt;PageElementModule -->
<g id="edge2" class="edge">
<title>AnnouncementCardModule&#45;&gt;PageElementModule</title>
<path fill="none" stroke="black" d="M3554,-122.38C3554,-146.28 3554,-185 3554,-185 3554,-185 1891.84,-185 1891.84,-185"/>
<polygon fill="black" stroke="black" points="1891.84,-181.5 1881.84,-185 1891.84,-188.5 1891.84,-181.5"/>
</g>
<!-- BoardMembersModule -->
<g id="node4" class="node">
<title>BoardMembersModule</title>
<polygon fill="#8dd3c7" stroke="black" points="3450.13,-122 3447.13,-126 3426.13,-126 3423.13,-122 3303.87,-122 3303.87,-86 3450.13,-86 3450.13,-122"/>
<text text-anchor="middle" x="3377" y="-99.8" font-family="Times,serif" font-size="14.00">BoardMembersModule</text>
</g>
<!-- BoardMembersModule&#45;&gt;PageElementModule -->
<g id="edge3" class="edge">
<title>BoardMembersModule&#45;&gt;PageElementModule</title>
<path fill="none" stroke="black" d="M3377,-122.09C3377,-145.13 3377,-182 3377,-182 3377,-182 1892.12,-182 1892.12,-182"/>
<polygon fill="black" stroke="black" points="1892.12,-178.5 1882.12,-182 1892.12,-185.5 1892.12,-178.5"/>
</g>
<!-- CardButtonLongModule -->
<g id="node5" class="node">
<title>CardButtonLongModule</title>
<polygon fill="#8dd3c7" stroke="black" points="3285.43,-122 3282.43,-126 3261.43,-126 3258.43,-122 3130.57,-122 3130.57,-86 3285.43,-86 3285.43,-122"/>
<text text-anchor="middle" x="3208" y="-99.8" font-family="Times,serif" font-size="14.00">CardButtonLongModule</text>
</g>
<!-- CardButtonLongModule&#45;&gt;PageElementModule -->
<g id="edge4" class="edge">
<title>CardButtonLongModule&#45;&gt;PageElementModule</title>
<path fill="none" stroke="black" d="M3208,-122.16C3208,-144.35 3208,-179 3208,-179 3208,-179 1891.72,-179 1891.72,-179"/>
<polygon fill="black" stroke="black" points="1891.72,-175.5 1881.72,-179 1891.72,-182.5 1891.72,-175.5"/>
</g>
<!-- CardWithHeaderModule -->
<g id="node6" class="node">
<title>CardWithHeaderModule</title>
<polygon fill="#8dd3c7" stroke="black" points="3112.67,-122 3109.67,-126 3088.67,-126 3085.67,-122 2957.33,-122 2957.33,-86 3112.67,-86 3112.67,-122"/>
<text text-anchor="middle" x="3035" y="-99.8" font-family="Times,serif" font-size="14.00">CardWithHeaderModule</text>
</g>
<!-- CardWithHeaderModule&#45;&gt;PageElementModule -->
<g id="edge5" class="edge">
<title>CardWithHeaderModule&#45;&gt;PageElementModule</title>
<path fill="none" stroke="black" d="M3035,-122.17C3035,-143.5 3035,-176 3035,-176 3035,-176 1891.89,-176 1891.89,-176"/>
<polygon fill="black" stroke="black" points="1891.89,-172.5 1881.89,-176 1891.89,-179.5 1891.89,-172.5"/>
</g>
<!-- CarouselModule -->
<g id="node7" class="node">
<title>CarouselModule</title>
<polygon fill="#8dd3c7" stroke="black" points="2939.81,-122 2936.81,-126 2915.81,-126 2912.81,-122 2830.19,-122 2830.19,-86 2939.81,-86 2939.81,-122"/>
<text text-anchor="middle" x="2885" y="-99.8" font-family="Times,serif" font-size="14.00">CarouselModule</text>
</g>
<!-- CarouselModule&#45;&gt;PageElementModule -->
<g id="edge6" class="edge">
<title>CarouselModule&#45;&gt;PageElementModule</title>
<path fill="none" stroke="black" d="M2866.78,-122.31C2866.78,-142.15 2866.78,-171 2866.78,-171 2866.78,-171 1891.99,-171 1891.99,-171"/>
<polygon fill="black" stroke="black" points="1891.99,-167.5 1881.99,-171 1891.99,-174.5 1891.99,-167.5"/>
</g>
<!-- CarouselModule&#45;&gt;PageElementModule -->
<g id="edge7" class="edge">
<title>CarouselModule&#45;&gt;PageElementModule</title>
<path fill="none" stroke="black" d="M2903.22,-122.03C2903.22,-142.77 2903.22,-174 2903.22,-174 2903.22,-174 1891.84,-174 1891.84,-174"/>
<polygon fill="black" stroke="black" points="1891.84,-170.5 1881.84,-174 1891.84,-177.5 1891.84,-170.5"/>
</g>
<!-- ChooseVersionModule -->
<g id="node8" class="node">
<title>ChooseVersionModule</title>
<polygon fill="#8dd3c7" stroke="black" points="2811.86,-122 2808.86,-126 2787.86,-126 2784.86,-122 2666.14,-122 2666.14,-86 2811.86,-86 2811.86,-122"/>
<text text-anchor="middle" x="2739" y="-99.8" font-family="Times,serif" font-size="14.00">ChooseVersionModule</text>
</g>
<!-- ChooseVersionModule&#45;&gt;PageElementModule -->
<g id="edge8" class="edge">
<title>ChooseVersionModule&#45;&gt;PageElementModule</title>
<path fill="none" stroke="black" d="M2739,-122.17C2739,-141.09 2739,-168 2739,-168 2739,-168 1891.82,-168 1891.82,-168"/>
<polygon fill="black" stroke="black" points="1891.82,-164.5 1881.82,-168 1891.82,-171.5 1891.82,-164.5"/>
</g>
<!-- ContactCardModule -->
<g id="node9" class="node">
<title>ContactCardModule</title>
<polygon fill="#8dd3c7" stroke="black" points="2648.31,-122 2645.31,-126 2624.31,-126 2621.31,-122 2517.69,-122 2517.69,-86 2648.31,-86 2648.31,-122"/>
<text text-anchor="middle" x="2583" y="-99.8" font-family="Times,serif" font-size="14.00">ContactCardModule</text>
</g>
<!-- ContactCardModule&#45;&gt;PageElementModule -->
<g id="edge9" class="edge">
<title>ContactCardModule&#45;&gt;PageElementModule</title>
<path fill="none" stroke="black" d="M2583,-122.3C2583,-140.27 2583,-165 2583,-165 2583,-165 1891.81,-165 1891.81,-165"/>
<polygon fill="black" stroke="black" points="1891.81,-161.5 1881.81,-165 1891.81,-168.5 1891.81,-161.5"/>
</g>
<!-- CopyClipboardModule -->
<g id="node10" class="node">
<title>CopyClipboardModule</title>
<polygon fill="#8dd3c7" stroke="black" points="2499.88,-122 2496.88,-126 2475.88,-126 2472.88,-122 2354.12,-122 2354.12,-86 2499.88,-86 2499.88,-122"/>
<text text-anchor="middle" x="2427" y="-99.8" font-family="Times,serif" font-size="14.00">CopyClipboardModule</text>
</g>
<!-- CopyClipboardModule&#45;&gt;PageElementModule -->
<g id="edge10" class="edge">
<title>CopyClipboardModule&#45;&gt;PageElementModule</title>
<path fill="none" stroke="black" d="M2427,-122.02C2427,-139.37 2427,-163 2427,-163 2427,-163 1891.95,-163 1891.95,-163"/>
<polygon fill="black" stroke="black" points="1891.95,-159.5 1881.95,-163 1891.95,-166.5 1891.95,-159.5"/>
</g>
<!-- CountInfoCardModule -->
<g id="node11" class="node">
<title>CountInfoCardModule</title>
<polygon fill="#8dd3c7" stroke="black" points="2336.31,-122 2333.31,-126 2312.31,-126 2309.31,-122 2191.69,-122 2191.69,-86 2336.31,-86 2336.31,-122"/>
<text text-anchor="middle" x="2264" y="-99.8" font-family="Times,serif" font-size="14.00">CountInfoCardModule</text>
</g>
<!-- CountInfoCardModule&#45;&gt;PageElementModule -->
<g id="edge11" class="edge">
<title>CountInfoCardModule&#45;&gt;PageElementModule</title>
<path fill="none" stroke="black" d="M2264,-122.03C2264,-138.4 2264,-160 2264,-160 2264,-160 1891.74,-160 1891.74,-160"/>
<polygon fill="black" stroke="black" points="1891.74,-156.5 1881.74,-160 1891.73,-163.5 1891.74,-156.5"/>
</g>
<!-- DownloadFtuModule -->
<g id="node12" class="node">
<title>DownloadFtuModule</title>
<polygon fill="#8dd3c7" stroke="black" points="2174.04,-122 2171.04,-126 2150.04,-126 2147.04,-122 2037.96,-122 2037.96,-86 2174.04,-86 2174.04,-122"/>
<text text-anchor="middle" x="2106" y="-99.8" font-family="Times,serif" font-size="14.00">DownloadFtuModule</text>
</g>
<!-- DownloadFtuModule&#45;&gt;PageElementModule -->
<g id="edge12" class="edge">
<title>DownloadFtuModule&#45;&gt;PageElementModule</title>
<path fill="none" stroke="black" d="M2106,-122.24C2106,-137.57 2106,-157 2106,-157 2106,-157 1891.76,-157 1891.76,-157"/>
<polygon fill="black" stroke="black" points="1891.76,-153.5 1881.76,-157 1891.76,-160.5 1891.76,-153.5"/>
</g>
<!-- MenuTreeModule -->
<g id="node13" class="node">
<title>MenuTreeModule</title>
<polygon fill="#8dd3c7" stroke="black" points="2019.85,-122 2016.85,-126 1995.85,-126 1992.85,-122 1902.15,-122 1902.15,-86 2019.85,-86 2019.85,-122"/>
<text text-anchor="middle" x="1961" y="-99.8" font-family="Times,serif" font-size="14.00">MenuTreeModule</text>
</g>
<!-- MenuTreeModule&#45;&gt;PageElementModule -->
<g id="edge13" class="edge">
<title>MenuTreeModule&#45;&gt;PageElementModule</title>
<path fill="none" stroke="black" d="M1961,-122.05C1961,-136.37 1961,-154 1961,-154 1961,-154 1892.02,-154 1892.02,-154"/>
<polygon fill="black" stroke="black" points="1892.02,-150.5 1882.02,-154 1892.02,-157.5 1892.02,-150.5"/>
</g>
<!-- OrganVersionModule -->
<g id="node14" class="node">
<title>OrganVersionModule</title>
<polygon fill="#8dd3c7" stroke="black" points="1884.35,-122 1881.35,-126 1860.35,-126 1857.35,-122 1745.65,-122 1745.65,-86 1884.35,-86 1884.35,-122"/>
<text text-anchor="middle" x="1815" y="-99.8" font-family="Times,serif" font-size="14.00">OrganVersionModule</text>
</g>
<!-- OrganVersionModule&#45;&gt;PageElementModule -->
<g id="edge14" class="edge">
<title>OrganVersionModule&#45;&gt;PageElementModule</title>
<path fill="none" stroke="black" d="M1815,-122.11C1815,-122.11 1815,-140.99 1815,-140.99"/>
<polygon fill="black" stroke="black" points="1811.5,-140.99 1815,-150.99 1818.5,-140.99 1811.5,-140.99"/>
</g>
<!-- PageDataModule -->
<g id="node15" class="node">
<title>PageDataModule</title>
<polygon fill="#8dd3c7" stroke="black" points="1727.69,-122 1724.69,-126 1703.69,-126 1700.69,-122 1614.31,-122 1614.31,-86 1727.69,-86 1727.69,-122"/>
<text text-anchor="middle" x="1671" y="-99.8" font-family="Times,serif" font-size="14.00">PageDataModule</text>
</g>
<!-- PageDataModule&#45;&gt;PageElementModule -->
<g id="edge15" class="edge">
<title>PageDataModule&#45;&gt;PageElementModule</title>
<path fill="none" stroke="black" d="M1671,-122.05C1671,-136.37 1671,-154 1671,-154 1671,-154 1738.06,-154 1738.06,-154"/>
<polygon fill="black" stroke="black" points="1738.06,-157.5 1748.06,-154 1738.06,-150.5 1738.06,-157.5"/>
</g>
<!-- PageHeaderModule -->
<g id="node16" class="node">
<title>PageHeaderModule</title>
<polygon fill="#8dd3c7" stroke="black" points="1596.67,-122 1593.67,-126 1572.67,-126 1569.67,-122 1469.33,-122 1469.33,-86 1596.67,-86 1596.67,-122"/>
<text text-anchor="middle" x="1533" y="-99.8" font-family="Times,serif" font-size="14.00">PageHeaderModule</text>
</g>
<!-- PageHeaderModule&#45;&gt;PageElementModule -->
<g id="edge16" class="edge">
<title>PageHeaderModule&#45;&gt;PageElementModule</title>
<path fill="none" stroke="black" d="M1533,-122.24C1533,-137.57 1533,-157 1533,-157 1533,-157 1738.17,-157 1738.17,-157"/>
<polygon fill="black" stroke="black" points="1738.17,-160.5 1748.17,-157 1738.17,-153.5 1738.17,-160.5"/>
</g>
<!-- PrizeCardModule -->
<g id="node17" class="node">
<title>PrizeCardModule</title>
<polygon fill="#8dd3c7" stroke="black" points="1451.53,-122 1448.53,-126 1427.53,-126 1424.53,-122 1336.47,-122 1336.47,-86 1451.53,-86 1451.53,-122"/>
<text text-anchor="middle" x="1394" y="-99.8" font-family="Times,serif" font-size="14.00">PrizeCardModule</text>
</g>
<!-- PrizeCardModule&#45;&gt;PageElementModule -->
<g id="edge17" class="edge">
<title>PrizeCardModule&#45;&gt;PageElementModule</title>
<path fill="none" stroke="black" d="M1394,-122.03C1394,-138.4 1394,-160 1394,-160 1394,-160 1738.29,-160 1738.29,-160"/>
<polygon fill="black" stroke="black" points="1738.29,-163.5 1748.29,-160 1738.29,-156.5 1738.29,-163.5"/>
</g>
<!-- SectionCardModule -->
<g id="node18" class="node">
<title>SectionCardModule</title>
<polygon fill="#8dd3c7" stroke="black" points="1318.25,-122 1315.25,-126 1294.25,-126 1291.25,-122 1189.75,-122 1189.75,-86 1318.25,-86 1318.25,-122"/>
<text text-anchor="middle" x="1254" y="-99.8" font-family="Times,serif" font-size="14.00">SectionCardModule</text>
</g>
<!-- SectionCardModule&#45;&gt;PageElementModule -->
<g id="edge18" class="edge">
<title>SectionCardModule&#45;&gt;PageElementModule</title>
<path fill="none" stroke="black" d="M1254,-122.02C1254,-139.37 1254,-163 1254,-163 1254,-163 1738.17,-163 1738.17,-163"/>
<polygon fill="black" stroke="black" points="1738.17,-166.5 1748.17,-163 1738.17,-159.5 1738.17,-166.5"/>
</g>
<!-- SimpleImageModule -->
<g id="node19" class="node">
<title>SimpleImageModule</title>
<polygon fill="#8dd3c7" stroke="black" points="1172.2,-122 1169.2,-126 1148.2,-126 1145.2,-122 1037.8,-122 1037.8,-86 1172.2,-86 1172.2,-122"/>
<text text-anchor="middle" x="1105" y="-99.8" font-family="Times,serif" font-size="14.00">SimpleImageModule</text>
</g>
<!-- SimpleImageModule&#45;&gt;PageElementModule -->
<g id="edge19" class="edge">
<title>SimpleImageModule&#45;&gt;PageElementModule</title>
<path fill="none" stroke="black" d="M1105,-122.3C1105,-140.27 1105,-165 1105,-165 1105,-165 1738.2,-165 1738.2,-165"/>
<polygon fill="black" stroke="black" points="1738.2,-168.5 1748.2,-165 1738.2,-161.5 1738.2,-168.5"/>
</g>
<!-- SimpleTileModule -->
<g id="node20" class="node">
<title>SimpleTileModule</title>
<polygon fill="#8dd3c7" stroke="black" points="1019.77,-122 1016.77,-126 995.77,-126 992.77,-122 898.23,-122 898.23,-86 1019.77,-86 1019.77,-122"/>
<text text-anchor="middle" x="959" y="-99.8" font-family="Times,serif" font-size="14.00">SimpleTileModule</text>
</g>
<!-- SimpleTileModule&#45;&gt;PageElementModule -->
<g id="edge20" class="edge">
<title>SimpleTileModule&#45;&gt;PageElementModule</title>
<path fill="none" stroke="black" d="M959,-122.17C959,-141.09 959,-168 959,-168 959,-168 1738.19,-168 1738.19,-168"/>
<polygon fill="black" stroke="black" points="1738.19,-171.5 1748.19,-168 1738.19,-164.5 1738.19,-171.5"/>
</g>
<!-- SopLinksModule -->
<g id="node21" class="node">
<title>SopLinksModule</title>
<polygon fill="#8dd3c7" stroke="black" points="880.72,-122 877.72,-126 856.72,-126 853.72,-122 767.28,-122 767.28,-86 880.72,-86 880.72,-122"/>
<text text-anchor="middle" x="824" y="-99.8" font-family="Times,serif" font-size="14.00">SopLinksModule</text>
</g>
<!-- SopLinksModule&#45;&gt;PageElementModule -->
<g id="edge21" class="edge">
<title>SopLinksModule&#45;&gt;PageElementModule</title>
<path fill="none" stroke="black" d="M824,-122.31C824,-142.15 824,-171 824,-171 824,-171 1738.05,-171 1738.05,-171"/>
<polygon fill="black" stroke="black" points="1738.05,-174.5 1748.05,-171 1738.05,-167.5 1738.05,-174.5"/>
</g>
<!-- TableModule -->
<g id="node22" class="node">
<title>TableModule</title>
<polygon fill="#8dd3c7" stroke="black" points="749.92,-122 746.92,-126 725.92,-126 722.92,-122 658.08,-122 658.08,-86 749.92,-86 749.92,-122"/>
<text text-anchor="middle" x="704" y="-99.8" font-family="Times,serif" font-size="14.00">TableModule</text>
</g>
<!-- TableModule&#45;&gt;PageElementModule -->
<g id="edge22" class="edge">
<title>TableModule&#45;&gt;PageElementModule</title>
<path fill="none" stroke="black" d="M704,-122.03C704,-142.77 704,-174 704,-174 704,-174 1738,-174 1738,-174"/>
<polygon fill="black" stroke="black" points="1738,-177.5 1748,-174 1738,-170.5 1738,-177.5"/>
</g>
<!-- TableVersionModule -->
<g id="node23" class="node">
<title>TableVersionModule</title>
<polygon fill="#8dd3c7" stroke="black" points="639.74,-122 636.74,-126 615.74,-126 612.74,-122 504.26,-122 504.26,-86 639.74,-86 639.74,-122"/>
<text text-anchor="middle" x="572" y="-99.8" font-family="Times,serif" font-size="14.00">TableVersionModule</text>
</g>
<!-- TableVersionModule&#45;&gt;PageElementModule -->
<g id="edge23" class="edge">
<title>TableVersionModule&#45;&gt;PageElementModule</title>
<path fill="none" stroke="black" d="M572,-122.17C572,-143.5 572,-176 572,-176 572,-176 1738.17,-176 1738.17,-176"/>
<polygon fill="black" stroke="black" points="1738.17,-179.5 1748.17,-176 1738.17,-172.5 1738.17,-179.5"/>
</g>
<!-- UseButtonModule -->
<g id="node24" class="node">
<title>UseButtonModule</title>
<polygon fill="#8dd3c7" stroke="black" points="485.93,-122 482.93,-126 461.93,-126 458.93,-122 366.07,-122 366.07,-86 485.93,-86 485.93,-122"/>
<text text-anchor="middle" x="426" y="-99.8" font-family="Times,serif" font-size="14.00">UseButtonModule</text>
</g>
<!-- UseButtonModule&#45;&gt;PageElementModule -->
<g id="edge24" class="edge">
<title>UseButtonModule&#45;&gt;PageElementModule</title>
<path fill="none" stroke="black" d="M426,-122.16C426,-144.35 426,-179 426,-179 426,-179 1738.01,-179 1738.01,-179"/>
<polygon fill="black" stroke="black" points="1738.01,-182.5 1748.01,-179 1738.01,-175.5 1738.01,-182.5"/>
</g>
<!-- YoutubeModelModule -->
<g id="node25" class="node">
<title>YoutubeModelModule</title>
<polygon fill="#8dd3c7" stroke="black" points="348.31,-122 345.31,-126 324.31,-126 321.31,-122 203.69,-122 203.69,-86 348.31,-86 348.31,-122"/>
<text text-anchor="middle" x="276" y="-99.8" font-family="Times,serif" font-size="14.00">YoutubeModelModule</text>
</g>
<!-- YoutubeModelModule&#45;&gt;PageElementModule -->
<g id="edge25" class="edge">
<title>YoutubeModelModule&#45;&gt;PageElementModule</title>
<path fill="none" stroke="black" d="M276,-122.09C276,-145.13 276,-182 276,-182 276,-182 1737.88,-182 1737.88,-182"/>
<polygon fill="black" stroke="black" points="1737.88,-185.5 1747.88,-182 1737.88,-178.5 1737.88,-185.5"/>
</g>
</g>
</svg>
