<svg width="44" height="44" viewBox="0 0 44 44" fill="none" xmlns="http://www.w3.org/2000/svg">
<g clip-path="url(#clip0_1183_49876)">
<path d="M20.6596 23.1715L13.3232 9H8.31592L15.6522 23.1715L8.3235 34.9879L13.3384 34.9753L20.6596 23.1715Z" fill="#990000"/>
<path d="M8.3471 9H3L3.00997 9.01926L3.01954 9.03768C3.02792 9.05401 3.03908 9.07536 3.05304 9.10216C3.05822 9.11221 3.06381 9.12351 3.07019 9.13482L3.11605 9.22358C3.132 9.25457 3.14995 9.2889 3.16909 9.32616C3.17866 9.34458 3.18863 9.36384 3.199 9.38352C3.21495 9.41451 3.2317 9.44675 3.24925 9.48108C3.26281 9.50704 3.27677 9.53383 3.29112 9.56147C3.32462 9.62595 3.36012 9.69503 3.3984 9.76914C3.42472 9.8198 3.45184 9.87256 3.48055 9.92782L3.48534 9.93704C3.52921 10.0216 3.57547 10.1112 3.62412 10.205C3.64685 10.2485 3.66998 10.2933 3.69351 10.339C3.74217 10.4328 3.79241 10.5303 3.84506 10.6316C3.93319 10.8016 4.02691 10.9825 4.12501 11.1726C4.20278 11.3229 4.28374 11.4791 4.36708 11.6403C4.3958 11.6955 4.42451 11.7517 4.45402 11.8082C4.64505 12.177 4.84883 12.571 5.06179 12.9822C5.11124 13.0777 5.16109 13.174 5.21134 13.2711C5.29828 13.439 5.38642 13.609 5.47535 13.7815C5.48931 13.8087 5.50366 13.8359 5.51762 13.8635C5.58223 13.9883 5.64723 14.1143 5.71303 14.2412L5.74813 14.3086C7.83066 18.3318 10.3367 23.1723 10.3367 23.1723L3 35H3.54117L8.35428 34.9879L15.683 23.1715L8.3471 9Z" fill="#990000"/>
<path d="M18.3237 9H13.8819H13.3013L20.6376 23.1715L13.3013 35H13.8321L18.3309 34.9887L25.6601 23.1715L18.3237 9Z" fill="#DF3603"/>
<path d="M23.3494 9.00628H23.9301H28.6814L28.6782 9H18.9044H18.3237L25.66 23.1715L18.3309 34.9887L18.3237 35H18.8653L23.3606 34.9887L30.6857 23.1778L23.3494 9.00628Z" fill="#DF3603"/>
<path d="M28.4863 9H23.8897H23.3091L30.6454 23.1715L23.3202 34.9824L23.3091 35H23.8507L28.4935 34.9883L35.8226 23.1715L28.4863 9Z" fill="#FFAA00"/>
<path d="M33.6635 9H29.067H28.6411H28.4863L35.8226 23.1715L28.4935 34.9883L28.4863 35H29.0279L33.8685 34.9879L40.9999 23.3474L33.6635 9Z" fill="#FFAA00"/>
</g>
<defs>
<clipPath id="clip0_1183_49876">
<rect width="38" height="26" fill="white" transform="translate(3 9)"/>
</clipPath>
</defs>
</svg>
