<?xml version="1.0" encoding="UTF-8" standalone="no"?>
<!DOCTYPE svg PUBLIC "-//W3C//DTD SVG 1.1//EN"
 "http://www.w3.org/Graphics/SVG/1.1/DTD/svg11.dtd">
<!-- Generated by graphviz version 2.47.0 (20210316.0004)
 -->
<!-- Title: dependencies Pages: 1 -->
<svg width="504pt" height="284pt"
 viewBox="0.00 0.00 504.00 284.00" xmlns="http://www.w3.org/2000/svg" xmlns:xlink="http://www.w3.org/1999/xlink">
<g id="graph0" class="graph" transform="scale(1 1) rotate(0) translate(4 280)">
<title>dependencies</title>
<polygon fill="white" stroke="transparent" points="-4,4 -4,-280 500,-280 500,4 -4,4"/>
<text text-anchor="start" x="227.01" y="-42.4" font-family="Times-12" font-weight="bold" font-size="14.00">Legend</text>
<polygon fill="#ffffb3" stroke="transparent" points="14,-10 14,-30 34,-30 34,-10 14,-10"/>
<text text-anchor="start" x="37.63" y="-15.4" font-family="Times-12" font-size="14.00"> &#160;Declarations</text>
<polygon fill="#8dd3c7" stroke="transparent" points="127,-10 127,-30 147,-30 147,-10 127,-10"/>
<text text-anchor="start" x="150.73" y="-15.4" font-family="Times-12" font-size="14.00"> &#160;Module</text>
<polygon fill="#80b1d3" stroke="transparent" points="213,-10 213,-30 233,-30 233,-10 213,-10"/>
<text text-anchor="start" x="236.78" y="-15.4" font-family="Times-12" font-size="14.00"> &#160;Bootstrap</text>
<polygon fill="#fdb462" stroke="transparent" points="310,-10 310,-30 330,-30 330,-10 310,-10"/>
<text text-anchor="start" x="333.67" y="-15.4" font-family="Times-12" font-size="14.00"> &#160;Providers</text>
<polygon fill="#fb8072" stroke="transparent" points="406,-10 406,-30 426,-30 426,-10 406,-10"/>
<text text-anchor="start" x="429.73" y="-15.4" font-family="Times-12" font-size="14.00"> &#160;Exports</text>
<g id="clust1" class="cluster">
<title>cluster_LoadingModule</title>
<polygon fill="none" stroke="black" stroke-dasharray="1,5" points="166,-70 166,-268 330,-268 330,-70 166,-70"/>
</g>
<g id="clust5" class="cluster">
<title>cluster_LoadingModule_exports</title>
<polygon fill="none" stroke="black" points="174,-208 174,-260 322,-260 322,-208 174,-208"/>
</g>
<g id="clust2" class="cluster">
<title>cluster_LoadingModule_declarations</title>
<polygon fill="none" stroke="black" points="176,-78 176,-130 320,-130 320,-78 176,-78"/>
</g>
<!-- LoadingComponent -->
<g id="node1" class="node">
<title>LoadingComponent</title>
<polygon fill="#ffffb3" stroke="black" points="311.99,-122 184.01,-122 184.01,-86 311.99,-86 311.99,-122"/>
<text text-anchor="middle" x="248" y="-99.8" font-family="Times,serif" font-size="14.00">LoadingComponent</text>
</g>
<!-- LoadingModule -->
<g id="node2" class="node">
<title>LoadingModule</title>
<polygon fill="#8dd3c7" stroke="black" points="301.21,-187 298.21,-191 277.21,-191 274.21,-187 194.79,-187 194.79,-151 301.21,-151 301.21,-187"/>
<text text-anchor="middle" x="248" y="-164.8" font-family="Times,serif" font-size="14.00">LoadingModule</text>
</g>
<!-- LoadingComponent&#45;&gt;LoadingModule -->
<g id="edge1" class="edge">
<title>LoadingComponent&#45;&gt;LoadingModule</title>
<path fill="none" stroke="black" d="M248,-122.11C248,-122.11 248,-140.99 248,-140.99"/>
<polygon fill="black" stroke="black" points="244.5,-140.99 248,-150.99 251.5,-140.99 244.5,-140.99"/>
</g>
<!-- LoadingComponent  -->
<g id="node3" class="node">
<title>LoadingComponent </title>
<polygon fill="#fb8072" stroke="black" points="313.99,-252 182.01,-252 182.01,-216 313.99,-216 313.99,-252"/>
<text text-anchor="middle" x="248" y="-229.8" font-family="Times,serif" font-size="14.00">LoadingComponent </text>
</g>
<!-- LoadingModule&#45;&gt;LoadingComponent  -->
<g id="edge2" class="edge">
<title>LoadingModule&#45;&gt;LoadingComponent </title>
<path fill="none" stroke="black" stroke-dasharray="5,2" d="M248,-187.11C248,-187.11 248,-205.99 248,-205.99"/>
<polygon fill="black" stroke="black" points="244.5,-205.99 248,-215.99 251.5,-205.99 244.5,-205.99"/>
</g>
</g>
</svg>
