<svg width="25" height="24" viewBox="0 0 25 24" fill="none" xmlns="http://www.w3.org/2000/svg">
<path fill-rule="evenodd" clip-rule="evenodd" d="M2.7382 4.34784C2.26953 5.26766 2.26953 6.47177 2.26953 8.88V15.12C2.26953 17.5282 2.26953 18.7323 2.7382 19.6522C3.15046 20.4613 3.80828 21.1191 4.61737 21.5313C5.53719 22 6.74131 22 9.14953 22H15.3895C17.7978 22 19.0019 22 19.9217 21.5313C20.7308 21.1191 21.3886 20.4613 21.8009 19.6522C22.2695 18.7323 22.2695 17.5282 22.2695 15.12V8.88C22.2695 6.47177 22.2695 5.26766 21.8009 4.34784C21.3886 3.53874 20.7308 2.88093 19.9217 2.46867C19.0019 2 17.7978 2 15.3895 2H9.14953C6.74131 2 5.53719 2 4.61737 2.46867C3.80828 2.88093 3.15046 3.53874 2.7382 4.34784ZM5.59382 7.19746C5.12671 8.11423 5.12671 9.31434 5.12671 11.7146V12.286C5.12671 14.6862 5.12671 15.8863 5.59382 16.8031C6.00471 17.6095 6.66034 18.2651 7.46675 18.676C8.38351 19.1431 9.58363 19.1431 11.9839 19.1431H12.5553C14.9555 19.1431 16.1556 19.1431 17.0724 18.676C17.8788 18.2651 18.5344 17.6095 18.9453 16.8031C19.4124 15.8863 19.4124 14.6862 19.4124 12.286V11.7146C19.4124 9.31434 19.4124 8.11423 18.9453 7.19746C18.5344 6.39105 17.8788 5.73542 17.0724 5.32454C16.1556 4.85742 14.9555 4.85742 12.5553 4.85742H11.9839C9.58363 4.85742 8.38351 4.85742 7.46675 5.32454C6.66034 5.73542 6.00471 6.39105 5.59382 7.19746ZM12.5553 6.28599H11.9839C10.7602 6.28599 9.92832 6.2871 9.28533 6.33964C8.65903 6.39081 8.33874 6.48356 8.11531 6.5974C7.5777 6.87133 7.14061 7.30841 6.86669 7.84602C6.75285 8.06945 6.6601 8.38974 6.60893 9.01605C6.55639 9.65903 6.55528 10.4909 6.55528 11.7146V12.286C6.55528 13.5097 6.55639 14.3415 6.60893 14.9845C6.6601 15.6108 6.75285 15.9311 6.86669 16.1545C7.14061 16.6921 7.5777 17.1292 8.11531 17.4032C8.33874 17.517 8.65903 17.6097 9.28533 17.6609C9.92832 17.7135 10.7602 17.7146 11.9839 17.7146H12.5553C13.779 17.7146 14.6108 17.7135 15.2538 17.6609C15.8801 17.6097 16.2004 17.517 16.4238 17.4032C16.9614 17.1292 17.3985 16.6921 17.6724 16.1545C17.7863 15.9311 17.879 15.6108 17.9302 14.9845C17.9827 14.3415 17.9839 13.5097 17.9839 12.286V11.7146C17.9839 10.4909 17.9827 9.65903 17.9302 9.01605C17.879 8.38974 17.7863 8.06945 17.6724 7.84602C17.3985 7.30841 16.9614 6.87133 16.4238 6.5974C16.2004 6.48356 15.8801 6.39081 15.2538 6.33964C14.6108 6.2871 13.779 6.28599 12.5553 6.28599ZM17.2696 8.07171C17.2696 8.66344 16.7899 9.14314 16.1981 9.14314C15.6064 9.14314 15.1267 8.66344 15.1267 8.07171C15.1267 7.47997 15.6064 7.00028 16.1981 7.00028C16.7899 7.00028 17.2696 7.47997 17.2696 8.07171ZM12.2696 15.5717C14.242 15.5717 15.841 13.9727 15.841 12.0003C15.841 10.0278 14.242 8.42885 12.2696 8.42885C10.2971 8.42885 8.69814 10.0278 8.69814 12.0003C8.69814 13.9727 10.2971 15.5717 12.2696 15.5717ZM12.2696 14.1431C13.453 14.1431 14.4124 13.1837 14.4124 12.0003C14.4124 10.8168 13.453 9.85742 12.2696 9.85742C11.0861 9.85742 10.1267 10.8168 10.1267 12.0003C10.1267 13.1837 11.0861 14.1431 12.2696 14.1431Z" fill="currentColor"/>
</svg>
