<?xml version="1.0" encoding="UTF-8" standalone="no"?>
<!DOCTYPE svg PUBLIC "-//W3C//DTD SVG 1.1//EN"
 "http://www.w3.org/Graphics/SVG/1.1/DTD/svg11.dtd">
<!-- Generated by graphviz version 2.47.0 (20210316.0004)
 -->
<!-- Title: dependencies Pages: 1 -->
<svg width="504pt" height="284pt"
 viewBox="0.00 0.00 504.00 284.00" xmlns="http://www.w3.org/2000/svg" xmlns:xlink="http://www.w3.org/1999/xlink">
<g id="graph0" class="graph" transform="scale(1 1) rotate(0) translate(4 280)">
<title>dependencies</title>
<polygon fill="white" stroke="transparent" points="-4,4 -4,-280 500,-280 500,4 -4,4"/>
<text text-anchor="start" x="227.01" y="-42.4" font-family="Times-12" font-weight="bold" font-size="14.00">Legend</text>
<polygon fill="#ffffb3" stroke="transparent" points="14,-10 14,-30 34,-30 34,-10 14,-10"/>
<text text-anchor="start" x="37.63" y="-15.4" font-family="Times-12" font-size="14.00"> &#160;Declarations</text>
<polygon fill="#8dd3c7" stroke="transparent" points="127,-10 127,-30 147,-30 147,-10 127,-10"/>
<text text-anchor="start" x="150.73" y="-15.4" font-family="Times-12" font-size="14.00"> &#160;Module</text>
<polygon fill="#80b1d3" stroke="transparent" points="213,-10 213,-30 233,-30 233,-10 213,-10"/>
<text text-anchor="start" x="236.78" y="-15.4" font-family="Times-12" font-size="14.00"> &#160;Bootstrap</text>
<polygon fill="#fdb462" stroke="transparent" points="310,-10 310,-30 330,-30 330,-10 310,-10"/>
<text text-anchor="start" x="333.67" y="-15.4" font-family="Times-12" font-size="14.00"> &#160;Providers</text>
<polygon fill="#fb8072" stroke="transparent" points="406,-10 406,-30 426,-30 426,-10 406,-10"/>
<text text-anchor="start" x="429.73" y="-15.4" font-family="Times-12" font-size="14.00"> &#160;Exports</text>
<g id="clust1" class="cluster">
<title>cluster_LegendModule</title>
<polygon fill="none" stroke="black" stroke-dasharray="1,5" points="113,-70 113,-268 383,-268 383,-70 113,-70"/>
</g>
<g id="clust5" class="cluster">
<title>cluster_LegendModule_exports</title>
<polygon fill="none" stroke="black" points="177,-208 177,-260 319,-260 319,-208 177,-208"/>
</g>
<g id="clust2" class="cluster">
<title>cluster_LegendModule_declarations</title>
<polygon fill="none" stroke="black" points="235,-78 235,-130 375,-130 375,-78 235,-78"/>
</g>
<g id="clust4" class="cluster">
<title>cluster_LegendModule_imports</title>
<polygon fill="none" stroke="black" points="121,-78 121,-130 227,-130 227,-78 121,-78"/>
</g>
<!-- LegendComponent -->
<g id="node1" class="node">
<title>LegendComponent</title>
<polygon fill="#ffffb3" stroke="black" points="366.81,-122 243.19,-122 243.19,-86 366.81,-86 366.81,-122"/>
<text text-anchor="middle" x="305" y="-99.8" font-family="Times,serif" font-size="14.00">LegendComponent</text>
</g>
<!-- LegendModule -->
<g id="node2" class="node">
<title>LegendModule</title>
<polygon fill="#8dd3c7" stroke="black" points="298.53,-187 295.53,-191 274.53,-191 271.53,-187 197.47,-187 197.47,-151 298.53,-151 298.53,-187"/>
<text text-anchor="middle" x="248" y="-164.8" font-family="Times,serif" font-size="14.00">LegendModule</text>
</g>
<!-- LegendComponent&#45;&gt;LegendModule -->
<g id="edge1" class="edge">
<title>LegendComponent&#45;&gt;LegendModule</title>
<path fill="none" stroke="black" d="M271.05,-122.11C271.05,-122.11 271.05,-140.99 271.05,-140.99"/>
<polygon fill="black" stroke="black" points="267.55,-140.99 271.05,-150.99 274.55,-140.99 267.55,-140.99"/>
</g>
<!-- LegendComponent  -->
<g id="node4" class="node">
<title>LegendComponent </title>
<polygon fill="#fb8072" stroke="black" points="311.31,-252 184.69,-252 184.69,-216 311.31,-216 311.31,-252"/>
<text text-anchor="middle" x="248" y="-229.8" font-family="Times,serif" font-size="14.00">LegendComponent </text>
</g>
<!-- LegendModule&#45;&gt;LegendComponent  -->
<g id="edge3" class="edge">
<title>LegendModule&#45;&gt;LegendComponent </title>
<path fill="none" stroke="black" stroke-dasharray="5,2" d="M248,-187.11C248,-187.11 248,-205.99 248,-205.99"/>
<polygon fill="black" stroke="black" points="244.5,-205.99 248,-215.99 251.5,-205.99 244.5,-205.99"/>
</g>
<!-- OrderByPipe -->
<g id="node3" class="node">
<title>OrderByPipe</title>
<polygon fill="#8dd3c7" stroke="black" points="218.87,-122 215.87,-126 194.87,-126 191.87,-122 129.13,-122 129.13,-86 218.87,-86 218.87,-122"/>
<text text-anchor="middle" x="174" y="-99.8" font-family="Times,serif" font-size="14.00">OrderByPipe</text>
</g>
<!-- OrderByPipe&#45;&gt;LegendModule -->
<g id="edge2" class="edge">
<title>OrderByPipe&#45;&gt;LegendModule</title>
<path fill="none" stroke="black" d="M208.08,-122.11C208.08,-122.11 208.08,-140.99 208.08,-140.99"/>
<polygon fill="black" stroke="black" points="204.58,-140.99 208.08,-150.99 211.58,-140.99 204.58,-140.99"/>
</g>
</g>
</svg>
