<svg width="40" height="38" viewBox="0 0 40 38" fill="none" xmlns="http://www.w3.org/2000/svg">
<path d="M29 0.649902C25.52 0.649902 22.18 2.2699 20 4.8299C17.82 2.2699 14.48 0.649902 11 0.649902C4.84 0.649902 0 5.4899 0 11.6499C0 19.2099 6.8 25.3699 17.1 34.7299L20 37.3499L22.9 34.7099C33.2 25.3699 40 19.2099 40 11.6499C40 5.4899 35.16 0.649902 29 0.649902ZM20.2 31.7499L20 31.9499L19.8 31.7499C10.28 23.1299 4 17.4299 4 11.6499C4 7.6499 7 4.6499 11 4.6499C14.08 4.6499 17.08 6.6299 18.14 9.3699H21.88C22.92 6.6299 25.92 4.6499 29 4.6499C33 4.6499 36 7.6499 36 11.6499C36 17.4299 29.72 23.1299 20.2 31.7499Z" fill="#990000"/>
</svg>
