<svg width="55" height="55" viewBox="0 0 55 55" fill="none" xmlns="http://www.w3.org/2000/svg">
<g clip-path="url(#clip0_1116_9719)">
<path d="M41.9132 8.14616C41.57 7.73438 41.1906 7.3584 40.7752 7.03613C39.2577 5.83659 37.3789 5.17415 35.446 5.15625C33.0614 5.17415 30.7852 6.17676 29.1775 7.94922C28.9607 8.19987 28.762 8.45052 28.5632 8.71908C27.8948 9.52474 26.9193 10.026 25.8716 10.1156C24.7696 10.0618 23.7399 9.56055 23.0354 8.71908C22.8547 8.45052 22.656 8.18197 22.4212 7.94922C20.8315 6.17676 18.5191 5.15625 16.1165 5.15625C11.528 5.15625 7.78857 8.80859 7.73438 13.3561C7.73438 13.6784 7.73438 14.0186 7.73438 14.3408C8.07761 18.387 10.408 21.6634 13.1539 25.4053C14.7074 27.8044 15.6649 30.5257 15.972 33.3545V48.125H35.5724V33.3545C35.8796 30.5257 36.837 27.8044 38.3906 25.4053C41.1364 21.6634 43.4668 18.387 43.8101 14.3408C43.8101 14.0186 43.8101 13.6784 43.8101 13.3561C43.8101 11.4583 43.1236 9.59635 41.8952 8.14616H41.9132ZM33.3143 10.5452C34.4886 10.5452 35.6266 10.9391 36.548 11.6732C36.8009 11.8701 37.0357 12.1029 37.2344 12.3535C37.3428 12.443 37.4331 12.5326 37.5054 12.64C35.9879 11.7448 34.344 11.0465 32.6459 10.5452H33.3143ZM37.9931 15.0391C37.108 14.9674 36.2228 15.1107 35.3918 15.415L35.2292 15.5225C35.3015 14.4661 35.0305 13.4098 34.4705 12.5146C35.3737 12.998 36.8009 13.6963 36.9815 13.8574C37.3789 14.1976 37.7222 14.5915 37.9931 15.0391ZM32.2666 12.2461C32.6459 12.4788 32.953 12.7653 33.2059 13.1234C33.7479 13.8574 34.0008 14.7526 33.8924 15.6478C33.6395 16.2207 33.2782 16.7399 32.8266 17.1875L32.5195 17.7604L32.3388 18.1185V18.208C31.9595 18.0469 31.5982 17.8499 31.2549 17.6351C31.1104 17.5635 30.984 17.474 30.8575 17.3844L30.6949 17.2412C30.5865 17.1338 30.4781 17.0264 30.3878 16.901C30.3878 16.8652 30.3878 16.8473 30.3878 16.8115V16.7041L30.442 16.7578C30.8394 16.4176 31.1827 16.0059 31.4356 15.5404C31.9414 14.5199 32.2304 13.3919 32.2666 12.2461ZM26.9013 24.5101C26.5038 24.707 26.1245 24.9398 25.7812 25.2083L24.8599 25.8171C24.8419 25.6917 24.8057 25.5843 24.7515 25.4769C25.4019 25.0472 25.8896 24.4206 26.1425 23.6865C26.3413 22.9525 26.0703 22.0394 26.6664 21.4307C26.811 21.2874 26.9735 21.1621 27.1361 21.0547C27.5155 21.7708 28.0755 22.3796 28.7439 22.8451C29.5207 23.3822 30.3697 23.8298 31.273 24.1341H31.4536C31.7969 24.5996 32.0498 25.1188 32.1582 25.6917C31.0743 25.3874 30.0807 24.7786 28.9968 24.5101C28.3103 24.3132 27.5877 24.3132 26.9013 24.5101ZM28.78 25.9961C28.5813 26.4974 28.3465 26.9629 28.1116 27.4463C27.4794 27.0703 26.7387 26.8555 25.998 26.8376L26.2871 26.6585C26.5942 26.4079 26.9193 26.1751 27.2806 25.9961C27.7684 25.835 28.2923 25.835 28.78 25.9961ZM22.8005 22.666C22.8547 22.2184 22.9631 21.7887 23.1618 21.3949C23.5231 20.4997 24.1012 19.694 24.878 19.1032C25.8174 18.4945 26.811 17.9753 27.8407 17.5635C27.9671 17.5814 28.0755 17.5814 28.202 17.5635C28.5452 17.5635 28.8884 17.4919 29.2136 17.3665C29.3762 17.653 29.5749 17.9036 29.8097 18.1364L28.0032 18.9958C27.2084 19.318 26.4497 19.7477 25.7632 20.2848C25.1128 20.8936 24.7515 21.7529 24.8057 22.6302C24.8057 23.0062 24.7335 23.3643 24.5709 23.7044C24.4264 23.9193 24.2457 24.1162 24.029 24.2952L23.6496 23.8118C23.3064 23.4359 22.8005 23.221 22.8005 22.666ZM23.5231 27.4463C22.9812 27.8044 22.5115 28.2341 22.1321 28.7533L21.3373 28.055C21.9695 27.1061 22.4212 26.0319 22.6741 24.9219C23.2702 25.638 23.5593 26.5332 23.5231 27.4463ZM31.8149 21.8783L31.5982 22.1647L31.4898 22.3079C31.3994 22.3975 31.3272 22.487 31.2549 22.5944L30.8033 22.3975C30.3697 22.1826 29.9543 21.9499 29.5568 21.6813C29.1955 21.4486 28.8704 21.18 28.5813 20.8757C28.4549 20.7503 28.3645 20.6071 28.2742 20.4639L28.6536 20.2848L31.0743 19.1569L32.2124 19.7119C32.2124 19.7119 32.375 19.7298 32.4653 19.7119C32.5014 20.0163 32.6098 20.3027 32.7543 20.5713L32.6821 20.6071C32.4111 21.0368 32.122 21.4665 31.8149 21.8783ZM29.0149 12.7295C29.1233 12.5684 29.2497 12.4072 29.3762 12.264C29.7013 11.9417 30.0626 11.6553 30.442 11.4046H30.8214C30.8214 12.3714 30.6588 13.3561 30.3336 14.2692L30.1349 14.1618L29.9362 14.0186L29.611 13.75C29.3942 13.5531 29.1955 13.3382 29.0149 13.1234H28.8884L28.78 12.998L29.0149 12.7295ZM24.047 13.75C24.6251 14.1081 25.2935 14.3229 25.98 14.3408C26.6122 14.305 27.2445 14.126 27.7865 13.7858C28.2742 14.4661 28.8884 15.0391 29.593 15.4688H29.7013C29.4665 15.7015 29.1955 15.8805 28.9065 16.0238C28.5452 16.2565 28.0755 16.2565 27.7142 16.0238C27.4432 15.7373 27.1542 15.4867 26.8471 15.236C26.2148 14.86 25.4922 14.6452 24.7515 14.6452C24.3541 14.3408 23.8844 14.1439 23.3786 14.0723L24.047 13.75ZM26.0522 16.3818C26.2148 16.4714 26.3413 16.5788 26.4677 16.7041C25.6729 16.901 24.8961 17.1696 24.1554 17.5098C23.5412 17.9395 22.9812 18.4766 22.5476 19.0853L22.4573 18.9779L22.3128 18.7451C22.1683 18.5482 22.0418 18.3512 21.9515 18.1364V18.029C21.8612 17.9036 21.8612 17.7604 21.8612 17.653V17.5456C21.8612 17.4202 21.8612 17.277 21.8612 17.1517C22.9451 16.0238 24.6432 15.7015 26.0522 16.3818ZM18.5372 10.6348C20.0005 10.6348 21.3915 11.2435 22.367 12.3177C22.5115 12.4788 22.6379 12.6579 22.7644 12.8369H22.8547C22.4392 13.016 22.0237 13.1771 21.5902 13.2845C20.1992 13.4993 18.7901 13.1771 17.634 12.4072C17.0198 12.0492 16.4417 11.6553 15.8275 11.333C16.6404 10.8496 17.5798 10.6169 18.5372 10.6348ZM14.6532 12.3356L14.9242 12.4609H14.9423L13.8403 13.5889C14.039 13.1234 14.31 12.7116 14.6532 12.3356ZM13.5513 15.988V15.8626L13.8042 15.612C15.1591 17.5098 15.9359 19.7477 16.0804 22.0752C14.7074 20.3027 13.8403 18.208 13.5513 15.988ZM16.1888 16.722V16.8831C15.7733 16.0775 15.2675 15.3255 14.6713 14.6273L16.0984 13.1771C16.6765 13.5531 17.2727 13.8753 17.9049 14.1439C17.5256 14.3229 17.1823 14.5915 16.9114 14.9316C16.6043 15.5046 16.3694 16.0954 16.1888 16.722ZM17.7243 16.9906L18.0314 16.1849C18.1037 15.9521 18.194 15.7373 18.3024 15.5404C18.3204 15.4867 18.3566 15.4329 18.3927 15.3971L18.6095 15.1823H18.7179C18.8082 15.1286 18.9166 15.0749 19.025 15.0212H19.1514L19.4405 14.9137L19.9282 14.8063C20.1269 14.9674 20.3437 15.1107 20.5785 15.2181C21.0663 15.3076 21.5721 15.3613 22.0779 15.3434C21.4276 15.6836 20.8495 16.1491 20.3798 16.7041C19.9824 17.3307 19.6572 17.9932 19.4405 18.6914C18.9166 19.2822 18.194 19.6761 17.4172 19.8193C17.3269 19.3896 17.2185 18.9779 17.1101 18.5661C17.3088 18.0469 17.5075 17.5098 17.7243 16.9906ZM17.363 21.5381C18.2482 21.2874 19.0792 20.8577 19.8198 20.3027C20.2534 19.891 20.5785 19.3896 20.7592 18.8167C20.7773 18.9063 20.8134 18.9958 20.8495 19.0674C20.976 19.3001 21.1205 19.515 21.265 19.7298C21.4276 20.0163 21.6624 20.2669 21.9334 20.4639H22.0418C21.7708 20.9652 21.5902 21.5202 21.4818 22.0752V22.3079C21.3734 22.2184 21.265 22.1289 21.1386 22.0752C20.6147 21.8962 20.0547 21.8962 19.5308 22.0752C19.043 22.2184 18.6275 22.5049 18.1217 22.7555C17.923 22.8451 17.7062 22.8988 17.4894 22.9525C17.4714 22.487 17.363 22.0036 17.363 21.5381ZM17.6701 24.2415C17.8869 24.2057 18.0856 24.1699 18.2843 24.0983C18.7359 23.9193 19.1875 23.7223 19.6211 23.4896C19.8921 23.3285 20.2172 23.2568 20.5244 23.2747C20.6327 23.3105 20.7411 23.3643 20.8315 23.4359L21.247 23.8656C21.247 23.8656 21.3373 23.9909 21.3915 24.0267C21.2289 24.6354 21.0663 25.2262 20.8676 25.8171C20.8315 25.9603 20.7773 26.1035 20.7231 26.2467V26.3721L20.6147 26.6048C20.5424 26.7301 20.4702 26.8555 20.3798 26.9808C20.3798 27.0166 20.3437 27.0524 20.3256 27.0882L18.2843 25.2979C18.1037 24.9398 17.8869 24.5817 17.6701 24.2415ZM19.7837 30.4004C19.6572 29.5947 19.4947 28.807 19.2779 28.0192L21.4276 29.8633C20.9037 30.096 20.3437 30.2751 19.7837 30.4004ZM29.9723 34.3392V46.8717L21.807 46.7464V34.2139C21.5902 31.7253 23.3967 29.5231 25.8896 29.2367H25.9258C28.4549 29.541 30.2614 31.8148 29.9723 34.3392ZM32.122 30.1497C31.9775 30.0244 31.833 29.8812 31.6885 29.7738C30.9298 29.2008 30.1168 28.7174 29.2317 28.3594C29.5568 27.7148 29.8278 27.0524 30.0807 26.39C30.8214 26.7301 31.5982 26.9808 32.393 27.1419C32.4653 27.3568 32.5556 27.5716 32.6459 27.7865C32.4111 28.5563 32.2304 29.3441 32.122 30.1497ZM34.4524 23.8656C34.055 24.4206 33.7118 25.0293 33.4408 25.6559C33.3143 24.7965 33.0072 23.9909 32.5014 23.2747C32.8988 22.7555 33.2963 22.2184 33.6576 21.6634C33.9647 21.932 34.2898 22.1647 34.6331 22.3796C34.8318 22.5228 35.0486 22.6481 35.2653 22.7555C35.0124 23.1136 34.7415 23.4896 34.4524 23.8656ZM36.0421 21.6455C35.6628 21.4128 35.2834 21.1979 34.904 20.9294C34.055 20.3564 33.513 19.6045 34.055 18.5661L34.1634 18.387C34.2898 18.1006 34.5066 17.8499 34.7595 17.6709C34.886 17.5635 35.0124 17.474 35.157 17.3844C35.7892 18.1722 36.4396 19.1032 37.0718 19.9626C36.7828 20.4997 36.4396 21.0547 36.0421 21.6455ZM37.7222 18.584C37.2344 17.9215 36.7647 17.2412 36.277 16.5609C36.5118 16.5072 36.7647 16.4535 36.9996 16.4355C37.4331 16.3818 37.8667 16.3818 38.3003 16.4355C38.2099 17.1696 38.0112 17.9036 37.7222 18.584Z" fill="currentColor"/>
</g>
<defs>
<clipPath id="clip0_1116_9719">
<rect width="36.0938" height="42.9688" fill="currentColor" transform="translate(7.73438 5.15625)"/>
</clipPath>
</defs>
</svg>
