<svg width="24" height="24" viewBox="0 0 24 24" fill="none" xmlns="http://www.w3.org/2000/svg">
<path d="M18.2809 7.90797C18.2809 7.90797 18.2803 7.90858 18.2797 7.90918C18.2621 7.9255 18.253 7.94907 18.2543 7.97324C18.2937 9.09484 17.8121 9.42479 17.3948 9.50154C17.373 9.50577 17.3505 9.50758 17.3281 9.50758C16.9727 9.50758 16.5008 9.0477 16.3558 8.89723C16.3558 8.89723 16.3564 8.89783 16.3571 8.89843L16.3176 8.91838C16.3261 9.27431 16.4165 9.80188 16.6391 9.85506C16.8295 9.90038 16.9569 9.81336 17.1176 9.70277C17.2365 9.62119 17.3705 9.52873 17.5446 9.49187C17.7399 9.45017 17.9243 9.56559 18.102 9.67678C18.3683 9.84297 18.4987 9.90038 18.6297 9.74991C18.7698 9.58856 18.8753 9.29486 18.9354 8.98666C18.939 8.96853 18.936 8.9492 18.9275 8.93228C18.7565 8.59507 18.5818 8.25545 18.4132 7.93094C18.3877 7.88138 18.321 7.87111 18.2803 7.90918L18.2809 7.90797Z" fill="white"/>
<path d="M13.7073 5.32207C13.4089 5.19275 13.062 5.2278 12.6762 5.42662C11.764 5.89677 11.8853 8.45844 11.9017 8.73582C12.0212 8.86091 12.9783 9.03314 13.7977 8.99325C14.3302 8.96727 14.3848 8.86332 14.3854 8.86212C14.537 8.53458 14.5601 6.82318 14.3806 6.1814C14.2671 5.77651 14.016 5.45502 13.7085 5.32147L13.7073 5.32207Z" fill="white"/>
<path d="M16.2898 6.77377C16.2552 6.38943 16.1442 6.13381 15.9586 6.01294C15.8046 5.91202 15.5929 5.90538 15.3309 5.9924C14.7656 6.18034 14.7341 7.07592 14.7329 7.12245C14.7341 7.16053 14.7432 7.5358 14.6734 8.14676C14.6249 8.57461 14.6983 8.58911 14.9172 8.63383C14.9755 8.64531 15.0416 8.65861 15.1131 8.68097C15.3861 8.76436 16.0545 8.77222 16.2934 8.77161C16.3025 8.55467 16.3256 7.96124 16.3177 7.41252C16.3141 7.15932 16.305 6.94479 16.2898 6.77498V6.77377Z" fill="white"/>
<path d="M10.9151 5.42787C10.6809 5.30701 10.4614 5.24658 10.2582 5.24658C10.1266 5.24658 10.0016 5.27196 9.88397 5.32273C9.57646 5.45628 9.32475 5.77777 9.21194 6.18266C9.03241 6.82443 9.05546 8.53584 9.20709 8.86337C9.20709 8.86458 9.26168 8.96852 9.79481 8.99451C10.6142 9.03439 11.5713 8.86216 11.6908 8.73707C11.7066 8.45969 11.8279 5.89742 10.9163 5.42787H10.9151Z" fill="white"/>
<path d="M8.47759 8.68097C8.54916 8.65921 8.61527 8.64592 8.67349 8.63383C8.89245 8.58972 8.96644 8.57461 8.91732 8.14676C8.84757 7.5358 8.85727 7.16053 8.85788 7.12245C8.85666 7.07592 8.82512 6.18034 8.25985 5.9924C7.99722 5.90538 7.78615 5.91202 7.6321 6.01294C7.44711 6.13381 7.33551 6.39003 7.30094 6.77437C7.28577 6.94358 7.27607 7.15811 7.27304 7.41192C7.26576 7.96063 7.2882 8.55406 7.2973 8.77101H7.30761C7.55385 8.77101 8.2089 8.76315 8.47759 8.68036V8.68097Z" fill="white"/>
<path d="M4.72781 15.8241C4.73387 15.8192 4.73933 15.8138 4.746 15.8096C4.81029 15.7655 4.88368 15.754 4.95828 15.7757C5.19483 15.8452 5.56481 15.7479 5.89172 15.6627C5.98149 15.6392 6.06943 15.6162 6.15313 15.5969C6.28778 15.5654 6.42243 15.5836 6.54495 15.6464C6.54859 15.5884 6.54677 15.5286 6.53464 15.4699C6.48308 15.2107 6.24957 14.6596 5.89475 14.7043C5.80681 14.7158 5.70795 14.7381 5.60362 14.7623C5.37072 14.8155 5.10749 14.8759 4.90916 14.8233C4.72417 14.7744 4.55859 14.9339 4.43182 15.1261C4.52402 15.3588 4.62288 15.5926 4.72781 15.8247V15.8241Z" fill="white"/>
<path d="M12.0676 16.6074C12.1149 16.614 12.158 16.5802 12.1634 16.5331C12.2132 16.1264 12.1998 15.8611 12.1798 15.7106C12.1737 15.6629 12.2083 15.6193 12.2562 15.6157C12.7002 15.5819 13.1994 15.4308 13.801 15.157C15.2179 14.5122 16.2205 14.8059 16.491 14.899C16.7615 14.9915 16.9283 15.1486 16.4109 16.0152C15.8935 16.8811 14.9067 17.3042 13.5524 17.4722C12.198 17.6402 8.90217 17.5259 7.87108 16.7947C7.25425 16.3572 6.98617 15.8115 6.87032 15.4429C6.79147 15.1927 6.93825 14.9522 7.17661 14.8416C7.28821 14.7896 7.43135 14.7244 7.70914 14.6821C8.41331 14.5751 9.85865 14.6005 10.7284 15.1842C11.1135 15.4429 11.4926 15.5891 11.9142 15.6175C11.9536 15.6199 11.9863 15.6484 11.993 15.6876C12.013 15.8049 12.0379 16.0665 11.9833 16.5113C11.9778 16.5572 12.0106 16.5989 12.0561 16.605L12.0628 16.6062H12.0676V16.6074Z" fill="white"/>
<path d="M15.159 11.6321C14.7048 10.965 13.9357 10.4906 13.3158 10.4906C13.3037 10.4906 13.2922 10.4906 13.2807 10.4906C12.9768 10.4997 12.7433 10.6272 12.6044 10.8598C12.2993 11.3705 12.3848 11.8007 12.454 12.147C12.4831 12.292 12.5098 12.4292 12.5067 12.5561C12.4891 13.2462 12.2732 13.2698 12.0391 13.2722H12.0361C11.8201 13.2444 11.7395 13.2336 11.7152 12.6546C11.7098 12.5265 11.7377 12.3773 11.7668 12.2195C11.8365 11.84 11.9239 11.3681 11.62 10.8598C11.4817 10.6278 11.2403 10.5003 10.9231 10.4912C10.9104 10.4912 10.8976 10.4912 10.8849 10.4912C10.2305 10.4912 9.41226 10.9753 8.96464 11.6327C8.40725 12.451 8.37996 13.6318 8.38723 14.0192C8.38845 14.0881 8.44728 14.1418 8.51642 14.1376C8.58132 14.1334 8.63166 14.0802 8.63045 14.0155C8.62499 13.6542 8.6535 12.5211 9.1654 11.7687C9.57238 11.1717 10.3421 10.7178 10.9158 10.7341C11.1493 10.7408 11.3161 10.8254 11.4114 10.9849C11.6679 11.4152 11.5969 11.8026 11.5278 12.1772C11.4963 12.3489 11.4665 12.5114 11.4726 12.6661C11.5023 13.3713 11.6655 13.4692 12.0045 13.5127L12.0173 13.5146V13.5158C12.0173 13.5158 12.0215 13.5158 12.0239 13.5158L12.0318 13.517V13.5158C12.3697 13.5109 12.7269 13.4257 12.7487 12.564C12.753 12.4105 12.7227 12.2606 12.6911 12.1017C12.6244 11.7645 12.5546 11.4164 12.8124 10.9849C12.9082 10.8248 13.0678 10.7408 13.2873 10.7341C13.8289 10.7178 14.5453 11.1632 14.9577 11.7687C15.4702 12.5211 15.4981 13.6542 15.4926 14.0155C15.4914 14.0802 15.5418 14.134 15.6067 14.1376C15.6758 14.1418 15.7346 14.0881 15.7359 14.0192C15.7431 13.6318 15.7152 12.4504 15.1584 11.6327L15.159 11.6321Z" fill="white"/>
<path d="M6.20621 18.7652C4.07368 16.9172 3.11113 12.252 3.10203 12.2054C3.10021 12.1964 3.09839 12.1879 3.09657 12.1807C3.06261 12.2272 3.02743 12.3009 3.02622 12.3771C3.0244 12.4218 2.89157 16.3311 4.31386 18.8565C5.8429 21.5722 9.32677 22.1506 11.267 22.2539C11.3471 22.2575 12.1908 22.2454 12.2745 22.237C15.6243 21.8913 17.8648 20.754 18.9329 18.8571C20.3552 16.3317 20.2223 12.4218 20.2205 12.3825C20.2193 12.3027 20.1841 12.2284 20.1501 12.1813C20.1483 12.1885 20.1465 12.197 20.1447 12.206C20.1356 12.2526 19.173 16.9178 17.0399 18.7658C15.3143 20.2603 12.5759 20.082 12.044 20.0306C11.9512 20.0216 11.4496 20.0306 11.3738 20.0355C10.0873 20.1195 7.70614 20.0657 6.2056 18.7658L6.20621 18.7652Z" fill="white"/>
<path d="M14.2878 4.57104C14.4146 4.52209 14.5814 4.49732 14.7755 4.49732C15.7465 4.49732 17.3884 5.11129 18.0216 6.27882C18.6779 7.48985 20.4174 10.8565 20.666 11.6088C20.7364 11.8215 20.8213 11.9454 20.8735 11.998C20.9044 11.9285 20.9541 11.7526 20.9444 11.3441C20.8425 10.9803 19.6513 6.75441 18.8974 5.45212C18.0598 4.00541 16.5902 2.265 14.3485 2.19067C12.9147 2.14293 12.3282 2.29944 12.1062 2.39674C11.9 2.48738 11.6628 2.48738 11.4566 2.39674C11.2346 2.29944 10.6481 2.14293 9.21429 2.19067C6.97258 2.265 5.50359 4.00541 4.66598 5.45212C3.91268 6.75441 2.72147 10.9803 2.61958 11.3441C2.60927 11.7526 2.659 11.9285 2.68993 11.998C2.7427 11.9454 2.82761 11.8221 2.89736 11.6088C3.14483 10.8583 4.95833 7.3841 5.60548 6.19059C6.38972 4.74448 8.69147 4.30152 9.38715 4.57104C9.69284 4.68949 10.3321 4.87682 10.9144 4.99043C11.49 5.10283 12.0977 5.20315 12.6387 5.098C13.2222 4.98439 14.024 4.67317 14.2872 4.57104H14.2878Z" fill="white"/>
<path d="M12.2875 19.6251C12.4956 19.6384 12.8049 19.6493 13.1737 19.6354C13.2295 19.5447 13.2768 19.4329 13.3132 19.3006C13.4393 18.8359 13.3835 18.1276 13.3659 17.9433C13.2355 17.8865 12.8916 17.8654 12.5665 17.8654C12.2942 17.8654 12.0898 17.8787 11.9806 17.9004C11.8272 17.9312 11.7495 17.9463 11.812 18.3899C11.8702 18.8051 11.9994 19.3121 12.2881 19.6251H12.2875Z" fill="white"/>
<path d="M13.9948 19.566C14.3077 19.5243 14.6371 19.4602 14.967 19.3678C15.0774 18.9429 15.1302 18.3278 15.1411 17.773C15.1423 17.7174 15.0986 17.6709 15.0434 17.6697C15.0076 17.6685 14.9725 17.6685 14.9373 17.6685C14.2058 17.6685 13.5574 17.8812 13.478 17.9549C13.4277 18.0359 13.5162 18.5834 13.7261 19.0989C13.7897 19.2554 13.8844 19.4228 13.9941 19.5672L13.9948 19.566Z" fill="white"/>
<path d="M15.6615 19.1239C16.0369 18.9626 16.3984 18.7523 16.7211 18.4809C16.6938 17.9467 16.5094 17.4113 16.4117 17.2288C16.3741 17.2119 16.2704 17.1895 16.2352 17.1895C15.8016 17.2632 15.4243 17.4101 15.1859 17.5195C15.0689 17.5733 15.0143 17.708 15.061 17.8277C15.1835 18.1431 15.3964 18.6628 15.6117 19.0472C15.6269 19.0744 15.6439 19.0997 15.6621 19.1239H15.6615Z" fill="white"/>
<path d="M17.8275 17.1381C17.7735 17.1012 17.7086 17.0812 17.6401 17.0831C17.4884 17.0885 17.3762 17.1199 17.2676 17.1507C17.1239 17.1912 16.9759 17.2329 16.7564 17.2069C16.7315 17.2039 16.7048 17.2021 16.6769 17.2021C16.652 17.2021 16.6272 17.2039 16.6023 17.2082C16.7006 17.4245 16.8443 17.8668 16.8904 18.3291C17.2313 18.0058 17.5436 17.5955 17.8275 17.1387V17.1381Z" fill="white"/>
<path d="M16.3795 17.1244C16.3922 17.1256 16.4019 17.1244 16.4068 17.119C16.4729 17.0356 16.5123 16.9957 16.7792 17.0265C16.9623 17.0483 17.0818 17.0144 17.2195 16.9757C17.3329 16.9437 17.4609 16.9081 17.635 16.9014C17.7405 16.8972 17.8406 16.9274 17.9237 16.9818C18.0043 16.8458 18.082 16.7068 18.1578 16.5648C18.1414 16.557 18.125 16.5491 18.1074 16.5431C17.6811 16.3938 17.4008 16.6929 17.1358 16.563C16.8707 16.4325 16.6324 16.3038 16.4201 16.5914C16.3109 16.7395 16.2703 16.8434 16.2521 16.9413C16.2363 17.0277 16.2927 17.1141 16.3801 17.1232L16.3795 17.1244Z" fill="white"/>
<path d="M17.1512 16.4346L17.1743 16.4461C17.2677 16.492 17.3726 16.4648 17.5054 16.4304C17.6734 16.3869 17.8821 16.3331 18.1356 16.4219C18.1629 16.4316 18.189 16.4437 18.2132 16.4564C18.2897 16.3089 18.363 16.1597 18.434 16.0086C18.1526 16.0787 17.7862 15.9832 17.4308 15.8901C17.3429 15.8672 17.2568 15.8442 17.1743 15.8255C17.0117 15.7874 16.8886 15.8581 16.8134 15.9234C16.703 16.0195 16.6266 16.1693 16.6108 16.3053C16.7909 16.2582 16.9784 16.35 17.1506 16.4346H17.1512Z" fill="white"/>
<path d="M17.2164 15.6844C17.3001 15.7037 17.388 15.7267 17.4778 15.7502C17.8047 15.8361 18.1747 15.9327 18.4112 15.8632C18.4434 15.8536 18.4749 15.8518 18.5059 15.8548C18.6235 15.5967 18.7333 15.3357 18.8352 15.0764C18.7266 14.9532 18.5993 14.8734 18.461 14.9103C18.2626 14.9628 17.9994 14.9024 17.7665 14.8492C17.6622 14.825 17.5633 14.8027 17.4754 14.7912C17.1206 14.7465 16.887 15.2976 16.8355 15.5569C16.824 15.6155 16.8222 15.6753 16.8252 15.7333C16.9471 15.6705 17.0817 15.6523 17.217 15.6838L17.2164 15.6844Z" fill="white"/>
<path d="M19.0547 9.18237C18.9855 9.46882 18.8782 9.73169 18.7387 9.89244C18.4918 10.1771 18.2061 9.99819 17.9763 9.85497C17.8289 9.76311 17.6766 9.66763 17.5535 9.69362C17.4152 9.72323 17.3067 9.79756 17.192 9.87672C17.0507 9.97402 16.9051 10.0737 16.7117 10.0737C16.6735 10.0737 16.6328 10.0689 16.5904 10.0604C16.654 10.2991 16.7863 10.6309 16.9882 10.6466C17.1368 10.6575 17.2594 10.5209 17.3898 10.3759C17.5426 10.2055 17.7161 10.0127 17.9581 10.0864C18.0757 10.1221 18.1934 10.1904 18.3068 10.2568C18.4609 10.3463 18.6198 10.4387 18.7205 10.4079C18.7666 10.394 18.8054 10.3517 18.84 10.2792C19.011 9.91963 19.0704 9.46338 19.0826 9.23918C19.0735 9.22044 19.0638 9.20232 19.0547 9.18358V9.18237Z" fill="white"/>
<path d="M19.2535 9.57697C19.2141 9.81567 19.1455 10.0943 19.0333 10.3299C18.9769 10.449 18.8993 10.5245 18.8034 10.5541C18.6269 10.6091 18.4323 10.4955 18.2448 10.3867C18.1399 10.3257 18.032 10.2629 17.9343 10.2332C17.8124 10.1964 17.7093 10.2979 17.5546 10.4701C17.4145 10.626 17.2562 10.8019 17.036 10.8019C17.0257 10.8019 17.0148 10.8019 17.0039 10.8007C16.8935 10.7922 16.8025 10.7391 16.7267 10.6617C16.768 10.8067 16.9875 11.4763 17.5285 11.4763C17.5364 11.4763 17.5449 11.4763 17.5528 11.4763C17.87 11.4648 18.0326 11.2207 18.163 11.0249C18.3055 10.811 18.3722 10.7354 18.5032 10.7946C18.7749 10.9167 18.9872 10.9288 19.151 10.8333C19.3281 10.73 19.4294 10.5112 19.4597 10.165C19.4652 10.1063 19.4646 10.0507 19.4615 9.99636C19.3942 9.85978 19.3244 9.72019 19.2535 9.57757V9.57697Z" fill="white"/>
<path d="M16.4937 7.4434C16.4131 7.65189 16.4489 8.43266 16.4719 8.75536C16.7084 9.00554 17.1409 9.36269 17.3611 9.3222C17.879 9.22672 18.1174 8.74629 18.0683 7.89482C18.0525 7.62167 18.0495 7.4005 18.0464 7.22283C18.0398 6.78652 18.0319 6.6439 17.9154 6.55446C17.7935 6.46079 17.5109 6.38223 17.4284 6.43783C17.1021 6.6578 16.5677 7.25063 16.4931 7.4428L16.4937 7.4434Z" fill="white"/>
<path d="M17.5063 11.5785C17.5063 11.5785 17.5664 11.6655 17.7987 11.593C18.031 11.5205 18.2602 11.2352 18.3275 11.1343C18.3949 11.0334 18.4828 10.973 18.6648 11.0135C18.8467 11.054 19.0996 11.0334 19.2106 10.9766C19.3216 10.9198 19.2695 10.9923 19.2252 11.1071C19.1809 11.222 19.0657 11.5404 18.8328 11.4764C18.5999 11.4123 18.4488 11.2884 18.3136 11.4431C18.1783 11.5978 17.9721 12.0456 17.6895 11.897C17.5554 11.8263 17.5057 11.5785 17.5057 11.5785H17.5063Z" fill="white"/>
<path d="M5.26558 7.90772C5.26558 7.90772 5.26618 7.90833 5.26679 7.90893C5.28438 7.92525 5.29348 7.94882 5.29227 7.97299C5.25284 9.09458 5.73442 9.42454 6.15171 9.50128C6.17354 9.50551 6.19598 9.50733 6.21842 9.50733C6.57385 9.50733 7.04572 9.04745 7.19068 8.89698C7.19068 8.89698 7.19007 8.89758 7.18947 8.89818L7.22889 8.91813C7.2204 9.27406 7.13003 9.80163 6.90743 9.85481C6.71699 9.90013 6.58962 9.81311 6.42889 9.70252C6.31001 9.62094 6.17597 9.52848 6.0019 9.49162C5.8066 9.44992 5.62221 9.56534 5.4445 9.67653C5.17824 9.84272 5.04784 9.90013 4.91683 9.74966C4.77248 9.58347 4.66512 9.27648 4.60568 8.95741C4.78097 8.61174 4.95989 8.26306 5.13275 7.93008C5.15822 7.88053 5.22494 7.87025 5.26558 7.90833V7.90772Z" fill="white"/>
<path d="M4.4921 9.18237C4.56125 9.46882 4.6686 9.73169 4.8081 9.89244C5.05496 10.1771 5.34063 9.99819 5.5705 9.85497C5.71788 9.76311 5.87012 9.66763 5.99324 9.69362C6.13153 9.72323 6.2401 9.79756 6.35473 9.87672C6.49605 9.97402 6.64162 10.0737 6.8351 10.0737C6.87331 10.0737 6.91394 10.0689 6.9564 10.0604C6.89272 10.2991 6.76049 10.6309 6.55852 10.6466C6.40992 10.6575 6.28741 10.5209 6.15701 10.3759C6.00416 10.2055 5.8307 10.0127 5.58869 10.0864C5.47103 10.1221 5.35336 10.1904 5.23994 10.2568C5.08589 10.3463 4.92698 10.4387 4.8263 10.4079C4.7802 10.394 4.74138 10.3517 4.70681 10.2792C4.53577 9.91963 4.47633 9.46338 4.4642 9.23918C4.4733 9.22044 4.48301 9.20232 4.4921 9.18358V9.18237Z" fill="white"/>
<path d="M4.29273 9.57697C4.33215 9.81567 4.40069 10.0943 4.51289 10.3299C4.5693 10.449 4.64693 10.5245 4.74276 10.5541C4.91926 10.6091 5.11396 10.4955 5.30137 10.3867C5.4063 10.3257 5.51426 10.2629 5.61191 10.2332C5.73382 10.1964 5.83693 10.2979 5.99159 10.4701C6.1317 10.626 6.29 10.8019 6.51017 10.8019C6.52048 10.8019 6.5314 10.8019 6.54232 10.8007C6.6527 10.7922 6.74368 10.7391 6.8195 10.6617C6.77825 10.8067 6.55869 11.4763 6.01767 11.4763C6.00979 11.4763 6.0013 11.4763 5.99341 11.4763C5.6762 11.4648 5.51365 11.2207 5.38325 11.0249C5.24072 10.811 5.174 10.7354 5.04299 10.7946C4.77127 10.9167 4.55899 10.9288 4.39523 10.8333C4.21812 10.73 4.11683 10.5112 4.08651 10.165C4.08105 10.1063 4.08166 10.0507 4.08469 9.99636C4.15201 9.85978 4.22176 9.72019 4.29273 9.57757V9.57697Z" fill="white"/>
<path d="M7.05245 7.4434C7.13312 7.65189 7.09733 8.43266 7.07429 8.75536C6.83774 9.00554 6.40529 9.36269 6.18512 9.3222C5.66715 9.22672 5.42879 8.74629 5.47792 7.89482C5.49369 7.62167 5.49672 7.4005 5.49975 7.22283C5.50643 6.78652 5.51431 6.6439 5.63076 6.55446C5.75267 6.46079 6.03531 6.38223 6.1178 6.43783C6.44411 6.6578 6.97846 7.25063 7.05306 7.4428L7.05245 7.4434Z" fill="white"/>
<path d="M6.04055 11.5785C6.04055 11.5785 5.9805 11.6655 5.7482 11.593C5.51591 11.5205 5.28664 11.2352 5.21932 11.1343C5.15199 11.0334 5.06405 10.973 4.88209 11.0135C4.70013 11.054 4.44721 11.0334 4.33622 10.9766C4.22523 10.9198 4.27739 10.9923 4.32166 11.1071C4.36594 11.222 4.48118 11.5404 4.71408 11.4764C4.94699 11.4123 5.09801 11.2884 5.23327 11.4431C5.36852 11.5978 5.57474 12.0456 5.85738 11.897C5.99142 11.8263 6.04115 11.5785 6.04115 11.5785H6.04055Z" fill="white"/>
<path d="M4.78397 16.8943C4.73059 16.797 4.67843 16.6985 4.62748 16.5994C4.62627 16.6097 4.62506 16.62 4.62445 16.6302L4.77366 16.936C4.77669 16.9227 4.78033 16.9088 4.78457 16.8949L4.78397 16.8943Z" fill="white"/>
<path d="M5.03386 16.4544C5.08966 16.4036 5.15577 16.362 5.23462 16.3342C5.48814 16.2453 5.69679 16.2991 5.86479 16.3426C5.99762 16.3771 6.10255 16.4043 6.19595 16.3583L6.219 16.3468C6.39125 16.2622 6.57867 16.1704 6.75881 16.2175C6.74304 16.0816 6.66601 15.9311 6.55623 15.8356C6.48102 15.7703 6.35789 15.6996 6.19535 15.7377C6.11286 15.757 6.02673 15.7794 5.93879 15.8024C5.57184 15.8984 5.19216 15.9982 4.9077 15.9142C4.88587 15.9075 4.86888 15.9105 4.84947 15.9238C4.83189 15.9359 4.8149 15.9546 4.79913 15.9782C4.87434 16.139 4.95258 16.2985 5.03325 16.455L5.03386 16.4544Z" fill="white"/>
<path d="M5.33482 16.998C5.43065 16.8778 5.57682 16.8083 5.73634 16.8143C5.9098 16.8204 6.03838 16.8566 6.1518 16.8887C6.28948 16.9273 6.40897 16.9612 6.59214 16.9394C6.85901 16.9086 6.89843 16.9479 6.96454 17.0319C6.96879 17.0373 6.97849 17.0385 6.99184 17.0373C7.07917 17.0283 7.13619 16.9412 7.11981 16.8554C7.10162 16.7569 7.06037 16.653 6.9518 16.5055C6.73952 16.2173 6.50116 16.3466 6.23611 16.4771C5.97106 16.6071 5.69085 16.3079 5.26446 16.4572C5.19653 16.4808 5.13891 16.5182 5.08978 16.5629C5.16863 16.7116 5.25051 16.8572 5.33482 16.9986V16.998Z" fill="white"/>
<path d="M6.46666 18.4293C6.48607 17.9024 6.65589 17.3657 6.76749 17.1204C6.74262 17.1168 6.71776 17.1143 6.69289 17.1143C6.6656 17.1143 6.6383 17.1161 6.61344 17.1192C6.39448 17.1445 6.24588 17.1029 6.10214 17.063C5.99357 17.0328 5.88197 17.0007 5.72973 16.9953C5.61146 16.9923 5.50168 17.0527 5.44527 17.1566C5.44345 17.1603 5.44103 17.1645 5.43921 17.1687C5.74793 17.6618 6.09122 18.0994 6.46666 18.4293Z" fill="white"/>
<path d="M7.62135 19.1303C7.67472 19.0832 7.72142 19.0258 7.75903 18.9587C7.98283 18.5587 8.20482 18.0124 8.32431 17.7018C8.36191 17.6039 8.31824 17.4939 8.22302 17.4492C7.98769 17.3386 7.59284 17.179 7.13552 17.1017C7.09974 17.1017 6.99663 17.124 6.95903 17.141C6.85046 17.3446 6.63272 17.987 6.64667 18.5768C6.94386 18.8052 7.27442 18.9871 7.62195 19.131L7.62135 19.1303Z" fill="white"/>
<path d="M9.3104 19.5589C9.44747 19.3994 9.56817 19.197 9.64459 19.0102C9.85445 18.4948 9.943 17.9473 9.89266 17.8663C9.81321 17.7926 9.16544 17.5798 8.43337 17.5798C8.39819 17.5798 8.36241 17.5798 8.32723 17.581C8.27203 17.5829 8.22836 17.6294 8.22958 17.6844C8.24171 18.2923 8.30357 18.9728 8.43701 19.3958C8.72814 19.4683 9.0217 19.5215 9.3104 19.5589Z" fill="white"/>
<path d="M10.2368 19.6316C10.5316 19.6413 10.8082 19.6377 11.0557 19.628C11.3783 19.3277 11.536 18.7947 11.6118 18.3668C11.6228 18.304 11.6337 18.2478 11.6428 18.1988C11.6783 18.0123 11.6589 17.9104 11.5845 17.893C11.3274 17.832 10.3205 17.7843 10.0707 17.8785C10.0464 18.0628 9.96573 18.7675 10.0755 19.2358C10.1137 19.3978 10.1689 19.5313 10.2375 19.6322L10.2368 19.6316Z" fill="white"/>
</svg>
