<svg width="24" height="24" viewBox="0 0 24 24" fill="none" xmlns="http://www.w3.org/2000/svg">
<path d="M19.3967 10.4142C19.3967 9.15882 19.1709 7.95936 18.5808 6.85845C16.7451 3.43141 12.5412 2.03574 9.12093 3.70309C5.00991 5.70782 4.29293 10.2535 5.58069 13.2366C6.88333 16.2535 9.08241 18.5468 11.4312 20.7184C11.8549 21.1099 12.5859 21.0842 13.0078 20.6971C14.9688 18.8948 16.8168 16.9904 18.1431 14.635C18.8811 13.3236 19.4484 11.9573 19.3967 10.4142ZM15.7129 10.4533C15.6499 10.6832 15.4748 10.9558 14.9951 10.9558C14.9924 10.9558 14.9898 10.9558 14.9863 10.9558C14.4716 10.9522 13.9603 10.9531 13.4175 10.954H13.0394C12.9431 10.954 12.8651 11.0339 12.8651 11.1316V12.7173C12.8651 12.8717 12.8651 13.0253 12.8616 13.1798C12.8529 13.5918 12.6086 13.851 12.2243 13.8563C12.22 13.8563 12.2156 13.8563 12.2112 13.8563C11.8094 13.8563 11.545 13.5882 11.5371 13.17C11.5284 12.7119 11.5292 12.2467 11.5301 11.7966C11.5301 11.5737 11.5301 11.3518 11.5301 11.1289C11.5301 11.0321 11.4513 10.9549 11.3559 10.9549H10.0655C9.32053 10.9549 8.99399 10.8901 8.81803 10.709C8.68497 10.5714 8.67271 10.3929 8.67534 10.2704C8.68584 9.67909 9.13494 9.61428 10.0865 9.61428H11.3559C11.4522 9.61428 11.531 9.53526 11.531 9.4376V9.23961C11.531 8.73888 11.531 8.25501 11.531 7.77203C11.531 7.73385 11.531 7.69656 11.5301 7.65839C11.5284 7.54563 11.5257 7.42932 11.5415 7.31213C11.5923 6.9277 11.8286 6.70663 12.1893 6.70663H12.1919C12.5929 6.7084 12.8476 6.95611 12.8573 7.35475C12.8678 7.79689 12.866 8.24524 12.8651 8.67939C12.8651 8.85962 12.8643 9.03985 12.8651 9.21919V9.43849C12.8651 9.48554 12.8835 9.52994 12.9168 9.56367C12.9501 9.59741 12.9938 9.61517 13.0402 9.61517H13.4342C13.9752 9.61339 14.4864 9.61162 15.0038 9.61783C15.2752 9.6205 15.4958 9.71816 15.6254 9.89217C15.7392 10.0458 15.7698 10.2455 15.712 10.4551L15.7129 10.4533Z" fill="white"/>
</svg>
