<svg width="24" height="24" viewBox="0 0 24 24" fill="none" xmlns="http://www.w3.org/2000/svg">
<path d="M8.03913 6.80798C7.88185 6.54385 7.60358 6.36394 7.28499 6.32566C6.81717 6.26059 6.41389 5.99263 6.19208 5.59836C5.79282 4.82129 6.35742 3.77627 7.45034 3.27099C8.54325 2.7657 9.75715 2.98772 10.1564 3.76479C10.3459 4.17437 10.3217 4.64521 10.0878 5.03183C9.92652 5.29212 9.90233 5.60984 10.0233 5.88928C10.2169 6.26441 10.6968 6.42136 11.092 6.23762L12.8504 5.4261C13.6731 5.04714 14.6611 5.36868 15.0604 6.14958L15.9194 7.81854C16.113 8.19368 16.5929 8.35062 16.9881 8.16688C17.2664 8.0176 17.4519 7.75347 17.4963 7.45107C17.5648 7.00703 17.8471 6.62424 18.2625 6.4137C19.0812 6.03474 20.1822 6.57065 20.7145 7.60801C21.2468 8.64537 21.0129 9.79757 20.1943 10.1765C19.7627 10.3565 19.2667 10.3335 18.8594 10.1115C18.5851 9.95835 18.2504 9.93538 17.956 10.0502C17.5608 10.234 17.3954 10.6895 17.589 11.0646L19.4119 14.6169C19.8111 15.3978 19.4724 16.3356 18.6497 16.7146L16.8913 17.53C16.4961 17.7137 16.0162 17.5568 15.8226 17.1816C15.7016 16.9022 15.7258 16.5806 15.8871 16.3203C16.121 15.9337 16.1493 15.4629 15.9557 15.0533C15.5564 14.2762 14.3425 14.0542 13.2496 14.5595C12.1567 15.0648 11.5921 16.1098 11.9914 16.8869C12.2132 17.2811 12.6205 17.5529 13.0843 17.6142C13.4029 17.6525 13.6811 17.8324 13.8384 18.0965C14.032 18.4716 13.8667 18.9271 13.4714 19.1109L9.72892 20.8411C8.90621 21.2201 7.91814 20.8985 7.51889 20.1176L5.69603 16.5653C5.50245 16.1902 5.6678 15.7347 6.06302 15.5509C6.35742 15.4361 6.69215 15.4591 6.96638 15.6122C7.37371 15.8342 7.86975 15.861 8.30127 15.6772C9.11995 15.2983 9.35386 14.1461 8.82152 13.1087C8.28917 12.0714 7.1882 11.5354 6.36952 11.9144C5.95414 12.1249 5.66779 12.5116 5.60327 12.9518C5.56294 13.2504 5.3734 13.5183 5.09513 13.6676C4.69991 13.8513 4.21998 13.6944 4.02641 13.3193L3.16741 11.6503C2.76815 10.8694 3.10691 9.93155 3.92962 9.55259L7.67214 7.82237C8.06736 7.63863 8.23271 7.18311 8.03913 6.80798Z" fill="white"/>
</svg>
