<svg width="24" height="24" viewBox="0 0 24 24" fill="none" xmlns="http://www.w3.org/2000/svg">
<path fill-rule="evenodd" clip-rule="evenodd" d="M19.0004 11.6892C18.967 10.8577 18.7832 10.0388 18.4544 9.27222C17.746 7.59572 16.4101 6.25992 14.7335 5.55157C13.8707 5.18147 12.9418 4.99519 12.003 5.00009C11.0642 4.99519 10.1352 5.18147 9.27242 5.55157C7.59339 6.25992 6.25998 7.59572 5.5516 9.27222C5.18148 10.135 4.99519 11.0639 5.00009 12.0027C4.99519 12.9414 5.18148 13.8703 5.5516 14.7331C6.25998 16.4096 7.59339 17.7429 9.26996 18.4513C10.0754 18.7968 10.9384 18.9821 11.8133 19.0012H12.1902C13.0651 18.9821 13.9282 18.7968 14.7335 18.4513C16.4126 17.7454 17.746 16.4096 18.4544 14.7331C18.7832 13.9665 18.967 13.1476 19.0004 12.3161V11.6892ZM13.3168 13.4389L8.76259 15.564C8.6964 15.5958 8.62042 15.5958 8.55424 15.564C8.43168 15.5052 8.37775 15.3581 8.43658 15.2355L10.5617 10.6816C10.5862 10.6276 10.6303 10.586 10.6818 10.5615L15.236 8.43642C15.3022 8.40456 15.3782 8.40456 15.4444 8.43642C15.5669 8.49525 15.6209 8.64231 15.562 8.76486L13.4369 13.3188C13.4124 13.3728 13.3683 13.4144 13.3168 13.4389ZM11.3216 12.0002C11.3142 12.3826 11.6182 12.6938 11.9981 12.7012H12.0005C12.1868 12.7061 12.3657 12.6326 12.4981 12.5002C12.6231 12.3728 12.6967 12.2036 12.6991 12.0247C12.7065 11.6424 12.4025 11.3311 12.0226 11.3237C11.6402 11.3164 11.3289 11.6203 11.3216 12.0002Z" fill="white"/>
</svg>
