<svg width="228" height="39" viewBox="0 0 228 39" fill="none" xmlns="http://www.w3.org/2000/svg">
<g clip-path="url(#clip0_378_55290)">
<path d="M54.3815 35.6689C47.6965 35.6689 42.0557 30.2179 42.0557 23.533V11.4919C42.0557 6.51552 46.1304 2.48828 51.0593 2.48828H62.4359V6.75281H51.0593C48.7338 6.75281 46.7948 8.65118 46.7948 11.0173V23.9533C46.7948 28.028 50.3 31.3976 54.3815 31.3976H62.4359V35.6621H54.3815V35.6689Z" fill="#202A1F"/>
<path d="M66.0361 2.48828H70.7753L83.101 25.9466V2.48828H87.8402V35.6689H83.101L70.7753 12.2106V35.6689H66.0361V2.48828Z" fill="#202A1F"/>
<path d="M91.6503 35.669V31.4044H102.078C105.156 31.4044 107.766 28.7061 107.766 25.4789C107.766 22.7737 105.82 20.4075 103.359 19.8855L97.1014 18.6041C93.4538 17.8447 90.7012 14.8141 90.7012 10.5496C90.7012 6.04777 94.4911 2.49512 98.9455 2.49512H110.607V6.75965H99.2302C97.0946 6.75965 95.4403 8.42072 95.4403 10.5496C95.4403 12.4005 96.6742 13.9124 98.2811 14.2446L104.444 15.526C109.041 16.4752 112.498 20.6448 112.498 25.4789C112.498 31.1672 107.759 35.669 102.546 35.669H91.6436H91.6503Z" fill="#202A1F"/>
<path d="M22.7397 5.0849C27.7839 6.40019 31.7501 10.3732 33.0722 15.4174C31.2891 15.4242 29.8111 16.7124 29.4924 18.4005H22.6786C22.5837 17.8921 22.3871 17.4242 22.1024 17.0107L24.5431 14.5631C24.8075 14.6852 25.0923 14.7598 25.4041 14.7598C26.516 14.7598 27.4178 13.858 27.4178 12.7461C27.4178 11.6342 26.516 10.7325 25.4041 10.7325C24.2922 10.7325 23.3905 11.6342 23.3905 12.7461C23.3905 13.0512 23.4651 13.3428 23.5871 13.6004L21.1396 16.0479C20.726 15.77 20.2582 15.5666 19.7497 15.4716V8.65788C21.4447 8.33923 22.7261 6.86122 22.7329 5.07812L22.7397 5.0849ZM8.66466 18.4005H15.4784C15.5733 17.8921 15.77 17.4242 16.0547 17.0107L13.614 14.5631C13.3495 14.6852 13.0648 14.7598 12.7529 14.7598C11.641 14.7598 10.7393 13.858 10.7393 12.7461C10.7393 12.4343 10.8139 12.1495 10.9359 11.8851C11.1325 11.4647 11.4715 11.1258 11.8919 10.9291C12.1563 10.8071 12.441 10.7325 12.7529 10.7325C13.8648 10.7325 14.7665 11.6342 14.7665 12.7461C14.7665 13.0512 14.692 13.3428 14.5699 13.6072L17.0175 16.0547C17.4242 15.7767 17.8988 15.5733 18.4073 15.4784V8.66466C16.7124 8.34601 15.431 6.868 15.4242 5.0849C10.38 6.40019 6.41375 10.3732 5.09168 15.4174C6.87478 15.4242 8.35279 16.7124 8.67144 18.4005H8.66466ZM18.4005 29.4924V22.6786C17.8921 22.5837 17.4242 22.3871 17.0107 22.1024L14.5631 24.5499C14.6852 24.8075 14.7598 25.0991 14.7598 25.4109C14.7598 26.5228 13.858 27.4245 12.7461 27.4245C11.6342 27.4245 10.7325 26.5228 10.7325 25.4109C10.7325 24.299 11.6342 23.3973 12.7461 23.3973C13.0512 23.3973 13.3428 23.4719 13.6072 23.5939L16.0547 21.1464C15.7767 20.7328 15.5733 20.265 15.4784 19.7565H8.66466C8.34601 21.4515 6.868 22.7329 5.0849 22.7397C6.40019 27.7839 10.3732 31.7569 15.4174 33.0722C15.4242 31.2891 16.7124 29.8111 18.4005 29.4924ZM29.4924 19.7565H22.6786C22.5837 20.265 22.3871 20.7328 22.1024 21.1464L24.5431 23.5939C24.8075 23.4719 25.0923 23.3973 25.4041 23.3973C26.516 23.3973 27.4178 24.299 27.4178 25.4109C27.4178 25.7228 27.3432 26.0076 27.2211 26.272C27.0245 26.6923 26.6855 27.0313 26.2652 27.2279C26.0076 27.35 25.716 27.4245 25.4041 27.4245C24.2922 27.4245 23.3905 26.5228 23.3905 25.4109C23.3905 25.1058 23.4651 24.8143 23.5871 24.5499L21.1396 22.1024C20.726 22.3803 20.2582 22.5837 19.7497 22.6786V29.4924C21.4447 29.8111 22.7261 31.2891 22.7329 33.0722C27.7771 31.7569 31.7433 27.7839 33.0654 22.7397C31.2823 22.7329 29.8043 21.4447 29.4856 19.7565H29.4924ZM38.1571 19.0785C38.1503 8.55619 29.5941 0 19.0785 0C8.56297 0 0 8.55619 0 19.0785C0 29.6009 8.55619 38.1571 19.0785 38.1571C29.6009 38.1571 38.1571 29.6009 38.1571 19.0785ZM35.8858 19.0785C35.8858 28.3466 28.3466 35.8858 19.0785 35.8858C9.81046 35.8858 2.27125 28.3398 2.27125 19.0785C2.27125 9.81724 9.81046 2.27125 19.0785 2.27125C28.3466 2.27125 35.8858 9.81046 35.8858 19.0785Z" fill="#8DC63F"/>
<path d="M120.77 23.879C119.122 23.879 117.787 22.5502 117.787 20.8959V17.8178C117.787 16.6042 118.763 15.6279 119.977 15.6279H122.736V16.4551H119.977C119.305 16.4551 118.729 17.0314 118.729 17.7026V21.0044C118.729 22.123 119.658 23.0519 120.77 23.0519H122.736V23.879H120.77Z" fill="#202A1F"/>
<path d="M127.19 23.3501C126.838 23.7027 126.309 23.8789 125.821 23.8789H125.373C124.479 23.8789 123.773 23.1738 123.773 22.2857V17.9805H124.716V22.4009C124.716 22.7671 125.014 23.0518 125.373 23.0518H125.821C126.553 23.0518 127.19 22.4891 127.19 21.7569V17.9872H128.133V24.3535C128.133 25.5943 127.096 26.5909 125.835 26.5909H124.479V25.7638H125.855C126.587 25.7638 127.184 25.1603 127.184 24.4349V23.3501H127.19Z" fill="#202A1F"/>
<path d="M129.461 15.6279H130.404V17.9873H132.221C133.116 17.9873 133.828 18.6924 133.828 19.5806V21.6078C133.828 22.8688 132.817 23.8858 131.55 23.8858H129.461V15.6347V15.6279ZM132.878 19.4721C132.878 19.106 132.58 18.8145 132.221 18.8145H130.404V23.0587H131.55C132.282 23.0587 132.885 22.4553 132.885 21.7298V19.4789L132.878 19.4721Z" fill="#202A1F"/>
<path d="M139.082 23.879H137.218C135.957 23.879 134.953 22.8688 134.953 21.6009V19.5737C134.953 18.6924 135.685 17.9805 136.607 17.9805H137.665C138.587 17.9805 139.313 18.6856 139.313 19.5737C139.313 20.3127 138.736 20.9772 138.031 21.1399L135.896 21.6552V21.7162C135.896 22.4484 136.485 23.045 137.218 23.045H139.082V23.8722V23.879ZM135.902 20.7941L137.821 20.3195C138.14 20.2517 138.377 19.9805 138.377 19.5805C138.377 19.1805 138.045 18.8144 137.672 18.8144H136.614C136.228 18.8144 135.909 19.1669 135.909 19.5805V20.7941H135.902Z" fill="#202A1F"/>
<path d="M140.452 17.9873H141.042L141.394 18.5161C141.747 18.1636 142.16 17.9873 142.689 17.9873H144.106V18.8144H142.689C141.97 18.8144 141.394 19.4043 141.394 20.1094V23.879H140.452V17.9873Z" fill="#202A1F"/>
<path d="M145.177 15.6279H146.12V16.8076H145.177V15.6279ZM145.177 17.9873H146.12V23.879H145.177V17.9873Z" fill="#202A1F"/>
<path d="M148.371 23.879H147.428V17.9873H148.018L148.371 18.5161C148.723 18.1636 149.164 17.9873 149.706 17.9873H150.188C151.083 17.9873 151.788 18.6924 151.788 19.5806V23.8858H150.845V19.4789C150.845 19.1128 150.554 18.8212 150.188 18.8212H149.706C148.974 18.8212 148.371 19.4246 148.371 20.1501V23.8858V23.879Z" fill="#202A1F"/>
<path d="M154.052 17.2348V17.9874H155.585V18.8145H154.052V23.8859H153.11V17.2416C153.11 16.3467 153.829 15.6348 154.757 15.6348H155.585V16.4619H154.757C154.364 16.4619 154.052 16.8145 154.052 17.2416V17.2348Z" fill="#202A1F"/>
<path d="M156.649 17.9873H157.239L157.591 18.5161C157.944 18.1636 158.357 17.9873 158.886 17.9873H160.296V18.8144H158.886C158.168 18.8144 157.591 19.4043 157.591 20.1094V23.879H156.649V17.9873Z" fill="#202A1F"/>
<path d="M161.497 18.8144V17.9873H163.795C164.676 17.9873 165.388 18.6856 165.388 19.567V23.879H162.622C161.7 23.879 161.029 23.1603 161.029 22.2722C161.029 21.5535 161.605 20.8959 162.324 20.7196L164.446 20.2111V19.4585C164.446 19.0924 164.148 18.8077 163.802 18.8077H161.503L161.497 18.8144ZM162.615 23.0586H164.439V21.0586L162.52 21.5264C162.202 21.6078 161.964 21.9061 161.964 22.279C161.964 22.6925 162.236 23.0586 162.615 23.0586Z" fill="#202A1F"/>
<path d="M167.815 21.1332C167.083 20.9433 166.521 20.367 166.521 19.5806C166.521 18.6992 167.253 17.9873 168.168 17.9873H170.527V18.8144H168.168C167.788 18.8144 167.463 19.167 167.463 19.5806C167.463 19.9602 167.7 20.2382 168.005 20.3196L169.585 20.7331C170.317 20.923 170.88 21.5196 170.88 22.2925C170.88 23.1739 170.148 23.8858 169.232 23.8858H166.643V23.0586H169.232C169.612 23.0586 169.938 22.7061 169.938 22.2925C169.938 21.8789 169.7 21.6213 169.348 21.5264L167.815 21.1399V21.1332Z" fill="#202A1F"/>
<path d="M174.365 23.0519V23.879H173.66C172.731 23.879 172.012 23.1807 172.012 22.2993V15.6279H172.955V17.9873H174.372V18.8145H172.955V22.3061C172.955 22.7197 173.273 23.0587 173.66 23.0587H174.365V23.0519Z" fill="#202A1F"/>
<path d="M175.436 17.9873H176.026L176.378 18.5161C176.731 18.1636 177.145 17.9873 177.673 17.9873H179.09V18.8144H177.673C176.955 18.8144 176.378 19.4043 176.378 20.1094V23.879H175.436V17.9873Z" fill="#202A1F"/>
<path d="M183.578 17.9872H184.521V23.879H183.931L183.578 23.3501C183.226 23.7027 182.792 23.879 182.243 23.879H181.761C180.866 23.879 180.161 23.1738 180.161 22.2857V17.9805H181.104V22.3874C181.104 22.7535 181.395 23.045 181.761 23.045H182.243C182.975 23.045 183.578 22.4416 183.578 21.7162V17.9805V17.9872Z" fill="#202A1F"/>
<path d="M187.897 23.879C186.711 23.879 185.741 22.9095 185.741 21.723V19.5806C185.741 18.6992 186.446 17.9873 187.341 17.9873H189.748V18.8144H187.341C186.975 18.8144 186.684 19.106 186.684 19.4721V21.8315C186.684 22.5027 187.24 23.0586 187.897 23.0586H189.748V23.8858H187.897V23.879Z" fill="#202A1F"/>
<path d="M193.179 23.0519V23.879H192.474C191.545 23.879 190.826 23.1807 190.826 22.2993V15.6279H191.769V17.9873H193.179V18.8145H191.769V22.3061C191.769 22.7197 192.087 23.0587 192.474 23.0587H193.179V23.0519Z" fill="#202A1F"/>
<path d="M197.667 17.9872H198.609V23.879H198.02L197.667 23.3501C197.314 23.7027 196.874 23.879 196.331 23.879H195.85C194.955 23.879 194.25 23.1738 194.25 22.2857V17.9805H195.192V22.3874C195.192 22.7535 195.491 23.045 195.85 23.045H196.331C197.064 23.045 197.667 22.4416 197.667 21.7162V17.9805V17.9872Z" fill="#202A1F"/>
<path d="M199.932 17.9873H200.521L200.874 18.5161C201.227 18.1636 201.64 17.9873 202.169 17.9873H203.586V18.8144H202.169C201.45 18.8144 200.874 19.4043 200.874 20.1094V23.879H199.932V17.9873Z" fill="#202A1F"/>
<path d="M208.664 23.879H206.8C205.539 23.879 204.535 22.8688 204.535 21.6009V19.5737C204.535 18.6924 205.267 17.9805 206.183 17.9805H207.247C208.169 17.9805 208.895 18.6856 208.895 19.5737C208.895 20.3127 208.318 20.9772 207.613 21.1399L205.478 21.6552V21.7162C205.478 22.4484 206.067 23.045 206.8 23.045H208.664V23.8722V23.879ZM205.478 20.7941L207.403 20.3195C207.722 20.2517 207.952 19.9805 207.952 19.5805C207.952 19.1805 207.62 18.8144 207.247 18.8144H206.183C205.796 18.8144 205.478 19.1669 205.478 19.5805V20.7941Z" fill="#202A1F"/>
<path d="M213.613 17.2348V17.9874H215.146V18.8145H213.613V23.8859H212.671V17.2416C212.671 16.3467 213.39 15.6348 214.318 15.6348H215.146V16.4619H214.318C213.925 16.4619 213.613 16.8145 213.613 17.2416V17.2348Z" fill="#202A1F"/>
<path d="M217.912 23.879C216.895 23.879 216.095 23.0654 216.095 22.0484V19.5737C216.095 18.6924 216.8 17.9805 217.688 17.9805H218.983C219.864 17.9805 220.576 18.6856 220.576 19.5737V22.0484C220.576 23.0654 219.776 23.879 218.759 23.879H217.912ZM218.759 23.0518C219.241 23.0518 219.634 22.6518 219.634 22.1704V19.472C219.634 19.1059 219.349 18.8144 218.983 18.8144H217.688C217.335 18.8144 217.037 19.1059 217.037 19.472V22.1704C217.037 22.6518 217.424 23.0518 217.912 23.0518H218.759Z" fill="#202A1F"/>
<path d="M221.803 17.9873H222.393L222.746 18.5161C223.098 18.1636 223.512 17.9873 224.041 17.9873H225.458V18.8144H224.041C223.322 18.8144 222.746 19.4043 222.746 20.1094V23.879H221.803V17.9873Z" fill="#202A1F"/>
<path d="M117.909 27.418H118.885L122.268 33.7843V27.418H123.211V35.6691H122.248L118.851 29.3028V35.6691H117.909V27.418Z" fill="#202A1F"/>
<path d="M128.573 35.669H126.709C125.448 35.669 124.444 34.652 124.444 33.391V31.3638C124.444 30.4824 125.177 29.7705 126.092 29.7705H127.149C128.072 29.7705 128.804 30.4756 128.804 31.3638C128.804 32.1028 128.227 32.7672 127.516 32.9299L125.38 33.4452V33.5062C125.38 34.2384 125.97 34.8351 126.702 34.8351H128.566V35.6622L128.573 35.669ZM125.394 32.5842L127.312 32.1096C127.631 32.0418 127.868 31.7706 127.868 31.3706C127.868 30.9705 127.536 30.6044 127.163 30.6044H126.105C125.719 30.6044 125.4 30.957 125.4 31.3706V32.5842H125.394Z" fill="#202A1F"/>
<path d="M132.295 34.8419V35.6691H131.59C130.662 35.6691 129.943 34.9707 129.943 34.0894V27.418H130.885V29.7774H132.302V30.6045H130.885V34.0961C130.885 34.5097 131.204 34.8487 131.59 34.8487H132.295V34.8419Z" fill="#202A1F"/>
<path d="M136.858 29.7705H137.78L139.15 34.191L140.52 29.7705H141.509L139.625 35.6622H138.682L137.313 31.4316L135.97 35.6622H135.028L133.143 29.7705H134.133L135.502 34.191L136.872 29.7705H136.858Z" fill="#202A1F"/>
<path d="M144.106 35.669C143.096 35.669 142.289 34.8554 142.289 33.8384V31.3638C142.289 30.4824 142.994 29.7705 143.882 29.7705H145.177C146.065 29.7705 146.771 30.4756 146.771 31.3638V33.8384C146.771 34.8554 145.971 35.669 144.954 35.669H144.106ZM144.954 34.8418C145.435 34.8418 145.828 34.4418 145.828 33.9605V31.2621C145.828 30.896 145.543 30.6044 145.177 30.6044H143.882C143.53 30.6044 143.231 30.9027 143.231 31.2621V33.9605C143.231 34.4418 143.618 34.8418 144.106 34.8418H144.954Z" fill="#202A1F"/>
<path d="M147.998 29.7705H148.587L148.94 30.2993C149.293 29.9468 149.706 29.7705 150.235 29.7705H151.652V30.5977H150.235C149.516 30.5977 148.94 31.1875 148.94 31.8926V35.6622H147.998V29.7705Z" fill="#202A1F"/>
<path d="M152.723 27.418H153.666V35.6691H152.723V27.418ZM156.445 29.7774H157.672L154.845 32.7266L157.672 35.6758H156.445L153.666 32.7266L156.445 29.7774Z" fill="#202A1F"/>
<path d="M161.211 35.6691V34.8419H163.686C164.581 34.8419 165.334 34.0961 165.334 33.1876C165.334 32.4554 164.812 31.7639 164.154 31.6215L162.506 31.2825C161.598 31.0927 160.974 30.3198 160.974 29.3638C160.974 28.279 161.856 27.418 162.94 27.418H165.808V28.2451H163.049C162.439 28.2451 161.917 28.7536 161.917 29.3638C161.917 29.8452 162.269 30.3536 162.744 30.4486L164.337 30.7808C165.469 31.0181 166.269 32.0283 166.269 33.1944C166.269 34.5639 165.164 35.6691 163.795 35.6691H161.211Z" fill="#202A1F"/>
<path d="M169.51 35.669C168.317 35.669 167.354 34.6995 167.354 33.513V31.3706C167.354 30.4892 168.059 29.7773 168.954 29.7773H171.361V30.6045H168.954C168.588 30.6045 168.296 30.9028 168.296 31.2621V33.6215C168.296 34.2927 168.852 34.8487 169.51 34.8487H171.361V35.6758H169.51V35.669Z" fill="#202A1F"/>
<path d="M172.432 27.418H173.375V28.5977H172.432V27.418ZM172.432 29.7774H173.375V35.6691H172.432V29.7774Z" fill="#202A1F"/>
<path d="M178.704 35.669H176.839C175.578 35.669 174.575 34.652 174.575 33.391V31.3638C174.575 30.4824 175.307 29.7705 176.222 29.7705H177.287C178.209 29.7705 178.934 30.4756 178.934 31.3638C178.934 32.1028 178.358 32.7672 177.653 32.9299L175.517 33.4452V33.5062C175.517 34.2384 176.107 34.8351 176.839 34.8351H178.704V35.6622V35.669ZM175.524 32.5842L177.443 32.1096C177.761 32.0418 177.999 31.7706 177.999 31.3706C177.999 30.9705 177.666 30.6044 177.293 30.6044H176.229C175.843 30.6044 175.524 30.957 175.524 31.3706V32.5842Z" fill="#202A1F"/>
<path d="M181.016 35.669H180.073V29.7773H180.663L181.016 30.3062C181.368 29.9536 181.802 29.7773 182.351 29.7773H182.833C183.728 29.7773 184.433 30.4825 184.433 31.3706V35.6758H183.49V31.2689C183.49 30.9028 183.199 30.6113 182.833 30.6113H182.351C181.619 30.6113 181.016 31.2147 181.016 31.9401V35.6758V35.669Z" fill="#202A1F"/>
<path d="M187.802 35.669C186.609 35.669 185.646 34.6995 185.646 33.513V31.3706C185.646 30.4892 186.352 29.7773 187.253 29.7773H189.66V30.6045H187.253C186.887 30.6045 186.589 30.9028 186.589 31.2621V33.6215C186.589 34.2927 187.145 34.8487 187.802 34.8487H189.653V35.6758H187.802V35.669Z" fill="#202A1F"/>
<path d="M194.725 35.669H192.86C191.599 35.669 190.596 34.652 190.596 33.391V31.3638C190.596 30.4824 191.328 29.7705 192.243 29.7705H193.308C194.23 29.7705 194.955 30.4756 194.955 31.3638C194.955 32.1028 194.379 32.7672 193.674 32.9299L191.545 33.4452V33.5062C191.545 34.2384 192.135 34.8351 192.867 34.8351H194.731V35.6622L194.725 35.669ZM191.545 32.5842L193.464 32.1096C193.782 32.0418 194.02 31.7706 194.02 31.3706C194.02 30.9705 193.687 30.6044 193.314 30.6044H192.25C191.864 30.6044 191.545 30.957 191.545 31.3706V32.5842Z" fill="#202A1F"/>
<path d="M201.593 35.6691C199.945 35.6691 198.609 34.3402 198.609 32.6859V29.6079C198.609 28.3943 199.592 27.418 200.806 27.418H203.565V28.2451H200.806C200.135 28.2451 199.559 28.8214 199.559 29.4926V32.7944C199.559 33.9131 200.487 34.8487 201.593 34.8487H203.565V35.6758H201.593V35.6691Z" fill="#202A1F"/>
<path d="M208.535 35.669H206.671C205.41 35.669 204.406 34.652 204.406 33.391V31.3638C204.406 30.4824 205.138 29.7705 206.054 29.7705H207.118C208.033 29.7705 208.766 30.4756 208.766 31.3638C208.766 32.1028 208.189 32.7672 207.484 32.9299L205.349 33.4452V33.5062C205.349 34.2384 205.938 34.8351 206.671 34.8351H208.535V35.6622V35.669ZM205.349 32.5842L207.267 32.1096C207.586 32.0418 207.823 31.7706 207.823 31.3706C207.823 30.9705 207.491 30.6044 207.118 30.6044H206.054C205.667 30.6044 205.349 30.957 205.349 31.3706V32.5842Z" fill="#202A1F"/>
<path d="M210.84 35.669H209.898V29.7773H210.488L210.84 30.3062C211.193 29.9536 211.627 29.7773 212.169 29.7773H212.651C213.546 29.7773 214.251 30.4825 214.251 31.3706V35.6758H213.308V31.2689C213.308 30.9028 213.017 30.6113 212.651 30.6113H212.169C211.437 30.6113 210.84 31.2147 210.84 31.9401V35.6758V35.669Z" fill="#202A1F"/>
<path d="M217.912 34.8419V35.6691H217.207C216.278 35.6691 215.559 34.9707 215.559 34.0894V27.418H216.501V29.7774H217.918V30.6045H216.501V34.0961C216.501 34.5097 216.82 34.8487 217.207 34.8487H217.912V34.8419Z" fill="#202A1F"/>
<path d="M222.983 35.669H221.118C219.857 35.669 218.854 34.652 218.854 33.391V31.3638C218.854 30.4824 219.586 29.7705 220.508 29.7705H221.566C222.481 29.7705 223.213 30.4756 223.213 31.3638C223.213 32.1028 222.637 32.7672 221.925 32.9299L219.79 33.4452V33.5062C219.79 34.2384 220.379 34.8351 221.112 34.8351H222.976V35.6622L222.983 35.669ZM219.796 32.5842L221.715 32.1096C222.034 32.0418 222.271 31.7706 222.271 31.3706C222.271 30.9705 221.939 30.6044 221.566 30.6044H220.508C220.115 30.6044 219.803 30.957 219.803 31.3706V32.5842H219.796Z" fill="#202A1F"/>
<path d="M224.346 29.7705H224.936L225.288 30.2993C225.641 29.9468 226.054 29.7705 226.583 29.7705H227.993V30.5977H226.583C225.864 30.5977 225.288 31.1875 225.288 31.8926V35.6622H224.346V29.7705Z" fill="#202A1F"/>
</g>
<defs>
<clipPath id="clip0_378_55290">
<rect width="228" height="38.1571" fill="white"/>
</clipPath>
</defs>
</svg>
