<svg width="24" height="24" viewBox="0 0 24 24" fill="none" xmlns="http://www.w3.org/2000/svg">
<path d="M5.89237 2.93006C4.11292 1.8712 2.0792 3.3761 2.26142 5.2894L2.65999 9.47446C2.83669 11.3298 4.50032 13.5004 6.85532 13.2972C4.50032 14.0004 3.13187 15.8657 4.87934 18.1454C5.16504 18.5181 5.47619 18.8905 5.79322 19.2075C6.11024 19.5245 6.4826 19.8357 6.85532 20.1214C8.73568 21.5627 11.2305 19.4722 11.9105 17.4323L12.0002 17.1632L12.0899 17.4323C12.7698 19.4722 15.2646 21.5627 17.145 20.1214C17.5177 19.8357 17.8901 19.5245 18.2071 19.2075C18.5241 18.8905 18.8353 18.5181 19.121 18.1454C20.8684 15.8657 19.5 14.0004 17.145 13.2972C19.5 13.5004 21.1636 11.3298 21.3403 9.47446L21.7389 5.2894C21.9211 3.3761 19.8874 1.8712 18.108 2.93006C15.2004 4.66018 13.4847 7.39247 12.0002 9.90107C10.5156 7.39247 8.79989 4.66018 5.89237 2.93006Z" fill="currentColor"/>
</svg>
