<svg width="48" height="48" viewBox="0 0 48 48" fill="none" xmlns="http://www.w3.org/2000/svg">
<g clip-path="url(#clip0_1547_827)">
<rect width="48" height="48" rx="24" fill="white"/>
<g clip-path="url(#clip1_1547_827)">
<path d="M48 24C48 37.2548 37.2548 48 24 48C10.7452 48 0 37.2548 0 24C0 10.7452 10.7452 0 24 0C37.2548 0 48 10.7452 48 24Z" fill="currentColor"/>
<path class="fill-contrast" d="M20.1604 31.1996V47.5196C20.1604 47.7847 20.3753 47.9996 20.6404 47.9996H27.3604C27.6255 47.9996 27.8404 47.7847 27.8404 47.5196V31.1996C27.8404 30.9345 28.0553 30.7196 28.3204 30.7196H33.1204C33.3855 30.7196 33.6004 30.5047 33.6004 30.2396V24.4796C33.6004 24.2145 33.3855 23.9996 33.1204 23.9996H28.3204C28.0553 23.9996 27.8404 23.785 27.8404 23.5199V19.1996C27.8404 17.2796 30.2404 16.3196 31.2004 16.3196H34.0804C34.3455 16.3196 34.5604 16.1047 34.5604 15.8396V10.0796C34.5604 9.81451 34.3456 9.59961 34.0805 9.59961H27.8404C23.2324 9.59961 20.1604 14.3996 20.1604 17.2796V23.5196C20.1604 23.7847 19.9455 23.9996 19.6804 23.9996H14.8804C14.6153 23.9996 14.4004 24.2145 14.4004 24.4796V30.2396C14.4004 30.5047 14.6153 30.7196 14.8804 30.7196H19.6804C19.9455 30.7196 20.1604 30.9345 20.1604 31.1996Z" fill="white"/>
</g>
</g>
<defs>
<clipPath id="clip0_1547_827">
<rect width="48" height="48" rx="24" fill="white"/>
</clipPath>
<clipPath id="clip1_1547_827">
<rect width="48" height="48" fill="white"/>
</clipPath>
</defs>
</svg>
