<svg width="25" height="24" viewBox="0 0 25 24" fill="none" xmlns="http://www.w3.org/2000/svg">
<path d="M9.26305 20.75C9.26305 20.6142 9.26064 20.3372 9.25751 19.9772C9.25371 19.5405 9.24884 18.9816 9.24593 18.4047C5.7413 19.1666 5.00179 16.9183 5.00179 16.9183C4.42871 15.4622 3.60299 15.0749 3.60299 15.0749C2.46007 14.2931 3.6892 14.3093 3.6892 14.3093C4.95416 14.398 5.62025 15.6074 5.62025 15.6074C6.74387 17.5332 8.56735 16.9765 9.28618 16.6545C9.39926 15.8404 9.72571 15.2846 10.086 14.97C7.28792 14.6515 4.34653 13.5713 4.34653 8.74436C4.34653 7.36898 4.83862 6.24515 5.64446 5.36294C5.51366 5.04565 5.08249 3.76445 5.76649 2.02916C5.76649 2.02916 6.82438 1.69061 9.23176 3.3205C10.2366 3.04138 11.3143 2.90143 12.3848 2.89661C13.4554 2.90143 14.534 3.04129 15.5407 3.3205C17.9451 1.69071 19.0015 2.02926 19.0015 2.02926C19.6872 3.76436 19.2558 5.04575 19.125 5.36294C19.9327 6.24515 20.4215 7.36898 20.4215 8.74436C20.4215 13.5828 17.4745 14.6482 14.6693 14.9601C15.1211 15.351 15.5238 16.1177 15.5238 17.293C15.5238 18.4195 15.5173 19.3991 15.5129 20.0488C15.5108 20.3712 15.5092 20.6124 15.5092 20.75C15.5092 21.8821 15.4949 22 12.3847 22C9.28424 22 9.26305 21.8844 9.26305 20.75Z" fill="currentColor"/>
</svg>
