<svg width="37" height="36" viewBox="0 0 37 36" fill="none" xmlns="http://www.w3.org/2000/svg">
<rect x="0.398438" width="36" height="36" rx="18" fill="currentColor"/>
<g clip-path="url(#clip0_2183_9262)">
<path class="has-contrast" fill-rule="evenodd" clip-rule="evenodd" d="M13.4512 6.072C14.7308 6.01309 15.1388 6 18.3984 6C21.6581 6 22.0661 6.01418 23.3446 6.072C24.6232 6.12982 25.4959 6.33382 26.2595 6.62945C27.0592 6.93164 27.7846 7.404 28.3846 8.01491C28.9955 8.61382 29.4668 9.33818 29.7679 10.1389C30.0646 10.9025 30.2675 11.7753 30.3264 13.0516C30.3853 14.3335 30.3984 14.7415 30.3984 18C30.3984 21.2596 30.3843 21.6676 30.3264 22.9473C30.2686 24.2236 30.0646 25.0964 29.7679 25.86C29.4668 26.6608 28.9947 27.3864 28.3846 27.9862C27.7846 28.5971 27.0592 29.0684 26.2595 29.3695C25.4959 29.6662 24.6232 29.8691 23.3468 29.928C22.0661 29.9869 21.6581 30 18.3984 30C15.1388 30 14.7308 29.9858 13.4512 29.928C12.1748 29.8702 11.3021 29.6662 10.5384 29.3695C9.73762 29.0683 9.01206 28.5963 8.41226 27.9862C7.80176 27.3869 7.32933 26.6617 7.02789 25.8611C6.73226 25.0975 6.52935 24.2247 6.47044 22.9484C6.41153 21.6665 6.39844 21.2585 6.39844 18C6.39844 14.7404 6.41262 14.3324 6.47044 13.0538C6.52826 11.7753 6.73226 10.9025 7.02789 10.1389C7.32977 9.33827 7.80257 8.61307 8.41335 8.01382C9.0123 7.40346 9.73713 6.93103 10.5373 6.62945C11.301 6.33382 12.1737 6.13091 13.4501 6.072H13.4512ZM23.2475 8.232C21.9821 8.17418 21.6024 8.16218 18.3984 8.16218C15.1944 8.16218 14.8148 8.17418 13.5493 8.232C12.3788 8.28545 11.7439 8.48073 11.3206 8.64545C10.761 8.86364 10.3606 9.12218 9.94062 9.54218C9.54249 9.92951 9.23609 10.401 9.04389 10.9222C8.87916 11.3455 8.68389 11.9804 8.63044 13.1509C8.57262 14.4164 8.56062 14.796 8.56062 18C8.56062 21.204 8.57262 21.5836 8.63044 22.8491C8.68389 24.0196 8.87916 24.6545 9.04389 25.0778C9.23589 25.5982 9.54244 26.0705 9.94062 26.4578C10.3279 26.856 10.8003 27.1625 11.3206 27.3545C11.7439 27.5193 12.3788 27.7145 13.5493 27.768C14.8148 27.8258 15.1933 27.8378 18.3984 27.8378C21.6035 27.8378 21.9821 27.8258 23.2475 27.768C24.4181 27.7145 25.053 27.5193 25.4763 27.3545C26.0359 27.1364 26.4363 26.8778 26.8563 26.4578C27.2544 26.0705 27.561 25.5982 27.753 25.0778C27.9177 24.6545 28.113 24.0196 28.1664 22.8491C28.2243 21.5836 28.2363 21.204 28.2363 18C28.2363 14.796 28.2243 14.4164 28.1664 13.1509C28.113 11.9804 27.9177 11.3455 27.753 10.9222C27.5348 10.3625 27.2763 9.96218 26.8563 9.54218C26.4689 9.14408 25.9974 8.83768 25.4763 8.64545C25.053 8.48073 24.4181 8.28545 23.2475 8.232ZM16.8657 21.6993C17.7217 22.0556 18.6748 22.1037 19.5624 21.8353C20.4499 21.567 21.2167 20.9988 21.7318 20.2279C22.247 19.457 22.4785 18.5311 22.3869 17.6085C22.2952 16.6858 21.8861 15.8236 21.2293 15.1691C20.8107 14.7507 20.3045 14.4303 19.7472 14.2311C19.1898 14.0318 18.5953 13.9586 18.0063 14.0167C17.4172 14.0748 16.8484 14.2627 16.3408 14.5671C15.8331 14.8714 15.3992 15.2844 15.0704 15.7766C14.7416 16.2687 14.5259 16.8276 14.439 17.413C14.3521 17.9985 14.3961 18.596 14.5678 19.1624C14.7394 19.7288 15.0346 20.2501 15.432 20.6888C15.8293 21.1275 16.319 21.4726 16.8657 21.6993ZM14.037 13.6385C14.6097 13.0658 15.2897 12.6115 16.038 12.3015C16.7864 11.9915 17.5884 11.832 18.3984 11.832C19.2084 11.832 20.0105 11.9915 20.7588 12.3015C21.5072 12.6115 22.1871 13.0658 22.7599 13.6385C23.3326 14.2113 23.787 14.8913 24.097 15.6396C24.4069 16.3879 24.5665 17.19 24.5665 18C24.5665 18.81 24.4069 19.6121 24.097 20.3604C23.787 21.1087 23.3326 21.7887 22.7599 22.3615C21.6032 23.5182 20.0343 24.168 18.3984 24.168C16.7626 24.168 15.1937 23.5182 14.037 22.3615C12.8803 21.2047 12.2304 19.6359 12.2304 18C12.2304 16.3641 12.8803 14.7953 14.037 13.6385ZM25.9344 12.7505C26.0764 12.6167 26.19 12.4557 26.2686 12.2771C26.3472 12.0985 26.3891 11.9059 26.392 11.7108C26.3948 11.5157 26.3585 11.3221 26.2851 11.1412C26.2118 10.9604 26.1029 10.7962 25.9649 10.6582C25.827 10.5203 25.6627 10.4114 25.4819 10.338C25.3011 10.2647 25.1074 10.2283 24.9123 10.2312C24.7172 10.234 24.5247 10.276 24.3461 10.3546C24.1675 10.4332 24.0065 10.5468 23.8726 10.6887C23.6122 10.9648 23.4697 11.3314 23.4752 11.7108C23.4807 12.0903 23.6339 12.4526 23.9022 12.7209C24.1706 12.9892 24.5329 13.1424 24.9123 13.148C25.2918 13.1535 25.6584 13.0109 25.9344 12.7505Z" fill="white"/>
</g>
<defs>
<clipPath id="clip0_2183_9262">
<rect width="24" height="24" fill="white" transform="translate(6.39844 6)"/>
</clipPath>
</defs>
</svg>
