<svg width="24" height="24" viewBox="0 0 24 24" fill="none" xmlns="http://www.w3.org/2000/svg">
<path d="M9.6372 14.8248V13.6085L5.3201 16.111C4.96117 16.3204 4.84153 16.779 5.0509 17.1379C5.19048 17.3772 5.43974 17.5068 5.69897 17.5068C5.82858 17.5068 5.95819 17.4769 6.07783 17.4071L9.78676 15.2635C9.70699 15.1339 9.64717 14.9943 9.64717 14.8348L9.6372 14.8248Z" fill="white"/>
<path d="M19.4553 20.0192C19.4553 20.0192 19.3855 20.0192 19.3457 20.0192L5.13809 17.9952C4.7692 17.9454 4.5 17.6263 4.5 17.2574V3.74777C4.5 3.33899 4.83899 3 5.24777 3C5.65655 3 5.99553 3.33899 5.99553 3.74777V16.6094L19.565 18.5436C19.9738 18.6034 20.2629 18.9823 20.2031 19.391C20.1532 19.7599 19.8342 20.0291 19.4653 20.0291L19.4553 20.0192Z" fill="white"/>
<path d="M11.5293 4.28619H10.3827C9.92567 4.28619 9.55518 4.65669 9.55518 5.11372V6.2603C9.55518 6.71733 9.92567 7.08782 10.3827 7.08782H11.5293C11.9863 7.08782 12.3568 6.71733 12.3568 6.2603V5.11372C12.3568 4.65669 11.9863 4.28619 11.5293 4.28619Z" fill="white"/>
<path d="M14.0217 10.4377H11.4694C11.0123 10.4377 10.6418 10.8082 10.6418 11.2653V13.8176C10.6418 14.2747 11.0123 14.6452 11.4694 14.6452H14.0217C14.4788 14.6452 14.8493 14.2747 14.8493 13.8176V11.2653C14.8493 10.8082 14.4788 10.4377 14.0217 10.4377Z" fill="white"/>
<path d="M17.8999 6.85858H16.8531C16.5006 6.85858 16.215 7.14427 16.215 7.49667V8.54355C16.215 8.89596 16.5006 9.18164 16.8531 9.18164H17.8999C18.2523 9.18164 18.538 8.89596 18.538 8.54355V7.49667C18.538 7.14427 18.2523 6.85858 17.8999 6.85858Z" fill="white"/>
<path d="M18.7593 14.4258H17.9118C17.62 14.4258 17.3834 14.6624 17.3834 14.9543V15.8017C17.3834 16.0936 17.62 16.3302 17.9118 16.3302H18.7593C19.0512 16.3302 19.2877 16.0936 19.2877 15.8017V14.9543C19.2877 14.6624 19.0512 14.4258 18.7593 14.4258Z" fill="white"/>
</svg>
