<svg width="55" height="54" viewBox="0 0 55 54" fill="none" xmlns="http://www.w3.org/2000/svg">
<g clip-path="url(#clip0_1116_9749)">
<path d="M40.7733 9.93602C33.0733 9.93602 35.365 13.626 30.965 13.662C26.9683 13.662 27.83 6.19202 27.83 6.19202H23.2467C23.2467 6.19202 22.715 13.392 25.4467 16.848C29.865 22.464 30.5067 33.498 21.78 33.354C18.1133 33.354 18.1133 29.862 12.9433 29.862C11.522 29.807 10.1075 30.0814 8.81434 30.6631C7.52118 31.2447 6.38574 32.1173 5.5 33.21L8.92833 35.37C9.21717 34.8038 9.6589 34.3264 10.2053 33.9899C10.7517 33.6534 11.3817 33.4708 12.0267 33.462C12.996 33.4903 13.9145 33.8944 14.581 34.586C15.2476 35.2775 15.608 36.2002 15.5833 37.152C15.5833 39.348 12.8333 41.4 14.6667 45C16.5 48.6 21.8167 49.86 30.3783 49.104C37.9317 48.6 44.8067 40.086 47.8317 30.6C51.7917 18 48.4 9.93602 40.7733 9.93602Z" fill="currentColor"/>
</g>
<defs>
<clipPath id="clip0_1116_9749">
<rect width="55" height="54" fill="currentColor"/>
</clipPath>
</defs>
</svg>
