<svg width="24" height="24" viewBox="0 0 24 24" fill="none" xmlns="http://www.w3.org/2000/svg">
<path d="M12.6401 9.74709C12.4837 9.70107 12.3272 9.79311 12.2811 9.94039L11.1305 13.9537C11.0845 14.1102 11.1766 14.2666 11.3238 14.3127C11.4711 14.3587 11.6368 14.2666 11.6828 14.1194L12.8334 10.1061C12.8795 9.94959 12.7874 9.79311 12.6401 9.74709ZM13.3581 10.8148C13.2476 10.9253 13.2476 11.1094 13.3581 11.2199L14.1589 12.0207L13.3581 12.8215C13.2476 12.9319 13.2476 13.116 13.3581 13.2265C13.4686 13.337 13.6527 13.337 13.7631 13.2265L14.7664 12.2232C14.8769 12.1127 14.8769 11.9286 14.7664 11.8182L13.7631 10.8148C13.6527 10.7044 13.4686 10.7044 13.3581 10.8148ZM10.6151 10.8148C10.5046 10.7044 10.3205 10.7044 10.2101 10.8148L9.20674 11.8182C9.09629 11.9286 9.09629 12.1127 9.20674 12.2232L10.2101 13.2265C10.3205 13.337 10.5046 13.337 10.6151 13.2265C10.7255 13.116 10.7255 12.9319 10.6151 12.8215L9.81426 12.0207L10.6151 11.2199C10.7255 11.1094 10.7255 10.9253 10.6151 10.8148Z" fill="white"/>
<path d="M20.4462 8.87266C20.5566 9.17642 20.4646 9.51699 20.2253 9.73791C20.2253 9.73791 18.8721 10.64 18.6973 11.1278C18.596 11.404 18.6788 11.7169 18.6788 12.0207C18.6788 12.3245 18.596 12.6374 18.6973 12.9136C18.8721 13.4014 20.2253 14.3035 20.2253 14.3035C20.4646 14.5244 20.5658 14.865 20.4554 15.1687C20.2989 15.5922 20.1148 15.988 19.8939 16.3746L19.7282 16.6599C19.4981 17.0465 19.2311 17.4147 18.955 17.7553C18.7433 18.0038 18.4027 18.0959 18.0897 17.9946L16.6262 17.5344C16.3132 17.4331 15.9726 17.4976 15.6965 17.6816C15.494 17.8197 15.2731 17.9394 15.0614 18.0498C14.7668 18.1971 14.5367 18.4641 14.4723 18.7862L14.1409 20.2866C14.0672 20.5996 13.8187 20.8573 13.5058 20.9125C13.0179 20.9954 12.5208 21.0322 12.0054 21.0322C11.4899 21.0322 10.9928 20.9862 10.505 20.9125C10.1828 20.8573 9.93429 20.5996 9.86986 20.2866L9.53849 18.7862C9.46485 18.4641 9.24394 18.1971 8.94938 18.0498C8.72847 17.9394 8.51676 17.8197 8.31425 17.6816C8.03811 17.4976 7.69753 17.4331 7.37536 17.5344L5.921 18.0038C5.60804 18.1051 5.26746 18.013 5.05575 17.7645C4.77041 17.4147 4.51267 17.0557 4.27335 16.6691L4.10766 16.3838C3.89595 15.9972 3.70265 15.5922 3.54617 15.1779C3.43571 14.8742 3.52776 14.5336 3.77629 14.3127C3.77629 14.3127 5.12019 13.4106 5.30428 12.9228C5.40554 12.6466 5.35951 12.3429 5.35951 12.0391C5.35951 11.7353 5.40554 11.404 5.30428 11.1278C5.12939 10.64 3.77629 9.73791 3.77629 9.73791C3.53696 9.51699 3.43571 9.17642 3.54617 8.87266C3.70265 8.44924 3.88675 8.05343 4.10766 7.66683L4.27335 7.38148C4.50347 6.99488 4.77041 6.62669 5.04655 6.28611C5.25826 6.03758 5.59884 5.94553 5.9118 6.04679L7.37536 6.50703C7.68832 6.60828 8.0289 6.54385 8.30505 6.35975C8.50755 6.22168 8.72847 6.10202 8.94018 5.99156C9.23473 5.84428 9.46485 5.57734 9.52928 5.25518L9.86066 3.75479C9.92509 3.44183 10.1736 3.1841 10.4958 3.12887C10.9836 3.04602 11.4899 3 12.0054 3C12.5208 3 13.0179 3.04602 13.5058 3.11966C13.8279 3.17489 14.0765 3.43263 14.1409 3.74559L14.4723 5.24597C14.5459 5.56814 14.7668 5.83508 15.0614 5.98235C15.2823 6.09281 15.494 6.22168 15.6965 6.35054C15.9726 6.53464 16.3132 6.59908 16.6262 6.49782L18.0897 6.03758C18.4027 5.93633 18.7433 6.02838 18.955 6.27691C19.2403 6.61748 19.4981 6.98568 19.7282 7.37228L19.8939 7.65763C20.1056 8.04423 20.2989 8.44924 20.4462 8.86345V8.87266ZM11.987 16.9821C14.73 16.9821 16.9483 14.7637 16.9483 12.0207C16.9483 9.27767 14.73 7.05931 11.987 7.05931C9.24393 7.05931 7.02558 9.27767 7.02558 12.0207C7.02558 14.7637 9.24393 16.9821 11.987 16.9821Z" fill="white"/>
</svg>
