<svg width="55" height="55" viewBox="0 0 55 55" fill="none" xmlns="http://www.w3.org/2000/svg">
<g clip-path="url(#clip0_1116_9725)">
<path d="M43.065 29.0216C43.065 29.0216 41.2316 21.4133 36.41 19.3233C34.9983 18.865 30.91 20.0566 33.385 26.0883C32.78 25.3733 30.5066 20.9366 32.4133 18.0766C33.0812 17.2085 33.935 16.501 34.9122 16.006C35.8893 15.5111 36.9649 15.2414 38.06 15.2166C38.4584 15.2202 38.8523 15.131 39.2103 14.9559C39.5683 14.7809 39.8806 14.525 40.1225 14.2083C40.3644 13.8917 40.5293 13.5231 40.6041 13.1317C40.6789 12.7403 40.6615 12.3368 40.5533 11.9533C40.15 9.16663 36.5016 9.55163 36.5016 9.55163C36.5016 9.55163 27.06 9.36829 24.805 15.6016C24.805 8.02996 34.485 7.99329 34.485 7.99329C34.485 5.64663 26.3633 4.19829 21.175 8.21329C14.19 13.6033 14.245 22.88 19.8366 29.92C18.2386 28.8496 16.9104 27.4235 15.9561 25.7535C15.0018 24.0835 14.4475 22.2151 14.3366 20.295C13.42 21.4683 10.67 25.795 11.4766 33.6783C12.6316 45.595 37.95 55.1283 42.1116 49.0966C46.2733 43.065 43.065 29.0216 43.065 29.0216Z" fill="currentColor"/>
<path d="M15.95 10.5234C15.3266 9.29502 10.45 9.38668 10.45 10.7984V21.1384C11.3118 19.5151 12.5122 18.0959 13.97 16.9767C14.0423 14.6874 14.7259 12.4592 15.95 10.5234Z" fill="currentColor"/>
</g>
<defs>
<clipPath id="clip0_1116_9725">
<rect width="55" height="55" fill="currentColor"/>
</clipPath>
</defs>
</svg>
