<svg width="24" height="24" viewBox="0 0 24 24" fill="none" xmlns="http://www.w3.org/2000/svg">
<path d="M22.8964 2.34897C22.8066 2.1963 22.6629 2.08853 22.5013 2.03464C22.3396 1.98076 22.151 1.98974 21.9894 2.06158C21.0733 2.53757 20.283 3.23808 19.6992 4.09127C19.1155 4.94445 18.7472 5.93235 18.6305 6.95618C18.4958 8.24942 18.0288 9.48879 17.2834 10.5485C17.1397 10.7282 16.987 10.8898 16.8343 11.0604L16.493 11.4017L16.1697 11.7161C16.1697 11.7161 16.1518 11.734 16.1428 11.734C16.0799 11.7879 16.0171 11.8328 15.9452 11.8687C15.8644 11.9136 15.7836 11.9585 15.6937 11.9855C15.4872 12.0573 15.2627 12.0933 15.0471 12.0753C15.0471 12.0753 15.0202 12.0753 15.0022 12.0753C14.9843 12.0663 14.9663 12.0483 14.9393 12.0394C14.0143 11.5813 12.9815 11.3389 11.9487 11.3568C11.1314 11.3478 10.3142 11.5095 9.54182 11.7879C9.38017 11.8418 9.19157 11.9316 8.99399 12.0214C8.96705 12.0304 8.94908 12.0483 8.92214 12.0573C8.71558 12.0663 8.50902 12.0394 8.31144 11.9765C8.22163 11.9406 8.1408 11.9047 8.05998 11.8597C7.98813 11.8148 7.92526 11.7699 7.8624 11.725C7.85341 11.725 7.84443 11.7071 7.83545 11.7071L7.51214 11.3927L7.17087 11.0515C7.00921 10.8898 6.86552 10.7192 6.72182 10.5396C5.97641 9.47981 5.5094 8.24044 5.37469 6.94719C5.24895 5.92337 4.88074 4.94445 4.29698 4.10025C3.70424 3.23808 2.9229 2.54655 2.00685 2.07056C1.84519 1.99872 1.66557 1.99872 1.50392 2.04362C1.34226 2.08853 1.18959 2.21426 1.09978 2.36693C1.00997 2.51961 0.983025 2.69923 1.00997 2.86986C1.04589 3.0405 1.1357 3.19318 1.27939 3.30095C2.07869 3.68713 2.71634 4.33375 3.10252 5.13305C3.63239 6.09401 3.98265 7.15376 4.11736 8.24942C4.35984 9.46185 4.8987 10.5934 5.68004 11.5454C6.11112 12.0483 6.58711 12.5243 7.09004 12.9554C7.17087 13.1261 7.21577 13.3147 7.22475 13.5122C7.07208 13.7278 7.00023 13.8805 6.99125 13.8984C6.80265 14.2936 6.69488 14.7157 6.69488 15.1468C6.69488 16.8262 8.23061 18.335 10.4399 18.811C10.7812 19.0085 10.9967 19.3678 11.0057 19.754V21.7298H12.8648V19.7719C12.8648 19.3768 13.0893 19.0085 13.4485 18.811C13.6551 18.7661 13.8616 18.7032 14.0682 18.6403C15.9811 17.9937 17.1666 16.6556 17.1666 15.1378C17.1486 14.7516 17.0588 14.4013 16.9062 14.0421L16.8343 13.8535C16.8074 13.7727 16.7894 13.6829 16.7625 13.638C16.7625 13.3685 16.8433 13.1081 16.969 12.8746C17.436 12.4615 17.8851 12.0214 18.2892 11.5454C19.0706 10.5845 19.6004 9.45287 19.8519 8.24942C19.9956 7.15376 20.3458 6.08503 20.8937 5.12407C21.2799 4.32477 21.9265 3.67815 22.7168 3.29197C22.8605 3.1842 22.9503 3.03152 22.9862 2.86088C23.0222 2.69025 22.9862 2.51063 22.8964 2.35795V2.34897ZM13.8616 18.0925C13.673 18.1554 13.4665 18.2092 13.2689 18.2542L13.1881 18.2811C12.6313 18.5775 12.272 19.1433 12.2541 19.7629V21.146H11.6074V19.727C11.5985 19.1253 11.2482 18.5775 10.7093 18.2721L10.6285 18.2452C8.67068 17.832 7.30558 16.5657 7.30558 15.1378C7.30558 14.6798 7.44029 14.2397 7.69176 13.8445C7.9073 13.5302 8.36533 12.9644 9.15565 12.5513C10.0088 12.1202 10.9518 11.9136 11.9307 11.9136C12.8827 11.8867 13.8527 12.1292 14.6969 12.5603L14.7418 12.5782C15.6129 13.0273 15.9811 13.4853 16.1967 13.8894C16.4122 14.2756 16.5379 14.7157 16.5559 15.1468C16.5559 16.4041 15.5231 17.5357 13.8527 18.0925H13.8616Z" fill="white"/>
</svg>
