<svg width="40" height="40" viewBox="0 0 40 40" fill="none" xmlns="http://www.w3.org/2000/svg">
<mask id="mask0_4945_20036" style="mask-type:alpha" maskUnits="userSpaceOnUse" x="8" y="8" width="24" height="24">
<rect x="8" y="8" width="24" height="24" fill="#D9D9D9"/>
</mask>
<g mask="url(#mask0_4945_20036)">
<path d="M14 27.6133C13.5558 27.6133 13.1756 27.4551 12.8593 27.1388C12.5429 26.8225 12.3848 26.4422 12.3848 25.9981C12.3848 25.5539 12.5429 25.1736 12.8593 24.8573C13.1756 24.541 13.5558 24.3828 14 24.3828C14.4442 24.3828 14.8244 24.541 15.1408 24.8573C15.4571 25.1736 15.6153 25.5539 15.6153 25.9981C15.6153 26.4422 15.4571 26.8225 15.1408 27.1388C14.8244 27.4551 14.4442 27.6133 14 27.6133ZM20 27.6133C19.5558 27.6133 19.1756 27.4551 18.8593 27.1388C18.5429 26.8225 18.3848 26.4422 18.3848 25.9981C18.3848 25.5539 18.5429 25.1736 18.8593 24.8573C19.1756 24.541 19.5558 24.3828 20 24.3828C20.4442 24.3828 20.8244 24.541 21.1408 24.8573C21.4571 25.1736 21.6153 25.5539 21.6153 25.9981C21.6153 26.4422 21.4571 26.8225 21.1408 27.1388C20.8244 27.4551 20.4442 27.6133 20 27.6133ZM26 27.6133C25.5558 27.6133 25.1756 27.4551 24.8593 27.1388C24.5429 26.8225 24.3848 26.4422 24.3848 25.9981C24.3848 25.5539 24.5429 25.1736 24.8593 24.8573C25.1756 24.541 25.5558 24.3828 26 24.3828C26.4442 24.3828 26.8244 24.541 27.1408 24.8573C27.4571 25.1736 27.6153 25.5539 27.6153 25.9981C27.6153 26.4422 27.4571 26.8225 27.1408 27.1388C26.8244 27.4551 26.4442 27.6133 26 27.6133ZM14 21.6133C13.5558 21.6133 13.1756 21.4551 12.8593 21.1388C12.5429 20.8225 12.3848 20.4422 12.3848 19.9981C12.3848 19.5539 12.5429 19.1736 12.8593 18.8573C13.1756 18.541 13.5558 18.3828 14 18.3828C14.4442 18.3828 14.8244 18.541 15.1408 18.8573C15.4571 19.1736 15.6153 19.5539 15.6153 19.9981C15.6153 20.4422 15.4571 20.8225 15.1408 21.1388C14.8244 21.4551 14.4442 21.6133 14 21.6133ZM20 21.6133C19.5558 21.6133 19.1756 21.4551 18.8593 21.1388C18.5429 20.8225 18.3848 20.4422 18.3848 19.9981C18.3848 19.5539 18.5429 19.1736 18.8593 18.8573C19.1756 18.541 19.5558 18.3828 20 18.3828C20.4442 18.3828 20.8244 18.541 21.1408 18.8573C21.4571 19.1736 21.6153 19.5539 21.6153 19.9981C21.6153 20.4422 21.4571 20.8225 21.1408 21.1388C20.8244 21.4551 20.4442 21.6133 20 21.6133ZM26 21.6133C25.5558 21.6133 25.1756 21.4551 24.8593 21.1388C24.5429 20.8225 24.3848 20.4422 24.3848 19.9981C24.3848 19.5539 24.5429 19.1736 24.8593 18.8573C25.1756 18.541 25.5558 18.3828 26 18.3828C26.4442 18.3828 26.8244 18.541 27.1408 18.8573C27.4571 19.1736 27.6153 19.5539 27.6153 19.9981C27.6153 20.4422 27.4571 20.8225 27.1408 21.1388C26.8244 21.4551 26.4442 21.6133 26 21.6133ZM14 15.6133C13.5558 15.6133 13.1756 15.4551 12.8593 15.1388C12.5429 14.8225 12.3848 14.4422 12.3848 13.9981C12.3848 13.5539 12.5429 13.1736 12.8593 12.8573C13.1756 12.541 13.5558 12.3828 14 12.3828C14.4442 12.3828 14.8244 12.541 15.1408 12.8573C15.4571 13.1736 15.6153 13.5539 15.6153 13.9981C15.6153 14.4422 15.4571 14.8225 15.1408 15.1388C14.8244 15.4551 14.4442 15.6133 14 15.6133ZM20 15.6133C19.5558 15.6133 19.1756 15.4551 18.8593 15.1388C18.5429 14.8225 18.3848 14.4422 18.3848 13.9981C18.3848 13.5539 18.5429 13.1736 18.8593 12.8573C19.1756 12.541 19.5558 12.3828 20 12.3828C20.4442 12.3828 20.8244 12.541 21.1408 12.8573C21.4571 13.1736 21.6153 13.5539 21.6153 13.9981C21.6153 14.4422 21.4571 14.8225 21.1408 15.1388C20.8244 15.4551 20.4442 15.6133 20 15.6133ZM26 15.6133C25.5558 15.6133 25.1756 15.4551 24.8593 15.1388C24.5429 14.8225 24.3848 14.4422 24.3848 13.9981C24.3848 13.5539 24.5429 13.1736 24.8593 12.8573C25.1756 12.541 25.5558 12.3828 26 12.3828C26.4442 12.3828 26.8244 12.541 27.1408 12.8573C27.4571 13.1736 27.6153 13.5539 27.6153 13.9981C27.6153 14.4422 27.4571 14.8225 27.1408 15.1388C26.8244 15.4551 26.4442 15.6133 26 15.6133Z" fill="#201E3D"/>
</g>
</svg>
