<svg width="20" height="20" viewBox="0 0 20 20" fill="none" xmlns="http://www.w3.org/2000/svg">
<mask id="mask0_6475_6942" style="mask-type:alpha" maskUnits="userSpaceOnUse" x="0" y="0" width="20" height="20">
<rect width="20" height="20" fill="#D9D9D9"/>
</mask>
<g mask="url(#mask0_6475_6942)">
<path d="M9.99497 12.7513C9.89497 12.7513 9.80122 12.7339 9.71372 12.6992C9.62622 12.6645 9.54775 12.6124 9.4783 12.543L5.52705 8.59172C5.36955 8.43422 5.29428 8.25477 5.30122 8.05339C5.30817 7.852 5.38803 7.67491 5.5408 7.52214C5.69358 7.36936 5.87067 7.29297 6.07205 7.29297C6.27344 7.29297 6.45053 7.36936 6.6033 7.52214L9.99914 10.9388L13.4158 7.52214C13.5686 7.36936 13.7457 7.29644 13.9471 7.30339C14.1484 7.31033 14.3255 7.39019 14.4783 7.54297C14.6311 7.69575 14.7075 7.87283 14.7075 8.07422C14.7075 8.27561 14.6287 8.45464 14.4712 8.6113L10.52 12.543C10.445 12.6124 10.3637 12.6645 10.2762 12.6992C10.1887 12.7339 10.095 12.7513 9.99497 12.7513Z" fill="#201E3D"/>
</g>
</svg>
