<svg width="48" height="48" viewBox="0 0 48 48" fill="none" xmlns="http://www.w3.org/2000/svg">
<path d="M18.0904 38.3613C13.3553 38.3613 8.62024 38.3613 3.88517 38.3613C1.99115 38.3613 0.898438 37.3451 0.898438 35.4579C0.898438 27.8363 0.898438 20.1422 0.898438 12.5206C0.898438 10.706 1.99115 9.61719 3.81233 9.61719C13.3553 9.61719 22.8983 9.61719 32.4413 9.61719C32.9512 9.61719 33.2426 9.76236 33.534 10.1979C35.938 14.6256 38.4148 18.9808 40.8916 23.4086C41.1101 23.8441 41.1101 24.1344 40.8916 24.5699C38.4148 28.9977 35.938 33.4255 33.4612 37.8532C33.2426 38.2887 33.0241 38.4339 32.5141 38.4339C27.7791 38.3613 22.9711 38.3613 18.0904 38.3613ZM7.74608 21.3762C7.81893 21.3762 7.81892 21.3036 7.89177 21.3036C8.03747 21.5213 8.11031 21.6665 8.25601 21.8843C9.7858 24.2796 11.3156 26.6749 12.6997 29.0703C13.3553 30.1591 14.0109 30.6672 15.3222 30.522C15.9778 30.4494 16.1964 30.3043 16.1964 29.651C16.1964 26.0943 16.1964 22.4649 16.1964 18.9082C16.1964 17.2387 16.4149 17.5291 14.7394 17.4565C14.0838 17.4565 13.8652 17.6743 13.8652 18.3275C13.8652 20.8681 13.8652 23.4086 13.8652 25.9491C13.8652 26.1668 13.8652 26.3846 13.8652 26.6749C13.5739 26.4572 13.4282 26.312 13.2825 26.0943C11.6798 23.6263 10.2229 21.231 8.76594 18.9082C7.89177 17.4565 7.89177 17.5291 6.21629 17.5291C5.63351 17.5291 5.48781 17.7468 5.48781 18.2549C5.48781 22.102 5.48781 25.9491 5.48781 29.7962C5.48781 30.0139 5.48781 30.2317 5.56066 30.522C5.85205 30.522 6.07059 30.522 6.36198 30.522C7.81893 30.522 7.81893 30.522 7.81893 29.1429C7.74608 26.5298 7.74608 23.9893 7.74608 21.3762ZM22.8255 30.522C23.4082 30.522 23.9182 30.522 24.4281 30.522C25.0109 30.5946 25.1566 30.3768 25.1566 29.7962C25.1566 28.3444 25.1566 26.8201 25.1566 25.3684C25.1566 24.8603 25.3023 24.7151 25.8122 24.7151C27.342 24.7151 28.8718 24.7151 30.3287 24.7151C30.7658 24.7151 30.9115 24.8603 30.9115 25.2958C30.9115 26.4572 30.9115 27.6912 30.9115 28.8525C30.9115 30.522 30.9115 30.522 32.587 30.522C33.2426 30.522 33.3883 30.3043 33.3155 29.7236C33.3155 26.0943 33.3155 22.4649 33.3155 18.8356C33.3155 17.3113 33.6068 17.4565 31.9314 17.4565C30.9115 17.4565 30.9115 17.4565 30.9115 18.4727C30.9115 19.8518 30.9115 21.1584 30.9115 22.6101C29.1632 22.6101 27.5605 22.6101 25.885 22.6101C25.3023 22.6101 25.0837 22.4649 25.1566 21.8843C25.2294 20.5777 25.1566 19.3437 25.1566 18.0372C25.1566 17.8194 24.938 17.4565 24.7923 17.4565C24.1367 17.3839 23.5539 17.4565 22.8255 17.4565C22.8255 21.8843 22.8255 26.1668 22.8255 30.522ZM20.64 23.9893C20.64 22.3198 20.64 20.7229 20.64 19.0534C20.64 17.2387 20.8586 17.5291 19.1102 17.4565C18.2361 17.4565 18.2361 17.4565 18.2361 18.4001C18.2361 21.8843 18.2361 25.2958 18.2361 28.7799C18.2361 30.522 18.2361 30.522 19.9844 30.522C20.5672 30.522 20.7129 30.3043 20.7129 29.7962C20.64 27.8363 20.64 25.9491 20.64 23.9893Z" fill="#E00D3A"/>
<path d="M35.3555 38.3636C36.1568 36.9844 36.8853 35.6779 37.5409 34.3713C39.3621 31.0324 41.2561 27.766 43.0773 24.4996C43.2958 24.0641 43.223 23.7737 43.0044 23.4108C40.6005 19.1282 38.1965 14.7731 35.7926 10.4179C35.6469 10.2001 35.574 9.90978 35.4283 9.69202C37.6866 9.2565 39.4349 9.90977 40.4548 11.797C42.5673 15.7167 44.7528 19.5637 46.9382 23.4108C47.1567 23.7737 47.1567 24.0641 46.9382 24.427C44.6799 28.4193 42.4216 32.4841 40.1634 36.4763C39.5078 37.7103 38.3422 38.291 37.031 38.291C36.5939 38.3636 36.0111 38.3636 35.3555 38.3636Z" fill="#E00D3A"/>
</svg>
