<svg width="49" height="48" viewBox="0 0 49 48" fill="none" xmlns="http://www.w3.org/2000/svg">
<g clip-path="url(#clip0_6475_5799)">
<g clip-path="url(#clip1_6475_5799)">
<mask id="mask0_6475_5799" style="mask-type:luminance" maskUnits="userSpaceOnUse" x="0" y="15" width="49" height="18">
<path d="M48.5996 15H0.599609V33H48.5996V15Z" fill="white"/>
</mask>
<g mask="url(#mask0_6475_5799)">
<path d="M48.6003 27.6429H48.4573C47.6428 27.6429 46.8283 27.641 46.0139 27.6454C45.9727 27.6498 45.9311 27.6403 45.8955 27.6183C45.8599 27.5963 45.832 27.5629 45.8161 27.5231C45.0937 26.1541 44.3698 24.786 43.6446 23.4188C43.6281 23.3791 43.5998 23.346 43.5638 23.3242C43.5279 23.3024 43.4861 23.2932 43.4448 23.2979C42.8052 23.3023 42.1655 23.3036 41.526 23.2973C41.3994 23.2961 41.3597 23.328 41.3602 23.4659C41.3655 24.7942 41.3634 26.1223 41.3634 27.4506V27.6352C41.3134 27.6381 41.2723 27.6425 41.2311 27.6426C40.472 27.6426 39.7131 27.6405 38.9541 27.6454C38.8427 27.6462 38.8105 27.617 38.8105 27.4981C38.8136 23.4691 38.8145 19.4401 38.8131 15.4109V15.2802C38.868 15.2767 38.913 15.2713 38.9578 15.2712C40.7143 15.2712 42.4715 15.267 44.2283 15.272C45.9102 15.2768 47.4099 16.3497 47.9419 17.93C48.5537 19.7471 47.9815 21.8555 46.1393 22.9073C46.1136 22.922 46.0893 22.9394 46.0517 22.9636C46.8974 24.5159 47.7412 26.0649 48.6004 27.6422M41.363 19.2732C41.363 19.7554 41.3622 20.2377 41.363 20.7199C41.363 20.9417 41.3331 20.9298 41.5589 20.9299C42.2492 20.9299 42.939 20.9314 43.6298 20.9292C43.8254 20.9286 44.0216 20.926 44.2165 20.9103C44.4315 20.892 44.6403 20.8269 44.8295 20.7194C45.0186 20.6118 45.184 20.4641 45.3147 20.2859C45.4455 20.1077 45.5387 19.9029 45.5884 19.6848C45.6381 19.4667 45.6432 19.2402 45.6032 19.0199C45.4469 18.1774 44.8394 17.65 43.999 17.643C43.1639 17.636 42.3286 17.643 41.4936 17.6391C41.382 17.6386 41.3598 17.682 41.3607 17.7866C41.365 18.2821 41.3626 18.7777 41.3626 19.2732" fill="#E00D3A"/>
<path d="M38.1327 27.6453H37.9879C37.1779 27.6453 36.3678 27.6427 35.5577 27.6484C35.5145 27.6543 35.4708 27.6428 35.4356 27.6161C35.4003 27.5895 35.3763 27.5498 35.3685 27.5052C35.064 26.6232 34.7527 25.7435 34.4476 24.8616C34.4401 24.8194 34.4173 24.7818 34.3839 24.7566C34.3505 24.7314 34.3091 24.7204 34.2682 24.7261C32.8185 24.7307 31.3689 24.7309 29.9193 24.7268C29.8802 24.7211 29.8405 24.7311 29.8083 24.7547C29.776 24.7783 29.7536 24.8138 29.7456 24.854C29.4389 25.7405 29.1269 26.6251 28.8208 27.5119C28.8133 27.5544 28.7905 27.5923 28.7569 27.6177C28.7233 27.6431 28.6816 27.654 28.6405 27.6484C27.8305 27.643 27.0203 27.6454 26.2102 27.6454H26.0605C26.1418 27.4263 26.215 27.226 26.2902 27.0267C27.1284 24.8104 27.9666 22.5942 28.8048 20.378C29.4324 18.7181 30.0593 17.0578 30.6856 15.3973C30.695 15.3574 30.7183 15.3225 30.7508 15.2993C30.7834 15.276 30.8231 15.266 30.8623 15.2711C31.6809 15.2753 32.4995 15.2753 33.318 15.2711C33.361 15.2652 33.4046 15.276 33.4404 15.3016C33.4761 15.3271 33.5015 15.3656 33.5115 15.4094C34.5563 18.1793 35.6029 20.9483 36.6515 23.7165C37.1306 24.9835 37.6094 26.2506 38.0876 27.5179C38.1 27.5506 38.111 27.5836 38.1327 27.6453ZM32.1124 18.3927L32.08 18.3938L30.6483 22.4185H33.5443L32.1124 18.3927Z" fill="#E00D3A"/>
<path d="M12.0892 25.436C11.7104 25.9319 11.261 26.3648 10.7566 26.7199C9.9038 27.3468 8.9116 27.7381 7.87328 27.857C5.86756 28.0777 4.07772 27.5403 2.57645 26.1151C1.48284 25.0952 0.792991 23.6893 0.640886 22.1705C0.503874 20.8853 0.745551 19.5872 1.33394 18.4479C1.92232 17.3086 2.82969 16.3819 3.93595 15.7903C5.03628 15.1887 6.27754 14.9216 7.51726 15.0199C9.30121 15.1517 10.7765 15.9331 11.9245 17.3654C11.9489 17.3955 11.9704 17.4288 11.9849 17.4489L10.3725 19.1194C10.068 18.6967 9.69215 18.335 9.26318 18.0521C8.66207 17.6404 7.96223 17.4115 7.2426 17.3911C5.68651 17.3539 4.45864 17.9885 3.67113 19.3971C2.53485 21.4286 3.24486 24.3263 5.63082 25.2503C7.08539 25.8137 8.45783 25.5461 9.70606 24.6109C10.0207 24.3752 10.2896 24.0738 10.5903 23.7926L12.0892 25.436Z" fill="#E00D3A"/>
<path d="M21.1505 27.6335H18.625V15.272H18.7784C21.5882 15.272 24.3979 15.2712 27.2076 15.2695C27.3313 15.2695 27.376 15.2946 27.3745 15.4352C27.3669 16.1126 27.3711 16.7899 27.371 17.4672C27.371 17.6417 27.371 17.6421 27.2062 17.6421H21.3351C21.1507 17.6421 21.1505 17.6421 21.1505 17.8392C21.1505 18.8132 21.1527 19.7871 21.1478 20.761C21.1472 20.8922 21.1775 20.9343 21.3104 20.9338C22.8159 20.9289 24.3205 20.9307 25.8255 20.9307C26.0021 20.9307 26.0022 20.9307 26.0022 21.1198C26.0022 21.7971 25.9993 22.4744 26.0049 23.1517C26.0059 23.2773 25.9751 23.3164 25.8499 23.3161C24.3405 23.3117 22.8312 23.3107 21.3219 23.3133C21.1509 23.3133 21.1506 23.3133 21.1506 23.4956C21.1506 24.8148 21.1506 26.1341 21.1506 27.4534L21.1505 27.6335Z" fill="#E00D3A"/>
<path d="M16.2839 21.4519V27.4691C16.2839 27.6438 16.2839 27.644 16.1188 27.644C15.3811 27.644 14.6433 27.6415 13.9057 27.6466C13.7878 27.6474 13.744 27.6217 13.7441 27.488C13.7474 23.4676 13.7476 19.4473 13.7448 15.427C13.7448 15.3079 13.7746 15.2686 13.8944 15.2695C14.6448 15.2752 15.3954 15.2752 16.1459 15.2695C16.2627 15.2687 16.2863 15.3086 16.2862 15.4214C16.2831 17.4315 16.2823 19.4417 16.2839 21.4519Z" fill="#E00D3A"/>
<path d="M48.5667 30.3789H38.8203V32.9995H48.5667V30.3789Z" fill="#E00D3A"/>
</g>
</g>
</g>
<defs>
<clipPath id="clip0_6475_5799">
<rect width="48" height="48" fill="white" transform="translate(0.599609)"/>
</clipPath>
<clipPath id="clip1_6475_5799">
<rect width="48" height="18" fill="white" transform="translate(0.599609 15)"/>
</clipPath>
</defs>
</svg>
