<svg width="116" height="48" viewBox="0 0 116 48" fill="none" xmlns="http://www.w3.org/2000/svg">
<path d="M61.9425 4.69922V12.8477H61.0082V9.13688H56.1491V12.8477H55.2148V4.69922H56.1491V8.257H61.0082V4.69922H61.9425Z" fill="#201E3D"/>
<path d="M69.069 6.7164V12.8482H68.1679V11.8645C67.8086 12.5149 67.007 12.9903 66.1281 12.9903C64.7627 12.9903 63.8008 12.0066 63.8008 10.6185V6.7164H64.7019V10.4983C64.7019 11.4929 65.3376 12.1924 66.2497 12.1924C67.2945 12.1924 68.1679 11.471 68.1679 10.613V6.71094H69.069V6.7164Z" fill="#201E3D"/>
<path d="M79.8155 8.94607V12.8482H78.9144V9.06631C78.9144 8.07166 78.3284 7.37212 77.4882 7.37212C76.5042 7.37212 75.8076 8.02247 75.8076 8.95154V12.8536H74.9066V9.07177C74.9066 8.07712 74.3206 7.37759 73.4804 7.37759C72.4964 7.37759 71.7998 8.02794 71.7998 8.957V12.8591H70.9043V6.71631H71.8054V7.61805C72.1149 6.97864 72.7894 6.57422 73.602 6.57422C74.5362 6.57422 75.2714 7.08247 75.6031 7.88038C75.8574 7.08794 76.67 6.57422 77.6043 6.57422C78.9033 6.57422 79.8155 7.55794 79.8155 8.94607Z" fill="#201E3D"/>
<path d="M86.6753 9.10849V12.8412H85.7743V11.8793C85.332 12.6007 84.4089 12.9832 83.5907 12.9832C82.2861 12.9832 81.3242 12.2345 81.3242 11.0267C81.3242 9.80802 82.4298 8.98826 83.7565 8.98826C84.431 8.98826 85.1386 9.13035 85.7743 9.33256V9.10849C85.7743 8.27779 85.4371 7.33233 84.0938 7.33233C83.4691 7.33233 82.8444 7.60559 82.2806 7.88977L81.9212 7.16838C82.8113 6.73117 83.552 6.57815 84.1546 6.57815C85.8461 6.57268 86.6753 7.62745 86.6753 9.10849ZM85.7743 10.9229V9.98837C85.2104 9.83535 84.5747 9.73698 83.9058 9.73698C82.9826 9.73698 82.2032 10.2562 82.2032 10.9939C82.2032 11.7536 82.8721 12.2017 83.751 12.2017C84.5636 12.2072 85.5366 11.7919 85.7743 10.9229Z" fill="#201E3D"/>
<path d="M93.7897 8.94607V12.8482H92.8886V9.06631C92.8886 8.07166 92.2529 7.37212 91.3408 7.37212C90.296 7.37212 89.4226 8.09352 89.4226 8.95154V12.8536H88.5215V6.71631H89.4226V7.70003C89.7819 7.04968 90.5834 6.57422 91.4624 6.57422C92.8278 6.57422 93.7897 7.55794 93.7897 8.94607Z" fill="#201E3D"/>
<path d="M59.3495 24.0614L61.4833 27.0727H60.4164L58.3268 24.1434H56.1432V27.0727H55.209V18.9297H58.5534C60.2561 18.9297 61.5883 20.0063 61.5883 21.5365C61.5939 22.8208 60.6596 23.7936 59.3495 24.0614ZM56.1487 23.269H58.3931C59.7364 23.269 60.6486 22.6296 60.6486 21.5365C60.6486 20.4435 59.7364 19.8041 58.3931 19.8041H56.1487V23.269Z" fill="#201E3D"/>
<path d="M67.7248 25.6905L68.2776 26.2698C67.7358 26.8491 66.6468 27.2207 65.7845 27.2207C64.1316 27.2207 62.6445 25.8818 62.6445 23.9963C62.6445 22.171 64.0376 20.8047 65.7015 20.8047C67.57 20.8047 68.6424 22.2038 68.6424 24.3515H63.5677C63.7004 25.5484 64.5517 26.4283 65.7734 26.4283C66.5031 26.4228 67.3378 26.1058 67.7248 25.6905ZM63.5732 23.5536H67.7469C67.6253 22.4497 66.9674 21.5971 65.7292 21.5971C64.6291 21.5971 63.7446 22.3677 63.5732 23.5536Z" fill="#201E3D"/>
<path d="M71.5107 20.9476H73.0365V21.7401H71.5107V27.074H70.6096V21.7401H69.6367V20.9476H70.6096V20.106C70.6096 19.1933 71.2343 18.543 72.1188 18.543C72.5389 18.543 72.948 18.6851 73.2686 18.9365L72.8264 19.5868C72.6937 19.4447 72.456 19.3354 72.1796 19.3354C71.8203 19.3354 71.5052 19.6579 71.5052 20.106V20.9476H71.5107Z" fill="#201E3D"/>
<path d="M79.0685 25.6905L79.6213 26.2698C79.0796 26.8491 77.9906 27.2207 77.1282 27.2207C75.4753 27.2207 73.9883 25.8818 73.9883 23.9963C73.9883 22.171 75.3813 20.8047 77.0453 20.8047C78.9137 20.8047 79.9862 22.2038 79.9862 24.3515H74.9115C75.0441 25.5484 75.8954 26.4283 77.1171 26.4283C77.8468 26.4228 78.6871 26.1058 79.0685 25.6905ZM74.9225 23.5536H79.0962C78.9746 22.4497 78.3167 21.5971 77.0784 21.5971C75.9784 21.5971 75.0884 22.3677 74.9225 23.5536Z" fill="#201E3D"/>
<path d="M84.8393 20.8047V21.5971C83.4352 21.5971 82.4401 22.4497 82.4401 23.6465V27.0732H81.5391V20.9468H82.4401V22.1436C82.8105 21.3239 83.7005 20.8047 84.8393 20.8047Z" fill="#201E3D"/>
<path d="M90.8381 25.6905L91.3909 26.2698C90.8491 26.8491 89.7601 27.2207 88.8977 27.2207C87.2449 27.2207 85.7578 25.8818 85.7578 23.9963C85.7578 22.171 87.1509 20.8047 88.8148 20.8047C90.6833 20.8047 91.7557 22.2038 91.7557 24.3515H86.681C86.8137 25.5484 87.665 26.4283 88.8867 26.4283C89.6108 26.4228 90.4511 26.1058 90.8381 25.6905ZM86.6865 23.5536H90.8602C90.7386 22.4497 90.0807 21.5971 88.848 21.5971C87.7424 21.5971 86.8524 22.3677 86.6865 23.5536Z" fill="#201E3D"/>
<path d="M98.499 23.1765V27.0786H97.5979V23.2968C97.5979 22.3021 96.9622 21.6026 96.0501 21.6026C95.0053 21.6026 94.1319 22.324 94.1319 23.182V27.0841H93.2363V20.9468H94.1374V21.9305C94.4967 21.2802 95.2983 20.8047 96.1772 20.8047C97.5427 20.8047 98.499 21.7884 98.499 23.1765Z" fill="#201E3D"/>
<path d="M99.9863 24.0072C99.9863 22.2639 101.462 20.8047 103.198 20.8047C104.038 20.8047 104.818 21.149 105.404 21.7064L104.779 22.3131C104.37 21.8758 103.806 21.6026 103.198 21.6026C101.965 21.6026 100.932 22.7065 100.932 24.0072C100.932 25.3243 101.965 26.4283 103.198 26.4283C103.823 26.4283 104.398 26.1441 104.818 25.6796L105.442 26.2862C104.857 26.8655 104.06 27.2207 103.198 27.2207C101.462 27.2207 99.9863 25.7506 99.9863 24.0072Z" fill="#201E3D"/>
<path d="M111.572 25.6905L112.125 26.2698C111.583 26.8491 110.494 27.2207 109.632 27.2207C107.979 27.2207 106.492 25.8818 106.492 23.9963C106.492 22.171 107.885 20.8047 109.549 20.8047C111.418 20.8047 112.49 22.2038 112.49 24.3515H107.415C107.548 25.5484 108.399 26.4283 109.621 26.4283C110.351 26.4228 111.191 26.1058 111.572 25.6905ZM107.421 23.5536H111.595C111.473 22.4497 110.815 21.5971 109.582 21.5971C108.477 21.5971 107.592 22.3677 107.421 23.5536Z" fill="#201E3D"/>
<path d="M61.0905 39.4575H56.4968L55.6675 41.3047H54.6504L58.2823 33.1562H59.2995L62.9314 41.3047H61.9142L61.0905 39.4575ZM60.7091 38.5776L58.8019 34.2985L56.8837 38.5776H60.7091Z" fill="#201E3D"/>
<path d="M67.3975 41.0582C67.0714 41.3096 66.6678 41.4517 66.2477 41.4517C65.3577 41.4517 64.7386 40.8014 64.7386 39.8887V35.9757H63.7656V35.1833H64.7386V33.5H65.6396V35.1833H67.1654V35.9757H65.6396V39.8887C65.6396 40.3368 65.9492 40.6593 66.314 40.6593C66.5904 40.6593 66.8281 40.55 66.9608 40.4079L67.3975 41.0582Z" fill="#201E3D"/>
<path d="M68.6699 33.0195H69.571V41.3101H68.6699V33.0195Z" fill="#201E3D"/>
<path d="M76.4312 37.5734V41.3061H75.5301V40.3442C75.0879 41.0656 74.1647 41.4482 73.3466 41.4482C72.042 41.4482 71.0801 40.6994 71.0801 39.4916C71.0801 38.2729 72.1857 37.4532 73.5124 37.4532C74.1813 37.4532 74.8944 37.5953 75.5301 37.7975V37.5734C75.5301 36.7427 75.1929 35.7972 73.8496 35.7972C73.225 35.7972 72.6003 36.0705 72.0364 36.3547L71.6771 35.6333C72.5671 35.1961 73.3079 35.0431 73.9104 35.0431C75.602 35.0321 76.4312 36.0924 76.4312 37.5734ZM75.5301 39.3878V38.4533C74.9663 38.3003 74.3306 38.2019 73.6617 38.2019C72.7385 38.2019 71.959 38.7211 71.959 39.4589C71.959 40.2185 72.6335 40.6666 73.5069 40.6666C74.3195 40.6666 75.2924 40.2513 75.5301 39.3878Z" fill="#201E3D"/>
<path d="M77.8965 40.5346L78.3664 39.8843C79.074 40.3925 79.7815 40.6548 80.467 40.6548C81.2852 40.6548 81.8324 40.2777 81.8324 39.693C81.8324 39.0262 81.1138 38.8131 80.2735 38.5781C78.7754 38.1518 78.2005 37.7146 78.2005 36.8347C78.2005 35.7199 79.1348 35.0312 80.373 35.0312C81.1414 35.0312 81.9319 35.2936 82.5898 35.7199L82.1586 36.4085C81.5339 36.015 80.9258 35.8292 80.373 35.8292C79.6765 35.8292 79.1016 36.1352 79.1016 36.7309C79.1016 37.2665 79.5549 37.4304 80.7102 37.7966C81.7053 38.1026 82.739 38.436 82.739 39.6001C82.739 40.7259 81.755 41.4473 80.4725 41.4473C79.5991 41.4473 78.6372 41.1303 77.8965 40.5346Z" fill="#201E3D"/>
<g clip-path="url(#clip0_4180_39344)">
<path d="M25 48C38.2548 48 49 37.2548 49 24C49 10.7452 38.2548 0 25 0C11.7452 0 1 10.7452 1 24C1 37.2548 11.7452 48 25 48Z" fill="#FF0043"/>
<path d="M24.9995 3.40625C13.6428 3.40625 4.4043 12.6457 4.4043 24.0015C4.4043 35.3573 13.6438 44.5967 24.9995 44.5967C36.3553 44.5967 45.5948 35.3573 45.5948 24.0015C45.5948 12.6457 36.3563 3.40625 24.9995 3.40625ZM43.7153 23.6069H38.662C38.585 20.8977 37.7148 18.3828 36.2764 16.2873L39.9485 13.7626C40.0837 13.6698 40.1172 13.4853 40.0245 13.3512C39.9317 13.216 39.7472 13.1825 39.613 13.2752L35.932 15.8058C34.8724 14.396 33.5474 13.1973 32.032 12.2847L34.245 8.42113C34.3259 8.27906 34.2775 8.09851 34.1354 8.01761C33.9934 7.93572 33.8128 7.98604 33.7319 8.12713L31.52 11.9906C29.6829 10.9902 27.5923 10.3983 25.3715 10.3391L25.3537 5.86288C25.3537 5.64583 25.1761 5.47021 24.9591 5.47021H24.9571C24.7391 5.47021 24.5635 5.64879 24.5645 5.86683L24.5822 10.342C21.5228 10.4348 18.7129 11.5378 16.4753 13.3285L13.2097 9.47482C16.4309 6.8554 20.5362 5.28276 25.0015 5.28276C35.1921 5.28276 43.5062 13.4676 43.7173 23.6088L43.7153 23.6069ZM33.7526 33.3051L30.9329 29.9773C31.5052 29.41 31.9955 28.7609 32.3872 28.0495L36.2586 30.0444C35.6015 31.2629 34.7531 32.3629 33.7526 33.3041V33.3051ZM13.4702 29.5146L17.4017 27.643C17.8201 28.5122 18.3824 29.2985 19.0592 29.9714L16.1428 33.2075C15.0458 32.1518 14.1371 30.9028 13.4702 29.5156V29.5146ZM6.28377 24.3961H11.3371C11.3894 26.2213 11.8008 27.9578 12.5033 29.5373L7.94027 31.7098C6.92407 29.4712 6.33803 26.9978 6.28377 24.3961ZM16.4457 14.5144L19.2625 17.8382C17.6997 19.2934 16.6894 21.3337 16.5839 23.6069H12.2261C12.3356 20.0048 13.9437 16.7727 16.4457 14.5144ZM24.9995 31.0458C24.6207 31.0458 24.2497 31.0152 23.8867 30.957L24.6098 26.8814C24.7371 26.8982 24.8673 26.908 24.9986 26.908C25.6685 26.908 26.2851 26.6801 26.7774 26.2973L27.8242 27.5325C27.0329 28.1857 26.0187 28.5793 24.9147 28.5793C24.7785 28.5793 24.668 28.6898 24.668 28.826C24.668 28.9621 24.7785 29.0726 24.9147 29.0726C26.1401 29.0726 27.2658 28.6356 28.1428 27.9094L29.4531 29.4554C28.2385 30.4499 26.6876 31.0468 24.9986 31.0468L24.9995 31.0458ZM18.6488 27.0491L22.3851 25.2703C22.7462 26.0122 23.4151 26.5775 24.2241 26.8025L23.4999 30.884C21.359 30.4173 19.5782 28.9769 18.6498 27.0501L18.6488 27.0491ZM20.1563 18.8929L21.3945 20.3531C20.6634 21.0575 20.1386 21.9829 19.9363 23.0366C19.9107 23.1708 19.9985 23.3 20.1317 23.3257C20.2658 23.3513 20.3951 23.2635 20.4207 23.1303C20.6013 22.1901 21.066 21.3633 21.7142 20.7299L22.8399 22.0589C22.4591 22.4812 22.2016 23.0159 22.1207 23.6069H17.9671C18.0697 21.755 18.8915 20.0936 20.1563 18.8929ZM28.3895 26.9771L27.3338 25.732C27.619 25.3482 27.8114 24.8924 27.8794 24.3961H29.4757C29.3919 25.3768 28.9972 26.2707 28.3905 26.9771H28.3895ZM23.2769 24.0015C23.2769 23.0514 24.0494 22.2789 24.9995 22.2789C25.9496 22.2789 26.7221 23.0514 26.7221 24.0015C26.7221 24.9516 25.9496 25.7241 24.9995 25.7241C24.0494 25.7241 23.2769 24.9516 23.2769 24.0015ZM27.8784 23.6069C27.6851 22.1901 26.4686 21.095 24.9995 21.095C24.4263 21.095 23.8926 21.2617 23.4417 21.5488L22.3229 20.2287C23.0658 19.7187 23.9616 19.4237 24.9147 19.4237C27.3052 19.4237 29.2735 21.2666 29.4738 23.6069H27.8775H27.8784ZM22.1207 24.3961C22.1443 24.5708 22.1838 24.7405 22.2371 24.9042L18.489 26.689C18.194 25.9757 18.0115 25.2042 17.9671 24.3971H22.1207V24.3961ZM28.7121 27.3579C28.9499 27.0886 29.16 26.7946 29.3376 26.4788L31.1579 27.4171C30.8511 27.9676 30.4732 28.4728 30.0361 28.9197L28.7121 27.3579ZM29.5971 25.9471C29.7993 25.4636 29.9266 24.9417 29.969 24.3961H32.032C31.9827 25.2801 31.7696 26.1197 31.4223 26.8873L29.5971 25.9461V25.9471ZM29.969 23.6069C29.7668 20.9943 27.5785 18.9304 24.9147 18.9304C23.8413 18.9304 22.833 19.2688 22.0032 19.8509L20.7572 18.3808C21.9381 17.487 23.4072 16.9562 24.9986 16.9562C27.2825 16.9562 29.3139 18.0493 30.6024 19.7384C30.6103 19.7611 30.6212 19.7838 30.636 19.8045C30.6537 19.8311 30.6764 19.8519 30.7001 19.8706C31.4716 20.9322 31.9541 22.2158 32.031 23.6059H29.9681L29.969 23.6069ZM29.4254 16.8358L31.59 13.0552C32.991 13.9017 34.2164 15.0087 35.199 16.31L31.6048 18.7814C30.9971 18.0138 30.2601 17.3538 29.4244 16.8368L29.4254 16.8358ZM28.9114 16.5428C27.8498 15.9844 26.657 15.644 25.3902 15.5868L25.3725 11.228C27.4315 11.2872 29.3702 11.8357 31.076 12.7622L28.9104 16.5438L28.9114 16.5428ZM24.601 15.5858C22.8231 15.6687 21.1893 16.307 19.8653 17.3281L17.0485 14.0043C19.1313 12.3438 21.7418 11.3207 24.5842 11.229L24.6019 15.5868L24.601 15.5858ZM12.2261 24.3961H16.5839C16.6312 25.4153 16.8601 26.3891 17.239 27.2829L13.3054 29.1555C12.6572 27.6914 12.2774 26.0842 12.2251 24.3961H12.2261ZM19.4953 30.372C20.5539 31.2875 21.8405 31.9456 23.2582 32.2445L22.4965 36.5343C20.2599 36.0883 18.2315 35.0563 16.5789 33.606L19.4953 30.371V30.372ZM23.6459 32.3166C24.0869 32.3886 24.5388 32.4271 24.9995 32.4271C25.4603 32.4271 25.8914 32.3905 26.3226 32.3225L27.0951 36.6092C26.4133 36.7227 25.7138 36.7819 24.9995 36.7819C24.2852 36.7819 23.5729 36.7207 22.8843 36.6063L23.6459 32.3175V32.3166ZM26.7103 32.2524C28.0698 31.9712 29.311 31.3605 30.3459 30.5081L33.1607 33.829C31.5525 35.1668 29.6119 36.1179 27.4828 36.5392L26.7103 32.2524ZM32.6516 27.5207C33.0946 26.5617 33.3629 25.507 33.4152 24.3961H37.773C37.7168 26.2253 37.2758 27.9587 36.527 29.5176L32.6516 27.5207ZM33.4152 23.6069C33.3403 21.9987 32.8134 20.507 31.958 19.2569L35.5453 16.7904C36.8851 18.7429 37.6961 21.0841 37.773 23.6069H33.4152ZM12.6059 9.9839L15.8715 13.8376C13.1771 16.2597 11.4476 19.7345 11.3371 23.6069H6.28377C6.39624 18.1914 8.82031 13.3344 12.6059 9.9839ZM8.10799 32.0679L12.669 29.8964C13.3853 31.3892 14.366 32.7329 15.5479 33.8665L12.4471 37.3068C12.3375 37.4281 12.3474 37.6156 12.4688 37.7251C12.525 37.7764 12.596 37.8011 12.6671 37.8011C12.748 37.8011 12.8289 37.7685 12.8871 37.7034L15.985 34.2671C17.7589 35.8269 19.9373 36.9348 22.3417 37.4104L21.4586 42.3858C15.5588 41.2512 10.6357 37.3393 8.10799 32.0679ZM21.8464 42.4558L22.7294 37.4804C23.4683 37.6047 24.2261 37.6698 24.9995 37.6698C25.773 37.6698 26.5189 37.6057 27.252 37.4834L28.1478 42.4558C27.1237 42.6305 26.072 42.7222 24.9995 42.7222C23.9271 42.7222 22.8715 42.6295 21.8464 42.4548V42.4558ZM28.5365 42.3858L27.6407 37.4133C29.9266 36.9644 32.0103 35.9433 33.7349 34.5058L35.6834 36.8046C35.7614 36.8963 35.8729 36.9437 35.9843 36.9437C36.0741 36.9437 36.1649 36.9131 36.2389 36.85C36.4056 36.7089 36.4253 36.4603 36.2852 36.2935L34.3259 33.9819C35.4141 32.9647 36.3356 31.7729 37.0459 30.4509L38.4301 31.1642C38.4735 31.1869 38.5199 31.1968 38.5653 31.1968C38.6728 31.1968 38.7764 31.1386 38.8287 31.0359C38.9037 30.8909 38.8465 30.7123 38.7014 30.6374L37.3153 29.9231C38.1272 28.2419 38.6038 26.3693 38.661 24.3942H43.7143C43.5289 33.3318 37.0479 40.749 28.5355 42.3838L28.5365 42.3858Z" fill="url(#paint0_linear_4180_39344)"/>
</g>
<defs>
<linearGradient id="paint0_linear_4180_39344" x1="7.16677" y1="34.2976" x2="42.8323" y2="13.7063" gradientUnits="userSpaceOnUse">
<stop offset="0.12" stop-color="white" stop-opacity="0"/>
<stop offset="0.44" stop-color="white"/>
</linearGradient>
<clipPath id="clip0_4180_39344">
<rect width="48" height="48" fill="white" transform="translate(1)"/>
</clipPath>
</defs>
</svg>
