<svg width="48" height="48" viewBox="0 0 48 48" fill="none" xmlns="http://www.w3.org/2000/svg">
<rect width="48" height="48" rx="24" fill="#E00D3A"/>
<mask id="mask0_4619_18743" style="mask-type:alpha" maskUnits="userSpaceOnUse" x="12" y="12" width="24" height="24">
<rect x="12" y="12" width="24" height="24" fill="#D9D9D9"/>
</mask>
<g mask="url(#mask0_4619_18743)">
<path d="M16.3077 31.5C15.8026 31.5 15.375 31.325 15.025 30.975C14.675 30.625 14.5 30.1974 14.5 29.6923V18.3077C14.5 17.8026 14.675 17.375 15.025 17.025C15.375 16.675 15.8026 16.5 16.3077 16.5H31.6923C32.1974 16.5 32.625 16.675 32.975 17.025C33.325 17.375 33.5 17.8026 33.5 18.3077V29.6923C33.5 30.1974 33.325 30.625 32.975 30.975C32.625 31.325 32.1974 31.5 31.6923 31.5H16.3077ZM32 19.4423L24.4865 24.252C24.4097 24.2955 24.3302 24.3298 24.248 24.3548C24.166 24.3798 24.0833 24.3923 24 24.3923C23.9167 24.3923 23.834 24.3798 23.752 24.3548C23.6698 24.3298 23.5903 24.2955 23.5135 24.252L16 19.4423V29.6923C16 29.7821 16.0288 29.8558 16.0865 29.9135C16.1442 29.9712 16.2179 30 16.3077 30H31.6923C31.7821 30 31.8558 29.9712 31.9135 29.9135C31.9712 29.8558 32 29.7821 32 29.6923V19.4423ZM24 23L31.8463 18H16.1537L24 23ZM16 19.673V18.5298V18.5595V18.5277V19.673Z" fill="white"/>
</g>
</svg>
