<svg width="49" height="48" viewBox="0 0 49 48" fill="none" xmlns="http://www.w3.org/2000/svg">
<g clip-path="url(#clip0_4619_18739)">
<rect x="0.599609" width="48" height="48" rx="24" fill="white"/>
<g clip-path="url(#clip1_4619_18739)">
<path d="M48.5996 24C48.5996 37.2548 37.8544 48 24.5996 48C11.3448 48 0.599609 37.2548 0.599609 24C0.599609 10.7452 11.3448 0 24.5996 0C37.8544 0 48.5996 10.7452 48.5996 24Z" fill="#E00D3A"/>
<path d="M20.76 31.2016V47.5216C20.76 47.7867 20.9749 48.0016 21.24 48.0016H27.96C28.2251 48.0016 28.44 47.7867 28.44 47.5216V31.2016C28.44 30.9365 28.6549 30.7216 28.92 30.7216H33.72C33.9851 30.7216 34.2 30.5067 34.2 30.2416V24.4816C34.2 24.2165 33.9851 24.0016 33.72 24.0016H28.92C28.6549 24.0016 28.44 23.787 28.44 23.5219V19.2016C28.44 17.2816 30.84 16.3216 31.8 16.3216H34.68C34.9451 16.3216 35.16 16.1067 35.16 15.8416V10.0816C35.16 9.81646 34.9452 9.60156 34.6801 9.60156H28.44C23.832 9.60156 20.76 14.4016 20.76 17.2816V23.5216C20.76 23.7867 20.5451 24.0016 20.28 24.0016H15.48C15.2149 24.0016 15 24.2165 15 24.4816V30.2416C15 30.5067 15.2149 30.7216 15.48 30.7216H20.28C20.5451 30.7216 20.76 30.9365 20.76 31.2016Z" fill="white"/>
</g>
</g>
<defs>
<clipPath id="clip0_4619_18739">
<rect x="0.599609" width="48" height="48" rx="24" fill="white"/>
</clipPath>
<clipPath id="clip1_4619_18739">
<rect width="48" height="48" fill="white" transform="translate(0.599609)"/>
</clipPath>
</defs>
</svg>
