<svg width="49" height="48" viewBox="0 0 49 48" fill="none" xmlns="http://www.w3.org/2000/svg">
<rect x="0.199219" width="48" height="48" rx="24" fill="#E00D3A"/>
<g clip-path="url(#clip0_4619_18740)">
<path fill-rule="evenodd" clip-rule="evenodd" d="M19.2519 12.072C20.5316 12.0131 20.9396 12 24.1992 12C27.4589 12 27.8669 12.0142 29.1454 12.072C30.4239 12.1298 31.2967 12.3338 32.0603 12.6295C32.8599 12.9316 33.5854 13.404 34.1854 14.0149C34.7963 14.6138 35.2676 15.3382 35.5687 16.1389C35.8654 16.9025 36.0683 17.7753 36.1272 19.0516C36.1861 20.3335 36.1992 20.7415 36.1992 24C36.1992 27.2596 36.185 27.6676 36.1272 28.9473C36.0694 30.2236 35.8654 31.0964 35.5687 31.86C35.2676 32.6608 34.7955 33.3864 34.1854 33.9862C33.5854 34.5971 32.8599 35.0684 32.0603 35.3695C31.2967 35.6662 30.4239 35.8691 29.1476 35.928C27.8669 35.9869 27.4589 36 24.1992 36C20.9396 36 20.5316 35.9858 19.2519 35.928C17.9756 35.8702 17.1029 35.6662 16.3392 35.3695C15.5384 35.0683 14.8128 34.5963 14.213 33.9862C13.6025 33.3869 13.1301 32.6617 12.8287 31.8611C12.533 31.0975 12.3301 30.2247 12.2712 28.9484C12.2123 27.6665 12.1992 27.2585 12.1992 24C12.1992 20.7404 12.2134 20.3324 12.2712 19.0538C12.329 17.7753 12.533 16.9025 12.8287 16.1389C13.1306 15.3383 13.6033 14.6131 14.2141 14.0138C14.8131 13.4035 15.5379 12.931 16.3381 12.6295C17.1018 12.3338 17.9745 12.1309 19.2509 12.072H19.2519ZM29.0483 14.232C27.7829 14.1742 27.4032 14.1622 24.1992 14.1622C20.9952 14.1622 20.6156 14.1742 19.3501 14.232C18.1796 14.2855 17.5447 14.4807 17.1214 14.6455C16.5618 14.8636 16.1614 15.1222 15.7414 15.5422C15.3433 15.9295 15.0369 16.401 14.8447 16.9222C14.6799 17.3455 14.4847 17.9804 14.4312 19.1509C14.3734 20.4164 14.3614 20.796 14.3614 24C14.3614 27.204 14.3734 27.5836 14.4312 28.8491C14.4847 30.0196 14.6799 30.6545 14.8447 31.0778C15.0367 31.5982 15.3432 32.0705 15.7414 32.4578C16.1287 32.856 16.601 33.1625 17.1214 33.3545C17.5447 33.5193 18.1796 33.7145 19.3501 33.768C20.6156 33.8258 20.9941 33.8378 24.1992 33.8378C27.4043 33.8378 27.7829 33.8258 29.0483 33.768C30.2189 33.7145 30.8538 33.5193 31.277 33.3545C31.8367 33.1364 32.237 32.8778 32.657 32.4578C33.0552 32.0705 33.3618 31.5982 33.5538 31.0778C33.7185 30.6545 33.9138 30.0196 33.9672 28.8491C34.025 27.5836 34.037 27.204 34.037 24C34.037 20.796 34.025 20.4164 33.9672 19.1509C33.9138 17.9804 33.7185 17.3455 33.5538 16.9222C33.3356 16.3625 33.077 15.9622 32.657 15.5422C32.2697 15.1441 31.7982 14.8377 31.277 14.6455C30.8538 14.4807 30.2189 14.2855 29.0483 14.232ZM22.6665 27.6993C23.5225 28.0556 24.4756 28.1037 25.3631 27.8353C26.2506 27.567 27.0175 26.9988 27.5326 26.2279C28.0478 25.457 28.2793 24.5311 28.1876 23.6085C28.096 22.6858 27.6869 21.8236 27.0301 21.1691C26.6115 20.7507 26.1053 20.4303 25.5479 20.2311C24.9906 20.0318 24.3961 19.9586 23.807 20.0167C23.218 20.0748 22.6492 20.2627 22.1416 20.5671C21.6339 20.8714 21.2 21.2844 20.8712 21.7766C20.5423 22.2687 20.3267 22.8276 20.2398 23.413C20.1529 23.9985 20.1968 24.596 20.3685 25.1624C20.5402 25.7288 20.8354 26.2501 21.2327 26.6888C21.6301 27.1275 22.1198 27.4726 22.6665 27.6993ZM19.8378 19.6385C20.4105 19.0658 21.0905 18.6115 21.8388 18.3015C22.5872 17.9915 23.3892 17.832 24.1992 17.832C25.0092 17.832 25.8113 17.9915 26.5596 18.3015C27.308 18.6115 27.9879 19.0658 28.5607 19.6385C29.1334 20.2113 29.5878 20.8913 29.8977 21.6396C30.2077 22.3879 30.3672 23.19 30.3672 24C30.3672 24.81 30.2077 25.6121 29.8977 26.3604C29.5878 27.1087 29.1334 27.7887 28.5607 28.3615C27.4039 29.5182 25.8351 30.168 24.1992 30.168C22.5634 30.168 20.9945 29.5182 19.8378 28.3615C18.681 27.2047 18.0312 25.6359 18.0312 24C18.0312 22.3641 18.681 20.7953 19.8378 19.6385ZM31.7352 18.7505C31.8772 18.6167 31.9908 18.4557 32.0694 18.2771C32.148 18.0985 32.1899 17.9059 32.1928 17.7108C32.1956 17.5157 32.1593 17.3221 32.0859 17.1412C32.0126 16.9604 31.9037 16.7962 31.7657 16.6582C31.6278 16.5203 31.4635 16.4114 31.2827 16.338C31.1019 16.2647 30.9082 16.2283 30.7131 16.2312C30.518 16.234 30.3255 16.276 30.1469 16.3546C29.9683 16.4332 29.8073 16.5468 29.6734 16.6887C29.413 16.9648 29.2705 17.3314 29.276 17.7108C29.2815 18.0903 29.4347 18.4526 29.703 18.7209C29.9713 18.9892 30.3337 19.1424 30.7131 19.148C31.0925 19.1535 31.4592 19.0109 31.7352 18.7505Z" fill="white"/>
</g>
<defs>
<clipPath id="clip0_4619_18740">
<rect width="24" height="24" fill="white" transform="translate(12.1992 12)"/>
</clipPath>
</defs>
</svg>
