<svg width="16" height="16" viewBox="0 0 16 16" fill="none" xmlns="http://www.w3.org/2000/svg">
<mask id="mask0_2016_4493" style="mask-type:alpha" maskUnits="userSpaceOnUse" x="0" y="0" width="16" height="16">
<rect width="16" height="16" fill="#D9D9D9"/>
</mask>
<g mask="url(#mask0_2016_4493)">
<path d="M7.50041 11.0846V3.5C7.50041 3.35812 7.54827 3.23932 7.644 3.1436C7.73972 3.04787 7.85852 3 8.0004 3C8.14227 3 8.26108 3.04787 8.3568 3.1436C8.45252 3.23932 8.50038 3.35812 8.50038 3.5V11.0846L11.9465 7.63845C12.0457 7.53931 12.1617 7.49038 12.2946 7.49167C12.4275 7.49295 12.5457 7.5453 12.6491 7.64872C12.7457 7.75213 12.7957 7.86922 12.7991 7.99998C12.8025 8.13075 12.7525 8.24784 12.6491 8.35125L8.42218 12.5782C8.35979 12.6406 8.29398 12.6846 8.22475 12.7102C8.15552 12.7359 8.08074 12.7487 8.0004 12.7487C7.92005 12.7487 7.84527 12.7359 7.77605 12.7102C7.70681 12.6846 7.641 12.6406 7.57861 12.5782L3.3517 8.35125C3.25939 8.25895 3.21216 8.14464 3.21003 8.00832C3.2079 7.87199 3.25512 7.75213 3.3517 7.64872C3.45511 7.5453 3.57391 7.49358 3.7081 7.49358C3.84229 7.49358 3.96109 7.5453 4.0645 7.64872L7.50041 11.0846Z" fill="#201E3D"/>
</g>
</svg>
