<?xml version="1.0" encoding="UTF-8" standalone="no"?>
<!DOCTYPE svg PUBLIC "-//W3C//DTD SVG 1.1//EN"
 "http://www.w3.org/Graphics/SVG/1.1/DTD/svg11.dtd">
<!-- Generated by graphviz version 2.47.0 (20210316.0004)
 -->
<!-- Title: dependencies Pages: 1 -->
<svg width="706pt" height="284pt"
 viewBox="0.00 0.00 706.00 284.00" xmlns="http://www.w3.org/2000/svg" xmlns:xlink="http://www.w3.org/1999/xlink">
<g id="graph0" class="graph" transform="scale(1 1) rotate(0) translate(4 280)">
<title>dependencies</title>
<polygon fill="white" stroke="transparent" points="-4,4 -4,-280 702,-280 702,4 -4,4"/>
<text text-anchor="start" x="328.01" y="-42.4" font-family="Times-12" font-weight="bold" font-size="14.00">Legend</text>
<polygon fill="#ffffb3" stroke="transparent" points="115,-10 115,-30 135,-30 135,-10 115,-10"/>
<text text-anchor="start" x="138.63" y="-15.4" font-family="Times-12" font-size="14.00"> &#160;Declarations</text>
<polygon fill="#8dd3c7" stroke="transparent" points="228,-10 228,-30 248,-30 248,-10 228,-10"/>
<text text-anchor="start" x="251.73" y="-15.4" font-family="Times-12" font-size="14.00"> &#160;Module</text>
<polygon fill="#80b1d3" stroke="transparent" points="314,-10 314,-30 334,-30 334,-10 314,-10"/>
<text text-anchor="start" x="337.78" y="-15.4" font-family="Times-12" font-size="14.00"> &#160;Bootstrap</text>
<polygon fill="#fdb462" stroke="transparent" points="411,-10 411,-30 431,-30 431,-10 411,-10"/>
<text text-anchor="start" x="434.67" y="-15.4" font-family="Times-12" font-size="14.00"> &#160;Providers</text>
<polygon fill="#fb8072" stroke="transparent" points="507,-10 507,-30 527,-30 527,-10 507,-10"/>
<text text-anchor="start" x="530.73" y="-15.4" font-family="Times-12" font-size="14.00"> &#160;Exports</text>
<g id="clust1" class="cluster">
<title>cluster_MetadataLayoutModule</title>
<polygon fill="none" stroke="black" stroke-dasharray="1,5" points="8,-70 8,-268 690,-268 690,-70 8,-70"/>
</g>
<g id="clust4" class="cluster">
<title>cluster_MetadataLayoutModule_exports</title>
<polygon fill="none" stroke="black" points="16,-208 16,-260 682,-260 682,-208 16,-208"/>
</g>
<g id="clust3" class="cluster">
<title>cluster_MetadataLayoutModule_imports</title>
<polygon fill="none" stroke="black" points="21,-78 21,-130 677,-130 677,-78 21,-78"/>
</g>
<!-- MetadataLayoutComponent -->
<g id="node1" class="node">
<title>MetadataLayoutComponent</title>
<polygon fill="#8dd3c7" stroke="black" points="668.57,-122 665.57,-126 644.57,-126 641.57,-122 495.43,-122 495.43,-86 668.57,-86 668.57,-122"/>
<text text-anchor="middle" x="582" y="-99.8" font-family="Times,serif" font-size="14.00">MetadataLayoutComponent</text>
</g>
<!-- MetadataLayoutModule -->
<g id="node4" class="node">
<title>MetadataLayoutModule</title>
<polygon fill="#8dd3c7" stroke="black" points="444.79,-187 441.79,-191 420.79,-191 417.79,-187 293.21,-187 293.21,-151 444.79,-151 444.79,-187"/>
<text text-anchor="middle" x="369" y="-164.8" font-family="Times,serif" font-size="14.00">MetadataLayoutModule</text>
</g>
<!-- MetadataLayoutComponent&#45;&gt;MetadataLayoutModule -->
<g id="edge1" class="edge">
<title>MetadataLayoutComponent&#45;&gt;MetadataLayoutModule</title>
<path fill="none" stroke="black" d="M611.6,-122.02C611.6,-139.37 611.6,-163 611.6,-163 611.6,-163 454.76,-163 454.76,-163"/>
<polygon fill="black" stroke="black" points="454.76,-159.5 444.76,-163 454.76,-166.5 454.76,-159.5"/>
</g>
<!-- MetadataLayoutContentComponent -->
<g id="node2" class="node">
<title>MetadataLayoutContentComponent</title>
<polygon fill="#8dd3c7" stroke="black" points="477.91,-122 474.91,-126 453.91,-126 450.91,-122 260.09,-122 260.09,-86 477.91,-86 477.91,-122"/>
<text text-anchor="middle" x="369" y="-99.8" font-family="Times,serif" font-size="14.00">MetadataLayoutContentComponent</text>
</g>
<!-- MetadataLayoutContentComponent&#45;&gt;MetadataLayoutModule -->
<g id="edge2" class="edge">
<title>MetadataLayoutContentComponent&#45;&gt;MetadataLayoutModule</title>
<path fill="none" stroke="black" d="M369,-122.11C369,-122.11 369,-140.99 369,-140.99"/>
<polygon fill="black" stroke="black" points="365.5,-140.99 369,-150.99 372.5,-140.99 365.5,-140.99"/>
</g>
<!-- MetadataLayoutHeaderComponent -->
<g id="node3" class="node">
<title>MetadataLayoutHeaderComponent</title>
<polygon fill="#8dd3c7" stroke="black" points="242.99,-122 239.99,-126 218.99,-126 215.99,-122 29.01,-122 29.01,-86 242.99,-86 242.99,-122"/>
<text text-anchor="middle" x="136" y="-99.8" font-family="Times,serif" font-size="14.00">MetadataLayoutHeaderComponent</text>
</g>
<!-- MetadataLayoutHeaderComponent&#45;&gt;MetadataLayoutModule -->
<g id="edge3" class="edge">
<title>MetadataLayoutHeaderComponent&#45;&gt;MetadataLayoutModule</title>
<path fill="none" stroke="black" d="M170.08,-122.02C170.08,-139.37 170.08,-163 170.08,-163 170.08,-163 283.23,-163 283.23,-163"/>
<polygon fill="black" stroke="black" points="283.23,-166.5 293.23,-163 283.23,-159.5 283.23,-166.5"/>
</g>
<!-- MetadataLayoutComponent  -->
<g id="node5" class="node">
<title>MetadataLayoutComponent </title>
<polygon fill="#fb8072" stroke="black" points="674.07,-252 497.93,-252 497.93,-216 674.07,-216 674.07,-252"/>
<text text-anchor="middle" x="586" y="-229.8" font-family="Times,serif" font-size="14.00">MetadataLayoutComponent </text>
</g>
<!-- MetadataLayoutModule&#45;&gt;MetadataLayoutComponent  -->
<g id="edge4" class="edge">
<title>MetadataLayoutModule&#45;&gt;MetadataLayoutComponent </title>
<path fill="none" stroke="black" stroke-dasharray="5,2" d="M444.78,-175C496.12,-175 554.65,-175 554.65,-175 554.65,-175 554.65,-205.98 554.65,-205.98"/>
<polygon fill="black" stroke="black" points="551.15,-205.98 554.65,-215.98 558.15,-205.98 551.15,-205.98"/>
</g>
<!-- MetadataLayoutContentComponent  -->
<g id="node6" class="node">
<title>MetadataLayoutContentComponent </title>
<polygon fill="#fb8072" stroke="black" points="479.41,-252 258.59,-252 258.59,-216 479.41,-216 479.41,-252"/>
<text text-anchor="middle" x="369" y="-229.8" font-family="Times,serif" font-size="14.00">MetadataLayoutContentComponent </text>
</g>
<!-- MetadataLayoutModule&#45;&gt;MetadataLayoutContentComponent  -->
<g id="edge5" class="edge">
<title>MetadataLayoutModule&#45;&gt;MetadataLayoutContentComponent </title>
<path fill="none" stroke="black" stroke-dasharray="5,2" d="M369,-187.11C369,-187.11 369,-205.99 369,-205.99"/>
<polygon fill="black" stroke="black" points="365.5,-205.99 369,-215.99 372.5,-205.99 365.5,-205.99"/>
</g>
<!-- MetadataLayoutHeaderComponent  -->
<g id="node7" class="node">
<title>MetadataLayoutHeaderComponent </title>
<polygon fill="#fb8072" stroke="black" points="240.49,-252 23.51,-252 23.51,-216 240.49,-216 240.49,-252"/>
<text text-anchor="middle" x="132" y="-229.8" font-family="Times,serif" font-size="14.00">MetadataLayoutHeaderComponent </text>
</g>
<!-- MetadataLayoutModule&#45;&gt;MetadataLayoutHeaderComponent  -->
<g id="edge6" class="edge">
<title>MetadataLayoutModule&#45;&gt;MetadataLayoutHeaderComponent </title>
<path fill="none" stroke="black" stroke-dasharray="5,2" d="M293.26,-175C213.6,-175 99.67,-175 99.67,-175 99.67,-175 99.67,-205.98 99.67,-205.98"/>
<polygon fill="black" stroke="black" points="96.17,-205.98 99.67,-215.98 103.17,-205.98 96.17,-205.98"/>
</g>
</g>
</svg>
