<svg width="6" height="4" viewBox="0 0 6 4" fill="none" xmlns="http://www.w3.org/2000/svg">
<path d="M0.836309 3.31922C0.755932 3.31922 0.691182 3.29214 0.642059 3.23797C0.592926 3.18379 0.568359 3.12059 0.568359 3.04837C0.568359 3.03919 0.598898 2.97563 0.659976 2.85767L2.71258 0.80322C2.74975 0.766042 2.79412 0.736342 2.84566 0.714119C2.89722 0.691897 2.94836 0.680786 2.99911 0.680786C3.04985 0.680786 3.101 0.691897 3.15256 0.714119C3.2041 0.736342 3.24846 0.766047 3.28564 0.803236L5.33838 2.85719C5.36669 2.88552 5.38901 2.91718 5.40534 2.95217C5.42169 2.98716 5.42986 3.0223 5.42986 3.05759C5.42986 3.12816 5.40529 3.18941 5.35616 3.24134C5.30704 3.29326 5.24229 3.31922 5.16191 3.31922H0.836309Z" fill="#4C4C58"/>
</svg>
