<?xml version="1.0" encoding="UTF-8" standalone="no"?>
<!DOCTYPE svg PUBLIC "-//W3C//DTD SVG 1.1//EN"
 "http://www.w3.org/Graphics/SVG/1.1/DTD/svg11.dtd">
<!-- Generated by graphviz version 2.47.0 (20210316.0004)
 -->
<!-- Title: dependencies Pages: 1 -->
<svg width="504pt" height="284pt"
 viewBox="0.00 0.00 504.00 284.00" xmlns="http://www.w3.org/2000/svg" xmlns:xlink="http://www.w3.org/1999/xlink">
<g id="graph0" class="graph" transform="scale(1 1) rotate(0) translate(4 280)">
<title>dependencies</title>
<polygon fill="white" stroke="transparent" points="-4,4 -4,-280 500,-280 500,4 -4,4"/>
<text text-anchor="start" x="227.01" y="-42.4" font-family="Times-12" font-weight="bold" font-size="14.00">Legend</text>
<polygon fill="#ffffb3" stroke="transparent" points="14,-10 14,-30 34,-30 34,-10 14,-10"/>
<text text-anchor="start" x="37.63" y="-15.4" font-family="Times-12" font-size="14.00"> &#160;Declarations</text>
<polygon fill="#8dd3c7" stroke="transparent" points="127,-10 127,-30 147,-30 147,-10 127,-10"/>
<text text-anchor="start" x="150.73" y="-15.4" font-family="Times-12" font-size="14.00"> &#160;Module</text>
<polygon fill="#80b1d3" stroke="transparent" points="213,-10 213,-30 233,-30 233,-10 213,-10"/>
<text text-anchor="start" x="236.78" y="-15.4" font-family="Times-12" font-size="14.00"> &#160;Bootstrap</text>
<polygon fill="#fdb462" stroke="transparent" points="310,-10 310,-30 330,-30 330,-10 310,-10"/>
<text text-anchor="start" x="333.67" y="-15.4" font-family="Times-12" font-size="14.00"> &#160;Providers</text>
<polygon fill="#fb8072" stroke="transparent" points="406,-10 406,-30 426,-30 426,-10 406,-10"/>
<text text-anchor="start" x="429.73" y="-15.4" font-family="Times-12" font-size="14.00"> &#160;Exports</text>
<g id="clust1" class="cluster">
<title>cluster_PageRendererModule</title>
<polygon fill="none" stroke="black" stroke-dasharray="1,5" points="73,-70 73,-268 423,-268 423,-70 73,-70"/>
</g>
<g id="clust5" class="cluster">
<title>cluster_PageRendererModule_exports</title>
<polygon fill="none" stroke="black" points="158,-208 158,-260 338,-260 338,-208 158,-208"/>
</g>
<g id="clust2" class="cluster">
<title>cluster_PageRendererModule_declarations</title>
<polygon fill="none" stroke="black" points="239,-78 239,-130 415,-130 415,-78 239,-78"/>
</g>
<g id="clust4" class="cluster">
<title>cluster_PageRendererModule_imports</title>
<polygon fill="none" stroke="black" points="81,-78 81,-130 231,-130 231,-78 81,-78"/>
</g>
<!-- PageRendererComponent -->
<g id="node1" class="node">
<title>PageRendererComponent</title>
<polygon fill="#ffffb3" stroke="black" points="406.85,-122 247.15,-122 247.15,-86 406.85,-86 406.85,-122"/>
<text text-anchor="middle" x="327" y="-99.8" font-family="Times,serif" font-size="14.00">PageRendererComponent</text>
</g>
<!-- PageRendererModule -->
<g id="node2" class="node">
<title>PageRendererModule</title>
<polygon fill="#8dd3c7" stroke="black" points="317.06,-187 314.06,-191 293.06,-191 290.06,-187 178.94,-187 178.94,-151 317.06,-151 317.06,-187"/>
<text text-anchor="middle" x="248" y="-164.8" font-family="Times,serif" font-size="14.00">PageRendererModule</text>
</g>
<!-- PageRendererComponent&#45;&gt;PageRendererModule -->
<g id="edge1" class="edge">
<title>PageRendererComponent&#45;&gt;PageRendererModule</title>
<path fill="none" stroke="black" d="M282.05,-122.11C282.05,-122.11 282.05,-140.99 282.05,-140.99"/>
<polygon fill="black" stroke="black" points="278.55,-140.99 282.05,-150.99 285.55,-140.99 278.55,-140.99"/>
</g>
<!-- PageRendererComponent  -->
<g id="node4" class="node">
<title>PageRendererComponent </title>
<polygon fill="#fb8072" stroke="black" points="329.85,-252 166.15,-252 166.15,-216 329.85,-216 329.85,-252"/>
<text text-anchor="middle" x="248" y="-229.8" font-family="Times,serif" font-size="14.00">PageRendererComponent </text>
</g>
<!-- PageRendererModule&#45;&gt;PageRendererComponent  -->
<g id="edge3" class="edge">
<title>PageRendererModule&#45;&gt;PageRendererComponent </title>
<path fill="none" stroke="black" stroke-dasharray="5,2" d="M248,-187.11C248,-187.11 248,-205.99 248,-205.99"/>
<polygon fill="black" stroke="black" points="244.5,-205.99 248,-215.99 251.5,-205.99 244.5,-205.99"/>
</g>
<!-- PageElementModule -->
<g id="node3" class="node">
<title>PageElementModule</title>
<polygon fill="#8dd3c7" stroke="black" points="222.92,-122 219.92,-126 198.92,-126 195.92,-122 89.08,-122 89.08,-86 222.92,-86 222.92,-122"/>
<text text-anchor="middle" x="156" y="-99.8" font-family="Times,serif" font-size="14.00">PageElementModule</text>
</g>
<!-- PageElementModule&#45;&gt;PageRendererModule -->
<g id="edge2" class="edge">
<title>PageElementModule&#45;&gt;PageRendererModule</title>
<path fill="none" stroke="black" d="M200.84,-122.11C200.84,-122.11 200.84,-140.99 200.84,-140.99"/>
<polygon fill="black" stroke="black" points="197.34,-140.99 200.84,-150.99 204.34,-140.99 197.34,-140.99"/>
</g>
</g>
</svg>
