<?xml version="1.0" encoding="UTF-8" standalone="no"?>
<!DOCTYPE svg PUBLIC "-//W3C//DTD SVG 1.1//EN"
 "http://www.w3.org/Graphics/SVG/1.1/DTD/svg11.dtd">
<!-- Generated by graphviz version 2.47.0 (20210316.0004)
 -->
<!-- Title: dependencies Pages: 1 -->
<svg width="1252pt" height="284pt"
 viewBox="0.00 0.00 1252.00 284.00" xmlns="http://www.w3.org/2000/svg" xmlns:xlink="http://www.w3.org/1999/xlink">
<g id="graph0" class="graph" transform="scale(1 1) rotate(0) translate(4 280)">
<title>dependencies</title>
<polygon fill="white" stroke="transparent" points="-4,4 -4,-280 1248,-280 1248,4 -4,4"/>
<text text-anchor="start" x="601.01" y="-42.4" font-family="Times-12" font-weight="bold" font-size="14.00">Legend</text>
<polygon fill="#ffffb3" stroke="transparent" points="388,-10 388,-30 408,-30 408,-10 388,-10"/>
<text text-anchor="start" x="411.63" y="-15.4" font-family="Times-12" font-size="14.00"> &#160;Declarations</text>
<polygon fill="#8dd3c7" stroke="transparent" points="501,-10 501,-30 521,-30 521,-10 501,-10"/>
<text text-anchor="start" x="524.73" y="-15.4" font-family="Times-12" font-size="14.00"> &#160;Module</text>
<polygon fill="#80b1d3" stroke="transparent" points="587,-10 587,-30 607,-30 607,-10 587,-10"/>
<text text-anchor="start" x="610.78" y="-15.4" font-family="Times-12" font-size="14.00"> &#160;Bootstrap</text>
<polygon fill="#fdb462" stroke="transparent" points="684,-10 684,-30 704,-30 704,-10 684,-10"/>
<text text-anchor="start" x="707.67" y="-15.4" font-family="Times-12" font-size="14.00"> &#160;Providers</text>
<polygon fill="#fb8072" stroke="transparent" points="780,-10 780,-30 800,-30 800,-10 780,-10"/>
<text text-anchor="start" x="803.73" y="-15.4" font-family="Times-12" font-size="14.00"> &#160;Exports</text>
<g id="clust1" class="cluster">
<title>cluster_RichTooltipModule</title>
<polygon fill="none" stroke="black" stroke-dasharray="1,5" points="8,-70 8,-268 1236,-268 1236,-70 8,-70"/>
</g>
<g id="clust3" class="cluster">
<title>cluster_RichTooltipModule_imports</title>
<polygon fill="none" stroke="black" points="28,-78 28,-130 1220,-130 1220,-78 28,-78"/>
</g>
<g id="clust4" class="cluster">
<title>cluster_RichTooltipModule_exports</title>
<polygon fill="none" stroke="black" points="16,-208 16,-260 1228,-260 1228,-208 16,-208"/>
</g>
<!-- RichTooltipActionsComponent -->
<g id="node1" class="node">
<title>RichTooltipActionsComponent</title>
<polygon fill="#8dd3c7" stroke="black" points="1212.05,-122 1209.05,-126 1188.05,-126 1185.05,-122 1019.95,-122 1019.95,-86 1212.05,-86 1212.05,-122"/>
<text text-anchor="middle" x="1116" y="-99.8" font-family="Times,serif" font-size="14.00">RichTooltipActionsComponent</text>
</g>
<!-- RichTooltipModule -->
<g id="node7" class="node">
<title>RichTooltipModule</title>
<polygon fill="#8dd3c7" stroke="black" points="564.72,-187 561.72,-191 540.72,-191 537.72,-187 437.28,-187 437.28,-151 564.72,-151 564.72,-187"/>
<text text-anchor="middle" x="501" y="-164.8" font-family="Times,serif" font-size="14.00">RichTooltipModule</text>
</g>
<!-- RichTooltipActionsComponent&#45;&gt;RichTooltipModule -->
<g id="edge1" class="edge">
<title>RichTooltipActionsComponent&#45;&gt;RichTooltipModule</title>
<path fill="none" stroke="black" d="M1149.51,-122.22C1149.51,-140.83 1149.51,-167 1149.51,-167 1149.51,-167 574.66,-167 574.66,-167"/>
<polygon fill="black" stroke="black" points="574.66,-163.5 564.66,-167 574.66,-170.5 574.66,-163.5"/>
</g>
<!-- RichTooltipCloseDirective -->
<g id="node2" class="node">
<title>RichTooltipCloseDirective</title>
<polygon fill="#8dd3c7" stroke="black" points="1001.64,-122 998.64,-126 977.64,-126 974.64,-122 834.36,-122 834.36,-86 1001.64,-86 1001.64,-122"/>
<text text-anchor="middle" x="918" y="-99.8" font-family="Times,serif" font-size="14.00">RichTooltipCloseDirective</text>
</g>
<!-- RichTooltipCloseDirective&#45;&gt;RichTooltipModule -->
<g id="edge2" class="edge">
<title>RichTooltipCloseDirective&#45;&gt;RichTooltipModule</title>
<path fill="none" stroke="black" d="M946.02,-122.03C946.02,-139.06 946.02,-162 946.02,-162 946.02,-162 574.76,-162 574.76,-162"/>
<polygon fill="black" stroke="black" points="574.76,-158.5 564.76,-162 574.76,-165.5 574.76,-158.5"/>
</g>
<!-- RichTooltipContainerComponent -->
<g id="node3" class="node">
<title>RichTooltipContainerComponent</title>
<polygon fill="#8dd3c7" stroke="black" points="816.21,-122 813.21,-126 792.21,-126 789.21,-122 611.79,-122 611.79,-86 816.21,-86 816.21,-122"/>
<text text-anchor="middle" x="714" y="-99.8" font-family="Times,serif" font-size="14.00">RichTooltipContainerComponent</text>
</g>
<!-- RichTooltipContainerComponent&#45;&gt;RichTooltipModule -->
<g id="edge3" class="edge">
<title>RichTooltipContainerComponent&#45;&gt;RichTooltipModule</title>
<path fill="none" stroke="black" d="M679.97,-122.24C679.97,-137.57 679.97,-157 679.97,-157 679.97,-157 574.85,-157 574.85,-157"/>
<polygon fill="black" stroke="black" points="574.85,-153.5 564.85,-157 574.85,-160.5 574.85,-153.5"/>
</g>
<!-- RichTooltipContentComponent -->
<g id="node4" class="node">
<title>RichTooltipContentComponent</title>
<polygon fill="#8dd3c7" stroke="black" points="593.83,-122 590.83,-126 569.83,-126 566.83,-122 400.17,-122 400.17,-86 593.83,-86 593.83,-122"/>
<text text-anchor="middle" x="497" y="-99.8" font-family="Times,serif" font-size="14.00">RichTooltipContentComponent</text>
</g>
<!-- RichTooltipContentComponent&#45;&gt;RichTooltipModule -->
<g id="edge4" class="edge">
<title>RichTooltipContentComponent&#45;&gt;RichTooltipModule</title>
<path fill="none" stroke="black" d="M501,-122.11C501,-122.11 501,-140.99 501,-140.99"/>
<polygon fill="black" stroke="black" points="497.5,-140.99 501,-150.99 504.5,-140.99 497.5,-140.99"/>
</g>
<!-- RichTooltipDirective -->
<g id="node5" class="node">
<title>RichTooltipDirective</title>
<polygon fill="#8dd3c7" stroke="black" points="381.75,-122 378.75,-126 357.75,-126 354.75,-122 246.25,-122 246.25,-86 381.75,-86 381.75,-122"/>
<text text-anchor="middle" x="314" y="-99.8" font-family="Times,serif" font-size="14.00">RichTooltipDirective</text>
</g>
<!-- RichTooltipDirective&#45;&gt;RichTooltipModule -->
<g id="edge5" class="edge">
<title>RichTooltipDirective&#45;&gt;RichTooltipModule</title>
<path fill="none" stroke="black" d="M333.12,-122.01C333.12,-138.05 333.12,-159 333.12,-159 333.12,-159 427.05,-159 427.05,-159"/>
<polygon fill="black" stroke="black" points="427.05,-162.5 437.05,-159 427.05,-155.5 427.05,-162.5"/>
</g>
<!-- RichTooltipTaglineComponent -->
<g id="node6" class="node">
<title>RichTooltipTaglineComponent</title>
<polygon fill="#8dd3c7" stroke="black" points="227.76,-122 224.76,-126 203.76,-126 200.76,-122 36.24,-122 36.24,-86 227.76,-86 227.76,-122"/>
<text text-anchor="middle" x="132" y="-99.8" font-family="Times,serif" font-size="14.00">RichTooltipTaglineComponent</text>
</g>
<!-- RichTooltipTaglineComponent&#45;&gt;RichTooltipModule -->
<g id="edge6" class="edge">
<title>RichTooltipTaglineComponent&#45;&gt;RichTooltipModule</title>
<path fill="none" stroke="black" d="M223.76,-122.27C223.76,-140.56 223.76,-166 223.76,-166 223.76,-166 427.05,-166 427.05,-166"/>
<polygon fill="black" stroke="black" points="427.05,-169.5 437.05,-166 427.05,-162.5 427.05,-169.5"/>
</g>
<!-- RichTooltipActionsComponent  -->
<g id="node8" class="node">
<title>RichTooltipActionsComponent </title>
<polygon fill="#fb8072" stroke="black" points="1220.05,-252 1023.95,-252 1023.95,-216 1220.05,-216 1220.05,-252"/>
<text text-anchor="middle" x="1122" y="-229.8" font-family="Times,serif" font-size="14.00">RichTooltipActionsComponent </text>
</g>
<!-- RichTooltipModule&#45;&gt;RichTooltipActionsComponent  -->
<g id="edge7" class="edge">
<title>RichTooltipModule&#45;&gt;RichTooltipActionsComponent </title>
<path fill="none" stroke="black" stroke-dasharray="5,2" d="M564.8,-172C716.61,-172 1086.74,-172 1086.74,-172 1086.74,-172 1086.74,-205.73 1086.74,-205.73"/>
<polygon fill="black" stroke="black" points="1083.24,-205.73 1086.74,-215.73 1090.24,-205.73 1083.24,-205.73"/>
</g>
<!-- RichTooltipCloseDirective  -->
<g id="node9" class="node">
<title>RichTooltipCloseDirective </title>
<polygon fill="#fb8072" stroke="black" points="1005.64,-252 834.36,-252 834.36,-216 1005.64,-216 1005.64,-252"/>
<text text-anchor="middle" x="920" y="-229.8" font-family="Times,serif" font-size="14.00">RichTooltipCloseDirective </text>
</g>
<!-- RichTooltipModule&#45;&gt;RichTooltipCloseDirective  -->
<g id="edge8" class="edge">
<title>RichTooltipModule&#45;&gt;RichTooltipCloseDirective </title>
<path fill="none" stroke="black" stroke-dasharray="5,2" d="M564.84,-177C675.26,-177 890.23,-177 890.23,-177 890.23,-177 890.23,-205.96 890.23,-205.96"/>
<polygon fill="black" stroke="black" points="886.73,-205.96 890.23,-215.96 893.73,-205.96 886.73,-205.96"/>
</g>
<!-- RichTooltipContainerComponent  -->
<g id="node10" class="node">
<title>RichTooltipContainerComponent </title>
<polygon fill="#fb8072" stroke="black" points="816.71,-252 609.29,-252 609.29,-216 816.71,-216 816.71,-252"/>
<text text-anchor="middle" x="713" y="-229.8" font-family="Times,serif" font-size="14.00">RichTooltipContainerComponent </text>
</g>
<!-- RichTooltipModule&#45;&gt;RichTooltipContainerComponent  -->
<g id="edge9" class="edge">
<title>RichTooltipModule&#45;&gt;RichTooltipContainerComponent </title>
<path fill="none" stroke="black" stroke-dasharray="5,2" d="M564.62,-182C637.81,-182 748.03,-182 748.03,-182 748.03,-182 748.03,-205.81 748.03,-205.81"/>
<polygon fill="black" stroke="black" points="744.53,-205.81 748.03,-215.81 751.53,-205.81 744.53,-205.81"/>
</g>
<!-- RichTooltipContentComponent  -->
<g id="node11" class="node">
<title>RichTooltipContentComponent </title>
<polygon fill="#fb8072" stroke="black" points="591.33,-252 394.67,-252 394.67,-216 591.33,-216 591.33,-252"/>
<text text-anchor="middle" x="493" y="-229.8" font-family="Times,serif" font-size="14.00">RichTooltipContentComponent </text>
</g>
<!-- RichTooltipModule&#45;&gt;RichTooltipContentComponent  -->
<g id="edge10" class="edge">
<title>RichTooltipModule&#45;&gt;RichTooltipContentComponent </title>
<path fill="none" stroke="black" stroke-dasharray="5,2" d="M501,-187.11C501,-187.11 501,-205.99 501,-205.99"/>
<polygon fill="black" stroke="black" points="497.5,-205.99 501,-215.99 504.5,-205.99 497.5,-205.99"/>
</g>
<!-- RichTooltipDirective  -->
<g id="node12" class="node">
<title>RichTooltipDirective </title>
<polygon fill="#fb8072" stroke="black" points="376.75,-252 237.25,-252 237.25,-216 376.75,-216 376.75,-252"/>
<text text-anchor="middle" x="307" y="-229.8" font-family="Times,serif" font-size="14.00">RichTooltipDirective </text>
</g>
<!-- RichTooltipModule&#45;&gt;RichTooltipDirective  -->
<g id="edge11" class="edge">
<title>RichTooltipModule&#45;&gt;RichTooltipDirective </title>
<path fill="none" stroke="black" stroke-dasharray="5,2" d="M437.29,-180C375.06,-180 289.63,-180 289.63,-180 289.63,-180 289.63,-205.72 289.63,-205.72"/>
<polygon fill="black" stroke="black" points="286.13,-205.72 289.63,-215.72 293.13,-205.72 286.13,-205.72"/>
</g>
<!-- RichTooltipTaglineComponent  -->
<g id="node13" class="node">
<title>RichTooltipTaglineComponent </title>
<polygon fill="#fb8072" stroke="black" points="219.76,-252 24.24,-252 24.24,-216 219.76,-216 219.76,-252"/>
<text text-anchor="middle" x="122" y="-229.8" font-family="Times,serif" font-size="14.00">RichTooltipTaglineComponent </text>
</g>
<!-- RichTooltipModule&#45;&gt;RichTooltipTaglineComponent  -->
<g id="edge12" class="edge">
<title>RichTooltipModule&#45;&gt;RichTooltipTaglineComponent </title>
<path fill="none" stroke="black" stroke-dasharray="5,2" d="M437.28,-173C330.71,-173 127.88,-173 127.88,-173 127.88,-173 127.88,-205.7 127.88,-205.7"/>
<polygon fill="black" stroke="black" points="124.37,-205.7 127.88,-215.7 131.37,-205.7 124.37,-205.7"/>
</g>
</g>
</svg>
