<?xml version="1.0" encoding="UTF-8" standalone="no"?>
<!DOCTYPE svg PUBLIC "-//W3C//DTD SVG 1.1//EN"
 "http://www.w3.org/Graphics/SVG/1.1/DTD/svg11.dtd">
<!-- Generated by graphviz version 2.47.0 (20210316.0004)
 -->
<!-- Title: dependencies Pages: 1 -->
<svg width="1122pt" height="284pt"
 viewBox="0.00 0.00 1122.00 284.00" xmlns="http://www.w3.org/2000/svg" xmlns:xlink="http://www.w3.org/1999/xlink">
<g id="graph0" class="graph" transform="scale(1 1) rotate(0) translate(4 280)">
<title>dependencies</title>
<polygon fill="white" stroke="transparent" points="-4,4 -4,-280 1118,-280 1118,4 -4,4"/>
<text text-anchor="start" x="536.01" y="-42.4" font-family="Times-12" font-weight="bold" font-size="14.00">Legend</text>
<polygon fill="#ffffb3" stroke="transparent" points="323,-10 323,-30 343,-30 343,-10 323,-10"/>
<text text-anchor="start" x="346.63" y="-15.4" font-family="Times-12" font-size="14.00"> &#160;Declarations</text>
<polygon fill="#8dd3c7" stroke="transparent" points="436,-10 436,-30 456,-30 456,-10 436,-10"/>
<text text-anchor="start" x="459.73" y="-15.4" font-family="Times-12" font-size="14.00"> &#160;Module</text>
<polygon fill="#80b1d3" stroke="transparent" points="522,-10 522,-30 542,-30 542,-10 522,-10"/>
<text text-anchor="start" x="545.78" y="-15.4" font-family="Times-12" font-size="14.00"> &#160;Bootstrap</text>
<polygon fill="#fdb462" stroke="transparent" points="619,-10 619,-30 639,-30 639,-10 619,-10"/>
<text text-anchor="start" x="642.67" y="-15.4" font-family="Times-12" font-size="14.00"> &#160;Providers</text>
<polygon fill="#fb8072" stroke="transparent" points="715,-10 715,-30 735,-30 735,-10 715,-10"/>
<text text-anchor="start" x="738.73" y="-15.4" font-family="Times-12" font-size="14.00"> &#160;Exports</text>
<g id="clust1" class="cluster">
<title>cluster_ButtonsModule</title>
<polygon fill="none" stroke="black" stroke-dasharray="1,5" points="8,-70 8,-268 1106,-268 1106,-70 8,-70"/>
</g>
<g id="clust3" class="cluster">
<title>cluster_ButtonsModule_imports</title>
<polygon fill="none" stroke="black" points="29,-78 29,-130 1089,-130 1089,-78 29,-78"/>
</g>
<g id="clust4" class="cluster">
<title>cluster_ButtonsModule_exports</title>
<polygon fill="none" stroke="black" points="16,-208 16,-260 1098,-260 1098,-208 16,-208"/>
</g>
<!-- ButtonSizeDirective -->
<g id="node1" class="node">
<title>ButtonSizeDirective</title>
<polygon fill="#8dd3c7" stroke="black" points="1081.3,-122 1078.3,-126 1057.3,-126 1054.3,-122 950.7,-122 950.7,-86 1081.3,-86 1081.3,-122"/>
<text text-anchor="middle" x="1016" y="-99.8" font-family="Times,serif" font-size="14.00">ButtonSizeDirective</text>
</g>
<!-- ButtonsModule -->
<g id="node7" class="node">
<title>ButtonsModule</title>
<polygon fill="#8dd3c7" stroke="black" points="582.61,-187 579.61,-191 558.61,-191 555.61,-187 479.39,-187 479.39,-151 582.61,-151 582.61,-187"/>
<text text-anchor="middle" x="531" y="-164.8" font-family="Times,serif" font-size="14.00">ButtonsModule</text>
</g>
<!-- ButtonSizeDirective&#45;&gt;ButtonsModule -->
<g id="edge1" class="edge">
<title>ButtonSizeDirective&#45;&gt;ButtonsModule</title>
<path fill="none" stroke="black" d="M1039.47,-122.22C1039.47,-140.83 1039.47,-167 1039.47,-167 1039.47,-167 593.03,-167 593.03,-167"/>
<polygon fill="black" stroke="black" points="593.03,-163.5 583.03,-167 593.03,-170.5 593.03,-163.5"/>
</g>
<!-- ButtonVariantDirective -->
<g id="node2" class="node">
<title>ButtonVariantDirective</title>
<polygon fill="#8dd3c7" stroke="black" points="933.18,-122 930.18,-126 909.18,-126 906.18,-122 784.82,-122 784.82,-86 933.18,-86 933.18,-122"/>
<text text-anchor="middle" x="859" y="-99.8" font-family="Times,serif" font-size="14.00">ButtonVariantDirective</text>
</g>
<!-- ButtonVariantDirective&#45;&gt;ButtonsModule -->
<g id="edge2" class="edge">
<title>ButtonVariantDirective&#45;&gt;ButtonsModule</title>
<path fill="none" stroke="black" d="M884.11,-122.03C884.11,-139.06 884.11,-162 884.11,-162 884.11,-162 592.72,-162 592.72,-162"/>
<polygon fill="black" stroke="black" points="592.72,-158.5 582.72,-162 592.72,-165.5 592.72,-158.5"/>
</g>
<!-- CtaButtonDirective -->
<g id="node3" class="node">
<title>CtaButtonDirective</title>
<polygon fill="#8dd3c7" stroke="black" points="766.64,-122 763.64,-126 742.64,-126 739.64,-122 641.36,-122 641.36,-86 766.64,-86 766.64,-122"/>
<text text-anchor="middle" x="704" y="-99.8" font-family="Times,serif" font-size="14.00">CtaButtonDirective</text>
</g>
<!-- CtaButtonDirective&#45;&gt;ButtonsModule -->
<g id="edge3" class="edge">
<title>CtaButtonDirective&#45;&gt;ButtonsModule</title>
<path fill="none" stroke="black" d="M724.94,-122.24C724.94,-137.57 724.94,-157 724.94,-157 724.94,-157 592.72,-157 592.72,-157"/>
<polygon fill="black" stroke="black" points="592.72,-153.5 582.72,-157 592.72,-160.5 592.72,-153.5"/>
</g>
<!-- PrimaryButtonVariantDirective -->
<g id="node4" class="node">
<title>PrimaryButtonVariantDirective</title>
<polygon fill="#8dd3c7" stroke="black" points="623.78,-122 620.78,-126 599.78,-126 596.78,-122 430.22,-122 430.22,-86 623.78,-86 623.78,-122"/>
<text text-anchor="middle" x="527" y="-99.8" font-family="Times,serif" font-size="14.00">PrimaryButtonVariantDirective</text>
</g>
<!-- PrimaryButtonVariantDirective&#45;&gt;ButtonsModule -->
<g id="edge4" class="edge">
<title>PrimaryButtonVariantDirective&#45;&gt;ButtonsModule</title>
<path fill="none" stroke="black" d="M531,-122.11C531,-122.11 531,-140.99 531,-140.99"/>
<polygon fill="black" stroke="black" points="527.5,-140.99 531,-150.99 534.5,-140.99 527.5,-140.99"/>
</g>
<!-- SecondaryButtonVariantDirective -->
<g id="node5" class="node">
<title>SecondaryButtonVariantDirective</title>
<polygon fill="#8dd3c7" stroke="black" points="412.77,-122 409.77,-126 388.77,-126 385.77,-122 205.23,-122 205.23,-86 412.77,-86 412.77,-122"/>
<text text-anchor="middle" x="309" y="-99.8" font-family="Times,serif" font-size="14.00">SecondaryButtonVariantDirective</text>
</g>
<!-- SecondaryButtonVariantDirective&#45;&gt;ButtonsModule -->
<g id="edge5" class="edge">
<title>SecondaryButtonVariantDirective&#45;&gt;ButtonsModule</title>
<path fill="none" stroke="black" d="M339.38,-122.01C339.38,-138.05 339.38,-159 339.38,-159 339.38,-159 469.4,-159 469.4,-159"/>
<polygon fill="black" stroke="black" points="469.4,-162.5 479.4,-159 469.4,-155.5 469.4,-162.5"/>
</g>
<!-- TextHyperlinkDirective -->
<g id="node6" class="node">
<title>TextHyperlinkDirective</title>
<polygon fill="#8dd3c7" stroke="black" points="187,-122 184,-126 163,-126 160,-122 37,-122 37,-86 187,-86 187,-122"/>
<text text-anchor="middle" x="112" y="-99.8" font-family="Times,serif" font-size="14.00">TextHyperlinkDirective</text>
</g>
<!-- TextHyperlinkDirective&#45;&gt;ButtonsModule -->
<g id="edge6" class="edge">
<title>TextHyperlinkDirective&#45;&gt;ButtonsModule</title>
<path fill="none" stroke="black" d="M182.63,-122.27C182.63,-140.56 182.63,-166 182.63,-166 182.63,-166 469.22,-166 469.22,-166"/>
<polygon fill="black" stroke="black" points="469.22,-169.5 479.22,-166 469.22,-162.5 469.22,-169.5"/>
</g>
<!-- ButtonSizeDirective  -->
<g id="node8" class="node">
<title>ButtonSizeDirective </title>
<polygon fill="#fb8072" stroke="black" points="1089.8,-252 956.2,-252 956.2,-216 1089.8,-216 1089.8,-252"/>
<text text-anchor="middle" x="1023" y="-229.8" font-family="Times,serif" font-size="14.00">ButtonSizeDirective </text>
</g>
<!-- ButtonsModule&#45;&gt;ButtonSizeDirective  -->
<g id="edge7" class="edge">
<title>ButtonsModule&#45;&gt;ButtonSizeDirective </title>
<path fill="none" stroke="black" stroke-dasharray="5,2" d="M582.74,-172C704.27,-172 997.78,-172 997.78,-172 997.78,-172 997.78,-205.73 997.78,-205.73"/>
<polygon fill="black" stroke="black" points="994.28,-205.73 997.78,-215.73 1001.28,-205.73 994.28,-205.73"/>
</g>
<!-- ButtonVariantDirective  -->
<g id="node9" class="node">
<title>ButtonVariantDirective </title>
<polygon fill="#fb8072" stroke="black" points="937.68,-252 786.32,-252 786.32,-216 937.68,-216 937.68,-252"/>
<text text-anchor="middle" x="862" y="-229.8" font-family="Times,serif" font-size="14.00">ButtonVariantDirective </text>
</g>
<!-- ButtonsModule&#45;&gt;ButtonVariantDirective  -->
<g id="edge8" class="edge">
<title>ButtonsModule&#45;&gt;ButtonVariantDirective </title>
<path fill="none" stroke="black" stroke-dasharray="5,2" d="M582.59,-177C669.36,-177 835.14,-177 835.14,-177 835.14,-177 835.14,-205.96 835.14,-205.96"/>
<polygon fill="black" stroke="black" points="831.64,-205.96 835.14,-215.96 838.64,-205.96 831.64,-205.96"/>
</g>
<!-- CtaButtonDirective  -->
<g id="node10" class="node">
<title>CtaButtonDirective </title>
<polygon fill="#fb8072" stroke="black" points="768.64,-252 639.36,-252 639.36,-216 768.64,-216 768.64,-252"/>
<text text-anchor="middle" x="704" y="-229.8" font-family="Times,serif" font-size="14.00">CtaButtonDirective </text>
</g>
<!-- ButtonsModule&#45;&gt;CtaButtonDirective  -->
<g id="edge9" class="edge">
<title>ButtonsModule&#45;&gt;CtaButtonDirective </title>
<path fill="none" stroke="black" stroke-dasharray="5,2" d="M582.9,-182C626.96,-182 683.06,-182 683.06,-182 683.06,-182 683.06,-205.81 683.06,-205.81"/>
<polygon fill="black" stroke="black" points="679.56,-205.81 683.06,-215.81 686.56,-205.81 679.56,-205.81"/>
</g>
<!-- PrimaryButtonVariantDirective  -->
<g id="node11" class="node">
<title>PrimaryButtonVariantDirective </title>
<polygon fill="#fb8072" stroke="black" points="621.28,-252 424.72,-252 424.72,-216 621.28,-216 621.28,-252"/>
<text text-anchor="middle" x="523" y="-229.8" font-family="Times,serif" font-size="14.00">PrimaryButtonVariantDirective </text>
</g>
<!-- ButtonsModule&#45;&gt;PrimaryButtonVariantDirective  -->
<g id="edge10" class="edge">
<title>ButtonsModule&#45;&gt;PrimaryButtonVariantDirective </title>
<path fill="none" stroke="black" stroke-dasharray="5,2" d="M531,-187.11C531,-187.11 531,-205.99 531,-205.99"/>
<polygon fill="black" stroke="black" points="527.5,-205.99 531,-215.99 534.5,-205.99 527.5,-205.99"/>
</g>
<!-- SecondaryButtonVariantDirective  -->
<g id="node12" class="node">
<title>SecondaryButtonVariantDirective </title>
<polygon fill="#fb8072" stroke="black" points="406.27,-252 195.73,-252 195.73,-216 406.27,-216 406.27,-252"/>
<text text-anchor="middle" x="301" y="-229.8" font-family="Times,serif" font-size="14.00">SecondaryButtonVariantDirective </text>
</g>
<!-- ButtonsModule&#45;&gt;SecondaryButtonVariantDirective  -->
<g id="edge11" class="edge">
<title>ButtonsModule&#45;&gt;SecondaryButtonVariantDirective </title>
<path fill="none" stroke="black" stroke-dasharray="5,2" d="M479.28,-180C403.81,-180 272.37,-180 272.37,-180 272.37,-180 272.37,-205.72 272.37,-205.72"/>
<polygon fill="black" stroke="black" points="268.87,-205.72 272.37,-215.72 275.87,-205.72 268.87,-205.72"/>
</g>
<!-- TextHyperlinkDirective  -->
<g id="node13" class="node">
<title>TextHyperlinkDirective </title>
<polygon fill="#fb8072" stroke="black" points="178,-252 24,-252 24,-216 178,-216 178,-252"/>
<text text-anchor="middle" x="101" y="-229.8" font-family="Times,serif" font-size="14.00">TextHyperlinkDirective </text>
</g>
<!-- ButtonsModule&#45;&gt;TextHyperlinkDirective  -->
<g id="edge12" class="edge">
<title>ButtonsModule&#45;&gt;TextHyperlinkDirective </title>
<path fill="none" stroke="black" stroke-dasharray="5,2" d="M479.06,-173C365.94,-173 107.38,-173 107.38,-173 107.38,-173 107.38,-205.7 107.38,-205.7"/>
<polygon fill="black" stroke="black" points="103.88,-205.7 107.38,-215.7 110.88,-205.7 103.88,-205.7"/>
</g>
</g>
</svg>
