<?xml version="1.0" encoding="UTF-8" standalone="no"?>
<!DOCTYPE svg PUBLIC "-//W3C//DTD SVG 1.1//EN"
 "http://www.w3.org/Graphics/SVG/1.1/DTD/svg11.dtd">
<!-- Generated by graphviz version 2.47.0 (20210316.0004)
 -->
<!-- Title: dependencies Pages: 1 -->
<svg width="950pt" height="284pt"
 viewBox="0.00 0.00 950.00 284.00" xmlns="http://www.w3.org/2000/svg" xmlns:xlink="http://www.w3.org/1999/xlink">
<g id="graph0" class="graph" transform="scale(1 1) rotate(0) translate(4 280)">
<title>dependencies</title>
<polygon fill="white" stroke="transparent" points="-4,4 -4,-280 946,-280 946,4 -4,4"/>
<text text-anchor="start" x="450.01" y="-42.4" font-family="Times-12" font-weight="bold" font-size="14.00">Legend</text>
<polygon fill="#ffffb3" stroke="transparent" points="237,-10 237,-30 257,-30 257,-10 237,-10"/>
<text text-anchor="start" x="260.63" y="-15.4" font-family="Times-12" font-size="14.00"> &#160;Declarations</text>
<polygon fill="#8dd3c7" stroke="transparent" points="350,-10 350,-30 370,-30 370,-10 350,-10"/>
<text text-anchor="start" x="373.73" y="-15.4" font-family="Times-12" font-size="14.00"> &#160;Module</text>
<polygon fill="#80b1d3" stroke="transparent" points="436,-10 436,-30 456,-30 456,-10 436,-10"/>
<text text-anchor="start" x="459.78" y="-15.4" font-family="Times-12" font-size="14.00"> &#160;Bootstrap</text>
<polygon fill="#fdb462" stroke="transparent" points="533,-10 533,-30 553,-30 553,-10 533,-10"/>
<text text-anchor="start" x="556.67" y="-15.4" font-family="Times-12" font-size="14.00"> &#160;Providers</text>
<polygon fill="#fb8072" stroke="transparent" points="629,-10 629,-30 649,-30 649,-10 629,-10"/>
<text text-anchor="start" x="652.73" y="-15.4" font-family="Times-12" font-size="14.00"> &#160;Exports</text>
<g id="clust1" class="cluster">
<title>cluster_ButtonsModule</title>
<polygon fill="none" stroke="black" stroke-dasharray="1,5" points="8,-70 8,-268 934,-268 934,-70 8,-70"/>
</g>
<g id="clust3" class="cluster">
<title>cluster_ButtonsModule_imports</title>
<polygon fill="none" stroke="black" points="25,-78 25,-130 917,-130 917,-78 25,-78"/>
</g>
<g id="clust4" class="cluster">
<title>cluster_ButtonsModule_exports</title>
<polygon fill="none" stroke="black" points="16,-208 16,-260 926,-260 926,-208 16,-208"/>
</g>
<!-- ButtonSizeDirective -->
<g id="node1" class="node">
<title>ButtonSizeDirective</title>
<polygon fill="#8dd3c7" stroke="black" points="909.3,-122 906.3,-126 885.3,-126 882.3,-122 778.7,-122 778.7,-86 909.3,-86 909.3,-122"/>
<text text-anchor="middle" x="844" y="-99.8" font-family="Times,serif" font-size="14.00">ButtonSizeDirective</text>
</g>
<!-- ButtonsModule -->
<g id="node6" class="node">
<title>ButtonsModule</title>
<polygon fill="#8dd3c7" stroke="black" points="583.61,-187 580.61,-191 559.61,-191 556.61,-187 480.39,-187 480.39,-151 583.61,-151 583.61,-187"/>
<text text-anchor="middle" x="532" y="-164.8" font-family="Times,serif" font-size="14.00">ButtonsModule</text>
</g>
<!-- ButtonSizeDirective&#45;&gt;ButtonsModule -->
<g id="edge1" class="edge">
<title>ButtonSizeDirective&#45;&gt;ButtonsModule</title>
<path fill="none" stroke="black" d="M867.47,-122.27C867.47,-140.56 867.47,-166 867.47,-166 867.47,-166 593.68,-166 593.68,-166"/>
<polygon fill="black" stroke="black" points="593.68,-162.5 583.68,-166 593.68,-169.5 593.68,-162.5"/>
</g>
<!-- ButtonVariantDirective -->
<g id="node2" class="node">
<title>ButtonVariantDirective</title>
<polygon fill="#8dd3c7" stroke="black" points="761.18,-122 758.18,-126 737.18,-126 734.18,-122 612.82,-122 612.82,-86 761.18,-86 761.18,-122"/>
<text text-anchor="middle" x="687" y="-99.8" font-family="Times,serif" font-size="14.00">ButtonVariantDirective</text>
</g>
<!-- ButtonVariantDirective&#45;&gt;ButtonsModule -->
<g id="edge2" class="edge">
<title>ButtonVariantDirective&#45;&gt;ButtonsModule</title>
<path fill="none" stroke="black" d="M712.11,-122.01C712.11,-138.05 712.11,-159 712.11,-159 712.11,-159 593.61,-159 593.61,-159"/>
<polygon fill="black" stroke="black" points="593.61,-155.5 583.61,-159 593.61,-162.5 593.61,-155.5"/>
</g>
<!-- CtaButtonDirective -->
<g id="node3" class="node">
<title>CtaButtonDirective</title>
<polygon fill="#8dd3c7" stroke="black" points="594.64,-122 591.64,-126 570.64,-126 567.64,-122 469.36,-122 469.36,-86 594.64,-86 594.64,-122"/>
<text text-anchor="middle" x="532" y="-99.8" font-family="Times,serif" font-size="14.00">CtaButtonDirective</text>
</g>
<!-- CtaButtonDirective&#45;&gt;ButtonsModule -->
<g id="edge3" class="edge">
<title>CtaButtonDirective&#45;&gt;ButtonsModule</title>
<path fill="none" stroke="black" d="M532,-122.11C532,-122.11 532,-140.99 532,-140.99"/>
<polygon fill="black" stroke="black" points="528.5,-140.99 532,-150.99 535.5,-140.99 528.5,-140.99"/>
</g>
<!-- PrimaryButtonVariantDirective -->
<g id="node4" class="node">
<title>PrimaryButtonVariantDirective</title>
<polygon fill="#8dd3c7" stroke="black" points="451.78,-122 448.78,-126 427.78,-126 424.78,-122 258.22,-122 258.22,-86 451.78,-86 451.78,-122"/>
<text text-anchor="middle" x="355" y="-99.8" font-family="Times,serif" font-size="14.00">PrimaryButtonVariantDirective</text>
</g>
<!-- PrimaryButtonVariantDirective&#45;&gt;ButtonsModule -->
<g id="edge4" class="edge">
<title>PrimaryButtonVariantDirective&#45;&gt;ButtonsModule</title>
<path fill="none" stroke="black" d="M385.71,-122.01C385.71,-138.05 385.71,-159 385.71,-159 385.71,-159 470.42,-159 470.42,-159"/>
<polygon fill="black" stroke="black" points="470.42,-162.5 480.42,-159 470.42,-155.5 470.42,-162.5"/>
</g>
<!-- SecondaryButtonVariantDirective -->
<g id="node5" class="node">
<title>SecondaryButtonVariantDirective</title>
<polygon fill="#8dd3c7" stroke="black" points="240.77,-122 237.77,-126 216.77,-126 213.77,-122 33.23,-122 33.23,-86 240.77,-86 240.77,-122"/>
<text text-anchor="middle" x="137" y="-99.8" font-family="Times,serif" font-size="14.00">SecondaryButtonVariantDirective</text>
</g>
<!-- SecondaryButtonVariantDirective&#45;&gt;ButtonsModule -->
<g id="edge5" class="edge">
<title>SecondaryButtonVariantDirective&#45;&gt;ButtonsModule</title>
<path fill="none" stroke="black" d="M167.38,-122.27C167.38,-140.56 167.38,-166 167.38,-166 167.38,-166 470.15,-166 470.15,-166"/>
<polygon fill="black" stroke="black" points="470.15,-169.5 480.15,-166 470.15,-162.5 470.15,-169.5"/>
</g>
<!-- ButtonSizeDirective  -->
<g id="node7" class="node">
<title>ButtonSizeDirective </title>
<polygon fill="#fb8072" stroke="black" points="917.8,-252 784.2,-252 784.2,-216 917.8,-216 917.8,-252"/>
<text text-anchor="middle" x="851" y="-229.8" font-family="Times,serif" font-size="14.00">ButtonSizeDirective </text>
</g>
<!-- ButtonsModule&#45;&gt;ButtonSizeDirective  -->
<g id="edge6" class="edge">
<title>ButtonsModule&#45;&gt;ButtonSizeDirective </title>
<path fill="none" stroke="black" stroke-dasharray="5,2" d="M583.85,-173C668.19,-173 825.78,-173 825.78,-173 825.78,-173 825.78,-205.7 825.78,-205.7"/>
<polygon fill="black" stroke="black" points="822.28,-205.7 825.78,-215.7 829.28,-205.7 822.28,-205.7"/>
</g>
<!-- ButtonVariantDirective  -->
<g id="node8" class="node">
<title>ButtonVariantDirective </title>
<polygon fill="#fb8072" stroke="black" points="765.68,-252 614.32,-252 614.32,-216 765.68,-216 765.68,-252"/>
<text text-anchor="middle" x="690" y="-229.8" font-family="Times,serif" font-size="14.00">ButtonVariantDirective </text>
</g>
<!-- ButtonsModule&#45;&gt;ButtonVariantDirective  -->
<g id="edge7" class="edge">
<title>ButtonsModule&#45;&gt;ButtonVariantDirective </title>
<path fill="none" stroke="black" stroke-dasharray="5,2" d="M583.83,-180C620.48,-180 663.14,-180 663.14,-180 663.14,-180 663.14,-205.72 663.14,-205.72"/>
<polygon fill="black" stroke="black" points="659.64,-205.72 663.14,-215.72 666.64,-205.72 659.64,-205.72"/>
</g>
<!-- CtaButtonDirective  -->
<g id="node9" class="node">
<title>CtaButtonDirective </title>
<polygon fill="#fb8072" stroke="black" points="596.64,-252 467.36,-252 467.36,-216 596.64,-216 596.64,-252"/>
<text text-anchor="middle" x="532" y="-229.8" font-family="Times,serif" font-size="14.00">CtaButtonDirective </text>
</g>
<!-- ButtonsModule&#45;&gt;CtaButtonDirective  -->
<g id="edge8" class="edge">
<title>ButtonsModule&#45;&gt;CtaButtonDirective </title>
<path fill="none" stroke="black" stroke-dasharray="5,2" d="M532,-187.11C532,-187.11 532,-205.99 532,-205.99"/>
<polygon fill="black" stroke="black" points="528.5,-205.99 532,-215.99 535.5,-205.99 528.5,-205.99"/>
</g>
<!-- PrimaryButtonVariantDirective  -->
<g id="node10" class="node">
<title>PrimaryButtonVariantDirective </title>
<polygon fill="#fb8072" stroke="black" points="449.28,-252 252.72,-252 252.72,-216 449.28,-216 449.28,-252"/>
<text text-anchor="middle" x="351" y="-229.8" font-family="Times,serif" font-size="14.00">PrimaryButtonVariantDirective </text>
</g>
<!-- ButtonsModule&#45;&gt;PrimaryButtonVariantDirective  -->
<g id="edge9" class="edge">
<title>ButtonsModule&#45;&gt;PrimaryButtonVariantDirective </title>
<path fill="none" stroke="black" stroke-dasharray="5,2" d="M480.37,-180C418.2,-180 322.04,-180 322.04,-180 322.04,-180 322.04,-205.72 322.04,-205.72"/>
<polygon fill="black" stroke="black" points="318.54,-205.72 322.04,-215.72 325.54,-205.72 318.54,-205.72"/>
</g>
<!-- SecondaryButtonVariantDirective  -->
<g id="node11" class="node">
<title>SecondaryButtonVariantDirective </title>
<polygon fill="#fb8072" stroke="black" points="234.27,-252 23.73,-252 23.73,-216 234.27,-216 234.27,-252"/>
<text text-anchor="middle" x="129" y="-229.8" font-family="Times,serif" font-size="14.00">SecondaryButtonVariantDirective </text>
</g>
<!-- ButtonsModule&#45;&gt;SecondaryButtonVariantDirective  -->
<g id="edge10" class="edge">
<title>ButtonsModule&#45;&gt;SecondaryButtonVariantDirective </title>
<path fill="none" stroke="black" stroke-dasharray="5,2" d="M480.36,-173C365.8,-173 100.37,-173 100.37,-173 100.37,-173 100.37,-205.7 100.37,-205.7"/>
<polygon fill="black" stroke="black" points="96.87,-205.7 100.37,-215.7 103.87,-205.7 96.87,-205.7"/>
</g>
</g>
</svg>
