<?xml version="1.0" encoding="UTF-8" standalone="no"?>
<!DOCTYPE svg PUBLIC "-//W3C//DTD SVG 1.1//EN"
 "http://www.w3.org/Graphics/SVG/1.1/DTD/svg11.dtd">
<!-- Generated by graphviz version 2.47.0 (20210316.0004)
 -->
<!-- Title: dependencies Pages: 1 -->
<svg width="507pt" height="284pt"
 viewBox="0.00 0.00 507.00 284.00" xmlns="http://www.w3.org/2000/svg" xmlns:xlink="http://www.w3.org/1999/xlink">
<g id="graph0" class="graph" transform="scale(1 1) rotate(0) translate(4 280)">
<title>dependencies</title>
<polygon fill="white" stroke="transparent" points="-4,4 -4,-280 503,-280 503,4 -4,4"/>
<text text-anchor="start" x="228.51" y="-42.4" font-family="Times-12" font-weight="bold" font-size="14.00">Legend</text>
<polygon fill="#ffffb3" stroke="transparent" points="15.5,-10 15.5,-30 35.5,-30 35.5,-10 15.5,-10"/>
<text text-anchor="start" x="39.13" y="-15.4" font-family="Times-12" font-size="14.00"> &#160;Declarations</text>
<polygon fill="#8dd3c7" stroke="transparent" points="128.5,-10 128.5,-30 148.5,-30 148.5,-10 128.5,-10"/>
<text text-anchor="start" x="152.23" y="-15.4" font-family="Times-12" font-size="14.00"> &#160;Module</text>
<polygon fill="#80b1d3" stroke="transparent" points="214.5,-10 214.5,-30 234.5,-30 234.5,-10 214.5,-10"/>
<text text-anchor="start" x="238.28" y="-15.4" font-family="Times-12" font-size="14.00"> &#160;Bootstrap</text>
<polygon fill="#fdb462" stroke="transparent" points="311.5,-10 311.5,-30 331.5,-30 331.5,-10 311.5,-10"/>
<text text-anchor="start" x="335.17" y="-15.4" font-family="Times-12" font-size="14.00"> &#160;Providers</text>
<polygon fill="#fb8072" stroke="transparent" points="407.5,-10 407.5,-30 427.5,-30 427.5,-10 407.5,-10"/>
<text text-anchor="start" x="431.23" y="-15.4" font-family="Times-12" font-size="14.00"> &#160;Exports</text>
<g id="clust1" class="cluster">
<title>cluster_ButtonsModule</title>
<polygon fill="none" stroke="black" stroke-dasharray="1,5" points="8,-70 8,-268 491,-268 491,-70 8,-70"/>
</g>
<g id="clust4" class="cluster">
<title>cluster_ButtonsModule_exports</title>
<polygon fill="none" stroke="black" points="16,-208 16,-260 483,-260 483,-208 16,-208"/>
</g>
<g id="clust3" class="cluster">
<title>cluster_ButtonsModule_imports</title>
<polygon fill="none" stroke="black" points="21,-78 21,-130 477,-130 477,-78 21,-78"/>
</g>
<!-- ButtonSizeDirective -->
<g id="node1" class="node">
<title>ButtonSizeDirective</title>
<polygon fill="#8dd3c7" stroke="black" points="469.3,-122 466.3,-126 445.3,-126 442.3,-122 338.7,-122 338.7,-86 469.3,-86 469.3,-122"/>
<text text-anchor="middle" x="404" y="-99.8" font-family="Times,serif" font-size="14.00">ButtonSizeDirective</text>
</g>
<!-- ButtonsModule -->
<g id="node4" class="node">
<title>ButtonsModule</title>
<polygon fill="#8dd3c7" stroke="black" points="298.61,-187 295.61,-191 274.61,-191 271.61,-187 195.39,-187 195.39,-151 298.61,-151 298.61,-187"/>
<text text-anchor="middle" x="247" y="-164.8" font-family="Times,serif" font-size="14.00">ButtonsModule</text>
</g>
<!-- ButtonSizeDirective&#45;&gt;ButtonsModule -->
<g id="edge1" class="edge">
<title>ButtonSizeDirective&#45;&gt;ButtonsModule</title>
<path fill="none" stroke="black" d="M426.47,-122.02C426.47,-139.37 426.47,-163 426.47,-163 426.47,-163 308.91,-163 308.91,-163"/>
<polygon fill="black" stroke="black" points="308.91,-159.5 298.91,-163 308.91,-166.5 308.91,-159.5"/>
</g>
<!-- ButtonVariantDirective -->
<g id="node2" class="node">
<title>ButtonVariantDirective</title>
<polygon fill="#8dd3c7" stroke="black" points="321.18,-122 318.18,-126 297.18,-126 294.18,-122 172.82,-122 172.82,-86 321.18,-86 321.18,-122"/>
<text text-anchor="middle" x="247" y="-99.8" font-family="Times,serif" font-size="14.00">ButtonVariantDirective</text>
</g>
<!-- ButtonVariantDirective&#45;&gt;ButtonsModule -->
<g id="edge2" class="edge">
<title>ButtonVariantDirective&#45;&gt;ButtonsModule</title>
<path fill="none" stroke="black" d="M247,-122.11C247,-122.11 247,-140.99 247,-140.99"/>
<polygon fill="black" stroke="black" points="243.5,-140.99 247,-150.99 250.5,-140.99 243.5,-140.99"/>
</g>
<!-- CtaButtonDirective -->
<g id="node3" class="node">
<title>CtaButtonDirective</title>
<polygon fill="#8dd3c7" stroke="black" points="154.64,-122 151.64,-126 130.64,-126 127.64,-122 29.36,-122 29.36,-86 154.64,-86 154.64,-122"/>
<text text-anchor="middle" x="92" y="-99.8" font-family="Times,serif" font-size="14.00">CtaButtonDirective</text>
</g>
<!-- CtaButtonDirective&#45;&gt;ButtonsModule -->
<g id="edge3" class="edge">
<title>CtaButtonDirective&#45;&gt;ButtonsModule</title>
<path fill="none" stroke="black" d="M112.11,-122.02C112.11,-139.37 112.11,-163 112.11,-163 112.11,-163 185.23,-163 185.23,-163"/>
<polygon fill="black" stroke="black" points="185.23,-166.5 195.23,-163 185.23,-159.5 185.23,-166.5"/>
</g>
<!-- ButtonSizeDirective  -->
<g id="node5" class="node">
<title>ButtonSizeDirective </title>
<polygon fill="#fb8072" stroke="black" points="474.8,-252 341.2,-252 341.2,-216 474.8,-216 474.8,-252"/>
<text text-anchor="middle" x="408" y="-229.8" font-family="Times,serif" font-size="14.00">ButtonSizeDirective </text>
</g>
<!-- ButtonsModule&#45;&gt;ButtonSizeDirective  -->
<g id="edge4" class="edge">
<title>ButtonsModule&#45;&gt;ButtonSizeDirective </title>
<path fill="none" stroke="black" stroke-dasharray="5,2" d="M298.71,-175C337.45,-175 383.78,-175 383.78,-175 383.78,-175 383.78,-205.98 383.78,-205.98"/>
<polygon fill="black" stroke="black" points="380.28,-205.98 383.78,-215.98 387.28,-205.98 380.28,-205.98"/>
</g>
<!-- ButtonVariantDirective  -->
<g id="node6" class="node">
<title>ButtonVariantDirective </title>
<polygon fill="#fb8072" stroke="black" points="322.68,-252 171.32,-252 171.32,-216 322.68,-216 322.68,-252"/>
<text text-anchor="middle" x="247" y="-229.8" font-family="Times,serif" font-size="14.00">ButtonVariantDirective </text>
</g>
<!-- ButtonsModule&#45;&gt;ButtonVariantDirective  -->
<g id="edge5" class="edge">
<title>ButtonsModule&#45;&gt;ButtonVariantDirective </title>
<path fill="none" stroke="black" stroke-dasharray="5,2" d="M247,-187.11C247,-187.11 247,-205.99 247,-205.99"/>
<polygon fill="black" stroke="black" points="243.5,-205.99 247,-215.99 250.5,-205.99 243.5,-205.99"/>
</g>
<!-- CtaButtonDirective  -->
<g id="node7" class="node">
<title>CtaButtonDirective </title>
<polygon fill="#fb8072" stroke="black" points="153.64,-252 24.36,-252 24.36,-216 153.64,-216 153.64,-252"/>
<text text-anchor="middle" x="89" y="-229.8" font-family="Times,serif" font-size="14.00">CtaButtonDirective </text>
</g>
<!-- ButtonsModule&#45;&gt;CtaButtonDirective  -->
<g id="edge6" class="edge">
<title>ButtonsModule&#45;&gt;CtaButtonDirective </title>
<path fill="none" stroke="black" stroke-dasharray="5,2" d="M195.04,-175C143.02,-175 70.64,-175 70.64,-175 70.64,-175 70.64,-205.98 70.64,-205.98"/>
<polygon fill="black" stroke="black" points="67.14,-205.98 70.64,-215.98 74.14,-205.98 67.14,-205.98"/>
</g>
</g>
</svg>
