<svg width="210" height="32" viewBox="0 0 210 32" fill="none" xmlns="http://www.w3.org/2000/svg">
<g clip-path="url(#clip0_2183_8009)">
<path d="M16.0033 32.0066C24.8417 32.0066 32.0066 24.8417 32.0066 16.0033C32.0066 7.16493 24.8417 0 16.0033 0C7.16493 0 0 7.16493 0 16.0033C0 24.8417 7.16493 32.0066 16.0033 32.0066Z" fill="#201E3D"/>
<path d="M20.467 14.6116C20.3569 14.486 20.168 14.4546 19.995 14.4467C19.8219 14.4467 19.6488 14.4703 19.4836 14.4153C19.1532 14.3133 18.988 13.9522 18.7913 13.6539C18.3901 13.0338 17.7056 12.5942 16.9661 12.5C16.7694 12.4764 16.5334 12.445 16.4547 12.2645C16.4232 12.2017 16.4232 12.1232 16.4232 12.0525C16.4154 11.8877 16.3839 11.7071 16.258 11.5972C16.1322 11.4873 15.8961 11.503 15.8411 11.66C15.7939 11.7935 15.8961 11.9269 15.9512 12.0525C16.1086 12.4215 15.5893 12.4921 15.3533 12.5392C14.9914 12.6177 14.6216 12.6491 14.2755 12.7904C13.8271 12.9631 13.4494 13.3085 13.2291 13.7324C13.1033 13.9679 12.9774 14.274 12.7099 14.2819C12.584 14.2819 12.4424 14.2269 12.3559 14.3054C12.2536 14.3918 12.3165 14.5566 12.4031 14.6508C12.4896 14.745 12.6076 14.8392 12.6155 14.9727C12.6155 15.059 12.5762 15.1375 12.5368 15.216C12.1435 15.9775 12.1592 16.3464 12.2457 17.2021C12.3244 17.9792 12.5604 18.301 12.6155 18.4188C12.6627 18.5287 12.6312 18.6543 12.5919 18.772C12.5526 18.8819 12.4975 18.9997 12.5132 19.1174C12.529 19.2352 12.6391 19.3529 12.7571 19.3215C12.8672 19.2901 12.9066 19.141 12.9853 19.0625C13.119 18.929 13.3471 18.9761 13.4966 19.0939C13.6382 19.2116 13.7248 19.3843 13.8507 19.5256C14.1811 19.9103 14.716 20.0516 15.2274 20.0594C15.7309 20.0751 16.2423 19.9809 16.7458 20.0123C16.7615 20.0123 16.7773 20.0123 16.793 20.0123C16.793 20.0437 16.8009 20.0751 16.8009 20.1065C16.8009 20.185 16.7537 20.2478 16.7222 20.3185C16.6907 20.3813 16.6829 20.4598 16.7222 20.5226C16.7694 20.5932 16.8795 20.6089 16.9503 20.5697C17.029 20.5304 17.0762 20.4519 17.1156 20.3734C17.1706 20.2635 17.1942 20.1458 17.2021 20.028C17.4066 20.028 17.6112 20.0123 17.7764 19.9024C17.918 19.8082 18.0203 19.6748 18.1462 19.5649C18.4058 19.3372 18.7519 19.243 19.0116 19.0232C19.3027 18.772 19.4443 18.3874 19.5701 18.0184C19.6645 17.9713 19.7747 18.0655 19.877 18.0734C20.0264 18.0734 20.1208 17.8771 20.0579 17.7359C19.995 17.5946 19.8455 17.5239 19.696 17.4847C19.7668 17.0137 19.7668 16.527 19.696 16.056C19.6645 15.844 19.6173 15.6242 19.6567 15.4123C19.7039 15.2003 19.877 14.9962 20.0894 15.0041C20.1917 15.0041 20.2939 15.0512 20.3883 15.0198C20.5535 14.9727 20.5771 14.7215 20.467 14.5959V14.6116ZM15.8332 18.2068C15.0543 18.2068 14.4171 17.5789 14.4171 16.7939C14.4171 16.0089 15.0465 15.3809 15.8332 15.3809C16.6199 15.3809 17.2493 16.0089 17.2493 16.7939C17.2493 17.5789 16.6199 18.2068 15.8332 18.2068Z" fill="#FCFCFC"/>
<path d="M7.28906 16.1945H10.303" stroke="white" stroke-width="0.7" stroke-linecap="round" stroke-linejoin="round"/>
<path d="M6.85938 17.0555L6.85937 15.3333" stroke="white" stroke-width="0.7" stroke-linecap="round" stroke-linejoin="round"/>
<path d="M24.9766 16.1945L21.9627 16.1945" stroke="white" stroke-width="0.7" stroke-linecap="round" stroke-linejoin="round"/>
<path d="M25.4062 15.3334L25.4062 17.0556" stroke="white" stroke-width="0.7" stroke-linecap="round" stroke-linejoin="round"/>
</g>
<path d="M46.48 21.192C43.392 21.192 40.768 18.584 40.768 15.496C40.768 12.408 43.392 9.816 46.48 9.816C48.048 9.816 49.488 10.472 50.528 11.544L49.392 12.632C48.656 11.832 47.616 11.304 46.48 11.304C44.288 11.304 42.432 13.224 42.432 15.496C42.432 17.784 44.288 19.704 46.48 19.704C47.616 19.704 48.656 19.176 49.392 18.376L50.528 19.464C49.488 20.52 48.048 21.192 46.48 21.192ZM55.8971 19.784C56.7611 19.784 57.7691 19.4 58.2651 18.888L59.2571 19.912C58.5211 20.696 57.0811 21.192 55.9131 21.192C53.6091 21.192 51.6571 19.384 51.6571 16.84C51.6571 14.36 53.4971 12.536 55.7851 12.536C58.3131 12.536 59.7691 14.456 59.7691 17.416H53.2571C53.4651 18.792 54.4731 19.784 55.8971 19.784ZM55.8491 13.944C54.5691 13.944 53.5291 14.808 53.2731 16.152H58.2331C58.0571 14.872 57.2731 13.944 55.8491 13.944ZM61.6051 21V9.816H63.1731V21H61.6051ZM65.4801 21V9.816H67.0481V21H65.4801ZM74.1733 21V10.008H77.9653C81.5173 10.008 84.0453 12.28 84.0453 15.496C84.0453 18.712 81.5173 21 77.9653 21H74.1733ZM75.7893 19.528H78.0613C80.6053 19.528 82.3813 17.864 82.3813 15.496C82.3813 13.144 80.6053 11.48 78.0613 11.48H75.7893V19.528ZM86.9048 11.352C86.3608 11.352 85.9448 10.904 85.9448 10.392C85.9448 9.896 86.3608 9.448 86.9048 9.448C87.4168 9.448 87.8488 9.896 87.8488 10.392C87.8488 10.904 87.4168 11.352 86.9048 11.352ZM86.1048 21V12.728H87.6888V21H86.1048ZM92.9721 21.192C91.7561 21.192 90.4281 20.76 89.4361 19.96L90.1881 18.824C91.0681 19.464 92.0121 19.832 92.9881 19.832C93.9161 19.832 94.5561 19.4 94.5561 18.76C94.5561 17.992 93.7081 17.752 92.6841 17.464C90.7801 16.936 89.8361 16.392 89.8361 15.048C89.8201 13.528 91.0841 12.536 92.8441 12.536C93.9161 12.536 95.0041 12.904 95.9001 13.496L95.1961 14.664C94.3961 14.168 93.5641 13.896 92.8441 13.896C92.0281 13.896 91.3881 14.248 91.3881 14.872C91.3881 15.512 91.9001 15.704 93.2921 16.136C94.6521 16.536 96.1081 16.984 96.1081 18.632C96.1081 20.2 94.7801 21.192 92.9721 21.192ZM101.821 19.512L102.397 20.6C101.949 20.968 101.341 21.192 100.749 21.192C99.4689 21.192 98.5729 20.264 98.5729 18.936V14.072H97.3249V12.728H98.5729V10.456H100.125V12.728H102.077V14.072H100.125V18.824C100.125 19.4 100.509 19.816 100.973 19.816C101.325 19.816 101.645 19.688 101.821 19.512ZM107.483 12.536C109.707 12.536 110.939 13.944 110.939 15.992V21H109.387V19.864C108.779 20.728 107.643 21.192 106.635 21.192C104.875 21.192 103.579 20.168 103.579 18.552C103.579 16.904 105.067 15.8 106.891 15.8C107.707 15.8 108.587 15.976 109.387 16.248V15.992C109.387 14.952 108.907 13.848 107.259 13.848C106.443 13.848 105.643 14.168 104.923 14.536L104.347 13.368C105.531 12.776 106.571 12.536 107.483 12.536ZM106.939 19.944C107.963 19.944 109.115 19.432 109.387 18.408V17.304C108.715 17.096 107.947 16.984 107.131 16.984C106.027 16.984 105.099 17.608 105.099 18.504C105.099 19.4 105.899 19.944 106.939 19.944ZM117.438 12.536C119.262 12.536 120.542 13.864 120.542 15.736V21H118.99V16.008C118.99 14.776 118.206 13.912 117.086 13.912C115.934 13.912 114.942 14.664 114.814 15.64V21H113.23V12.728H114.814V13.928C115.31 13.112 116.318 12.536 117.438 12.536ZM126.712 21.192C124.36 21.192 122.36 19.208 122.36 16.856C122.36 14.504 124.36 12.536 126.728 12.536C127.912 12.536 128.984 13.032 129.768 13.816L128.696 14.808C128.2 14.248 127.48 13.912 126.712 13.912C125.208 13.912 123.96 15.256 123.96 16.856C123.96 18.472 125.208 19.816 126.728 19.816C127.496 19.816 128.232 19.464 128.744 18.888L129.816 19.864C129.016 20.68 127.944 21.192 126.712 21.192ZM135.303 19.784C136.167 19.784 137.175 19.4 137.671 18.888L138.663 19.912C137.927 20.696 136.487 21.192 135.319 21.192C133.015 21.192 131.063 19.384 131.063 16.84C131.063 14.36 132.903 12.536 135.191 12.536C137.719 12.536 139.175 14.456 139.175 17.416H132.663C132.871 18.792 133.879 19.784 135.303 19.784ZM135.255 13.944C133.975 13.944 132.935 14.808 132.679 16.152H137.639C137.463 14.872 136.679 13.944 135.255 13.944ZM153.718 11.512H147.27V14.648H153.094V16.152H147.27V19.496H153.718V21H145.638V10.008H153.718V11.512ZM163.027 21H161.251L158.995 17.96L156.723 21H154.963L158.115 16.776L155.091 12.728H156.883L158.995 15.576L161.123 12.728H162.883L159.875 16.76L163.027 21ZM169.182 12.536C171.358 12.536 172.99 14.328 172.99 16.856C172.99 19.4 171.358 21.192 169.182 21.192C167.902 21.192 166.878 20.584 166.238 19.56V23.752H164.67V12.728H166.238V14.152C166.878 13.144 167.902 12.536 169.182 12.536ZM168.798 19.816C170.318 19.816 171.39 18.584 171.39 16.856C171.39 15.128 170.318 13.912 168.798 13.912C167.31 13.912 166.238 15.128 166.238 16.856C166.238 18.584 167.31 19.816 168.798 19.816ZM174.902 21V9.816H176.47V21H174.902ZM182.697 21.192C180.329 21.192 178.329 19.208 178.329 16.856C178.329 14.504 180.329 12.536 182.697 12.536C185.049 12.536 187.033 14.504 187.033 16.856C187.033 19.208 185.049 21.192 182.697 21.192ZM182.697 19.816C184.185 19.816 185.449 18.472 185.449 16.856C185.449 15.256 184.185 13.912 182.697 13.912C181.177 13.912 179.913 15.256 179.913 16.856C179.913 18.472 181.177 19.816 182.697 19.816ZM190.55 14.312C191.078 13.224 192.198 12.536 193.622 12.536V13.912C191.91 13.912 190.694 14.856 190.55 16.296V21H188.966V12.728H190.55V14.312ZM198.96 19.784C199.824 19.784 200.832 19.4 201.328 18.888L202.32 19.912C201.584 20.696 200.144 21.192 198.976 21.192C196.672 21.192 194.72 19.384 194.72 16.84C194.72 14.36 196.56 12.536 198.848 12.536C201.376 12.536 202.832 14.456 202.832 17.416H196.32C196.528 18.792 197.536 19.784 198.96 19.784ZM198.912 13.944C197.632 13.944 196.592 14.808 196.336 16.152H201.296C201.12 14.872 200.336 13.944 198.912 13.944ZM206.332 14.312C206.86 13.224 207.98 12.536 209.404 12.536V13.912C207.692 13.912 206.476 14.856 206.332 16.296V21H204.748V12.728H206.332V14.312Z" fill="#201E3D"/>
<defs>
<clipPath id="clip0_2183_8009">
<rect width="32" height="32" fill="white"/>
</clipPath>
</defs>
</svg>
