<?xml version="1.0" encoding="UTF-8" standalone="no"?>
<!DOCTYPE svg PUBLIC "-//W3C//DTD SVG 1.1//EN"
 "http://www.w3.org/Graphics/SVG/1.1/DTD/svg11.dtd">
<!-- Generated by graphviz version 2.47.0 (20210316.0004)
 -->
<!-- Title: dependencies Pages: 1 -->
<svg width="4283pt" height="284pt"
 viewBox="0.00 0.00 4283.00 284.00" xmlns="http://www.w3.org/2000/svg" xmlns:xlink="http://www.w3.org/1999/xlink">
<g id="graph0" class="graph" transform="scale(1 1) rotate(0) translate(4 280)">
<title>dependencies</title>
<polygon fill="white" stroke="transparent" points="-4,4 -4,-280 4279,-280 4279,4 -4,4"/>
<text text-anchor="start" x="2116.51" y="-42.4" font-family="Times-12" font-weight="bold" font-size="14.00">Legend</text>
<polygon fill="#ffffb3" stroke="transparent" points="1903.5,-10 1903.5,-30 1923.5,-30 1923.5,-10 1903.5,-10"/>
<text text-anchor="start" x="1927.13" y="-15.4" font-family="Times-12" font-size="14.00"> &#160;Declarations</text>
<polygon fill="#8dd3c7" stroke="transparent" points="2016.5,-10 2016.5,-30 2036.5,-30 2036.5,-10 2016.5,-10"/>
<text text-anchor="start" x="2040.23" y="-15.4" font-family="Times-12" font-size="14.00"> &#160;Module</text>
<polygon fill="#80b1d3" stroke="transparent" points="2102.5,-10 2102.5,-30 2122.5,-30 2122.5,-10 2102.5,-10"/>
<text text-anchor="start" x="2126.28" y="-15.4" font-family="Times-12" font-size="14.00"> &#160;Bootstrap</text>
<polygon fill="#fdb462" stroke="transparent" points="2199.5,-10 2199.5,-30 2219.5,-30 2219.5,-10 2199.5,-10"/>
<text text-anchor="start" x="2223.17" y="-15.4" font-family="Times-12" font-size="14.00"> &#160;Providers</text>
<polygon fill="#fb8072" stroke="transparent" points="2295.5,-10 2295.5,-30 2315.5,-30 2315.5,-10 2295.5,-10"/>
<text text-anchor="start" x="2319.23" y="-15.4" font-family="Times-12" font-size="14.00"> &#160;Exports</text>
<g id="clust1" class="cluster">
<title>cluster_NavigationModule</title>
<polygon fill="none" stroke="black" stroke-dasharray="1,5" points="8,-70 8,-268 4267,-268 4267,-70 8,-70"/>
</g>
<g id="clust3" class="cluster">
<title>cluster_NavigationModule_imports</title>
<polygon fill="none" stroke="black" points="64,-78 64,-130 4229,-130 4229,-78 64,-78"/>
</g>
<g id="clust4" class="cluster">
<title>cluster_NavigationModule_exports</title>
<polygon fill="none" stroke="black" points="16,-208 16,-260 4259,-260 4259,-208 16,-208"/>
</g>
<!-- AppNavButtonComponent -->
<g id="node1" class="node">
<title>AppNavButtonComponent</title>
<polygon fill="#8dd3c7" stroke="black" points="4221.38,-122 4218.38,-126 4197.38,-126 4194.38,-122 4054.62,-122 4054.62,-86 4221.38,-86 4221.38,-122"/>
<text text-anchor="middle" x="4138" y="-99.8" font-family="Times,serif" font-size="14.00">AppNavButtonComponent</text>
</g>
<!-- NavigationModule -->
<g id="node23" class="node">
<title>NavigationModule</title>
<polygon fill="#8dd3c7" stroke="black" points="2337.76,-187 2334.76,-191 2313.76,-191 2310.76,-187 2216.24,-187 2216.24,-151 2337.76,-151 2337.76,-187"/>
<text text-anchor="middle" x="2277" y="-164.8" font-family="Times,serif" font-size="14.00">NavigationModule</text>
</g>
<!-- AppNavButtonComponent&#45;&gt;NavigationModule -->
<g id="edge1" class="edge">
<title>AppNavButtonComponent&#45;&gt;NavigationModule</title>
<path fill="none" stroke="black" d="M4058.65,-122.11C4058.65,-141.34 4058.65,-169 4058.65,-169 4058.65,-169 2347.81,-169 2347.81,-169"/>
<polygon fill="black" stroke="black" points="2347.81,-165.5 2337.81,-169 2347.81,-172.5 2347.81,-165.5"/>
</g>
<!-- BreadcrumbsComponent -->
<g id="node2" class="node">
<title>BreadcrumbsComponent</title>
<polygon fill="#8dd3c7" stroke="black" points="4036.97,-122 4033.97,-126 4012.97,-126 4009.97,-122 3881.03,-122 3881.03,-86 4036.97,-86 4036.97,-122"/>
<text text-anchor="middle" x="3959" y="-99.8" font-family="Times,serif" font-size="14.00">BreadcrumbsComponent</text>
</g>
<!-- BreadcrumbsComponent&#45;&gt;NavigationModule -->
<g id="edge2" class="edge">
<title>BreadcrumbsComponent&#45;&gt;NavigationModule</title>
<path fill="none" stroke="black" d="M3894.08,-122.22C3894.08,-140.83 3894.08,-167 3894.08,-167 3894.08,-167 2347.93,-167 2347.93,-167"/>
<polygon fill="black" stroke="black" points="2347.93,-163.5 2337.93,-167 2347.93,-170.5 2347.93,-163.5"/>
</g>
<!-- ButtonSizeDirective -->
<g id="node3" class="node">
<title>ButtonSizeDirective</title>
<polygon fill="#8dd3c7" stroke="black" points="3863.3,-122 3860.3,-126 3839.3,-126 3836.3,-122 3732.7,-122 3732.7,-86 3863.3,-86 3863.3,-122"/>
<text text-anchor="middle" x="3798" y="-99.8" font-family="Times,serif" font-size="14.00">ButtonSizeDirective</text>
</g>
<!-- ButtonSizeDirective&#45;&gt;NavigationModule -->
<g id="edge3" class="edge">
<title>ButtonSizeDirective&#45;&gt;NavigationModule</title>
<path fill="none" stroke="black" d="M3741.97,-122.27C3741.97,-140.56 3741.97,-166 3741.97,-166 3741.97,-166 2348.08,-166 2348.08,-166"/>
<polygon fill="black" stroke="black" points="2348.08,-162.5 2338.08,-166 2348.08,-169.5 2348.08,-162.5"/>
</g>
<!-- ButtonToggleSizeDirective -->
<g id="node4" class="node">
<title>ButtonToggleSizeDirective</title>
<polygon fill="#8dd3c7" stroke="black" points="3714.96,-122 3711.96,-126 3690.96,-126 3687.96,-122 3545.04,-122 3545.04,-86 3714.96,-86 3714.96,-122"/>
<text text-anchor="middle" x="3630" y="-99.8" font-family="Times,serif" font-size="14.00">ButtonToggleSizeDirective</text>
</g>
<!-- ButtonToggleSizeDirective&#45;&gt;NavigationModule -->
<g id="edge4" class="edge">
<title>ButtonToggleSizeDirective&#45;&gt;NavigationModule</title>
<path fill="none" stroke="black" d="M3552.14,-122C3552.14,-139.68 3552.14,-164 3552.14,-164 3552.14,-164 2348.07,-164 2348.07,-164"/>
<polygon fill="black" stroke="black" points="2348.07,-160.5 2338.07,-164 2348.07,-167.5 2348.07,-160.5"/>
</g>
<!-- ButtonVariantDirective -->
<g id="node5" class="node">
<title>ButtonVariantDirective</title>
<polygon fill="#8dd3c7" stroke="black" points="3527.18,-122 3524.18,-126 3503.18,-126 3500.18,-122 3378.82,-122 3378.82,-86 3527.18,-86 3527.18,-122"/>
<text text-anchor="middle" x="3453" y="-99.8" font-family="Times,serif" font-size="14.00">ButtonVariantDirective</text>
</g>
<!-- ButtonVariantDirective&#45;&gt;NavigationModule -->
<g id="edge5" class="edge">
<title>ButtonVariantDirective&#45;&gt;NavigationModule</title>
<path fill="none" stroke="black" d="M3384.04,-122.03C3384.04,-139.06 3384.04,-162 3384.04,-162 3384.04,-162 2348.1,-162 2348.1,-162"/>
<polygon fill="black" stroke="black" points="2348.1,-158.5 2338.1,-162 2348.1,-165.5 2348.1,-158.5"/>
</g>
<!-- CheckboxErrorVariantDirective -->
<g id="node6" class="node">
<title>CheckboxErrorVariantDirective</title>
<polygon fill="#8dd3c7" stroke="black" points="3361.36,-122 3358.36,-126 3337.36,-126 3334.36,-122 3164.64,-122 3164.64,-86 3361.36,-86 3361.36,-122"/>
<text text-anchor="middle" x="3263" y="-99.8" font-family="Times,serif" font-size="14.00">CheckboxErrorVariantDirective</text>
</g>
<!-- CheckboxErrorVariantDirective&#45;&gt;NavigationModule -->
<g id="edge6" class="edge">
<title>CheckboxErrorVariantDirective&#45;&gt;NavigationModule</title>
<path fill="none" stroke="black" d="M3297.81,-122.04C3297.81,-138.73 3297.81,-161 3297.81,-161 3297.81,-161 2347.8,-161 2347.8,-161"/>
<polygon fill="black" stroke="black" points="2347.8,-157.5 2337.8,-161 2347.8,-164.5 2347.8,-157.5"/>
</g>
<!-- CtaButtonDirective -->
<g id="node7" class="node">
<title>CtaButtonDirective</title>
<polygon fill="#8dd3c7" stroke="black" points="3146.64,-122 3143.64,-126 3122.64,-126 3119.64,-122 3021.36,-122 3021.36,-86 3146.64,-86 3146.64,-122"/>
<text text-anchor="middle" x="3084" y="-99.8" font-family="Times,serif" font-size="14.00">CtaButtonDirective</text>
</g>
<!-- CtaButtonDirective&#45;&gt;NavigationModule -->
<g id="edge7" class="edge">
<title>CtaButtonDirective&#45;&gt;NavigationModule</title>
<path fill="none" stroke="black" d="M3105.69,-122.01C3105.69,-138.05 3105.69,-159 3105.69,-159 3105.69,-159 2347.94,-159 2347.94,-159"/>
<polygon fill="black" stroke="black" points="2347.94,-155.5 2337.94,-159 2347.94,-162.5 2347.94,-155.5"/>
</g>
<!-- HelpButtonComponent -->
<g id="node8" class="node">
<title>HelpButtonComponent</title>
<polygon fill="#8dd3c7" stroke="black" points="3003.16,-122 3000.16,-126 2979.16,-126 2976.16,-122 2856.84,-122 2856.84,-86 3003.16,-86 3003.16,-122"/>
<text text-anchor="middle" x="2930" y="-99.8" font-family="Times,serif" font-size="14.00">HelpButtonComponent</text>
</g>
<!-- HelpButtonComponent&#45;&gt;NavigationModule -->
<g id="edge8" class="edge">
<title>HelpButtonComponent&#45;&gt;NavigationModule</title>
<path fill="none" stroke="black" d="M2905.56,-122.28C2905.56,-137.95 2905.56,-158 2905.56,-158 2905.56,-158 2347.84,-158 2347.84,-158"/>
<polygon fill="black" stroke="black" points="2347.84,-154.5 2337.84,-158 2347.84,-161.5 2347.84,-154.5"/>
</g>
<!-- IconButtonModule -->
<g id="node9" class="node">
<title>IconButtonModule</title>
<polygon fill="#8dd3c7" stroke="black" points="2838.04,-122 2835.04,-126 2814.04,-126 2811.04,-122 2715.96,-122 2715.96,-86 2838.04,-86 2838.04,-122"/>
<text text-anchor="middle" x="2777" y="-99.8" font-family="Times,serif" font-size="14.00">IconButtonModule</text>
</g>
<!-- IconButtonModule&#45;&gt;NavigationModule -->
<g id="edge9" class="edge">
<title>IconButtonModule&#45;&gt;NavigationModule</title>
<path fill="none" stroke="black" d="M2756.16,-122.19C2756.16,-137.18 2756.16,-156 2756.16,-156 2756.16,-156 2348.17,-156 2348.17,-156"/>
<polygon fill="black" stroke="black" points="2348.17,-152.5 2338.17,-156 2348.17,-159.5 2348.17,-152.5"/>
</g>
<!-- InfoButtonActionsDirective -->
<g id="node10" class="node">
<title>InfoButtonActionsDirective</title>
<polygon fill="#8dd3c7" stroke="black" points="2697.57,-122 2694.57,-126 2673.57,-126 2670.57,-122 2524.43,-122 2524.43,-86 2697.57,-86 2697.57,-122"/>
<text text-anchor="middle" x="2611" y="-99.8" font-family="Times,serif" font-size="14.00">InfoButtonActionsDirective</text>
</g>
<!-- InfoButtonActionsDirective&#45;&gt;NavigationModule -->
<g id="edge10" class="edge">
<title>InfoButtonActionsDirective&#45;&gt;NavigationModule</title>
<path fill="none" stroke="black" d="M2608.88,-122.12C2608.88,-136.78 2608.88,-155 2608.88,-155 2608.88,-155 2347.87,-155 2347.87,-155"/>
<polygon fill="black" stroke="black" points="2347.87,-151.5 2337.87,-155 2347.87,-158.5 2347.87,-151.5"/>
</g>
<!-- InfoButtonComponent -->
<g id="node11" class="node">
<title>InfoButtonComponent</title>
<polygon fill="#8dd3c7" stroke="black" points="2506.27,-122 2503.27,-126 2482.27,-126 2479.27,-122 2363.73,-122 2363.73,-86 2506.27,-86 2506.27,-122"/>
<text text-anchor="middle" x="2435" y="-99.8" font-family="Times,serif" font-size="14.00">InfoButtonComponent</text>
</g>
<!-- InfoButtonComponent&#45;&gt;NavigationModule -->
<g id="edge11" class="edge">
<title>InfoButtonComponent&#45;&gt;NavigationModule</title>
<path fill="none" stroke="black" d="M2431.38,-122.25C2431.38,-136.18 2431.38,-153 2431.38,-153 2431.38,-153 2348.01,-153 2348.01,-153"/>
<polygon fill="black" stroke="black" points="2348.01,-149.5 2338.01,-153 2348.01,-156.5 2348.01,-149.5"/>
</g>
<!-- InfoButtonTaglineDirective -->
<g id="node12" class="node">
<title>InfoButtonTaglineDirective</title>
<polygon fill="#8dd3c7" stroke="black" points="2345.29,-122 2342.29,-126 2321.29,-126 2318.29,-122 2172.71,-122 2172.71,-86 2345.29,-86 2345.29,-122"/>
<text text-anchor="middle" x="2259" y="-99.8" font-family="Times,serif" font-size="14.00">InfoButtonTaglineDirective</text>
</g>
<!-- InfoButtonTaglineDirective&#45;&gt;NavigationModule -->
<g id="edge12" class="edge">
<title>InfoButtonTaglineDirective&#45;&gt;NavigationModule</title>
<path fill="none" stroke="black" d="M2277,-122.11C2277,-122.11 2277,-140.99 2277,-140.99"/>
<polygon fill="black" stroke="black" points="2273.5,-140.99 2277,-150.99 2280.5,-140.99 2273.5,-140.99"/>
</g>
<!-- NavigationButtonComponent -->
<g id="node13" class="node">
<title>NavigationButtonComponent</title>
<polygon fill="#8dd3c7" stroke="black" points="2154.66,-122 2151.66,-126 2130.66,-126 2127.66,-122 1973.34,-122 1973.34,-86 2154.66,-86 2154.66,-122"/>
<text text-anchor="middle" x="2064" y="-99.8" font-family="Times,serif" font-size="14.00">NavigationButtonComponent</text>
</g>
<!-- NavigationButtonComponent&#45;&gt;NavigationModule -->
<g id="edge13" class="edge">
<title>NavigationButtonComponent&#45;&gt;NavigationModule</title>
<path fill="none" stroke="black" d="M2148.2,-122.25C2148.2,-136.18 2148.2,-153 2148.2,-153 2148.2,-153 2206,-153 2206,-153"/>
<polygon fill="black" stroke="black" points="2206,-156.5 2216,-153 2206,-149.5 2206,-156.5"/>
</g>
<!-- NavigationButtonDescriptionDirective -->
<g id="node14" class="node">
<title>NavigationButtonDescriptionDirective</title>
<polygon fill="#8dd3c7" stroke="black" points="1954.72,-122 1951.72,-126 1930.72,-126 1927.72,-122 1721.28,-122 1721.28,-86 1954.72,-86 1954.72,-122"/>
<text text-anchor="middle" x="1838" y="-99.8" font-family="Times,serif" font-size="14.00">NavigationButtonDescriptionDirective</text>
</g>
<!-- NavigationButtonDescriptionDirective&#45;&gt;NavigationModule -->
<g id="edge14" class="edge">
<title>NavigationButtonDescriptionDirective&#45;&gt;NavigationModule</title>
<path fill="none" stroke="black" d="M1946.74,-122.12C1946.74,-136.78 1946.74,-155 1946.74,-155 1946.74,-155 2206.04,-155 2206.04,-155"/>
<polygon fill="black" stroke="black" points="2206.04,-158.5 2216.04,-155 2206.04,-151.5 2206.04,-158.5"/>
</g>
<!-- NavigationButtonTaglineDirective -->
<g id="node15" class="node">
<title>NavigationButtonTaglineDirective</title>
<polygon fill="#8dd3c7" stroke="black" points="1703.67,-122 1700.67,-126 1679.67,-126 1676.67,-122 1492.33,-122 1492.33,-86 1703.67,-86 1703.67,-122"/>
<text text-anchor="middle" x="1598" y="-99.8" font-family="Times,serif" font-size="14.00">NavigationButtonTaglineDirective</text>
</g>
<!-- NavigationButtonTaglineDirective&#45;&gt;NavigationModule -->
<g id="edge15" class="edge">
<title>NavigationButtonTaglineDirective&#45;&gt;NavigationModule</title>
<path fill="none" stroke="black" d="M1692.36,-122.24C1692.36,-137.57 1692.36,-157 1692.36,-157 1692.36,-157 2206.09,-157 2206.09,-157"/>
<polygon fill="black" stroke="black" points="2206.09,-160.5 2216.09,-157 2206.09,-153.5 2206.09,-160.5"/>
</g>
<!-- NavigationCategoryToggleComponent -->
<g id="node16" class="node">
<title>NavigationCategoryToggleComponent</title>
<polygon fill="#8dd3c7" stroke="black" points="1474.02,-122 1471.02,-126 1450.02,-126 1447.02,-122 1239.98,-122 1239.98,-86 1474.02,-86 1474.02,-122"/>
<text text-anchor="middle" x="1357" y="-99.8" font-family="Times,serif" font-size="14.00">NavigationCategoryToggleComponent</text>
</g>
<!-- NavigationCategoryToggleComponent&#45;&gt;NavigationModule -->
<g id="edge16" class="edge">
<title>NavigationCategoryToggleComponent&#45;&gt;NavigationModule</title>
<path fill="none" stroke="black" d="M1459.84,-122.28C1459.84,-137.95 1459.84,-158 1459.84,-158 1459.84,-158 2205.91,-158 2205.91,-158"/>
<polygon fill="black" stroke="black" points="2205.91,-161.5 2215.91,-158 2205.91,-154.5 2205.91,-161.5"/>
</g>
<!-- NavigationIconDirective -->
<g id="node17" class="node">
<title>NavigationIconDirective</title>
<polygon fill="#8dd3c7" stroke="black" points="1221.67,-122 1218.67,-126 1197.67,-126 1194.67,-122 1066.33,-122 1066.33,-86 1221.67,-86 1221.67,-122"/>
<text text-anchor="middle" x="1144" y="-99.8" font-family="Times,serif" font-size="14.00">NavigationIconDirective</text>
</g>
<!-- NavigationIconDirective&#45;&gt;NavigationModule -->
<g id="edge17" class="edge">
<title>NavigationIconDirective&#45;&gt;NavigationModule</title>
<path fill="none" stroke="black" d="M1217.29,-122.03C1217.29,-138.4 1217.29,-160 1217.29,-160 1217.29,-160 2206.22,-160 2206.22,-160"/>
<polygon fill="black" stroke="black" points="2206.22,-163.5 2216.22,-160 2206.22,-156.5 2206.22,-163.5"/>
</g>
<!-- PrimaryButtonVariantDirective -->
<g id="node18" class="node">
<title>PrimaryButtonVariantDirective</title>
<polygon fill="#8dd3c7" stroke="black" points="1048.78,-122 1045.78,-126 1024.78,-126 1021.78,-122 855.22,-122 855.22,-86 1048.78,-86 1048.78,-122"/>
<text text-anchor="middle" x="952" y="-99.8" font-family="Times,serif" font-size="14.00">PrimaryButtonVariantDirective</text>
</g>
<!-- PrimaryButtonVariantDirective&#45;&gt;NavigationModule -->
<g id="edge18" class="edge">
<title>PrimaryButtonVariantDirective&#45;&gt;NavigationModule</title>
<path fill="none" stroke="black" d="M1042.65,-122.03C1042.65,-139.06 1042.65,-162 1042.65,-162 1042.65,-162 2206.21,-162 2206.21,-162"/>
<polygon fill="black" stroke="black" points="2206.21,-165.5 2216.21,-162 2206.21,-158.5 2206.21,-165.5"/>
</g>
<!-- SecondaryButtonVariantDirective -->
<g id="node19" class="node">
<title>SecondaryButtonVariantDirective</title>
<polygon fill="#8dd3c7" stroke="black" points="837.77,-122 834.77,-126 813.77,-126 810.77,-122 630.23,-122 630.23,-86 837.77,-86 837.77,-122"/>
<text text-anchor="middle" x="734" y="-99.8" font-family="Times,serif" font-size="14.00">SecondaryButtonVariantDirective</text>
</g>
<!-- SecondaryButtonVariantDirective&#45;&gt;NavigationModule -->
<g id="edge19" class="edge">
<title>SecondaryButtonVariantDirective&#45;&gt;NavigationModule</title>
<path fill="none" stroke="black" d="M829.62,-122.02C829.62,-139.37 829.62,-163 829.62,-163 829.62,-163 2206.19,-163 2206.19,-163"/>
<polygon fill="black" stroke="black" points="2206.19,-166.5 2216.19,-163 2206.19,-159.5 2206.19,-166.5"/>
</g>
<!-- SocialMediaButtonComponent -->
<g id="node20" class="node">
<title>SocialMediaButtonComponent</title>
<polygon fill="#8dd3c7" stroke="black" points="612.21,-122 609.21,-126 588.21,-126 585.21,-122 421.79,-122 421.79,-86 612.21,-86 612.21,-122"/>
<text text-anchor="middle" x="517" y="-99.8" font-family="Times,serif" font-size="14.00">SocialMediaButtonComponent</text>
</g>
<!-- SocialMediaButtonComponent&#45;&gt;NavigationModule -->
<g id="edge20" class="edge">
<title>SocialMediaButtonComponent&#45;&gt;NavigationModule</title>
<path fill="none" stroke="black" d="M602.36,-122.3C602.36,-140.27 602.36,-165 602.36,-165 602.36,-165 2205.91,-165 2205.91,-165"/>
<polygon fill="black" stroke="black" points="2205.91,-168.5 2215.91,-165 2205.91,-161.5 2205.91,-168.5"/>
</g>
<!-- TextHyperlinkComponent -->
<g id="node21" class="node">
<title>TextHyperlinkComponent</title>
<polygon fill="#8dd3c7" stroke="black" points="403.75,-122 400.75,-126 379.75,-126 376.75,-122 240.25,-122 240.25,-86 403.75,-86 403.75,-122"/>
<text text-anchor="middle" x="322" y="-99.8" font-family="Times,serif" font-size="14.00">TextHyperlinkComponent</text>
</g>
<!-- TextHyperlinkComponent&#45;&gt;NavigationModule -->
<g id="edge21" class="edge">
<title>TextHyperlinkComponent&#45;&gt;NavigationModule</title>
<path fill="none" stroke="black" d="M392.51,-122.22C392.51,-140.83 392.51,-167 392.51,-167 392.51,-167 2206.17,-167 2206.17,-167"/>
<polygon fill="black" stroke="black" points="2206.17,-170.5 2216.17,-167 2206.17,-163.5 2206.17,-170.5"/>
</g>
<!-- TextHyperlinkDirective -->
<g id="node22" class="node">
<title>TextHyperlinkDirective</title>
<polygon fill="#8dd3c7" stroke="black" points="222,-122 219,-126 198,-126 195,-122 72,-122 72,-86 222,-86 222,-122"/>
<text text-anchor="middle" x="147" y="-99.8" font-family="Times,serif" font-size="14.00">TextHyperlinkDirective</text>
</g>
<!-- TextHyperlinkDirective&#45;&gt;NavigationModule -->
<g id="edge22" class="edge">
<title>TextHyperlinkDirective&#45;&gt;NavigationModule</title>
<path fill="none" stroke="black" d="M209.31,-122.11C209.31,-141.34 209.31,-169 209.31,-169 209.31,-169 2206.24,-169 2206.24,-169"/>
<polygon fill="black" stroke="black" points="2206.24,-172.5 2216.24,-169 2206.24,-165.5 2206.24,-172.5"/>
</g>
<!-- AppNavButtonComponent  -->
<g id="node24" class="node">
<title>AppNavButtonComponent </title>
<polygon fill="#fb8072" stroke="black" points="4251.38,-252 4080.62,-252 4080.62,-216 4251.38,-216 4251.38,-252"/>
<text text-anchor="middle" x="4166" y="-229.8" font-family="Times,serif" font-size="14.00">AppNavButtonComponent </text>
</g>
<!-- NavigationModule&#45;&gt;AppNavButtonComponent  -->
<g id="edge23" class="edge">
<title>NavigationModule&#45;&gt;AppNavButtonComponent </title>
<path fill="none" stroke="black" stroke-dasharray="5,2" d="M2337.76,-170C2659.65,-170 4151.12,-170 4151.12,-170 4151.12,-170 4151.12,-205.83 4151.12,-205.83"/>
<polygon fill="black" stroke="black" points="4147.63,-205.83 4151.12,-215.83 4154.63,-205.83 4147.63,-205.83"/>
</g>
<!-- BreadcrumbsComponent  -->
<g id="node25" class="node">
<title>BreadcrumbsComponent </title>
<polygon fill="#fb8072" stroke="black" points="4062.97,-252 3903.03,-252 3903.03,-216 4062.97,-216 4062.97,-252"/>
<text text-anchor="middle" x="3983" y="-229.8" font-family="Times,serif" font-size="14.00">BreadcrumbsComponent </text>
</g>
<!-- NavigationModule&#45;&gt;BreadcrumbsComponent  -->
<g id="edge24" class="edge">
<title>NavigationModule&#45;&gt;BreadcrumbsComponent </title>
<path fill="none" stroke="black" stroke-dasharray="5,2" d="M2337.76,-172C2640.34,-172 3970.12,-172 3970.12,-172 3970.12,-172 3970.12,-205.73 3970.12,-205.73"/>
<polygon fill="black" stroke="black" points="3966.63,-205.73 3970.12,-215.73 3973.63,-205.73 3966.63,-205.73"/>
</g>
<!-- ButtonSizeDirective  -->
<g id="node26" class="node">
<title>ButtonSizeDirective </title>
<polygon fill="#fb8072" stroke="black" points="3884.8,-252 3751.2,-252 3751.2,-216 3884.8,-216 3884.8,-252"/>
<text text-anchor="middle" x="3818" y="-229.8" font-family="Times,serif" font-size="14.00">ButtonSizeDirective </text>
</g>
<!-- NavigationModule&#45;&gt;ButtonSizeDirective  -->
<g id="edge25" class="edge">
<title>NavigationModule&#45;&gt;ButtonSizeDirective </title>
<path fill="none" stroke="black" stroke-dasharray="5,2" d="M2337.93,-173C2622.51,-173 3807.12,-173 3807.12,-173 3807.12,-173 3807.12,-205.7 3807.12,-205.7"/>
<polygon fill="black" stroke="black" points="3803.63,-205.7 3807.12,-215.7 3810.63,-205.7 3803.63,-205.7"/>
</g>
<!-- ButtonToggleSizeDirective  -->
<g id="node27" class="node">
<title>ButtonToggleSizeDirective </title>
<polygon fill="#fb8072" stroke="black" points="3732.96,-252 3559.04,-252 3559.04,-216 3732.96,-216 3732.96,-252"/>
<text text-anchor="middle" x="3646" y="-229.8" font-family="Times,serif" font-size="14.00">ButtonToggleSizeDirective </text>
</g>
<!-- NavigationModule&#45;&gt;ButtonToggleSizeDirective  -->
<g id="edge26" class="edge">
<title>NavigationModule&#45;&gt;ButtonToggleSizeDirective </title>
<path fill="none" stroke="black" stroke-dasharray="5,2" d="M2338.08,-175C2602.74,-175 3637.12,-175 3637.12,-175 3637.12,-175 3637.12,-205.98 3637.12,-205.98"/>
<polygon fill="black" stroke="black" points="3633.63,-205.98 3637.12,-215.98 3640.63,-205.98 3633.63,-205.98"/>
</g>
<!-- ButtonVariantDirective  -->
<g id="node28" class="node">
<title>ButtonVariantDirective </title>
<polygon fill="#fb8072" stroke="black" points="3540.68,-252 3389.32,-252 3389.32,-216 3540.68,-216 3540.68,-252"/>
<text text-anchor="middle" x="3465" y="-229.8" font-family="Times,serif" font-size="14.00">ButtonVariantDirective </text>
</g>
<!-- NavigationModule&#45;&gt;ButtonVariantDirective  -->
<g id="edge27" class="edge">
<title>NavigationModule&#45;&gt;ButtonVariantDirective </title>
<path fill="none" stroke="black" stroke-dasharray="5,2" d="M2338.02,-177C2579.88,-177 3458.12,-177 3458.12,-177 3458.12,-177 3458.12,-205.96 3458.12,-205.96"/>
<polygon fill="black" stroke="black" points="3454.63,-205.96 3458.12,-215.96 3461.63,-205.96 3454.63,-205.96"/>
</g>
<!-- CheckboxErrorVariantDirective  -->
<g id="node29" class="node">
<title>CheckboxErrorVariantDirective </title>
<polygon fill="#fb8072" stroke="black" points="3370.86,-252 3171.14,-252 3171.14,-216 3370.86,-216 3370.86,-252"/>
<text text-anchor="middle" x="3271" y="-229.8" font-family="Times,serif" font-size="14.00">CheckboxErrorVariantDirective </text>
</g>
<!-- NavigationModule&#45;&gt;CheckboxErrorVariantDirective  -->
<g id="edge28" class="edge">
<title>NavigationModule&#45;&gt;CheckboxErrorVariantDirective </title>
<path fill="none" stroke="black" stroke-dasharray="5,2" d="M2337.98,-178C2548.87,-178 3234.44,-178 3234.44,-178 3234.44,-178 3234.44,-205.97 3234.44,-205.97"/>
<polygon fill="black" stroke="black" points="3230.94,-205.97 3234.44,-215.97 3237.94,-205.97 3230.94,-205.97"/>
</g>
<!-- CtaButtonDirective  -->
<g id="node30" class="node">
<title>CtaButtonDirective </title>
<polygon fill="#fb8072" stroke="black" points="3152.64,-252 3023.36,-252 3023.36,-216 3152.64,-216 3152.64,-252"/>
<text text-anchor="middle" x="3088" y="-229.8" font-family="Times,serif" font-size="14.00">CtaButtonDirective </text>
</g>
<!-- NavigationModule&#45;&gt;CtaButtonDirective  -->
<g id="edge29" class="edge">
<title>NavigationModule&#45;&gt;CtaButtonDirective </title>
<path fill="none" stroke="black" stroke-dasharray="5,2" d="M2337.82,-180C2522.55,-180 3064.56,-180 3064.56,-180 3064.56,-180 3064.56,-205.72 3064.56,-205.72"/>
<polygon fill="black" stroke="black" points="3061.06,-205.72 3064.56,-215.72 3068.06,-205.72 3061.06,-205.72"/>
</g>
<!-- HelpButtonComponent  -->
<g id="node31" class="node">
<title>HelpButtonComponent </title>
<polygon fill="#fb8072" stroke="black" points="3005.16,-252 2854.84,-252 2854.84,-216 3005.16,-216 3005.16,-252"/>
<text text-anchor="middle" x="2930" y="-229.8" font-family="Times,serif" font-size="14.00">HelpButtonComponent </text>
</g>
<!-- NavigationModule&#45;&gt;HelpButtonComponent  -->
<g id="edge30" class="edge">
<title>NavigationModule&#45;&gt;HelpButtonComponent </title>
<path fill="none" stroke="black" stroke-dasharray="5,2" d="M2338.01,-181C2504.53,-181 2954.44,-181 2954.44,-181 2954.44,-181 2954.44,-205.76 2954.44,-205.76"/>
<polygon fill="black" stroke="black" points="2950.94,-205.76 2954.44,-215.76 2957.94,-205.76 2950.94,-205.76"/>
</g>
<!-- IconButtonModule  -->
<g id="node32" class="node">
<title>IconButtonModule </title>
<polygon fill="#fb8072" stroke="black" points="2837.04,-252 2710.96,-252 2710.96,-216 2837.04,-216 2837.04,-252"/>
<text text-anchor="middle" x="2774" y="-229.8" font-family="Times,serif" font-size="14.00">IconButtonModule </text>
</g>
<!-- NavigationModule&#45;&gt;IconButtonModule  -->
<g id="edge31" class="edge">
<title>NavigationModule&#45;&gt;IconButtonModule </title>
<path fill="none" stroke="black" stroke-dasharray="5,2" d="M2337.88,-183C2475.08,-183 2796.59,-183 2796.59,-183 2796.59,-183 2796.59,-205.88 2796.59,-205.88"/>
<polygon fill="black" stroke="black" points="2793.09,-205.88 2796.59,-215.88 2800.09,-205.88 2793.09,-205.88"/>
</g>
<!-- InfoButtonActionsDirective  -->
<g id="node33" class="node">
<title>InfoButtonActionsDirective </title>
<polygon fill="#fb8072" stroke="black" points="2693.07,-252 2516.93,-252 2516.93,-216 2693.07,-216 2693.07,-252"/>
<text text-anchor="middle" x="2605" y="-229.8" font-family="Times,serif" font-size="14.00">InfoButtonActionsDirective </text>
</g>
<!-- NavigationModule&#45;&gt;InfoButtonActionsDirective  -->
<g id="edge32" class="edge">
<title>NavigationModule&#45;&gt;InfoButtonActionsDirective </title>
<path fill="none" stroke="black" stroke-dasharray="5,2" d="M2337.84,-184C2409.99,-184 2520.59,-184 2520.59,-184 2520.59,-184 2520.59,-205.95 2520.59,-205.95"/>
<polygon fill="black" stroke="black" points="2517.09,-205.95 2520.59,-215.95 2524.09,-205.95 2517.09,-205.95"/>
</g>
<!-- InfoButtonComponent  -->
<g id="node34" class="node">
<title>InfoButtonComponent </title>
<polygon fill="#fb8072" stroke="black" points="2499.27,-252 2352.73,-252 2352.73,-216 2499.27,-216 2499.27,-252"/>
<text text-anchor="middle" x="2426" y="-229.8" font-family="Times,serif" font-size="14.00">InfoButtonComponent </text>
</g>
<!-- NavigationModule&#45;&gt;InfoButtonComponent  -->
<g id="edge33" class="edge">
<title>NavigationModule&#45;&gt;InfoButtonComponent </title>
<path fill="none" stroke="black" stroke-dasharray="5,2" d="M2338.16,-186C2349.7,-186 2358.24,-186 2358.24,-186 2358.24,-186 2358.24,-205.85 2358.24,-205.85"/>
<polygon fill="black" stroke="black" points="2354.74,-205.85 2358.24,-215.85 2361.74,-205.85 2354.74,-205.85"/>
</g>
<!-- InfoButtonTaglineDirective  -->
<g id="node35" class="node">
<title>InfoButtonTaglineDirective </title>
<polygon fill="#fb8072" stroke="black" points="2334.78,-252 2159.22,-252 2159.22,-216 2334.78,-216 2334.78,-252"/>
<text text-anchor="middle" x="2247" y="-229.8" font-family="Times,serif" font-size="14.00">InfoButtonTaglineDirective </text>
</g>
<!-- NavigationModule&#45;&gt;InfoButtonTaglineDirective  -->
<g id="edge34" class="edge">
<title>NavigationModule&#45;&gt;InfoButtonTaglineDirective </title>
<path fill="none" stroke="black" stroke-dasharray="5,2" d="M2275.51,-187.11C2275.51,-187.11 2275.51,-205.99 2275.51,-205.99"/>
<polygon fill="black" stroke="black" points="2272.01,-205.99 2275.51,-215.99 2279.01,-205.99 2272.01,-205.99"/>
</g>
<!-- NavigationButtonComponent  -->
<g id="node36" class="node">
<title>NavigationButtonComponent </title>
<polygon fill="#fb8072" stroke="black" points="2141.66,-252 1956.34,-252 1956.34,-216 2141.66,-216 2141.66,-252"/>
<text text-anchor="middle" x="2049" y="-229.8" font-family="Times,serif" font-size="14.00">NavigationButtonComponent </text>
</g>
<!-- NavigationModule&#45;&gt;NavigationButtonComponent  -->
<g id="edge35" class="edge">
<title>NavigationModule&#45;&gt;NavigationButtonComponent </title>
<path fill="none" stroke="black" stroke-dasharray="5,2" d="M2216.11,-186C2151.12,-186 2057.38,-186 2057.38,-186 2057.38,-186 2057.38,-205.85 2057.38,-205.85"/>
<polygon fill="black" stroke="black" points="2053.88,-205.85 2057.38,-215.85 2060.88,-205.85 2053.88,-205.85"/>
</g>
<!-- NavigationButtonDescriptionDirective  -->
<g id="node37" class="node">
<title>NavigationButtonDescriptionDirective </title>
<polygon fill="#fb8072" stroke="black" points="1938.72,-252 1701.28,-252 1701.28,-216 1938.72,-216 1938.72,-252"/>
<text text-anchor="middle" x="1820" y="-229.8" font-family="Times,serif" font-size="14.00">NavigationButtonDescriptionDirective </text>
</g>
<!-- NavigationModule&#45;&gt;NavigationButtonDescriptionDirective  -->
<g id="edge36" class="edge">
<title>NavigationModule&#45;&gt;NavigationButtonDescriptionDirective </title>
<path fill="none" stroke="black" stroke-dasharray="5,2" d="M2216.23,-184C2093.98,-184 1829.88,-184 1829.88,-184 1829.88,-184 1829.88,-205.95 1829.88,-205.95"/>
<polygon fill="black" stroke="black" points="1826.38,-205.95 1829.88,-215.95 1833.38,-205.95 1826.38,-205.95"/>
</g>
<!-- NavigationButtonTaglineDirective  -->
<g id="node38" class="node">
<title>NavigationButtonTaglineDirective </title>
<polygon fill="#fb8072" stroke="black" points="1683.17,-252 1468.83,-252 1468.83,-216 1683.17,-216 1683.17,-252"/>
<text text-anchor="middle" x="1576" y="-229.8" font-family="Times,serif" font-size="14.00">NavigationButtonTaglineDirective </text>
</g>
<!-- NavigationModule&#45;&gt;NavigationButtonTaglineDirective  -->
<g id="edge37" class="edge">
<title>NavigationModule&#45;&gt;NavigationButtonTaglineDirective </title>
<path fill="none" stroke="black" stroke-dasharray="5,2" d="M2216.15,-182C2047.74,-182 1587.88,-182 1587.88,-182 1587.88,-182 1587.88,-205.81 1587.88,-205.81"/>
<polygon fill="black" stroke="black" points="1584.38,-205.81 1587.88,-215.81 1591.38,-205.81 1584.38,-205.81"/>
</g>
<!-- NavigationCategoryToggleComponent  -->
<g id="node39" class="node">
<title>NavigationCategoryToggleComponent </title>
<polygon fill="#fb8072" stroke="black" points="1451.01,-252 1212.99,-252 1212.99,-216 1451.01,-216 1451.01,-252"/>
<text text-anchor="middle" x="1332" y="-229.8" font-family="Times,serif" font-size="14.00">NavigationCategoryToggleComponent </text>
</g>
<!-- NavigationModule&#45;&gt;NavigationCategoryToggleComponent  -->
<g id="edge38" class="edge">
<title>NavigationModule&#45;&gt;NavigationCategoryToggleComponent </title>
<path fill="none" stroke="black" stroke-dasharray="5,2" d="M2216.23,-181C2009.38,-181 1345.38,-181 1345.38,-181 1345.38,-181 1345.38,-205.76 1345.38,-205.76"/>
<polygon fill="black" stroke="black" points="1341.88,-205.76 1345.38,-215.76 1348.88,-205.76 1341.88,-205.76"/>
</g>
<!-- NavigationIconDirective  -->
<g id="node40" class="node">
<title>NavigationIconDirective </title>
<polygon fill="#fb8072" stroke="black" points="1195.17,-252 1036.83,-252 1036.83,-216 1195.17,-216 1195.17,-252"/>
<text text-anchor="middle" x="1116" y="-229.8" font-family="Times,serif" font-size="14.00">NavigationIconDirective </text>
</g>
<!-- NavigationModule&#45;&gt;NavigationIconDirective  -->
<g id="edge39" class="edge">
<title>NavigationModule&#45;&gt;NavigationIconDirective </title>
<path fill="none" stroke="black" stroke-dasharray="5,2" d="M2216.19,-179C1979.24,-179 1130.88,-179 1130.88,-179 1130.88,-179 1130.88,-205.99 1130.88,-205.99"/>
<polygon fill="black" stroke="black" points="1127.38,-205.99 1130.88,-215.99 1134.38,-205.99 1127.38,-205.99"/>
</g>
<!-- PrimaryButtonVariantDirective  -->
<g id="node41" class="node">
<title>PrimaryButtonVariantDirective </title>
<polygon fill="#fb8072" stroke="black" points="1018.28,-252 821.72,-252 821.72,-216 1018.28,-216 1018.28,-252"/>
<text text-anchor="middle" x="920" y="-229.8" font-family="Times,serif" font-size="14.00">PrimaryButtonVariantDirective </text>
</g>
<!-- NavigationModule&#45;&gt;PrimaryButtonVariantDirective  -->
<g id="edge40" class="edge">
<title>NavigationModule&#45;&gt;PrimaryButtonVariantDirective </title>
<path fill="none" stroke="black" stroke-dasharray="5,2" d="M2215.94,-177C1953.77,-177 936.88,-177 936.88,-177 936.88,-177 936.88,-205.96 936.88,-205.96"/>
<polygon fill="black" stroke="black" points="933.38,-205.96 936.88,-215.96 940.38,-205.96 933.38,-205.96"/>
</g>
<!-- SecondaryButtonVariantDirective  -->
<g id="node42" class="node">
<title>SecondaryButtonVariantDirective </title>
<polygon fill="#fb8072" stroke="black" points="803.27,-252 592.73,-252 592.73,-216 803.27,-216 803.27,-252"/>
<text text-anchor="middle" x="698" y="-229.8" font-family="Times,serif" font-size="14.00">SecondaryButtonVariantDirective </text>
</g>
<!-- NavigationModule&#45;&gt;SecondaryButtonVariantDirective  -->
<g id="edge41" class="edge">
<title>NavigationModule&#45;&gt;SecondaryButtonVariantDirective </title>
<path fill="none" stroke="black" stroke-dasharray="5,2" d="M2215.84,-175C1927.4,-175 716.88,-175 716.88,-175 716.88,-175 716.88,-205.98 716.88,-205.98"/>
<polygon fill="black" stroke="black" points="713.38,-205.98 716.88,-215.98 720.38,-205.98 713.38,-205.98"/>
</g>
<!-- SocialMediaButtonComponent  -->
<g id="node43" class="node">
<title>SocialMediaButtonComponent </title>
<polygon fill="#fb8072" stroke="black" points="574.71,-252 381.29,-252 381.29,-216 574.71,-216 574.71,-252"/>
<text text-anchor="middle" x="478" y="-229.8" font-family="Times,serif" font-size="14.00">SocialMediaButtonComponent </text>
</g>
<!-- NavigationModule&#45;&gt;SocialMediaButtonComponent  -->
<g id="edge42" class="edge">
<title>NavigationModule&#45;&gt;SocialMediaButtonComponent </title>
<path fill="none" stroke="black" stroke-dasharray="5,2" d="M2216.03,-174C1903.79,-174 498.38,-174 498.38,-174 498.38,-174 498.38,-206 498.38,-206"/>
<polygon fill="black" stroke="black" points="494.88,-206 498.38,-216 501.88,-206 494.88,-206"/>
</g>
<!-- TextHyperlinkComponent  -->
<g id="node44" class="node">
<title>TextHyperlinkComponent </title>
<polygon fill="#fb8072" stroke="black" points="363.75,-252 196.25,-252 196.25,-216 363.75,-216 363.75,-252"/>
<text text-anchor="middle" x="280" y="-229.8" font-family="Times,serif" font-size="14.00">TextHyperlinkComponent </text>
</g>
<!-- NavigationModule&#45;&gt;TextHyperlinkComponent  -->
<g id="edge43" class="edge">
<title>NavigationModule&#45;&gt;TextHyperlinkComponent </title>
<path fill="none" stroke="black" stroke-dasharray="5,2" d="M2216,-172C1883.21,-172 301.88,-172 301.88,-172 301.88,-172 301.88,-205.73 301.88,-205.73"/>
<polygon fill="black" stroke="black" points="298.38,-205.73 301.88,-215.73 305.38,-205.73 298.38,-205.73"/>
</g>
<!-- TextHyperlinkDirective  -->
<g id="node45" class="node">
<title>TextHyperlinkDirective </title>
<polygon fill="#fb8072" stroke="black" points="178,-252 24,-252 24,-216 178,-216 178,-252"/>
<text text-anchor="middle" x="101" y="-229.8" font-family="Times,serif" font-size="14.00">TextHyperlinkDirective </text>
</g>
<!-- NavigationModule&#45;&gt;TextHyperlinkDirective  -->
<g id="edge44" class="edge">
<title>NavigationModule&#45;&gt;TextHyperlinkDirective </title>
<path fill="none" stroke="black" stroke-dasharray="5,2" d="M2216.06,-170C1865.83,-170 124.88,-170 124.88,-170 124.88,-170 124.88,-205.83 124.88,-205.83"/>
<polygon fill="black" stroke="black" points="121.38,-205.83 124.88,-215.83 128.38,-205.83 121.38,-205.83"/>
</g>
</g>
</svg>
