<?xml version="1.0" encoding="UTF-8" standalone="no"?>
<!DOCTYPE svg PUBLIC "-//W3C//DTD SVG 1.1//EN"
 "http://www.w3.org/Graphics/SVG/1.1/DTD/svg11.dtd">
<!-- Generated by graphviz version 2.47.0 (20210316.0004)
 -->
<!-- Title: dependencies Pages: 1 -->
<svg width="4437pt" height="284pt"
 viewBox="0.00 0.00 4437.00 284.00" xmlns="http://www.w3.org/2000/svg" xmlns:xlink="http://www.w3.org/1999/xlink">
<g id="graph0" class="graph" transform="scale(1 1) rotate(0) translate(4 280)">
<title>dependencies</title>
<polygon fill="white" stroke="transparent" points="-4,4 -4,-280 4433,-280 4433,4 -4,4"/>
<text text-anchor="start" x="2193.51" y="-42.4" font-family="Times-12" font-weight="bold" font-size="14.00">Legend</text>
<polygon fill="#ffffb3" stroke="transparent" points="1980.5,-10 1980.5,-30 2000.5,-30 2000.5,-10 1980.5,-10"/>
<text text-anchor="start" x="2004.13" y="-15.4" font-family="Times-12" font-size="14.00"> &#160;Declarations</text>
<polygon fill="#8dd3c7" stroke="transparent" points="2093.5,-10 2093.5,-30 2113.5,-30 2113.5,-10 2093.5,-10"/>
<text text-anchor="start" x="2117.23" y="-15.4" font-family="Times-12" font-size="14.00"> &#160;Module</text>
<polygon fill="#80b1d3" stroke="transparent" points="2179.5,-10 2179.5,-30 2199.5,-30 2199.5,-10 2179.5,-10"/>
<text text-anchor="start" x="2203.28" y="-15.4" font-family="Times-12" font-size="14.00"> &#160;Bootstrap</text>
<polygon fill="#fdb462" stroke="transparent" points="2276.5,-10 2276.5,-30 2296.5,-30 2296.5,-10 2276.5,-10"/>
<text text-anchor="start" x="2300.17" y="-15.4" font-family="Times-12" font-size="14.00"> &#160;Providers</text>
<polygon fill="#fb8072" stroke="transparent" points="2372.5,-10 2372.5,-30 2392.5,-30 2392.5,-10 2372.5,-10"/>
<text text-anchor="start" x="2396.23" y="-15.4" font-family="Times-12" font-size="14.00"> &#160;Exports</text>
<g id="clust1" class="cluster">
<title>cluster_NavigationModule</title>
<polygon fill="none" stroke="black" stroke-dasharray="1,5" points="8,-70 8,-268 4421,-268 4421,-70 8,-70"/>
</g>
<g id="clust3" class="cluster">
<title>cluster_NavigationModule_imports</title>
<polygon fill="none" stroke="black" points="56,-78 56,-130 4371,-130 4371,-78 56,-78"/>
</g>
<g id="clust4" class="cluster">
<title>cluster_NavigationModule_exports</title>
<polygon fill="none" stroke="black" points="16,-208 16,-260 4413,-260 4413,-208 16,-208"/>
</g>
<!-- AppNavButtonComponent -->
<g id="node1" class="node">
<title>AppNavButtonComponent</title>
<polygon fill="#8dd3c7" stroke="black" points="4363.38,-122 4360.38,-126 4339.38,-126 4336.38,-122 4196.62,-122 4196.62,-86 4363.38,-86 4363.38,-122"/>
<text text-anchor="middle" x="4280" y="-99.8" font-family="Times,serif" font-size="14.00">AppNavButtonComponent</text>
</g>
<!-- NavigationModule -->
<g id="node24" class="node">
<title>NavigationModule</title>
<polygon fill="#8dd3c7" stroke="black" points="2461.76,-187 2458.76,-191 2437.76,-191 2434.76,-187 2340.24,-187 2340.24,-151 2461.76,-151 2461.76,-187"/>
<text text-anchor="middle" x="2401" y="-164.8" font-family="Times,serif" font-size="14.00">NavigationModule</text>
</g>
<!-- AppNavButtonComponent&#45;&gt;NavigationModule -->
<g id="edge1" class="edge">
<title>AppNavButtonComponent&#45;&gt;NavigationModule</title>
<path fill="none" stroke="black" d="M4206.65,-122.11C4206.65,-141.34 4206.65,-169 4206.65,-169 4206.65,-169 2471.85,-169 2471.85,-169"/>
<polygon fill="black" stroke="black" points="2471.85,-165.5 2461.85,-169 2471.85,-172.5 2471.85,-165.5"/>
</g>
<!-- BreadcrumbsComponent -->
<g id="node2" class="node">
<title>BreadcrumbsComponent</title>
<polygon fill="#8dd3c7" stroke="black" points="4178.97,-122 4175.97,-126 4154.97,-126 4151.97,-122 4023.03,-122 4023.03,-86 4178.97,-86 4178.97,-122"/>
<text text-anchor="middle" x="4101" y="-99.8" font-family="Times,serif" font-size="14.00">BreadcrumbsComponent</text>
</g>
<!-- BreadcrumbsComponent&#45;&gt;NavigationModule -->
<g id="edge2" class="edge">
<title>BreadcrumbsComponent&#45;&gt;NavigationModule</title>
<path fill="none" stroke="black" d="M4030.96,-122.22C4030.96,-140.83 4030.96,-167 4030.96,-167 4030.96,-167 2471.92,-167 2471.92,-167"/>
<polygon fill="black" stroke="black" points="2471.92,-163.5 2461.92,-167 2471.92,-170.5 2471.92,-163.5"/>
</g>
<!-- ButtonSizeDirective -->
<g id="node3" class="node">
<title>ButtonSizeDirective</title>
<polygon fill="#8dd3c7" stroke="black" points="4005.3,-122 4002.3,-126 3981.3,-126 3978.3,-122 3874.7,-122 3874.7,-86 4005.3,-86 4005.3,-122"/>
<text text-anchor="middle" x="3940" y="-99.8" font-family="Times,serif" font-size="14.00">ButtonSizeDirective</text>
</g>
<!-- ButtonSizeDirective&#45;&gt;NavigationModule -->
<g id="edge3" class="edge">
<title>ButtonSizeDirective&#45;&gt;NavigationModule</title>
<path fill="none" stroke="black" d="M3880.79,-122.27C3880.79,-140.56 3880.79,-166 3880.79,-166 3880.79,-166 2471.77,-166 2471.77,-166"/>
<polygon fill="black" stroke="black" points="2471.77,-162.5 2461.77,-166 2471.77,-169.5 2471.77,-162.5"/>
</g>
<!-- ButtonToggleSizeDirective -->
<g id="node4" class="node">
<title>ButtonToggleSizeDirective</title>
<polygon fill="#8dd3c7" stroke="black" points="3856.96,-122 3853.96,-126 3832.96,-126 3829.96,-122 3687.04,-122 3687.04,-86 3856.96,-86 3856.96,-122"/>
<text text-anchor="middle" x="3772" y="-99.8" font-family="Times,serif" font-size="14.00">ButtonToggleSizeDirective</text>
</g>
<!-- ButtonToggleSizeDirective&#45;&gt;NavigationModule -->
<g id="edge4" class="edge">
<title>ButtonToggleSizeDirective&#45;&gt;NavigationModule</title>
<path fill="none" stroke="black" d="M3690.93,-122C3690.93,-139.68 3690.93,-164 3690.93,-164 3690.93,-164 2471.92,-164 2471.92,-164"/>
<polygon fill="black" stroke="black" points="2471.92,-160.5 2461.92,-164 2471.92,-167.5 2471.92,-160.5"/>
</g>
<!-- ButtonVariantDirective -->
<g id="node5" class="node">
<title>ButtonVariantDirective</title>
<polygon fill="#8dd3c7" stroke="black" points="3669.18,-122 3666.18,-126 3645.18,-126 3642.18,-122 3520.82,-122 3520.82,-86 3669.18,-86 3669.18,-122"/>
<text text-anchor="middle" x="3595" y="-99.8" font-family="Times,serif" font-size="14.00">ButtonVariantDirective</text>
</g>
<!-- ButtonVariantDirective&#45;&gt;NavigationModule -->
<g id="edge5" class="edge">
<title>ButtonVariantDirective&#45;&gt;NavigationModule</title>
<path fill="none" stroke="black" d="M3534.05,-122.03C3534.05,-139.06 3534.05,-162 3534.05,-162 3534.05,-162 2471.92,-162 2471.92,-162"/>
<polygon fill="black" stroke="black" points="2471.92,-158.5 2461.92,-162 2471.92,-165.5 2471.92,-158.5"/>
</g>
<!-- CheckboxErrorVariantDirective -->
<g id="node6" class="node">
<title>CheckboxErrorVariantDirective</title>
<polygon fill="#8dd3c7" stroke="black" points="3503.36,-122 3500.36,-126 3479.36,-126 3476.36,-122 3306.64,-122 3306.64,-86 3503.36,-86 3503.36,-122"/>
<text text-anchor="middle" x="3405" y="-99.8" font-family="Times,serif" font-size="14.00">CheckboxErrorVariantDirective</text>
</g>
<!-- CheckboxErrorVariantDirective&#45;&gt;NavigationModule -->
<g id="edge6" class="edge">
<title>CheckboxErrorVariantDirective&#45;&gt;NavigationModule</title>
<path fill="none" stroke="black" d="M3315.94,-122.04C3315.94,-138.73 3315.94,-161 3315.94,-161 3315.94,-161 2472.1,-161 2472.1,-161"/>
<polygon fill="black" stroke="black" points="2472.1,-157.5 2462.1,-161 2472.1,-164.5 2472.1,-157.5"/>
</g>
<!-- CtaButtonDirective -->
<g id="node7" class="node">
<title>CtaButtonDirective</title>
<polygon fill="#8dd3c7" stroke="black" points="3288.64,-122 3285.64,-126 3264.64,-126 3261.64,-122 3163.36,-122 3163.36,-86 3288.64,-86 3288.64,-122"/>
<text text-anchor="middle" x="3226" y="-99.8" font-family="Times,serif" font-size="14.00">CtaButtonDirective</text>
</g>
<!-- CtaButtonDirective&#45;&gt;NavigationModule -->
<g id="edge7" class="edge">
<title>CtaButtonDirective&#45;&gt;NavigationModule</title>
<path fill="none" stroke="black" d="M3170.3,-122.01C3170.3,-138.05 3170.3,-159 3170.3,-159 3170.3,-159 2472.01,-159 2472.01,-159"/>
<polygon fill="black" stroke="black" points="2472.01,-155.5 2462.01,-159 2472.01,-162.5 2472.01,-155.5"/>
</g>
<!-- HelpButtonComponent -->
<g id="node8" class="node">
<title>HelpButtonComponent</title>
<polygon fill="#8dd3c7" stroke="black" points="3145.16,-122 3142.16,-126 3121.16,-126 3118.16,-122 2998.84,-122 2998.84,-86 3145.16,-86 3145.16,-122"/>
<text text-anchor="middle" x="3072" y="-99.8" font-family="Times,serif" font-size="14.00">HelpButtonComponent</text>
</g>
<!-- HelpButtonComponent&#45;&gt;NavigationModule -->
<g id="edge8" class="edge">
<title>HelpButtonComponent&#45;&gt;NavigationModule</title>
<path fill="none" stroke="black" d="M3003.79,-122.28C3003.79,-137.95 3003.79,-158 3003.79,-158 3003.79,-158 2471.84,-158 2471.84,-158"/>
<polygon fill="black" stroke="black" points="2471.84,-154.5 2461.84,-158 2471.84,-161.5 2471.84,-154.5"/>
</g>
<!-- IconButtonModule -->
<g id="node9" class="node">
<title>IconButtonModule</title>
<polygon fill="#8dd3c7" stroke="black" points="2980.04,-122 2977.04,-126 2956.04,-126 2953.04,-122 2857.96,-122 2857.96,-86 2980.04,-86 2980.04,-122"/>
<text text-anchor="middle" x="2919" y="-99.8" font-family="Times,serif" font-size="14.00">IconButtonModule</text>
</g>
<!-- IconButtonModule&#45;&gt;NavigationModule -->
<g id="edge9" class="edge">
<title>IconButtonModule&#45;&gt;NavigationModule</title>
<path fill="none" stroke="black" d="M2861.35,-122.19C2861.35,-137.18 2861.35,-156 2861.35,-156 2861.35,-156 2472.13,-156 2472.13,-156"/>
<polygon fill="black" stroke="black" points="2472.13,-152.5 2462.13,-156 2472.13,-159.5 2472.13,-152.5"/>
</g>
<!-- InfoButtonActionsDirective -->
<g id="node10" class="node">
<title>InfoButtonActionsDirective</title>
<polygon fill="#8dd3c7" stroke="black" points="2839.57,-122 2836.57,-126 2815.57,-126 2812.57,-122 2666.43,-122 2666.43,-86 2839.57,-86 2839.57,-122"/>
<text text-anchor="middle" x="2753" y="-99.8" font-family="Times,serif" font-size="14.00">InfoButtonActionsDirective</text>
</g>
<!-- InfoButtonActionsDirective&#45;&gt;NavigationModule -->
<g id="edge10" class="edge">
<title>InfoButtonActionsDirective&#45;&gt;NavigationModule</title>
<path fill="none" stroke="black" d="M2783.26,-122.12C2783.26,-136.78 2783.26,-155 2783.26,-155 2783.26,-155 2471.99,-155 2471.99,-155"/>
<polygon fill="black" stroke="black" points="2471.99,-151.5 2461.99,-155 2471.99,-158.5 2471.99,-151.5"/>
</g>
<!-- InfoButtonComponent -->
<g id="node11" class="node">
<title>InfoButtonComponent</title>
<polygon fill="#8dd3c7" stroke="black" points="2648.27,-122 2645.27,-126 2624.27,-126 2621.27,-122 2505.73,-122 2505.73,-86 2648.27,-86 2648.27,-122"/>
<text text-anchor="middle" x="2577" y="-99.8" font-family="Times,serif" font-size="14.00">InfoButtonComponent</text>
</g>
<!-- InfoButtonComponent&#45;&gt;NavigationModule -->
<g id="edge11" class="edge">
<title>InfoButtonComponent&#45;&gt;NavigationModule</title>
<path fill="none" stroke="black" d="M2601.21,-122.25C2601.21,-136.18 2601.21,-153 2601.21,-153 2601.21,-153 2471.89,-153 2471.89,-153"/>
<polygon fill="black" stroke="black" points="2471.89,-149.5 2461.89,-153 2471.89,-156.5 2471.89,-149.5"/>
</g>
<!-- InfoButtonTaglineDirective -->
<g id="node12" class="node">
<title>InfoButtonTaglineDirective</title>
<polygon fill="#8dd3c7" stroke="black" points="2487.29,-122 2484.29,-126 2463.29,-126 2460.29,-122 2314.71,-122 2314.71,-86 2487.29,-86 2487.29,-122"/>
<text text-anchor="middle" x="2401" y="-99.8" font-family="Times,serif" font-size="14.00">InfoButtonTaglineDirective</text>
</g>
<!-- InfoButtonTaglineDirective&#45;&gt;NavigationModule -->
<g id="edge12" class="edge">
<title>InfoButtonTaglineDirective&#45;&gt;NavigationModule</title>
<path fill="none" stroke="black" d="M2401,-122.11C2401,-122.11 2401,-140.99 2401,-140.99"/>
<polygon fill="black" stroke="black" points="2397.5,-140.99 2401,-150.99 2404.5,-140.99 2397.5,-140.99"/>
</g>
<!-- NavigationButtonComponent -->
<g id="node13" class="node">
<title>NavigationButtonComponent</title>
<polygon fill="#8dd3c7" stroke="black" points="2296.66,-122 2293.66,-126 2272.66,-126 2269.66,-122 2115.34,-122 2115.34,-86 2296.66,-86 2296.66,-122"/>
<text text-anchor="middle" x="2206" y="-99.8" font-family="Times,serif" font-size="14.00">NavigationButtonComponent</text>
</g>
<!-- NavigationButtonComponent&#45;&gt;NavigationModule -->
<g id="edge13" class="edge">
<title>NavigationButtonComponent&#45;&gt;NavigationModule</title>
<path fill="none" stroke="black" d="M2235.44,-122.25C2235.44,-136.18 2235.44,-153 2235.44,-153 2235.44,-153 2329.82,-153 2329.82,-153"/>
<polygon fill="black" stroke="black" points="2329.82,-156.5 2339.82,-153 2329.82,-149.5 2329.82,-156.5"/>
</g>
<!-- NavigationButtonDescriptionDirective -->
<g id="node14" class="node">
<title>NavigationButtonDescriptionDirective</title>
<polygon fill="#8dd3c7" stroke="black" points="2096.72,-122 2093.72,-126 2072.72,-126 2069.72,-122 1863.28,-122 1863.28,-86 2096.72,-86 2096.72,-122"/>
<text text-anchor="middle" x="1980" y="-99.8" font-family="Times,serif" font-size="14.00">NavigationButtonDescriptionDirective</text>
</g>
<!-- NavigationButtonDescriptionDirective&#45;&gt;NavigationModule -->
<g id="edge14" class="edge">
<title>NavigationButtonDescriptionDirective&#45;&gt;NavigationModule</title>
<path fill="none" stroke="black" d="M2016.12,-122.12C2016.12,-136.78 2016.12,-155 2016.12,-155 2016.12,-155 2330.01,-155 2330.01,-155"/>
<polygon fill="black" stroke="black" points="2330.01,-158.5 2340.01,-155 2330.01,-151.5 2330.01,-158.5"/>
</g>
<!-- NavigationButtonTaglineDirective -->
<g id="node15" class="node">
<title>NavigationButtonTaglineDirective</title>
<polygon fill="#8dd3c7" stroke="black" points="1845.67,-122 1842.67,-126 1821.67,-126 1818.67,-122 1634.33,-122 1634.33,-86 1845.67,-86 1845.67,-122"/>
<text text-anchor="middle" x="1740" y="-99.8" font-family="Times,serif" font-size="14.00">NavigationButtonTaglineDirective</text>
</g>
<!-- NavigationButtonTaglineDirective&#45;&gt;NavigationModule -->
<g id="edge15" class="edge">
<title>NavigationButtonTaglineDirective&#45;&gt;NavigationModule</title>
<path fill="none" stroke="black" d="M1841.46,-122.19C1841.46,-137.18 1841.46,-156 1841.46,-156 1841.46,-156 2330.05,-156 2330.05,-156"/>
<polygon fill="black" stroke="black" points="2330.05,-159.5 2340.05,-156 2330.05,-152.5 2330.05,-159.5"/>
</g>
<!-- NavigationCategoryToggleComponent -->
<g id="node16" class="node">
<title>NavigationCategoryToggleComponent</title>
<polygon fill="#8dd3c7" stroke="black" points="1616.02,-122 1613.02,-126 1592.02,-126 1589.02,-122 1381.98,-122 1381.98,-86 1616.02,-86 1616.02,-122"/>
<text text-anchor="middle" x="1499" y="-99.8" font-family="Times,serif" font-size="14.00">NavigationCategoryToggleComponent</text>
</g>
<!-- NavigationCategoryToggleComponent&#45;&gt;NavigationModule -->
<g id="edge16" class="edge">
<title>NavigationCategoryToggleComponent&#45;&gt;NavigationModule</title>
<path fill="none" stroke="black" d="M1610.63,-122.28C1610.63,-137.95 1610.63,-158 1610.63,-158 1610.63,-158 2329.97,-158 2329.97,-158"/>
<polygon fill="black" stroke="black" points="2329.97,-161.5 2339.97,-158 2329.97,-154.5 2329.97,-161.5"/>
</g>
<!-- NavigationIconDirective -->
<g id="node17" class="node">
<title>NavigationIconDirective</title>
<polygon fill="#8dd3c7" stroke="black" points="1363.67,-122 1360.67,-126 1339.67,-126 1336.67,-122 1208.33,-122 1208.33,-86 1363.67,-86 1363.67,-122"/>
<text text-anchor="middle" x="1286" y="-99.8" font-family="Times,serif" font-size="14.00">NavigationIconDirective</text>
</g>
<!-- NavigationIconDirective&#45;&gt;NavigationModule -->
<g id="edge17" class="edge">
<title>NavigationIconDirective&#45;&gt;NavigationModule</title>
<path fill="none" stroke="black" d="M1356.46,-122.01C1356.46,-138.05 1356.46,-159 1356.46,-159 1356.46,-159 2329.94,-159 2329.94,-159"/>
<polygon fill="black" stroke="black" points="2329.94,-162.5 2339.94,-159 2329.94,-155.5 2329.94,-162.5"/>
</g>
<!-- PrimaryButtonVariantDirective -->
<g id="node18" class="node">
<title>PrimaryButtonVariantDirective</title>
<polygon fill="#8dd3c7" stroke="black" points="1190.78,-122 1187.78,-126 1166.78,-126 1163.78,-122 997.22,-122 997.22,-86 1190.78,-86 1190.78,-122"/>
<text text-anchor="middle" x="1094" y="-99.8" font-family="Times,serif" font-size="14.00">PrimaryButtonVariantDirective</text>
</g>
<!-- PrimaryButtonVariantDirective&#45;&gt;NavigationModule -->
<g id="edge18" class="edge">
<title>PrimaryButtonVariantDirective&#45;&gt;NavigationModule</title>
<path fill="none" stroke="black" d="M1181.51,-122.04C1181.51,-138.73 1181.51,-161 1181.51,-161 1181.51,-161 2330.11,-161 2330.11,-161"/>
<polygon fill="black" stroke="black" points="2330.11,-164.5 2340.11,-161 2330.11,-157.5 2330.11,-164.5"/>
</g>
<!-- SecondaryButtonVariantDirective -->
<g id="node19" class="node">
<title>SecondaryButtonVariantDirective</title>
<polygon fill="#8dd3c7" stroke="black" points="979.77,-122 976.77,-126 955.77,-126 952.77,-122 772.23,-122 772.23,-86 979.77,-86 979.77,-122"/>
<text text-anchor="middle" x="876" y="-99.8" font-family="Times,serif" font-size="14.00">SecondaryButtonVariantDirective</text>
</g>
<!-- SecondaryButtonVariantDirective&#45;&gt;NavigationModule -->
<g id="edge19" class="edge">
<title>SecondaryButtonVariantDirective&#45;&gt;NavigationModule</title>
<path fill="none" stroke="black" d="M966.5,-122.03C966.5,-139.06 966.5,-162 966.5,-162 966.5,-162 2329.82,-162 2329.82,-162"/>
<polygon fill="black" stroke="black" points="2329.82,-165.5 2339.82,-162 2329.82,-158.5 2329.82,-165.5"/>
</g>
<!-- SocialMediaButtonComponent -->
<g id="node20" class="node">
<title>SocialMediaButtonComponent</title>
<polygon fill="#8dd3c7" stroke="black" points="754.21,-122 751.21,-126 730.21,-126 727.21,-122 563.79,-122 563.79,-86 754.21,-86 754.21,-122"/>
<text text-anchor="middle" x="659" y="-99.8" font-family="Times,serif" font-size="14.00">SocialMediaButtonComponent</text>
</g>
<!-- SocialMediaButtonComponent&#45;&gt;NavigationModule -->
<g id="edge20" class="edge">
<title>SocialMediaButtonComponent&#45;&gt;NavigationModule</title>
<path fill="none" stroke="black" d="M750.36,-122C750.36,-139.68 750.36,-164 750.36,-164 750.36,-164 2329.8,-164 2329.8,-164"/>
<polygon fill="black" stroke="black" points="2329.8,-167.5 2339.8,-164 2329.8,-160.5 2329.8,-167.5"/>
</g>
<!-- TextButtonDirective -->
<g id="node21" class="node">
<title>TextButtonDirective</title>
<polygon fill="#8dd3c7" stroke="black" points="545.86,-122 542.86,-126 521.86,-126 518.86,-122 414.14,-122 414.14,-86 545.86,-86 545.86,-122"/>
<text text-anchor="middle" x="480" y="-99.8" font-family="Times,serif" font-size="14.00">TextButtonDirective</text>
</g>
<!-- TextButtonDirective&#45;&gt;NavigationModule -->
<g id="edge21" class="edge">
<title>TextButtonDirective&#45;&gt;NavigationModule</title>
<path fill="none" stroke="black" d="M540.54,-122.27C540.54,-140.56 540.54,-166 540.54,-166 540.54,-166 2330.16,-166 2330.16,-166"/>
<polygon fill="black" stroke="black" points="2330.16,-169.5 2340.16,-166 2330.16,-162.5 2330.16,-169.5"/>
</g>
<!-- TextHyperlinkComponent -->
<g id="node22" class="node">
<title>TextHyperlinkComponent</title>
<polygon fill="#8dd3c7" stroke="black" points="395.75,-122 392.75,-126 371.75,-126 368.75,-122 232.25,-122 232.25,-86 395.75,-86 395.75,-122"/>
<text text-anchor="middle" x="314" y="-99.8" font-family="Times,serif" font-size="14.00">TextHyperlinkComponent</text>
</g>
<!-- TextHyperlinkComponent&#45;&gt;NavigationModule -->
<g id="edge22" class="edge">
<title>TextHyperlinkComponent&#45;&gt;NavigationModule</title>
<path fill="none" stroke="black" d="M388.6,-122.22C388.6,-140.83 388.6,-167 388.6,-167 388.6,-167 2330.22,-167 2330.22,-167"/>
<polygon fill="black" stroke="black" points="2330.22,-170.5 2340.22,-167 2330.22,-163.5 2330.22,-170.5"/>
</g>
<!-- TextHyperlinkDirective -->
<g id="node23" class="node">
<title>TextHyperlinkDirective</title>
<polygon fill="#8dd3c7" stroke="black" points="214,-122 211,-126 190,-126 187,-122 64,-122 64,-86 214,-86 214,-122"/>
<text text-anchor="middle" x="139" y="-99.8" font-family="Times,serif" font-size="14.00">TextHyperlinkDirective</text>
</g>
<!-- TextHyperlinkDirective&#45;&gt;NavigationModule -->
<g id="edge23" class="edge">
<title>TextHyperlinkDirective&#45;&gt;NavigationModule</title>
<path fill="none" stroke="black" d="M205.31,-122.11C205.31,-141.34 205.31,-169 205.31,-169 205.31,-169 2329.98,-169 2329.98,-169"/>
<polygon fill="black" stroke="black" points="2329.98,-172.5 2339.98,-169 2329.98,-165.5 2329.98,-172.5"/>
</g>
<!-- AppNavButtonComponent  -->
<g id="node25" class="node">
<title>AppNavButtonComponent </title>
<polygon fill="#fb8072" stroke="black" points="4405.38,-252 4234.62,-252 4234.62,-216 4405.38,-216 4405.38,-252"/>
<text text-anchor="middle" x="4320" y="-229.8" font-family="Times,serif" font-size="14.00">AppNavButtonComponent </text>
</g>
<!-- NavigationModule&#45;&gt;AppNavButtonComponent  -->
<g id="edge24" class="edge">
<title>NavigationModule&#45;&gt;AppNavButtonComponent </title>
<path fill="none" stroke="black" stroke-dasharray="5,2" d="M2462,-170C2786.9,-170 4299.12,-170 4299.12,-170 4299.12,-170 4299.12,-205.83 4299.12,-205.83"/>
<polygon fill="black" stroke="black" points="4295.63,-205.83 4299.12,-215.83 4302.63,-205.83 4295.63,-205.83"/>
</g>
<!-- BreadcrumbsComponent  -->
<g id="node26" class="node">
<title>BreadcrumbsComponent </title>
<polygon fill="#fb8072" stroke="black" points="4216.97,-252 4057.03,-252 4057.03,-216 4216.97,-216 4216.97,-252"/>
<text text-anchor="middle" x="4137" y="-229.8" font-family="Times,serif" font-size="14.00">BreadcrumbsComponent </text>
</g>
<!-- NavigationModule&#45;&gt;BreadcrumbsComponent  -->
<g id="edge25" class="edge">
<title>NavigationModule&#45;&gt;BreadcrumbsComponent </title>
<path fill="none" stroke="black" stroke-dasharray="5,2" d="M2461.86,-172C2767.26,-172 4118.12,-172 4118.12,-172 4118.12,-172 4118.12,-205.73 4118.12,-205.73"/>
<polygon fill="black" stroke="black" points="4114.63,-205.73 4118.12,-215.73 4121.63,-205.73 4114.63,-205.73"/>
</g>
<!-- ButtonSizeDirective  -->
<g id="node27" class="node">
<title>ButtonSizeDirective </title>
<polygon fill="#fb8072" stroke="black" points="4038.8,-252 3905.2,-252 3905.2,-216 4038.8,-216 4038.8,-252"/>
<text text-anchor="middle" x="3972" y="-229.8" font-family="Times,serif" font-size="14.00">ButtonSizeDirective </text>
</g>
<!-- NavigationModule&#45;&gt;ButtonSizeDirective  -->
<g id="edge26" class="edge">
<title>NavigationModule&#45;&gt;ButtonSizeDirective </title>
<path fill="none" stroke="black" stroke-dasharray="5,2" d="M2461.92,-173C2749.26,-173 3955.12,-173 3955.12,-173 3955.12,-173 3955.12,-205.7 3955.12,-205.7"/>
<polygon fill="black" stroke="black" points="3951.63,-205.7 3955.12,-215.7 3958.63,-205.7 3951.63,-205.7"/>
</g>
<!-- ButtonToggleSizeDirective  -->
<g id="node28" class="node">
<title>ButtonToggleSizeDirective </title>
<polygon fill="#fb8072" stroke="black" points="3886.96,-252 3713.04,-252 3713.04,-216 3886.96,-216 3886.96,-252"/>
<text text-anchor="middle" x="3800" y="-229.8" font-family="Times,serif" font-size="14.00">ButtonToggleSizeDirective </text>
</g>
<!-- NavigationModule&#45;&gt;ButtonToggleSizeDirective  -->
<g id="edge27" class="edge">
<title>NavigationModule&#45;&gt;ButtonToggleSizeDirective </title>
<path fill="none" stroke="black" stroke-dasharray="5,2" d="M2461.81,-175C2728.95,-175 3785.12,-175 3785.12,-175 3785.12,-175 3785.12,-205.98 3785.12,-205.98"/>
<polygon fill="black" stroke="black" points="3781.63,-205.98 3785.12,-215.98 3788.63,-205.98 3781.63,-205.98"/>
</g>
<!-- ButtonVariantDirective  -->
<g id="node29" class="node">
<title>ButtonVariantDirective </title>
<polygon fill="#fb8072" stroke="black" points="3694.68,-252 3543.32,-252 3543.32,-216 3694.68,-216 3694.68,-252"/>
<text text-anchor="middle" x="3619" y="-229.8" font-family="Times,serif" font-size="14.00">ButtonVariantDirective </text>
</g>
<!-- NavigationModule&#45;&gt;ButtonVariantDirective  -->
<g id="edge28" class="edge">
<title>NavigationModule&#45;&gt;ButtonVariantDirective </title>
<path fill="none" stroke="black" stroke-dasharray="5,2" d="M2462,-177C2706.98,-177 3606.12,-177 3606.12,-177 3606.12,-177 3606.12,-205.96 3606.12,-205.96"/>
<polygon fill="black" stroke="black" points="3602.63,-205.96 3606.12,-215.96 3609.63,-205.96 3602.63,-205.96"/>
</g>
<!-- CheckboxErrorVariantDirective  -->
<g id="node30" class="node">
<title>CheckboxErrorVariantDirective </title>
<polygon fill="#fb8072" stroke="black" points="3524.86,-252 3325.14,-252 3325.14,-216 3524.86,-216 3524.86,-252"/>
<text text-anchor="middle" x="3425" y="-229.8" font-family="Times,serif" font-size="14.00">CheckboxErrorVariantDirective </text>
</g>
<!-- NavigationModule&#45;&gt;CheckboxErrorVariantDirective  -->
<g id="edge29" class="edge">
<title>NavigationModule&#45;&gt;CheckboxErrorVariantDirective </title>
<path fill="none" stroke="black" stroke-dasharray="5,2" d="M2462.09,-178C2681.13,-178 3414.12,-178 3414.12,-178 3414.12,-178 3414.12,-205.97 3414.12,-205.97"/>
<polygon fill="black" stroke="black" points="3410.63,-205.97 3414.12,-215.97 3417.63,-205.97 3410.63,-205.97"/>
</g>
<!-- CtaButtonDirective  -->
<g id="node31" class="node">
<title>CtaButtonDirective </title>
<polygon fill="#fb8072" stroke="black" points="3306.64,-252 3177.36,-252 3177.36,-216 3306.64,-216 3306.64,-252"/>
<text text-anchor="middle" x="3242" y="-229.8" font-family="Times,serif" font-size="14.00">CtaButtonDirective </text>
</g>
<!-- NavigationModule&#45;&gt;CtaButtonDirective  -->
<g id="edge30" class="edge">
<title>NavigationModule&#45;&gt;CtaButtonDirective </title>
<path fill="none" stroke="black" stroke-dasharray="5,2" d="M2461.85,-180C2653.68,-180 3233.12,-180 3233.12,-180 3233.12,-180 3233.12,-205.72 3233.12,-205.72"/>
<polygon fill="black" stroke="black" points="3229.63,-205.72 3233.12,-215.72 3236.63,-205.72 3229.63,-205.72"/>
</g>
<!-- HelpButtonComponent  -->
<g id="node32" class="node">
<title>HelpButtonComponent </title>
<polygon fill="#fb8072" stroke="black" points="3159.16,-252 3008.84,-252 3008.84,-216 3159.16,-216 3159.16,-252"/>
<text text-anchor="middle" x="3084" y="-229.8" font-family="Times,serif" font-size="14.00">HelpButtonComponent </text>
</g>
<!-- NavigationModule&#45;&gt;HelpButtonComponent  -->
<g id="edge31" class="edge">
<title>NavigationModule&#45;&gt;HelpButtonComponent </title>
<path fill="none" stroke="black" stroke-dasharray="5,2" d="M2461.9,-181C2628.09,-181 3077.12,-181 3077.12,-181 3077.12,-181 3077.12,-205.76 3077.12,-205.76"/>
<polygon fill="black" stroke="black" points="3073.63,-205.76 3077.12,-215.76 3080.63,-205.76 3073.63,-205.76"/>
</g>
<!-- IconButtonModule  -->
<g id="node33" class="node">
<title>IconButtonModule </title>
<polygon fill="#fb8072" stroke="black" points="2991.04,-252 2864.96,-252 2864.96,-216 2991.04,-216 2991.04,-252"/>
<text text-anchor="middle" x="2928" y="-229.8" font-family="Times,serif" font-size="14.00">IconButtonModule </text>
</g>
<!-- NavigationModule&#45;&gt;IconButtonModule  -->
<g id="edge32" class="edge">
<title>NavigationModule&#45;&gt;IconButtonModule </title>
<path fill="none" stroke="black" stroke-dasharray="5,2" d="M2461.86,-183C2599.46,-183 2922.62,-183 2922.62,-183 2922.62,-183 2922.62,-205.88 2922.62,-205.88"/>
<polygon fill="black" stroke="black" points="2919.13,-205.88 2922.62,-215.88 2926.13,-205.88 2919.13,-205.88"/>
</g>
<!-- InfoButtonActionsDirective  -->
<g id="node34" class="node">
<title>InfoButtonActionsDirective </title>
<polygon fill="#fb8072" stroke="black" points="2847.07,-252 2670.93,-252 2670.93,-216 2847.07,-216 2847.07,-252"/>
<text text-anchor="middle" x="2759" y="-229.8" font-family="Times,serif" font-size="14.00">InfoButtonActionsDirective </text>
</g>
<!-- NavigationModule&#45;&gt;InfoButtonActionsDirective  -->
<g id="edge33" class="edge">
<title>NavigationModule&#45;&gt;InfoButtonActionsDirective </title>
<path fill="none" stroke="black" stroke-dasharray="5,2" d="M2461.93,-184C2556.29,-184 2726.99,-184 2726.99,-184 2726.99,-184 2726.99,-205.95 2726.99,-205.95"/>
<polygon fill="black" stroke="black" points="2723.49,-205.95 2726.99,-215.95 2730.49,-205.95 2723.49,-205.95"/>
</g>
<!-- InfoButtonComponent  -->
<g id="node35" class="node">
<title>InfoButtonComponent </title>
<polygon fill="#fb8072" stroke="black" points="2653.27,-252 2506.73,-252 2506.73,-216 2653.27,-216 2653.27,-252"/>
<text text-anchor="middle" x="2580" y="-229.8" font-family="Times,serif" font-size="14.00">InfoButtonComponent </text>
</g>
<!-- NavigationModule&#45;&gt;InfoButtonComponent  -->
<g id="edge34" class="edge">
<title>NavigationModule&#45;&gt;InfoButtonComponent </title>
<path fill="none" stroke="black" stroke-dasharray="5,2" d="M2461.92,-186C2504.6,-186 2554.04,-186 2554.04,-186 2554.04,-186 2554.04,-205.85 2554.04,-205.85"/>
<polygon fill="black" stroke="black" points="2550.54,-205.85 2554.04,-215.85 2557.54,-205.85 2550.54,-205.85"/>
</g>
<!-- InfoButtonTaglineDirective  -->
<g id="node36" class="node">
<title>InfoButtonTaglineDirective </title>
<polygon fill="#fb8072" stroke="black" points="2488.78,-252 2313.22,-252 2313.22,-216 2488.78,-216 2488.78,-252"/>
<text text-anchor="middle" x="2401" y="-229.8" font-family="Times,serif" font-size="14.00">InfoButtonTaglineDirective </text>
</g>
<!-- NavigationModule&#45;&gt;InfoButtonTaglineDirective  -->
<g id="edge35" class="edge">
<title>NavigationModule&#45;&gt;InfoButtonTaglineDirective </title>
<path fill="none" stroke="black" stroke-dasharray="5,2" d="M2401,-187.11C2401,-187.11 2401,-205.99 2401,-205.99"/>
<polygon fill="black" stroke="black" points="2397.5,-205.99 2401,-215.99 2404.5,-205.99 2397.5,-205.99"/>
</g>
<!-- NavigationButtonComponent  -->
<g id="node37" class="node">
<title>NavigationButtonComponent </title>
<polygon fill="#fb8072" stroke="black" points="2295.66,-252 2110.34,-252 2110.34,-216 2295.66,-216 2295.66,-252"/>
<text text-anchor="middle" x="2203" y="-229.8" font-family="Times,serif" font-size="14.00">NavigationButtonComponent </text>
</g>
<!-- NavigationModule&#45;&gt;NavigationButtonComponent  -->
<g id="edge36" class="edge">
<title>NavigationModule&#45;&gt;NavigationButtonComponent </title>
<path fill="none" stroke="black" stroke-dasharray="5,2" d="M2340.22,-186C2273.37,-186 2175.31,-186 2175.31,-186 2175.31,-186 2175.31,-205.85 2175.31,-205.85"/>
<polygon fill="black" stroke="black" points="2171.81,-205.85 2175.31,-215.85 2178.81,-205.85 2171.81,-205.85"/>
</g>
<!-- NavigationButtonDescriptionDirective  -->
<g id="node38" class="node">
<title>NavigationButtonDescriptionDirective </title>
<polygon fill="#fb8072" stroke="black" points="2092.72,-252 1855.28,-252 1855.28,-216 2092.72,-216 2092.72,-252"/>
<text text-anchor="middle" x="1974" y="-229.8" font-family="Times,serif" font-size="14.00">NavigationButtonDescriptionDirective </text>
</g>
<!-- NavigationModule&#45;&gt;NavigationButtonDescriptionDirective  -->
<g id="edge37" class="edge">
<title>NavigationModule&#45;&gt;NavigationButtonDescriptionDirective </title>
<path fill="none" stroke="black" stroke-dasharray="5,2" d="M2340.21,-184C2214.93,-184 1939.63,-184 1939.63,-184 1939.63,-184 1939.63,-205.95 1939.63,-205.95"/>
<polygon fill="black" stroke="black" points="1936.13,-205.95 1939.63,-215.95 1943.13,-205.95 1936.13,-205.95"/>
</g>
<!-- NavigationButtonTaglineDirective  -->
<g id="node39" class="node">
<title>NavigationButtonTaglineDirective </title>
<polygon fill="#fb8072" stroke="black" points="1837.17,-252 1622.83,-252 1622.83,-216 1837.17,-216 1837.17,-252"/>
<text text-anchor="middle" x="1730" y="-229.8" font-family="Times,serif" font-size="14.00">NavigationButtonTaglineDirective </text>
</g>
<!-- NavigationModule&#45;&gt;NavigationButtonTaglineDirective  -->
<g id="edge38" class="edge">
<title>NavigationModule&#45;&gt;NavigationButtonTaglineDirective </title>
<path fill="none" stroke="black" stroke-dasharray="5,2" d="M2340.21,-183C2176.02,-183 1735.88,-183 1735.88,-183 1735.88,-183 1735.88,-205.88 1735.88,-205.88"/>
<polygon fill="black" stroke="black" points="1732.38,-205.88 1735.88,-215.88 1739.38,-205.88 1732.38,-205.88"/>
</g>
<!-- NavigationCategoryToggleComponent  -->
<g id="node40" class="node">
<title>NavigationCategoryToggleComponent </title>
<polygon fill="#fb8072" stroke="black" points="1605.01,-252 1366.99,-252 1366.99,-216 1605.01,-216 1605.01,-252"/>
<text text-anchor="middle" x="1486" y="-229.8" font-family="Times,serif" font-size="14.00">NavigationCategoryToggleComponent </text>
</g>
<!-- NavigationModule&#45;&gt;NavigationCategoryToggleComponent  -->
<g id="edge39" class="edge">
<title>NavigationModule&#45;&gt;NavigationCategoryToggleComponent </title>
<path fill="none" stroke="black" stroke-dasharray="5,2" d="M2340.04,-181C2136.54,-181 1493.38,-181 1493.38,-181 1493.38,-181 1493.38,-205.76 1493.38,-205.76"/>
<polygon fill="black" stroke="black" points="1489.88,-205.76 1493.38,-215.76 1496.88,-205.76 1489.88,-205.76"/>
</g>
<!-- NavigationIconDirective  -->
<g id="node41" class="node">
<title>NavigationIconDirective </title>
<polygon fill="#fb8072" stroke="black" points="1349.17,-252 1190.83,-252 1190.83,-216 1349.17,-216 1349.17,-252"/>
<text text-anchor="middle" x="1270" y="-229.8" font-family="Times,serif" font-size="14.00">NavigationIconDirective </text>
</g>
<!-- NavigationModule&#45;&gt;NavigationIconDirective  -->
<g id="edge40" class="edge">
<title>NavigationModule&#45;&gt;NavigationIconDirective </title>
<path fill="none" stroke="black" stroke-dasharray="5,2" d="M2339.87,-180C2105.71,-180 1278.88,-180 1278.88,-180 1278.88,-180 1278.88,-205.72 1278.88,-205.72"/>
<polygon fill="black" stroke="black" points="1275.38,-205.72 1278.88,-215.72 1282.38,-205.72 1275.38,-205.72"/>
</g>
<!-- PrimaryButtonVariantDirective  -->
<g id="node42" class="node">
<title>PrimaryButtonVariantDirective </title>
<polygon fill="#fb8072" stroke="black" points="1172.28,-252 975.72,-252 975.72,-216 1172.28,-216 1172.28,-252"/>
<text text-anchor="middle" x="1074" y="-229.8" font-family="Times,serif" font-size="14.00">PrimaryButtonVariantDirective </text>
</g>
<!-- NavigationModule&#45;&gt;PrimaryButtonVariantDirective  -->
<g id="edge41" class="edge">
<title>NavigationModule&#45;&gt;PrimaryButtonVariantDirective </title>
<path fill="none" stroke="black" stroke-dasharray="5,2" d="M2340.16,-178C2081.32,-178 1084.88,-178 1084.88,-178 1084.88,-178 1084.88,-205.97 1084.88,-205.97"/>
<polygon fill="black" stroke="black" points="1081.38,-205.97 1084.88,-215.97 1088.38,-205.97 1081.38,-205.97"/>
</g>
<!-- SecondaryButtonVariantDirective  -->
<g id="node43" class="node">
<title>SecondaryButtonVariantDirective </title>
<polygon fill="#fb8072" stroke="black" points="957.27,-252 746.73,-252 746.73,-216 957.27,-216 957.27,-252"/>
<text text-anchor="middle" x="852" y="-229.8" font-family="Times,serif" font-size="14.00">SecondaryButtonVariantDirective </text>
</g>
<!-- NavigationModule&#45;&gt;SecondaryButtonVariantDirective  -->
<g id="edge42" class="edge">
<title>NavigationModule&#45;&gt;SecondaryButtonVariantDirective </title>
<path fill="none" stroke="black" stroke-dasharray="5,2" d="M2339.83,-177C2054.13,-177 864.88,-177 864.88,-177 864.88,-177 864.88,-205.96 864.88,-205.96"/>
<polygon fill="black" stroke="black" points="861.38,-205.96 864.88,-215.96 868.38,-205.96 861.38,-205.96"/>
</g>
<!-- SocialMediaButtonComponent  -->
<g id="node44" class="node">
<title>SocialMediaButtonComponent </title>
<polygon fill="#fb8072" stroke="black" points="728.71,-252 535.29,-252 535.29,-216 728.71,-216 728.71,-252"/>
<text text-anchor="middle" x="632" y="-229.8" font-family="Times,serif" font-size="14.00">SocialMediaButtonComponent </text>
</g>
<!-- NavigationModule&#45;&gt;SocialMediaButtonComponent  -->
<g id="edge43" class="edge">
<title>NavigationModule&#45;&gt;SocialMediaButtonComponent </title>
<path fill="none" stroke="black" stroke-dasharray="5,2" d="M2340.09,-175C2030.55,-175 646.38,-175 646.38,-175 646.38,-175 646.38,-205.98 646.38,-205.98"/>
<polygon fill="black" stroke="black" points="642.88,-205.98 646.38,-215.98 649.88,-205.98 642.88,-205.98"/>
</g>
<!-- TextButtonDirective  -->
<g id="node45" class="node">
<title>TextButtonDirective </title>
<polygon fill="#fb8072" stroke="black" points="516.86,-252 381.14,-252 381.14,-216 516.86,-216 516.86,-252"/>
<text text-anchor="middle" x="449" y="-229.8" font-family="Times,serif" font-size="14.00">TextButtonDirective </text>
</g>
<!-- NavigationModule&#45;&gt;TextButtonDirective  -->
<g id="edge44" class="edge">
<title>NavigationModule&#45;&gt;TextButtonDirective </title>
<path fill="none" stroke="black" stroke-dasharray="5,2" d="M2340.14,-173C2011.7,-173 465.38,-173 465.38,-173 465.38,-173 465.38,-205.7 465.38,-205.7"/>
<polygon fill="black" stroke="black" points="461.88,-205.7 465.38,-215.7 468.88,-205.7 461.88,-205.7"/>
</g>
<!-- TextHyperlinkComponent  -->
<g id="node46" class="node">
<title>TextHyperlinkComponent </title>
<polygon fill="#fb8072" stroke="black" points="363.75,-252 196.25,-252 196.25,-216 363.75,-216 363.75,-252"/>
<text text-anchor="middle" x="280" y="-229.8" font-family="Times,serif" font-size="14.00">TextHyperlinkComponent </text>
</g>
<!-- NavigationModule&#45;&gt;TextHyperlinkComponent  -->
<g id="edge45" class="edge">
<title>NavigationModule&#45;&gt;TextHyperlinkComponent </title>
<path fill="none" stroke="black" stroke-dasharray="5,2" d="M2340.04,-172C1994.57,-172 297.88,-172 297.88,-172 297.88,-172 297.88,-205.73 297.88,-205.73"/>
<polygon fill="black" stroke="black" points="294.38,-205.73 297.88,-215.73 301.38,-205.73 294.38,-205.73"/>
</g>
<!-- TextHyperlinkDirective  -->
<g id="node47" class="node">
<title>TextHyperlinkDirective </title>
<polygon fill="#fb8072" stroke="black" points="178,-252 24,-252 24,-216 178,-216 178,-252"/>
<text text-anchor="middle" x="101" y="-229.8" font-family="Times,serif" font-size="14.00">TextHyperlinkDirective </text>
</g>
<!-- NavigationModule&#45;&gt;TextHyperlinkDirective  -->
<g id="edge46" class="edge">
<title>NavigationModule&#45;&gt;TextHyperlinkDirective </title>
<path fill="none" stroke="black" stroke-dasharray="5,2" d="M2340.01,-170C1977.41,-170 120.88,-170 120.88,-170 120.88,-170 120.88,-205.83 120.88,-205.83"/>
<polygon fill="black" stroke="black" points="117.38,-205.83 120.88,-215.83 124.38,-205.83 117.38,-205.83"/>
</g>
</g>
</svg>
