<?xml version="1.0" encoding="UTF-8" standalone="no"?>
<!DOCTYPE svg PUBLIC "-//W3C//DTD SVG 1.1//EN"
 "http://www.w3.org/Graphics/SVG/1.1/DTD/svg11.dtd">
<!-- Generated by graphviz version 2.47.0 (20210316.0004)
 -->
<!-- Title: dependencies Pages: 1 -->
<svg width="724pt" height="284pt"
 viewBox="0.00 0.00 724.00 284.00" xmlns="http://www.w3.org/2000/svg" xmlns:xlink="http://www.w3.org/1999/xlink">
<g id="graph0" class="graph" transform="scale(1 1) rotate(0) translate(4 280)">
<title>dependencies</title>
<polygon fill="white" stroke="transparent" points="-4,4 -4,-280 720,-280 720,4 -4,4"/>
<text text-anchor="start" x="337.01" y="-42.4" font-family="Times-12" font-weight="bold" font-size="14.00">Legend</text>
<polygon fill="#ffffb3" stroke="transparent" points="124,-10 124,-30 144,-30 144,-10 124,-10"/>
<text text-anchor="start" x="147.63" y="-15.4" font-family="Times-12" font-size="14.00"> &#160;Declarations</text>
<polygon fill="#8dd3c7" stroke="transparent" points="237,-10 237,-30 257,-30 257,-10 237,-10"/>
<text text-anchor="start" x="260.73" y="-15.4" font-family="Times-12" font-size="14.00"> &#160;Module</text>
<polygon fill="#80b1d3" stroke="transparent" points="323,-10 323,-30 343,-30 343,-10 323,-10"/>
<text text-anchor="start" x="346.78" y="-15.4" font-family="Times-12" font-size="14.00"> &#160;Bootstrap</text>
<polygon fill="#fdb462" stroke="transparent" points="420,-10 420,-30 440,-30 440,-10 420,-10"/>
<text text-anchor="start" x="443.67" y="-15.4" font-family="Times-12" font-size="14.00"> &#160;Providers</text>
<polygon fill="#fb8072" stroke="transparent" points="516,-10 516,-30 536,-30 536,-10 516,-10"/>
<text text-anchor="start" x="539.73" y="-15.4" font-family="Times-12" font-size="14.00"> &#160;Exports</text>
<g id="clust1" class="cluster">
<title>cluster_SpatialSearchConfigBehaviorModule</title>
<polygon fill="none" stroke="black" stroke-dasharray="1,5" points="8,-70 8,-268 708,-268 708,-70 8,-70"/>
</g>
<g id="clust2" class="cluster">
<title>cluster_SpatialSearchConfigBehaviorModule_declarations</title>
<polygon fill="none" stroke="black" points="436,-78 436,-130 700,-130 700,-78 436,-78"/>
</g>
<g id="clust4" class="cluster">
<title>cluster_SpatialSearchConfigBehaviorModule_imports</title>
<polygon fill="none" stroke="black" points="16,-78 16,-130 428,-130 428,-78 16,-78"/>
</g>
<g id="clust5" class="cluster">
<title>cluster_SpatialSearchConfigBehaviorModule_exports</title>
<polygon fill="none" stroke="black" points="198,-208 198,-260 466,-260 466,-208 198,-208"/>
</g>
<!-- SpatialSearchConfigBehaviorComponent -->
<g id="node1" class="node">
<title>SpatialSearchConfigBehaviorComponent</title>
<polygon fill="#ffffb3" stroke="black" points="692.01,-122 443.99,-122 443.99,-86 692.01,-86 692.01,-122"/>
<text text-anchor="middle" x="568" y="-99.8" font-family="Times,serif" font-size="14.00">SpatialSearchConfigBehaviorComponent</text>
</g>
<!-- SpatialSearchConfigBehaviorModule -->
<g id="node2" class="node">
<title>SpatialSearchConfigBehaviorModule</title>
<polygon fill="#8dd3c7" stroke="black" points="445.23,-187 442.23,-191 421.23,-191 418.23,-187 218.77,-187 218.77,-151 445.23,-151 445.23,-187"/>
<text text-anchor="middle" x="332" y="-164.8" font-family="Times,serif" font-size="14.00">SpatialSearchConfigBehaviorModule</text>
</g>
<!-- SpatialSearchConfigBehaviorComponent&#45;&gt;SpatialSearchConfigBehaviorModule -->
<g id="edge1" class="edge">
<title>SpatialSearchConfigBehaviorComponent&#45;&gt;SpatialSearchConfigBehaviorModule</title>
<path fill="none" stroke="black" d="M451.68,-122.11C451.68,-141.34 451.68,-169 451.68,-169 451.68,-169 451.04,-169 451.04,-169"/>
<polygon fill="black" stroke="black" points="455.25,-165.5 445.25,-169 455.25,-172.5 455.25,-165.5"/>
</g>
<!-- SpatialSearchConfigBehaviorComponent  -->
<g id="node5" class="node">
<title>SpatialSearchConfigBehaviorComponent </title>
<polygon fill="#fb8072" stroke="black" points="458.01,-252 205.99,-252 205.99,-216 458.01,-216 458.01,-252"/>
<text text-anchor="middle" x="332" y="-229.8" font-family="Times,serif" font-size="14.00">SpatialSearchConfigBehaviorComponent </text>
</g>
<!-- SpatialSearchConfigBehaviorModule&#45;&gt;SpatialSearchConfigBehaviorComponent  -->
<g id="edge4" class="edge">
<title>SpatialSearchConfigBehaviorModule&#45;&gt;SpatialSearchConfigBehaviorComponent </title>
<path fill="none" stroke="black" stroke-dasharray="5,2" d="M332,-187.11C332,-187.11 332,-205.99 332,-205.99"/>
<polygon fill="black" stroke="black" points="328.5,-205.99 332,-215.99 335.5,-205.99 328.5,-205.99"/>
</g>
<!-- SpatialSearchConfigModule -->
<g id="node3" class="node">
<title>SpatialSearchConfigModule</title>
<polygon fill="#8dd3c7" stroke="black" points="419.91,-122 416.91,-126 395.91,-126 392.91,-122 244.09,-122 244.09,-86 419.91,-86 419.91,-122"/>
<text text-anchor="middle" x="332" y="-99.8" font-family="Times,serif" font-size="14.00">SpatialSearchConfigModule</text>
</g>
<!-- SpatialSearchConfigModule&#45;&gt;SpatialSearchConfigBehaviorModule -->
<g id="edge2" class="edge">
<title>SpatialSearchConfigModule&#45;&gt;SpatialSearchConfigBehaviorModule</title>
<path fill="none" stroke="black" d="M332,-122.11C332,-122.11 332,-140.99 332,-140.99"/>
<polygon fill="black" stroke="black" points="328.5,-140.99 332,-150.99 335.5,-140.99 328.5,-140.99"/>
</g>
<!-- SpatialSearchUiBehaviorModule -->
<g id="node4" class="node">
<title>SpatialSearchUiBehaviorModule</title>
<polygon fill="#8dd3c7" stroke="black" points="225.83,-122 222.83,-126 201.83,-126 198.83,-122 24.17,-122 24.17,-86 225.83,-86 225.83,-122"/>
<text text-anchor="middle" x="125" y="-99.8" font-family="Times,serif" font-size="14.00">SpatialSearchUiBehaviorModule</text>
</g>
<!-- SpatialSearchUiBehaviorModule&#45;&gt;SpatialSearchConfigBehaviorModule -->
<g id="edge3" class="edge">
<title>SpatialSearchUiBehaviorModule&#45;&gt;SpatialSearchConfigBehaviorModule</title>
<path fill="none" stroke="black" d="M222.28,-122.11C222.28,-122.11 222.28,-140.99 222.28,-140.99"/>
<polygon fill="black" stroke="black" points="218.78,-140.99 222.28,-150.99 225.78,-140.99 218.78,-140.99"/>
</g>
</g>
</svg>
