<?xml version="1.0" encoding="UTF-8" standalone="no"?>
<!DOCTYPE svg PUBLIC "-//W3C//DTD SVG 1.1//EN"
 "http://www.w3.org/Graphics/SVG/1.1/DTD/svg11.dtd">
<!-- Generated by graphviz version 2.47.0 (20210316.0004)
 -->
<!-- Title: dependencies Pages: 1 -->
<svg width="724pt" height="284pt"
 viewBox="0.00 0.00 724.00 284.00" xmlns="http://www.w3.org/2000/svg" xmlns:xlink="http://www.w3.org/1999/xlink">
<g id="graph0" class="graph" transform="scale(1 1) rotate(0) translate(4 280)">
<title>dependencies</title>
<polygon fill="white" stroke="transparent" points="-4,4 -4,-280 720,-280 720,4 -4,4"/>
<text text-anchor="start" x="337.01" y="-42.4" font-family="Times-12" font-weight="bold" font-size="14.00">Legend</text>
<polygon fill="#ffffb3" stroke="transparent" points="124,-10 124,-30 144,-30 144,-10 124,-10"/>
<text text-anchor="start" x="147.63" y="-15.4" font-family="Times-12" font-size="14.00"> &#160;Declarations</text>
<polygon fill="#8dd3c7" stroke="transparent" points="237,-10 237,-30 257,-30 257,-10 237,-10"/>
<text text-anchor="start" x="260.73" y="-15.4" font-family="Times-12" font-size="14.00"> &#160;Module</text>
<polygon fill="#80b1d3" stroke="transparent" points="323,-10 323,-30 343,-30 343,-10 323,-10"/>
<text text-anchor="start" x="346.78" y="-15.4" font-family="Times-12" font-size="14.00"> &#160;Bootstrap</text>
<polygon fill="#fdb462" stroke="transparent" points="420,-10 420,-30 440,-30 440,-10 420,-10"/>
<text text-anchor="start" x="443.67" y="-15.4" font-family="Times-12" font-size="14.00"> &#160;Providers</text>
<polygon fill="#fb8072" stroke="transparent" points="516,-10 516,-30 536,-30 536,-10 516,-10"/>
<text text-anchor="start" x="539.73" y="-15.4" font-family="Times-12" font-size="14.00"> &#160;Exports</text>
<g id="clust1" class="cluster">
<title>cluster_SpatialSearchConfigBehaviorModule</title>
<polygon fill="none" stroke="black" stroke-dasharray="1,5" points="8,-70 8,-268 708,-268 708,-70 8,-70"/>
</g>
<g id="clust4" class="cluster">
<title>cluster_SpatialSearchConfigBehaviorModule_imports</title>
<polygon fill="none" stroke="black" points="288,-78 288,-130 700,-130 700,-78 288,-78"/>
</g>
<g id="clust2" class="cluster">
<title>cluster_SpatialSearchConfigBehaviorModule_declarations</title>
<polygon fill="none" stroke="black" points="16,-78 16,-130 280,-130 280,-78 16,-78"/>
</g>
<g id="clust5" class="cluster">
<title>cluster_SpatialSearchConfigBehaviorModule_exports</title>
<polygon fill="none" stroke="black" points="263,-208 263,-260 531,-260 531,-208 263,-208"/>
</g>
<!-- SpatialSearchConfigBehaviorComponent -->
<g id="node1" class="node">
<title>SpatialSearchConfigBehaviorComponent</title>
<polygon fill="#ffffb3" stroke="black" points="272.01,-122 23.99,-122 23.99,-86 272.01,-86 272.01,-122"/>
<text text-anchor="middle" x="148" y="-99.8" font-family="Times,serif" font-size="14.00">SpatialSearchConfigBehaviorComponent</text>
</g>
<!-- SpatialSearchConfigBehaviorModule -->
<g id="node2" class="node">
<title>SpatialSearchConfigBehaviorModule</title>
<polygon fill="#8dd3c7" stroke="black" points="510.23,-187 507.23,-191 486.23,-191 483.23,-187 283.77,-187 283.77,-151 510.23,-151 510.23,-187"/>
<text text-anchor="middle" x="397" y="-164.8" font-family="Times,serif" font-size="14.00">SpatialSearchConfigBehaviorModule</text>
</g>
<!-- SpatialSearchConfigBehaviorComponent&#45;&gt;SpatialSearchConfigBehaviorModule -->
<g id="edge1" class="edge">
<title>SpatialSearchConfigBehaviorComponent&#45;&gt;SpatialSearchConfigBehaviorModule</title>
<path fill="none" stroke="black" d="M272.18,-104C282.95,-104 289.86,-104 289.86,-104 289.86,-104 289.86,-140.89 289.86,-140.89"/>
<polygon fill="black" stroke="black" points="286.36,-140.89 289.86,-150.89 293.36,-140.89 286.36,-140.89"/>
</g>
<!-- SpatialSearchConfigBehaviorComponent  -->
<g id="node5" class="node">
<title>SpatialSearchConfigBehaviorComponent </title>
<polygon fill="#fb8072" stroke="black" points="523.01,-252 270.99,-252 270.99,-216 523.01,-216 523.01,-252"/>
<text text-anchor="middle" x="397" y="-229.8" font-family="Times,serif" font-size="14.00">SpatialSearchConfigBehaviorComponent </text>
</g>
<!-- SpatialSearchConfigBehaviorModule&#45;&gt;SpatialSearchConfigBehaviorComponent  -->
<g id="edge4" class="edge">
<title>SpatialSearchConfigBehaviorModule&#45;&gt;SpatialSearchConfigBehaviorComponent </title>
<path fill="none" stroke="black" stroke-dasharray="5,2" d="M397,-187.11C397,-187.11 397,-205.99 397,-205.99"/>
<polygon fill="black" stroke="black" points="393.5,-205.99 397,-215.99 400.5,-205.99 393.5,-205.99"/>
</g>
<!-- SpatialSearchConfigModule -->
<g id="node3" class="node">
<title>SpatialSearchConfigModule</title>
<polygon fill="#8dd3c7" stroke="black" points="691.91,-122 688.91,-126 667.91,-126 664.91,-122 516.09,-122 516.09,-86 691.91,-86 691.91,-122"/>
<text text-anchor="middle" x="604" y="-99.8" font-family="Times,serif" font-size="14.00">SpatialSearchConfigModule</text>
</g>
<!-- SpatialSearchConfigModule&#45;&gt;SpatialSearchConfigBehaviorModule -->
<g id="edge2" class="edge">
<title>SpatialSearchConfigModule&#45;&gt;SpatialSearchConfigBehaviorModule</title>
<path fill="none" stroke="black" d="M515.99,-104C508.75,-104 504.14,-104 504.14,-104 504.14,-104 504.14,-140.89 504.14,-140.89"/>
<polygon fill="black" stroke="black" points="500.64,-140.89 504.14,-150.89 507.64,-140.89 500.64,-140.89"/>
</g>
<!-- SpatialSearchUiBehaviorModule -->
<g id="node4" class="node">
<title>SpatialSearchUiBehaviorModule</title>
<polygon fill="#8dd3c7" stroke="black" points="497.83,-122 494.83,-126 473.83,-126 470.83,-122 296.17,-122 296.17,-86 497.83,-86 497.83,-122"/>
<text text-anchor="middle" x="397" y="-99.8" font-family="Times,serif" font-size="14.00">SpatialSearchUiBehaviorModule</text>
</g>
<!-- SpatialSearchUiBehaviorModule&#45;&gt;SpatialSearchConfigBehaviorModule -->
<g id="edge3" class="edge">
<title>SpatialSearchUiBehaviorModule&#45;&gt;SpatialSearchConfigBehaviorModule</title>
<path fill="none" stroke="black" d="M397,-122.11C397,-122.11 397,-140.99 397,-140.99"/>
<polygon fill="black" stroke="black" points="393.5,-140.99 397,-150.99 400.5,-140.99 393.5,-140.99"/>
</g>
</g>
</svg>
