<svg width="24" height="24" viewBox="0 0 24 24" fill="none" xmlns="http://www.w3.org/2000/svg">
<path d="M19.9559 18.3138H5.18618V4.84309C5.18618 4.37471 4.81148 4 4.34309 4C3.87471 4 3.5 4.37471 3.5 4.84309V19.1569C3.5 19.6253 3.87471 20 4.34309 20H19.9559C20.4243 20 20.799 19.6253 20.799 19.1569C20.799 18.6885 20.4243 18.3138 19.9559 18.3138Z" fill="white"/>
<path d="M7.1349 16.5828H19.5065C19.9749 16.5828 20.3496 16.2081 20.3496 15.7397V7.05903C20.3496 6.7093 20.131 6.3908 19.8 6.2659C19.469 6.141 19.0943 6.24092 18.8695 6.50946L14.8726 11.1746L12.2309 8.93881C12.0498 8.78893 11.8187 8.71399 11.5877 8.74521C11.3566 8.77019 11.1443 8.8951 11.0069 9.08245L6.46043 15.2401C6.27308 15.4962 6.24185 15.8397 6.38549 16.1207C6.52913 16.4017 6.82265 16.5828 7.14115 16.5828H7.1349Z" fill="white"/>
</svg>
