<?xml version="1.0" encoding="UTF-8" standalone="no"?>
<!DOCTYPE svg PUBLIC "-//W3C//DTD SVG 1.1//EN"
 "http://www.w3.org/Graphics/SVG/1.1/DTD/svg11.dtd">
<!-- Generated by graphviz version 2.47.0 (20210316.0004)
 -->
<!-- Title: dependencies Pages: 1 -->
<svg width="504pt" height="284pt"
 viewBox="0.00 0.00 504.00 284.00" xmlns="http://www.w3.org/2000/svg" xmlns:xlink="http://www.w3.org/1999/xlink">
<g id="graph0" class="graph" transform="scale(1 1) rotate(0) translate(4 280)">
<title>dependencies</title>
<polygon fill="white" stroke="transparent" points="-4,4 -4,-280 500,-280 500,4 -4,4"/>
<text text-anchor="start" x="227.01" y="-42.4" font-family="Times-12" font-weight="bold" font-size="14.00">Legend</text>
<polygon fill="#ffffb3" stroke="transparent" points="14,-10 14,-30 34,-30 34,-10 14,-10"/>
<text text-anchor="start" x="37.63" y="-15.4" font-family="Times-12" font-size="14.00"> &#160;Declarations</text>
<polygon fill="#8dd3c7" stroke="transparent" points="127,-10 127,-30 147,-30 147,-10 127,-10"/>
<text text-anchor="start" x="150.73" y="-15.4" font-family="Times-12" font-size="14.00"> &#160;Module</text>
<polygon fill="#80b1d3" stroke="transparent" points="213,-10 213,-30 233,-30 233,-10 213,-10"/>
<text text-anchor="start" x="236.78" y="-15.4" font-family="Times-12" font-size="14.00"> &#160;Bootstrap</text>
<polygon fill="#fdb462" stroke="transparent" points="310,-10 310,-30 330,-30 330,-10 310,-10"/>
<text text-anchor="start" x="333.67" y="-15.4" font-family="Times-12" font-size="14.00"> &#160;Providers</text>
<polygon fill="#fb8072" stroke="transparent" points="406,-10 406,-30 426,-30 426,-10 406,-10"/>
<text text-anchor="start" x="429.73" y="-15.4" font-family="Times-12" font-size="14.00"> &#160;Exports</text>
<g id="clust1" class="cluster">
<title>cluster_CarouselModule</title>
<polygon fill="none" stroke="black" stroke-dasharray="1,5" points="104,-70 104,-268 392,-268 392,-70 104,-70"/>
</g>
<g id="clust5" class="cluster">
<title>cluster_CarouselModule_exports</title>
<polygon fill="none" stroke="black" points="173,-208 173,-260 323,-260 323,-208 173,-208"/>
</g>
<g id="clust4" class="cluster">
<title>cluster_CarouselModule_imports</title>
<polygon fill="none" stroke="black" points="268,-78 268,-130 384,-130 384,-78 268,-78"/>
</g>
<g id="clust2" class="cluster">
<title>cluster_CarouselModule_declarations</title>
<polygon fill="none" stroke="black" points="112,-78 112,-130 260,-130 260,-78 112,-78"/>
</g>
<!-- CarouselComponent -->
<g id="node1" class="node">
<title>CarouselComponent</title>
<polygon fill="#ffffb3" stroke="black" points="251.59,-122 120.41,-122 120.41,-86 251.59,-86 251.59,-122"/>
<text text-anchor="middle" x="186" y="-99.8" font-family="Times,serif" font-size="14.00">CarouselComponent</text>
</g>
<!-- CarouselModule -->
<g id="node2" class="node">
<title>CarouselModule</title>
<polygon fill="#8dd3c7" stroke="black" points="302.81,-187 299.81,-191 278.81,-191 275.81,-187 193.19,-187 193.19,-151 302.81,-151 302.81,-187"/>
<text text-anchor="middle" x="248" y="-164.8" font-family="Times,serif" font-size="14.00">CarouselModule</text>
</g>
<!-- CarouselComponent&#45;&gt;CarouselModule -->
<g id="edge1" class="edge">
<title>CarouselComponent&#45;&gt;CarouselModule</title>
<path fill="none" stroke="black" d="M222.45,-122.11C222.45,-122.11 222.45,-140.99 222.45,-140.99"/>
<polygon fill="black" stroke="black" points="218.95,-140.99 222.45,-150.99 225.95,-140.99 218.95,-140.99"/>
</g>
<!-- CarouselComponent  -->
<g id="node4" class="node">
<title>CarouselComponent </title>
<polygon fill="#fb8072" stroke="black" points="315.09,-252 180.91,-252 180.91,-216 315.09,-216 315.09,-252"/>
<text text-anchor="middle" x="248" y="-229.8" font-family="Times,serif" font-size="14.00">CarouselComponent </text>
</g>
<!-- CarouselModule&#45;&gt;CarouselComponent  -->
<g id="edge3" class="edge">
<title>CarouselModule&#45;&gt;CarouselComponent </title>
<path fill="none" stroke="black" stroke-dasharray="5,2" d="M248,-187.11C248,-187.11 248,-205.99 248,-205.99"/>
<polygon fill="black" stroke="black" points="244.5,-205.99 248,-215.99 251.5,-205.99 244.5,-205.99"/>
</g>
<!-- SwiperModule -->
<g id="node3" class="node">
<title>SwiperModule</title>
<polygon fill="#8dd3c7" stroke="black" points="375.71,-122 372.71,-126 351.71,-126 348.71,-122 276.29,-122 276.29,-86 375.71,-86 375.71,-122"/>
<text text-anchor="middle" x="326" y="-99.8" font-family="Times,serif" font-size="14.00">SwiperModule</text>
</g>
<!-- SwiperModule&#45;&gt;CarouselModule -->
<g id="edge2" class="edge">
<title>SwiperModule&#45;&gt;CarouselModule</title>
<path fill="none" stroke="black" d="M289.53,-122.11C289.53,-122.11 289.53,-140.99 289.53,-140.99"/>
<polygon fill="black" stroke="black" points="286.03,-140.99 289.53,-150.99 293.03,-140.99 286.03,-140.99"/>
</g>
</g>
</svg>
