<svg width="80" height="80" viewBox="0 0 80 80" fill="none" xmlns="http://www.w3.org/2000/svg">
<g clip-path="url(#clip0_1409_384)">
<path d="M40.0083 80.0165C62.1042 80.0165 80.0165 62.1042 80.0165 40.0083C80.0165 17.9123 62.1042 0 40.0083 0C17.9123 0 0 17.9123 0 40.0083C0 62.1042 17.9123 80.0165 40.0083 80.0165Z" fill="#201E3D"/>
<path d="M48.682 35.0755C48.4502 34.8107 48.053 34.7445 47.6888 34.7279C47.3246 34.7279 46.9605 34.7776 46.6129 34.6617C45.9176 34.4465 45.57 33.6851 45.1562 33.0561C44.312 31.7484 42.8719 30.8214 41.3159 30.6228C40.9021 30.5731 40.4055 30.5069 40.24 30.1262C40.1738 29.9938 40.1738 29.8283 40.1738 29.6793C40.1572 29.3317 40.091 28.951 39.8262 28.7192C39.5613 28.4875 39.0648 28.5206 38.9489 28.8516C38.8496 29.133 39.0648 29.4144 39.1806 29.6793C39.5117 30.4573 38.4192 30.6062 37.9226 30.7056C37.1612 30.8711 36.3832 30.9373 35.6549 31.2353C34.7114 31.5994 33.9168 32.3277 33.4533 33.2216C33.1885 33.7182 32.9236 34.3638 32.3608 34.3803C32.096 34.3803 31.798 34.2644 31.616 34.43C31.4008 34.612 31.5332 34.9597 31.7153 35.1583C31.8974 35.3569 32.1457 35.5556 32.1622 35.837C32.1622 36.019 32.0794 36.1846 31.9967 36.3501C31.169 37.9557 31.2021 38.7337 31.3842 40.538C31.5498 42.1767 32.0463 42.8554 32.1622 43.1037C32.2615 43.3354 32.1953 43.6002 32.1126 43.8485C32.0298 44.0803 31.9139 44.3286 31.947 44.5769C31.9801 44.8252 32.2119 45.0735 32.4602 45.0072C32.6919 44.941 32.7747 44.6265 32.9402 44.461C33.2216 44.1796 33.7016 44.2789 34.0161 44.5272C34.3141 44.7755 34.4962 45.1397 34.761 45.4376C35.4562 46.2487 36.5818 46.5467 37.6578 46.5632C38.7171 46.5963 39.7931 46.3977 40.8525 46.4639C40.8856 46.4639 40.9187 46.4639 40.9518 46.4639C40.9518 46.5301 40.9683 46.5963 40.9683 46.6625C40.9683 46.8281 40.869 46.9605 40.8028 47.1095C40.7366 47.2419 40.72 47.4074 40.8028 47.5398C40.9021 47.6888 41.1339 47.7219 41.2828 47.6391C41.4484 47.5564 41.5477 47.3909 41.6304 47.2253C41.7463 46.9936 41.796 46.7453 41.8125 46.497C42.2429 46.497 42.6733 46.4639 43.0209 46.2322C43.3188 46.0335 43.534 45.7521 43.7989 45.5204C44.3451 45.0403 45.0734 44.8417 45.6197 44.3782C46.2321 43.8485 46.5301 43.0375 46.7949 42.2595C46.9936 42.1602 47.2253 42.3588 47.4405 42.3753C47.755 42.3753 47.9536 41.9615 47.8212 41.6636C47.6888 41.3656 47.3743 41.2166 47.0598 41.1339C47.2088 40.1407 47.2088 39.1144 47.0598 38.1213C46.9936 37.6743 46.8943 37.2108 46.977 36.7639C47.0763 36.317 47.4405 35.8866 47.8874 35.9032C48.1026 35.9032 48.3178 36.0025 48.5164 35.9363C48.864 35.837 48.9137 35.3073 48.682 35.0424V35.0755ZM38.9323 42.6567C37.2936 42.6567 35.9528 41.3325 35.9528 39.6772C35.9528 38.0219 37.277 36.6977 38.9323 36.6977C40.5876 36.6977 41.9118 38.0219 41.9118 39.6772C41.9118 41.3325 40.5876 42.6567 38.9323 42.6567Z" fill="white"/>
<path d="M39.3958 54.31C30.8877 54.31 23.9686 47.3909 23.9686 38.8827C23.9686 30.3745 30.8877 23.4554 39.3958 23.4554C47.904 23.4554 54.8231 30.3745 54.8231 38.8827C54.8231 47.3909 47.904 54.31 39.3958 54.31ZM39.3958 25.1107C31.7981 25.1107 25.6239 31.2849 25.6239 38.8827C25.6239 46.4804 31.7981 52.6547 39.3958 52.6547C46.9936 52.6547 53.1678 46.4804 53.1678 38.8827C53.1678 31.2849 46.9936 25.1107 39.3958 25.1107Z" fill="white"/>
<path d="M55.3031 56.4453C55.1045 56.4453 54.8893 56.3791 54.7403 56.2301L48.8972 50.7676C48.5661 50.4531 48.5496 49.94 48.8641 49.5924C49.1786 49.2613 49.7083 49.2448 50.0393 49.5593L55.8825 55.0217C56.2135 55.3362 56.2301 55.8494 55.9156 56.197C55.7501 56.3791 55.5349 56.4618 55.3031 56.4618V56.4453Z" fill="white"/>
</g>
<defs>
<clipPath id="clip0_1409_384">
<rect width="80" height="80" fill="white"/>
</clipPath>
</defs>
</svg>
