<svg width="48" height="48" viewBox="0 0 48 48" fill="none" xmlns="http://www.w3.org/2000/svg">
<g clip-path="url(#clip0_4049_22009)">
<path d="M24.005 48.0099C37.2625 48.0099 48.0099 37.2625 48.0099 24.005C48.0099 10.7474 37.2625 0 24.005 0C10.7474 0 0 10.7474 0 24.005C0 37.2625 10.7474 48.0099 24.005 48.0099Z" fill="#201E3D"/>
<path d="M24.3524 35.9437C23.5976 35.9437 22.8527 35.8642 22.1078 35.6954C18.9297 34.9903 16.417 32.8649 15.0265 29.6966C13.0799 25.2472 11.3915 21.4037 15.1258 17.5303C18.8502 13.6569 20.8664 13.4583 24.8788 13.0511L25.8322 12.9518C30.8676 12.4155 33.0228 16.9145 34.6019 21.8407C36.0818 26.449 33.9961 30.9381 31.2748 33.3317C29.358 35.0201 26.8751 35.9338 24.3524 35.9338V35.9437ZM25.9315 13.9449L24.9682 14.0443C20.9657 14.4515 19.3071 14.6203 15.831 18.2255C12.7224 21.4533 13.8446 24.5421 15.9303 29.2994C17.1916 32.1696 19.4561 34.0964 22.3164 34.732C25.2065 35.3677 28.3946 34.5533 30.6094 32.5967C33.0923 30.4117 34.9893 26.3397 33.6485 22.1585C31.6323 15.8717 29.4573 13.5874 25.9216 13.9549L25.9315 13.9449Z" fill="white"/>
<path d="M24.1442 16.3783C25.9518 15.9413 27.6898 15.7228 28.7326 17.1729C28.7326 17.1729 32.4173 21.811 32.1293 24.4429C31.8413 27.0748 27.5706 24.6217 26.8456 21.9798C26.1206 19.338 26.2398 18.9109 23.9753 18.2952C21.7109 17.6794 22.3267 16.8153 24.1343 16.3783H24.1442ZM28.2956 20.3908C28.5837 21.4535 29.7953 22.2679 30.1827 22.0196C30.57 21.7713 30.2621 20.3113 29.4378 19.487C29.3186 19.3678 28.832 18.8811 28.5042 19.0202C28.1765 19.1592 28.1566 19.8842 28.2956 20.3908Z" fill="white"/>
<path d="M23.7269 31.2047C24.6207 30.728 26.4978 30.4003 27.3122 29.7845C28.1266 29.1687 28.8516 27.1824 29.4277 26.7653C30.0037 26.3481 30.9373 25.9012 31.6623 26.219C31.6623 26.219 32.139 27.1427 31.6623 28.5232C31.1856 29.8937 28.4345 32.3767 27.1632 32.6846C25.892 32.9924 23.1409 33.8565 22.1477 32.9626C21.1546 32.0688 22.833 31.6914 23.7269 31.2147V31.2047ZM27.63 31.8999C27.9379 31.4927 27.8485 30.728 27.4612 30.4499C26.766 29.9533 25.1372 31.0359 25.2266 31.5821C25.3159 32.0986 27.0838 32.6349 27.63 31.8999Z" fill="white"/>
<path d="M15.3944 23.1105C16.2286 21.591 16.5564 20.3991 17.5297 19.3861C18.503 18.3731 19.2975 17.3203 21.5024 17.3203C21.5024 17.3203 23.2702 18.2638 23.161 19.0882C23.0517 19.9224 19.3671 20.717 18.9698 22.306C18.5725 23.8951 18.4236 25.5636 19.5856 27.2222C20.7476 28.8808 22.873 30.7281 21.8599 31.3042C20.8469 31.8802 19.4763 31.3042 18.066 29.1689C16.6557 27.0335 14.5601 24.6102 15.3944 23.0906V23.1105ZM16.4571 23.2595C16.6259 23.8554 17.192 24.4811 17.6489 24.3917C18.364 24.2626 18.94 22.3557 18.2448 21.3923C18.1653 21.2831 17.9766 21.0248 17.6985 21.005C17.0728 20.9653 16.1591 22.1869 16.4571 23.2495V23.2595Z" fill="white"/>
</g>
<defs>
<clipPath id="clip0_4049_22009">
<rect width="48" height="48" fill="white"/>
</clipPath>
</defs>
</svg>
